<?xml version="1.0" encoding="UTF-8" standalone="no"?>
<!DOCTYPE svg PUBLIC "-//W3C//DTD SVG 1.1//EN"
 "http://www.w3.org/Graphics/SVG/1.1/DTD/svg11.dtd">
<!-- Generated by graphviz version 7.0.4 (0)
 -->
<!-- Title: dfg Pages: 1 -->
<svg width="1012pt" height="1312pt"
 viewBox="0.00 0.00 1011.50 1312.00" xmlns="http://www.w3.org/2000/svg" xmlns:xlink="http://www.w3.org/1999/xlink">
<g id="graph0" class="graph" transform="scale(1 1) rotate(0) translate(4 1308)">
<title>dfg</title>
<polygon fill="white" stroke="none" points="-4,4 -4,-1308 1007.5,-1308 1007.5,4 -4,4"/>
<!-- start_node -->
<g id="node1" class="node">
<title>start_node</title>
<ellipse fill="none" stroke="black" cx="823.5" cy="-1286" rx="18" ry="18"/>
<text text-anchor="start" x="819" y="-1282.3" font-family="Times,serif" font-size="14.00">●</text>
</g>
<!-- Taglio -->
<g id="node2" class="node">
<title>Taglio</title>
<polygon fill="#b8b8ff" stroke="black" points="825,-1217 748,-1217 748,-1181 825,-1181 825,-1217"/>
<text text-anchor="middle" x="786.5" y="-1195.3" font-family="Times,serif" font-size="14.00">Taglio (30)</text>
</g>
<!-- start_node&#45;&gt;Taglio -->
<g id="edge1" class="edge">
<title>start_node&#45;&gt;Taglio</title>
<path fill="none" stroke="#000000" stroke-width="5.06" d="M816.54,-1269.01C812.04,-1258.67 806.01,-1244.83 800.54,-1232.26"/>
<polygon fill="#000000" stroke="#000000" stroke-width="5.06" points="804.61,-1230.51 796.56,-1223.11 796.49,-1234.04 804.61,-1230.51"/>
<text text-anchor="middle" x="814.5" y="-1238.8" font-family="Times,serif" font-size="14.00">30</text>
</g>
<!-- Preparazione smussi -->
<g id="node3" class="node">
<title>Preparazione smussi</title>
<polygon fill="#9b9bff" stroke="black" points="901,-1130 746,-1130 746,-1094 901,-1094 901,-1130"/>
<text text-anchor="middle" x="823.5" y="-1108.3" font-family="Times,serif" font-size="14.00">Preparazione smussi (42)</text>
</g>
<!-- start_node&#45;&gt;Preparazione smussi -->
<g id="edge2" class="edge">
<title>start_node&#45;&gt;Preparazione smussi</title>
<path fill="none" stroke="#000000" stroke-width="1.44" d="M826.7,-1268.03C829.11,-1254.32 832.22,-1234.49 833.5,-1217 834.67,-1201.04 834.67,-1196.96 833.5,-1181 832.56,-1168.1 830.62,-1153.94 828.7,-1141.9"/>
<polygon fill="#000000" stroke="#000000" stroke-width="1.44" points="832.21,-1141.69 827.11,-1132.41 825.31,-1142.85 832.21,-1141.69"/>
<text text-anchor="middle" x="838" y="-1195.3" font-family="Times,serif" font-size="14.00">7</text>
</g>
<!-- Taglio&#45;&gt;Preparazione smussi -->
<g id="edge3" class="edge">
<title>Taglio&#45;&gt;Preparazione smussi</title>
<path fill="none" stroke="#000000" stroke-width="5.06" d="M793.99,-1180.8C798.42,-1170.61 804.18,-1157.38 809.44,-1145.31"/>
<polygon fill="#000000" stroke="#000000" stroke-width="5.06" points="813.47,-1147.13 813.4,-1136.2 805.35,-1143.6 813.47,-1147.13"/>
<text text-anchor="middle" x="814.5" y="-1151.8" font-family="Times,serif" font-size="14.00">30</text>
</g>
<!-- Preparazione smussi&#45;&gt;Preparazione smussi -->
<g id="edge32" class="edge">
<title>Preparazione smussi&#45;&gt;Preparazione smussi</title>
<path fill="none" stroke="#000000" stroke-width="1.13" d="M901.44,-1119.24C911.98,-1118.02 919,-1115.61 919,-1112 919,-1109.91 916.65,-1108.23 912.64,-1106.94"/>
<polygon fill="#000000" stroke="#000000" stroke-width="1.13" points="913.6,-1103.56 903.12,-1105.09 912.26,-1110.43 913.6,-1103.56"/>
<text text-anchor="middle" x="922.5" y="-1108.3" font-family="Times,serif" font-size="14.00">5</text>
</g>
<!-- Formatura -->
<g id="node4" class="node">
<title>Formatura</title>
<polygon fill="#a9a9ff" stroke="black" points="817.5,-1043 717.5,-1043 717.5,-1007 817.5,-1007 817.5,-1043"/>
<text text-anchor="middle" x="767.5" y="-1021.3" font-family="Times,serif" font-size="14.00">Formatura (36)</text>
</g>
<!-- Preparazione smussi&#45;&gt;Formatura -->
<g id="edge4" class="edge">
<title>Preparazione smussi&#45;&gt;Formatura</title>
<path fill="none" stroke="#000000" stroke-width="0.81" d="M812.17,-1093.8C804.4,-1082.01 793.94,-1066.14 785.1,-1052.72"/>
<polygon fill="#000000" stroke="#000000" stroke-width="0.81" points="788.11,-1050.92 779.69,-1044.5 782.26,-1054.77 788.11,-1050.92"/>
<text text-anchor="middle" x="803" y="-1064.8" font-family="Times,serif" font-size="14.00">3</text>
</g>
<!-- Preinviti -->
<g id="node13" class="node">
<title>Preinviti</title>
<polygon fill="#a9a9ff" stroke="black" points="842,-956 753,-956 753,-920 842,-920 842,-956"/>
<text text-anchor="middle" x="797.5" y="-934.3" font-family="Times,serif" font-size="14.00">Preinviti (36)</text>
</g>
<!-- Preparazione smussi&#45;&gt;Preinviti -->
<g id="edge15" class="edge">
<title>Preparazione smussi&#45;&gt;Preinviti</title>
<path fill="none" stroke="#000000" stroke-width="5.69" d="M834.4,-1093.84C846.19,-1073.03 861.97,-1037.01 851.5,-1007 846.54,-992.78 837.23,-979.3 827.71,-968.15"/>
<polygon fill="#000000" stroke="#000000" stroke-width="5.69" points="831.47,-964.89 821.03,-960.92 824.16,-971.64 831.47,-964.89"/>
<text text-anchor="middle" x="862.5" y="-1021.3" font-family="Times,serif" font-size="14.00">34</text>
</g>
<!-- Formatura&#45;&gt;Formatura -->
<g id="edge24" class="edge">
<title>Formatura&#45;&gt;Formatura</title>
<path fill="none" stroke="#ff0000" stroke-width="0.5" stroke-dasharray="5,2" d="M817.91,-1032.85C828.16,-1031.99 835.5,-1029.38 835.5,-1025 835.5,-1022.33 832.77,-1020.32 828.33,-1018.96"/>
<polygon fill="#ff0000" stroke="#ff0000" stroke-width="0.5" points="829.11,-1015.55 818.66,-1017.28 827.91,-1022.44 829.11,-1015.55"/>
<text text-anchor="middle" x="839" y="-1021.3" font-family="Times,serif" font-size="14.00">1</text>
</g>
<!-- Puntatura -->
<g id="node5" class="node">
<title>Puntatura</title>
<polygon fill="#a4a4ff" stroke="black" points="726,-869 631,-869 631,-833 726,-833 726,-869"/>
<text text-anchor="middle" x="678.5" y="-847.3" font-family="Times,serif" font-size="14.00">Puntatura (38)</text>
</g>
<!-- Formatura&#45;&gt;Puntatura -->
<g id="edge5" class="edge">
<title>Formatura&#45;&gt;Puntatura</title>
<path fill="none" stroke="#000000" stroke-width="1.91" d="M757.4,-1006.53C749.59,-992.88 738.6,-973.37 729.5,-956 716.37,-930.95 702.28,-902.05 692.24,-881.07"/>
<polygon fill="#000000" stroke="#000000" stroke-width="1.91" points="695.41,-879.58 687.95,-872.06 689.09,-882.59 695.41,-879.58"/>
<text text-anchor="middle" x="736.5" y="-934.3" font-family="Times,serif" font-size="14.00">10</text>
</g>
<!-- Formatura&#45;&gt;Preinviti -->
<g id="edge22" class="edge">
<title>Formatura&#45;&gt;Preinviti</title>
<path fill="none" stroke="#ff0000" stroke-width="0.66" stroke-dasharray="5,2" d="M766.07,-1006.82C765.84,-996.92 766.59,-984.42 770.5,-974 771.61,-971.04 773.06,-968.12 774.72,-965.31"/>
<polygon fill="#ff0000" stroke="#ff0000" stroke-width="0.66" points="777.59,-967.31 780.38,-957.09 771.83,-963.34 777.59,-967.31"/>
<text text-anchor="middle" x="774" y="-977.8" font-family="Times,serif" font-size="14.00">2</text>
</g>
<!-- Schiacciatura tubi 013/112 -->
<g id="node14" class="node">
<title>Schiacciatura tubi 013/112</title>
<polygon fill="#b0b0ff" stroke="black" points="817.5,-500 629.5,-500 629.5,-464 817.5,-464 817.5,-500"/>
<text text-anchor="middle" x="723.5" y="-478.3" font-family="Times,serif" font-size="14.00">Schiacciatura tubi 013/112 (33)</text>
</g>
<!-- Formatura&#45;&gt;Schiacciatura tubi 013/112 -->
<g id="edge17" class="edge">
<title>Formatura&#45;&gt;Schiacciatura tubi 013/112</title>
<path fill="none" stroke="#000000" stroke-width="3.96" d="M817.88,-1009.93C883.37,-990.9 989.5,-957.26 989.5,-939 989.5,-939 989.5,-939 989.5,-568 989.5,-533.32 906.42,-510.85 833.12,-497.78"/>
<polygon fill="#000000" stroke="#000000" stroke-width="3.96" points="834.01,-494.38 823.56,-496.15 832.82,-501.28 834.01,-494.38"/>
<text text-anchor="middle" x="996.5" y="-739.3" font-family="Times,serif" font-size="14.00">23</text>
</g>
<!-- Puntatura&#45;&gt;Puntatura -->
<g id="edge40" class="edge">
<title>Puntatura&#45;&gt;Puntatura</title>
<path fill="none" stroke="#ff0000" stroke-width="0.5" stroke-dasharray="5,2" d="M726.48,-858.89C736.65,-858.09 744,-855.46 744,-851 744,-848.28 741.27,-846.24 736.84,-844.88"/>
<polygon fill="#ff0000" stroke="#ff0000" stroke-width="0.5" points="737.68,-841.48 727.23,-843.24 736.49,-848.38 737.68,-841.48"/>
<text text-anchor="middle" x="747.5" y="-847.3" font-family="Times,serif" font-size="14.00">1</text>
</g>
<!-- Saldatura esterna SAW -->
<g id="node6" class="node">
<title>Saldatura esterna SAW</title>
<polygon fill="#a4a4ff" stroke="black" points="713,-761 544,-761 544,-725 713,-725 713,-761"/>
<text text-anchor="middle" x="628.5" y="-739.3" font-family="Times,serif" font-size="14.00">Saldatura esterna SAW (38)</text>
</g>
<!-- Puntatura&#45;&gt;Saldatura esterna SAW -->
<g id="edge6" class="edge">
<title>Puntatura&#45;&gt;Saldatura esterna SAW</title>
<path fill="none" stroke="#000000" stroke-width="5.84" d="M670.47,-832.97C663.26,-817.68 652.48,-794.84 643.65,-776.13"/>
<polygon fill="#000000" stroke="#000000" stroke-width="5.84" points="648.31,-774.01 639.42,-767.15 639.06,-778.37 648.31,-774.01"/>
<text text-anchor="middle" x="668.5" y="-793.3" font-family="Times,serif" font-size="14.00">35</text>
</g>
<!-- Saldatura interna SAW -->
<g id="node7" class="node">
<title>Saldatura interna SAW</title>
<polygon fill="#a7a7ff" stroke="black" points="564.5,-674 396.5,-674 396.5,-638 564.5,-638 564.5,-674"/>
<text text-anchor="middle" x="480.5" y="-652.3" font-family="Times,serif" font-size="14.00">Saldatura interna SAW (37)</text>
</g>
<!-- Puntatura&#45;&gt;Saldatura interna SAW -->
<g id="edge28" class="edge">
<title>Puntatura&#45;&gt;Saldatura interna SAW</title>
<path fill="none" stroke="#ff0000" stroke-width="0.5" stroke-dasharray="5,2" d="M630.6,-846.71C584.32,-842.49 518.76,-833.38 501.5,-815 468.69,-780.05 470.67,-720.04 475.38,-684.9"/>
<polygon fill="#ff0000" stroke="#ff0000" stroke-width="0.5" points="478.81,-685.58 476.85,-675.17 471.89,-684.54 478.81,-685.58"/>
<text text-anchor="middle" x="480" y="-739.3" font-family="Times,serif" font-size="14.00">1</text>
</g>
<!-- Puntatura&#45;&gt;Schiacciatura tubi 013/112 -->
<g id="edge44" class="edge">
<title>Puntatura&#45;&gt;Schiacciatura tubi 013/112</title>
<path fill="none" stroke="#ff0000" stroke-width="0.5" stroke-dasharray="5,2" d="M630.52,-833.57C579.77,-813.21 510.14,-775 534.5,-725 540.19,-713.33 548.44,-716.3 557.5,-707 620.46,-642.37 679.74,-553.1 707.32,-509.34"/>
<polygon fill="#ff0000" stroke="#ff0000" stroke-width="0.5" points="710.29,-511.19 712.62,-500.86 704.35,-507.48 710.29,-511.19"/>
<text text-anchor="middle" x="620" y="-652.3" font-family="Times,serif" font-size="14.00">1</text>
</g>
<!-- Saldatura esterna SAW&#45;&gt;Saldatura esterna SAW -->
<g id="edge19" class="edge">
<title>Saldatura esterna SAW&#45;&gt;Saldatura esterna SAW</title>
<path fill="none" stroke="#ff0000" stroke-width="0.66" stroke-dasharray="5,2" d="M713.34,-750.1C723.99,-748.85 731,-746.48 731,-743 731,-740.88 728.4,-739.17 723.95,-737.87"/>
<polygon fill="#ff0000" stroke="#ff0000" stroke-width="0.66" points="724.79,-734.47 714.31,-736.08 723.5,-741.35 724.79,-734.47"/>
<text text-anchor="middle" x="734.5" y="-739.3" font-family="Times,serif" font-size="14.00">2</text>
</g>
<!-- Saldatura esterna SAW&#45;&gt;Saldatura interna SAW -->
<g id="edge7" class="edge">
<title>Saldatura esterna SAW&#45;&gt;Saldatura interna SAW</title>
<path fill="none" stroke="#000000" stroke-width="6" d="M598.19,-724.59C577.04,-712.45 548.47,-696.04 524.78,-682.43"/>
<polygon fill="#000000" stroke="#000000" stroke-width="6" points="527.65,-678.02 516.36,-677.6 522.42,-687.13 527.65,-678.02"/>
<text text-anchor="middle" x="570.5" y="-695.8" font-family="Times,serif" font-size="14.00">36</text>
</g>
<!-- Raggi X -->
<g id="node8" class="node">
<title>Raggi X</title>
<polygon fill="#9d9dff" stroke="black" points="447,-587 358,-587 358,-551 447,-551 447,-587"/>
<text text-anchor="middle" x="402.5" y="-565.3" font-family="Times,serif" font-size="14.00">Raggi X (41)</text>
</g>
<!-- Saldatura interna SAW&#45;&gt;Raggi X -->
<g id="edge8" class="edge">
<title>Saldatura interna SAW&#45;&gt;Raggi X</title>
<path fill="none" stroke="#000000" stroke-width="4.74" d="M464.72,-637.8C454.53,-626.7 441.02,-611.97 429.19,-599.08"/>
<polygon fill="#000000" stroke="#000000" stroke-width="4.74" points="432.53,-596.59 422.71,-592.03 426.42,-602.2 432.53,-596.59"/>
<text text-anchor="middle" x="453.5" y="-608.8" font-family="Times,serif" font-size="14.00">28</text>
</g>
<!-- Molatura intermedia -->
<g id="node9" class="node">
<title>Molatura intermedia</title>
<polygon fill="#e4e4ff" stroke="black" points="493,-326 338,-326 338,-290 493,-290 493,-326"/>
<text text-anchor="middle" x="415.5" y="-304.3" font-family="Times,serif" font-size="14.00">Molatura intermedia (12)</text>
</g>
<!-- Saldatura interna SAW&#45;&gt;Molatura intermedia -->
<g id="edge25" class="edge">
<title>Saldatura interna SAW&#45;&gt;Molatura intermedia</title>
<path fill="none" stroke="#000000" stroke-width="1.13" d="M488.53,-637.81C499.64,-611.97 517.56,-561.5 510.5,-518 499.13,-447.94 457.61,-374.21 433.38,-335.82"/>
<polygon fill="#000000" stroke="#000000" stroke-width="1.13" points="436.61,-334.37 428.26,-327.85 430.72,-338.15 436.61,-334.37"/>
<text text-anchor="middle" x="511" y="-478.3" font-family="Times,serif" font-size="14.00">5</text>
</g>
<!-- Collaudo -->
<g id="node12" class="node">
<title>Collaudo</title>
<polygon fill="#a7a7ff" stroke="black" points="425.5,-131 333.5,-131 333.5,-95 425.5,-95 425.5,-131"/>
<text text-anchor="middle" x="379.5" y="-109.3" font-family="Times,serif" font-size="14.00">Collaudo (37)</text>
</g>
<!-- Saldatura interna SAW&#45;&gt;Collaudo -->
<g id="edge21" class="edge">
<title>Saldatura interna SAW&#45;&gt;Collaudo</title>
<path fill="none" stroke="#ff0000" stroke-width="0.66" stroke-dasharray="5,2" d="M513.38,-637.69C536.19,-623.05 562.5,-599.73 562.5,-570 562.5,-570 562.5,-570 562.5,-199 562.5,-142.63 490.2,-123.54 436.49,-117.14"/>
<polygon fill="#ff0000" stroke="#ff0000" stroke-width="0.66" points="436.98,-113.67 426.67,-116.09 436.24,-120.63 436.98,-113.67"/>
<text text-anchor="middle" x="566" y="-391.3" font-family="Times,serif" font-size="14.00">2</text>
</g>
<!-- Calibratura finale -->
<g id="node15" class="node">
<title>Calibratura finale</title>
<polygon fill="#e6e6ff" stroke="black" points="374.5,-413 236.5,-413 236.5,-377 374.5,-377 374.5,-413"/>
<text text-anchor="middle" x="305.5" y="-391.3" font-family="Times,serif" font-size="14.00">Calibratura finale (11)</text>
</g>
<!-- Saldatura interna SAW&#45;&gt;Calibratura finale -->
<g id="edge41" class="edge">
<title>Saldatura interna SAW&#45;&gt;Calibratura finale</title>
<path fill="none" stroke="#ff0000" stroke-width="0.66" stroke-dasharray="5,2" d="M396.33,-640.57C292.84,-620.93 126.34,-582.48 89.5,-533 62.43,-496.63 59.11,-465.52 88.5,-431 106.1,-410.33 171.15,-401.83 225.48,-398.35"/>
<polygon fill="#ff0000" stroke="#ff0000" stroke-width="0.66" points="225.42,-401.86 235.2,-397.78 225.01,-394.87 225.42,-401.86"/>
<text text-anchor="middle" x="93" y="-521.8" font-family="Times,serif" font-size="14.00">2</text>
</g>
<!-- Raggi X&#45;&gt;Raggi X -->
<g id="edge26" class="edge">
<title>Raggi X&#45;&gt;Raggi X</title>
<path fill="none" stroke="#000000" stroke-width="0.97" d="M447.45,-576.96C457.58,-576.24 465,-573.59 465,-569 465,-566.35 462.52,-564.34 458.47,-562.98"/>
<polygon fill="#000000" stroke="#000000" stroke-width="0.97" points="459.35,-559.58 448.89,-561.3 458.14,-566.48 459.35,-559.58"/>
<text text-anchor="middle" x="468.5" y="-565.3" font-family="Times,serif" font-size="14.00">4</text>
</g>
<!-- Raggi X&#45;&gt;Molatura intermedia -->
<g id="edge9" class="edge">
<title>Raggi X&#45;&gt;Molatura intermedia</title>
<path fill="none" stroke="#ff0000" stroke-width="0.66" stroke-dasharray="5,2" d="M410.97,-550.59C413.23,-545.1 415.36,-538.91 416.5,-533 429.87,-463.56 423.74,-379.76 419.07,-337.03"/>
<polygon fill="#ff0000" stroke="#ff0000" stroke-width="0.66" points="422.58,-336.87 417.95,-327.34 415.62,-337.68 422.58,-336.87"/>
<text text-anchor="middle" x="429" y="-434.8" font-family="Times,serif" font-size="14.00">2</text>
</g>
<!-- Alesatura -->
<g id="node10" class="node">
<title>Alesatura</title>
<polygon fill="#f7f7ff" stroke="black" points="204.5,-326 116.5,-326 116.5,-290 204.5,-290 204.5,-326"/>
<text text-anchor="middle" x="160.5" y="-304.3" font-family="Times,serif" font-size="14.00">Alesatura (4)</text>
</g>
<!-- Raggi X&#45;&gt;Alesatura -->
<g id="edge11" class="edge">
<title>Raggi X&#45;&gt;Alesatura</title>
<path fill="none" stroke="#ff0000" stroke-width="0.5" stroke-dasharray="5,2" d="M357.57,-563.42C287.5,-555.26 157.32,-535.6 129.5,-500 91.93,-451.93 123.27,-375.94 144.65,-335.83"/>
<polygon fill="#ff0000" stroke="#ff0000" stroke-width="0.5" points="147.7,-337.56 149.46,-327.11 141.57,-334.18 147.7,-337.56"/>
<text text-anchor="middle" x="116" y="-434.8" font-family="Times,serif" font-size="14.00">1</text>
</g>
<!-- Raggi X&#45;&gt;Collaudo -->
<g id="edge20" class="edge">
<title>Raggi X&#45;&gt;Collaudo</title>
<path fill="none" stroke="#000000" stroke-width="3.49" d="M419.51,-550.84C424.19,-545.45 428.95,-539.27 432.5,-533 511.01,-394.34 587.14,-318.83 505.5,-182 491.06,-157.8 464.7,-141.69 439.8,-131.26"/>
<polygon fill="#000000" stroke="#000000" stroke-width="3.49" points="441.33,-128.1 430.74,-127.79 438.82,-134.64 441.33,-128.1"/>
<text text-anchor="middle" x="540.5" y="-347.8" font-family="Times,serif" font-size="14.00">20</text>
</g>
<!-- Raggi X&#45;&gt;Schiacciatura tubi 013/112 -->
<g id="edge29" class="edge">
<title>Raggi X&#45;&gt;Schiacciatura tubi 013/112</title>
<path fill="none" stroke="#000000" stroke-width="0.97" d="M447.48,-554.8C483.18,-544.44 534.41,-529.84 579.5,-518 598.52,-513 619.01,-507.87 638.41,-503.13"/>
<polygon fill="#000000" stroke="#000000" stroke-width="0.97" points="639.05,-506.58 647.94,-500.81 637.4,-499.77 639.05,-506.58"/>
<text text-anchor="middle" x="583" y="-521.8" font-family="Times,serif" font-size="14.00">4</text>
</g>
<!-- Raggi X&#45;&gt;Calibratura finale -->
<g id="edge33" class="edge">
<title>Raggi X&#45;&gt;Calibratura finale</title>
<path fill="none" stroke="#000000" stroke-width="1.6" d="M395.15,-550.5C381.58,-518.49 352.66,-451.85 338.5,-431 336.52,-428.09 334.3,-425.18 331.96,-422.36"/>
<polygon fill="#000000" stroke="#000000" stroke-width="1.6" points="334.69,-420.16 325.42,-415.03 329.47,-424.82 334.69,-420.16"/>
<text text-anchor="middle" x="377" y="-478.3" font-family="Times,serif" font-size="14.00">8</text>
</g>
<!-- Trattamento termico -->
<g id="node18" class="node">
<title>Trattamento termico</title>
<polygon fill="#fcfcff" stroke="black" points="288,-500 139,-500 139,-464 288,-464 288,-500"/>
<text text-anchor="middle" x="213.5" y="-478.3" font-family="Times,serif" font-size="14.00">Trattamento termico (2)</text>
</g>
<!-- Raggi X&#45;&gt;Trattamento termico -->
<g id="edge46" class="edge">
<title>Raggi X&#45;&gt;Trattamento termico</title>
<path fill="none" stroke="#ff0000" stroke-width="0.66" stroke-dasharray="5,2" d="M357.52,-553.88C340.36,-548.03 320.78,-540.79 303.5,-533 285.96,-525.09 267.25,-514.99 251.47,-505.94"/>
<polygon fill="#ff0000" stroke="#ff0000" stroke-width="0.66" points="253.31,-502.97 242.91,-500.97 249.8,-509.02 253.31,-502.97"/>
<text text-anchor="middle" x="307" y="-521.8" font-family="Times,serif" font-size="14.00">2</text>
</g>
<!-- Molatura intermedia&#45;&gt;Raggi X -->
<g id="edge10" class="edge">
<title>Molatura intermedia&#45;&gt;Raggi X</title>
<path fill="none" stroke="#000000" stroke-width="1.29" d="M414.63,-326.32C412.44,-369.92 406.69,-484.58 403.97,-538.8"/>
<polygon fill="#000000" stroke="#000000" stroke-width="1.29" points="400.48,-538.5 403.47,-548.66 407.47,-538.85 400.48,-538.5"/>
<text text-anchor="middle" x="413" y="-434.8" font-family="Times,serif" font-size="14.00">6</text>
</g>
<!-- Molatura intermedia&#45;&gt;Collaudo -->
<g id="edge27" class="edge">
<title>Molatura intermedia&#45;&gt;Collaudo</title>
<path fill="none" stroke="#ff0000" stroke-width="0.5" stroke-dasharray="5,2" d="M409.02,-289.54C402.71,-271.79 393.39,-243.37 388.5,-218 383.59,-192.51 381.35,-162.98 380.34,-141.91"/>
<polygon fill="#ff0000" stroke="#ff0000" stroke-width="0.5" points="383.85,-142.05 379.93,-132.21 376.85,-142.34 383.85,-142.05"/>
<text text-anchor="middle" x="392" y="-196.3" font-family="Times,serif" font-size="14.00">1</text>
</g>
<!-- Marcatura -->
<g id="node17" class="node">
<title>Marcatura</title>
<polygon fill="#f5f5ff" stroke="black" points="496.5,-218 404.5,-218 404.5,-182 496.5,-182 496.5,-218"/>
<text text-anchor="middle" x="450.5" y="-196.3" font-family="Times,serif" font-size="14.00">Marcatura (5)</text>
</g>
<!-- Molatura intermedia&#45;&gt;Marcatura -->
<g id="edge38" class="edge">
<title>Molatura intermedia&#45;&gt;Marcatura</title>
<path fill="none" stroke="#000000" stroke-width="1.13" d="M421.12,-289.97C426.53,-273.61 434.79,-248.59 441.17,-229.24"/>
<polygon fill="#000000" stroke="#000000" stroke-width="1.13" points="444.43,-230.56 444.24,-219.96 437.78,-228.36 444.43,-230.56"/>
<text text-anchor="middle" x="442" y="-250.3" font-family="Times,serif" font-size="14.00">5</text>
</g>
<!-- Alesatura&#45;&gt;Alesatura -->
<g id="edge12" class="edge">
<title>Alesatura&#45;&gt;Alesatura</title>
<path fill="none" stroke="#ff0000" stroke-width="0.5" stroke-dasharray="5,2" d="M204.81,-315.98C215.01,-315.29 222.5,-312.63 222.5,-308 222.5,-305.18 219.72,-303.09 215.24,-301.73"/>
<polygon fill="#ff0000" stroke="#ff0000" stroke-width="0.5" points="215.99,-298.31 205.55,-300.15 214.86,-305.22 215.99,-298.31"/>
<text text-anchor="middle" x="226" y="-304.3" font-family="Times,serif" font-size="14.00">1</text>
</g>
<!-- Molatura finale -->
<g id="node11" class="node">
<title>Molatura finale</title>
<polygon fill="#fcfcff" stroke="black" points="121,-218 0,-218 0,-182 121,-182 121,-218"/>
<text text-anchor="middle" x="60.5" y="-196.3" font-family="Times,serif" font-size="14.00">Molatura finale (2)</text>
</g>
<!-- Alesatura&#45;&gt;Molatura finale -->
<g id="edge13" class="edge">
<title>Alesatura&#45;&gt;Molatura finale</title>
<path fill="none" stroke="#ff0000" stroke-width="0.5" stroke-dasharray="5,2" d="M147.77,-289.58C136.55,-274.71 119.41,-253.08 102.5,-236 98.93,-232.4 95.02,-228.77 91.07,-225.29"/>
<polygon fill="#ff0000" stroke="#ff0000" stroke-width="0.5" points="93.45,-222.72 83.57,-218.9 88.91,-228.05 93.45,-222.72"/>
<text text-anchor="middle" x="138" y="-250.3" font-family="Times,serif" font-size="14.00">1</text>
</g>
<!-- Alesatura&#45;&gt;Collaudo -->
<g id="edge50" class="edge">
<title>Alesatura&#45;&gt;Collaudo</title>
<path fill="none" stroke="#ff0000" stroke-width="0.5" stroke-dasharray="5,2" d="M155.68,-289.57C149.54,-263.31 142.42,-213.36 166.5,-182 202.95,-134.53 272.76,-119.57 322.52,-115.19"/>
<polygon fill="#ff0000" stroke="#ff0000" stroke-width="0.5" points="322.67,-118.69 332.38,-114.44 322.14,-111.71 322.67,-118.69"/>
<text text-anchor="middle" x="170" y="-196.3" font-family="Times,serif" font-size="14.00">1</text>
</g>
<!-- NC da riparare -->
<g id="node16" class="node">
<title>NC da riparare</title>
<polygon fill="#ffffff" stroke="black" points="300,-218 183,-218 183,-182 300,-182 300,-218"/>
<text text-anchor="middle" x="241.5" y="-196.3" font-family="Times,serif" font-size="14.00">NC da riparare (1)</text>
</g>
<!-- Alesatura&#45;&gt;NC da riparare -->
<g id="edge35" class="edge">
<title>Alesatura&#45;&gt;NC da riparare</title>
<path fill="none" stroke="#ff0000" stroke-width="0.5" stroke-dasharray="5,2" d="M173.51,-289.97C186.54,-272.92 206.76,-246.46 221.77,-226.82"/>
<polygon fill="#ff0000" stroke="#ff0000" stroke-width="0.5" points="224.5,-229.01 227.79,-218.94 218.94,-224.76 224.5,-229.01"/>
<text text-anchor="middle" x="217" y="-250.3" font-family="Times,serif" font-size="14.00">1</text>
</g>
<!-- Molatura finale&#45;&gt;Collaudo -->
<g id="edge14" class="edge">
<title>Molatura finale&#45;&gt;Collaudo</title>
<path fill="none" stroke="#ff0000" stroke-width="0.66" stroke-dasharray="5,2" d="M81.38,-181.61C95.93,-170.45 116.27,-156.67 136.5,-149 197.39,-125.91 272.16,-117.91 322.55,-115.22"/>
<polygon fill="#ff0000" stroke="#ff0000" stroke-width="0.66" points="322.42,-118.73 332.24,-114.76 322.08,-111.74 322.42,-118.73"/>
<text text-anchor="middle" x="140" y="-152.8" font-family="Times,serif" font-size="14.00">2</text>
</g>
<!-- end_node -->
<g id="node21" class="node">
<title>end_node</title>
<ellipse fill="none" stroke="black" cx="379.5" cy="-22" rx="18" ry="18"/>
<ellipse fill="none" stroke="black" cx="379.5" cy="-22" rx="22" ry="22"/>
<text text-anchor="start" x="375" y="-18.3" font-family="Times,serif" font-size="14.00">■</text>
</g>
<!-- Collaudo&#45;&gt;end_node -->
<g id="edge54" class="edge">
<title>Collaudo&#45;&gt;end_node</title>
<path fill="none" stroke="#000000" stroke-width="6.16" d="M379.5,-94.84C379.5,-85.02 379.5,-72.3 379.5,-60.3"/>
<polygon fill="#000000" stroke="#000000" stroke-width="6.16" points="384.89,-60.68 379.5,-50.68 374.11,-60.68 384.89,-60.68"/>
<text text-anchor="middle" x="386.5" y="-65.8" font-family="Times,serif" font-size="14.00">37</text>
</g>
<!-- Preinviti&#45;&gt;Formatura -->
<g id="edge16" class="edge">
<title>Preinviti&#45;&gt;Formatura</title>
<path fill="none" stroke="#000000" stroke-width="5.37" d="M791.34,-956.47C787.76,-966.59 783.15,-979.66 778.94,-991.6"/>
<polygon fill="#000000" stroke="#000000" stroke-width="5.37" points="774.57,-989.85 775.67,-1000.84 783.43,-992.98 774.57,-989.85"/>
<text text-anchor="middle" x="791.5" y="-977.8" font-family="Times,serif" font-size="14.00">32</text>
</g>
<!-- Preinviti&#45;&gt;Puntatura -->
<g id="edge43" class="edge">
<title>Preinviti&#45;&gt;Puntatura</title>
<path fill="none" stroke="#ff0000" stroke-width="0.5" stroke-dasharray="5,2" d="M773.13,-919.59C755.32,-906.87 730.97,-889.48 711.43,-875.52"/>
<polygon fill="#ff0000" stroke="#ff0000" stroke-width="0.5" points="713.62,-872.79 703.45,-869.82 709.55,-878.48 713.62,-872.79"/>
<text text-anchor="middle" x="749" y="-890.8" font-family="Times,serif" font-size="14.00">1</text>
</g>
<!-- Preinviti&#45;&gt;Schiacciatura tubi 013/112 -->
<g id="edge23" class="edge">
<title>Preinviti&#45;&gt;Schiacciatura tubi 013/112</title>
<path fill="none" stroke="#ff0000" stroke-width="0.66" stroke-dasharray="5,2" d="M798.37,-919.5C800.25,-880.3 804.5,-782.45 804.5,-700.5 804.5,-700.5 804.5,-700.5 804.5,-568 804.5,-542.25 784.78,-521.22 764.8,-506.52"/>
<polygon fill="#ff0000" stroke="#ff0000" stroke-width="0.66" points="767.01,-503.79 756.8,-500.98 763.03,-509.55 767.01,-503.79"/>
<text text-anchor="middle" x="808" y="-695.8" font-family="Times,serif" font-size="14.00">2</text>
</g>
<!-- Terzista Taglio lamiera -->
<g id="node19" class="node">
<title>Terzista Taglio lamiera</title>
<polygon fill="#ffffff" stroke="black" points="974,-815 813,-815 813,-779 974,-779 974,-815"/>
<text text-anchor="middle" x="893.5" y="-793.3" font-family="Times,serif" font-size="14.00">Terzista Taglio lamiera (1)</text>
</g>
<!-- Preinviti&#45;&gt;Terzista Taglio lamiera -->
<g id="edge48" class="edge">
<title>Preinviti&#45;&gt;Terzista Taglio lamiera</title>
<path fill="none" stroke="#ff0000" stroke-width="0.5" stroke-dasharray="5,2" d="M809.46,-919.68C826.08,-895.61 856.28,-851.89 875.59,-823.93"/>
<polygon fill="#ff0000" stroke="#ff0000" stroke-width="0.5" points="878.45,-825.95 881.26,-815.73 872.69,-821.97 878.45,-825.95"/>
<text text-anchor="middle" x="835" y="-890.8" font-family="Times,serif" font-size="14.00">1</text>
</g>
<!-- Schiacciatura tubi 013/112&#45;&gt;Puntatura -->
<g id="edge18" class="edge">
<title>Schiacciatura tubi 013/112&#45;&gt;Puntatura</title>
<path fill="none" stroke="#000000" stroke-width="4.43" d="M729.56,-500.18C744.26,-544.67 778.39,-666.73 746.5,-761 738.8,-783.75 722.7,-805.27 708.1,-821.44"/>
<polygon fill="#000000" stroke="#000000" stroke-width="4.43" points="705.7,-818.35 701.61,-828.26 711.31,-823.69 705.7,-818.35"/>
<text text-anchor="middle" x="767.5" y="-652.3" font-family="Times,serif" font-size="14.00">26</text>
</g>
<!-- Schiacciatura tubi 013/112&#45;&gt;Saldatura esterna SAW -->
<g id="edge45" class="edge">
<title>Schiacciatura tubi 013/112&#45;&gt;Saldatura esterna SAW</title>
<path fill="none" stroke="#ff0000" stroke-width="0.5" stroke-dasharray="5,2" d="M717.15,-500.32C700.95,-544.47 658.03,-661.49 638.47,-714.83"/>
<polygon fill="#ff0000" stroke="#ff0000" stroke-width="0.5" points="635.3,-713.3 635.14,-723.89 641.87,-715.71 635.3,-713.3"/>
<text text-anchor="middle" x="682" y="-608.8" font-family="Times,serif" font-size="14.00">1</text>
</g>
<!-- Schiacciatura tubi 013/112&#45;&gt;Collaudo -->
<g id="edge30" class="edge">
<title>Schiacciatura tubi 013/112&#45;&gt;Collaudo</title>
<path fill="none" stroke="#000000" stroke-width="0.97" d="M702.56,-463.76C685.95,-448.03 665.5,-423.15 665.5,-396 665.5,-396 665.5,-396 665.5,-199 665.5,-151.82 520.66,-128.74 437.13,-119.36"/>
<polygon fill="#000000" stroke="#000000" stroke-width="0.97" points="437.55,-115.88 427.23,-118.28 436.79,-122.84 437.55,-115.88"/>
<text text-anchor="middle" x="669" y="-304.3" font-family="Times,serif" font-size="14.00">4</text>
</g>
<!-- Schiacciatura tubi 013/112&#45;&gt;Schiacciatura tubi 013/112 -->
<g id="edge31" class="edge">
<title>Schiacciatura tubi 013/112&#45;&gt;Schiacciatura tubi 013/112</title>
<path fill="none" stroke="#ff0000" stroke-width="0.66" stroke-dasharray="5,2" d="M817.87,-488.91C828.57,-487.62 835.5,-485.31 835.5,-482 835.5,-479.98 832.93,-478.34 828.49,-477.07"/>
<polygon fill="#ff0000" stroke="#ff0000" stroke-width="0.66" points="829.32,-473.66 818.85,-475.27 828.04,-480.54 829.32,-473.66"/>
<text text-anchor="middle" x="839" y="-478.3" font-family="Times,serif" font-size="14.00">2</text>
</g>
<!-- Calibratura finale&#45;&gt;Raggi X -->
<g id="edge42" class="edge">
<title>Calibratura finale&#45;&gt;Raggi X</title>
<path fill="none" stroke="#000000" stroke-width="0.81" d="M310.49,-413.32C317.02,-434.61 329.66,-471.4 346.5,-500 355.37,-515.06 367.48,-530.22 378.17,-542.4"/>
<polygon fill="#000000" stroke="#000000" stroke-width="0.81" points="375.51,-544.68 384.81,-549.77 380.72,-540 375.51,-544.68"/>
<text text-anchor="middle" x="350" y="-478.3" font-family="Times,serif" font-size="14.00">3</text>
</g>
<!-- Calibratura finale&#45;&gt;Molatura intermedia -->
<g id="edge37" class="edge">
<title>Calibratura finale&#45;&gt;Molatura intermedia</title>
<path fill="none" stroke="#000000" stroke-width="1.13" d="M328.03,-376.59C344.19,-364.1 366.19,-347.11 384.08,-333.28"/>
<polygon fill="#000000" stroke="#000000" stroke-width="1.13" points="385.88,-336.31 391.65,-327.43 381.6,-330.77 385.88,-336.31"/>
<text text-anchor="middle" x="371" y="-347.8" font-family="Times,serif" font-size="14.00">5</text>
</g>
<!-- Calibratura finale&#45;&gt;Alesatura -->
<g id="edge34" class="edge">
<title>Calibratura finale&#45;&gt;Alesatura</title>
<path fill="none" stroke="#ff0000" stroke-width="0.66" stroke-dasharray="5,2" d="M275.81,-376.59C253.72,-363.64 223.37,-345.85 199.35,-331.77"/>
<polygon fill="#ff0000" stroke="#ff0000" stroke-width="0.66" points="201.41,-328.92 191.01,-326.89 197.87,-334.96 201.41,-328.92"/>
<text text-anchor="middle" x="246" y="-347.8" font-family="Times,serif" font-size="14.00">2</text>
</g>
<!-- Sabbiatura -->
<g id="node20" class="node">
<title>Sabbiatura</title>
<polygon fill="#ffffff" stroke="black" points="359.5,-272 265.5,-272 265.5,-236 359.5,-236 359.5,-272"/>
<text text-anchor="middle" x="312.5" y="-250.3" font-family="Times,serif" font-size="14.00">Sabbiatura (1)</text>
</g>
<!-- Calibratura finale&#45;&gt;Sabbiatura -->
<g id="edge52" class="edge">
<title>Calibratura finale&#45;&gt;Sabbiatura</title>
<path fill="none" stroke="#ff0000" stroke-width="0.5" stroke-dasharray="5,2" d="M306.37,-376.68C307.56,-353.14 309.69,-310.78 311.1,-282.78"/>
<polygon fill="#ff0000" stroke="#ff0000" stroke-width="0.5" points="314.59,-283.02 311.6,-272.86 307.6,-282.67 314.59,-283.02"/>
<text text-anchor="middle" x="312" y="-347.8" font-family="Times,serif" font-size="14.00">1</text>
</g>
<!-- NC da riparare&#45;&gt;Collaudo -->
<g id="edge36" class="edge">
<title>NC da riparare&#45;&gt;Collaudo</title>
<path fill="none" stroke="#ff0000" stroke-width="0.5" stroke-dasharray="5,2" d="M266.12,-181.51C280.34,-171.63 298.69,-159.25 315.5,-149 322.42,-144.78 329.88,-140.49 337.17,-136.42"/>
<polygon fill="#ff0000" stroke="#ff0000" stroke-width="0.5" points="338.54,-139.66 345.61,-131.77 335.17,-133.53 338.54,-139.66"/>
<text text-anchor="middle" x="319" y="-152.8" font-family="Times,serif" font-size="14.00">1</text>
</g>
<!-- Marcatura&#45;&gt;Collaudo -->
<g id="edge39" class="edge">
<title>Marcatura&#45;&gt;Collaudo</title>
<path fill="none" stroke="#000000" stroke-width="1.13" d="M436.13,-181.8C426.19,-169.9 412.77,-153.83 401.49,-140.32"/>
<polygon fill="#000000" stroke="#000000" stroke-width="1.13" points="404.28,-138.21 395.19,-132.78 398.91,-142.7 404.28,-138.21"/>
<text text-anchor="middle" x="423" y="-152.8" font-family="Times,serif" font-size="14.00">5</text>
</g>
<!-- Trattamento termico&#45;&gt;Molatura finale -->
<g id="edge47" class="edge">
<title>Trattamento termico&#45;&gt;Molatura finale</title>
<path fill="none" stroke="#ff0000" stroke-width="0.5" stroke-dasharray="5,2" d="M199.63,-463.74C177.83,-436.01 135.19,-379.21 107.5,-326 90.74,-293.79 76.9,-254.2 68.67,-228.32"/>
<polygon fill="#ff0000" stroke="#ff0000" stroke-width="0.5" points="72.04,-227.36 65.72,-218.85 65.36,-229.44 72.04,-227.36"/>
<text text-anchor="middle" x="130" y="-347.8" font-family="Times,serif" font-size="14.00">1</text>
</g>
<!-- Trattamento termico&#45;&gt;Calibratura finale -->
<g id="edge51" class="edge">
<title>Trattamento termico&#45;&gt;Calibratura finale</title>
<path fill="none" stroke="#ff0000" stroke-width="0.5" stroke-dasharray="5,2" d="M232.12,-463.8C245.62,-451.32 264.07,-434.28 279.1,-420.4"/>
<polygon fill="#ff0000" stroke="#ff0000" stroke-width="0.5" points="281.07,-423.34 286.04,-413.98 276.32,-418.2 281.07,-423.34"/>
<text text-anchor="middle" x="269" y="-434.8" font-family="Times,serif" font-size="14.00">1</text>
</g>
<!-- Terzista Taglio lamiera&#45;&gt;Schiacciatura tubi 013/112 -->
<g id="edge49" class="edge">
<title>Terzista Taglio lamiera&#45;&gt;Schiacciatura tubi 013/112</title>
<path fill="none" stroke="#ff0000" stroke-width="0.5" stroke-dasharray="5,2" d="M887.31,-778.65C881.12,-759.7 872.5,-728.34 872.5,-700.5 872.5,-700.5 872.5,-700.5 872.5,-568 872.5,-536.83 847.59,-516.94 818.14,-504.31"/>
<polygon fill="#ff0000" stroke="#ff0000" stroke-width="0.5" points="819.74,-501.18 809.15,-500.74 817.15,-507.69 819.74,-501.18"/>
<text text-anchor="middle" x="876" y="-652.3" font-family="Times,serif" font-size="14.00">1</text>
</g>
<!-- Sabbiatura&#45;&gt;Collaudo -->
<g id="edge53" class="edge">
<title>Sabbiatura&#45;&gt;Collaudo</title>
<path fill="none" stroke="#ff0000" stroke-width="0.5" stroke-dasharray="5,2" d="M320.85,-235.68C332.35,-211.82 353.16,-168.65 366.65,-140.66"/>
<polygon fill="#ff0000" stroke="#ff0000" stroke-width="0.5" points="369.74,-142.31 370.93,-131.79 363.43,-139.28 369.74,-142.31"/>
<text text-anchor="middle" x="350" y="-196.3" font-family="Times,serif" font-size="14.00">1</text>
</g>
</g>
</svg>
