<?xml version="1.0" encoding="UTF-8" standalone="no"?>
<!DOCTYPE svg PUBLIC "-//W3C//DTD SVG 1.1//EN"
 "http://www.w3.org/Graphics/SVG/1.1/DTD/svg11.dtd">
<!-- Generated by graphviz version 7.0.4 (0)
 -->
<!-- Title: dfg Pages: 1 -->
<svg width="759pt" height="1531pt"
 viewBox="0.00 0.00 758.50 1531.00" xmlns="http://www.w3.org/2000/svg" xmlns:xlink="http://www.w3.org/1999/xlink">
<g id="graph0" class="graph" transform="scale(1 1) rotate(0) translate(4 1527)">
<title>dfg</title>
<polygon fill="white" stroke="none" points="-4,4 -4,-1527 754.5,-1527 754.5,4 -4,4"/>
<!-- start_node -->
<g id="node1" class="node">
<title>start_node</title>
<ellipse fill="none" stroke="black" cx="594" cy="-1505" rx="18" ry="18"/>
<text text-anchor="start" x="589.5" y="-1501.3" font-family="Times,serif" font-size="14.00">●</text>
</g>
<!-- Taglio -->
<g id="node2" class="node">
<title>Taglio</title>
<polygon fill="#ececff" stroke="black" points="595.5,-1436 518.5,-1436 518.5,-1400 595.5,-1400 595.5,-1436"/>
<text text-anchor="middle" x="557" y="-1414.3" font-family="Times,serif" font-size="14.00">Taglio (15)</text>
</g>
<!-- start_node&#45;&gt;Taglio -->
<g id="edge1" class="edge">
<title>start_node&#45;&gt;Taglio</title>
<path fill="none" stroke="#000000" stroke-width="1.76" d="M587.04,-1488.01C582.14,-1476.75 575.43,-1461.34 569.6,-1447.94"/>
<polygon fill="#000000" stroke="#000000" stroke-width="1.76" points="572.83,-1446.6 565.63,-1438.82 566.41,-1449.39 572.83,-1446.6"/>
<text text-anchor="middle" x="585" y="-1457.8" font-family="Times,serif" font-size="14.00">15</text>
</g>
<!-- Preparazione smussi -->
<g id="node3" class="node">
<title>Preparazione smussi</title>
<polygon fill="#9b9bff" stroke="black" points="671.5,-1349 516.5,-1349 516.5,-1313 671.5,-1313 671.5,-1349"/>
<text text-anchor="middle" x="594" y="-1327.3" font-family="Times,serif" font-size="14.00">Preparazione smussi (74)</text>
</g>
<!-- start_node&#45;&gt;Preparazione smussi -->
<g id="edge2" class="edge">
<title>start_node&#45;&gt;Preparazione smussi</title>
<path fill="none" stroke="#000000" stroke-width="5.19" d="M597.2,-1487.03C599.61,-1473.32 602.72,-1453.49 604,-1436 605.17,-1420.04 605.17,-1415.96 604,-1400 603.17,-1388.6 601.56,-1376.21 599.87,-1365.16"/>
<polygon fill="#000000" stroke="#000000" stroke-width="5.19" points="604.37,-1364.57 598.27,-1355.44 595.41,-1366.05 604.37,-1364.57"/>
<text text-anchor="middle" x="612" y="-1414.3" font-family="Times,serif" font-size="14.00">53</text>
</g>
<!-- Taglio&#45;&gt;Preparazione smussi -->
<g id="edge3" class="edge">
<title>Taglio&#45;&gt;Preparazione smussi</title>
<path fill="none" stroke="#000000" stroke-width="1.76" d="M564.49,-1399.8C569.37,-1388.58 575.86,-1373.67 581.51,-1360.69"/>
<polygon fill="#000000" stroke="#000000" stroke-width="1.76" points="584.55,-1362.48 585.33,-1351.91 578.13,-1359.68 584.55,-1362.48"/>
<text text-anchor="middle" x="585" y="-1370.8" font-family="Times,serif" font-size="14.00">15</text>
</g>
<!-- Preparazione smussi&#45;&gt;Preparazione smussi -->
<g id="edge36" class="edge">
<title>Preparazione smussi&#45;&gt;Preparazione smussi</title>
<path fill="none" stroke="#000000" stroke-width="0.95" d="M671.94,-1338.24C682.48,-1337.02 689.5,-1334.61 689.5,-1331 689.5,-1328.91 687.15,-1327.23 683.14,-1325.94"/>
<polygon fill="#000000" stroke="#000000" stroke-width="0.95" points="683.84,-1322.51 673.35,-1324.04 682.5,-1329.38 683.84,-1322.51"/>
<text text-anchor="middle" x="693" y="-1327.3" font-family="Times,serif" font-size="14.00">6</text>
</g>
<!-- Formatura Calandra -->
<g id="node4" class="node">
<title>Formatura Calandra</title>
<polygon fill="#a3a3ff" stroke="black" points="614,-1262 462,-1262 462,-1226 614,-1226 614,-1262"/>
<text text-anchor="middle" x="538" y="-1240.3" font-family="Times,serif" font-size="14.00">Formatura Calandra (68)</text>
</g>
<!-- Preparazione smussi&#45;&gt;Formatura Calandra -->
<g id="edge4" class="edge">
<title>Preparazione smussi&#45;&gt;Formatura Calandra</title>
<path fill="none" stroke="#000000" stroke-width="6" d="M582.67,-1312.8C575.73,-1302.27 566.65,-1288.48 558.48,-1276.09"/>
<polygon fill="#000000" stroke="#000000" stroke-width="6" points="562.94,-1273.32 553.06,-1267.86 554.18,-1279.1 562.94,-1273.32"/>
<text text-anchor="middle" x="577" y="-1283.8" font-family="Times,serif" font-size="14.00">62</text>
</g>
<!-- Puntatura -->
<g id="node5" class="node">
<title>Puntatura</title>
<polygon fill="#a6a6ff" stroke="black" points="622.5,-1175 527.5,-1175 527.5,-1139 622.5,-1139 622.5,-1175"/>
<text text-anchor="middle" x="575" y="-1153.3" font-family="Times,serif" font-size="14.00">Puntatura (66)</text>
</g>
<!-- Preparazione smussi&#45;&gt;Puntatura -->
<g id="edge37" class="edge">
<title>Preparazione smussi&#45;&gt;Puntatura</title>
<path fill="none" stroke="#000000" stroke-width="0.95" d="M605.09,-1312.59C616.88,-1291.85 632.58,-1256.19 623,-1226 618.12,-1210.63 608.38,-1195.75 598.94,-1183.84"/>
<polygon fill="#000000" stroke="#000000" stroke-width="0.95" points="601.88,-1181.9 592.79,-1176.46 596.5,-1186.38 601.88,-1181.9"/>
<text text-anchor="middle" x="629.5" y="-1240.3" font-family="Times,serif" font-size="14.00">6</text>
</g>
<!-- Formatura Calandra&#45;&gt;Puntatura -->
<g id="edge5" class="edge">
<title>Formatura Calandra&#45;&gt;Puntatura</title>
<path fill="none" stroke="#000000" stroke-width="5.73" d="M535.18,-1225.65C534.32,-1215.69 534.57,-1203.19 539,-1193 539.71,-1191.36 540.54,-1189.76 541.46,-1188.2"/>
<polygon fill="#000000" stroke="#000000" stroke-width="5.73" points="545.34,-1191.38 547.67,-1180.43 537.51,-1185.12 545.34,-1191.38"/>
<text text-anchor="middle" x="546" y="-1196.8" font-family="Times,serif" font-size="14.00">59</text>
</g>
<!-- Saldatura esterna SAW -->
<g id="node6" class="node">
<title>Saldatura esterna SAW</title>
<polygon fill="#a3a3ff" stroke="black" points="583.5,-1001 414.5,-1001 414.5,-965 583.5,-965 583.5,-1001"/>
<text text-anchor="middle" x="499" y="-979.3" font-family="Times,serif" font-size="14.00">Saldatura esterna SAW (68)</text>
</g>
<!-- Formatura Calandra&#45;&gt;Saldatura esterna SAW -->
<g id="edge39" class="edge">
<title>Formatura Calandra&#45;&gt;Saldatura esterna SAW</title>
<path fill="none" stroke="#000000" stroke-width="0.95" d="M531.91,-1225.61C527.38,-1212 521.42,-1192.51 518,-1175 506.86,-1117.89 502.08,-1049.83 500.16,-1012.33"/>
<polygon fill="#000000" stroke="#000000" stroke-width="0.95" points="503.68,-1012.54 499.71,-1002.72 496.69,-1012.87 503.68,-1012.54"/>
<text text-anchor="middle" x="513.5" y="-1109.8" font-family="Times,serif" font-size="14.00">6</text>
</g>
<!-- Saldatura interna SAW -->
<g id="node7" class="node">
<title>Saldatura interna SAW</title>
<polygon fill="#a3a3ff" stroke="black" points="692,-914 524,-914 524,-878 692,-878 692,-914"/>
<text text-anchor="middle" x="608" y="-892.3" font-family="Times,serif" font-size="14.00">Saldatura interna SAW (68)</text>
</g>
<!-- Formatura Calandra&#45;&gt;Saldatura interna SAW -->
<g id="edge54" class="edge">
<title>Formatura Calandra&#45;&gt;Saldatura interna SAW</title>
<path fill="none" stroke="#ff0000" stroke-width="0.68" stroke-dasharray="5,2" d="M591.05,-1225.51C636.95,-1208.71 696,-1182.37 696,-1158 696,-1158 696,-1158 696,-982 696,-955.52 675.12,-934.67 653.71,-920.24"/>
<polygon fill="#ff0000" stroke="#ff0000" stroke-width="0.68" points="655.75,-917.39 645.43,-915.01 652.01,-923.31 655.75,-917.39"/>
<text text-anchor="middle" x="699.5" y="-1066.3" font-family="Times,serif" font-size="14.00">3</text>
</g>
<!-- Puntatura&#45;&gt;Formatura Calandra -->
<g id="edge38" class="edge">
<title>Puntatura&#45;&gt;Formatura Calandra</title>
<path fill="none" stroke="#000000" stroke-width="0.95" d="M567.4,-1175.47C562.39,-1186.97 555.73,-1202.28 550.01,-1215.41"/>
<polygon fill="#000000" stroke="#000000" stroke-width="0.95" points="546.84,-1213.91 546.06,-1224.48 553.26,-1216.71 546.84,-1213.91"/>
<text text-anchor="middle" x="562.5" y="-1196.8" font-family="Times,serif" font-size="14.00">6</text>
</g>
<!-- Puntatura&#45;&gt;Puntatura -->
<g id="edge56" class="edge">
<title>Puntatura&#45;&gt;Puntatura</title>
<path fill="none" stroke="#ff0000" stroke-width="0.5" stroke-dasharray="5,2" d="M622.98,-1164.89C633.15,-1164.09 640.5,-1161.46 640.5,-1157 640.5,-1154.28 637.77,-1152.24 633.34,-1150.88"/>
<polygon fill="#ff0000" stroke="#ff0000" stroke-width="0.5" points="634.18,-1147.48 623.73,-1149.24 632.99,-1154.38 634.18,-1147.48"/>
<text text-anchor="middle" x="644" y="-1153.3" font-family="Times,serif" font-size="14.00">1</text>
</g>
<!-- Puntatura&#45;&gt;Saldatura esterna SAW -->
<g id="edge6" class="edge">
<title>Puntatura&#45;&gt;Saldatura esterna SAW</title>
<path fill="none" stroke="#000000" stroke-width="4.56" d="M567.29,-1138.56C554.61,-1109.84 529.13,-1052.19 513.13,-1015.98"/>
<polygon fill="#000000" stroke="#000000" stroke-width="4.56" points="516.9,-1014.65 509.21,-1007.11 509.61,-1017.87 516.9,-1014.65"/>
<text text-anchor="middle" x="552" y="-1066.3" font-family="Times,serif" font-size="14.00">46</text>
</g>
<!-- Puntatura&#45;&gt;Saldatura interna SAW -->
<g id="edge25" class="edge">
<title>Puntatura&#45;&gt;Saldatura interna SAW</title>
<path fill="none" stroke="#000000" stroke-width="1.49" d="M584.93,-1138.52C597.41,-1115.45 618.14,-1073.16 626,-1034 633.41,-997.08 624.96,-953.93 617.32,-926.07"/>
<polygon fill="#000000" stroke="#000000" stroke-width="1.49" points="620.72,-925.21 614.56,-916.59 614,-927.17 620.72,-925.21"/>
<text text-anchor="middle" x="636" y="-1022.8" font-family="Times,serif" font-size="14.00">12</text>
</g>
<!-- TRATT. TERMICO ESTERNO -->
<g id="node12" class="node">
<title>TRATT. TERMICO ESTERNO</title>
<polygon fill="#a8a8ff" stroke="black" points="378.5,-1088 161.5,-1088 161.5,-1052 378.5,-1052 378.5,-1088"/>
<text text-anchor="middle" x="270" y="-1066.3" font-family="Times,serif" font-size="14.00">TRATT. TERMICO ESTERNO (64)</text>
</g>
<!-- Puntatura&#45;&gt;TRATT. TERMICO ESTERNO -->
<g id="edge52" class="edge">
<title>Puntatura&#45;&gt;TRATT. TERMICO ESTERNO</title>
<path fill="none" stroke="#ff0000" stroke-width="0.5" stroke-dasharray="5,2" d="M527.01,-1142.63C477.55,-1128.84 399.84,-1107.19 342.81,-1091.29"/>
<polygon fill="#ff0000" stroke="#ff0000" stroke-width="0.5" points="344.08,-1088.01 333.5,-1088.7 342.2,-1094.75 344.08,-1088.01"/>
<text text-anchor="middle" x="444.5" y="-1109.8" font-family="Times,serif" font-size="14.00">1</text>
</g>
<!-- Saldatura esterna SAW&#45;&gt;Saldatura interna SAW -->
<g id="edge7" class="edge">
<title>Saldatura esterna SAW&#45;&gt;Saldatura interna SAW</title>
<path fill="none" stroke="#000000" stroke-width="5.01" d="M533.35,-964.57C542.35,-959.4 551.82,-953.39 560,-947 567.9,-940.83 575.73,-933.38 582.72,-926.14"/>
<polygon fill="#000000" stroke="#000000" stroke-width="5.01" points="585.74,-929.33 589.29,-919 579.29,-923.39 585.74,-929.33"/>
<text text-anchor="middle" x="583" y="-935.8" font-family="Times,serif" font-size="14.00">51</text>
</g>
<!-- Calibratura finale -->
<g id="node8" class="node">
<title>Calibratura finale</title>
<polygon fill="#a1a1ff" stroke="black" points="583,-740 445,-740 445,-704 583,-704 583,-740"/>
<text text-anchor="middle" x="514" y="-718.3" font-family="Times,serif" font-size="14.00">Calibratura finale (69)</text>
</g>
<!-- Saldatura esterna SAW&#45;&gt;Calibratura finale -->
<g id="edge41" class="edge">
<title>Saldatura esterna SAW&#45;&gt;Calibratura finale</title>
<path fill="none" stroke="#000000" stroke-width="1.85" d="M481.45,-964.62C450.69,-931.98 391.91,-858.68 410,-791 414.37,-774.65 416.27,-769.15 429,-758 434.1,-753.53 439.85,-749.58 445.89,-746.1"/>
<polygon fill="#000000" stroke="#000000" stroke-width="1.85" points="447.26,-749.34 454.52,-741.62 444.03,-743.12 447.26,-749.34"/>
<text text-anchor="middle" x="421" y="-848.8" font-family="Times,serif" font-size="14.00">16</text>
</g>
<!-- Preparazione RX -->
<g id="node17" class="node">
<title>Preparazione RX</title>
<polygon fill="#ffffff" stroke="black" points="572.5,-827 443.5,-827 443.5,-791 572.5,-791 572.5,-827"/>
<text text-anchor="middle" x="508" y="-805.3" font-family="Times,serif" font-size="14.00">Preparazione RX (2)</text>
</g>
<!-- Saldatura esterna SAW&#45;&gt;Preparazione RX -->
<g id="edge27" class="edge">
<title>Saldatura esterna SAW&#45;&gt;Preparazione RX</title>
<path fill="none" stroke="#ff0000" stroke-width="0.5" stroke-dasharray="5,2" d="M499.91,-964.56C501.47,-934.81 504.65,-874.01 506.53,-838.17"/>
<polygon fill="#ff0000" stroke="#ff0000" stroke-width="0.5" points="510.02,-838.41 507.05,-828.24 503.03,-838.04 510.02,-838.41"/>
<text text-anchor="middle" x="508.5" y="-892.3" font-family="Times,serif" font-size="14.00">1</text>
</g>
<!-- Saldatura interna SAW&#45;&gt;Saldatura esterna SAW -->
<g id="edge26" class="edge">
<title>Saldatura interna SAW&#45;&gt;Saldatura esterna SAW</title>
<path fill="none" stroke="#000000" stroke-width="1.76" d="M569.49,-914.33C560.07,-919.39 550.31,-925.36 542,-932 533.7,-938.63 525.76,-947.03 519.02,-955.04"/>
<polygon fill="#000000" stroke="#000000" stroke-width="1.76" points="516.38,-952.74 512.85,-962.73 521.84,-957.12 516.38,-952.74"/>
<text text-anchor="middle" x="549" y="-935.8" font-family="Times,serif" font-size="14.00">15</text>
</g>
<!-- Saldatura interna SAW&#45;&gt;Calibratura finale -->
<g id="edge8" class="edge">
<title>Saldatura interna SAW&#45;&gt;Calibratura finale</title>
<path fill="none" stroke="#000000" stroke-width="4.83" d="M534.01,-877.54C487.51,-864.9 433.78,-846.64 420,-827 399.76,-798.15 432.49,-768.66 464.75,-748.49"/>
<polygon fill="#000000" stroke="#000000" stroke-width="4.83" points="466.58,-752.31 473.05,-743.59 462.29,-745.04 466.58,-752.31"/>
<text text-anchor="middle" x="427" y="-805.3" font-family="Times,serif" font-size="14.00">49</text>
</g>
<!-- Molatura intermedia -->
<g id="node9" class="node">
<title>Molatura intermedia</title>
<polygon fill="#a1a1ff" stroke="black" points="643.5,-566 488.5,-566 488.5,-530 643.5,-530 643.5,-566"/>
<text text-anchor="middle" x="566" y="-544.3" font-family="Times,serif" font-size="14.00">Molatura intermedia (69)</text>
</g>
<!-- Saldatura interna SAW&#45;&gt;Molatura intermedia -->
<g id="edge49" class="edge">
<title>Saldatura interna SAW&#45;&gt;Molatura intermedia</title>
<path fill="none" stroke="#ff0000" stroke-width="0.59" stroke-dasharray="5,2" d="M613.36,-877.72C614.85,-872.12 616.26,-865.85 617,-860 625.7,-791.21 627.97,-772.46 617,-704 609.58,-657.71 590.44,-606.5 577.84,-576.07"/>
<polygon fill="#ff0000" stroke="#ff0000" stroke-width="0.59" points="581.14,-574.89 574.03,-567.04 574.69,-577.61 581.14,-574.89"/>
<text text-anchor="middle" x="626.5" y="-718.3" font-family="Times,serif" font-size="14.00">2</text>
</g>
<!-- Raggi X -->
<g id="node10" class="node">
<title>Raggi X</title>
<polygon fill="#a0a0ff" stroke="black" points="725.5,-653 636.5,-653 636.5,-617 725.5,-617 725.5,-653"/>
<text text-anchor="middle" x="681" y="-631.3" font-family="Times,serif" font-size="14.00">Raggi X (70)</text>
</g>
<!-- Saldatura interna SAW&#45;&gt;Raggi X -->
<g id="edge31" class="edge">
<title>Saldatura interna SAW&#45;&gt;Raggi X</title>
<path fill="none" stroke="#ff0000" stroke-width="0.5" stroke-dasharray="5,2" d="M641.6,-877.53C648.02,-872.69 653.97,-866.85 658,-860 694.53,-797.83 690.36,-708.97 685.17,-664.15"/>
<polygon fill="#ff0000" stroke="#ff0000" stroke-width="0.5" points="688.65,-663.72 683.92,-654.24 681.7,-664.6 688.65,-663.72"/>
<text text-anchor="middle" x="689.5" y="-761.8" font-family="Times,serif" font-size="14.00">1</text>
</g>
<!-- Saldatura interna SAW&#45;&gt;Preparazione RX -->
<g id="edge19" class="edge">
<title>Saldatura interna SAW&#45;&gt;Preparazione RX</title>
<path fill="none" stroke="#ff0000" stroke-width="0.5" stroke-dasharray="5,2" d="M587.76,-877.8C573.09,-865.32 553.03,-848.28 536.7,-834.4"/>
<polygon fill="#ff0000" stroke="#ff0000" stroke-width="0.5" points="539.01,-831.77 529.13,-827.96 534.48,-837.1 539.01,-831.77"/>
<text text-anchor="middle" x="567.5" y="-848.8" font-family="Times,serif" font-size="14.00">1</text>
</g>
<!-- Calibratura finale&#45;&gt;Saldatura interna SAW -->
<g id="edge48" class="edge">
<title>Calibratura finale&#45;&gt;Saldatura interna SAW</title>
<path fill="none" stroke="#ff0000" stroke-width="0.59" stroke-dasharray="5,2" d="M536.39,-740.34C551.13,-752.9 569.72,-771.11 581,-791 594.48,-814.77 601.37,-845.38 604.81,-867.23"/>
<polygon fill="#ff0000" stroke="#ff0000" stroke-width="0.59" points="601.31,-867.48 606.17,-876.89 608.24,-866.49 601.31,-867.48"/>
<text text-anchor="middle" x="599.5" y="-805.3" font-family="Times,serif" font-size="14.00">2</text>
</g>
<!-- Calibratura finale&#45;&gt;Calibratura finale -->
<g id="edge47" class="edge">
<title>Calibratura finale&#45;&gt;Calibratura finale</title>
<path fill="none" stroke="#ff0000" stroke-width="0.5" stroke-dasharray="5,2" d="M583.27,-729.44C593.83,-728.3 601,-725.82 601,-722 601,-719.61 598.2,-717.75 593.52,-716.41"/>
<polygon fill="#ff0000" stroke="#ff0000" stroke-width="0.5" points="594.48,-713.02 584.02,-714.7 593.24,-719.91 594.48,-713.02"/>
<text text-anchor="middle" x="604.5" y="-718.3" font-family="Times,serif" font-size="14.00">1</text>
</g>
<!-- Calibratura finale&#45;&gt;Molatura intermedia -->
<g id="edge9" class="edge">
<title>Calibratura finale&#45;&gt;Molatura intermedia</title>
<path fill="none" stroke="#000000" stroke-width="5.73" d="M514.36,-703.62C515.25,-682.6 518.21,-646.38 528,-617 532.2,-604.39 538.78,-591.43 545.29,-580.26"/>
<polygon fill="#000000" stroke="#000000" stroke-width="5.73" points="549.55,-582.91 550.54,-571.77 541.02,-577.64 549.55,-582.91"/>
<text text-anchor="middle" x="535" y="-631.3" font-family="Times,serif" font-size="14.00">59</text>
</g>
<!-- Calibratura finale&#45;&gt;Raggi X -->
<g id="edge21" class="edge">
<title>Calibratura finale&#45;&gt;Raggi X</title>
<path fill="none" stroke="#000000" stroke-width="1.04" d="M548.2,-703.59C573.75,-690.59 608.9,-672.7 636.62,-658.59"/>
<polygon fill="#000000" stroke="#000000" stroke-width="1.04" points="638.12,-661.75 645.44,-654.1 634.94,-655.51 638.12,-661.75"/>
<text text-anchor="middle" x="611.5" y="-674.8" font-family="Times,serif" font-size="14.00">7</text>
</g>
<!-- Molatura intermedia&#45;&gt;Calibratura finale -->
<g id="edge32" class="edge">
<title>Molatura intermedia&#45;&gt;Calibratura finale</title>
<path fill="none" stroke="#ff0000" stroke-width="0.5" stroke-dasharray="5,2" d="M563.14,-566.35C558.44,-592.84 547.86,-644.62 531,-686 529.91,-688.66 528.72,-691.41 527.48,-694.14"/>
<polygon fill="#ff0000" stroke="#ff0000" stroke-width="0.5" points="524.37,-692.54 523.25,-703.07 530.69,-695.53 524.37,-692.54"/>
<text text-anchor="middle" x="556.5" y="-631.3" font-family="Times,serif" font-size="14.00">1</text>
</g>
<!-- Molatura intermedia&#45;&gt;Raggi X -->
<g id="edge10" class="edge">
<title>Molatura intermedia&#45;&gt;Raggi X</title>
<path fill="none" stroke="#000000" stroke-width="5.19" d="M584.05,-566.31C594.93,-576.36 609.29,-588.98 623,-599 627.22,-602.09 631.73,-605.16 636.3,-608.13"/>
<polygon fill="#000000" stroke="#000000" stroke-width="5.19" points="633.73,-611.88 644.62,-613.32 638.53,-604.17 633.73,-611.88"/>
<text text-anchor="middle" x="630" y="-587.8" font-family="Times,serif" font-size="14.00">53</text>
</g>
<!-- Smussatura Nastro -->
<g id="node11" class="node">
<title>Smussatura Nastro</title>
<polygon fill="#a1a1ff" stroke="black" points="442,-479 296,-479 296,-443 442,-443 442,-479"/>
<text text-anchor="middle" x="369" y="-457.3" font-family="Times,serif" font-size="14.00">Smussatura Nastro (69)</text>
</g>
<!-- Molatura intermedia&#45;&gt;Smussatura Nastro -->
<g id="edge23" class="edge">
<title>Molatura intermedia&#45;&gt;Smussatura Nastro</title>
<path fill="none" stroke="#000000" stroke-width="1.76" d="M525.66,-529.59C495.38,-516.53 453.68,-498.54 420.92,-484.4"/>
<polygon fill="#000000" stroke="#000000" stroke-width="1.76" points="422.3,-481.19 411.74,-480.44 419.53,-487.61 422.3,-481.19"/>
<text text-anchor="middle" x="487" y="-500.8" font-family="Times,serif" font-size="14.00">15</text>
</g>
<!-- Raggi X&#45;&gt;Molatura intermedia -->
<g id="edge22" class="edge">
<title>Raggi X&#45;&gt;Molatura intermedia</title>
<path fill="none" stroke="#000000" stroke-width="1.13" d="M668.56,-616.7C660.44,-606.28 649.12,-593.28 637,-584 631.27,-579.61 624.91,-575.55 618.41,-571.87"/>
<polygon fill="#000000" stroke="#000000" stroke-width="1.13" points="620.14,-568.83 609.67,-567.21 616.84,-575 620.14,-568.83"/>
<text text-anchor="middle" x="656.5" y="-587.8" font-family="Times,serif" font-size="14.00">8</text>
</g>
<!-- Raggi X&#45;&gt;Raggi X -->
<g id="edge33" class="edge">
<title>Raggi X&#45;&gt;Raggi X</title>
<path fill="none" stroke="#ff0000" stroke-width="0.5" stroke-dasharray="5,2" d="M725.95,-642.96C736.08,-642.24 743.5,-639.59 743.5,-635 743.5,-632.2 740.75,-630.13 736.3,-628.77"/>
<polygon fill="#ff0000" stroke="#ff0000" stroke-width="0.5" points="737.13,-625.36 726.69,-627.17 735.98,-632.26 737.13,-625.36"/>
<text text-anchor="middle" x="747" y="-631.3" font-family="Times,serif" font-size="14.00">1</text>
</g>
<!-- Raggi X&#45;&gt;Smussatura Nastro -->
<g id="edge11" class="edge">
<title>Raggi X&#45;&gt;Smussatura Nastro</title>
<path fill="none" stroke="#000000" stroke-width="4.11" d="M681.42,-616.6C680.98,-593.5 676.59,-552.94 653,-530 625.4,-503.16 530.61,-484.24 458.06,-473.28"/>
<polygon fill="#000000" stroke="#000000" stroke-width="4.11" points="458.9,-469.77 448.49,-471.88 457.86,-476.88 458.9,-469.77"/>
<text text-anchor="middle" x="680" y="-544.3" font-family="Times,serif" font-size="14.00">41</text>
</g>
<!-- Raggi X&#45;&gt;TRATT. TERMICO ESTERNO -->
<g id="edge42" class="edge">
<title>Raggi X&#45;&gt;TRATT. TERMICO ESTERNO</title>
<path fill="none" stroke="#000000" stroke-width="2.21" d="M694.2,-653.18C705.52,-669.65 720,-695.67 720,-721 720,-853.5 720,-853.5 720,-853.5 720,-999.36 525.29,-1046.58 392.03,-1061.81"/>
<polygon fill="#000000" stroke="#000000" stroke-width="2.21" points="391.83,-1058.31 382.26,-1062.87 392.58,-1065.27 391.83,-1058.31"/>
<text text-anchor="middle" x="727" y="-848.8" font-family="Times,serif" font-size="14.00">20</text>
</g>
<!-- Smussatura Nastro&#45;&gt;Raggi X -->
<g id="edge45" class="edge">
<title>Smussatura Nastro&#45;&gt;Raggi X</title>
<path fill="none" stroke="#000000" stroke-width="1.13" d="M442.43,-466.14C528.64,-472.82 663.41,-489.6 691,-530 706.16,-552.2 700.42,-583.54 692.89,-606"/>
<polygon fill="#000000" stroke="#000000" stroke-width="1.13" points="689.66,-604.65 689.49,-615.24 696.23,-607.07 689.66,-604.65"/>
<text text-anchor="middle" x="703.5" y="-544.3" font-family="Times,serif" font-size="14.00">8</text>
</g>
<!-- Smussatura Nastro&#45;&gt;Smussatura Nastro -->
<g id="edge51" class="edge">
<title>Smussatura Nastro&#45;&gt;Smussatura Nastro</title>
<path fill="none" stroke="#ff0000" stroke-width="0.5" stroke-dasharray="5,2" d="M442.19,-468.36C452.83,-467.19 460,-464.74 460,-461 460,-458.66 457.2,-456.83 452.5,-455.5"/>
<polygon fill="#ff0000" stroke="#ff0000" stroke-width="0.5" points="453.4,-452.1 442.94,-453.77 452.16,-458.99 453.4,-452.1"/>
<text text-anchor="middle" x="463.5" y="-457.3" font-family="Times,serif" font-size="14.00">1</text>
</g>
<!-- Smussatura Nastro&#45;&gt;TRATT. TERMICO ESTERNO -->
<g id="edge12" class="edge">
<title>Smussatura Nastro&#45;&gt;TRATT. TERMICO ESTERNO</title>
<path fill="none" stroke="#000000" stroke-width="4.02" d="M354.55,-479.34C342.4,-495.71 327,-521.49 327,-547 327,-984 327,-984 327,-984 327,-1005.1 314.74,-1024.91 301.58,-1040.1"/>
<polygon fill="#000000" stroke="#000000" stroke-width="4.02" points="299.09,-1037.62 294.75,-1047.29 304.18,-1042.46 299.09,-1037.62"/>
<text text-anchor="middle" x="334" y="-761.8" font-family="Times,serif" font-size="14.00">40</text>
</g>
<!-- Passivazione decapaggio -->
<g id="node13" class="node">
<title>Passivazione decapaggio</title>
<polygon fill="#9d9dff" stroke="black" points="252,-392 74,-392 74,-356 252,-356 252,-392"/>
<text text-anchor="middle" x="163" y="-370.3" font-family="Times,serif" font-size="14.00">Passivazione decapaggio (72)</text>
</g>
<!-- Smussatura Nastro&#45;&gt;Passivazione decapaggio -->
<g id="edge17" class="edge">
<title>Smussatura Nastro&#45;&gt;Passivazione decapaggio</title>
<path fill="none" stroke="#000000" stroke-width="2.03" d="M326.82,-442.59C295.02,-429.47 251.17,-411.38 216.84,-397.21"/>
<polygon fill="#000000" stroke="#000000" stroke-width="2.03" points="218.55,-394.14 207.97,-393.56 215.88,-400.61 218.55,-394.14"/>
<text text-anchor="middle" x="286" y="-413.8" font-family="Times,serif" font-size="14.00">18</text>
</g>
<!-- Collaudo -->
<g id="node16" class="node">
<title>Collaudo</title>
<polygon fill="#a3a3ff" stroke="black" points="226,-131 134,-131 134,-95 226,-95 226,-131"/>
<text text-anchor="middle" x="180" y="-109.3" font-family="Times,serif" font-size="14.00">Collaudo (68)</text>
</g>
<!-- Smussatura Nastro&#45;&gt;Collaudo -->
<g id="edge24" class="edge">
<title>Smussatura Nastro&#45;&gt;Collaudo</title>
<path fill="none" stroke="#ff0000" stroke-width="0.59" stroke-dasharray="5,2" d="M369,-442.74C369,-425.57 369,-398.46 369,-375 369,-375 369,-375 369,-199 369,-140.48 292.7,-122.01 237.06,-116.32"/>
<polygon fill="#ff0000" stroke="#ff0000" stroke-width="0.59" points="237.4,-112.84 227.12,-115.42 236.77,-119.81 237.4,-112.84"/>
<text text-anchor="middle" x="372.5" y="-283.3" font-family="Times,serif" font-size="14.00">2</text>
</g>
<!-- TRATT. TERMICO ESTERNO&#45;&gt;Saldatura esterna SAW -->
<g id="edge53" class="edge">
<title>TRATT. TERMICO ESTERNO&#45;&gt;Saldatura esterna SAW</title>
<path fill="none" stroke="#ff0000" stroke-width="0.5" stroke-dasharray="5,2" d="M316.89,-1051.59C353.17,-1038.13 403.55,-1019.43 442.13,-1005.11"/>
<polygon fill="#ff0000" stroke="#ff0000" stroke-width="0.5" points="443.3,-1008.41 451.46,-1001.65 440.87,-1001.84 443.3,-1008.41"/>
<text text-anchor="middle" x="402.5" y="-1022.8" font-family="Times,serif" font-size="14.00">1</text>
</g>
<!-- TRATT. TERMICO ESTERNO&#45;&gt;Smussatura Nastro -->
<g id="edge43" class="edge">
<title>TRATT. TERMICO ESTERNO&#45;&gt;Smussatura Nastro</title>
<path fill="none" stroke="#000000" stroke-width="1.49" d="M276.22,-1051.67C281.76,-1034.67 289,-1007.89 289,-984 289,-984 289,-984 289,-547 289,-521.69 308.04,-500.84 327.55,-486.13"/>
<polygon fill="#000000" stroke="#000000" stroke-width="1.49" points="329.37,-489.12 335.54,-480.51 325.34,-483.4 329.37,-489.12"/>
<text text-anchor="middle" x="296" y="-761.8" font-family="Times,serif" font-size="14.00">12</text>
</g>
<!-- TRATT. TERMICO ESTERNO&#45;&gt;Passivazione decapaggio -->
<g id="edge13" class="edge">
<title>TRATT. TERMICO ESTERNO&#45;&gt;Passivazione decapaggio</title>
<path fill="none" stroke="#000000" stroke-width="3.93" d="M221.2,-1051.6C192.98,-1038.08 163,-1016.15 163,-984 163,-984 163,-984 163,-460 163,-442.86 163,-423.78 163,-408.04"/>
<polygon fill="#000000" stroke="#000000" stroke-width="3.93" points="166.5,-408.2 163,-398.2 159.5,-408.2 166.5,-408.2"/>
<text text-anchor="middle" x="170" y="-718.3" font-family="Times,serif" font-size="14.00">39</text>
</g>
<!-- Molatura finale -->
<g id="node14" class="node">
<title>Molatura finale</title>
<polygon fill="#b8b8ff" stroke="black" points="333,-305 205,-305 205,-269 333,-269 333,-305"/>
<text text-anchor="middle" x="269" y="-283.3" font-family="Times,serif" font-size="14.00">Molatura finale (53)</text>
</g>
<!-- TRATT. TERMICO ESTERNO&#45;&gt;Molatura finale -->
<g id="edge28" class="edge">
<title>TRATT. TERMICO ESTERNO&#45;&gt;Molatura finale</title>
<path fill="none" stroke="#000000" stroke-width="0.77" d="M263.78,-1051.67C258.24,-1034.67 251,-1007.89 251,-984 251,-984 251,-984 251,-590.5 251,-485.12 298.88,-460.59 286,-356 284.35,-342.59 280.93,-328.02 277.59,-315.83"/>
<polygon fill="#000000" stroke="#000000" stroke-width="0.77" points="281.04,-315.16 274.92,-306.51 274.31,-317.09 281.04,-315.16"/>
<text text-anchor="middle" x="254.5" y="-674.8" font-family="Times,serif" font-size="14.00">4</text>
</g>
<!-- Marcatura -->
<g id="node15" class="node">
<title>Marcatura</title>
<polygon fill="#aaaaff" stroke="black" points="229.5,-218 130.5,-218 130.5,-182 229.5,-182 229.5,-218"/>
<text text-anchor="middle" x="180" y="-196.3" font-family="Times,serif" font-size="14.00">Marcatura (63)</text>
</g>
<!-- TRATT. TERMICO ESTERNO&#45;&gt;Marcatura -->
<g id="edge40" class="edge">
<title>TRATT. TERMICO ESTERNO&#45;&gt;Marcatura</title>
<path fill="none" stroke="#000000" stroke-width="0.95" d="M178.57,-1051.55C116.63,-1037.02 46,-1013.9 46,-984 46,-984 46,-984 46,-329.5 46,-301.9 105.98,-253.71 145.68,-224.84"/>
<polygon fill="#000000" stroke="#000000" stroke-width="0.95" points="147.55,-227.81 153.63,-219.13 143.46,-222.12 147.55,-227.81"/>
<text text-anchor="middle" x="49.5" y="-631.3" font-family="Times,serif" font-size="14.00">6</text>
</g>
<!-- TRATT. TERMICO ESTERNO&#45;&gt;Collaudo -->
<g id="edge50" class="edge">
<title>TRATT. TERMICO ESTERNO&#45;&gt;Collaudo</title>
<path fill="none" stroke="#ff0000" stroke-width="0.59" stroke-dasharray="5,2" d="M161.35,-1054.95C86.32,-1042.09 0,-1019.57 0,-984 0,-984 0,-984 0,-199 0,-143.71 70.29,-124.33 123.03,-117.57"/>
<polygon fill="#ff0000" stroke="#ff0000" stroke-width="0.59" points="123.23,-121.07 132.76,-116.45 122.42,-114.12 123.23,-121.07"/>
<text text-anchor="middle" x="3.5" y="-587.8" font-family="Times,serif" font-size="14.00">2</text>
</g>
<!-- Passivazione decapaggio&#45;&gt;TRATT. TERMICO ESTERNO -->
<g id="edge55" class="edge">
<title>Passivazione decapaggio&#45;&gt;TRATT. TERMICO ESTERNO</title>
<path fill="none" stroke="#ff0000" stroke-width="0.68" stroke-dasharray="5,2" d="M180.77,-392.49C195.14,-408.56 213,-433.81 213,-460 213,-984 213,-984 213,-984 213,-1007 227.57,-1028.47 241.98,-1044.08"/>
<polygon fill="#ff0000" stroke="#ff0000" stroke-width="0.68" points="239.21,-1046.25 248.7,-1050.95 244.21,-1041.35 239.21,-1046.25"/>
<text text-anchor="middle" x="216.5" y="-718.3" font-family="Times,serif" font-size="14.00">3</text>
</g>
<!-- Passivazione decapaggio&#45;&gt;Passivazione decapaggio -->
<g id="edge44" class="edge">
<title>Passivazione decapaggio&#45;&gt;Passivazione decapaggio</title>
<path fill="none" stroke="#000000" stroke-width="0.86" d="M252.37,-381.01C263.03,-379.73 270,-377.4 270,-374 270,-371.98 267.54,-370.34 263.32,-369.07"/>
<polygon fill="#000000" stroke="#000000" stroke-width="0.86" points="264.12,-365.66 253.65,-367.23 262.82,-372.54 264.12,-365.66"/>
<text text-anchor="middle" x="273.5" y="-370.3" font-family="Times,serif" font-size="14.00">5</text>
</g>
<!-- Passivazione decapaggio&#45;&gt;Molatura finale -->
<g id="edge14" class="edge">
<title>Passivazione decapaggio&#45;&gt;Molatura finale</title>
<path fill="none" stroke="#000000" stroke-width="4.11" d="M184.06,-355.51C195.77,-345.85 210.62,-333.68 224,-323 227.18,-320.46 230.5,-317.83 233.83,-315.21"/>
<polygon fill="#000000" stroke="#000000" stroke-width="4.11" points="236.03,-318.06 241.69,-309.07 231.6,-312.4 236.03,-318.06"/>
<text text-anchor="middle" x="231" y="-326.8" font-family="Times,serif" font-size="14.00">41</text>
</g>
<!-- Passivazione decapaggio&#45;&gt;Marcatura -->
<g id="edge18" class="edge">
<title>Passivazione decapaggio&#45;&gt;Marcatura</title>
<path fill="none" stroke="#000000" stroke-width="1.58" d="M155.32,-355.56C147.2,-334.79 136.52,-299.1 144,-269 147.46,-255.05 154.38,-240.81 161.23,-228.99"/>
<polygon fill="#000000" stroke="#000000" stroke-width="1.58" points="164.17,-230.89 166.41,-220.53 158.2,-227.23 164.17,-230.89"/>
<text text-anchor="middle" x="151" y="-283.3" font-family="Times,serif" font-size="14.00">13</text>
</g>
<!-- Passivazione decapaggio&#45;&gt;Collaudo -->
<g id="edge30" class="edge">
<title>Passivazione decapaggio&#45;&gt;Collaudo</title>
<path fill="none" stroke="#000000" stroke-width="1.31" d="M150.99,-355.83C147.63,-350.35 144.28,-344.11 142,-338 117.56,-272.45 96.53,-247.54 121,-182 126.97,-166.01 138.58,-151.3 149.93,-139.67"/>
<polygon fill="#000000" stroke="#000000" stroke-width="1.31" points="152.28,-142.27 157.03,-132.8 147.41,-137.23 152.28,-142.27"/>
<text text-anchor="middle" x="119" y="-239.8" font-family="Times,serif" font-size="14.00">10</text>
</g>
<!-- Molatura finale&#45;&gt;Passivazione decapaggio -->
<g id="edge29" class="edge">
<title>Molatura finale&#45;&gt;Passivazione decapaggio</title>
<path fill="none" stroke="#000000" stroke-width="0.86" d="M261.56,-305.05C256.25,-315.64 248.23,-328.91 238,-338 232.85,-342.57 227.01,-346.66 220.9,-350.28"/>
<polygon fill="#000000" stroke="#000000" stroke-width="0.86" points="219.41,-347.11 212.3,-354.97 222.76,-353.25 219.41,-347.11"/>
<text text-anchor="middle" x="254.5" y="-326.8" font-family="Times,serif" font-size="14.00">5</text>
</g>
<!-- Molatura finale&#45;&gt;Marcatura -->
<g id="edge15" class="edge">
<title>Molatura finale&#45;&gt;Marcatura</title>
<path fill="none" stroke="#000000" stroke-width="4.38" d="M253.4,-268.93C244.2,-259.07 232.2,-246.57 221,-236 218.46,-233.6 215.78,-231.15 213.07,-228.73"/>
<polygon fill="#000000" stroke="#000000" stroke-width="4.38" points="215.88,-226.1 205.83,-222.43 210.86,-231.88 215.88,-226.1"/>
<text text-anchor="middle" x="243" y="-239.8" font-family="Times,serif" font-size="14.00">44</text>
</g>
<!-- Molatura finale&#45;&gt;Collaudo -->
<g id="edge35" class="edge">
<title>Molatura finale&#45;&gt;Collaudo</title>
<path fill="none" stroke="#000000" stroke-width="0.77" d="M266.11,-268.58C262.05,-247.2 253.39,-210.31 238,-182 229.57,-166.49 217.18,-151.34 206.01,-139.29"/>
<polygon fill="#000000" stroke="#000000" stroke-width="0.77" points="208.79,-137.13 199.35,-132.32 203.73,-141.97 208.79,-137.13"/>
<text text-anchor="middle" x="256.5" y="-196.3" font-family="Times,serif" font-size="14.00">4</text>
</g>
<!-- Marcatura&#45;&gt;Passivazione decapaggio -->
<g id="edge46" class="edge">
<title>Marcatura&#45;&gt;Passivazione decapaggio</title>
<path fill="none" stroke="#000000" stroke-width="0.86" d="M178.27,-218.48C175.34,-248.14 169.37,-308.54 165.83,-344.42"/>
<polygon fill="#000000" stroke="#000000" stroke-width="0.86" points="162.35,-343.97 164.85,-354.26 169.32,-344.66 162.35,-343.97"/>
<text text-anchor="middle" x="177.5" y="-283.3" font-family="Times,serif" font-size="14.00">5</text>
</g>
<!-- Marcatura&#45;&gt;Molatura finale -->
<g id="edge34" class="edge">
<title>Marcatura&#45;&gt;Molatura finale</title>
<path fill="none" stroke="#000000" stroke-width="1.13" d="M190.29,-218.41C196.84,-228.62 205.97,-241.37 216,-251 219.97,-254.81 224.4,-258.46 228.97,-261.88"/>
<polygon fill="#000000" stroke="#000000" stroke-width="1.13" points="226.83,-264.65 237.02,-267.54 230.85,-258.92 226.83,-264.65"/>
<text text-anchor="middle" x="219.5" y="-239.8" font-family="Times,serif" font-size="14.00">8</text>
</g>
<!-- Marcatura&#45;&gt;Collaudo -->
<g id="edge16" class="edge">
<title>Marcatura&#45;&gt;Collaudo</title>
<path fill="none" stroke="#000000" stroke-width="4.92" d="M180,-181.8C180,-171.96 180,-159.27 180,-147.53"/>
<polygon fill="#000000" stroke="#000000" stroke-width="4.92" points="184.3,-147.69 180,-137.69 175.7,-147.69 184.3,-147.69"/>
<text text-anchor="middle" x="187" y="-152.8" font-family="Times,serif" font-size="14.00">50</text>
</g>
<!-- end_node -->
<g id="node18" class="node">
<title>end_node</title>
<ellipse fill="none" stroke="black" cx="180" cy="-22" rx="18" ry="18"/>
<ellipse fill="none" stroke="black" cx="180" cy="-22" rx="22" ry="22"/>
<text text-anchor="start" x="175.5" y="-18.3" font-family="Times,serif" font-size="14.00">■</text>
</g>
<!-- Collaudo&#45;&gt;end_node -->
<g id="edge57" class="edge">
<title>Collaudo&#45;&gt;end_node</title>
<path fill="none" stroke="#000000" stroke-width="6.54" d="M180,-94.84C180,-85.13 180,-72.59 180,-60.72"/>
<polygon fill="#000000" stroke="#000000" stroke-width="6.54" points="185.72,-60.77 180,-50.77 174.28,-60.77 185.72,-60.77"/>
<text text-anchor="middle" x="187" y="-65.8" font-family="Times,serif" font-size="14.00">68</text>
</g>
<!-- Preparazione RX&#45;&gt;Calibratura finale -->
<g id="edge20" class="edge">
<title>Preparazione RX&#45;&gt;Calibratura finale</title>
<path fill="none" stroke="#ff0000" stroke-width="0.59" stroke-dasharray="5,2" d="M509.21,-790.8C510.01,-779.47 511.08,-764.36 512,-751.29"/>
<polygon fill="#ff0000" stroke="#ff0000" stroke-width="0.59" points="515.49,-751.58 512.7,-741.36 508.51,-751.09 515.49,-751.58"/>
<text text-anchor="middle" x="515.5" y="-761.8" font-family="Times,serif" font-size="14.00">2</text>
</g>
</g>
</svg>
