<?xml version="1.0" encoding="UTF-8" standalone="no"?>
<!DOCTYPE svg PUBLIC "-//W3C//DTD SVG 1.1//EN"
 "http://www.w3.org/Graphics/SVG/1.1/DTD/svg11.dtd">
<!-- Generated by graphviz version 7.0.4 (0)
 -->
<!-- Title: dfg Pages: 1 -->
<svg width="923pt" height="943pt"
 viewBox="0.00 0.00 923.00 943.00" xmlns="http://www.w3.org/2000/svg" xmlns:xlink="http://www.w3.org/1999/xlink">
<g id="graph0" class="graph" transform="scale(1 1) rotate(0) translate(4 939)">
<title>dfg</title>
<polygon fill="white" stroke="none" points="-4,4 -4,-939 919,-939 919,4 -4,4"/>
<!-- start_node -->
<g id="node1" class="node">
<title>start_node</title>
<ellipse fill="none" stroke="black" cx="672" cy="-917" rx="18" ry="18"/>
<text text-anchor="start" x="667.5" y="-913.3" font-family="Times,serif" font-size="14.00">●</text>
</g>
<!-- Saldatura esterna SAW -->
<g id="node2" class="node">
<title>Saldatura esterna SAW</title>
<polygon fill="#ffffff" stroke="black" points="583,-848 421,-848 421,-812 583,-812 583,-848"/>
<text text-anchor="middle" x="502" y="-826.3" font-family="Times,serif" font-size="14.00">Saldatura esterna SAW (1)</text>
</g>
<!-- start_node&#45;&gt;Saldatura esterna SAW -->
<g id="edge1" class="edge">
<title>start_node&#45;&gt;Saldatura esterna SAW</title>
<path fill="none" stroke="#ff0000" stroke-width="0.5" stroke-dasharray="5,2" d="M655.8,-908.71C640.54,-901.78 617.08,-890.96 597,-881 579.27,-872.21 559.91,-862.11 543.32,-853.3"/>
<polygon fill="#ff0000" stroke="#ff0000" stroke-width="0.5" points="545.04,-850.25 534.57,-848.64 541.75,-856.43 545.04,-850.25"/>
<text text-anchor="middle" x="600.5" y="-869.8" font-family="Times,serif" font-size="14.00">1</text>
</g>
<!-- Preparazione RX -->
<g id="node3" class="node">
<title>Preparazione RX</title>
<polygon fill="#fbfbff" stroke="black" points="238.5,-392 109.5,-392 109.5,-356 238.5,-356 238.5,-392"/>
<text text-anchor="middle" x="174" y="-370.3" font-family="Times,serif" font-size="14.00">Preparazione RX (5)</text>
</g>
<!-- start_node&#45;&gt;Preparazione RX -->
<g id="edge2" class="edge">
<title>start_node&#45;&gt;Preparazione RX</title>
<path fill="none" stroke="#000000" stroke-width="0.78" d="M653.6,-915.49C550.2,-912.38 46,-894 46,-831 46,-831 46,-831 46,-503.5 46,-455.81 90.81,-419.57 127.4,-397.92"/>
<polygon fill="#000000" stroke="#000000" stroke-width="0.78" points="128.99,-401.04 135.95,-393.06 125.53,-394.96 128.99,-401.04"/>
<text text-anchor="middle" x="49.5" y="-631.3" font-family="Times,serif" font-size="14.00">4</text>
</g>
<!-- SERIALI -->
<g id="node4" class="node">
<title>SERIALI</title>
<polygon fill="#ffffff" stroke="black" points="649,-794 561,-794 561,-758 649,-758 649,-794"/>
<text text-anchor="middle" x="605" y="-772.3" font-family="Times,serif" font-size="14.00">SERIALI (1)</text>
</g>
<!-- start_node&#45;&gt;SERIALI -->
<g id="edge3" class="edge">
<title>start_node&#45;&gt;SERIALI</title>
<path fill="none" stroke="#ff0000" stroke-width="0.5" stroke-dasharray="5,2" d="M662.59,-901.24C658.81,-895.08 654.52,-887.79 651,-881 637.78,-855.51 624.74,-825.42 615.93,-804.18"/>
<polygon fill="#ff0000" stroke="#ff0000" stroke-width="0.5" points="619.18,-802.86 612.14,-794.94 612.7,-805.52 619.18,-802.86"/>
<text text-anchor="middle" x="654.5" y="-869.8" font-family="Times,serif" font-size="14.00">1</text>
</g>
<!-- Raggi X -->
<g id="node5" class="node">
<title>Raggi X</title>
<polygon fill="#f4f4ff" stroke="black" points="713.5,-305 624.5,-305 624.5,-269 713.5,-269 713.5,-305"/>
<text text-anchor="middle" x="669" y="-283.3" font-family="Times,serif" font-size="14.00">Raggi X (12)</text>
</g>
<!-- start_node&#45;&gt;Raggi X -->
<g id="edge4" class="edge">
<title>start_node&#45;&gt;Raggi X</title>
<path fill="none" stroke="#000000" stroke-width="1.43" d="M690.4,-916.53C725.62,-916.72 803.95,-913.15 859,-881 884.06,-866.36 901,-860.02 901,-831 901,-831 901,-831 901,-590.5 901,-504.13 889.38,-471.76 829,-410 791.27,-371.4 740.8,-334.95 706.71,-312.12"/>
<polygon fill="#000000" stroke="#000000" stroke-width="1.43" points="708.77,-309.28 698.5,-306.68 704.9,-315.12 708.77,-309.28"/>
<text text-anchor="middle" x="908" y="-587.8" font-family="Times,serif" font-size="14.00">11</text>
</g>
<!-- TRATT. TERMICO ESTERNO -->
<g id="node6" class="node">
<title>TRATT. TERMICO ESTERNO</title>
<polygon fill="#adadff" stroke="black" points="639.5,-566 422.5,-566 422.5,-530 639.5,-530 639.5,-566"/>
<text text-anchor="middle" x="531" y="-544.3" font-family="Times,serif" font-size="14.00">TRATT. TERMICO ESTERNO (85)</text>
</g>
<!-- start_node&#45;&gt;TRATT. TERMICO ESTERNO -->
<g id="edge5" class="edge">
<title>start_node&#45;&gt;TRATT. TERMICO ESTERNO</title>
<path fill="none" stroke="#000000" stroke-width="6.28" d="M689.82,-912.06C723.01,-903.55 791,-880.13 791,-831 791,-831 791,-831 791,-677.5 791,-611.31 722.44,-579.21 655.73,-563.65"/>
<polygon fill="#000000" stroke="#000000" stroke-width="6.28" points="657.06,-558.32 646.13,-561.59 654.75,-569.06 657.06,-558.32"/>
<text text-anchor="middle" x="798" y="-718.3" font-family="Times,serif" font-size="14.00">63</text>
</g>
<!-- Molatura finale -->
<g id="node7" class="node">
<title>Molatura finale</title>
<polygon fill="#a3a3ff" stroke="black" points="535,-479 407,-479 407,-443 535,-443 535,-479"/>
<text text-anchor="middle" x="471" y="-457.3" font-family="Times,serif" font-size="14.00">Molatura finale (95)</text>
</g>
<!-- start_node&#45;&gt;Molatura finale -->
<g id="edge6" class="edge">
<title>start_node&#45;&gt;Molatura finale</title>
<path fill="none" stroke="#ff0000" stroke-width="0.59" stroke-dasharray="5,2" d="M690.31,-916.11C738.12,-915.34 863,-906.13 863,-831 863,-831 863,-831 863,-590.5 863,-562.9 868.39,-549.64 849,-530 803.94,-484.38 628.4,-488.55 565,-479 558.85,-478.07 552.49,-477.05 546.11,-475.99"/>
<polygon fill="#ff0000" stroke="#ff0000" stroke-width="0.59" points="546.72,-472.54 536.27,-474.31 545.54,-479.44 546.72,-472.54"/>
<text text-anchor="middle" x="866.5" y="-674.8" font-family="Times,serif" font-size="14.00">2</text>
</g>
<!-- Passivazione decapaggio -->
<g id="node8" class="node">
<title>Passivazione decapaggio</title>
<polygon fill="#9b9bff" stroke="black" points="586.5,-653 401.5,-653 401.5,-617 586.5,-617 586.5,-653"/>
<text text-anchor="middle" x="494" y="-631.3" font-family="Times,serif" font-size="14.00">Passivazione decapaggio (104)</text>
</g>
<!-- start_node&#45;&gt;Passivazione decapaggio -->
<g id="edge7" class="edge">
<title>start_node&#45;&gt;Passivazione decapaggio</title>
<path fill="none" stroke="#000000" stroke-width="1.25" d="M672.51,-898.61C672.77,-868.63 670.54,-805.85 650,-758 629.04,-709.17 612.68,-699.76 568,-671 561.18,-666.61 553.72,-662.43 546.24,-658.6"/>
<polygon fill="#000000" stroke="#000000" stroke-width="1.25" points="547.94,-655.53 537.42,-654.25 544.85,-661.81 547.94,-655.53"/>
<text text-anchor="middle" x="665.5" y="-772.3" font-family="Times,serif" font-size="14.00">9</text>
</g>
<!-- Molatura intermedia -->
<g id="node9" class="node">
<title>Molatura intermedia</title>
<polygon fill="#fbfbff" stroke="black" points="568.5,-740 419.5,-740 419.5,-704 568.5,-704 568.5,-740"/>
<text text-anchor="middle" x="494" y="-718.3" font-family="Times,serif" font-size="14.00">Molatura intermedia (5)</text>
</g>
<!-- Saldatura esterna SAW&#45;&gt;Molatura intermedia -->
<g id="edge8" class="edge">
<title>Saldatura esterna SAW&#45;&gt;Molatura intermedia</title>
<path fill="none" stroke="#ff0000" stroke-width="0.5" stroke-dasharray="5,2" d="M500.71,-811.97C499.47,-795.53 497.57,-770.35 496.11,-750.97"/>
<polygon fill="#ff0000" stroke="#ff0000" stroke-width="0.5" points="499.61,-750.8 495.37,-741.1 492.63,-751.33 499.61,-750.8"/>
<text text-anchor="middle" x="503.5" y="-772.3" font-family="Times,serif" font-size="14.00">1</text>
</g>
<!-- Preparazione RX&#45;&gt;Passivazione decapaggio -->
<g id="edge12" class="edge">
<title>Preparazione RX&#45;&gt;Passivazione decapaggio</title>
<path fill="none" stroke="#ff0000" stroke-width="0.5" stroke-dasharray="5,2" d="M173.39,-392.3C172.92,-434.86 178.14,-545.1 241,-599 263.39,-618.2 330.81,-626.89 390.43,-630.82"/>
<polygon fill="#ff0000" stroke="#ff0000" stroke-width="0.5" points="390.12,-634.31 400.32,-631.43 390.55,-627.32 390.12,-634.31"/>
<text text-anchor="middle" x="192.5" y="-500.8" font-family="Times,serif" font-size="14.00">1</text>
</g>
<!-- Alesatura -->
<g id="node10" class="node">
<title>Alesatura</title>
<polygon fill="#fcfcff" stroke="black" points="321,-36 233,-36 233,0 321,0 321,-36"/>
<text text-anchor="middle" x="277" y="-14.3" font-family="Times,serif" font-size="14.00">Alesatura (4)</text>
</g>
<!-- Preparazione RX&#45;&gt;Alesatura -->
<g id="edge22" class="edge">
<title>Preparazione RX&#45;&gt;Alesatura</title>
<path fill="none" stroke="#ff0000" stroke-width="0.59" stroke-dasharray="5,2" d="M193.08,-355.59C204.36,-345.61 219.11,-333.11 233,-323 245.26,-314.07 253.95,-317.86 262,-305 313.1,-223.35 295.45,-101.5 283.84,-47.05"/>
<polygon fill="#ff0000" stroke="#ff0000" stroke-width="0.59" points="287.27,-46.36 281.68,-37.37 280.44,-47.89 287.27,-46.36"/>
<text text-anchor="middle" x="299.5" y="-196.3" font-family="Times,serif" font-size="14.00">2</text>
</g>
<!-- Trattamento termico -->
<g id="node13" class="node">
<title>Trattamento termico</title>
<polygon fill="#ffffff" stroke="black" points="253.5,-305 104.5,-305 104.5,-269 253.5,-269 253.5,-305"/>
<text text-anchor="middle" x="179" y="-283.3" font-family="Times,serif" font-size="14.00">Trattamento termico (1)</text>
</g>
<!-- Preparazione RX&#45;&gt;Trattamento termico -->
<g id="edge15" class="edge">
<title>Preparazione RX&#45;&gt;Trattamento termico</title>
<path fill="none" stroke="#ff0000" stroke-width="0.5" stroke-dasharray="5,2" d="M175.01,-355.8C175.69,-344.35 176.58,-329.06 177.36,-315.89"/>
<polygon fill="#ff0000" stroke="#ff0000" stroke-width="0.5" points="180.83,-316.41 177.93,-306.22 173.85,-316 180.83,-316.41"/>
<text text-anchor="middle" x="180.5" y="-326.8" font-family="Times,serif" font-size="14.00">1</text>
</g>
<!-- NC da riparare -->
<g id="node16" class="node">
<title>NC da riparare</title>
<polygon fill="#e0e0ff" stroke="black" points="434,-305 310,-305 310,-269 434,-269 434,-305"/>
<text text-anchor="middle" x="372" y="-283.3" font-family="Times,serif" font-size="14.00">NC da riparare (32)</text>
</g>
<!-- Preparazione RX&#45;&gt;NC da riparare -->
<g id="edge25" class="edge">
<title>Preparazione RX&#45;&gt;NC da riparare</title>
<path fill="none" stroke="#ff0000" stroke-width="0.5" stroke-dasharray="5,2" d="M201.82,-355.59C224.12,-341.67 252.14,-324.29 255,-323 268.99,-316.72 284.41,-311.2 299.34,-306.5"/>
<polygon fill="#ff0000" stroke="#ff0000" stroke-width="0.5" points="300.3,-309.87 308.85,-303.61 298.26,-303.17 300.3,-309.87"/>
<text text-anchor="middle" x="258.5" y="-326.8" font-family="Times,serif" font-size="14.00">1</text>
</g>
<!-- SERIALI&#45;&gt;Passivazione decapaggio -->
<g id="edge27" class="edge">
<title>SERIALI&#45;&gt;Passivazione decapaggio</title>
<path fill="none" stroke="#ff0000" stroke-width="0.5" stroke-dasharray="5,2" d="M600.85,-757.72C596.61,-742.54 588.94,-720.38 577,-704 564.41,-686.73 546.43,-671.28 530.42,-659.49"/>
<polygon fill="#ff0000" stroke="#ff0000" stroke-width="0.5" points="532.57,-656.72 522.39,-653.76 528.5,-662.42 532.57,-656.72"/>
<text text-anchor="middle" x="599.5" y="-718.3" font-family="Times,serif" font-size="14.00">1</text>
</g>
<!-- Raggi X&#45;&gt;TRATT. TERMICO ESTERNO -->
<g id="edge30" class="edge">
<title>Raggi X&#45;&gt;TRATT. TERMICO ESTERNO</title>
<path fill="none" stroke="#000000" stroke-width="1.34" d="M673.91,-305.22C684.47,-346.18 704.56,-450.6 655,-512 651.76,-516.01 648.1,-519.59 644.11,-522.77"/>
<polygon fill="#000000" stroke="#000000" stroke-width="1.34" points="642.23,-519.82 635.96,-528.36 646.19,-525.59 642.23,-519.82"/>
<text text-anchor="middle" x="694" y="-413.8" font-family="Times,serif" font-size="14.00">10</text>
</g>
<!-- Raggi X&#45;&gt;Passivazione decapaggio -->
<g id="edge36" class="edge">
<title>Raggi X&#45;&gt;Passivazione decapaggio</title>
<path fill="none" stroke="#ff0000" stroke-width="0.5" stroke-dasharray="5,2" d="M683.47,-305.31C687.38,-310.7 691.28,-316.85 694,-323 737.72,-421.75 750.6,-474.64 693,-566 682.27,-583.02 679.55,-589.16 662,-599 649.91,-605.78 624.4,-612.26 596.84,-617.75"/>
<polygon fill="#ff0000" stroke="#ff0000" stroke-width="0.5" points="596.5,-614.25 587.35,-619.59 597.83,-621.13 596.5,-614.25"/>
<text text-anchor="middle" x="735.5" y="-457.3" font-family="Times,serif" font-size="14.00">1</text>
</g>
<!-- Collaudo -->
<g id="node12" class="node">
<title>Collaudo</title>
<polygon fill="#a7a7ff" stroke="black" points="637,-218 545,-218 545,-182 637,-182 637,-218"/>
<text text-anchor="middle" x="591" y="-196.3" font-family="Times,serif" font-size="14.00">Collaudo (91)</text>
</g>
<!-- Raggi X&#45;&gt;Collaudo -->
<g id="edge29" class="edge">
<title>Raggi X&#45;&gt;Collaudo</title>
<path fill="none" stroke="#ff0000" stroke-width="0.5" stroke-dasharray="5,2" d="M653.22,-268.8C641.98,-256.55 626.7,-239.9 614.09,-226.16"/>
<polygon fill="#ff0000" stroke="#ff0000" stroke-width="0.5" points="616.88,-224.03 607.54,-219.02 611.72,-228.76 616.88,-224.03"/>
<text text-anchor="middle" x="638.5" y="-239.8" font-family="Times,serif" font-size="14.00">1</text>
</g>
<!-- TRATT. TERMICO ESTERNO&#45;&gt;Molatura finale -->
<g id="edge38" class="edge">
<title>TRATT. TERMICO ESTERNO&#45;&gt;Molatura finale</title>
<path fill="none" stroke="#000000" stroke-width="2.46" d="M518.86,-529.8C510.86,-518.47 500.2,-503.36 490.97,-490.29"/>
<polygon fill="#000000" stroke="#000000" stroke-width="2.46" points="494.1,-488.66 485.47,-482.51 488.38,-492.69 494.1,-488.66"/>
<text text-anchor="middle" x="512" y="-500.8" font-family="Times,serif" font-size="14.00">22</text>
</g>
<!-- TRATT. TERMICO ESTERNO&#45;&gt;Passivazione decapaggio -->
<g id="edge31" class="edge">
<title>TRATT. TERMICO ESTERNO&#45;&gt;Passivazione decapaggio</title>
<path fill="none" stroke="#000000" stroke-width="5.81" d="M507.66,-566.44C502.56,-571.5 497.85,-577.44 495,-584 492.79,-589.1 491.62,-594.77 491.11,-600.41"/>
<polygon fill="#000000" stroke="#000000" stroke-width="5.81" points="486.02,-600.26 491.15,-610.23 496.19,-600.21 486.02,-600.26"/>
<text text-anchor="middle" x="502" y="-587.8" font-family="Times,serif" font-size="14.00">58</text>
</g>
<!-- TRATT. TERMICO ESTERNO&#45;&gt;Molatura intermedia -->
<g id="edge49" class="edge">
<title>TRATT. TERMICO ESTERNO&#45;&gt;Molatura intermedia</title>
<path fill="none" stroke="#ff0000" stroke-width="0.59" stroke-dasharray="5,2" d="M564.66,-566.49C597.57,-586.06 640.03,-619.43 620,-653 607.52,-673.92 586.13,-688.79 564.48,-699.17"/>
<polygon fill="#ff0000" stroke="#ff0000" stroke-width="0.59" points="563.06,-695.97 555.37,-703.26 565.93,-702.36 563.06,-695.97"/>
<text text-anchor="middle" x="629.5" y="-631.3" font-family="Times,serif" font-size="14.00">2</text>
</g>
<!-- Marcatura -->
<g id="node11" class="node">
<title>Marcatura</title>
<polygon fill="#afafff" stroke="black" points="640.5,-392 541.5,-392 541.5,-356 640.5,-356 640.5,-392"/>
<text text-anchor="middle" x="591" y="-370.3" font-family="Times,serif" font-size="14.00">Marcatura (83)</text>
</g>
<!-- TRATT. TERMICO ESTERNO&#45;&gt;Marcatura -->
<g id="edge52" class="edge">
<title>TRATT. TERMICO ESTERNO&#45;&gt;Marcatura</title>
<path fill="none" stroke="#ff0000" stroke-width="0.59" stroke-dasharray="5,2" d="M542.7,-529.53C551.14,-516.2 562.2,-497.11 569,-479 578.34,-454.1 584.14,-424.28 587.42,-402.97"/>
<polygon fill="#ff0000" stroke="#ff0000" stroke-width="0.59" points="590.86,-403.67 588.82,-393.27 583.93,-402.66 590.86,-403.67"/>
<text text-anchor="middle" x="583.5" y="-457.3" font-family="Times,serif" font-size="14.00">2</text>
</g>
<!-- TRATT. TERMICO ESTERNO&#45;&gt;NC da riparare -->
<g id="edge47" class="edge">
<title>TRATT. TERMICO ESTERNO&#45;&gt;NC da riparare</title>
<path fill="none" stroke="#ff0000" stroke-width="0.5" stroke-dasharray="5,2" d="M469.14,-529.52C443.17,-519.05 415.09,-502.96 398,-479 363.17,-430.17 364.37,-356.09 368.22,-316.05"/>
<polygon fill="#ff0000" stroke="#ff0000" stroke-width="0.5" points="371.68,-316.55 369.29,-306.23 364.72,-315.79 371.68,-316.55"/>
<text text-anchor="middle" x="378.5" y="-413.8" font-family="Times,serif" font-size="14.00">1</text>
</g>
<!-- Molatura finale&#45;&gt;Preparazione RX -->
<g id="edge11" class="edge">
<title>Molatura finale&#45;&gt;Preparazione RX</title>
<path fill="none" stroke="#ff0000" stroke-width="0.5" stroke-dasharray="5,2" d="M406.72,-447.7C377.86,-441.68 343.5,-433.82 313,-425 284.51,-416.76 253.39,-405.76 227.84,-396.17"/>
<polygon fill="#ff0000" stroke="#ff0000" stroke-width="0.5" points="229.27,-392.98 218.68,-392.71 226.8,-399.52 229.27,-392.98"/>
<text text-anchor="middle" x="316.5" y="-413.8" font-family="Times,serif" font-size="14.00">1</text>
</g>
<!-- Molatura finale&#45;&gt;TRATT. TERMICO ESTERNO -->
<g id="edge41" class="edge">
<title>Molatura finale&#45;&gt;TRATT. TERMICO ESTERNO</title>
<path fill="none" stroke="#ff0000" stroke-width="0.69" stroke-dasharray="5,2" d="M473.92,-479.33C476.25,-489.51 480.27,-502.25 487,-512 489.56,-515.7 492.62,-519.21 495.93,-522.47"/>
<polygon fill="#ff0000" stroke="#ff0000" stroke-width="0.69" points="493.38,-524.88 503.18,-528.91 498.03,-519.65 493.38,-524.88"/>
<text text-anchor="middle" x="490.5" y="-500.8" font-family="Times,serif" font-size="14.00">3</text>
</g>
<!-- Molatura finale&#45;&gt;Molatura finale -->
<g id="edge32" class="edge">
<title>Molatura finale&#45;&gt;Molatura finale</title>
<path fill="none" stroke="#ff0000" stroke-width="0.69" stroke-dasharray="5,2" d="M535.29,-468.55C545.79,-467.47 553,-464.95 553,-461 553,-458.59 550.32,-456.72 545.85,-455.38"/>
<polygon fill="#ff0000" stroke="#ff0000" stroke-width="0.69" points="546.78,-451.99 536.31,-453.64 545.52,-458.87 546.78,-451.99"/>
<text text-anchor="middle" x="556.5" y="-457.3" font-family="Times,serif" font-size="14.00">3</text>
</g>
<!-- Molatura finale&#45;&gt;Passivazione decapaggio -->
<g id="edge40" class="edge">
<title>Molatura finale&#45;&gt;Passivazione decapaggio</title>
<path fill="none" stroke="#000000" stroke-width="1.34" d="M444.87,-479.14C417.98,-499.06 382.24,-533.38 399,-566 408.69,-584.85 426.3,-599.64 443.74,-610.55"/>
<polygon fill="#000000" stroke="#000000" stroke-width="1.34" points="441.79,-613.46 452.19,-615.49 445.33,-607.42 441.79,-613.46"/>
<text text-anchor="middle" x="406" y="-544.3" font-family="Times,serif" font-size="14.00">10</text>
</g>
<!-- Molatura finale&#45;&gt;Molatura intermedia -->
<g id="edge43" class="edge">
<title>Molatura finale&#45;&gt;Molatura intermedia</title>
<path fill="none" stroke="#ff0000" stroke-width="0.5" stroke-dasharray="5,2" d="M406.84,-472.31C322.05,-488.93 188.44,-527.3 234,-599 272.17,-659.07 348.61,-690.08 408.77,-705.77"/>
<polygon fill="#ff0000" stroke="#ff0000" stroke-width="0.5" points="407.75,-709.12 418.31,-708.15 409.45,-702.33 407.75,-709.12"/>
<text text-anchor="middle" x="237.5" y="-587.8" font-family="Times,serif" font-size="14.00">1</text>
</g>
<!-- Molatura finale&#45;&gt;Marcatura -->
<g id="edge33" class="edge">
<title>Molatura finale&#45;&gt;Marcatura</title>
<path fill="none" stroke="#000000" stroke-width="5.72" d="M493.71,-442.55C506.57,-432.79 523.04,-420.51 538,-410 542.06,-407.14 546.34,-404.21 550.63,-401.31"/>
<polygon fill="#000000" stroke="#000000" stroke-width="5.72" points="553.24,-405.58 558.79,-395.87 547.69,-397.25 553.24,-405.58"/>
<text text-anchor="middle" x="545" y="-413.8" font-family="Times,serif" font-size="14.00">57</text>
</g>
<!-- Molatura finale&#45;&gt;Collaudo -->
<g id="edge21" class="edge">
<title>Molatura finale&#45;&gt;Collaudo</title>
<path fill="none" stroke="#000000" stroke-width="1.15" d="M480.14,-442.64C483.03,-437.03 486.2,-430.78 489,-425 522.88,-355.08 560.09,-271.48 578.81,-228.91"/>
<polygon fill="#000000" stroke="#000000" stroke-width="1.15" points="581.96,-230.43 582.77,-219.87 575.55,-227.62 581.96,-230.43"/>
<text text-anchor="middle" x="540.5" y="-326.8" font-family="Times,serif" font-size="14.00">8</text>
</g>
<!-- Molatura finale&#45;&gt;NC da riparare -->
<g id="edge34" class="edge">
<title>Molatura finale&#45;&gt;NC da riparare</title>
<path fill="none" stroke="#000000" stroke-width="1.53" d="M463.05,-442.59C450.66,-416.04 425.41,-364.16 399,-323 397.33,-320.4 395.52,-317.75 393.65,-315.14"/>
<polygon fill="#000000" stroke="#000000" stroke-width="1.53" points="396.53,-313.13 387.73,-307.22 390.92,-317.33 396.53,-313.13"/>
<text text-anchor="middle" x="445" y="-370.3" font-family="Times,serif" font-size="14.00">12</text>
</g>
<!-- Passivazione decapaggio&#45;&gt;TRATT. TERMICO ESTERNO -->
<g id="edge37" class="edge">
<title>Passivazione decapaggio&#45;&gt;TRATT. TERMICO ESTERNO</title>
<path fill="none" stroke="#000000" stroke-width="1.25" d="M501.49,-616.8C506.42,-605.47 512.99,-590.36 518.69,-577.29"/>
<polygon fill="#000000" stroke="#000000" stroke-width="1.25" points="521.86,-578.76 522.64,-568.2 515.44,-575.97 521.86,-578.76"/>
<text text-anchor="middle" x="518.5" y="-587.8" font-family="Times,serif" font-size="14.00">9</text>
</g>
<!-- Passivazione decapaggio&#45;&gt;Molatura finale -->
<g id="edge20" class="edge">
<title>Passivazione decapaggio&#45;&gt;Molatura finale</title>
<path fill="none" stroke="#000000" stroke-width="5.63" d="M408.71,-616.54C397.09,-611.98 385.8,-606.23 376,-599 361.81,-588.54 359.11,-582.87 354,-566 344.55,-534.78 352.9,-516.56 379,-497 384.23,-493.08 389.96,-489.55 395.91,-486.38"/>
<polygon fill="#000000" stroke="#000000" stroke-width="5.63" points="397.88,-490.89 404.8,-482.16 393.65,-482 397.88,-490.89"/>
<text text-anchor="middle" x="361" y="-544.3" font-family="Times,serif" font-size="14.00">56</text>
</g>
<!-- Passivazione decapaggio&#45;&gt;Passivazione decapaggio -->
<g id="edge55" class="edge">
<title>Passivazione decapaggio&#45;&gt;Passivazione decapaggio</title>
<path fill="none" stroke="#ff0000" stroke-width="0.5" stroke-dasharray="5,2" d="M586.7,-641.96C597.48,-640.68 604.5,-638.36 604.5,-635 604.5,-632.9 601.76,-631.21 597.07,-629.92"/>
<polygon fill="#ff0000" stroke="#ff0000" stroke-width="0.5" points="597.91,-626.52 587.45,-628.17 596.66,-633.4 597.91,-626.52"/>
<text text-anchor="middle" x="608" y="-631.3" font-family="Times,serif" font-size="14.00">1</text>
</g>
<!-- Passivazione decapaggio&#45;&gt;Molatura intermedia -->
<g id="edge50" class="edge">
<title>Passivazione decapaggio&#45;&gt;Molatura intermedia</title>
<path fill="none" stroke="#ff0000" stroke-width="0.5" stroke-dasharray="5,2" d="M494,-653.47C494,-664.97 494,-680.28 494,-693.41"/>
<polygon fill="#ff0000" stroke="#ff0000" stroke-width="0.5" points="490.5,-693.04 494,-703.04 497.5,-693.04 490.5,-693.04"/>
<text text-anchor="middle" x="497.5" y="-674.8" font-family="Times,serif" font-size="14.00">1</text>
</g>
<!-- Passivazione decapaggio&#45;&gt;Marcatura -->
<g id="edge13" class="edge">
<title>Passivazione decapaggio&#45;&gt;Marcatura</title>
<path fill="none" stroke="#000000" stroke-width="2.55" d="M577.28,-616.6C604.51,-606.53 631.88,-590.73 648,-566 681.47,-514.63 641.31,-442.88 613.41,-403.57"/>
<polygon fill="#000000" stroke="#000000" stroke-width="2.55" points="616.27,-401.55 607.52,-395.57 610.63,-405.7 616.27,-401.55"/>
<text text-anchor="middle" x="668" y="-500.8" font-family="Times,serif" font-size="14.00">23</text>
</g>
<!-- Passivazione decapaggio&#45;&gt;Collaudo -->
<g id="edge39" class="edge">
<title>Passivazione decapaggio&#45;&gt;Collaudo</title>
<path fill="none" stroke="#000000" stroke-width="1.06" d="M586.87,-619.73C631.26,-612.42 676.76,-604.03 686,-599 725.57,-577.46 726.39,-555.53 738,-512 765.89,-407.42 784.57,-357.31 722,-269 704.36,-244.1 674.78,-227.65 648.19,-217.18"/>
<polygon fill="#000000" stroke="#000000" stroke-width="1.06" points="649.5,-213.93 638.91,-213.74 647.07,-220.5 649.5,-213.93"/>
<text text-anchor="middle" x="765.5" y="-413.8" font-family="Times,serif" font-size="14.00">7</text>
</g>
<!-- Passivazione decapaggio&#45;&gt;NC da riparare -->
<g id="edge45" class="edge">
<title>Passivazione decapaggio&#45;&gt;NC da riparare</title>
<path fill="none" stroke="#000000" stroke-width="1.06" d="M401.31,-623.39C385.4,-618.08 370.13,-610.31 358,-599 279.11,-525.44 331.73,-377.55 358.76,-315.94"/>
<polygon fill="#000000" stroke="#000000" stroke-width="1.06" points="361.9,-317.5 362.82,-306.94 355.52,-314.62 361.9,-317.5"/>
<text text-anchor="middle" x="323.5" y="-457.3" font-family="Times,serif" font-size="14.00">7</text>
</g>
<!-- Molatura intermedia&#45;&gt;Passivazione decapaggio -->
<g id="edge44" class="edge">
<title>Molatura intermedia&#45;&gt;Passivazione decapaggio</title>
<path fill="none" stroke="#ff0000" stroke-width="0.69" stroke-dasharray="5,2" d="M486.27,-703.54C482.94,-693.99 480.18,-681.92 482,-671 482.4,-668.58 482.95,-666.1 483.6,-663.64"/>
<polygon fill="#ff0000" stroke="#ff0000" stroke-width="0.69" points="486.92,-664.73 486.55,-654.15 480.24,-662.66 486.92,-664.73"/>
<text text-anchor="middle" x="485.5" y="-674.8" font-family="Times,serif" font-size="14.00">3</text>
</g>
<!-- Molatura intermedia&#45;&gt;Alesatura -->
<g id="edge9" class="edge">
<title>Molatura intermedia&#45;&gt;Alesatura</title>
<path fill="none" stroke="#ff0000" stroke-width="0.5" stroke-dasharray="5,2" d="M419.24,-715.74C281.14,-705.01 0,-678.02 0,-636 0,-636 0,-636 0,-108 0,-93.42 55.24,-61.73 75,-54 122.72,-35.33 180.65,-26.59 222.22,-22.52"/>
<polygon fill="#ff0000" stroke="#ff0000" stroke-width="0.5" points="222.29,-26.02 231.93,-21.62 221.65,-19.05 222.29,-26.02"/>
<text text-anchor="middle" x="3.5" y="-370.3" font-family="Times,serif" font-size="14.00">1</text>
</g>
<!-- Molatura intermedia&#45;&gt;Marcatura -->
<g id="edge51" class="edge">
<title>Molatura intermedia&#45;&gt;Marcatura</title>
<path fill="none" stroke="#ff0000" stroke-width="0.5" stroke-dasharray="5,2" d="M565.44,-703.52C649.34,-681.34 780.58,-640.9 808,-599 853.99,-528.71 863.49,-473.93 809,-410 789.07,-386.62 708.65,-378.8 651.29,-376.21"/>
<polygon fill="#ff0000" stroke="#ff0000" stroke-width="0.5" points="651.76,-372.73 641.62,-375.82 651.47,-379.73 651.76,-372.73"/>
<text text-anchor="middle" x="845.5" y="-544.3" font-family="Times,serif" font-size="14.00">1</text>
</g>
<!-- Alesatura&#45;&gt;Molatura finale -->
<g id="edge10" class="edge">
<title>Alesatura&#45;&gt;Molatura finale</title>
<path fill="none" stroke="#ff0000" stroke-width="0.5" stroke-dasharray="5,2" d="M321.44,-20.1C379.81,-24.19 475,-41.1 475,-108 475,-375 475,-375 475,-375 475,-394.09 473.98,-415.55 472.97,-432.14"/>
<polygon fill="#ff0000" stroke="#ff0000" stroke-width="0.5" points="469.49,-431.79 472.34,-442 476.47,-432.25 469.49,-431.79"/>
<text text-anchor="middle" x="478.5" y="-239.8" font-family="Times,serif" font-size="14.00">1</text>
</g>
<!-- Alesatura&#45;&gt;Passivazione decapaggio -->
<g id="edge19" class="edge">
<title>Alesatura&#45;&gt;Passivazione decapaggio</title>
<path fill="none" stroke="#ff0000" stroke-width="0.59" stroke-dasharray="5,2" d="M232.61,-26.19C163.49,-38.65 38,-66.93 38,-108 38,-331.5 38,-331.5 38,-331.5 38,-470.72 73,-544.23 201,-599 234.32,-613.26 320.31,-622.45 390.57,-627.81"/>
<polygon fill="#ff0000" stroke="#ff0000" stroke-width="0.59" points="390.13,-631.29 400.36,-628.54 390.65,-624.31 390.13,-631.29"/>
<text text-anchor="middle" x="42.5" y="-326.8" font-family="Times,serif" font-size="14.00">2</text>
</g>
<!-- Alesatura&#45;&gt;NC da riparare -->
<g id="edge26" class="edge">
<title>Alesatura&#45;&gt;NC da riparare</title>
<path fill="none" stroke="#ff0000" stroke-width="0.5" stroke-dasharray="5,2" d="M294.51,-36.41C299.1,-41.71 303.68,-47.79 307,-54 343.54,-122.35 361.24,-213.3 368.23,-258.33"/>
<polygon fill="#ff0000" stroke="#ff0000" stroke-width="0.5" points="364.73,-258.62 369.67,-267.99 371.65,-257.59 364.73,-258.62"/>
<text text-anchor="middle" x="352.5" y="-152.8" font-family="Times,serif" font-size="14.00">1</text>
</g>
<!-- Marcatura&#45;&gt;Raggi X -->
<g id="edge28" class="edge">
<title>Marcatura&#45;&gt;Raggi X</title>
<path fill="none" stroke="#ff0000" stroke-width="0.5" stroke-dasharray="5,2" d="M606.78,-355.8C618.02,-343.55 633.3,-326.9 645.91,-313.16"/>
<polygon fill="#ff0000" stroke="#ff0000" stroke-width="0.5" points="648.28,-315.76 652.46,-306.02 643.12,-311.03 648.28,-315.76"/>
<text text-anchor="middle" x="638.5" y="-326.8" font-family="Times,serif" font-size="14.00">1</text>
</g>
<!-- Marcatura&#45;&gt;Molatura finale -->
<g id="edge48" class="edge">
<title>Marcatura&#45;&gt;Molatura finale</title>
<path fill="none" stroke="#000000" stroke-width="1.15" d="M580.82,-392.1C573.81,-402.7 563.67,-415.98 552,-425 545.97,-429.66 539.23,-433.83 532.28,-437.52"/>
<polygon fill="#000000" stroke="#000000" stroke-width="1.15" points="530.99,-434.26 523.57,-441.82 534.09,-440.53 530.99,-434.26"/>
<text text-anchor="middle" x="570.5" y="-413.8" font-family="Times,serif" font-size="14.00">8</text>
</g>
<!-- Marcatura&#45;&gt;Passivazione decapaggio -->
<g id="edge46" class="edge">
<title>Marcatura&#45;&gt;Passivazione decapaggio</title>
<path fill="none" stroke="#000000" stroke-width="0.78" d="M640.9,-381.31C658.42,-386.19 676.37,-394.81 687,-410 727.02,-467.18 702.7,-504.88 669,-566 654.08,-593.06 626.2,-609.41 597.01,-619.26"/>
<polygon fill="#000000" stroke="#000000" stroke-width="0.78" points="596.29,-615.82 587.78,-622.13 598.37,-622.51 596.29,-615.82"/>
<text text-anchor="middle" x="706.5" y="-500.8" font-family="Times,serif" font-size="14.00">4</text>
</g>
<!-- Marcatura&#45;&gt;Collaudo -->
<g id="edge14" class="edge">
<title>Marcatura&#45;&gt;Collaudo</title>
<path fill="none" stroke="#000000" stroke-width="6" d="M591,-355.56C591,-327.23 591,-270.73 591,-234.46"/>
<polygon fill="#000000" stroke="#000000" stroke-width="6" points="596.25,-234.94 591,-224.94 585.75,-234.94 596.25,-234.94"/>
<text text-anchor="middle" x="598" y="-283.3" font-family="Times,serif" font-size="14.00">60</text>
</g>
<!-- Marcatura&#45;&gt;NC da riparare -->
<g id="edge23" class="edge">
<title>Marcatura&#45;&gt;NC da riparare</title>
<path fill="none" stroke="#000000" stroke-width="1.34" d="M541.08,-359.4C520.95,-353.47 497.64,-346.03 477,-338 456.65,-330.08 434.75,-319.93 416.24,-310.84"/>
<polygon fill="#000000" stroke="#000000" stroke-width="1.34" points="417.82,-307.72 407.31,-306.4 414.7,-313.98 417.82,-307.72"/>
<text text-anchor="middle" x="484" y="-326.8" font-family="Times,serif" font-size="14.00">10</text>
</g>
<!-- end_node -->
<g id="node17" class="node">
<title>end_node</title>
<ellipse fill="none" stroke="black" cx="591" cy="-109" rx="18" ry="18"/>
<ellipse fill="none" stroke="black" cx="591" cy="-109" rx="22" ry="22"/>
<text text-anchor="start" x="586.5" y="-105.3" font-family="Times,serif" font-size="14.00">■</text>
</g>
<!-- Collaudo&#45;&gt;end_node -->
<g id="edge56" class="edge">
<title>Collaudo&#45;&gt;end_node</title>
<path fill="none" stroke="#000000" stroke-width="8.89" d="M591,-181.84C591,-172.25 591,-159.89 591,-148.13"/>
<polygon fill="#000000" stroke="#000000" stroke-width="8.89" points="598.78,-148.43 591,-138.43 583.22,-148.43 598.78,-148.43"/>
<text text-anchor="middle" x="598" y="-152.8" font-family="Times,serif" font-size="14.00">91</text>
</g>
<!-- Sabbiatura -->
<g id="node14" class="node">
<title>Sabbiatura</title>
<polygon fill="#ffffff" stroke="black" points="214,-218 120,-218 120,-182 214,-182 214,-218"/>
<text text-anchor="middle" x="167" y="-196.3" font-family="Times,serif" font-size="14.00">Sabbiatura (1)</text>
</g>
<!-- Trattamento termico&#45;&gt;Sabbiatura -->
<g id="edge16" class="edge">
<title>Trattamento termico&#45;&gt;Sabbiatura</title>
<path fill="none" stroke="#ff0000" stroke-width="0.5" stroke-dasharray="5,2" d="M176.57,-268.8C174.96,-257.35 172.8,-242.06 170.94,-228.89"/>
<polygon fill="#ff0000" stroke="#ff0000" stroke-width="0.5" points="174.44,-228.63 169.57,-219.22 167.5,-229.61 174.44,-228.63"/>
<text text-anchor="middle" x="177.5" y="-239.8" font-family="Times,serif" font-size="14.00">1</text>
</g>
<!-- Calibratura finale -->
<g id="node15" class="node">
<title>Calibratura finale</title>
<polygon fill="#fefeff" stroke="black" points="256.5,-127 125.5,-127 125.5,-91 256.5,-91 256.5,-127"/>
<text text-anchor="middle" x="191" y="-105.3" font-family="Times,serif" font-size="14.00">Calibratura finale (2)</text>
</g>
<!-- Sabbiatura&#45;&gt;Calibratura finale -->
<g id="edge17" class="edge">
<title>Sabbiatura&#45;&gt;Calibratura finale</title>
<path fill="none" stroke="#ff0000" stroke-width="0.5" stroke-dasharray="5,2" d="M171.63,-181.84C174.99,-169.36 179.62,-152.2 183.51,-137.78"/>
<polygon fill="#ff0000" stroke="#ff0000" stroke-width="0.5" points="186.88,-138.71 186.11,-128.14 180.12,-136.89 186.88,-138.71"/>
<text text-anchor="middle" x="184.5" y="-152.8" font-family="Times,serif" font-size="14.00">1</text>
</g>
<!-- Calibratura finale&#45;&gt;Passivazione decapaggio -->
<g id="edge54" class="edge">
<title>Calibratura finale&#45;&gt;Passivazione decapaggio</title>
<path fill="none" stroke="#ff0000" stroke-width="0.5" stroke-dasharray="5,2" d="M163.7,-127.44C145.85,-140.33 123.59,-159.49 111,-182 91.81,-216.31 99.02,-229.89 95,-269 90.11,-316.58 89.72,-379.61 93,-392 115.76,-478.01 138.6,-494.83 192,-566 204.26,-582.34 205.74,-589.84 224,-599 252.77,-613.43 327.32,-622.41 390.82,-627.66"/>
<polygon fill="#ff0000" stroke="#ff0000" stroke-width="0.5" points="390.3,-631.13 400.55,-628.44 390.87,-624.15 390.3,-631.13"/>
<text text-anchor="middle" x="96.5" y="-370.3" font-family="Times,serif" font-size="14.00">1</text>
</g>
<!-- Calibratura finale&#45;&gt;Alesatura -->
<g id="edge18" class="edge">
<title>Calibratura finale&#45;&gt;Alesatura</title>
<path fill="none" stroke="#ff0000" stroke-width="0.5" stroke-dasharray="5,2" d="M207.58,-90.84C220.47,-77.51 238.52,-58.82 252.98,-43.85"/>
<polygon fill="#ff0000" stroke="#ff0000" stroke-width="0.5" points="255.22,-46.58 259.65,-36.96 250.18,-41.71 255.22,-46.58"/>
<text text-anchor="middle" x="245.5" y="-57.8" font-family="Times,serif" font-size="14.00">1</text>
</g>
<!-- NC da riparare&#45;&gt;Molatura finale -->
<g id="edge42" class="edge">
<title>NC da riparare&#45;&gt;Molatura finale</title>
<path fill="none" stroke="#ff0000" stroke-width="0.69" stroke-dasharray="5,2" d="M375.95,-305.49C381.29,-326.94 392.14,-363.9 409,-392 418.44,-407.73 431.89,-423.03 443.85,-435.13"/>
<polygon fill="#ff0000" stroke="#ff0000" stroke-width="0.69" points="441.11,-437.34 450.7,-441.85 446.02,-432.35 441.11,-437.34"/>
<text text-anchor="middle" x="412.5" y="-370.3" font-family="Times,serif" font-size="14.00">3</text>
</g>
<!-- NC da riparare&#45;&gt;Passivazione decapaggio -->
<g id="edge35" class="edge">
<title>NC da riparare&#45;&gt;Passivazione decapaggio</title>
<path fill="none" stroke="#000000" stroke-width="1.62" d="M312.33,-305.49C304.21,-310.06 296.72,-315.81 291,-323 252.78,-371.03 238.16,-554.09 280,-599 295.25,-615.37 342.49,-624.09 388.71,-628.72"/>
<polygon fill="#000000" stroke="#000000" stroke-width="1.62" points="388.33,-632.2 398.61,-629.65 388.98,-625.23 388.33,-632.2"/>
<text text-anchor="middle" x="264" y="-457.3" font-family="Times,serif" font-size="14.00">13</text>
</g>
<!-- NC da riparare&#45;&gt;Collaudo -->
<g id="edge24" class="edge">
<title>NC da riparare&#45;&gt;Collaudo</title>
<path fill="none" stroke="#000000" stroke-width="1.81" d="M390.84,-268.57C403.56,-257.69 421.22,-244.23 439,-236 468.32,-222.42 503.34,-213.89 532.37,-208.66"/>
<polygon fill="#000000" stroke="#000000" stroke-width="1.81" points="532.86,-212.13 542.13,-207.01 531.69,-205.23 532.86,-212.13"/>
<text text-anchor="middle" x="446" y="-239.8" font-family="Times,serif" font-size="14.00">15</text>
</g>
<!-- NC da riparare&#45;&gt;Calibratura finale -->
<g id="edge53" class="edge">
<title>NC da riparare&#45;&gt;Calibratura finale</title>
<path fill="none" stroke="#ff0000" stroke-width="0.5" stroke-dasharray="5,2" d="M336.58,-268.59C314.14,-256.45 285.41,-238.73 264,-218 239.1,-193.9 217.87,-159.99 204.83,-136.63"/>
<polygon fill="#ff0000" stroke="#ff0000" stroke-width="0.5" points="207.98,-135.09 200.12,-127.99 201.83,-138.44 207.98,-135.09"/>
<text text-anchor="middle" x="267.5" y="-196.3" font-family="Times,serif" font-size="14.00">1</text>
</g>
</g>
</svg>
