<?xml version="1.0" encoding="UTF-8" standalone="no"?>
<!DOCTYPE svg PUBLIC "-//W3C//DTD SVG 1.1//EN"
 "http://www.w3.org/Graphics/SVG/1.1/DTD/svg11.dtd">
<!-- Generated by graphviz version 7.0.4 (0)
 -->
<!-- Title: dfg Pages: 1 -->
<svg width="900pt" height="1291pt"
 viewBox="0.00 0.00 900.27 1291.00" xmlns="http://www.w3.org/2000/svg" xmlns:xlink="http://www.w3.org/1999/xlink">
<g id="graph0" class="graph" transform="scale(1 1) rotate(0) translate(4 1287)">
<title>dfg</title>
<polygon fill="white" stroke="none" points="-4,4 -4,-1287 896.27,-1287 896.27,4 -4,4"/>
<!-- start_node -->
<g id="node1" class="node">
<title>start_node</title>
<ellipse fill="none" stroke="black" cx="651" cy="-1265" rx="18" ry="18"/>
<text text-anchor="start" x="646.5" y="-1261.3" font-family="Times,serif" font-size="14.00">●</text>
</g>
<!-- Preparazione smussi -->
<g id="node2" class="node">
<title>Preparazione smussi</title>
<polygon fill="#e1e1ff" stroke="black" points="469.5,-1109 314.5,-1109 314.5,-1073 469.5,-1073 469.5,-1109"/>
<text text-anchor="middle" x="392" y="-1087.3" font-family="Times,serif" font-size="14.00">Preparazione smussi (11)</text>
</g>
<!-- start_node&#45;&gt;Preparazione smussi -->
<g id="edge1" class="edge">
<title>start_node&#45;&gt;Preparazione smussi</title>
<path fill="none" stroke="#ff0000" stroke-width="0.5" stroke-dasharray="5,2" d="M636.33,-1254.26C596.31,-1227.68 484.39,-1153.36 426.96,-1115.22"/>
<polygon fill="#ff0000" stroke="#ff0000" stroke-width="0.5" points="429.13,-1112.46 418.86,-1109.84 425.26,-1118.29 429.13,-1112.46"/>
<text text-anchor="middle" x="550.5" y="-1174.3" font-family="Times,serif" font-size="14.00">1</text>
</g>
<!-- Taglio -->
<g id="node3" class="node">
<title>Taglio</title>
<polygon fill="#d5d5ff" stroke="black" points="430.5,-1196 353.5,-1196 353.5,-1160 430.5,-1160 430.5,-1196"/>
<text text-anchor="middle" x="392" y="-1174.3" font-family="Times,serif" font-size="14.00">Taglio (15)</text>
</g>
<!-- start_node&#45;&gt;Taglio -->
<g id="edge2" class="edge">
<title>start_node&#45;&gt;Taglio</title>
<path fill="none" stroke="#000000" stroke-width="3.25" d="M634.01,-1258.42C596.16,-1246 503.64,-1215.64 444.58,-1196.26"/>
<polygon fill="#000000" stroke="#000000" stroke-width="3.25" points="445.97,-1193.03 435.38,-1193.24 443.79,-1199.68 445.97,-1193.03"/>
<text text-anchor="middle" x="544" y="-1217.8" font-family="Times,serif" font-size="14.00">15</text>
</g>
<!-- Sabbiatura -->
<g id="node4" class="node">
<title>Sabbiatura</title>
<polygon fill="#dedeff" stroke="black" points="608.5,-653 507.5,-653 507.5,-617 608.5,-617 608.5,-653"/>
<text text-anchor="middle" x="558" y="-631.3" font-family="Times,serif" font-size="14.00">Sabbiatura (12)</text>
</g>
<!-- start_node&#45;&gt;Sabbiatura -->
<g id="edge3" class="edge">
<title>start_node&#45;&gt;Sabbiatura</title>
<path fill="none" stroke="#000000" stroke-width="1.88" d="M651,-1246.74C651,-1229.57 651,-1202.46 651,-1179 651,-1179 651,-1179 651,-872.5 651,-805.77 649.55,-786.22 623,-725 613.1,-702.18 596.49,-679.58 582.54,-662.87"/>
<polygon fill="#000000" stroke="#000000" stroke-width="1.88" points="585.31,-660.72 576.13,-655.42 580,-665.28 585.31,-660.72"/>
<text text-anchor="middle" x="654.5" y="-956.8" font-family="Times,serif" font-size="14.00">8</text>
</g>
<!-- Preparazione RX -->
<g id="node5" class="node">
<title>Preparazione RX</title>
<polygon fill="#eaeaff" stroke="black" points="808.5,-848 679.5,-848 679.5,-812 808.5,-812 808.5,-848"/>
<text text-anchor="middle" x="744" y="-826.3" font-family="Times,serif" font-size="14.00">Preparazione RX (8)</text>
</g>
<!-- start_node&#45;&gt;Preparazione RX -->
<g id="edge4" class="edge">
<title>start_node&#45;&gt;Preparazione RX</title>
<path fill="none" stroke="#000000" stroke-width="1.88" d="M665.75,-1254.11C684.93,-1239.93 716,-1211.88 716,-1179 716,-1179 716,-1179 716,-916 716,-896.56 722.69,-875.82 729.53,-859.69"/>
<polygon fill="#000000" stroke="#000000" stroke-width="1.88" points="732.55,-861.5 733.5,-850.94 726.18,-858.6 732.55,-861.5"/>
<text text-anchor="middle" x="719.5" y="-1043.8" font-family="Times,serif" font-size="14.00">8</text>
</g>
<!-- Raggi X -->
<g id="node6" class="node">
<title>Raggi X</title>
<polygon fill="#d2d2ff" stroke="black" points="657.5,-566 568.5,-566 568.5,-530 657.5,-530 657.5,-566"/>
<text text-anchor="middle" x="613" y="-544.3" font-family="Times,serif" font-size="14.00">Raggi X (16)</text>
</g>
<!-- start_node&#45;&gt;Raggi X -->
<g id="edge5" class="edge">
<title>start_node&#45;&gt;Raggi X</title>
<path fill="none" stroke="#ff0000" stroke-width="0.5" stroke-dasharray="5,2" d="M669.17,-1263.92C715.98,-1262.66 837,-1252.32 837,-1179 837,-1179 837,-1179 837,-688 837,-631.01 809.41,-615.63 762,-584 734.44,-565.61 698.38,-556.83 668.64,-552.66"/>
<polygon fill="#ff0000" stroke="#ff0000" stroke-width="0.5" points="669.1,-549.2 658.74,-551.42 668.23,-556.14 669.1,-549.2"/>
<text text-anchor="middle" x="840.5" y="-913.3" font-family="Times,serif" font-size="14.00">1</text>
</g>
<!-- Marcatura -->
<g id="node7" class="node">
<title>Marcatura</title>
<polygon fill="#acacff" stroke="black" points="537.5,-218 438.5,-218 438.5,-182 537.5,-182 537.5,-218"/>
<text text-anchor="middle" x="488" y="-196.3" font-family="Times,serif" font-size="14.00">Marcatura (29)</text>
</g>
<!-- start_node&#45;&gt;Marcatura -->
<g id="edge6" class="edge">
<title>start_node&#45;&gt;Marcatura</title>
<path fill="none" stroke="#ff0000" stroke-width="0.5" stroke-dasharray="5,2" d="M669.2,-1263.96C703.34,-1263.16 778.42,-1257.95 833,-1229 860.76,-1214.27 883,-1210.43 883,-1179 883,-1179 883,-1179 883,-688 883,-563.82 916.58,-517.84 855,-410 789.4,-295.13 633.98,-238.36 547.93,-214.86"/>
<polygon fill="#ff0000" stroke="#ff0000" stroke-width="0.5" points="549.09,-211.54 538.52,-212.35 547.28,-218.31 549.09,-211.54"/>
<text text-anchor="middle" x="886.5" y="-739.3" font-family="Times,serif" font-size="14.00">1</text>
</g>
<!-- Alesatura -->
<g id="node8" class="node">
<title>Alesatura</title>
<polygon fill="#b8b8ff" stroke="black" points="588.5,-761 493.5,-761 493.5,-725 588.5,-725 588.5,-761"/>
<text text-anchor="middle" x="541" y="-739.3" font-family="Times,serif" font-size="14.00">Alesatura (25)</text>
</g>
<!-- start_node&#45;&gt;Alesatura -->
<g id="edge7" class="edge">
<title>start_node&#45;&gt;Alesatura</title>
<path fill="none" stroke="#ff0000" stroke-width="0.5" stroke-dasharray="5,2" d="M640.41,-1250.11C629.17,-1233.94 613,-1205.99 613,-1179 613,-1179 613,-1179 613,-829 613,-804.18 594.9,-782.88 576.85,-767.81"/>
<polygon fill="#ff0000" stroke="#ff0000" stroke-width="0.5" points="579.25,-765.24 569.23,-761.81 574.92,-770.74 579.25,-765.24"/>
<text text-anchor="middle" x="616.5" y="-1000.3" font-family="Times,serif" font-size="14.00">1</text>
</g>
<!-- Preinviti -->
<g id="node9" class="node">
<title>Preinviti</title>
<polygon fill="#e1e1ff" stroke="black" points="343.5,-1022 254.5,-1022 254.5,-986 343.5,-986 343.5,-1022"/>
<text text-anchor="middle" x="299" y="-1000.3" font-family="Times,serif" font-size="14.00">Preinviti (11)</text>
</g>
<!-- Preparazione smussi&#45;&gt;Preinviti -->
<g id="edge8" class="edge">
<title>Preparazione smussi&#45;&gt;Preinviti</title>
<path fill="none" stroke="#000000" stroke-width="2.46" d="M373.18,-1072.8C360.28,-1061.01 342.92,-1045.14 328.23,-1031.72"/>
<polygon fill="#000000" stroke="#000000" stroke-width="2.46" points="330.61,-1029.15 320.86,-1024.98 325.88,-1034.31 330.61,-1029.15"/>
<text text-anchor="middle" x="359" y="-1043.8" font-family="Times,serif" font-size="14.00">11</text>
</g>
<!-- Taglio&#45;&gt;Preparazione smussi -->
<g id="edge18" class="edge">
<title>Taglio&#45;&gt;Preparazione smussi</title>
<path fill="none" stroke="#000000" stroke-width="2.27" d="M392,-1159.8C392,-1149.15 392,-1135.18 392,-1122.69"/>
<polygon fill="#000000" stroke="#000000" stroke-width="2.27" points="395.5,-1122.9 392,-1112.9 388.5,-1122.9 395.5,-1122.9"/>
<text text-anchor="middle" x="399" y="-1130.8" font-family="Times,serif" font-size="14.00">10</text>
</g>
<!-- Taglio&#45;&gt;Marcatura -->
<g id="edge62" class="edge">
<title>Taglio&#45;&gt;Marcatura</title>
<path fill="none" stroke="#ff0000" stroke-width="0.5" stroke-dasharray="5,2" d="M353.34,-1176.75C254.45,-1175.08 0,-1163.81 0,-1092 0,-1092 0,-1092 0,-872.5 0,-791.27 10,-771.23 10,-690 10,-690 10,-690 10,-503.5 10,-456.38 25.97,-442.6 60,-410 168.41,-306.13 338.33,-244.47 427.98,-217.39"/>
<polygon fill="#ff0000" stroke="#ff0000" stroke-width="0.5" points="428.93,-220.76 437.52,-214.55 426.93,-214.05 428.93,-220.76"/>
<text text-anchor="middle" x="13.5" y="-685.3" font-family="Times,serif" font-size="14.00">1</text>
</g>
<!-- Taglio&#45;&gt;Alesatura -->
<g id="edge37" class="edge">
<title>Taglio&#45;&gt;Alesatura</title>
<path fill="none" stroke="#000000" stroke-width="0.7" d="M423.02,-1159.59C441.74,-1147.62 464.66,-1130.08 479,-1109 547,-1008.99 538.71,-967.7 556,-848 559.74,-822.14 554.59,-792.65 549.34,-771.7"/>
<polygon fill="#000000" stroke="#000000" stroke-width="0.7" points="552.79,-771.07 546.82,-762.32 546.03,-772.88 552.79,-771.07"/>
<text text-anchor="middle" x="545.5" y="-956.8" font-family="Times,serif" font-size="14.00">2</text>
</g>
<!-- Calibratura finale -->
<g id="node17" class="node">
<title>Calibratura finale</title>
<polygon fill="#e1e1ff" stroke="black" points="572,-479 434,-479 434,-443 572,-443 572,-479"/>
<text text-anchor="middle" x="503" y="-457.3" font-family="Times,serif" font-size="14.00">Calibratura finale (11)</text>
</g>
<!-- Taglio&#45;&gt;Calibratura finale -->
<g id="edge31" class="edge">
<title>Taglio&#45;&gt;Calibratura finale</title>
<path fill="none" stroke="#000000" stroke-width="0.7" d="M353.32,-1175.64C263.03,-1171.4 46,-1154.71 46,-1092 46,-1092 46,-1092 46,-872.5 46,-845.32 39.45,-834.3 55,-812 110.64,-732.23 180.89,-778.33 247,-707 305.68,-643.68 270.7,-595.44 327,-530 351.4,-501.65 389.04,-485.06 423.27,-475.38"/>
<polygon fill="#000000" stroke="#000000" stroke-width="0.7" points="423.98,-478.81 432.74,-472.86 422.18,-472.05 423.98,-478.81"/>
<text text-anchor="middle" x="58.5" y="-826.3" font-family="Times,serif" font-size="14.00">2</text>
</g>
<!-- Sabbiatura&#45;&gt;Raggi X -->
<g id="edge59" class="edge">
<title>Sabbiatura&#45;&gt;Raggi X</title>
<path fill="none" stroke="#ff0000" stroke-width="0.5" stroke-dasharray="5,2" d="M572.25,-616.56C576.53,-611.07 581.11,-604.89 585,-599 589.86,-591.65 594.71,-583.39 598.97,-575.75"/>
<polygon fill="#ff0000" stroke="#ff0000" stroke-width="0.5" points="601.94,-577.61 603.65,-567.16 595.79,-574.26 601.94,-577.61"/>
<text text-anchor="middle" x="597.5" y="-587.8" font-family="Times,serif" font-size="14.00">1</text>
</g>
<!-- Sabbiatura&#45;&gt;Alesatura -->
<g id="edge25" class="edge">
<title>Sabbiatura&#45;&gt;Alesatura</title>
<path fill="none" stroke="#000000" stroke-width="0.89" d="M555.41,-653.23C553.23,-667.61 549.99,-688.66 547,-707 546.65,-709.14 546.28,-711.36 545.91,-713.59"/>
<polygon fill="#000000" stroke="#000000" stroke-width="0.89" points="542.5,-712.79 544.27,-723.23 549.4,-713.96 542.5,-712.79"/>
<text text-anchor="middle" x="555.5" y="-685.3" font-family="Times,serif" font-size="14.00">3</text>
</g>
<!-- Molatura finale -->
<g id="node14" class="node">
<title>Molatura finale</title>
<polygon fill="#bbbbff" stroke="black" points="654,-305 526,-305 526,-269 654,-269 654,-305"/>
<text text-anchor="middle" x="590" y="-283.3" font-family="Times,serif" font-size="14.00">Molatura finale (24)</text>
</g>
<!-- Sabbiatura&#45;&gt;Molatura finale -->
<g id="edge45" class="edge">
<title>Sabbiatura&#45;&gt;Molatura finale</title>
<path fill="none" stroke="#000000" stroke-width="0.7" d="M608.84,-618.47C638.12,-609.49 669.46,-599.8 671,-599 692.4,-587.93 700.7,-586.09 714,-566 727.69,-545.33 724.86,-536.59 728,-512 739.67,-420.45 707.67,-387.84 642,-323 638.04,-319.09 633.58,-315.34 628.98,-311.85"/>
<polygon fill="#000000" stroke="#000000" stroke-width="0.7" points="631.1,-309.05 620.93,-306.08 627.02,-314.75 631.1,-309.05"/>
<text text-anchor="middle" x="733.5" y="-457.3" font-family="Times,serif" font-size="14.00">2</text>
</g>
<!-- Passivazione decapaggio -->
<g id="node15" class="node">
<title>Passivazione decapaggio</title>
<polygon fill="#b2b2ff" stroke="black" points="576,-392 398,-392 398,-356 576,-356 576,-392"/>
<text text-anchor="middle" x="487" y="-370.3" font-family="Times,serif" font-size="14.00">Passivazione decapaggio (27)</text>
</g>
<!-- Sabbiatura&#45;&gt;Passivazione decapaggio -->
<g id="edge26" class="edge">
<title>Sabbiatura&#45;&gt;Passivazione decapaggio</title>
<path fill="none" stroke="#000000" stroke-width="1.48" d="M604.38,-616.55C638.98,-602.47 681.93,-582.4 692,-566 728.38,-506.74 729.18,-459.16 680,-410 679.94,-409.94 634.83,-401.76 588.24,-393.32"/>
<polygon fill="#000000" stroke="#000000" stroke-width="1.48" points="589.07,-389.91 578.6,-391.58 587.82,-396.8 589.07,-389.91"/>
<text text-anchor="middle" x="720.5" y="-500.8" font-family="Times,serif" font-size="14.00">6</text>
</g>
<!-- Preparazione RX&#45;&gt;Raggi X -->
<g id="edge41" class="edge">
<title>Preparazione RX&#45;&gt;Raggi X</title>
<path fill="none" stroke="#000000" stroke-width="1.29" d="M740.34,-811.68C730.9,-769.73 702.74,-660.5 651,-584 648.84,-580.81 646.33,-577.7 643.66,-574.73"/>
<polygon fill="#000000" stroke="#000000" stroke-width="1.29" points="646.21,-572.34 636.67,-567.73 641.25,-577.28 646.21,-572.34"/>
<text text-anchor="middle" x="712.5" y="-685.3" font-family="Times,serif" font-size="14.00">5</text>
</g>
<!-- Preparazione RX&#45;&gt;Alesatura -->
<g id="edge27" class="edge">
<title>Preparazione RX&#45;&gt;Alesatura</title>
<path fill="none" stroke="#000000" stroke-width="0.7" d="M703.73,-811.59C681.2,-801.9 652.59,-789.67 627,-779 616.52,-774.63 605.29,-770.01 594.52,-765.61"/>
<polygon fill="#000000" stroke="#000000" stroke-width="0.7" points="595.93,-762.41 585.35,-761.88 593.29,-768.89 595.93,-762.41"/>
<text text-anchor="middle" x="665.5" y="-782.8" font-family="Times,serif" font-size="14.00">2</text>
</g>
<!-- Collaudo -->
<g id="node16" class="node">
<title>Collaudo</title>
<polygon fill="#9b9bff" stroke="black" points="802,-131 710,-131 710,-95 802,-95 802,-131"/>
<text text-anchor="middle" x="756" y="-109.3" font-family="Times,serif" font-size="14.00">Collaudo (35)</text>
</g>
<!-- Preparazione RX&#45;&gt;Collaudo -->
<g id="edge60" class="edge">
<title>Preparazione RX&#45;&gt;Collaudo</title>
<path fill="none" stroke="#ff0000" stroke-width="0.5" stroke-dasharray="5,2" d="M754.57,-811.71C779.71,-768.87 841,-653.69 841,-549 841,-549 841,-549 841,-199 841,-172.7 820.41,-151.7 799.5,-137.15"/>
<polygon fill="#ff0000" stroke="#ff0000" stroke-width="0.5" points="801.49,-134.28 791.21,-131.73 797.66,-140.13 801.49,-134.28"/>
<text text-anchor="middle" x="844.5" y="-457.3" font-family="Times,serif" font-size="14.00">1</text>
</g>
<!-- Raggi X&#45;&gt;Sabbiatura -->
<g id="edge58" class="edge">
<title>Raggi X&#45;&gt;Sabbiatura</title>
<path fill="none" stroke="#ff0000" stroke-width="0.5" stroke-dasharray="5,2" d="M592.94,-566.28C587.6,-571.58 582.16,-577.69 578,-584 573.4,-590.98 569.57,-599.18 566.54,-606.89"/>
<polygon fill="#ff0000" stroke="#ff0000" stroke-width="0.5" points="563.27,-605.65 563.16,-616.25 569.85,-608.03 563.27,-605.65"/>
<text text-anchor="middle" x="581.5" y="-587.8" font-family="Times,serif" font-size="14.00">1</text>
</g>
<!-- Raggi X&#45;&gt;Raggi X -->
<g id="edge35" class="edge">
<title>Raggi X&#45;&gt;Raggi X</title>
<path fill="none" stroke="#000000" stroke-width="1.29" d="M657.95,-555.96C668.08,-555.24 675.5,-552.59 675.5,-548 675.5,-545.49 673.28,-543.56 669.61,-542.21"/>
<polygon fill="#000000" stroke="#000000" stroke-width="1.29" points="670.33,-538.78 659.86,-540.4 669.05,-545.67 670.33,-538.78"/>
<text text-anchor="middle" x="679" y="-544.3" font-family="Times,serif" font-size="14.00">5</text>
</g>
<!-- Raggi X&#45;&gt;Alesatura -->
<g id="edge42" class="edge">
<title>Raggi X&#45;&gt;Alesatura</title>
<path fill="none" stroke="#000000" stroke-width="1.48" d="M627.1,-566.16C630.72,-571.54 634.12,-577.73 636,-584 644.79,-613.38 642.1,-623.16 635,-653 628.83,-678.91 627.58,-687.92 609,-707 604.99,-711.12 600.38,-714.85 595.5,-718.21"/>
<polygon fill="#000000" stroke="#000000" stroke-width="1.48" points="593.78,-715.15 587.11,-723.38 597.46,-721.11 593.78,-715.15"/>
<text text-anchor="middle" x="644.5" y="-631.3" font-family="Times,serif" font-size="14.00">6</text>
</g>
<!-- Trattamento termico -->
<g id="node13" class="node">
<title>Trattamento termico</title>
<polygon fill="#ededff" stroke="black" points="303.5,-392 154.5,-392 154.5,-356 303.5,-356 303.5,-392"/>
<text text-anchor="middle" x="229" y="-370.3" font-family="Times,serif" font-size="14.00">Trattamento termico (7)</text>
</g>
<!-- Raggi X&#45;&gt;Trattamento termico -->
<g id="edge56" class="edge">
<title>Raggi X&#45;&gt;Trattamento termico</title>
<path fill="none" stroke="#ff0000" stroke-width="0.5" stroke-dasharray="5,2" d="M617.17,-529.87C621.55,-507.44 625.41,-468.03 606,-443 577.32,-406.02 551.65,-420.31 506,-410 470.66,-402.01 382.12,-391.42 314.58,-383.99"/>
<polygon fill="#ff0000" stroke="#ff0000" stroke-width="0.5" points="315,-380.51 304.68,-382.9 314.24,-387.47 315,-380.51"/>
<text text-anchor="middle" x="622.5" y="-457.3" font-family="Times,serif" font-size="14.00">1</text>
</g>
<!-- Raggi X&#45;&gt;Passivazione decapaggio -->
<g id="edge36" class="edge">
<title>Raggi X&#45;&gt;Passivazione decapaggio</title>
<path fill="none" stroke="#000000" stroke-width="0.7" d="M633.69,-529.79C638.77,-524.57 643.7,-518.49 647,-512 667.79,-471.16 691.05,-445.44 662,-410 660.59,-408.28 625.29,-401.07 586.76,-393.64"/>
<polygon fill="#000000" stroke="#000000" stroke-width="0.7" points="587.89,-390.29 577.41,-391.84 586.57,-397.17 587.89,-390.29"/>
<text text-anchor="middle" x="678.5" y="-457.3" font-family="Times,serif" font-size="14.00">2</text>
</g>
<!-- Raggi X&#45;&gt;Calibratura finale -->
<g id="edge48" class="edge">
<title>Raggi X&#45;&gt;Calibratura finale</title>
<path fill="none" stroke="#ff0000" stroke-width="0.5" stroke-dasharray="5,2" d="M605.25,-529.9C599.74,-519.3 591.46,-506.02 581,-497 575.44,-492.2 569.11,-487.95 562.52,-484.21"/>
<polygon fill="#ff0000" stroke="#ff0000" stroke-width="0.5" points="564.57,-481.34 554.09,-479.79 561.31,-487.54 564.57,-481.34"/>
<text text-anchor="middle" x="596.5" y="-500.8" font-family="Times,serif" font-size="14.00">1</text>
</g>
<!-- Marcatura&#45;&gt;Collaudo -->
<g id="edge17" class="edge">
<title>Marcatura&#45;&gt;Collaudo</title>
<path fill="none" stroke="#000000" stroke-width="6" d="M537.78,-183.21C581.98,-169.19 646.74,-148.65 694.23,-133.59"/>
<polygon fill="#000000" stroke="#000000" stroke-width="6" points="695.53,-138.69 703.47,-130.66 692.35,-128.68 695.53,-138.69"/>
<text text-anchor="middle" x="645" y="-152.8" font-family="Times,serif" font-size="14.00">29</text>
</g>
<!-- Alesatura&#45;&gt;Sabbiatura -->
<g id="edge44" class="edge">
<title>Alesatura&#45;&gt;Sabbiatura</title>
<path fill="none" stroke="#ff0000" stroke-width="0.5" stroke-dasharray="5,2" d="M539.26,-724.55C538.29,-710.03 537.97,-688.92 542,-671 542.59,-668.38 543.39,-665.71 544.32,-663.09"/>
<polygon fill="#ff0000" stroke="#ff0000" stroke-width="0.5" points="547.49,-664.58 548.09,-654 541.02,-661.9 547.49,-664.58"/>
<text text-anchor="middle" x="545.5" y="-685.3" font-family="Times,serif" font-size="14.00">1</text>
</g>
<!-- Alesatura&#45;&gt;Raggi X -->
<g id="edge34" class="edge">
<title>Alesatura&#45;&gt;Raggi X</title>
<path fill="none" stroke="#000000" stroke-width="0.7" d="M563.06,-724.6C581.71,-708.36 607.09,-682.29 618,-653 627.15,-628.45 624.33,-598.36 620.17,-576.87"/>
<polygon fill="#000000" stroke="#000000" stroke-width="0.7" points="623.62,-576.26 618.08,-567.23 616.78,-577.75 623.62,-576.26"/>
<text text-anchor="middle" x="627.5" y="-631.3" font-family="Times,serif" font-size="14.00">2</text>
</g>
<!-- Alesatura&#45;&gt;Alesatura -->
<g id="edge20" class="edge">
<title>Alesatura&#45;&gt;Alesatura</title>
<path fill="none" stroke="#ff0000" stroke-width="0.5" stroke-dasharray="5,2" d="M588.98,-750.89C599.15,-750.09 606.5,-747.46 606.5,-743 606.5,-740.28 603.77,-738.24 599.34,-736.88"/>
<polygon fill="#ff0000" stroke="#ff0000" stroke-width="0.5" points="600.18,-733.48 589.73,-735.24 598.99,-740.38 600.18,-733.48"/>
<text text-anchor="middle" x="610" y="-739.3" font-family="Times,serif" font-size="14.00">1</text>
</g>
<!-- Alesatura&#45;&gt;Molatura finale -->
<g id="edge14" class="edge">
<title>Alesatura&#45;&gt;Molatura finale</title>
<path fill="none" stroke="#000000" stroke-width="3.25" d="M496.15,-724.65C487.42,-719.86 478.86,-714 472,-707 453.36,-687.97 455.69,-677.81 446,-653 397.1,-527.8 310.65,-465.21 389,-356 403.85,-335.29 461.35,-317.11 511.07,-304.77"/>
<polygon fill="#000000" stroke="#000000" stroke-width="3.25" points="511.83,-308.18 520.73,-302.44 510.19,-301.38 511.83,-308.18"/>
<text text-anchor="middle" x="383" y="-500.8" font-family="Times,serif" font-size="14.00">15</text>
</g>
<!-- Alesatura&#45;&gt;Passivazione decapaggio -->
<g id="edge28" class="edge">
<title>Alesatura&#45;&gt;Passivazione decapaggio</title>
<path fill="none" stroke="#000000" stroke-width="1.09" d="M516.49,-724.52C510.52,-719.39 504.54,-713.42 500,-707 446.37,-631.19 444.56,-602.77 425,-512 415.44,-467.63 396.48,-448.82 420,-410 422.38,-406.07 425.36,-402.56 428.74,-399.43"/>
<polygon fill="#000000" stroke="#000000" stroke-width="1.09" points="430.74,-402.31 436.51,-393.42 426.46,-396.77 430.74,-402.31"/>
<text text-anchor="middle" x="439.5" y="-544.3" font-family="Times,serif" font-size="14.00">4</text>
</g>
<!-- Alesatura&#45;&gt;Calibratura finale -->
<g id="edge38" class="edge">
<title>Alesatura&#45;&gt;Calibratura finale</title>
<path fill="none" stroke="#000000" stroke-width="0.7" d="M530.04,-724.77C519.7,-707.42 504.94,-679.51 499,-653 486.28,-596.25 492.86,-527.62 498.27,-490.02"/>
<polygon fill="#000000" stroke="#000000" stroke-width="0.7" points="501.69,-490.85 499.73,-480.44 494.77,-489.8 501.69,-490.85"/>
<text text-anchor="middle" x="495.5" y="-587.8" font-family="Times,serif" font-size="14.00">2</text>
</g>
<!-- Preinviti&#45;&gt;Alesatura -->
<g id="edge19" class="edge">
<title>Preinviti&#45;&gt;Alesatura</title>
<path fill="none" stroke="#000000" stroke-width="0.89" d="M306.37,-985.7C308.63,-980.1 311.04,-973.83 313,-968 335.95,-899.84 307.31,-864.93 356,-812 388.68,-776.48 441.52,-759.45 482.38,-751.33"/>
<polygon fill="#000000" stroke="#000000" stroke-width="0.89" points="482.76,-754.82 491.96,-749.56 481.49,-747.94 482.76,-754.82"/>
<text text-anchor="middle" x="330.5" y="-869.8" font-family="Times,serif" font-size="14.00">3</text>
</g>
<!-- Puntatura -->
<g id="node10" class="node">
<title>Puntatura</title>
<polygon fill="#ffffff" stroke="black" points="190,-935 102,-935 102,-899 190,-899 190,-935"/>
<text text-anchor="middle" x="146" y="-913.3" font-family="Times,serif" font-size="14.00">Puntatura (1)</text>
</g>
<!-- Preinviti&#45;&gt;Puntatura -->
<g id="edge9" class="edge">
<title>Preinviti&#45;&gt;Puntatura</title>
<path fill="none" stroke="#ff0000" stroke-width="0.5" stroke-dasharray="5,2" d="M254.04,-989.82C238.01,-984.21 220.18,-976.89 205,-968 192.96,-960.95 180.98,-951.39 170.98,-942.51"/>
<polygon fill="#ff0000" stroke="#ff0000" stroke-width="0.5" points="173.4,-939.97 163.66,-935.8 168.67,-945.13 173.4,-939.97"/>
<text text-anchor="middle" x="208.5" y="-956.8" font-family="Times,serif" font-size="14.00">1</text>
</g>
<!-- Saldatura interna SAW -->
<g id="node11" class="node">
<title>Saldatura interna SAW</title>
<polygon fill="#f9f9ff" stroke="black" points="232.5,-848 71.5,-848 71.5,-812 232.5,-812 232.5,-848"/>
<text text-anchor="middle" x="152" y="-826.3" font-family="Times,serif" font-size="14.00">Saldatura interna SAW (3)</text>
</g>
<!-- Preinviti&#45;&gt;Saldatura interna SAW -->
<g id="edge53" class="edge">
<title>Preinviti&#45;&gt;Saldatura interna SAW</title>
<path fill="none" stroke="#000000" stroke-width="0.7" d="M268.94,-985.52C261.34,-980.39 253.51,-974.42 247,-968 246.41,-967.41 197.47,-896.72 170.07,-857.13"/>
<polygon fill="#000000" stroke="#000000" stroke-width="0.7" points="173.1,-855.36 164.54,-849.12 167.35,-859.34 173.1,-855.36"/>
<text text-anchor="middle" x="227.5" y="-913.3" font-family="Times,serif" font-size="14.00">2</text>
</g>
<!-- Preinviti&#45;&gt;Trattamento termico -->
<g id="edge61" class="edge">
<title>Preinviti&#45;&gt;Trattamento termico</title>
<path fill="none" stroke="#000000" stroke-width="0.7" d="M296.51,-985.85C287.07,-920.23 252.97,-678.81 233,-479 230.61,-455.05 229.89,-449.05 229,-425 228.74,-417.91 228.64,-410.26 228.64,-403.12"/>
<polygon fill="#000000" stroke="#000000" stroke-width="0.7" points="232.13,-403.2 228.68,-393.18 225.14,-403.17 232.13,-403.2"/>
<text text-anchor="middle" x="262.5" y="-685.3" font-family="Times,serif" font-size="14.00">2</text>
</g>
<!-- Preinviti&#45;&gt;Calibratura finale -->
<g id="edge22" class="edge">
<title>Preinviti&#45;&gt;Calibratura finale</title>
<path fill="none" stroke="#000000" stroke-width="0.7" d="M299,-985.74C299,-968.57 299,-941.46 299,-918 299,-918 299,-918 299,-688 299,-592.39 325.31,-559.12 398,-497 405.56,-490.54 414.36,-485.26 423.59,-480.94"/>
<polygon fill="#000000" stroke="#000000" stroke-width="0.7" points="424.92,-484.18 432.76,-477.05 422.18,-477.74 424.92,-484.18"/>
<text text-anchor="middle" x="302.5" y="-739.3" font-family="Times,serif" font-size="14.00">2</text>
</g>
<!-- Formatura -->
<g id="node18" class="node">
<title>Formatura</title>
<polygon fill="#ffffff" stroke="black" points="470.5,-935 377.5,-935 377.5,-899 470.5,-899 470.5,-935"/>
<text text-anchor="middle" x="424" y="-913.3" font-family="Times,serif" font-size="14.00">Formatura (1)</text>
</g>
<!-- Preinviti&#45;&gt;Formatura -->
<g id="edge50" class="edge">
<title>Preinviti&#45;&gt;Formatura</title>
<path fill="none" stroke="#ff0000" stroke-width="0.5" stroke-dasharray="5,2" d="M324.95,-985.59C333.28,-979.99 342.54,-973.75 351,-968 363.78,-959.32 377.79,-949.74 390.09,-941.31"/>
<polygon fill="#ff0000" stroke="#ff0000" stroke-width="0.5" points="391.81,-944.38 398.07,-935.83 387.85,-938.6 391.81,-944.38"/>
<text text-anchor="middle" x="375.5" y="-956.8" font-family="Times,serif" font-size="14.00">1</text>
</g>
<!-- Puntatura&#45;&gt;Saldatura interna SAW -->
<g id="edge10" class="edge">
<title>Puntatura&#45;&gt;Saldatura interna SAW</title>
<path fill="none" stroke="#ff0000" stroke-width="0.5" stroke-dasharray="5,2" d="M147.21,-898.8C148.02,-887.35 149.1,-872.06 150.03,-858.89"/>
<polygon fill="#ff0000" stroke="#ff0000" stroke-width="0.5" points="153.5,-859.44 150.71,-849.22 146.52,-858.95 153.5,-859.44"/>
<text text-anchor="middle" x="153.5" y="-869.8" font-family="Times,serif" font-size="14.00">1</text>
</g>
<!-- Molatura intermedia -->
<g id="node12" class="node">
<title>Molatura intermedia</title>
<polygon fill="#ffffff" stroke="black" points="215.5,-707 66.5,-707 66.5,-671 215.5,-671 215.5,-707"/>
<text text-anchor="middle" x="141" y="-685.3" font-family="Times,serif" font-size="14.00">Molatura intermedia (1)</text>
</g>
<!-- Saldatura interna SAW&#45;&gt;Molatura intermedia -->
<g id="edge11" class="edge">
<title>Saldatura interna SAW&#45;&gt;Molatura intermedia</title>
<path fill="none" stroke="#ff0000" stroke-width="0.5" stroke-dasharray="5,2" d="M150.63,-811.68C148.77,-788.14 145.41,-745.78 143.2,-717.78"/>
<polygon fill="#ff0000" stroke="#ff0000" stroke-width="0.5" points="146.69,-717.55 142.41,-707.86 139.71,-718.1 146.69,-717.55"/>
<text text-anchor="middle" x="153.5" y="-782.8" font-family="Times,serif" font-size="14.00">1</text>
</g>
<!-- Saldatura interna SAW&#45;&gt;Trattamento termico -->
<g id="edge54" class="edge">
<title>Saldatura interna SAW&#45;&gt;Trattamento termico</title>
<path fill="none" stroke="#000000" stroke-width="0.7" d="M107.41,-811.63C80.35,-797.86 51,-775.63 51,-744 51,-744 51,-744 51,-460 51,-415.04 97.81,-393.84 143.41,-383.86"/>
<polygon fill="#000000" stroke="#000000" stroke-width="0.7" points="143.88,-387.33 152.99,-381.93 142.5,-380.47 143.88,-387.33"/>
<text text-anchor="middle" x="54.5" y="-587.8" font-family="Times,serif" font-size="14.00">2</text>
</g>
<!-- Molatura intermedia&#45;&gt;Trattamento termico -->
<g id="edge12" class="edge">
<title>Molatura intermedia&#45;&gt;Trattamento termico</title>
<path fill="none" stroke="#ff0000" stroke-width="0.5" stroke-dasharray="5,2" d="M145.42,-670.53C149.84,-651.48 156,-620.02 156,-592.5 156,-592.5 156,-592.5 156,-460 156,-435.03 174.35,-413.74 192.65,-398.7"/>
<polygon fill="#ff0000" stroke="#ff0000" stroke-width="0.5" points="194.62,-401.6 200.39,-392.71 190.34,-396.07 194.62,-401.6"/>
<text text-anchor="middle" x="159.5" y="-544.3" font-family="Times,serif" font-size="14.00">1</text>
</g>
<!-- Trattamento termico&#45;&gt;Sabbiatura -->
<g id="edge24" class="edge">
<title>Trattamento termico&#45;&gt;Sabbiatura</title>
<path fill="none" stroke="#ff0000" stroke-width="0.5" stroke-dasharray="5,2" d="M253.42,-392.45C291.37,-419.99 366.16,-475.98 424,-530 454.35,-558.34 453.8,-574.05 487,-599 493.12,-603.6 499.93,-607.85 506.86,-611.69"/>
<polygon fill="#ff0000" stroke="#ff0000" stroke-width="0.5" points="505.15,-614.75 515.63,-616.32 508.42,-608.56 505.15,-614.75"/>
<text text-anchor="middle" x="405.5" y="-500.8" font-family="Times,serif" font-size="14.00">1</text>
</g>
<!-- Trattamento termico&#45;&gt;Alesatura -->
<g id="edge13" class="edge">
<title>Trattamento termico&#45;&gt;Alesatura</title>
<path fill="none" stroke="#000000" stroke-width="1.29" d="M230.28,-392.42C235.34,-448.02 259.05,-622.48 361,-707 379.11,-722.01 436.3,-731.36 481.42,-736.57"/>
<polygon fill="#000000" stroke="#000000" stroke-width="1.29" points="480.93,-740.04 491.25,-737.66 481.7,-733.08 480.93,-740.04"/>
<text text-anchor="middle" x="272.5" y="-544.3" font-family="Times,serif" font-size="14.00">5</text>
</g>
<!-- Trattamento termico&#45;&gt;Calibratura finale -->
<g id="edge57" class="edge">
<title>Trattamento termico&#45;&gt;Calibratura finale</title>
<path fill="none" stroke="#ff0000" stroke-width="0.5" stroke-dasharray="5,2" d="M303.79,-389.2C339.09,-396.24 377.11,-404.41 394,-410 416.76,-417.53 441.1,-428.4 460.99,-438.09"/>
<polygon fill="#ff0000" stroke="#ff0000" stroke-width="0.5" points="459.18,-441.1 469.7,-442.39 462.28,-434.82 459.18,-441.1"/>
<text text-anchor="middle" x="433.5" y="-413.8" font-family="Times,serif" font-size="14.00">1</text>
</g>
<!-- Molatura finale&#45;&gt;Marcatura -->
<g id="edge30" class="edge">
<title>Molatura finale&#45;&gt;Marcatura</title>
<path fill="none" stroke="#000000" stroke-width="1.48" d="M569.36,-268.8C554.66,-256.55 534.68,-239.9 518.2,-226.16"/>
<polygon fill="#000000" stroke="#000000" stroke-width="1.48" points="520.61,-223.62 510.68,-219.9 516.13,-228.99 520.61,-223.62"/>
<text text-anchor="middle" x="548.5" y="-239.8" font-family="Times,serif" font-size="14.00">6</text>
</g>
<!-- Molatura finale&#45;&gt;Passivazione decapaggio -->
<g id="edge15" class="edge">
<title>Molatura finale&#45;&gt;Passivazione decapaggio</title>
<path fill="none" stroke="#000000" stroke-width="3.05" d="M568.83,-305.47C554.47,-317.32 535.23,-333.2 519.01,-346.59"/>
<polygon fill="#000000" stroke="#000000" stroke-width="3.05" points="516.89,-343.79 511.41,-352.86 521.35,-349.19 516.89,-343.79"/>
<text text-anchor="middle" x="551" y="-326.8" font-family="Times,serif" font-size="14.00">14</text>
</g>
<!-- Molatura finale&#45;&gt;Collaudo -->
<g id="edge21" class="edge">
<title>Molatura finale&#45;&gt;Collaudo</title>
<path fill="none" stroke="#000000" stroke-width="0.89" d="M606.83,-268.56C636.29,-238.04 697.29,-174.83 731.46,-139.43"/>
<polygon fill="#000000" stroke="#000000" stroke-width="0.89" points="733.76,-142.08 738.19,-132.46 728.72,-137.22 733.76,-142.08"/>
<text text-anchor="middle" x="692.5" y="-196.3" font-family="Times,serif" font-size="14.00">3</text>
</g>
<!-- Molatura finale&#45;&gt;Calibratura finale -->
<g id="edge46" class="edge">
<title>Molatura finale&#45;&gt;Calibratura finale</title>
<path fill="none" stroke="#ff0000" stroke-width="0.5" stroke-dasharray="5,2" d="M593.23,-305.26C596.37,-326.8 598.89,-364.19 585,-392 575.87,-410.29 559.33,-425.46 543.49,-436.8"/>
<polygon fill="#ff0000" stroke="#ff0000" stroke-width="0.5" points="541.74,-433.75 535.44,-442.27 545.68,-439.54 541.74,-433.75"/>
<text text-anchor="middle" x="597.5" y="-370.3" font-family="Times,serif" font-size="14.00">1</text>
</g>
<!-- Passivazione decapaggio&#45;&gt;Marcatura -->
<g id="edge16" class="edge">
<title>Passivazione decapaggio&#45;&gt;Marcatura</title>
<path fill="none" stroke="#000000" stroke-width="4.23" d="M487.1,-355.56C487.27,-327.23 487.59,-270.73 487.81,-234.46"/>
<polygon fill="#000000" stroke="#000000" stroke-width="4.23" points="491.51,-234.6 487.86,-224.58 484.1,-234.56 491.51,-234.6"/>
<text text-anchor="middle" x="494" y="-283.3" font-family="Times,serif" font-size="14.00">20</text>
</g>
<!-- Passivazione decapaggio&#45;&gt;Molatura finale -->
<g id="edge29" class="edge">
<title>Passivazione decapaggio&#45;&gt;Molatura finale</title>
<path fill="none" stroke="#000000" stroke-width="1.29" d="M495.88,-355.61C501.88,-345.16 510.6,-332.15 521,-323 525.85,-318.73 531.32,-314.83 537,-311.31"/>
<polygon fill="#000000" stroke="#000000" stroke-width="1.29" points="538.73,-314.35 545.67,-306.35 535.25,-308.27 538.73,-314.35"/>
<text text-anchor="middle" x="524.5" y="-326.8" font-family="Times,serif" font-size="14.00">5</text>
</g>
<!-- Passivazione decapaggio&#45;&gt;Collaudo -->
<g id="edge55" class="edge">
<title>Passivazione decapaggio&#45;&gt;Collaudo</title>
<path fill="none" stroke="#000000" stroke-width="0.7" d="M472.46,-355.67C443.93,-319.49 387,-234.9 430,-182 463.24,-141.11 614.48,-123.97 698.78,-117.49"/>
<polygon fill="#000000" stroke="#000000" stroke-width="0.7" points="698.95,-120.99 708.67,-116.76 698.44,-114.01 698.95,-120.99"/>
<text text-anchor="middle" x="419.5" y="-239.8" font-family="Times,serif" font-size="14.00">2</text>
</g>
<!-- end_node -->
<g id="node20" class="node">
<title>end_node</title>
<ellipse fill="none" stroke="black" cx="756" cy="-22" rx="18" ry="18"/>
<ellipse fill="none" stroke="black" cx="756" cy="-22" rx="22" ry="22"/>
<text text-anchor="start" x="751.5" y="-18.3" font-family="Times,serif" font-size="14.00">■</text>
</g>
<!-- Collaudo&#45;&gt;end_node -->
<g id="edge63" class="edge">
<title>Collaudo&#45;&gt;end_node</title>
<path fill="none" stroke="#000000" stroke-width="7.18" d="M756,-94.84C756,-85.13 756,-72.59 756,-60.72"/>
<polygon fill="#000000" stroke="#000000" stroke-width="7.18" points="762.28,-60.94 756,-50.94 749.72,-60.94 762.28,-60.94"/>
<text text-anchor="middle" x="763" y="-65.8" font-family="Times,serif" font-size="14.00">35</text>
</g>
<!-- Calibratura finale&#45;&gt;Sabbiatura -->
<g id="edge49" class="edge">
<title>Calibratura finale&#45;&gt;Sabbiatura</title>
<path fill="none" stroke="#ff0000" stroke-width="0.5" stroke-dasharray="5,2" d="M508.59,-479.48C518.15,-509.39 537.73,-570.6 549.16,-606.35"/>
<polygon fill="#ff0000" stroke="#ff0000" stroke-width="0.5" points="545.81,-607.38 552.19,-615.84 552.48,-605.25 545.81,-607.38"/>
<text text-anchor="middle" x="538.5" y="-544.3" font-family="Times,serif" font-size="14.00">1</text>
</g>
<!-- Calibratura finale&#45;&gt;Raggi X -->
<g id="edge39" class="edge">
<title>Calibratura finale&#45;&gt;Raggi X</title>
<path fill="none" stroke="#000000" stroke-width="0.7" d="M528.16,-479.49C535.89,-484.99 544.36,-491.15 552,-497 562.6,-505.11 573.96,-514.29 583.98,-522.56"/>
<polygon fill="#000000" stroke="#000000" stroke-width="0.7" points="581.64,-525.16 591.57,-528.86 586.11,-519.78 581.64,-525.16"/>
<text text-anchor="middle" x="573.5" y="-500.8" font-family="Times,serif" font-size="14.00">2</text>
</g>
<!-- Calibratura finale&#45;&gt;Marcatura -->
<g id="edge47" class="edge">
<title>Calibratura finale&#45;&gt;Marcatura</title>
<path fill="none" stroke="#ff0000" stroke-width="0.5" stroke-dasharray="5,2" d="M484.96,-442.64C473.19,-432.06 457.09,-418.91 441,-410 419.61,-398.15 403.19,-411.92 389,-392 349.4,-336.38 416.84,-262.8 458.64,-225.27"/>
<polygon fill="#ff0000" stroke="#ff0000" stroke-width="0.5" points="460.85,-227.99 466.05,-218.76 456.23,-222.73 460.85,-227.99"/>
<text text-anchor="middle" x="386.5" y="-326.8" font-family="Times,serif" font-size="14.00">1</text>
</g>
<!-- Calibratura finale&#45;&gt;Alesatura -->
<g id="edge33" class="edge">
<title>Calibratura finale&#45;&gt;Alesatura</title>
<path fill="none" stroke="#ff0000" stroke-width="0.5" stroke-dasharray="5,2" d="M572.47,-474.12C582.38,-475.79 592.44,-477.46 602,-479 628.62,-483.28 701.45,-479.54 722,-497 752.96,-523.3 743.7,-543.87 750,-584 762.06,-660.83 664.79,-705.51 598.84,-726.72"/>
<polygon fill="#ff0000" stroke="#ff0000" stroke-width="0.5" points="598.18,-723.25 589.68,-729.57 600.26,-729.94 598.18,-723.25"/>
<text text-anchor="middle" x="754.5" y="-587.8" font-family="Times,serif" font-size="14.00">1</text>
</g>
<!-- Calibratura finale&#45;&gt;Trattamento termico -->
<g id="edge23" class="edge">
<title>Calibratura finale&#45;&gt;Trattamento termico</title>
<path fill="none" stroke="#ff0000" stroke-width="0.5" stroke-dasharray="5,2" d="M446.89,-442.59C402.93,-428.96 341.66,-409.95 295.29,-395.56"/>
<polygon fill="#ff0000" stroke="#ff0000" stroke-width="0.5" points="296.34,-392.23 285.76,-392.61 294.27,-398.91 296.34,-392.23"/>
<text text-anchor="middle" x="386.5" y="-413.8" font-family="Times,serif" font-size="14.00">1</text>
</g>
<!-- Calibratura finale&#45;&gt;Molatura finale -->
<g id="edge43" class="edge">
<title>Calibratura finale&#45;&gt;Molatura finale</title>
<path fill="none" stroke="#000000" stroke-width="0.7" d="M572.39,-448.38C586.92,-443.22 601.12,-435.76 612,-425 644.53,-392.82 643.81,-365.15 626,-323 624.61,-319.71 622.74,-316.57 620.58,-313.63"/>
<polygon fill="#000000" stroke="#000000" stroke-width="0.7" points="623.32,-311.45 614.12,-306.2 618.04,-316.04 623.32,-311.45"/>
<text text-anchor="middle" x="641.5" y="-370.3" font-family="Times,serif" font-size="14.00">2</text>
</g>
<!-- Calibratura finale&#45;&gt;Passivazione decapaggio -->
<g id="edge40" class="edge">
<title>Calibratura finale&#45;&gt;Passivazione decapaggio</title>
<path fill="none" stroke="#ff0000" stroke-width="0.5" stroke-dasharray="5,2" d="M499.76,-442.8C497.61,-431.35 494.73,-416.06 492.25,-402.89"/>
<polygon fill="#ff0000" stroke="#ff0000" stroke-width="0.5" points="495.72,-402.39 490.43,-393.21 488.84,-403.69 495.72,-402.39"/>
<text text-anchor="middle" x="498.5" y="-413.8" font-family="Times,serif" font-size="14.00">1</text>
</g>
<!-- Calibratura finale&#45;&gt;Calibratura finale -->
<g id="edge32" class="edge">
<title>Calibratura finale&#45;&gt;Calibratura finale</title>
<path fill="none" stroke="#000000" stroke-width="0.7" d="M572.27,-468.44C582.83,-467.3 590,-464.82 590,-461 590,-458.67 587.34,-456.84 582.87,-455.51"/>
<polygon fill="#000000" stroke="#000000" stroke-width="0.7" points="583.78,-452.12 573.31,-453.75 582.51,-459 583.78,-452.12"/>
<text text-anchor="middle" x="593.5" y="-457.3" font-family="Times,serif" font-size="14.00">2</text>
</g>
<!-- Schiacciatura tubi 013/112 -->
<g id="node19" class="node">
<title>Schiacciatura tubi 013/112</title>
<polygon fill="#ffffff" stroke="black" points="547,-848 365,-848 365,-812 547,-812 547,-848"/>
<text text-anchor="middle" x="456" y="-826.3" font-family="Times,serif" font-size="14.00">Schiacciatura tubi 013/112 (1)</text>
</g>
<!-- Formatura&#45;&gt;Schiacciatura tubi 013/112 -->
<g id="edge51" class="edge">
<title>Formatura&#45;&gt;Schiacciatura tubi 013/112</title>
<path fill="none" stroke="#ff0000" stroke-width="0.5" stroke-dasharray="5,2" d="M430.48,-898.8C434.83,-887.24 440.66,-871.75 445.65,-858.5"/>
<polygon fill="#ff0000" stroke="#ff0000" stroke-width="0.5" points="448.91,-859.77 449.16,-849.18 442.36,-857.3 448.91,-859.77"/>
<text text-anchor="middle" x="444.5" y="-869.8" font-family="Times,serif" font-size="14.00">1</text>
</g>
<!-- Schiacciatura tubi 013/112&#45;&gt;Alesatura -->
<g id="edge52" class="edge">
<title>Schiacciatura tubi 013/112&#45;&gt;Alesatura</title>
<path fill="none" stroke="#ff0000" stroke-width="0.5" stroke-dasharray="5,2" d="M473.2,-811.8C485.56,-799.44 502.41,-782.59 516.22,-768.78"/>
<polygon fill="#ff0000" stroke="#ff0000" stroke-width="0.5" points="518.4,-771.55 523,-762 513.45,-766.6 518.4,-771.55"/>
<text text-anchor="middle" x="506.5" y="-782.8" font-family="Times,serif" font-size="14.00">1</text>
</g>
</g>
</svg>
