<?xml version="1.0" encoding="UTF-8" standalone="no"?>
<!DOCTYPE svg PUBLIC "-//W3C//DTD SVG 1.1//EN"
 "http://www.w3.org/Graphics/SVG/1.1/DTD/svg11.dtd">
<!-- Generated by graphviz version 7.0.4 (0)
 -->
<!-- Title: dfg Pages: 1 -->
<svg width="870pt" height="1465pt"
 viewBox="0.00 0.00 869.50 1465.00" xmlns="http://www.w3.org/2000/svg" xmlns:xlink="http://www.w3.org/1999/xlink">
<g id="graph0" class="graph" transform="scale(1 1) rotate(0) translate(4 1461)">
<title>dfg</title>
<polygon fill="white" stroke="none" points="-4,4 -4,-1461 865.5,-1461 865.5,4 -4,4"/>
<!-- start_node -->
<g id="node1" class="node">
<title>start_node</title>
<ellipse fill="none" stroke="black" cx="533" cy="-1439" rx="18" ry="18"/>
<text text-anchor="start" x="528.5" y="-1435.3" font-family="Times,serif" font-size="14.00">●</text>
</g>
<!-- Preparazione smussi -->
<g id="node2" class="node">
<title>Preparazione smussi</title>
<polygon fill="#a2a2ff" stroke="black" points="610.5,-1370 455.5,-1370 455.5,-1334 610.5,-1334 610.5,-1370"/>
<text text-anchor="middle" x="533" y="-1348.3" font-family="Times,serif" font-size="14.00">Preparazione smussi (14)</text>
</g>
<!-- start_node&#45;&gt;Preparazione smussi -->
<g id="edge1" class="edge">
<title>start_node&#45;&gt;Preparazione smussi</title>
<path fill="none" stroke="#000000" stroke-width="6" d="M533,-1420.8C533,-1410.96 533,-1398.27 533,-1386.53"/>
<polygon fill="#000000" stroke="#000000" stroke-width="6" points="538.25,-1386.92 533,-1376.92 527.75,-1386.92 538.25,-1386.92"/>
<text text-anchor="middle" x="540" y="-1391.8" font-family="Times,serif" font-size="14.00">12</text>
</g>
<!-- Taglio -->
<g id="node3" class="node">
<title>Taglio</title>
<polygon fill="#dbdbff" stroke="black" points="534.5,-1196 463.5,-1196 463.5,-1160 534.5,-1160 534.5,-1196"/>
<text text-anchor="middle" x="499" y="-1174.3" font-family="Times,serif" font-size="14.00">Taglio (6)</text>
</g>
<!-- start_node&#45;&gt;Taglio -->
<g id="edge2" class="edge">
<title>start_node&#45;&gt;Taglio</title>
<path fill="none" stroke="#ff0000" stroke-width="0.5" stroke-dasharray="5,2" d="M516.44,-1430.77C495.56,-1420.62 460.62,-1399.98 446,-1370 418.96,-1314.54 455.8,-1243.07 480.3,-1205.22"/>
<polygon fill="#ff0000" stroke="#ff0000" stroke-width="0.5" points="483.15,-1207.25 485.79,-1196.99 477.33,-1203.36 483.15,-1207.25"/>
<text text-anchor="middle" x="442.5" y="-1304.8" font-family="Times,serif" font-size="14.00">1</text>
</g>
<!-- Preinviti -->
<g id="node4" class="node">
<title>Preinviti</title>
<polygon fill="#a9a9ff" stroke="black" points="630.5,-1283 541.5,-1283 541.5,-1247 630.5,-1247 630.5,-1283"/>
<text text-anchor="middle" x="586" y="-1261.3" font-family="Times,serif" font-size="14.00">Preinviti (13)</text>
</g>
<!-- start_node&#45;&gt;Preinviti -->
<g id="edge3" class="edge">
<title>start_node&#45;&gt;Preinviti</title>
<path fill="none" stroke="#ff0000" stroke-width="0.5" stroke-dasharray="5,2" d="M548.85,-1429.99C568.63,-1419.14 602.05,-1397.89 620,-1370 636.89,-1343.76 647,-1328.89 633,-1301 631.1,-1297.22 628.58,-1293.75 625.69,-1290.58"/>
<polygon fill="#ff0000" stroke="#ff0000" stroke-width="0.5" points="628.15,-1288.08 618.44,-1283.84 623.39,-1293.21 628.15,-1288.08"/>
<text text-anchor="middle" x="641.5" y="-1348.3" font-family="Times,serif" font-size="14.00">1</text>
</g>
<!-- Preparazione smussi&#45;&gt;Taglio -->
<g id="edge40" class="edge">
<title>Preparazione smussi&#45;&gt;Taglio</title>
<path fill="none" stroke="#ff0000" stroke-width="0.5" stroke-dasharray="5,2" d="M529.55,-1333.56C523.65,-1303.69 511.55,-1242.48 504.48,-1206.71"/>
<polygon fill="#ff0000" stroke="#ff0000" stroke-width="0.5" points="507.98,-1206.36 502.6,-1197.23 501.11,-1207.72 507.98,-1206.36"/>
<text text-anchor="middle" x="522.5" y="-1261.3" font-family="Times,serif" font-size="14.00">1</text>
</g>
<!-- Preparazione smussi&#45;&gt;Preinviti -->
<g id="edge4" class="edge">
<title>Preparazione smussi&#45;&gt;Preinviti</title>
<path fill="none" stroke="#000000" stroke-width="6" d="M548,-1333.74C552.44,-1328.25 557.14,-1322.03 561,-1316 564.66,-1310.28 568.19,-1303.95 571.38,-1297.77"/>
<polygon fill="#000000" stroke="#000000" stroke-width="6" points="576.02,-1300.24 575.69,-1288.95 566.58,-1295.63 576.02,-1300.24"/>
<text text-anchor="middle" x="576" y="-1304.8" font-family="Times,serif" font-size="14.00">12</text>
</g>
<!-- Puntatura in piano lamiere -->
<g id="node14" class="node">
<title>Puntatura in piano lamiere</title>
<polygon fill="#ffffff" stroke="black" points="861.5,-1283 680.5,-1283 680.5,-1247 861.5,-1247 861.5,-1283"/>
<text text-anchor="middle" x="771" y="-1261.3" font-family="Times,serif" font-size="14.00">Puntatura in piano lamiere (1)</text>
</g>
<!-- Preparazione smussi&#45;&gt;Puntatura in piano lamiere -->
<g id="edge16" class="edge">
<title>Preparazione smussi&#45;&gt;Puntatura in piano lamiere</title>
<path fill="none" stroke="#ff0000" stroke-width="0.5" stroke-dasharray="5,2" d="M581.74,-1333.59C619.6,-1320.07 672.25,-1301.27 712.4,-1286.93"/>
<polygon fill="#ff0000" stroke="#ff0000" stroke-width="0.5" points="713.38,-1290.3 721.62,-1283.64 711.02,-1283.7 713.38,-1290.3"/>
<text text-anchor="middle" x="669.5" y="-1304.8" font-family="Times,serif" font-size="14.00">1</text>
</g>
<!-- Taglio&#45;&gt;Preparazione smussi -->
<g id="edge15" class="edge">
<title>Taglio&#45;&gt;Preparazione smussi</title>
<path fill="none" stroke="#ff0000" stroke-width="0.5" stroke-dasharray="5,2" d="M493.53,-1196.47C487.81,-1217.27 480.5,-1252.98 487,-1283 490.41,-1298.75 493.23,-1302.49 502,-1316 504.11,-1319.26 506.52,-1322.52 509.03,-1325.67"/>
<polygon fill="#ff0000" stroke="#ff0000" stroke-width="0.5" points="506.19,-1327.73 515.33,-1333.09 511.53,-1323.2 506.19,-1327.73"/>
<text text-anchor="middle" x="490.5" y="-1261.3" font-family="Times,serif" font-size="14.00">1</text>
</g>
<!-- Formatura Calandra -->
<g id="node20" class="node">
<title>Formatura Calandra</title>
<polygon fill="#b0b0ff" stroke="black" points="577,-1088 425,-1088 425,-1052 577,-1052 577,-1088"/>
<text text-anchor="middle" x="501" y="-1066.3" font-family="Times,serif" font-size="14.00">Formatura Calandra (12)</text>
</g>
<!-- Taglio&#45;&gt;Formatura Calandra -->
<g id="edge25" class="edge">
<title>Taglio&#45;&gt;Formatura Calandra</title>
<path fill="none" stroke="#000000" stroke-width="2.5" d="M499.32,-1159.97C499.62,-1144.38 500.06,-1120.92 500.41,-1102.01"/>
<polygon fill="#000000" stroke="#000000" stroke-width="2.5" points="503.91,-1102.19 500.6,-1092.12 496.91,-1102.06 503.91,-1102.19"/>
<text text-anchor="middle" x="503.5" y="-1120.3" font-family="Times,serif" font-size="14.00">5</text>
</g>
<!-- Preinviti&#45;&gt;Preparazione smussi -->
<g id="edge39" class="edge">
<title>Preinviti&#45;&gt;Preparazione smussi</title>
<path fill="none" stroke="#ff0000" stroke-width="0.5" stroke-dasharray="5,2" d="M568.12,-1283.19C563.13,-1288.58 557.99,-1294.76 554,-1301 549.53,-1307.98 545.66,-1316.07 542.49,-1323.68"/>
<polygon fill="#ff0000" stroke="#ff0000" stroke-width="0.5" points="539.27,-1322.32 538.9,-1332.91 545.79,-1324.86 539.27,-1322.32"/>
<text text-anchor="middle" x="557.5" y="-1304.8" font-family="Times,serif" font-size="14.00">1</text>
</g>
<!-- Preinviti&#45;&gt;Taglio -->
<g id="edge24" class="edge">
<title>Preinviti&#45;&gt;Taglio</title>
<path fill="none" stroke="#000000" stroke-width="2" d="M568.39,-1246.8C556.21,-1234.9 539.77,-1218.83 525.94,-1205.32"/>
<polygon fill="#000000" stroke="#000000" stroke-width="2" points="528.64,-1203.07 519.04,-1198.58 523.75,-1208.07 528.64,-1203.07"/>
<text text-anchor="middle" x="550.5" y="-1217.8" font-family="Times,serif" font-size="14.00">4</text>
</g>
<!-- Molatura intermedia -->
<g id="node5" class="node">
<title>Molatura intermedia</title>
<polygon fill="#bebeff" stroke="black" points="681.5,-1001 526.5,-1001 526.5,-965 681.5,-965 681.5,-1001"/>
<text text-anchor="middle" x="604" y="-979.3" font-family="Times,serif" font-size="14.00">Molatura intermedia (10)</text>
</g>
<!-- Preinviti&#45;&gt;Molatura intermedia -->
<g id="edge5" class="edge">
<title>Preinviti&#45;&gt;Molatura intermedia</title>
<path fill="none" stroke="#ff0000" stroke-width="0.5" stroke-dasharray="5,2" d="M587.1,-1246.91C590.11,-1200.04 598.52,-1069.2 602.22,-1011.7"/>
<polygon fill="#ff0000" stroke="#ff0000" stroke-width="0.5" points="605.7,-1012.19 602.84,-1001.98 598.71,-1011.74 605.7,-1012.19"/>
<text text-anchor="middle" x="599.5" y="-1120.3" font-family="Times,serif" font-size="14.00">1</text>
</g>
<!-- Preinviti&#45;&gt;Formatura Calandra -->
<g id="edge47" class="edge">
<title>Preinviti&#45;&gt;Formatura Calandra</title>
<path fill="none" stroke="#000000" stroke-width="3.5" d="M579.36,-1246.56C571.36,-1225.77 557.33,-1190.09 544,-1160 535.35,-1140.46 524.94,-1118.87 516.53,-1101.85"/>
<polygon fill="#000000" stroke="#000000" stroke-width="3.5" points="519.7,-1100.37 512.11,-1092.98 513.43,-1103.49 519.7,-1100.37"/>
<text text-anchor="middle" x="561.5" y="-1174.3" font-family="Times,serif" font-size="14.00">7</text>
</g>
<!-- Calibratura finale -->
<g id="node6" class="node">
<title>Calibratura finale</title>
<polygon fill="#a2a2ff" stroke="black" points="294,-914 156,-914 156,-878 294,-878 294,-914"/>
<text text-anchor="middle" x="225" y="-892.3" font-family="Times,serif" font-size="14.00">Calibratura finale (14)</text>
</g>
<!-- Molatura intermedia&#45;&gt;Calibratura finale -->
<g id="edge6" class="edge">
<title>Molatura intermedia&#45;&gt;Calibratura finale</title>
<path fill="none" stroke="#000000" d="M551.49,-964.53C518.58,-954.04 475.14,-941.03 436,-932 393.26,-922.14 345.04,-913.92 305.5,-907.94"/>
<polygon fill="#000000" stroke="#000000" points="306.23,-904.51 295.82,-906.49 305.19,-911.43 306.23,-904.51"/>
<text text-anchor="middle" x="494.5" y="-935.8" font-family="Times,serif" font-size="14.00">2</text>
</g>
<!-- Puntatura -->
<g id="node16" class="node">
<title>Puntatura</title>
<polygon fill="#b0b0ff" stroke="black" points="622.5,-914 527.5,-914 527.5,-878 622.5,-878 622.5,-914"/>
<text text-anchor="middle" x="575" y="-892.3" font-family="Times,serif" font-size="14.00">Puntatura (12)</text>
</g>
<!-- Molatura intermedia&#45;&gt;Puntatura -->
<g id="edge27" class="edge">
<title>Molatura intermedia&#45;&gt;Puntatura</title>
<path fill="none" stroke="#000000" stroke-width="4" d="M598.13,-964.8C594.66,-954.61 590.14,-941.38 586.02,-929.31"/>
<polygon fill="#000000" stroke="#000000" stroke-width="4" points="589.46,-928.53 582.91,-920.2 582.83,-930.79 589.46,-928.53"/>
<text text-anchor="middle" x="594.5" y="-935.8" font-family="Times,serif" font-size="14.00">8</text>
</g>
<!-- Trattamento termico -->
<g id="node7" class="node">
<title>Trattamento termico</title>
<polygon fill="#ffffff" stroke="black" points="299.5,-827 150.5,-827 150.5,-791 299.5,-791 299.5,-827"/>
<text text-anchor="middle" x="225" y="-805.3" font-family="Times,serif" font-size="14.00">Trattamento termico (1)</text>
</g>
<!-- Calibratura finale&#45;&gt;Trattamento termico -->
<g id="edge7" class="edge">
<title>Calibratura finale&#45;&gt;Trattamento termico</title>
<path fill="none" stroke="#ff0000" stroke-width="0.5" stroke-dasharray="5,2" d="M225,-877.8C225,-866.35 225,-851.06 225,-837.89"/>
<polygon fill="#ff0000" stroke="#ff0000" stroke-width="0.5" points="228.5,-838.22 225,-828.22 221.5,-838.22 228.5,-838.22"/>
<text text-anchor="middle" x="228.5" y="-848.8" font-family="Times,serif" font-size="14.00">1</text>
</g>
<!-- Raggi X -->
<g id="node9" class="node">
<title>Raggi X</title>
<polygon fill="#9b9bff" stroke="black" points="269.5,-653 180.5,-653 180.5,-617 269.5,-617 269.5,-653"/>
<text text-anchor="middle" x="225" y="-631.3" font-family="Times,serif" font-size="14.00">Raggi X (15)</text>
</g>
<!-- Calibratura finale&#45;&gt;Raggi X -->
<g id="edge36" class="edge">
<title>Calibratura finale&#45;&gt;Raggi X</title>
<path fill="none" stroke="#000000" stroke-width="2.5" d="M175.1,-877.6C166.02,-872.87 157.16,-867.06 150,-860 117.21,-827.69 127.38,-803.8 132,-758 136.2,-716.36 137,-699.11 168,-671 171.9,-667.46 176.22,-664.07 180.67,-660.9"/>
<polygon fill="#000000" stroke="#000000" stroke-width="2.5" points="182.31,-664.01 188.72,-655.57 178.45,-658.17 182.31,-664.01"/>
<text text-anchor="middle" x="135.5" y="-761.8" font-family="Times,serif" font-size="14.00">5</text>
</g>
<!-- Alesatura -->
<g id="node10" class="node">
<title>Alesatura</title>
<polygon fill="#a9a9ff" stroke="black" points="270.5,-566 175.5,-566 175.5,-530 270.5,-530 270.5,-566"/>
<text text-anchor="middle" x="223" y="-544.3" font-family="Times,serif" font-size="14.00">Alesatura (13)</text>
</g>
<!-- Calibratura finale&#45;&gt;Alesatura -->
<g id="edge30" class="edge">
<title>Calibratura finale&#45;&gt;Alesatura</title>
<path fill="none" stroke="#000000" stroke-width="3" d="M155.54,-889.44C105.22,-881.16 46,-860.66 46,-810 46,-810 46,-810 46,-634 46,-581.61 109.8,-561.49 160.79,-553.77"/>
<polygon fill="#000000" stroke="#000000" stroke-width="3" points="161.15,-557.26 170.6,-552.47 160.23,-550.32 161.15,-557.26"/>
<text text-anchor="middle" x="49.5" y="-718.3" font-family="Times,serif" font-size="14.00">6</text>
</g>
<!-- Saldatura interna SAW -->
<g id="node19" class="node">
<title>Saldatura interna SAW</title>
<polygon fill="#a9a9ff" stroke="black" points="486,-827 318,-827 318,-791 486,-791 486,-827"/>
<text text-anchor="middle" x="402" y="-805.3" font-family="Times,serif" font-size="14.00">Saldatura interna SAW (13)</text>
</g>
<!-- Calibratura finale&#45;&gt;Saldatura interna SAW -->
<g id="edge22" class="edge">
<title>Calibratura finale&#45;&gt;Saldatura interna SAW</title>
<path fill="none" stroke="#ff0000" stroke-width="0.5" stroke-dasharray="5,2" d="M261.25,-877.59C288.69,-864.42 326.57,-846.22 356.13,-832.03"/>
<polygon fill="#ff0000" stroke="#ff0000" stroke-width="0.5" points="357.62,-835.19 365.12,-827.71 354.59,-828.88 357.62,-835.19"/>
<text text-anchor="middle" x="328.5" y="-848.8" font-family="Times,serif" font-size="14.00">1</text>
</g>
<!-- Molatura finale -->
<g id="node21" class="node">
<title>Molatura finale</title>
<polygon fill="#b0b0ff" stroke="black" points="211,-479 83,-479 83,-443 211,-443 211,-479"/>
<text text-anchor="middle" x="147" y="-457.3" font-family="Times,serif" font-size="14.00">Molatura finale (12)</text>
</g>
<!-- Calibratura finale&#45;&gt;Molatura finale -->
<g id="edge52" class="edge">
<title>Calibratura finale&#45;&gt;Molatura finale</title>
<path fill="none" stroke="#ff0000" stroke-width="0.5" stroke-dasharray="5,2" d="M155.62,-889.2C123.66,-884.44 86.02,-875.78 55,-860 25.55,-845.03 0,-843.04 0,-810 0,-810 0,-810 0,-547 0,-509.68 35.95,-488.48 72.29,-476.59"/>
<polygon fill="#ff0000" stroke="#ff0000" stroke-width="0.5" points="73.25,-479.96 81.8,-473.7 71.21,-473.26 73.25,-479.96"/>
<text text-anchor="middle" x="3.5" y="-674.8" font-family="Times,serif" font-size="14.00">1</text>
</g>
<!-- Sabbiatura -->
<g id="node8" class="node">
<title>Sabbiatura</title>
<polygon fill="#f7f7ff" stroke="black" points="263,-740 169,-740 169,-704 263,-704 263,-740"/>
<text text-anchor="middle" x="216" y="-718.3" font-family="Times,serif" font-size="14.00">Sabbiatura (2)</text>
</g>
<!-- Trattamento termico&#45;&gt;Sabbiatura -->
<g id="edge8" class="edge">
<title>Trattamento termico&#45;&gt;Sabbiatura</title>
<path fill="none" stroke="#ff0000" stroke-width="0.5" stroke-dasharray="5,2" d="M223.18,-790.8C221.97,-779.35 220.35,-764.06 218.95,-750.89"/>
<polygon fill="#ff0000" stroke="#ff0000" stroke-width="0.5" points="222.46,-750.8 217.93,-741.22 215.5,-751.53 222.46,-750.8"/>
<text text-anchor="middle" x="225.5" y="-761.8" font-family="Times,serif" font-size="14.00">1</text>
</g>
<!-- Sabbiatura&#45;&gt;Raggi X -->
<g id="edge9" class="edge">
<title>Sabbiatura&#45;&gt;Raggi X</title>
<path fill="none" stroke="#ff0000" stroke-width="0.5" stroke-dasharray="5,2" d="M214.31,-703.8C213.7,-694.12 213.48,-681.83 215,-671 215.35,-668.52 215.83,-665.97 216.39,-663.42"/>
<polygon fill="#ff0000" stroke="#ff0000" stroke-width="0.5" points="219.72,-664.53 218.85,-653.97 212.94,-662.77 219.72,-664.53"/>
<text text-anchor="middle" x="218.5" y="-674.8" font-family="Times,serif" font-size="14.00">1</text>
</g>
<!-- Sabbiatura&#45;&gt;Molatura finale -->
<g id="edge46" class="edge">
<title>Sabbiatura&#45;&gt;Molatura finale</title>
<path fill="none" stroke="#ff0000" stroke-width="0.5" stroke-dasharray="5,2" d="M201.33,-703.77C191.07,-690.71 177.98,-671.85 171,-653 150.5,-597.66 146.86,-527.8 146.58,-489.77"/>
<polygon fill="#ff0000" stroke="#ff0000" stroke-width="0.5" points="150.08,-490.24 146.58,-480.24 143.08,-490.24 150.08,-490.24"/>
<text text-anchor="middle" x="160.5" y="-587.8" font-family="Times,serif" font-size="14.00">1</text>
</g>
<!-- Raggi X&#45;&gt;Calibratura finale -->
<g id="edge29" class="edge">
<title>Raggi X&#45;&gt;Calibratura finale</title>
<path fill="none" stroke="#000000" stroke-width="2.5" d="M203.05,-653.34C188.65,-665.9 170.59,-684.1 160,-704 141.41,-738.94 145.25,-751.65 141,-791 139.28,-806.91 134.11,-812.56 141,-827 149.39,-844.58 164.78,-859.08 180.13,-870.11"/>
<polygon fill="#000000" stroke="#000000" stroke-width="2.5" points="177.79,-872.76 188.04,-875.42 181.69,-866.95 177.79,-872.76"/>
<text text-anchor="middle" x="147.5" y="-761.8" font-family="Times,serif" font-size="14.00">5</text>
</g>
<!-- Raggi X&#45;&gt;Sabbiatura -->
<g id="edge45" class="edge">
<title>Raggi X&#45;&gt;Sabbiatura</title>
<path fill="none" stroke="#ff0000" stroke-width="0.5" stroke-dasharray="5,2" d="M223.35,-653.13C222.4,-662.79 221.17,-675.07 220,-686 219.75,-688.32 219.49,-690.73 219.22,-693.15"/>
<polygon fill="#ff0000" stroke="#ff0000" stroke-width="0.5" points="215.77,-692.48 218.13,-702.81 222.73,-693.26 215.77,-692.48"/>
<text text-anchor="middle" x="225.5" y="-674.8" font-family="Times,serif" font-size="14.00">1</text>
</g>
<!-- Raggi X&#45;&gt;Raggi X -->
<g id="edge44" class="edge">
<title>Raggi X&#45;&gt;Raggi X</title>
<path fill="none" stroke="#ff0000" stroke-width="0.5" stroke-dasharray="5,2" d="M269.95,-642.96C280.08,-642.24 287.5,-639.59 287.5,-635 287.5,-632.2 284.75,-630.13 280.3,-628.77"/>
<polygon fill="#ff0000" stroke="#ff0000" stroke-width="0.5" points="281.13,-625.36 270.69,-627.17 279.98,-632.26 281.13,-625.36"/>
<text text-anchor="middle" x="291" y="-631.3" font-family="Times,serif" font-size="14.00">1</text>
</g>
<!-- Raggi X&#45;&gt;Alesatura -->
<g id="edge10" class="edge">
<title>Raggi X&#45;&gt;Alesatura</title>
<path fill="none" stroke="#000000" stroke-width="3.5" d="M224.6,-616.8C224.36,-606.73 224.05,-593.67 223.77,-581.72"/>
<polygon fill="#000000" stroke="#000000" stroke-width="3.5" points="227.27,-581.68 223.54,-571.76 220.27,-581.84 227.27,-581.68"/>
<text text-anchor="middle" x="228.5" y="-587.8" font-family="Times,serif" font-size="14.00">7</text>
</g>
<!-- Raggi X&#45;&gt;Molatura finale -->
<g id="edge50" class="edge">
<title>Raggi X&#45;&gt;Molatura finale</title>
<path fill="none" stroke="#ff0000" stroke-width="0.5" stroke-dasharray="5,2" d="M245.28,-616.67C267.28,-595.7 297.01,-559.53 279,-530 265.91,-508.53 243.62,-493.54 221.05,-483.22"/>
<polygon fill="#ff0000" stroke="#ff0000" stroke-width="0.5" points="222.65,-480.1 212.08,-479.38 219.9,-486.54 222.65,-480.1"/>
<text text-anchor="middle" x="288.5" y="-544.3" font-family="Times,serif" font-size="14.00">1</text>
</g>
<!-- Alesatura&#45;&gt;Raggi X -->
<g id="edge43" class="edge">
<title>Alesatura&#45;&gt;Raggi X</title>
<path fill="none" stroke="#000000" d="M216.46,-566.07C213.56,-575.71 211.17,-588 213,-599 213.39,-601.33 213.91,-603.71 214.52,-606.07"/>
<polygon fill="#000000" stroke="#000000" points="211.11,-606.88 217.41,-615.4 217.8,-604.81 211.11,-606.88"/>
<text text-anchor="middle" x="216.5" y="-587.8" font-family="Times,serif" font-size="14.00">2</text>
</g>
<!-- Passivazione decapaggio -->
<g id="node11" class="node">
<title>Passivazione decapaggio</title>
<polygon fill="#9b9bff" stroke="black" points="179,-392 1,-392 1,-356 179,-356 179,-392"/>
<text text-anchor="middle" x="90" y="-370.3" font-family="Times,serif" font-size="14.00">Passivazione decapaggio (15)</text>
</g>
<!-- Alesatura&#45;&gt;Passivazione decapaggio -->
<g id="edge11" class="edge">
<title>Alesatura&#45;&gt;Passivazione decapaggio</title>
<path fill="none" stroke="#000000" stroke-width="2" d="M227.48,-529.65C232.11,-507.68 236.57,-469.5 220,-443 207.18,-422.5 185.99,-407.85 164.4,-397.53"/>
<polygon fill="#000000" stroke="#000000" stroke-width="2" points="166.1,-394.46 155.53,-393.61 163.26,-400.86 166.1,-394.46"/>
<text text-anchor="middle" x="235.5" y="-457.3" font-family="Times,serif" font-size="14.00">4</text>
</g>
<!-- Alesatura&#45;&gt;Molatura finale -->
<g id="edge37" class="edge">
<title>Alesatura&#45;&gt;Molatura finale</title>
<path fill="none" stroke="#000000" stroke-width="3.5" d="M207.62,-529.8C197.59,-518.58 184.26,-503.67 172.65,-490.69"/>
<polygon fill="#000000" stroke="#000000" stroke-width="3.5" points="175.42,-488.54 166.15,-483.42 170.2,-493.2 175.42,-488.54"/>
<text text-anchor="middle" x="193.5" y="-500.8" font-family="Times,serif" font-size="14.00">7</text>
</g>
<!-- Passivazione decapaggio&#45;&gt;Passivazione decapaggio -->
<g id="edge12" class="edge">
<title>Passivazione decapaggio&#45;&gt;Passivazione decapaggio</title>
<path fill="none" stroke="#ff0000" stroke-width="0.5" stroke-dasharray="5,2" d="M179.37,-381.01C190.03,-379.73 197,-377.4 197,-374 197,-371.88 194.28,-370.17 189.63,-368.87"/>
<polygon fill="#ff0000" stroke="#ff0000" stroke-width="0.5" points="190.58,-365.49 180.11,-367.13 189.32,-372.37 190.58,-365.49"/>
<text text-anchor="middle" x="200.5" y="-370.3" font-family="Times,serif" font-size="14.00">1</text>
</g>
<!-- Marcatura -->
<g id="node12" class="node">
<title>Marcatura</title>
<polygon fill="#a2a2ff" stroke="black" points="214.5,-305 115.5,-305 115.5,-269 214.5,-269 214.5,-305"/>
<text text-anchor="middle" x="165" y="-283.3" font-family="Times,serif" font-size="14.00">Marcatura (14)</text>
</g>
<!-- Passivazione decapaggio&#45;&gt;Marcatura -->
<g id="edge13" class="edge">
<title>Passivazione decapaggio&#45;&gt;Marcatura</title>
<path fill="none" stroke="#000000" stroke-width="6" d="M105.18,-355.8C114.87,-344.81 127.7,-330.28 138.98,-317.48"/>
<polygon fill="#000000" stroke="#000000" stroke-width="6" points="142.64,-321.28 145.32,-310.31 134.76,-314.33 142.64,-321.28"/>
<text text-anchor="middle" x="139" y="-326.8" font-family="Times,serif" font-size="14.00">12</text>
</g>
<!-- Passivazione decapaggio&#45;&gt;Molatura finale -->
<g id="edge31" class="edge">
<title>Passivazione decapaggio&#45;&gt;Molatura finale</title>
<path fill="none" stroke="#000000" d="M89.53,-392.35C90.01,-402.54 91.98,-415.28 98,-425 100.32,-428.74 103.2,-432.2 106.4,-435.37"/>
<polygon fill="#000000" stroke="#000000" points="103.84,-437.78 113.7,-441.65 108.4,-432.47 103.84,-437.78"/>
<text text-anchor="middle" x="101.5" y="-413.8" font-family="Times,serif" font-size="14.00">2</text>
</g>
<!-- Collaudo -->
<g id="node13" class="node">
<title>Collaudo</title>
<polygon fill="#a2a2ff" stroke="black" points="211,-131 119,-131 119,-95 211,-95 211,-131"/>
<text text-anchor="middle" x="165" y="-109.3" font-family="Times,serif" font-size="14.00">Collaudo (14)</text>
</g>
<!-- Marcatura&#45;&gt;Collaudo -->
<g id="edge14" class="edge">
<title>Marcatura&#45;&gt;Collaudo</title>
<path fill="none" stroke="#000000" stroke-width="5.5" d="M162.73,-268.71C161.04,-254.99 158.89,-235.3 158,-218 157.18,-202.02 157.18,-197.98 158,-182 158.58,-170.64 159.71,-158.26 160.89,-147.22"/>
<polygon fill="#000000" stroke="#000000" stroke-width="5.5" points="165.64,-148.08 162,-137.59 156.08,-146.97 165.64,-148.08"/>
<text text-anchor="middle" x="165" y="-196.3" font-family="Times,serif" font-size="14.00">11</text>
</g>
<!-- NC da riparare -->
<g id="node22" class="node">
<title>NC da riparare</title>
<polygon fill="#f0f0ff" stroke="black" points="298.5,-218 181.5,-218 181.5,-182 298.5,-182 298.5,-218"/>
<text text-anchor="middle" x="240" y="-196.3" font-family="Times,serif" font-size="14.00">NC da riparare (3)</text>
</g>
<!-- Marcatura&#45;&gt;NC da riparare -->
<g id="edge33" class="edge">
<title>Marcatura&#45;&gt;NC da riparare</title>
<path fill="none" stroke="#000000" stroke-width="1.5" d="M180.18,-268.8C190.68,-256.9 204.86,-240.83 216.77,-227.32"/>
<polygon fill="#000000" stroke="#000000" stroke-width="1.5" points="219.09,-229.98 223.09,-220.17 213.85,-225.35 219.09,-229.98"/>
<text text-anchor="middle" x="210.5" y="-239.8" font-family="Times,serif" font-size="14.00">3</text>
</g>
<!-- end_node -->
<g id="node24" class="node">
<title>end_node</title>
<ellipse fill="none" stroke="black" cx="165" cy="-22" rx="18" ry="18"/>
<ellipse fill="none" stroke="black" cx="165" cy="-22" rx="22" ry="22"/>
<text text-anchor="start" x="160.5" y="-18.3" font-family="Times,serif" font-size="14.00">■</text>
</g>
<!-- Collaudo&#45;&gt;end_node -->
<g id="edge54" class="edge">
<title>Collaudo&#45;&gt;end_node</title>
<path fill="none" stroke="#000000" stroke-width="7" d="M165,-94.84C165,-85.13 165,-72.59 165,-60.72"/>
<polygon fill="#000000" stroke="#000000" stroke-width="7" points="171.13,-60.89 165,-50.89 158.88,-60.89 171.13,-60.89"/>
<text text-anchor="middle" x="172" y="-65.8" font-family="Times,serif" font-size="14.00">14</text>
</g>
<!-- Sald. in piano esterna -->
<g id="node15" class="node">
<title>Sald. in piano esterna</title>
<polygon fill="#ffffff" stroke="black" points="859,-1142 705,-1142 705,-1106 859,-1106 859,-1142"/>
<text text-anchor="middle" x="782" y="-1120.3" font-family="Times,serif" font-size="14.00">Sald. in piano esterna (1)</text>
</g>
<!-- Puntatura in piano lamiere&#45;&gt;Sald. in piano esterna -->
<g id="edge17" class="edge">
<title>Puntatura in piano lamiere&#45;&gt;Sald. in piano esterna</title>
<path fill="none" stroke="#ff0000" stroke-width="0.5" stroke-dasharray="5,2" d="M772.37,-1246.68C774.23,-1223.14 777.59,-1180.78 779.8,-1152.78"/>
<polygon fill="#ff0000" stroke="#ff0000" stroke-width="0.5" points="783.29,-1153.1 780.59,-1142.86 776.31,-1152.55 783.29,-1153.1"/>
<text text-anchor="middle" x="777.5" y="-1217.8" font-family="Times,serif" font-size="14.00">1</text>
</g>
<!-- Sald. in piano esterna&#45;&gt;Puntatura -->
<g id="edge18" class="edge">
<title>Sald. in piano esterna&#45;&gt;Puntatura</title>
<path fill="none" stroke="#ff0000" stroke-width="0.5" stroke-dasharray="5,2" d="M775.62,-1105.91C763.28,-1074.74 733.59,-1007.92 691,-965 672.31,-946.16 647.34,-930.65 625.36,-919.22"/>
<polygon fill="#ff0000" stroke="#ff0000" stroke-width="0.5" points="627.01,-916.13 616.51,-914.75 623.86,-922.38 627.01,-916.13"/>
<text text-anchor="middle" x="743.5" y="-1022.8" font-family="Times,serif" font-size="14.00">1</text>
</g>
<!-- Sald. in piano interna -->
<g id="node17" class="node">
<title>Sald. in piano interna</title>
<polygon fill="#ffffff" stroke="black" points="743.5,-827 590.5,-827 590.5,-791 743.5,-791 743.5,-827"/>
<text text-anchor="middle" x="667" y="-805.3" font-family="Times,serif" font-size="14.00">Sald. in piano interna (1)</text>
</g>
<!-- Puntatura&#45;&gt;Sald. in piano interna -->
<g id="edge19" class="edge">
<title>Puntatura&#45;&gt;Sald. in piano interna</title>
<path fill="none" stroke="#ff0000" stroke-width="0.5" stroke-dasharray="5,2" d="M593.62,-877.8C607.12,-865.32 625.57,-848.28 640.6,-834.4"/>
<polygon fill="#ff0000" stroke="#ff0000" stroke-width="0.5" points="642.57,-837.34 647.54,-827.98 637.82,-832.2 642.57,-837.34"/>
<text text-anchor="middle" x="629.5" y="-848.8" font-family="Times,serif" font-size="14.00">1</text>
</g>
<!-- Puntatura&#45;&gt;Saldatura interna SAW -->
<g id="edge28" class="edge">
<title>Puntatura&#45;&gt;Saldatura interna SAW</title>
<path fill="none" stroke="#000000" stroke-width="3.5" d="M539.57,-877.59C514.03,-865.05 479.24,-847.95 451.03,-834.09"/>
<polygon fill="#000000" stroke="#000000" stroke-width="3.5" points="452.65,-830.99 442.13,-829.72 449.57,-837.27 452.65,-830.99"/>
<text text-anchor="middle" x="501.5" y="-848.8" font-family="Times,serif" font-size="14.00">7</text>
</g>
<!-- Saldatura esterna SAW -->
<g id="node23" class="node">
<title>Saldatura esterna SAW</title>
<polygon fill="#e2e2ff" stroke="black" points="583,-740 421,-740 421,-704 583,-704 583,-740"/>
<text text-anchor="middle" x="502" y="-718.3" font-family="Times,serif" font-size="14.00">Saldatura esterna SAW (5)</text>
</g>
<!-- Puntatura&#45;&gt;Saldatura esterna SAW -->
<g id="edge41" class="edge">
<title>Puntatura&#45;&gt;Saldatura esterna SAW</title>
<path fill="none" stroke="#000000" stroke-width="2" d="M572.88,-877.93C568.96,-850.93 558.77,-797.39 536,-758 534.46,-755.34 532.68,-752.73 530.75,-750.21"/>
<polygon fill="#000000" stroke="#000000" stroke-width="2" points="533.44,-747.98 524.23,-742.74 528.17,-752.58 533.44,-747.98"/>
<text text-anchor="middle" x="565.5" y="-805.3" font-family="Times,serif" font-size="14.00">4</text>
</g>
<!-- SERIALI -->
<g id="node18" class="node">
<title>SERIALI</title>
<polygon fill="#ffffff" stroke="black" points="784,-740 696,-740 696,-704 784,-704 784,-740"/>
<text text-anchor="middle" x="740" y="-718.3" font-family="Times,serif" font-size="14.00">SERIALI (1)</text>
</g>
<!-- Sald. in piano interna&#45;&gt;SERIALI -->
<g id="edge20" class="edge">
<title>Sald. in piano interna&#45;&gt;SERIALI</title>
<path fill="none" stroke="#ff0000" stroke-width="0.5" stroke-dasharray="5,2" d="M681.77,-790.8C692.19,-778.67 706.33,-762.21 718.06,-748.55"/>
<polygon fill="#ff0000" stroke="#ff0000" stroke-width="0.5" points="720.65,-750.91 724.51,-741.04 715.34,-746.35 720.65,-750.91"/>
<text text-anchor="middle" x="710.5" y="-761.8" font-family="Times,serif" font-size="14.00">1</text>
</g>
<!-- SERIALI&#45;&gt;Molatura intermedia -->
<g id="edge21" class="edge">
<title>SERIALI&#45;&gt;Molatura intermedia</title>
<path fill="none" stroke="#ff0000" stroke-width="0.5" stroke-dasharray="5,2" d="M747.19,-740.24C754.92,-761.43 764.62,-798.14 753,-827 730.09,-883.9 675.2,-931.62 638.82,-958.49"/>
<polygon fill="#ff0000" stroke="#ff0000" stroke-width="0.5" points="637.12,-955.41 631.07,-964.11 641.22,-961.08 637.12,-955.41"/>
<text text-anchor="middle" x="747.5" y="-848.8" font-family="Times,serif" font-size="14.00">1</text>
</g>
<!-- Saldatura interna SAW&#45;&gt;Calibratura finale -->
<g id="edge35" class="edge">
<title>Saldatura interna SAW&#45;&gt;Calibratura finale</title>
<path fill="none" stroke="#000000" stroke-width="3" d="M382.7,-827.46C370.14,-838.07 352.99,-851.22 336,-860 326.81,-864.75 316.85,-869 306.8,-872.76"/>
<polygon fill="#000000" stroke="#000000" stroke-width="3" points="305.65,-869.45 297.38,-876.08 307.98,-876.06 305.65,-869.45"/>
<text text-anchor="middle" x="363.5" y="-848.8" font-family="Times,serif" font-size="14.00">6</text>
</g>
<!-- Saldatura interna SAW&#45;&gt;Raggi X -->
<g id="edge23" class="edge">
<title>Saldatura interna SAW&#45;&gt;Raggi X</title>
<path fill="none" stroke="#000000" stroke-width="3" d="M384.05,-790.56C353.18,-760.56 289.79,-698.96 253.04,-663.25"/>
<polygon fill="#000000" stroke="#000000" stroke-width="3" points="255.86,-661.11 246.25,-656.65 250.98,-666.13 255.86,-661.11"/>
<text text-anchor="middle" x="335.5" y="-718.3" font-family="Times,serif" font-size="14.00">6</text>
</g>
<!-- Saldatura interna SAW&#45;&gt;Saldatura esterna SAW -->
<g id="edge48" class="edge">
<title>Saldatura interna SAW&#45;&gt;Saldatura esterna SAW</title>
<path fill="none" stroke="#ff0000" stroke-width="0.5" stroke-dasharray="5,2" d="M410.94,-790.68C416.96,-780.25 425.68,-767.25 436,-758 440.94,-753.57 446.55,-749.51 452.36,-745.85"/>
<polygon fill="#ff0000" stroke="#ff0000" stroke-width="0.5" points="454.07,-748.91 460.92,-740.82 450.53,-742.87 454.07,-748.91"/>
<text text-anchor="middle" x="439.5" y="-761.8" font-family="Times,serif" font-size="14.00">1</text>
</g>
<!-- Formatura Calandra&#45;&gt;Molatura intermedia -->
<g id="edge26" class="edge">
<title>Formatura Calandra&#45;&gt;Molatura intermedia</title>
<path fill="none" stroke="#000000" stroke-width="4" d="M521.84,-1051.8C535.85,-1040.24 554.62,-1024.75 570.68,-1011.5"/>
<polygon fill="#000000" stroke="#000000" stroke-width="4" points="572.68,-1014.39 578.16,-1005.32 568.22,-1008.99 572.68,-1014.39"/>
<text text-anchor="middle" x="561.5" y="-1022.8" font-family="Times,serif" font-size="14.00">8</text>
</g>
<!-- Formatura Calandra&#45;&gt;Puntatura -->
<g id="edge51" class="edge">
<title>Formatura Calandra&#45;&gt;Puntatura</title>
<path fill="none" stroke="#000000" stroke-width="1.5" d="M498.03,-1051.76C494.21,-1024.05 490.7,-968.96 515,-932 517.46,-928.25 520.48,-924.86 523.83,-921.79"/>
<polygon fill="#000000" stroke="#000000" stroke-width="1.5" points="525.79,-924.69 531.56,-915.8 521.51,-919.16 525.79,-924.69"/>
<text text-anchor="middle" x="503.5" y="-979.3" font-family="Times,serif" font-size="14.00">3</text>
</g>
<!-- Formatura Calandra&#45;&gt;Saldatura interna SAW -->
<g id="edge53" class="edge">
<title>Formatura Calandra&#45;&gt;Saldatura interna SAW</title>
<path fill="none" stroke="#ff0000" stroke-width="0.5" stroke-dasharray="5,2" d="M494.35,-1051.6C477.44,-1007.37 432.71,-890.34 412.35,-837.08"/>
<polygon fill="#ff0000" stroke="#ff0000" stroke-width="0.5" points="415.73,-836.12 408.89,-828.03 409.19,-838.62 415.73,-836.12"/>
<text text-anchor="middle" x="457.5" y="-935.8" font-family="Times,serif" font-size="14.00">1</text>
</g>
<!-- Molatura finale&#45;&gt;Passivazione decapaggio -->
<g id="edge38" class="edge">
<title>Molatura finale&#45;&gt;Passivazione decapaggio</title>
<path fill="none" stroke="#000000" stroke-width="5" d="M135.47,-442.8C128.33,-432.15 118.96,-418.18 110.58,-405.69"/>
<polygon fill="#000000" stroke="#000000" stroke-width="5" points="114.39,-403.52 105.19,-397.65 107.12,-408.39 114.39,-403.52"/>
<text text-anchor="middle" x="129" y="-413.8" font-family="Times,serif" font-size="14.00">10</text>
</g>
<!-- Molatura finale&#45;&gt;Marcatura -->
<g id="edge32" class="edge">
<title>Molatura finale&#45;&gt;Marcatura</title>
<path fill="none" stroke="#000000" d="M171.7,-442.58C186.76,-430.37 204.65,-412.58 213,-392 223.94,-365.03 206.68,-334.91 189.9,-314.05"/>
<polygon fill="#000000" stroke="#000000" points="192.69,-311.94 183.55,-306.6 187.36,-316.48 192.69,-311.94"/>
<text text-anchor="middle" x="220.5" y="-370.3" font-family="Times,serif" font-size="14.00">2</text>
</g>
<!-- NC da riparare&#45;&gt;Collaudo -->
<g id="edge34" class="edge">
<title>NC da riparare&#45;&gt;Collaudo</title>
<path fill="none" stroke="#000000" stroke-width="1.5" d="M224.82,-181.8C214.32,-169.9 200.14,-153.83 188.23,-140.32"/>
<polygon fill="#000000" stroke="#000000" stroke-width="1.5" points="191.15,-138.35 181.91,-133.17 185.91,-142.98 191.15,-138.35"/>
<text text-anchor="middle" x="210.5" y="-152.8" font-family="Times,serif" font-size="14.00">3</text>
</g>
<!-- Saldatura esterna SAW&#45;&gt;Calibratura finale -->
<g id="edge49" class="edge">
<title>Saldatura esterna SAW&#45;&gt;Calibratura finale</title>
<path fill="none" stroke="#ff0000" stroke-width="0.5" stroke-dasharray="5,2" d="M506.39,-740.3C511.01,-762.93 515.13,-802.55 495,-827 470.95,-856.21 375.34,-875.12 304.69,-885.41"/>
<polygon fill="#ff0000" stroke="#ff0000" stroke-width="0.5" points="304.62,-881.89 295.21,-886.76 305.6,-888.82 304.62,-881.89"/>
<text text-anchor="middle" x="512.5" y="-805.3" font-family="Times,serif" font-size="14.00">1</text>
</g>
<!-- Saldatura esterna SAW&#45;&gt;Saldatura interna SAW -->
<g id="edge42" class="edge">
<title>Saldatura esterna SAW&#45;&gt;Saldatura interna SAW</title>
<path fill="none" stroke="#000000" stroke-width="2" d="M481.45,-740.47C467.24,-752.55 448.1,-768.82 432.16,-782.36"/>
<polygon fill="#000000" stroke="#000000" stroke-width="2" points="429.9,-779.7 424.54,-788.84 434.43,-785.03 429.9,-779.7"/>
<text text-anchor="middle" x="461.5" y="-761.8" font-family="Times,serif" font-size="14.00">4</text>
</g>
</g>
</svg>
