<?xml version="1.0" encoding="UTF-8" standalone="no"?>
<!DOCTYPE svg PUBLIC "-//W3C//DTD SVG 1.1//EN"
 "http://www.w3.org/Graphics/SVG/1.1/DTD/svg11.dtd">
<!-- Generated by graphviz version 7.0.5 (0)
 -->
<!-- Title: dfg Pages: 1 -->
<svg width="1016pt" height="748pt"
 viewBox="0.00 0.00 1016.00 748.00" xmlns="http://www.w3.org/2000/svg" xmlns:xlink="http://www.w3.org/1999/xlink">
<g id="graph0" class="graph" transform="scale(1 1) rotate(0) translate(4 744)">
<title>dfg</title>
<polygon fill="white" stroke="none" points="-4,4 -4,-744 1012,-744 1012,4 -4,4"/>
<!-- start_node -->
<g id="node1" class="node">
<title>start_node</title>
<ellipse fill="none" stroke="black" cx="558" cy="-722" rx="18" ry="18"/>
<text text-anchor="start" x="553.5" y="-718.3" font-family="Times,serif" font-size="14.00">●</text>
</g>
<!-- Vendor creates invoice -->
<g id="node2" class="node">
<title>Vendor creates invoice</title>
<polygon fill="#cbcbff" stroke="black" points="644.5,-653 471.5,-653 471.5,-617 644.5,-617 644.5,-653"/>
<text text-anchor="middle" x="558" y="-631.3" font-family="Times,serif" font-size="14.00">Vendor creates invoice (105)</text>
</g>
<!-- start_node&#45;&gt;Vendor creates invoice -->
<g id="edge1" class="edge">
<title>start_node&#45;&gt;Vendor creates invoice</title>
<path fill="none" stroke="#ff0000" stroke-width="0.5" stroke-dasharray="5,2" d="M558,-703.8C558,-692.35 558,-677.06 558,-663.89"/>
<polygon fill="#ff0000" stroke="#ff0000" stroke-width="0.5" points="561.5,-664.22 558,-654.22 554.5,-664.22 561.5,-664.22"/>
<text text-anchor="middle" x="561.5" y="-674.8" font-family="Times,serif" font-size="14.00">1</text>
</g>
<!-- Vendor creates invoice&#45;&gt;Vendor creates invoice -->
<g id="edge2" class="edge">
<title>Vendor creates invoice&#45;&gt;Vendor creates invoice</title>
<path fill="none" stroke="#000000" stroke-width="1.45" d="M644.89,-642.06C655.53,-640.79 662.5,-638.44 662.5,-635 662.5,-633.12 660.41,-631.56 656.78,-630.33"/>
<polygon fill="#000000" stroke="#000000" stroke-width="1.45" points="657.53,-626.91 647.04,-628.38 656.15,-633.78 657.53,-626.91"/>
<text text-anchor="middle" x="669.5" y="-631.3" font-family="Times,serif" font-size="14.00">29</text>
</g>
<!-- Create Purchase Order Item -->
<g id="node3" class="node">
<title>Create Purchase Order Item</title>
<polygon fill="#ffffff" stroke="black" points="188,-566 0,-566 0,-530 188,-530 188,-566"/>
<text text-anchor="middle" x="94" y="-544.3" font-family="Times,serif" font-size="14.00">Create Purchase Order Item (1)</text>
</g>
<!-- Vendor creates invoice&#45;&gt;Create Purchase Order Item -->
<g id="edge3" class="edge">
<title>Vendor creates invoice&#45;&gt;Create Purchase Order Item</title>
<path fill="none" stroke="#ff0000" stroke-width="0.5" stroke-dasharray="5,2" d="M471.29,-634.4C396.71,-632.69 286.93,-625.23 195,-599 172.89,-592.69 149.8,-581.64 131.28,-571.53"/>
<polygon fill="#ff0000" stroke="#ff0000" stroke-width="0.5" points="133.14,-568.56 122.7,-566.72 129.72,-574.66 133.14,-568.56"/>
<text text-anchor="middle" x="198.5" y="-587.8" font-family="Times,serif" font-size="14.00">1</text>
</g>
<!-- Record Goods Receipt -->
<g id="node4" class="node">
<title>Record Goods Receipt</title>
<polygon fill="#afafff" stroke="black" points="708.5,-479 535.5,-479 535.5,-443 708.5,-443 708.5,-479"/>
<text text-anchor="middle" x="622" y="-457.3" font-family="Times,serif" font-size="14.00">Record Goods Receipt (163)</text>
</g>
<!-- Vendor creates invoice&#45;&gt;Record Goods Receipt -->
<g id="edge5" class="edge">
<title>Vendor creates invoice&#45;&gt;Record Goods Receipt</title>
<path fill="none" stroke="#000000" stroke-width="1.28" d="M587.51,-616.61C604.55,-604.75 624.46,-587.34 634,-566 644.7,-542.06 639.53,-512.07 632.98,-490.45"/>
<polygon fill="#000000" stroke="#000000" stroke-width="1.28" points="636.39,-489.61 629.9,-481.24 629.75,-491.83 636.39,-489.61"/>
<text text-anchor="middle" x="647" y="-544.3" font-family="Times,serif" font-size="14.00">24</text>
</g>
<!-- Vendor creates debit memo -->
<g id="node6" class="node">
<title>Vendor creates debit memo</title>
<polygon fill="#f7f7ff" stroke="black" points="624.5,-566 431.5,-566 431.5,-530 624.5,-530 624.5,-566"/>
<text text-anchor="middle" x="528" y="-544.3" font-family="Times,serif" font-size="14.00">Vendor creates debit memo (16)</text>
</g>
<!-- Vendor creates invoice&#45;&gt;Vendor creates debit memo -->
<g id="edge8" class="edge">
<title>Vendor creates invoice&#45;&gt;Vendor creates debit memo</title>
<path fill="none" stroke="#000000" stroke-width="1.01" d="M551.93,-616.8C547.93,-605.47 542.6,-590.36 537.98,-577.29"/>
<polygon fill="#000000" stroke="#000000" stroke-width="1.01" points="541.3,-576.17 534.67,-567.91 534.7,-578.5 541.3,-576.17"/>
<text text-anchor="middle" x="551" y="-587.8" font-family="Times,serif" font-size="14.00">16</text>
</g>
<!-- Record Invoice Receipt -->
<g id="node7" class="node">
<title>Record Invoice Receipt</title>
<polygon fill="#9b9bff" stroke="black" points="503,-218 325,-218 325,-182 503,-182 503,-218"/>
<text text-anchor="middle" x="414" y="-196.3" font-family="Times,serif" font-size="14.00">Record Invoice Receipt (204)</text>
</g>
<!-- Vendor creates invoice&#45;&gt;Record Invoice Receipt -->
<g id="edge15" class="edge">
<title>Vendor creates invoice&#45;&gt;Record Invoice Receipt</title>
<path fill="none" stroke="#000000" stroke-width="1.31" d="M471.29,-626.69C381.44,-616.66 254,-594.42 254,-549 254,-549 254,-549 254,-286 254,-252.65 281.44,-232.35 313.59,-220"/>
<polygon fill="#000000" stroke="#000000" stroke-width="1.31" points="314.5,-223.4 322.77,-216.77 312.17,-216.79 314.5,-223.4"/>
<text text-anchor="middle" x="261" y="-413.8" font-family="Times,serif" font-size="14.00">25</text>
</g>
<!-- Clear Invoice -->
<g id="node8" class="node">
<title>Clear Invoice</title>
<polygon fill="#e5e5ff" stroke="black" points="856,-127 740,-127 740,-91 856,-91 856,-127"/>
<text text-anchor="middle" x="798" y="-105.3" font-family="Times,serif" font-size="14.00">Clear Invoice (53)</text>
</g>
<!-- Vendor creates invoice&#45;&gt;Clear Invoice -->
<g id="edge19" class="edge">
<title>Vendor creates invoice&#45;&gt;Clear Invoice</title>
<path fill="none" stroke="#ff0000" stroke-width="0.67" stroke-dasharray="5,2" d="M644.6,-627.97C739.37,-618.93 878,-597.43 878,-549 878,-549 878,-549 878,-199 878,-171.91 857.25,-149.33 836.89,-133.69"/>
<polygon fill="#ff0000" stroke="#ff0000" stroke-width="0.67" points="839.21,-131.06 829.07,-128.02 835.1,-136.72 839.21,-131.06"/>
<text text-anchor="middle" x="881.5" y="-370.3" font-family="Times,serif" font-size="14.00">6</text>
</g>
<!-- Cancel Invoice Receipt -->
<g id="node9" class="node">
<title>Cancel Invoice Receipt</title>
<polygon fill="#f4f4ff" stroke="black" points="840,-36 670,-36 670,0 840,0 840,-36"/>
<text text-anchor="middle" x="755" y="-14.3" font-family="Times,serif" font-size="14.00">Cancel Invoice Receipt (22)</text>
</g>
<!-- Vendor creates invoice&#45;&gt;Cancel Invoice Receipt -->
<g id="edge26" class="edge">
<title>Vendor creates invoice&#45;&gt;Cancel Invoice Receipt</title>
<path fill="none" stroke="#ff0000" stroke-width="0.6" stroke-dasharray="5,2" d="M644.97,-632.34C735.06,-629.41 868.99,-621.33 915,-599 942.71,-585.55 963,-579.8 963,-549 963,-549 963,-549 963,-108 963,-55.05 905.32,-33.19 850.71,-24.35"/>
<polygon fill="#ff0000" stroke="#ff0000" stroke-width="0.6" points="851.51,-20.93 841.1,-22.93 850.48,-27.86 851.51,-20.93"/>
<text text-anchor="middle" x="966.5" y="-326.8" font-family="Times,serif" font-size="14.00">4</text>
</g>
<!-- Create Purchase Order Item&#45;&gt;Vendor creates invoice -->
<g id="edge4" class="edge">
<title>Create Purchase Order Item&#45;&gt;Vendor creates invoice</title>
<path fill="none" stroke="#ff0000" stroke-width="0.5" stroke-dasharray="5,2" d="M106.83,-566.04C116.5,-577.49 130.83,-591.77 147,-599 201.11,-623.21 357.14,-630.74 460.62,-633.04"/>
<polygon fill="#ff0000" stroke="#ff0000" stroke-width="0.5" points="460.27,-636.54 470.34,-633.25 460.41,-629.54 460.27,-636.54"/>
<text text-anchor="middle" x="150.5" y="-587.8" font-family="Times,serif" font-size="14.00">1</text>
</g>
<!-- Record Service Entry Sheet -->
<g id="node5" class="node">
<title>Record Service Entry Sheet</title>
<polygon fill="#afafff" stroke="black" points="766,-392 566,-392 566,-356 766,-356 766,-392"/>
<text text-anchor="middle" x="666" y="-370.3" font-family="Times,serif" font-size="14.00">Record Service Entry Sheet (163)</text>
</g>
<!-- Record Goods Receipt&#45;&gt;Record Service Entry Sheet -->
<g id="edge6" class="edge">
<title>Record Goods Receipt&#45;&gt;Record Service Entry Sheet</title>
<path fill="none" stroke="#000000" stroke-width="6" d="M618.89,-442.96C617.87,-432.88 618.05,-420.14 623,-410 623.93,-408.1 625.01,-406.27 626.21,-404.51"/>
<polygon fill="#000000" stroke="#000000" stroke-width="6" points="630.04,-408.11 632.95,-397.19 622.31,-401 630.04,-408.11"/>
<text text-anchor="middle" x="633.5" y="-413.8" font-family="Times,serif" font-size="14.00">163</text>
</g>
<!-- Record Service Entry Sheet&#45;&gt;Vendor creates invoice -->
<g id="edge7" class="edge">
<title>Record Service Entry Sheet&#45;&gt;Vendor creates invoice</title>
<path fill="none" stroke="#000000" stroke-width="1.31" d="M712.89,-392.41C768.2,-415.75 848.74,-460.3 816,-512 780.96,-567.33 713.32,-598.05 656.08,-614.82"/>
<polygon fill="#000000" stroke="#000000" stroke-width="1.31" points="655.38,-611.38 646.7,-617.45 657.28,-618.12 655.38,-611.38"/>
<text text-anchor="middle" x="829" y="-500.8" font-family="Times,serif" font-size="14.00">25</text>
</g>
<!-- Record Service Entry Sheet&#45;&gt;Record Goods Receipt -->
<g id="edge12" class="edge">
<title>Record Service Entry Sheet&#45;&gt;Record Goods Receipt</title>
<path fill="none" stroke="#000000" stroke-width="4.2" d="M659.08,-392.42C655.02,-402.17 649.6,-414.44 644,-425 643.26,-426.4 642.48,-427.81 641.68,-429.23"/>
<polygon fill="#000000" stroke="#000000" stroke-width="4.2" points="638.63,-427.17 636.62,-437.64 644.93,-430.97 638.63,-427.17"/>
<text text-anchor="middle" x="661.5" y="-413.8" font-family="Times,serif" font-size="14.00">110</text>
</g>
<!-- Record Service Entry Sheet&#45;&gt;Record Invoice Receipt -->
<g id="edge13" class="edge">
<title>Record Service Entry Sheet&#45;&gt;Record Invoice Receipt</title>
<path fill="none" stroke="#000000" stroke-width="1.11" d="M653.85,-355.78C638.27,-334.27 609.79,-296.92 581,-269 563.71,-252.23 559.53,-246.8 538,-236 527.28,-230.63 515.62,-225.97 503.87,-221.96"/>
<polygon fill="#000000" stroke="#000000" stroke-width="1.11" points="505.28,-218.74 494.69,-218.98 503.12,-225.4 505.28,-218.74"/>
<text text-anchor="middle" x="620" y="-283.3" font-family="Times,serif" font-size="14.00">19</text>
</g>
<!-- Record Service Entry Sheet&#45;&gt;Clear Invoice -->
<g id="edge39" class="edge">
<title>Record Service Entry Sheet&#45;&gt;Clear Invoice</title>
<path fill="none" stroke="#ff0000" stroke-width="0.5" stroke-dasharray="5,2" d="M704.19,-355.52C711.59,-350.72 718.68,-344.89 724,-338 777.57,-268.68 749.12,-230.99 780,-149 781.5,-145.03 783.21,-140.9 784.98,-136.88"/>
<polygon fill="#ff0000" stroke="#ff0000" stroke-width="0.5" points="788.1,-138.48 789.07,-127.93 781.73,-135.57 788.1,-138.48"/>
<text text-anchor="middle" x="764.5" y="-239.8" font-family="Times,serif" font-size="14.00">1</text>
</g>
<!-- Record Service Entry Sheet&#45;&gt;Cancel Invoice Receipt -->
<g id="edge37" class="edge">
<title>Record Service Entry Sheet&#45;&gt;Cancel Invoice Receipt</title>
<path fill="none" stroke="#ff0000" stroke-width="0.5" stroke-dasharray="5,2" d="M669.2,-355.74C677.65,-310.95 701.94,-187.52 731,-87 734.9,-73.51 739.99,-58.79 744.48,-46.51"/>
<polygon fill="#ff0000" stroke="#ff0000" stroke-width="0.5" points="747.75,-47.73 747.96,-37.14 741.19,-45.29 747.75,-47.73"/>
<text text-anchor="middle" x="708.5" y="-196.3" font-family="Times,serif" font-size="14.00">1</text>
</g>
<!-- Remove Payment Block -->
<g id="node10" class="node">
<title>Remove Payment Block</title>
<polygon fill="#fafaff" stroke="black" points="496,-305 320,-305 320,-269 496,-269 496,-305"/>
<text text-anchor="middle" x="408" y="-283.3" font-family="Times,serif" font-size="14.00">Remove Payment Block (11)</text>
</g>
<!-- Record Service Entry Sheet&#45;&gt;Remove Payment Block -->
<g id="edge30" class="edge">
<title>Record Service Entry Sheet&#45;&gt;Remove Payment Block</title>
<path fill="none" stroke="#ff0000" stroke-width="0.5" stroke-dasharray="5,2" d="M615.75,-355.6C587.39,-345.85 551.28,-333.58 519,-323 504.57,-318.27 489.04,-313.3 474.31,-308.64"/>
<polygon fill="#ff0000" stroke="#ff0000" stroke-width="0.5" points="475.57,-305.37 464.98,-305.7 473.47,-312.05 475.57,-305.37"/>
<text text-anchor="middle" x="566.5" y="-326.8" font-family="Times,serif" font-size="14.00">1</text>
</g>
<!-- Change Price -->
<g id="node11" class="node">
<title>Change Price</title>
<polygon fill="#fcfcff" stroke="black" points="637.5,-127 528.5,-127 528.5,-91 637.5,-91 637.5,-127"/>
<text text-anchor="middle" x="583" y="-105.3" font-family="Times,serif" font-size="14.00">Change Price (7)</text>
</g>
<!-- Record Service Entry Sheet&#45;&gt;Change Price -->
<g id="edge31" class="edge">
<title>Record Service Entry Sheet&#45;&gt;Change Price</title>
<path fill="none" stroke="#ff0000" stroke-width="0.67" stroke-dasharray="5,2" d="M660.55,-355.74C646.48,-311.16 608.83,-191.84 591.7,-137.57"/>
<polygon fill="#ff0000" stroke="#ff0000" stroke-width="0.67" points="595.12,-136.77 588.77,-128.29 588.44,-138.88 595.12,-136.77"/>
<text text-anchor="middle" x="630.5" y="-239.8" font-family="Times,serif" font-size="14.00">6</text>
</g>
<!-- Vendor creates debit memo&#45;&gt;Vendor creates invoice -->
<g id="edge28" class="edge">
<title>Vendor creates debit memo&#45;&gt;Vendor creates invoice</title>
<path fill="none" stroke="#ff0000" stroke-width="0.5" stroke-dasharray="5,2" d="M526.57,-566.18C526.34,-576.08 527.09,-588.58 531,-599 532.15,-602.06 533.66,-605.08 535.39,-607.97"/>
<polygon fill="#ff0000" stroke="#ff0000" stroke-width="0.5" points="532.45,-609.87 541.01,-616.11 538.21,-605.89 532.45,-609.87"/>
<text text-anchor="middle" x="534.5" y="-587.8" font-family="Times,serif" font-size="14.00">1</text>
</g>
<!-- Vendor creates debit memo&#45;&gt;Record Goods Receipt -->
<g id="edge11" class="edge">
<title>Vendor creates debit memo&#45;&gt;Record Goods Receipt</title>
<path fill="none" stroke="#ff0000" stroke-width="0.67" stroke-dasharray="5,2" d="M547.02,-529.8C560.69,-517.44 579.33,-500.59 594.6,-486.78"/>
<polygon fill="#ff0000" stroke="#ff0000" stroke-width="0.67" points="596.86,-489.45 601.93,-480.15 592.17,-484.26 596.86,-489.45"/>
<text text-anchor="middle" x="583.5" y="-500.8" font-family="Times,serif" font-size="14.00">6</text>
</g>
<!-- Vendor creates debit memo&#45;&gt;Record Invoice Receipt -->
<g id="edge9" class="edge">
<title>Vendor creates debit memo&#45;&gt;Record Invoice Receipt</title>
<path fill="none" stroke="#ff0000" stroke-width="0.74" stroke-dasharray="5,2" d="M503.24,-529.56C455.11,-493.95 350.23,-407.51 311,-305 305.28,-290.06 303.42,-283.09 311,-269 321.55,-249.4 340.5,-234.51 359.29,-223.73"/>
<polygon fill="#ff0000" stroke="#ff0000" stroke-width="0.74" points="360.94,-226.82 368.08,-219 357.62,-220.66 360.94,-226.82"/>
<text text-anchor="middle" x="363.5" y="-370.3" font-family="Times,serif" font-size="14.00">8</text>
</g>
<!-- Vendor creates debit memo&#45;&gt;Clear Invoice -->
<g id="edge23" class="edge">
<title>Vendor creates debit memo&#45;&gt;Clear Invoice</title>
<path fill="none" stroke="#ff0000" stroke-width="0.5" stroke-dasharray="5,2" d="M601.2,-529.59C691.16,-503.34 832,-444.23 832,-331.5 832,-331.5 832,-331.5 832,-199 832,-177.02 822.83,-153.87 814.02,-136.69"/>
<polygon fill="#ff0000" stroke="#ff0000" stroke-width="0.5" points="817.15,-135.11 809.31,-127.99 810.99,-138.45 817.15,-135.11"/>
<text text-anchor="middle" x="835.5" y="-326.8" font-family="Times,serif" font-size="14.00">1</text>
</g>
<!-- Record Invoice Receipt&#45;&gt;Vendor creates invoice -->
<g id="edge10" class="edge">
<title>Record Invoice Receipt&#45;&gt;Vendor creates invoice</title>
<path fill="none" stroke="#000000" stroke-width="1.48" d="M324.64,-211.56C289.26,-217.24 253.74,-225.31 240,-236 220.54,-251.13 216,-261.35 216,-286 216,-549 216,-549 216,-549 216,-573.65 219.89,-584.75 240,-599 274.27,-623.28 379.03,-631.09 459.04,-633.41"/>
<polygon fill="#000000" stroke="#000000" stroke-width="1.48" points="458.82,-636.91 468.9,-633.67 459,-629.91 458.82,-636.91"/>
<text text-anchor="middle" x="223" y="-413.8" font-family="Times,serif" font-size="14.00">30</text>
</g>
<!-- Record Invoice Receipt&#45;&gt;Record Goods Receipt -->
<g id="edge29" class="edge">
<title>Record Invoice Receipt&#45;&gt;Record Goods Receipt</title>
<path fill="none" stroke="#000000" stroke-width="0.87" d="M451.49,-218.34C471.3,-229.7 493.78,-246.61 505,-269 515.78,-290.52 503.63,-299.08 501,-323 495.93,-369.19 492.56,-390.78 524,-425 528.2,-429.57 533.04,-433.55 538.27,-437.01"/>
<polygon fill="#000000" stroke="#000000" stroke-width="0.87" points="536.51,-440.03 546.92,-442.02 540.02,-433.97 536.51,-440.03"/>
<text text-anchor="middle" x="508" y="-326.8" font-family="Times,serif" font-size="14.00">12</text>
</g>
<!-- Record Invoice Receipt&#45;&gt;Record Invoice Receipt -->
<g id="edge14" class="edge">
<title>Record Invoice Receipt&#45;&gt;Record Invoice Receipt</title>
<path fill="none" stroke="#000000" stroke-width="4.68" d="M503.37,-207.01C514.03,-205.73 521,-203.4 521,-200 521,-198.83 520.18,-197.79 518.66,-196.87"/>
<polygon fill="#000000" stroke="#000000" stroke-width="4.68" points="520.05,-193 509.35,-194.51 518.04,-200.93 520.05,-193"/>
<text text-anchor="middle" x="531.5" y="-196.3" font-family="Times,serif" font-size="14.00">124</text>
</g>
<!-- Record Invoice Receipt&#45;&gt;Clear Invoice -->
<g id="edge16" class="edge">
<title>Record Invoice Receipt&#45;&gt;Clear Invoice</title>
<path fill="none" stroke="#000000" stroke-width="1.18" d="M503.47,-193.53C544.85,-188.84 594.03,-180.14 636,-164 647.39,-159.62 647.89,-154.04 659,-149 680.87,-139.08 705.84,-131.13 728.53,-125.05"/>
<polygon fill="#000000" stroke="#000000" stroke-width="1.18" points="729.27,-128.47 738.08,-122.58 727.52,-121.7 729.27,-128.47"/>
<text text-anchor="middle" x="666" y="-152.8" font-family="Times,serif" font-size="14.00">21</text>
</g>
<!-- Record Invoice Receipt&#45;&gt;Cancel Invoice Receipt -->
<g id="edge21" class="edge">
<title>Record Invoice Receipt&#45;&gt;Cancel Invoice Receipt</title>
<path fill="none" stroke="#ff0000" stroke-width="0.67" stroke-dasharray="5,2" d="M414.45,-181.8C416.08,-157.08 422.84,-111.78 450,-87 480.34,-59.32 581.44,-40.6 659.02,-29.92"/>
<polygon fill="#ff0000" stroke="#ff0000" stroke-width="0.67" points="659.35,-33.41 668.79,-28.6 658.41,-26.47 659.35,-33.41"/>
<text text-anchor="middle" x="453.5" y="-105.3" font-family="Times,serif" font-size="14.00">6</text>
</g>
<!-- Record Invoice Receipt&#45;&gt;Remove Payment Block -->
<g id="edge24" class="edge">
<title>Record Invoice Receipt&#45;&gt;Remove Payment Block</title>
<path fill="none" stroke="#000000" stroke-width="0.77" d="M404.92,-218.35C402.5,-223.85 400.22,-230.04 399,-236 397.53,-243.14 397.95,-250.89 399.19,-258.1"/>
<polygon fill="#000000" stroke="#000000" stroke-width="0.77" points="395.75,-258.74 401.4,-267.7 402.57,-257.17 395.75,-258.74"/>
<text text-anchor="middle" x="402.5" y="-239.8" font-family="Times,serif" font-size="14.00">9</text>
</g>
<!-- Record Invoice Receipt&#45;&gt;Change Price -->
<g id="edge40" class="edge">
<title>Record Invoice Receipt&#45;&gt;Change Price</title>
<path fill="none" stroke="#ff0000" stroke-width="0.5" stroke-dasharray="5,2" d="M446.99,-181.63C473.65,-167.58 511.39,-147.71 540.35,-132.46"/>
<polygon fill="#ff0000" stroke="#ff0000" stroke-width="0.5" points="541.92,-135.59 549.14,-127.83 538.66,-129.39 541.92,-135.59"/>
<text text-anchor="middle" x="512.5" y="-152.8" font-family="Times,serif" font-size="14.00">1</text>
</g>
<!-- end_node -->
<g id="node12" class="node">
<title>end_node</title>
<ellipse fill="none" stroke="black" cx="488" cy="-109" rx="18" ry="18"/>
<ellipse fill="none" stroke="black" cx="488" cy="-109" rx="22" ry="22"/>
<text text-anchor="start" x="483.5" y="-105.3" font-family="Times,serif" font-size="14.00">■</text>
</g>
<!-- Record Invoice Receipt&#45;&gt;end_node -->
<g id="edge41" class="edge">
<title>Record Invoice Receipt&#45;&gt;end_node</title>
<path fill="none" stroke="#ff0000" stroke-width="0.5" stroke-dasharray="5,2" d="M436.89,-181.66C443.14,-176.36 449.65,-170.27 455,-164 461.58,-156.29 467.7,-147.12 472.85,-138.55"/>
<polygon fill="#ff0000" stroke="#ff0000" stroke-width="0.5" points="475.88,-140.3 477.83,-129.89 469.81,-136.81 475.88,-140.3"/>
<text text-anchor="middle" x="469.5" y="-152.8" font-family="Times,serif" font-size="14.00">1</text>
</g>
<!-- Clear Invoice&#45;&gt;Vendor creates invoice -->
<g id="edge18" class="edge">
<title>Clear Invoice&#45;&gt;Vendor creates invoice</title>
<path fill="none" stroke="#000000" stroke-width="0.84" d="M855.54,-127.46C887.55,-141.12 921,-163.81 921,-199 921,-549 921,-549 921,-549 921,-574.69 913.56,-585.03 892,-599 854.18,-623.5 740.28,-631.17 655.95,-633.41"/>
<polygon fill="#000000" stroke="#000000" stroke-width="0.84" points="655.97,-629.91 646.05,-633.65 656.13,-636.9 655.97,-629.91"/>
<text text-anchor="middle" x="928" y="-370.3" font-family="Times,serif" font-size="14.00">11</text>
</g>
<!-- Clear Invoice&#45;&gt;Record Goods Receipt -->
<g id="edge34" class="edge">
<title>Clear Invoice&#45;&gt;Record Goods Receipt</title>
<path fill="none" stroke="#ff0000" stroke-width="0.6" stroke-dasharray="5,2" d="M796.76,-127.38C795.58,-145.32 794,-174.1 794,-199 794,-331.5 794,-331.5 794,-331.5 794,-359.68 793.76,-370.97 775,-392 755.87,-413.45 728.69,-428.47 702.54,-438.83"/>
<polygon fill="#ff0000" stroke="#ff0000" stroke-width="0.6" points="701.57,-435.46 693.44,-442.26 704.03,-442.01 701.57,-435.46"/>
<text text-anchor="middle" x="797.5" y="-283.3" font-family="Times,serif" font-size="14.00">4</text>
</g>
<!-- Clear Invoice&#45;&gt;Record Invoice Receipt -->
<g id="edge20" class="edge">
<title>Clear Invoice&#45;&gt;Record Invoice Receipt</title>
<path fill="none" stroke="#ff0000" stroke-width="0.6" stroke-dasharray="5,2" d="M739.69,-123.51C675.9,-138.3 573.01,-162.15 499.96,-179.08"/>
<polygon fill="#ff0000" stroke="#ff0000" stroke-width="0.6" points="499.25,-175.65 490.3,-181.32 500.83,-182.47 499.25,-175.65"/>
<text text-anchor="middle" x="631.5" y="-152.8" font-family="Times,serif" font-size="14.00">4</text>
</g>
<!-- Clear Invoice&#45;&gt;Clear Invoice -->
<g id="edge17" class="edge">
<title>Clear Invoice&#45;&gt;Clear Invoice</title>
<path fill="none" stroke="#000000" stroke-width="1.28" d="M856.31,-117.38C866.73,-116.29 874,-113.5 874,-109 874,-106.47 871.7,-104.48 867.83,-103.03"/>
<polygon fill="#000000" stroke="#000000" stroke-width="1.28" points="868.71,-99.63 858.21,-101.01 867.28,-106.49 868.71,-99.63"/>
<text text-anchor="middle" x="881" y="-105.3" font-family="Times,serif" font-size="14.00">24</text>
</g>
<!-- Clear Invoice&#45;&gt;Cancel Invoice Receipt -->
<g id="edge35" class="edge">
<title>Clear Invoice&#45;&gt;Cancel Invoice Receipt</title>
<path fill="none" stroke="#000000" stroke-width="0.77" d="M789.71,-90.84C783.62,-78.24 775.23,-60.86 768.22,-46.36"/>
<polygon fill="#000000" stroke="#000000" stroke-width="0.77" points="771.42,-44.94 763.92,-37.46 765.12,-47.99 771.42,-44.94"/>
<text text-anchor="middle" x="782.5" y="-57.8" font-family="Times,serif" font-size="14.00">9</text>
</g>
<!-- Clear Invoice&#45;&gt;Remove Payment Block -->
<g id="edge36" class="edge">
<title>Clear Invoice&#45;&gt;Remove Payment Block</title>
<path fill="none" stroke="#ff0000" stroke-width="0.5" stroke-dasharray="5,2" d="M757.14,-127.45C732.77,-139.65 702.82,-158.04 683,-182 661.91,-207.5 681.08,-230.63 655,-251 651.93,-253.4 574.05,-264.19 506.56,-273.16"/>
<polygon fill="#ff0000" stroke="#ff0000" stroke-width="0.5" points="506.46,-269.64 497.01,-274.43 507.38,-276.58 506.46,-269.64"/>
<text text-anchor="middle" x="686.5" y="-196.3" font-family="Times,serif" font-size="14.00">1</text>
</g>
<!-- Cancel Invoice Receipt&#45;&gt;Vendor creates invoice -->
<g id="edge27" class="edge">
<title>Cancel Invoice Receipt&#45;&gt;Vendor creates invoice</title>
<path fill="none" stroke="#ff0000" stroke-width="0.53" stroke-dasharray="5,2" d="M840.25,-27.92C885.73,-33.83 936.3,-42.61 956,-54 983.05,-69.64 1001,-76.76 1001,-108 1001,-549 1001,-549 1001,-549 1001,-618.79 786.25,-632.6 655.79,-634.55"/>
<polygon fill="#ff0000" stroke="#ff0000" stroke-width="0.53" points="655.76,-631.05 645.8,-634.68 655.85,-638.05 655.76,-631.05"/>
<text text-anchor="middle" x="1004.5" y="-326.8" font-family="Times,serif" font-size="14.00">2</text>
</g>
<!-- Cancel Invoice Receipt&#45;&gt;Record Invoice Receipt -->
<g id="edge22" class="edge">
<title>Cancel Invoice Receipt&#45;&gt;Record Invoice Receipt</title>
<path fill="none" stroke="#000000" stroke-width="1.08" d="M669.85,-22.18C576.15,-27.84 435.04,-43.55 407,-87 390.93,-111.9 396.43,-146.75 403.54,-170.94"/>
<polygon fill="#000000" stroke="#000000" stroke-width="1.08" points="400.16,-171.87 406.57,-180.31 406.82,-169.72 400.16,-171.87"/>
<text text-anchor="middle" x="414" y="-105.3" font-family="Times,serif" font-size="14.00">18</text>
</g>
<!-- Cancel Invoice Receipt&#45;&gt;Cancel Invoice Receipt -->
<g id="edge38" class="edge">
<title>Cancel Invoice Receipt&#45;&gt;Cancel Invoice Receipt</title>
<path fill="none" stroke="#ff0000" stroke-width="0.53" stroke-dasharray="5,2" d="M840.25,-25.1C850.95,-23.85 858,-21.48 858,-18 858,-15.82 855.25,-14.08 850.57,-12.78"/>
<polygon fill="#ff0000" stroke="#ff0000" stroke-width="0.53" points="851.51,-9.39 841.04,-11.04 850.26,-16.28 851.51,-9.39"/>
<text text-anchor="middle" x="861.5" y="-14.3" font-family="Times,serif" font-size="14.00">2</text>
</g>
<!-- Remove Payment Block&#45;&gt;Vendor creates invoice -->
<g id="edge25" class="edge">
<title>Remove Payment Block&#45;&gt;Vendor creates invoice</title>
<path fill="none" stroke="#ff0000" stroke-width="0.64" stroke-dasharray="5,2" d="M358.43,-305.43C330.03,-318.91 300,-340.79 300,-373 300,-549 300,-549 300,-549 300,-584.12 387.31,-607.14 460.35,-620.26"/>
<polygon fill="#ff0000" stroke="#ff0000" stroke-width="0.64" points="459.61,-623.68 470.06,-621.96 460.82,-616.79 459.61,-623.68"/>
<text text-anchor="middle" x="303.5" y="-457.3" font-family="Times,serif" font-size="14.00">5</text>
</g>
<!-- Remove Payment Block&#45;&gt;Record Invoice Receipt -->
<g id="edge33" class="edge">
<title>Remove Payment Block&#45;&gt;Record Invoice Receipt</title>
<path fill="none" stroke="#ff0000" stroke-width="0.67" stroke-dasharray="5,2" d="M409.21,-268.8C410.01,-257.47 411.08,-242.36 412,-229.29"/>
<polygon fill="#ff0000" stroke="#ff0000" stroke-width="0.67" points="415.48,-229.7 412.7,-219.48 408.5,-229.21 415.48,-229.7"/>
<text text-anchor="middle" x="415.5" y="-239.8" font-family="Times,serif" font-size="14.00">6</text>
</g>
<!-- Change Price&#45;&gt;Record Goods Receipt -->
<g id="edge32" class="edge">
<title>Change Price&#45;&gt;Record Goods Receipt</title>
<path fill="none" stroke="#ff0000" stroke-width="0.7" stroke-dasharray="5,2" d="M580.46,-127.5C572.19,-185.24 547.16,-367.47 557,-392 563.73,-408.79 576.8,-423.77 589.47,-435.38"/>
<polygon fill="#ff0000" stroke="#ff0000" stroke-width="0.7" points="587.02,-437.88 596.86,-441.8 591.61,-432.6 587.02,-437.88"/>
<text text-anchor="middle" x="565.5" y="-283.3" font-family="Times,serif" font-size="14.00">7</text>
</g>
</g>
</svg>
