<?xml version="1.0" encoding="UTF-8" standalone="no"?>
<!DOCTYPE svg PUBLIC "-//W3C//DTD SVG 1.1//EN"
 "http://www.w3.org/Graphics/SVG/1.1/DTD/svg11.dtd">
<!-- Generated by graphviz version 7.0.5 (0)
 -->
<!-- Title: dfg Pages: 1 -->
<svg width="878pt" height="964pt"
 viewBox="0.00 0.00 878.00 964.00" xmlns="http://www.w3.org/2000/svg" xmlns:xlink="http://www.w3.org/1999/xlink">
<g id="graph0" class="graph" transform="scale(1 1) rotate(0) translate(4 960)">
<title>dfg</title>
<polygon fill="white" stroke="none" points="-4,4 -4,-960 874,-960 874,4 -4,4"/>
<!-- start_node -->
<g id="node1" class="node">
<title>start_node</title>
<ellipse fill="none" stroke="black" cx="388" cy="-938" rx="18" ry="18"/>
<text text-anchor="start" x="383.5" y="-934.3" font-family="Times,serif" font-size="14.00">●</text>
</g>
<!-- Create Purchase Order Item -->
<g id="node2" class="node">
<title>Create Purchase Order Item</title>
<polygon fill="#ceceff" stroke="black" points="489,-782 287,-782 287,-746 489,-746 489,-782"/>
<text text-anchor="middle" x="388" y="-760.3" font-family="Times,serif" font-size="14.00">Create Purchase Order Item (319)</text>
</g>
<!-- start_node&#45;&gt;Create Purchase Order Item -->
<g id="edge1" class="edge">
<title>start_node&#45;&gt;Create Purchase Order Item</title>
<path fill="none" stroke="#000000" stroke-width="7.67" d="M385.73,-919.71C384.04,-905.99 381.89,-886.3 381,-869 380.18,-853.02 380.18,-848.98 381,-833 381.57,-821.91 382.66,-809.85 383.81,-799.01"/>
<polygon fill="#000000" stroke="#000000" stroke-width="7.67" points="390.47,-799.83 384.94,-789.13 377.13,-798.3 390.47,-799.83"/>
<text text-anchor="middle" x="391.5" y="-847.3" font-family="Times,serif" font-size="14.00">267</text>
</g>
<!-- Create Purchase Requisition Item -->
<g id="node3" class="node">
<title>Create Purchase Requisition Item</title>
<polygon fill="#f7f7ff" stroke="black" points="637,-869 411,-869 411,-833 637,-833 637,-869"/>
<text text-anchor="middle" x="524" y="-847.3" font-family="Times,serif" font-size="14.00">Create Purchase Requisition Item (52)</text>
</g>
<!-- start_node&#45;&gt;Create Purchase Requisition Item -->
<g id="edge2" class="edge">
<title>start_node&#45;&gt;Create Purchase Requisition Item</title>
<path fill="none" stroke="#000000" stroke-width="1.88" d="M403.07,-927.58C422.77,-915.27 457.96,-893.27 485.32,-876.17"/>
<polygon fill="#000000" stroke="#000000" stroke-width="1.88" points="487.09,-879.19 493.72,-870.93 483.38,-873.26 487.09,-879.19"/>
<text text-anchor="middle" x="471" y="-890.8" font-family="Times,serif" font-size="14.00">52</text>
</g>
<!-- Record Goods Receipt -->
<g id="node4" class="node">
<title>Record Goods Receipt</title>
<polygon fill="#9b9bff" stroke="black" points="372.5,-587 199.5,-587 199.5,-551 372.5,-551 372.5,-587"/>
<text text-anchor="middle" x="286" y="-565.3" font-family="Times,serif" font-size="14.00">Record Goods Receipt (654)</text>
</g>
<!-- Create Purchase Order Item&#45;&gt;Record Goods Receipt -->
<g id="edge3" class="edge">
<title>Create Purchase Order Item&#45;&gt;Record Goods Receipt</title>
<path fill="none" stroke="#000000" stroke-width="6" d="M385.89,-745.59C382.77,-724.22 375.65,-687.34 361,-659 349.46,-636.69 331.45,-615.06 315.96,-598.71"/>
<polygon fill="#000000" stroke="#000000" stroke-width="6" points="320.04,-595.37 309.29,-591.92 312.55,-602.73 320.04,-595.37"/>
<text text-anchor="middle" x="385.5" y="-673.3" font-family="Times,serif" font-size="14.00">205</text>
</g>
<!-- Change Quantity -->
<g id="node5" class="node">
<title>Change Quantity</title>
<polygon fill="#ccccff" stroke="black" points="226,-500 84,-500 84,-464 226,-464 226,-500"/>
<text text-anchor="middle" x="155" y="-478.3" font-family="Times,serif" font-size="14.00">Change Quantity (333)</text>
</g>
<!-- Create Purchase Order Item&#45;&gt;Change Quantity -->
<g id="edge13" class="edge">
<title>Create Purchase Order Item&#45;&gt;Change Quantity</title>
<path fill="none" stroke="#000000" stroke-width="3.01" d="M286.7,-746.41C230.24,-734.87 167.97,-717.52 151,-695 111.1,-642.04 129.33,-558.64 143.64,-513.86"/>
<polygon fill="#000000" stroke="#000000" stroke-width="3.01" points="146.9,-515.17 146.79,-504.57 140.27,-512.92 146.9,-515.17"/>
<text text-anchor="middle" x="136" y="-619.3" font-family="Times,serif" font-size="14.00">94</text>
</g>
<!-- Change Delivery Indicator -->
<g id="node6" class="node">
<title>Change Delivery Indicator</title>
<polygon fill="#d7d7ff" stroke="black" points="572,-413 378,-413 378,-377 572,-377 572,-413"/>
<text text-anchor="middle" x="475" y="-391.3" font-family="Times,serif" font-size="14.00">Change Delivery Indicator (257)</text>
</g>
<!-- Create Purchase Order Item&#45;&gt;Change Delivery Indicator -->
<g id="edge31" class="edge">
<title>Create Purchase Order Item&#45;&gt;Change Delivery Indicator</title>
<path fill="none" stroke="#ff0000" stroke-width="0.69" stroke-dasharray="5,2" d="M460.38,-745.59C492.86,-733.04 524,-712.11 524,-678 524,-678 524,-678 524,-481 524,-458.87 511.38,-437.3 498.94,-421.43"/>
<polygon fill="#ff0000" stroke="#ff0000" stroke-width="0.69" points="501.88,-419.5 492.8,-414.04 496.5,-423.97 501.88,-419.5"/>
<text text-anchor="middle" x="527.5" y="-565.3" font-family="Times,serif" font-size="14.00">8</text>
</g>
<!-- Receive Order Confirmation -->
<g id="node8" class="node">
<title>Receive Order Confirmation</title>
<polygon fill="#fdfdff" stroke="black" points="352,-695 160,-695 160,-659 352,-659 352,-695"/>
<text text-anchor="middle" x="256" y="-673.3" font-family="Times,serif" font-size="14.00">Receive Order Confirmation (8)</text>
</g>
<!-- Create Purchase Order Item&#45;&gt;Receive Order Confirmation -->
<g id="edge16" class="edge">
<title>Create Purchase Order Item&#45;&gt;Receive Order Confirmation</title>
<path fill="none" stroke="#ff0000" stroke-width="0.69" stroke-dasharray="5,2" d="M360.97,-745.59C341.13,-732.82 313.96,-715.32 292.24,-701.34"/>
<polygon fill="#ff0000" stroke="#ff0000" stroke-width="0.69" points="294.17,-698.42 283.87,-695.95 290.38,-704.3 294.17,-698.42"/>
<text text-anchor="middle" x="333.5" y="-716.8" font-family="Times,serif" font-size="14.00">8</text>
</g>
<!-- Change Price -->
<g id="node14" class="node">
<title>Change Price</title>
<polygon fill="#fefeff" stroke="black" points="648.5,-641 539.5,-641 539.5,-605 648.5,-605 648.5,-641"/>
<text text-anchor="middle" x="594" y="-619.3" font-family="Times,serif" font-size="14.00">Change Price (4)</text>
</g>
<!-- Create Purchase Order Item&#45;&gt;Change Price -->
<g id="edge32" class="edge">
<title>Create Purchase Order Item&#45;&gt;Change Price</title>
<path fill="none" stroke="#ff0000" stroke-width="0.58" stroke-dasharray="5,2" d="M489.29,-751.74C506.71,-746.47 523.77,-738.89 538,-728 563,-708.87 578.15,-675.3 586.28,-651.47"/>
<polygon fill="#ff0000" stroke="#ff0000" stroke-width="0.58" points="589.55,-652.73 589.26,-642.14 582.88,-650.6 589.55,-652.73"/>
<text text-anchor="middle" x="555.5" y="-716.8" font-family="Times,serif" font-size="14.00">4</text>
</g>
<!-- Create Purchase Requisition Item&#45;&gt;Create Purchase Order Item -->
<g id="edge28" class="edge">
<title>Create Purchase Requisition Item&#45;&gt;Create Purchase Order Item</title>
<path fill="none" stroke="#000000" stroke-width="1.88" d="M496.15,-832.59C476.07,-820.05 448.72,-802.95 426.55,-789.09"/>
<polygon fill="#000000" stroke="#000000" stroke-width="1.88" points="428.55,-786.22 418.22,-783.89 424.84,-792.15 428.55,-786.22"/>
<text text-anchor="middle" x="471" y="-803.8" font-family="Times,serif" font-size="14.00">52</text>
</g>
<!-- Record Goods Receipt&#45;&gt;Record Goods Receipt -->
<g id="edge14" class="edge">
<title>Record Goods Receipt&#45;&gt;Record Goods Receipt</title>
<path fill="none" stroke="#000000" stroke-width="4.19" d="M372.89,-576.06C383.53,-574.79 390.5,-572.44 390.5,-569 390.5,-567.82 389.68,-566.76 388.16,-565.84"/>
<polygon fill="#000000" stroke="#000000" stroke-width="4.19" points="389.38,-562.36 378.78,-563.45 387.57,-569.47 389.38,-562.36"/>
<text text-anchor="middle" x="401" y="-565.3" font-family="Times,serif" font-size="14.00">138</text>
</g>
<!-- Record Goods Receipt&#45;&gt;Change Quantity -->
<g id="edge4" class="edge">
<title>Record Goods Receipt&#45;&gt;Change Quantity</title>
<path fill="none" stroke="#000000" stroke-width="5.57" d="M239.45,-550.61C228.41,-545.62 216.96,-539.69 207,-533 197.99,-526.95 189.13,-519.27 181.34,-511.76"/>
<polygon fill="#000000" stroke="#000000" stroke-width="5.57" points="185.06,-508.59 174.58,-504.87 178.11,-515.42 185.06,-508.59"/>
<text text-anchor="middle" x="217.5" y="-521.8" font-family="Times,serif" font-size="14.00">189</text>
</g>
<!-- Record Goods Receipt&#45;&gt;Change Delivery Indicator -->
<g id="edge15" class="edge">
<title>Record Goods Receipt&#45;&gt;Change Delivery Indicator</title>
<path fill="none" stroke="#000000" stroke-width="1.98" d="M372.55,-556.66C406.26,-547.38 441.24,-530.54 460,-500 473.62,-477.84 476.72,-448.1 476.79,-426.1"/>
<polygon fill="#000000" stroke="#000000" stroke-width="1.98" points="480.3,-426.15 476.57,-416.23 473.3,-426.31 480.3,-426.15"/>
<text text-anchor="middle" x="480" y="-478.3" font-family="Times,serif" font-size="14.00">56</text>
</g>
<!-- Cancel Goods Receipt -->
<g id="node7" class="node">
<title>Cancel Goods Receipt</title>
<polygon fill="#f8f8ff" stroke="black" points="382,-305 218,-305 218,-269 382,-269 382,-305"/>
<text text-anchor="middle" x="300" y="-283.3" font-family="Times,serif" font-size="14.00">Cancel Goods Receipt (41)</text>
</g>
<!-- Record Goods Receipt&#45;&gt;Cancel Goods Receipt -->
<g id="edge7" class="edge">
<title>Record Goods Receipt&#45;&gt;Cancel Goods Receipt</title>
<path fill="none" stroke="#000000" stroke-width="1.44" d="M306.15,-550.6C329.59,-528.89 367.01,-489.3 382,-446 384.18,-439.7 384.05,-437.34 382,-431 378.96,-421.61 374.26,-421.35 369,-413 344.73,-374.46 342.19,-362.77 320,-323 318.7,-320.67 317.34,-318.25 315.97,-315.83"/>
<polygon fill="#000000" stroke="#000000" stroke-width="1.44" points="319.11,-314.27 311.12,-307.31 313.02,-317.73 319.11,-314.27"/>
<text text-anchor="middle" x="391" y="-434.8" font-family="Times,serif" font-size="14.00">36</text>
</g>
<!-- end_node -->
<g id="node16" class="node">
<title>end_node</title>
<ellipse fill="none" stroke="black" cx="207" cy="-22" rx="18" ry="18"/>
<ellipse fill="none" stroke="black" cx="207" cy="-22" rx="22" ry="22"/>
<text text-anchor="start" x="202.5" y="-18.3" font-family="Times,serif" font-size="14.00">■</text>
</g>
<!-- Record Goods Receipt&#45;&gt;end_node -->
<g id="edge35" class="edge">
<title>Record Goods Receipt&#45;&gt;end_node</title>
<path fill="none" stroke="#000000" stroke-width="6.81" d="M211.06,-550.55C159.11,-537.23 95.69,-518.14 75,-500 16.54,-448.76 0,-419.73 0,-342 0,-342 0,-342 0,-112 0,-39.52 108.42,-25.34 168.33,-23.03"/>
<polygon fill="#000000" stroke="#000000" stroke-width="6.81" points="168.34,-28.99 178.2,-22.8 168.06,-17.08 168.34,-28.99"/>
<text text-anchor="middle" x="10.5" y="-283.3" font-family="Times,serif" font-size="14.00">235</text>
</g>
<!-- Change Quantity&#45;&gt;Record Goods Receipt -->
<g id="edge12" class="edge">
<title>Change Quantity&#45;&gt;Record Goods Receipt</title>
<path fill="none" stroke="#000000" stroke-width="4.38" d="M196.2,-500.42C206.86,-505.55 218.12,-511.54 228,-518 237.79,-524.41 247.71,-532.32 256.5,-539.94"/>
<polygon fill="#000000" stroke="#000000" stroke-width="4.38" points="253.9,-542.76 263.9,-546.6 259.03,-537.06 253.9,-542.76"/>
<text text-anchor="middle" x="257.5" y="-521.8" font-family="Times,serif" font-size="14.00">145</text>
</g>
<!-- Change Quantity&#45;&gt;Change Quantity -->
<g id="edge11" class="edge">
<title>Change Quantity&#45;&gt;Change Quantity</title>
<path fill="none" stroke="#000000" stroke-width="1.09" d="M226.23,-489.4C236.83,-488.25 244,-485.78 244,-482 244,-479.81 241.6,-478.07 237.53,-476.76"/>
<polygon fill="#000000" stroke="#000000" stroke-width="1.09" points="238.33,-473.35 227.85,-474.91 237.02,-480.23 238.33,-473.35"/>
<text text-anchor="middle" x="251" y="-478.3" font-family="Times,serif" font-size="14.00">23</text>
</g>
<!-- Change Quantity&#45;&gt;Change Delivery Indicator -->
<g id="edge5" class="edge">
<title>Change Quantity&#45;&gt;Change Delivery Indicator</title>
<path fill="none" stroke="#000000" stroke-width="4.71" d="M226.34,-473.9C260.96,-468.83 302.6,-460.28 338,-446 349.32,-441.43 349.95,-436.17 361,-431 370.7,-426.46 381.14,-422.32 391.61,-418.61"/>
<polygon fill="#000000" stroke="#000000" stroke-width="4.71" points="392.88,-422.53 401.05,-415.45 390.26,-414.72 392.88,-422.53"/>
<text text-anchor="middle" x="371.5" y="-434.8" font-family="Times,serif" font-size="14.00">157</text>
</g>
<!-- Change Quantity&#45;&gt;Cancel Goods Receipt -->
<g id="edge30" class="edge">
<title>Change Quantity&#45;&gt;Cancel Goods Receipt</title>
<path fill="none" stroke="#ff0000" stroke-width="0.5" stroke-dasharray="5,2" d="M168.12,-463.53C193.79,-429.37 250.73,-353.58 280.7,-313.69"/>
<polygon fill="#ff0000" stroke="#ff0000" stroke-width="0.5" points="283.35,-315.99 286.56,-305.89 277.75,-311.79 283.35,-315.99"/>
<text text-anchor="middle" x="236.5" y="-391.3" font-family="Times,serif" font-size="14.00">1</text>
</g>
<!-- Delete Purchase Order Item -->
<g id="node15" class="node">
<title>Delete Purchase Order Item</title>
<polygon fill="#ffffff" stroke="black" points="241,-359 53,-359 53,-323 241,-323 241,-359"/>
<text text-anchor="middle" x="147" y="-337.3" font-family="Times,serif" font-size="14.00">Delete Purchase Order Item (1)</text>
</g>
<!-- Change Quantity&#45;&gt;Delete Purchase Order Item -->
<g id="edge34" class="edge">
<title>Change Quantity&#45;&gt;Delete Purchase Order Item</title>
<path fill="none" stroke="#ff0000" stroke-width="0.5" stroke-dasharray="5,2" d="M154,-463.68C152.65,-440.14 150.21,-397.78 148.6,-369.78"/>
<polygon fill="#ff0000" stroke="#ff0000" stroke-width="0.5" points="152.1,-369.64 148.03,-359.86 145.11,-370.05 152.1,-369.64"/>
<text text-anchor="middle" x="156.5" y="-434.8" font-family="Times,serif" font-size="14.00">1</text>
</g>
<!-- Change Quantity&#45;&gt;end_node -->
<g id="edge38" class="edge">
<title>Change Quantity&#45;&gt;end_node</title>
<path fill="none" stroke="#ff0000" stroke-width="0.63" stroke-dasharray="5,2" d="M133.61,-463.86C108.68,-442.39 68.76,-403.04 52,-359 33.89,-311.42 49,-295.41 49,-244.5 49,-244.5 49,-244.5 49,-112 49,-54.99 128.04,-34.1 174.32,-26.76"/>
<polygon fill="#ff0000" stroke="#ff0000" stroke-width="0.63" points="174.69,-30.24 184.08,-25.34 173.68,-23.31 174.69,-30.24"/>
<text text-anchor="middle" x="52.5" y="-239.8" font-family="Times,serif" font-size="14.00">6</text>
</g>
<!-- Change Delivery Indicator&#45;&gt;Record Goods Receipt -->
<g id="edge6" class="edge">
<title>Change Delivery Indicator&#45;&gt;Record Goods Receipt</title>
<path fill="none" stroke="#000000" stroke-width="4.38" d="M465.49,-413.39C446.26,-448.33 403.64,-524.5 393,-533 388.07,-536.93 382.69,-540.43 377.04,-543.54"/>
<polygon fill="#000000" stroke="#000000" stroke-width="4.38" points="375.43,-540.06 368.08,-547.85 378.75,-546.98 375.43,-540.06"/>
<text text-anchor="middle" x="447.5" y="-478.3" font-family="Times,serif" font-size="14.00">145</text>
</g>
<!-- Change Delivery Indicator&#45;&gt;Change Quantity -->
<g id="edge10" class="edge">
<title>Change Delivery Indicator&#45;&gt;Change Quantity</title>
<path fill="none" stroke="#000000" stroke-width="0.88" d="M377.67,-411C358.03,-415.94 337.93,-422.45 320,-431 310.29,-435.63 310.68,-441.3 301,-446 281.14,-455.64 258.44,-462.73 236.96,-467.9"/>
<polygon fill="#000000" stroke="#000000" stroke-width="0.88" points="236.45,-464.43 227.48,-470.07 238.01,-471.25 236.45,-464.43"/>
<text text-anchor="middle" x="327" y="-434.8" font-family="Times,serif" font-size="14.00">15</text>
</g>
<!-- Change Delivery Indicator&#45;&gt;Change Delivery Indicator -->
<g id="edge9" class="edge">
<title>Change Delivery Indicator&#45;&gt;Change Delivery Indicator</title>
<path fill="none" stroke="#000000" stroke-width="1.09" d="M572.32,-401.86C583.06,-400.56 590,-398.27 590,-395 590,-393.11 587.68,-391.55 583.65,-390.31"/>
<polygon fill="#000000" stroke="#000000" stroke-width="1.09" points="584.43,-386.9 573.95,-388.45 583.11,-393.77 584.43,-386.9"/>
<text text-anchor="middle" x="597" y="-391.3" font-family="Times,serif" font-size="14.00">23</text>
</g>
<!-- Change Delivery Indicator&#45;&gt;Cancel Goods Receipt -->
<g id="edge29" class="edge">
<title>Change Delivery Indicator&#45;&gt;Cancel Goods Receipt</title>
<path fill="none" stroke="#ff0000" stroke-width="0.53" stroke-dasharray="5,2" d="M416.29,-376.63C405.59,-371.93 394.99,-366.11 386,-359 370.72,-346.91 375.35,-336.17 361,-323 356.22,-318.61 350.79,-314.54 345.19,-310.84"/>
<polygon fill="#ff0000" stroke="#ff0000" stroke-width="0.53" points="347.35,-308.05 337.01,-305.75 343.66,-314 347.35,-308.05"/>
<text text-anchor="middle" x="389.5" y="-337.3" font-family="Times,serif" font-size="14.00">2</text>
</g>
<!-- Vendor creates invoice -->
<g id="node9" class="node">
<title>Vendor creates invoice</title>
<polygon fill="#ffffff" stroke="black" points="639,-305 479,-305 479,-269 639,-269 639,-305"/>
<text text-anchor="middle" x="559" y="-283.3" font-family="Times,serif" font-size="14.00">Vendor creates invoice (1)</text>
</g>
<!-- Change Delivery Indicator&#45;&gt;Vendor creates invoice -->
<g id="edge19" class="edge">
<title>Change Delivery Indicator&#45;&gt;Vendor creates invoice</title>
<path fill="none" stroke="#ff0000" stroke-width="0.5" stroke-dasharray="5,2" d="M488.5,-376.97C502.07,-359.84 523.16,-333.22 538.75,-313.56"/>
<polygon fill="#ff0000" stroke="#ff0000" stroke-width="0.5" points="541.32,-315.95 544.79,-305.93 535.83,-311.6 541.32,-315.95"/>
<text text-anchor="middle" x="532.5" y="-337.3" font-family="Times,serif" font-size="14.00">1</text>
</g>
<!-- Change Delivery Indicator&#45;&gt;end_node -->
<g id="edge36" class="edge">
<title>Change Delivery Indicator&#45;&gt;end_node</title>
<path fill="none" stroke="#000000" stroke-width="2.39" d="M464.07,-376.75C452.23,-356.37 435,-321.04 435,-288 435,-288 435,-288 435,-112 435,-71.11 306.15,-41.4 242.18,-29.17"/>
<polygon fill="#000000" stroke="#000000" stroke-width="2.39" points="242.88,-25.74 232.41,-27.36 241.61,-32.63 242.88,-25.74"/>
<text text-anchor="middle" x="442" y="-196.3" font-family="Times,serif" font-size="14.00">71</text>
</g>
<!-- Cancel Goods Receipt&#45;&gt;Record Goods Receipt -->
<g id="edge25" class="edge">
<title>Cancel Goods Receipt&#45;&gt;Record Goods Receipt</title>
<path fill="none" stroke="#000000" stroke-width="0.96" d="M300.62,-305.28C301.08,-329.67 300.4,-375.43 291,-413 288.88,-421.49 284.82,-422.44 283,-431 281.62,-437.52 282.92,-439.33 283,-446 283.39,-477.9 284.36,-514.47 285.09,-539.19"/>
<polygon fill="#000000" stroke="#000000" stroke-width="0.96" points="281.59,-539.29 285.39,-549.18 288.59,-539.08 281.59,-539.29"/>
<text text-anchor="middle" x="290" y="-434.8" font-family="Times,serif" font-size="14.00">18</text>
</g>
<!-- Cancel Goods Receipt&#45;&gt;Change Quantity -->
<g id="edge27" class="edge">
<title>Cancel Goods Receipt&#45;&gt;Change Quantity</title>
<path fill="none" stroke="#ff0000" stroke-width="0.66" stroke-dasharray="5,2" d="M297.82,-305.35C292.93,-337.26 278.29,-405.66 239,-446 234.37,-450.75 229,-454.89 223.25,-458.48"/>
<polygon fill="#ff0000" stroke="#ff0000" stroke-width="0.66" points="221.85,-455.26 214.84,-463.2 225.28,-461.36 221.85,-455.26"/>
<text text-anchor="middle" x="283.5" y="-391.3" font-family="Times,serif" font-size="14.00">7</text>
</g>
<!-- Cancel Goods Receipt&#45;&gt;Change Delivery Indicator -->
<g id="edge8" class="edge">
<title>Cancel Goods Receipt&#45;&gt;Change Delivery Indicator</title>
<path fill="none" stroke="#ff0000" stroke-width="0.72" stroke-dasharray="5,2" d="M360.5,-305.4C371.28,-310.09 381.95,-315.89 391,-323 406.32,-335.03 401.74,-345.73 416,-359 420.52,-363.21 425.64,-367.15 430.92,-370.76"/>
<polygon fill="#ff0000" stroke="#ff0000" stroke-width="0.72" points="428.66,-373.47 438.97,-375.92 432.44,-367.58 428.66,-373.47"/>
<text text-anchor="middle" x="419.5" y="-337.3" font-family="Times,serif" font-size="14.00">9</text>
</g>
<!-- Cancel Goods Receipt&#45;&gt;Cancel Goods Receipt -->
<g id="edge26" class="edge">
<title>Cancel Goods Receipt&#45;&gt;Cancel Goods Receipt</title>
<path fill="none" stroke="#ff0000" stroke-width="0.53" stroke-dasharray="5,2" d="M382.38,-294.15C392.99,-292.91 400,-290.53 400,-287 400,-284.85 397.4,-283.13 392.96,-281.83"/>
<polygon fill="#ff0000" stroke="#ff0000" stroke-width="0.53" points="393.64,-278.39 383.17,-280 392.36,-285.27 393.64,-278.39"/>
<text text-anchor="middle" x="403.5" y="-283.3" font-family="Times,serif" font-size="14.00">2</text>
</g>
<!-- Cancel Goods Receipt&#45;&gt;end_node -->
<g id="edge39" class="edge">
<title>Cancel Goods Receipt&#45;&gt;end_node</title>
<path fill="none" stroke="#ff0000" stroke-width="0.61" stroke-dasharray="5,2" d="M293.9,-268.74C278.4,-224.93 237.38,-108.91 217.75,-53.41"/>
<polygon fill="#ff0000" stroke="#ff0000" stroke-width="0.61" points="221.07,-52.29 214.44,-44.03 214.47,-54.62 221.07,-52.29"/>
<text text-anchor="middle" x="260.5" y="-152.8" font-family="Times,serif" font-size="14.00">5</text>
</g>
<!-- Receive Order Confirmation&#45;&gt;Record Goods Receipt -->
<g id="edge18" class="edge">
<title>Receive Order Confirmation&#45;&gt;Record Goods Receipt</title>
<path fill="none" stroke="#ff0000" stroke-width="0.55" stroke-dasharray="5,2" d="M260.82,-658.97C265.49,-642.45 272.66,-617.12 278.16,-597.7"/>
<polygon fill="#ff0000" stroke="#ff0000" stroke-width="0.55" points="281.51,-598.72 280.86,-588.15 274.77,-596.82 281.51,-598.72"/>
<text text-anchor="middle" x="279.5" y="-619.3" font-family="Times,serif" font-size="14.00">3</text>
</g>
<!-- Receive Order Confirmation&#45;&gt;Change Quantity -->
<g id="edge17" class="edge">
<title>Receive Order Confirmation&#45;&gt;Change Quantity</title>
<path fill="none" stroke="#ff0000" stroke-width="0.61" stroke-dasharray="5,2" d="M237.81,-658.56C221.25,-641.71 197.26,-614.72 183,-587 170.61,-562.9 163.27,-532.75 159.24,-511.13"/>
<polygon fill="#ff0000" stroke="#ff0000" stroke-width="0.61" points="162.69,-510.54 157.53,-501.28 155.79,-511.74 162.69,-510.54"/>
<text text-anchor="middle" x="186.5" y="-565.3" font-family="Times,serif" font-size="14.00">5</text>
</g>
<!-- Record Invoice Receipt -->
<g id="node10" class="node">
<title>Record Invoice Receipt</title>
<polygon fill="#fefeff" stroke="black" points="720,-218 556,-218 556,-182 720,-182 720,-218"/>
<text text-anchor="middle" x="638" y="-196.3" font-family="Times,serif" font-size="14.00">Record Invoice Receipt (2)</text>
</g>
<!-- Vendor creates invoice&#45;&gt;Record Invoice Receipt -->
<g id="edge20" class="edge">
<title>Vendor creates invoice&#45;&gt;Record Invoice Receipt</title>
<path fill="none" stroke="#ff0000" stroke-width="0.5" stroke-dasharray="5,2" d="M574.99,-268.8C586.37,-256.55 601.85,-239.9 614.61,-226.16"/>
<polygon fill="#ff0000" stroke="#ff0000" stroke-width="0.5" points="617.01,-228.73 621.25,-219.02 611.88,-223.96 617.01,-228.73"/>
<text text-anchor="middle" x="606.5" y="-239.8" font-family="Times,serif" font-size="14.00">1</text>
</g>
<!-- Remove Payment Block -->
<g id="node11" class="node">
<title>Remove Payment Block</title>
<polygon fill="#ffffff" stroke="black" points="815,-131 645,-131 645,-95 815,-95 815,-131"/>
<text text-anchor="middle" x="730" y="-109.3" font-family="Times,serif" font-size="14.00">Remove Payment Block (1)</text>
</g>
<!-- Record Invoice Receipt&#45;&gt;Remove Payment Block -->
<g id="edge21" class="edge">
<title>Record Invoice Receipt&#45;&gt;Remove Payment Block</title>
<path fill="none" stroke="#ff0000" stroke-width="0.5" stroke-dasharray="5,2" d="M656.62,-181.8C670.12,-169.32 688.57,-152.28 703.6,-138.4"/>
<polygon fill="#ff0000" stroke="#ff0000" stroke-width="0.5" points="705.57,-141.34 710.54,-131.98 700.82,-136.2 705.57,-141.34"/>
<text text-anchor="middle" x="692.5" y="-152.8" font-family="Times,serif" font-size="14.00">1</text>
</g>
<!-- Cancel Invoice Receipt -->
<g id="node13" class="node">
<title>Cancel Invoice Receipt</title>
<polygon fill="#ffffff" stroke="black" points="626.5,-131 463.5,-131 463.5,-95 626.5,-95 626.5,-131"/>
<text text-anchor="middle" x="545" y="-109.3" font-family="Times,serif" font-size="14.00">Cancel Invoice Receipt (1)</text>
</g>
<!-- Record Invoice Receipt&#45;&gt;Cancel Invoice Receipt -->
<g id="edge24" class="edge">
<title>Record Invoice Receipt&#45;&gt;Cancel Invoice Receipt</title>
<path fill="none" stroke="#ff0000" stroke-width="0.5" stroke-dasharray="5,2" d="M619.18,-181.8C605.53,-169.32 586.88,-152.28 571.69,-138.4"/>
<polygon fill="#ff0000" stroke="#ff0000" stroke-width="0.5" points="574.41,-136.14 564.67,-131.98 569.69,-141.31 574.41,-136.14"/>
<text text-anchor="middle" x="600.5" y="-152.8" font-family="Times,serif" font-size="14.00">1</text>
</g>
<!-- Clear Invoice -->
<g id="node12" class="node">
<title>Clear Invoice</title>
<polygon fill="#ffffff" stroke="black" points="870,-40 760,-40 760,-4 870,-4 870,-40"/>
<text text-anchor="middle" x="815" y="-18.3" font-family="Times,serif" font-size="14.00">Clear Invoice (1)</text>
</g>
<!-- Remove Payment Block&#45;&gt;Clear Invoice -->
<g id="edge22" class="edge">
<title>Remove Payment Block&#45;&gt;Clear Invoice</title>
<path fill="none" stroke="#ff0000" stroke-width="0.5" stroke-dasharray="5,2" d="M746.39,-94.84C759.12,-81.51 776.97,-62.82 791.26,-47.85"/>
<polygon fill="#ff0000" stroke="#ff0000" stroke-width="0.5" points="793.47,-50.61 797.85,-40.96 788.41,-45.77 793.47,-50.61"/>
<text text-anchor="middle" x="780.5" y="-65.8" font-family="Times,serif" font-size="14.00">1</text>
</g>
<!-- Clear Invoice&#45;&gt;Record Invoice Receipt -->
<g id="edge23" class="edge">
<title>Clear Invoice&#45;&gt;Record Invoice Receipt</title>
<path fill="none" stroke="#ff0000" stroke-width="0.5" stroke-dasharray="5,2" d="M822.8,-40.49C831.73,-63.46 842.87,-104.01 824,-131 802.57,-161.65 765.78,-178.53 730.54,-187.81"/>
<polygon fill="#ff0000" stroke="#ff0000" stroke-width="0.5" points="729.79,-184.39 720.91,-190.16 731.45,-191.19 729.79,-184.39"/>
<text text-anchor="middle" x="837.5" y="-109.3" font-family="Times,serif" font-size="14.00">1</text>
</g>
<!-- Cancel Invoice Receipt&#45;&gt;end_node -->
<g id="edge37" class="edge">
<title>Cancel Invoice Receipt&#45;&gt;end_node</title>
<path fill="none" stroke="#ff0000" stroke-width="0.5" stroke-dasharray="5,2" d="M517.49,-94.64C498.84,-83.65 473.26,-70.04 449,-62 376.64,-38.02 287.05,-28.5 239.78,-24.95"/>
<polygon fill="#ff0000" stroke="#ff0000" stroke-width="0.5" points="240.23,-21.47 230.01,-24.26 239.74,-28.46 240.23,-21.47"/>
<text text-anchor="middle" x="487.5" y="-65.8" font-family="Times,serif" font-size="14.00">1</text>
</g>
<!-- Change Price&#45;&gt;Change Delivery Indicator -->
<g id="edge33" class="edge">
<title>Change Price&#45;&gt;Change Delivery Indicator</title>
<path fill="none" stroke="#ff0000" stroke-width="0.58" stroke-dasharray="5,2" d="M593.22,-604.71C590.76,-568.61 580.51,-484.17 538,-431 534.57,-426.71 530.47,-422.87 526.02,-419.44"/>
<polygon fill="#ff0000" stroke="#ff0000" stroke-width="0.58" points="528.09,-416.61 517.86,-413.84 524.13,-422.38 528.09,-416.61"/>
<text text-anchor="middle" x="585.5" y="-521.8" font-family="Times,serif" font-size="14.00">4</text>
</g>
<!-- Delete Purchase Order Item&#45;&gt;end_node -->
<g id="edge40" class="edge">
<title>Delete Purchase Order Item&#45;&gt;end_node</title>
<path fill="none" stroke="#ff0000" stroke-width="0.5" stroke-dasharray="5,2" d="M153.48,-322.67C159.97,-303.75 169,-272.4 169,-244.5 169,-244.5 169,-244.5 169,-112 169,-89.6 179.3,-66.4 189.18,-49.3"/>
<polygon fill="#ff0000" stroke="#ff0000" stroke-width="0.5" points="191.95,-51.48 194.16,-41.12 185.97,-47.84 191.95,-51.48"/>
<text text-anchor="middle" x="172.5" y="-196.3" font-family="Times,serif" font-size="14.00">1</text>
</g>
</g>
</svg>
