<?xml version="1.0" encoding="UTF-8" standalone="no"?>
<!DOCTYPE svg PUBLIC "-//W3C//DTD SVG 1.1//EN"
 "http://www.w3.org/Graphics/SVG/1.1/DTD/svg11.dtd">
<!-- Generated by graphviz version 7.0.5 (0)
 -->
<!-- Title: dfg Pages: 1 -->
<svg width="2451pt" height="877pt"
 viewBox="0.00 0.00 2450.50 877.00" xmlns="http://www.w3.org/2000/svg" xmlns:xlink="http://www.w3.org/1999/xlink">
<g id="graph0" class="graph" transform="scale(1 1) rotate(0) translate(4 873)">
<title>dfg</title>
<polygon fill="white" stroke="none" points="-4,4 -4,-873 2446.5,-873 2446.5,4 -4,4"/>
<!-- start_node -->
<g id="node1" class="node">
<title>start_node</title>
<ellipse fill="none" stroke="black" cx="770" cy="-851" rx="18" ry="18"/>
<text text-anchor="start" x="765.5" y="-847.3" font-family="Times,serif" font-size="14.00">●</text>
</g>
<!-- Vendor creates invoice -->
<g id="node2" class="node">
<title>Vendor creates invoice</title>
<polygon fill="#c4c4ff" stroke="black" points="499.5,-782 332.5,-782 332.5,-746 499.5,-746 499.5,-782"/>
<text text-anchor="middle" x="416" y="-760.3" font-family="Times,serif" font-size="14.00">Vendor creates invoice (31)</text>
</g>
<!-- start_node&#45;&gt;Vendor creates invoice -->
<g id="edge1" class="edge">
<title>start_node&#45;&gt;Vendor creates invoice</title>
<path fill="none" stroke="#ff0000" stroke-width="0.62" stroke-dasharray="5,2" d="M752.45,-845.78C707.02,-834.88 583.32,-805.18 499.27,-784.99"/>
<polygon fill="#ff0000" stroke="#ff0000" stroke-width="0.62" points="500.16,-781.61 489.62,-782.68 498.52,-788.41 500.16,-781.61"/>
<text text-anchor="middle" x="618.5" y="-803.8" font-family="Times,serif" font-size="14.00">2</text>
</g>
<!-- Create Purchase Order Item -->
<g id="node3" class="node">
<title>Create Purchase Order Item</title>
<polygon fill="#e9e9ff" stroke="black" points="1135.5,-587 940.5,-587 940.5,-551 1135.5,-551 1135.5,-587"/>
<text text-anchor="middle" x="1038" y="-565.3" font-family="Times,serif" font-size="14.00">Create Purchase Order Item (12)</text>
</g>
<!-- start_node&#45;&gt;Create Purchase Order Item -->
<g id="edge2" class="edge">
<title>start_node&#45;&gt;Create Purchase Order Item</title>
<path fill="none" stroke="#000000" stroke-width="1.55" d="M785.07,-840.53C833.26,-810.14 981.32,-715.8 996,-695 1016.53,-665.9 1027.62,-626.02 1033.16,-599.2"/>
<polygon fill="#000000" stroke="#000000" stroke-width="1.55" points="1036.57,-599.97 1035.01,-589.49 1029.7,-598.66 1036.57,-599.97"/>
<text text-anchor="middle" x="983" y="-716.8" font-family="Times,serif" font-size="14.00">10</text>
</g>
<!-- Vendor creates invoice&#45;&gt;Vendor creates invoice -->
<g id="edge32" class="edge">
<title>Vendor creates invoice&#45;&gt;Vendor creates invoice</title>
<path fill="none" stroke="#000000" stroke-width="1.09" d="M499.62,-771.15C510.39,-769.91 517.5,-767.53 517.5,-764 517.5,-761.96 515.12,-760.31 511.04,-759.03"/>
<polygon fill="#000000" stroke="#000000" stroke-width="1.09" points="511.71,-755.6 501.23,-757.16 510.4,-762.47 511.71,-755.6"/>
<text text-anchor="middle" x="521" y="-760.3" font-family="Times,serif" font-size="14.00">6</text>
</g>
<!-- SRM -->
<g id="node5" class="node">
<title>SRM</title>
<ellipse fill="none" stroke="black" cx="479" cy="-677" rx="29.8" ry="18"/>
<text text-anchor="middle" x="479" y="-673.3" font-family="Times,serif" font-size="14.00">SRM</text>
</g>
<!-- Vendor creates invoice&#45;&gt;SRM -->
<g id="edge3" class="edge">
<title>Vendor creates invoice&#45;&gt;SRM: Created</title>
<path fill="none" stroke="#ff0000" stroke-width="0.62" stroke-dasharray="5,2" d="M428.75,-745.8C438.01,-733.3 450.67,-716.22 460.97,-702.33"/>
<polygon fill="#ff0000" stroke="#ff0000" stroke-width="0.62" points="463.63,-704.61 466.78,-694.49 458.01,-700.44 463.63,-704.61"/>
<text text-anchor="middle" x="455.5" y="-716.8" font-family="Times,serif" font-size="14.00">2</text>
</g>
<!-- Record Goods Receipt -->
<g id="node12" class="node">
<title>Record Goods Receipt</title>
<polygon fill="#9b9bff" stroke="black" points="855,-500 689,-500 689,-464 855,-464 855,-500"/>
<text text-anchor="middle" x="772" y="-478.3" font-family="Times,serif" font-size="14.00">Record Goods Receipt (52)</text>
</g>
<!-- Vendor creates invoice&#45;&gt;Record Goods Receipt -->
<g id="edge12" class="edge">
<title>Vendor creates invoice&#45;&gt;Record Goods Receipt</title>
<path fill="none" stroke="#000000" stroke-width="2.26" d="M499.96,-758.32C552.27,-753.83 620.52,-745.05 679,-728 712.41,-718.26 719,-710.81 750,-695 793.96,-672.59 822,-683.54 847,-641 873.22,-596.4 831.32,-541.18 800.36,-509.24"/>
<polygon fill="#000000" stroke="#000000" stroke-width="2.26" points="803.16,-507.09 793.61,-502.51 798.22,-512.05 803.16,-507.09"/>
<text text-anchor="middle" x="863" y="-619.3" font-family="Times,serif" font-size="14.00">16</text>
</g>
<!-- Record Invoice Receipt -->
<g id="node14" class="node">
<title>Record Invoice Receipt</title>
<polygon fill="#b8b8ff" stroke="black" points="664.5,-326 493.5,-326 493.5,-290 664.5,-290 664.5,-326"/>
<text text-anchor="middle" x="579" y="-304.3" font-family="Times,serif" font-size="14.00">Record Invoice Receipt (37)</text>
</g>
<!-- Vendor creates invoice&#45;&gt;Record Invoice Receipt -->
<g id="edge35" class="edge">
<title>Vendor creates invoice&#45;&gt;Record Invoice Receipt</title>
<path fill="none" stroke="#000000" stroke-width="0.73" d="M394.37,-745.52C377.53,-729.82 357,-705.12 357,-678 357,-678 357,-678 357,-394 357,-363.5 377.34,-358.81 404,-344 427.81,-330.78 455.9,-322.51 482.52,-317.36"/>
<polygon fill="#000000" stroke="#000000" stroke-width="0.73" points="483.11,-320.81 492.33,-315.59 481.87,-313.92 483.11,-320.81"/>
<text text-anchor="middle" x="360.5" y="-521.8" font-family="Times,serif" font-size="14.00">3</text>
</g>
<!-- Vendor creates debit memo -->
<g id="node15" class="node">
<title>Vendor creates debit memo</title>
<polygon fill="#fdfdff" stroke="black" points="239,-641 53,-641 53,-605 239,-605 239,-641"/>
<text text-anchor="middle" x="146" y="-619.3" font-family="Times,serif" font-size="14.00">Vendor creates debit memo (2)</text>
</g>
<!-- Vendor creates invoice&#45;&gt;Vendor creates debit memo -->
<g id="edge16" class="edge">
<title>Vendor creates invoice&#45;&gt;Vendor creates debit memo</title>
<path fill="none" stroke="#ff0000" stroke-width="0.62" stroke-dasharray="5,2" d="M332.05,-759C299.36,-754.45 262.7,-745.46 233,-728 201.25,-709.33 175.82,-674.64 160.84,-650.48"/>
<polygon fill="#ff0000" stroke="#ff0000" stroke-width="0.62" points="163.87,-648.74 155.73,-641.97 157.87,-652.34 163.87,-648.74"/>
<text text-anchor="middle" x="236.5" y="-716.8" font-family="Times,serif" font-size="14.00">2</text>
</g>
<!-- Clear Invoice -->
<g id="node16" class="node">
<title>Clear Invoice</title>
<polygon fill="#dbdbff" stroke="black" points="430,-131 314,-131 314,-95 430,-95 430,-131"/>
<text text-anchor="middle" x="372" y="-109.3" font-family="Times,serif" font-size="14.00">Clear Invoice (19)</text>
</g>
<!-- Vendor creates invoice&#45;&gt;Clear Invoice -->
<g id="edge41" class="edge">
<title>Vendor creates invoice&#45;&gt;Clear Invoice</title>
<path fill="none" stroke="#ff0000" stroke-width="0.5" stroke-dasharray="5,2" d="M332.32,-762.63C210.84,-759.78 0,-745.17 0,-678 0,-678 0,-678 0,-220 0,-182.4 13.97,-168.7 46,-149 87.69,-123.36 220.47,-116.37 303.15,-114.55"/>
<polygon fill="#ff0000" stroke="#ff0000" stroke-width="0.5" points="303.04,-118.05 312.97,-114.35 302.9,-111.05 303.04,-118.05"/>
<text text-anchor="middle" x="3.5" y="-434.8" font-family="Times,serif" font-size="14.00">1</text>
</g>
<!-- Cancel Invoice Receipt -->
<g id="node19" class="node">
<title>Cancel Invoice Receipt</title>
<polygon fill="#fdfdff" stroke="black" points="343.5,-239 180.5,-239 180.5,-203 343.5,-203 343.5,-239"/>
<text text-anchor="middle" x="262" y="-217.3" font-family="Times,serif" font-size="14.00">Cancel Invoice Receipt (2)</text>
</g>
<!-- Vendor creates invoice&#45;&gt;Cancel Invoice Receipt -->
<g id="edge40" class="edge">
<title>Vendor creates invoice&#45;&gt;Cancel Invoice Receipt</title>
<path fill="none" stroke="#ff0000" stroke-width="0.5" stroke-dasharray="5,2" d="M385.02,-745.61C352.09,-725.24 301.57,-688.21 278,-641 211.32,-507.47 241.18,-319.06 255.72,-249.33"/>
<polygon fill="#ff0000" stroke="#ff0000" stroke-width="0.5" points="259.06,-250.44 257.75,-239.93 252.22,-248.97 259.06,-250.44"/>
<text text-anchor="middle" x="243.5" y="-478.3" font-family="Times,serif" font-size="14.00">1</text>
</g>
<!-- Create Purchase Order Item&#45;&gt;Vendor creates invoice -->
<g id="edge11" class="edge">
<title>Create Purchase Order Item&#45;&gt;Vendor creates invoice</title>
<path fill="none" stroke="#000000" stroke-width="0.85" d="M1025.47,-587.4C1021.46,-593 1017.02,-599.25 1013,-605 975.09,-659.27 986.45,-695.11 929,-728 893.74,-748.19 649.15,-757.36 510.82,-760.98"/>
<polygon fill="#000000" stroke="#000000" stroke-width="0.85" points="511.02,-757.47 501.11,-761.23 511.19,-764.47 511.02,-757.47"/>
<text text-anchor="middle" x="988.5" y="-673.3" font-family="Times,serif" font-size="14.00">4</text>
</g>
<!-- Create Purchase Order Item&#45;&gt;Record Goods Receipt -->
<g id="edge42" class="edge">
<title>Create Purchase Order Item&#45;&gt;Record Goods Receipt</title>
<path fill="none" stroke="#000000" stroke-width="0.73" d="M984.23,-550.56C954.42,-540.91 916.67,-528.74 883,-518 868.52,-513.38 852.96,-508.45 838.21,-503.8"/>
<polygon fill="#000000" stroke="#000000" stroke-width="0.73" points="839.29,-500.47 828.7,-500.8 837.18,-507.14 839.29,-500.47"/>
<text text-anchor="middle" x="929.5" y="-521.8" font-family="Times,serif" font-size="14.00">3</text>
</g>
<!-- Delete Purchase Order Item -->
<g id="node22" class="node">
<title>Delete Purchase Order Item</title>
<polygon fill="#fdfdff" stroke="black" points="1129,-239 941,-239 941,-203 1129,-203 1129,-239"/>
<text text-anchor="middle" x="1035" y="-217.3" font-family="Times,serif" font-size="14.00">Delete Purchase Order Item (2)</text>
</g>
<!-- Create Purchase Order Item&#45;&gt;Delete Purchase Order Item -->
<g id="edge49" class="edge">
<title>Create Purchase Order Item&#45;&gt;Delete Purchase Order Item</title>
<path fill="none" stroke="#ff0000" stroke-width="0.5" stroke-dasharray="5,2" d="M1037.36,-550.75C1036.77,-533.58 1036,-506.47 1036,-483 1036,-483 1036,-483 1036,-307 1036,-287.93 1035.75,-266.47 1035.49,-249.87"/>
<polygon fill="#ff0000" stroke="#ff0000" stroke-width="0.5" points="1038.99,-249.95 1035.33,-240.01 1032,-250.07 1038.99,-249.95"/>
<text text-anchor="middle" x="1039.5" y="-391.3" font-family="Times,serif" font-size="14.00">1</text>
</g>
<!-- end_node -->
<g id="node25" class="node">
<title>end_node</title>
<ellipse fill="none" stroke="black" cx="883" cy="-22" rx="18" ry="18"/>
<ellipse fill="none" stroke="black" cx="883" cy="-22" rx="22" ry="22"/>
<text text-anchor="start" x="878.5" y="-18.3" font-family="Times,serif" font-size="14.00">■</text>
</g>
<!-- Create Purchase Order Item&#45;&gt;end_node -->
<g id="edge59" class="edge">
<title>Create Purchase Order Item&#45;&gt;end_node</title>
<path fill="none" stroke="#000000" stroke-width="0.85" d="M1135.93,-557.93C1179.87,-547.42 1222,-526.11 1222,-483 1222,-483 1222,-483 1222,-112 1222,-49.24 1001.86,-29.83 916.37,-24.66"/>
<polygon fill="#000000" stroke="#000000" stroke-width="0.85" points="916.71,-21.18 906.53,-24.1 916.31,-28.17 916.71,-21.18"/>
<text text-anchor="middle" x="1225.5" y="-304.3" font-family="Times,serif" font-size="14.00">4</text>
</g>
<!-- SRM: Created -->
<g id="node4" class="node">
<title>SRM: Created</title>
<polygon fill="#f5f5ff" stroke="black" points="921.5,-869 806.5,-869 806.5,-833 921.5,-833 921.5,-869"/>
<text text-anchor="middle" x="864" y="-847.3" font-family="Times,serif" font-size="14.00">SRM: Created (6)</text>
</g>
<!-- SRM&#45;&gt;Create Purchase Order Item -->
<g id="edge10" class="edge">
<title>SRM: Change was Transmitted&#45;&gt;Create Purchase Order Item</title>
<path fill="none" stroke="#ff0000" stroke-width="0.62" stroke-dasharray="5,2" d="M508.8,-674.33C586.44,-669.8 790.74,-656.51 817,-641 833.77,-631.09 825.6,-615.52 842,-605 846.2,-602.31 886.49,-594.92 929.46,-587.62"/>
<polygon fill="#ff0000" stroke="#ff0000" stroke-width="0.62" points="929.93,-591.1 939.21,-585.98 928.76,-584.19 929.93,-591.1"/>
<text text-anchor="middle" x="845.5" y="-619.3" font-family="Times,serif" font-size="14.00">2</text>
</g>
<!-- SRM&#45;&gt;SRM -->
<g id="edge4" class="edge">
<title>SRM: Created&#45;&gt;SRM: Complete</title>
<path fill="none" stroke="#000000" stroke-width="0.85" d="M508.94,-678.5C518.91,-678.5 526.9,-678 526.9,-677 526.9,-676.42 524.23,-676.01 520.05,-675.77"/>
<polygon fill="#000000" stroke="#000000" stroke-width="0.85" points="520.3,-672.27 510.22,-675.53 520.14,-679.27 520.3,-672.27"/>
<text text-anchor="middle" x="530.4" y="-673.3" font-family="Times,serif" font-size="14.00">4</text>
</g>
<!-- SRM&#45;&gt;SRM -->
<g id="edge5" class="edge">
<title>SRM: Complete&#45;&gt;SRM: Awaiting Approval</title>
<path fill="none" stroke="#000000" stroke-width="1.09" d="M508.82,-679.79C527.3,-680.46 544.9,-679.53 544.9,-677 544.9,-675 533.94,-674 520.24,-674"/>
<polygon fill="#000000" stroke="#000000" stroke-width="1.09" points="520.39,-670.5 510.46,-674.18 520.52,-677.5 520.39,-670.5"/>
<text text-anchor="middle" x="548.4" y="-673.3" font-family="Times,serif" font-size="14.00">6</text>
</g>
<!-- SRM&#45;&gt;SRM -->
<g id="edge6" class="edge">
<title>SRM: Awaiting Approval&#45;&gt;SRM: Document Completed</title>
<path fill="none" stroke="#000000" stroke-width="1.09" d="M508.67,-680.73C534.94,-682.49 562.9,-681.24 562.9,-677 562.9,-673.37 542.44,-671.94 520.08,-672.7"/>
<polygon fill="#000000" stroke="#000000" stroke-width="1.09" points="520.12,-669.19 510.31,-673.19 520.47,-676.18 520.12,-669.19"/>
<text text-anchor="middle" x="566.4" y="-673.3" font-family="Times,serif" font-size="14.00">6</text>
</g>
<!-- SRM&#45;&gt;SRM -->
<g id="edge7" class="edge">
<title>SRM: Document Completed&#45;&gt;SRM: In Transfer to Execution Syst.</title>
<path fill="none" stroke="#000000" stroke-width="1.09" d="M508.21,-681.4C541.89,-684.53 580.9,-683.06 580.9,-677 580.9,-671.62 550.22,-669.86 519.79,-671.71"/>
<polygon fill="#000000" stroke="#000000" stroke-width="1.09" points="519.55,-668.22 509.85,-672.47 520.08,-675.2 519.55,-668.22"/>
<text text-anchor="middle" x="584.4" y="-673.3" font-family="Times,serif" font-size="14.00">6</text>
</g>
<!-- SRM&#45;&gt;SRM -->
<g id="edge8" class="edge">
<title>SRM: In Transfer to Execution Syst.&#45;&gt;SRM: Ordered</title>
<path fill="none" stroke="#000000" stroke-width="1.09" d="M507.9,-681.93C548.64,-686.57 598.9,-684.93 598.9,-677 598.9,-669.78 557.26,-667.77 519.07,-670.97"/>
<polygon fill="#000000" stroke="#000000" stroke-width="1.09" points="519.14,-667.45 509.53,-671.91 519.83,-674.42 519.14,-667.45"/>
<text text-anchor="middle" x="602.4" y="-673.3" font-family="Times,serif" font-size="14.00">6</text>
</g>
<!-- SRM&#45;&gt;SRM -->
<g id="edge9" class="edge">
<title>SRM: Ordered&#45;&gt;SRM: Change was Transmitted</title>
<path fill="none" stroke="#ff0000" stroke-width="0.62" stroke-dasharray="5,2" d="M507.77,-682.35C555.33,-688.6 616.9,-686.82 616.9,-677 616.9,-667.91 564.13,-665.7 518.56,-670.39"/>
<polygon fill="#ff0000" stroke="#ff0000" stroke-width="0.62" points="518.23,-666.9 508.7,-671.54 519.04,-673.86 518.23,-666.9"/>
<text text-anchor="middle" x="620.4" y="-673.3" font-family="Times,serif" font-size="14.00">2</text>
</g>
<!-- SRM&#45;&gt;SRM -->
<g id="edge19" class="edge">
<title>SRM: Ordered&#45;&gt;SRM: Deleted</title>
<path fill="none" stroke="#000000" stroke-width="0.85" d="M507.71,-682.7C561.93,-690.63 634.9,-688.73 634.9,-677 634.9,-666.05 571.3,-663.66 518.73,-669.85"/>
<polygon fill="#000000" stroke="#000000" stroke-width="0.85" points="518.44,-666.35 508.98,-671.13 519.35,-673.29 518.44,-666.35"/>
<text text-anchor="middle" x="638.4" y="-673.3" font-family="Times,serif" font-size="14.00">4</text>
</g>
<!-- SRM&#45;&gt;SRM -->
<g id="edge31" class="edge">
<title>SRM: In Transfer to Execution Syst.&#45;&gt;SRM: Transfer Failed (E.Sys.)</title>
<path fill="none" stroke="#ff0000" stroke-width="0.62" stroke-dasharray="5,2" d="M507.24,-682.93C568.06,-692.67 652.9,-690.69 652.9,-677 652.9,-664.09 577.39,-661.6 517.79,-669.52"/>
<polygon fill="#ff0000" stroke="#ff0000" stroke-width="0.62" points="517.55,-666.02 508.17,-670.93 518.57,-672.95 517.55,-666.02"/>
<text text-anchor="middle" x="656.4" y="-673.3" font-family="Times,serif" font-size="14.00">2</text>
</g>
<!-- SRM&#45;&gt;Clear Invoice -->
<g id="edge26" class="edge">
<title>SRM: Created&#45;&gt;Clear Invoice</title>
<path fill="none" stroke="#ff0000" stroke-width="0.62" stroke-dasharray="5,2" d="M478.94,-658.72C478.53,-601.25 475.27,-411.49 451,-257 443.32,-208.12 452.41,-189.51 424,-149 421.22,-145.03 417.83,-141.39 414.13,-138.07"/>
<polygon fill="#ff0000" stroke="#ff0000" stroke-width="0.62" points="416.4,-135.4 406.39,-131.92 412.05,-140.88 416.4,-135.4"/>
<text text-anchor="middle" x="472.5" y="-391.3" font-family="Times,serif" font-size="14.00">2</text>
</g>
<!-- Change Price -->
<g id="node18" class="node">
<title>Change Price</title>
<polygon fill="#f9f9ff" stroke="black" points="799.5,-587 690.5,-587 690.5,-551 799.5,-551 799.5,-587"/>
<text text-anchor="middle" x="745" y="-565.3" font-family="Times,serif" font-size="14.00">Change Price (4)</text>
</g>
<!-- SRM&#45;&gt;Change Price -->
<g id="edge20" class="edge">
<title>SRM: Deleted&#45;&gt;Change Price</title>
<path fill="none" stroke="#000000" stroke-width="0.85" d="M507,-670.12C533.3,-664.18 573.51,-654.03 607,-641 641.66,-627.51 679.07,-607.93 706.18,-592.74"/>
<polygon fill="#000000" stroke="#000000" stroke-width="0.85" points="707.58,-595.97 714.56,-588 704.13,-589.88 707.58,-595.97"/>
<text text-anchor="middle" x="687.5" y="-619.3" font-family="Times,serif" font-size="14.00">4</text>
</g>
<!-- SRM&#45;&gt;end_node -->
<g id="edge53" class="edge">
<title>SRM: Transfer Failed (E.Sys.)&#45;&gt;end_node</title>
<path fill="none" stroke="#ff0000" stroke-width="0.62" stroke-dasharray="5,2" d="M508.61,-673.89C550.8,-670.28 630.28,-661.25 695,-641 748.12,-624.38 766.24,-623.8 808,-587 842.5,-556.6 840.18,-539.33 864,-500 917.46,-411.74 1002.49,-385.33 963,-290 958.67,-279.55 951.2,-281.46 945,-272 925.83,-242.76 909.68,-164.94 902,-131 896.24,-105.54 891.2,-76.38 887.76,-54.78"/>
<polygon fill="#ff0000" stroke="#ff0000" stroke-width="0.62" points="891.26,-54.49 886.26,-45.15 884.34,-55.57 891.26,-54.49"/>
<text text-anchor="middle" x="976.5" y="-347.8" font-family="Times,serif" font-size="14.00">2</text>
</g>
<!-- SRM: Complete -->
<g id="node6" class="node">
<title>SRM: Complete</title>
<polygon fill="#f5f5ff" stroke="black" points="1066,-869 940,-869 940,-833 1066,-833 1066,-869"/>
<text text-anchor="middle" x="1003" y="-847.3" font-family="Times,serif" font-size="14.00">SRM: Complete (6)</text>
</g>
<!-- SRM: Awaiting Approval -->
<g id="node7" class="node">
<title>SRM: Awaiting Approval</title>
<polygon fill="#f5f5ff" stroke="black" points="1260,-869 1084,-869 1084,-833 1260,-833 1260,-869"/>
<text text-anchor="middle" x="1172" y="-847.3" font-family="Times,serif" font-size="14.00">SRM: Awaiting Approval (6)</text>
</g>
<!-- SRM: Document Completed -->
<g id="node8" class="node">
<title>SRM: Document Completed</title>
<polygon fill="#f5f5ff" stroke="black" points="1472,-869 1278,-869 1278,-833 1472,-833 1472,-869"/>
<text text-anchor="middle" x="1375" y="-847.3" font-family="Times,serif" font-size="14.00">SRM: Document Completed (6)</text>
</g>
<!-- SRM: In Transfer to Execution Syst. -->
<g id="node9" class="node">
<title>SRM: In Transfer to Execution Syst.</title>
<polygon fill="#f1f1ff" stroke="black" points="1726,-869 1490,-869 1490,-833 1726,-833 1726,-869"/>
<text text-anchor="middle" x="1608" y="-847.3" font-family="Times,serif" font-size="14.00">SRM: In Transfer to Execution Syst. (8)</text>
</g>
<!-- SRM: Ordered -->
<g id="node10" class="node">
<title>SRM: Ordered</title>
<polygon fill="#f5f5ff" stroke="black" points="1861.5,-869 1744.5,-869 1744.5,-833 1861.5,-833 1861.5,-869"/>
<text text-anchor="middle" x="1803" y="-847.3" font-family="Times,serif" font-size="14.00">SRM: Ordered (6)</text>
</g>
<!-- SRM: Change was Transmitted -->
<g id="node11" class="node">
<title>SRM: Change was Transmitted</title>
<polygon fill="#fdfdff" stroke="black" points="2088,-869 1880,-869 1880,-833 2088,-833 2088,-869"/>
<text text-anchor="middle" x="1984" y="-847.3" font-family="Times,serif" font-size="14.00">SRM: Change was Transmitted (2)</text>
</g>
<!-- Record Service Entry Sheet -->
<g id="node13" class="node">
<title>Record Service Entry Sheet</title>
<polygon fill="#a2a2ff" stroke="black" points="868,-413 674,-413 674,-377 868,-377 868,-413"/>
<text text-anchor="middle" x="771" y="-391.3" font-family="Times,serif" font-size="14.00">Record Service Entry Sheet (48)</text>
</g>
<!-- Record Goods Receipt&#45;&gt;Record Service Entry Sheet -->
<g id="edge13" class="edge">
<title>Record Goods Receipt&#45;&gt;Record Service Entry Sheet</title>
<path fill="none" stroke="#000000" stroke-width="6" d="M761.12,-463.83C758.22,-458.35 755.48,-452.11 754,-446 752.62,-440.3 752.99,-434.33 754.32,-428.58"/>
<polygon fill="#000000" stroke="#000000" stroke-width="6" points="759.17,-430.61 757.72,-419.41 749.32,-426.96 759.17,-430.61"/>
<text text-anchor="middle" x="761" y="-434.8" font-family="Times,serif" font-size="14.00">48</text>
</g>
<!-- Record Goods Receipt&#45;&gt;Record Invoice Receipt -->
<g id="edge51" class="edge">
<title>Record Goods Receipt&#45;&gt;Record Invoice Receipt</title>
<path fill="none" stroke="#ff0000" stroke-width="0.5" stroke-dasharray="5,2" d="M688.69,-473.7C668.27,-468.49 647.78,-459.93 632,-446 615.2,-431.16 596.47,-372.09 586.4,-336.54"/>
<polygon fill="#ff0000" stroke="#ff0000" stroke-width="0.5" points="589.81,-335.76 583.76,-327.06 583.07,-337.64 589.81,-335.76"/>
<text text-anchor="middle" x="616.5" y="-391.3" font-family="Times,serif" font-size="14.00">1</text>
</g>
<!-- Cancel Goods Receipt -->
<g id="node21" class="node">
<title>Cancel Goods Receipt</title>
<polygon fill="#dfdfff" stroke="black" points="922,-326 758,-326 758,-290 922,-290 922,-326"/>
<text text-anchor="middle" x="840" y="-304.3" font-family="Times,serif" font-size="14.00">Cancel Goods Receipt (17)</text>
</g>
<!-- Record Goods Receipt&#45;&gt;Cancel Goods Receipt -->
<g id="edge45" class="edge">
<title>Record Goods Receipt&#45;&gt;Cancel Goods Receipt</title>
<path fill="none" stroke="#000000" stroke-width="0.73" d="M818.06,-463.61C840.1,-452.68 864.39,-436.18 877,-413 890.64,-387.92 875.88,-356.82 861.15,-335.19"/>
<polygon fill="#000000" stroke="#000000" stroke-width="0.73" points="864.05,-333.22 855.36,-327.16 858.37,-337.32 864.05,-333.22"/>
<text text-anchor="middle" x="886.5" y="-391.3" font-family="Times,serif" font-size="14.00">3</text>
</g>
<!-- Record Service Entry Sheet&#45;&gt;Vendor creates invoice -->
<g id="edge34" class="edge">
<title>Record Service Entry Sheet&#45;&gt;Vendor creates invoice</title>
<path fill="none" stroke="#ff0000" stroke-width="0.62" stroke-dasharray="5,2" d="M813.41,-413.4C853.56,-432.46 911.4,-467.22 937,-518 944.1,-532.08 932.46,-537.7 924,-551 899.45,-589.62 903.6,-606.1 874,-641 849.04,-670.43 839.79,-676.35 806,-695 767.24,-716.4 755.13,-718.01 712,-728 645.56,-743.39 569.07,-752.21 510.5,-757.15"/>
<polygon fill="#ff0000" stroke="#ff0000" stroke-width="0.62" points="510.39,-753.65 500.71,-757.95 510.96,-760.62 510.39,-753.65"/>
<text text-anchor="middle" x="927.5" y="-565.3" font-family="Times,serif" font-size="14.00">2</text>
</g>
<!-- Record Service Entry Sheet&#45;&gt;SRM -->
<g id="edge48" class="edge">
<title>Record Service Entry Sheet&#45;&gt;SRM: Created</title>
<path fill="none" stroke="#ff0000" stroke-width="0.5" stroke-dasharray="5,2" d="M744.09,-413.39C725.18,-426.25 699.82,-444.78 680,-464 607.79,-534.01 615.07,-575.2 539,-641 530.65,-648.22 520.61,-654.75 511.15,-660.16"/>
<polygon fill="#ff0000" stroke="#ff0000" stroke-width="0.5" points="509.72,-656.95 502.63,-664.82 513.08,-663.09 509.72,-656.95"/>
<text text-anchor="middle" x="637.5" y="-521.8" font-family="Times,serif" font-size="14.00">1</text>
</g>
<!-- Record Service Entry Sheet&#45;&gt;Record Goods Receipt -->
<g id="edge33" class="edge">
<title>Record Service Entry Sheet&#45;&gt;Record Goods Receipt</title>
<path fill="none" stroke="#000000" stroke-width="2.84" d="M771.21,-413.47C771.33,-423.94 771.49,-437.55 771.63,-449.82"/>
<polygon fill="#000000" stroke="#000000" stroke-width="2.84" points="768.13,-449.54 771.75,-459.5 775.13,-449.46 768.13,-449.54"/>
<text text-anchor="middle" x="779" y="-434.8" font-family="Times,serif" font-size="14.00">21</text>
</g>
<!-- Record Service Entry Sheet&#45;&gt;Record Invoice Receipt -->
<g id="edge14" class="edge">
<title>Record Service Entry Sheet&#45;&gt;Record Invoice Receipt</title>
<path fill="none" stroke="#000000" stroke-width="2.84" d="M731.68,-376.59C702.69,-363.76 662.96,-346.17 631.29,-332.15"/>
<polygon fill="#000000" stroke="#000000" stroke-width="2.84" points="632.76,-328.97 622.2,-328.12 629.92,-335.37 632.76,-328.97"/>
<text text-anchor="middle" x="694" y="-347.8" font-family="Times,serif" font-size="14.00">21</text>
</g>
<!-- Record Service Entry Sheet&#45;&gt;Cancel Goods Receipt -->
<g id="edge43" class="edge">
<title>Record Service Entry Sheet&#45;&gt;Cancel Goods Receipt</title>
<path fill="none" stroke="#000000" stroke-width="0.73" d="M784.96,-376.8C794.72,-364.78 807.92,-348.52 818.95,-334.94"/>
<polygon fill="#000000" stroke="#000000" stroke-width="0.73" points="821.54,-337.3 825.12,-327.33 816.1,-332.89 821.54,-337.3"/>
<text text-anchor="middle" x="813.5" y="-347.8" font-family="Times,serif" font-size="14.00">3</text>
</g>
<!-- Record Invoice Receipt&#45;&gt;Vendor creates invoice -->
<g id="edge15" class="edge">
<title>Record Invoice Receipt&#45;&gt;Vendor creates invoice</title>
<path fill="none" stroke="#000000" stroke-width="1.2" d="M493.2,-316.44C445.23,-325.85 395,-346.94 395,-394 395,-678 395,-678 395,-678 395,-697.33 400.18,-718.42 405.39,-734.76"/>
<polygon fill="#000000" stroke="#000000" stroke-width="1.2" points="402,-735.66 408.54,-744 408.63,-733.41 402,-735.66"/>
<text text-anchor="middle" x="398.5" y="-521.8" font-family="Times,serif" font-size="14.00">7</text>
</g>
<!-- Record Invoice Receipt&#45;&gt;SRM -->
<g id="edge25" class="edge">
<title>Record Invoice Receipt&#45;&gt;SRM: Created</title>
<path fill="none" stroke="#ff0000" stroke-width="0.62" stroke-dasharray="5,2" d="M573.92,-326.42C572.31,-332.02 570.55,-338.27 569,-344 533.39,-475.52 535.28,-511.47 493,-641 492.15,-643.61 491.2,-646.31 490.21,-648.99"/>
<polygon fill="#ff0000" stroke="#ff0000" stroke-width="0.62" points="486.99,-647.61 486.62,-658.2 493.51,-650.15 486.99,-647.61"/>
<text text-anchor="middle" x="543.5" y="-478.3" font-family="Times,serif" font-size="14.00">2</text>
</g>
<!-- Record Invoice Receipt&#45;&gt;Record Goods Receipt -->
<g id="edge37" class="edge">
<title>Record Invoice Receipt&#45;&gt;Record Goods Receipt</title>
<path fill="none" stroke="#ff0000" stroke-width="0.62" stroke-dasharray="5,2" d="M575.54,-326.5C570.6,-357.28 565.93,-420.29 604,-446 625.81,-460.73 652.57,-469.46 678.26,-474.58"/>
<polygon fill="#ff0000" stroke="#ff0000" stroke-width="0.62" points="677.43,-477.99 687.89,-476.33 678.68,-471.1 677.43,-477.99"/>
<text text-anchor="middle" x="583.5" y="-391.3" font-family="Times,serif" font-size="14.00">2</text>
</g>
<!-- Record Invoice Receipt&#45;&gt;Record Invoice Receipt -->
<g id="edge36" class="edge">
<title>Record Invoice Receipt&#45;&gt;Record Invoice Receipt</title>
<path fill="none" stroke="#000000" stroke-width="1.55" d="M664.66,-315.1C675.42,-313.85 682.5,-311.48 682.5,-308 682.5,-306.1 680.38,-304.52 676.7,-303.29"/>
<polygon fill="#000000" stroke="#000000" stroke-width="1.55" points="677.46,-299.87 666.97,-301.35 676.1,-306.73 677.46,-299.87"/>
<text text-anchor="middle" x="689.5" y="-304.3" font-family="Times,serif" font-size="14.00">10</text>
</g>
<!-- Record Invoice Receipt&#45;&gt;Clear Invoice -->
<g id="edge29" class="edge">
<title>Record Invoice Receipt&#45;&gt;Clear Invoice</title>
<path fill="none" stroke="#000000" stroke-width="1.79" d="M574.77,-289.59C565.92,-256.97 542.34,-186.56 496,-149 480.75,-136.64 461.38,-128.64 442.5,-123.46"/>
<polygon fill="#000000" stroke="#000000" stroke-width="1.79" points="443.4,-120.08 432.85,-121.1 441.73,-126.88 443.4,-120.08"/>
<text text-anchor="middle" x="564" y="-217.3" font-family="Times,serif" font-size="14.00">12</text>
</g>
<!-- Record Invoice Receipt&#45;&gt;Cancel Invoice Receipt -->
<g id="edge22" class="edge">
<title>Record Invoice Receipt&#45;&gt;Cancel Invoice Receipt</title>
<path fill="none" stroke="#ff0000" stroke-width="0.5" stroke-dasharray="5,2" d="M514.09,-289.59C462.78,-275.84 391.09,-256.61 337.27,-242.18"/>
<polygon fill="#ff0000" stroke="#ff0000" stroke-width="0.5" points="338.4,-238.86 327.83,-239.65 336.58,-245.62 338.4,-238.86"/>
<text text-anchor="middle" x="443.5" y="-260.8" font-family="Times,serif" font-size="14.00">1</text>
</g>
<!-- Remove Payment Block -->
<g id="node24" class="node">
<title>Remove Payment Block</title>
<polygon fill="#ffffff" stroke="black" points="718,-185 548,-185 548,-149 718,-149 718,-185"/>
<text text-anchor="middle" x="633" y="-163.3" font-family="Times,serif" font-size="14.00">Remove Payment Block (1)</text>
</g>
<!-- Record Invoice Receipt&#45;&gt;Remove Payment Block -->
<g id="edge52" class="edge">
<title>Record Invoice Receipt&#45;&gt;Remove Payment Block</title>
<path fill="none" stroke="#ff0000" stroke-width="0.5" stroke-dasharray="5,2" d="M585.73,-289.68C594.96,-265.93 611.62,-223.03 622.5,-195.03"/>
<polygon fill="#ff0000" stroke="#ff0000" stroke-width="0.5" points="625.72,-196.4 626.08,-185.81 619.2,-193.86 625.72,-196.4"/>
<text text-anchor="middle" x="602.5" y="-260.8" font-family="Times,serif" font-size="14.00">1</text>
</g>
<!-- Record Invoice Receipt&#45;&gt;end_node -->
<g id="edge54" class="edge">
<title>Record Invoice Receipt&#45;&gt;end_node</title>
<path fill="none" stroke="#ff0000" stroke-width="0.62" stroke-dasharray="5,2" d="M601.74,-289.58C631.39,-266.58 684.48,-224.36 727,-185 777.5,-138.25 832.41,-79.09 861.72,-46.76"/>
<polygon fill="#ff0000" stroke="#ff0000" stroke-width="0.62" points="864.21,-49.22 868.31,-39.46 859.01,-44.53 864.21,-49.22"/>
<text text-anchor="middle" x="766.5" y="-163.3" font-family="Times,serif" font-size="14.00">2</text>
</g>
<!-- Vendor creates debit memo&#45;&gt;Clear Invoice -->
<g id="edge17" class="edge">
<title>Vendor creates debit memo&#45;&gt;Clear Invoice</title>
<path fill="none" stroke="#ff0000" stroke-width="0.62" stroke-dasharray="5,2" d="M136.4,-604.63C126.97,-585.93 114,-555 114,-526.5 114,-526.5 114,-526.5 114,-220 114,-186.69 112.45,-170.37 138,-149 162.4,-128.59 242.9,-120.07 302.71,-116.52"/>
<polygon fill="#ff0000" stroke="#ff0000" stroke-width="0.62" points="302.9,-120.01 312.69,-115.96 302.51,-113.02 302.9,-120.01"/>
<text text-anchor="middle" x="117.5" y="-391.3" font-family="Times,serif" font-size="14.00">2</text>
</g>
<!-- Clear Invoice&#45;&gt;Vendor creates invoice -->
<g id="edge38" class="edge">
<title>Clear Invoice&#45;&gt;Vendor creates invoice</title>
<path fill="none" stroke="#000000" stroke-width="1.32" d="M313.75,-117.63C248.27,-122.44 146.56,-132.33 112,-149 70.94,-168.79 38,-174.42 38,-220 38,-678 38,-678 38,-678 38,-735.82 208.47,-754.31 320.45,-760.23"/>
<polygon fill="#000000" stroke="#000000" stroke-width="1.32" points="319.95,-763.71 330.12,-760.71 320.3,-756.71 319.95,-763.71"/>
<text text-anchor="middle" x="41.5" y="-434.8" font-family="Times,serif" font-size="14.00">8</text>
</g>
<!-- Clear Invoice&#45;&gt;SRM -->
<g id="edge18" class="edge">
<title>Clear Invoice&#45;&gt;SRM: Created</title>
<path fill="none" stroke="#ff0000" stroke-width="0.5" stroke-dasharray="5,2" d="M313.69,-122.36C266.29,-132.56 202.33,-154.86 171,-203 108.41,-299.17 279,-322.76 279,-437.5 279,-570 279,-570 279,-570 279,-603.6 279.5,-619.12 305,-641 324.71,-657.91 393.93,-667.73 438.9,-672.46"/>
<polygon fill="#ff0000" stroke="#ff0000" stroke-width="0.5" points="438.43,-675.93 448.73,-673.45 439.13,-668.97 438.43,-675.93"/>
<text text-anchor="middle" x="279.5" y="-391.3" font-family="Times,serif" font-size="14.00">1</text>
</g>
<!-- Clear Invoice&#45;&gt;SRM -->
<g id="edge27" class="edge">
<title>Clear Invoice&#45;&gt;SRM: Complete</title>
<path fill="none" stroke="#ff0000" stroke-width="0.62" stroke-dasharray="5,2" d="M369.32,-131.39C361.57,-181.98 339.47,-328.62 336,-377 331.52,-439.51 335.22,-455.33 335,-518 334.98,-524.67 332.7,-526.74 335,-533 355.84,-589.6 413.21,-634.45 448.93,-657.96"/>
<polygon fill="#ff0000" stroke="#ff0000" stroke-width="0.62" points="446.85,-660.78 457.16,-663.23 450.63,-654.89 446.85,-660.78"/>
<text text-anchor="middle" x="339.5" y="-391.3" font-family="Times,serif" font-size="14.00">2</text>
</g>
<!-- Clear Invoice&#45;&gt;SRM -->
<g id="edge30" class="edge">
<title>Clear Invoice&#45;&gt;SRM: In Transfer to Execution Syst.</title>
<path fill="none" stroke="#ff0000" stroke-width="0.62" stroke-dasharray="5,2" d="M378.37,-131.26C395.45,-179.15 441,-318.05 441,-437.5 441,-570 441,-570 441,-570 441,-598.73 453.52,-629.4 464.19,-650.32"/>
<polygon fill="#ff0000" stroke="#ff0000" stroke-width="0.62" points="460.99,-651.75 468.78,-658.93 467.16,-648.46 460.99,-651.75"/>
<text text-anchor="middle" x="444.5" y="-391.3" font-family="Times,serif" font-size="14.00">2</text>
</g>
<!-- Clear Invoice&#45;&gt;Record Goods Receipt -->
<g id="edge39" class="edge">
<title>Clear Invoice&#45;&gt;Record Goods Receipt</title>
<path fill="none" stroke="#000000" stroke-width="0.85" d="M430.28,-115.69C524.08,-119.03 700.04,-128.03 719,-149 750.38,-183.7 730.89,-320.71 704,-359 693.03,-374.62 675.29,-360.92 665,-377 656.38,-390.48 657.3,-398.98 665,-413 675.92,-432.89 695.4,-447.78 714.77,-458.48"/>
<polygon fill="#000000" stroke="#000000" stroke-width="0.85" points="712.9,-461.46 723.39,-462.96 716.13,-455.25 712.9,-461.46"/>
<text text-anchor="middle" x="731.5" y="-304.3" font-family="Times,serif" font-size="14.00">4</text>
</g>
<!-- Clear Invoice&#45;&gt;Record Invoice Receipt -->
<g id="edge24" class="edge">
<title>Clear Invoice&#45;&gt;Record Invoice Receipt</title>
<path fill="none" stroke="#ff0000" stroke-width="0.62" stroke-dasharray="5,2" d="M430.34,-126.98C444.15,-132.13 458.04,-139.23 469,-149 514.54,-189.62 490.44,-225.54 530,-272 533.3,-275.87 537.12,-279.54 541.14,-282.94"/>
<polygon fill="#ff0000" stroke="#ff0000" stroke-width="0.62" points="538.79,-285.55 548.83,-288.94 543.1,-280.03 538.79,-285.55"/>
<text text-anchor="middle" x="513.5" y="-217.3" font-family="Times,serif" font-size="14.00">2</text>
</g>
<!-- SRM: Deleted -->
<g id="node17" class="node">
<title>SRM: Deleted</title>
<polygon fill="#f9f9ff" stroke="black" points="2221.5,-869 2106.5,-869 2106.5,-833 2221.5,-833 2221.5,-869"/>
<text text-anchor="middle" x="2164" y="-847.3" font-family="Times,serif" font-size="14.00">SRM: Deleted (4)</text>
</g>
<!-- Change Price&#45;&gt;Vendor creates invoice -->
<g id="edge28" class="edge">
<title>Change Price&#45;&gt;Vendor creates invoice</title>
<path fill="none" stroke="#ff0000" stroke-width="0.62" stroke-dasharray="5,2" d="M746.62,-587.22C748.13,-614.11 746.76,-665.99 718,-695 689.23,-724.03 588.04,-742.56 510.64,-752.83"/>
<polygon fill="#ff0000" stroke="#ff0000" stroke-width="0.62" points="510.28,-749.35 500.82,-754.11 511.18,-756.29 510.28,-749.35"/>
<text text-anchor="middle" x="742.5" y="-673.3" font-family="Times,serif" font-size="14.00">2</text>
</g>
<!-- Change Price&#45;&gt;Record Goods Receipt -->
<g id="edge21" class="edge">
<title>Change Price&#45;&gt;Record Goods Receipt</title>
<path fill="none" stroke="#ff0000" stroke-width="0.62" stroke-dasharray="5,2" d="M750.46,-550.8C754.14,-539.24 759.05,-523.75 763.26,-510.5"/>
<polygon fill="#ff0000" stroke="#ff0000" stroke-width="0.62" points="766.48,-511.95 766.17,-501.36 759.81,-509.83 766.48,-511.95"/>
<text text-anchor="middle" x="764.5" y="-521.8" font-family="Times,serif" font-size="14.00">2</text>
</g>
<!-- Cancel Invoice Receipt&#45;&gt;Clear Invoice -->
<g id="edge23" class="edge">
<title>Cancel Invoice Receipt&#45;&gt;Clear Invoice</title>
<path fill="none" stroke="#ff0000" stroke-width="0.62" stroke-dasharray="5,2" d="M279.67,-202.97C297.69,-185.61 325.82,-158.5 346.3,-138.77"/>
<polygon fill="#ff0000" stroke="#ff0000" stroke-width="0.62" points="348.56,-141.45 353.33,-131.99 343.7,-136.41 348.56,-141.45"/>
<text text-anchor="middle" x="337.5" y="-163.3" font-family="Times,serif" font-size="14.00">2</text>
</g>
<!-- SRM: Transfer Failed (E.Sys.) -->
<g id="node20" class="node">
<title>SRM: Transfer Failed (E.Sys.)</title>
<polygon fill="#fdfdff" stroke="black" points="2442.5,-869 2239.5,-869 2239.5,-833 2442.5,-833 2442.5,-869"/>
<text text-anchor="middle" x="2341" y="-847.3" font-family="Times,serif" font-size="14.00">SRM: Transfer Failed (E.Sys.) (2)</text>
</g>
<!-- Cancel Goods Receipt&#45;&gt;Record Goods Receipt -->
<g id="edge47" class="edge">
<title>Cancel Goods Receipt&#45;&gt;Record Goods Receipt</title>
<path fill="none" stroke="#000000" stroke-width="0.85" d="M867.87,-326.17C874.26,-331.23 880.5,-337.25 885,-344 902.15,-369.73 903.85,-383.68 894,-413 886.96,-433.94 869.48,-448.59 849.88,-458.77"/>
<polygon fill="#000000" stroke="#000000" stroke-width="0.85" points="848.5,-455.55 840.97,-463.01 851.51,-461.88 848.5,-455.55"/>
<text text-anchor="middle" x="904.5" y="-391.3" font-family="Times,serif" font-size="14.00">4</text>
</g>
<!-- Cancel Goods Receipt&#45;&gt;Cancel Goods Receipt -->
<g id="edge46" class="edge">
<title>Cancel Goods Receipt&#45;&gt;Cancel Goods Receipt</title>
<path fill="none" stroke="#000000" stroke-width="1.67" d="M922.38,-315.15C932.99,-313.91 940,-311.53 940,-308 940,-306.13 938.02,-304.58 934.58,-303.35"/>
<polygon fill="#000000" stroke="#000000" stroke-width="1.67" points="935.36,-299.94 924.86,-301.36 933.96,-306.79 935.36,-299.94"/>
<text text-anchor="middle" x="947" y="-304.3" font-family="Times,serif" font-size="14.00">11</text>
</g>
<!-- Cancel Goods Receipt&#45;&gt;Delete Purchase Order Item -->
<g id="edge44" class="edge">
<title>Cancel Goods Receipt&#45;&gt;Delete Purchase Order Item</title>
<path fill="none" stroke="#ff0000" stroke-width="0.5" stroke-dasharray="5,2" d="M879.93,-289.59C910.43,-276.3 952.63,-257.91 985.31,-243.66"/>
<polygon fill="#ff0000" stroke="#ff0000" stroke-width="0.5" points="986.66,-246.89 994.43,-239.69 983.86,-240.47 986.66,-246.89"/>
<text text-anchor="middle" x="953.5" y="-260.8" font-family="Times,serif" font-size="14.00">1</text>
</g>
<!-- Cancel Goods Receipt&#45;&gt;end_node -->
<g id="edge56" class="edge">
<title>Cancel Goods Receipt&#45;&gt;end_node</title>
<path fill="none" stroke="#ff0000" stroke-width="0.5" stroke-dasharray="5,2" d="M840.71,-289.54C842.64,-249.04 849.27,-145.8 869,-62 869.73,-58.88 870.64,-55.66 871.63,-52.48"/>
<polygon fill="#ff0000" stroke="#ff0000" stroke-width="0.5" points="874.85,-53.89 874.75,-43.29 868.22,-51.64 874.85,-53.89"/>
<text text-anchor="middle" x="857.5" y="-163.3" font-family="Times,serif" font-size="14.00">1</text>
</g>
<!-- Change Approval for Purchase Order -->
<g id="node23" class="node">
<title>Change Approval for Purchase Order</title>
<polygon fill="#ffffff" stroke="black" points="1150.5,-131 911.5,-131 911.5,-95 1150.5,-95 1150.5,-131"/>
<text text-anchor="middle" x="1031" y="-109.3" font-family="Times,serif" font-size="14.00">Change Approval for Purchase Order (1)</text>
</g>
<!-- Delete Purchase Order Item&#45;&gt;Change Approval for Purchase Order -->
<g id="edge50" class="edge">
<title>Delete Purchase Order Item&#45;&gt;Change Approval for Purchase Order</title>
<path fill="none" stroke="#ff0000" stroke-width="0.5" stroke-dasharray="5,2" d="M1034.36,-202.97C1033.74,-186.53 1032.79,-161.35 1032.06,-141.97"/>
<polygon fill="#ff0000" stroke="#ff0000" stroke-width="0.5" points="1035.56,-141.96 1031.68,-132.1 1028.56,-142.22 1035.56,-141.96"/>
<text text-anchor="middle" x="1037.5" y="-163.3" font-family="Times,serif" font-size="14.00">1</text>
</g>
<!-- Delete Purchase Order Item&#45;&gt;end_node -->
<g id="edge55" class="edge">
<title>Delete Purchase Order Item&#45;&gt;end_node</title>
<path fill="none" stroke="#ff0000" stroke-width="0.5" stroke-dasharray="5,2" d="M1075.03,-202.7C1122.55,-179.71 1191.52,-137.09 1159,-95 1129.17,-56.39 981.77,-34.56 915.44,-26.56"/>
<polygon fill="#ff0000" stroke="#ff0000" stroke-width="0.5" points="916.24,-23.13 905.9,-25.43 915.42,-30.08 916.24,-23.13"/>
<text text-anchor="middle" x="1171.5" y="-109.3" font-family="Times,serif" font-size="14.00">1</text>
</g>
<!-- Change Approval for Purchase Order&#45;&gt;end_node -->
<g id="edge57" class="edge">
<title>Change Approval for Purchase Order&#45;&gt;end_node</title>
<path fill="none" stroke="#ff0000" stroke-width="0.5" stroke-dasharray="5,2" d="M1002.11,-94.63C975.59,-78.68 936.57,-55.21 910.49,-39.53"/>
<polygon fill="#ff0000" stroke="#ff0000" stroke-width="0.5" points="912.54,-36.68 902.17,-34.53 908.94,-42.68 912.54,-36.68"/>
<text text-anchor="middle" x="974.5" y="-65.8" font-family="Times,serif" font-size="14.00">1</text>
</g>
<!-- Remove Payment Block&#45;&gt;end_node -->
<g id="edge58" class="edge">
<title>Remove Payment Block&#45;&gt;end_node</title>
<path fill="none" stroke="#ff0000" stroke-width="0.5" stroke-dasharray="5,2" d="M648.21,-148.71C669.32,-125.73 709.71,-85.31 752,-62 783.37,-44.71 823.3,-34.25 850.78,-28.58"/>
<polygon fill="#ff0000" stroke="#ff0000" stroke-width="0.5" points="851.14,-32.07 860.27,-26.71 849.79,-25.2 851.14,-32.07"/>
<text text-anchor="middle" x="707.5" y="-109.3" font-family="Times,serif" font-size="14.00">1</text>
</g>
</g>
</svg>
