<?xml version="1.0" encoding="UTF-8" standalone="no"?>
<!DOCTYPE svg PUBLIC "-//W3C//DTD SVG 1.1//EN"
 "http://www.w3.org/Graphics/SVG/1.1/DTD/svg11.dtd">
<!-- Generated by graphviz version 7.1.0 (0)
 -->
<!-- Pages: 1 -->
<svg width="3739pt" height="206pt"
 viewBox="0.00 0.00 3739.00 206.00" xmlns="http://www.w3.org/2000/svg" xmlns:xlink="http://www.w3.org/1999/xlink">
<g id="graph0" class="graph" transform="scale(1 1) rotate(0) translate(4 202)">
<polygon fill="white" stroke="none" points="-4,4 -4,-202 3735,-202 3735,4 -4,4"/>
<!-- start_node_var0 -->
<g id="node1" class="node">
<title>start_node_var0</title>
<text text-anchor="middle" x="67.5" y="-14.3" font-family="Times,serif" font-size="14.00">38 traces</text>
</g>
<!-- A_Create Application_var0_step0 -->
<g id="node2" class="node">
<title>A_Create Application_var0_step0</title>
<polygon fill="lightgrey" stroke="black" points="135,-90 0,-90 0,-54 135,-54 135,-90"/>
<text text-anchor="middle" x="67.5" y="-68.3" font-family="Times,serif" font-size="14.00">A_Create Application</text>
</g>
<!-- A_Concept_var0_step1 -->
<g id="node3" class="node">
<title>A_Concept_var0_step1</title>
<polygon fill="lightgrey" stroke="black" points="287,-90 209,-90 209,-54 287,-54 287,-90"/>
<text text-anchor="middle" x="248" y="-68.3" font-family="Times,serif" font-size="14.00">A_Concept</text>
</g>
<!-- A_Create Application_var0_step0&#45;&gt;A_Concept_var0_step1 -->
<g id="edge1" class="edge">
<title>A_Create Application_var0_step0&#45;&gt;A_Concept_var0_step1</title>
<path fill="none" stroke="black" d="M135.47,-72C155.96,-72 178.11,-72 197.23,-72"/>
<polygon fill="black" stroke="black" points="197.19,-75.5 207.19,-72 197.19,-68.5 197.19,-75.5"/>
</g>
<!-- W_Complete application_var0_step2 -->
<g id="node4" class="node">
<title>W_Complete application_var0_step2</title>
<polygon fill="lightgrey" stroke="black" points="515,-90 361,-90 361,-54 515,-54 515,-90"/>
<text text-anchor="middle" x="438" y="-68.3" font-family="Times,serif" font-size="14.00">W_Complete application</text>
</g>
<!-- A_Concept_var0_step1&#45;&gt;W_Complete application_var0_step2 -->
<g id="edge2" class="edge">
<title>A_Concept_var0_step1&#45;&gt;W_Complete application_var0_step2</title>
<path fill="none" stroke="black" d="M287.5,-72C305.43,-72 327.56,-72 349.24,-72"/>
<polygon fill="black" stroke="black" points="349,-75.5 359,-72 349,-68.5 349,-75.5"/>
</g>
<!-- W_Complete application_var0_step3 -->
<g id="node5" class="node">
<title>W_Complete application_var0_step3</title>
<polygon fill="lightgrey" stroke="black" points="705,-90 551,-90 551,-54 705,-54 705,-90"/>
<text text-anchor="middle" x="628" y="-68.3" font-family="Times,serif" font-size="14.00">W_Complete application</text>
</g>
<!-- W_Complete application_var0_step2&#45;&gt;W_Complete application_var0_step3 -->
<g id="edge3" class="edge">
<title>W_Complete application_var0_step2&#45;&gt;W_Complete application_var0_step3</title>
<path fill="none" stroke="black" d="M515.47,-72C523.25,-72 531.21,-72 539.1,-72"/>
<polygon fill="black" stroke="black" points="539.09,-75.5 549.09,-72 539.09,-68.5 539.09,-75.5"/>
</g>
<!-- A_Accepted_var0_step4 -->
<g id="node6" class="node">
<title>A_Accepted_var0_step4</title>
<polygon fill="lightgrey" stroke="black" points="825,-90 741,-90 741,-54 825,-54 825,-90"/>
<text text-anchor="middle" x="783" y="-68.3" font-family="Times,serif" font-size="14.00">A_Accepted</text>
</g>
<!-- W_Complete application_var0_step3&#45;&gt;A_Accepted_var0_step4 -->
<g id="edge4" class="edge">
<title>W_Complete application_var0_step3&#45;&gt;A_Accepted_var0_step4</title>
<path fill="none" stroke="black" d="M705.5,-72C713.54,-72 721.57,-72 729.26,-72"/>
<polygon fill="black" stroke="black" points="729.08,-75.5 739.08,-72 729.08,-68.5 729.08,-75.5"/>
</g>
<!-- O_Create Offer_var0_step5 -->
<g id="node7" class="node">
<title>O_Create Offer_var0_step5</title>
<polygon fill="lightgrey" stroke="black" points="962,-90 861,-90 861,-54 962,-54 962,-90"/>
<text text-anchor="middle" x="911.5" y="-68.3" font-family="Times,serif" font-size="14.00">O_Create Offer</text>
</g>
<!-- A_Accepted_var0_step4&#45;&gt;O_Create Offer_var0_step5 -->
<g id="edge5" class="edge">
<title>A_Accepted_var0_step4&#45;&gt;O_Create Offer_var0_step5</title>
<path fill="none" stroke="black" d="M825.42,-72C833.06,-72 841.19,-72 849.27,-72"/>
<polygon fill="black" stroke="black" points="849.09,-75.5 859.09,-72 849.09,-68.5 849.09,-75.5"/>
</g>
<!-- O_Created_var0_step6 -->
<g id="node8" class="node">
<title>O_Created_var0_step6</title>
<polygon fill="lightgrey" stroke="black" points="1073,-90 998,-90 998,-54 1073,-54 1073,-90"/>
<text text-anchor="middle" x="1035.5" y="-68.3" font-family="Times,serif" font-size="14.00">O_Created</text>
</g>
<!-- O_Create Offer_var0_step5&#45;&gt;O_Created_var0_step6 -->
<g id="edge6" class="edge">
<title>O_Create Offer_var0_step5&#45;&gt;O_Created_var0_step6</title>
<path fill="none" stroke="black" d="M962.47,-72C970.43,-72 978.65,-72 986.56,-72"/>
<polygon fill="black" stroke="black" points="986.35,-75.5 996.35,-72 986.35,-68.5 986.35,-75.5"/>
</g>
<!-- O_Sent (mail and online)_var0_step7 -->
<g id="node9" class="node">
<title>O_Sent (mail and online)_var0_step7</title>
<polygon fill="lightgrey" stroke="black" points="1264,-90 1109,-90 1109,-54 1264,-54 1264,-90"/>
<text text-anchor="middle" x="1186.5" y="-68.3" font-family="Times,serif" font-size="14.00">O_Sent (mail and online)</text>
</g>
<!-- O_Created_var0_step6&#45;&gt;O_Sent (mail and online)_var0_step7 -->
<g id="edge7" class="edge">
<title>O_Created_var0_step6&#45;&gt;O_Sent (mail and online)_var0_step7</title>
<path fill="none" stroke="black" d="M1073.33,-72C1080.74,-72 1088.82,-72 1097.14,-72"/>
<polygon fill="black" stroke="black" points="1097.07,-75.5 1107.07,-72 1097.07,-68.5 1097.07,-75.5"/>
</g>
<!-- W_Complete application_var0_step8 -->
<g id="node10" class="node">
<title>W_Complete application_var0_step8</title>
<polygon fill="lightgrey" stroke="black" points="1454,-90 1300,-90 1300,-54 1454,-54 1454,-90"/>
<text text-anchor="middle" x="1377" y="-68.3" font-family="Times,serif" font-size="14.00">W_Complete application</text>
</g>
<!-- O_Sent (mail and online)_var0_step7&#45;&gt;W_Complete application_var0_step8 -->
<g id="edge8" class="edge">
<title>O_Sent (mail and online)_var0_step7&#45;&gt;W_Complete application_var0_step8</title>
<path fill="none" stroke="black" d="M1264.44,-72C1272.24,-72 1280.2,-72 1288.1,-72"/>
<polygon fill="black" stroke="black" points="1288.1,-75.5 1298.1,-72 1288.1,-68.5 1288.1,-75.5"/>
</g>
<!-- W_Call after offers_var0_step9 -->
<g id="node11" class="node">
<title>W_Call after offers_var0_step9</title>
<polygon fill="lightgrey" stroke="black" points="1613,-90 1490,-90 1490,-54 1613,-54 1613,-90"/>
<text text-anchor="middle" x="1551.5" y="-68.3" font-family="Times,serif" font-size="14.00">W_Call after offers</text>
</g>
<!-- W_Complete application_var0_step8&#45;&gt;W_Call after offers_var0_step9 -->
<g id="edge9" class="edge">
<title>W_Complete application_var0_step8&#45;&gt;W_Call after offers_var0_step9</title>
<path fill="none" stroke="black" d="M1454.41,-72C1462.35,-72 1470.39,-72 1478.27,-72"/>
<polygon fill="black" stroke="black" points="1478.16,-75.5 1488.16,-72 1478.16,-68.5 1478.16,-75.5"/>
</g>
<!-- W_Call after offers_var0_step10 -->
<g id="node12" class="node">
<title>W_Call after offers_var0_step10</title>
<polygon fill="lightgrey" stroke="black" points="1772,-90 1649,-90 1649,-54 1772,-54 1772,-90"/>
<text text-anchor="middle" x="1710.5" y="-68.3" font-family="Times,serif" font-size="14.00">W_Call after offers</text>
</g>
<!-- W_Call after offers_var0_step9&#45;&gt;W_Call after offers_var0_step10 -->
<g id="edge10" class="edge">
<title>W_Call after offers_var0_step9&#45;&gt;W_Call after offers_var0_step10</title>
<path fill="none" stroke="black" d="M1613.2,-72C1621.12,-72 1629.29,-72 1637.37,-72"/>
<polygon fill="black" stroke="black" points="1637.19,-75.5 1647.19,-72 1637.19,-68.5 1637.19,-75.5"/>
</g>
<!-- A_Complete_var0_step11 -->
<g id="node13" class="node">
<title>A_Complete_var0_step11</title>
<polygon fill="lightgrey" stroke="black" points="1894,-90 1808,-90 1808,-54 1894,-54 1894,-90"/>
<text text-anchor="middle" x="1851" y="-68.3" font-family="Times,serif" font-size="14.00">A_Complete</text>
</g>
<!-- W_Call after offers_var0_step10&#45;&gt;A_Complete_var0_step11 -->
<g id="edge11" class="edge">
<title>W_Call after offers_var0_step10&#45;&gt;A_Complete_var0_step11</title>
<path fill="none" stroke="black" d="M1772.25,-72C1780.26,-72 1788.42,-72 1796.3,-72"/>
<polygon fill="black" stroke="black" points="1796.08,-75.5 1806.08,-72 1796.08,-68.5 1796.08,-75.5"/>
</g>
<!-- W_Call after offers_var0_step12 -->
<g id="node14" class="node">
<title>W_Call after offers_var0_step12</title>
<polygon fill="lightgrey" stroke="black" points="2053,-90 1930,-90 1930,-54 2053,-54 2053,-90"/>
<text text-anchor="middle" x="1991.5" y="-68.3" font-family="Times,serif" font-size="14.00">W_Call after offers</text>
</g>
<!-- A_Complete_var0_step11&#45;&gt;W_Call after offers_var0_step12 -->
<g id="edge12" class="edge">
<title>A_Complete_var0_step11&#45;&gt;W_Call after offers_var0_step12</title>
<path fill="none" stroke="black" d="M1894.31,-72C1901.88,-72 1909.96,-72 1918.09,-72"/>
<polygon fill="black" stroke="black" points="1918.07,-75.5 1928.07,-72 1918.07,-68.5 1918.07,-75.5"/>
</g>
<!-- W_Call after offers_var0_step13 -->
<g id="node15" class="node">
<title>W_Call after offers_var0_step13</title>
<polygon fill="lightgrey" stroke="black" points="2212,-90 2089,-90 2089,-54 2212,-54 2212,-90"/>
<text text-anchor="middle" x="2150.5" y="-68.3" font-family="Times,serif" font-size="14.00">W_Call after offers</text>
</g>
<!-- W_Call after offers_var0_step12&#45;&gt;W_Call after offers_var0_step13 -->
<g id="edge13" class="edge">
<title>W_Call after offers_var0_step12&#45;&gt;W_Call after offers_var0_step13</title>
<path fill="none" stroke="black" d="M2053.2,-72C2061.12,-72 2069.29,-72 2077.37,-72"/>
<polygon fill="black" stroke="black" points="2077.19,-75.5 2087.19,-72 2077.19,-68.5 2077.19,-75.5"/>
</g>
<!-- W_Call after offers_var0_step14 -->
<g id="node16" class="node">
<title>W_Call after offers_var0_step14</title>
<polygon fill="lightgrey" stroke="black" points="2371,-90 2248,-90 2248,-54 2371,-54 2371,-90"/>
<text text-anchor="middle" x="2309.5" y="-68.3" font-family="Times,serif" font-size="14.00">W_Call after offers</text>
</g>
<!-- W_Call after offers_var0_step13&#45;&gt;W_Call after offers_var0_step14 -->
<g id="edge14" class="edge">
<title>W_Call after offers_var0_step13&#45;&gt;W_Call after offers_var0_step14</title>
<path fill="none" stroke="black" d="M2212.2,-72C2220.12,-72 2228.29,-72 2236.37,-72"/>
<polygon fill="black" stroke="black" points="2236.19,-75.5 2246.19,-72 2236.19,-68.5 2236.19,-75.5"/>
</g>
<!-- W_Call after offers_var0_step15 -->
<g id="node17" class="node">
<title>W_Call after offers_var0_step15</title>
<polygon fill="lightgrey" stroke="black" points="2530,-90 2407,-90 2407,-54 2530,-54 2530,-90"/>
<text text-anchor="middle" x="2468.5" y="-68.3" font-family="Times,serif" font-size="14.00">W_Call after offers</text>
</g>
<!-- W_Call after offers_var0_step14&#45;&gt;W_Call after offers_var0_step15 -->
<g id="edge15" class="edge">
<title>W_Call after offers_var0_step14&#45;&gt;W_Call after offers_var0_step15</title>
<path fill="none" stroke="black" d="M2371.2,-72C2379.12,-72 2387.29,-72 2395.37,-72"/>
<polygon fill="black" stroke="black" points="2395.19,-75.5 2405.19,-72 2395.19,-68.5 2395.19,-75.5"/>
</g>
<!-- W_Validate application_var0_step16 -->
<g id="node18" class="node">
<title>W_Validate application_var0_step16</title>
<polygon fill="lightgrey" stroke="black" points="2711,-90 2566,-90 2566,-54 2711,-54 2711,-90"/>
<text text-anchor="middle" x="2638.5" y="-68.3" font-family="Times,serif" font-size="14.00">W_Validate application</text>
</g>
<!-- W_Call after offers_var0_step15&#45;&gt;W_Validate application_var0_step16 -->
<g id="edge16" class="edge">
<title>W_Call after offers_var0_step15&#45;&gt;W_Validate application_var0_step16</title>
<path fill="none" stroke="black" d="M2530.15,-72C2538.01,-72 2546.16,-72 2554.31,-72"/>
<polygon fill="black" stroke="black" points="2554.27,-75.5 2564.27,-72 2554.27,-68.5 2554.27,-75.5"/>
</g>
<!-- W_Validate application_var0_step17 -->
<g id="node19" class="node">
<title>W_Validate application_var0_step17</title>
<polygon fill="lightgrey" stroke="black" points="2892,-90 2747,-90 2747,-54 2892,-54 2892,-90"/>
<text text-anchor="middle" x="2819.5" y="-68.3" font-family="Times,serif" font-size="14.00">W_Validate application</text>
</g>
<!-- W_Validate application_var0_step16&#45;&gt;W_Validate application_var0_step17 -->
<g id="edge17" class="edge">
<title>W_Validate application_var0_step16&#45;&gt;W_Validate application_var0_step17</title>
<path fill="none" stroke="black" d="M2711.27,-72C2719.21,-72 2727.33,-72 2735.39,-72"/>
<polygon fill="black" stroke="black" points="2735.2,-75.5 2745.2,-72 2735.2,-68.5 2735.2,-75.5"/>
</g>
<!-- A_Validating_var0_step18 -->
<g id="node20" class="node">
<title>A_Validating_var0_step18</title>
<polygon fill="lightgrey" stroke="black" points="3017,-90 2928,-90 2928,-54 3017,-54 3017,-90"/>
<text text-anchor="middle" x="2972.5" y="-68.3" font-family="Times,serif" font-size="14.00">A_Validating</text>
</g>
<!-- W_Validate application_var0_step17&#45;&gt;A_Validating_var0_step18 -->
<g id="edge18" class="edge">
<title>W_Validate application_var0_step17&#45;&gt;A_Validating_var0_step18</title>
<path fill="none" stroke="black" d="M2892.46,-72C2900.43,-72 2908.45,-72 2916.17,-72"/>
<polygon fill="black" stroke="black" points="2916.1,-75.5 2926.1,-72 2916.1,-68.5 2916.1,-75.5"/>
</g>
<!-- O_Returned_var0_step19 -->
<g id="node21" class="node">
<title>O_Returned_var0_step19</title>
<polygon fill="lightgrey" stroke="black" points="3136,-90 3053,-90 3053,-54 3136,-54 3136,-90"/>
<text text-anchor="middle" x="3094.5" y="-68.3" font-family="Times,serif" font-size="14.00">O_Returned</text>
</g>
<!-- A_Validating_var0_step18&#45;&gt;O_Returned_var0_step19 -->
<g id="edge19" class="edge">
<title>A_Validating_var0_step18&#45;&gt;O_Returned_var0_step19</title>
<path fill="none" stroke="black" d="M3017.16,-72C3025.09,-72 3033.42,-72 3041.56,-72"/>
<polygon fill="black" stroke="black" points="3041.35,-75.5 3051.35,-72 3041.35,-68.5 3041.35,-75.5"/>
</g>
<!-- W_Validate application_var0_step20 -->
<g id="node22" class="node">
<title>W_Validate application_var0_step20</title>
<polygon fill="lightgrey" stroke="black" points="3317,-90 3172,-90 3172,-54 3317,-54 3317,-90"/>
<text text-anchor="middle" x="3244.5" y="-68.3" font-family="Times,serif" font-size="14.00">W_Validate application</text>
</g>
<!-- O_Returned_var0_step19&#45;&gt;W_Validate application_var0_step20 -->
<g id="edge20" class="edge">
<title>O_Returned_var0_step19&#45;&gt;W_Validate application_var0_step20</title>
<path fill="none" stroke="black" d="M3136.33,-72C3143.86,-72 3151.97,-72 3160.23,-72"/>
<polygon fill="black" stroke="black" points="3160.05,-75.5 3170.05,-72 3160.05,-68.5 3160.05,-75.5"/>
</g>
<!-- O_Accepted_var0_step21 -->
<g id="node23" class="node">
<title>O_Accepted_var0_step21</title>
<polygon fill="lightgrey" stroke="black" points="3437,-90 3353,-90 3353,-54 3437,-54 3437,-90"/>
<text text-anchor="middle" x="3395" y="-68.3" font-family="Times,serif" font-size="14.00">O_Accepted</text>
</g>
<!-- W_Validate application_var0_step20&#45;&gt;O_Accepted_var0_step21 -->
<g id="edge21" class="edge">
<title>W_Validate application_var0_step20&#45;&gt;O_Accepted_var0_step21</title>
<path fill="none" stroke="black" d="M3317.14,-72C3325.22,-72 3333.34,-72 3341.11,-72"/>
<polygon fill="black" stroke="black" points="3341.09,-75.5 3351.09,-72 3341.09,-68.5 3341.09,-75.5"/>
</g>
<!-- A_Pending_var0_step22 -->
<g id="node24" class="node">
<title>A_Pending_var0_step22</title>
<polygon fill="lightgrey" stroke="black" points="3550,-90 3473,-90 3473,-54 3550,-54 3550,-90"/>
<text text-anchor="middle" x="3511.5" y="-68.3" font-family="Times,serif" font-size="14.00">A_Pending</text>
</g>
<!-- O_Accepted_var0_step21&#45;&gt;A_Pending_var0_step22 -->
<g id="edge22" class="edge">
<title>O_Accepted_var0_step21&#45;&gt;A_Pending_var0_step22</title>
<path fill="none" stroke="black" d="M3437.34,-72C3445.08,-72 3453.25,-72 3461.21,-72"/>
<polygon fill="black" stroke="black" points="3461.14,-75.5 3471.14,-72 3461.14,-68.5 3461.14,-75.5"/>
</g>
<!-- W_Validate application_var0_step23 -->
<g id="node25" class="node">
<title>W_Validate application_var0_step23</title>
<polygon fill="lightgrey" stroke="black" points="3731,-90 3586,-90 3586,-54 3731,-54 3731,-90"/>
<text text-anchor="middle" x="3658.5" y="-68.3" font-family="Times,serif" font-size="14.00">W_Validate application</text>
</g>
<!-- A_Pending_var0_step22&#45;&gt;W_Validate application_var0_step23 -->
<g id="edge23" class="edge">
<title>A_Pending_var0_step22&#45;&gt;W_Validate application_var0_step23</title>
<path fill="none" stroke="black" d="M3550.22,-72C3557.72,-72 3565.87,-72 3574.21,-72"/>
<polygon fill="black" stroke="black" points="3574.16,-75.5 3584.16,-72 3574.16,-68.5 3574.16,-75.5"/>
</g>
<!-- start_node_var1 -->
<g id="node26" class="node">
<title>start_node_var1</title>
<text text-anchor="middle" x="67.5" y="-122.3" font-family="Times,serif" font-size="14.00">78 traces</text>
</g>
<!-- A_Create Application_var1_step0 -->
<g id="node27" class="node">
<title>A_Create Application_var1_step0</title>
<polygon fill="lightgrey" stroke="black" points="135,-198 0,-198 0,-162 135,-162 135,-198"/>
<text text-anchor="middle" x="67.5" y="-176.3" font-family="Times,serif" font-size="14.00">A_Create Application</text>
</g>
<!-- W_Complete application_var1_step1 -->
<g id="node28" class="node">
<title>W_Complete application_var1_step1</title>
<polygon fill="lightgrey" stroke="black" points="325,-198 171,-198 171,-162 325,-162 325,-198"/>
<text text-anchor="middle" x="248" y="-176.3" font-family="Times,serif" font-size="14.00">W_Complete application</text>
</g>
<!-- A_Create Application_var1_step0&#45;&gt;W_Complete application_var1_step1 -->
<g id="edge24" class="edge">
<title>A_Create Application_var1_step0&#45;&gt;W_Complete application_var1_step1</title>
<path fill="none" stroke="black" d="M135.47,-180C143.27,-180 151.32,-180 159.34,-180"/>
<polygon fill="black" stroke="black" points="159.14,-183.5 169.14,-180 159.14,-176.5 159.14,-183.5"/>
</g>
<!-- W_Complete application_var1_step2 -->
<g id="node29" class="node">
<title>W_Complete application_var1_step2</title>
<polygon fill="lightgrey" stroke="black" points="515,-198 361,-198 361,-162 515,-162 515,-198"/>
<text text-anchor="middle" x="438" y="-176.3" font-family="Times,serif" font-size="14.00">W_Complete application</text>
</g>
<!-- W_Complete application_var1_step1&#45;&gt;W_Complete application_var1_step2 -->
<g id="edge25" class="edge">
<title>W_Complete application_var1_step1&#45;&gt;W_Complete application_var1_step2</title>
<path fill="none" stroke="black" d="M325.47,-180C333.25,-180 341.21,-180 349.1,-180"/>
<polygon fill="black" stroke="black" points="349.09,-183.5 359.09,-180 349.09,-176.5 349.09,-183.5"/>
</g>
<!-- A_Concept_var1_step3 -->
<g id="node30" class="node">
<title>A_Concept_var1_step3</title>
<polygon fill="lightgrey" stroke="black" points="667,-198 589,-198 589,-162 667,-162 667,-198"/>
<text text-anchor="middle" x="628" y="-176.3" font-family="Times,serif" font-size="14.00">A_Concept</text>
</g>
<!-- W_Complete application_var1_step2&#45;&gt;A_Concept_var1_step3 -->
<g id="edge26" class="edge">
<title>W_Complete application_var1_step2&#45;&gt;A_Concept_var1_step3</title>
<path fill="none" stroke="black" d="M515.47,-180C536.34,-180 558.42,-180 577.37,-180"/>
<polygon fill="black" stroke="black" points="577.22,-183.5 587.22,-180 577.22,-176.5 577.22,-183.5"/>
</g>
<!-- A_Accepted_var1_step4 -->
<g id="node31" class="node">
<title>A_Accepted_var1_step4</title>
<polygon fill="lightgrey" stroke="black" points="825,-198 741,-198 741,-162 825,-162 825,-198"/>
<text text-anchor="middle" x="783" y="-176.3" font-family="Times,serif" font-size="14.00">A_Accepted</text>
</g>
<!-- A_Concept_var1_step3&#45;&gt;A_Accepted_var1_step4 -->
<g id="edge27" class="edge">
<title>A_Concept_var1_step3&#45;&gt;A_Accepted_var1_step4</title>
<path fill="none" stroke="black" d="M667.21,-180C685.95,-180 708.81,-180 729.18,-180"/>
<polygon fill="black" stroke="black" points="729,-183.5 739,-180 729,-176.5 729,-183.5"/>
</g>
<!-- O_Create Offer_var1_step5 -->
<g id="node32" class="node">
<title>O_Create Offer_var1_step5</title>
<polygon fill="lightgrey" stroke="black" points="962,-198 861,-198 861,-162 962,-162 962,-198"/>
<text text-anchor="middle" x="911.5" y="-176.3" font-family="Times,serif" font-size="14.00">O_Create Offer</text>
</g>
<!-- A_Accepted_var1_step4&#45;&gt;O_Create Offer_var1_step5 -->
<g id="edge28" class="edge">
<title>A_Accepted_var1_step4&#45;&gt;O_Create Offer_var1_step5</title>
<path fill="none" stroke="black" d="M825.42,-180C833.06,-180 841.19,-180 849.27,-180"/>
<polygon fill="black" stroke="black" points="849.09,-183.5 859.09,-180 849.09,-176.5 849.09,-183.5"/>
</g>
<!-- O_Created_var1_step6 -->
<g id="node33" class="node">
<title>O_Created_var1_step6</title>
<polygon fill="lightgrey" stroke="black" points="1073,-198 998,-198 998,-162 1073,-162 1073,-198"/>
<text text-anchor="middle" x="1035.5" y="-176.3" font-family="Times,serif" font-size="14.00">O_Created</text>
</g>
<!-- O_Create Offer_var1_step5&#45;&gt;O_Created_var1_step6 -->
<g id="edge29" class="edge">
<title>O_Create Offer_var1_step5&#45;&gt;O_Created_var1_step6</title>
<path fill="none" stroke="black" d="M962.47,-180C970.43,-180 978.65,-180 986.56,-180"/>
<polygon fill="black" stroke="black" points="986.35,-183.5 996.35,-180 986.35,-176.5 986.35,-183.5"/>
</g>
<!-- O_Sent (mail and online)_var1_step7 -->
<g id="node34" class="node">
<title>O_Sent (mail and online)_var1_step7</title>
<polygon fill="lightgrey" stroke="black" points="1264,-198 1109,-198 1109,-162 1264,-162 1264,-198"/>
<text text-anchor="middle" x="1186.5" y="-176.3" font-family="Times,serif" font-size="14.00">O_Sent (mail and online)</text>
</g>
<!-- O_Created_var1_step6&#45;&gt;O_Sent (mail and online)_var1_step7 -->
<g id="edge30" class="edge">
<title>O_Created_var1_step6&#45;&gt;O_Sent (mail and online)_var1_step7</title>
<path fill="none" stroke="black" d="M1073.33,-180C1080.74,-180 1088.82,-180 1097.14,-180"/>
<polygon fill="black" stroke="black" points="1097.07,-183.5 1107.07,-180 1097.07,-176.5 1097.07,-183.5"/>
</g>
<!-- W_Complete application_var1_step8 -->
<g id="node35" class="node">
<title>W_Complete application_var1_step8</title>
<polygon fill="lightgrey" stroke="black" points="1454,-198 1300,-198 1300,-162 1454,-162 1454,-198"/>
<text text-anchor="middle" x="1377" y="-176.3" font-family="Times,serif" font-size="14.00">W_Complete application</text>
</g>
<!-- O_Sent (mail and online)_var1_step7&#45;&gt;W_Complete application_var1_step8 -->
<g id="edge31" class="edge">
<title>O_Sent (mail and online)_var1_step7&#45;&gt;W_Complete application_var1_step8</title>
<path fill="none" stroke="black" d="M1264.44,-180C1272.24,-180 1280.2,-180 1288.1,-180"/>
<polygon fill="black" stroke="black" points="1288.1,-183.5 1298.1,-180 1288.1,-176.5 1288.1,-183.5"/>
</g>
<!-- W_Call after offers_var1_step9 -->
<g id="node36" class="node">
<title>W_Call after offers_var1_step9</title>
<polygon fill="lightgrey" stroke="black" points="1613,-198 1490,-198 1490,-162 1613,-162 1613,-198"/>
<text text-anchor="middle" x="1551.5" y="-176.3" font-family="Times,serif" font-size="14.00">W_Call after offers</text>
</g>
<!-- W_Complete application_var1_step8&#45;&gt;W_Call after offers_var1_step9 -->
<g id="edge32" class="edge">
<title>W_Complete application_var1_step8&#45;&gt;W_Call after offers_var1_step9</title>
<path fill="none" stroke="black" d="M1454.41,-180C1462.35,-180 1470.39,-180 1478.27,-180"/>
<polygon fill="black" stroke="black" points="1478.16,-183.5 1488.16,-180 1478.16,-176.5 1478.16,-183.5"/>
</g>
<!-- W_Call after offers_var1_step10 -->
<g id="node37" class="node">
<title>W_Call after offers_var1_step10</title>
<polygon fill="lightgrey" stroke="black" points="1772,-198 1649,-198 1649,-162 1772,-162 1772,-198"/>
<text text-anchor="middle" x="1710.5" y="-176.3" font-family="Times,serif" font-size="14.00">W_Call after offers</text>
</g>
<!-- W_Call after offers_var1_step9&#45;&gt;W_Call after offers_var1_step10 -->
<g id="edge33" class="edge">
<title>W_Call after offers_var1_step9&#45;&gt;W_Call after offers_var1_step10</title>
<path fill="none" stroke="black" d="M1613.2,-180C1621.12,-180 1629.29,-180 1637.37,-180"/>
<polygon fill="black" stroke="black" points="1637.19,-183.5 1647.19,-180 1637.19,-176.5 1637.19,-183.5"/>
</g>
<!-- A_Complete_var1_step11 -->
<g id="node38" class="node">
<title>A_Complete_var1_step11</title>
<polygon fill="lightgrey" stroke="black" points="1894,-198 1808,-198 1808,-162 1894,-162 1894,-198"/>
<text text-anchor="middle" x="1851" y="-176.3" font-family="Times,serif" font-size="14.00">A_Complete</text>
</g>
<!-- W_Call after offers_var1_step10&#45;&gt;A_Complete_var1_step11 -->
<g id="edge34" class="edge">
<title>W_Call after offers_var1_step10&#45;&gt;A_Complete_var1_step11</title>
<path fill="none" stroke="black" d="M1772.25,-180C1780.26,-180 1788.42,-180 1796.3,-180"/>
<polygon fill="black" stroke="black" points="1796.08,-183.5 1806.08,-180 1796.08,-176.5 1796.08,-183.5"/>
</g>
<!-- W_Call after offers_var1_step12 -->
<g id="node39" class="node">
<title>W_Call after offers_var1_step12</title>
<polygon fill="lightgrey" stroke="black" points="2053,-198 1930,-198 1930,-162 2053,-162 2053,-198"/>
<text text-anchor="middle" x="1991.5" y="-176.3" font-family="Times,serif" font-size="14.00">W_Call after offers</text>
</g>
<!-- A_Complete_var1_step11&#45;&gt;W_Call after offers_var1_step12 -->
<g id="edge35" class="edge">
<title>A_Complete_var1_step11&#45;&gt;W_Call after offers_var1_step12</title>
<path fill="none" stroke="black" d="M1894.31,-180C1901.88,-180 1909.96,-180 1918.09,-180"/>
<polygon fill="black" stroke="black" points="1918.07,-183.5 1928.07,-180 1918.07,-176.5 1918.07,-183.5"/>
</g>
<!-- W_Call after offers_var1_step13 -->
<g id="node40" class="node">
<title>W_Call after offers_var1_step13</title>
<polygon fill="lightgrey" stroke="black" points="2212,-198 2089,-198 2089,-162 2212,-162 2212,-198"/>
<text text-anchor="middle" x="2150.5" y="-176.3" font-family="Times,serif" font-size="14.00">W_Call after offers</text>
</g>
<!-- W_Call after offers_var1_step12&#45;&gt;W_Call after offers_var1_step13 -->
<g id="edge36" class="edge">
<title>W_Call after offers_var1_step12&#45;&gt;W_Call after offers_var1_step13</title>
<path fill="none" stroke="black" d="M2053.2,-180C2061.12,-180 2069.29,-180 2077.37,-180"/>
<polygon fill="black" stroke="black" points="2077.19,-183.5 2087.19,-180 2077.19,-176.5 2077.19,-183.5"/>
</g>
<!-- W_Call after offers_var1_step14 -->
<g id="node41" class="node">
<title>W_Call after offers_var1_step14</title>
<polygon fill="lightgrey" stroke="black" points="2371,-198 2248,-198 2248,-162 2371,-162 2371,-198"/>
<text text-anchor="middle" x="2309.5" y="-176.3" font-family="Times,serif" font-size="14.00">W_Call after offers</text>
</g>
<!-- W_Call after offers_var1_step13&#45;&gt;W_Call after offers_var1_step14 -->
<g id="edge37" class="edge">
<title>W_Call after offers_var1_step13&#45;&gt;W_Call after offers_var1_step14</title>
<path fill="none" stroke="black" d="M2212.2,-180C2220.12,-180 2228.29,-180 2236.37,-180"/>
<polygon fill="black" stroke="black" points="2236.19,-183.5 2246.19,-180 2236.19,-176.5 2236.19,-183.5"/>
</g>
<!-- W_Call after offers_var1_step15 -->
<g id="node42" class="node">
<title>W_Call after offers_var1_step15</title>
<polygon fill="lightgrey" stroke="black" points="2530,-198 2407,-198 2407,-162 2530,-162 2530,-198"/>
<text text-anchor="middle" x="2468.5" y="-176.3" font-family="Times,serif" font-size="14.00">W_Call after offers</text>
</g>
<!-- W_Call after offers_var1_step14&#45;&gt;W_Call after offers_var1_step15 -->
<g id="edge38" class="edge">
<title>W_Call after offers_var1_step14&#45;&gt;W_Call after offers_var1_step15</title>
<path fill="none" stroke="black" d="M2371.2,-180C2379.12,-180 2387.29,-180 2395.37,-180"/>
<polygon fill="black" stroke="black" points="2395.19,-183.5 2405.19,-180 2395.19,-176.5 2395.19,-183.5"/>
</g>
<!-- W_Validate application_var1_step16 -->
<g id="node43" class="node">
<title>W_Validate application_var1_step16</title>
<polygon fill="lightgrey" stroke="black" points="2711,-198 2566,-198 2566,-162 2711,-162 2711,-198"/>
<text text-anchor="middle" x="2638.5" y="-176.3" font-family="Times,serif" font-size="14.00">W_Validate application</text>
</g>
<!-- W_Call after offers_var1_step15&#45;&gt;W_Validate application_var1_step16 -->
<g id="edge39" class="edge">
<title>W_Call after offers_var1_step15&#45;&gt;W_Validate application_var1_step16</title>
<path fill="none" stroke="black" d="M2530.15,-180C2538.01,-180 2546.16,-180 2554.31,-180"/>
<polygon fill="black" stroke="black" points="2554.27,-183.5 2564.27,-180 2554.27,-176.5 2554.27,-183.5"/>
</g>
<!-- W_Validate application_var1_step17 -->
<g id="node44" class="node">
<title>W_Validate application_var1_step17</title>
<polygon fill="lightgrey" stroke="black" points="2892,-198 2747,-198 2747,-162 2892,-162 2892,-198"/>
<text text-anchor="middle" x="2819.5" y="-176.3" font-family="Times,serif" font-size="14.00">W_Validate application</text>
</g>
<!-- W_Validate application_var1_step16&#45;&gt;W_Validate application_var1_step17 -->
<g id="edge40" class="edge">
<title>W_Validate application_var1_step16&#45;&gt;W_Validate application_var1_step17</title>
<path fill="none" stroke="black" d="M2711.27,-180C2719.21,-180 2727.33,-180 2735.39,-180"/>
<polygon fill="black" stroke="black" points="2735.2,-183.5 2745.2,-180 2735.2,-176.5 2735.2,-183.5"/>
</g>
<!-- A_Validating_var1_step18 -->
<g id="node45" class="node">
<title>A_Validating_var1_step18</title>
<polygon fill="lightgrey" stroke="black" points="3017,-198 2928,-198 2928,-162 3017,-162 3017,-198"/>
<text text-anchor="middle" x="2972.5" y="-176.3" font-family="Times,serif" font-size="14.00">A_Validating</text>
</g>
<!-- W_Validate application_var1_step17&#45;&gt;A_Validating_var1_step18 -->
<g id="edge41" class="edge">
<title>W_Validate application_var1_step17&#45;&gt;A_Validating_var1_step18</title>
<path fill="none" stroke="black" d="M2892.46,-180C2900.43,-180 2908.45,-180 2916.17,-180"/>
<polygon fill="black" stroke="black" points="2916.1,-183.5 2926.1,-180 2916.1,-176.5 2916.1,-183.5"/>
</g>
<!-- O_Returned_var1_step19 -->
<g id="node46" class="node">
<title>O_Returned_var1_step19</title>
<polygon fill="lightgrey" stroke="black" points="3136,-198 3053,-198 3053,-162 3136,-162 3136,-198"/>
<text text-anchor="middle" x="3094.5" y="-176.3" font-family="Times,serif" font-size="14.00">O_Returned</text>
</g>
<!-- A_Validating_var1_step18&#45;&gt;O_Returned_var1_step19 -->
<g id="edge42" class="edge">
<title>A_Validating_var1_step18&#45;&gt;O_Returned_var1_step19</title>
<path fill="none" stroke="black" d="M3017.16,-180C3025.09,-180 3033.42,-180 3041.56,-180"/>
<polygon fill="black" stroke="black" points="3041.35,-183.5 3051.35,-180 3041.35,-176.5 3041.35,-183.5"/>
</g>
<!-- W_Validate application_var1_step20 -->
<g id="node47" class="node">
<title>W_Validate application_var1_step20</title>
<polygon fill="lightgrey" stroke="black" points="3317,-198 3172,-198 3172,-162 3317,-162 3317,-198"/>
<text text-anchor="middle" x="3244.5" y="-176.3" font-family="Times,serif" font-size="14.00">W_Validate application</text>
</g>
<!-- O_Returned_var1_step19&#45;&gt;W_Validate application_var1_step20 -->
<g id="edge43" class="edge">
<title>O_Returned_var1_step19&#45;&gt;W_Validate application_var1_step20</title>
<path fill="none" stroke="black" d="M3136.33,-180C3143.86,-180 3151.97,-180 3160.23,-180"/>
<polygon fill="black" stroke="black" points="3160.05,-183.5 3170.05,-180 3160.05,-176.5 3160.05,-183.5"/>
</g>
<!-- O_Accepted_var1_step21 -->
<g id="node48" class="node">
<title>O_Accepted_var1_step21</title>
<polygon fill="lightgrey" stroke="black" points="3437,-198 3353,-198 3353,-162 3437,-162 3437,-198"/>
<text text-anchor="middle" x="3395" y="-176.3" font-family="Times,serif" font-size="14.00">O_Accepted</text>
</g>
<!-- W_Validate application_var1_step20&#45;&gt;O_Accepted_var1_step21 -->
<g id="edge44" class="edge">
<title>W_Validate application_var1_step20&#45;&gt;O_Accepted_var1_step21</title>
<path fill="none" stroke="black" d="M3317.14,-180C3325.22,-180 3333.34,-180 3341.11,-180"/>
<polygon fill="black" stroke="black" points="3341.09,-183.5 3351.09,-180 3341.09,-176.5 3341.09,-183.5"/>
</g>
<!-- A_Pending_var1_step22 -->
<g id="node49" class="node">
<title>A_Pending_var1_step22</title>
<polygon fill="lightgrey" stroke="black" points="3550,-198 3473,-198 3473,-162 3550,-162 3550,-198"/>
<text text-anchor="middle" x="3511.5" y="-176.3" font-family="Times,serif" font-size="14.00">A_Pending</text>
</g>
<!-- O_Accepted_var1_step21&#45;&gt;A_Pending_var1_step22 -->
<g id="edge45" class="edge">
<title>O_Accepted_var1_step21&#45;&gt;A_Pending_var1_step22</title>
<path fill="none" stroke="black" d="M3437.34,-180C3445.08,-180 3453.25,-180 3461.21,-180"/>
<polygon fill="black" stroke="black" points="3461.14,-183.5 3471.14,-180 3461.14,-176.5 3461.14,-183.5"/>
</g>
<!-- W_Validate application_var1_step23 -->
<g id="node50" class="node">
<title>W_Validate application_var1_step23</title>
<polygon fill="lightgrey" stroke="black" points="3731,-198 3586,-198 3586,-162 3731,-162 3731,-198"/>
<text text-anchor="middle" x="3658.5" y="-176.3" font-family="Times,serif" font-size="14.00">W_Validate application</text>
</g>
<!-- A_Pending_var1_step22&#45;&gt;W_Validate application_var1_step23 -->
<g id="edge46" class="edge">
<title>A_Pending_var1_step22&#45;&gt;W_Validate application_var1_step23</title>
<path fill="none" stroke="black" d="M3550.22,-180C3557.72,-180 3565.87,-180 3574.21,-180"/>
<polygon fill="black" stroke="black" points="3574.16,-183.5 3584.16,-180 3574.16,-176.5 3574.16,-183.5"/>
</g>
</g>
</svg>
