<?xml version="1.0" encoding="UTF-8" standalone="no"?>
<!DOCTYPE svg PUBLIC "-//W3C//DTD SVG 1.1//EN"
 "http://www.w3.org/Graphics/SVG/1.1/DTD/svg11.dtd">
<!-- Generated by graphviz version 7.1.0 (0)
 -->
<!-- Pages: 1 -->
<svg width="4916pt" height="98pt"
 viewBox="0.00 0.00 4916.00 98.00" xmlns="http://www.w3.org/2000/svg" xmlns:xlink="http://www.w3.org/1999/xlink">
<g id="graph0" class="graph" transform="scale(1 1) rotate(0) translate(4 94)">
<polygon fill="white" stroke="none" points="-4,4 -4,-94 4912,-94 4912,4 -4,4"/>
<!-- start_node_var0 -->
<g id="node1" class="node">
<title>start_node_var0</title>
<text text-anchor="middle" x="67.5" y="-14.3" font-family="Times,serif" font-size="14.00">59 traces</text>
</g>
<!-- A_Create Application_var0_step0 -->
<g id="node2" class="node">
<title>A_Create Application_var0_step0</title>
<polygon fill="lightgrey" stroke="black" points="135,-90 0,-90 0,-54 135,-54 135,-90"/>
<text text-anchor="middle" x="67.5" y="-68.3" font-family="Times,serif" font-size="14.00">A_Create Application</text>
</g>
<!-- W_Complete application_var0_step1 -->
<g id="node3" class="node">
<title>W_Complete application_var0_step1</title>
<polygon fill="lightgrey" stroke="black" points="325,-90 171,-90 171,-54 325,-54 325,-90"/>
<text text-anchor="middle" x="248" y="-68.3" font-family="Times,serif" font-size="14.00">W_Complete application</text>
</g>
<!-- A_Create Application_var0_step0&#45;&gt;W_Complete application_var0_step1 -->
<g id="edge1" class="edge">
<title>A_Create Application_var0_step0&#45;&gt;W_Complete application_var0_step1</title>
<path fill="none" stroke="black" d="M135.47,-72C143.27,-72 151.32,-72 159.34,-72"/>
<polygon fill="black" stroke="black" points="159.14,-75.5 169.14,-72 159.14,-68.5 159.14,-75.5"/>
</g>
<!-- W_Complete application_var0_step2 -->
<g id="node4" class="node">
<title>W_Complete application_var0_step2</title>
<polygon fill="lightgrey" stroke="black" points="515,-90 361,-90 361,-54 515,-54 515,-90"/>
<text text-anchor="middle" x="438" y="-68.3" font-family="Times,serif" font-size="14.00">W_Complete application</text>
</g>
<!-- W_Complete application_var0_step1&#45;&gt;W_Complete application_var0_step2 -->
<g id="edge2" class="edge">
<title>W_Complete application_var0_step1&#45;&gt;W_Complete application_var0_step2</title>
<path fill="none" stroke="black" d="M325.47,-72C333.25,-72 341.21,-72 349.1,-72"/>
<polygon fill="black" stroke="black" points="349.09,-75.5 359.09,-72 349.09,-68.5 349.09,-75.5"/>
</g>
<!-- A_Concept_var0_step3 -->
<g id="node5" class="node">
<title>A_Concept_var0_step3</title>
<polygon fill="lightgrey" stroke="black" points="629,-90 551,-90 551,-54 629,-54 629,-90"/>
<text text-anchor="middle" x="590" y="-68.3" font-family="Times,serif" font-size="14.00">A_Concept</text>
</g>
<!-- W_Complete application_var0_step2&#45;&gt;A_Concept_var0_step3 -->
<g id="edge3" class="edge">
<title>W_Complete application_var0_step2&#45;&gt;A_Concept_var0_step3</title>
<path fill="none" stroke="black" d="M515.32,-72C523.49,-72 531.64,-72 539.38,-72"/>
<polygon fill="black" stroke="black" points="539.25,-75.5 549.25,-72 539.25,-68.5 539.25,-75.5"/>
</g>
<!-- A_Accepted_var0_step4 -->
<g id="node6" class="node">
<title>A_Accepted_var0_step4</title>
<polygon fill="lightgrey" stroke="black" points="749,-90 665,-90 665,-54 749,-54 749,-90"/>
<text text-anchor="middle" x="707" y="-68.3" font-family="Times,serif" font-size="14.00">A_Accepted</text>
</g>
<!-- A_Concept_var0_step3&#45;&gt;A_Accepted_var0_step4 -->
<g id="edge4" class="edge">
<title>A_Concept_var0_step3&#45;&gt;A_Accepted_var0_step4</title>
<path fill="none" stroke="black" d="M629.29,-72C637.02,-72 645.27,-72 653.39,-72"/>
<polygon fill="black" stroke="black" points="653.2,-75.5 663.2,-72 653.2,-68.5 653.2,-75.5"/>
</g>
<!-- O_Create Offer_var0_step5 -->
<g id="node7" class="node">
<title>O_Create Offer_var0_step5</title>
<polygon fill="lightgrey" stroke="black" points="886,-90 785,-90 785,-54 886,-54 886,-90"/>
<text text-anchor="middle" x="835.5" y="-68.3" font-family="Times,serif" font-size="14.00">O_Create Offer</text>
</g>
<!-- A_Accepted_var0_step4&#45;&gt;O_Create Offer_var0_step5 -->
<g id="edge5" class="edge">
<title>A_Accepted_var0_step4&#45;&gt;O_Create Offer_var0_step5</title>
<path fill="none" stroke="black" d="M749.42,-72C757.06,-72 765.19,-72 773.27,-72"/>
<polygon fill="black" stroke="black" points="773.09,-75.5 783.09,-72 773.09,-68.5 773.09,-75.5"/>
</g>
<!-- O_Created_var0_step6 -->
<g id="node8" class="node">
<title>O_Created_var0_step6</title>
<polygon fill="lightgrey" stroke="black" points="997,-90 922,-90 922,-54 997,-54 997,-90"/>
<text text-anchor="middle" x="959.5" y="-68.3" font-family="Times,serif" font-size="14.00">O_Created</text>
</g>
<!-- O_Create Offer_var0_step5&#45;&gt;O_Created_var0_step6 -->
<g id="edge6" class="edge">
<title>O_Create Offer_var0_step5&#45;&gt;O_Created_var0_step6</title>
<path fill="none" stroke="black" d="M886.47,-72C894.43,-72 902.65,-72 910.56,-72"/>
<polygon fill="black" stroke="black" points="910.35,-75.5 920.35,-72 910.35,-68.5 910.35,-75.5"/>
</g>
<!-- O_Sent (mail and online)_var0_step7 -->
<g id="node9" class="node">
<title>O_Sent (mail and online)_var0_step7</title>
<polygon fill="lightgrey" stroke="black" points="1188,-90 1033,-90 1033,-54 1188,-54 1188,-90"/>
<text text-anchor="middle" x="1110.5" y="-68.3" font-family="Times,serif" font-size="14.00">O_Sent (mail and online)</text>
</g>
<!-- O_Created_var0_step6&#45;&gt;O_Sent (mail and online)_var0_step7 -->
<g id="edge7" class="edge">
<title>O_Created_var0_step6&#45;&gt;O_Sent (mail and online)_var0_step7</title>
<path fill="none" stroke="black" d="M997.33,-72C1004.74,-72 1012.82,-72 1021.14,-72"/>
<polygon fill="black" stroke="black" points="1021.07,-75.5 1031.07,-72 1021.07,-68.5 1021.07,-75.5"/>
</g>
<!-- W_Complete application_var0_step8 -->
<g id="node10" class="node">
<title>W_Complete application_var0_step8</title>
<polygon fill="lightgrey" stroke="black" points="1378,-90 1224,-90 1224,-54 1378,-54 1378,-90"/>
<text text-anchor="middle" x="1301" y="-68.3" font-family="Times,serif" font-size="14.00">W_Complete application</text>
</g>
<!-- O_Sent (mail and online)_var0_step7&#45;&gt;W_Complete application_var0_step8 -->
<g id="edge8" class="edge">
<title>O_Sent (mail and online)_var0_step7&#45;&gt;W_Complete application_var0_step8</title>
<path fill="none" stroke="black" d="M1188.44,-72C1196.24,-72 1204.2,-72 1212.1,-72"/>
<polygon fill="black" stroke="black" points="1212.1,-75.5 1222.1,-72 1212.1,-68.5 1212.1,-75.5"/>
</g>
<!-- W_Call after offers_var0_step9 -->
<g id="node11" class="node">
<title>W_Call after offers_var0_step9</title>
<polygon fill="lightgrey" stroke="black" points="1537,-90 1414,-90 1414,-54 1537,-54 1537,-90"/>
<text text-anchor="middle" x="1475.5" y="-68.3" font-family="Times,serif" font-size="14.00">W_Call after offers</text>
</g>
<!-- W_Complete application_var0_step8&#45;&gt;W_Call after offers_var0_step9 -->
<g id="edge9" class="edge">
<title>W_Complete application_var0_step8&#45;&gt;W_Call after offers_var0_step9</title>
<path fill="none" stroke="black" d="M1378.41,-72C1386.35,-72 1394.39,-72 1402.27,-72"/>
<polygon fill="black" stroke="black" points="1402.16,-75.5 1412.16,-72 1402.16,-68.5 1402.16,-75.5"/>
</g>
<!-- W_Call after offers_var0_step10 -->
<g id="node12" class="node">
<title>W_Call after offers_var0_step10</title>
<polygon fill="lightgrey" stroke="black" points="1696,-90 1573,-90 1573,-54 1696,-54 1696,-90"/>
<text text-anchor="middle" x="1634.5" y="-68.3" font-family="Times,serif" font-size="14.00">W_Call after offers</text>
</g>
<!-- W_Call after offers_var0_step9&#45;&gt;W_Call after offers_var0_step10 -->
<g id="edge10" class="edge">
<title>W_Call after offers_var0_step9&#45;&gt;W_Call after offers_var0_step10</title>
<path fill="none" stroke="black" d="M1537.2,-72C1545.12,-72 1553.29,-72 1561.37,-72"/>
<polygon fill="black" stroke="black" points="1561.19,-75.5 1571.19,-72 1561.19,-68.5 1561.19,-75.5"/>
</g>
<!-- A_Complete_var0_step11 -->
<g id="node13" class="node">
<title>A_Complete_var0_step11</title>
<polygon fill="lightgrey" stroke="black" points="1818,-90 1732,-90 1732,-54 1818,-54 1818,-90"/>
<text text-anchor="middle" x="1775" y="-68.3" font-family="Times,serif" font-size="14.00">A_Complete</text>
</g>
<!-- W_Call after offers_var0_step10&#45;&gt;A_Complete_var0_step11 -->
<g id="edge11" class="edge">
<title>W_Call after offers_var0_step10&#45;&gt;A_Complete_var0_step11</title>
<path fill="none" stroke="black" d="M1696.25,-72C1704.26,-72 1712.42,-72 1720.3,-72"/>
<polygon fill="black" stroke="black" points="1720.08,-75.5 1730.08,-72 1720.08,-68.5 1720.08,-75.5"/>
</g>
<!-- W_Call after offers_var0_step12 -->
<g id="node14" class="node">
<title>W_Call after offers_var0_step12</title>
<polygon fill="lightgrey" stroke="black" points="1977,-90 1854,-90 1854,-54 1977,-54 1977,-90"/>
<text text-anchor="middle" x="1915.5" y="-68.3" font-family="Times,serif" font-size="14.00">W_Call after offers</text>
</g>
<!-- A_Complete_var0_step11&#45;&gt;W_Call after offers_var0_step12 -->
<g id="edge12" class="edge">
<title>A_Complete_var0_step11&#45;&gt;W_Call after offers_var0_step12</title>
<path fill="none" stroke="black" d="M1818.31,-72C1825.88,-72 1833.96,-72 1842.09,-72"/>
<polygon fill="black" stroke="black" points="1842.07,-75.5 1852.07,-72 1842.07,-68.5 1842.07,-75.5"/>
</g>
<!-- W_Call after offers_var0_step13 -->
<g id="node15" class="node">
<title>W_Call after offers_var0_step13</title>
<polygon fill="lightgrey" stroke="black" points="2136,-90 2013,-90 2013,-54 2136,-54 2136,-90"/>
<text text-anchor="middle" x="2074.5" y="-68.3" font-family="Times,serif" font-size="14.00">W_Call after offers</text>
</g>
<!-- W_Call after offers_var0_step12&#45;&gt;W_Call after offers_var0_step13 -->
<g id="edge13" class="edge">
<title>W_Call after offers_var0_step12&#45;&gt;W_Call after offers_var0_step13</title>
<path fill="none" stroke="black" d="M1977.2,-72C1985.12,-72 1993.29,-72 2001.37,-72"/>
<polygon fill="black" stroke="black" points="2001.19,-75.5 2011.19,-72 2001.19,-68.5 2001.19,-75.5"/>
</g>
<!-- W_Call after offers_var0_step14 -->
<g id="node16" class="node">
<title>W_Call after offers_var0_step14</title>
<polygon fill="lightgrey" stroke="black" points="2295,-90 2172,-90 2172,-54 2295,-54 2295,-90"/>
<text text-anchor="middle" x="2233.5" y="-68.3" font-family="Times,serif" font-size="14.00">W_Call after offers</text>
</g>
<!-- W_Call after offers_var0_step13&#45;&gt;W_Call after offers_var0_step14 -->
<g id="edge14" class="edge">
<title>W_Call after offers_var0_step13&#45;&gt;W_Call after offers_var0_step14</title>
<path fill="none" stroke="black" d="M2136.2,-72C2144.12,-72 2152.29,-72 2160.37,-72"/>
<polygon fill="black" stroke="black" points="2160.19,-75.5 2170.19,-72 2160.19,-68.5 2160.19,-75.5"/>
</g>
<!-- W_Call after offers_var0_step15 -->
<g id="node17" class="node">
<title>W_Call after offers_var0_step15</title>
<polygon fill="lightgrey" stroke="black" points="2454,-90 2331,-90 2331,-54 2454,-54 2454,-90"/>
<text text-anchor="middle" x="2392.5" y="-68.3" font-family="Times,serif" font-size="14.00">W_Call after offers</text>
</g>
<!-- W_Call after offers_var0_step14&#45;&gt;W_Call after offers_var0_step15 -->
<g id="edge15" class="edge">
<title>W_Call after offers_var0_step14&#45;&gt;W_Call after offers_var0_step15</title>
<path fill="none" stroke="black" d="M2295.2,-72C2303.12,-72 2311.29,-72 2319.37,-72"/>
<polygon fill="black" stroke="black" points="2319.19,-75.5 2329.19,-72 2319.19,-68.5 2319.19,-75.5"/>
</g>
<!-- W_Validate application_var0_step16 -->
<g id="node18" class="node">
<title>W_Validate application_var0_step16</title>
<polygon fill="lightgrey" stroke="black" points="2635,-90 2490,-90 2490,-54 2635,-54 2635,-90"/>
<text text-anchor="middle" x="2562.5" y="-68.3" font-family="Times,serif" font-size="14.00">W_Validate application</text>
</g>
<!-- W_Call after offers_var0_step15&#45;&gt;W_Validate application_var0_step16 -->
<g id="edge16" class="edge">
<title>W_Call after offers_var0_step15&#45;&gt;W_Validate application_var0_step16</title>
<path fill="none" stroke="black" d="M2454.15,-72C2462.01,-72 2470.16,-72 2478.31,-72"/>
<polygon fill="black" stroke="black" points="2478.27,-75.5 2488.27,-72 2478.27,-68.5 2478.27,-75.5"/>
</g>
<!-- W_Validate application_var0_step17 -->
<g id="node19" class="node">
<title>W_Validate application_var0_step17</title>
<polygon fill="lightgrey" stroke="black" points="2816,-90 2671,-90 2671,-54 2816,-54 2816,-90"/>
<text text-anchor="middle" x="2743.5" y="-68.3" font-family="Times,serif" font-size="14.00">W_Validate application</text>
</g>
<!-- W_Validate application_var0_step16&#45;&gt;W_Validate application_var0_step17 -->
<g id="edge17" class="edge">
<title>W_Validate application_var0_step16&#45;&gt;W_Validate application_var0_step17</title>
<path fill="none" stroke="black" d="M2635.27,-72C2643.21,-72 2651.33,-72 2659.39,-72"/>
<polygon fill="black" stroke="black" points="2659.2,-75.5 2669.2,-72 2659.2,-68.5 2659.2,-75.5"/>
</g>
<!-- A_Validating_var0_step18 -->
<g id="node20" class="node">
<title>A_Validating_var0_step18</title>
<polygon fill="lightgrey" stroke="black" points="2941,-90 2852,-90 2852,-54 2941,-54 2941,-90"/>
<text text-anchor="middle" x="2896.5" y="-68.3" font-family="Times,serif" font-size="14.00">A_Validating</text>
</g>
<!-- W_Validate application_var0_step17&#45;&gt;A_Validating_var0_step18 -->
<g id="edge18" class="edge">
<title>W_Validate application_var0_step17&#45;&gt;A_Validating_var0_step18</title>
<path fill="none" stroke="black" d="M2816.46,-72C2824.43,-72 2832.45,-72 2840.17,-72"/>
<polygon fill="black" stroke="black" points="2840.1,-75.5 2850.1,-72 2840.1,-68.5 2840.1,-75.5"/>
</g>
<!-- O_Returned_var0_step19 -->
<g id="node21" class="node">
<title>O_Returned_var0_step19</title>
<polygon fill="lightgrey" stroke="black" points="3060,-90 2977,-90 2977,-54 3060,-54 3060,-90"/>
<text text-anchor="middle" x="3018.5" y="-68.3" font-family="Times,serif" font-size="14.00">O_Returned</text>
</g>
<!-- A_Validating_var0_step18&#45;&gt;O_Returned_var0_step19 -->
<g id="edge19" class="edge">
<title>A_Validating_var0_step18&#45;&gt;O_Returned_var0_step19</title>
<path fill="none" stroke="black" d="M2941.16,-72C2949.09,-72 2957.42,-72 2965.56,-72"/>
<polygon fill="black" stroke="black" points="2965.35,-75.5 2975.35,-72 2965.35,-68.5 2965.35,-75.5"/>
</g>
<!-- W_Validate application_var0_step20 -->
<g id="node22" class="node">
<title>W_Validate application_var0_step20</title>
<polygon fill="lightgrey" stroke="black" points="3241,-90 3096,-90 3096,-54 3241,-54 3241,-90"/>
<text text-anchor="middle" x="3168.5" y="-68.3" font-family="Times,serif" font-size="14.00">W_Validate application</text>
</g>
<!-- O_Returned_var0_step19&#45;&gt;W_Validate application_var0_step20 -->
<g id="edge20" class="edge">
<title>O_Returned_var0_step19&#45;&gt;W_Validate application_var0_step20</title>
<path fill="none" stroke="black" d="M3060.33,-72C3067.86,-72 3075.97,-72 3084.23,-72"/>
<polygon fill="black" stroke="black" points="3084.05,-75.5 3094.05,-72 3084.05,-68.5 3084.05,-75.5"/>
</g>
<!-- W_Validate application_var0_step21 -->
<g id="node23" class="node">
<title>W_Validate application_var0_step21</title>
<polygon fill="lightgrey" stroke="black" points="3422,-90 3277,-90 3277,-54 3422,-54 3422,-90"/>
<text text-anchor="middle" x="3349.5" y="-68.3" font-family="Times,serif" font-size="14.00">W_Validate application</text>
</g>
<!-- W_Validate application_var0_step20&#45;&gt;W_Validate application_var0_step21 -->
<g id="edge21" class="edge">
<title>W_Validate application_var0_step20&#45;&gt;W_Validate application_var0_step21</title>
<path fill="none" stroke="black" d="M3241.27,-72C3249.21,-72 3257.33,-72 3265.39,-72"/>
<polygon fill="black" stroke="black" points="3265.2,-75.5 3275.2,-72 3265.2,-68.5 3265.2,-75.5"/>
</g>
<!-- W_Call incomplete files_var0_step22 -->
<g id="node24" class="node">
<title>W_Call incomplete files_var0_step22</title>
<polygon fill="lightgrey" stroke="black" points="3609,-90 3458,-90 3458,-54 3609,-54 3609,-90"/>
<text text-anchor="middle" x="3533.5" y="-68.3" font-family="Times,serif" font-size="14.00">W_Call incomplete files</text>
</g>
<!-- W_Validate application_var0_step21&#45;&gt;W_Call incomplete files_var0_step22 -->
<g id="edge22" class="edge">
<title>W_Validate application_var0_step21&#45;&gt;W_Call incomplete files_var0_step22</title>
<path fill="none" stroke="black" d="M3422.43,-72C3430.18,-72 3438.11,-72 3446,-72"/>
<polygon fill="black" stroke="black" points="3445.99,-75.5 3455.99,-72 3445.99,-68.5 3445.99,-75.5"/>
</g>
<!-- W_Call incomplete files_var0_step23 -->
<g id="node25" class="node">
<title>W_Call incomplete files_var0_step23</title>
<polygon fill="lightgrey" stroke="black" points="3796,-90 3645,-90 3645,-54 3796,-54 3796,-90"/>
<text text-anchor="middle" x="3720.5" y="-68.3" font-family="Times,serif" font-size="14.00">W_Call incomplete files</text>
</g>
<!-- W_Call incomplete files_var0_step22&#45;&gt;W_Call incomplete files_var0_step23 -->
<g id="edge23" class="edge">
<title>W_Call incomplete files_var0_step22&#45;&gt;W_Call incomplete files_var0_step23</title>
<path fill="none" stroke="black" d="M3609.48,-72C3617.38,-72 3625.45,-72 3633.46,-72"/>
<polygon fill="black" stroke="black" points="3633.2,-75.5 3643.2,-72 3633.2,-68.5 3633.2,-75.5"/>
</g>
<!-- A_Incomplete_var0_step24 -->
<g id="node26" class="node">
<title>A_Incomplete_var0_step24</title>
<polygon fill="lightgrey" stroke="black" points="3927,-90 3832,-90 3832,-54 3927,-54 3927,-90"/>
<text text-anchor="middle" x="3879.5" y="-68.3" font-family="Times,serif" font-size="14.00">A_Incomplete</text>
</g>
<!-- W_Call incomplete files_var0_step23&#45;&gt;A_Incomplete_var0_step24 -->
<g id="edge24" class="edge">
<title>W_Call incomplete files_var0_step23&#45;&gt;A_Incomplete_var0_step24</title>
<path fill="none" stroke="black" d="M3796.32,-72C3804.29,-72 3812.32,-72 3820.06,-72"/>
<polygon fill="black" stroke="black" points="3820.04,-75.5 3830.04,-72 3820.04,-68.5 3820.04,-75.5"/>
</g>
<!-- W_Call incomplete files_var0_step25 -->
<g id="node27" class="node">
<title>W_Call incomplete files_var0_step25</title>
<polygon fill="lightgrey" stroke="black" points="4114,-90 3963,-90 3963,-54 4114,-54 4114,-90"/>
<text text-anchor="middle" x="4038.5" y="-68.3" font-family="Times,serif" font-size="14.00">W_Call incomplete files</text>
</g>
<!-- A_Incomplete_var0_step24&#45;&gt;W_Call incomplete files_var0_step25 -->
<g id="edge25" class="edge">
<title>A_Incomplete_var0_step24&#45;&gt;W_Call incomplete files_var0_step25</title>
<path fill="none" stroke="black" d="M3927.18,-72C3934.89,-72 3943.08,-72 3951.4,-72"/>
<polygon fill="black" stroke="black" points="3951.25,-75.5 3961.25,-72 3951.25,-68.5 3951.25,-75.5"/>
</g>
<!-- W_Call incomplete files_var0_step26 -->
<g id="node28" class="node">
<title>W_Call incomplete files_var0_step26</title>
<polygon fill="lightgrey" stroke="black" points="4301,-90 4150,-90 4150,-54 4301,-54 4301,-90"/>
<text text-anchor="middle" x="4225.5" y="-68.3" font-family="Times,serif" font-size="14.00">W_Call incomplete files</text>
</g>
<!-- W_Call incomplete files_var0_step25&#45;&gt;W_Call incomplete files_var0_step26 -->
<g id="edge26" class="edge">
<title>W_Call incomplete files_var0_step25&#45;&gt;W_Call incomplete files_var0_step26</title>
<path fill="none" stroke="black" d="M4114.48,-72C4122.38,-72 4130.45,-72 4138.46,-72"/>
<polygon fill="black" stroke="black" points="4138.2,-75.5 4148.2,-72 4138.2,-68.5 4138.2,-75.5"/>
</g>
<!-- W_Call incomplete files_var0_step27 -->
<g id="node29" class="node">
<title>W_Call incomplete files_var0_step27</title>
<polygon fill="lightgrey" stroke="black" points="4488,-90 4337,-90 4337,-54 4488,-54 4488,-90"/>
<text text-anchor="middle" x="4412.5" y="-68.3" font-family="Times,serif" font-size="14.00">W_Call incomplete files</text>
</g>
<!-- W_Call incomplete files_var0_step26&#45;&gt;W_Call incomplete files_var0_step27 -->
<g id="edge27" class="edge">
<title>W_Call incomplete files_var0_step26&#45;&gt;W_Call incomplete files_var0_step27</title>
<path fill="none" stroke="black" d="M4301.48,-72C4309.38,-72 4317.45,-72 4325.46,-72"/>
<polygon fill="black" stroke="black" points="4325.2,-75.5 4335.2,-72 4325.2,-68.5 4325.2,-75.5"/>
</g>
<!-- O_Accepted_var0_step28 -->
<g id="node30" class="node">
<title>O_Accepted_var0_step28</title>
<polygon fill="lightgrey" stroke="black" points="4608,-90 4524,-90 4524,-54 4608,-54 4608,-90"/>
<text text-anchor="middle" x="4566" y="-68.3" font-family="Times,serif" font-size="14.00">O_Accepted</text>
</g>
<!-- W_Call incomplete files_var0_step27&#45;&gt;O_Accepted_var0_step28 -->
<g id="edge28" class="edge">
<title>W_Call incomplete files_var0_step27&#45;&gt;O_Accepted_var0_step28</title>
<path fill="none" stroke="black" d="M4488.36,-72C4496.48,-72 4504.61,-72 4512.39,-72"/>
<polygon fill="black" stroke="black" points="4512.34,-75.5 4522.34,-72 4512.34,-68.5 4512.34,-75.5"/>
</g>
<!-- A_Pending_var0_step29 -->
<g id="node31" class="node">
<title>A_Pending_var0_step29</title>
<polygon fill="lightgrey" stroke="black" points="4721,-90 4644,-90 4644,-54 4721,-54 4721,-90"/>
<text text-anchor="middle" x="4682.5" y="-68.3" font-family="Times,serif" font-size="14.00">A_Pending</text>
</g>
<!-- O_Accepted_var0_step28&#45;&gt;A_Pending_var0_step29 -->
<g id="edge29" class="edge">
<title>O_Accepted_var0_step28&#45;&gt;A_Pending_var0_step29</title>
<path fill="none" stroke="black" d="M4608.34,-72C4616.08,-72 4624.25,-72 4632.21,-72"/>
<polygon fill="black" stroke="black" points="4632.14,-75.5 4642.14,-72 4632.14,-68.5 4632.14,-75.5"/>
</g>
<!-- W_Call incomplete files_var0_step30 -->
<g id="node32" class="node">
<title>W_Call incomplete files_var0_step30</title>
<polygon fill="lightgrey" stroke="black" points="4908,-90 4757,-90 4757,-54 4908,-54 4908,-90"/>
<text text-anchor="middle" x="4832.5" y="-68.3" font-family="Times,serif" font-size="14.00">W_Call incomplete files</text>
</g>
<!-- A_Pending_var0_step29&#45;&gt;W_Call incomplete files_var0_step30 -->
<g id="edge30" class="edge">
<title>A_Pending_var0_step29&#45;&gt;W_Call incomplete files_var0_step30</title>
<path fill="none" stroke="black" d="M4721.23,-72C4728.71,-72 4736.84,-72 4745.19,-72"/>
<polygon fill="black" stroke="black" points="4745.15,-75.5 4755.15,-72 4745.15,-68.5 4745.15,-75.5"/>
</g>
</g>
</svg>
