<?xml version="1.0" encoding="UTF-8" standalone="no"?>
<!DOCTYPE svg PUBLIC "-//W3C//DTD SVG 1.1//EN"
 "http://www.w3.org/Graphics/SVG/1.1/DTD/svg11.dtd">
<!-- Generated by graphviz version 7.0.5 (0)
 -->
<!-- Title: dfg Pages: 1 -->
<svg width="334pt" height="661pt"
 viewBox="0.00 0.00 334.00 661.00" xmlns="http://www.w3.org/2000/svg" xmlns:xlink="http://www.w3.org/1999/xlink">
<g id="graph0" class="graph" transform="scale(1 1) rotate(0) translate(4 657)">
<title>dfg</title>
<polygon fill="white" stroke="none" points="-4,4 -4,-657 330,-657 330,4 -4,4"/>
<!-- start_node -->
<g id="node1" class="node">
<title>start_node</title>
<ellipse fill="none" stroke="black" cx="151.5" cy="-635" rx="18" ry="18"/>
<text text-anchor="start" x="147" y="-631.3" font-family="Times,serif" font-size="14.00">●</text>
</g>
<!-- Create Fine -->
<g id="node2" class="node">
<title>Create Fine</title>
<polygon fill="#9b9bff" stroke="black" points="208,-566 95,-566 95,-530 208,-530 208,-566"/>
<text text-anchor="middle" x="151.5" y="-544.3" font-family="Times,serif" font-size="14.00">Create Fine (221)</text>
</g>
<!-- start_node&#45;&gt;Create Fine -->
<g id="edge1" class="edge">
<title>start_node&#45;&gt;Create Fine</title>
<path fill="none" stroke="#000000" stroke-width="6" d="M151.5,-616.8C151.5,-606.96 151.5,-594.27 151.5,-582.53"/>
<polygon fill="#000000" stroke="#000000" stroke-width="6" points="156.75,-582.92 151.5,-572.92 146.25,-582.92 156.75,-582.92"/>
<text text-anchor="middle" x="162" y="-587.8" font-family="Times,serif" font-size="14.00">221</text>
</g>
<!-- Send Fine -->
<g id="node3" class="node">
<title>Send Fine</title>
<polygon fill="#9b9bff" stroke="black" points="203.5,-479 99.5,-479 99.5,-443 203.5,-443 203.5,-479"/>
<text text-anchor="middle" x="151.5" y="-457.3" font-family="Times,serif" font-size="14.00">Send Fine (221)</text>
</g>
<!-- Create Fine&#45;&gt;Send Fine -->
<g id="edge2" class="edge">
<title>Create Fine&#45;&gt;Send Fine</title>
<path fill="none" stroke="#000000" stroke-width="6" d="M151.5,-529.8C151.5,-519.96 151.5,-507.27 151.5,-495.53"/>
<polygon fill="#000000" stroke="#000000" stroke-width="6" points="156.75,-495.92 151.5,-485.92 146.25,-495.92 156.75,-495.92"/>
<text text-anchor="middle" x="162" y="-500.8" font-family="Times,serif" font-size="14.00">221</text>
</g>
<!-- Insert Fine Notification -->
<g id="node4" class="node">
<title>Insert Fine Notification</title>
<polygon fill="#ffffff" stroke="black" points="177,-392 0,-392 0,-356 177,-356 177,-392"/>
<text text-anchor="middle" x="88.5" y="-370.3" font-family="Times,serif" font-size="14.00">Insert Fine Notification (202)</text>
</g>
<!-- Send Fine&#45;&gt;Insert Fine Notification -->
<g id="edge3" class="edge">
<title>Send Fine&#45;&gt;Insert Fine Notification</title>
<path fill="none" stroke="#000000" stroke-width="5.48" d="M138.75,-442.8C130.78,-432.04 120.28,-417.88 110.95,-405.29"/>
<polygon fill="#000000" stroke="#000000" stroke-width="5.48" points="115.03,-402.74 105.22,-397.56 107.32,-408.45 115.03,-402.74"/>
<text text-anchor="middle" x="135" y="-413.8" font-family="Times,serif" font-size="14.00">202</text>
</g>
<!-- Insert Date Appeal to Prefecture -->
<g id="node5" class="node">
<title>Insert Date Appeal to Prefecture</title>
<polygon fill="#9b9bff" stroke="black" points="326,-305 101,-305 101,-269 326,-269 326,-305"/>
<text text-anchor="middle" x="213.5" y="-283.3" font-family="Times,serif" font-size="14.00">Insert Date Appeal to Prefecture (221)</text>
</g>
<!-- Send Fine&#45;&gt;Insert Date Appeal to Prefecture -->
<g id="edge10" class="edge">
<title>Send Fine&#45;&gt;Insert Date Appeal to Prefecture</title>
<path fill="none" stroke="#000000" stroke-width="0.5" d="M161.45,-442.54C168.83,-429.06 178.75,-409.77 185.5,-392 195.12,-366.7 202.81,-336.76 207.68,-315.51"/>
<polygon fill="#000000" stroke="#000000" stroke-width="0.5" points="211.04,-316.53 209.8,-306 204.21,-315 211.04,-316.53"/>
<text text-anchor="middle" x="204.5" y="-370.3" font-family="Times,serif" font-size="14.00">19</text>
</g>
<!-- Insert Fine Notification&#45;&gt;Insert Date Appeal to Prefecture -->
<g id="edge4" class="edge">
<title>Insert Fine Notification&#45;&gt;Insert Date Appeal to Prefecture</title>
<path fill="none" stroke="#000000" stroke-width="3.85" d="M114.1,-355.59C131.62,-343.68 155.18,-327.66 174.96,-314.2"/>
<polygon fill="#000000" stroke="#000000" stroke-width="3.85" points="176.82,-317.18 183.12,-308.66 172.88,-311.39 176.82,-317.18"/>
<text text-anchor="middle" x="169" y="-326.8" font-family="Times,serif" font-size="14.00">142</text>
</g>
<!-- Add penalty -->
<g id="node6" class="node">
<title>Add penalty</title>
<polygon fill="#ffffff" stroke="black" points="197.5,-218 81.5,-218 81.5,-182 197.5,-182 197.5,-218"/>
<text text-anchor="middle" x="139.5" y="-196.3" font-family="Times,serif" font-size="14.00">Add penalty (202)</text>
</g>
<!-- Insert Fine Notification&#45;&gt;Add penalty -->
<g id="edge7" class="edge">
<title>Insert Fine Notification&#45;&gt;Add penalty</title>
<path fill="none" stroke="#000000" stroke-width="1.62" d="M81.96,-355.79C74.96,-334.63 66.28,-297.95 77.5,-269 83.76,-252.86 95.83,-238.19 107.67,-226.65"/>
<polygon fill="#000000" stroke="#000000" stroke-width="1.62" points="109.78,-229.46 114.78,-220.12 105.04,-224.31 109.78,-229.46"/>
<text text-anchor="middle" x="84.5" y="-283.3" font-family="Times,serif" font-size="14.00">60</text>
</g>
<!-- Insert Date Appeal to Prefecture&#45;&gt;Add penalty -->
<g id="edge5" class="edge">
<title>Insert Date Appeal to Prefecture&#45;&gt;Add penalty</title>
<path fill="none" stroke="#000000" stroke-width="3.85" d="M198.52,-268.8C188.86,-257.7 176.04,-242.97 164.82,-230.08"/>
<polygon fill="#000000" stroke="#000000" stroke-width="3.85" points="167.74,-228.11 158.53,-222.86 162.46,-232.7 167.74,-228.11"/>
<text text-anchor="middle" x="192" y="-239.8" font-family="Times,serif" font-size="14.00">142</text>
</g>
<!-- Send Appeal to Prefecture -->
<g id="node7" class="node">
<title>Send Appeal to Prefecture</title>
<polygon fill="#9b9bff" stroke="black" points="282.5,-131 90.5,-131 90.5,-95 282.5,-95 282.5,-131"/>
<text text-anchor="middle" x="186.5" y="-109.3" font-family="Times,serif" font-size="14.00">Send Appeal to Prefecture (221)</text>
</g>
<!-- Insert Date Appeal to Prefecture&#45;&gt;Send Appeal to Prefecture -->
<g id="edge9" class="edge">
<title>Insert Date Appeal to Prefecture&#45;&gt;Send Appeal to Prefecture</title>
<path fill="none" stroke="#000000" stroke-width="2.13" d="M213.49,-268.56C213.2,-247.79 211.87,-212.11 206.5,-182 204.22,-169.24 200.43,-155.46 196.76,-143.67"/>
<polygon fill="#000000" stroke="#000000" stroke-width="2.13" points="200.18,-142.86 193.75,-134.43 193.52,-145.02 200.18,-142.86"/>
<text text-anchor="middle" x="218.5" y="-196.3" font-family="Times,serif" font-size="14.00">79</text>
</g>
<!-- Add penalty&#45;&gt;Insert Date Appeal to Prefecture -->
<g id="edge8" class="edge">
<title>Add penalty&#45;&gt;Insert Date Appeal to Prefecture</title>
<path fill="none" stroke="#000000" stroke-width="1.62" d="M141.46,-218.19C143.38,-228.58 147.13,-241.57 154.5,-251 157.47,-254.8 160.97,-258.27 164.77,-261.42"/>
<polygon fill="#000000" stroke="#000000" stroke-width="1.62" points="162.54,-264.13 172.69,-267.17 166.65,-258.47 162.54,-264.13"/>
<text text-anchor="middle" x="161.5" y="-239.8" font-family="Times,serif" font-size="14.00">60</text>
</g>
<!-- Add penalty&#45;&gt;Send Appeal to Prefecture -->
<g id="edge6" class="edge">
<title>Add penalty&#45;&gt;Send Appeal to Prefecture</title>
<path fill="none" stroke="#000000" stroke-width="3.85" d="M149.01,-181.8C154.83,-171.27 162.46,-157.48 169.31,-145.09"/>
<polygon fill="#000000" stroke="#000000" stroke-width="3.85" points="172.25,-147.01 174.02,-136.57 166.12,-143.62 172.25,-147.01"/>
<text text-anchor="middle" x="177" y="-152.8" font-family="Times,serif" font-size="14.00">142</text>
</g>
<!-- end_node -->
<g id="node8" class="node">
<title>end_node</title>
<ellipse fill="none" stroke="black" cx="186.5" cy="-22" rx="18" ry="18"/>
<ellipse fill="none" stroke="black" cx="186.5" cy="-22" rx="22" ry="22"/>
<text text-anchor="start" x="182" y="-18.3" font-family="Times,serif" font-size="14.00">■</text>
</g>
<!-- Send Appeal to Prefecture&#45;&gt;end_node -->
<g id="edge11" class="edge">
<title>Send Appeal to Prefecture&#45;&gt;end_node</title>
<path fill="none" stroke="#000000" stroke-width="6" d="M186.5,-94.84C186.5,-85.02 186.5,-72.3 186.5,-60.3"/>
<polygon fill="#000000" stroke="#000000" stroke-width="6" points="191.75,-60.64 186.5,-50.64 181.25,-60.64 191.75,-60.64"/>
<text text-anchor="middle" x="197" y="-65.8" font-family="Times,serif" font-size="14.00">221</text>
</g>
</g>
</svg>
