<?xml version="1.0" encoding="UTF-8" standalone="no"?>
<!DOCTYPE svg PUBLIC "-//W3C//DTD SVG 1.1//EN"
 "http://www.w3.org/Graphics/SVG/1.1/DTD/svg11.dtd">
<!-- Generated by graphviz version 7.0.5 (0)
 -->
<!-- Title: dfg Pages: 1 -->
<svg width="377pt" height="922pt"
 viewBox="0.00 0.00 376.50 922.00" xmlns="http://www.w3.org/2000/svg" xmlns:xlink="http://www.w3.org/1999/xlink">
<g id="graph0" class="graph" transform="scale(1 1) rotate(0) translate(4 918)">
<title>dfg</title>
<polygon fill="white" stroke="none" points="-4,4 -4,-918 372.5,-918 372.5,4 -4,4"/>
<!-- start_node -->
<g id="node1" class="node">
<title>start_node</title>
<ellipse fill="none" stroke="black" cx="259.5" cy="-896" rx="18" ry="18"/>
<text text-anchor="start" x="255" y="-892.3" font-family="Times,serif" font-size="14.00">●</text>
</g>
<!-- Create Fine -->
<g id="node2" class="node">
<title>Create Fine</title>
<polygon fill="#9b9bff" stroke="black" points="312.5,-827 206.5,-827 206.5,-791 312.5,-791 312.5,-827"/>
<text text-anchor="middle" x="259.5" y="-805.3" font-family="Times,serif" font-size="14.00">Create Fine (68)</text>
</g>
<!-- start_node&#45;&gt;Create Fine -->
<g id="edge1" class="edge">
<title>start_node&#45;&gt;Create Fine</title>
<path fill="none" stroke="#000000" stroke-width="6" d="M259.5,-877.8C259.5,-867.96 259.5,-855.27 259.5,-843.53"/>
<polygon fill="#000000" stroke="#000000" stroke-width="6" points="264.75,-843.92 259.5,-833.92 254.25,-843.92 264.75,-843.92"/>
<text text-anchor="middle" x="266.5" y="-848.8" font-family="Times,serif" font-size="14.00">68</text>
</g>
<!-- Send Fine -->
<g id="node3" class="node">
<title>Send Fine</title>
<polygon fill="#9b9bff" stroke="black" points="308.5,-740 210.5,-740 210.5,-704 308.5,-704 308.5,-740"/>
<text text-anchor="middle" x="259.5" y="-718.3" font-family="Times,serif" font-size="14.00">Send Fine (68)</text>
</g>
<!-- Create Fine&#45;&gt;Send Fine -->
<g id="edge2" class="edge">
<title>Create Fine&#45;&gt;Send Fine</title>
<path fill="none" stroke="#000000" stroke-width="6" d="M259.5,-790.8C259.5,-780.96 259.5,-768.27 259.5,-756.53"/>
<polygon fill="#000000" stroke="#000000" stroke-width="6" points="264.75,-756.92 259.5,-746.92 254.25,-756.92 264.75,-756.92"/>
<text text-anchor="middle" x="266.5" y="-761.8" font-family="Times,serif" font-size="14.00">68</text>
</g>
<!-- Insert Fine Notification -->
<g id="node4" class="node">
<title>Insert Fine Notification</title>
<polygon fill="#9b9bff" stroke="black" points="344.5,-653 174.5,-653 174.5,-617 344.5,-617 344.5,-653"/>
<text text-anchor="middle" x="259.5" y="-631.3" font-family="Times,serif" font-size="14.00">Insert Fine Notification (68)</text>
</g>
<!-- Send Fine&#45;&gt;Insert Fine Notification -->
<g id="edge3" class="edge">
<title>Send Fine&#45;&gt;Insert Fine Notification</title>
<path fill="none" stroke="#000000" stroke-width="6" d="M259.5,-703.8C259.5,-693.96 259.5,-681.27 259.5,-669.53"/>
<polygon fill="#000000" stroke="#000000" stroke-width="6" points="264.75,-669.92 259.5,-659.92 254.25,-669.92 264.75,-669.92"/>
<text text-anchor="middle" x="266.5" y="-674.8" font-family="Times,serif" font-size="14.00">68</text>
</g>
<!-- Insert Date Appeal to Prefecture -->
<g id="node5" class="node">
<title>Insert Date Appeal to Prefecture</title>
<polygon fill="#9b9bff" stroke="black" points="368.5,-566 150.5,-566 150.5,-530 368.5,-530 368.5,-566"/>
<text text-anchor="middle" x="259.5" y="-544.3" font-family="Times,serif" font-size="14.00">Insert Date Appeal to Prefecture (68)</text>
</g>
<!-- Insert Fine Notification&#45;&gt;Insert Date Appeal to Prefecture -->
<g id="edge4" class="edge">
<title>Insert Fine Notification&#45;&gt;Insert Date Appeal to Prefecture</title>
<path fill="none" stroke="#000000" stroke-width="6" d="M259.5,-616.8C259.5,-606.96 259.5,-594.27 259.5,-582.53"/>
<polygon fill="#000000" stroke="#000000" stroke-width="6" points="264.75,-582.92 259.5,-572.92 254.25,-582.92 264.75,-582.92"/>
<text text-anchor="middle" x="266.5" y="-587.8" font-family="Times,serif" font-size="14.00">68</text>
</g>
<!-- Send Appeal to Prefecture -->
<g id="node6" class="node">
<title>Send Appeal to Prefecture</title>
<polygon fill="#9b9bff" stroke="black" points="288,-479 103,-479 103,-443 288,-443 288,-479"/>
<text text-anchor="middle" x="195.5" y="-457.3" font-family="Times,serif" font-size="14.00">Send Appeal to Prefecture (68)</text>
</g>
<!-- Insert Date Appeal to Prefecture&#45;&gt;Send Appeal to Prefecture -->
<g id="edge5" class="edge">
<title>Insert Date Appeal to Prefecture&#45;&gt;Send Appeal to Prefecture</title>
<path fill="none" stroke="#000000" stroke-width="3.02" d="M246.55,-529.8C238.19,-518.7 227.1,-503.97 217.4,-491.08"/>
<polygon fill="#000000" stroke="#000000" stroke-width="3.02" points="220.22,-489.01 211.41,-483.12 214.62,-493.22 220.22,-489.01"/>
<text text-anchor="middle" x="237.5" y="-500.8" font-family="Times,serif" font-size="14.00">35</text>
</g>
<!-- Add penalty -->
<g id="node7" class="node">
<title>Add penalty</title>
<polygon fill="#9b9bff" stroke="black" points="312.5,-392 202.5,-392 202.5,-356 312.5,-356 312.5,-392"/>
<text text-anchor="middle" x="257.5" y="-370.3" font-family="Times,serif" font-size="14.00">Add penalty (68)</text>
</g>
<!-- Insert Date Appeal to Prefecture&#45;&gt;Add penalty -->
<g id="edge10" class="edge">
<title>Insert Date Appeal to Prefecture&#45;&gt;Add penalty</title>
<path fill="none" stroke="#000000" stroke-width="2.84" d="M272.52,-529.61C281.5,-516.47 292.66,-497.58 297.5,-479 301.53,-463.52 301.7,-458.44 297.5,-443 293.75,-429.22 286.41,-415.38 279.04,-403.82"/>
<polygon fill="#000000" stroke="#000000" stroke-width="2.84" points="282.13,-402.14 273.61,-395.84 276.34,-406.08 282.13,-402.14"/>
<text text-anchor="middle" x="307.5" y="-457.3" font-family="Times,serif" font-size="14.00">33</text>
</g>
<!-- Send Appeal to Prefecture&#45;&gt;Add penalty -->
<g id="edge6" class="edge">
<title>Send Appeal to Prefecture&#45;&gt;Add penalty</title>
<path fill="none" stroke="#000000" stroke-width="3.02" d="M211.88,-442.69C216.78,-437.2 222.04,-430.99 226.5,-425 231.32,-418.53 236.11,-411.29 240.44,-404.37"/>
<polygon fill="#000000" stroke="#000000" stroke-width="3.02" points="243.3,-406.42 245.48,-396.05 237.31,-402.79 243.3,-406.42"/>
<text text-anchor="middle" x="243.5" y="-413.8" font-family="Times,serif" font-size="14.00">35</text>
</g>
<!-- Receive Result Appeal from Prefecture -->
<g id="node8" class="node">
<title>Receive Result Appeal from Prefecture</title>
<polygon fill="#9b9bff" stroke="black" points="315,-305 58,-305 58,-269 315,-269 315,-305"/>
<text text-anchor="middle" x="186.5" y="-283.3" font-family="Times,serif" font-size="14.00">Receive Result Appeal from Prefecture (68)</text>
</g>
<!-- Send Appeal to Prefecture&#45;&gt;Receive Result Appeal from Prefecture -->
<g id="edge12" class="edge">
<title>Send Appeal to Prefecture&#45;&gt;Receive Result Appeal from Prefecture</title>
<path fill="none" stroke="#000000" stroke-width="2.84" d="M190.23,-442.59C186.39,-428.96 181.53,-409.47 179.5,-392 176.68,-367.67 178.79,-340 181.42,-319.32"/>
<polygon fill="#000000" stroke="#000000" stroke-width="2.84" points="184.86,-320 182.8,-309.61 177.93,-319.02 184.86,-320"/>
<text text-anchor="middle" x="186.5" y="-370.3" font-family="Times,serif" font-size="14.00">33</text>
</g>
<!-- Add penalty&#45;&gt;Send Appeal to Prefecture -->
<g id="edge11" class="edge">
<title>Add penalty&#45;&gt;Send Appeal to Prefecture</title>
<path fill="none" stroke="#000000" stroke-width="2.84" d="M226.08,-392.49C219.47,-397.41 213.12,-403.28 208.5,-410 204.68,-415.55 201.98,-422.16 200.08,-428.71"/>
<polygon fill="#000000" stroke="#000000" stroke-width="2.84" points="196.68,-427.85 197.97,-438.36 203.52,-429.34 196.68,-427.85"/>
<text text-anchor="middle" x="215.5" y="-413.8" font-family="Times,serif" font-size="14.00">33</text>
</g>
<!-- Add penalty&#45;&gt;Receive Result Appeal from Prefecture -->
<g id="edge7" class="edge">
<title>Add penalty&#45;&gt;Receive Result Appeal from Prefecture</title>
<path fill="none" stroke="#000000" stroke-width="3.02" d="M243.13,-355.8C233.67,-344.47 221.05,-329.36 210.13,-316.29"/>
<polygon fill="#000000" stroke="#000000" stroke-width="3.02" points="213.12,-314.41 204.02,-308.98 207.75,-318.9 213.12,-314.41"/>
<text text-anchor="middle" x="232.5" y="-326.8" font-family="Times,serif" font-size="14.00">35</text>
</g>
<!-- Notify Result Appeal to Offender -->
<g id="node9" class="node">
<title>Notify Result Appeal to Offender</title>
<polygon fill="#ffffff" stroke="black" points="225,-218 0,-218 0,-182 225,-182 225,-218"/>
<text text-anchor="middle" x="112.5" y="-196.3" font-family="Times,serif" font-size="14.00">Notify Result Appeal to Offender (61)</text>
</g>
<!-- Receive Result Appeal from Prefecture&#45;&gt;Notify Result Appeal to Offender -->
<g id="edge8" class="edge">
<title>Receive Result Appeal from Prefecture&#45;&gt;Notify Result Appeal to Offender</title>
<path fill="none" stroke="#000000" stroke-width="5.37" d="M171.52,-268.8C161.96,-257.81 149.31,-243.28 138.17,-230.48"/>
<polygon fill="#000000" stroke="#000000" stroke-width="5.37" points="141.96,-227.69 131.85,-223.23 134.88,-233.86 141.96,-227.69"/>
<text text-anchor="middle" x="161.5" y="-239.8" font-family="Times,serif" font-size="14.00">61</text>
</g>
<!-- Payment -->
<g id="node10" class="node">
<title>Payment</title>
<polygon fill="#9b9bff" stroke="black" points="232,-131 141,-131 141,-95 232,-95 232,-131"/>
<text text-anchor="middle" x="186.5" y="-109.3" font-family="Times,serif" font-size="14.00">Payment (68)</text>
</g>
<!-- Receive Result Appeal from Prefecture&#45;&gt;Payment -->
<g id="edge13" class="edge">
<title>Receive Result Appeal from Prefecture&#45;&gt;Payment</title>
<path fill="none" stroke="#000000" stroke-width="0.5" d="M203.37,-268.64C214.6,-255.81 228.38,-237.28 234.5,-218 239.34,-202.75 239.34,-197.25 234.5,-182 229.58,-166.48 219.69,-151.45 210.16,-139.49"/>
<polygon fill="#000000" stroke="#000000" stroke-width="0.5" points="212.95,-137.37 203.85,-131.94 207.58,-141.85 212.95,-137.37"/>
<text text-anchor="middle" x="241" y="-196.3" font-family="Times,serif" font-size="14.00">7</text>
</g>
<!-- Notify Result Appeal to Offender&#45;&gt;Payment -->
<g id="edge9" class="edge">
<title>Notify Result Appeal to Offender&#45;&gt;Payment</title>
<path fill="none" stroke="#000000" stroke-width="5.37" d="M127.48,-181.8C137.04,-170.81 149.69,-156.28 160.83,-143.48"/>
<polygon fill="#000000" stroke="#000000" stroke-width="5.37" points="164.12,-146.86 167.15,-136.23 157.04,-140.69 164.12,-146.86"/>
<text text-anchor="middle" x="161.5" y="-152.8" font-family="Times,serif" font-size="14.00">61</text>
</g>
<!-- end_node -->
<g id="node11" class="node">
<title>end_node</title>
<ellipse fill="none" stroke="black" cx="186.5" cy="-22" rx="18" ry="18"/>
<ellipse fill="none" stroke="black" cx="186.5" cy="-22" rx="22" ry="22"/>
<text text-anchor="start" x="182" y="-18.3" font-family="Times,serif" font-size="14.00">■</text>
</g>
<!-- Payment&#45;&gt;end_node -->
<g id="edge14" class="edge">
<title>Payment&#45;&gt;end_node</title>
<path fill="none" stroke="#000000" stroke-width="6" d="M186.5,-94.84C186.5,-85.02 186.5,-72.3 186.5,-60.3"/>
<polygon fill="#000000" stroke="#000000" stroke-width="6" points="191.75,-60.64 186.5,-50.64 181.25,-60.64 191.75,-60.64"/>
<text text-anchor="middle" x="193.5" y="-65.8" font-family="Times,serif" font-size="14.00">68</text>
</g>
</g>
</svg>
