<?xml version="1.0" encoding="UTF-8" standalone="no"?>
<!DOCTYPE svg PUBLIC "-//W3C//DTD SVG 1.1//EN"
 "http://www.w3.org/Graphics/SVG/1.1/DTD/svg11.dtd">
<!-- Generated by graphviz version 7.0.5 (0)
 -->
<!-- Title: dfg Pages: 1 -->
<svg width="323pt" height="1009pt"
 viewBox="0.00 0.00 323.00 1009.00" xmlns="http://www.w3.org/2000/svg" xmlns:xlink="http://www.w3.org/1999/xlink">
<g id="graph0" class="graph" transform="scale(1 1) rotate(0) translate(4 1005)">
<title>dfg</title>
<polygon fill="white" stroke="none" points="-4,4 -4,-1005 319,-1005 319,4 -4,4"/>
<!-- start_node -->
<g id="node1" class="node">
<title>start_node</title>
<ellipse fill="none" stroke="black" cx="194" cy="-983" rx="18" ry="18"/>
<text text-anchor="start" x="189.5" y="-979.3" font-family="Times,serif" font-size="14.00">●</text>
</g>
<!-- Create Fine -->
<g id="node2" class="node">
<title>Create Fine</title>
<polygon fill="#9b9bff" stroke="black" points="243.5,-914 144.5,-914 144.5,-878 243.5,-878 243.5,-914"/>
<text text-anchor="middle" x="194" y="-892.3" font-family="Times,serif" font-size="14.00">Create Fine (5)</text>
</g>
<!-- start_node&#45;&gt;Create Fine -->
<g id="edge1" class="edge">
<title>start_node&#45;&gt;Create Fine</title>
<path fill="none" stroke="#000000" stroke-width="6" d="M194,-964.8C194,-954.96 194,-942.27 194,-930.53"/>
<polygon fill="#000000" stroke="#000000" stroke-width="6" points="199.25,-930.92 194,-920.92 188.75,-930.92 199.25,-930.92"/>
<text text-anchor="middle" x="197.5" y="-935.8" font-family="Times,serif" font-size="14.00">5</text>
</g>
<!-- Send Fine -->
<g id="node3" class="node">
<title>Send Fine</title>
<polygon fill="#9b9bff" stroke="black" points="239.5,-827 148.5,-827 148.5,-791 239.5,-791 239.5,-827"/>
<text text-anchor="middle" x="194" y="-805.3" font-family="Times,serif" font-size="14.00">Send Fine (5)</text>
</g>
<!-- Create Fine&#45;&gt;Send Fine -->
<g id="edge2" class="edge">
<title>Create Fine&#45;&gt;Send Fine</title>
<path fill="none" stroke="#000000" stroke-width="6" d="M194,-877.8C194,-867.96 194,-855.27 194,-843.53"/>
<polygon fill="#000000" stroke="#000000" stroke-width="6" points="199.25,-843.92 194,-833.92 188.75,-843.92 199.25,-843.92"/>
<text text-anchor="middle" x="197.5" y="-848.8" font-family="Times,serif" font-size="14.00">5</text>
</g>
<!-- Insert Fine Notification -->
<g id="node4" class="node">
<title>Insert Fine Notification</title>
<polygon fill="#9b9bff" stroke="black" points="276,-740 112,-740 112,-704 276,-704 276,-740"/>
<text text-anchor="middle" x="194" y="-718.3" font-family="Times,serif" font-size="14.00">Insert Fine Notification (5)</text>
</g>
<!-- Send Fine&#45;&gt;Insert Fine Notification -->
<g id="edge3" class="edge">
<title>Send Fine&#45;&gt;Insert Fine Notification</title>
<path fill="none" stroke="#000000" stroke-width="6" d="M194,-790.8C194,-780.96 194,-768.27 194,-756.53"/>
<polygon fill="#000000" stroke="#000000" stroke-width="6" points="199.25,-756.92 194,-746.92 188.75,-756.92 199.25,-756.92"/>
<text text-anchor="middle" x="197.5" y="-761.8" font-family="Times,serif" font-size="14.00">5</text>
</g>
<!-- Insert Date Appeal to Prefecture -->
<g id="node5" class="node">
<title>Insert Date Appeal to Prefecture</title>
<polygon fill="#9b9bff" stroke="black" points="300,-653 88,-653 88,-617 300,-617 300,-653"/>
<text text-anchor="middle" x="194" y="-631.3" font-family="Times,serif" font-size="14.00">Insert Date Appeal to Prefecture (5)</text>
</g>
<!-- Insert Fine Notification&#45;&gt;Insert Date Appeal to Prefecture -->
<g id="edge4" class="edge">
<title>Insert Fine Notification&#45;&gt;Insert Date Appeal to Prefecture</title>
<path fill="none" stroke="#000000" stroke-width="6" d="M194,-703.8C194,-693.96 194,-681.27 194,-669.53"/>
<polygon fill="#000000" stroke="#000000" stroke-width="6" points="199.25,-669.92 194,-659.92 188.75,-669.92 199.25,-669.92"/>
<text text-anchor="middle" x="197.5" y="-674.8" font-family="Times,serif" font-size="14.00">5</text>
</g>
<!-- Add penalty -->
<g id="node6" class="node">
<title>Add penalty</title>
<polygon fill="#9b9bff" stroke="black" points="201.5,-566 98.5,-566 98.5,-530 201.5,-530 201.5,-566"/>
<text text-anchor="middle" x="150" y="-544.3" font-family="Times,serif" font-size="14.00">Add penalty (5)</text>
</g>
<!-- Insert Date Appeal to Prefecture&#45;&gt;Add penalty -->
<g id="edge5" class="edge">
<title>Insert Date Appeal to Prefecture&#45;&gt;Add penalty</title>
<path fill="none" stroke="#000000" stroke-width="3.25" d="M185.1,-616.8C179.59,-606.15 172.35,-592.18 165.89,-579.69"/>
<polygon fill="#000000" stroke="#000000" stroke-width="3.25" points="169.01,-578.11 161.3,-570.84 162.79,-581.33 169.01,-578.11"/>
<text text-anchor="middle" x="177.5" y="-587.8" font-family="Times,serif" font-size="14.00">3</text>
</g>
<!-- Send Appeal to Prefecture -->
<g id="node7" class="node">
<title>Send Appeal to Prefecture</title>
<polygon fill="#9b9bff" stroke="black" points="313.5,-479 134.5,-479 134.5,-443 313.5,-443 313.5,-479"/>
<text text-anchor="middle" x="224" y="-457.3" font-family="Times,serif" font-size="14.00">Send Appeal to Prefecture (5)</text>
</g>
<!-- Insert Date Appeal to Prefecture&#45;&gt;Send Appeal to Prefecture -->
<g id="edge10" class="edge">
<title>Insert Date Appeal to Prefecture&#45;&gt;Send Appeal to Prefecture</title>
<path fill="none" stroke="#000000" stroke-width="1.88" d="M198.99,-616.52C202.74,-602.86 207.76,-583.34 211,-566 215.63,-541.2 219.06,-512.76 221.23,-491.9"/>
<polygon fill="#000000" stroke="#000000" stroke-width="1.88" points="224.68,-492.52 222.19,-482.22 217.72,-491.82 224.68,-492.52"/>
<text text-anchor="middle" x="219.5" y="-544.3" font-family="Times,serif" font-size="14.00">2</text>
</g>
<!-- Add penalty&#45;&gt;Send Appeal to Prefecture -->
<g id="edge6" class="edge">
<title>Add penalty&#45;&gt;Send Appeal to Prefecture</title>
<path fill="none" stroke="#000000" stroke-width="3.25" d="M164.98,-529.8C174.74,-518.58 187.72,-503.67 199.03,-490.69"/>
<polygon fill="#000000" stroke="#000000" stroke-width="3.25" points="201.64,-493.02 205.56,-483.18 196.36,-488.42 201.64,-493.02"/>
<text text-anchor="middle" x="194.5" y="-500.8" font-family="Times,serif" font-size="14.00">3</text>
</g>
<!-- Receive Result Appeal from Prefecture -->
<g id="node8" class="node">
<title>Receive Result Appeal from Prefecture</title>
<polygon fill="#9b9bff" stroke="black" points="250,-392 0,-392 0,-356 250,-356 250,-392"/>
<text text-anchor="middle" x="125" y="-370.3" font-family="Times,serif" font-size="14.00">Receive Result Appeal from Prefecture (5)</text>
</g>
<!-- Add penalty&#45;&gt;Receive Result Appeal from Prefecture -->
<g id="edge12" class="edge">
<title>Add penalty&#45;&gt;Receive Result Appeal from Prefecture</title>
<path fill="none" stroke="#000000" stroke-width="1.88" d="M139.18,-529.59C131.58,-516.29 122.07,-497.21 118,-479 112.49,-454.37 115.06,-425.71 118.55,-404.73"/>
<polygon fill="#000000" stroke="#000000" stroke-width="1.88" points="121.98,-405.42 120.37,-394.95 115.09,-404.14 121.98,-405.42"/>
<text text-anchor="middle" x="121.5" y="-457.3" font-family="Times,serif" font-size="14.00">2</text>
</g>
<!-- Send Appeal to Prefecture&#45;&gt;Add penalty -->
<g id="edge11" class="edge">
<title>Send Appeal to Prefecture&#45;&gt;Add penalty</title>
<path fill="none" stroke="#000000" stroke-width="1.88" d="M191,-479.44C183.74,-484.4 176.56,-490.29 171,-497 165.92,-503.13 161.9,-510.66 158.8,-518.01"/>
<polygon fill="#000000" stroke="#000000" stroke-width="1.88" points="155.57,-516.65 155.4,-527.24 162.14,-519.07 155.57,-516.65"/>
<text text-anchor="middle" x="174.5" y="-500.8" font-family="Times,serif" font-size="14.00">2</text>
</g>
<!-- Send Appeal to Prefecture&#45;&gt;Receive Result Appeal from Prefecture -->
<g id="edge7" class="edge">
<title>Send Appeal to Prefecture&#45;&gt;Receive Result Appeal from Prefecture</title>
<path fill="none" stroke="#000000" stroke-width="3.25" d="M203.97,-442.8C190.37,-431.12 172.11,-415.45 156.57,-402.11"/>
<polygon fill="#000000" stroke="#000000" stroke-width="3.25" points="158.94,-399.53 149.08,-395.67 154.38,-404.84 158.94,-399.53"/>
<text text-anchor="middle" x="183.5" y="-413.8" font-family="Times,serif" font-size="14.00">3</text>
</g>
<!-- Notify Result Appeal to Offender -->
<g id="node9" class="node">
<title>Notify Result Appeal to Offender</title>
<polygon fill="#9b9bff" stroke="black" points="234,-305 16,-305 16,-269 234,-269 234,-305"/>
<text text-anchor="middle" x="125" y="-283.3" font-family="Times,serif" font-size="14.00">Notify Result Appeal to Offender (5)</text>
</g>
<!-- Receive Result Appeal from Prefecture&#45;&gt;Notify Result Appeal to Offender -->
<g id="edge8" class="edge">
<title>Receive Result Appeal from Prefecture&#45;&gt;Notify Result Appeal to Offender</title>
<path fill="none" stroke="#000000" stroke-width="6" d="M125,-355.8C125,-345.96 125,-333.27 125,-321.53"/>
<polygon fill="#000000" stroke="#000000" stroke-width="6" points="130.25,-321.92 125,-311.92 119.75,-321.92 130.25,-321.92"/>
<text text-anchor="middle" x="128.5" y="-326.8" font-family="Times,serif" font-size="14.00">5</text>
</g>
<!-- Send for Credit Collection -->
<g id="node10" class="node">
<title>Send for Credit Collection</title>
<polygon fill="#9b9bff" stroke="black" points="215,-131 35,-131 35,-95 215,-95 215,-131"/>
<text text-anchor="middle" x="125" y="-109.3" font-family="Times,serif" font-size="14.00">Send for Credit Collection (5)</text>
</g>
<!-- Notify Result Appeal to Offender&#45;&gt;Send for Credit Collection -->
<g id="edge9" class="edge">
<title>Notify Result Appeal to Offender&#45;&gt;Send for Credit Collection</title>
<path fill="none" stroke="#000000" stroke-width="3.25" d="M93.96,-268.61C76.34,-256.85 55.88,-239.55 46,-218 39.33,-203.46 39.33,-196.54 46,-182 53.72,-165.17 67.9,-150.92 82.13,-139.89"/>
<polygon fill="#000000" stroke="#000000" stroke-width="3.25" points="83.88,-142.94 89.96,-134.26 79.8,-137.25 83.88,-142.94"/>
<text text-anchor="middle" x="49.5" y="-196.3" font-family="Times,serif" font-size="14.00">3</text>
</g>
<!-- Appeal to Judge -->
<g id="node11" class="node">
<title>Appeal to Judge</title>
<polygon fill="#ffffff" stroke="black" points="187.5,-218 62.5,-218 62.5,-182 187.5,-182 187.5,-218"/>
<text text-anchor="middle" x="125" y="-196.3" font-family="Times,serif" font-size="14.00">Appeal to Judge (1)</text>
</g>
<!-- Notify Result Appeal to Offender&#45;&gt;Appeal to Judge -->
<g id="edge13" class="edge">
<title>Notify Result Appeal to Offender&#45;&gt;Appeal to Judge</title>
<path fill="none" stroke="#000000" stroke-width="0.5" d="M125,-268.8C125,-257.35 125,-242.06 125,-228.89"/>
<polygon fill="#000000" stroke="#000000" stroke-width="0.5" points="128.5,-229.22 125,-219.22 121.5,-229.22 128.5,-229.22"/>
<text text-anchor="middle" x="128.5" y="-239.8" font-family="Times,serif" font-size="14.00">1</text>
</g>
<!-- Payment -->
<g id="node12" class="node">
<title>Payment</title>
<polygon fill="#e6e6ff" stroke="black" points="290,-218 206,-218 206,-182 290,-182 290,-218"/>
<text text-anchor="middle" x="248" y="-196.3" font-family="Times,serif" font-size="14.00">Payment (2)</text>
</g>
<!-- Notify Result Appeal to Offender&#45;&gt;Payment -->
<g id="edge15" class="edge">
<title>Notify Result Appeal to Offender&#45;&gt;Payment</title>
<path fill="none" stroke="#000000" stroke-width="0.5" d="M150.19,-268.59C168.68,-255.82 193.99,-238.32 214.23,-224.34"/>
<polygon fill="#000000" stroke="#000000" stroke-width="0.5" points="215.99,-227.38 222.22,-218.81 212.01,-221.62 215.99,-227.38"/>
<text text-anchor="middle" x="196.5" y="-239.8" font-family="Times,serif" font-size="14.00">1</text>
</g>
<!-- end_node -->
<g id="node13" class="node">
<title>end_node</title>
<ellipse fill="none" stroke="black" cx="125" cy="-22" rx="18" ry="18"/>
<ellipse fill="none" stroke="black" cx="125" cy="-22" rx="22" ry="22"/>
<text text-anchor="start" x="120.5" y="-18.3" font-family="Times,serif" font-size="14.00">■</text>
</g>
<!-- Send for Credit Collection&#45;&gt;end_node -->
<g id="edge18" class="edge">
<title>Send for Credit Collection&#45;&gt;end_node</title>
<path fill="none" stroke="#000000" stroke-width="6" d="M125,-94.84C125,-85.02 125,-72.3 125,-60.3"/>
<polygon fill="#000000" stroke="#000000" stroke-width="6" points="130.25,-60.64 125,-50.64 119.75,-60.64 130.25,-60.64"/>
<text text-anchor="middle" x="128.5" y="-65.8" font-family="Times,serif" font-size="14.00">5</text>
</g>
<!-- Appeal to Judge&#45;&gt;Send for Credit Collection -->
<g id="edge14" class="edge">
<title>Appeal to Judge&#45;&gt;Send for Credit Collection</title>
<path fill="none" stroke="#000000" stroke-width="0.5" d="M125,-181.8C125,-170.35 125,-155.06 125,-141.89"/>
<polygon fill="#000000" stroke="#000000" stroke-width="0.5" points="128.5,-142.22 125,-132.22 121.5,-142.22 128.5,-142.22"/>
<text text-anchor="middle" x="128.5" y="-152.8" font-family="Times,serif" font-size="14.00">1</text>
</g>
<!-- Payment&#45;&gt;Send for Credit Collection -->
<g id="edge17" class="edge">
<title>Payment&#45;&gt;Send for Credit Collection</title>
<path fill="none" stroke="#000000" stroke-width="0.5" d="M222.81,-181.59C204.32,-168.82 179.01,-151.32 158.77,-137.34"/>
<polygon fill="#000000" stroke="#000000" stroke-width="0.5" points="160.99,-134.62 150.78,-131.81 157.01,-140.38 160.99,-134.62"/>
<text text-anchor="middle" x="196.5" y="-152.8" font-family="Times,serif" font-size="14.00">1</text>
</g>
<!-- Payment&#45;&gt;Payment -->
<g id="edge16" class="edge">
<title>Payment&#45;&gt;Payment</title>
<path fill="none" stroke="#000000" stroke-width="0.5" d="M290.33,-208.01C300.48,-207.39 308,-204.72 308,-200 308,-197.13 305.21,-195.01 300.73,-193.66"/>
<polygon fill="#000000" stroke="#000000" stroke-width="0.5" points="301.51,-190.24 291.08,-192.11 300.4,-197.15 301.51,-190.24"/>
<text text-anchor="middle" x="311.5" y="-196.3" font-family="Times,serif" font-size="14.00">1</text>
</g>
</g>
</svg>
