<?xml version="1.0" encoding="UTF-8" standalone="no"?>
<!DOCTYPE svg PUBLIC "-//W3C//DTD SVG 1.1//EN"
 "http://www.w3.org/Graphics/SVG/1.1/DTD/svg11.dtd">
<!-- Generated by graphviz version 7.0.5 (0)
 -->
<!-- Title: dfg Pages: 1 -->
<svg width="933pt" height="835pt"
 viewBox="0.00 0.00 933.00 835.00" xmlns="http://www.w3.org/2000/svg" xmlns:xlink="http://www.w3.org/1999/xlink">
<g id="graph0" class="graph" transform="scale(1 1) rotate(0) translate(4 831)">
<title>dfg</title>
<polygon fill="white" stroke="none" points="-4,4 -4,-831 929,-831 929,4 -4,4"/>
<!-- start_node -->
<g id="node1" class="node">
<title>start_node</title>
<ellipse fill="none" stroke="black" cx="492" cy="-809" rx="18" ry="18"/>
<text text-anchor="start" x="487.5" y="-805.3" font-family="Times,serif" font-size="14.00">●</text>
</g>
<!-- Create Fine -->
<g id="node2" class="node">
<title>Create Fine</title>
<polygon fill="#9b9bff" stroke="black" points="555,-740 429,-740 429,-704 555,-704 555,-740"/>
<text text-anchor="middle" x="492" y="-718.3" font-family="Times,serif" font-size="14.00">Create Fine (38750)</text>
</g>
<!-- start_node&#45;&gt;Create Fine -->
<g id="edge1" class="edge">
<title>start_node&#45;&gt;Create Fine</title>
<path fill="none" stroke="#000000" stroke-width="9.53" d="M492,-790.8C492,-781.3 492,-769.15 492,-757.76"/>
<polygon fill="#000000" stroke="#000000" stroke-width="9.53" points="500.34,-757.91 492,-747.91 483.66,-757.91 500.34,-757.91"/>
<text text-anchor="middle" x="509" y="-761.8" font-family="Times,serif" font-size="14.00">38750</text>
</g>
<!-- Send Fine -->
<g id="node3" class="node">
<title>Send Fine</title>
<polygon fill="#c1c1ff" stroke="black" points="219,-653 101,-653 101,-617 219,-617 219,-653"/>
<text text-anchor="middle" x="160" y="-631.3" font-family="Times,serif" font-size="14.00">Send Fine (23759)</text>
</g>
<!-- Create Fine&#45;&gt;Send Fine -->
<g id="edge2" class="edge">
<title>Create Fine&#45;&gt;Send Fine</title>
<path fill="none" stroke="#000000" stroke-width="6" d="M428.77,-704.81C373.66,-690.7 293.62,-670.21 235.22,-655.26"/>
<polygon fill="#000000" stroke="#000000" stroke-width="6" points="236.61,-650.19 225.62,-652.8 234,-660.37 236.61,-650.19"/>
<text text-anchor="middle" x="362" y="-674.8" font-family="Times,serif" font-size="14.00">23610</text>
</g>
<!-- Payment -->
<g id="node7" class="node">
<title>Payment</title>
<polygon fill="#c0c0ff" stroke="black" points="599.5,-218 488.5,-218 488.5,-182 599.5,-182 599.5,-218"/>
<text text-anchor="middle" x="544" y="-196.3" font-family="Times,serif" font-size="14.00">Payment (24037)</text>
</g>
<!-- Create Fine&#45;&gt;Payment -->
<g id="edge6" class="edge">
<title>Create Fine&#45;&gt;Payment</title>
<path fill="none" stroke="#000000" stroke-width="4.03" d="M555.22,-720.45C667.73,-717.74 891,-703.82 891,-636 891,-636 891,-636 891,-416.5 891,-287.93 716.96,-233.38 615.39,-212.5"/>
<polygon fill="#000000" stroke="#000000" stroke-width="4.03" points="616.19,-209.06 605.7,-210.59 614.83,-215.98 616.19,-209.06"/>
<text text-anchor="middle" x="908" y="-457.3" font-family="Times,serif" font-size="14.00">15138</text>
</g>
<!-- Insert Date Appeal to Prefecture -->
<g id="node9" class="node">
<title>Insert Date Appeal to Prefecture</title>
<polygon fill="#fefeff" stroke="black" points="368,-392 150,-392 150,-356 368,-356 368,-392"/>
<text text-anchor="middle" x="259" y="-370.3" font-family="Times,serif" font-size="14.00">Insert Date Appeal to Prefecture (14)</text>
</g>
<!-- Create Fine&#45;&gt;Insert Date Appeal to Prefecture -->
<g id="edge29" class="edge">
<title>Create Fine&#45;&gt;Insert Date Appeal to Prefecture</title>
<path fill="none" stroke="#ff0000" stroke-width="0.5" stroke-dasharray="5,2" d="M490.66,-703.65C486.84,-663.72 472.9,-563.64 426,-497 416.8,-483.92 339.55,-429.98 293.4,-398.37"/>
<polygon fill="#ff0000" stroke="#ff0000" stroke-width="0.5" points="295.48,-395.55 285.24,-392.79 291.52,-401.32 295.48,-395.55"/>
<text text-anchor="middle" x="463.5" y="-544.3" font-family="Times,serif" font-size="14.00">2</text>
</g>
<!-- Insert Fine Notification -->
<g id="node4" class="node">
<title>Insert Fine Notification</title>
<polygon fill="#c4c4ff" stroke="black" points="417.5,-566 226.5,-566 226.5,-530 417.5,-530 417.5,-566"/>
<text text-anchor="middle" x="322" y="-544.3" font-family="Times,serif" font-size="14.00">Insert Fine Notification (22652)</text>
</g>
<!-- Send Fine&#45;&gt;Insert Fine Notification -->
<g id="edge3" class="edge">
<title>Send Fine&#45;&gt;Insert Fine Notification</title>
<path fill="none" stroke="#000000" stroke-width="5.77" d="M193.17,-616.59C216.65,-604.27 248.48,-587.57 274.63,-573.85"/>
<polygon fill="#000000" stroke="#000000" stroke-width="5.77" points="276.69,-578.47 283.2,-569.36 272,-569.53 276.69,-578.47"/>
<text text-anchor="middle" x="267" y="-587.8" font-family="Times,serif" font-size="14.00">22624</text>
</g>
<!-- Send Fine&#45;&gt;Payment -->
<g id="edge9" class="edge">
<title>Send Fine&#45;&gt;Payment</title>
<path fill="none" stroke="#ff0000" stroke-width="0.74" stroke-dasharray="5,2" d="M219.45,-628.72C276.18,-621.5 362.35,-604.68 427,-566 445.63,-554.86 440.5,-539.54 460,-530 548.92,-486.51 590.75,-550.37 682,-512 702.62,-503.33 706.01,-496.46 720,-479 756.59,-433.33 777.92,-413.49 767,-356 758.72,-312.4 750.89,-298.79 718,-269 687.94,-241.77 645.72,-224.92 610.4,-214.8"/>
<polygon fill="#ff0000" stroke="#ff0000" stroke-width="0.74" points="611.33,-211.43 600.77,-212.17 609.49,-218.18 611.33,-211.43"/>
<text text-anchor="middle" x="779" y="-413.8" font-family="Times,serif" font-size="14.00">1046</text>
</g>
<!-- Send Fine&#45;&gt;Insert Date Appeal to Prefecture -->
<g id="edge27" class="edge">
<title>Send Fine&#45;&gt;Insert Date Appeal to Prefecture</title>
<path fill="none" stroke="#ff0000" stroke-width="0.5" stroke-dasharray="5,2" d="M166.65,-616.6C183.56,-572.37 228.29,-455.34 248.65,-402.08"/>
<polygon fill="#ff0000" stroke="#ff0000" stroke-width="0.5" points="251.81,-403.62 252.11,-393.03 245.27,-401.12 251.81,-403.62"/>
<text text-anchor="middle" x="214.5" y="-500.8" font-family="Times,serif" font-size="14.00">1</text>
</g>
<!-- end_node -->
<g id="node11" class="node">
<title>end_node</title>
<ellipse fill="none" stroke="black" cx="314" cy="-22" rx="18" ry="18"/>
<ellipse fill="none" stroke="black" cx="314" cy="-22" rx="22" ry="22"/>
<text text-anchor="start" x="309.5" y="-18.3" font-family="Times,serif" font-size="14.00">■</text>
</g>
<!-- Send Fine&#45;&gt;end_node -->
<g id="edge36" class="edge">
<title>Send Fine&#45;&gt;end_node</title>
<path fill="none" stroke="#ff0000" stroke-width="0.52" stroke-dasharray="5,2" d="M100.88,-626.71C55.3,-617.39 0,-596.34 0,-549 0,-549 0,-549 0,-112 0,-53.96 201.09,-31.82 281.42,-25.29"/>
<polygon fill="#ff0000" stroke="#ff0000" stroke-width="0.52" points="281.44,-28.8 291.14,-24.53 280.89,-21.82 281.44,-28.8"/>
<text text-anchor="middle" x="7" y="-326.8" font-family="Times,serif" font-size="14.00">88</text>
</g>
<!-- Add penalty -->
<g id="node5" class="node">
<title>Add penalty</title>
<polygon fill="#c4c4ff" stroke="black" points="547,-479 417,-479 417,-443 547,-443 547,-479"/>
<text text-anchor="middle" x="482" y="-457.3" font-family="Times,serif" font-size="14.00">Add penalty (22652)</text>
</g>
<!-- Insert Fine Notification&#45;&gt;Add penalty -->
<g id="edge4" class="edge">
<title>Insert Fine Notification&#45;&gt;Add penalty</title>
<path fill="none" stroke="#000000" stroke-width="5.54" d="M354.76,-529.59C377.85,-517.33 409.1,-500.73 434.85,-487.05"/>
<polygon fill="#000000" stroke="#000000" stroke-width="5.54" points="437.11,-491.33 443.67,-482.36 432.57,-482.78 437.11,-491.33"/>
<text text-anchor="middle" x="428" y="-500.8" font-family="Times,serif" font-size="14.00">21621</text>
</g>
<!-- Insert Fine Notification&#45;&gt;Payment -->
<g id="edge10" class="edge">
<title>Insert Fine Notification&#45;&gt;Payment</title>
<path fill="none" stroke="#ff0000" stroke-width="0.73" stroke-dasharray="5,2" d="M405.1,-529.57C462.28,-516.33 532.08,-497.34 556,-479 578.51,-461.75 582.14,-452.25 590,-425 591.85,-418.59 592.16,-416.31 590,-410 586.71,-400.41 580.07,-401.28 576,-392 547.78,-327.62 561.72,-305.31 550,-236 549.62,-233.77 549.23,-231.46 548.83,-229.13"/>
<polygon fill="#ff0000" stroke="#ff0000" stroke-width="0.73" points="552.33,-228.8 547.19,-219.53 545.43,-229.98 552.33,-228.8"/>
<text text-anchor="middle" x="586.5" y="-370.3" font-family="Times,serif" font-size="14.00">984</text>
</g>
<!-- Appeal to Judge -->
<g id="node8" class="node">
<title>Appeal to Judge</title>
<polygon fill="#fefeff" stroke="black" points="736.5,-392 605.5,-392 605.5,-356 736.5,-356 736.5,-392"/>
<text text-anchor="middle" x="671" y="-370.3" font-family="Times,serif" font-size="14.00">Appeal to Judge (43)</text>
</g>
<!-- Insert Fine Notification&#45;&gt;Appeal to Judge -->
<g id="edge15" class="edge">
<title>Insert Fine Notification&#45;&gt;Appeal to Judge</title>
<path fill="none" stroke="#ff0000" stroke-width="0.51" stroke-dasharray="5,2" d="M417.94,-531.79C422.69,-531.16 427.4,-530.56 432,-530 454.92,-527.24 621.55,-527.12 639,-512 669.91,-485.22 674.07,-434.86 673.26,-403.23"/>
<polygon fill="#ff0000" stroke="#ff0000" stroke-width="0.51" points="676.76,-403.1 672.81,-393.27 669.76,-403.42 676.76,-403.1"/>
<text text-anchor="middle" x="677" y="-457.3" font-family="Times,serif" font-size="14.00">38</text>
</g>
<!-- Insert Fine Notification&#45;&gt;Insert Date Appeal to Prefecture -->
<g id="edge17" class="edge">
<title>Insert Fine Notification&#45;&gt;Insert Date Appeal to Prefecture</title>
<path fill="none" stroke="#ff0000" stroke-width="0.5" stroke-dasharray="5,2" d="M304.82,-529.67C299.99,-524.27 294.98,-518.13 291,-512 269.4,-478.72 262.33,-432.52 260.04,-403.19"/>
<polygon fill="#ff0000" stroke="#ff0000" stroke-width="0.5" points="263.54,-402.99 259.41,-393.23 256.55,-403.43 263.54,-402.99"/>
<text text-anchor="middle" x="277.5" y="-457.3" font-family="Times,serif" font-size="14.00">8</text>
</g>
<!-- Send Appeal to Prefecture -->
<g id="node10" class="node">
<title>Send Appeal to Prefecture</title>
<polygon fill="#ffffff" stroke="black" points="345.5,-305 166.5,-305 166.5,-269 345.5,-269 345.5,-305"/>
<text text-anchor="middle" x="256" y="-283.3" font-family="Times,serif" font-size="14.00">Send Appeal to Prefecture (9)</text>
</g>
<!-- Insert Fine Notification&#45;&gt;Send Appeal to Prefecture -->
<g id="edge31" class="edge">
<title>Insert Fine Notification&#45;&gt;Send Appeal to Prefecture</title>
<path fill="none" stroke="#ff0000" stroke-width="0.5" stroke-dasharray="5,2" d="M226.24,-531.69C203.93,-526.44 184.26,-519.87 176,-512 135.78,-473.68 148.86,-447 141,-392 138.74,-376.16 133.07,-369.9 141,-356 152.71,-335.47 173.32,-320.51 193.88,-309.94"/>
<polygon fill="#ff0000" stroke="#ff0000" stroke-width="0.5" points="195.14,-313.22 202.62,-305.72 192.09,-306.92 195.14,-313.22"/>
<text text-anchor="middle" x="147.5" y="-413.8" font-family="Times,serif" font-size="14.00">1</text>
</g>
<!-- Send for Credit Collection -->
<g id="node6" class="node">
<title>Send for Credit Collection</title>
<polygon fill="#d1d1ff" stroke="black" points="898.5,-131 691.5,-131 691.5,-95 898.5,-95 898.5,-131"/>
<text text-anchor="middle" x="795" y="-109.3" font-family="Times,serif" font-size="14.00">Send for Credit Collection (17547)</text>
</g>
<!-- Add penalty&#45;&gt;Send for Credit Collection -->
<g id="edge5" class="edge">
<title>Add penalty&#45;&gt;Send for Credit Collection</title>
<path fill="none" stroke="#000000" stroke-width="4.48" d="M547.33,-451.3C616.47,-440.73 719.25,-420.69 746,-392 809.15,-324.27 805.77,-205.07 799.67,-147.28"/>
<polygon fill="#000000" stroke="#000000" stroke-width="4.48" points="803.58,-146.99 798.5,-137.53 795.81,-147.93 803.58,-146.99"/>
<text text-anchor="middle" x="815" y="-283.3" font-family="Times,serif" font-size="14.00">17069</text>
</g>
<!-- Add penalty&#45;&gt;Payment -->
<g id="edge7" class="edge">
<title>Add penalty&#45;&gt;Payment</title>
<path fill="none" stroke="#000000" stroke-width="1.8" d="M488.36,-442.67C490.31,-437.07 492.36,-430.81 494,-425 513.42,-356.16 530.19,-273.73 538.48,-230.61"/>
<polygon fill="#000000" stroke="#000000" stroke-width="1.8" points="541.88,-231.46 540.31,-220.98 535,-230.15 541.88,-231.46"/>
<text text-anchor="middle" x="533" y="-326.8" font-family="Times,serif" font-size="14.00">5571</text>
</g>
<!-- Add penalty&#45;&gt;Appeal to Judge -->
<g id="edge23" class="edge">
<title>Add penalty&#45;&gt;Appeal to Judge</title>
<path fill="none" stroke="#ff0000" stroke-width="0.5" stroke-dasharray="5,2" d="M499.59,-442.52C511.3,-431.76 527.51,-418.45 544,-410 553.66,-405.05 573.63,-398.95 594.93,-393.24"/>
<polygon fill="#ff0000" stroke="#ff0000" stroke-width="0.5" points="595.6,-396.69 604.38,-390.76 593.82,-389.92 595.6,-396.69"/>
<text text-anchor="middle" x="547.5" y="-413.8" font-family="Times,serif" font-size="14.00">5</text>
</g>
<!-- Add penalty&#45;&gt;Insert Date Appeal to Prefecture -->
<g id="edge21" class="edge">
<title>Add penalty&#45;&gt;Insert Date Appeal to Prefecture</title>
<path fill="none" stroke="#ff0000" stroke-width="0.5" stroke-dasharray="5,2" d="M416.77,-442.72C400.87,-437.71 384.09,-431.75 369,-425 357.17,-419.71 355.58,-415.82 344,-410 334.69,-405.33 324.61,-400.76 314.75,-396.55"/>
<polygon fill="#ff0000" stroke="#ff0000" stroke-width="0.5" points="316.28,-393.4 305.7,-392.76 313.57,-399.85 316.28,-393.4"/>
<text text-anchor="middle" x="372.5" y="-413.8" font-family="Times,serif" font-size="14.00">3</text>
</g>
<!-- Add penalty&#45;&gt;Send Appeal to Prefecture -->
<g id="edge20" class="edge">
<title>Add penalty&#45;&gt;Send Appeal to Prefecture</title>
<path fill="none" stroke="#ff0000" stroke-width="0.5" stroke-dasharray="5,2" d="M474.87,-442.54C460.39,-407.46 428.08,-331.04 418,-323 412.32,-318.47 385.87,-312.06 355.94,-305.96"/>
<polygon fill="#ff0000" stroke="#ff0000" stroke-width="0.5" points="356.91,-302.59 346.42,-304.06 355.54,-309.45 356.91,-302.59"/>
<text text-anchor="middle" x="456.5" y="-370.3" font-family="Times,serif" font-size="14.00">4</text>
</g>
<!-- Send for Credit Collection&#45;&gt;end_node -->
<g id="edge34" class="edge">
<title>Send for Credit Collection&#45;&gt;end_node</title>
<path fill="none" stroke="#000000" stroke-width="4.59" d="M700.54,-94.52C593.94,-74.8 425.72,-43.67 351.41,-29.92"/>
<polygon fill="#000000" stroke="#000000" stroke-width="4.59" points="352.44,-26.03 341.88,-28.16 350.98,-33.93 352.44,-26.03"/>
<text text-anchor="middle" x="614" y="-65.8" font-family="Times,serif" font-size="14.00">17547</text>
</g>
<!-- Payment&#45;&gt;Send Fine -->
<g id="edge13" class="edge">
<title>Payment&#45;&gt;Send Fine</title>
<path fill="none" stroke="#ff0000" stroke-width="0.53" stroke-dasharray="5,2" d="M488.4,-204.57C356.96,-213.77 38,-240.74 38,-286 38,-549 38,-549 38,-549 38,-579.13 63.37,-599.46 90.97,-612.66"/>
<polygon fill="#ff0000" stroke="#ff0000" stroke-width="0.53" points="89.49,-615.83 100.05,-616.7 92.34,-609.44 89.49,-615.83"/>
<text text-anchor="middle" x="48.5" y="-413.8" font-family="Times,serif" font-size="14.00">147</text>
</g>
<!-- Payment&#45;&gt;Insert Fine Notification -->
<g id="edge14" class="edge">
<title>Payment&#45;&gt;Insert Fine Notification</title>
<path fill="none" stroke="#ff0000" stroke-width="0.51" stroke-dasharray="5,2" d="M590.98,-218.46C658.31,-246.69 771.49,-307.81 746,-392 739.92,-412.09 688.75,-497.1 659,-512 613.76,-534.67 482.26,-524.13 432,-530 430.85,-530.13 429.69,-530.27 428.53,-530.41"/>
<polygon fill="#ff0000" stroke="#ff0000" stroke-width="0.51" points="428.18,-526.93 418.69,-531.65 429.05,-533.87 428.18,-526.93"/>
<text text-anchor="middle" x="756" y="-370.3" font-family="Times,serif" font-size="14.00">27</text>
</g>
<!-- Payment&#45;&gt;Add penalty -->
<g id="edge11" class="edge">
<title>Payment&#45;&gt;Add penalty</title>
<path fill="none" stroke="#ff0000" stroke-width="0.73" stroke-dasharray="5,2" d="M533.85,-218.48C521.02,-241.54 499.48,-283.83 490,-323 481.07,-359.88 480.16,-403.89 480.74,-431.89"/>
<polygon fill="#ff0000" stroke="#ff0000" stroke-width="0.73" points="477.24,-431.84 481.03,-441.74 484.23,-431.64 477.24,-431.84"/>
<text text-anchor="middle" x="500.5" y="-326.8" font-family="Times,serif" font-size="14.00">988</text>
</g>
<!-- Payment&#45;&gt;Send for Credit Collection -->
<g id="edge12" class="edge">
<title>Payment&#45;&gt;Send for Credit Collection</title>
<path fill="none" stroke="#ff0000" stroke-width="0.61" stroke-dasharray="5,2" d="M595.4,-181.59C635.41,-168.04 691.09,-149.19 733.47,-134.84"/>
<polygon fill="#ff0000" stroke="#ff0000" stroke-width="0.61" points="734.45,-138.2 742.79,-131.68 732.2,-131.57 734.45,-138.2"/>
<text text-anchor="middle" x="694.5" y="-152.8" font-family="Times,serif" font-size="14.00">476</text>
</g>
<!-- Payment&#45;&gt;Payment -->
<g id="edge8" class="edge">
<title>Payment&#45;&gt;Payment</title>
<path fill="none" stroke="#000000" stroke-width="0.8" d="M599.77,-207.74C610.17,-206.78 617.5,-204.21 617.5,-200 617.5,-197.5 614.92,-195.58 610.64,-194.23"/>
<polygon fill="#000000" stroke="#000000" stroke-width="0.8" points="611.42,-190.81 600.96,-192.48 610.18,-197.7 611.42,-190.81"/>
<text text-anchor="middle" x="631.5" y="-196.3" font-family="Times,serif" font-size="14.00">1289</text>
</g>
<!-- Payment&#45;&gt;end_node -->
<g id="edge35" class="edge">
<title>Payment&#45;&gt;end_node</title>
<path fill="none" stroke="#000000" stroke-width="5.42" d="M521.53,-181.8C479.85,-149.91 390.57,-81.59 343.86,-45.85"/>
<polygon fill="#000000" stroke="#000000" stroke-width="5.42" points="346.95,-42.24 336.12,-39.93 341.18,-49.77 346.95,-42.24"/>
<text text-anchor="middle" x="468" y="-109.3" font-family="Times,serif" font-size="14.00">21110</text>
</g>
<!-- Appeal to Judge&#45;&gt;Add penalty -->
<g id="edge16" class="edge">
<title>Appeal to Judge&#45;&gt;Add penalty</title>
<path fill="none" stroke="#ff0000" stroke-width="0.51" stroke-dasharray="5,2" d="M614.28,-392.44C600.19,-397.48 585.32,-403.42 572,-410 561.06,-415.41 559.53,-418.83 549,-425 541.75,-429.24 533.94,-433.55 526.31,-437.63"/>
<polygon fill="#ff0000" stroke="#ff0000" stroke-width="0.51" points="524.68,-434.53 517.46,-442.28 527.94,-440.72 524.68,-434.53"/>
<text text-anchor="middle" x="579" y="-413.8" font-family="Times,serif" font-size="14.00">38</text>
</g>
<!-- Appeal to Judge&#45;&gt;Send for Credit Collection -->
<g id="edge25" class="edge">
<title>Appeal to Judge&#45;&gt;Send for Credit Collection</title>
<path fill="none" stroke="#ff0000" stroke-width="0.5" stroke-dasharray="5,2" d="M679.33,-355.6C700.55,-311.28 756.77,-193.85 782.19,-140.75"/>
<polygon fill="#ff0000" stroke="#ff0000" stroke-width="0.5" points="785.22,-142.53 786.38,-132 778.91,-139.51 785.22,-142.53"/>
<text text-anchor="middle" x="738.5" y="-239.8" font-family="Times,serif" font-size="14.00">2</text>
</g>
<!-- Appeal to Judge&#45;&gt;Payment -->
<g id="edge24" class="edge">
<title>Appeal to Judge&#45;&gt;Payment</title>
<path fill="none" stroke="#ff0000" stroke-width="0.5" stroke-dasharray="5,2" d="M661.16,-355.74C645.54,-328.94 613.38,-276.2 580,-236 577.18,-232.6 574.07,-229.18 570.89,-225.88"/>
<polygon fill="#ff0000" stroke="#ff0000" stroke-width="0.5" points="573.54,-223.58 563.99,-218.99 568.59,-228.53 573.54,-223.58"/>
<text text-anchor="middle" x="632.5" y="-283.3" font-family="Times,serif" font-size="14.00">3</text>
</g>
<!-- Insert Date Appeal to Prefecture&#45;&gt;Send Fine -->
<g id="edge30" class="edge">
<title>Insert Date Appeal to Prefecture&#45;&gt;Send Fine</title>
<path fill="none" stroke="#ff0000" stroke-width="0.5" stroke-dasharray="5,2" d="M159.64,-392.47C152.1,-397.09 145.35,-402.84 140,-410 96.16,-468.58 127.23,-561.43 147.02,-606.99"/>
<polygon fill="#ff0000" stroke="#ff0000" stroke-width="0.5" points="143.8,-608.36 151.09,-616.04 150.18,-605.49 143.8,-608.36"/>
<text text-anchor="middle" x="123.5" y="-500.8" font-family="Times,serif" font-size="14.00">1</text>
</g>
<!-- Insert Date Appeal to Prefecture&#45;&gt;Insert Fine Notification -->
<g id="edge28" class="edge">
<title>Insert Date Appeal to Prefecture&#45;&gt;Insert Fine Notification</title>
<path fill="none" stroke="#ff0000" stroke-width="0.5" stroke-dasharray="5,2" d="M267.32,-392.3C269.9,-397.9 272.67,-404.17 275,-410 289.97,-447.53 304.66,-491.91 313.53,-519.77"/>
<polygon fill="#ff0000" stroke="#ff0000" stroke-width="0.5" points="310.16,-520.73 316.51,-529.21 316.84,-518.62 310.16,-520.73"/>
<text text-anchor="middle" x="302.5" y="-457.3" font-family="Times,serif" font-size="14.00">1</text>
</g>
<!-- Insert Date Appeal to Prefecture&#45;&gt;Add penalty -->
<g id="edge18" class="edge">
<title>Insert Date Appeal to Prefecture&#45;&gt;Add penalty</title>
<path fill="none" stroke="#ff0000" stroke-width="0.5" stroke-dasharray="5,2" d="M326.3,-392.46C342.21,-397.41 358.93,-403.31 374,-410 385.84,-415.26 387.45,-419.13 399,-425 408.2,-429.67 418.18,-434.26 427.91,-438.5"/>
<polygon fill="#ff0000" stroke="#ff0000" stroke-width="0.5" points="426.27,-441.6 436.84,-442.31 429.02,-435.17 426.27,-441.6"/>
<text text-anchor="middle" x="402.5" y="-413.8" font-family="Times,serif" font-size="14.00">4</text>
</g>
<!-- Insert Date Appeal to Prefecture&#45;&gt;Payment -->
<g id="edge19" class="edge">
<title>Insert Date Appeal to Prefecture&#45;&gt;Payment</title>
<path fill="none" stroke="#ff0000" stroke-width="0.5" stroke-dasharray="5,2" d="M284.05,-355.57C330.54,-323.33 428.76,-255.89 465,-236 473.4,-231.39 482.53,-226.9 491.5,-222.76"/>
<polygon fill="#ff0000" stroke="#ff0000" stroke-width="0.5" points="492.76,-226.03 500.44,-218.72 489.88,-219.65 492.76,-226.03"/>
<text text-anchor="middle" x="414.5" y="-283.3" font-family="Times,serif" font-size="14.00">4</text>
</g>
<!-- Insert Date Appeal to Prefecture&#45;&gt;Send Appeal to Prefecture -->
<g id="edge22" class="edge">
<title>Insert Date Appeal to Prefecture&#45;&gt;Send Appeal to Prefecture</title>
<path fill="none" stroke="#ff0000" stroke-width="0.5" stroke-dasharray="5,2" d="M258.39,-355.8C257.99,-344.35 257.45,-329.06 256.98,-315.89"/>
<polygon fill="#ff0000" stroke="#ff0000" stroke-width="0.5" points="260.49,-316.09 256.64,-306.22 253.5,-316.34 260.49,-316.09"/>
<text text-anchor="middle" x="260.5" y="-326.8" font-family="Times,serif" font-size="14.00">4</text>
</g>
<!-- Send Appeal to Prefecture&#45;&gt;Send Fine -->
<g id="edge33" class="edge">
<title>Send Appeal to Prefecture&#45;&gt;Send Fine</title>
<path fill="none" stroke="#ff0000" stroke-width="0.5" stroke-dasharray="5,2" d="M166.22,-299.48C124.52,-310.38 84,-331.61 84,-373 84,-549 84,-549 84,-549 84,-574.23 102.84,-595.41 121.77,-610.32"/>
<polygon fill="#ff0000" stroke="#ff0000" stroke-width="0.5" points="119.67,-613.13 129.79,-616.27 123.84,-607.5 119.67,-613.13"/>
<text text-anchor="middle" x="87.5" y="-457.3" font-family="Times,serif" font-size="14.00">1</text>
</g>
<!-- Send Appeal to Prefecture&#45;&gt;Add penalty -->
<g id="edge32" class="edge">
<title>Send Appeal to Prefecture&#45;&gt;Add penalty</title>
<path fill="none" stroke="#ff0000" stroke-width="0.5" stroke-dasharray="5,2" d="M292.77,-305.4C317.61,-317.91 350.55,-336.05 377,-356 408.42,-379.7 439.89,-412.34 460.06,-434.7"/>
<polygon fill="#ff0000" stroke="#ff0000" stroke-width="0.5" points="457.45,-437.02 466.72,-442.16 462.67,-432.36 457.45,-437.02"/>
<text text-anchor="middle" x="420.5" y="-370.3" font-family="Times,serif" font-size="14.00">1</text>
</g>
<!-- Send Appeal to Prefecture&#45;&gt;Payment -->
<g id="edge26" class="edge">
<title>Send Appeal to Prefecture&#45;&gt;Payment</title>
<path fill="none" stroke="#ff0000" stroke-width="0.5" stroke-dasharray="5,2" d="M286.84,-268.74C307.32,-257.93 335.1,-244.49 361,-236 398.91,-223.58 442.76,-215 478.04,-209.45"/>
<polygon fill="#ff0000" stroke="#ff0000" stroke-width="0.5" points="478.11,-212.98 487.47,-208.01 477.05,-206.06 478.11,-212.98"/>
<text text-anchor="middle" x="364.5" y="-239.8" font-family="Times,serif" font-size="14.00">2</text>
</g>
<!-- Send Appeal to Prefecture&#45;&gt;end_node -->
<g id="edge37" class="edge">
<title>Send Appeal to Prefecture&#45;&gt;end_node</title>
<path fill="none" stroke="#ff0000" stroke-width="0.5" stroke-dasharray="5,2" d="M259.81,-268.74C269.42,-225.14 294.8,-110.04 307.11,-54.23"/>
<polygon fill="#ff0000" stroke="#ff0000" stroke-width="0.5" points="310.49,-55.16 309.23,-44.64 303.66,-53.65 310.49,-55.16"/>
<text text-anchor="middle" x="288.5" y="-152.8" font-family="Times,serif" font-size="14.00">5</text>
</g>
</g>
</svg>
