<?xml version="1.0" encoding="UTF-8" standalone="no"?>
<!DOCTYPE svg PUBLIC "-//W3C//DTD SVG 1.1//EN"
 "http://www.w3.org/Graphics/SVG/1.1/DTD/svg11.dtd">
<!-- Generated by graphviz version 7.0.5 (0)
 -->
<!-- Title: dfg Pages: 1 -->
<svg width="604pt" height="1009pt"
 viewBox="0.00 0.00 604.00 1009.00" xmlns="http://www.w3.org/2000/svg" xmlns:xlink="http://www.w3.org/1999/xlink">
<g id="graph0" class="graph" transform="scale(1 1) rotate(0) translate(4 1005)">
<title>dfg</title>
<polygon fill="white" stroke="none" points="-4,4 -4,-1005 600,-1005 600,4 -4,4"/>
<!-- start_node -->
<g id="node1" class="node">
<title>start_node</title>
<ellipse fill="none" stroke="black" cx="384" cy="-983" rx="18" ry="18"/>
<text text-anchor="start" x="379.5" y="-979.3" font-family="Times,serif" font-size="14.00">●</text>
</g>
<!-- Create Fine -->
<g id="node2" class="node">
<title>Create Fine</title>
<polygon fill="#9b9bff" stroke="black" points="437,-914 331,-914 331,-878 437,-878 437,-914"/>
<text text-anchor="middle" x="384" y="-892.3" font-family="Times,serif" font-size="14.00">Create Fine (44)</text>
</g>
<!-- start_node&#45;&gt;Create Fine -->
<g id="edge1" class="edge">
<title>start_node&#45;&gt;Create Fine</title>
<path fill="none" stroke="#000000" stroke-width="6" d="M384,-964.8C384,-954.96 384,-942.27 384,-930.53"/>
<polygon fill="#000000" stroke="#000000" stroke-width="6" points="389.25,-930.92 384,-920.92 378.75,-930.92 389.25,-930.92"/>
<text text-anchor="middle" x="391" y="-935.8" font-family="Times,serif" font-size="14.00">44</text>
</g>
<!-- Send Fine -->
<g id="node3" class="node">
<title>Send Fine</title>
<polygon fill="#9b9bff" stroke="black" points="433,-827 335,-827 335,-791 433,-791 433,-827"/>
<text text-anchor="middle" x="384" y="-805.3" font-family="Times,serif" font-size="14.00">Send Fine (44)</text>
</g>
<!-- Create Fine&#45;&gt;Send Fine -->
<g id="edge2" class="edge">
<title>Create Fine&#45;&gt;Send Fine</title>
<path fill="none" stroke="#000000" stroke-width="6" d="M384,-877.8C384,-867.96 384,-855.27 384,-843.53"/>
<polygon fill="#000000" stroke="#000000" stroke-width="6" points="389.25,-843.92 384,-833.92 378.75,-843.92 389.25,-843.92"/>
<text text-anchor="middle" x="391" y="-848.8" font-family="Times,serif" font-size="14.00">44</text>
</g>
<!-- Insert Fine Notification -->
<g id="node4" class="node">
<title>Insert Fine Notification</title>
<polygon fill="#9b9bff" stroke="black" points="469,-740 299,-740 299,-704 469,-704 469,-740"/>
<text text-anchor="middle" x="384" y="-718.3" font-family="Times,serif" font-size="14.00">Insert Fine Notification (44)</text>
</g>
<!-- Send Fine&#45;&gt;Insert Fine Notification -->
<g id="edge3" class="edge">
<title>Send Fine&#45;&gt;Insert Fine Notification</title>
<path fill="none" stroke="#000000" stroke-width="6" d="M384,-790.8C384,-780.96 384,-768.27 384,-756.53"/>
<polygon fill="#000000" stroke="#000000" stroke-width="6" points="389.25,-756.92 384,-746.92 378.75,-756.92 389.25,-756.92"/>
<text text-anchor="middle" x="391" y="-761.8" font-family="Times,serif" font-size="14.00">44</text>
</g>
<!-- Insert Date Appeal to Prefecture -->
<g id="node5" class="node">
<title>Insert Date Appeal to Prefecture</title>
<polygon fill="#9b9bff" stroke="black" points="493,-653 275,-653 275,-617 493,-617 493,-653"/>
<text text-anchor="middle" x="384" y="-631.3" font-family="Times,serif" font-size="14.00">Insert Date Appeal to Prefecture (44)</text>
</g>
<!-- Insert Fine Notification&#45;&gt;Insert Date Appeal to Prefecture -->
<g id="edge4" class="edge">
<title>Insert Fine Notification&#45;&gt;Insert Date Appeal to Prefecture</title>
<path fill="none" stroke="#000000" stroke-width="4.08" d="M384,-703.8C384,-693.96 384,-681.27 384,-669.53"/>
<polygon fill="#000000" stroke="#000000" stroke-width="4.08" points="387.57,-669.53 384,-659.53 380.43,-669.53 387.57,-669.53"/>
<text text-anchor="middle" x="391" y="-674.8" font-family="Times,serif" font-size="14.00">29</text>
</g>
<!-- Add penalty -->
<g id="node6" class="node">
<title>Add penalty</title>
<polygon fill="#9b9bff" stroke="black" points="333,-566 223,-566 223,-530 333,-530 333,-566"/>
<text text-anchor="middle" x="278" y="-544.3" font-family="Times,serif" font-size="14.00">Add penalty (44)</text>
</g>
<!-- Insert Fine Notification&#45;&gt;Add penalty -->
<g id="edge10" class="edge">
<title>Insert Fine Notification&#45;&gt;Add penalty</title>
<path fill="none" stroke="#000000" stroke-width="2.03" d="M318.92,-703.64C293.45,-693.32 266.83,-677.32 252,-653 237.94,-629.94 248.18,-599.6 259.68,-577.65"/>
<polygon fill="#000000" stroke="#000000" stroke-width="2.03" points="262.64,-579.52 264.54,-569.09 256.56,-576.06 262.64,-579.52"/>
<text text-anchor="middle" x="259" y="-631.3" font-family="Times,serif" font-size="14.00">13</text>
</g>
<!-- Appeal to Judge -->
<g id="node11" class="node">
<title>Appeal to Judge</title>
<polygon fill="#eeeeff" stroke="black" points="579.5,-218 448.5,-218 448.5,-182 579.5,-182 579.5,-218"/>
<text text-anchor="middle" x="514" y="-196.3" font-family="Times,serif" font-size="14.00">Appeal to Judge (19)</text>
</g>
<!-- Insert Fine Notification&#45;&gt;Appeal to Judge -->
<g id="edge26" class="edge">
<title>Insert Fine Notification&#45;&gt;Appeal to Judge</title>
<path fill="none" stroke="#ff0000" stroke-width="0.63" stroke-dasharray="5,2" d="M469.45,-718.03C525.7,-710.95 589,-690.81 589,-636 589,-636 589,-636 589,-286 589,-260.91 570.4,-239.73 551.73,-224.79"/>
<polygon fill="#ff0000" stroke="#ff0000" stroke-width="0.63" points="554.06,-222.17 543.97,-218.94 549.85,-227.76 554.06,-222.17"/>
<text text-anchor="middle" x="592.5" y="-457.3" font-family="Times,serif" font-size="14.00">2</text>
</g>
<!-- Insert Date Appeal to Prefecture&#45;&gt;Add penalty -->
<g id="edge5" class="edge">
<title>Insert Date Appeal to Prefecture&#45;&gt;Add penalty</title>
<path fill="none" stroke="#000000" stroke-width="2.93" d="M335.84,-616.59C326.31,-611.8 316.84,-605.97 309,-599 302.52,-593.25 296.94,-585.82 292.36,-578.46"/>
<polygon fill="#000000" stroke="#000000" stroke-width="2.93" points="295.53,-576.95 287.6,-569.92 289.41,-580.36 295.53,-576.95"/>
<text text-anchor="middle" x="316" y="-587.8" font-family="Times,serif" font-size="14.00">20</text>
</g>
<!-- Send Appeal to Prefecture -->
<g id="node7" class="node">
<title>Send Appeal to Prefecture</title>
<polygon fill="#9e9eff" stroke="black" points="476.5,-479 291.5,-479 291.5,-443 476.5,-443 476.5,-479"/>
<text text-anchor="middle" x="384" y="-457.3" font-family="Times,serif" font-size="14.00">Send Appeal to Prefecture (43)</text>
</g>
<!-- Insert Date Appeal to Prefecture&#45;&gt;Send Appeal to Prefecture -->
<g id="edge12" class="edge">
<title>Insert Date Appeal to Prefecture&#45;&gt;Send Appeal to Prefecture</title>
<path fill="none" stroke="#000000" stroke-width="3.06" d="M384,-616.56C384,-587.84 384,-530.19 384,-493.98"/>
<polygon fill="#000000" stroke="#000000" stroke-width="3.06" points="387.5,-494.11 384,-484.11 380.5,-494.11 387.5,-494.11"/>
<text text-anchor="middle" x="391" y="-544.3" font-family="Times,serif" font-size="14.00">21</text>
</g>
<!-- Receive Result Appeal from Prefecture -->
<g id="node8" class="node">
<title>Receive Result Appeal from Prefecture</title>
<polygon fill="#9b9bff" stroke="black" points="310.5,-392 53.5,-392 53.5,-356 310.5,-356 310.5,-392"/>
<text text-anchor="middle" x="182" y="-370.3" font-family="Times,serif" font-size="14.00">Receive Result Appeal from Prefecture (44)</text>
</g>
<!-- Insert Date Appeal to Prefecture&#45;&gt;Receive Result Appeal from Prefecture -->
<g id="edge18" class="edge">
<title>Insert Date Appeal to Prefecture&#45;&gt;Receive Result Appeal from Prefecture</title>
<path fill="none" stroke="#000000" stroke-width="0.76" d="M304.04,-616.55C272.67,-606.28 238.42,-590.36 214,-566 170.9,-523.01 172.76,-445.29 177.54,-403.47"/>
<polygon fill="#000000" stroke="#000000" stroke-width="0.76" points="181.01,-403.95 178.82,-393.58 174.07,-403.05 181.01,-403.95"/>
<text text-anchor="middle" x="187.5" y="-500.8" font-family="Times,serif" font-size="14.00">3</text>
</g>
<!-- Add penalty&#45;&gt;Insert Date Appeal to Prefecture -->
<g id="edge11" class="edge">
<title>Add penalty&#45;&gt;Insert Date Appeal to Prefecture</title>
<path fill="none" stroke="#000000" stroke-width="2.03" d="M300.52,-566.33C307.73,-571.93 315.73,-578.19 323,-584 332.82,-591.84 343.44,-600.49 353.03,-608.36"/>
<polygon fill="#000000" stroke="#000000" stroke-width="2.03" points="350.61,-610.9 360.56,-614.55 355.06,-605.5 350.61,-610.9"/>
<text text-anchor="middle" x="348" y="-587.8" font-family="Times,serif" font-size="14.00">13</text>
</g>
<!-- Add penalty&#45;&gt;Send Appeal to Prefecture -->
<g id="edge6" class="edge">
<title>Add penalty&#45;&gt;Send Appeal to Prefecture</title>
<path fill="none" stroke="#000000" stroke-width="2.93" d="M286.83,-529.55C292.81,-519.07 301.52,-506.06 312,-497 316.49,-493.11 321.5,-489.55 326.71,-486.31"/>
<polygon fill="#000000" stroke="#000000" stroke-width="2.93" points="328.25,-489.45 335.25,-481.5 324.82,-483.35 328.25,-489.45"/>
<text text-anchor="middle" x="319" y="-500.8" font-family="Times,serif" font-size="14.00">20</text>
</g>
<!-- Add penalty&#45;&gt;Receive Result Appeal from Prefecture -->
<g id="edge17" class="edge">
<title>Add penalty&#45;&gt;Receive Result Appeal from Prefecture</title>
<path fill="none" stroke="#000000" stroke-width="1.4" d="M236.95,-529.69C228.63,-524.85 220.46,-518.96 214,-512 186.8,-482.72 181.3,-434.9 180.87,-404.2"/>
<polygon fill="#000000" stroke="#000000" stroke-width="1.4" points="184.37,-404.33 180.93,-394.31 177.37,-404.29 184.37,-404.33"/>
<text text-anchor="middle" x="197.5" y="-457.3" font-family="Times,serif" font-size="14.00">8</text>
</g>
<!-- Notify Result Appeal to Offender -->
<g id="node9" class="node">
<title>Notify Result Appeal to Offender</title>
<polygon fill="#9e9eff" stroke="black" points="382.5,-305 157.5,-305 157.5,-269 382.5,-269 382.5,-305"/>
<text text-anchor="middle" x="270" y="-283.3" font-family="Times,serif" font-size="14.00">Notify Result Appeal to Offender (43)</text>
</g>
<!-- Add penalty&#45;&gt;Notify Result Appeal to Offender -->
<g id="edge25" class="edge">
<title>Add penalty&#45;&gt;Notify Result Appeal to Offender</title>
<path fill="none" stroke="#ff0000" stroke-width="0.63" stroke-dasharray="5,2" d="M274.56,-529.63C271.18,-507.97 268.43,-470.47 283,-443 289.25,-431.22 298.92,-435.6 307,-425 325.92,-400.18 329.73,-385.65 320,-356 314.85,-340.31 304.55,-325.27 294.63,-313.33"/>
<polygon fill="#ff0000" stroke="#ff0000" stroke-width="0.63" points="297.39,-311.17 288.18,-305.94 292.12,-315.78 297.39,-311.17"/>
<text text-anchor="middle" x="320.5" y="-413.8" font-family="Times,serif" font-size="14.00">2</text>
</g>
<!-- Add penalty&#45;&gt;Appeal to Judge -->
<g id="edge23" class="edge">
<title>Add penalty&#45;&gt;Appeal to Judge</title>
<path fill="none" stroke="#ff0000" stroke-width="0.5" stroke-dasharray="5,2" d="M333.24,-537.64C400.43,-524.65 505,-498.56 505,-462 505,-462 505,-462 505,-286 505,-266.83 507.29,-245.36 509.56,-228.8"/>
<polygon fill="#ff0000" stroke="#ff0000" stroke-width="0.5" points="513.02,-229.35 510.99,-218.95 506.09,-228.34 513.02,-229.35"/>
<text text-anchor="middle" x="508.5" y="-370.3" font-family="Times,serif" font-size="14.00">1</text>
</g>
<!-- Send Appeal to Prefecture&#45;&gt;Add penalty -->
<g id="edge16" class="edge">
<title>Send Appeal to Prefecture&#45;&gt;Add penalty</title>
<path fill="none" stroke="#000000" stroke-width="1.4" d="M364.74,-479.3C353.6,-489.12 339.23,-501.51 326,-512 321.59,-515.5 316.87,-519.1 312.18,-522.6"/>
<polygon fill="#000000" stroke="#000000" stroke-width="1.4" points="310.39,-519.58 304.41,-528.32 314.54,-525.21 310.39,-519.58"/>
<text text-anchor="middle" x="346.5" y="-500.8" font-family="Times,serif" font-size="14.00">8</text>
</g>
<!-- Send Appeal to Prefecture&#45;&gt;Receive Result Appeal from Prefecture -->
<g id="edge7" class="edge">
<title>Send Appeal to Prefecture&#45;&gt;Receive Result Appeal from Prefecture</title>
<path fill="none" stroke="#000000" stroke-width="4.59" d="M337.04,-442.51C322.82,-437.07 307.22,-430.93 293,-425 273.55,-416.89 252.41,-407.51 233.85,-399.08"/>
<polygon fill="#000000" stroke="#000000" stroke-width="4.59" points="235.65,-395.48 224.88,-394.98 232.3,-402.79 235.65,-395.48"/>
<text text-anchor="middle" x="300" y="-413.8" font-family="Times,serif" font-size="14.00">33</text>
</g>
<!-- Send for Credit Collection -->
<g id="node10" class="node">
<title>Send for Credit Collection</title>
<polygon fill="#e7e7ff" stroke="black" points="517.5,-131 330.5,-131 330.5,-95 517.5,-95 517.5,-131"/>
<text text-anchor="middle" x="424" y="-109.3" font-family="Times,serif" font-size="14.00">Send for Credit Collection (21)</text>
</g>
<!-- Send Appeal to Prefecture&#45;&gt;Send for Credit Collection -->
<g id="edge20" class="edge">
<title>Send Appeal to Prefecture&#45;&gt;Send for Credit Collection</title>
<path fill="none" stroke="#ff0000" stroke-width="0.63" stroke-dasharray="5,2" d="M396.19,-442.67C406.63,-426.1 420,-400 420,-375 420,-375 420,-375 420,-199 420,-179.91 421.02,-158.45 422.03,-141.86"/>
<polygon fill="#ff0000" stroke="#ff0000" stroke-width="0.63" points="425.5,-142.4 422.65,-132.19 418.51,-141.95 425.5,-142.4"/>
<text text-anchor="middle" x="423.5" y="-283.3" font-family="Times,serif" font-size="14.00">2</text>
</g>
<!-- Receive Result Appeal from Prefecture&#45;&gt;Add penalty -->
<g id="edge24" class="edge">
<title>Receive Result Appeal from Prefecture&#45;&gt;Add penalty</title>
<path fill="none" stroke="#ff0000" stroke-width="0.63" stroke-dasharray="5,2" d="M188.83,-392.14C199.77,-418.78 222.72,-471.3 249,-512 251.03,-515.14 253.3,-518.33 255.66,-521.42"/>
<polygon fill="#ff0000" stroke="#ff0000" stroke-width="0.63" points="252.81,-523.46 261.8,-529.08 258.28,-519.09 252.81,-523.46"/>
<text text-anchor="middle" x="232.5" y="-457.3" font-family="Times,serif" font-size="14.00">2</text>
</g>
<!-- Receive Result Appeal from Prefecture&#45;&gt;Notify Result Appeal to Offender -->
<g id="edge8" class="edge">
<title>Receive Result Appeal from Prefecture&#45;&gt;Notify Result Appeal to Offender</title>
<path fill="none" stroke="#000000" stroke-width="5.62" d="M199.81,-355.8C211.42,-344.58 226.86,-329.67 240.3,-316.69"/>
<polygon fill="#000000" stroke="#000000" stroke-width="5.62" points="243.56,-320.37 247.34,-309.89 236.73,-313.3 243.56,-320.37"/>
<text text-anchor="middle" x="238" y="-326.8" font-family="Times,serif" font-size="14.00">41</text>
</g>
<!-- end_node -->
<g id="node13" class="node">
<title>end_node</title>
<ellipse fill="none" stroke="black" cx="267" cy="-22" rx="18" ry="18"/>
<ellipse fill="none" stroke="black" cx="267" cy="-22" rx="22" ry="22"/>
<text text-anchor="start" x="262.5" y="-18.3" font-family="Times,serif" font-size="14.00">■</text>
</g>
<!-- Receive Result Appeal from Prefecture&#45;&gt;end_node -->
<g id="edge31" class="edge">
<title>Receive Result Appeal from Prefecture&#45;&gt;end_node</title>
<path fill="none" stroke="#ff0000" stroke-width="0.5" stroke-dasharray="5,2" d="M61.36,-355.54C27.63,-343.37 0,-322.79 0,-288 0,-288 0,-288 0,-112 0,-63.07 163.43,-36.23 234.56,-26.86"/>
<polygon fill="#ff0000" stroke="#ff0000" stroke-width="0.5" points="234.92,-30.34 244.4,-25.6 234.04,-23.4 234.92,-30.34"/>
<text text-anchor="middle" x="3.5" y="-196.3" font-family="Times,serif" font-size="14.00">1</text>
</g>
<!-- Notify Result Appeal to Offender&#45;&gt;Add penalty -->
<g id="edge22" class="edge">
<title>Notify Result Appeal to Offender&#45;&gt;Add penalty</title>
<path fill="none" stroke="#ff0000" stroke-width="0.5" stroke-dasharray="5,2" d="M172.12,-305.47C118.59,-317.23 59.98,-334.5 44,-356 -12.13,-431.5 125.32,-494.98 212.61,-526.21"/>
<polygon fill="#ff0000" stroke="#ff0000" stroke-width="0.5" points="211.41,-529.5 222.01,-529.52 213.74,-522.9 211.41,-529.5"/>
<text text-anchor="middle" x="45.5" y="-413.8" font-family="Times,serif" font-size="14.00">1</text>
</g>
<!-- Notify Result Appeal to Offender&#45;&gt;Send Appeal to Prefecture -->
<g id="edge19" class="edge">
<title>Notify Result Appeal to Offender&#45;&gt;Send Appeal to Prefecture</title>
<path fill="none" stroke="#ff0000" stroke-width="0.63" stroke-dasharray="5,2" d="M330.87,-305.48C339.22,-310.06 346.98,-315.81 353,-323 378.82,-353.84 384.24,-401.8 384.83,-432.03"/>
<polygon fill="#ff0000" stroke="#ff0000" stroke-width="0.63" points="381.32,-431.73 384.84,-441.72 388.32,-431.72 381.32,-431.73"/>
<text text-anchor="middle" x="384.5" y="-370.3" font-family="Times,serif" font-size="14.00">2</text>
</g>
<!-- Notify Result Appeal to Offender&#45;&gt;Send for Credit Collection -->
<g id="edge9" class="edge">
<title>Notify Result Appeal to Offender&#45;&gt;Send for Credit Collection</title>
<path fill="none" stroke="#000000" stroke-width="2.42" d="M285.61,-268.56C312.48,-238.56 367.63,-176.96 399.6,-141.25"/>
<polygon fill="#000000" stroke="#000000" stroke-width="2.42" points="401.84,-144 405.9,-134.21 396.62,-139.33 401.84,-144"/>
<text text-anchor="middle" x="369" y="-196.3" font-family="Times,serif" font-size="14.00">16</text>
</g>
<!-- Notify Result Appeal to Offender&#45;&gt;Appeal to Judge -->
<g id="edge13" class="edge">
<title>Notify Result Appeal to Offender&#45;&gt;Appeal to Judge</title>
<path fill="none" stroke="#000000" stroke-width="2.42" d="M319.97,-268.59C357.96,-255.36 410.48,-237.06 451.29,-222.84"/>
<polygon fill="#000000" stroke="#000000" stroke-width="2.42" points="452.35,-226.18 460.64,-219.59 450.05,-219.57 452.35,-226.18"/>
<text text-anchor="middle" x="413" y="-239.8" font-family="Times,serif" font-size="14.00">16</text>
</g>
<!-- Payment -->
<g id="node12" class="node">
<title>Payment</title>
<polygon fill="#ffffff" stroke="black" points="312.5,-131 221.5,-131 221.5,-95 312.5,-95 312.5,-131"/>
<text text-anchor="middle" x="267" y="-109.3" font-family="Times,serif" font-size="14.00">Payment (14)</text>
</g>
<!-- Notify Result Appeal to Offender&#45;&gt;Payment -->
<g id="edge14" class="edge">
<title>Notify Result Appeal to Offender&#45;&gt;Payment</title>
<path fill="none" stroke="#000000" stroke-width="1.27" d="M269.7,-268.56C269.18,-239.07 268.13,-179.06 267.51,-143.11"/>
<polygon fill="#000000" stroke="#000000" stroke-width="1.27" points="271.01,-143.34 267.34,-133.4 264.01,-143.46 271.01,-143.34"/>
<text text-anchor="middle" x="271.5" y="-196.3" font-family="Times,serif" font-size="14.00">7</text>
</g>
<!-- Notify Result Appeal to Offender&#45;&gt;end_node -->
<g id="edge32" class="edge">
<title>Notify Result Appeal to Offender&#45;&gt;end_node</title>
<path fill="none" stroke="#ff0000" stroke-width="0.5" stroke-dasharray="5,2" d="M257.51,-268.5C235,-234.74 191.88,-158.36 213,-95 219.22,-76.34 232.38,-58.62 244.15,-45.43"/>
<polygon fill="#ff0000" stroke="#ff0000" stroke-width="0.5" points="246.45,-48.09 250.71,-38.39 241.33,-43.32 246.45,-48.09"/>
<text text-anchor="middle" x="213.5" y="-152.8" font-family="Times,serif" font-size="14.00">1</text>
</g>
<!-- Send for Credit Collection&#45;&gt;end_node -->
<g id="edge28" class="edge">
<title>Send for Credit Collection&#45;&gt;end_node</title>
<path fill="none" stroke="#000000" stroke-width="3.06" d="M393.36,-94.63C365.9,-79.07 325.82,-56.34 298.2,-40.68"/>
<polygon fill="#000000" stroke="#000000" stroke-width="3.06" points="300.2,-37.8 289.77,-35.91 296.75,-43.89 300.2,-37.8"/>
<text text-anchor="middle" x="366" y="-65.8" font-family="Times,serif" font-size="14.00">21</text>
</g>
<!-- Appeal to Judge&#45;&gt;Insert Date Appeal to Prefecture -->
<g id="edge27" class="edge">
<title>Appeal to Judge&#45;&gt;Insert Date Appeal to Prefecture</title>
<path fill="none" stroke="#ff0000" stroke-width="0.63" stroke-dasharray="5,2" d="M523.66,-218.32C532.09,-235.1 543,-261.52 543,-286 543,-549 543,-549 543,-549 543,-580.22 518.87,-600.01 489.41,-612.54"/>
<polygon fill="#ff0000" stroke="#ff0000" stroke-width="0.63" points="488.17,-609.27 480.13,-616.18 490.72,-615.79 488.17,-609.27"/>
<text text-anchor="middle" x="546.5" y="-413.8" font-family="Times,serif" font-size="14.00">2</text>
</g>
<!-- Appeal to Judge&#45;&gt;Send for Credit Collection -->
<g id="edge21" class="edge">
<title>Appeal to Judge&#45;&gt;Send for Credit Collection</title>
<path fill="none" stroke="#000000" stroke-width="0.76" d="M501.32,-181.9C493.43,-171.79 482.77,-159.06 472,-149 467.96,-145.23 463.5,-141.5 458.98,-137.96"/>
<polygon fill="#000000" stroke="#000000" stroke-width="0.76" points="461.32,-135.34 451.23,-132.12 457.11,-140.93 461.32,-135.34"/>
<text text-anchor="middle" x="488.5" y="-152.8" font-family="Times,serif" font-size="14.00">3</text>
</g>
<!-- Appeal to Judge&#45;&gt;Payment -->
<g id="edge15" class="edge">
<title>Appeal to Judge&#45;&gt;Payment</title>
<path fill="none" stroke="#000000" stroke-width="1.27" d="M463.42,-181.59C422.95,-167.67 366.21,-148.14 324.12,-133.66"/>
<polygon fill="#000000" stroke="#000000" stroke-width="1.27" points="325.34,-130.37 314.74,-130.43 323.06,-136.99 325.34,-130.37"/>
<text text-anchor="middle" x="408.5" y="-152.8" font-family="Times,serif" font-size="14.00">7</text>
</g>
<!-- Appeal to Judge&#45;&gt;end_node -->
<g id="edge29" class="edge">
<title>Appeal to Judge&#45;&gt;end_node</title>
<path fill="none" stroke="#000000" stroke-width="1.27" d="M523.05,-181.58C533.27,-159.19 546.17,-120.2 527,-95 499.55,-58.92 364.93,-36.23 300.93,-27.32"/>
<polygon fill="#000000" stroke="#000000" stroke-width="1.27" points="301.4,-23.85 291.02,-25.98 300.46,-30.79 301.4,-23.85"/>
<text text-anchor="middle" x="539.5" y="-109.3" font-family="Times,serif" font-size="14.00">7</text>
</g>
<!-- Payment&#45;&gt;end_node -->
<g id="edge30" class="edge">
<title>Payment&#45;&gt;end_node</title>
<path fill="none" stroke="#000000" stroke-width="2.16" d="M267,-94.84C267,-84.23 267,-70.24 267,-57.42"/>
<polygon fill="#000000" stroke="#000000" stroke-width="2.16" points="270.5,-57.46 267,-47.46 263.5,-57.46 270.5,-57.46"/>
<text text-anchor="middle" x="274" y="-65.8" font-family="Times,serif" font-size="14.00">14</text>
</g>
</g>
</svg>
