<?xml version="1.0" encoding="UTF-8" standalone="no"?>
<!DOCTYPE svg PUBLIC "-//W3C//DTD SVG 1.1//EN"
 "http://www.w3.org/Graphics/SVG/1.1/DTD/svg11.dtd">
<!-- Generated by graphviz version 7.0.5 (0)
 -->
<!-- Title: dfg Pages: 1 -->
<svg width="549pt" height="487pt"
 viewBox="0.00 0.00 548.50 487.00" xmlns="http://www.w3.org/2000/svg" xmlns:xlink="http://www.w3.org/1999/xlink">
<g id="graph0" class="graph" transform="scale(1 1) rotate(0) translate(4 483)">
<title>dfg</title>
<polygon fill="white" stroke="none" points="-4,4 -4,-483 544.5,-483 544.5,4 -4,4"/>
<!-- start_node -->
<g id="node1" class="node">
<title>start_node</title>
<ellipse fill="none" stroke="black" cx="175.5" cy="-461" rx="18" ry="18"/>
<text text-anchor="start" x="171" y="-457.3" font-family="Times,serif" font-size="14.00">●</text>
</g>
<!-- Create Fine -->
<g id="node2" class="node">
<title>Create Fine</title>
<polygon fill="#f6f6ff" stroke="black" points="225,-392 126,-392 126,-356 225,-356 225,-392"/>
<text text-anchor="middle" x="175.5" y="-370.3" font-family="Times,serif" font-size="14.00">Create Fine (8)</text>
</g>
<!-- start_node&#45;&gt;Create Fine -->
<g id="edge1" class="edge">
<title>start_node&#45;&gt;Create Fine</title>
<path fill="none" stroke="#000000" stroke-width="1.06" d="M175.5,-442.8C175.5,-431.58 175.5,-416.67 175.5,-403.69"/>
<polygon fill="#000000" stroke="#000000" stroke-width="1.06" points="179,-404.07 175.5,-394.07 172,-404.07 179,-404.07"/>
<text text-anchor="middle" x="179" y="-413.8" font-family="Times,serif" font-size="14.00">8</text>
</g>
<!-- Send Fine -->
<g id="node3" class="node">
<title>Send Fine</title>
<polygon fill="#f6f6ff" stroke="black" points="221,-305 130,-305 130,-269 221,-269 221,-305"/>
<text text-anchor="middle" x="175.5" y="-283.3" font-family="Times,serif" font-size="14.00">Send Fine (8)</text>
</g>
<!-- Create Fine&#45;&gt;Send Fine -->
<g id="edge2" class="edge">
<title>Create Fine&#45;&gt;Send Fine</title>
<path fill="none" stroke="#000000" stroke-width="1.06" d="M175.5,-355.8C175.5,-344.58 175.5,-329.67 175.5,-316.69"/>
<polygon fill="#000000" stroke="#000000" stroke-width="1.06" points="179,-317.07 175.5,-307.07 172,-317.07 179,-317.07"/>
<text text-anchor="middle" x="179" y="-326.8" font-family="Times,serif" font-size="14.00">8</text>
</g>
<!-- Insert Fine Notification -->
<g id="node4" class="node">
<title>Insert Fine Notification</title>
<polygon fill="#f6f6ff" stroke="black" points="257.5,-218 93.5,-218 93.5,-182 257.5,-182 257.5,-218"/>
<text text-anchor="middle" x="175.5" y="-196.3" font-family="Times,serif" font-size="14.00">Insert Fine Notification (8)</text>
</g>
<!-- Send Fine&#45;&gt;Insert Fine Notification -->
<g id="edge3" class="edge">
<title>Send Fine&#45;&gt;Insert Fine Notification</title>
<path fill="none" stroke="#000000" stroke-width="1.06" d="M175.5,-268.8C175.5,-257.58 175.5,-242.67 175.5,-229.69"/>
<polygon fill="#000000" stroke="#000000" stroke-width="1.06" points="179,-230.07 175.5,-220.07 172,-230.07 179,-230.07"/>
<text text-anchor="middle" x="179" y="-239.8" font-family="Times,serif" font-size="14.00">8</text>
</g>
<!-- Payment -->
<g id="node5" class="node">
<title>Payment</title>
<polygon fill="#9b9bff" stroke="black" points="91,-131 0,-131 0,-95 91,-95 91,-131"/>
<text text-anchor="middle" x="45.5" y="-109.3" font-family="Times,serif" font-size="14.00">Payment (80)</text>
</g>
<!-- Insert Fine Notification&#45;&gt;Payment -->
<g id="edge4" class="edge">
<title>Insert Fine Notification&#45;&gt;Payment</title>
<path fill="none" stroke="#ff0000" stroke-width="0.58" stroke-dasharray="5,2" d="M148.88,-181.59C129.25,-168.76 102.34,-151.17 80.9,-137.15"/>
<polygon fill="#ff0000" stroke="#ff0000" stroke-width="0.58" points="83.11,-134.41 72.82,-131.86 79.27,-140.26 83.11,-134.41"/>
<text text-anchor="middle" x="122" y="-152.8" font-family="Times,serif" font-size="14.00">2</text>
</g>
<!-- Add penalty -->
<g id="node6" class="node">
<title>Add penalty</title>
<polygon fill="#f6f6ff" stroke="black" points="211,-40 108,-40 108,-4 211,-4 211,-40"/>
<text text-anchor="middle" x="159.5" y="-18.3" font-family="Times,serif" font-size="14.00">Add penalty (8)</text>
</g>
<!-- Insert Fine Notification&#45;&gt;Add penalty -->
<g id="edge8" class="edge">
<title>Insert Fine Notification&#45;&gt;Add penalty</title>
<path fill="none" stroke="#ff0000" stroke-width="0.5" stroke-dasharray="5,2" d="M173.94,-181.8C171.16,-151.31 165.37,-87.52 162.02,-50.75"/>
<polygon fill="#ff0000" stroke="#ff0000" stroke-width="0.5" points="165.53,-50.66 161.14,-41.02 158.56,-51.3 165.53,-50.66"/>
<text text-anchor="middle" x="172" y="-109.3" font-family="Times,serif" font-size="14.00">1</text>
</g>
<!-- Appeal to Judge -->
<g id="node7" class="node">
<title>Appeal to Judge</title>
<polygon fill="#fbfbff" stroke="black" points="310,-131 185,-131 185,-95 310,-95 310,-131"/>
<text text-anchor="middle" x="247.5" y="-109.3" font-family="Times,serif" font-size="14.00">Appeal to Judge (4)</text>
</g>
<!-- Insert Fine Notification&#45;&gt;Appeal to Judge -->
<g id="edge9" class="edge">
<title>Insert Fine Notification&#45;&gt;Appeal to Judge</title>
<path fill="none" stroke="#ff0000" stroke-width="0.74" stroke-dasharray="5,2" d="M190.07,-181.8C200.25,-169.78 214.02,-153.52 225.53,-139.94"/>
<polygon fill="#ff0000" stroke="#ff0000" stroke-width="0.74" points="228.19,-142.21 231.98,-132.32 222.85,-137.69 228.19,-142.21"/>
<text text-anchor="middle" x="219" y="-152.8" font-family="Times,serif" font-size="14.00">4</text>
</g>
<!-- Insert Date Appeal to Prefecture -->
<g id="node8" class="node">
<title>Insert Date Appeal to Prefecture</title>
<polygon fill="#ffffff" stroke="black" points="540.5,-131 328.5,-131 328.5,-95 540.5,-95 540.5,-131"/>
<text text-anchor="middle" x="434.5" y="-109.3" font-family="Times,serif" font-size="14.00">Insert Date Appeal to Prefecture (1)</text>
</g>
<!-- Insert Fine Notification&#45;&gt;Insert Date Appeal to Prefecture -->
<g id="edge11" class="edge">
<title>Insert Fine Notification&#45;&gt;Insert Date Appeal to Prefecture</title>
<path fill="none" stroke="#ff0000" stroke-width="0.5" stroke-dasharray="5,2" d="M228.54,-181.59C270,-167.99 327.76,-149.03 371.57,-134.65"/>
<polygon fill="#ff0000" stroke="#ff0000" stroke-width="0.5" points="372.4,-138.06 380.81,-131.62 370.22,-131.41 372.4,-138.06"/>
<text text-anchor="middle" x="324" y="-152.8" font-family="Times,serif" font-size="14.00">1</text>
</g>
<!-- Payment&#45;&gt;Payment -->
<g id="edge7" class="edge">
<title>Payment&#45;&gt;Payment</title>
<path fill="none" stroke="#000000" stroke-width="6" d="M91.45,-120.94C101.6,-120.19 109,-117.55 109,-113 109,-111.58 108.28,-110.34 106.97,-109.3"/>
<polygon fill="#000000" stroke="#000000" stroke-width="6" points="108.71,-104.33 97.68,-106.76 105.94,-114.46 108.71,-104.33"/>
<text text-anchor="middle" x="116" y="-109.3" font-family="Times,serif" font-size="14.00">70</text>
</g>
<!-- Payment&#45;&gt;Add penalty -->
<g id="edge5" class="edge">
<title>Payment&#45;&gt;Add penalty</title>
<path fill="none" stroke="#ff0000" stroke-width="0.58" stroke-dasharray="5,2" d="M63.22,-94.6C73.71,-84.64 87.46,-72.14 100.5,-62 107.47,-56.58 115.17,-51.13 122.65,-46.1"/>
<polygon fill="#ff0000" stroke="#ff0000" stroke-width="0.58" points="124.13,-49.32 130.54,-40.88 120.27,-43.48 124.13,-49.32"/>
<text text-anchor="middle" x="104" y="-65.8" font-family="Times,serif" font-size="14.00">2</text>
</g>
<!-- end_node -->
<g id="node9" class="node">
<title>end_node</title>
<ellipse fill="none" stroke="black" cx="45.5" cy="-22" rx="18" ry="18"/>
<ellipse fill="none" stroke="black" cx="45.5" cy="-22" rx="22" ry="22"/>
<text text-anchor="start" x="41" y="-18.3" font-family="Times,serif" font-size="14.00">■</text>
</g>
<!-- Payment&#45;&gt;end_node -->
<g id="edge13" class="edge">
<title>Payment&#45;&gt;end_node</title>
<path fill="none" stroke="#000000" stroke-width="1.06" d="M45.5,-94.84C45.5,-83.78 45.5,-69.04 45.5,-55.79"/>
<polygon fill="#000000" stroke="#000000" stroke-width="1.06" points="49,-55.79 45.5,-45.79 42,-55.79 49,-55.79"/>
<text text-anchor="middle" x="49" y="-65.8" font-family="Times,serif" font-size="14.00">8</text>
</g>
<!-- Add penalty&#45;&gt;Payment -->
<g id="edge6" class="edge">
<title>Add penalty&#45;&gt;Payment</title>
<path fill="none" stroke="#000000" stroke-width="1.06" d="M145.16,-40.33C135.29,-51.6 121.49,-66.16 107.5,-77 102.18,-81.12 96.32,-85.07 90.38,-88.74"/>
<polygon fill="#000000" stroke="#000000" stroke-width="1.06" points="88.63,-85.71 81.79,-93.81 92.19,-91.74 88.63,-85.71"/>
<text text-anchor="middle" x="129" y="-65.8" font-family="Times,serif" font-size="14.00">8</text>
</g>
<!-- Appeal to Judge&#45;&gt;Add penalty -->
<g id="edge10" class="edge">
<title>Appeal to Judge&#45;&gt;Add penalty</title>
<path fill="none" stroke="#ff0000" stroke-width="0.74" stroke-dasharray="5,2" d="M230.53,-94.84C217.47,-81.63 199.21,-63.17 184.48,-48.27"/>
<polygon fill="#ff0000" stroke="#ff0000" stroke-width="0.74" points="187.02,-45.86 177.5,-41.21 182.04,-50.78 187.02,-45.86"/>
<text text-anchor="middle" x="214" y="-65.8" font-family="Times,serif" font-size="14.00">4</text>
</g>
<!-- Insert Date Appeal to Prefecture&#45;&gt;Add penalty -->
<g id="edge12" class="edge">
<title>Insert Date Appeal to Prefecture&#45;&gt;Add penalty</title>
<path fill="none" stroke="#ff0000" stroke-width="0.5" stroke-dasharray="5,2" d="M380.5,-94.52C334.74,-79.71 269.12,-58.48 221.28,-42.99"/>
<polygon fill="#ff0000" stroke="#ff0000" stroke-width="0.5" points="222.36,-39.67 211.77,-39.92 220.21,-46.33 222.36,-39.67"/>
<text text-anchor="middle" x="325" y="-65.8" font-family="Times,serif" font-size="14.00">1</text>
</g>
</g>
</svg>
