<?xml version="1.0" encoding="UTF-8" standalone="no"?>
<!DOCTYPE svg PUBLIC "-//W3C//DTD SVG 1.1//EN"
 "http://www.w3.org/Graphics/SVG/1.1/DTD/svg11.dtd">
<!-- Generated by graphviz version 7.0.5 (0)
 -->
<!-- Title: dfg Pages: 1 -->
<svg width="420pt" height="922pt"
 viewBox="0.00 0.00 420.00 922.00" xmlns="http://www.w3.org/2000/svg" xmlns:xlink="http://www.w3.org/1999/xlink">
<g id="graph0" class="graph" transform="scale(1 1) rotate(0) translate(4 918)">
<title>dfg</title>
<polygon fill="white" stroke="none" points="-4,4 -4,-918 416,-918 416,4 -4,4"/>
<!-- start_node -->
<g id="node1" class="node">
<title>start_node</title>
<ellipse fill="none" stroke="black" cx="237.5" cy="-896" rx="18" ry="18"/>
<text text-anchor="start" x="233" y="-892.3" font-family="Times,serif" font-size="14.00">●</text>
</g>
<!-- Create Fine -->
<g id="node2" class="node">
<title>Create Fine</title>
<polygon fill="#9b9bff" stroke="black" points="294,-827 181,-827 181,-791 294,-791 294,-827"/>
<text text-anchor="middle" x="237.5" y="-805.3" font-family="Times,serif" font-size="14.00">Create Fine (288)</text>
</g>
<!-- start_node&#45;&gt;Create Fine -->
<g id="edge1" class="edge">
<title>start_node&#45;&gt;Create Fine</title>
<path fill="none" stroke="#000000" stroke-width="6" d="M237.5,-877.8C237.5,-867.96 237.5,-855.27 237.5,-843.53"/>
<polygon fill="#000000" stroke="#000000" stroke-width="6" points="242.75,-843.92 237.5,-833.92 232.25,-843.92 242.75,-843.92"/>
<text text-anchor="middle" x="248" y="-848.8" font-family="Times,serif" font-size="14.00">288</text>
</g>
<!-- Send Fine -->
<g id="node3" class="node">
<title>Send Fine</title>
<polygon fill="#9b9bff" stroke="black" points="289.5,-740 185.5,-740 185.5,-704 289.5,-704 289.5,-740"/>
<text text-anchor="middle" x="237.5" y="-718.3" font-family="Times,serif" font-size="14.00">Send Fine (288)</text>
</g>
<!-- Create Fine&#45;&gt;Send Fine -->
<g id="edge2" class="edge">
<title>Create Fine&#45;&gt;Send Fine</title>
<path fill="none" stroke="#000000" stroke-width="6" d="M237.5,-790.8C237.5,-780.96 237.5,-768.27 237.5,-756.53"/>
<polygon fill="#000000" stroke="#000000" stroke-width="6" points="242.75,-756.92 237.5,-746.92 232.25,-756.92 242.75,-756.92"/>
<text text-anchor="middle" x="248" y="-761.8" font-family="Times,serif" font-size="14.00">288</text>
</g>
<!-- Insert Fine Notification -->
<g id="node4" class="node">
<title>Insert Fine Notification</title>
<polygon fill="#9d9dff" stroke="black" points="263,-653 86,-653 86,-617 263,-617 263,-653"/>
<text text-anchor="middle" x="174.5" y="-631.3" font-family="Times,serif" font-size="14.00">Insert Fine Notification (282)</text>
</g>
<!-- Send Fine&#45;&gt;Insert Fine Notification -->
<g id="edge3" class="edge">
<title>Send Fine&#45;&gt;Insert Fine Notification</title>
<path fill="none" stroke="#000000" stroke-width="5.88" d="M224.75,-703.8C216.78,-693.04 206.28,-678.88 196.95,-666.29"/>
<polygon fill="#000000" stroke="#000000" stroke-width="5.88" points="201.36,-663.6 191.27,-658.63 193.09,-669.73 201.36,-663.6"/>
<text text-anchor="middle" x="221" y="-674.8" font-family="Times,serif" font-size="14.00">282</text>
</g>
<!-- Insert Date Appeal to Prefecture -->
<g id="node5" class="node">
<title>Insert Date Appeal to Prefecture</title>
<polygon fill="#9b9bff" stroke="black" points="412,-566 187,-566 187,-530 412,-530 412,-566"/>
<text text-anchor="middle" x="299.5" y="-544.3" font-family="Times,serif" font-size="14.00">Insert Date Appeal to Prefecture (288)</text>
</g>
<!-- Send Fine&#45;&gt;Insert Date Appeal to Prefecture -->
<g id="edge10" class="edge">
<title>Send Fine&#45;&gt;Insert Date Appeal to Prefecture</title>
<path fill="none" stroke="#ff0000" stroke-width="0.52" stroke-dasharray="5,2" d="M247.45,-703.54C254.83,-690.06 264.75,-670.77 271.5,-653 281.12,-627.7 288.81,-597.76 293.68,-576.51"/>
<polygon fill="#ff0000" stroke="#ff0000" stroke-width="0.52" points="297.04,-577.55 295.8,-567.03 290.2,-576.03 297.04,-577.55"/>
<text text-anchor="middle" x="287" y="-631.3" font-family="Times,serif" font-size="14.00">6</text>
</g>
<!-- Insert Fine Notification&#45;&gt;Insert Date Appeal to Prefecture -->
<g id="edge4" class="edge">
<title>Insert Fine Notification&#45;&gt;Insert Date Appeal to Prefecture</title>
<path fill="none" stroke="#000000" stroke-width="5.3" d="M200.1,-616.59C217.54,-604.73 240.96,-588.81 260.68,-575.4"/>
<polygon fill="#000000" stroke="#000000" stroke-width="5.3" points="263.07,-579.38 268.73,-569.92 257.85,-571.71 263.07,-579.38"/>
<text text-anchor="middle" x="255" y="-587.8" font-family="Times,serif" font-size="14.00">252</text>
</g>
<!-- Add penalty -->
<g id="node6" class="node">
<title>Add penalty</title>
<polygon fill="#9d9dff" stroke="black" points="283.5,-479 167.5,-479 167.5,-443 283.5,-443 283.5,-479"/>
<text text-anchor="middle" x="225.5" y="-457.3" font-family="Times,serif" font-size="14.00">Add penalty (282)</text>
</g>
<!-- Insert Fine Notification&#45;&gt;Add penalty -->
<g id="edge7" class="edge">
<title>Insert Fine Notification&#45;&gt;Add penalty</title>
<path fill="none" stroke="#000000" stroke-width="0.99" d="M167.96,-616.79C160.96,-595.63 152.28,-558.95 163.5,-530 169.88,-513.54 182.3,-498.62 194.36,-486.98"/>
<polygon fill="#000000" stroke="#000000" stroke-width="0.99" points="196.46,-489.8 201.48,-480.47 191.74,-484.64 196.46,-489.8"/>
<text text-anchor="middle" x="170.5" y="-544.3" font-family="Times,serif" font-size="14.00">30</text>
</g>
<!-- Insert Date Appeal to Prefecture&#45;&gt;Add penalty -->
<g id="edge5" class="edge">
<title>Insert Date Appeal to Prefecture&#45;&gt;Add penalty</title>
<path fill="none" stroke="#000000" stroke-width="5.3" d="M284.52,-529.8C274.96,-518.81 262.31,-504.28 251.17,-491.48"/>
<polygon fill="#000000" stroke="#000000" stroke-width="5.3" points="254.91,-488.71 244.84,-484.22 247.91,-494.81 254.91,-488.71"/>
<text text-anchor="middle" x="278" y="-500.8" font-family="Times,serif" font-size="14.00">252</text>
</g>
<!-- Send Appeal to Prefecture -->
<g id="node7" class="node">
<title>Send Appeal to Prefecture</title>
<polygon fill="#9b9bff" stroke="black" points="368.5,-392 176.5,-392 176.5,-356 368.5,-356 368.5,-392"/>
<text text-anchor="middle" x="272.5" y="-370.3" font-family="Times,serif" font-size="14.00">Send Appeal to Prefecture (288)</text>
</g>
<!-- Insert Date Appeal to Prefecture&#45;&gt;Send Appeal to Prefecture -->
<g id="edge9" class="edge">
<title>Insert Date Appeal to Prefecture&#45;&gt;Send Appeal to Prefecture</title>
<path fill="none" stroke="#000000" stroke-width="1.1" d="M299.49,-529.56C299.2,-508.79 297.87,-473.11 292.5,-443 290.12,-429.69 286.1,-415.28 282.29,-403.16"/>
<polygon fill="#000000" stroke="#000000" stroke-width="1.1" points="285.71,-402.36 279.27,-393.95 279.05,-404.54 285.71,-402.36"/>
<text text-anchor="middle" x="304.5" y="-457.3" font-family="Times,serif" font-size="14.00">36</text>
</g>
<!-- Add penalty&#45;&gt;Insert Date Appeal to Prefecture -->
<g id="edge8" class="edge">
<title>Add penalty&#45;&gt;Insert Date Appeal to Prefecture</title>
<path fill="none" stroke="#000000" stroke-width="0.99" d="M227.46,-479.19C229.38,-489.58 233.13,-502.57 240.5,-512 243.64,-516.01 247.37,-519.66 251.42,-522.96"/>
<polygon fill="#000000" stroke="#000000" stroke-width="0.99" points="249.3,-525.74 259.46,-528.74 253.38,-520.06 249.3,-525.74"/>
<text text-anchor="middle" x="247.5" y="-500.8" font-family="Times,serif" font-size="14.00">30</text>
</g>
<!-- Add penalty&#45;&gt;Send Appeal to Prefecture -->
<g id="edge6" class="edge">
<title>Add penalty&#45;&gt;Send Appeal to Prefecture</title>
<path fill="none" stroke="#000000" stroke-width="5.3" d="M235.01,-442.8C240.77,-432.38 248.29,-418.78 255.08,-406.5"/>
<polygon fill="#000000" stroke="#000000" stroke-width="5.3" points="259.01,-408.98 259.79,-397.98 250.9,-404.49 259.01,-408.98"/>
<text text-anchor="middle" x="263" y="-413.8" font-family="Times,serif" font-size="14.00">252</text>
</g>
<!-- Receive Result Appeal from Prefecture -->
<g id="node8" class="node">
<title>Receive Result Appeal from Prefecture</title>
<polygon fill="#fcfcff" stroke="black" points="323,-305 66,-305 66,-269 323,-269 323,-305"/>
<text text-anchor="middle" x="194.5" y="-283.3" font-family="Times,serif" font-size="14.00">Receive Result Appeal from Prefecture (11)</text>
</g>
<!-- Send Appeal to Prefecture&#45;&gt;Receive Result Appeal from Prefecture -->
<g id="edge11" class="edge">
<title>Send Appeal to Prefecture&#45;&gt;Receive Result Appeal from Prefecture</title>
<path fill="none" stroke="#ff0000" stroke-width="0.62" stroke-dasharray="5,2" d="M256.72,-355.8C245.48,-343.55 230.2,-326.9 217.59,-313.16"/>
<polygon fill="#ff0000" stroke="#ff0000" stroke-width="0.62" points="220.5,-311.16 211.16,-306.15 215.34,-315.89 220.5,-311.16"/>
<text text-anchor="middle" x="245.5" y="-326.8" font-family="Times,serif" font-size="14.00">11</text>
</g>
<!-- end_node -->
<g id="node12" class="node">
<title>end_node</title>
<ellipse fill="none" stroke="black" cx="233.5" cy="-22" rx="18" ry="18"/>
<ellipse fill="none" stroke="black" cx="233.5" cy="-22" rx="22" ry="22"/>
<text text-anchor="start" x="229" y="-18.3" font-family="Times,serif" font-size="14.00">■</text>
</g>
<!-- Send Appeal to Prefecture&#45;&gt;end_node -->
<g id="edge15" class="edge">
<title>Send Appeal to Prefecture&#45;&gt;end_node</title>
<path fill="none" stroke="#000000" stroke-width="5.79" d="M303.72,-355.7C325.8,-340.92 351.5,-317.41 351.5,-288 351.5,-288 351.5,-288 351.5,-112 351.5,-70.69 304.83,-46.14 270.19,-33.6"/>
<polygon fill="#000000" stroke="#000000" stroke-width="5.79" points="272.03,-28.88 260.95,-30.55 268.85,-38.5 272.03,-28.88"/>
<text text-anchor="middle" x="362" y="-196.3" font-family="Times,serif" font-size="14.00">277</text>
</g>
<!-- Notify Result Appeal to Offender -->
<g id="node9" class="node">
<title>Notify Result Appeal to Offender</title>
<polygon fill="#fcfcff" stroke="black" points="307,-218 82,-218 82,-182 307,-182 307,-218"/>
<text text-anchor="middle" x="194.5" y="-196.3" font-family="Times,serif" font-size="14.00">Notify Result Appeal to Offender (11)</text>
</g>
<!-- Receive Result Appeal from Prefecture&#45;&gt;Notify Result Appeal to Offender -->
<g id="edge12" class="edge">
<title>Receive Result Appeal from Prefecture&#45;&gt;Notify Result Appeal to Offender</title>
<path fill="none" stroke="#ff0000" stroke-width="0.62" stroke-dasharray="5,2" d="M194.5,-268.8C194.5,-257.47 194.5,-242.36 194.5,-229.29"/>
<polygon fill="#ff0000" stroke="#ff0000" stroke-width="0.62" points="198,-229.4 194.5,-219.4 191,-229.4 198,-229.4"/>
<text text-anchor="middle" x="201.5" y="-239.8" font-family="Times,serif" font-size="14.00">11</text>
</g>
<!-- Send for Credit Collection -->
<g id="node10" class="node">
<title>Send for Credit Collection</title>
<polygon fill="#fefeff" stroke="black" points="323.5,-131 143.5,-131 143.5,-95 323.5,-95 323.5,-131"/>
<text text-anchor="middle" x="233.5" y="-109.3" font-family="Times,serif" font-size="14.00">Send for Credit Collection (6)</text>
</g>
<!-- Notify Result Appeal to Offender&#45;&gt;Send for Credit Collection -->
<g id="edge13" class="edge">
<title>Notify Result Appeal to Offender&#45;&gt;Send for Credit Collection</title>
<path fill="none" stroke="#ff0000" stroke-width="0.52" stroke-dasharray="5,2" d="M202.39,-181.8C207.75,-170.12 214.94,-154.45 221.06,-141.11"/>
<polygon fill="#ff0000" stroke="#ff0000" stroke-width="0.52" points="224.17,-142.73 225.16,-132.18 217.81,-139.81 224.17,-142.73"/>
<text text-anchor="middle" x="220" y="-152.8" font-family="Times,serif" font-size="14.00">6</text>
</g>
<!-- Appeal to Judge -->
<g id="node11" class="node">
<title>Appeal to Judge</title>
<polygon fill="#ffffff" stroke="black" points="125,-131 0,-131 0,-95 125,-95 125,-131"/>
<text text-anchor="middle" x="62.5" y="-109.3" font-family="Times,serif" font-size="14.00">Appeal to Judge (5)</text>
</g>
<!-- Notify Result Appeal to Offender&#45;&gt;Appeal to Judge -->
<g id="edge14" class="edge">
<title>Notify Result Appeal to Offender&#45;&gt;Appeal to Judge</title>
<path fill="none" stroke="#ff0000" stroke-width="0.5" stroke-dasharray="5,2" d="M167.47,-181.59C147.54,-168.76 120.22,-151.17 98.45,-137.15"/>
<polygon fill="#ff0000" stroke="#ff0000" stroke-width="0.5" points="100.43,-134.26 90.13,-131.79 96.64,-140.15 100.43,-134.26"/>
<text text-anchor="middle" x="140" y="-152.8" font-family="Times,serif" font-size="14.00">5</text>
</g>
<!-- Send for Credit Collection&#45;&gt;end_node -->
<g id="edge16" class="edge">
<title>Send for Credit Collection&#45;&gt;end_node</title>
<path fill="none" stroke="#ff0000" stroke-width="0.52" stroke-dasharray="5,2" d="M233.5,-94.84C233.5,-83.44 233.5,-68.13 233.5,-54.58"/>
<polygon fill="#ff0000" stroke="#ff0000" stroke-width="0.52" points="237,-54.98 233.5,-44.98 230,-54.98 237,-54.98"/>
<text text-anchor="middle" x="237" y="-65.8" font-family="Times,serif" font-size="14.00">6</text>
</g>
<!-- Appeal to Judge&#45;&gt;end_node -->
<g id="edge17" class="edge">
<title>Appeal to Judge&#45;&gt;end_node</title>
<path fill="none" stroke="#ff0000" stroke-width="0.5" stroke-dasharray="5,2" d="M95.88,-94.63C127.49,-78.18 174.47,-53.72 204.54,-38.07"/>
<polygon fill="#ff0000" stroke="#ff0000" stroke-width="0.5" points="206.12,-41.2 213.37,-33.48 202.89,-34.99 206.12,-41.2"/>
<text text-anchor="middle" x="162" y="-65.8" font-family="Times,serif" font-size="14.00">5</text>
</g>
</g>
</svg>
