<?xml version="1.0" encoding="UTF-8" standalone="no"?>
<!DOCTYPE svg PUBLIC "-//W3C//DTD SVG 1.1//EN"
 "http://www.w3.org/Graphics/SVG/1.1/DTD/svg11.dtd">
<!-- Generated by graphviz version 7.0.5 (0)
 -->
<!-- Title: dfg Pages: 1 -->
<svg width="257pt" height="574pt"
 viewBox="0.00 0.00 257.00 574.00" xmlns="http://www.w3.org/2000/svg" xmlns:xlink="http://www.w3.org/1999/xlink">
<g id="graph0" class="graph" transform="scale(1 1) rotate(0) translate(4 570)">
<title>dfg</title>
<polygon fill="white" stroke="none" points="-4,4 -4,-570 253,-570 253,4 -4,4"/>
<!-- start_node -->
<g id="node1" class="node">
<title>start_node</title>
<ellipse fill="none" stroke="black" cx="168" cy="-548" rx="18" ry="18"/>
<text text-anchor="start" x="163.5" y="-544.3" font-family="Times,serif" font-size="14.00">●</text>
</g>
<!-- Create Fine -->
<g id="node2" class="node">
<title>Create Fine</title>
<polygon fill="#9b9bff" stroke="black" points="227.5,-479 108.5,-479 108.5,-443 227.5,-443 227.5,-479"/>
<text text-anchor="middle" x="168" y="-457.3" font-family="Times,serif" font-size="14.00">Create Fine (1520)</text>
</g>
<!-- start_node&#45;&gt;Create Fine -->
<g id="edge1" class="edge">
<title>start_node&#45;&gt;Create Fine</title>
<path fill="none" stroke="#000000" stroke-width="6" d="M168,-529.8C168,-519.96 168,-507.27 168,-495.53"/>
<polygon fill="#000000" stroke="#000000" stroke-width="6" points="173.25,-495.92 168,-485.92 162.75,-495.92 173.25,-495.92"/>
<text text-anchor="middle" x="182" y="-500.8" font-family="Times,serif" font-size="14.00">1520</text>
</g>
<!-- Send Fine -->
<g id="node3" class="node">
<title>Send Fine</title>
<polygon fill="#9b9bff" stroke="black" points="223.5,-392 112.5,-392 112.5,-356 223.5,-356 223.5,-392"/>
<text text-anchor="middle" x="168" y="-370.3" font-family="Times,serif" font-size="14.00">Send Fine (1520)</text>
</g>
<!-- Create Fine&#45;&gt;Send Fine -->
<g id="edge2" class="edge">
<title>Create Fine&#45;&gt;Send Fine</title>
<path fill="none" stroke="#000000" stroke-width="6" d="M168,-442.8C168,-432.96 168,-420.27 168,-408.53"/>
<polygon fill="#000000" stroke="#000000" stroke-width="6" points="173.25,-408.92 168,-398.92 162.75,-408.92 173.25,-408.92"/>
<text text-anchor="middle" x="182" y="-413.8" font-family="Times,serif" font-size="14.00">1520</text>
</g>
<!-- Insert Fine Notification -->
<g id="node4" class="node">
<title>Insert Fine Notification</title>
<polygon fill="#ffffff" stroke="black" points="200,-305 16,-305 16,-269 200,-269 200,-305"/>
<text text-anchor="middle" x="108" y="-283.3" font-family="Times,serif" font-size="14.00">Insert Fine Notification (1303)</text>
</g>
<!-- Send Fine&#45;&gt;Insert Fine Notification -->
<g id="edge3" class="edge">
<title>Send Fine&#45;&gt;Insert Fine Notification</title>
<path fill="none" stroke="#000000" stroke-width="0.5" d="M155.86,-355.8C147.38,-343.78 135.9,-327.52 126.31,-313.94"/>
<polygon fill="#000000" stroke="#000000" stroke-width="0.5" points="129.39,-312.24 120.77,-306.09 123.67,-316.27 129.39,-312.24"/>
<text text-anchor="middle" x="156" y="-326.8" font-family="Times,serif" font-size="14.00">1303</text>
</g>
<!-- end_node -->
<g id="node7" class="node">
<title>end_node</title>
<ellipse fill="none" stroke="black" cx="164" cy="-22" rx="18" ry="18"/>
<ellipse fill="none" stroke="black" cx="164" cy="-22" rx="22" ry="22"/>
<text text-anchor="start" x="159.5" y="-18.3" font-family="Times,serif" font-size="14.00">■</text>
</g>
<!-- Send Fine&#45;&gt;end_node -->
<g id="edge7" class="edge">
<title>Send Fine&#45;&gt;end_node</title>
<path fill="none" stroke="#000000" stroke-width="0" d="M190,-355.6C207.13,-339.95 228,-315.28 228,-288 228,-288 228,-288 228,-112 228,-84.02 206.9,-58.83 188.93,-42.45"/>
<polygon fill="#000000" stroke="#000000" stroke-width="0" points="191.33,-39.9 181.49,-35.99 186.74,-45.19 191.33,-39.9"/>
<text text-anchor="middle" x="238.5" y="-196.3" font-family="Times,serif" font-size="14.00">217</text>
</g>
<!-- Add penalty -->
<g id="node5" class="node">
<title>Add penalty</title>
<polygon fill="#ffffff" stroke="black" points="166.5,-218 43.5,-218 43.5,-182 166.5,-182 166.5,-218"/>
<text text-anchor="middle" x="105" y="-196.3" font-family="Times,serif" font-size="14.00">Add penalty (1303)</text>
</g>
<!-- Insert Fine Notification&#45;&gt;Add penalty -->
<g id="edge4" class="edge">
<title>Insert Fine Notification&#45;&gt;Add penalty</title>
<path fill="none" stroke="#000000" stroke-width="0.5" d="M107.39,-268.8C106.99,-257.35 106.45,-242.06 105.98,-228.89"/>
<polygon fill="#000000" stroke="#000000" stroke-width="0.5" points="109.49,-229.09 105.64,-219.22 102.5,-229.34 109.49,-229.09"/>
<text text-anchor="middle" x="121" y="-239.8" font-family="Times,serif" font-size="14.00">1303</text>
</g>
<!-- Send for Credit Collection -->
<g id="node6" class="node">
<title>Send for Credit Collection</title>
<polygon fill="#ffffff" stroke="black" points="200,-131 0,-131 0,-95 200,-95 200,-131"/>
<text text-anchor="middle" x="100" y="-109.3" font-family="Times,serif" font-size="14.00">Send for Credit Collection (1303)</text>
</g>
<!-- Add penalty&#45;&gt;Send for Credit Collection -->
<g id="edge5" class="edge">
<title>Add penalty&#45;&gt;Send for Credit Collection</title>
<path fill="none" stroke="#000000" stroke-width="0.5" d="M103.99,-181.8C103.31,-170.35 102.42,-155.06 101.64,-141.89"/>
<polygon fill="#000000" stroke="#000000" stroke-width="0.5" points="105.15,-142 101.07,-132.22 98.17,-142.41 105.15,-142"/>
<text text-anchor="middle" x="117" y="-152.8" font-family="Times,serif" font-size="14.00">1303</text>
</g>
<!-- Send for Credit Collection&#45;&gt;end_node -->
<g id="edge6" class="edge">
<title>Send for Credit Collection&#45;&gt;end_node</title>
<path fill="none" stroke="#000000" stroke-width="0.5" d="M112.34,-94.84C121.66,-81.87 134.63,-63.85 145.23,-49.1"/>
<polygon fill="#000000" stroke="#000000" stroke-width="0.5" points="148.04,-51.19 151.04,-41.03 142.36,-47.1 148.04,-51.19"/>
<text text-anchor="middle" x="150" y="-65.8" font-family="Times,serif" font-size="14.00">1303</text>
</g>
</g>
</svg>
