<?xml version="1.0" encoding="UTF-8" standalone="no"?>
<!DOCTYPE svg PUBLIC "-//W3C//DTD SVG 1.1//EN"
 "http://www.w3.org/Graphics/SVG/1.1/DTD/svg11.dtd">
<!-- Generated by graphviz version 7.0.5 (0)
 -->
<!-- Title: dfg Pages: 1 -->
<svg width="584pt" height="1096pt"
 viewBox="0.00 0.00 584.50 1096.00" xmlns="http://www.w3.org/2000/svg" xmlns:xlink="http://www.w3.org/1999/xlink">
<g id="graph0" class="graph" transform="scale(1 1) rotate(0) translate(4 1092)">
<title>dfg</title>
<polygon fill="white" stroke="none" points="-4,4 -4,-1092 580.5,-1092 580.5,4 -4,4"/>
<!-- start_node -->
<g id="node1" class="node">
<title>start_node</title>
<ellipse fill="none" stroke="black" cx="412" cy="-1070" rx="18" ry="18"/>
<text text-anchor="start" x="407.5" y="-1066.3" font-family="Times,serif" font-size="14.00">●</text>
</g>
<!-- Create Fine -->
<g id="node2" class="node">
<title>Create Fine</title>
<polygon fill="#9b9bff" stroke="black" points="465,-1001 359,-1001 359,-965 465,-965 465,-1001"/>
<text text-anchor="middle" x="412" y="-979.3" font-family="Times,serif" font-size="14.00">Create Fine (86)</text>
</g>
<!-- start_node&#45;&gt;Create Fine -->
<g id="edge1" class="edge">
<title>start_node&#45;&gt;Create Fine</title>
<path fill="none" stroke="#000000" stroke-width="6" d="M412,-1051.8C412,-1041.96 412,-1029.27 412,-1017.53"/>
<polygon fill="#000000" stroke="#000000" stroke-width="6" points="417.25,-1017.92 412,-1007.92 406.75,-1017.92 417.25,-1017.92"/>
<text text-anchor="middle" x="419" y="-1022.8" font-family="Times,serif" font-size="14.00">86</text>
</g>
<!-- Send Fine -->
<g id="node3" class="node">
<title>Send Fine</title>
<polygon fill="#9b9bff" stroke="black" points="423,-914 325,-914 325,-878 423,-878 423,-914"/>
<text text-anchor="middle" x="374" y="-892.3" font-family="Times,serif" font-size="14.00">Send Fine (86)</text>
</g>
<!-- Create Fine&#45;&gt;Send Fine -->
<g id="edge2" class="edge">
<title>Create Fine&#45;&gt;Send Fine</title>
<path fill="none" stroke="#000000" stroke-width="5.94" d="M404.31,-964.8C399.76,-954.61 393.84,-941.38 388.44,-929.31"/>
<polygon fill="#000000" stroke="#000000" stroke-width="5.94" points="393.26,-927.36 384.44,-920.35 383.78,-931.59 393.26,-927.36"/>
<text text-anchor="middle" x="402" y="-935.8" font-family="Times,serif" font-size="14.00">85</text>
</g>
<!-- Payment -->
<g id="node11" class="node">
<title>Payment</title>
<polygon fill="#d8d8ff" stroke="black" points="450.5,-479 359.5,-479 359.5,-443 450.5,-443 450.5,-479"/>
<text text-anchor="middle" x="405" y="-457.3" font-family="Times,serif" font-size="14.00">Payment (40)</text>
</g>
<!-- Create Fine&#45;&gt;Payment -->
<g id="edge28" class="edge">
<title>Create Fine&#45;&gt;Payment</title>
<path fill="none" stroke="#ff0000" stroke-width="0.5" stroke-dasharray="5,2" d="M425.2,-964.82C436.52,-948.35 451,-922.33 451,-897 451,-897 451,-897 451,-547 451,-525.2 439.15,-503.63 427.48,-487.67"/>
<polygon fill="#ff0000" stroke="#ff0000" stroke-width="0.5" points="430.44,-485.78 421.55,-480.02 424.91,-490.07 430.44,-485.78"/>
<text text-anchor="middle" x="454.5" y="-718.3" font-family="Times,serif" font-size="14.00">1</text>
</g>
<!-- Insert Fine Notification -->
<g id="node4" class="node">
<title>Insert Fine Notification</title>
<polygon fill="#9b9bff" stroke="black" points="285,-827 115,-827 115,-791 285,-791 285,-827"/>
<text text-anchor="middle" x="200" y="-805.3" font-family="Times,serif" font-size="14.00">Insert Fine Notification (86)</text>
</g>
<!-- Send Fine&#45;&gt;Insert Fine Notification -->
<g id="edge3" class="edge">
<title>Send Fine&#45;&gt;Insert Fine Notification</title>
<path fill="none" stroke="#000000" stroke-width="6" d="M338.37,-877.59C312.92,-865.16 278.33,-848.26 250.1,-834.47"/>
<polygon fill="#000000" stroke="#000000" stroke-width="6" points="252.67,-829.89 241.38,-830.22 248.06,-839.32 252.67,-829.89"/>
<text text-anchor="middle" x="304" y="-848.8" font-family="Times,serif" font-size="14.00">86</text>
</g>
<!-- Insert Date Appeal to Prefecture -->
<g id="node5" class="node">
<title>Insert Date Appeal to Prefecture</title>
<polygon fill="#9b9bff" stroke="black" points="309,-740 91,-740 91,-704 309,-704 309,-740"/>
<text text-anchor="middle" x="200" y="-718.3" font-family="Times,serif" font-size="14.00">Insert Date Appeal to Prefecture (86)</text>
</g>
<!-- Insert Fine Notification&#45;&gt;Insert Date Appeal to Prefecture -->
<g id="edge4" class="edge">
<title>Insert Fine Notification&#45;&gt;Insert Date Appeal to Prefecture</title>
<path fill="none" stroke="#000000" stroke-width="5.29" d="M200,-790.8C200,-780.96 200,-768.27 200,-756.53"/>
<polygon fill="#000000" stroke="#000000" stroke-width="5.29" points="204.63,-756.76 200,-746.76 195.37,-756.76 204.63,-756.76"/>
<text text-anchor="middle" x="207" y="-761.8" font-family="Times,serif" font-size="14.00">75</text>
</g>
<!-- Add penalty -->
<g id="node7" class="node">
<title>Add penalty</title>
<polygon fill="#9b9bff" stroke="black" points="228,-566 118,-566 118,-530 228,-530 228,-566"/>
<text text-anchor="middle" x="173" y="-544.3" font-family="Times,serif" font-size="14.00">Add penalty (86)</text>
</g>
<!-- Insert Fine Notification&#45;&gt;Add penalty -->
<g id="edge14" class="edge">
<title>Insert Fine Notification&#45;&gt;Add penalty</title>
<path fill="none" stroke="#000000" stroke-width="1.15" d="M145.04,-790.54C121.24,-779.94 95.72,-763.75 82,-740 48.85,-682.64 107.58,-611.3 145.18,-574.15"/>
<polygon fill="#000000" stroke="#000000" stroke-width="1.15" points="147.27,-576.99 152.05,-567.53 142.42,-571.95 147.27,-576.99"/>
<text text-anchor="middle" x="85" y="-674.8" font-family="Times,serif" font-size="14.00">11</text>
</g>
<!-- Send Appeal to Prefecture -->
<g id="node6" class="node">
<title>Send Appeal to Prefecture</title>
<polygon fill="#9b9bff" stroke="black" points="376.5,-653 191.5,-653 191.5,-617 376.5,-617 376.5,-653"/>
<text text-anchor="middle" x="284" y="-631.3" font-family="Times,serif" font-size="14.00">Send Appeal to Prefecture (86)</text>
</g>
<!-- Insert Date Appeal to Prefecture&#45;&gt;Send Appeal to Prefecture -->
<g id="edge5" class="edge">
<title>Insert Date Appeal to Prefecture&#45;&gt;Send Appeal to Prefecture</title>
<path fill="none" stroke="#000000" stroke-width="4.77" d="M217,-703.8C228.08,-692.58 242.82,-677.67 255.65,-664.69"/>
<polygon fill="#000000" stroke="#000000" stroke-width="4.77" points="258.33,-667.92 262.39,-657.87 252.39,-662.05 258.33,-667.92"/>
<text text-anchor="middle" x="254" y="-674.8" font-family="Times,serif" font-size="14.00">67</text>
</g>
<!-- Insert Date Appeal to Prefecture&#45;&gt;Add penalty -->
<g id="edge11" class="edge">
<title>Insert Date Appeal to Prefecture&#45;&gt;Add penalty</title>
<path fill="none" stroke="#000000" stroke-width="1.54" d="M189.51,-703.55C182.15,-690.22 172.94,-671.13 169,-653 163.6,-628.14 165.35,-599.17 168.02,-578.13"/>
<polygon fill="#000000" stroke="#000000" stroke-width="1.54" points="171.45,-578.86 169.41,-568.46 164.52,-577.86 171.45,-578.86"/>
<text text-anchor="middle" x="176" y="-631.3" font-family="Times,serif" font-size="14.00">17</text>
</g>
<!-- Receive Result Appeal from Prefecture -->
<g id="node8" class="node">
<title>Receive Result Appeal from Prefecture</title>
<polygon fill="#9b9bff" stroke="black" points="367.5,-392 110.5,-392 110.5,-356 367.5,-356 367.5,-392"/>
<text text-anchor="middle" x="239" y="-370.3" font-family="Times,serif" font-size="14.00">Receive Result Appeal from Prefecture (86)</text>
</g>
<!-- Insert Date Appeal to Prefecture&#45;&gt;Receive Result Appeal from Prefecture -->
<g id="edge23" class="edge">
<title>Insert Date Appeal to Prefecture&#45;&gt;Receive Result Appeal from Prefecture</title>
<path fill="none" stroke="#ff0000" stroke-width="0.56" stroke-dasharray="5,2" d="M90.64,-712.85C43.95,-702.78 0,-681.27 0,-636 0,-636 0,-636 0,-503.5 0,-444.72 56.78,-412.71 114.99,-395.34"/>
<polygon fill="#ff0000" stroke="#ff0000" stroke-width="0.56" points="115.61,-398.8 124.28,-392.7 113.7,-392.07 115.61,-398.8"/>
<text text-anchor="middle" x="3.5" y="-544.3" font-family="Times,serif" font-size="14.00">2</text>
</g>
<!-- Send Appeal to Prefecture&#45;&gt;Add penalty -->
<g id="edge6" class="edge">
<title>Send Appeal to Prefecture&#45;&gt;Add penalty</title>
<path fill="none" stroke="#000000" stroke-width="4.06" d="M218.83,-616.64C209.36,-612.04 200.35,-606.25 193,-599 188.05,-594.12 184.29,-587.86 181.45,-581.43"/>
<polygon fill="#000000" stroke="#000000" stroke-width="4.06" points="184.81,-580.28 178.2,-571.98 178.09,-582.59 184.81,-580.28"/>
<text text-anchor="middle" x="200" y="-587.8" font-family="Times,serif" font-size="14.00">56</text>
</g>
<!-- Send Appeal to Prefecture&#45;&gt;Receive Result Appeal from Prefecture -->
<g id="edge13" class="edge">
<title>Send Appeal to Prefecture&#45;&gt;Receive Result Appeal from Prefecture</title>
<path fill="none" stroke="#000000" stroke-width="2.25" d="M286.98,-616.52C292.79,-577.56 302.6,-481.42 272,-410 270.92,-407.48 269.58,-405.03 268.05,-402.68"/>
<polygon fill="#000000" stroke="#000000" stroke-width="2.25" points="271,-400.76 262.04,-395.1 265.51,-405.11 271,-400.76"/>
<text text-anchor="middle" x="299" y="-500.8" font-family="Times,serif" font-size="14.00">28</text>
</g>
<!-- Notify Result Appeal to Offender -->
<g id="node9" class="node">
<title>Notify Result Appeal to Offender</title>
<polygon fill="#9d9dff" stroke="black" points="423.5,-218 198.5,-218 198.5,-182 423.5,-182 423.5,-218"/>
<text text-anchor="middle" x="311" y="-196.3" font-family="Times,serif" font-size="14.00">Notify Result Appeal to Offender (84)</text>
</g>
<!-- Send Appeal to Prefecture&#45;&gt;Notify Result Appeal to Offender -->
<g id="edge25" class="edge">
<title>Send Appeal to Prefecture&#45;&gt;Notify Result Appeal to Offender</title>
<path fill="none" stroke="#ff0000" stroke-width="0.5" stroke-dasharray="5,2" d="M213.18,-616.57C140.5,-597.65 38,-567.67 38,-549 38,-549 38,-549 38,-286 38,-252.1 115.7,-230.18 188.2,-217.1"/>
<polygon fill="#ff0000" stroke="#ff0000" stroke-width="0.5" points="188.39,-220.62 197.64,-215.45 187.18,-213.73 188.39,-220.62"/>
<text text-anchor="middle" x="41.5" y="-413.8" font-family="Times,serif" font-size="14.00">1</text>
</g>
<!-- Send Appeal to Prefecture&#45;&gt;Payment -->
<g id="edge27" class="edge">
<title>Send Appeal to Prefecture&#45;&gt;Payment</title>
<path fill="none" stroke="#ff0000" stroke-width="0.5" stroke-dasharray="5,2" d="M297.07,-616.64C301.24,-611.03 305.85,-604.78 310,-599 337.45,-560.76 368.36,-515.82 387.26,-488.13"/>
<polygon fill="#ff0000" stroke="#ff0000" stroke-width="0.5" points="390.02,-490.29 392.76,-480.05 384.23,-486.35 390.02,-490.29"/>
<text text-anchor="middle" x="361.5" y="-544.3" font-family="Times,serif" font-size="14.00">1</text>
</g>
<!-- Add penalty&#45;&gt;Insert Date Appeal to Prefecture -->
<g id="edge15" class="edge">
<title>Add penalty&#45;&gt;Insert Date Appeal to Prefecture</title>
<path fill="none" stroke="#000000" stroke-width="1.15" d="M162.77,-566.47C151.92,-587.28 137.57,-622.99 147,-653 151.93,-668.7 162.41,-683.46 172.75,-695.19"/>
<polygon fill="#000000" stroke="#000000" stroke-width="1.15" points="169.98,-697.35 179.36,-702.27 175.09,-692.57 169.98,-697.35"/>
<text text-anchor="middle" x="154" y="-631.3" font-family="Times,serif" font-size="14.00">11</text>
</g>
<!-- Add penalty&#45;&gt;Send Appeal to Prefecture -->
<g id="edge12" class="edge">
<title>Add penalty&#45;&gt;Send Appeal to Prefecture</title>
<path fill="none" stroke="#000000" stroke-width="1.47" d="M191.42,-566.38C202.31,-576.34 216.56,-588.84 230,-599 234.89,-602.7 240.16,-606.42 245.42,-609.98"/>
<polygon fill="#000000" stroke="#000000" stroke-width="1.47" points="243.31,-612.78 253.59,-615.36 247.17,-606.93 243.31,-612.78"/>
<text text-anchor="middle" x="237" y="-587.8" font-family="Times,serif" font-size="14.00">16</text>
</g>
<!-- Add penalty&#45;&gt;Receive Result Appeal from Prefecture -->
<g id="edge7" class="edge">
<title>Add penalty&#45;&gt;Receive Result Appeal from Prefecture</title>
<path fill="none" stroke="#000000" stroke-width="3.99" d="M172.97,-529.86C173.45,-508.76 176,-472.15 187,-443 192.28,-429.01 201.44,-415.51 210.62,-404.28"/>
<polygon fill="#000000" stroke="#000000" stroke-width="3.99" points="213.23,-406.62 217.19,-396.79 207.96,-402 213.23,-406.62"/>
<text text-anchor="middle" x="194" y="-457.3" font-family="Times,serif" font-size="14.00">55</text>
</g>
<!-- Add penalty&#45;&gt;Notify Result Appeal to Offender -->
<g id="edge26" class="edge">
<title>Add penalty&#45;&gt;Notify Result Appeal to Offender</title>
<path fill="none" stroke="#ff0000" stroke-width="0.63" stroke-dasharray="5,2" d="M136.44,-529.54C112.27,-515.18 85,-492.27 85,-462 85,-462 85,-462 85,-286 85,-257.62 148.24,-235.48 207.81,-220.92"/>
<polygon fill="#ff0000" stroke="#ff0000" stroke-width="0.63" points="208.26,-224.41 217.17,-218.69 206.63,-217.6 208.26,-224.41"/>
<text text-anchor="middle" x="88.5" y="-370.3" font-family="Times,serif" font-size="14.00">3</text>
</g>
<!-- Add penalty&#45;&gt;Payment -->
<g id="edge21" class="edge">
<title>Add penalty&#45;&gt;Payment</title>
<path fill="none" stroke="#ff0000" stroke-width="0.5" stroke-dasharray="5,2" d="M228.26,-536.76C254.7,-530.98 286.52,-522.75 314,-512 324.51,-507.89 346.5,-495.84 366.23,-484.61"/>
<polygon fill="#ff0000" stroke="#ff0000" stroke-width="0.5" points="367.78,-487.75 374.72,-479.74 364.3,-481.68 367.78,-487.75"/>
<text text-anchor="middle" x="346.5" y="-500.8" font-family="Times,serif" font-size="14.00">1</text>
</g>
<!-- Receive Result Appeal from Prefecture&#45;&gt;Send Appeal to Prefecture -->
<g id="edge24" class="edge">
<title>Receive Result Appeal from Prefecture&#45;&gt;Send Appeal to Prefecture</title>
<path fill="none" stroke="#ff0000" stroke-width="0.63" stroke-dasharray="5,2" d="M242.01,-392.32C249.63,-436.19 269.76,-552.03 279.1,-605.82"/>
<polygon fill="#ff0000" stroke="#ff0000" stroke-width="0.63" points="275.65,-606.41 280.81,-615.67 282.55,-605.21 275.65,-606.41"/>
<text text-anchor="middle" x="265.5" y="-500.8" font-family="Times,serif" font-size="14.00">3</text>
</g>
<!-- Receive Result Appeal from Prefecture&#45;&gt;Add penalty -->
<g id="edge32" class="edge">
<title>Receive Result Appeal from Prefecture&#45;&gt;Add penalty</title>
<path fill="none" stroke="#ff0000" stroke-width="0.56" stroke-dasharray="5,2" d="M232.93,-392.45C223.73,-418.62 205.47,-469.51 188,-512 186.97,-514.51 185.88,-517.12 184.78,-519.73"/>
<polygon fill="#ff0000" stroke="#ff0000" stroke-width="0.56" points="181.61,-518.24 180.91,-528.81 188.05,-520.98 181.61,-518.24"/>
<text text-anchor="middle" x="217.5" y="-457.3" font-family="Times,serif" font-size="14.00">2</text>
</g>
<!-- Receive Result Appeal from Prefecture&#45;&gt;Notify Result Appeal to Offender -->
<g id="edge8" class="edge">
<title>Receive Result Appeal from Prefecture&#45;&gt;Notify Result Appeal to Offender</title>
<path fill="none" stroke="#000000" stroke-width="5.55" d="M238.4,-355.63C238.32,-334.29 240.3,-297.45 253,-269 259.39,-254.69 269.76,-241.09 279.99,-229.86"/>
<polygon fill="#000000" stroke="#000000" stroke-width="5.55" points="283.32,-233.4 286.81,-222.84 276.36,-226.63 283.32,-233.4"/>
<text text-anchor="middle" x="260" y="-283.3" font-family="Times,serif" font-size="14.00">79</text>
</g>
<!-- Receive Result Appeal from Prefecture&#45;&gt;Payment -->
<g id="edge19" class="edge">
<title>Receive Result Appeal from Prefecture&#45;&gt;Payment</title>
<path fill="none" stroke="#ff0000" stroke-width="0.5" stroke-dasharray="5,2" d="M311.51,-392.47C325.09,-397.17 338.84,-402.96 351,-410 362.46,-416.64 373.49,-426.09 382.56,-435"/>
<polygon fill="#ff0000" stroke="#ff0000" stroke-width="0.5" points="379.97,-437.36 389.46,-442.06 384.98,-432.46 379.97,-437.36"/>
<text text-anchor="middle" x="373.5" y="-413.8" font-family="Times,serif" font-size="14.00">1</text>
</g>
<!-- Appeal to Judge -->
<g id="node12" class="node">
<title>Appeal to Judge</title>
<polygon fill="#ffffff" stroke="black" points="406.5,-305 275.5,-305 275.5,-269 406.5,-269 406.5,-305"/>
<text text-anchor="middle" x="341" y="-283.3" font-family="Times,serif" font-size="14.00">Appeal to Judge (11)</text>
</g>
<!-- Receive Result Appeal from Prefecture&#45;&gt;Appeal to Judge -->
<g id="edge30" class="edge">
<title>Receive Result Appeal from Prefecture&#45;&gt;Appeal to Judge</title>
<path fill="none" stroke="#ff0000" stroke-width="0.5" stroke-dasharray="5,2" d="M259.64,-355.8C274.75,-343.21 295.45,-325.96 312.18,-312.01"/>
<polygon fill="#ff0000" stroke="#ff0000" stroke-width="0.5" points="314.02,-315.04 319.46,-305.95 309.54,-309.66 314.02,-315.04"/>
<text text-anchor="middle" x="299.5" y="-326.8" font-family="Times,serif" font-size="14.00">1</text>
</g>
<!-- Send for Credit Collection -->
<g id="node10" class="node">
<title>Send for Credit Collection</title>
<polygon fill="#dbdbff" stroke="black" points="561.5,-131 374.5,-131 374.5,-95 561.5,-95 561.5,-131"/>
<text text-anchor="middle" x="468" y="-109.3" font-family="Times,serif" font-size="14.00">Send for Credit Collection (38)</text>
</g>
<!-- Notify Result Appeal to Offender&#45;&gt;Send for Credit Collection -->
<g id="edge9" class="edge">
<title>Notify Result Appeal to Offender&#45;&gt;Send for Credit Collection</title>
<path fill="none" stroke="#000000" stroke-width="2.83" d="M343.15,-181.59C366.33,-169.05 397.9,-151.95 423.5,-138.09"/>
<polygon fill="#000000" stroke="#000000" stroke-width="2.83" points="425,-141.26 432.13,-133.42 421.67,-135.1 425,-141.26"/>
<text text-anchor="middle" x="405" y="-152.8" font-family="Times,serif" font-size="14.00">37</text>
</g>
<!-- Notify Result Appeal to Offender&#45;&gt;Payment -->
<g id="edge10" class="edge">
<title>Notify Result Appeal to Offender&#45;&gt;Payment</title>
<path fill="none" stroke="#000000" stroke-width="2.44" d="M357.06,-218.39C379.1,-229.32 403.39,-245.82 416,-269 443.69,-319.92 428.52,-390.17 416.05,-429.73"/>
<polygon fill="#000000" stroke="#000000" stroke-width="2.44" points="412.78,-428.5 412.92,-439.09 419.41,-430.72 412.78,-428.5"/>
<text text-anchor="middle" x="438" y="-326.8" font-family="Times,serif" font-size="14.00">31</text>
</g>
<!-- Notify Result Appeal to Offender&#45;&gt;Appeal to Judge -->
<g id="edge16" class="edge">
<title>Notify Result Appeal to Offender&#45;&gt;Appeal to Judge</title>
<path fill="none" stroke="#000000" stroke-width="1.08" d="M317.16,-218.47C321.18,-229.86 326.52,-244.97 331.12,-258.02"/>
<polygon fill="#000000" stroke="#000000" stroke-width="1.08" points="327.76,-258.99 334.38,-267.25 334.36,-256.66 327.76,-258.99"/>
<text text-anchor="middle" x="334" y="-239.8" font-family="Times,serif" font-size="14.00">10</text>
</g>
<!-- end_node -->
<g id="node13" class="node">
<title>end_node</title>
<ellipse fill="none" stroke="black" cx="407" cy="-22" rx="18" ry="18"/>
<ellipse fill="none" stroke="black" cx="407" cy="-22" rx="22" ry="22"/>
<text text-anchor="start" x="402.5" y="-18.3" font-family="Times,serif" font-size="14.00">■</text>
</g>
<!-- Notify Result Appeal to Offender&#45;&gt;end_node -->
<g id="edge36" class="edge">
<title>Notify Result Appeal to Offender&#45;&gt;end_node</title>
<path fill="none" stroke="#000000" stroke-width="0.82" d="M308.78,-181.86C306.1,-153.8 304.91,-97.63 332,-62 342.75,-47.86 360.11,-38.37 375.42,-32.3"/>
<polygon fill="#000000" stroke="#000000" stroke-width="0.82" points="376.2,-35.74 384.41,-29.05 373.82,-29.15 376.2,-35.74"/>
<text text-anchor="middle" x="318.5" y="-109.3" font-family="Times,serif" font-size="14.00">6</text>
</g>
<!-- Send for Credit Collection&#45;&gt;end_node -->
<g id="edge33" class="edge">
<title>Send for Credit Collection&#45;&gt;end_node</title>
<path fill="none" stroke="#000000" stroke-width="2.89" d="M456.24,-94.84C447.99,-82.81 436.76,-66.42 427.11,-52.33"/>
<polygon fill="#000000" stroke="#000000" stroke-width="2.89" points="430.16,-50.6 421.62,-44.33 424.39,-54.56 430.16,-50.6"/>
<text text-anchor="middle" x="449" y="-65.8" font-family="Times,serif" font-size="14.00">38</text>
</g>
<!-- Payment&#45;&gt;Send Fine -->
<g id="edge29" class="edge">
<title>Payment&#45;&gt;Send Fine</title>
<path fill="none" stroke="#ff0000" stroke-width="0.5" stroke-dasharray="5,2" d="M405,-479.26C405,-496.43 405,-523.54 405,-547 405,-810 405,-810 405,-810 405,-830.42 397,-852.03 389.13,-868.34"/>
<polygon fill="#ff0000" stroke="#ff0000" stroke-width="0.5" points="386.1,-866.59 384.67,-877.09 392.33,-869.77 386.1,-866.59"/>
<text text-anchor="middle" x="408.5" y="-674.8" font-family="Times,serif" font-size="14.00">1</text>
</g>
<!-- Payment&#45;&gt;Receive Result Appeal from Prefecture -->
<g id="edge22" class="edge">
<title>Payment&#45;&gt;Receive Result Appeal from Prefecture</title>
<path fill="none" stroke="#ff0000" stroke-width="0.5" stroke-dasharray="5,2" d="M372.57,-442.66C354.26,-432.94 330.92,-420.66 310,-410 301.73,-405.78 292.87,-401.36 284.32,-397.12"/>
<polygon fill="#ff0000" stroke="#ff0000" stroke-width="0.5" points="286.04,-394.07 275.53,-392.78 282.94,-400.34 286.04,-394.07"/>
<text text-anchor="middle" x="341.5" y="-413.8" font-family="Times,serif" font-size="14.00">1</text>
</g>
<!-- Payment&#45;&gt;Send for Credit Collection -->
<g id="edge20" class="edge">
<title>Payment&#45;&gt;Send for Credit Collection</title>
<path fill="none" stroke="#ff0000" stroke-width="0.5" stroke-dasharray="5,2" d="M450.96,-447.08C484.09,-434.63 523,-412.11 523,-375 523,-375 523,-375 523,-199 523,-176.25 508.94,-154.77 495.04,-139.1"/>
<polygon fill="#ff0000" stroke="#ff0000" stroke-width="0.5" points="497.77,-136.9 488.37,-132.01 492.67,-141.7 497.77,-136.9"/>
<text text-anchor="middle" x="526.5" y="-283.3" font-family="Times,serif" font-size="14.00">1</text>
</g>
<!-- Payment&#45;&gt;Payment -->
<g id="edge18" class="edge">
<title>Payment&#45;&gt;Payment</title>
<path fill="none" stroke="#ff0000" stroke-width="0.63" stroke-dasharray="5,2" d="M450.95,-468.94C461.1,-468.19 468.5,-465.55 468.5,-461 468.5,-458.3 465.89,-456.27 461.65,-454.91"/>
<polygon fill="#ff0000" stroke="#ff0000" stroke-width="0.63" points="462.34,-451.48 451.89,-453.23 461.15,-458.38 462.34,-451.48"/>
<text text-anchor="middle" x="472" y="-457.3" font-family="Times,serif" font-size="14.00">3</text>
</g>
<!-- Payment&#45;&gt;end_node -->
<g id="edge34" class="edge">
<title>Payment&#45;&gt;end_node</title>
<path fill="none" stroke="#000000" stroke-width="2.64" d="M421.05,-442.81C425.42,-437.42 429.83,-431.24 433,-425 450.82,-389.96 446.47,-377.23 449,-338 452.74,-280.13 446.25,-225.72 433,-182 428.21,-166.21 428.4,-159.88 416,-149 398.25,-133.42 379.58,-150.32 366,-131 348.44,-106.01 366.28,-72.54 383.61,-49.52"/>
<polygon fill="#000000" stroke="#000000" stroke-width="2.64" points="386.16,-51.94 389.69,-41.95 380.7,-47.56 386.16,-51.94"/>
<text text-anchor="middle" x="453" y="-239.8" font-family="Times,serif" font-size="14.00">34</text>
</g>
<!-- Appeal to Judge&#45;&gt;Notify Result Appeal to Offender -->
<g id="edge31" class="edge">
<title>Appeal to Judge&#45;&gt;Notify Result Appeal to Offender</title>
<path fill="none" stroke="#ff0000" stroke-width="0.5" stroke-dasharray="5,2" d="M324.44,-268.73C320.3,-263.44 316.37,-257.32 314,-251 311.41,-244.08 310.2,-236.24 309.76,-228.86"/>
<polygon fill="#ff0000" stroke="#ff0000" stroke-width="0.5" points="313.26,-228.88 309.58,-218.94 306.26,-229 313.26,-228.88"/>
<text text-anchor="middle" x="317.5" y="-239.8" font-family="Times,serif" font-size="14.00">1</text>
</g>
<!-- Appeal to Judge&#45;&gt;Payment -->
<g id="edge17" class="edge">
<title>Appeal to Judge&#45;&gt;Payment</title>
<path fill="none" stroke="#ff0000" stroke-width="0.56" stroke-dasharray="5,2" d="M351.6,-305.38C359.45,-318.82 369.96,-338.1 377,-356 386.87,-381.07 394.5,-410.87 399.28,-432.13"/>
<polygon fill="#ff0000" stroke="#ff0000" stroke-width="0.56" points="395.85,-432.83 401.4,-441.85 402.69,-431.34 395.85,-432.83"/>
<text text-anchor="middle" x="391.5" y="-370.3" font-family="Times,serif" font-size="14.00">2</text>
</g>
<!-- Appeal to Judge&#45;&gt;end_node -->
<g id="edge35" class="edge">
<title>Appeal to Judge&#45;&gt;end_node</title>
<path fill="none" stroke="#000000" stroke-width="0.95" d="M374.24,-268.7C432.62,-237.55 549.46,-171.49 571,-131 601.49,-73.68 495.85,-41.87 439.75,-29.34"/>
<polygon fill="#000000" stroke="#000000" stroke-width="0.95" points="440.51,-25.93 430,-27.26 439.05,-32.77 440.51,-25.93"/>
<text text-anchor="middle" x="559.5" y="-152.8" font-family="Times,serif" font-size="14.00">8</text>
</g>
</g>
</svg>
