<?xml version="1.0" encoding="UTF-8" standalone="no"?>
<!DOCTYPE svg PUBLIC "-//W3C//DTD SVG 1.1//EN"
 "http://www.w3.org/Graphics/SVG/1.1/DTD/svg11.dtd">
<!-- Generated by graphviz version 7.0.5 (0)
 -->
<!-- Title: dfg Pages: 1 -->
<svg width="651pt" height="1096pt"
 viewBox="0.00 0.00 651.00 1096.00" xmlns="http://www.w3.org/2000/svg" xmlns:xlink="http://www.w3.org/1999/xlink">
<g id="graph0" class="graph" transform="scale(1 1) rotate(0) translate(4 1092)">
<title>dfg</title>
<polygon fill="white" stroke="none" points="-4,4 -4,-1092 647,-1092 647,4 -4,4"/>
<!-- start_node -->
<g id="node1" class="node">
<title>start_node</title>
<ellipse fill="none" stroke="black" cx="203" cy="-1070" rx="18" ry="18"/>
<text text-anchor="start" x="198.5" y="-1066.3" font-family="Times,serif" font-size="14.00">●</text>
</g>
<!-- Create Fine -->
<g id="node2" class="node">
<title>Create Fine</title>
<polygon fill="#9b9bff" stroke="black" points="259.5,-1001 146.5,-1001 146.5,-965 259.5,-965 259.5,-1001"/>
<text text-anchor="middle" x="203" y="-979.3" font-family="Times,serif" font-size="14.00">Create Fine (288)</text>
</g>
<!-- start_node&#45;&gt;Create Fine -->
<g id="edge1" class="edge">
<title>start_node&#45;&gt;Create Fine</title>
<path fill="none" stroke="#000000" stroke-width="6" d="M203,-1051.8C203,-1041.96 203,-1029.27 203,-1017.53"/>
<polygon fill="#000000" stroke="#000000" stroke-width="6" points="208.25,-1017.92 203,-1007.92 197.75,-1017.92 208.25,-1017.92"/>
<text text-anchor="middle" x="213.5" y="-1022.8" font-family="Times,serif" font-size="14.00">288</text>
</g>
<!-- Send Fine -->
<g id="node3" class="node">
<title>Send Fine</title>
<polygon fill="#9b9bff" stroke="black" points="255,-914 151,-914 151,-878 255,-878 255,-914"/>
<text text-anchor="middle" x="203" y="-892.3" font-family="Times,serif" font-size="14.00">Send Fine (288)</text>
</g>
<!-- Create Fine&#45;&gt;Send Fine -->
<g id="edge2" class="edge">
<title>Create Fine&#45;&gt;Send Fine</title>
<path fill="none" stroke="#000000" stroke-width="6" d="M203,-964.8C203,-954.96 203,-942.27 203,-930.53"/>
<polygon fill="#000000" stroke="#000000" stroke-width="6" points="208.25,-930.92 203,-920.92 197.75,-930.92 208.25,-930.92"/>
<text text-anchor="middle" x="213.5" y="-935.8" font-family="Times,serif" font-size="14.00">288</text>
</g>
<!-- Insert Fine Notification -->
<g id="node4" class="node">
<title>Insert Fine Notification</title>
<polygon fill="#9b9bff" stroke="black" points="228.5,-827 51.5,-827 51.5,-791 228.5,-791 228.5,-827"/>
<text text-anchor="middle" x="140" y="-805.3" font-family="Times,serif" font-size="14.00">Insert Fine Notification (288)</text>
</g>
<!-- Send Fine&#45;&gt;Insert Fine Notification -->
<g id="edge3" class="edge">
<title>Send Fine&#45;&gt;Insert Fine Notification</title>
<path fill="none" stroke="#000000" stroke-width="5.98" d="M190.25,-877.8C182.28,-867.04 171.78,-852.88 162.45,-840.29"/>
<polygon fill="#000000" stroke="#000000" stroke-width="5.98" points="166.95,-837.57 156.79,-832.65 158.54,-843.8 166.95,-837.57"/>
<text text-anchor="middle" x="185.5" y="-848.8" font-family="Times,serif" font-size="14.00">287</text>
</g>
<!-- Insert Date Appeal to Prefecture -->
<g id="node5" class="node">
<title>Insert Date Appeal to Prefecture</title>
<polygon fill="#9b9bff" stroke="black" points="377.5,-740 152.5,-740 152.5,-704 377.5,-704 377.5,-740"/>
<text text-anchor="middle" x="265" y="-718.3" font-family="Times,serif" font-size="14.00">Insert Date Appeal to Prefecture (288)</text>
</g>
<!-- Send Fine&#45;&gt;Insert Date Appeal to Prefecture -->
<g id="edge31" class="edge">
<title>Send Fine&#45;&gt;Insert Date Appeal to Prefecture</title>
<path fill="none" stroke="#ff0000" stroke-width="0.5" stroke-dasharray="5,2" d="M213.32,-877.6C220.96,-864.15 231.18,-844.86 238,-827 247.63,-801.77 255,-771.82 259.59,-750.55"/>
<polygon fill="#ff0000" stroke="#ff0000" stroke-width="0.5" points="262.96,-751.54 261.58,-741.04 256.11,-750.11 262.96,-751.54"/>
<text text-anchor="middle" x="252.5" y="-805.3" font-family="Times,serif" font-size="14.00">1</text>
</g>
<!-- Insert Fine Notification&#45;&gt;Insert Date Appeal to Prefecture -->
<g id="edge4" class="edge">
<title>Insert Fine Notification&#45;&gt;Insert Date Appeal to Prefecture</title>
<path fill="none" stroke="#000000" stroke-width="4.58" d="M165.6,-790.59C183.04,-778.73 206.46,-762.81 226.18,-749.4"/>
<polygon fill="#000000" stroke="#000000" stroke-width="4.58" points="228.33,-752.78 234.35,-743.84 223.82,-746.15 228.33,-752.78"/>
<text text-anchor="middle" x="219.5" y="-761.8" font-family="Times,serif" font-size="14.00">214</text>
</g>
<!-- Add penalty -->
<g id="node6" class="node">
<title>Add penalty</title>
<polygon fill="#9b9bff" stroke="black" points="277,-566 161,-566 161,-530 277,-530 277,-566"/>
<text text-anchor="middle" x="219" y="-544.3" font-family="Times,serif" font-size="14.00">Add penalty (288)</text>
</g>
<!-- Insert Fine Notification&#45;&gt;Add penalty -->
<g id="edge13" class="edge">
<title>Insert Fine Notification&#45;&gt;Add penalty</title>
<path fill="none" stroke="#000000" stroke-width="1.88" d="M133.71,-790.63C120.28,-750.23 93.47,-648.48 138,-584 141.41,-579.06 145.68,-574.81 150.45,-571.16"/>
<polygon fill="#000000" stroke="#000000" stroke-width="1.88" points="151.95,-574.36 158.48,-566.01 148.17,-568.47 151.95,-574.36"/>
<text text-anchor="middle" x="121" y="-674.8" font-family="Times,serif" font-size="14.00">73</text>
</g>
<!-- Send Appeal to Prefecture -->
<g id="node7" class="node">
<title>Send Appeal to Prefecture</title>
<polygon fill="#9e9eff" stroke="black" points="192,-479 0,-479 0,-443 192,-443 192,-479"/>
<text text-anchor="middle" x="96" y="-457.3" font-family="Times,serif" font-size="14.00">Send Appeal to Prefecture (278)</text>
</g>
<!-- Insert Fine Notification&#45;&gt;Send Appeal to Prefecture -->
<g id="edge33" class="edge">
<title>Insert Fine Notification&#45;&gt;Send Appeal to Prefecture</title>
<path fill="none" stroke="#ff0000" stroke-width="0.5" stroke-dasharray="5,2" d="M120.81,-790.78C105.29,-774.89 86,-749.75 86,-723 86,-723 86,-723 86,-547 86,-527.8 88.55,-506.34 91.07,-489.78"/>
<polygon fill="#ff0000" stroke="#ff0000" stroke-width="0.5" points="94.52,-490.36 92.66,-479.93 87.61,-489.25 94.52,-490.36"/>
<text text-anchor="middle" x="89.5" y="-631.3" font-family="Times,serif" font-size="14.00">1</text>
</g>
<!-- Insert Date Appeal to Prefecture&#45;&gt;Insert Fine Notification -->
<g id="edge32" class="edge">
<title>Insert Date Appeal to Prefecture&#45;&gt;Insert Fine Notification</title>
<path fill="none" stroke="#ff0000" stroke-width="0.5" stroke-dasharray="5,2" d="M215.15,-740.43C204.38,-745.29 193.42,-751.15 184,-758 174.6,-764.83 165.8,-774.01 158.58,-782.63"/>
<polygon fill="#ff0000" stroke="#ff0000" stroke-width="0.5" points="155.9,-780.38 152.39,-790.37 161.36,-784.75 155.9,-780.38"/>
<text text-anchor="middle" x="187.5" y="-761.8" font-family="Times,serif" font-size="14.00">1</text>
</g>
<!-- Insert Date Appeal to Prefecture&#45;&gt;Add penalty -->
<g id="edge5" class="edge">
<title>Insert Date Appeal to Prefecture&#45;&gt;Add penalty</title>
<path fill="none" stroke="#000000" stroke-width="2.9" d="M252.02,-703.56C242.99,-690.4 231.6,-671.5 226,-653 218.86,-629.42 217.34,-601.51 217.47,-580.54"/>
<polygon fill="#000000" stroke="#000000" stroke-width="2.9" points="220.97,-580.82 217.71,-570.74 213.97,-580.65 220.97,-580.82"/>
<text text-anchor="middle" x="236.5" y="-631.3" font-family="Times,serif" font-size="14.00">126</text>
</g>
<!-- Insert Date Appeal to Prefecture&#45;&gt;Send Appeal to Prefecture -->
<g id="edge10" class="edge">
<title>Insert Date Appeal to Prefecture&#45;&gt;Send Appeal to Prefecture</title>
<path fill="none" stroke="#000000" stroke-width="3.39" d="M245.48,-703.6C239.89,-698.21 233.96,-692.08 229,-686 177.47,-622.93 132.63,-537.75 110.56,-492.78"/>
<polygon fill="#000000" stroke="#000000" stroke-width="3.39" points="113.84,-491.51 106.33,-484.03 107.53,-494.56 113.84,-491.51"/>
<text text-anchor="middle" x="177.5" y="-587.8" font-family="Times,serif" font-size="14.00">152</text>
</g>
<!-- Receive Result Appeal from Prefecture -->
<g id="node8" class="node">
<title>Receive Result Appeal from Prefecture</title>
<polygon fill="#9b9bff" stroke="black" points="352.5,-392 89.5,-392 89.5,-356 352.5,-356 352.5,-392"/>
<text text-anchor="middle" x="221" y="-370.3" font-family="Times,serif" font-size="14.00">Receive Result Appeal from Prefecture (288)</text>
</g>
<!-- Insert Date Appeal to Prefecture&#45;&gt;Receive Result Appeal from Prefecture -->
<g id="edge23" class="edge">
<title>Insert Date Appeal to Prefecture&#45;&gt;Receive Result Appeal from Prefecture</title>
<path fill="none" stroke="#ff0000" stroke-width="0.63" stroke-dasharray="5,2" d="M281.79,-703.7C295.63,-687.56 313,-662.1 313,-636 313,-636 313,-636 313,-460 313,-433.05 291.44,-412.27 269.2,-398.01"/>
<polygon fill="#ff0000" stroke="#ff0000" stroke-width="0.63" points="271.21,-395.14 260.84,-392.98 267.6,-401.14 271.21,-395.14"/>
<text text-anchor="middle" x="316.5" y="-544.3" font-family="Times,serif" font-size="14.00">8</text>
</g>
<!-- Appeal to Judge -->
<g id="node11" class="node">
<title>Appeal to Judge</title>
<polygon fill="#efefff" stroke="black" points="576.5,-653 445.5,-653 445.5,-617 576.5,-617 576.5,-653"/>
<text text-anchor="middle" x="511" y="-631.3" font-family="Times,serif" font-size="14.00">Appeal to Judge (62)</text>
</g>
<!-- Insert Date Appeal to Prefecture&#45;&gt;Appeal to Judge -->
<g id="edge25" class="edge">
<title>Insert Date Appeal to Prefecture&#45;&gt;Appeal to Judge</title>
<path fill="none" stroke="#ff0000" stroke-width="0.5" stroke-dasharray="5,2" d="M315.38,-703.59C354.59,-690.04 409.16,-671.19 450.7,-656.84"/>
<polygon fill="#ff0000" stroke="#ff0000" stroke-width="0.5" points="451.67,-660.2 459.98,-653.63 449.38,-653.59 451.67,-660.2"/>
<text text-anchor="middle" x="405.5" y="-674.8" font-family="Times,serif" font-size="14.00">1</text>
</g>
<!-- Add penalty&#45;&gt;Insert Date Appeal to Prefecture -->
<g id="edge14" class="edge">
<title>Add penalty&#45;&gt;Insert Date Appeal to Prefecture</title>
<path fill="none" stroke="#000000" stroke-width="1.88" d="M227.33,-566.23C233.57,-579.76 241.87,-599.21 247,-617 254.09,-641.55 258.79,-670.22 261.61,-691.23"/>
<polygon fill="#000000" stroke="#000000" stroke-width="1.88" points="258.12,-691.5 262.84,-700.99 265.06,-690.63 258.12,-691.5"/>
<text text-anchor="middle" x="262" y="-631.3" font-family="Times,serif" font-size="14.00">73</text>
</g>
<!-- Add penalty&#45;&gt;Send Appeal to Prefecture -->
<g id="edge6" class="edge">
<title>Add penalty&#45;&gt;Send Appeal to Prefecture</title>
<path fill="none" stroke="#000000" stroke-width="2.82" d="M184.95,-529.61C175.36,-524.31 165.08,-518.23 156,-512 145.74,-504.97 135.13,-496.56 125.74,-488.66"/>
<polygon fill="#000000" stroke="#000000" stroke-width="2.82" points="128.09,-486.06 118.23,-482.19 123.52,-491.37 128.09,-486.06"/>
<text text-anchor="middle" x="166.5" y="-500.8" font-family="Times,serif" font-size="14.00">122</text>
</g>
<!-- Add penalty&#45;&gt;Receive Result Appeal from Prefecture -->
<g id="edge12" class="edge">
<title>Add penalty&#45;&gt;Receive Result Appeal from Prefecture</title>
<path fill="none" stroke="#000000" stroke-width="2.03" d="M219.2,-529.56C219.54,-500.46 220.23,-441.63 220.64,-405.53"/>
<polygon fill="#000000" stroke="#000000" stroke-width="2.03" points="224.14,-405.6 220.76,-395.56 217.14,-405.52 224.14,-405.6"/>
<text text-anchor="middle" x="227" y="-457.3" font-family="Times,serif" font-size="14.00">81</text>
</g>
<!-- Notify Result Appeal to Offender -->
<g id="node9" class="node">
<title>Notify Result Appeal to Offender</title>
<polygon fill="#9f9fff" stroke="black" points="529,-218 297,-218 297,-182 529,-182 529,-218"/>
<text text-anchor="middle" x="413" y="-196.3" font-family="Times,serif" font-size="14.00">Notify Result Appeal to Offender (275)</text>
</g>
<!-- Add penalty&#45;&gt;Notify Result Appeal to Offender -->
<g id="edge20" class="edge">
<title>Add penalty&#45;&gt;Notify Result Appeal to Offender</title>
<path fill="none" stroke="#ff0000" stroke-width="0.61" stroke-dasharray="5,2" d="M277.46,-532.76C282.03,-531.78 286.58,-530.85 291,-530 317.92,-524.85 392.44,-530.11 413,-512 430.32,-496.75 427,-485.08 427,-462 427,-462 427,-462 427,-286 427,-266.8 423.48,-245.48 419.97,-229"/>
<polygon fill="#ff0000" stroke="#ff0000" stroke-width="0.61" points="423.41,-228.33 417.79,-219.35 416.58,-229.88 423.41,-228.33"/>
<text text-anchor="middle" x="430.5" y="-370.3" font-family="Times,serif" font-size="14.00">7</text>
</g>
<!-- Payment -->
<g id="node10" class="node">
<title>Payment</title>
<polygon fill="#b6b6ff" stroke="black" points="374,-305 276,-305 276,-269 374,-269 374,-305"/>
<text text-anchor="middle" x="325" y="-283.3" font-family="Times,serif" font-size="14.00">Payment (214)</text>
</g>
<!-- Add penalty&#45;&gt;Payment -->
<g id="edge22" class="edge">
<title>Add penalty&#45;&gt;Payment</title>
<path fill="none" stroke="#ff0000" stroke-width="0.58" stroke-dasharray="5,2" d="M244.13,-529.51C278.41,-503.92 338.28,-452.7 362,-392 372.27,-365.72 358.49,-335.28 344.93,-314.14"/>
<polygon fill="#ff0000" stroke="#ff0000" stroke-width="0.58" points="348.01,-312.44 339.49,-306.14 342.22,-316.38 348.01,-312.44"/>
<text text-anchor="middle" x="355.5" y="-413.8" font-family="Times,serif" font-size="14.00">5</text>
</g>
<!-- Send Appeal to Prefecture&#45;&gt;Add penalty -->
<g id="edge11" class="edge">
<title>Send Appeal to Prefecture&#45;&gt;Add penalty</title>
<path fill="none" stroke="#000000" stroke-width="1.96" d="M146.4,-479.46C157.02,-484.29 167.78,-490.14 177,-497 185.47,-503.31 193.34,-511.65 199.92,-519.7"/>
<polygon fill="#000000" stroke="#000000" stroke-width="1.96" points="197.11,-521.79 205.97,-527.59 202.66,-517.52 197.11,-521.79"/>
<text text-anchor="middle" x="199" y="-500.8" font-family="Times,serif" font-size="14.00">77</text>
</g>
<!-- Send Appeal to Prefecture&#45;&gt;Receive Result Appeal from Prefecture -->
<g id="edge7" class="edge">
<title>Send Appeal to Prefecture&#45;&gt;Receive Result Appeal from Prefecture</title>
<path fill="none" stroke="#000000" stroke-width="4.29" d="M121.6,-442.59C139.04,-430.73 162.46,-414.81 182.18,-401.4"/>
<polygon fill="#000000" stroke="#000000" stroke-width="4.29" points="184.23,-404.55 190.39,-395.82 180.01,-398.33 184.23,-404.55"/>
<text text-anchor="middle" x="175.5" y="-413.8" font-family="Times,serif" font-size="14.00">199</text>
</g>
<!-- Send Appeal to Prefecture&#45;&gt;Notify Result Appeal to Offender -->
<g id="edge34" class="edge">
<title>Send Appeal to Prefecture&#45;&gt;Notify Result Appeal to Offender</title>
<path fill="none" stroke="#ff0000" stroke-width="0.52" stroke-dasharray="5,2" d="M87.16,-442.7C77.47,-421.11 65.14,-383.68 80,-356 120.92,-279.78 211.98,-240.82 288.55,-221.02"/>
<polygon fill="#ff0000" stroke="#ff0000" stroke-width="0.52" points="289.15,-224.48 298.01,-218.66 287.46,-217.69 289.15,-224.48"/>
<text text-anchor="middle" x="104.5" y="-326.8" font-family="Times,serif" font-size="14.00">2</text>
</g>
<!-- Receive Result Appeal from Prefecture&#45;&gt;Add penalty -->
<g id="edge19" class="edge">
<title>Receive Result Appeal from Prefecture&#45;&gt;Add penalty</title>
<path fill="none" stroke="#ff0000" stroke-width="0.6" stroke-dasharray="5,2" d="M228.3,-392.2C230.43,-397.79 232.56,-404.08 234,-410 244.69,-454.06 244.89,-468.25 233,-512 232.32,-514.5 231.51,-517.07 230.64,-519.63"/>
<polygon fill="#ff0000" stroke="#ff0000" stroke-width="0.6" points="227.36,-518.39 227.1,-528.98 233.91,-520.86 227.36,-518.39"/>
<text text-anchor="middle" x="244.5" y="-457.3" font-family="Times,serif" font-size="14.00">6</text>
</g>
<!-- Receive Result Appeal from Prefecture&#45;&gt;Send Appeal to Prefecture -->
<g id="edge30" class="edge">
<title>Receive Result Appeal from Prefecture&#45;&gt;Send Appeal to Prefecture</title>
<path fill="none" stroke="#ff0000" stroke-width="0.54" stroke-dasharray="5,2" d="M171.15,-392.43C160.38,-397.29 149.42,-403.15 140,-410 130.6,-416.83 121.8,-426.01 114.58,-434.63"/>
<polygon fill="#ff0000" stroke="#ff0000" stroke-width="0.54" points="111.93,-432.33 108.42,-442.33 117.4,-436.7 111.93,-432.33"/>
<text text-anchor="middle" x="143.5" y="-413.8" font-family="Times,serif" font-size="14.00">3</text>
</g>
<!-- Receive Result Appeal from Prefecture&#45;&gt;Notify Result Appeal to Offender -->
<g id="edge8" class="edge">
<title>Receive Result Appeal from Prefecture&#45;&gt;Notify Result Appeal to Offender</title>
<path fill="none" stroke="#000000" stroke-width="5.52" d="M220.56,-355.76C220.91,-333.19 224.82,-293.64 246,-269 263.57,-248.56 288.22,-234.17 313.19,-224.08"/>
<polygon fill="#000000" stroke="#000000" stroke-width="5.52" points="314.65,-228.69 322.35,-220.69 311.3,-219.63 314.65,-228.69"/>
<text text-anchor="middle" x="256.5" y="-283.3" font-family="Times,serif" font-size="14.00">263</text>
</g>
<!-- Receive Result Appeal from Prefecture&#45;&gt;Payment -->
<g id="edge18" class="edge">
<title>Receive Result Appeal from Prefecture&#45;&gt;Payment</title>
<path fill="none" stroke="#ff0000" stroke-width="0.73" stroke-dasharray="5,2" d="M242.3,-355.59C257.58,-343.1 278.38,-326.11 295.29,-312.28"/>
<polygon fill="#ff0000" stroke="#ff0000" stroke-width="0.73" points="297.35,-315.12 302.88,-306.08 292.92,-309.7 297.35,-315.12"/>
<text text-anchor="middle" x="286" y="-326.8" font-family="Times,serif" font-size="14.00">13</text>
</g>
<!-- Receive Result Appeal from Prefecture&#45;&gt;Appeal to Judge -->
<g id="edge27" class="edge">
<title>Receive Result Appeal from Prefecture&#45;&gt;Appeal to Judge</title>
<path fill="none" stroke="#ff0000" stroke-width="0.54" stroke-dasharray="5,2" d="M329.08,-392.44C341.12,-397 352.73,-402.76 363,-410 400.38,-436.37 467.45,-553.99 496.7,-607.42"/>
<polygon fill="#ff0000" stroke="#ff0000" stroke-width="0.54" points="493.46,-608.79 501.32,-615.9 499.61,-605.45 493.46,-608.79"/>
<text text-anchor="middle" x="443.5" y="-500.8" font-family="Times,serif" font-size="14.00">3</text>
</g>
<!-- Notify Result Appeal to Offender&#45;&gt;Add penalty -->
<g id="edge21" class="edge">
<title>Notify Result Appeal to Offender&#45;&gt;Add penalty</title>
<path fill="none" stroke="#ff0000" stroke-width="0.58" stroke-dasharray="5,2" d="M426.52,-218.36C430.12,-223.75 433.66,-229.89 436,-236 441.31,-249.85 439.89,-254.21 441,-269 464.51,-581.13 472.39,-476.88 432,-512 408.16,-532.73 322.08,-524.36 291,-530 290.03,-530.18 289.06,-530.36 288.08,-530.54"/>
<polygon fill="#ff0000" stroke="#ff0000" stroke-width="0.58" points="287.42,-527.1 278.3,-532.49 288.79,-533.97 287.42,-527.1"/>
<text text-anchor="middle" x="454.5" y="-370.3" font-family="Times,serif" font-size="14.00">5</text>
</g>
<!-- Notify Result Appeal to Offender&#45;&gt;Payment -->
<g id="edge9" class="edge">
<title>Notify Result Appeal to Offender&#45;&gt;Payment</title>
<path fill="none" stroke="#000000" stroke-width="3.74" d="M366.97,-218.31C358.52,-223.06 350.38,-228.91 344,-236 339.39,-241.13 335.86,-247.49 333.16,-253.93"/>
<polygon fill="#000000" stroke="#000000" stroke-width="3.74" points="329.91,-252.62 330.07,-263.22 336.55,-254.83 329.91,-252.62"/>
<text text-anchor="middle" x="354.5" y="-239.8" font-family="Times,serif" font-size="14.00">170</text>
</g>
<!-- Notify Result Appeal to Offender&#45;&gt;Appeal to Judge -->
<g id="edge15" class="edge">
<title>Notify Result Appeal to Offender&#45;&gt;Appeal to Judge</title>
<path fill="none" stroke="#000000" stroke-width="1.59" d="M528.74,-218.35C562.74,-230.48 591,-251.07 591,-286 591,-549 591,-549 591,-549 591,-573.65 583.44,-580.63 567,-599 563.6,-602.8 559.7,-606.33 555.56,-609.58"/>
<polygon fill="#000000" stroke="#000000" stroke-width="1.59" points="553.73,-606.59 547.6,-615.23 557.78,-612.3 553.73,-606.59"/>
<text text-anchor="middle" x="598" y="-413.8" font-family="Times,serif" font-size="14.00">58</text>
</g>
<!-- Send for Credit Collection -->
<g id="node12" class="node">
<title>Send for Credit Collection</title>
<polygon fill="#ffffff" stroke="black" points="537.5,-131 350.5,-131 350.5,-95 537.5,-95 537.5,-131"/>
<text text-anchor="middle" x="444" y="-109.3" font-family="Times,serif" font-size="14.00">Send for Credit Collection (21)</text>
</g>
<!-- Notify Result Appeal to Offender&#45;&gt;Send for Credit Collection -->
<g id="edge16" class="edge">
<title>Notify Result Appeal to Offender&#45;&gt;Send for Credit Collection</title>
<path fill="none" stroke="#000000" stroke-width="0.88" d="M419.27,-181.8C423.45,-170.35 429.03,-155.06 433.83,-141.89"/>
<polygon fill="#000000" stroke="#000000" stroke-width="0.88" points="437.03,-143.32 437.17,-132.72 430.46,-140.92 437.03,-143.32"/>
<text text-anchor="middle" x="437" y="-152.8" font-family="Times,serif" font-size="14.00">21</text>
</g>
<!-- end_node -->
<g id="node13" class="node">
<title>end_node</title>
<ellipse fill="none" stroke="black" cx="535" cy="-22" rx="18" ry="18"/>
<ellipse fill="none" stroke="black" cx="535" cy="-22" rx="22" ry="22"/>
<text text-anchor="start" x="530.5" y="-18.3" font-family="Times,serif" font-size="14.00">■</text>
</g>
<!-- Notify Result Appeal to Offender&#45;&gt;end_node -->
<g id="edge38" class="edge">
<title>Notify Result Appeal to Offender&#45;&gt;end_node</title>
<path fill="none" stroke="#000000" stroke-width="0.88" d="M381.14,-181.54C348.48,-161.33 305.44,-126.74 328,-95 367.63,-39.25 453.68,-26.29 501.41,-23.52"/>
<polygon fill="#000000" stroke="#000000" stroke-width="0.88" points="501.5,-27.02 511.33,-23.08 501.18,-20.03 501.5,-27.02"/>
<text text-anchor="middle" x="335" y="-109.3" font-family="Times,serif" font-size="14.00">21</text>
</g>
<!-- Payment&#45;&gt;Notify Result Appeal to Offender -->
<g id="edge28" class="edge">
<title>Payment&#45;&gt;Notify Result Appeal to Offender</title>
<path fill="none" stroke="#ff0000" stroke-width="0.5" stroke-dasharray="5,2" d="M345.66,-268.53C351.97,-263.03 358.86,-256.86 365,-251 373.22,-243.15 381.92,-234.28 389.61,-226.21"/>
<polygon fill="#ff0000" stroke="#ff0000" stroke-width="0.5" points="392.07,-228.71 396.4,-219.04 386.99,-223.9 392.07,-228.71"/>
<text text-anchor="middle" x="382.5" y="-239.8" font-family="Times,serif" font-size="14.00">1</text>
</g>
<!-- Payment&#45;&gt;Payment -->
<g id="edge24" class="edge">
<title>Payment&#45;&gt;Payment</title>
<path fill="none" stroke="#ff0000" stroke-width="0.63" stroke-dasharray="5,2" d="M374.38,-294.87C384.63,-294.04 392,-291.42 392,-287 392,-284.38 389.4,-282.39 385.14,-281.03"/>
<polygon fill="#ff0000" stroke="#ff0000" stroke-width="0.63" points="385.78,-277.59 375.32,-279.3 384.56,-284.48 385.78,-277.59"/>
<text text-anchor="middle" x="395.5" y="-283.3" font-family="Times,serif" font-size="14.00">8</text>
</g>
<!-- Payment&#45;&gt;end_node -->
<g id="edge35" class="edge">
<title>Payment&#45;&gt;end_node</title>
<path fill="none" stroke="#000000" stroke-width="4.41" d="M374.48,-284.93C424.04,-280.98 498.46,-266.65 538,-218 574.65,-172.9 560.81,-100.62 547.7,-57.87"/>
<polygon fill="#000000" stroke="#000000" stroke-width="4.41" points="551.45,-56.91 544.65,-48.62 544.12,-59.33 551.45,-56.91"/>
<text text-anchor="middle" x="571.5" y="-152.8" font-family="Times,serif" font-size="14.00">205</text>
</g>
<!-- Appeal to Judge&#45;&gt;Add penalty -->
<g id="edge26" class="edge">
<title>Appeal to Judge&#45;&gt;Add penalty</title>
<path fill="none" stroke="#ff0000" stroke-width="0.5" stroke-dasharray="5,2" d="M445.2,-619.11C420.83,-613.28 393.04,-606.25 368,-599 338.02,-590.32 305.08,-579.41 277.82,-570"/>
<polygon fill="#ff0000" stroke="#ff0000" stroke-width="0.5" points="278.97,-566.7 268.38,-566.73 276.68,-573.31 278.97,-566.7"/>
<text text-anchor="middle" x="371.5" y="-587.8" font-family="Times,serif" font-size="14.00">1</text>
</g>
<!-- Appeal to Judge&#45;&gt;Notify Result Appeal to Offender -->
<g id="edge29" class="edge">
<title>Appeal to Judge&#45;&gt;Notify Result Appeal to Offender</title>
<path fill="none" stroke="#ff0000" stroke-width="0.52" stroke-dasharray="5,2" d="M519.35,-616.57C521.61,-611.07 523.76,-604.89 525,-599 547.19,-493.3 554.08,-460.01 525,-356 517.22,-328.19 472.56,-261.64 451,-236 448,-232.43 444.64,-228.86 441.21,-225.45"/>
<polygon fill="#ff0000" stroke="#ff0000" stroke-width="0.52" points="443.89,-223.17 434.23,-218.81 439.06,-228.24 443.89,-223.17"/>
<text text-anchor="middle" x="543.5" y="-413.8" font-family="Times,serif" font-size="14.00">2</text>
</g>
<!-- Appeal to Judge&#45;&gt;Payment -->
<g id="edge17" class="edge">
<title>Appeal to Judge&#45;&gt;Payment</title>
<path fill="none" stroke="#000000" stroke-width="0.83" d="M511,-616.74C511,-599.57 511,-572.46 511,-549 511,-549 511,-549 511,-373 511,-316.7 439.63,-297.53 385.31,-291.1"/>
<polygon fill="#000000" stroke="#000000" stroke-width="0.83" points="385.91,-287.64 375.6,-290.07 385.18,-294.61 385.91,-287.64"/>
<text text-anchor="middle" x="518" y="-457.3" font-family="Times,serif" font-size="14.00">18</text>
</g>
<!-- Appeal to Judge&#45;&gt;end_node -->
<g id="edge36" class="edge">
<title>Appeal to Judge&#45;&gt;end_node</title>
<path fill="none" stroke="#000000" stroke-width="1.27" d="M568.27,-616.5C598.34,-603.39 629,-581.95 629,-549 629,-549 629,-549 629,-112 629,-76.49 593.18,-50.9 565.77,-36.52"/>
<polygon fill="#000000" stroke="#000000" stroke-width="1.27" points="567.63,-33.54 557.11,-32.24 564.53,-39.82 567.63,-33.54"/>
<text text-anchor="middle" x="636" y="-326.8" font-family="Times,serif" font-size="14.00">41</text>
</g>
<!-- Send for Credit Collection&#45;&gt;end_node -->
<g id="edge37" class="edge">
<title>Send for Credit Collection&#45;&gt;end_node</title>
<path fill="none" stroke="#000000" stroke-width="0.88" d="M461.55,-94.84C475.88,-80.82 496.27,-60.88 511.93,-45.57"/>
<polygon fill="#000000" stroke="#000000" stroke-width="0.88" points="513.97,-48.46 518.67,-38.97 509.08,-43.46 513.97,-48.46"/>
<text text-anchor="middle" x="501" y="-65.8" font-family="Times,serif" font-size="14.00">21</text>
</g>
</g>
</svg>
