<?xml version="1.0" encoding="UTF-8" standalone="no"?>
<!DOCTYPE svg PUBLIC "-//W3C//DTD SVG 1.1//EN"
 "http://www.w3.org/Graphics/SVG/1.1/DTD/svg11.dtd">
<!-- Generated by graphviz version 7.0.5 (0)
 -->
<!-- Title: dfg Pages: 1 -->
<svg width="590pt" height="1009pt"
 viewBox="0.00 0.00 589.58 1009.00" xmlns="http://www.w3.org/2000/svg" xmlns:xlink="http://www.w3.org/1999/xlink">
<g id="graph0" class="graph" transform="scale(1 1) rotate(0) translate(4 1005)">
<title>dfg</title>
<polygon fill="white" stroke="none" points="-4,4 -4,-1005 585.58,-1005 585.58,4 -4,4"/>
<!-- start_node -->
<g id="node1" class="node">
<title>start_node</title>
<ellipse fill="none" stroke="black" cx="137" cy="-983" rx="18" ry="18"/>
<text text-anchor="start" x="132.5" y="-979.3" font-family="Times,serif" font-size="14.00">●</text>
</g>
<!-- Create Fine -->
<g id="node2" class="node">
<title>Create Fine</title>
<polygon fill="#9b9bff" stroke="black" points="193.5,-914 80.5,-914 80.5,-878 193.5,-878 193.5,-914"/>
<text text-anchor="middle" x="137" y="-892.3" font-family="Times,serif" font-size="14.00">Create Fine (124)</text>
</g>
<!-- start_node&#45;&gt;Create Fine -->
<g id="edge1" class="edge">
<title>start_node&#45;&gt;Create Fine</title>
<path fill="none" stroke="#000000" stroke-width="6" d="M137,-964.8C137,-954.96 137,-942.27 137,-930.53"/>
<polygon fill="#000000" stroke="#000000" stroke-width="6" points="142.25,-930.92 137,-920.92 131.75,-930.92 142.25,-930.92"/>
<text text-anchor="middle" x="147.5" y="-935.8" font-family="Times,serif" font-size="14.00">124</text>
</g>
<!-- Send Fine -->
<g id="node3" class="node">
<title>Send Fine</title>
<polygon fill="#9b9bff" stroke="black" points="189,-827 85,-827 85,-791 189,-791 189,-827"/>
<text text-anchor="middle" x="137" y="-805.3" font-family="Times,serif" font-size="14.00">Send Fine (124)</text>
</g>
<!-- Create Fine&#45;&gt;Send Fine -->
<g id="edge2" class="edge">
<title>Create Fine&#45;&gt;Send Fine</title>
<path fill="none" stroke="#000000" stroke-width="6" d="M137,-877.8C137,-867.96 137,-855.27 137,-843.53"/>
<polygon fill="#000000" stroke="#000000" stroke-width="6" points="142.25,-843.92 137,-833.92 131.75,-843.92 142.25,-843.92"/>
<text text-anchor="middle" x="147.5" y="-848.8" font-family="Times,serif" font-size="14.00">124</text>
</g>
<!-- Insert Fine Notification -->
<g id="node4" class="node">
<title>Insert Fine Notification</title>
<polygon fill="#9b9bff" stroke="black" points="225.5,-740 48.5,-740 48.5,-704 225.5,-704 225.5,-740"/>
<text text-anchor="middle" x="137" y="-718.3" font-family="Times,serif" font-size="14.00">Insert Fine Notification (124)</text>
</g>
<!-- Send Fine&#45;&gt;Insert Fine Notification -->
<g id="edge3" class="edge">
<title>Send Fine&#45;&gt;Insert Fine Notification</title>
<path fill="none" stroke="#000000" stroke-width="6" d="M137,-790.8C137,-780.96 137,-768.27 137,-756.53"/>
<polygon fill="#000000" stroke="#000000" stroke-width="6" points="142.25,-756.92 137,-746.92 131.75,-756.92 142.25,-756.92"/>
<text text-anchor="middle" x="147.5" y="-761.8" font-family="Times,serif" font-size="14.00">124</text>
</g>
<!-- Insert Date Appeal to Prefecture -->
<g id="node5" class="node">
<title>Insert Date Appeal to Prefecture</title>
<polygon fill="#9b9bff" stroke="black" points="378.5,-653 153.5,-653 153.5,-617 378.5,-617 378.5,-653"/>
<text text-anchor="middle" x="266" y="-631.3" font-family="Times,serif" font-size="14.00">Insert Date Appeal to Prefecture (124)</text>
</g>
<!-- Insert Fine Notification&#45;&gt;Insert Date Appeal to Prefecture -->
<g id="edge4" class="edge">
<title>Insert Fine Notification&#45;&gt;Insert Date Appeal to Prefecture</title>
<path fill="none" stroke="#000000" stroke-width="5.37" d="M163.42,-703.59C181.5,-691.68 205.82,-675.66 226.23,-662.2"/>
<polygon fill="#000000" stroke="#000000" stroke-width="5.37" points="228.58,-666.28 234.35,-656.86 223.41,-658.44 228.58,-666.28"/>
<text text-anchor="middle" x="220.5" y="-674.8" font-family="Times,serif" font-size="14.00">110</text>
</g>
<!-- Add penalty -->
<g id="node6" class="node">
<title>Add penalty</title>
<polygon fill="#9b9bff" stroke="black" points="287,-566 171,-566 171,-530 287,-530 287,-566"/>
<text text-anchor="middle" x="229" y="-544.3" font-family="Times,serif" font-size="14.00">Add penalty (124)</text>
</g>
<!-- Insert Fine Notification&#45;&gt;Add penalty -->
<g id="edge14" class="edge">
<title>Insert Fine Notification&#45;&gt;Add penalty</title>
<path fill="none" stroke="#000000" stroke-width="1.04" d="M130.55,-703.65C123.65,-682.02 115.5,-644.54 130,-617 140.12,-597.77 158.4,-582.93 176.53,-572.09"/>
<polygon fill="#000000" stroke="#000000" stroke-width="1.04" points="178.15,-575.2 185.16,-567.25 174.72,-569.09 178.15,-575.2"/>
<text text-anchor="middle" x="137" y="-631.3" font-family="Times,serif" font-size="14.00">14</text>
</g>
<!-- Insert Date Appeal to Prefecture&#45;&gt;Add penalty -->
<g id="edge5" class="edge">
<title>Insert Date Appeal to Prefecture&#45;&gt;Add penalty</title>
<path fill="none" stroke="#000000" stroke-width="3.43" d="M242.66,-616.56C237.56,-611.5 232.85,-605.56 230,-599 227.65,-593.58 226.47,-587.52 226.02,-581.53"/>
<polygon fill="#000000" stroke="#000000" stroke-width="3.43" points="229.52,-581.58 226.13,-571.55 222.52,-581.51 229.52,-581.58"/>
<text text-anchor="middle" x="237" y="-587.8" font-family="Times,serif" font-size="14.00">67</text>
</g>
<!-- Send Appeal to Prefecture -->
<g id="node7" class="node">
<title>Send Appeal to Prefecture</title>
<polygon fill="#9f9fff" stroke="black" points="192,-479 0,-479 0,-443 192,-443 192,-479"/>
<text text-anchor="middle" x="96" y="-457.3" font-family="Times,serif" font-size="14.00">Send Appeal to Prefecture (119)</text>
</g>
<!-- Insert Date Appeal to Prefecture&#45;&gt;Send Appeal to Prefecture -->
<g id="edge11" class="edge">
<title>Insert Date Appeal to Prefecture&#45;&gt;Send Appeal to Prefecture</title>
<path fill="none" stroke="#000000" stroke-width="2.84" d="M223.77,-616.58C199.42,-604.97 169.48,-587.82 148,-566 127.69,-545.37 113.82,-515.21 105.54,-492.68"/>
<polygon fill="#000000" stroke="#000000" stroke-width="2.84" points="108.96,-491.86 102.4,-483.54 102.34,-494.14 108.96,-491.86"/>
<text text-anchor="middle" x="155" y="-544.3" font-family="Times,serif" font-size="14.00">54</text>
</g>
<!-- Receive Result Appeal from Prefecture -->
<g id="node8" class="node">
<title>Receive Result Appeal from Prefecture</title>
<polygon fill="#9b9bff" stroke="black" points="359.5,-392 96.5,-392 96.5,-356 359.5,-356 359.5,-392"/>
<text text-anchor="middle" x="228" y="-370.3" font-family="Times,serif" font-size="14.00">Receive Result Appeal from Prefecture (124)</text>
</g>
<!-- Insert Date Appeal to Prefecture&#45;&gt;Receive Result Appeal from Prefecture -->
<g id="edge20" class="edge">
<title>Insert Date Appeal to Prefecture&#45;&gt;Receive Result Appeal from Prefecture</title>
<path fill="none" stroke="#ff0000" stroke-width="0.55" stroke-dasharray="5,2" d="M276.15,-616.5C283.28,-603.16 292.19,-584.06 296,-566 299.3,-550.34 298.32,-545.83 296,-530 287.92,-474.78 286.89,-458.34 259,-410 257.16,-406.81 255,-403.65 252.69,-400.61"/>
<polygon fill="#ff0000" stroke="#ff0000" stroke-width="0.55" points="255.52,-398.55 246.44,-393.08 250.13,-403.01 255.52,-398.55"/>
<text text-anchor="middle" x="296.5" y="-500.8" font-family="Times,serif" font-size="14.00">3</text>
</g>
<!-- Add penalty&#45;&gt;Insert Date Appeal to Prefecture -->
<g id="edge15" class="edge">
<title>Add penalty&#45;&gt;Insert Date Appeal to Prefecture</title>
<path fill="none" stroke="#000000" stroke-width="1.04" d="M236.6,-566.47C241.61,-577.97 248.27,-593.28 253.99,-606.41"/>
<polygon fill="#000000" stroke="#000000" stroke-width="1.04" points="250.68,-607.58 257.88,-615.35 257.1,-604.79 250.68,-607.58"/>
<text text-anchor="middle" x="257" y="-587.8" font-family="Times,serif" font-size="14.00">14</text>
</g>
<!-- Add penalty&#45;&gt;Send Appeal to Prefecture -->
<g id="edge6" class="edge">
<title>Add penalty&#45;&gt;Send Appeal to Prefecture</title>
<path fill="none" stroke="#000000" stroke-width="3.34" d="M203.9,-529.5C189.69,-519.73 171.5,-507.46 155,-497 149.79,-493.7 144.28,-490.31 138.8,-486.99"/>
<polygon fill="#000000" stroke="#000000" stroke-width="3.34" points="140.94,-484.19 130.56,-482.06 137.35,-490.2 140.94,-484.19"/>
<text text-anchor="middle" x="185" y="-500.8" font-family="Times,serif" font-size="14.00">65</text>
</g>
<!-- Add penalty&#45;&gt;Receive Result Appeal from Prefecture -->
<g id="edge13" class="edge">
<title>Add penalty&#45;&gt;Receive Result Appeal from Prefecture</title>
<path fill="none" stroke="#000000" stroke-width="1.99" d="M228.9,-529.56C228.73,-500.33 228.38,-441.11 228.17,-405.06"/>
<polygon fill="#000000" stroke="#000000" stroke-width="1.99" points="231.68,-405.47 228.12,-395.49 224.68,-405.51 231.68,-405.47"/>
<text text-anchor="middle" x="236" y="-457.3" font-family="Times,serif" font-size="14.00">35</text>
</g>
<!-- Notify Result Appeal to Offender -->
<g id="node9" class="node">
<title>Notify Result Appeal to Offender</title>
<polygon fill="#a2a2ff" stroke="black" points="496,-305 264,-305 264,-269 496,-269 496,-305"/>
<text text-anchor="middle" x="380" y="-283.3" font-family="Times,serif" font-size="14.00">Notify Result Appeal to Offender (116)</text>
</g>
<!-- Add penalty&#45;&gt;Notify Result Appeal to Offender -->
<g id="edge17" class="edge">
<title>Add penalty&#45;&gt;Notify Result Appeal to Offender</title>
<path fill="none" stroke="#000000" stroke-width="0.86" d="M278.26,-529.54C287.5,-524.8 296.57,-518.99 304,-512 348.15,-470.41 351.02,-449.93 369,-392 376.68,-367.24 379.22,-337.75 379.96,-316.51"/>
<polygon fill="#000000" stroke="#000000" stroke-width="0.86" points="383.45,-316.72 380.18,-306.65 376.45,-316.57 383.45,-316.72"/>
<text text-anchor="middle" x="370" y="-413.8" font-family="Times,serif" font-size="14.00">10</text>
</g>
<!-- Send Appeal to Prefecture&#45;&gt;Add penalty -->
<g id="edge12" class="edge">
<title>Send Appeal to Prefecture&#45;&gt;Add penalty</title>
<path fill="none" stroke="#000000" stroke-width="1.9" d="M106.74,-479.26C114.13,-489.93 124.79,-503.21 137,-512 143.8,-516.9 151.38,-521.2 159.18,-524.96"/>
<polygon fill="#000000" stroke="#000000" stroke-width="1.9" points="157.52,-528.05 168.08,-528.92 160.36,-521.66 157.52,-528.05"/>
<text text-anchor="middle" x="144" y="-500.8" font-family="Times,serif" font-size="14.00">33</text>
</g>
<!-- Send Appeal to Prefecture&#45;&gt;Receive Result Appeal from Prefecture -->
<g id="edge7" class="edge">
<title>Send Appeal to Prefecture&#45;&gt;Receive Result Appeal from Prefecture</title>
<path fill="none" stroke="#000000" stroke-width="4.29" d="M123.03,-442.59C141.63,-430.62 166.66,-414.5 187.61,-401.01"/>
<polygon fill="#000000" stroke="#000000" stroke-width="4.29" points="189.5,-404.25 195.87,-395.69 185.44,-397.95 189.5,-404.25"/>
<text text-anchor="middle" x="177" y="-413.8" font-family="Times,serif" font-size="14.00">86</text>
</g>
<!-- Receive Result Appeal from Prefecture&#45;&gt;Add penalty -->
<g id="edge16" class="edge">
<title>Receive Result Appeal from Prefecture&#45;&gt;Add penalty</title>
<path fill="none" stroke="#000000" stroke-width="0.86" d="M236.64,-392.46C239.04,-397.95 241.42,-404.13 243,-410 254.78,-453.78 254.24,-468.08 243,-512 242.38,-514.42 241.63,-516.9 240.81,-519.36"/>
<polygon fill="#000000" stroke="#000000" stroke-width="0.86" points="237.57,-518.04 237.35,-528.63 244.13,-520.49 237.57,-518.04"/>
<text text-anchor="middle" x="259" y="-457.3" font-family="Times,serif" font-size="14.00">10</text>
</g>
<!-- Receive Result Appeal from Prefecture&#45;&gt;Notify Result Appeal to Offender -->
<g id="edge8" class="edge">
<title>Receive Result Appeal from Prefecture&#45;&gt;Notify Result Appeal to Offender</title>
<path fill="none" stroke="#000000" stroke-width="5.19" d="M259.13,-355.59C280.95,-343.39 310.47,-326.88 334.87,-313.24"/>
<polygon fill="#000000" stroke="#000000" stroke-width="5.19" points="336.93,-317.29 343.44,-308.45 332.49,-309.36 336.93,-317.29"/>
<text text-anchor="middle" x="323.5" y="-326.8" font-family="Times,serif" font-size="14.00">106</text>
</g>
<!-- Payment -->
<g id="node10" class="node">
<title>Payment</title>
<polygon fill="#c8c8ff" stroke="black" points="318.5,-131 227.5,-131 227.5,-95 318.5,-95 318.5,-131"/>
<text text-anchor="middle" x="273" y="-109.3" font-family="Times,serif" font-size="14.00">Payment (73)</text>
</g>
<!-- Receive Result Appeal from Prefecture&#45;&gt;Payment -->
<g id="edge19" class="edge">
<title>Receive Result Appeal from Prefecture&#45;&gt;Payment</title>
<path fill="none" stroke="#000000" stroke-width="0.77" d="M230.52,-355.51C236.04,-317.7 249.94,-225.58 265,-149 265.44,-146.75 265.92,-144.43 266.42,-142.1"/>
<polygon fill="#000000" stroke="#000000" stroke-width="0.77" points="269.79,-143.06 268.55,-132.54 262.96,-141.54 269.79,-143.06"/>
<text text-anchor="middle" x="253.5" y="-239.8" font-family="Times,serif" font-size="14.00">8</text>
</g>
<!-- Notify Result Appeal to Offender&#45;&gt;Payment -->
<g id="edge9" class="edge">
<title>Notify Result Appeal to Offender&#45;&gt;Payment</title>
<path fill="none" stroke="#000000" stroke-width="3.25" d="M341.43,-268.65C320.84,-257.29 297.11,-240.38 284,-218 271.29,-196.3 269.11,-167.63 269.79,-145.89"/>
<polygon fill="#000000" stroke="#000000" stroke-width="3.25" points="273.27,-146.27 270.41,-136.07 266.29,-145.83 273.27,-146.27"/>
<text text-anchor="middle" x="291" y="-196.3" font-family="Times,serif" font-size="14.00">63</text>
</g>
<!-- Send for Credit Collection -->
<g id="node11" class="node">
<title>Send for Credit Collection</title>
<polygon fill="#efefff" stroke="black" points="567.5,-131 380.5,-131 380.5,-95 567.5,-95 567.5,-131"/>
<text text-anchor="middle" x="474" y="-109.3" font-family="Times,serif" font-size="14.00">Send for Credit Collection (30)</text>
</g>
<!-- Notify Result Appeal to Offender&#45;&gt;Send for Credit Collection -->
<g id="edge10" class="edge">
<title>Notify Result Appeal to Offender&#45;&gt;Send for Credit Collection</title>
<path fill="none" stroke="#000000" stroke-width="1.58" d="M402.39,-268.66C417.13,-256.1 435.72,-237.89 447,-218 460.17,-194.78 467.05,-165.02 470.56,-143.29"/>
<polygon fill="#000000" stroke="#000000" stroke-width="1.58" points="474,-144 471.96,-133.6 467.07,-143 474,-144"/>
<text text-anchor="middle" x="468" y="-196.3" font-family="Times,serif" font-size="14.00">26</text>
</g>
<!-- Appeal to Judge -->
<g id="node12" class="node">
<title>Appeal to Judge</title>
<polygon fill="#ffffff" stroke="black" points="437.5,-218 306.5,-218 306.5,-182 437.5,-182 437.5,-218"/>
<text text-anchor="middle" x="372" y="-196.3" font-family="Times,serif" font-size="14.00">Appeal to Judge (13)</text>
</g>
<!-- Notify Result Appeal to Offender&#45;&gt;Appeal to Judge -->
<g id="edge18" class="edge">
<title>Notify Result Appeal to Offender&#45;&gt;Appeal to Judge</title>
<path fill="none" stroke="#000000" d="M378.38,-268.8C377.33,-257.58 375.92,-242.67 374.7,-229.69"/>
<polygon fill="#000000" stroke="#000000" points="378.21,-229.6 373.79,-219.97 371.24,-230.25 378.21,-229.6"/>
<text text-anchor="middle" x="383" y="-239.8" font-family="Times,serif" font-size="14.00">13</text>
</g>
<!-- end_node -->
<g id="node13" class="node">
<title>end_node</title>
<ellipse fill="none" stroke="black" cx="414" cy="-22" rx="18" ry="18"/>
<ellipse fill="none" stroke="black" cx="414" cy="-22" rx="22" ry="22"/>
<text text-anchor="start" x="409.5" y="-18.3" font-family="Times,serif" font-size="14.00">■</text>
</g>
<!-- Notify Result Appeal to Offender&#45;&gt;end_node -->
<g id="edge25" class="edge">
<title>Notify Result Appeal to Offender&#45;&gt;end_node</title>
<path fill="none" stroke="#000000" stroke-width="1.04" d="M420.65,-268.54C468.86,-245.24 546.51,-198.89 577,-131 603.3,-72.43 501.78,-41.46 446.94,-29.27"/>
<polygon fill="#000000" stroke="#000000" stroke-width="1.04" points="447.75,-25.86 437.24,-27.21 446.3,-32.71 447.75,-25.86"/>
<text text-anchor="middle" x="574" y="-152.8" font-family="Times,serif" font-size="14.00">14</text>
</g>
<!-- Payment&#45;&gt;end_node -->
<g id="edge23" class="edge">
<title>Payment&#45;&gt;end_node</title>
<path fill="none" stroke="#000000" stroke-width="3.7" d="M288.83,-94.72C299.01,-84.3 312.93,-71.3 327,-62 343.09,-51.36 362.56,-42.33 379,-35.64"/>
<polygon fill="#000000" stroke="#000000" stroke-width="3.7" points="380.06,-38.98 388.12,-32.1 377.53,-32.46 380.06,-38.98"/>
<text text-anchor="middle" x="334" y="-65.8" font-family="Times,serif" font-size="14.00">73</text>
</g>
<!-- Send for Credit Collection&#45;&gt;end_node -->
<g id="edge24" class="edge">
<title>Send for Credit Collection&#45;&gt;end_node</title>
<path fill="none" stroke="#000000" stroke-width="1.76" d="M462.43,-94.84C454.07,-82.44 442.6,-65.42 432.92,-51.06"/>
<polygon fill="#000000" stroke="#000000" stroke-width="1.76" points="435.93,-49.26 427.43,-42.93 430.12,-53.18 435.93,-49.26"/>
<text text-anchor="middle" x="456" y="-65.8" font-family="Times,serif" font-size="14.00">30</text>
</g>
<!-- Appeal to Judge&#45;&gt;Payment -->
<g id="edge21" class="edge">
<title>Appeal to Judge&#45;&gt;Payment</title>
<path fill="none" stroke="#ff0000" stroke-width="0.5" stroke-dasharray="5,2" d="M351.97,-181.8C337.44,-169.32 317.58,-152.28 301.41,-138.4"/>
<polygon fill="#ff0000" stroke="#ff0000" stroke-width="0.5" points="303.79,-135.82 293.92,-131.96 299.23,-141.13 303.79,-135.82"/>
<text text-anchor="middle" x="331.5" y="-152.8" font-family="Times,serif" font-size="14.00">2</text>
</g>
<!-- Appeal to Judge&#45;&gt;Send for Credit Collection -->
<g id="edge22" class="edge">
<title>Appeal to Judge&#45;&gt;Send for Credit Collection</title>
<path fill="none" stroke="#ff0000" stroke-width="0.59" stroke-dasharray="5,2" d="M392.64,-181.8C407.61,-169.32 428.07,-152.28 444.73,-138.4"/>
<polygon fill="#ff0000" stroke="#ff0000" stroke-width="0.59" points="446.91,-141.13 452.35,-132.04 442.43,-135.75 446.91,-141.13"/>
<text text-anchor="middle" x="432.5" y="-152.8" font-family="Times,serif" font-size="14.00">4</text>
</g>
<!-- Appeal to Judge&#45;&gt;end_node -->
<g id="edge26" class="edge">
<title>Appeal to Judge&#45;&gt;end_node</title>
<path fill="none" stroke="#000000" stroke-width="0.73" d="M367.1,-181.63C362,-160.62 355.94,-124.4 365,-95 370.42,-77.39 381.79,-60.23 392.21,-47.08"/>
<polygon fill="#000000" stroke="#000000" stroke-width="0.73" points="394.8,-49.44 398.49,-39.51 389.41,-44.97 394.8,-49.44"/>
<text text-anchor="middle" x="368.5" y="-109.3" font-family="Times,serif" font-size="14.00">7</text>
</g>
</g>
</svg>
