<?xml version="1.0" encoding="UTF-8" standalone="no"?>
<!DOCTYPE svg PUBLIC "-//W3C//DTD SVG 1.1//EN"
 "http://www.w3.org/Graphics/SVG/1.1/DTD/svg11.dtd">
<!-- Generated by graphviz version 7.0.5 (0)
 -->
<!-- Title: dfg Pages: 1 -->
<svg width="991pt" height="1009pt"
 viewBox="0.00 0.00 991.00 1009.00" xmlns="http://www.w3.org/2000/svg" xmlns:xlink="http://www.w3.org/1999/xlink">
<g id="graph0" class="graph" transform="scale(1 1) rotate(0) translate(4 1005)">
<title>dfg</title>
<polygon fill="white" stroke="none" points="-4,4 -4,-1005 987,-1005 987,4 -4,4"/>
<!-- start_node -->
<g id="node1" class="node">
<title>start_node</title>
<ellipse fill="none" stroke="black" cx="865" cy="-983" rx="18" ry="18"/>
<text text-anchor="start" x="860.5" y="-979.3" font-family="Times,serif" font-size="14.00">●</text>
</g>
<!-- Create Fine -->
<g id="node2" class="node">
<title>Create Fine</title>
<polygon fill="#9b9bff" stroke="black" points="928,-914 802,-914 802,-878 928,-878 928,-914"/>
<text text-anchor="middle" x="865" y="-892.3" font-family="Times,serif" font-size="14.00">Create Fine (67331)</text>
</g>
<!-- start_node&#45;&gt;Create Fine -->
<g id="edge1" class="edge">
<title>start_node&#45;&gt;Create Fine</title>
<path fill="none" stroke="#000000" stroke-width="8.99" d="M865,-964.8C865,-955.18 865,-942.86 865,-931.35"/>
<polygon fill="#000000" stroke="#000000" stroke-width="8.99" points="872.87,-931.74 865,-921.74 857.13,-931.74 872.87,-931.74"/>
<text text-anchor="middle" x="882" y="-935.8" font-family="Times,serif" font-size="14.00">67331</text>
</g>
<!-- Send Fine -->
<g id="node3" class="node">
<title>Send Fine</title>
<polygon fill="#bdbdff" stroke="black" points="554,-827 436,-827 436,-791 554,-791 554,-827"/>
<text text-anchor="middle" x="495" y="-805.3" font-family="Times,serif" font-size="14.00">Send Fine (43882)</text>
</g>
<!-- Create Fine&#45;&gt;Send Fine -->
<g id="edge2" class="edge">
<title>Create Fine&#45;&gt;Send Fine</title>
<path fill="none" stroke="#000000" stroke-width="6" d="M801.82,-880.48C737.61,-865.74 638.17,-842.89 570.01,-827.23"/>
<polygon fill="#000000" stroke="#000000" stroke-width="6" points="571.47,-822.18 560.54,-825.06 569.12,-832.41 571.47,-822.18"/>
<text text-anchor="middle" x="719" y="-848.8" font-family="Times,serif" font-size="14.00">43601</text>
</g>
<!-- Payment -->
<g id="node7" class="node">
<title>Payment</title>
<polygon fill="#c7c7ff" stroke="black" points="705.5,-305 594.5,-305 594.5,-269 705.5,-269 705.5,-305"/>
<text text-anchor="middle" x="650" y="-283.3" font-family="Times,serif" font-size="14.00">Payment (37225)</text>
</g>
<!-- Create Fine&#45;&gt;Payment -->
<g id="edge6" class="edge">
<title>Create Fine&#45;&gt;Payment</title>
<path fill="none" stroke="#000000" stroke-width="3.49" d="M891.09,-877.71C910.63,-862.47 934,-838.32 934,-810 934,-810 934,-810 934,-590.5 934,-470.02 881.05,-443.28 798,-356 776.84,-333.76 747,-318.15 719.66,-307.55"/>
<polygon fill="#000000" stroke="#000000" stroke-width="3.49" points="721.21,-304.39 710.62,-304.26 718.82,-310.97 721.21,-304.39"/>
<text text-anchor="middle" x="951" y="-587.8" font-family="Times,serif" font-size="14.00">23725</text>
</g>
<!-- Appeal to Judge -->
<g id="node8" class="node">
<title>Appeal to Judge</title>
<polygon fill="#fefeff" stroke="black" points="789,-479 651,-479 651,-443 789,-443 789,-479"/>
<text text-anchor="middle" x="720" y="-457.3" font-family="Times,serif" font-size="14.00">Appeal to Judge (116)</text>
</g>
<!-- Create Fine&#45;&gt;Appeal to Judge -->
<g id="edge20" class="edge">
<title>Create Fine&#45;&gt;Appeal to Judge</title>
<path fill="none" stroke="#ff0000" stroke-width="0.5" stroke-dasharray="5,2" d="M875.32,-877.76C884.34,-861.04 896,-834.66 896,-810 896,-810 896,-810 896,-547 896,-500.86 846.35,-479.76 799.79,-470.11"/>
<polygon fill="#ff0000" stroke="#ff0000" stroke-width="0.5" points="800.53,-466.69 790.05,-468.25 799.22,-473.56 800.53,-466.69"/>
<text text-anchor="middle" x="899.5" y="-674.8" font-family="Times,serif" font-size="14.00">3</text>
</g>
<!-- Insert Date Appeal to Prefecture -->
<g id="node9" class="node">
<title>Insert Date Appeal to Prefecture</title>
<polygon fill="#fefeff" stroke="black" points="354,-392 142,-392 142,-356 354,-356 354,-392"/>
<text text-anchor="middle" x="248" y="-370.3" font-family="Times,serif" font-size="14.00">Insert Date Appeal to Prefecture (8)</text>
</g>
<!-- Create Fine&#45;&gt;Insert Date Appeal to Prefecture -->
<g id="edge27" class="edge">
<title>Create Fine&#45;&gt;Insert Date Appeal to Prefecture</title>
<path fill="none" stroke="#ff0000" stroke-width="0.5" stroke-dasharray="5,2" d="M801.77,-893.37C640.72,-887.91 220.87,-864.98 123,-773 15.97,-672.41 61.48,-583.29 105,-443 110.08,-426.62 111.36,-420.4 125,-410 131.78,-404.83 139.29,-400.43 147.16,-396.67"/>
<polygon fill="#ff0000" stroke="#ff0000" stroke-width="0.5" points="148.46,-399.92 156.22,-392.71 145.66,-393.51 148.46,-399.92"/>
<text text-anchor="middle" x="61.5" y="-631.3" font-family="Times,serif" font-size="14.00">2</text>
</g>
<!-- Insert Fine Notification -->
<g id="node4" class="node">
<title>Insert Fine Notification</title>
<polygon fill="#ceceff" stroke="black" points="497.5,-740 306.5,-740 306.5,-704 497.5,-704 497.5,-740"/>
<text text-anchor="middle" x="402" y="-718.3" font-family="Times,serif" font-size="14.00">Insert Fine Notification (32720)</text>
</g>
<!-- Send Fine&#45;&gt;Insert Fine Notification -->
<g id="edge3" class="edge">
<title>Send Fine&#45;&gt;Insert Fine Notification</title>
<path fill="none" stroke="#000000" stroke-width="4.62" d="M476.18,-790.8C463.78,-779.47 447.26,-764.36 432.95,-751.29"/>
<polygon fill="#000000" stroke="#000000" stroke-width="4.62" points="435.77,-748.39 425.66,-744.63 430.31,-754.36 435.77,-748.39"/>
<text text-anchor="middle" x="471" y="-761.8" font-family="Times,serif" font-size="14.00">32687</text>
</g>
<!-- Send Fine&#45;&gt;Payment -->
<g id="edge11" class="edge">
<title>Send Fine&#45;&gt;Payment</title>
<path fill="none" stroke="#ff0000" stroke-width="0.65" stroke-dasharray="5,2" d="M554.32,-802.58C638.63,-793.2 783,-770.24 783,-723 783,-723 783,-723 783,-590.5 783,-524.61 819.81,-505.18 798,-443 775.39,-378.55 752.24,-369.27 702,-323 697.7,-319.04 692.91,-315.2 688.03,-311.6"/>
<polygon fill="#ff0000" stroke="#ff0000" stroke-width="0.65" points="690.23,-308.87 680.03,-305.98 686.2,-314.59 690.23,-308.87"/>
<text text-anchor="middle" x="807" y="-544.3" font-family="Times,serif" font-size="14.00">1177</text>
</g>
<!-- Send Fine&#45;&gt;Insert Date Appeal to Prefecture -->
<g id="edge39" class="edge">
<title>Send Fine&#45;&gt;Insert Date Appeal to Prefecture</title>
<path fill="none" stroke="#ff0000" stroke-width="0.5" stroke-dasharray="5,2" d="M435.74,-805.21C338.8,-799.01 157,-779.8 157,-723 157,-723 157,-723 157,-460 157,-433.11 178.48,-412.29 200.56,-397.98"/>
<polygon fill="#ff0000" stroke="#ff0000" stroke-width="0.5" points="202.3,-401.02 209.03,-392.84 198.66,-395.04 202.3,-401.02"/>
<text text-anchor="middle" x="160.5" y="-587.8" font-family="Times,serif" font-size="14.00">1</text>
</g>
<!-- end_node -->
<g id="node13" class="node">
<title>end_node</title>
<ellipse fill="none" stroke="black" cx="667" cy="-22" rx="18" ry="18"/>
<ellipse fill="none" stroke="black" cx="667" cy="-22" rx="22" ry="22"/>
<text text-anchor="start" x="662.5" y="-18.3" font-family="Times,serif" font-size="14.00">■</text>
</g>
<!-- Send Fine&#45;&gt;end_node -->
<g id="edge43" class="edge">
<title>Send Fine&#45;&gt;end_node</title>
<path fill="none" stroke="#000000" stroke-width="1.76" d="M435.8,-805.12C337.67,-799.94 149.44,-788.19 123,-773 38.82,-724.65 0,-689.58 0,-592.5 0,-592.5 0,-592.5 0,-112 0,-47.56 495.52,-28.08 632.36,-23.94"/>
<polygon fill="#000000" stroke="#000000" stroke-width="1.76" points="632.25,-27.44 642.14,-23.65 632.04,-20.44 632.25,-27.44"/>
<text text-anchor="middle" x="17" y="-413.8" font-family="Times,serif" font-size="14.00">10017</text>
</g>
<!-- Add penalty -->
<g id="node5" class="node">
<title>Add penalty</title>
<polygon fill="#ceceff" stroke="black" points="555,-566 425,-566 425,-530 555,-530 555,-566"/>
<text text-anchor="middle" x="490" y="-544.3" font-family="Times,serif" font-size="14.00">Add penalty (32720)</text>
</g>
<!-- Insert Fine Notification&#45;&gt;Add penalty -->
<g id="edge4" class="edge">
<title>Insert Fine Notification&#45;&gt;Add penalty</title>
<path fill="none" stroke="#000000" stroke-width="4.36" d="M444.47,-703.52C465.54,-692.41 489.01,-675.79 501,-653 512.53,-631.09 508.65,-603 502.51,-581.54"/>
<polygon fill="#000000" stroke="#000000" stroke-width="4.36" points="506.16,-580.42 499.4,-572.12 498.92,-582.81 506.16,-580.42"/>
<text text-anchor="middle" x="525" y="-631.3" font-family="Times,serif" font-size="14.00">30574</text>
</g>
<!-- Insert Fine Notification&#45;&gt;Payment -->
<g id="edge8" class="edge">
<title>Insert Fine Notification&#45;&gt;Payment</title>
<path fill="none" stroke="#ff0000" stroke-width="0.76" stroke-dasharray="5,2" d="M466.28,-703.51C494.2,-692.98 525.2,-676.86 546,-653 613.44,-575.65 587.34,-529.85 642,-443 647.55,-434.19 653.45,-434.79 657,-425 670.04,-388.98 663.93,-344.14 657.59,-315.79"/>
<polygon fill="#ff0000" stroke="#ff0000" stroke-width="0.76" points="661.02,-315.09 655.27,-306.19 654.22,-316.73 661.02,-315.09"/>
<text text-anchor="middle" x="628" y="-500.8" font-family="Times,serif" font-size="14.00">2056</text>
</g>
<!-- Insert Fine Notification&#45;&gt;Appeal to Judge -->
<g id="edge14" class="edge">
<title>Insert Fine Notification&#45;&gt;Appeal to Judge</title>
<path fill="none" stroke="#ff0000" stroke-width="0.51" stroke-dasharray="5,2" d="M497.9,-717.14C555.21,-712.95 621.03,-704.21 643,-686 702.8,-636.45 716.27,-538.1 719.23,-489.92"/>
<polygon fill="#ff0000" stroke="#ff0000" stroke-width="0.51" points="722.72,-490.28 719.72,-480.12 715.72,-489.93 722.72,-490.28"/>
<text text-anchor="middle" x="710" y="-587.8" font-family="Times,serif" font-size="14.00">84</text>
</g>
<!-- Insert Fine Notification&#45;&gt;Insert Date Appeal to Prefecture -->
<g id="edge22" class="edge">
<title>Insert Fine Notification&#45;&gt;Insert Date Appeal to Prefecture</title>
<path fill="none" stroke="#ff0000" stroke-width="0.5" stroke-dasharray="5,2" d="M307.12,-703.58C290.15,-698.7 275.97,-692.83 270,-686 199.27,-605.02 225.06,-462.47 240.16,-402.65"/>
<polygon fill="#ff0000" stroke="#ff0000" stroke-width="0.5" points="243.49,-403.77 242.64,-393.21 236.72,-401.99 243.49,-403.77"/>
<text text-anchor="middle" x="228.5" y="-544.3" font-family="Times,serif" font-size="14.00">3</text>
</g>
<!-- Receive Result Appeal from Prefecture -->
<g id="node10" class="node">
<title>Receive Result Appeal from Prefecture</title>
<polygon fill="#fefeff" stroke="black" points="596,-218 346,-218 346,-182 596,-182 596,-218"/>
<text text-anchor="middle" x="471" y="-196.3" font-family="Times,serif" font-size="14.00">Receive Result Appeal from Prefecture (7)</text>
</g>
<!-- Insert Fine Notification&#45;&gt;Receive Result Appeal from Prefecture -->
<g id="edge33" class="edge">
<title>Insert Fine Notification&#45;&gt;Receive Result Appeal from Prefecture</title>
<path fill="none" stroke="#ff0000" stroke-width="0.5" stroke-dasharray="5,2" d="M306.29,-715.26C216.63,-707.63 92.04,-690.44 62,-653 3.59,-580.2 50.26,-535.83 60,-443 74.01,-309.4 235.32,-247.94 351.61,-220.85"/>
<polygon fill="#ff0000" stroke="#ff0000" stroke-width="0.5" points="352.29,-224.28 361.27,-218.65 350.74,-217.45 352.29,-224.28"/>
<text text-anchor="middle" x="63.5" y="-457.3" font-family="Times,serif" font-size="14.00">1</text>
</g>
<!-- Send Appeal to Prefecture -->
<g id="node12" class="node">
<title>Send Appeal to Prefecture</title>
<polygon fill="#ffffff" stroke="black" points="491.5,-653 312.5,-653 312.5,-617 491.5,-617 491.5,-653"/>
<text text-anchor="middle" x="402" y="-631.3" font-family="Times,serif" font-size="14.00">Send Appeal to Prefecture (2)</text>
</g>
<!-- Insert Fine Notification&#45;&gt;Send Appeal to Prefecture -->
<g id="edge29" class="edge">
<title>Insert Fine Notification&#45;&gt;Send Appeal to Prefecture</title>
<path fill="none" stroke="#ff0000" stroke-width="0.5" stroke-dasharray="5,2" d="M402,-703.8C402,-692.35 402,-677.06 402,-663.89"/>
<polygon fill="#ff0000" stroke="#ff0000" stroke-width="0.5" points="405.5,-664.22 402,-654.22 398.5,-664.22 405.5,-664.22"/>
<text text-anchor="middle" x="405.5" y="-674.8" font-family="Times,serif" font-size="14.00">2</text>
</g>
<!-- Send for Credit Collection -->
<g id="node6" class="node">
<title>Send for Credit Collection</title>
<polygon fill="#dadaff" stroke="black" points="902.5,-218 695.5,-218 695.5,-182 902.5,-182 902.5,-218"/>
<text text-anchor="middle" x="799" y="-196.3" font-family="Times,serif" font-size="14.00">Send for Credit Collection (24781)</text>
</g>
<!-- Add penalty&#45;&gt;Send for Credit Collection -->
<g id="edge5" class="edge">
<title>Add penalty&#45;&gt;Send for Credit Collection</title>
<path fill="none" stroke="#000000" stroke-width="3.55" d="M490,-529.62C490.4,-470.32 494.94,-277.34 537,-236 542.46,-230.64 613.38,-221.36 680.06,-213.7"/>
<polygon fill="#000000" stroke="#000000" stroke-width="3.55" points="680.2,-217.21 689.74,-212.6 679.41,-210.25 680.2,-217.21"/>
<text text-anchor="middle" x="517" y="-370.3" font-family="Times,serif" font-size="14.00">24171</text>
</g>
<!-- Add penalty&#45;&gt;Payment -->
<g id="edge7" class="edge">
<title>Add penalty&#45;&gt;Payment</title>
<path fill="none" stroke="#000000" stroke-width="1.57" d="M523.99,-529.52C531.54,-524.56 539.05,-518.68 545,-512 552.07,-504.07 610.94,-374.58 637.31,-316.18"/>
<polygon fill="#000000" stroke="#000000" stroke-width="1.57" points="640.37,-317.91 641.29,-307.35 633.99,-315.03 640.37,-317.91"/>
<text text-anchor="middle" x="607" y="-413.8" font-family="Times,serif" font-size="14.00">8513</text>
</g>
<!-- Add penalty&#45;&gt;Appeal to Judge -->
<g id="edge17" class="edge">
<title>Add penalty&#45;&gt;Appeal to Judge</title>
<path fill="none" stroke="#ff0000" stroke-width="0.5" stroke-dasharray="5,2" d="M533.39,-529.57C545.44,-524.32 558.39,-518.27 570,-512 580.74,-506.2 581.87,-502.01 593,-497 608.02,-490.23 624.65,-484.5 640.79,-479.76"/>
<polygon fill="#ff0000" stroke="#ff0000" stroke-width="0.5" points="641.35,-483.23 650.02,-477.14 639.44,-476.5 641.35,-483.23"/>
<text text-anchor="middle" x="600" y="-500.8" font-family="Times,serif" font-size="14.00">29</text>
</g>
<!-- Add penalty&#45;&gt;Insert Date Appeal to Prefecture -->
<g id="edge36" class="edge">
<title>Add penalty&#45;&gt;Insert Date Appeal to Prefecture</title>
<path fill="none" stroke="#ff0000" stroke-width="0.5" stroke-dasharray="5,2" d="M424.66,-536.92C404.37,-531.7 382.7,-523.84 365,-512 317.11,-479.98 323.81,-452.58 285,-410 281.83,-406.52 278.38,-402.98 274.91,-399.55"/>
<polygon fill="#ff0000" stroke="#ff0000" stroke-width="0.5" points="277.53,-397.22 267.9,-392.81 272.68,-402.26 277.53,-397.22"/>
<text text-anchor="middle" x="334.5" y="-457.3" font-family="Times,serif" font-size="14.00">1</text>
</g>
<!-- Add penalty&#45;&gt;Receive Result Appeal from Prefecture -->
<g id="edge24" class="edge">
<title>Add penalty&#45;&gt;Receive Result Appeal from Prefecture</title>
<path fill="none" stroke="#ff0000" stroke-width="0.5" stroke-dasharray="5,2" d="M469.72,-529.79C464.79,-524.58 460.06,-518.5 457,-512 427.32,-448.99 437.67,-425.52 442,-356 445.34,-302.36 443.58,-288.05 457,-236 457.67,-233.39 458.49,-230.72 459.39,-228.07"/>
<polygon fill="#ff0000" stroke="#ff0000" stroke-width="0.5" points="462.61,-229.45 462.86,-218.86 456.06,-226.99 462.61,-229.45"/>
<text text-anchor="middle" x="445.5" y="-370.3" font-family="Times,serif" font-size="14.00">5</text>
</g>
<!-- Notify Result Appeal to Offender -->
<g id="node11" class="node">
<title>Notify Result Appeal to Offender</title>
<polygon fill="#fefeff" stroke="black" points="624,-131 406,-131 406,-95 624,-95 624,-131"/>
<text text-anchor="middle" x="515" y="-109.3" font-family="Times,serif" font-size="14.00">Notify Result Appeal to Offender (4)</text>
</g>
<!-- Add penalty&#45;&gt;Notify Result Appeal to Offender -->
<g id="edge35" class="edge">
<title>Add penalty&#45;&gt;Notify Result Appeal to Offender</title>
<path fill="none" stroke="#ff0000" stroke-width="0.5" stroke-dasharray="5,2" d="M463.71,-529.76C457.29,-524.62 450.88,-518.59 446,-512 436.62,-499.33 438.61,-493.73 433,-479 408.31,-414.18 297.67,-239.13 337,-182 352.07,-160.11 375.21,-145.26 399.87,-135.19"/>
<polygon fill="#ff0000" stroke="#ff0000" stroke-width="0.5" points="400.95,-138.53 409.05,-131.7 398.46,-131.99 400.95,-138.53"/>
<text text-anchor="middle" x="369.5" y="-326.8" font-family="Times,serif" font-size="14.00">1</text>
</g>
<!-- Send for Credit Collection&#45;&gt;end_node -->
<g id="edge41" class="edge">
<title>Send for Credit Collection&#45;&gt;end_node</title>
<path fill="none" stroke="#000000" stroke-width="3.63" d="M786.1,-181.8C763.53,-151.71 716.63,-89.17 688.89,-52.19"/>
<polygon fill="#000000" stroke="#000000" stroke-width="3.63" points="692.04,-50.56 683.24,-44.66 686.44,-54.76 692.04,-50.56"/>
<text text-anchor="middle" x="763" y="-109.3" font-family="Times,serif" font-size="14.00">24781</text>
</g>
<!-- Payment&#45;&gt;Send Fine -->
<g id="edge13" class="edge">
<title>Payment&#45;&gt;Send Fine</title>
<path fill="none" stroke="#ff0000" stroke-width="0.53" stroke-dasharray="5,2" d="M695.76,-305.48C720.39,-316.79 749.77,-333.61 770,-356 843.55,-437.39 847,-480.8 847,-590.5 847,-723 847,-723 847,-723 847,-780.46 667.56,-799.2 564.91,-805.22"/>
<polygon fill="#ff0000" stroke="#ff0000" stroke-width="0.53" points="564.91,-801.71 555.12,-805.77 565.3,-808.7 564.91,-801.71"/>
<text text-anchor="middle" x="856.5" y="-544.3" font-family="Times,serif" font-size="14.00">276</text>
</g>
<!-- Payment&#45;&gt;Insert Fine Notification -->
<g id="edge16" class="edge">
<title>Payment&#45;&gt;Insert Fine Notification</title>
<path fill="none" stroke="#ff0000" stroke-width="0.5" stroke-dasharray="5,2" d="M594.07,-291.09C466.29,-298.74 161.78,-320.55 133,-356 88.19,-411.21 195,-432.39 195,-503.5 195,-636 195,-636 195,-636 195,-684.79 244.83,-706.17 295.59,-715.29"/>
<polygon fill="#ff0000" stroke="#ff0000" stroke-width="0.5" points="294.89,-718.72 305.32,-716.88 296.02,-711.81 294.89,-718.72"/>
<text text-anchor="middle" x="202" y="-500.8" font-family="Times,serif" font-size="14.00">32</text>
</g>
<!-- Payment&#45;&gt;Add penalty -->
<g id="edge9" class="edge">
<title>Payment&#45;&gt;Add penalty</title>
<path fill="none" stroke="#ff0000" stroke-width="0.76" stroke-dasharray="5,2" d="M633.73,-305.34C613.25,-327.93 578.09,-369.36 556,-410 533.04,-452.24 544.05,-470.38 520,-512 518.2,-515.12 516.1,-518.22 513.87,-521.22"/>
<polygon fill="#ff0000" stroke="#ff0000" stroke-width="0.76" points="511.22,-518.93 507.66,-528.91 516.67,-523.33 511.22,-518.93"/>
<text text-anchor="middle" x="570" y="-413.8" font-family="Times,serif" font-size="14.00">2056</text>
</g>
<!-- Payment&#45;&gt;Send for Credit Collection -->
<g id="edge12" class="edge">
<title>Payment&#45;&gt;Send for Credit Collection</title>
<path fill="none" stroke="#ff0000" stroke-width="0.58" stroke-dasharray="5,2" d="M680.51,-268.59C703.31,-255.59 734.67,-237.7 759.41,-223.59"/>
<polygon fill="#ff0000" stroke="#ff0000" stroke-width="0.58" points="760.82,-226.81 767.77,-218.81 757.35,-220.73 760.82,-226.81"/>
<text text-anchor="middle" x="743.5" y="-239.8" font-family="Times,serif" font-size="14.00">605</text>
</g>
<!-- Payment&#45;&gt;Payment -->
<g id="edge10" class="edge">
<title>Payment&#45;&gt;Payment</title>
<path fill="none" stroke="#ff0000" stroke-width="0.72" stroke-dasharray="5,2" d="M705.77,-294.74C716.17,-293.78 723.5,-291.21 723.5,-287 723.5,-284.5 720.92,-282.58 716.64,-281.23"/>
<polygon fill="#ff0000" stroke="#ff0000" stroke-width="0.72" points="717.3,-277.79 706.84,-279.46 716.06,-284.68 717.3,-277.79"/>
<text text-anchor="middle" x="737.5" y="-283.3" font-family="Times,serif" font-size="14.00">1738</text>
</g>
<!-- Payment&#45;&gt;Receive Result Appeal from Prefecture -->
<g id="edge38" class="edge">
<title>Payment&#45;&gt;Receive Result Appeal from Prefecture</title>
<path fill="none" stroke="#ff0000" stroke-width="0.5" stroke-dasharray="5,2" d="M629,-268.67C615.4,-258.11 596.94,-244.96 579,-236 568.5,-230.75 557.04,-226.05 545.64,-221.93"/>
<polygon fill="#ff0000" stroke="#ff0000" stroke-width="0.5" points="546.96,-218.68 536.37,-218.7 544.66,-225.3 546.96,-218.68"/>
<text text-anchor="middle" x="606.5" y="-239.8" font-family="Times,serif" font-size="14.00">1</text>
</g>
<!-- Payment&#45;&gt;end_node -->
<g id="edge42" class="edge">
<title>Payment&#45;&gt;end_node</title>
<path fill="none" stroke="#000000" stroke-width="4.6" d="M651.12,-268.74C653.84,-226.61 660.88,-117.71 664.6,-60.06"/>
<polygon fill="#000000" stroke="#000000" stroke-width="4.6" points="668.6,-60.66 665.23,-50.42 660.56,-60.14 668.6,-60.66"/>
<text text-anchor="middle" x="675" y="-152.8" font-family="Times,serif" font-size="14.00">32517</text>
</g>
<!-- Appeal to Judge&#45;&gt;Send Fine -->
<g id="edge21" class="edge">
<title>Appeal to Judge&#45;&gt;Send Fine</title>
<path fill="none" stroke="#ff0000" stroke-width="0.5" stroke-dasharray="5,2" d="M725.57,-479.38C730.52,-496.42 737,-523.22 737,-547 737,-723 737,-723 737,-723 737,-759.82 636.02,-784.54 564.52,-797.43"/>
<polygon fill="#ff0000" stroke="#ff0000" stroke-width="0.5" points="564.19,-793.93 554.95,-799.11 565.4,-800.83 564.19,-793.93"/>
<text text-anchor="middle" x="740.5" y="-631.3" font-family="Times,serif" font-size="14.00">3</text>
</g>
<!-- Appeal to Judge&#45;&gt;Add penalty -->
<g id="edge15" class="edge">
<title>Appeal to Judge&#45;&gt;Add penalty</title>
<path fill="none" stroke="#ff0000" stroke-width="0.51" stroke-dasharray="5,2" d="M700.55,-479.37C686.01,-492.03 667.12,-507.68 658,-512 629.33,-525.57 595.46,-533.9 565.66,-539.01"/>
<polygon fill="#ff0000" stroke="#ff0000" stroke-width="0.51" points="565.39,-535.51 556.07,-540.56 566.5,-542.42 565.39,-535.51"/>
<text text-anchor="middle" x="685" y="-500.8" font-family="Times,serif" font-size="14.00">83</text>
</g>
<!-- Appeal to Judge&#45;&gt;Send for Credit Collection -->
<g id="edge19" class="edge">
<title>Appeal to Judge&#45;&gt;Send for Credit Collection</title>
<path fill="none" stroke="#ff0000" stroke-width="0.5" stroke-dasharray="5,2" d="M725.31,-442.6C738.77,-398.46 774.35,-281.83 790.64,-228.42"/>
<polygon fill="#ff0000" stroke="#ff0000" stroke-width="0.5" points="793.93,-229.63 793.5,-219.04 787.23,-227.59 793.93,-229.63"/>
<text text-anchor="middle" x="764.5" y="-326.8" font-family="Times,serif" font-size="14.00">5</text>
</g>
<!-- Appeal to Judge&#45;&gt;Payment -->
<g id="edge18" class="edge">
<title>Appeal to Judge&#45;&gt;Payment</title>
<path fill="none" stroke="#ff0000" stroke-width="0.5" stroke-dasharray="5,2" d="M718.56,-442.9C715.66,-415.85 707.36,-362.25 685,-323 683.06,-319.59 680.69,-316.28 678.12,-313.15"/>
<polygon fill="#ff0000" stroke="#ff0000" stroke-width="0.5" points="680.8,-310.9 671.48,-305.87 675.63,-315.61 680.8,-310.9"/>
<text text-anchor="middle" x="712.5" y="-370.3" font-family="Times,serif" font-size="14.00">9</text>
</g>
<!-- Appeal to Judge&#45;&gt;Insert Date Appeal to Prefecture -->
<g id="edge32" class="edge">
<title>Appeal to Judge&#45;&gt;Insert Date Appeal to Prefecture</title>
<path fill="none" stroke="#ff0000" stroke-width="0.5" stroke-dasharray="5,2" d="M694.79,-442.74C676.75,-431.34 651.44,-417.22 627,-410 532.49,-382.08 504.11,-401.27 406,-392 392.65,-390.74 378.67,-389.34 364.79,-387.91"/>
<polygon fill="#ff0000" stroke="#ff0000" stroke-width="0.5" points="365.26,-384.44 354.95,-386.89 364.54,-391.4 365.26,-384.44"/>
<text text-anchor="middle" x="664.5" y="-413.8" font-family="Times,serif" font-size="14.00">1</text>
</g>
<!-- Appeal to Judge&#45;&gt;end_node -->
<g id="edge44" class="edge">
<title>Appeal to Judge&#45;&gt;end_node</title>
<path fill="none" stroke="#ff0000" stroke-width="0.5" stroke-dasharray="5,2" d="M789.36,-450.15C863.04,-437.69 969,-413.14 969,-375 969,-375 969,-375 969,-112 969,-56.39 778.18,-32.95 699.9,-25.68"/>
<polygon fill="#ff0000" stroke="#ff0000" stroke-width="0.5" points="700.24,-22.19 689.96,-24.79 699.61,-29.17 700.24,-22.19"/>
<text text-anchor="middle" x="976" y="-239.8" font-family="Times,serif" font-size="14.00">15</text>
</g>
<!-- Insert Date Appeal to Prefecture&#45;&gt;Send Fine -->
<g id="edge28" class="edge">
<title>Insert Date Appeal to Prefecture&#45;&gt;Send Fine</title>
<path fill="none" stroke="#ff0000" stroke-width="0.5" stroke-dasharray="5,2" d="M171.19,-392.44C160.98,-397 151.22,-402.76 143,-410 124.51,-426.3 119,-435.35 119,-460 119,-723 119,-723 119,-723 119,-747.65 122.81,-758.85 143,-773 187.04,-803.86 335.56,-808.88 425,-808.97"/>
<polygon fill="#ff0000" stroke="#ff0000" stroke-width="0.5" points="424.85,-812.47 434.85,-808.96 424.84,-805.47 424.85,-812.47"/>
<text text-anchor="middle" x="122.5" y="-587.8" font-family="Times,serif" font-size="14.00">2</text>
</g>
<!-- Insert Date Appeal to Prefecture&#45;&gt;Insert Fine Notification -->
<g id="edge40" class="edge">
<title>Insert Date Appeal to Prefecture&#45;&gt;Insert Fine Notification</title>
<path fill="none" stroke="#ff0000" stroke-width="0.5" stroke-dasharray="5,2" d="M249.7,-392.19C255.25,-445.84 274.19,-609.23 303,-653 315.55,-672.07 335.48,-687.27 354.18,-698.42"/>
<polygon fill="#ff0000" stroke="#ff0000" stroke-width="0.5" points="352.42,-701.45 362.85,-703.35 355.88,-695.36 352.42,-701.45"/>
<text text-anchor="middle" x="278.5" y="-544.3" font-family="Times,serif" font-size="14.00">1</text>
</g>
<!-- Insert Date Appeal to Prefecture&#45;&gt;Add penalty -->
<g id="edge23" class="edge">
<title>Insert Date Appeal to Prefecture&#45;&gt;Add penalty</title>
<path fill="none" stroke="#ff0000" stroke-width="0.5" stroke-dasharray="5,2" d="M304.47,-392.3C314.07,-396.98 323.38,-402.8 331,-410 367.7,-444.67 342.81,-478.98 381,-512 390.79,-520.46 402.65,-526.88 414.89,-531.75"/>
<polygon fill="#ff0000" stroke="#ff0000" stroke-width="0.5" points="413.45,-534.96 424.05,-535.08 415.84,-528.38 413.45,-534.96"/>
<text text-anchor="middle" x="363.5" y="-457.3" font-family="Times,serif" font-size="14.00">4</text>
</g>
<!-- Insert Date Appeal to Prefecture&#45;&gt;Payment -->
<g id="edge37" class="edge">
<title>Insert Date Appeal to Prefecture&#45;&gt;Payment</title>
<path fill="none" stroke="#ff0000" stroke-width="0.5" stroke-dasharray="5,2" d="M267.55,-355.6C281.45,-344.29 301.11,-330.33 321,-323 367.61,-305.81 501.45,-295.87 583.35,-291.23"/>
<polygon fill="#ff0000" stroke="#ff0000" stroke-width="0.5" points="583.51,-294.73 593.3,-290.68 583.12,-287.74 583.51,-294.73"/>
<text text-anchor="middle" x="324.5" y="-326.8" font-family="Times,serif" font-size="14.00">1</text>
</g>
<!-- Receive Result Appeal from Prefecture&#45;&gt;Add penalty -->
<g id="edge34" class="edge">
<title>Receive Result Appeal from Prefecture&#45;&gt;Add penalty</title>
<path fill="none" stroke="#ff0000" stroke-width="0.5" stroke-dasharray="5,2" d="M471,-218.26C471,-235.43 471,-262.54 471,-286 471,-462 471,-462 471,-462 471,-481.6 475.87,-503.14 480.68,-519.63"/>
<polygon fill="#ff0000" stroke="#ff0000" stroke-width="0.5" points="477.26,-520.43 483.56,-528.95 483.95,-518.36 477.26,-520.43"/>
<text text-anchor="middle" x="474.5" y="-370.3" font-family="Times,serif" font-size="14.00">1</text>
</g>
<!-- Receive Result Appeal from Prefecture&#45;&gt;Payment -->
<g id="edge31" class="edge">
<title>Receive Result Appeal from Prefecture&#45;&gt;Payment</title>
<path fill="none" stroke="#ff0000" stroke-width="0.5" stroke-dasharray="5,2" d="M505.43,-218.45C524.89,-228.21 549.7,-240.48 572,-251 581.27,-255.37 591.21,-259.93 600.78,-264.26"/>
<polygon fill="#ff0000" stroke="#ff0000" stroke-width="0.5" points="599.34,-267.44 609.9,-268.35 602.21,-261.06 599.34,-267.44"/>
<text text-anchor="middle" x="575.5" y="-239.8" font-family="Times,serif" font-size="14.00">3</text>
</g>
<!-- Receive Result Appeal from Prefecture&#45;&gt;Notify Result Appeal to Offender -->
<g id="edge25" class="edge">
<title>Receive Result Appeal from Prefecture&#45;&gt;Notify Result Appeal to Offender</title>
<path fill="none" stroke="#ff0000" stroke-width="0.5" stroke-dasharray="5,2" d="M479.9,-181.8C486.01,-170.01 494.22,-154.14 501.17,-140.72"/>
<polygon fill="#ff0000" stroke="#ff0000" stroke-width="0.5" points="504.12,-142.63 505.61,-132.14 497.9,-139.41 504.12,-142.63"/>
<text text-anchor="middle" x="498.5" y="-152.8" font-family="Times,serif" font-size="14.00">3</text>
</g>
<!-- Notify Result Appeal to Offender&#45;&gt;Payment -->
<g id="edge26" class="edge">
<title>Notify Result Appeal to Offender&#45;&gt;Payment</title>
<path fill="none" stroke="#ff0000" stroke-width="0.5" stroke-dasharray="5,2" d="M545.36,-131.28C564.53,-143.44 588.66,-161.21 605,-182 623.07,-205 635.33,-236.36 642.43,-258.61"/>
<polygon fill="#ff0000" stroke="#ff0000" stroke-width="0.5" points="639.03,-259.46 645.29,-268.01 645.73,-257.42 639.03,-259.46"/>
<text text-anchor="middle" x="629.5" y="-196.3" font-family="Times,serif" font-size="14.00">3</text>
</g>
<!-- Notify Result Appeal to Offender&#45;&gt;end_node -->
<g id="edge45" class="edge">
<title>Notify Result Appeal to Offender&#45;&gt;end_node</title>
<path fill="none" stroke="#ff0000" stroke-width="0.5" stroke-dasharray="5,2" d="M544.67,-94.63C572.06,-78.59 612.44,-54.95 639.22,-39.27"/>
<polygon fill="#ff0000" stroke="#ff0000" stroke-width="0.5" points="640.9,-42.34 647.76,-34.26 637.37,-36.3 640.9,-42.34"/>
<text text-anchor="middle" x="603.5" y="-65.8" font-family="Times,serif" font-size="14.00">1</text>
</g>
<!-- Send Appeal to Prefecture&#45;&gt;Add penalty -->
<g id="edge30" class="edge">
<title>Send Appeal to Prefecture&#45;&gt;Add penalty</title>
<path fill="none" stroke="#ff0000" stroke-width="0.5" stroke-dasharray="5,2" d="M419.81,-616.8C432.61,-604.44 450.05,-587.59 464.35,-573.78"/>
<polygon fill="#ff0000" stroke="#ff0000" stroke-width="0.5" points="466.61,-576.46 471.37,-566.99 461.75,-571.42 466.61,-576.46"/>
<text text-anchor="middle" x="454.5" y="-587.8" font-family="Times,serif" font-size="14.00">2</text>
</g>
</g>
</svg>
