<?xml version="1.0" encoding="UTF-8" standalone="no"?>
<!DOCTYPE svg PUBLIC "-//W3C//DTD SVG 1.1//EN"
 "http://www.w3.org/Graphics/SVG/1.1/DTD/svg11.dtd">
<!-- Generated by graphviz version 7.0.5 (0)
 -->
<!-- Title: dfg Pages: 1 -->
<svg width="367pt" height="1009pt"
 viewBox="0.00 0.00 367.00 1009.00" xmlns="http://www.w3.org/2000/svg" xmlns:xlink="http://www.w3.org/1999/xlink">
<g id="graph0" class="graph" transform="scale(1 1) rotate(0) translate(4 1005)">
<title>dfg</title>
<polygon fill="white" stroke="none" points="-4,4 -4,-1005 363,-1005 363,4 -4,4"/>
<!-- start_node -->
<g id="node1" class="node">
<title>start_node</title>
<ellipse fill="none" stroke="black" cx="177" cy="-983" rx="18" ry="18"/>
<text text-anchor="start" x="172.5" y="-979.3" font-family="Times,serif" font-size="14.00">●</text>
</g>
<!-- Create Fine -->
<g id="node2" class="node">
<title>Create Fine</title>
<polygon fill="#9b9bff" stroke="black" points="226.5,-914 127.5,-914 127.5,-878 226.5,-878 226.5,-914"/>
<text text-anchor="middle" x="177" y="-892.3" font-family="Times,serif" font-size="14.00">Create Fine (6)</text>
</g>
<!-- start_node&#45;&gt;Create Fine -->
<g id="edge1" class="edge">
<title>start_node&#45;&gt;Create Fine</title>
<path fill="none" stroke="#000000" stroke-width="6" d="M177,-964.8C177,-954.96 177,-942.27 177,-930.53"/>
<polygon fill="#000000" stroke="#000000" stroke-width="6" points="182.25,-930.92 177,-920.92 171.75,-930.92 182.25,-930.92"/>
<text text-anchor="middle" x="180.5" y="-935.8" font-family="Times,serif" font-size="14.00">6</text>
</g>
<!-- Send Fine -->
<g id="node3" class="node">
<title>Send Fine</title>
<polygon fill="#9b9bff" stroke="black" points="222.5,-827 131.5,-827 131.5,-791 222.5,-791 222.5,-827"/>
<text text-anchor="middle" x="177" y="-805.3" font-family="Times,serif" font-size="14.00">Send Fine (6)</text>
</g>
<!-- Create Fine&#45;&gt;Send Fine -->
<g id="edge2" class="edge">
<title>Create Fine&#45;&gt;Send Fine</title>
<path fill="none" stroke="#000000" stroke-width="6" d="M177,-877.8C177,-867.96 177,-855.27 177,-843.53"/>
<polygon fill="#000000" stroke="#000000" stroke-width="6" points="182.25,-843.92 177,-833.92 171.75,-843.92 182.25,-843.92"/>
<text text-anchor="middle" x="180.5" y="-848.8" font-family="Times,serif" font-size="14.00">6</text>
</g>
<!-- Insert Fine Notification -->
<g id="node4" class="node">
<title>Insert Fine Notification</title>
<polygon fill="#9b9bff" stroke="black" points="259,-740 95,-740 95,-704 259,-704 259,-740"/>
<text text-anchor="middle" x="177" y="-718.3" font-family="Times,serif" font-size="14.00">Insert Fine Notification (6)</text>
</g>
<!-- Send Fine&#45;&gt;Insert Fine Notification -->
<g id="edge3" class="edge">
<title>Send Fine&#45;&gt;Insert Fine Notification</title>
<path fill="none" stroke="#000000" stroke-width="6" d="M177,-790.8C177,-780.96 177,-768.27 177,-756.53"/>
<polygon fill="#000000" stroke="#000000" stroke-width="6" points="182.25,-756.92 177,-746.92 171.75,-756.92 182.25,-756.92"/>
<text text-anchor="middle" x="180.5" y="-761.8" font-family="Times,serif" font-size="14.00">6</text>
</g>
<!-- Insert Date Appeal to Prefecture -->
<g id="node5" class="node">
<title>Insert Date Appeal to Prefecture</title>
<polygon fill="#9b9bff" stroke="black" points="212,-653 0,-653 0,-617 212,-617 212,-653"/>
<text text-anchor="middle" x="106" y="-631.3" font-family="Times,serif" font-size="14.00">Insert Date Appeal to Prefecture (6)</text>
</g>
<!-- Insert Fine Notification&#45;&gt;Insert Date Appeal to Prefecture -->
<g id="edge4" class="edge">
<title>Insert Fine Notification&#45;&gt;Insert Date Appeal to Prefecture</title>
<path fill="none" stroke="#000000" stroke-width="4.9" d="M162.63,-703.8C153.55,-692.93 141.57,-678.58 130.96,-665.88"/>
<polygon fill="#000000" stroke="#000000" stroke-width="4.9" points="134.28,-663.17 124.58,-658.24 127.7,-668.66 134.28,-663.17"/>
<text text-anchor="middle" x="148.5" y="-674.8" font-family="Times,serif" font-size="14.00">5</text>
</g>
<!-- Add penalty -->
<g id="node6" class="node">
<title>Add penalty</title>
<polygon fill="#9b9bff" stroke="black" points="211.5,-566 108.5,-566 108.5,-530 211.5,-530 211.5,-566"/>
<text text-anchor="middle" x="160" y="-544.3" font-family="Times,serif" font-size="14.00">Add penalty (6)</text>
</g>
<!-- Insert Fine Notification&#45;&gt;Add penalty -->
<g id="edge18" class="edge">
<title>Insert Fine Notification&#45;&gt;Add penalty</title>
<path fill="none" stroke="#000000" stroke-width="0.5" d="M192.9,-703.85C209.88,-683.36 232.84,-647.94 221,-617 214.63,-600.35 202.09,-585.22 190.04,-573.48"/>
<polygon fill="#000000" stroke="#000000" stroke-width="0.5" points="192.52,-571.01 182.81,-566.78 187.77,-576.14 192.52,-571.01"/>
<text text-anchor="middle" x="227.5" y="-631.3" font-family="Times,serif" font-size="14.00">1</text>
</g>
<!-- Insert Date Appeal to Prefecture&#45;&gt;Add penalty -->
<g id="edge5" class="edge">
<title>Insert Date Appeal to Prefecture&#45;&gt;Add penalty</title>
<path fill="none" stroke="#000000" stroke-width="2.7" d="M118.79,-616.78C122.81,-611.18 127.19,-604.9 131,-599 135.23,-592.44 139.57,-585.25 143.55,-578.43"/>
<polygon fill="#000000" stroke="#000000" stroke-width="2.7" points="146.5,-580.33 148.43,-569.91 140.42,-576.85 146.5,-580.33"/>
<text text-anchor="middle" x="143.5" y="-587.8" font-family="Times,serif" font-size="14.00">3</text>
</g>
<!-- Send Appeal to Prefecture -->
<g id="node7" class="node">
<title>Send Appeal to Prefecture</title>
<polygon fill="#9b9bff" stroke="black" points="195.5,-479 16.5,-479 16.5,-443 195.5,-443 195.5,-479"/>
<text text-anchor="middle" x="106" y="-457.3" font-family="Times,serif" font-size="14.00">Send Appeal to Prefecture (6)</text>
</g>
<!-- Insert Date Appeal to Prefecture&#45;&gt;Send Appeal to Prefecture -->
<g id="edge10" class="edge">
<title>Insert Date Appeal to Prefecture&#45;&gt;Send Appeal to Prefecture</title>
<path fill="none" stroke="#000000" stroke-width="2.7" d="M101.39,-616.54C98.03,-602.89 93.77,-583.39 92,-566 90.38,-550.08 90.38,-545.92 92,-530 93.25,-517.77 95.72,-504.5 98.25,-492.95"/>
<polygon fill="#000000" stroke="#000000" stroke-width="2.7" points="101.6,-493.97 100.46,-483.44 94.78,-492.39 101.6,-493.97"/>
<text text-anchor="middle" x="95.5" y="-544.3" font-family="Times,serif" font-size="14.00">3</text>
</g>
<!-- Add penalty&#45;&gt;Insert Date Appeal to Prefecture -->
<g id="edge19" class="edge">
<title>Add penalty&#45;&gt;Insert Date Appeal to Prefecture</title>
<path fill="none" stroke="#000000" stroke-width="0.5" d="M138.15,-566.34C132.63,-571.55 127.11,-577.6 123,-584 118.57,-590.9 115.17,-599.07 112.61,-606.79"/>
<polygon fill="#000000" stroke="#000000" stroke-width="0.5" points="109.32,-605.57 109.84,-616.15 116.03,-607.55 109.32,-605.57"/>
<text text-anchor="middle" x="126.5" y="-587.8" font-family="Times,serif" font-size="14.00">1</text>
</g>
<!-- Add penalty&#45;&gt;Send Appeal to Prefecture -->
<g id="edge6" class="edge">
<title>Add penalty&#45;&gt;Send Appeal to Prefecture</title>
<path fill="none" stroke="#000000" stroke-width="2.7" d="M150.46,-529.63C144.99,-519.9 137.85,-507.63 131,-497 129.63,-494.88 128.19,-492.71 126.72,-490.54"/>
<polygon fill="#000000" stroke="#000000" stroke-width="2.7" points="129.74,-488.75 121.14,-482.57 124.01,-492.77 129.74,-488.75"/>
<text text-anchor="middle" x="143.5" y="-500.8" font-family="Times,serif" font-size="14.00">3</text>
</g>
<!-- Receive Result Appeal from Prefecture -->
<g id="node8" class="node">
<title>Receive Result Appeal from Prefecture</title>
<polygon fill="#9b9bff" stroke="black" points="294,-392 44,-392 44,-356 294,-356 294,-392"/>
<text text-anchor="middle" x="169" y="-370.3" font-family="Times,serif" font-size="14.00">Receive Result Appeal from Prefecture (6)</text>
</g>
<!-- Add penalty&#45;&gt;Receive Result Appeal from Prefecture -->
<g id="edge12" class="edge">
<title>Add penalty&#45;&gt;Receive Result Appeal from Prefecture</title>
<path fill="none" stroke="#000000" stroke-width="1.6" d="M175.6,-529.73C186.18,-516.8 199.25,-498.11 205,-479 212.89,-452.79 200.67,-423.35 188.39,-402.5"/>
<polygon fill="#000000" stroke="#000000" stroke-width="1.6" points="191.45,-400.8 183.16,-394.21 185.53,-404.53 191.45,-400.8"/>
<text text-anchor="middle" x="210.5" y="-457.3" font-family="Times,serif" font-size="14.00">2</text>
</g>
<!-- Send Appeal to Prefecture&#45;&gt;Add penalty -->
<g id="edge11" class="edge">
<title>Send Appeal to Prefecture&#45;&gt;Add penalty</title>
<path fill="none" stroke="#000000" stroke-width="1.6" d="M109.62,-479.12C112.28,-489.23 116.56,-501.97 123,-512 124.92,-515 127.16,-517.92 129.56,-520.72"/>
<polygon fill="#000000" stroke="#000000" stroke-width="1.6" points="127.02,-523.13 136.48,-527.92 132.07,-518.28 127.02,-523.13"/>
<text text-anchor="middle" x="126.5" y="-500.8" font-family="Times,serif" font-size="14.00">2</text>
</g>
<!-- Send Appeal to Prefecture&#45;&gt;Receive Result Appeal from Prefecture -->
<g id="edge7" class="edge">
<title>Send Appeal to Prefecture&#45;&gt;Receive Result Appeal from Prefecture</title>
<path fill="none" stroke="#000000" stroke-width="3.8" d="M118.75,-442.8C126.81,-431.93 137.44,-417.58 146.85,-404.88"/>
<polygon fill="#000000" stroke="#000000" stroke-width="3.8" points="149.49,-407.21 152.63,-397.09 143.86,-403.04 149.49,-407.21"/>
<text text-anchor="middle" x="144.5" y="-413.8" font-family="Times,serif" font-size="14.00">4</text>
</g>
<!-- Notify Result Appeal to Offender -->
<g id="node9" class="node">
<title>Notify Result Appeal to Offender</title>
<polygon fill="#9b9bff" stroke="black" points="278,-305 60,-305 60,-269 278,-269 278,-305"/>
<text text-anchor="middle" x="169" y="-283.3" font-family="Times,serif" font-size="14.00">Notify Result Appeal to Offender (6)</text>
</g>
<!-- Receive Result Appeal from Prefecture&#45;&gt;Notify Result Appeal to Offender -->
<g id="edge8" class="edge">
<title>Receive Result Appeal from Prefecture&#45;&gt;Notify Result Appeal to Offender</title>
<path fill="none" stroke="#000000" stroke-width="6" d="M169,-355.8C169,-345.96 169,-333.27 169,-321.53"/>
<polygon fill="#000000" stroke="#000000" stroke-width="6" points="174.25,-321.92 169,-311.92 163.75,-321.92 174.25,-321.92"/>
<text text-anchor="middle" x="172.5" y="-326.8" font-family="Times,serif" font-size="14.00">6</text>
</g>
<!-- Send for Credit Collection -->
<g id="node10" class="node">
<title>Send for Credit Collection</title>
<polygon fill="#9b9bff" stroke="black" points="259,-131 79,-131 79,-95 259,-95 259,-131"/>
<text text-anchor="middle" x="169" y="-109.3" font-family="Times,serif" font-size="14.00">Send for Credit Collection (6)</text>
</g>
<!-- Notify Result Appeal to Offender&#45;&gt;Send for Credit Collection -->
<g id="edge9" class="edge">
<title>Notify Result Appeal to Offender&#45;&gt;Send for Credit Collection</title>
<path fill="none" stroke="#000000" stroke-width="3.8" d="M137.96,-268.61C120.34,-256.85 99.88,-239.55 90,-218 83.33,-203.46 83.33,-196.54 90,-182 97.57,-165.5 111.33,-151.49 125.27,-140.56"/>
<polygon fill="#000000" stroke="#000000" stroke-width="3.8" points="127.24,-143.45 133.3,-134.76 123.14,-137.78 127.24,-143.45"/>
<text text-anchor="middle" x="93.5" y="-196.3" font-family="Times,serif" font-size="14.00">4</text>
</g>
<!-- Appeal to Judge -->
<g id="node11" class="node">
<title>Appeal to Judge</title>
<polygon fill="#ffffff" stroke="black" points="231.5,-218 106.5,-218 106.5,-182 231.5,-182 231.5,-218"/>
<text text-anchor="middle" x="169" y="-196.3" font-family="Times,serif" font-size="14.00">Appeal to Judge (1)</text>
</g>
<!-- Notify Result Appeal to Offender&#45;&gt;Appeal to Judge -->
<g id="edge13" class="edge">
<title>Notify Result Appeal to Offender&#45;&gt;Appeal to Judge</title>
<path fill="none" stroke="#000000" stroke-width="0.5" d="M169,-268.8C169,-257.35 169,-242.06 169,-228.89"/>
<polygon fill="#000000" stroke="#000000" stroke-width="0.5" points="172.5,-229.22 169,-219.22 165.5,-229.22 172.5,-229.22"/>
<text text-anchor="middle" x="172.5" y="-239.8" font-family="Times,serif" font-size="14.00">1</text>
</g>
<!-- Payment -->
<g id="node12" class="node">
<title>Payment</title>
<polygon fill="#ebebff" stroke="black" points="334,-218 250,-218 250,-182 334,-182 334,-218"/>
<text text-anchor="middle" x="292" y="-196.3" font-family="Times,serif" font-size="14.00">Payment (2)</text>
</g>
<!-- Notify Result Appeal to Offender&#45;&gt;Payment -->
<g id="edge15" class="edge">
<title>Notify Result Appeal to Offender&#45;&gt;Payment</title>
<path fill="none" stroke="#000000" stroke-width="0.5" d="M194.19,-268.59C212.68,-255.82 237.99,-238.32 258.23,-224.34"/>
<polygon fill="#000000" stroke="#000000" stroke-width="0.5" points="259.99,-227.38 266.22,-218.81 256.01,-221.62 259.99,-227.38"/>
<text text-anchor="middle" x="240.5" y="-239.8" font-family="Times,serif" font-size="14.00">1</text>
</g>
<!-- end_node -->
<g id="node13" class="node">
<title>end_node</title>
<ellipse fill="none" stroke="black" cx="169" cy="-22" rx="18" ry="18"/>
<ellipse fill="none" stroke="black" cx="169" cy="-22" rx="22" ry="22"/>
<text text-anchor="start" x="164.5" y="-18.3" font-family="Times,serif" font-size="14.00">■</text>
</g>
<!-- Send for Credit Collection&#45;&gt;end_node -->
<g id="edge20" class="edge">
<title>Send for Credit Collection&#45;&gt;end_node</title>
<path fill="none" stroke="#000000" stroke-width="6" d="M169,-94.84C169,-85.02 169,-72.3 169,-60.3"/>
<polygon fill="#000000" stroke="#000000" stroke-width="6" points="174.25,-60.64 169,-50.64 163.75,-60.64 174.25,-60.64"/>
<text text-anchor="middle" x="172.5" y="-65.8" font-family="Times,serif" font-size="14.00">6</text>
</g>
<!-- Appeal to Judge&#45;&gt;Send for Credit Collection -->
<g id="edge14" class="edge">
<title>Appeal to Judge&#45;&gt;Send for Credit Collection</title>
<path fill="none" stroke="#000000" stroke-width="0.5" d="M169,-181.8C169,-170.35 169,-155.06 169,-141.89"/>
<polygon fill="#000000" stroke="#000000" stroke-width="0.5" points="172.5,-142.22 169,-132.22 165.5,-142.22 172.5,-142.22"/>
<text text-anchor="middle" x="172.5" y="-152.8" font-family="Times,serif" font-size="14.00">1</text>
</g>
<!-- Payment&#45;&gt;Send for Credit Collection -->
<g id="edge17" class="edge">
<title>Payment&#45;&gt;Send for Credit Collection</title>
<path fill="none" stroke="#000000" stroke-width="0.5" d="M266.81,-181.59C248.32,-168.82 223.01,-151.32 202.77,-137.34"/>
<polygon fill="#000000" stroke="#000000" stroke-width="0.5" points="204.99,-134.62 194.78,-131.81 201.01,-140.38 204.99,-134.62"/>
<text text-anchor="middle" x="240.5" y="-152.8" font-family="Times,serif" font-size="14.00">1</text>
</g>
<!-- Payment&#45;&gt;Payment -->
<g id="edge16" class="edge">
<title>Payment&#45;&gt;Payment</title>
<path fill="none" stroke="#000000" stroke-width="0.5" d="M334.33,-208.01C344.48,-207.39 352,-204.72 352,-200 352,-197.13 349.21,-195.01 344.73,-193.66"/>
<polygon fill="#000000" stroke="#000000" stroke-width="0.5" points="345.51,-190.24 335.08,-192.11 344.4,-197.15 345.51,-190.24"/>
<text text-anchor="middle" x="355.5" y="-196.3" font-family="Times,serif" font-size="14.00">1</text>
</g>
</g>
</svg>
