<?xml version="1.0" encoding="UTF-8" standalone="no"?>
<!DOCTYPE svg PUBLIC "-//W3C//DTD SVG 1.1//EN"
 "http://www.w3.org/Graphics/SVG/1.1/DTD/svg11.dtd">
<!-- Generated by graphviz version 7.0.5 (0)
 -->
<!-- Title: dfg Pages: 1 -->
<svg width="251pt" height="574pt"
 viewBox="0.00 0.00 251.00 574.00" xmlns="http://www.w3.org/2000/svg" xmlns:xlink="http://www.w3.org/1999/xlink">
<g id="graph0" class="graph" transform="scale(1 1) rotate(0) translate(4 570)">
<title>dfg</title>
<polygon fill="white" stroke="none" points="-4,4 -4,-570 247,-570 247,4 -4,4"/>
<!-- start_node -->
<g id="node1" class="node">
<title>start_node</title>
<ellipse fill="none" stroke="black" cx="164" cy="-548" rx="18" ry="18"/>
<text text-anchor="start" x="159.5" y="-544.3" font-family="Times,serif" font-size="14.00">●</text>
</g>
<!-- Create Fine -->
<g id="node2" class="node">
<title>Create Fine</title>
<polygon fill="#9b9bff" stroke="black" points="220.5,-479 107.5,-479 107.5,-443 220.5,-443 220.5,-479"/>
<text text-anchor="middle" x="164" y="-457.3" font-family="Times,serif" font-size="14.00">Create Fine (688)</text>
</g>
<!-- start_node&#45;&gt;Create Fine -->
<g id="edge1" class="edge">
<title>start_node&#45;&gt;Create Fine</title>
<path fill="none" stroke="#000000" stroke-width="6" d="M164,-529.8C164,-519.96 164,-507.27 164,-495.53"/>
<polygon fill="#000000" stroke="#000000" stroke-width="6" points="169.25,-495.92 164,-485.92 158.75,-495.92 169.25,-495.92"/>
<text text-anchor="middle" x="174.5" y="-500.8" font-family="Times,serif" font-size="14.00">688</text>
</g>
<!-- Send Fine -->
<g id="node3" class="node">
<title>Send Fine</title>
<polygon fill="#9b9bff" stroke="black" points="216,-392 112,-392 112,-356 216,-356 216,-392"/>
<text text-anchor="middle" x="164" y="-370.3" font-family="Times,serif" font-size="14.00">Send Fine (688)</text>
</g>
<!-- Create Fine&#45;&gt;Send Fine -->
<g id="edge2" class="edge">
<title>Create Fine&#45;&gt;Send Fine</title>
<path fill="none" stroke="#000000" stroke-width="6" d="M164,-442.8C164,-432.96 164,-420.27 164,-408.53"/>
<polygon fill="#000000" stroke="#000000" stroke-width="6" points="169.25,-408.92 164,-398.92 158.75,-408.92 169.25,-408.92"/>
<text text-anchor="middle" x="174.5" y="-413.8" font-family="Times,serif" font-size="14.00">688</text>
</g>
<!-- Insert Fine Notification -->
<g id="node4" class="node">
<title>Insert Fine Notification</title>
<polygon fill="#ffffff" stroke="black" points="193.5,-305 16.5,-305 16.5,-269 193.5,-269 193.5,-305"/>
<text text-anchor="middle" x="105" y="-283.3" font-family="Times,serif" font-size="14.00">Insert Fine Notification (531)</text>
</g>
<!-- Send Fine&#45;&gt;Insert Fine Notification -->
<g id="edge3" class="edge">
<title>Send Fine&#45;&gt;Insert Fine Notification</title>
<path fill="none" stroke="#000000" stroke-width="0.5" d="M152.06,-355.8C143.72,-343.78 132.43,-327.52 123,-313.94"/>
<polygon fill="#000000" stroke="#000000" stroke-width="0.5" points="126.13,-312.31 117.56,-306.09 120.38,-316.3 126.13,-312.31"/>
<text text-anchor="middle" x="149.5" y="-326.8" font-family="Times,serif" font-size="14.00">531</text>
</g>
<!-- end_node -->
<g id="node7" class="node">
<title>end_node</title>
<ellipse fill="none" stroke="black" cx="160" cy="-22" rx="18" ry="18"/>
<ellipse fill="none" stroke="black" cx="160" cy="-22" rx="22" ry="22"/>
<text text-anchor="start" x="155.5" y="-18.3" font-family="Times,serif" font-size="14.00">■</text>
</g>
<!-- Send Fine&#45;&gt;end_node -->
<g id="edge7" class="edge">
<title>Send Fine&#45;&gt;end_node</title>
<path fill="none" stroke="#000000" stroke-width="0" d="M184.94,-355.76C201.55,-340.03 222,-315.15 222,-288 222,-288 222,-288 222,-112 222,-84.48 201.8,-59.38 184.46,-42.9"/>
<polygon fill="#000000" stroke="#000000" stroke-width="0" points="187.03,-40.51 177.27,-36.39 182.33,-45.7 187.03,-40.51"/>
<text text-anchor="middle" x="232.5" y="-196.3" font-family="Times,serif" font-size="14.00">157</text>
</g>
<!-- Add penalty -->
<g id="node5" class="node">
<title>Add penalty</title>
<polygon fill="#ffffff" stroke="black" points="160,-218 44,-218 44,-182 160,-182 160,-218"/>
<text text-anchor="middle" x="102" y="-196.3" font-family="Times,serif" font-size="14.00">Add penalty (531)</text>
</g>
<!-- Insert Fine Notification&#45;&gt;Add penalty -->
<g id="edge4" class="edge">
<title>Insert Fine Notification&#45;&gt;Add penalty</title>
<path fill="none" stroke="#000000" stroke-width="0.5" d="M104.39,-268.8C103.99,-257.35 103.45,-242.06 102.98,-228.89"/>
<polygon fill="#000000" stroke="#000000" stroke-width="0.5" points="106.49,-229.09 102.64,-219.22 99.5,-229.34 106.49,-229.09"/>
<text text-anchor="middle" x="114.5" y="-239.8" font-family="Times,serif" font-size="14.00">531</text>
</g>
<!-- Send for Credit Collection -->
<g id="node6" class="node">
<title>Send for Credit Collection</title>
<polygon fill="#ffffff" stroke="black" points="194,-131 0,-131 0,-95 194,-95 194,-131"/>
<text text-anchor="middle" x="97" y="-109.3" font-family="Times,serif" font-size="14.00">Send for Credit Collection (531)</text>
</g>
<!-- Add penalty&#45;&gt;Send for Credit Collection -->
<g id="edge5" class="edge">
<title>Add penalty&#45;&gt;Send for Credit Collection</title>
<path fill="none" stroke="#000000" stroke-width="0.5" d="M100.99,-181.8C100.31,-170.35 99.42,-155.06 98.64,-141.89"/>
<polygon fill="#000000" stroke="#000000" stroke-width="0.5" points="102.15,-142 98.07,-132.22 95.17,-142.41 102.15,-142"/>
<text text-anchor="middle" x="110.5" y="-152.8" font-family="Times,serif" font-size="14.00">531</text>
</g>
<!-- Send for Credit Collection&#45;&gt;end_node -->
<g id="edge6" class="edge">
<title>Send for Credit Collection&#45;&gt;end_node</title>
<path fill="none" stroke="#000000" stroke-width="0.5" d="M109.15,-94.84C118.33,-81.87 131.09,-63.85 141.53,-49.1"/>
<polygon fill="#000000" stroke="#000000" stroke-width="0.5" points="144.32,-51.21 147.24,-41.03 138.6,-47.17 144.32,-51.21"/>
<text text-anchor="middle" x="143.5" y="-65.8" font-family="Times,serif" font-size="14.00">531</text>
</g>
</g>
</svg>
