<?xml version="1.0" encoding="UTF-8" standalone="no"?>
<!DOCTYPE svg PUBLIC "-//W3C//DTD SVG 1.1//EN"
 "http://www.w3.org/Graphics/SVG/1.1/DTD/svg11.dtd">
<!-- Generated by graphviz version 7.0.5 (0)
 -->
<!-- Title: dfg Pages: 1 -->
<svg width="366pt" height="574pt"
 viewBox="0.00 0.00 366.00 574.00" xmlns="http://www.w3.org/2000/svg" xmlns:xlink="http://www.w3.org/1999/xlink">
<g id="graph0" class="graph" transform="scale(1 1) rotate(0) translate(4 570)">
<title>dfg</title>
<polygon fill="white" stroke="none" points="-4,4 -4,-570 362,-570 362,4 -4,4"/>
<!-- start_node -->
<g id="node1" class="node">
<title>start_node</title>
<ellipse fill="none" stroke="black" cx="234" cy="-548" rx="18" ry="18"/>
<text text-anchor="start" x="229.5" y="-544.3" font-family="Times,serif" font-size="14.00">●</text>
</g>
<!-- Create Fine -->
<g id="node2" class="node">
<title>Create Fine</title>
<polygon fill="#9b9bff" stroke="black" points="297,-479 171,-479 171,-443 297,-443 297,-479"/>
<text text-anchor="middle" x="234" y="-457.3" font-family="Times,serif" font-size="14.00">Create Fine (23018)</text>
</g>
<!-- start_node&#45;&gt;Create Fine -->
<g id="edge1" class="edge">
<title>start_node&#45;&gt;Create Fine</title>
<path fill="none" stroke="#000000" stroke-width="9.14" d="M234,-529.8C234,-520.3 234,-508.15 234,-496.76"/>
<polygon fill="#000000" stroke="#000000" stroke-width="9.14" points="242,-496.78 234,-486.78 226.01,-496.78 242,-496.78"/>
<text text-anchor="middle" x="251" y="-500.8" font-family="Times,serif" font-size="14.00">23018</text>
</g>
<!-- Send Fine -->
<g id="node3" class="node">
<title>Send Fine</title>
<polygon fill="#d4d4ff" stroke="black" points="206,-392 88,-392 88,-356 206,-356 206,-392"/>
<text text-anchor="middle" x="147" y="-370.3" font-family="Times,serif" font-size="14.00">Send Fine (15201)</text>
</g>
<!-- Create Fine&#45;&gt;Send Fine -->
<g id="edge2" class="edge">
<title>Create Fine&#45;&gt;Send Fine</title>
<path fill="none" stroke="#000000" stroke-width="6" d="M216.39,-442.8C204.91,-431.58 189.65,-416.67 176.36,-403.69"/>
<polygon fill="#000000" stroke="#000000" stroke-width="6" points="180.32,-400.21 169.49,-396.98 172.98,-407.72 180.32,-400.21"/>
<text text-anchor="middle" x="212" y="-413.8" font-family="Times,serif" font-size="14.00">15201</text>
</g>
<!-- Payment -->
<g id="node7" class="node">
<title>Payment</title>
<polygon fill="#ffffff" stroke="black" points="358,-131 254,-131 254,-95 358,-95 358,-131"/>
<text text-anchor="middle" x="306" y="-109.3" font-family="Times,serif" font-size="14.00">Payment (9313)</text>
</g>
<!-- Create Fine&#45;&gt;Payment -->
<g id="edge6" class="edge">
<title>Create Fine&#45;&gt;Payment</title>
<path fill="none" stroke="#000000" stroke-width="3.04" d="M258.58,-442.76C277.34,-427.39 300,-403.02 300,-375 300,-375 300,-375 300,-199 300,-181.36 301.3,-161.71 302.69,-145.75"/>
<polygon fill="#000000" stroke="#000000" stroke-width="3.04" points="306.18,-146.09 303.63,-135.81 299.21,-145.43 306.18,-146.09"/>
<text text-anchor="middle" x="314" y="-283.3" font-family="Times,serif" font-size="14.00">7817</text>
</g>
<!-- Insert Fine Notification -->
<g id="node4" class="node">
<title>Insert Fine Notification</title>
<polygon fill="#ececff" stroke="black" points="242.5,-305 51.5,-305 51.5,-269 242.5,-269 242.5,-305"/>
<text text-anchor="middle" x="147" y="-283.3" font-family="Times,serif" font-size="14.00">Insert Fine Notification (11842)</text>
</g>
<!-- Send Fine&#45;&gt;Insert Fine Notification -->
<g id="edge3" class="edge">
<title>Send Fine&#45;&gt;Insert Fine Notification</title>
<path fill="none" stroke="#000000" stroke-width="4.65" d="M147,-355.8C147,-345.96 147,-333.27 147,-321.53"/>
<polygon fill="#000000" stroke="#000000" stroke-width="4.65" points="151.07,-321.64 147,-311.64 142.93,-321.64 151.07,-321.64"/>
<text text-anchor="middle" x="164" y="-326.8" font-family="Times,serif" font-size="14.00">11842</text>
</g>
<!-- end_node -->
<g id="node8" class="node">
<title>end_node</title>
<ellipse fill="none" stroke="black" cx="132" cy="-22" rx="18" ry="18"/>
<ellipse fill="none" stroke="black" cx="132" cy="-22" rx="22" ry="22"/>
<text text-anchor="start" x="127.5" y="-18.3" font-family="Times,serif" font-size="14.00">■</text>
</g>
<!-- Send Fine&#45;&gt;end_node -->
<g id="edge10" class="edge">
<title>Send Fine&#45;&gt;end_node</title>
<path fill="none" stroke="#000000" stroke-width="1.25" d="M87.63,-362.92C46.84,-352.19 0,-330.6 0,-288 0,-288 0,-288 0,-112 0,-64.41 59.72,-40.57 98.82,-30.07"/>
<polygon fill="#000000" stroke="#000000" stroke-width="1.25" points="99.52,-33.5 108.37,-27.68 97.82,-26.71 99.52,-33.5"/>
<text text-anchor="middle" x="14" y="-196.3" font-family="Times,serif" font-size="14.00">3359</text>
</g>
<!-- Add penalty -->
<g id="node5" class="node">
<title>Add penalty</title>
<polygon fill="#ececff" stroke="black" points="212,-218 82,-218 82,-182 212,-182 212,-218"/>
<text text-anchor="middle" x="147" y="-196.3" font-family="Times,serif" font-size="14.00">Add penalty (11842)</text>
</g>
<!-- Insert Fine Notification&#45;&gt;Add penalty -->
<g id="edge4" class="edge">
<title>Insert Fine Notification&#45;&gt;Add penalty</title>
<path fill="none" stroke="#000000" stroke-width="4.65" d="M147,-268.8C147,-258.96 147,-246.27 147,-234.53"/>
<polygon fill="#000000" stroke="#000000" stroke-width="4.65" points="151.07,-234.64 147,-224.64 142.93,-234.64 151.07,-234.64"/>
<text text-anchor="middle" x="164" y="-239.8" font-family="Times,serif" font-size="14.00">11842</text>
</g>
<!-- Send for Credit Collection -->
<g id="node6" class="node">
<title>Send for Credit Collection</title>
<polygon fill="#f7f7ff" stroke="black" points="235.5,-131 28.5,-131 28.5,-95 235.5,-95 235.5,-131"/>
<text text-anchor="middle" x="132" y="-109.3" font-family="Times,serif" font-size="14.00">Send for Credit Collection (10346)</text>
</g>
<!-- Add penalty&#45;&gt;Send for Credit Collection -->
<g id="edge5" class="edge">
<title>Add penalty&#45;&gt;Send for Credit Collection</title>
<path fill="none" stroke="#000000" stroke-width="4.05" d="M143.96,-181.8C142.21,-171.84 139.94,-158.97 137.85,-147.12"/>
<polygon fill="#000000" stroke="#000000" stroke-width="4.05" points="141.37,-146.67 136.14,-137.44 134.38,-147.9 141.37,-146.67"/>
<text text-anchor="middle" x="158" y="-152.8" font-family="Times,serif" font-size="14.00">10346</text>
</g>
<!-- Add penalty&#45;&gt;Payment -->
<g id="edge7" class="edge">
<title>Add penalty&#45;&gt;Payment</title>
<path fill="none" stroke="#000000" stroke-width="0.5" d="M179.56,-181.59C204,-168.53 237.65,-150.54 264.1,-136.4"/>
<polygon fill="#000000" stroke="#000000" stroke-width="0.5" points="265.65,-139.54 272.82,-131.74 262.35,-133.37 265.65,-139.54"/>
<text text-anchor="middle" x="250" y="-152.8" font-family="Times,serif" font-size="14.00">1496</text>
</g>
<!-- Send for Credit Collection&#45;&gt;end_node -->
<g id="edge8" class="edge">
<title>Send for Credit Collection&#45;&gt;end_node</title>
<path fill="none" stroke="#000000" stroke-width="4.05" d="M132,-94.84C132,-84.91 132,-72.01 132,-59.89"/>
<polygon fill="#000000" stroke="#000000" stroke-width="4.05" points="135.55,-60.25 132,-50.25 128.45,-60.25 135.55,-60.25"/>
<text text-anchor="middle" x="149" y="-65.8" font-family="Times,serif" font-size="14.00">10346</text>
</g>
<!-- Payment&#45;&gt;end_node -->
<g id="edge9" class="edge">
<title>Payment&#45;&gt;end_node</title>
<path fill="none" stroke="#000000" stroke-width="3.64" d="M272.04,-94.63C241.1,-78.8 195.69,-55.58 165.05,-39.9"/>
<polygon fill="#000000" stroke="#000000" stroke-width="3.64" points="166.71,-36.82 156.22,-35.39 163.52,-43.06 166.71,-36.82"/>
<text text-anchor="middle" x="248" y="-65.8" font-family="Times,serif" font-size="14.00">9313</text>
</g>
</g>
</svg>
