<?xml version="1.0" encoding="UTF-8" standalone="no"?>
<!DOCTYPE svg PUBLIC "-//W3C//DTD SVG 1.1//EN"
 "http://www.w3.org/Graphics/SVG/1.1/DTD/svg11.dtd">
<!-- Generated by graphviz version 7.0.5 (0)
 -->
<!-- Title: dfg Pages: 1 -->
<svg width="208pt" height="574pt"
 viewBox="0.00 0.00 208.00 574.00" xmlns="http://www.w3.org/2000/svg" xmlns:xlink="http://www.w3.org/1999/xlink">
<g id="graph0" class="graph" transform="scale(1 1) rotate(0) translate(4 570)">
<title>dfg</title>
<polygon fill="white" stroke="none" points="-4,4 -4,-570 204,-570 204,4 -4,4"/>
<!-- start_node -->
<g id="node1" class="node">
<title>start_node</title>
<ellipse fill="none" stroke="black" cx="100" cy="-548" rx="18" ry="18"/>
<text text-anchor="start" x="95.5" y="-544.3" font-family="Times,serif" font-size="14.00">●</text>
</g>
<!-- Create Fine -->
<g id="node2" class="node">
<title>Create Fine</title>
<polygon fill="#ffffff" stroke="black" points="159.5,-479 40.5,-479 40.5,-443 159.5,-443 159.5,-479"/>
<text text-anchor="middle" x="100" y="-457.3" font-family="Times,serif" font-size="14.00">Create Fine (2807)</text>
</g>
<!-- start_node&#45;&gt;Create Fine -->
<g id="edge1" class="edge">
<title>start_node&#45;&gt;Create Fine</title>
<path fill="none" stroke="#000000" stroke-width="6" d="M100,-529.8C100,-519.96 100,-507.27 100,-495.53"/>
<polygon fill="#000000" stroke="#000000" stroke-width="6" points="105.25,-495.92 100,-485.92 94.75,-495.92 105.25,-495.92"/>
<text text-anchor="middle" x="114" y="-500.8" font-family="Times,serif" font-size="14.00">2807</text>
</g>
<!-- Send Fine -->
<g id="node3" class="node">
<title>Send Fine</title>
<polygon fill="#ffffff" stroke="black" points="155.5,-392 44.5,-392 44.5,-356 155.5,-356 155.5,-392"/>
<text text-anchor="middle" x="100" y="-370.3" font-family="Times,serif" font-size="14.00">Send Fine (2807)</text>
</g>
<!-- Create Fine&#45;&gt;Send Fine -->
<g id="edge2" class="edge">
<title>Create Fine&#45;&gt;Send Fine</title>
<path fill="none" stroke="#000000" stroke-width="6" d="M100,-442.8C100,-432.96 100,-420.27 100,-408.53"/>
<polygon fill="#000000" stroke="#000000" stroke-width="6" points="105.25,-408.92 100,-398.92 94.75,-408.92 105.25,-408.92"/>
<text text-anchor="middle" x="114" y="-413.8" font-family="Times,serif" font-size="14.00">2807</text>
</g>
<!-- Insert Fine Notification -->
<g id="node4" class="node">
<title>Insert Fine Notification</title>
<polygon fill="#ffffff" stroke="black" points="192,-305 8,-305 8,-269 192,-269 192,-305"/>
<text text-anchor="middle" x="100" y="-283.3" font-family="Times,serif" font-size="14.00">Insert Fine Notification (2807)</text>
</g>
<!-- Send Fine&#45;&gt;Insert Fine Notification -->
<g id="edge3" class="edge">
<title>Send Fine&#45;&gt;Insert Fine Notification</title>
<path fill="none" stroke="#000000" stroke-width="6" d="M100,-355.8C100,-345.96 100,-333.27 100,-321.53"/>
<polygon fill="#000000" stroke="#000000" stroke-width="6" points="105.25,-321.92 100,-311.92 94.75,-321.92 105.25,-321.92"/>
<text text-anchor="middle" x="114" y="-326.8" font-family="Times,serif" font-size="14.00">2807</text>
</g>
<!-- Add penalty -->
<g id="node5" class="node">
<title>Add penalty</title>
<polygon fill="#ffffff" stroke="black" points="161.5,-218 38.5,-218 38.5,-182 161.5,-182 161.5,-218"/>
<text text-anchor="middle" x="100" y="-196.3" font-family="Times,serif" font-size="14.00">Add penalty (2807)</text>
</g>
<!-- Insert Fine Notification&#45;&gt;Add penalty -->
<g id="edge4" class="edge">
<title>Insert Fine Notification&#45;&gt;Add penalty</title>
<path fill="none" stroke="#000000" stroke-width="6" d="M100,-268.8C100,-258.96 100,-246.27 100,-234.53"/>
<polygon fill="#000000" stroke="#000000" stroke-width="6" points="105.25,-234.92 100,-224.92 94.75,-234.92 105.25,-234.92"/>
<text text-anchor="middle" x="114" y="-239.8" font-family="Times,serif" font-size="14.00">2807</text>
</g>
<!-- Send for Credit Collection -->
<g id="node6" class="node">
<title>Send for Credit Collection</title>
<polygon fill="#ffffff" stroke="black" points="200,-131 0,-131 0,-95 200,-95 200,-131"/>
<text text-anchor="middle" x="100" y="-109.3" font-family="Times,serif" font-size="14.00">Send for Credit Collection (2807)</text>
</g>
<!-- Add penalty&#45;&gt;Send for Credit Collection -->
<g id="edge5" class="edge">
<title>Add penalty&#45;&gt;Send for Credit Collection</title>
<path fill="none" stroke="#000000" stroke-width="6" d="M100,-181.8C100,-171.96 100,-159.27 100,-147.53"/>
<polygon fill="#000000" stroke="#000000" stroke-width="6" points="105.25,-147.92 100,-137.92 94.75,-147.92 105.25,-147.92"/>
<text text-anchor="middle" x="114" y="-152.8" font-family="Times,serif" font-size="14.00">2807</text>
</g>
<!-- end_node -->
<g id="node7" class="node">
<title>end_node</title>
<ellipse fill="none" stroke="black" cx="100" cy="-22" rx="18" ry="18"/>
<ellipse fill="none" stroke="black" cx="100" cy="-22" rx="22" ry="22"/>
<text text-anchor="start" x="95.5" y="-18.3" font-family="Times,serif" font-size="14.00">■</text>
</g>
<!-- Send for Credit Collection&#45;&gt;end_node -->
<g id="edge6" class="edge">
<title>Send for Credit Collection&#45;&gt;end_node</title>
<path fill="none" stroke="#000000" stroke-width="6" d="M100,-94.84C100,-85.02 100,-72.3 100,-60.3"/>
<polygon fill="#000000" stroke="#000000" stroke-width="6" points="105.25,-60.64 100,-50.64 94.75,-60.64 105.25,-60.64"/>
<text text-anchor="middle" x="114" y="-65.8" font-family="Times,serif" font-size="14.00">2807</text>
</g>
</g>
</svg>
