<?xml version="1.0" encoding="UTF-8" standalone="no"?>
<!DOCTYPE svg PUBLIC "-//W3C//DTD SVG 1.1//EN"
 "http://www.w3.org/Graphics/SVG/1.1/DTD/svg11.dtd">
<!-- Generated by graphviz version 7.0.5 (0)
 -->
<!-- Title: dfg Pages: 1 -->
<svg width="370pt" height="595pt"
 viewBox="0.00 0.00 370.00 595.00" xmlns="http://www.w3.org/2000/svg" xmlns:xlink="http://www.w3.org/1999/xlink">
<g id="graph0" class="graph" transform="scale(1 1) rotate(0) translate(4 591)">
<title>dfg</title>
<polygon fill="white" stroke="none" points="-4,4 -4,-591 366,-591 366,4 -4,4"/>
<!-- start_node -->
<g id="node1" class="node">
<title>start_node</title>
<ellipse fill="none" stroke="black" cx="262.5" cy="-569" rx="18" ry="18"/>
<text text-anchor="start" x="258" y="-565.3" font-family="Times,serif" font-size="14.00">●</text>
</g>
<!-- Create Fine -->
<g id="node2" class="node">
<title>Create Fine</title>
<polygon fill="#9b9bff" stroke="black" points="325.5,-500 199.5,-500 199.5,-464 325.5,-464 325.5,-500"/>
<text text-anchor="middle" x="262.5" y="-478.3" font-family="Times,serif" font-size="14.00">Create Fine (57120)</text>
</g>
<!-- start_node&#45;&gt;Create Fine -->
<g id="edge1" class="edge">
<title>start_node&#45;&gt;Create Fine</title>
<path fill="none" stroke="#000000" stroke-width="18.6" d="M262.5,-550.8C262.5,-542.21 262.5,-531.47 262.5,-521.07"/>
<polygon fill="#000000" stroke="#000000" stroke-width="18.6" points="278.77,-521.38 262.5,-511.38 246.23,-521.38 278.77,-521.38"/>
<text text-anchor="middle" x="279.5" y="-521.8" font-family="Times,serif" font-size="14.00">57120</text>
</g>
<!-- Send Fine -->
<g id="node3" class="node">
<title>Send Fine</title>
<polygon fill="#e0e0ff" stroke="black" points="278.5,-413 160.5,-413 160.5,-377 278.5,-377 278.5,-413"/>
<text text-anchor="middle" x="219.5" y="-391.3" font-family="Times,serif" font-size="14.00">Send Fine (33678)</text>
</g>
<!-- Create Fine&#45;&gt;Send Fine -->
<g id="edge2" class="edge">
<title>Create Fine&#45;&gt;Send Fine</title>
<path fill="none" stroke="#000000" stroke-width="6" d="M253.8,-463.8C248.59,-453.5 241.8,-440.08 235.64,-427.9"/>
<polygon fill="#000000" stroke="#000000" stroke-width="6" points="240.45,-425.78 231.25,-419.23 231.08,-430.52 240.45,-425.78"/>
<text text-anchor="middle" x="261.5" y="-434.8" font-family="Times,serif" font-size="14.00">33678</text>
</g>
<!-- Payment -->
<g id="node7" class="node">
<title>Payment</title>
<polygon fill="#ffffff" stroke="black" points="362,-359 251,-359 251,-323 362,-323 362,-359"/>
<text text-anchor="middle" x="306.5" y="-337.3" font-family="Times,serif" font-size="14.00">Payment (23442)</text>
</g>
<!-- Create Fine&#45;&gt;Payment -->
<g id="edge6" class="edge">
<title>Create Fine&#45;&gt;Payment</title>
<path fill="none" stroke="#000000" stroke-width="0.5" d="M273.72,-463.69C276.91,-458.2 280.15,-452 282.5,-446 292.23,-421.13 298.61,-391.31 302.33,-369.99"/>
<polygon fill="#000000" stroke="#000000" stroke-width="0.5" points="305.78,-370.58 303.96,-360.14 298.87,-369.43 305.78,-370.58"/>
<text text-anchor="middle" x="304.5" y="-434.8" font-family="Times,serif" font-size="14.00">23442</text>
</g>
<!-- Insert Fine Notification -->
<g id="node4" class="node">
<title>Insert Fine Notification</title>
<polygon fill="#fdfdff" stroke="black" points="207,-305 16,-305 16,-269 207,-269 207,-305"/>
<text text-anchor="middle" x="111.5" y="-283.3" font-family="Times,serif" font-size="14.00">Insert Fine Notification (23842)</text>
</g>
<!-- Send Fine&#45;&gt;Insert Fine Notification -->
<g id="edge3" class="edge">
<title>Send Fine&#45;&gt;Insert Fine Notification</title>
<path fill="none" stroke="#000000" stroke-width="0.71" d="M202.15,-376.97C184.54,-359.69 157.09,-332.74 137,-313.03"/>
<polygon fill="#000000" stroke="#000000" stroke-width="0.71" points="139.53,-310.61 129.94,-306.1 134.63,-315.6 139.53,-310.61"/>
<text text-anchor="middle" x="198.5" y="-337.3" font-family="Times,serif" font-size="14.00">23842</text>
</g>
<!-- end_node -->
<g id="node8" class="node">
<title>end_node</title>
<ellipse fill="none" stroke="black" cx="235.5" cy="-22" rx="18" ry="18"/>
<ellipse fill="none" stroke="black" cx="235.5" cy="-22" rx="22" ry="22"/>
<text text-anchor="start" x="231" y="-18.3" font-family="Times,serif" font-size="14.00">■</text>
</g>
<!-- Send Fine&#45;&gt;end_node -->
<g id="edge9" class="edge">
<title>Send Fine&#45;&gt;end_node</title>
<path fill="none" stroke="#000000" stroke-width="0" d="M223.7,-376.86C228.44,-356 235.5,-319.64 235.5,-288 235.5,-288 235.5,-288 235.5,-112 235.5,-92.81 235.5,-71.28 235.5,-54.21"/>
<polygon fill="#000000" stroke="#000000" stroke-width="0" points="239,-54.22 235.5,-44.22 232,-54.22 239,-54.22"/>
<text text-anchor="middle" x="249.5" y="-196.3" font-family="Times,serif" font-size="14.00">9836</text>
</g>
<!-- Add penalty -->
<g id="node5" class="node">
<title>Add penalty</title>
<polygon fill="#fdfdff" stroke="black" points="173.5,-218 43.5,-218 43.5,-182 173.5,-182 173.5,-218"/>
<text text-anchor="middle" x="108.5" y="-196.3" font-family="Times,serif" font-size="14.00">Add penalty (23842)</text>
</g>
<!-- Insert Fine Notification&#45;&gt;Add penalty -->
<g id="edge4" class="edge">
<title>Insert Fine Notification&#45;&gt;Add penalty</title>
<path fill="none" stroke="#000000" stroke-width="0.71" d="M110.89,-268.8C110.49,-257.47 109.96,-242.36 109.5,-229.29"/>
<polygon fill="#000000" stroke="#000000" stroke-width="0.71" points="113.01,-229.42 109.15,-219.55 106.01,-229.67 113.01,-229.42"/>
<text text-anchor="middle" x="127.5" y="-239.8" font-family="Times,serif" font-size="14.00">23842</text>
</g>
<!-- Send for Credit Collection -->
<g id="node6" class="node">
<title>Send for Credit Collection</title>
<polygon fill="#fdfdff" stroke="black" points="207,-131 0,-131 0,-95 207,-95 207,-131"/>
<text text-anchor="middle" x="103.5" y="-109.3" font-family="Times,serif" font-size="14.00">Send for Credit Collection (23842)</text>
</g>
<!-- Add penalty&#45;&gt;Send for Credit Collection -->
<g id="edge5" class="edge">
<title>Add penalty&#45;&gt;Send for Credit Collection</title>
<path fill="none" stroke="#000000" stroke-width="0.71" d="M107.49,-181.8C106.82,-170.47 105.93,-155.36 105.16,-142.29"/>
<polygon fill="#000000" stroke="#000000" stroke-width="0.71" points="108.67,-142.32 104.59,-132.55 101.68,-142.74 108.67,-142.32"/>
<text text-anchor="middle" x="123.5" y="-152.8" font-family="Times,serif" font-size="14.00">23842</text>
</g>
<!-- Send for Credit Collection&#45;&gt;end_node -->
<g id="edge7" class="edge">
<title>Send for Credit Collection&#45;&gt;end_node</title>
<path fill="none" stroke="#000000" stroke-width="0.71" d="M129.26,-94.63C152.08,-79.24 185.27,-56.87 208.46,-41.23"/>
<polygon fill="#000000" stroke="#000000" stroke-width="0.71" points="210.19,-44.28 216.53,-35.79 206.28,-38.48 210.19,-44.28"/>
<text text-anchor="middle" x="194.5" y="-65.8" font-family="Times,serif" font-size="14.00">23842</text>
</g>
<!-- Payment&#45;&gt;end_node -->
<g id="edge8" class="edge">
<title>Payment&#45;&gt;end_node</title>
<path fill="none" stroke="#000000" stroke-width="0.5" d="M305.63,-322.75C304.75,-303.63 303.5,-271.87 303.5,-244.5 303.5,-244.5 303.5,-244.5 303.5,-112 303.5,-83.2 280.75,-57.94 261.56,-41.76"/>
<polygon fill="#000000" stroke="#000000" stroke-width="0.5" points="263.95,-39.19 253.96,-35.67 259.57,-44.65 263.95,-39.19"/>
<text text-anchor="middle" x="320.5" y="-196.3" font-family="Times,serif" font-size="14.00">23442</text>
</g>
</g>
</svg>
