<?xml version="1.0" encoding="UTF-8" standalone="no"?>
<!DOCTYPE svg PUBLIC "-//W3C//DTD SVG 1.1//EN"
 "http://www.w3.org/Graphics/SVG/1.1/DTD/svg11.dtd">
<!-- Generated by graphviz version 7.0.5 (0)
 -->
<!-- Title: dfg Pages: 1 -->
<svg width="390pt" height="574pt"
 viewBox="0.00 0.00 390.00 574.00" xmlns="http://www.w3.org/2000/svg" xmlns:xlink="http://www.w3.org/1999/xlink">
<g id="graph0" class="graph" transform="scale(1 1) rotate(0) translate(4 570)">
<title>dfg</title>
<polygon fill="white" stroke="none" points="-4,4 -4,-570 386,-570 386,4 -4,4"/>
<!-- start_node -->
<g id="node1" class="node">
<title>start_node</title>
<ellipse fill="none" stroke="black" cx="236.5" cy="-548" rx="18" ry="18"/>
<text text-anchor="start" x="232" y="-544.3" font-family="Times,serif" font-size="14.00">●</text>
</g>
<!-- Create Fine -->
<g id="node2" class="node">
<title>Create Fine</title>
<polygon fill="#9b9bff" stroke="black" points="299.5,-479 173.5,-479 173.5,-443 299.5,-443 299.5,-479"/>
<text text-anchor="middle" x="236.5" y="-457.3" font-family="Times,serif" font-size="14.00">Create Fine (36047)</text>
</g>
<!-- start_node&#45;&gt;Create Fine -->
<g id="edge1" class="edge">
<title>start_node&#45;&gt;Create Fine</title>
<path fill="none" stroke="#000000" stroke-width="10.16" d="M236.5,-529.8C236.5,-520.3 236.5,-508.15 236.5,-496.76"/>
<polygon fill="#000000" stroke="#000000" stroke-width="10.16" points="245.39,-497.11 236.5,-487.11 227.61,-497.11 245.39,-497.11"/>
<text text-anchor="middle" x="253.5" y="-500.8" font-family="Times,serif" font-size="14.00">36047</text>
</g>
<!-- Send Fine -->
<g id="node3" class="node">
<title>Send Fine</title>
<polygon fill="#e9e9ff" stroke="black" points="241.5,-392 123.5,-392 123.5,-356 241.5,-356 241.5,-392"/>
<text text-anchor="middle" x="182.5" y="-370.3" font-family="Times,serif" font-size="14.00">Send Fine (21059)</text>
</g>
<!-- Create Fine&#45;&gt;Send Fine -->
<g id="edge2" class="edge">
<title>Create Fine&#45;&gt;Send Fine</title>
<path fill="none" stroke="#000000" stroke-width="6" d="M225.57,-442.8C218.88,-432.27 210.12,-418.48 202.25,-406.09"/>
<polygon fill="#000000" stroke="#000000" stroke-width="6" points="206.85,-403.54 197.06,-397.91 197.99,-409.17 206.85,-403.54"/>
<text text-anchor="middle" x="229.5" y="-413.8" font-family="Times,serif" font-size="14.00">21059</text>
</g>
<!-- Payment -->
<g id="node7" class="node">
<title>Payment</title>
<polygon fill="#ececff" stroke="black" points="336,-131 225,-131 225,-95 336,-95 336,-131"/>
<text text-anchor="middle" x="280.5" y="-109.3" font-family="Times,serif" font-size="14.00">Payment (20375)</text>
</g>
<!-- Create Fine&#45;&gt;Payment -->
<g id="edge6" class="edge">
<title>Create Fine&#45;&gt;Payment</title>
<path fill="none" stroke="#000000" stroke-width="4.32" d="M251.64,-442.78C264.37,-426.48 280.5,-400.76 280.5,-375 280.5,-375 280.5,-375 280.5,-199 280.5,-181.95 280.5,-162.98 280.5,-147.29"/>
<polygon fill="#000000" stroke="#000000" stroke-width="4.32" points="284.28,-147.36 280.5,-137.36 276.72,-147.36 284.28,-147.36"/>
<text text-anchor="middle" x="297.5" y="-283.3" font-family="Times,serif" font-size="14.00">14988</text>
</g>
<!-- Insert Fine Notification -->
<g id="node4" class="node">
<title>Insert Fine Notification</title>
<polygon fill="#e9e9ff" stroke="black" points="244,-305 53,-305 53,-269 244,-269 244,-305"/>
<text text-anchor="middle" x="148.5" y="-283.3" font-family="Times,serif" font-size="14.00">Insert Fine Notification (21059)</text>
</g>
<!-- Send Fine&#45;&gt;Insert Fine Notification -->
<g id="edge3" class="edge">
<title>Send Fine&#45;&gt;Insert Fine Notification</title>
<path fill="none" stroke="#000000" stroke-width="6" d="M175.62,-355.8C171.59,-345.73 166.37,-332.67 161.59,-320.72"/>
<polygon fill="#000000" stroke="#000000" stroke-width="6" points="166.47,-318.79 157.88,-311.46 156.72,-322.69 166.47,-318.79"/>
<text text-anchor="middle" x="185.5" y="-326.8" font-family="Times,serif" font-size="14.00">21059</text>
</g>
<!-- Add penalty -->
<g id="node5" class="node">
<title>Add penalty</title>
<polygon fill="#e9e9ff" stroke="black" points="213.5,-218 83.5,-218 83.5,-182 213.5,-182 213.5,-218"/>
<text text-anchor="middle" x="148.5" y="-196.3" font-family="Times,serif" font-size="14.00">Add penalty (21059)</text>
</g>
<!-- Insert Fine Notification&#45;&gt;Add penalty -->
<g id="edge4" class="edge">
<title>Insert Fine Notification&#45;&gt;Add penalty</title>
<path fill="none" stroke="#000000" stroke-width="6" d="M148.5,-268.8C148.5,-258.96 148.5,-246.27 148.5,-234.53"/>
<polygon fill="#000000" stroke="#000000" stroke-width="6" points="153.75,-234.92 148.5,-224.92 143.25,-234.92 153.75,-234.92"/>
<text text-anchor="middle" x="165.5" y="-239.8" font-family="Times,serif" font-size="14.00">21059</text>
</g>
<!-- Send for Credit Collection -->
<g id="node6" class="node">
<title>Send for Credit Collection</title>
<polygon fill="#ffffff" stroke="black" points="207,-131 0,-131 0,-95 207,-95 207,-131"/>
<text text-anchor="middle" x="103.5" y="-109.3" font-family="Times,serif" font-size="14.00">Send for Credit Collection (16897)</text>
</g>
<!-- Add penalty&#45;&gt;Send for Credit Collection -->
<g id="edge5" class="edge">
<title>Add penalty&#45;&gt;Send for Credit Collection</title>
<path fill="none" stroke="#000000" stroke-width="4.85" d="M139.39,-181.8C133.88,-171.38 126.68,-157.78 120.17,-145.5"/>
<polygon fill="#000000" stroke="#000000" stroke-width="4.85" points="124.08,-143.81 115.65,-136.95 116.58,-147.77 124.08,-143.81"/>
<text text-anchor="middle" x="146.5" y="-152.8" font-family="Times,serif" font-size="14.00">16897</text>
</g>
<!-- Add penalty&#45;&gt;Payment -->
<g id="edge7" class="edge">
<title>Add penalty&#45;&gt;Payment</title>
<path fill="none" stroke="#000000" stroke-width="1.31" d="M175.53,-181.59C195.2,-168.93 222.05,-151.64 243.67,-137.71"/>
<polygon fill="#000000" stroke="#000000" stroke-width="1.31" points="245.32,-140.82 251.83,-132.46 241.53,-134.93 245.32,-140.82"/>
<text text-anchor="middle" x="235.5" y="-152.8" font-family="Times,serif" font-size="14.00">4162</text>
</g>
<!-- end_node -->
<g id="node8" class="node">
<title>end_node</title>
<ellipse fill="none" stroke="black" cx="191.5" cy="-22" rx="18" ry="18"/>
<ellipse fill="none" stroke="black" cx="191.5" cy="-22" rx="22" ry="22"/>
<text text-anchor="start" x="187" y="-18.3" font-family="Times,serif" font-size="14.00">■</text>
</g>
<!-- Send for Credit Collection&#45;&gt;end_node -->
<g id="edge9" class="edge">
<title>Send for Credit Collection&#45;&gt;end_node</title>
<path fill="none" stroke="#000000" stroke-width="4.85" d="M120.47,-94.84C133.11,-82.05 150.61,-64.35 165.08,-49.72"/>
<polygon fill="#000000" stroke="#000000" stroke-width="4.85" points="167.97,-52.83 171.98,-42.74 161.94,-46.87 167.97,-52.83"/>
<text text-anchor="middle" x="170.5" y="-65.8" font-family="Times,serif" font-size="14.00">16897</text>
</g>
<!-- Payment&#45;&gt;Payment -->
<g id="edge8" class="edge">
<title>Payment&#45;&gt;Payment</title>
<path fill="none" stroke="#000000" stroke-width="0.5" d="M336.27,-120.74C346.67,-119.78 354,-117.21 354,-113 354,-110.44 351.28,-108.48 346.8,-107.12"/>
<polygon fill="#000000" stroke="#000000" stroke-width="0.5" points="347.47,-103.69 337.01,-105.39 346.25,-110.58 347.47,-103.69"/>
<text text-anchor="middle" x="368" y="-109.3" font-family="Times,serif" font-size="14.00">1225</text>
</g>
<!-- Payment&#45;&gt;end_node -->
<g id="edge10" class="edge">
<title>Payment&#45;&gt;end_node</title>
<path fill="none" stroke="#000000" stroke-width="5.47" d="M263.34,-94.84C250.55,-82.05 232.85,-64.35 218.22,-49.72"/>
<polygon fill="#000000" stroke="#000000" stroke-width="5.47" points="221.76,-46.49 211.3,-42.8 214.99,-53.26 221.76,-46.49"/>
<text text-anchor="middle" x="260.5" y="-65.8" font-family="Times,serif" font-size="14.00">19150</text>
</g>
</g>
</svg>
