<?xml version="1.0" encoding="UTF-8" standalone="no"?>
<!DOCTYPE svg PUBLIC "-//W3C//DTD SVG 1.1//EN"
 "http://www.w3.org/Graphics/SVG/1.1/DTD/svg11.dtd">
<!-- Generated by graphviz version 7.0.5 (0)
 -->
<!-- Title: dfg Pages: 1 -->
<svg width="652pt" height="1030pt"
 viewBox="0.00 0.00 651.50 1030.00" xmlns="http://www.w3.org/2000/svg" xmlns:xlink="http://www.w3.org/1999/xlink">
<g id="graph0" class="graph" transform="scale(1 1) rotate(0) translate(4 1026)">
<title>dfg</title>
<polygon fill="white" stroke="none" points="-4,4 -4,-1026 647.5,-1026 647.5,4 -4,4"/>
<!-- start_node -->
<g id="node1" class="node">
<title>start_node</title>
<ellipse fill="none" stroke="black" cx="558.5" cy="-1004" rx="18" ry="18"/>
<text text-anchor="start" x="554" y="-1000.3" font-family="Times,serif" font-size="14.00">●</text>
</g>
<!-- Create Fine -->
<g id="node2" class="node">
<title>Create Fine</title>
<polygon fill="#9b9bff" stroke="black" points="611.5,-935 505.5,-935 505.5,-899 611.5,-899 611.5,-935"/>
<text text-anchor="middle" x="558.5" y="-913.3" font-family="Times,serif" font-size="14.00">Create Fine (76)</text>
</g>
<!-- start_node&#45;&gt;Create Fine -->
<g id="edge1" class="edge">
<title>start_node&#45;&gt;Create Fine</title>
<path fill="none" stroke="#000000" stroke-width="6" d="M558.5,-985.8C558.5,-975.96 558.5,-963.27 558.5,-951.53"/>
<polygon fill="#000000" stroke="#000000" stroke-width="6" points="563.75,-951.92 558.5,-941.92 553.25,-951.92 563.75,-951.92"/>
<text text-anchor="middle" x="565.5" y="-956.8" font-family="Times,serif" font-size="14.00">76</text>
</g>
<!-- Send Fine -->
<g id="node3" class="node">
<title>Send Fine</title>
<polygon fill="#9b9bff" stroke="black" points="607.5,-848 509.5,-848 509.5,-812 607.5,-812 607.5,-848"/>
<text text-anchor="middle" x="558.5" y="-826.3" font-family="Times,serif" font-size="14.00">Send Fine (76)</text>
</g>
<!-- Create Fine&#45;&gt;Send Fine -->
<g id="edge2" class="edge">
<title>Create Fine&#45;&gt;Send Fine</title>
<path fill="none" stroke="#000000" stroke-width="6" d="M558.5,-898.8C558.5,-888.96 558.5,-876.27 558.5,-864.53"/>
<polygon fill="#000000" stroke="#000000" stroke-width="6" points="563.75,-864.92 558.5,-854.92 553.25,-864.92 563.75,-864.92"/>
<text text-anchor="middle" x="565.5" y="-869.8" font-family="Times,serif" font-size="14.00">76</text>
</g>
<!-- Insert Fine Notification -->
<g id="node4" class="node">
<title>Insert Fine Notification</title>
<polygon fill="#9b9bff" stroke="black" points="643.5,-761 473.5,-761 473.5,-725 643.5,-725 643.5,-761"/>
<text text-anchor="middle" x="558.5" y="-739.3" font-family="Times,serif" font-size="14.00">Insert Fine Notification (76)</text>
</g>
<!-- Send Fine&#45;&gt;Insert Fine Notification -->
<g id="edge3" class="edge">
<title>Send Fine&#45;&gt;Insert Fine Notification</title>
<path fill="none" stroke="#000000" stroke-width="6" d="M558.5,-811.8C558.5,-801.96 558.5,-789.27 558.5,-777.53"/>
<polygon fill="#000000" stroke="#000000" stroke-width="6" points="563.75,-777.92 558.5,-767.92 553.25,-777.92 563.75,-777.92"/>
<text text-anchor="middle" x="565.5" y="-782.8" font-family="Times,serif" font-size="14.00">76</text>
</g>
<!-- Insert Date Appeal to Prefecture -->
<g id="node5" class="node">
<title>Insert Date Appeal to Prefecture</title>
<polygon fill="#9b9bff" stroke="black" points="599.5,-674 381.5,-674 381.5,-638 599.5,-638 599.5,-674"/>
<text text-anchor="middle" x="490.5" y="-652.3" font-family="Times,serif" font-size="14.00">Insert Date Appeal to Prefecture (76)</text>
</g>
<!-- Insert Fine Notification&#45;&gt;Insert Date Appeal to Prefecture -->
<g id="edge4" class="edge">
<title>Insert Fine Notification&#45;&gt;Insert Date Appeal to Prefecture</title>
<path fill="none" stroke="#000000" stroke-width="5.34" d="M544.74,-724.8C536.04,-713.93 524.56,-699.58 514.41,-686.88"/>
<polygon fill="#000000" stroke="#000000" stroke-width="5.34" points="518.31,-684.28 508.41,-679.39 511.01,-690.12 518.31,-684.28"/>
<text text-anchor="middle" x="535.5" y="-695.8" font-family="Times,serif" font-size="14.00">67</text>
</g>
<!-- Add penalty -->
<g id="node7" class="node">
<title>Add penalty</title>
<polygon fill="#9b9bff" stroke="black" points="554.5,-500 444.5,-500 444.5,-464 554.5,-464 554.5,-500"/>
<text text-anchor="middle" x="499.5" y="-478.3" font-family="Times,serif" font-size="14.00">Add penalty (76)</text>
</g>
<!-- Insert Fine Notification&#45;&gt;Add penalty -->
<g id="edge14" class="edge">
<title>Insert Fine Notification&#45;&gt;Add penalty</title>
<path fill="none" stroke="#000000" stroke-width="1.09" d="M576.06,-724.77C587.75,-712 602.1,-693.49 608.5,-674 613.49,-658.8 613.27,-653.27 608.5,-638 592.42,-586.49 552.2,-537.35 525.37,-508.7"/>
<polygon fill="#000000" stroke="#000000" stroke-width="1.09" points="528.09,-506.48 518.65,-501.67 523.03,-511.32 528.09,-506.48"/>
<text text-anchor="middle" x="605" y="-608.8" font-family="Times,serif" font-size="14.00">9</text>
</g>
<!-- Send Appeal to Prefecture -->
<g id="node6" class="node">
<title>Send Appeal to Prefecture</title>
<polygon fill="#9b9bff" stroke="black" points="480,-587 295,-587 295,-551 480,-551 480,-587"/>
<text text-anchor="middle" x="387.5" y="-565.3" font-family="Times,serif" font-size="14.00">Send Appeal to Prefecture (76)</text>
</g>
<!-- Insert Date Appeal to Prefecture&#45;&gt;Send Appeal to Prefecture -->
<g id="edge5" class="edge">
<title>Insert Date Appeal to Prefecture&#45;&gt;Send Appeal to Prefecture</title>
<path fill="none" stroke="#000000" stroke-width="4.9" d="M469.66,-637.8C455.65,-626.24 436.88,-610.75 420.82,-597.5"/>
<polygon fill="#000000" stroke="#000000" stroke-width="4.9" points="423.9,-594.48 413.46,-591.42 418.45,-601.1 423.9,-594.48"/>
<text text-anchor="middle" x="452.5" y="-608.8" font-family="Times,serif" font-size="14.00">61</text>
</g>
<!-- Insert Date Appeal to Prefecture&#45;&gt;Add penalty -->
<g id="edge11" class="edge">
<title>Insert Date Appeal to Prefecture&#45;&gt;Add penalty</title>
<path fill="none" stroke="#000000" stroke-width="1.53" d="M491.41,-637.56C492.95,-608.2 496.07,-548.59 497.95,-512.58"/>
<polygon fill="#000000" stroke="#000000" stroke-width="1.53" points="501.44,-512.96 498.46,-502.79 494.45,-512.6 501.44,-512.96"/>
<text text-anchor="middle" x="502.5" y="-565.3" font-family="Times,serif" font-size="14.00">15</text>
</g>
<!-- Send Appeal to Prefecture&#45;&gt;Add penalty -->
<g id="edge6" class="edge">
<title>Send Appeal to Prefecture&#45;&gt;Add penalty</title>
<path fill="none" stroke="#000000" stroke-width="4.24" d="M427.49,-550.57C437.1,-545.55 447.02,-539.61 455.5,-533 463.12,-527.06 470.45,-519.67 476.87,-512.42"/>
<polygon fill="#000000" stroke="#000000" stroke-width="4.24" points="479.57,-514.97 483.11,-504.91 473.86,-510.23 479.57,-514.97"/>
<text text-anchor="middle" x="478.5" y="-521.8" font-family="Times,serif" font-size="14.00">52</text>
</g>
<!-- Receive Result Appeal from Prefecture -->
<g id="node8" class="node">
<title>Receive Result Appeal from Prefecture</title>
<polygon fill="#9b9bff" stroke="black" points="541,-413 284,-413 284,-377 541,-377 541,-413"/>
<text text-anchor="middle" x="412.5" y="-391.3" font-family="Times,serif" font-size="14.00">Receive Result Appeal from Prefecture (76)</text>
</g>
<!-- Send Appeal to Prefecture&#45;&gt;Receive Result Appeal from Prefecture -->
<g id="edge13" class="edge">
<title>Send Appeal to Prefecture&#45;&gt;Receive Result Appeal from Prefecture</title>
<path fill="none" stroke="#000000" stroke-width="2.19" d="M390.03,-550.56C394.26,-521.46 402.82,-462.63 408.06,-426.53"/>
<polygon fill="#000000" stroke="#000000" stroke-width="2.19" points="411.51,-427.16 409.48,-416.76 404.58,-426.15 411.51,-427.16"/>
<text text-anchor="middle" x="409.5" y="-478.3" font-family="Times,serif" font-size="14.00">24</text>
</g>
<!-- Add penalty&#45;&gt;Insert Date Appeal to Prefecture -->
<g id="edge15" class="edge">
<title>Add penalty&#45;&gt;Insert Date Appeal to Prefecture</title>
<path fill="none" stroke="#000000" stroke-width="1.09" d="M505.73,-500.26C507.53,-505.85 509.32,-512.13 510.5,-518 519.41,-562.49 520.72,-576.92 506.5,-620 505.7,-622.42 504.78,-624.9 503.8,-627.37"/>
<polygon fill="#000000" stroke="#000000" stroke-width="1.09" points="500.67,-625.78 499.9,-636.35 507.09,-628.57 500.67,-625.78"/>
<text text-anchor="middle" x="520" y="-565.3" font-family="Times,serif" font-size="14.00">9</text>
</g>
<!-- Add penalty&#45;&gt;Send Appeal to Prefecture -->
<g id="edge12" class="edge">
<title>Add penalty&#45;&gt;Send Appeal to Prefecture</title>
<path fill="none" stroke="#000000" stroke-width="1.53" d="M464.67,-500.48C455.51,-505.65 445.87,-511.64 437.5,-518 428.27,-525.01 419.04,-533.66 411.07,-541.78"/>
<polygon fill="#000000" stroke="#000000" stroke-width="1.53" points="408.63,-539.27 404.27,-548.93 413.7,-544.09 408.63,-539.27"/>
<text text-anchor="middle" x="444.5" y="-521.8" font-family="Times,serif" font-size="14.00">15</text>
</g>
<!-- Add penalty&#45;&gt;Receive Result Appeal from Prefecture -->
<g id="edge7" class="edge">
<title>Add penalty&#45;&gt;Receive Result Appeal from Prefecture</title>
<path fill="none" stroke="#000000" stroke-width="4.24" d="M481.89,-463.8C470.41,-452.58 455.15,-437.67 441.86,-424.69"/>
<polygon fill="#000000" stroke="#000000" stroke-width="4.24" points="444.48,-422.06 434.74,-417.73 439.3,-427.37 444.48,-422.06"/>
<text text-anchor="middle" x="467.5" y="-434.8" font-family="Times,serif" font-size="14.00">52</text>
</g>
<!-- Notify Result Appeal to Offender -->
<g id="node9" class="node">
<title>Notify Result Appeal to Offender</title>
<polygon fill="#9c9cff" stroke="black" points="417,-326 192,-326 192,-290 417,-290 417,-326"/>
<text text-anchor="middle" x="304.5" y="-304.3" font-family="Times,serif" font-size="14.00">Notify Result Appeal to Offender (75)</text>
</g>
<!-- Receive Result Appeal from Prefecture&#45;&gt;Notify Result Appeal to Offender -->
<g id="edge8" class="edge">
<title>Receive Result Appeal from Prefecture&#45;&gt;Notify Result Appeal to Offender</title>
<path fill="none" stroke="#000000" stroke-width="5.93" d="M390.38,-376.59C375.68,-365.02 356.06,-349.58 339.28,-336.37"/>
<polygon fill="#000000" stroke="#000000" stroke-width="5.93" points="342.71,-332.47 331.64,-330.36 336.3,-340.62 342.71,-332.47"/>
<text text-anchor="middle" x="372.5" y="-347.8" font-family="Times,serif" font-size="14.00">75</text>
</g>
<!-- Payment -->
<g id="node11" class="node">
<title>Payment</title>
<polygon fill="#e0e0ff" stroke="black" points="413,-131 322,-131 322,-95 413,-95 413,-131"/>
<text text-anchor="middle" x="367.5" y="-109.3" font-family="Times,serif" font-size="14.00">Payment (30)</text>
</g>
<!-- Receive Result Appeal from Prefecture&#45;&gt;Payment -->
<g id="edge19" class="edge">
<title>Receive Result Appeal from Prefecture&#45;&gt;Payment</title>
<path fill="none" stroke="#ff0000" stroke-width="0.5" stroke-dasharray="5,2" d="M416.79,-376.52C419.9,-362.86 423.86,-343.35 425.5,-326 433.01,-246.71 432.31,-220.64 397.5,-149 395.91,-145.73 393.95,-142.53 391.78,-139.46"/>
<polygon fill="#ff0000" stroke="#ff0000" stroke-width="0.5" points="394.73,-137.54 385.79,-131.85 389.23,-141.87 394.73,-137.54"/>
<text text-anchor="middle" x="433" y="-260.8" font-family="Times,serif" font-size="14.00">1</text>
</g>
<!-- Send for Credit Collection -->
<g id="node10" class="node">
<title>Send for Credit Collection</title>
<polygon fill="#d6d6ff" stroke="black" points="187,-185 0,-185 0,-149 187,-149 187,-185"/>
<text text-anchor="middle" x="93.5" y="-163.3" font-family="Times,serif" font-size="14.00">Send for Credit Collection (37)</text>
</g>
<!-- Notify Result Appeal to Offender&#45;&gt;Send for Credit Collection -->
<g id="edge9" class="edge">
<title>Notify Result Appeal to Offender&#45;&gt;Send for Credit Collection</title>
<path fill="none" stroke="#000000" stroke-width="3.14" d="M219.34,-289.55C206.44,-284.96 193.72,-279.21 182.5,-272 152.81,-252.92 127.62,-220.98 111.7,-197.52"/>
<polygon fill="#000000" stroke="#000000" stroke-width="3.14" points="114.84,-195.93 106.43,-189.47 108.98,-199.76 114.84,-195.93"/>
<text text-anchor="middle" x="189.5" y="-260.8" font-family="Times,serif" font-size="14.00">37</text>
</g>
<!-- Notify Result Appeal to Offender&#45;&gt;Payment -->
<g id="edge10" class="edge">
<title>Notify Result Appeal to Offender&#45;&gt;Payment</title>
<path fill="none" stroke="#000000" stroke-width="2.26" d="M332.87,-289.71C349.56,-277.77 369.17,-260.25 378.5,-239 391.85,-208.6 385.4,-170.08 378,-143.89"/>
<polygon fill="#000000" stroke="#000000" stroke-width="2.26" points="381.46,-143.22 375.15,-134.7 374.77,-145.29 381.46,-143.22"/>
<text text-anchor="middle" x="393.5" y="-217.3" font-family="Times,serif" font-size="14.00">25</text>
</g>
<!-- Appeal to Judge -->
<g id="node12" class="node">
<title>Appeal to Judge</title>
<polygon fill="#ffffff" stroke="black" points="370,-239 239,-239 239,-203 370,-203 370,-239"/>
<text text-anchor="middle" x="304.5" y="-217.3" font-family="Times,serif" font-size="14.00">Appeal to Judge (10)</text>
</g>
<!-- Notify Result Appeal to Offender&#45;&gt;Appeal to Judge -->
<g id="edge16" class="edge">
<title>Notify Result Appeal to Offender&#45;&gt;Appeal to Judge</title>
<path fill="none" stroke="#000000" stroke-width="1.16" d="M304.5,-289.8C304.5,-278.7 304.5,-263.97 304.5,-251.08"/>
<polygon fill="#000000" stroke="#000000" stroke-width="1.16" points="308,-251.22 304.5,-241.22 301,-251.22 308,-251.22"/>
<text text-anchor="middle" x="311.5" y="-260.8" font-family="Times,serif" font-size="14.00">10</text>
</g>
<!-- end_node -->
<g id="node13" class="node">
<title>end_node</title>
<ellipse fill="none" stroke="black" cx="233.5" cy="-22" rx="18" ry="18"/>
<ellipse fill="none" stroke="black" cx="233.5" cy="-22" rx="22" ry="22"/>
<text text-anchor="start" x="229" y="-18.3" font-family="Times,serif" font-size="14.00">■</text>
</g>
<!-- Notify Result Appeal to Offender&#45;&gt;end_node -->
<g id="edge23" class="edge">
<title>Notify Result Appeal to Offender&#45;&gt;end_node</title>
<path fill="none" stroke="#ff0000" stroke-width="0.65" stroke-dasharray="5,2" d="M275.37,-289.52C258.55,-277.63 238.9,-260.21 229.5,-239 202.45,-177.96 214.95,-97.37 225.08,-53.93"/>
<polygon fill="#ff0000" stroke="#ff0000" stroke-width="0.65" points="228.43,-54.97 227.41,-44.42 221.63,-53.3 228.43,-54.97"/>
<text text-anchor="middle" x="219" y="-163.3" font-family="Times,serif" font-size="14.00">3</text>
</g>
<!-- Send for Credit Collection&#45;&gt;end_node -->
<g id="edge20" class="edge">
<title>Send for Credit Collection&#45;&gt;end_node</title>
<path fill="none" stroke="#000000" stroke-width="3.14" d="M110.39,-148.75C134.78,-123.83 180.06,-77.58 208.39,-48.65"/>
<polygon fill="#000000" stroke="#000000" stroke-width="3.14" points="210.86,-51.13 215.36,-41.53 205.86,-46.23 210.86,-51.13"/>
<text text-anchor="middle" x="168.5" y="-109.3" font-family="Times,serif" font-size="14.00">37</text>
</g>
<!-- Payment&#45;&gt;Payment -->
<g id="edge18" class="edge">
<title>Payment&#45;&gt;Payment</title>
<path fill="none" stroke="#ff0000" stroke-width="0.57" stroke-dasharray="5,2" d="M413.45,-120.94C423.6,-120.19 431,-117.55 431,-113 431,-110.3 428.39,-108.27 424.15,-106.91"/>
<polygon fill="#ff0000" stroke="#ff0000" stroke-width="0.57" points="424.76,-103.47 414.31,-105.21 423.56,-110.36 424.76,-103.47"/>
<text text-anchor="middle" x="434.5" y="-109.3" font-family="Times,serif" font-size="14.00">2</text>
</g>
<!-- Payment&#45;&gt;end_node -->
<g id="edge21" class="edge">
<title>Payment&#45;&gt;end_node</title>
<path fill="none" stroke="#000000" stroke-width="2.48" d="M342.63,-94.68C328.58,-84.96 310.64,-72.68 294.5,-62 284.44,-55.34 273.35,-48.19 263.41,-41.86"/>
<polygon fill="#000000" stroke="#000000" stroke-width="2.48" points="265.5,-39.04 255.19,-36.64 261.75,-44.95 265.5,-39.04"/>
<text text-anchor="middle" x="324.5" y="-65.8" font-family="Times,serif" font-size="14.00">28</text>
</g>
<!-- Appeal to Judge&#45;&gt;Payment -->
<g id="edge17" class="edge">
<title>Appeal to Judge&#45;&gt;Payment</title>
<path fill="none" stroke="#ff0000" stroke-width="0.57" stroke-dasharray="5,2" d="M314.62,-202.97C324.62,-186.15 340.06,-160.17 351.68,-140.62"/>
<polygon fill="#ff0000" stroke="#ff0000" stroke-width="0.57" points="354.65,-142.47 356.75,-132.09 348.63,-138.89 354.65,-142.47"/>
<text text-anchor="middle" x="349" y="-163.3" font-family="Times,serif" font-size="14.00">2</text>
</g>
<!-- Appeal to Judge&#45;&gt;end_node -->
<g id="edge22" class="edge">
<title>Appeal to Judge&#45;&gt;end_node</title>
<path fill="none" stroke="#000000" stroke-width="1.01" d="M298.2,-202.52C286.14,-169.05 259.64,-95.54 244.57,-53.71"/>
<polygon fill="#000000" stroke="#000000" stroke-width="1.01" points="247.93,-52.72 241.25,-44.5 241.35,-55.1 247.93,-52.72"/>
<text text-anchor="middle" x="275" y="-109.3" font-family="Times,serif" font-size="14.00">8</text>
</g>
</g>
</svg>
