<?xml version="1.0" encoding="UTF-8" standalone="no"?>
<!DOCTYPE svg PUBLIC "-//W3C//DTD SVG 1.1//EN"
 "http://www.w3.org/Graphics/SVG/1.1/DTD/svg11.dtd">
<!-- Generated by graphviz version 7.0.5 (0)
 -->
<!-- Title: dfg Pages: 1 -->
<svg width="781pt" height="1009pt"
 viewBox="0.00 0.00 780.50 1009.00" xmlns="http://www.w3.org/2000/svg" xmlns:xlink="http://www.w3.org/1999/xlink">
<g id="graph0" class="graph" transform="scale(1 1) rotate(0) translate(4 1005)">
<title>dfg</title>
<polygon fill="white" stroke="none" points="-4,4 -4,-1005 776.5,-1005 776.5,4 -4,4"/>
<!-- start_node -->
<g id="node1" class="node">
<title>start_node</title>
<ellipse fill="none" stroke="black" cx="586" cy="-983" rx="18" ry="18"/>
<text text-anchor="start" x="581.5" y="-979.3" font-family="Times,serif" font-size="14.00">●</text>
</g>
<!-- Create Fine -->
<g id="node2" class="node">
<title>Create Fine</title>
<polygon fill="#9b9bff" stroke="black" points="642.5,-914 529.5,-914 529.5,-878 642.5,-878 642.5,-914"/>
<text text-anchor="middle" x="586" y="-892.3" font-family="Times,serif" font-size="14.00">Create Fine (102)</text>
</g>
<!-- start_node&#45;&gt;Create Fine -->
<g id="edge1" class="edge">
<title>start_node&#45;&gt;Create Fine</title>
<path fill="none" stroke="#000000" stroke-width="6" d="M586,-964.8C586,-954.96 586,-942.27 586,-930.53"/>
<polygon fill="#000000" stroke="#000000" stroke-width="6" points="591.25,-930.92 586,-920.92 580.75,-930.92 591.25,-930.92"/>
<text text-anchor="middle" x="596.5" y="-935.8" font-family="Times,serif" font-size="14.00">102</text>
</g>
<!-- Send Fine -->
<g id="node3" class="node">
<title>Send Fine</title>
<polygon fill="#9b9bff" stroke="black" points="638,-827 534,-827 534,-791 638,-791 638,-827"/>
<text text-anchor="middle" x="586" y="-805.3" font-family="Times,serif" font-size="14.00">Send Fine (102)</text>
</g>
<!-- Create Fine&#45;&gt;Send Fine -->
<g id="edge2" class="edge">
<title>Create Fine&#45;&gt;Send Fine</title>
<path fill="none" stroke="#000000" stroke-width="6" d="M586,-877.8C586,-867.96 586,-855.27 586,-843.53"/>
<polygon fill="#000000" stroke="#000000" stroke-width="6" points="591.25,-843.92 586,-833.92 580.75,-843.92 591.25,-843.92"/>
<text text-anchor="middle" x="596.5" y="-848.8" font-family="Times,serif" font-size="14.00">102</text>
</g>
<!-- Insert Fine Notification -->
<g id="node4" class="node">
<title>Insert Fine Notification</title>
<polygon fill="#9b9bff" stroke="black" points="772.5,-740 595.5,-740 595.5,-704 772.5,-704 772.5,-740"/>
<text text-anchor="middle" x="684" y="-718.3" font-family="Times,serif" font-size="14.00">Insert Fine Notification (102)</text>
</g>
<!-- Send Fine&#45;&gt;Insert Fine Notification -->
<g id="edge3" class="edge">
<title>Send Fine&#45;&gt;Insert Fine Notification</title>
<path fill="none" stroke="#000000" stroke-width="5.73" d="M605.83,-790.8C619.03,-779.35 636.66,-764.06 651.84,-750.89"/>
<polygon fill="#000000" stroke="#000000" stroke-width="5.73" points="654.76,-754.99 659.03,-744.66 648.19,-747.42 654.76,-754.99"/>
<text text-anchor="middle" x="647" y="-761.8" font-family="Times,serif" font-size="14.00">97</text>
</g>
<!-- Insert Date Appeal to Prefecture -->
<g id="node5" class="node">
<title>Insert Date Appeal to Prefecture</title>
<polygon fill="#9d9dff" stroke="black" points="679,-653 461,-653 461,-617 679,-617 679,-653"/>
<text text-anchor="middle" x="570" y="-631.3" font-family="Times,serif" font-size="14.00">Insert Date Appeal to Prefecture (99)</text>
</g>
<!-- Send Fine&#45;&gt;Insert Date Appeal to Prefecture -->
<g id="edge20" class="edge">
<title>Send Fine&#45;&gt;Insert Date Appeal to Prefecture</title>
<path fill="none" stroke="#ff0000" stroke-width="0.72" stroke-dasharray="5,2" d="M584.14,-790.68C582.68,-776.94 580.63,-757.25 579,-740 576.57,-714.39 574.07,-685.21 572.32,-664.29"/>
<polygon fill="#ff0000" stroke="#ff0000" stroke-width="0.72" points="575.82,-664.06 571.5,-654.39 568.84,-664.64 575.82,-664.06"/>
<text text-anchor="middle" x="582.5" y="-718.3" font-family="Times,serif" font-size="14.00">5</text>
</g>
<!-- Insert Fine Notification&#45;&gt;Insert Date Appeal to Prefecture -->
<g id="edge4" class="edge">
<title>Insert Fine Notification&#45;&gt;Insert Date Appeal to Prefecture</title>
<path fill="none" stroke="#000000" stroke-width="5.29" d="M660.57,-703.56C653.04,-697.95 644.67,-691.72 637,-686 627,-678.55 616.16,-670.46 606.18,-663.01"/>
<polygon fill="#000000" stroke="#000000" stroke-width="5.29" points="609.08,-659.4 598.3,-657.13 603.54,-666.82 609.08,-659.4"/>
<text text-anchor="middle" x="644" y="-674.8" font-family="Times,serif" font-size="14.00">89</text>
</g>
<!-- Add penalty -->
<g id="node6" class="node">
<title>Add penalty</title>
<polygon fill="#9b9bff" stroke="black" points="513,-479 397,-479 397,-443 513,-443 513,-479"/>
<text text-anchor="middle" x="455" y="-457.3" font-family="Times,serif" font-size="14.00">Add penalty (102)</text>
</g>
<!-- Insert Fine Notification&#45;&gt;Add penalty -->
<g id="edge14" class="edge">
<title>Insert Fine Notification&#45;&gt;Add penalty</title>
<path fill="none" stroke="#000000" stroke-width="0.94" d="M688.82,-703.71C693.82,-682.46 699.46,-645.7 688,-617 660.72,-548.68 636.77,-535.36 574,-497 558.78,-487.7 540.96,-480.76 523.81,-475.61"/>
<polygon fill="#000000" stroke="#000000" stroke-width="0.94" points="525.18,-472.36 514.6,-473.02 523.28,-479.1 525.18,-472.36"/>
<text text-anchor="middle" x="682.5" y="-587.8" font-family="Times,serif" font-size="14.00">9</text>
</g>
<!-- Send Appeal to Prefecture -->
<g id="node7" class="node">
<title>Send Appeal to Prefecture</title>
<polygon fill="#9d9dff" stroke="black" points="573.5,-131 388.5,-131 388.5,-95 573.5,-95 573.5,-131"/>
<text text-anchor="middle" x="481" y="-109.3" font-family="Times,serif" font-size="14.00">Send Appeal to Prefecture (99)</text>
</g>
<!-- Insert Fine Notification&#45;&gt;Send Appeal to Prefecture -->
<g id="edge22" class="edge">
<title>Insert Fine Notification&#45;&gt;Send Appeal to Prefecture</title>
<path fill="none" stroke="#ff0000" stroke-width="0.66" stroke-dasharray="5,2" d="M706.37,-703.67C723.78,-688.07 745,-663.43 745,-636 745,-636 745,-636 745,-199 745,-163.72 658.49,-140.98 584.52,-127.98"/>
<polygon fill="#ff0000" stroke="#ff0000" stroke-width="0.66" points="585.14,-124.54 574.69,-126.3 583.96,-131.44 585.14,-124.54"/>
<text text-anchor="middle" x="748.5" y="-413.8" font-family="Times,serif" font-size="14.00">4</text>
</g>
<!-- Insert Date Appeal to Prefecture&#45;&gt;Insert Fine Notification -->
<g id="edge21" class="edge">
<title>Insert Date Appeal to Prefecture&#45;&gt;Insert Fine Notification</title>
<path fill="none" stroke="#ff0000" stroke-width="0.72" stroke-dasharray="5,2" d="M622.71,-653.47C632.72,-658.21 642.66,-664.01 651,-671 658.68,-677.44 665.25,-686.11 670.46,-694.42"/>
<polygon fill="#ff0000" stroke="#ff0000" stroke-width="0.72" points="667.34,-696.02 675.39,-702.92 673.4,-692.51 667.34,-696.02"/>
<text text-anchor="middle" x="667.5" y="-674.8" font-family="Times,serif" font-size="14.00">5</text>
</g>
<!-- Insert Date Appeal to Prefecture&#45;&gt;Add penalty -->
<g id="edge5" class="edge">
<title>Insert Date Appeal to Prefecture&#45;&gt;Add penalty</title>
<path fill="none" stroke="#000000" stroke-width="2.84" d="M569.81,-616.75C568.8,-594.89 564.42,-556.83 547,-530 535.68,-512.57 518.25,-498.04 501.6,-486.93"/>
<polygon fill="#000000" stroke="#000000" stroke-width="2.84" points="503.67,-484.11 493.34,-481.75 499.95,-490.03 503.67,-484.11"/>
<text text-anchor="middle" x="570" y="-544.3" font-family="Times,serif" font-size="14.00">44</text>
</g>
<!-- Insert Date Appeal to Prefecture&#45;&gt;Send Appeal to Prefecture -->
<g id="edge10" class="edge">
<title>Insert Date Appeal to Prefecture&#45;&gt;Send Appeal to Prefecture</title>
<path fill="none" stroke="#000000" stroke-width="2.84" d="M607.02,-616.53C644.83,-595.82 698,-557.46 698,-505.5 698,-505.5 698,-505.5 698,-199 698,-171.8 638.13,-149.72 581.28,-134.89"/>
<polygon fill="#000000" stroke="#000000" stroke-width="2.84" points="582.42,-131.57 571.87,-132.51 580.71,-138.35 582.42,-131.57"/>
<text text-anchor="middle" x="705" y="-370.3" font-family="Times,serif" font-size="14.00">44</text>
</g>
<!-- Receive Result Appeal from Prefecture -->
<g id="node8" class="node">
<title>Receive Result Appeal from Prefecture</title>
<polygon fill="#9b9bff" stroke="black" points="538.5,-566 275.5,-566 275.5,-530 538.5,-530 538.5,-566"/>
<text text-anchor="middle" x="407" y="-544.3" font-family="Times,serif" font-size="14.00">Receive Result Appeal from Prefecture (102)</text>
</g>
<!-- Insert Date Appeal to Prefecture&#45;&gt;Receive Result Appeal from Prefecture -->
<g id="edge16" class="edge">
<title>Insert Date Appeal to Prefecture&#45;&gt;Receive Result Appeal from Prefecture</title>
<path fill="none" stroke="#000000" stroke-width="0.77" d="M536.62,-616.59C511.57,-603.53 477.07,-585.54 449.96,-571.4"/>
<polygon fill="#000000" stroke="#000000" stroke-width="0.77" points="451.86,-568.44 441.37,-566.92 448.62,-574.65 451.86,-568.44"/>
<text text-anchor="middle" x="502.5" y="-587.8" font-family="Times,serif" font-size="14.00">6</text>
</g>
<!-- Add penalty&#45;&gt;Insert Date Appeal to Prefecture -->
<g id="edge15" class="edge">
<title>Add penalty&#45;&gt;Insert Date Appeal to Prefecture</title>
<path fill="none" stroke="#ff0000" stroke-width="0.72" stroke-dasharray="5,2" d="M513.31,-476.83C539.67,-486.96 567.82,-503.52 581,-530 592.9,-553.92 587.49,-584.7 580.73,-606.55"/>
<polygon fill="#ff0000" stroke="#ff0000" stroke-width="0.72" points="577.51,-605.16 577.62,-615.76 584.14,-607.41 577.51,-605.16"/>
<text text-anchor="middle" x="592.5" y="-544.3" font-family="Times,serif" font-size="14.00">5</text>
</g>
<!-- Add penalty&#45;&gt;Send Appeal to Prefecture -->
<g id="edge6" class="edge">
<title>Add penalty&#45;&gt;Send Appeal to Prefecture</title>
<path fill="none" stroke="#000000" stroke-width="2.62" d="M455.32,-442.74C455.61,-425.57 456,-398.47 456,-375 456,-375 456,-375 456,-199 456,-180.32 461.62,-160.24 467.54,-144.29"/>
<polygon fill="#000000" stroke="#000000" stroke-width="2.62" points="470.73,-145.74 471.2,-135.16 464.23,-143.14 470.73,-145.74"/>
<text text-anchor="middle" x="463" y="-283.3" font-family="Times,serif" font-size="14.00">40</text>
</g>
<!-- Add penalty&#45;&gt;Receive Result Appeal from Prefecture -->
<g id="edge12" class="edge">
<title>Add penalty&#45;&gt;Receive Result Appeal from Prefecture</title>
<path fill="none" stroke="#000000" stroke-width="2.84" d="M445.14,-479.47C438.96,-490.4 430.85,-504.76 423.7,-517.43"/>
<polygon fill="#000000" stroke="#000000" stroke-width="2.84" points="420.7,-515.63 418.83,-526.05 426.79,-519.07 420.7,-515.63"/>
<text text-anchor="middle" x="441" y="-500.8" font-family="Times,serif" font-size="14.00">44</text>
</g>
<!-- Notify Result Appeal to Offender -->
<g id="node9" class="node">
<title>Notify Result Appeal to Offender</title>
<polygon fill="#9b9bff" stroke="black" points="390,-392 158,-392 158,-356 390,-356 390,-392"/>
<text text-anchor="middle" x="274" y="-370.3" font-family="Times,serif" font-size="14.00">Notify Result Appeal to Offender (102)</text>
</g>
<!-- Add penalty&#45;&gt;Notify Result Appeal to Offender -->
<g id="edge18" class="edge">
<title>Add penalty&#45;&gt;Notify Result Appeal to Offender</title>
<path fill="none" stroke="#000000" stroke-width="1.04" d="M401.93,-442.63C388.04,-437.5 373.26,-431.5 360,-425 348.71,-419.46 346.81,-416.43 336,-410 329.36,-406.05 322.27,-401.95 315.34,-398"/>
<polygon fill="#000000" stroke="#000000" stroke-width="1.04" points="317.18,-395.02 306.76,-393.13 313.73,-401.11 317.18,-395.02"/>
<text text-anchor="middle" x="367" y="-413.8" font-family="Times,serif" font-size="14.00">11</text>
</g>
<!-- Send for Credit Collection -->
<g id="node10" class="node">
<title>Send for Credit Collection</title>
<polygon fill="#9e9eff" stroke="black" points="363.5,-218 176.5,-218 176.5,-182 363.5,-182 363.5,-218"/>
<text text-anchor="middle" x="270" y="-196.3" font-family="Times,serif" font-size="14.00">Send for Credit Collection (98)</text>
</g>
<!-- Add penalty&#45;&gt;Send for Credit Collection -->
<g id="edge25" class="edge">
<title>Add penalty&#45;&gt;Send for Credit Collection</title>
<path fill="none" stroke="#ff0000" stroke-width="0.55" stroke-dasharray="5,2" d="M448.42,-442.56C434.53,-407.24 399.64,-325.8 353,-269 339.24,-252.24 320.82,-236.65 304.84,-224.65"/>
<polygon fill="#ff0000" stroke="#ff0000" stroke-width="0.55" points="307.06,-221.94 296.93,-218.86 302.93,-227.59 307.06,-221.94"/>
<text text-anchor="middle" x="402.5" y="-326.8" font-family="Times,serif" font-size="14.00">2</text>
</g>
<!-- Send Appeal to Prefecture&#45;&gt;Add penalty -->
<g id="edge11" class="edge">
<title>Send Appeal to Prefecture&#45;&gt;Add penalty</title>
<path fill="none" stroke="#000000" stroke-width="2.51" d="M489.32,-131.47C496.6,-148.35 506,-174.85 506,-199 506,-375 506,-375 506,-375 506,-396.19 494.2,-416.66 481.96,-432.2"/>
<polygon fill="#000000" stroke="#000000" stroke-width="2.51" points="479.4,-429.8 475.59,-439.68 484.74,-434.33 479.4,-429.8"/>
<text text-anchor="middle" x="513" y="-283.3" font-family="Times,serif" font-size="14.00">38</text>
</g>
<!-- Send Appeal to Prefecture&#45;&gt;Receive Result Appeal from Prefecture -->
<g id="edge7" class="edge">
<title>Send Appeal to Prefecture&#45;&gt;Receive Result Appeal from Prefecture</title>
<path fill="none" stroke="#000000" stroke-width="3.22" d="M536.16,-131.43C545.53,-136.1 554.6,-141.89 562,-149 579.77,-166.08 586,-174.35 586,-199 586,-418.5 586,-418.5 586,-418.5 586,-461.75 590.41,-482.26 559,-512 553.66,-517.06 543.73,-521.55 531.41,-525.48"/>
<polygon fill="#000000" stroke="#000000" stroke-width="3.22" points="530.56,-522.08 521.9,-528.19 532.47,-528.81 530.56,-522.08"/>
<text text-anchor="middle" x="593" y="-326.8" font-family="Times,serif" font-size="14.00">51</text>
</g>
<!-- Send Appeal to Prefecture&#45;&gt;Send for Credit Collection -->
<g id="edge32" class="edge">
<title>Send Appeal to Prefecture&#45;&gt;Send for Credit Collection</title>
<path fill="none" stroke="#ff0000" stroke-width="0.5" stroke-dasharray="5,2" d="M391.5,-131.47C374.68,-136.16 357.52,-141.94 342,-149 326.92,-155.86 311.64,-165.93 299.06,-175.24"/>
<polygon fill="#ff0000" stroke="#ff0000" stroke-width="0.5" points="297.26,-172.21 291.43,-181.05 301.5,-177.78 297.26,-172.21"/>
<text text-anchor="middle" x="345.5" y="-152.8" font-family="Times,serif" font-size="14.00">1</text>
</g>
<!-- end_node -->
<g id="node13" class="node">
<title>end_node</title>
<ellipse fill="none" stroke="black" cx="161" cy="-22" rx="18" ry="18"/>
<ellipse fill="none" stroke="black" cx="161" cy="-22" rx="22" ry="22"/>
<text text-anchor="start" x="156.5" y="-18.3" font-family="Times,serif" font-size="14.00">■</text>
</g>
<!-- Send Appeal to Prefecture&#45;&gt;end_node -->
<g id="edge36" class="edge">
<title>Send Appeal to Prefecture&#45;&gt;end_node</title>
<path fill="none" stroke="#000000" stroke-width="0.94" d="M418.16,-94.52C350.47,-75.7 245.45,-46.49 193.03,-31.91"/>
<polygon fill="#000000" stroke="#000000" stroke-width="0.94" points="194.02,-28.55 183.45,-29.24 192.14,-35.29 194.02,-28.55"/>
<text text-anchor="middle" x="353.5" y="-65.8" font-family="Times,serif" font-size="14.00">9</text>
</g>
<!-- Receive Result Appeal from Prefecture&#45;&gt;Add penalty -->
<g id="edge17" class="edge">
<title>Receive Result Appeal from Prefecture&#45;&gt;Add penalty</title>
<path fill="none" stroke="#000000" stroke-width="0.94" d="M408.24,-529.89C409.56,-519.79 412.31,-507.06 418,-497 419.83,-493.77 422.05,-490.65 424.49,-487.71"/>
<polygon fill="#000000" stroke="#000000" stroke-width="0.94" points="427.02,-490.13 431.32,-480.45 421.92,-485.33 427.02,-490.13"/>
<text text-anchor="middle" x="421.5" y="-500.8" font-family="Times,serif" font-size="14.00">9</text>
</g>
<!-- Receive Result Appeal from Prefecture&#45;&gt;Send Appeal to Prefecture -->
<g id="edge28" class="edge">
<title>Receive Result Appeal from Prefecture&#45;&gt;Send Appeal to Prefecture</title>
<path fill="none" stroke="#ff0000" stroke-width="0.5" stroke-dasharray="5,2" d="M484.1,-529.56C517.02,-517.12 548,-496.3 548,-462 548,-462 548,-462 548,-199 548,-174.94 531.24,-153.68 514.48,-138.44"/>
<polygon fill="#ff0000" stroke="#ff0000" stroke-width="0.5" points="516.78,-135.8 506.9,-131.95 512.22,-141.12 516.78,-135.8"/>
<text text-anchor="middle" x="551.5" y="-326.8" font-family="Times,serif" font-size="14.00">1</text>
</g>
<!-- Receive Result Appeal from Prefecture&#45;&gt;Notify Result Appeal to Offender -->
<g id="edge8" class="edge">
<title>Receive Result Appeal from Prefecture&#45;&gt;Notify Result Appeal to Offender</title>
<path fill="none" stroke="#000000" stroke-width="5.35" d="M341.56,-529.52C330.72,-524.89 320.07,-519.13 311,-512 280.11,-487.72 273.35,-440.53 272.64,-408.39"/>
<polygon fill="#000000" stroke="#000000" stroke-width="5.35" points="277.32,-408.67 272.71,-398.64 267.96,-408.6 277.32,-408.67"/>
<text text-anchor="middle" x="294" y="-457.3" font-family="Times,serif" font-size="14.00">90</text>
</g>
<!-- Receive Result Appeal from Prefecture&#45;&gt;Send for Credit Collection -->
<g id="edge34" class="edge">
<title>Receive Result Appeal from Prefecture&#45;&gt;Send for Credit Collection</title>
<path fill="none" stroke="#ff0000" stroke-width="0.5" stroke-dasharray="5,2" d="M275.09,-541.15C169.16,-532.73 38,-512.17 38,-462 38,-462 38,-462 38,-286 38,-256.64 104.33,-234.38 166.05,-220.02"/>
<polygon fill="#ff0000" stroke="#ff0000" stroke-width="0.5" points="166.59,-223.48 175.57,-217.86 165.04,-216.66 166.59,-223.48"/>
<text text-anchor="middle" x="41.5" y="-370.3" font-family="Times,serif" font-size="14.00">1</text>
</g>
<!-- Appeal to Judge -->
<g id="node11" class="node">
<title>Appeal to Judge</title>
<polygon fill="#f7f7ff" stroke="black" points="191.5,-305 66.5,-305 66.5,-269 191.5,-269 191.5,-305"/>
<text text-anchor="middle" x="129" y="-283.3" font-family="Times,serif" font-size="14.00">Appeal to Judge (9)</text>
</g>
<!-- Receive Result Appeal from Prefecture&#45;&gt;Appeal to Judge -->
<g id="edge26" class="edge">
<title>Receive Result Appeal from Prefecture&#45;&gt;Appeal to Judge</title>
<path fill="none" stroke="#ff0000" stroke-width="0.5" stroke-dasharray="5,2" d="M334.69,-529.55C320.45,-524.81 305.93,-519 293,-512 219.74,-472.33 191.33,-463.75 149,-392 135.32,-368.81 130.74,-338.11 129.34,-316.09"/>
<polygon fill="#ff0000" stroke="#ff0000" stroke-width="0.5" points="132.84,-316.03 128.89,-306.2 125.84,-316.35 132.84,-316.03"/>
<text text-anchor="middle" x="174.5" y="-413.8" font-family="Times,serif" font-size="14.00">1</text>
</g>
<!-- Notify Result Appeal to Offender&#45;&gt;Add penalty -->
<g id="edge24" class="edge">
<title>Notify Result Appeal to Offender&#45;&gt;Add penalty</title>
<path fill="none" stroke="#ff0000" stroke-width="0.55" stroke-dasharray="5,2" d="M330.66,-392.44C345.05,-397.51 360.3,-403.47 374,-410 376.46,-411.17 397.86,-424.39 418.04,-436.94"/>
<polygon fill="#ff0000" stroke="#ff0000" stroke-width="0.55" points="416.11,-439.86 426.45,-442.17 419.81,-433.92 416.11,-439.86"/>
<text text-anchor="middle" x="401.5" y="-413.8" font-family="Times,serif" font-size="14.00">2</text>
</g>
<!-- Notify Result Appeal to Offender&#45;&gt;Send Appeal to Prefecture -->
<g id="edge31" class="edge">
<title>Notify Result Appeal to Offender&#45;&gt;Send Appeal to Prefecture</title>
<path fill="none" stroke="#ff0000" stroke-width="0.5" stroke-dasharray="5,2" d="M298.4,-355.54C315.09,-342.79 337,-324.41 353,-305 403.77,-243.4 391.87,-211.12 442,-149 444.83,-145.5 448.02,-142.04 451.33,-138.74"/>
<polygon fill="#ff0000" stroke="#ff0000" stroke-width="0.5" points="453.71,-141.3 458.6,-131.9 448.92,-136.2 453.71,-141.3"/>
<text text-anchor="middle" x="397.5" y="-239.8" font-family="Times,serif" font-size="14.00">1</text>
</g>
<!-- Notify Result Appeal to Offender&#45;&gt;Receive Result Appeal from Prefecture -->
<g id="edge33" class="edge">
<title>Notify Result Appeal to Offender&#45;&gt;Receive Result Appeal from Prefecture</title>
<path fill="none" stroke="#ff0000" stroke-width="0.5" stroke-dasharray="5,2" d="M287.52,-392.48C311.05,-422.91 359.61,-485.72 387.03,-521.17"/>
<polygon fill="#ff0000" stroke="#ff0000" stroke-width="0.5" points="384.17,-523.19 393.05,-528.96 389.7,-518.91 384.17,-523.19"/>
<text text-anchor="middle" x="357.5" y="-457.3" font-family="Times,serif" font-size="14.00">1</text>
</g>
<!-- Notify Result Appeal to Offender&#45;&gt;Send for Credit Collection -->
<g id="edge9" class="edge">
<title>Notify Result Appeal to Offender&#45;&gt;Send for Credit Collection</title>
<path fill="none" stroke="#000000" stroke-width="5.24" d="M261.32,-355.56C252.58,-342.39 241.71,-323.5 237,-305 233.05,-289.49 233.42,-284.59 237,-269 239.89,-256.43 245.43,-243.48 251.15,-232.31"/>
<polygon fill="#000000" stroke="#000000" stroke-width="5.24" points="254.99,-234.83 255.81,-223.86 246.96,-230.41 254.99,-234.83"/>
<text text-anchor="middle" x="244" y="-283.3" font-family="Times,serif" font-size="14.00">88</text>
</g>
<!-- Notify Result Appeal to Offender&#45;&gt;Appeal to Judge -->
<g id="edge19" class="edge">
<title>Notify Result Appeal to Offender&#45;&gt;Appeal to Judge</title>
<path fill="none" stroke="#000000" stroke-width="0.88" d="M239.25,-355.59C228.78,-350.15 217.33,-343.99 207,-338 192.78,-329.75 177.49,-320.12 164.24,-311.52"/>
<polygon fill="#000000" stroke="#000000" stroke-width="0.88" points="166.4,-308.76 156.11,-306.21 162.57,-314.62 166.4,-308.76"/>
<text text-anchor="middle" x="210.5" y="-326.8" font-family="Times,serif" font-size="14.00">8</text>
</g>
<!-- Payment -->
<g id="node12" class="node">
<title>Payment</title>
<polygon fill="#ffffff" stroke="black" points="344,-305 260,-305 260,-269 344,-269 344,-305"/>
<text text-anchor="middle" x="302" y="-283.3" font-family="Times,serif" font-size="14.00">Payment (1)</text>
</g>
<!-- Notify Result Appeal to Offender&#45;&gt;Payment -->
<g id="edge29" class="edge">
<title>Notify Result Appeal to Offender&#45;&gt;Payment</title>
<path fill="none" stroke="#ff0000" stroke-width="0.5" stroke-dasharray="5,2" d="M279.67,-355.8C283.47,-344.24 288.58,-328.75 292.94,-315.5"/>
<polygon fill="#ff0000" stroke="#ff0000" stroke-width="0.5" points="296.2,-316.78 296.01,-306.19 289.56,-314.59 296.2,-316.78"/>
<text text-anchor="middle" x="293.5" y="-326.8" font-family="Times,serif" font-size="14.00">1</text>
</g>
<!-- Notify Result Appeal to Offender&#45;&gt;end_node -->
<g id="edge38" class="edge">
<title>Notify Result Appeal to Offender&#45;&gt;end_node</title>
<path fill="none" stroke="#ff0000" stroke-width="0.5" stroke-dasharray="5,2" d="M157.8,-358.21C83.12,-345.33 0,-323.11 0,-288 0,-288 0,-288 0,-112 0,-53.9 81.3,-33.43 128.35,-26.45"/>
<polygon fill="#ff0000" stroke="#ff0000" stroke-width="0.5" points="128.76,-29.93 138.2,-25.12 127.82,-22.99 128.76,-29.93"/>
<text text-anchor="middle" x="3.5" y="-196.3" font-family="Times,serif" font-size="14.00">1</text>
</g>
<!-- Send for Credit Collection&#45;&gt;Send Appeal to Prefecture -->
<g id="edge13" class="edge">
<title>Send for Credit Collection&#45;&gt;Send Appeal to Prefecture</title>
<path fill="none" stroke="#000000" stroke-width="0.94" d="M310.61,-181.53C333.55,-171.77 362.79,-159.49 389,-149 400.18,-144.53 412.17,-139.87 423.68,-135.46"/>
<polygon fill="#000000" stroke="#000000" stroke-width="0.94" points="424.66,-138.83 432.75,-132 422.16,-132.29 424.66,-138.83"/>
<text text-anchor="middle" x="392.5" y="-152.8" font-family="Times,serif" font-size="14.00">9</text>
</g>
<!-- Send for Credit Collection&#45;&gt;end_node -->
<g id="edge35" class="edge">
<title>Send for Credit Collection&#45;&gt;end_node</title>
<path fill="none" stroke="#000000" stroke-width="5.29" d="M259.35,-181.8C241.14,-152.41 203.77,-92.06 180.7,-54.81"/>
<polygon fill="#000000" stroke="#000000" stroke-width="5.29" points="184.86,-52.74 175.66,-46.67 176.99,-57.61 184.86,-52.74"/>
<text text-anchor="middle" x="234" y="-109.3" font-family="Times,serif" font-size="14.00">89</text>
</g>
<!-- Appeal to Judge&#45;&gt;Notify Result Appeal to Offender -->
<g id="edge27" class="edge">
<title>Appeal to Judge&#45;&gt;Notify Result Appeal to Offender</title>
<path fill="none" stroke="#ff0000" stroke-width="0.5" stroke-dasharray="5,2" d="M140.69,-305.36C148.68,-316.07 160.14,-329.36 173,-338 180.67,-343.15 189.17,-347.62 197.9,-351.48"/>
<polygon fill="#ff0000" stroke="#ff0000" stroke-width="0.5" points="196.53,-354.7 207.11,-355.29 199.21,-348.23 196.53,-354.7"/>
<text text-anchor="middle" x="176.5" y="-326.8" font-family="Times,serif" font-size="14.00">1</text>
</g>
<!-- Appeal to Judge&#45;&gt;Send for Credit Collection -->
<g id="edge23" class="edge">
<title>Appeal to Judge&#45;&gt;Send for Credit Collection</title>
<path fill="none" stroke="#ff0000" stroke-width="0.72" stroke-dasharray="5,2" d="M155.1,-268.69C170.13,-258.87 189.46,-246.48 207,-236 213.79,-231.94 221.08,-227.75 228.19,-223.74"/>
<polygon fill="#ff0000" stroke="#ff0000" stroke-width="0.72" points="229.75,-226.88 236.78,-218.95 226.34,-220.77 229.75,-226.88"/>
<text text-anchor="middle" x="210.5" y="-239.8" font-family="Times,serif" font-size="14.00">5</text>
</g>
<!-- Appeal to Judge&#45;&gt;end_node -->
<g id="edge37" class="edge">
<title>Appeal to Judge&#45;&gt;end_node</title>
<path fill="none" stroke="#ff0000" stroke-width="0.61" stroke-dasharray="5,2" d="M131.1,-268.74C136.38,-225.34 150.28,-111.09 157.11,-54.99"/>
<polygon fill="#ff0000" stroke="#ff0000" stroke-width="0.61" points="160.57,-55.54 158.3,-45.19 153.62,-54.69 160.57,-55.54"/>
<text text-anchor="middle" x="149.5" y="-152.8" font-family="Times,serif" font-size="14.00">3</text>
</g>
<!-- Payment&#45;&gt;Send for Credit Collection -->
<g id="edge30" class="edge">
<title>Payment&#45;&gt;Send for Credit Collection</title>
<path fill="none" stroke="#ff0000" stroke-width="0.5" stroke-dasharray="5,2" d="M295.52,-268.8C291.17,-257.24 285.34,-241.75 280.35,-228.5"/>
<polygon fill="#ff0000" stroke="#ff0000" stroke-width="0.5" points="283.64,-227.3 276.84,-219.18 277.09,-229.77 283.64,-227.3"/>
<text text-anchor="middle" x="291.5" y="-239.8" font-family="Times,serif" font-size="14.00">1</text>
</g>
</g>
</svg>
