<?xml version="1.0" encoding="UTF-8" standalone="no"?>
<!DOCTYPE svg PUBLIC "-//W3C//DTD SVG 1.1//EN"
 "http://www.w3.org/Graphics/SVG/1.1/DTD/svg11.dtd">
<!-- Generated by graphviz version 7.0.5 (0)
 -->
<!-- Title: dfg Pages: 1 -->
<svg width="577pt" height="661pt"
 viewBox="0.00 0.00 577.00 661.00" xmlns="http://www.w3.org/2000/svg" xmlns:xlink="http://www.w3.org/1999/xlink">
<g id="graph0" class="graph" transform="scale(1 1) rotate(0) translate(4 657)">
<title>dfg</title>
<polygon fill="white" stroke="none" points="-4,4 -4,-657 573,-657 573,4 -4,4"/>
<!-- start_node -->
<g id="node1" class="node">
<title>start_node</title>
<ellipse fill="none" stroke="black" cx="477" cy="-635" rx="18" ry="18"/>
<text text-anchor="start" x="472.5" y="-631.3" font-family="Times,serif" font-size="14.00">●</text>
</g>
<!-- Create Fine -->
<g id="node2" class="node">
<title>Create Fine</title>
<polygon fill="#9b9bff" stroke="black" points="536.5,-566 417.5,-566 417.5,-530 536.5,-530 536.5,-566"/>
<text text-anchor="middle" x="477" y="-544.3" font-family="Times,serif" font-size="14.00">Create Fine (1126)</text>
</g>
<!-- start_node&#45;&gt;Create Fine -->
<g id="edge1" class="edge">
<title>start_node&#45;&gt;Create Fine</title>
<path fill="none" stroke="#000000" stroke-width="6" d="M477,-616.8C477,-606.96 477,-594.27 477,-582.53"/>
<polygon fill="#000000" stroke="#000000" stroke-width="6" points="482.25,-582.92 477,-572.92 471.75,-582.92 482.25,-582.92"/>
<text text-anchor="middle" x="491" y="-587.8" font-family="Times,serif" font-size="14.00">1126</text>
</g>
<!-- Send Fine -->
<g id="node3" class="node">
<title>Send Fine</title>
<polygon fill="#9b9bff" stroke="black" points="532.5,-479 421.5,-479 421.5,-443 532.5,-443 532.5,-479"/>
<text text-anchor="middle" x="477" y="-457.3" font-family="Times,serif" font-size="14.00">Send Fine (1126)</text>
</g>
<!-- Create Fine&#45;&gt;Send Fine -->
<g id="edge2" class="edge">
<title>Create Fine&#45;&gt;Send Fine</title>
<path fill="none" stroke="#000000" stroke-width="6" d="M477,-529.8C477,-519.96 477,-507.27 477,-495.53"/>
<polygon fill="#000000" stroke="#000000" stroke-width="6" points="482.25,-495.92 477,-485.92 471.75,-495.92 482.25,-495.92"/>
<text text-anchor="middle" x="491" y="-500.8" font-family="Times,serif" font-size="14.00">1126</text>
</g>
<!-- Insert Fine Notification -->
<g id="node4" class="node">
<title>Insert Fine Notification</title>
<polygon fill="#a5a5ff" stroke="black" points="499,-392 315,-392 315,-356 499,-356 499,-392"/>
<text text-anchor="middle" x="407" y="-370.3" font-family="Times,serif" font-size="14.00">Insert Fine Notification (1022)</text>
</g>
<!-- Send Fine&#45;&gt;Insert Fine Notification -->
<g id="edge3" class="edge">
<title>Send Fine&#45;&gt;Insert Fine Notification</title>
<path fill="none" stroke="#000000" stroke-width="5.43" d="M462.83,-442.8C453.88,-431.93 442.07,-417.58 431.61,-404.88"/>
<polygon fill="#000000" stroke="#000000" stroke-width="5.43" points="435.43,-402.05 425.41,-397.35 428.1,-408.09 435.43,-402.05"/>
<text text-anchor="middle" x="460" y="-413.8" font-family="Times,serif" font-size="14.00">1022</text>
</g>
<!-- end_node -->
<g id="node10" class="node">
<title>end_node</title>
<ellipse fill="none" stroke="black" cx="409" cy="-22" rx="18" ry="18"/>
<ellipse fill="none" stroke="black" cx="409" cy="-22" rx="22" ry="22"/>
<text text-anchor="start" x="404.5" y="-18.3" font-family="Times,serif" font-size="14.00">■</text>
</g>
<!-- Send Fine&#45;&gt;end_node -->
<g id="edge13" class="edge">
<title>Send Fine&#45;&gt;end_node</title>
<path fill="none" stroke="#000000" stroke-width="0.36" d="M504.25,-442.57C524.27,-427.42 548,-403.46 548,-375 548,-375 548,-375 548,-112 548,-61.39 481.83,-38.25 440.8,-28.77"/>
<polygon fill="#000000" stroke="#000000" stroke-width="0.36" points="441.76,-25.39 431.25,-26.7 440.28,-32.23 441.76,-25.39"/>
<text text-anchor="middle" x="558.5" y="-239.8" font-family="Times,serif" font-size="14.00">104</text>
</g>
<!-- Add penalty -->
<g id="node5" class="node">
<title>Add penalty</title>
<polygon fill="#a5a5ff" stroke="black" points="369.5,-218 246.5,-218 246.5,-182 369.5,-182 369.5,-218"/>
<text text-anchor="middle" x="308" y="-196.3" font-family="Times,serif" font-size="14.00">Add penalty (1022)</text>
</g>
<!-- Insert Fine Notification&#45;&gt;Add penalty -->
<g id="edge4" class="edge">
<title>Insert Fine Notification&#45;&gt;Add penalty</title>
<path fill="none" stroke="#000000" stroke-width="4.67" d="M332.9,-355.55C306.5,-345.38 279.49,-329.52 264,-305 249.17,-281.53 264.21,-252.2 280.61,-230.68"/>
<polygon fill="#000000" stroke="#000000" stroke-width="4.67" points="283.6,-233.48 286.82,-223.17 277.29,-228.28 283.6,-233.48"/>
<text text-anchor="middle" x="274.5" y="-283.3" font-family="Times,serif" font-size="14.00">886</text>
</g>
<!-- Insert Date Appeal to Prefecture -->
<g id="node7" class="node">
<title>Insert Date Appeal to Prefecture</title>
<polygon fill="#fefeff" stroke="black" points="519.5,-305 294.5,-305 294.5,-269 519.5,-269 519.5,-305"/>
<text text-anchor="middle" x="407" y="-283.3" font-family="Times,serif" font-size="14.00">Insert Date Appeal to Prefecture (136)</text>
</g>
<!-- Insert Fine Notification&#45;&gt;Insert Date Appeal to Prefecture -->
<g id="edge6" class="edge">
<title>Insert Fine Notification&#45;&gt;Insert Date Appeal to Prefecture</title>
<path fill="none" stroke="#000000" stroke-width="0.53" d="M407,-355.8C407,-344.35 407,-329.06 407,-315.89"/>
<polygon fill="#000000" stroke="#000000" stroke-width="0.53" points="410.5,-316.27 407,-306.27 403.5,-316.27 410.5,-316.27"/>
<text text-anchor="middle" x="417.5" y="-326.8" font-family="Times,serif" font-size="14.00">136</text>
</g>
<!-- Send for Credit Collection -->
<g id="node6" class="node">
<title>Send for Credit Collection</title>
<polygon fill="#c0c0ff" stroke="black" points="194,-131 0,-131 0,-95 194,-95 194,-131"/>
<text text-anchor="middle" x="97" y="-109.3" font-family="Times,serif" font-size="14.00">Send for Credit Collection (756)</text>
</g>
<!-- Add penalty&#45;&gt;Send for Credit Collection -->
<g id="edge5" class="edge">
<title>Add penalty&#45;&gt;Send for Credit Collection</title>
<path fill="none" stroke="#000000" stroke-width="3.96" d="M264.79,-181.59C233.07,-168.82 189.65,-151.32 154.93,-137.34"/>
<polygon fill="#000000" stroke="#000000" stroke-width="3.96" points="156.29,-134.11 145.71,-133.62 153.67,-140.6 156.29,-134.11"/>
<text text-anchor="middle" x="226.5" y="-152.8" font-family="Times,serif" font-size="14.00">756</text>
</g>
<!-- Send Appeal to Prefecture -->
<g id="node8" class="node">
<title>Send Appeal to Prefecture</title>
<polygon fill="#fefeff" stroke="black" points="404,-131 212,-131 212,-95 404,-95 404,-131"/>
<text text-anchor="middle" x="308" y="-109.3" font-family="Times,serif" font-size="14.00">Send Appeal to Prefecture (136)</text>
</g>
<!-- Add penalty&#45;&gt;Send Appeal to Prefecture -->
<g id="edge8" class="edge">
<title>Add penalty&#45;&gt;Send Appeal to Prefecture</title>
<path fill="none" stroke="#000000" stroke-width="0.53" d="M308,-181.8C308,-170.35 308,-155.06 308,-141.89"/>
<polygon fill="#000000" stroke="#000000" stroke-width="0.53" points="311.5,-142.27 308,-132.27 304.5,-142.27 311.5,-142.27"/>
<text text-anchor="middle" x="318.5" y="-152.8" font-family="Times,serif" font-size="14.00">136</text>
</g>
<!-- Payment -->
<g id="node9" class="node">
<title>Payment</title>
<polygon fill="#ffffff" stroke="black" points="520,-131 422,-131 422,-95 520,-95 520,-131"/>
<text text-anchor="middle" x="471" y="-109.3" font-family="Times,serif" font-size="14.00">Payment (130)</text>
</g>
<!-- Add penalty&#45;&gt;Payment -->
<g id="edge9" class="edge">
<title>Add penalty&#45;&gt;Payment</title>
<path fill="none" stroke="#000000" stroke-width="0.5" d="M341.38,-181.59C366.54,-168.47 401.24,-150.38 428.4,-136.21"/>
<polygon fill="#000000" stroke="#000000" stroke-width="0.5" points="429.75,-139.46 436.99,-131.73 426.51,-133.25 429.75,-139.46"/>
<text text-anchor="middle" x="410.5" y="-152.8" font-family="Times,serif" font-size="14.00">130</text>
</g>
<!-- Send for Credit Collection&#45;&gt;end_node -->
<g id="edge10" class="edge">
<title>Send for Credit Collection&#45;&gt;end_node</title>
<path fill="none" stroke="#000000" stroke-width="3.96" d="M158.27,-94.52C222.14,-76.3 320.11,-48.36 372.68,-33.36"/>
<polygon fill="#000000" stroke="#000000" stroke-width="3.96" points="373.33,-36.81 381.99,-30.7 371.41,-30.08 373.33,-36.81"/>
<text text-anchor="middle" x="282.5" y="-65.8" font-family="Times,serif" font-size="14.00">756</text>
</g>
<!-- Insert Date Appeal to Prefecture&#45;&gt;Add penalty -->
<g id="edge7" class="edge">
<title>Insert Date Appeal to Prefecture&#45;&gt;Add penalty</title>
<path fill="none" stroke="#000000" stroke-width="0.53" d="M386.97,-268.8C372.44,-256.32 352.58,-239.28 336.41,-225.4"/>
<polygon fill="#000000" stroke="#000000" stroke-width="0.53" points="338.82,-222.85 328.96,-218.99 334.26,-228.16 338.82,-222.85"/>
<text text-anchor="middle" x="374.5" y="-239.8" font-family="Times,serif" font-size="14.00">136</text>
</g>
<!-- Send Appeal to Prefecture&#45;&gt;end_node -->
<g id="edge11" class="edge">
<title>Send Appeal to Prefecture&#45;&gt;end_node</title>
<path fill="none" stroke="#000000" stroke-width="0.53" d="M327.47,-94.84C343.83,-80.43 367.27,-59.77 384.83,-44.3"/>
<polygon fill="#000000" stroke="#000000" stroke-width="0.53" points="387.12,-46.95 392.31,-37.71 382.49,-41.69 387.12,-46.95"/>
<text text-anchor="middle" x="375.5" y="-65.8" font-family="Times,serif" font-size="14.00">136</text>
</g>
<!-- Payment&#45;&gt;end_node -->
<g id="edge12" class="edge">
<title>Payment&#45;&gt;end_node</title>
<path fill="none" stroke="#000000" stroke-width="0.5" d="M459.05,-94.84C450.07,-81.96 437.62,-64.08 427.38,-49.38"/>
<polygon fill="#000000" stroke="#000000" stroke-width="0.5" points="430.36,-47.54 421.77,-41.34 424.62,-51.54 430.36,-47.54"/>
<text text-anchor="middle" x="455.5" y="-65.8" font-family="Times,serif" font-size="14.00">130</text>
</g>
</g>
</svg>
