<?xml version="1.0" encoding="UTF-8" standalone="no"?>
<!DOCTYPE svg PUBLIC "-//W3C//DTD SVG 1.1//EN"
 "http://www.w3.org/Graphics/SVG/1.1/DTD/svg11.dtd">
<!-- Generated by graphviz version 7.0.5 (0)
 -->
<!-- Title: dfg Pages: 1 -->
<svg width="387pt" height="922pt"
 viewBox="0.00 0.00 387.00 922.00" xmlns="http://www.w3.org/2000/svg" xmlns:xlink="http://www.w3.org/1999/xlink">
<g id="graph0" class="graph" transform="scale(1 1) rotate(0) translate(4 918)">
<title>dfg</title>
<polygon fill="white" stroke="none" points="-4,4 -4,-918 383,-918 383,4 -4,4"/>
<!-- start_node -->
<g id="node1" class="node">
<title>start_node</title>
<ellipse fill="none" stroke="black" cx="189.5" cy="-896" rx="18" ry="18"/>
<text text-anchor="start" x="185" y="-892.3" font-family="Times,serif" font-size="14.00">●</text>
</g>
<!-- Create Fine -->
<g id="node2" class="node">
<title>Create Fine</title>
<polygon fill="#9b9bff" stroke="black" points="242.5,-827 136.5,-827 136.5,-791 242.5,-791 242.5,-827"/>
<text text-anchor="middle" x="189.5" y="-805.3" font-family="Times,serif" font-size="14.00">Create Fine (73)</text>
</g>
<!-- start_node&#45;&gt;Create Fine -->
<g id="edge1" class="edge">
<title>start_node&#45;&gt;Create Fine</title>
<path fill="none" stroke="#000000" stroke-width="6" d="M189.5,-877.8C189.5,-867.96 189.5,-855.27 189.5,-843.53"/>
<polygon fill="#000000" stroke="#000000" stroke-width="6" points="194.75,-843.92 189.5,-833.92 184.25,-843.92 194.75,-843.92"/>
<text text-anchor="middle" x="196.5" y="-848.8" font-family="Times,serif" font-size="14.00">73</text>
</g>
<!-- Send Fine -->
<g id="node3" class="node">
<title>Send Fine</title>
<polygon fill="#9b9bff" stroke="black" points="238.5,-740 140.5,-740 140.5,-704 238.5,-704 238.5,-740"/>
<text text-anchor="middle" x="189.5" y="-718.3" font-family="Times,serif" font-size="14.00">Send Fine (73)</text>
</g>
<!-- Create Fine&#45;&gt;Send Fine -->
<g id="edge2" class="edge">
<title>Create Fine&#45;&gt;Send Fine</title>
<path fill="none" stroke="#000000" stroke-width="6" d="M189.5,-790.8C189.5,-780.96 189.5,-768.27 189.5,-756.53"/>
<polygon fill="#000000" stroke="#000000" stroke-width="6" points="194.75,-756.92 189.5,-746.92 184.25,-756.92 194.75,-756.92"/>
<text text-anchor="middle" x="196.5" y="-761.8" font-family="Times,serif" font-size="14.00">73</text>
</g>
<!-- Insert Fine Notification -->
<g id="node4" class="node">
<title>Insert Fine Notification</title>
<polygon fill="#9b9bff" stroke="black" points="274.5,-653 104.5,-653 104.5,-617 274.5,-617 274.5,-653"/>
<text text-anchor="middle" x="189.5" y="-631.3" font-family="Times,serif" font-size="14.00">Insert Fine Notification (73)</text>
</g>
<!-- Send Fine&#45;&gt;Insert Fine Notification -->
<g id="edge3" class="edge">
<title>Send Fine&#45;&gt;Insert Fine Notification</title>
<path fill="none" stroke="#000000" stroke-width="6" d="M189.5,-703.8C189.5,-693.96 189.5,-681.27 189.5,-669.53"/>
<polygon fill="#000000" stroke="#000000" stroke-width="6" points="194.75,-669.92 189.5,-659.92 184.25,-669.92 194.75,-669.92"/>
<text text-anchor="middle" x="196.5" y="-674.8" font-family="Times,serif" font-size="14.00">73</text>
</g>
<!-- Insert Date Appeal to Prefecture -->
<g id="node5" class="node">
<title>Insert Date Appeal to Prefecture</title>
<polygon fill="#9b9bff" stroke="black" points="298.5,-566 80.5,-566 80.5,-530 298.5,-530 298.5,-566"/>
<text text-anchor="middle" x="189.5" y="-544.3" font-family="Times,serif" font-size="14.00">Insert Date Appeal to Prefecture (73)</text>
</g>
<!-- Insert Fine Notification&#45;&gt;Insert Date Appeal to Prefecture -->
<g id="edge4" class="edge">
<title>Insert Fine Notification&#45;&gt;Insert Date Appeal to Prefecture</title>
<path fill="none" stroke="#000000" stroke-width="6" d="M189.5,-616.8C189.5,-606.96 189.5,-594.27 189.5,-582.53"/>
<polygon fill="#000000" stroke="#000000" stroke-width="6" points="194.75,-582.92 189.5,-572.92 184.25,-582.92 194.75,-582.92"/>
<text text-anchor="middle" x="196.5" y="-587.8" font-family="Times,serif" font-size="14.00">73</text>
</g>
<!-- Send Appeal to Prefecture -->
<g id="node6" class="node">
<title>Send Appeal to Prefecture</title>
<polygon fill="#9b9bff" stroke="black" points="218,-479 33,-479 33,-443 218,-443 218,-479"/>
<text text-anchor="middle" x="125.5" y="-457.3" font-family="Times,serif" font-size="14.00">Send Appeal to Prefecture (73)</text>
</g>
<!-- Insert Date Appeal to Prefecture&#45;&gt;Send Appeal to Prefecture -->
<g id="edge5" class="edge">
<title>Insert Date Appeal to Prefecture&#45;&gt;Send Appeal to Prefecture</title>
<path fill="none" stroke="#000000" stroke-width="3.33" d="M176.55,-529.8C168.19,-518.7 157.1,-503.97 147.4,-491.08"/>
<polygon fill="#000000" stroke="#000000" stroke-width="3.33" points="150.5,-489.38 141.68,-483.49 144.9,-493.59 150.5,-489.38"/>
<text text-anchor="middle" x="167.5" y="-500.8" font-family="Times,serif" font-size="14.00">40</text>
</g>
<!-- Add penalty -->
<g id="node7" class="node">
<title>Add penalty</title>
<polygon fill="#9b9bff" stroke="black" points="242.5,-392 132.5,-392 132.5,-356 242.5,-356 242.5,-392"/>
<text text-anchor="middle" x="187.5" y="-370.3" font-family="Times,serif" font-size="14.00">Add penalty (73)</text>
</g>
<!-- Insert Date Appeal to Prefecture&#45;&gt;Add penalty -->
<g id="edge10" class="edge">
<title>Insert Date Appeal to Prefecture&#45;&gt;Add penalty</title>
<path fill="none" stroke="#000000" stroke-width="2.76" d="M202.52,-529.61C211.5,-516.47 222.66,-497.58 227.5,-479 231.53,-463.52 231.7,-458.44 227.5,-443 223.75,-429.22 216.41,-415.38 209.04,-403.82"/>
<polygon fill="#000000" stroke="#000000" stroke-width="2.76" points="212.06,-402.04 203.55,-395.74 206.27,-405.98 212.06,-402.04"/>
<text text-anchor="middle" x="237.5" y="-457.3" font-family="Times,serif" font-size="14.00">33</text>
</g>
<!-- Send Appeal to Prefecture&#45;&gt;Add penalty -->
<g id="edge6" class="edge">
<title>Send Appeal to Prefecture&#45;&gt;Add penalty</title>
<path fill="none" stroke="#000000" stroke-width="2.93" d="M141.88,-442.69C146.78,-437.2 152.04,-430.99 156.5,-425 161.32,-418.53 166.11,-411.29 170.44,-404.37"/>
<polygon fill="#000000" stroke="#000000" stroke-width="2.93" points="173.37,-406.29 175.56,-395.92 167.39,-402.66 173.37,-406.29"/>
<text text-anchor="middle" x="173.5" y="-413.8" font-family="Times,serif" font-size="14.00">35</text>
</g>
<!-- Receive Result Appeal from Prefecture -->
<g id="node8" class="node">
<title>Receive Result Appeal from Prefecture</title>
<polygon fill="#9b9bff" stroke="black" points="257,-305 0,-305 0,-269 257,-269 257,-305"/>
<text text-anchor="middle" x="128.5" y="-283.3" font-family="Times,serif" font-size="14.00">Receive Result Appeal from Prefecture (73)</text>
</g>
<!-- Send Appeal to Prefecture&#45;&gt;Receive Result Appeal from Prefecture -->
<g id="edge12" class="edge">
<title>Send Appeal to Prefecture&#45;&gt;Receive Result Appeal from Prefecture</title>
<path fill="none" stroke="#000000" stroke-width="3.17" d="M119.76,-442.73C113.62,-422.11 105.31,-386.59 109.5,-356 111.18,-343.76 114.48,-330.61 117.87,-319.17"/>
<polygon fill="#000000" stroke="#000000" stroke-width="3.17" points="121.12,-320.5 120.8,-309.91 114.45,-318.39 121.12,-320.5"/>
<text text-anchor="middle" x="116.5" y="-370.3" font-family="Times,serif" font-size="14.00">38</text>
</g>
<!-- Add penalty&#45;&gt;Send Appeal to Prefecture -->
<g id="edge11" class="edge">
<title>Add penalty&#45;&gt;Send Appeal to Prefecture</title>
<path fill="none" stroke="#000000" stroke-width="2.76" d="M156.08,-392.49C149.47,-397.41 143.12,-403.28 138.5,-410 134.68,-415.55 131.98,-422.16 130.08,-428.71"/>
<polygon fill="#000000" stroke="#000000" stroke-width="2.76" points="126.66,-427.96 127.94,-438.48 133.5,-429.46 126.66,-427.96"/>
<text text-anchor="middle" x="145.5" y="-413.8" font-family="Times,serif" font-size="14.00">33</text>
</g>
<!-- Add penalty&#45;&gt;Receive Result Appeal from Prefecture -->
<g id="edge7" class="edge">
<title>Add penalty&#45;&gt;Receive Result Appeal from Prefecture</title>
<path fill="none" stroke="#000000" stroke-width="2.93" d="M175.56,-355.8C167.85,-344.7 157.63,-329.97 148.69,-317.08"/>
<polygon fill="#000000" stroke="#000000" stroke-width="2.93" points="151.73,-315.33 143.15,-309.11 145.98,-319.32 151.73,-315.33"/>
<text text-anchor="middle" x="168.5" y="-326.8" font-family="Times,serif" font-size="14.00">35</text>
</g>
<!-- Notify Result Appeal to Offender -->
<g id="node9" class="node">
<title>Notify Result Appeal to Offender</title>
<polygon fill="#ffffff" stroke="black" points="379,-218 154,-218 154,-182 379,-182 379,-218"/>
<text text-anchor="middle" x="266.5" y="-196.3" font-family="Times,serif" font-size="14.00">Notify Result Appeal to Offender (66)</text>
</g>
<!-- Add penalty&#45;&gt;Notify Result Appeal to Offender -->
<g id="edge15" class="edge">
<title>Add penalty&#45;&gt;Notify Result Appeal to Offender</title>
<path fill="none" stroke="#000000" stroke-width="0.5" d="M218.54,-355.61C236.16,-343.85 256.62,-326.55 266.5,-305 277.53,-280.96 275.93,-250.39 272.56,-228.62"/>
<polygon fill="#000000" stroke="#000000" stroke-width="0.5" points="276.02,-228.1 270.81,-218.87 269.13,-229.33 276.02,-228.1"/>
<text text-anchor="middle" x="278" y="-283.3" font-family="Times,serif" font-size="14.00">5</text>
</g>
<!-- Receive Result Appeal from Prefecture&#45;&gt;Add penalty -->
<g id="edge14" class="edge">
<title>Receive Result Appeal from Prefecture&#45;&gt;Add penalty</title>
<path fill="none" stroke="#000000" stroke-width="0.5" d="M130.59,-305.34C132.46,-315.53 135.97,-328.27 142.5,-338 145.12,-341.9 148.31,-345.55 151.77,-348.91"/>
<polygon fill="#000000" stroke="#000000" stroke-width="0.5" points="149.26,-351.37 159.09,-355.31 153.86,-346.1 149.26,-351.37"/>
<text text-anchor="middle" x="146" y="-326.8" font-family="Times,serif" font-size="14.00">5</text>
</g>
<!-- Receive Result Appeal from Prefecture&#45;&gt;Notify Result Appeal to Offender -->
<g id="edge8" class="edge">
<title>Receive Result Appeal from Prefecture&#45;&gt;Notify Result Appeal to Offender</title>
<path fill="none" stroke="#000000" stroke-width="5.03" d="M156.76,-268.59C176.29,-256.56 202.62,-240.35 224.59,-226.82"/>
<polygon fill="#000000" stroke="#000000" stroke-width="5.03" points="226.76,-230.65 232.96,-221.66 222.14,-223.15 226.76,-230.65"/>
<text text-anchor="middle" x="212.5" y="-239.8" font-family="Times,serif" font-size="14.00">61</text>
</g>
<!-- Payment -->
<g id="node10" class="node">
<title>Payment</title>
<polygon fill="#e2e2ff" stroke="black" points="230,-131 139,-131 139,-95 230,-95 230,-131"/>
<text text-anchor="middle" x="184.5" y="-109.3" font-family="Times,serif" font-size="14.00">Payment (68)</text>
</g>
<!-- Receive Result Appeal from Prefecture&#45;&gt;Payment -->
<g id="edge13" class="edge">
<title>Receive Result Appeal from Prefecture&#45;&gt;Payment</title>
<path fill="none" stroke="#000000" stroke-width="0.66" d="M127.6,-268.87C127.07,-247.78 128,-211.19 138.5,-182 143.92,-166.93 153.44,-151.99 162.43,-139.97"/>
<polygon fill="#000000" stroke="#000000" stroke-width="0.66" points="165.11,-142.22 168.49,-132.18 159.59,-137.92 165.11,-142.22"/>
<text text-anchor="middle" x="142" y="-196.3" font-family="Times,serif" font-size="14.00">7</text>
</g>
<!-- Notify Result Appeal to Offender&#45;&gt;Payment -->
<g id="edge9" class="edge">
<title>Notify Result Appeal to Offender&#45;&gt;Payment</title>
<path fill="none" stroke="#000000" stroke-width="5.03" d="M249.91,-181.8C239.2,-170.7 224.99,-155.97 212.56,-143.08"/>
<polygon fill="#000000" stroke="#000000" stroke-width="5.03" points="215.8,-140.1 205.69,-135.96 209.46,-146.21 215.8,-140.1"/>
<text text-anchor="middle" x="236.5" y="-152.8" font-family="Times,serif" font-size="14.00">61</text>
</g>
<!-- end_node -->
<g id="node11" class="node">
<title>end_node</title>
<ellipse fill="none" stroke="black" cx="225.5" cy="-22" rx="18" ry="18"/>
<ellipse fill="none" stroke="black" cx="225.5" cy="-22" rx="22" ry="22"/>
<text text-anchor="start" x="221" y="-18.3" font-family="Times,serif" font-size="14.00">■</text>
</g>
<!-- Notify Result Appeal to Offender&#45;&gt;end_node -->
<g id="edge17" class="edge">
<title>Notify Result Appeal to Offender&#45;&gt;end_node</title>
<path fill="none" stroke="#000000" stroke-width="0.5" d="M262.49,-181.8C255.6,-152.2 241.39,-91.23 232.73,-54.04"/>
<polygon fill="#000000" stroke="#000000" stroke-width="0.5" points="236.19,-53.46 230.51,-44.51 229.37,-55.05 236.19,-53.46"/>
<text text-anchor="middle" x="253" y="-109.3" font-family="Times,serif" font-size="14.00">5</text>
</g>
<!-- Payment&#45;&gt;end_node -->
<g id="edge16" class="edge">
<title>Payment&#45;&gt;end_node</title>
<path fill="none" stroke="#000000" stroke-width="5.6" d="M192.41,-94.84C197.3,-84.21 203.76,-70.18 209.68,-57.35"/>
<polygon fill="#000000" stroke="#000000" stroke-width="5.6" points="214.08,-59.5 213.81,-48.37 205.18,-55.4 214.08,-59.5"/>
<text text-anchor="middle" x="213.5" y="-65.8" font-family="Times,serif" font-size="14.00">68</text>
</g>
</g>
</svg>
