<?xml version="1.0" encoding="UTF-8" standalone="no"?>
<!DOCTYPE svg PUBLIC "-//W3C//DTD SVG 1.1//EN"
 "http://www.w3.org/Graphics/SVG/1.1/DTD/svg11.dtd">
<!-- Generated by graphviz version 7.0.5 (0)
 -->
<!-- Title: dfg Pages: 1 -->
<svg width="423pt" height="1009pt"
 viewBox="0.00 0.00 423.00 1009.00" xmlns="http://www.w3.org/2000/svg" xmlns:xlink="http://www.w3.org/1999/xlink">
<g id="graph0" class="graph" transform="scale(1 1) rotate(0) translate(4 1005)">
<title>dfg</title>
<polygon fill="white" stroke="none" points="-4,4 -4,-1005 419,-1005 419,4 -4,4"/>
<!-- start_node -->
<g id="node1" class="node">
<title>start_node</title>
<ellipse fill="none" stroke="black" cx="153" cy="-983" rx="18" ry="18"/>
<text text-anchor="start" x="148.5" y="-979.3" font-family="Times,serif" font-size="14.00">●</text>
</g>
<!-- Create Fine -->
<g id="node2" class="node">
<title>Create Fine</title>
<polygon fill="#f2f2ff" stroke="black" points="202.5,-914 103.5,-914 103.5,-878 202.5,-878 202.5,-914"/>
<text text-anchor="middle" x="153" y="-892.3" font-family="Times,serif" font-size="14.00">Create Fine (9)</text>
</g>
<!-- start_node&#45;&gt;Create Fine -->
<g id="edge1" class="edge">
<title>start_node&#45;&gt;Create Fine</title>
<path fill="none" stroke="#000000" stroke-width="1.29" d="M153,-964.8C153,-953.7 153,-938.97 153,-926.08"/>
<polygon fill="#000000" stroke="#000000" stroke-width="1.29" points="156.5,-926.41 153,-916.41 149.5,-926.41 156.5,-926.41"/>
<text text-anchor="middle" x="156.5" y="-935.8" font-family="Times,serif" font-size="14.00">9</text>
</g>
<!-- Send Fine -->
<g id="node3" class="node">
<title>Send Fine</title>
<polygon fill="#f2f2ff" stroke="black" points="198.5,-827 107.5,-827 107.5,-791 198.5,-791 198.5,-827"/>
<text text-anchor="middle" x="153" y="-805.3" font-family="Times,serif" font-size="14.00">Send Fine (9)</text>
</g>
<!-- Create Fine&#45;&gt;Send Fine -->
<g id="edge2" class="edge">
<title>Create Fine&#45;&gt;Send Fine</title>
<path fill="none" stroke="#000000" stroke-width="1.29" d="M153,-877.8C153,-866.7 153,-851.97 153,-839.08"/>
<polygon fill="#000000" stroke="#000000" stroke-width="1.29" points="156.5,-839.41 153,-829.41 149.5,-839.41 156.5,-839.41"/>
<text text-anchor="middle" x="156.5" y="-848.8" font-family="Times,serif" font-size="14.00">9</text>
</g>
<!-- Insert Fine Notification -->
<g id="node4" class="node">
<title>Insert Fine Notification</title>
<polygon fill="#f2f2ff" stroke="black" points="235,-740 71,-740 71,-704 235,-704 235,-740"/>
<text text-anchor="middle" x="153" y="-718.3" font-family="Times,serif" font-size="14.00">Insert Fine Notification (9)</text>
</g>
<!-- Send Fine&#45;&gt;Insert Fine Notification -->
<g id="edge3" class="edge">
<title>Send Fine&#45;&gt;Insert Fine Notification</title>
<path fill="none" stroke="#000000" stroke-width="1.29" d="M153,-790.8C153,-779.7 153,-764.97 153,-752.08"/>
<polygon fill="#000000" stroke="#000000" stroke-width="1.29" points="156.5,-752.41 153,-742.41 149.5,-752.41 156.5,-752.41"/>
<text text-anchor="middle" x="156.5" y="-761.8" font-family="Times,serif" font-size="14.00">9</text>
</g>
<!-- Add penalty -->
<g id="node5" class="node">
<title>Add penalty</title>
<polygon fill="#f2f2ff" stroke="black" points="204.5,-479 101.5,-479 101.5,-443 204.5,-443 204.5,-479"/>
<text text-anchor="middle" x="153" y="-457.3" font-family="Times,serif" font-size="14.00">Add penalty (9)</text>
</g>
<!-- Insert Fine Notification&#45;&gt;Add penalty -->
<g id="edge4" class="edge">
<title>Insert Fine Notification&#45;&gt;Add penalty</title>
<path fill="none" stroke="#000000" stroke-width="1.19" d="M153,-703.6C153,-659.92 153,-545.26 153,-491.11"/>
<polygon fill="#000000" stroke="#000000" stroke-width="1.19" points="156.5,-491.12 153,-481.12 149.5,-491.12 156.5,-491.12"/>
<text text-anchor="middle" x="156.5" y="-587.8" font-family="Times,serif" font-size="14.00">8</text>
</g>
<!-- Insert Date Appeal to Prefecture -->
<g id="node8" class="node">
<title>Insert Date Appeal to Prefecture</title>
<polygon fill="#ffffff" stroke="black" points="377,-653 165,-653 165,-617 377,-617 377,-653"/>
<text text-anchor="middle" x="271" y="-631.3" font-family="Times,serif" font-size="14.00">Insert Date Appeal to Prefecture (1)</text>
</g>
<!-- Insert Fine Notification&#45;&gt;Insert Date Appeal to Prefecture -->
<g id="edge8" class="edge">
<title>Insert Fine Notification&#45;&gt;Insert Date Appeal to Prefecture</title>
<path fill="none" stroke="#ff0000" stroke-width="0.5" stroke-dasharray="5,2" d="M177.16,-703.59C194.82,-690.87 218.97,-673.48 238.34,-659.52"/>
<polygon fill="#ff0000" stroke="#ff0000" stroke-width="0.5" points="240.19,-662.51 246.25,-653.83 236.09,-656.83 240.19,-662.51"/>
<text text-anchor="middle" x="222.5" y="-674.8" font-family="Times,serif" font-size="14.00">1</text>
</g>
<!-- Payment -->
<g id="node6" class="node">
<title>Payment</title>
<polygon fill="#9b9bff" stroke="black" points="198.5,-218 107.5,-218 107.5,-182 198.5,-182 198.5,-218"/>
<text text-anchor="middle" x="153" y="-196.3" font-family="Times,serif" font-size="14.00">Payment (66)</text>
</g>
<!-- Add penalty&#45;&gt;Payment -->
<g id="edge5" class="edge">
<title>Add penalty&#45;&gt;Payment</title>
<path fill="none" stroke="#000000" stroke-width="1.19" d="M153,-442.6C153,-398.92 153,-284.26 153,-230.11"/>
<polygon fill="#000000" stroke="#000000" stroke-width="1.19" points="156.5,-230.12 153,-220.12 149.5,-230.12 156.5,-230.12"/>
<text text-anchor="middle" x="156.5" y="-326.8" font-family="Times,serif" font-size="14.00">8</text>
</g>
<!-- Receive Result Appeal from Prefecture -->
<g id="node10" class="node">
<title>Receive Result Appeal from Prefecture</title>
<polygon fill="#ffffff" stroke="black" points="415,-392 165,-392 165,-356 415,-356 415,-392"/>
<text text-anchor="middle" x="290" y="-370.3" font-family="Times,serif" font-size="14.00">Receive Result Appeal from Prefecture (1)</text>
</g>
<!-- Add penalty&#45;&gt;Receive Result Appeal from Prefecture -->
<g id="edge11" class="edge">
<title>Add penalty&#45;&gt;Receive Result Appeal from Prefecture</title>
<path fill="none" stroke="#ff0000" stroke-width="0.5" stroke-dasharray="5,2" d="M181.05,-442.59C201.83,-429.7 230.35,-412.01 252.99,-397.96"/>
<polygon fill="#ff0000" stroke="#ff0000" stroke-width="0.5" points="254.69,-401.03 261.34,-392.78 251,-395.08 254.69,-401.03"/>
<text text-anchor="middle" x="232.5" y="-413.8" font-family="Times,serif" font-size="14.00">1</text>
</g>
<!-- Payment&#45;&gt;Payment -->
<g id="edge6" class="edge">
<title>Payment&#45;&gt;Payment</title>
<path fill="none" stroke="#000000" stroke-width="6" d="M198.95,-207.94C209.1,-207.19 216.5,-204.55 216.5,-200 216.5,-198.58 215.78,-197.34 214.47,-196.3"/>
<polygon fill="#000000" stroke="#000000" stroke-width="6" points="216.21,-191.33 205.18,-193.76 213.44,-201.46 216.21,-191.33"/>
<text text-anchor="middle" x="223.5" y="-196.3" font-family="Times,serif" font-size="14.00">57</text>
</g>
<!-- Send for Credit Collection -->
<g id="node7" class="node">
<title>Send for Credit Collection</title>
<polygon fill="#ffffff" stroke="black" points="180,-131 0,-131 0,-95 180,-95 180,-131"/>
<text text-anchor="middle" x="90" y="-109.3" font-family="Times,serif" font-size="14.00">Send for Credit Collection (1)</text>
</g>
<!-- Payment&#45;&gt;Send for Credit Collection -->
<g id="edge7" class="edge">
<title>Payment&#45;&gt;Send for Credit Collection</title>
<path fill="none" stroke="#ff0000" stroke-width="0.5" stroke-dasharray="5,2" d="M140.25,-181.8C131.34,-169.78 119.29,-153.52 109.22,-139.94"/>
<polygon fill="#ff0000" stroke="#ff0000" stroke-width="0.5" points="112.16,-138.02 103.4,-132.08 106.54,-142.19 112.16,-138.02"/>
<text text-anchor="middle" x="129.5" y="-152.8" font-family="Times,serif" font-size="14.00">1</text>
</g>
<!-- end_node -->
<g id="node12" class="node">
<title>end_node</title>
<ellipse fill="none" stroke="black" cx="153" cy="-22" rx="18" ry="18"/>
<ellipse fill="none" stroke="black" cx="153" cy="-22" rx="22" ry="22"/>
<text text-anchor="start" x="148.5" y="-18.3" font-family="Times,serif" font-size="14.00">■</text>
</g>
<!-- Payment&#45;&gt;end_node -->
<g id="edge14" class="edge">
<title>Payment&#45;&gt;end_node</title>
<path fill="none" stroke="#000000" stroke-width="1.19" d="M165.34,-181.51C173.85,-168.32 184.43,-149.41 189,-131 192.86,-115.47 192.68,-110.57 189,-95 185.39,-79.7 178,-63.94 170.85,-51.08"/>
<polygon fill="#000000" stroke="#000000" stroke-width="1.19" points="173.96,-49.46 165.89,-42.59 167.91,-52.99 173.96,-49.46"/>
<text text-anchor="middle" x="195.5" y="-109.3" font-family="Times,serif" font-size="14.00">8</text>
</g>
<!-- Send for Credit Collection&#45;&gt;end_node -->
<g id="edge15" class="edge">
<title>Send for Credit Collection&#45;&gt;end_node</title>
<path fill="none" stroke="#ff0000" stroke-width="0.5" stroke-dasharray="5,2" d="M102.15,-94.84C111.33,-81.87 124.09,-63.85 134.53,-49.1"/>
<polygon fill="#ff0000" stroke="#ff0000" stroke-width="0.5" points="137.32,-51.21 140.24,-41.03 131.6,-47.17 137.32,-51.21"/>
<text text-anchor="middle" x="129.5" y="-65.8" font-family="Times,serif" font-size="14.00">1</text>
</g>
<!-- Send Appeal to Prefecture -->
<g id="node9" class="node">
<title>Send Appeal to Prefecture</title>
<polygon fill="#ffffff" stroke="black" points="352.5,-566 173.5,-566 173.5,-530 352.5,-530 352.5,-566"/>
<text text-anchor="middle" x="263" y="-544.3" font-family="Times,serif" font-size="14.00">Send Appeal to Prefecture (1)</text>
</g>
<!-- Insert Date Appeal to Prefecture&#45;&gt;Send Appeal to Prefecture -->
<g id="edge9" class="edge">
<title>Insert Date Appeal to Prefecture&#45;&gt;Send Appeal to Prefecture</title>
<path fill="none" stroke="#ff0000" stroke-width="0.5" stroke-dasharray="5,2" d="M269.38,-616.8C268.3,-605.35 266.86,-590.06 265.63,-576.89"/>
<polygon fill="#ff0000" stroke="#ff0000" stroke-width="0.5" points="269.14,-576.85 264.71,-567.22 262.17,-577.5 269.14,-576.85"/>
<text text-anchor="middle" x="270.5" y="-587.8" font-family="Times,serif" font-size="14.00">1</text>
</g>
<!-- Send Appeal to Prefecture&#45;&gt;Add penalty -->
<g id="edge10" class="edge">
<title>Send Appeal to Prefecture&#45;&gt;Add penalty</title>
<path fill="none" stroke="#ff0000" stroke-width="0.5" stroke-dasharray="5,2" d="M240.47,-529.59C224.16,-516.99 201.91,-499.79 183.93,-485.9"/>
<polygon fill="#ff0000" stroke="#ff0000" stroke-width="0.5" points="186.15,-483.19 176.09,-479.85 181.87,-488.73 186.15,-483.19"/>
<text text-anchor="middle" x="218.5" y="-500.8" font-family="Times,serif" font-size="14.00">1</text>
</g>
<!-- Notify Result Appeal to Offender -->
<g id="node11" class="node">
<title>Notify Result Appeal to Offender</title>
<polygon fill="#ffffff" stroke="black" points="391,-305 173,-305 173,-269 391,-269 391,-305"/>
<text text-anchor="middle" x="282" y="-283.3" font-family="Times,serif" font-size="14.00">Notify Result Appeal to Offender (1)</text>
</g>
<!-- Receive Result Appeal from Prefecture&#45;&gt;Notify Result Appeal to Offender -->
<g id="edge12" class="edge">
<title>Receive Result Appeal from Prefecture&#45;&gt;Notify Result Appeal to Offender</title>
<path fill="none" stroke="#ff0000" stroke-width="0.5" stroke-dasharray="5,2" d="M288.38,-355.8C287.3,-344.35 285.86,-329.06 284.63,-315.89"/>
<polygon fill="#ff0000" stroke="#ff0000" stroke-width="0.5" points="288.14,-315.85 283.71,-306.22 281.17,-316.5 288.14,-315.85"/>
<text text-anchor="middle" x="289.5" y="-326.8" font-family="Times,serif" font-size="14.00">1</text>
</g>
<!-- Notify Result Appeal to Offender&#45;&gt;Payment -->
<g id="edge13" class="edge">
<title>Notify Result Appeal to Offender&#45;&gt;Payment</title>
<path fill="none" stroke="#ff0000" stroke-width="0.5" stroke-dasharray="5,2" d="M255.58,-268.59C236.11,-255.76 209.41,-238.17 188.13,-224.15"/>
<polygon fill="#ff0000" stroke="#ff0000" stroke-width="0.5" points="190.29,-221.38 180.01,-218.8 186.44,-227.22 190.29,-221.38"/>
<text text-anchor="middle" x="228.5" y="-239.8" font-family="Times,serif" font-size="14.00">1</text>
</g>
</g>
</svg>
