<?xml version="1.0" encoding="UTF-8" standalone="no"?>
<!DOCTYPE svg PUBLIC "-//W3C//DTD SVG 1.1//EN"
 "http://www.w3.org/Graphics/SVG/1.1/DTD/svg11.dtd">
<!-- Generated by graphviz version 7.0.5 (0)
 -->
<!-- Title: dfg Pages: 1 -->
<svg width="172pt" height="574pt"
 viewBox="0.00 0.00 172.00 574.00" xmlns="http://www.w3.org/2000/svg" xmlns:xlink="http://www.w3.org/1999/xlink">
<g id="graph0" class="graph" transform="scale(1 1) rotate(0) translate(4 570)">
<title>dfg</title>
<polygon fill="white" stroke="none" points="-4,4 -4,-570 168,-570 168,4 -4,4"/>
<!-- start_node -->
<g id="node1" class="node">
<title>start_node</title>
<ellipse fill="none" stroke="black" cx="82" cy="-548" rx="18" ry="18"/>
<text text-anchor="start" x="77.5" y="-544.3" font-family="Times,serif" font-size="14.00">●</text>
</g>
<!-- Create Fine -->
<g id="node2" class="node">
<title>Create Fine</title>
<polygon fill="#ffffff" stroke="black" points="131.5,-479 32.5,-479 32.5,-443 131.5,-443 131.5,-479"/>
<text text-anchor="middle" x="82" y="-457.3" font-family="Times,serif" font-size="14.00">Create Fine (6)</text>
</g>
<!-- start_node&#45;&gt;Create Fine -->
<g id="edge1" class="edge">
<title>start_node&#45;&gt;Create Fine</title>
<path fill="none" stroke="#000000" stroke-width="0.5" d="M82,-529.8C82,-518.35 82,-503.06 82,-489.89"/>
<polygon fill="#000000" stroke="#000000" stroke-width="0.5" points="85.5,-490.22 82,-480.22 78.5,-490.22 85.5,-490.22"/>
<text text-anchor="middle" x="85.5" y="-500.8" font-family="Times,serif" font-size="14.00">6</text>
</g>
<!-- Send Fine -->
<g id="node3" class="node">
<title>Send Fine</title>
<polygon fill="#ffffff" stroke="black" points="127.5,-392 36.5,-392 36.5,-356 127.5,-356 127.5,-392"/>
<text text-anchor="middle" x="82" y="-370.3" font-family="Times,serif" font-size="14.00">Send Fine (6)</text>
</g>
<!-- Create Fine&#45;&gt;Send Fine -->
<g id="edge2" class="edge">
<title>Create Fine&#45;&gt;Send Fine</title>
<path fill="none" stroke="#000000" stroke-width="0.5" d="M82,-442.8C82,-431.35 82,-416.06 82,-402.89"/>
<polygon fill="#000000" stroke="#000000" stroke-width="0.5" points="85.5,-403.22 82,-393.22 78.5,-403.22 85.5,-403.22"/>
<text text-anchor="middle" x="85.5" y="-413.8" font-family="Times,serif" font-size="14.00">6</text>
</g>
<!-- Insert Fine Notification -->
<g id="node4" class="node">
<title>Insert Fine Notification</title>
<polygon fill="#ffffff" stroke="black" points="164,-305 0,-305 0,-269 164,-269 164,-305"/>
<text text-anchor="middle" x="82" y="-283.3" font-family="Times,serif" font-size="14.00">Insert Fine Notification (6)</text>
</g>
<!-- Send Fine&#45;&gt;Insert Fine Notification -->
<g id="edge3" class="edge">
<title>Send Fine&#45;&gt;Insert Fine Notification</title>
<path fill="none" stroke="#000000" stroke-width="0.5" d="M82,-355.8C82,-344.35 82,-329.06 82,-315.89"/>
<polygon fill="#000000" stroke="#000000" stroke-width="0.5" points="85.5,-316.22 82,-306.22 78.5,-316.22 85.5,-316.22"/>
<text text-anchor="middle" x="85.5" y="-326.8" font-family="Times,serif" font-size="14.00">6</text>
</g>
<!-- Add penalty -->
<g id="node5" class="node">
<title>Add penalty</title>
<polygon fill="#ffffff" stroke="black" points="133.5,-218 30.5,-218 30.5,-182 133.5,-182 133.5,-218"/>
<text text-anchor="middle" x="82" y="-196.3" font-family="Times,serif" font-size="14.00">Add penalty (6)</text>
</g>
<!-- Insert Fine Notification&#45;&gt;Add penalty -->
<g id="edge4" class="edge">
<title>Insert Fine Notification&#45;&gt;Add penalty</title>
<path fill="none" stroke="#000000" stroke-width="0.5" d="M82,-268.8C82,-257.35 82,-242.06 82,-228.89"/>
<polygon fill="#000000" stroke="#000000" stroke-width="0.5" points="85.5,-229.22 82,-219.22 78.5,-229.22 85.5,-229.22"/>
<text text-anchor="middle" x="85.5" y="-239.8" font-family="Times,serif" font-size="14.00">6</text>
</g>
<!-- Payment -->
<g id="node6" class="node">
<title>Payment</title>
<polygon fill="#9b9bff" stroke="black" points="127.5,-131 36.5,-131 36.5,-95 127.5,-95 127.5,-131"/>
<text text-anchor="middle" x="82" y="-109.3" font-family="Times,serif" font-size="14.00">Payment (40)</text>
</g>
<!-- Add penalty&#45;&gt;Payment -->
<g id="edge5" class="edge">
<title>Add penalty&#45;&gt;Payment</title>
<path fill="none" stroke="#000000" stroke-width="0.5" d="M82,-181.8C82,-170.35 82,-155.06 82,-141.89"/>
<polygon fill="#000000" stroke="#000000" stroke-width="0.5" points="85.5,-142.22 82,-132.22 78.5,-142.22 85.5,-142.22"/>
<text text-anchor="middle" x="85.5" y="-152.8" font-family="Times,serif" font-size="14.00">6</text>
</g>
<!-- Payment&#45;&gt;Payment -->
<g id="edge6" class="edge">
<title>Payment&#45;&gt;Payment</title>
<path fill="none" stroke="#000000" stroke-width="6" d="M127.95,-120.94C138.1,-120.19 145.5,-117.55 145.5,-113 145.5,-111.58 144.78,-110.34 143.47,-109.3"/>
<polygon fill="#000000" stroke="#000000" stroke-width="6" points="145.21,-104.33 134.18,-106.76 142.44,-114.46 145.21,-104.33"/>
<text text-anchor="middle" x="152.5" y="-109.3" font-family="Times,serif" font-size="14.00">34</text>
</g>
<!-- end_node -->
<g id="node7" class="node">
<title>end_node</title>
<ellipse fill="none" stroke="black" cx="82" cy="-22" rx="18" ry="18"/>
<ellipse fill="none" stroke="black" cx="82" cy="-22" rx="22" ry="22"/>
<text text-anchor="start" x="77.5" y="-18.3" font-family="Times,serif" font-size="14.00">■</text>
</g>
<!-- Payment&#45;&gt;end_node -->
<g id="edge7" class="edge">
<title>Payment&#45;&gt;end_node</title>
<path fill="none" stroke="#000000" stroke-width="0.5" d="M82,-94.84C82,-83.44 82,-68.13 82,-54.58"/>
<polygon fill="#000000" stroke="#000000" stroke-width="0.5" points="85.5,-54.95 82,-44.95 78.5,-54.95 85.5,-54.95"/>
<text text-anchor="middle" x="85.5" y="-65.8" font-family="Times,serif" font-size="14.00">6</text>
</g>
</g>
</svg>
