<?xml version="1.0" encoding="UTF-8" standalone="no"?>
<!DOCTYPE svg PUBLIC "-//W3C//DTD SVG 1.1//EN"
 "http://www.w3.org/Graphics/SVG/1.1/DTD/svg11.dtd">
<!-- Generated by graphviz version 7.0.5 (0)
 -->
<!-- Title: dfg Pages: 1 -->
<svg width="567pt" height="1009pt"
 viewBox="0.00 0.00 567.00 1009.00" xmlns="http://www.w3.org/2000/svg" xmlns:xlink="http://www.w3.org/1999/xlink">
<g id="graph0" class="graph" transform="scale(1 1) rotate(0) translate(4 1005)">
<title>dfg</title>
<polygon fill="white" stroke="none" points="-4,4 -4,-1005 563,-1005 563,4 -4,4"/>
<!-- start_node -->
<g id="node1" class="node">
<title>start_node</title>
<ellipse fill="none" stroke="black" cx="235" cy="-983" rx="18" ry="18"/>
<text text-anchor="start" x="230.5" y="-979.3" font-family="Times,serif" font-size="14.00">●</text>
</g>
<!-- Create Fine -->
<g id="node2" class="node">
<title>Create Fine</title>
<polygon fill="#f2f2ff" stroke="black" points="288,-914 182,-914 182,-878 288,-878 288,-914"/>
<text text-anchor="middle" x="235" y="-892.3" font-family="Times,serif" font-size="14.00">Create Fine (14)</text>
</g>
<!-- start_node&#45;&gt;Create Fine -->
<g id="edge1" class="edge">
<title>start_node&#45;&gt;Create Fine</title>
<path fill="none" stroke="#000000" stroke-width="1.49" d="M235,-964.8C235,-953.81 235,-939.28 235,-926.48"/>
<polygon fill="#000000" stroke="#000000" stroke-width="1.49" points="238.5,-926.73 235,-916.73 231.5,-926.73 238.5,-926.73"/>
<text text-anchor="middle" x="242" y="-935.8" font-family="Times,serif" font-size="14.00">14</text>
</g>
<!-- Send Fine -->
<g id="node3" class="node">
<title>Send Fine</title>
<polygon fill="#f2f2ff" stroke="black" points="284,-827 186,-827 186,-791 284,-791 284,-827"/>
<text text-anchor="middle" x="235" y="-805.3" font-family="Times,serif" font-size="14.00">Send Fine (14)</text>
</g>
<!-- Create Fine&#45;&gt;Send Fine -->
<g id="edge2" class="edge">
<title>Create Fine&#45;&gt;Send Fine</title>
<path fill="none" stroke="#000000" stroke-width="1.49" d="M235,-877.8C235,-866.81 235,-852.28 235,-839.48"/>
<polygon fill="#000000" stroke="#000000" stroke-width="1.49" points="238.5,-839.73 235,-829.73 231.5,-839.73 238.5,-839.73"/>
<text text-anchor="middle" x="242" y="-848.8" font-family="Times,serif" font-size="14.00">14</text>
</g>
<!-- Insert Fine Notification -->
<g id="node4" class="node">
<title>Insert Fine Notification</title>
<polygon fill="#f2f2ff" stroke="black" points="320,-740 150,-740 150,-704 320,-704 320,-740"/>
<text text-anchor="middle" x="235" y="-718.3" font-family="Times,serif" font-size="14.00">Insert Fine Notification (14)</text>
</g>
<!-- Send Fine&#45;&gt;Insert Fine Notification -->
<g id="edge3" class="edge">
<title>Send Fine&#45;&gt;Insert Fine Notification</title>
<path fill="none" stroke="#000000" stroke-width="1.49" d="M235,-790.8C235,-779.81 235,-765.28 235,-752.48"/>
<polygon fill="#000000" stroke="#000000" stroke-width="1.49" points="238.5,-752.73 235,-742.73 231.5,-752.73 238.5,-752.73"/>
<text text-anchor="middle" x="242" y="-761.8" font-family="Times,serif" font-size="14.00">14</text>
</g>
<!-- Insert Date Appeal to Prefecture -->
<g id="node5" class="node">
<title>Insert Date Appeal to Prefecture</title>
<polygon fill="#fafaff" stroke="black" points="341,-653 129,-653 129,-617 341,-617 341,-653"/>
<text text-anchor="middle" x="235" y="-631.3" font-family="Times,serif" font-size="14.00">Insert Date Appeal to Prefecture (8)</text>
</g>
<!-- Insert Fine Notification&#45;&gt;Insert Date Appeal to Prefecture -->
<g id="edge4" class="edge">
<title>Insert Fine Notification&#45;&gt;Insert Date Appeal to Prefecture</title>
<path fill="none" stroke="#000000" stroke-width="0.88" d="M235,-703.8C235,-692.58 235,-677.67 235,-664.69"/>
<polygon fill="#000000" stroke="#000000" stroke-width="0.88" points="238.5,-664.8 235,-654.8 231.5,-664.8 238.5,-664.8"/>
<text text-anchor="middle" x="238.5" y="-674.8" font-family="Times,serif" font-size="14.00">6</text>
</g>
<!-- Add penalty -->
<g id="node7" class="node">
<title>Add penalty</title>
<polygon fill="#f2f2ff" stroke="black" points="416,-479 306,-479 306,-443 416,-443 416,-479"/>
<text text-anchor="middle" x="361" y="-457.3" font-family="Times,serif" font-size="14.00">Add penalty (14)</text>
</g>
<!-- Insert Fine Notification&#45;&gt;Add penalty -->
<g id="edge11" class="edge">
<title>Insert Fine Notification&#45;&gt;Add penalty</title>
<path fill="none" stroke="#000000" stroke-width="0.96" d="M279.29,-703.5C303.03,-692.18 331.18,-675.36 350,-653 391.51,-603.68 383.4,-576.46 384,-512 384.06,-505.33 385.91,-503.39 384,-497 383.18,-494.26 382.07,-491.53 380.77,-488.88"/>
<polygon fill="#000000" stroke="#000000" stroke-width="0.96" points="383.9,-487.29 375.84,-480.41 377.85,-490.81 383.9,-487.29"/>
<text text-anchor="middle" x="385.5" y="-587.8" font-family="Times,serif" font-size="14.00">7</text>
</g>
<!-- Appeal to Judge -->
<g id="node11" class="node">
<title>Appeal to Judge</title>
<polygon fill="#ffffff" stroke="black" points="232.5,-218 107.5,-218 107.5,-182 232.5,-182 232.5,-218"/>
<text text-anchor="middle" x="170" y="-196.3" font-family="Times,serif" font-size="14.00">Appeal to Judge (4)</text>
</g>
<!-- Insert Fine Notification&#45;&gt;Appeal to Judge -->
<g id="edge19" class="edge">
<title>Insert Fine Notification&#45;&gt;Appeal to Judge</title>
<path fill="none" stroke="#ff0000" stroke-width="0.5" stroke-dasharray="5,2" d="M149.83,-706.57C82.57,-692.68 0,-668.92 0,-636 0,-636 0,-636 0,-416.5 0,-325.85 24.48,-292.97 95,-236 100.84,-231.28 107.42,-227.03 114.2,-223.25"/>
<polygon fill="#ff0000" stroke="#ff0000" stroke-width="0.5" points="115.59,-226.48 122.83,-218.75 112.35,-220.27 115.59,-226.48"/>
<text text-anchor="middle" x="3.5" y="-457.3" font-family="Times,serif" font-size="14.00">1</text>
</g>
<!-- Send Appeal to Prefecture -->
<g id="node6" class="node">
<title>Send Appeal to Prefecture</title>
<polygon fill="#fbfbff" stroke="black" points="324.5,-566 145.5,-566 145.5,-530 324.5,-530 324.5,-566"/>
<text text-anchor="middle" x="235" y="-544.3" font-family="Times,serif" font-size="14.00">Send Appeal to Prefecture (7)</text>
</g>
<!-- Insert Date Appeal to Prefecture&#45;&gt;Send Appeal to Prefecture -->
<g id="edge5" class="edge">
<title>Insert Date Appeal to Prefecture&#45;&gt;Send Appeal to Prefecture</title>
<path fill="none" stroke="#000000" stroke-width="0.81" d="M235,-616.8C235,-605.47 235,-590.36 235,-577.29"/>
<polygon fill="#000000" stroke="#000000" stroke-width="0.81" points="238.5,-577.69 235,-567.69 231.5,-577.69 238.5,-577.69"/>
<text text-anchor="middle" x="238.5" y="-587.8" font-family="Times,serif" font-size="14.00">5</text>
</g>
<!-- Insert Date Appeal to Prefecture&#45;&gt;Add penalty -->
<g id="edge20" class="edge">
<title>Insert Date Appeal to Prefecture&#45;&gt;Add penalty</title>
<path fill="none" stroke="#ff0000" stroke-width="0.5" stroke-dasharray="5,2" d="M272.52,-616.66C293.54,-605.12 318.56,-588.02 334,-566 349.85,-543.4 356.4,-512.17 359.1,-489.84"/>
<polygon fill="#ff0000" stroke="#ff0000" stroke-width="0.5" points="362.56,-490.43 360.09,-480.13 355.59,-489.72 362.56,-490.43"/>
<text text-anchor="middle" x="353.5" y="-544.3" font-family="Times,serif" font-size="14.00">1</text>
</g>
<!-- Payment -->
<g id="node10" class="node">
<title>Payment</title>
<polygon fill="#9b9bff" stroke="black" points="398.5,-131 307.5,-131 307.5,-95 398.5,-95 398.5,-131"/>
<text text-anchor="middle" x="353" y="-109.3" font-family="Times,serif" font-size="14.00">Payment (87)</text>
</g>
<!-- Insert Date Appeal to Prefecture&#45;&gt;Payment -->
<g id="edge24" class="edge">
<title>Insert Date Appeal to Prefecture&#45;&gt;Payment</title>
<path fill="none" stroke="#ff0000" stroke-width="0.5" stroke-dasharray="5,2" d="M128.62,-623.33C85.65,-612.56 46,-591.18 46,-549 46,-549 46,-549 46,-373 46,-285.02 34.23,-242.61 98,-182 151.66,-130.99 239.18,-117.29 296.43,-114.11"/>
<polygon fill="#ff0000" stroke="#ff0000" stroke-width="0.5" points="296.52,-117.61 306.35,-113.66 296.2,-110.62 296.52,-117.61"/>
<text text-anchor="middle" x="49.5" y="-370.3" font-family="Times,serif" font-size="14.00">1</text>
</g>
<!-- Insert Date Appeal to Prefecture&#45;&gt;Appeal to Judge -->
<g id="edge15" class="edge">
<title>Insert Date Appeal to Prefecture&#45;&gt;Appeal to Judge</title>
<path fill="none" stroke="#ff0000" stroke-width="0.5" stroke-dasharray="5,2" d="M148.04,-616.53C114.47,-604.26 84,-583.6 84,-549 84,-549 84,-549 84,-286 84,-259.55 104.83,-238.54 125.99,-224.03"/>
<polygon fill="#ff0000" stroke="#ff0000" stroke-width="0.5" points="127.87,-226.98 134.38,-218.62 124.08,-221.1 127.87,-226.98"/>
<text text-anchor="middle" x="87.5" y="-413.8" font-family="Times,serif" font-size="14.00">1</text>
</g>
<!-- Send Appeal to Prefecture&#45;&gt;Add penalty -->
<g id="edge6" class="edge">
<title>Send Appeal to Prefecture&#45;&gt;Add penalty</title>
<path fill="none" stroke="#ff0000" stroke-width="0.73" stroke-dasharray="5,2" d="M258.72,-529.51C272.16,-519.74 289.36,-507.46 305,-497 310.75,-493.15 316.91,-489.17 322.95,-485.34"/>
<polygon fill="#ff0000" stroke="#ff0000" stroke-width="0.73" points="324.75,-488.34 331.36,-480.06 321.03,-482.41 324.75,-488.34"/>
<text text-anchor="middle" x="308.5" y="-500.8" font-family="Times,serif" font-size="14.00">4</text>
</g>
<!-- Receive Result Appeal from Prefecture -->
<g id="node8" class="node">
<title>Receive Result Appeal from Prefecture</title>
<polygon fill="#ffffff" stroke="black" points="486,-392 236,-392 236,-356 486,-356 486,-392"/>
<text text-anchor="middle" x="361" y="-370.3" font-family="Times,serif" font-size="14.00">Receive Result Appeal from Prefecture (4)</text>
</g>
<!-- Send Appeal to Prefecture&#45;&gt;Receive Result Appeal from Prefecture -->
<g id="edge22" class="edge">
<title>Send Appeal to Prefecture&#45;&gt;Receive Result Appeal from Prefecture</title>
<path fill="none" stroke="#ff0000" stroke-width="0.5" stroke-dasharray="5,2" d="M242.04,-529.81C251.28,-508.35 268.83,-471.04 290,-443 302.04,-427.06 317.91,-411.48 331.59,-399.27"/>
<polygon fill="#ff0000" stroke="#ff0000" stroke-width="0.5" points="333.55,-402.2 338.78,-392.98 328.94,-396.93 333.55,-402.2"/>
<text text-anchor="middle" x="293.5" y="-457.3" font-family="Times,serif" font-size="14.00">1</text>
</g>
<!-- Send Appeal to Prefecture&#45;&gt;Payment -->
<g id="edge25" class="edge">
<title>Send Appeal to Prefecture&#45;&gt;Payment</title>
<path fill="none" stroke="#ff0000" stroke-width="0.5" stroke-dasharray="5,2" d="M314.99,-529.59C408.9,-503.9 552,-445.96 552,-331.5 552,-331.5 552,-331.5 552,-199 552,-136.58 468.17,-119.38 409.32,-114.99"/>
<polygon fill="#ff0000" stroke="#ff0000" stroke-width="0.5" points="409.61,-111.51 399.41,-114.36 409.17,-118.49 409.61,-111.51"/>
<text text-anchor="middle" x="555.5" y="-326.8" font-family="Times,serif" font-size="14.00">1</text>
</g>
<!-- Send Appeal to Prefecture&#45;&gt;Appeal to Judge -->
<g id="edge17" class="edge">
<title>Send Appeal to Prefecture&#45;&gt;Appeal to Judge</title>
<path fill="none" stroke="#ff0000" stroke-width="0.5" stroke-dasharray="5,2" d="M229.87,-529.95C221.49,-501.58 204.83,-442.75 195,-392 183.88,-334.57 176.28,-266.46 172.59,-229.07"/>
<polygon fill="#ff0000" stroke="#ff0000" stroke-width="0.5" points="176.08,-228.87 171.64,-219.25 169.12,-229.54 176.08,-228.87"/>
<text text-anchor="middle" x="198.5" y="-370.3" font-family="Times,serif" font-size="14.00">1</text>
</g>
<!-- Add penalty&#45;&gt;Insert Date Appeal to Prefecture -->
<g id="edge23" class="edge">
<title>Add penalty&#45;&gt;Insert Date Appeal to Prefecture</title>
<path fill="none" stroke="#ff0000" stroke-width="0.58" stroke-dasharray="5,2" d="M366.36,-479.28C367.85,-484.88 369.26,-491.15 370,-497 373.88,-527.68 376.28,-539.11 361,-566 349.07,-586.99 328.06,-601.84 306.57,-612.19"/>
<polygon fill="#ff0000" stroke="#ff0000" stroke-width="0.58" points="305.17,-608.98 297.49,-616.27 308.04,-615.36 305.17,-608.98"/>
<text text-anchor="middle" x="375.5" y="-544.3" font-family="Times,serif" font-size="14.00">2</text>
</g>
<!-- Add penalty&#45;&gt;Send Appeal to Prefecture -->
<g id="edge21" class="edge">
<title>Add penalty&#45;&gt;Send Appeal to Prefecture</title>
<path fill="none" stroke="#ff0000" stroke-width="0.5" stroke-dasharray="5,2" d="M346.9,-479.35C337.76,-489.79 325.14,-502.8 312,-512 305.23,-516.74 297.73,-521.09 290.12,-524.98"/>
<polygon fill="#ff0000" stroke="#ff0000" stroke-width="0.5" points="288.63,-521.82 281.18,-529.34 291.7,-528.11 288.63,-521.82"/>
<text text-anchor="middle" x="332.5" y="-500.8" font-family="Times,serif" font-size="14.00">1</text>
</g>
<!-- Add penalty&#45;&gt;Receive Result Appeal from Prefecture -->
<g id="edge7" class="edge">
<title>Add penalty&#45;&gt;Receive Result Appeal from Prefecture</title>
<path fill="none" stroke="#ff0000" stroke-width="0.65" stroke-dasharray="5,2" d="M361,-442.8C361,-431.47 361,-416.36 361,-403.29"/>
<polygon fill="#ff0000" stroke="#ff0000" stroke-width="0.65" points="364.5,-403.46 361,-393.46 357.5,-403.46 364.5,-403.46"/>
<text text-anchor="middle" x="364.5" y="-413.8" font-family="Times,serif" font-size="14.00">3</text>
</g>
<!-- Add penalty&#45;&gt;Payment -->
<g id="edge12" class="edge">
<title>Add penalty&#45;&gt;Payment</title>
<path fill="none" stroke="#000000" stroke-width="1.03" d="M416.24,-452.18C460.06,-442.49 514,-421.19 514,-375 514,-375 514,-375 514,-199 514,-150.53 456.22,-129.63 409.89,-120.66"/>
<polygon fill="#000000" stroke="#000000" stroke-width="1.03" points="410.71,-117.25 400.25,-118.95 409.48,-124.14 410.71,-117.25"/>
<text text-anchor="middle" x="517.5" y="-283.3" font-family="Times,serif" font-size="14.00">8</text>
</g>
<!-- Notify Result Appeal to Offender -->
<g id="node9" class="node">
<title>Notify Result Appeal to Offender</title>
<polygon fill="#ffffff" stroke="black" points="462,-305 244,-305 244,-269 462,-269 462,-305"/>
<text text-anchor="middle" x="353" y="-283.3" font-family="Times,serif" font-size="14.00">Notify Result Appeal to Offender (4)</text>
</g>
<!-- Receive Result Appeal from Prefecture&#45;&gt;Notify Result Appeal to Offender -->
<g id="edge8" class="edge">
<title>Receive Result Appeal from Prefecture&#45;&gt;Notify Result Appeal to Offender</title>
<path fill="none" stroke="#ff0000" stroke-width="0.73" stroke-dasharray="5,2" d="M359.38,-355.8C358.31,-344.47 356.89,-329.36 355.66,-316.29"/>
<polygon fill="#ff0000" stroke="#ff0000" stroke-width="0.73" points="359.17,-316.19 354.75,-306.57 352.2,-316.85 359.17,-316.19"/>
<text text-anchor="middle" x="360.5" y="-326.8" font-family="Times,serif" font-size="14.00">4</text>
</g>
<!-- Notify Result Appeal to Offender&#45;&gt;Payment -->
<g id="edge9" class="edge">
<title>Notify Result Appeal to Offender&#45;&gt;Payment</title>
<path fill="none" stroke="#ff0000" stroke-width="0.65" stroke-dasharray="5,2" d="M353,-268.56C353,-238.81 353,-178.01 353,-142.17"/>
<polygon fill="#ff0000" stroke="#ff0000" stroke-width="0.65" points="356.5,-142.47 353,-132.47 349.5,-142.47 356.5,-142.47"/>
<text text-anchor="middle" x="356.5" y="-196.3" font-family="Times,serif" font-size="14.00">3</text>
</g>
<!-- Notify Result Appeal to Offender&#45;&gt;Appeal to Judge -->
<g id="edge13" class="edge">
<title>Notify Result Appeal to Offender&#45;&gt;Appeal to Judge</title>
<path fill="none" stroke="#ff0000" stroke-width="0.5" stroke-dasharray="5,2" d="M315.53,-268.59C287.03,-255.36 247.64,-237.06 217.03,-222.84"/>
<polygon fill="#ff0000" stroke="#ff0000" stroke-width="0.5" points="218.65,-219.74 208.11,-218.7 215.71,-226.09 218.65,-219.74"/>
<text text-anchor="middle" x="276.5" y="-239.8" font-family="Times,serif" font-size="14.00">1</text>
</g>
<!-- Payment&#45;&gt;Payment -->
<g id="edge10" class="edge">
<title>Payment&#45;&gt;Payment</title>
<path fill="none" stroke="#000000" stroke-width="6" d="M398.95,-120.94C409.1,-120.19 416.5,-117.55 416.5,-113 416.5,-111.58 415.78,-110.34 414.47,-109.3"/>
<polygon fill="#000000" stroke="#000000" stroke-width="6" points="416.21,-104.33 405.18,-106.76 413.44,-114.46 416.21,-104.33"/>
<text text-anchor="middle" x="423.5" y="-109.3" font-family="Times,serif" font-size="14.00">73</text>
</g>
<!-- end_node -->
<g id="node12" class="node">
<title>end_node</title>
<ellipse fill="none" stroke="black" cx="353" cy="-22" rx="18" ry="18"/>
<ellipse fill="none" stroke="black" cx="353" cy="-22" rx="22" ry="22"/>
<text text-anchor="start" x="348.5" y="-18.3" font-family="Times,serif" font-size="14.00">■</text>
</g>
<!-- Payment&#45;&gt;end_node -->
<g id="edge26" class="edge">
<title>Payment&#45;&gt;end_node</title>
<path fill="none" stroke="#000000" stroke-width="1.49" d="M353,-94.84C353,-83.89 353,-69.34 353,-56.2"/>
<polygon fill="#000000" stroke="#000000" stroke-width="1.49" points="356.5,-56.45 353,-46.45 349.5,-56.45 356.5,-56.45"/>
<text text-anchor="middle" x="360" y="-65.8" font-family="Times,serif" font-size="14.00">14</text>
</g>
<!-- Appeal to Judge&#45;&gt;Send Appeal to Prefecture -->
<g id="edge16" class="edge">
<title>Appeal to Judge&#45;&gt;Send Appeal to Prefecture</title>
<path fill="none" stroke="#ff0000" stroke-width="0.5" stroke-dasharray="5,2" d="M156.23,-218.45C144.66,-234.89 130,-260.72 130,-286 130,-462 130,-462 130,-462 130,-490.28 153.3,-510.78 177.95,-524.55"/>
<polygon fill="#ff0000" stroke="#ff0000" stroke-width="0.5" points="176.26,-527.62 186.74,-529.15 179.51,-521.42 176.26,-527.62"/>
<text text-anchor="middle" x="133.5" y="-370.3" font-family="Times,serif" font-size="14.00">1</text>
</g>
<!-- Appeal to Judge&#45;&gt;Add penalty -->
<g id="edge18" class="edge">
<title>Appeal to Judge&#45;&gt;Add penalty</title>
<path fill="none" stroke="#ff0000" stroke-width="0.58" stroke-dasharray="5,2" d="M177.37,-218.3C179.63,-223.9 182.04,-230.17 184,-236 206.95,-304.16 181.49,-336.31 227,-392 244.63,-413.57 270.86,-428.98 295.46,-439.61"/>
<polygon fill="#ff0000" stroke="#ff0000" stroke-width="0.58" points="294.12,-442.85 304.7,-443.41 296.78,-436.37 294.12,-442.85"/>
<text text-anchor="middle" x="203.5" y="-326.8" font-family="Times,serif" font-size="14.00">2</text>
</g>
<!-- Appeal to Judge&#45;&gt;Payment -->
<g id="edge14" class="edge">
<title>Appeal to Judge&#45;&gt;Payment</title>
<path fill="none" stroke="#ff0000" stroke-width="0.5" stroke-dasharray="5,2" d="M207.47,-181.59C235.97,-168.36 275.36,-150.06 305.97,-135.84"/>
<polygon fill="#ff0000" stroke="#ff0000" stroke-width="0.5" points="307.29,-139.09 314.89,-131.7 304.35,-132.74 307.29,-139.09"/>
<text text-anchor="middle" x="276.5" y="-152.8" font-family="Times,serif" font-size="14.00">1</text>
</g>
</g>
</svg>
