<?xml version="1.0" encoding="UTF-8" standalone="no"?>
<!DOCTYPE svg PUBLIC "-//W3C//DTD SVG 1.1//EN"
 "http://www.w3.org/Graphics/SVG/1.1/DTD/svg11.dtd">
<!-- Generated by graphviz version 7.0.5 (0)
 -->
<!-- Title: dfg Pages: 1 -->
<svg width="581pt" height="1009pt"
 viewBox="0.00 0.00 580.50 1009.00" xmlns="http://www.w3.org/2000/svg" xmlns:xlink="http://www.w3.org/1999/xlink">
<g id="graph0" class="graph" transform="scale(1 1) rotate(0) translate(4 1005)">
<title>dfg</title>
<polygon fill="white" stroke="none" points="-4,4 -4,-1005 576.5,-1005 576.5,4 -4,4"/>
<!-- start_node -->
<g id="node1" class="node">
<title>start_node</title>
<ellipse fill="none" stroke="black" cx="112.5" cy="-983" rx="18" ry="18"/>
<text text-anchor="start" x="108" y="-979.3" font-family="Times,serif" font-size="14.00">●</text>
</g>
<!-- Create Fine -->
<g id="node2" class="node">
<title>Create Fine</title>
<polygon fill="#9b9bff" stroke="black" points="165.5,-914 59.5,-914 59.5,-878 165.5,-878 165.5,-914"/>
<text text-anchor="middle" x="112.5" y="-892.3" font-family="Times,serif" font-size="14.00">Create Fine (40)</text>
</g>
<!-- start_node&#45;&gt;Create Fine -->
<g id="edge1" class="edge">
<title>start_node&#45;&gt;Create Fine</title>
<path fill="none" stroke="#000000" stroke-width="6" d="M112.5,-964.8C112.5,-954.96 112.5,-942.27 112.5,-930.53"/>
<polygon fill="#000000" stroke="#000000" stroke-width="6" points="117.75,-930.92 112.5,-920.92 107.25,-930.92 117.75,-930.92"/>
<text text-anchor="middle" x="119.5" y="-935.8" font-family="Times,serif" font-size="14.00">40</text>
</g>
<!-- Send Fine -->
<g id="node3" class="node">
<title>Send Fine</title>
<polygon fill="#9b9bff" stroke="black" points="161.5,-827 63.5,-827 63.5,-791 161.5,-791 161.5,-827"/>
<text text-anchor="middle" x="112.5" y="-805.3" font-family="Times,serif" font-size="14.00">Send Fine (40)</text>
</g>
<!-- Create Fine&#45;&gt;Send Fine -->
<g id="edge2" class="edge">
<title>Create Fine&#45;&gt;Send Fine</title>
<path fill="none" stroke="#000000" stroke-width="6" d="M112.5,-877.8C112.5,-867.96 112.5,-855.27 112.5,-843.53"/>
<polygon fill="#000000" stroke="#000000" stroke-width="6" points="117.75,-843.92 112.5,-833.92 107.25,-843.92 117.75,-843.92"/>
<text text-anchor="middle" x="119.5" y="-848.8" font-family="Times,serif" font-size="14.00">40</text>
</g>
<!-- Insert Fine Notification -->
<g id="node4" class="node">
<title>Insert Fine Notification</title>
<polygon fill="#9b9bff" stroke="black" points="197.5,-740 27.5,-740 27.5,-704 197.5,-704 197.5,-740"/>
<text text-anchor="middle" x="112.5" y="-718.3" font-family="Times,serif" font-size="14.00">Insert Fine Notification (40)</text>
</g>
<!-- Send Fine&#45;&gt;Insert Fine Notification -->
<g id="edge3" class="edge">
<title>Send Fine&#45;&gt;Insert Fine Notification</title>
<path fill="none" stroke="#000000" stroke-width="6" d="M112.5,-790.8C112.5,-780.96 112.5,-768.27 112.5,-756.53"/>
<polygon fill="#000000" stroke="#000000" stroke-width="6" points="117.75,-756.92 112.5,-746.92 107.25,-756.92 117.75,-756.92"/>
<text text-anchor="middle" x="119.5" y="-761.8" font-family="Times,serif" font-size="14.00">40</text>
</g>
<!-- Insert Date Appeal to Prefecture -->
<g id="node5" class="node">
<title>Insert Date Appeal to Prefecture</title>
<polygon fill="#9b9bff" stroke="black" points="346.5,-653 128.5,-653 128.5,-617 346.5,-617 346.5,-653"/>
<text text-anchor="middle" x="237.5" y="-631.3" font-family="Times,serif" font-size="14.00">Insert Date Appeal to Prefecture (40)</text>
</g>
<!-- Insert Fine Notification&#45;&gt;Insert Date Appeal to Prefecture -->
<g id="edge4" class="edge">
<title>Insert Fine Notification&#45;&gt;Insert Date Appeal to Prefecture</title>
<path fill="none" stroke="#000000" stroke-width="4.17" d="M138.1,-703.59C155.54,-691.73 178.96,-675.81 198.68,-662.4"/>
<polygon fill="#000000" stroke="#000000" stroke-width="4.17" points="200.69,-665.44 206.91,-656.8 196.59,-659.41 200.69,-665.44"/>
<text text-anchor="middle" x="188.5" y="-674.8" font-family="Times,serif" font-size="14.00">27</text>
</g>
<!-- Add penalty -->
<g id="node6" class="node">
<title>Add penalty</title>
<polygon fill="#9b9bff" stroke="black" points="283.5,-566 173.5,-566 173.5,-530 283.5,-530 283.5,-566"/>
<text text-anchor="middle" x="228.5" y="-544.3" font-family="Times,serif" font-size="14.00">Add penalty (40)</text>
</g>
<!-- Insert Fine Notification&#45;&gt;Add penalty -->
<g id="edge10" class="edge">
<title>Insert Fine Notification&#45;&gt;Add penalty</title>
<path fill="none" stroke="#000000" stroke-width="2.19" d="M105.75,-703.8C98.38,-681.98 89.6,-643.97 105.5,-617 117.95,-595.9 139.55,-580.89 161.21,-570.44"/>
<polygon fill="#000000" stroke="#000000" stroke-width="2.19" points="162.46,-573.71 170.17,-566.44 159.61,-567.32 162.46,-573.71"/>
<text text-anchor="middle" x="112.5" y="-631.3" font-family="Times,serif" font-size="14.00">13</text>
</g>
<!-- Insert Date Appeal to Prefecture&#45;&gt;Add penalty -->
<g id="edge5" class="edge">
<title>Insert Date Appeal to Prefecture&#45;&gt;Add penalty</title>
<path fill="none" stroke="#000000" stroke-width="3.04" d="M235.68,-616.8C234.59,-606.5 233.17,-593.08 231.88,-580.9"/>
<polygon fill="#000000" stroke="#000000" stroke-width="3.04" points="235.37,-580.62 230.83,-571.04 228.41,-581.35 235.37,-580.62"/>
<text text-anchor="middle" x="240.5" y="-587.8" font-family="Times,serif" font-size="14.00">19</text>
</g>
<!-- Send Appeal to Prefecture -->
<g id="node7" class="node">
<title>Send Appeal to Prefecture</title>
<polygon fill="#9e9eff" stroke="black" points="185,-479 0,-479 0,-443 185,-443 185,-479"/>
<text text-anchor="middle" x="92.5" y="-457.3" font-family="Times,serif" font-size="14.00">Send Appeal to Prefecture (39)</text>
</g>
<!-- Insert Date Appeal to Prefecture&#45;&gt;Send Appeal to Prefecture -->
<g id="edge12" class="edge">
<title>Insert Date Appeal to Prefecture&#45;&gt;Send Appeal to Prefecture</title>
<path fill="none" stroke="#000000" stroke-width="2.9" d="M209.65,-616.51C191.3,-604.02 167.58,-585.95 150.5,-566 131.33,-543.61 115.52,-513.89 105.28,-491.96"/>
<polygon fill="#000000" stroke="#000000" stroke-width="2.9" points="108.6,-490.82 101.3,-483.14 102.22,-493.69 108.6,-490.82"/>
<text text-anchor="middle" x="157.5" y="-544.3" font-family="Times,serif" font-size="14.00">18</text>
</g>
<!-- Receive Result Appeal from Prefecture -->
<g id="node8" class="node">
<title>Receive Result Appeal from Prefecture</title>
<polygon fill="#9b9bff" stroke="black" points="508,-392 251,-392 251,-356 508,-356 508,-392"/>
<text text-anchor="middle" x="379.5" y="-370.3" font-family="Times,serif" font-size="14.00">Receive Result Appeal from Prefecture (40)</text>
</g>
<!-- Insert Date Appeal to Prefecture&#45;&gt;Receive Result Appeal from Prefecture -->
<g id="edge18" class="edge">
<title>Insert Date Appeal to Prefecture&#45;&gt;Receive Result Appeal from Prefecture</title>
<path fill="none" stroke="#000000" stroke-width="0.78" d="M346.7,-623.8C419.88,-610.65 511.2,-580.59 558.5,-512 594.35,-460.02 513.89,-419.13 449.49,-396.01"/>
<polygon fill="#000000" stroke="#000000" stroke-width="0.78" points="451.03,-392.84 440.44,-392.84 448.72,-399.45 451.03,-392.84"/>
<text text-anchor="middle" x="569" y="-500.8" font-family="Times,serif" font-size="14.00">3</text>
</g>
<!-- Add penalty&#45;&gt;Insert Date Appeal to Prefecture -->
<g id="edge11" class="edge">
<title>Add penalty&#45;&gt;Insert Date Appeal to Prefecture</title>
<path fill="none" stroke="#000000" stroke-width="2.19" d="M218.21,-566.15C213.7,-575.81 210.12,-588.09 213.5,-599 214.16,-601.13 215,-603.24 215.97,-605.32"/>
<polygon fill="#000000" stroke="#000000" stroke-width="2.19" points="212.8,-606.83 220.86,-613.7 218.84,-603.3 212.8,-606.83"/>
<text text-anchor="middle" x="220.5" y="-587.8" font-family="Times,serif" font-size="14.00">13</text>
</g>
<!-- Add penalty&#45;&gt;Send Appeal to Prefecture -->
<g id="edge6" class="edge">
<title>Add penalty&#45;&gt;Send Appeal to Prefecture</title>
<path fill="none" stroke="#000000" stroke-width="3.04" d="M188.24,-529.68C177.35,-524.46 165.75,-518.41 155.5,-512 144.44,-505.08 133.06,-496.55 123.07,-488.51"/>
<polygon fill="#000000" stroke="#000000" stroke-width="3.04" points="125.56,-486.03 115.62,-482.35 121.09,-491.42 125.56,-486.03"/>
<text text-anchor="middle" x="162.5" y="-500.8" font-family="Times,serif" font-size="14.00">19</text>
</g>
<!-- Add penalty&#45;&gt;Receive Result Appeal from Prefecture -->
<g id="edge17" class="edge">
<title>Add penalty&#45;&gt;Receive Result Appeal from Prefecture</title>
<path fill="none" stroke="#000000" stroke-width="1.21" d="M283.88,-534.42C297.44,-529.26 311.05,-522.04 321.5,-512 352.26,-482.47 367.46,-434.05 374.39,-403.39"/>
<polygon fill="#000000" stroke="#000000" stroke-width="1.21" points="377.73,-404.49 376.35,-393.99 370.88,-403.06 377.73,-404.49"/>
<text text-anchor="middle" x="366" y="-457.3" font-family="Times,serif" font-size="14.00">6</text>
</g>
<!-- Notify Result Appeal to Offender -->
<g id="node9" class="node">
<title>Notify Result Appeal to Offender</title>
<polygon fill="#9e9eff" stroke="black" points="335,-305 110,-305 110,-269 335,-269 335,-305"/>
<text text-anchor="middle" x="222.5" y="-283.3" font-family="Times,serif" font-size="14.00">Notify Result Appeal to Offender (39)</text>
</g>
<!-- Add penalty&#45;&gt;Notify Result Appeal to Offender -->
<g id="edge25" class="edge">
<title>Add penalty&#45;&gt;Notify Result Appeal to Offender</title>
<path fill="none" stroke="#ff0000" stroke-width="0.5" stroke-dasharray="5,2" d="M229.02,-529.69C229.72,-503.7 230.73,-453.03 229.5,-410 228.57,-377.63 226.26,-340.5 224.55,-315.78"/>
<polygon fill="#ff0000" stroke="#ff0000" stroke-width="0.5" points="228.06,-315.84 223.86,-306.12 221.08,-316.34 228.06,-315.84"/>
<text text-anchor="middle" x="233" y="-413.8" font-family="Times,serif" font-size="14.00">1</text>
</g>
<!-- Appeal to Judge -->
<g id="node11" class="node">
<title>Appeal to Judge</title>
<polygon fill="#f4f4ff" stroke="black" points="368,-218 237,-218 237,-182 368,-182 368,-218"/>
<text text-anchor="middle" x="302.5" y="-196.3" font-family="Times,serif" font-size="14.00">Appeal to Judge (15)</text>
</g>
<!-- Add penalty&#45;&gt;Appeal to Judge -->
<g id="edge23" class="edge">
<title>Add penalty&#45;&gt;Appeal to Judge</title>
<path fill="none" stroke="#ff0000" stroke-width="0.5" stroke-dasharray="5,2" d="M283.9,-543.47C374.53,-536.16 544.5,-515.33 544.5,-462 544.5,-462 544.5,-462 544.5,-286 544.5,-268.15 449.54,-239.31 378.59,-220.25"/>
<polygon fill="#ff0000" stroke="#ff0000" stroke-width="0.5" points="379.6,-216.9 369.04,-217.71 377.8,-223.66 379.6,-216.9"/>
<text text-anchor="middle" x="548" y="-370.3" font-family="Times,serif" font-size="14.00">1</text>
</g>
<!-- Send Appeal to Prefecture&#45;&gt;Add penalty -->
<g id="edge16" class="edge">
<title>Send Appeal to Prefecture&#45;&gt;Add penalty</title>
<path fill="none" stroke="#000000" stroke-width="1.21" d="M136.36,-479.41C147.49,-484.5 159.21,-490.48 169.5,-497 180.76,-504.13 192.16,-513.25 201.9,-521.75"/>
<polygon fill="#000000" stroke="#000000" stroke-width="1.21" points="199.52,-524.32 209.31,-528.39 204.2,-519.11 199.52,-524.32"/>
<text text-anchor="middle" x="193" y="-500.8" font-family="Times,serif" font-size="14.00">6</text>
</g>
<!-- Send Appeal to Prefecture&#45;&gt;Receive Result Appeal from Prefecture -->
<g id="edge7" class="edge">
<title>Send Appeal to Prefecture&#45;&gt;Receive Result Appeal from Prefecture</title>
<path fill="none" stroke="#000000" stroke-width="4.73" d="M150.06,-442.52C164.21,-437.5 179.13,-431.58 192.5,-425 203.45,-419.61 204.23,-414.69 215.5,-410 228,-404.8 241.37,-400.34 254.88,-396.51"/>
<polygon fill="#000000" stroke="#000000" stroke-width="4.73" points="255.58,-400.61 264.18,-394.04 253.45,-392.61 255.58,-400.61"/>
<text text-anchor="middle" x="222.5" y="-413.8" font-family="Times,serif" font-size="14.00">31</text>
</g>
<!-- Send for Credit Collection -->
<g id="node10" class="node">
<title>Send for Credit Collection</title>
<polygon fill="#e2e2ff" stroke="black" points="224,-131 37,-131 37,-95 224,-95 224,-131"/>
<text text-anchor="middle" x="130.5" y="-109.3" font-family="Times,serif" font-size="14.00">Send for Credit Collection (20)</text>
</g>
<!-- Send Appeal to Prefecture&#45;&gt;Send for Credit Collection -->
<g id="edge20" class="edge">
<title>Send Appeal to Prefecture&#45;&gt;Send for Credit Collection</title>
<path fill="none" stroke="#ff0000" stroke-width="0.64" stroke-dasharray="5,2" d="M89.92,-442.79C87.59,-425.65 84.5,-398.57 84.5,-375 84.5,-375 84.5,-375 84.5,-199 84.5,-177.2 96.35,-155.63 108.02,-139.67"/>
<polygon fill="#ff0000" stroke="#ff0000" stroke-width="0.64" points="110.46,-142.24 113.82,-132.19 104.93,-137.95 110.46,-142.24"/>
<text text-anchor="middle" x="88" y="-283.3" font-family="Times,serif" font-size="14.00">2</text>
</g>
<!-- Receive Result Appeal from Prefecture&#45;&gt;Add penalty -->
<g id="edge24" class="edge">
<title>Receive Result Appeal from Prefecture&#45;&gt;Add penalty</title>
<path fill="none" stroke="#ff0000" stroke-width="0.5" stroke-dasharray="5,2" d="M366.09,-392.43C345.4,-419.01 304.03,-470.93 265.5,-512 262.28,-515.43 258.8,-518.94 255.31,-522.36"/>
<polygon fill="#ff0000" stroke="#ff0000" stroke-width="0.5" points="253.09,-519.65 248.29,-529.09 257.93,-524.7 253.09,-519.65"/>
<text text-anchor="middle" x="327" y="-457.3" font-family="Times,serif" font-size="14.00">1</text>
</g>
<!-- Receive Result Appeal from Prefecture&#45;&gt;Notify Result Appeal to Offender -->
<g id="edge8" class="edge">
<title>Receive Result Appeal from Prefecture&#45;&gt;Notify Result Appeal to Offender</title>
<path fill="none" stroke="#000000" stroke-width="5.72" d="M347.35,-355.59C324.7,-343.33 294.03,-326.73 268.76,-313.05"/>
<polygon fill="#000000" stroke="#000000" stroke-width="5.72" points="271.4,-308.79 260.23,-308.42 266.64,-317.59 271.4,-308.79"/>
<text text-anchor="middle" x="316.5" y="-326.8" font-family="Times,serif" font-size="14.00">38</text>
</g>
<!-- end_node -->
<g id="node13" class="node">
<title>end_node</title>
<ellipse fill="none" stroke="black" cx="328.5" cy="-22" rx="18" ry="18"/>
<ellipse fill="none" stroke="black" cx="328.5" cy="-22" rx="22" ry="22"/>
<text text-anchor="start" x="324" y="-18.3" font-family="Times,serif" font-size="14.00">■</text>
</g>
<!-- Receive Result Appeal from Prefecture&#45;&gt;end_node -->
<g id="edge29" class="edge">
<title>Receive Result Appeal from Prefecture&#45;&gt;end_node</title>
<path fill="none" stroke="#ff0000" stroke-width="0.5" stroke-dasharray="5,2" d="M387.82,-355.53C395.1,-338.65 404.5,-312.15 404.5,-288 404.5,-288 404.5,-288 404.5,-112 404.5,-81.11 377.69,-55.51 355.92,-39.82"/>
<polygon fill="#ff0000" stroke="#ff0000" stroke-width="0.5" points="358.14,-37.1 347.91,-34.34 354.18,-42.88 358.14,-37.1"/>
<text text-anchor="middle" x="408" y="-196.3" font-family="Times,serif" font-size="14.00">1</text>
</g>
<!-- Notify Result Appeal to Offender&#45;&gt;Add penalty -->
<g id="edge22" class="edge">
<title>Notify Result Appeal to Offender&#45;&gt;Add penalty</title>
<path fill="none" stroke="#ff0000" stroke-width="0.5" stroke-dasharray="5,2" d="M213.14,-305.14C200.2,-330.93 179.31,-381.33 187.5,-425 189.08,-433.44 191.61,-434.92 194.5,-443 203.71,-468.74 213.31,-498.41 219.95,-519.45"/>
<polygon fill="#ff0000" stroke="#ff0000" stroke-width="0.5" points="216.57,-520.39 222.91,-528.88 223.25,-518.29 216.57,-520.39"/>
<text text-anchor="middle" x="191" y="-413.8" font-family="Times,serif" font-size="14.00">1</text>
</g>
<!-- Notify Result Appeal to Offender&#45;&gt;Send Appeal to Prefecture -->
<g id="edge19" class="edge">
<title>Notify Result Appeal to Offender&#45;&gt;Send Appeal to Prefecture</title>
<path fill="none" stroke="#ff0000" stroke-width="0.64" stroke-dasharray="5,2" d="M191.5,-305.46C184.09,-310.52 176.57,-316.46 170.5,-323 139.83,-356.06 116.33,-403.31 103.47,-432.8"/>
<polygon fill="#ff0000" stroke="#ff0000" stroke-width="0.64" points="100.29,-431.33 99.6,-441.9 106.74,-434.07 100.29,-431.33"/>
<text text-anchor="middle" x="148" y="-370.3" font-family="Times,serif" font-size="14.00">2</text>
</g>
<!-- Notify Result Appeal to Offender&#45;&gt;Send for Credit Collection -->
<g id="edge9" class="edge">
<title>Notify Result Appeal to Offender&#45;&gt;Send for Credit Collection</title>
<path fill="none" stroke="#000000" stroke-width="2.62" d="M213.17,-268.56C197.47,-239.2 165.58,-179.59 146.32,-143.58"/>
<polygon fill="#000000" stroke="#000000" stroke-width="2.62" points="149.52,-142.14 141.72,-134.98 143.35,-145.44 149.52,-142.14"/>
<text text-anchor="middle" x="192.5" y="-196.3" font-family="Times,serif" font-size="14.00">16</text>
</g>
<!-- Notify Result Appeal to Offender&#45;&gt;Appeal to Judge -->
<g id="edge13" class="edge">
<title>Notify Result Appeal to Offender&#45;&gt;Appeal to Judge</title>
<path fill="none" stroke="#000000" stroke-width="2.33" d="M238.69,-268.8C249.68,-257.12 264.43,-241.45 276.99,-228.11"/>
<polygon fill="#000000" stroke="#000000" stroke-width="2.33" points="279.33,-230.72 283.64,-221.04 274.24,-225.92 279.33,-230.72"/>
<text text-anchor="middle" x="273.5" y="-239.8" font-family="Times,serif" font-size="14.00">14</text>
</g>
<!-- Payment -->
<g id="node12" class="node">
<title>Payment</title>
<polygon fill="#ffffff" stroke="black" points="333,-131 242,-131 242,-95 333,-95 333,-131"/>
<text text-anchor="middle" x="287.5" y="-109.3" font-family="Times,serif" font-size="14.00">Payment (12)</text>
</g>
<!-- Notify Result Appeal to Offender&#45;&gt;Payment -->
<g id="edge14" class="edge">
<title>Notify Result Appeal to Offender&#45;&gt;Payment</title>
<path fill="none" stroke="#000000" stroke-width="1.21" d="M217.42,-268.68C210.38,-240.85 201.06,-185.6 225.5,-149 228.09,-145.12 231.26,-141.63 234.79,-138.48"/>
<polygon fill="#000000" stroke="#000000" stroke-width="1.21" points="236.85,-141.32 242.71,-132.49 232.63,-135.73 236.85,-141.32"/>
<text text-anchor="middle" x="215" y="-196.3" font-family="Times,serif" font-size="14.00">6</text>
</g>
<!-- Send for Credit Collection&#45;&gt;end_node -->
<g id="edge26" class="edge">
<title>Send for Credit Collection&#45;&gt;end_node</title>
<path fill="none" stroke="#000000" stroke-width="3.18" d="M169.15,-94.63C205.84,-78.13 260.43,-53.6 295.24,-37.95"/>
<polygon fill="#000000" stroke="#000000" stroke-width="3.18" points="296.32,-41.3 304.01,-34.01 293.45,-34.92 296.32,-41.3"/>
<text text-anchor="middle" x="247.5" y="-65.8" font-family="Times,serif" font-size="14.00">20</text>
</g>
<!-- Appeal to Judge&#45;&gt;Send for Credit Collection -->
<g id="edge21" class="edge">
<title>Appeal to Judge&#45;&gt;Send for Credit Collection</title>
<path fill="none" stroke="#ff0000" stroke-width="0.64" stroke-dasharray="5,2" d="M267.28,-181.59C240.73,-168.47 204.12,-150.38 175.45,-136.21"/>
<polygon fill="#ff0000" stroke="#ff0000" stroke-width="0.64" points="177.06,-133.11 166.54,-131.81 173.96,-139.38 177.06,-133.11"/>
<text text-anchor="middle" x="230" y="-152.8" font-family="Times,serif" font-size="14.00">2</text>
</g>
<!-- Appeal to Judge&#45;&gt;Payment -->
<g id="edge15" class="edge">
<title>Appeal to Judge&#45;&gt;Payment</title>
<path fill="none" stroke="#000000" stroke-width="1.21" d="M299.46,-181.8C297.51,-170.7 294.91,-155.97 292.63,-143.08"/>
<polygon fill="#000000" stroke="#000000" stroke-width="1.21" points="296.08,-142.5 290.9,-133.26 289.19,-143.72 296.08,-142.5"/>
<text text-anchor="middle" x="299" y="-152.8" font-family="Times,serif" font-size="14.00">6</text>
</g>
<!-- Appeal to Judge&#45;&gt;end_node -->
<g id="edge27" class="edge">
<title>Appeal to Judge&#45;&gt;end_node</title>
<path fill="none" stroke="#000000" stroke-width="1.35" d="M316.19,-181.72C325.64,-168.64 337.39,-149.77 342.5,-131 349.34,-105.87 344.77,-76.52 339.08,-54.76"/>
<polygon fill="#000000" stroke="#000000" stroke-width="1.35" points="342.46,-53.84 336.34,-45.19 335.73,-55.76 342.46,-53.84"/>
<text text-anchor="middle" x="349" y="-109.3" font-family="Times,serif" font-size="14.00">7</text>
</g>
<!-- Payment&#45;&gt;end_node -->
<g id="edge28" class="edge">
<title>Payment&#45;&gt;end_node</title>
<path fill="none" stroke="#000000" stroke-width="2.05" d="M295.41,-94.84C300.68,-83.39 307.77,-68 314.03,-54.41"/>
<polygon fill="#000000" stroke="#000000" stroke-width="2.05" points="317.17,-55.95 318.18,-45.41 310.81,-53.02 317.17,-55.95"/>
<text text-anchor="middle" x="316.5" y="-65.8" font-family="Times,serif" font-size="14.00">12</text>
</g>
</g>
</svg>
