<?xml version="1.0" encoding="UTF-8" standalone="no"?>
<!DOCTYPE svg PUBLIC "-//W3C//DTD SVG 1.1//EN"
 "http://www.w3.org/Graphics/SVG/1.1/DTD/svg11.dtd">
<!-- Generated by graphviz version 7.0.5 (0)
 -->
<!-- Title: dfg Pages: 1 -->
<svg width="623pt" height="922pt"
 viewBox="0.00 0.00 623.00 922.00" xmlns="http://www.w3.org/2000/svg" xmlns:xlink="http://www.w3.org/1999/xlink">
<g id="graph0" class="graph" transform="scale(1 1) rotate(0) translate(4 918)">
<title>dfg</title>
<polygon fill="white" stroke="none" points="-4,4 -4,-918 619,-918 619,4 -4,4"/>
<!-- start_node -->
<g id="node1" class="node">
<title>start_node</title>
<ellipse fill="none" stroke="black" cx="85" cy="-896" rx="18" ry="18"/>
<text text-anchor="start" x="80.5" y="-892.3" font-family="Times,serif" font-size="14.00">●</text>
</g>
<!-- Create Fine -->
<g id="node2" class="node">
<title>Create Fine</title>
<polygon fill="#9b9bff" stroke="black" points="138,-827 32,-827 32,-791 138,-791 138,-827"/>
<text text-anchor="middle" x="85" y="-805.3" font-family="Times,serif" font-size="14.00">Create Fine (28)</text>
</g>
<!-- start_node&#45;&gt;Create Fine -->
<g id="edge1" class="edge">
<title>start_node&#45;&gt;Create Fine</title>
<path fill="none" stroke="#000000" stroke-width="6" d="M85,-877.8C85,-867.96 85,-855.27 85,-843.53"/>
<polygon fill="#000000" stroke="#000000" stroke-width="6" points="90.25,-843.92 85,-833.92 79.75,-843.92 90.25,-843.92"/>
<text text-anchor="middle" x="92" y="-848.8" font-family="Times,serif" font-size="14.00">28</text>
</g>
<!-- Send Fine -->
<g id="node3" class="node">
<title>Send Fine</title>
<polygon fill="#9b9bff" stroke="black" points="134,-740 36,-740 36,-704 134,-704 134,-740"/>
<text text-anchor="middle" x="85" y="-718.3" font-family="Times,serif" font-size="14.00">Send Fine (28)</text>
</g>
<!-- Create Fine&#45;&gt;Send Fine -->
<g id="edge2" class="edge">
<title>Create Fine&#45;&gt;Send Fine</title>
<path fill="none" stroke="#000000" stroke-width="6" d="M85,-790.8C85,-780.96 85,-768.27 85,-756.53"/>
<polygon fill="#000000" stroke="#000000" stroke-width="6" points="90.25,-756.92 85,-746.92 79.75,-756.92 90.25,-756.92"/>
<text text-anchor="middle" x="92" y="-761.8" font-family="Times,serif" font-size="14.00">28</text>
</g>
<!-- Insert Fine Notification -->
<g id="node4" class="node">
<title>Insert Fine Notification</title>
<polygon fill="#9b9bff" stroke="black" points="170,-653 0,-653 0,-617 170,-617 170,-653"/>
<text text-anchor="middle" x="85" y="-631.3" font-family="Times,serif" font-size="14.00">Insert Fine Notification (28)</text>
</g>
<!-- Send Fine&#45;&gt;Insert Fine Notification -->
<g id="edge3" class="edge">
<title>Send Fine&#45;&gt;Insert Fine Notification</title>
<path fill="none" stroke="#000000" stroke-width="6" d="M85,-703.8C85,-693.96 85,-681.27 85,-669.53"/>
<polygon fill="#000000" stroke="#000000" stroke-width="6" points="90.25,-669.92 85,-659.92 79.75,-669.92 90.25,-669.92"/>
<text text-anchor="middle" x="92" y="-674.8" font-family="Times,serif" font-size="14.00">28</text>
</g>
<!-- Insert Date Appeal to Prefecture -->
<g id="node5" class="node">
<title>Insert Date Appeal to Prefecture</title>
<polygon fill="#9b9bff" stroke="black" points="312,-566 94,-566 94,-530 312,-530 312,-566"/>
<text text-anchor="middle" x="203" y="-544.3" font-family="Times,serif" font-size="14.00">Insert Date Appeal to Prefecture (28)</text>
</g>
<!-- Insert Fine Notification&#45;&gt;Insert Date Appeal to Prefecture -->
<g id="edge4" class="edge">
<title>Insert Fine Notification&#45;&gt;Insert Date Appeal to Prefecture</title>
<path fill="none" stroke="#000000" stroke-width="4.73" d="M109.16,-616.59C125.47,-604.85 147.31,-589.12 165.81,-575.79"/>
<polygon fill="#000000" stroke="#000000" stroke-width="4.73" points="168.16,-579.2 173.85,-570 163.32,-572.48 168.16,-579.2"/>
<text text-anchor="middle" x="159" y="-587.8" font-family="Times,serif" font-size="14.00">22</text>
</g>
<!-- Add penalty -->
<g id="node6" class="node">
<title>Add penalty</title>
<polygon fill="#9b9bff" stroke="black" points="145,-479 35,-479 35,-443 145,-443 145,-479"/>
<text text-anchor="middle" x="90" y="-457.3" font-family="Times,serif" font-size="14.00">Add penalty (28)</text>
</g>
<!-- Insert Fine Notification&#45;&gt;Add penalty -->
<g id="edge10" class="edge">
<title>Insert Fine Notification&#45;&gt;Add penalty</title>
<path fill="none" stroke="#000000" stroke-width="1.35" d="M82.2,-616.69C79.24,-596.03 75.33,-560.47 78,-530 79.13,-517.15 81.43,-503.08 83.71,-491.1"/>
<polygon fill="#000000" stroke="#000000" stroke-width="1.35" points="87.1,-491.99 85.64,-481.5 80.24,-490.61 87.1,-491.99"/>
<text text-anchor="middle" x="81.5" y="-544.3" font-family="Times,serif" font-size="14.00">6</text>
</g>
<!-- Insert Date Appeal to Prefecture&#45;&gt;Add penalty -->
<g id="edge5" class="edge">
<title>Insert Date Appeal to Prefecture&#45;&gt;Add penalty</title>
<path fill="none" stroke="#000000" stroke-width="4.1" d="M179.86,-529.59C164.32,-517.91 143.54,-502.27 125.87,-488.98"/>
<polygon fill="#000000" stroke="#000000" stroke-width="4.1" points="128.11,-486.18 117.96,-483.03 123.8,-491.91 128.11,-486.18"/>
<text text-anchor="middle" x="161" y="-500.8" font-family="Times,serif" font-size="14.00">19</text>
</g>
<!-- Send Appeal to Prefecture -->
<g id="node7" class="node">
<title>Send Appeal to Prefecture</title>
<polygon fill="#9b9bff" stroke="black" points="351.5,-218 166.5,-218 166.5,-182 351.5,-182 351.5,-218"/>
<text text-anchor="middle" x="259" y="-196.3" font-family="Times,serif" font-size="14.00">Send Appeal to Prefecture (28)</text>
</g>
<!-- Insert Date Appeal to Prefecture&#45;&gt;Send Appeal to Prefecture -->
<g id="edge12" class="edge">
<title>Insert Date Appeal to Prefecture&#45;&gt;Send Appeal to Prefecture</title>
<path fill="none" stroke="#000000" stroke-width="1.56" d="M226.99,-529.51C260.05,-503.75 318.12,-452.11 341,-392 363.69,-332.4 315.98,-264.08 284.26,-227.47"/>
<polygon fill="#000000" stroke="#000000" stroke-width="1.56" points="287.04,-225.33 277.76,-220.2 281.82,-229.99 287.04,-225.33"/>
<text text-anchor="middle" x="349.5" y="-370.3" font-family="Times,serif" font-size="14.00">7</text>
</g>
<!-- Receive Result Appeal from Prefecture -->
<g id="node8" class="node">
<title>Receive Result Appeal from Prefecture</title>
<polygon fill="#9b9bff" stroke="black" points="331.5,-392 74.5,-392 74.5,-356 331.5,-356 331.5,-392"/>
<text text-anchor="middle" x="203" y="-370.3" font-family="Times,serif" font-size="14.00">Receive Result Appeal from Prefecture (28)</text>
</g>
<!-- Insert Date Appeal to Prefecture&#45;&gt;Receive Result Appeal from Prefecture -->
<g id="edge18" class="edge">
<title>Insert Date Appeal to Prefecture&#45;&gt;Receive Result Appeal from Prefecture</title>
<path fill="none" stroke="#000000" stroke-width="0.5" d="M203,-529.56C203,-499.81 203,-439.01 203,-403.17"/>
<polygon fill="#000000" stroke="#000000" stroke-width="0.5" points="206.5,-403.24 203,-393.24 199.5,-403.24 206.5,-403.24"/>
<text text-anchor="middle" x="206.5" y="-457.3" font-family="Times,serif" font-size="14.00">2</text>
</g>
<!-- Add penalty&#45;&gt;Insert Date Appeal to Prefecture -->
<g id="edge11" class="edge">
<title>Add penalty&#45;&gt;Insert Date Appeal to Prefecture</title>
<path fill="none" stroke="#000000" stroke-width="1.35" d="M100.6,-479.44C107.64,-489.91 117.66,-502.92 129,-512 134.61,-516.49 140.88,-520.57 147.35,-524.23"/>
<polygon fill="#000000" stroke="#000000" stroke-width="1.35" points="145.31,-527.11 155.78,-528.68 148.57,-520.92 145.31,-527.11"/>
<text text-anchor="middle" x="132.5" y="-500.8" font-family="Times,serif" font-size="14.00">6</text>
</g>
<!-- Add penalty&#45;&gt;Send Appeal to Prefecture -->
<g id="edge6" class="edge">
<title>Add penalty&#45;&gt;Send Appeal to Prefecture</title>
<path fill="none" stroke="#000000" stroke-width="4.1" d="M79.01,-442.68C67.01,-421.41 51.24,-384.62 65,-356 94.15,-295.4 159.81,-251.1 206.66,-225.74"/>
<polygon fill="#000000" stroke="#000000" stroke-width="4.1" points="208.25,-228.95 215.46,-221.14 204.93,-222.59 208.25,-228.95"/>
<text text-anchor="middle" x="93" y="-326.8" font-family="Times,serif" font-size="14.00">19</text>
</g>
<!-- Add penalty&#45;&gt;Receive Result Appeal from Prefecture -->
<g id="edge17" class="edge">
<title>Add penalty&#45;&gt;Receive Result Appeal from Prefecture</title>
<path fill="none" stroke="#000000" stroke-width="0.71" d="M113.14,-442.59C129.9,-429.99 152.76,-412.79 171.22,-398.9"/>
<polygon fill="#000000" stroke="#000000" stroke-width="0.71" points="173.14,-401.84 179.03,-393.03 168.93,-396.24 173.14,-401.84"/>
<text text-anchor="middle" x="157.5" y="-413.8" font-family="Times,serif" font-size="14.00">3</text>
</g>
<!-- Send Appeal to Prefecture&#45;&gt;Add penalty -->
<g id="edge16" class="edge">
<title>Send Appeal to Prefecture&#45;&gt;Add penalty</title>
<path fill="none" stroke="#000000" stroke-width="0.71" d="M189.45,-218.45C158.54,-229 123.46,-245.14 98,-269 55.84,-308.49 51.66,-334.4 56,-392 57.11,-406.79 54.94,-411.46 61,-425 62.38,-428.07 64.1,-431.09 66.01,-433.99"/>
<polygon fill="#000000" stroke="#000000" stroke-width="0.71" points="63.14,-436 71.95,-441.89 68.74,-431.79 63.14,-436"/>
<text text-anchor="middle" x="63.5" y="-326.8" font-family="Times,serif" font-size="14.00">3</text>
</g>
<!-- Send Appeal to Prefecture&#45;&gt;Receive Result Appeal from Prefecture -->
<g id="edge7" class="edge">
<title>Send Appeal to Prefecture&#45;&gt;Receive Result Appeal from Prefecture</title>
<path fill="none" stroke="#000000" stroke-width="4.94" d="M253.31,-218.48C243.99,-247.1 225.34,-304.38 213.55,-340.59"/>
<polygon fill="#000000" stroke="#000000" stroke-width="4.94" points="209.59,-338.79 210.61,-349.64 217.81,-341.47 209.59,-338.79"/>
<text text-anchor="middle" x="243" y="-283.3" font-family="Times,serif" font-size="14.00">23</text>
</g>
<!-- Send for Credit Collection -->
<g id="node10" class="node">
<title>Send for Credit Collection</title>
<polygon fill="#cfcfff" stroke="black" points="469.5,-131 282.5,-131 282.5,-95 469.5,-95 469.5,-131"/>
<text text-anchor="middle" x="376" y="-109.3" font-family="Times,serif" font-size="14.00">Send for Credit Collection (17)</text>
</g>
<!-- Send Appeal to Prefecture&#45;&gt;Send for Credit Collection -->
<g id="edge20" class="edge">
<title>Send Appeal to Prefecture&#45;&gt;Send for Credit Collection</title>
<path fill="none" stroke="#000000" stroke-width="0.5" d="M282.96,-181.59C300.47,-168.87 324.41,-151.48 343.62,-137.52"/>
<polygon fill="#000000" stroke="#000000" stroke-width="0.5" points="345.43,-140.54 351.46,-131.83 341.31,-134.87 345.43,-140.54"/>
<text text-anchor="middle" x="327.5" y="-152.8" font-family="Times,serif" font-size="14.00">2</text>
</g>
<!-- Notify Result Appeal to Offender -->
<g id="node9" class="node">
<title>Notify Result Appeal to Offender</title>
<polygon fill="#9b9bff" stroke="black" points="609.5,-305 384.5,-305 384.5,-269 609.5,-269 609.5,-305"/>
<text text-anchor="middle" x="497" y="-283.3" font-family="Times,serif" font-size="14.00">Notify Result Appeal to Offender (28)</text>
</g>
<!-- Receive Result Appeal from Prefecture&#45;&gt;Notify Result Appeal to Offender -->
<g id="edge8" class="edge">
<title>Receive Result Appeal from Prefecture&#45;&gt;Notify Result Appeal to Offender</title>
<path fill="none" stroke="#000000" stroke-width="6" d="M263.2,-355.59C308.81,-342.41 371.78,-324.2 420.88,-310.01"/>
<polygon fill="#000000" stroke="#000000" stroke-width="6" points="422.28,-315.07 430.42,-307.25 419.36,-304.98 422.28,-315.07"/>
<text text-anchor="middle" x="374" y="-326.8" font-family="Times,serif" font-size="14.00">28</text>
</g>
<!-- Notify Result Appeal to Offender&#45;&gt;Send Appeal to Prefecture -->
<g id="edge19" class="edge">
<title>Notify Result Appeal to Offender&#45;&gt;Send Appeal to Prefecture</title>
<path fill="none" stroke="#000000" stroke-width="0.5" d="M436.98,-268.5C422.04,-263.47 406.23,-257.54 392,-251 380.23,-245.59 378.79,-241.37 367,-236 355.65,-230.84 343.31,-226.09 331.16,-221.86"/>
<polygon fill="#000000" stroke="#000000" stroke-width="0.5" points="332.34,-218.57 321.75,-218.68 330.1,-225.2 332.34,-218.57"/>
<text text-anchor="middle" x="395.5" y="-239.8" font-family="Times,serif" font-size="14.00">2</text>
</g>
<!-- Notify Result Appeal to Offender&#45;&gt;Send for Credit Collection -->
<g id="edge9" class="edge">
<title>Notify Result Appeal to Offender&#45;&gt;Send for Credit Collection</title>
<path fill="none" stroke="#000000" stroke-width="3.25" d="M472.55,-268.61C456.26,-256.03 435.29,-237.82 421,-218 405,-195.81 393.1,-167.03 385.57,-145.38"/>
<polygon fill="#000000" stroke="#000000" stroke-width="3.25" points="388.95,-144.45 382.5,-136.05 382.31,-146.64 388.95,-144.45"/>
<text text-anchor="middle" x="428" y="-196.3" font-family="Times,serif" font-size="14.00">15</text>
</g>
<!-- Appeal to Judge -->
<g id="node11" class="node">
<title>Appeal to Judge</title>
<polygon fill="#ffffff" stroke="black" points="568.5,-218 443.5,-218 443.5,-182 568.5,-182 568.5,-218"/>
<text text-anchor="middle" x="506" y="-196.3" font-family="Times,serif" font-size="14.00">Appeal to Judge (7)</text>
</g>
<!-- Notify Result Appeal to Offender&#45;&gt;Appeal to Judge -->
<g id="edge13" class="edge">
<title>Notify Result Appeal to Offender&#45;&gt;Appeal to Judge</title>
<path fill="none" stroke="#000000" stroke-width="1.56" d="M498.82,-268.8C499.98,-257.81 501.52,-243.28 502.88,-230.48"/>
<polygon fill="#000000" stroke="#000000" stroke-width="1.56" points="506.33,-231.12 503.9,-220.81 499.37,-230.39 506.33,-231.12"/>
<text text-anchor="middle" x="505.5" y="-239.8" font-family="Times,serif" font-size="14.00">7</text>
</g>
<!-- Payment -->
<g id="node12" class="node">
<title>Payment</title>
<polygon fill="#ffffff" stroke="black" points="615,-131 531,-131 531,-95 615,-95 615,-131"/>
<text text-anchor="middle" x="573" y="-109.3" font-family="Times,serif" font-size="14.00">Payment (7)</text>
</g>
<!-- Notify Result Appeal to Offender&#45;&gt;Payment -->
<g id="edge14" class="edge">
<title>Notify Result Appeal to Offender&#45;&gt;Payment</title>
<path fill="none" stroke="#000000" stroke-width="0.92" d="M529.22,-268.52C547.18,-256.83 567.91,-239.63 578,-218 589.14,-194.11 585.97,-163.7 581.17,-141.95"/>
<polygon fill="#000000" stroke="#000000" stroke-width="0.92" points="584.63,-141.37 578.84,-132.5 577.84,-143.05 584.63,-141.37"/>
<text text-anchor="middle" x="588.5" y="-196.3" font-family="Times,serif" font-size="14.00">4</text>
</g>
<!-- end_node -->
<g id="node13" class="node">
<title>end_node</title>
<ellipse fill="none" stroke="black" cx="506" cy="-22" rx="18" ry="18"/>
<ellipse fill="none" stroke="black" cx="506" cy="-22" rx="22" ry="22"/>
<text text-anchor="start" x="501.5" y="-18.3" font-family="Times,serif" font-size="14.00">■</text>
</g>
<!-- Send for Credit Collection&#45;&gt;end_node -->
<g id="edge21" class="edge">
<title>Send for Credit Collection&#45;&gt;end_node</title>
<path fill="none" stroke="#000000" stroke-width="3.67" d="M401.37,-94.63C422.65,-80.07 453.07,-59.23 475.64,-43.79"/>
<polygon fill="#000000" stroke="#000000" stroke-width="3.67" points="477.34,-46.86 483.61,-38.33 473.38,-41.09 477.34,-46.86"/>
<text text-anchor="middle" x="455" y="-65.8" font-family="Times,serif" font-size="14.00">17</text>
</g>
<!-- Appeal to Judge&#45;&gt;Payment -->
<g id="edge15" class="edge">
<title>Appeal to Judge&#45;&gt;Payment</title>
<path fill="none" stroke="#000000" stroke-width="0.71" d="M519.56,-181.8C529.03,-169.78 541.85,-153.52 552.56,-139.94"/>
<polygon fill="#000000" stroke="#000000" stroke-width="0.71" points="555.12,-142.33 558.57,-132.31 549.63,-138 555.12,-142.33"/>
<text text-anchor="middle" x="546.5" y="-152.8" font-family="Times,serif" font-size="14.00">3</text>
</g>
<!-- Appeal to Judge&#45;&gt;end_node -->
<g id="edge22" class="edge">
<title>Appeal to Judge&#45;&gt;end_node</title>
<path fill="none" stroke="#000000" stroke-width="0.92" d="M506,-181.8C506,-152.61 506,-92.91 506,-55.6"/>
<polygon fill="#000000" stroke="#000000" stroke-width="0.92" points="509.5,-55.74 506,-45.74 502.5,-55.74 509.5,-55.74"/>
<text text-anchor="middle" x="509.5" y="-109.3" font-family="Times,serif" font-size="14.00">4</text>
</g>
<!-- Payment&#45;&gt;end_node -->
<g id="edge23" class="edge">
<title>Payment&#45;&gt;end_node</title>
<path fill="none" stroke="#000000" stroke-width="1.56" d="M560.08,-94.84C550.44,-82.04 537.09,-64.3 526.07,-49.65"/>
<polygon fill="#000000" stroke="#000000" stroke-width="1.56" points="529.11,-47.88 520.3,-41.99 523.51,-52.09 529.11,-47.88"/>
<text text-anchor="middle" x="548.5" y="-65.8" font-family="Times,serif" font-size="14.00">7</text>
</g>
</g>
</svg>
