<?xml version="1.0" encoding="UTF-8" standalone="no"?>
<!DOCTYPE svg PUBLIC "-//W3C//DTD SVG 1.1//EN"
 "http://www.w3.org/Graphics/SVG/1.1/DTD/svg11.dtd">
<!-- Generated by graphviz version 7.0.5 (0)
 -->
<!-- Title: dfg Pages: 1 -->
<svg width="450pt" height="1009pt"
 viewBox="0.00 0.00 450.00 1009.00" xmlns="http://www.w3.org/2000/svg" xmlns:xlink="http://www.w3.org/1999/xlink">
<g id="graph0" class="graph" transform="scale(1 1) rotate(0) translate(4 1005)">
<title>dfg</title>
<polygon fill="white" stroke="none" points="-4,4 -4,-1005 446,-1005 446,4 -4,4"/>
<!-- start_node -->
<g id="node1" class="node">
<title>start_node</title>
<ellipse fill="none" stroke="black" cx="201" cy="-983" rx="18" ry="18"/>
<text text-anchor="start" x="196.5" y="-979.3" font-family="Times,serif" font-size="14.00">●</text>
</g>
<!-- Create Fine -->
<g id="node2" class="node">
<title>Create Fine</title>
<polygon fill="#f5f5ff" stroke="black" points="250.5,-914 151.5,-914 151.5,-878 250.5,-878 250.5,-914"/>
<text text-anchor="middle" x="201" y="-892.3" font-family="Times,serif" font-size="14.00">Create Fine (7)</text>
</g>
<!-- start_node&#45;&gt;Create Fine -->
<g id="edge1" class="edge">
<title>start_node&#45;&gt;Create Fine</title>
<path fill="none" stroke="#000000" stroke-width="1.44" d="M201,-964.8C201,-953.81 201,-939.28 201,-926.48"/>
<polygon fill="#000000" stroke="#000000" stroke-width="1.44" points="204.5,-926.65 201,-916.65 197.5,-926.65 204.5,-926.65"/>
<text text-anchor="middle" x="204.5" y="-935.8" font-family="Times,serif" font-size="14.00">7</text>
</g>
<!-- Send Fine -->
<g id="node3" class="node">
<title>Send Fine</title>
<polygon fill="#f5f5ff" stroke="black" points="246.5,-827 155.5,-827 155.5,-791 246.5,-791 246.5,-827"/>
<text text-anchor="middle" x="201" y="-805.3" font-family="Times,serif" font-size="14.00">Send Fine (7)</text>
</g>
<!-- Create Fine&#45;&gt;Send Fine -->
<g id="edge2" class="edge">
<title>Create Fine&#45;&gt;Send Fine</title>
<path fill="none" stroke="#000000" stroke-width="1.44" d="M201,-877.8C201,-866.81 201,-852.28 201,-839.48"/>
<polygon fill="#000000" stroke="#000000" stroke-width="1.44" points="204.5,-839.65 201,-829.65 197.5,-839.65 204.5,-839.65"/>
<text text-anchor="middle" x="204.5" y="-848.8" font-family="Times,serif" font-size="14.00">7</text>
</g>
<!-- Insert Fine Notification -->
<g id="node4" class="node">
<title>Insert Fine Notification</title>
<polygon fill="#f5f5ff" stroke="black" points="283,-740 119,-740 119,-704 283,-704 283,-740"/>
<text text-anchor="middle" x="201" y="-718.3" font-family="Times,serif" font-size="14.00">Insert Fine Notification (7)</text>
</g>
<!-- Send Fine&#45;&gt;Insert Fine Notification -->
<g id="edge3" class="edge">
<title>Send Fine&#45;&gt;Insert Fine Notification</title>
<path fill="none" stroke="#000000" stroke-width="1.44" d="M201,-790.8C201,-779.81 201,-765.28 201,-752.48"/>
<polygon fill="#000000" stroke="#000000" stroke-width="1.44" points="204.5,-752.65 201,-742.65 197.5,-752.65 204.5,-752.65"/>
<text text-anchor="middle" x="204.5" y="-761.8" font-family="Times,serif" font-size="14.00">7</text>
</g>
<!-- Insert Date Appeal to Prefecture -->
<g id="node5" class="node">
<title>Insert Date Appeal to Prefecture</title>
<polygon fill="#fafaff" stroke="black" points="425,-653 213,-653 213,-617 425,-617 425,-653"/>
<text text-anchor="middle" x="319" y="-631.3" font-family="Times,serif" font-size="14.00">Insert Date Appeal to Prefecture (5)</text>
</g>
<!-- Insert Fine Notification&#45;&gt;Insert Date Appeal to Prefecture -->
<g id="edge4" class="edge">
<title>Insert Fine Notification&#45;&gt;Insert Date Appeal to Prefecture</title>
<path fill="none" stroke="#000000" stroke-width="1.13" d="M225.16,-703.59C242.58,-691.05 266.32,-673.95 285.55,-660.09"/>
<polygon fill="#000000" stroke="#000000" stroke-width="1.13" points="287.41,-663.07 293.48,-654.38 283.32,-657.39 287.41,-663.07"/>
<text text-anchor="middle" x="270.5" y="-674.8" font-family="Times,serif" font-size="14.00">5</text>
</g>
<!-- Add penalty -->
<g id="node7" class="node">
<title>Add penalty</title>
<polygon fill="#f5f5ff" stroke="black" points="236.5,-479 133.5,-479 133.5,-443 236.5,-443 236.5,-479"/>
<text text-anchor="middle" x="185" y="-457.3" font-family="Times,serif" font-size="14.00">Add penalty (7)</text>
</g>
<!-- Insert Fine Notification&#45;&gt;Add penalty -->
<g id="edge11" class="edge">
<title>Insert Fine Notification&#45;&gt;Add penalty</title>
<path fill="none" stroke="#ff0000" stroke-width="0.66" stroke-dasharray="5,2" d="M199.93,-703.6C197.21,-659.65 190.05,-543.8 186.74,-490.09"/>
<polygon fill="#ff0000" stroke="#ff0000" stroke-width="0.66" points="190.24,-490.08 186.13,-480.31 183.25,-490.51 190.24,-490.08"/>
<text text-anchor="middle" x="197.5" y="-587.8" font-family="Times,serif" font-size="14.00">2</text>
</g>
<!-- Send Appeal to Prefecture -->
<g id="node6" class="node">
<title>Send Appeal to Prefecture</title>
<polygon fill="#fafaff" stroke="black" points="406.5,-566 227.5,-566 227.5,-530 406.5,-530 406.5,-566"/>
<text text-anchor="middle" x="317" y="-544.3" font-family="Times,serif" font-size="14.00">Send Appeal to Prefecture (5)</text>
</g>
<!-- Insert Date Appeal to Prefecture&#45;&gt;Send Appeal to Prefecture -->
<g id="edge5" class="edge">
<title>Insert Date Appeal to Prefecture&#45;&gt;Send Appeal to Prefecture</title>
<path fill="none" stroke="#000000" stroke-width="0.97" d="M318.6,-616.8C318.33,-605.58 317.98,-590.67 317.67,-577.69"/>
<polygon fill="#000000" stroke="#000000" stroke-width="0.97" points="321.18,-577.85 317.45,-567.94 314.18,-578.02 321.18,-577.85"/>
<text text-anchor="middle" x="321.5" y="-587.8" font-family="Times,serif" font-size="14.00">4</text>
</g>
<!-- Appeal to Judge -->
<g id="node11" class="node">
<title>Appeal to Judge</title>
<polygon fill="#ffffff" stroke="black" points="391.5,-218 266.5,-218 266.5,-182 391.5,-182 391.5,-218"/>
<text text-anchor="middle" x="329" y="-196.3" font-family="Times,serif" font-size="14.00">Appeal to Judge (3)</text>
</g>
<!-- Insert Date Appeal to Prefecture&#45;&gt;Appeal to Judge -->
<g id="edge15" class="edge">
<title>Insert Date Appeal to Prefecture&#45;&gt;Appeal to Judge</title>
<path fill="none" stroke="#ff0000" stroke-width="0.5" stroke-dasharray="5,2" d="M374.62,-616.54C404.39,-603.36 435,-581.83 435,-549 435,-549 435,-549 435,-286 435,-257.55 411.48,-237.05 386.59,-223.31"/>
<polygon fill="#ff0000" stroke="#ff0000" stroke-width="0.5" points="388.2,-220.2 377.71,-218.72 384.99,-226.42 388.2,-220.2"/>
<text text-anchor="middle" x="438.5" y="-413.8" font-family="Times,serif" font-size="14.00">1</text>
</g>
<!-- Send Appeal to Prefecture&#45;&gt;Add penalty -->
<g id="edge6" class="edge">
<title>Send Appeal to Prefecture&#45;&gt;Add penalty</title>
<path fill="none" stroke="#000000" stroke-width="0.97" d="M289.97,-529.59C270.22,-516.87 243.21,-499.48 221.53,-485.52"/>
<polygon fill="#000000" stroke="#000000" stroke-width="0.97" points="223.53,-482.65 213.23,-480.18 219.74,-488.54 223.53,-482.65"/>
<text text-anchor="middle" x="261.5" y="-500.8" font-family="Times,serif" font-size="14.00">4</text>
</g>
<!-- Send Appeal to Prefecture&#45;&gt;Appeal to Judge -->
<g id="edge17" class="edge">
<title>Send Appeal to Prefecture&#45;&gt;Appeal to Judge</title>
<path fill="none" stroke="#ff0000" stroke-width="0.5" stroke-dasharray="5,2" d="M347.83,-529.6C369.63,-514.78 395,-491.24 395,-462 395,-462 395,-462 395,-286 395,-261.92 378.27,-240.53 361.65,-225.24"/>
<polygon fill="#ff0000" stroke="#ff0000" stroke-width="0.5" points="363.99,-222.64 354.15,-218.73 359.41,-227.93 363.99,-222.64"/>
<text text-anchor="middle" x="398.5" y="-370.3" font-family="Times,serif" font-size="14.00">1</text>
</g>
<!-- Receive Result Appeal from Prefecture -->
<g id="node8" class="node">
<title>Receive Result Appeal from Prefecture</title>
<polygon fill="#ffffff" stroke="black" points="316,-392 66,-392 66,-356 316,-356 316,-392"/>
<text text-anchor="middle" x="191" y="-370.3" font-family="Times,serif" font-size="14.00">Receive Result Appeal from Prefecture (3)</text>
</g>
<!-- Add penalty&#45;&gt;Receive Result Appeal from Prefecture -->
<g id="edge7" class="edge">
<title>Add penalty&#45;&gt;Receive Result Appeal from Prefecture</title>
<path fill="none" stroke="#000000" stroke-width="0.81" d="M186.21,-442.8C187.01,-431.47 188.08,-416.36 189,-403.29"/>
<polygon fill="#000000" stroke="#000000" stroke-width="0.81" points="192.47,-403.92 189.68,-393.7 185.48,-403.43 192.47,-403.92"/>
<text text-anchor="middle" x="192.5" y="-413.8" font-family="Times,serif" font-size="14.00">3</text>
</g>
<!-- Payment -->
<g id="node10" class="node">
<title>Payment</title>
<polygon fill="#9b9bff" stroke="black" points="254.5,-131 163.5,-131 163.5,-95 254.5,-95 254.5,-131"/>
<text text-anchor="middle" x="209" y="-109.3" font-family="Times,serif" font-size="14.00">Payment (43)</text>
</g>
<!-- Add penalty&#45;&gt;Payment -->
<g id="edge12" class="edge">
<title>Add penalty&#45;&gt;Payment</title>
<path fill="none" stroke="#000000" stroke-width="0.97" d="M133.47,-457.73C78.73,-452.21 0,-434.03 0,-375 0,-375 0,-375 0,-199 0,-133.18 90.05,-117.14 151.94,-113.9"/>
<polygon fill="#000000" stroke="#000000" stroke-width="0.97" points="151.82,-117.4 161.67,-113.49 151.53,-110.41 151.82,-117.4"/>
<text text-anchor="middle" x="3.5" y="-283.3" font-family="Times,serif" font-size="14.00">4</text>
</g>
<!-- Notify Result Appeal to Offender -->
<g id="node9" class="node">
<title>Notify Result Appeal to Offender</title>
<polygon fill="#ffffff" stroke="black" points="318,-305 100,-305 100,-269 318,-269 318,-305"/>
<text text-anchor="middle" x="209" y="-283.3" font-family="Times,serif" font-size="14.00">Notify Result Appeal to Offender (3)</text>
</g>
<!-- Receive Result Appeal from Prefecture&#45;&gt;Notify Result Appeal to Offender -->
<g id="edge8" class="edge">
<title>Receive Result Appeal from Prefecture&#45;&gt;Notify Result Appeal to Offender</title>
<path fill="none" stroke="#000000" stroke-width="0.81" d="M194.64,-355.8C197.04,-344.47 200.24,-329.36 203.01,-316.29"/>
<polygon fill="#000000" stroke="#000000" stroke-width="0.81" points="206.4,-317.18 205.05,-306.67 199.55,-315.73 206.4,-317.18"/>
<text text-anchor="middle" x="205.5" y="-326.8" font-family="Times,serif" font-size="14.00">3</text>
</g>
<!-- Notify Result Appeal to Offender&#45;&gt;Payment -->
<g id="edge9" class="edge">
<title>Notify Result Appeal to Offender&#45;&gt;Payment</title>
<path fill="none" stroke="#ff0000" stroke-width="0.66" stroke-dasharray="5,2" d="M209,-268.56C209,-238.81 209,-178.01 209,-142.17"/>
<polygon fill="#ff0000" stroke="#ff0000" stroke-width="0.66" points="212.5,-142.48 209,-132.48 205.5,-142.48 212.5,-142.48"/>
<text text-anchor="middle" x="212.5" y="-196.3" font-family="Times,serif" font-size="14.00">2</text>
</g>
<!-- Notify Result Appeal to Offender&#45;&gt;Appeal to Judge -->
<g id="edge13" class="edge">
<title>Notify Result Appeal to Offender&#45;&gt;Appeal to Judge</title>
<path fill="none" stroke="#ff0000" stroke-width="0.5" stroke-dasharray="5,2" d="M233.57,-268.59C251.53,-255.87 276.09,-238.48 295.79,-224.52"/>
<polygon fill="#ff0000" stroke="#ff0000" stroke-width="0.5" points="297.7,-227.46 303.84,-218.82 293.66,-221.74 297.7,-227.46"/>
<text text-anchor="middle" x="279.5" y="-239.8" font-family="Times,serif" font-size="14.00">1</text>
</g>
<!-- Payment&#45;&gt;Payment -->
<g id="edge10" class="edge">
<title>Payment&#45;&gt;Payment</title>
<path fill="none" stroke="#000000" stroke-width="6" d="M254.95,-120.94C265.1,-120.19 272.5,-117.55 272.5,-113 272.5,-111.58 271.78,-110.34 270.47,-109.3"/>
<polygon fill="#000000" stroke="#000000" stroke-width="6" points="272.21,-104.33 261.18,-106.76 269.44,-114.46 272.21,-104.33"/>
<text text-anchor="middle" x="279.5" y="-109.3" font-family="Times,serif" font-size="14.00">36</text>
</g>
<!-- end_node -->
<g id="node12" class="node">
<title>end_node</title>
<ellipse fill="none" stroke="black" cx="209" cy="-22" rx="18" ry="18"/>
<ellipse fill="none" stroke="black" cx="209" cy="-22" rx="22" ry="22"/>
<text text-anchor="start" x="204.5" y="-18.3" font-family="Times,serif" font-size="14.00">■</text>
</g>
<!-- Payment&#45;&gt;end_node -->
<g id="edge19" class="edge">
<title>Payment&#45;&gt;end_node</title>
<path fill="none" stroke="#000000" stroke-width="1.44" d="M209,-94.84C209,-83.89 209,-69.34 209,-56.2"/>
<polygon fill="#000000" stroke="#000000" stroke-width="1.44" points="212.5,-56.37 209,-46.37 205.5,-56.37 212.5,-56.37"/>
<text text-anchor="middle" x="212.5" y="-65.8" font-family="Times,serif" font-size="14.00">7</text>
</g>
<!-- Appeal to Judge&#45;&gt;Send Appeal to Prefecture -->
<g id="edge16" class="edge">
<title>Appeal to Judge&#45;&gt;Send Appeal to Prefecture</title>
<path fill="none" stroke="#ff0000" stroke-width="0.5" stroke-dasharray="5,2" d="M336.53,-218.21C343.24,-235.13 352,-261.85 352,-286 352,-462 352,-462 352,-462 352,-482.81 342.92,-504.48 334.01,-520.73"/>
<polygon fill="#ff0000" stroke="#ff0000" stroke-width="0.5" points="331.22,-518.56 329.23,-528.96 337.27,-522.07 331.22,-518.56"/>
<text text-anchor="middle" x="355.5" y="-370.3" font-family="Times,serif" font-size="14.00">1</text>
</g>
<!-- Appeal to Judge&#45;&gt;Add penalty -->
<g id="edge18" class="edge">
<title>Appeal to Judge&#45;&gt;Add penalty</title>
<path fill="none" stroke="#ff0000" stroke-width="0.5" stroke-dasharray="5,2" d="M266.14,-212.41C204.67,-224.7 116.67,-245.65 91,-269 84.69,-274.75 34.85,-355.15 57,-392 71.59,-416.28 98.1,-432.35 123.22,-442.74"/>
<polygon fill="#ff0000" stroke="#ff0000" stroke-width="0.5" points="121.82,-445.95 132.41,-446.31 124.36,-439.43 121.82,-445.95"/>
<text text-anchor="middle" x="65.5" y="-326.8" font-family="Times,serif" font-size="14.00">1</text>
</g>
<!-- Appeal to Judge&#45;&gt;Payment -->
<g id="edge14" class="edge">
<title>Appeal to Judge&#45;&gt;Payment</title>
<path fill="none" stroke="#ff0000" stroke-width="0.5" stroke-dasharray="5,2" d="M304.43,-181.59C286.47,-168.87 261.91,-151.48 242.21,-137.52"/>
<polygon fill="#ff0000" stroke="#ff0000" stroke-width="0.5" points="244.34,-134.74 234.16,-131.82 240.3,-140.46 244.34,-134.74"/>
<text text-anchor="middle" x="279.5" y="-152.8" font-family="Times,serif" font-size="14.00">1</text>
</g>
</g>
</svg>
