<?xml version="1.0" encoding="UTF-8" standalone="no"?>
<!DOCTYPE svg PUBLIC "-//W3C//DTD SVG 1.1//EN"
 "http://www.w3.org/Graphics/SVG/1.1/DTD/svg11.dtd">
<!-- Generated by graphviz version 7.0.5 (0)
 -->
<!-- Title: dfg Pages: 1 -->
<svg width="322pt" height="1009pt"
 viewBox="0.00 0.00 321.50 1009.00" xmlns="http://www.w3.org/2000/svg" xmlns:xlink="http://www.w3.org/1999/xlink">
<g id="graph0" class="graph" transform="scale(1 1) rotate(0) translate(4 1005)">
<title>dfg</title>
<polygon fill="white" stroke="none" points="-4,4 -4,-1005 317.5,-1005 317.5,4 -4,4"/>
<!-- start_node -->
<g id="node1" class="node">
<title>start_node</title>
<ellipse fill="none" stroke="black" cx="194" cy="-983" rx="18" ry="18"/>
<text text-anchor="start" x="189.5" y="-979.3" font-family="Times,serif" font-size="14.00">●</text>
</g>
<!-- Create Fine -->
<g id="node2" class="node">
<title>Create Fine</title>
<polygon fill="#9b9bff" stroke="black" points="243.5,-914 144.5,-914 144.5,-878 243.5,-878 243.5,-914"/>
<text text-anchor="middle" x="194" y="-892.3" font-family="Times,serif" font-size="14.00">Create Fine (4)</text>
</g>
<!-- start_node&#45;&gt;Create Fine -->
<g id="edge1" class="edge">
<title>start_node&#45;&gt;Create Fine</title>
<path fill="none" stroke="#000000" stroke-width="6" d="M194,-964.8C194,-954.96 194,-942.27 194,-930.53"/>
<polygon fill="#000000" stroke="#000000" stroke-width="6" points="199.25,-930.92 194,-920.92 188.75,-930.92 199.25,-930.92"/>
<text text-anchor="middle" x="197.5" y="-935.8" font-family="Times,serif" font-size="14.00">4</text>
</g>
<!-- Send Fine -->
<g id="node3" class="node">
<title>Send Fine</title>
<polygon fill="#9b9bff" stroke="black" points="239.5,-827 148.5,-827 148.5,-791 239.5,-791 239.5,-827"/>
<text text-anchor="middle" x="194" y="-805.3" font-family="Times,serif" font-size="14.00">Send Fine (4)</text>
</g>
<!-- Create Fine&#45;&gt;Send Fine -->
<g id="edge2" class="edge">
<title>Create Fine&#45;&gt;Send Fine</title>
<path fill="none" stroke="#000000" stroke-width="6" d="M194,-877.8C194,-867.96 194,-855.27 194,-843.53"/>
<polygon fill="#000000" stroke="#000000" stroke-width="6" points="199.25,-843.92 194,-833.92 188.75,-843.92 199.25,-843.92"/>
<text text-anchor="middle" x="197.5" y="-848.8" font-family="Times,serif" font-size="14.00">4</text>
</g>
<!-- Insert Fine Notification -->
<g id="node4" class="node">
<title>Insert Fine Notification</title>
<polygon fill="#9b9bff" stroke="black" points="276,-740 112,-740 112,-704 276,-704 276,-740"/>
<text text-anchor="middle" x="194" y="-718.3" font-family="Times,serif" font-size="14.00">Insert Fine Notification (4)</text>
</g>
<!-- Send Fine&#45;&gt;Insert Fine Notification -->
<g id="edge3" class="edge">
<title>Send Fine&#45;&gt;Insert Fine Notification</title>
<path fill="none" stroke="#000000" stroke-width="6" d="M194,-790.8C194,-780.96 194,-768.27 194,-756.53"/>
<polygon fill="#000000" stroke="#000000" stroke-width="6" points="199.25,-756.92 194,-746.92 188.75,-756.92 199.25,-756.92"/>
<text text-anchor="middle" x="197.5" y="-761.8" font-family="Times,serif" font-size="14.00">4</text>
</g>
<!-- Insert Date Appeal to Prefecture -->
<g id="node5" class="node">
<title>Insert Date Appeal to Prefecture</title>
<polygon fill="#9b9bff" stroke="black" points="300,-653 88,-653 88,-617 300,-617 300,-653"/>
<text text-anchor="middle" x="194" y="-631.3" font-family="Times,serif" font-size="14.00">Insert Date Appeal to Prefecture (4)</text>
</g>
<!-- Insert Fine Notification&#45;&gt;Insert Date Appeal to Prefecture -->
<g id="edge4" class="edge">
<title>Insert Fine Notification&#45;&gt;Insert Date Appeal to Prefecture</title>
<path fill="none" stroke="#000000" stroke-width="6" d="M194,-703.8C194,-693.96 194,-681.27 194,-669.53"/>
<polygon fill="#000000" stroke="#000000" stroke-width="6" points="199.25,-669.92 194,-659.92 188.75,-669.92 199.25,-669.92"/>
<text text-anchor="middle" x="197.5" y="-674.8" font-family="Times,serif" font-size="14.00">4</text>
</g>
<!-- Add penalty -->
<g id="node6" class="node">
<title>Add penalty</title>
<polygon fill="#9b9bff" stroke="black" points="201.5,-566 98.5,-566 98.5,-530 201.5,-530 201.5,-566"/>
<text text-anchor="middle" x="150" y="-544.3" font-family="Times,serif" font-size="14.00">Add penalty (4)</text>
</g>
<!-- Insert Date Appeal to Prefecture&#45;&gt;Add penalty -->
<g id="edge5" class="edge">
<title>Insert Date Appeal to Prefecture&#45;&gt;Add penalty</title>
<path fill="none" stroke="#000000" stroke-width="4.17" d="M185.1,-616.8C179.7,-606.38 172.66,-592.78 166.3,-580.5"/>
<polygon fill="#000000" stroke="#000000" stroke-width="4.17" points="169.67,-579.07 161.84,-571.87 163.2,-582.43 169.67,-579.07"/>
<text text-anchor="middle" x="177.5" y="-587.8" font-family="Times,serif" font-size="14.00">3</text>
</g>
<!-- Send Appeal to Prefecture -->
<g id="node7" class="node">
<title>Send Appeal to Prefecture</title>
<polygon fill="#9b9bff" stroke="black" points="313.5,-479 134.5,-479 134.5,-443 313.5,-443 313.5,-479"/>
<text text-anchor="middle" x="224" y="-457.3" font-family="Times,serif" font-size="14.00">Send Appeal to Prefecture (4)</text>
</g>
<!-- Insert Date Appeal to Prefecture&#45;&gt;Send Appeal to Prefecture -->
<g id="edge10" class="edge">
<title>Insert Date Appeal to Prefecture&#45;&gt;Send Appeal to Prefecture</title>
<path fill="none" stroke="#000000" stroke-width="0.5" d="M198.99,-616.52C202.74,-602.86 207.76,-583.34 211,-566 215.79,-540.38 219.29,-510.86 221.44,-489.84"/>
<polygon fill="#000000" stroke="#000000" stroke-width="0.5" points="224.9,-490.45 222.4,-480.15 217.93,-489.76 224.9,-490.45"/>
<text text-anchor="middle" x="219.5" y="-544.3" font-family="Times,serif" font-size="14.00">1</text>
</g>
<!-- Add penalty&#45;&gt;Send Appeal to Prefecture -->
<g id="edge6" class="edge">
<title>Add penalty&#45;&gt;Send Appeal to Prefecture</title>
<path fill="none" stroke="#000000" stroke-width="4.17" d="M164.98,-529.8C174.54,-518.81 187.19,-504.28 198.33,-491.48"/>
<polygon fill="#000000" stroke="#000000" stroke-width="4.17" points="200.98,-493.99 204.8,-484.05 195.48,-489.2 200.98,-493.99"/>
<text text-anchor="middle" x="194.5" y="-500.8" font-family="Times,serif" font-size="14.00">3</text>
</g>
<!-- Receive Result Appeal from Prefecture -->
<g id="node8" class="node">
<title>Receive Result Appeal from Prefecture</title>
<polygon fill="#9b9bff" stroke="black" points="250,-392 0,-392 0,-356 250,-356 250,-392"/>
<text text-anchor="middle" x="125" y="-370.3" font-family="Times,serif" font-size="14.00">Receive Result Appeal from Prefecture (4)</text>
</g>
<!-- Add penalty&#45;&gt;Receive Result Appeal from Prefecture -->
<g id="edge12" class="edge">
<title>Add penalty&#45;&gt;Receive Result Appeal from Prefecture</title>
<path fill="none" stroke="#000000" stroke-width="0.5" d="M139.18,-529.59C131.58,-516.29 122.07,-497.21 118,-479 112.31,-453.55 115.24,-423.8 118.9,-402.65"/>
<polygon fill="#000000" stroke="#000000" stroke-width="0.5" points="122.32,-403.38 120.75,-392.9 115.44,-402.08 122.32,-403.38"/>
<text text-anchor="middle" x="121.5" y="-457.3" font-family="Times,serif" font-size="14.00">1</text>
</g>
<!-- Send Appeal to Prefecture&#45;&gt;Add penalty -->
<g id="edge11" class="edge">
<title>Send Appeal to Prefecture&#45;&gt;Add penalty</title>
<path fill="none" stroke="#000000" stroke-width="0.5" d="M191,-479.44C183.74,-484.4 176.56,-490.29 171,-497 165.48,-503.65 161.22,-511.96 158.03,-519.88"/>
<polygon fill="#000000" stroke="#000000" stroke-width="0.5" points="154.77,-518.6 154.68,-529.19 161.36,-520.97 154.77,-518.6"/>
<text text-anchor="middle" x="174.5" y="-500.8" font-family="Times,serif" font-size="14.00">1</text>
</g>
<!-- Send Appeal to Prefecture&#45;&gt;Receive Result Appeal from Prefecture -->
<g id="edge7" class="edge">
<title>Send Appeal to Prefecture&#45;&gt;Receive Result Appeal from Prefecture</title>
<path fill="none" stroke="#000000" stroke-width="4.17" d="M203.97,-442.8C190.64,-431.35 172.82,-416.06 157.49,-402.89"/>
<polygon fill="#000000" stroke="#000000" stroke-width="4.17" points="159.92,-400.18 149.96,-396.43 155.17,-405.71 159.92,-400.18"/>
<text text-anchor="middle" x="183.5" y="-413.8" font-family="Times,serif" font-size="14.00">3</text>
</g>
<!-- Notify Result Appeal to Offender -->
<g id="node9" class="node">
<title>Notify Result Appeal to Offender</title>
<polygon fill="#9b9bff" stroke="black" points="234,-305 16,-305 16,-269 234,-269 234,-305"/>
<text text-anchor="middle" x="125" y="-283.3" font-family="Times,serif" font-size="14.00">Notify Result Appeal to Offender (4)</text>
</g>
<!-- Receive Result Appeal from Prefecture&#45;&gt;Notify Result Appeal to Offender -->
<g id="edge8" class="edge">
<title>Receive Result Appeal from Prefecture&#45;&gt;Notify Result Appeal to Offender</title>
<path fill="none" stroke="#000000" stroke-width="6" d="M125,-355.8C125,-345.96 125,-333.27 125,-321.53"/>
<polygon fill="#000000" stroke="#000000" stroke-width="6" points="130.25,-321.92 125,-311.92 119.75,-321.92 130.25,-321.92"/>
<text text-anchor="middle" x="128.5" y="-326.8" font-family="Times,serif" font-size="14.00">4</text>
</g>
<!-- Send for Credit Collection -->
<g id="node10" class="node">
<title>Send for Credit Collection</title>
<polygon fill="#9b9bff" stroke="black" points="215,-131 35,-131 35,-95 215,-95 215,-131"/>
<text text-anchor="middle" x="125" y="-109.3" font-family="Times,serif" font-size="14.00">Send for Credit Collection (4)</text>
</g>
<!-- Notify Result Appeal to Offender&#45;&gt;Send for Credit Collection -->
<g id="edge9" class="edge">
<title>Notify Result Appeal to Offender&#45;&gt;Send for Credit Collection</title>
<path fill="none" stroke="#000000" stroke-width="4.17" d="M122.73,-268.71C121.04,-254.99 118.89,-235.3 118,-218 117.18,-202.02 117.18,-197.98 118,-182 118.58,-170.64 119.71,-158.26 120.89,-147.22"/>
<polygon fill="#000000" stroke="#000000" stroke-width="4.17" points="124.51,-147.68 122.03,-137.33 117.26,-146.85 124.51,-147.68"/>
<text text-anchor="middle" x="121.5" y="-196.3" font-family="Times,serif" font-size="14.00">3</text>
</g>
<!-- Appeal to Judge -->
<g id="node11" class="node">
<title>Appeal to Judge</title>
<polygon fill="#ffffff" stroke="black" points="259.5,-218 134.5,-218 134.5,-182 259.5,-182 259.5,-218"/>
<text text-anchor="middle" x="197" y="-196.3" font-family="Times,serif" font-size="14.00">Appeal to Judge (1)</text>
</g>
<!-- Notify Result Appeal to Offender&#45;&gt;Appeal to Judge -->
<g id="edge13" class="edge">
<title>Notify Result Appeal to Offender&#45;&gt;Appeal to Judge</title>
<path fill="none" stroke="#000000" stroke-width="0.5" d="M139.57,-268.8C149.85,-256.67 163.79,-240.21 175.36,-226.55"/>
<polygon fill="#000000" stroke="#000000" stroke-width="0.5" points="177.92,-228.94 181.72,-219.04 172.58,-224.41 177.92,-228.94"/>
<text text-anchor="middle" x="168.5" y="-239.8" font-family="Times,serif" font-size="14.00">1</text>
</g>
<!-- end_node -->
<g id="node12" class="node">
<title>end_node</title>
<ellipse fill="none" stroke="black" cx="125" cy="-22" rx="18" ry="18"/>
<ellipse fill="none" stroke="black" cx="125" cy="-22" rx="22" ry="22"/>
<text text-anchor="start" x="120.5" y="-18.3" font-family="Times,serif" font-size="14.00">■</text>
</g>
<!-- Send for Credit Collection&#45;&gt;end_node -->
<g id="edge15" class="edge">
<title>Send for Credit Collection&#45;&gt;end_node</title>
<path fill="none" stroke="#000000" stroke-width="6" d="M125,-94.84C125,-85.02 125,-72.3 125,-60.3"/>
<polygon fill="#000000" stroke="#000000" stroke-width="6" points="130.25,-60.64 125,-50.64 119.75,-60.64 130.25,-60.64"/>
<text text-anchor="middle" x="128.5" y="-65.8" font-family="Times,serif" font-size="14.00">4</text>
</g>
<!-- Appeal to Judge&#45;&gt;Send for Credit Collection -->
<g id="edge14" class="edge">
<title>Appeal to Judge&#45;&gt;Send for Credit Collection</title>
<path fill="none" stroke="#000000" stroke-width="0.5" d="M182.43,-181.8C172.15,-169.67 158.21,-153.21 146.64,-139.55"/>
<polygon fill="#000000" stroke="#000000" stroke-width="0.5" points="149.42,-137.41 140.28,-132.04 144.08,-141.94 149.42,-137.41"/>
<text text-anchor="middle" x="168.5" y="-152.8" font-family="Times,serif" font-size="14.00">1</text>
</g>
</g>
</svg>
