<?xml version="1.0" encoding="UTF-8" standalone="no"?>
<!DOCTYPE svg PUBLIC "-//W3C//DTD SVG 1.1//EN"
 "http://www.w3.org/Graphics/SVG/1.1/DTD/svg11.dtd">
<!-- Generated by graphviz version 7.0.5 (0)
 -->
<!-- Title: dfg Pages: 1 -->
<svg width="760pt" height="922pt"
 viewBox="0.00 0.00 760.00 922.00" xmlns="http://www.w3.org/2000/svg" xmlns:xlink="http://www.w3.org/1999/xlink">
<g id="graph0" class="graph" transform="scale(1 1) rotate(0) translate(4 918)">
<title>dfg</title>
<polygon fill="white" stroke="none" points="-4,4 -4,-918 756,-918 756,4 -4,4"/>
<!-- start_node -->
<g id="node1" class="node">
<title>start_node</title>
<ellipse fill="none" stroke="black" cx="304" cy="-896" rx="18" ry="18"/>
<text text-anchor="start" x="299.5" y="-892.3" font-family="Times,serif" font-size="14.00">●</text>
</g>
<!-- Create Fine -->
<g id="node2" class="node">
<title>Create Fine</title>
<polygon fill="#9b9bff" stroke="black" points="360.5,-827 247.5,-827 247.5,-791 360.5,-791 360.5,-827"/>
<text text-anchor="middle" x="304" y="-805.3" font-family="Times,serif" font-size="14.00">Create Fine (261)</text>
</g>
<!-- start_node&#45;&gt;Create Fine -->
<g id="edge1" class="edge">
<title>start_node&#45;&gt;Create Fine</title>
<path fill="none" stroke="#000000" stroke-width="6.02" d="M304,-877.8C304,-867.96 304,-855.27 304,-843.53"/>
<polygon fill="#000000" stroke="#000000" stroke-width="6.02" points="309.27,-843.93 304,-833.93 298.73,-843.93 309.27,-843.93"/>
<text text-anchor="middle" x="314.5" y="-848.8" font-family="Times,serif" font-size="14.00">261</text>
</g>
<!-- Send Fine -->
<g id="node3" class="node">
<title>Send Fine</title>
<polygon fill="#9b9bff" stroke="black" points="496,-740 392,-740 392,-704 496,-704 496,-740"/>
<text text-anchor="middle" x="444" y="-718.3" font-family="Times,serif" font-size="14.00">Send Fine (261)</text>
</g>
<!-- Create Fine&#45;&gt;Send Fine -->
<g id="edge2" class="edge">
<title>Create Fine&#45;&gt;Send Fine</title>
<path fill="none" stroke="#000000" stroke-width="6" d="M332.67,-790.59C352.49,-778.56 379.19,-762.35 401.48,-748.82"/>
<polygon fill="#000000" stroke="#000000" stroke-width="6" points="404.03,-753.41 409.85,-743.73 398.58,-744.43 404.03,-753.41"/>
<text text-anchor="middle" x="392.5" y="-761.8" font-family="Times,serif" font-size="14.00">260</text>
</g>
<!-- Insert Date Appeal to Prefecture -->
<g id="node5" class="node">
<title>Insert Date Appeal to Prefecture</title>
<polygon fill="#9b9bff" stroke="black" points="439.5,-566 214.5,-566 214.5,-530 439.5,-530 439.5,-566"/>
<text text-anchor="middle" x="327" y="-544.3" font-family="Times,serif" font-size="14.00">Insert Date Appeal to Prefecture (261)</text>
</g>
<!-- Create Fine&#45;&gt;Insert Date Appeal to Prefecture -->
<g id="edge26" class="edge">
<title>Create Fine&#45;&gt;Insert Date Appeal to Prefecture</title>
<path fill="none" stroke="#ff0000" stroke-width="0.5" stroke-dasharray="5,2" d="M305.54,-790.6C309.46,-746.55 319.78,-630.32 324.54,-576.75"/>
<polygon fill="#ff0000" stroke="#ff0000" stroke-width="0.5" points="328,-577.34 325.39,-567.07 321.02,-576.73 328,-577.34"/>
<text text-anchor="middle" x="320.5" y="-674.8" font-family="Times,serif" font-size="14.00">1</text>
</g>
<!-- Insert Fine Notification -->
<g id="node4" class="node">
<title>Insert Fine Notification</title>
<polygon fill="#a4a4ff" stroke="black" points="593.5,-653 416.5,-653 416.5,-617 593.5,-617 593.5,-653"/>
<text text-anchor="middle" x="505" y="-631.3" font-family="Times,serif" font-size="14.00">Insert Fine Notification (237)</text>
</g>
<!-- Send Fine&#45;&gt;Insert Fine Notification -->
<g id="edge3" class="edge">
<title>Send Fine&#45;&gt;Insert Fine Notification</title>
<path fill="none" stroke="#000000" stroke-width="5.45" d="M456.34,-703.8C463.98,-693.15 474.01,-679.18 482.98,-666.69"/>
<polygon fill="#000000" stroke="#000000" stroke-width="5.45" points="486.82,-669.51 488.77,-658.61 479.07,-663.96 486.82,-669.51"/>
<text text-anchor="middle" x="488.5" y="-674.8" font-family="Times,serif" font-size="14.00">234</text>
</g>
<!-- Send Fine&#45;&gt;Insert Date Appeal to Prefecture -->
<g id="edge10" class="edge">
<title>Send Fine&#45;&gt;Insert Date Appeal to Prefecture</title>
<path fill="none" stroke="#000000" stroke-width="1.01" d="M430.75,-703.6C420.49,-689.99 406.05,-670.5 394,-653 376.2,-627.16 356.9,-596.94 343.6,-575.76"/>
<polygon fill="#000000" stroke="#000000" stroke-width="1.01" points="346.67,-574.06 338.4,-567.44 340.73,-577.77 346.67,-574.06"/>
<text text-anchor="middle" x="401" y="-631.3" font-family="Times,serif" font-size="14.00">25</text>
</g>
<!-- Send Appeal to Prefecture -->
<g id="node7" class="node">
<title>Send Appeal to Prefecture</title>
<polygon fill="#9b9bff" stroke="black" points="565,-305 373,-305 373,-269 565,-269 565,-305"/>
<text text-anchor="middle" x="469" y="-283.3" font-family="Times,serif" font-size="14.00">Send Appeal to Prefecture (261)</text>
</g>
<!-- Send Fine&#45;&gt;Send Appeal to Prefecture -->
<g id="edge28" class="edge">
<title>Send Fine&#45;&gt;Send Appeal to Prefecture</title>
<path fill="none" stroke="#ff0000" stroke-width="0.5" stroke-dasharray="5,2" d="M496.22,-714.35C570.82,-703.37 699,-678.35 699,-636 699,-636 699,-636 699,-503.5 699,-409.55 663.58,-380.13 589,-323 582.26,-317.84 574.79,-313.44 566.95,-309.69"/>
<polygon fill="#ff0000" stroke="#ff0000" stroke-width="0.5" points="568.5,-306.54 557.93,-305.73 565.68,-312.95 568.5,-306.54"/>
<text text-anchor="middle" x="702.5" y="-500.8" font-family="Times,serif" font-size="14.00">1</text>
</g>
<!-- Appeal to Judge -->
<g id="node9" class="node">
<title>Appeal to Judge</title>
<polygon fill="#fcfcff" stroke="black" points="681.5,-131 550.5,-131 550.5,-95 681.5,-95 681.5,-131"/>
<text text-anchor="middle" x="616" y="-109.3" font-family="Times,serif" font-size="14.00">Appeal to Judge (10)</text>
</g>
<!-- Send Fine&#45;&gt;Appeal to Judge -->
<g id="edge29" class="edge">
<title>Send Fine&#45;&gt;Appeal to Judge</title>
<path fill="none" stroke="#ff0000" stroke-width="0.5" stroke-dasharray="5,2" d="M496.43,-717C582.67,-708.96 745,-687.04 745,-636 745,-636 745,-636 745,-199 745,-168.52 719.57,-148.35 691.3,-135.34"/>
<polygon fill="#ff0000" stroke="#ff0000" stroke-width="0.5" points="692.9,-132.22 682.33,-131.5 690.14,-138.65 692.9,-132.22"/>
<text text-anchor="middle" x="748.5" y="-413.8" font-family="Times,serif" font-size="14.00">1</text>
</g>
<!-- Insert Fine Notification&#45;&gt;Insert Date Appeal to Prefecture -->
<g id="edge4" class="edge">
<title>Insert Fine Notification&#45;&gt;Insert Date Appeal to Prefecture</title>
<path fill="none" stroke="#000000" stroke-width="4.05" d="M472.17,-616.68C462.08,-611.18 451,-604.98 441,-599 430.53,-592.73 428.87,-589.55 418,-584 409.99,-579.9 401.38,-576 392.77,-572.39"/>
<polygon fill="#000000" stroke="#000000" stroke-width="4.05" points="394.11,-569.11 383.52,-568.67 391.47,-575.68 394.11,-569.11"/>
<text text-anchor="middle" x="451.5" y="-587.8" font-family="Times,serif" font-size="14.00">168</text>
</g>
<!-- Add penalty -->
<g id="node6" class="node">
<title>Add penalty</title>
<polygon fill="#a4a4ff" stroke="black" points="406,-392 290,-392 290,-356 406,-356 406,-392"/>
<text text-anchor="middle" x="348" y="-370.3" font-family="Times,serif" font-size="14.00">Add penalty (237)</text>
</g>
<!-- Insert Fine Notification&#45;&gt;Add penalty -->
<g id="edge7" class="edge">
<title>Insert Fine Notification&#45;&gt;Add penalty</title>
<path fill="none" stroke="#000000" stroke-width="1.75" d="M503.86,-616.65C500.63,-580.44 488.61,-495.79 445,-443 430.51,-425.45 410.42,-410.37 392.28,-398.9"/>
<polygon fill="#000000" stroke="#000000" stroke-width="1.75" points="394.23,-395.99 383.86,-393.78 390.59,-401.97 394.23,-395.99"/>
<text text-anchor="middle" x="488" y="-500.8" font-family="Times,serif" font-size="14.00">60</text>
</g>
<!-- Insert Fine Notification&#45;&gt;Send Appeal to Prefecture -->
<g id="edge18" class="edge">
<title>Insert Fine Notification&#45;&gt;Send Appeal to Prefecture</title>
<path fill="none" stroke="#ff0000" stroke-width="0.54" stroke-dasharray="5,2" d="M517.15,-616.62C550.8,-566.18 638.36,-417.33 571,-323 567.82,-318.54 564.03,-314.65 559.82,-311.24"/>
<polygon fill="#ff0000" stroke="#ff0000" stroke-width="0.54" points="562.13,-308.59 551.92,-305.75 558.13,-314.34 562.13,-308.59"/>
<text text-anchor="middle" x="595.5" y="-457.3" font-family="Times,serif" font-size="14.00">3</text>
</g>
<!-- Payment -->
<g id="node8" class="node">
<title>Payment</title>
<polygon fill="#f4f4ff" stroke="black" points="410.5,-479 319.5,-479 319.5,-443 410.5,-443 410.5,-479"/>
<text text-anchor="middle" x="365" y="-457.3" font-family="Times,serif" font-size="14.00">Payment (29)</text>
</g>
<!-- Insert Fine Notification&#45;&gt;Payment -->
<g id="edge34" class="edge">
<title>Insert Fine Notification&#45;&gt;Payment</title>
<path fill="none" stroke="#ff0000" stroke-width="0.5" stroke-dasharray="5,2" d="M498.14,-616.53C489.05,-594.77 471.51,-557.16 449,-530 435.06,-513.18 416.42,-497.59 400.24,-485.6"/>
<polygon fill="#ff0000" stroke="#ff0000" stroke-width="0.5" points="402.32,-482.78 392.17,-479.76 398.22,-488.46 402.32,-482.78"/>
<text text-anchor="middle" x="476.5" y="-544.3" font-family="Times,serif" font-size="14.00">1</text>
</g>
<!-- Insert Fine Notification&#45;&gt;Appeal to Judge -->
<g id="edge13" class="edge">
<title>Insert Fine Notification&#45;&gt;Appeal to Judge</title>
<path fill="none" stroke="#ff0000" stroke-width="0.56" stroke-dasharray="5,2" d="M583.95,-616.6C595.04,-612.02 605.79,-606.25 615,-599 648.64,-572.51 707,-434.8 707,-331.5 707,-331.5 707,-331.5 707,-199 707,-172.11 685.52,-151.29 663.44,-136.98"/>
<polygon fill="#ff0000" stroke="#ff0000" stroke-width="0.56" points="665.42,-134.09 655.06,-131.89 661.78,-140.07 665.42,-134.09"/>
<text text-anchor="middle" x="708.5" y="-370.3" font-family="Times,serif" font-size="14.00">4</text>
</g>
<!-- Receive Result Appeal from Prefecture -->
<g id="node10" class="node">
<title>Receive Result Appeal from Prefecture</title>
<polygon fill="#fbfbff" stroke="black" points="521.5,-218 264.5,-218 264.5,-182 521.5,-182 521.5,-218"/>
<text text-anchor="middle" x="393" y="-196.3" font-family="Times,serif" font-size="14.00">Receive Result Appeal from Prefecture (11)</text>
</g>
<!-- Insert Fine Notification&#45;&gt;Receive Result Appeal from Prefecture -->
<g id="edge30" class="edge">
<title>Insert Fine Notification&#45;&gt;Receive Result Appeal from Prefecture</title>
<path fill="none" stroke="#ff0000" stroke-width="0.5" stroke-dasharray="5,2" d="M562.27,-616.5C592.34,-603.39 623,-581.95 623,-549 623,-549 623,-549 623,-416.5 623,-394.87 575.49,-270.52 574,-269 552.32,-246.94 522.8,-231.96 493.89,-221.81"/>
<polygon fill="#ff0000" stroke="#ff0000" stroke-width="0.5" points="495.01,-218.49 484.42,-218.65 492.8,-225.13 495.01,-218.49"/>
<text text-anchor="middle" x="626.5" y="-413.8" font-family="Times,serif" font-size="14.00">1</text>
</g>
<!-- Insert Date Appeal to Prefecture&#45;&gt;Send Fine -->
<g id="edge27" class="edge">
<title>Insert Date Appeal to Prefecture&#45;&gt;Send Fine</title>
<path fill="none" stroke="#ff0000" stroke-width="0.5" stroke-dasharray="5,2" d="M329.11,-566.19C332.47,-587.98 340.62,-625.98 359,-653 371.02,-670.67 389,-685.99 405.33,-697.6"/>
<polygon fill="#ff0000" stroke="#ff0000" stroke-width="0.5" points="403.33,-700.47 413.56,-703.23 407.29,-694.69 403.33,-700.47"/>
<text text-anchor="middle" x="362.5" y="-631.3" font-family="Times,serif" font-size="14.00">1</text>
</g>
<!-- Insert Date Appeal to Prefecture&#45;&gt;Insert Fine Notification -->
<g id="edge17" class="edge">
<title>Insert Date Appeal to Prefecture&#45;&gt;Insert Fine Notification</title>
<path fill="none" stroke="#ff0000" stroke-width="0.54" stroke-dasharray="5,2" d="M357.47,-566.33C367.25,-571.93 378.1,-578.19 388,-584 399.18,-590.56 401.34,-593.34 413,-599 422.9,-603.81 433.65,-608.41 444.18,-612.61"/>
<polygon fill="#ff0000" stroke="#ff0000" stroke-width="0.54" points="442.83,-615.84 453.42,-616.21 445.37,-609.32 442.83,-615.84"/>
<text text-anchor="middle" x="416.5" y="-587.8" font-family="Times,serif" font-size="14.00">3</text>
</g>
<!-- Insert Date Appeal to Prefecture&#45;&gt;Add penalty -->
<g id="edge5" class="edge">
<title>Insert Date Appeal to Prefecture&#45;&gt;Add penalty</title>
<path fill="none" stroke="#000000" stroke-width="3.54" d="M296.81,-529.5C288.75,-524.29 280.27,-518.28 273,-512 247.83,-490.25 232.27,-474.13 244,-443 251.09,-424.18 266.82,-410.05 283.94,-399.69"/>
<polygon fill="#000000" stroke="#000000" stroke-width="3.54" points="285.37,-402.89 292.48,-395.04 282.03,-396.74 285.37,-402.89"/>
<text text-anchor="middle" x="254.5" y="-457.3" font-family="Times,serif" font-size="14.00">144</text>
</g>
<!-- Insert Date Appeal to Prefecture&#45;&gt;Send Appeal to Prefecture -->
<g id="edge9" class="edge">
<title>Insert Date Appeal to Prefecture&#45;&gt;Send Appeal to Prefecture</title>
<path fill="none" stroke="#000000" stroke-width="2.86" d="M378.37,-529.58C402.41,-518.78 429.18,-502.41 445,-479 477.54,-430.86 476.95,-360.02 473.22,-319.51"/>
<polygon fill="#000000" stroke="#000000" stroke-width="2.86" points="476.71,-319.2 472.14,-309.64 469.75,-319.96 476.71,-319.2"/>
<text text-anchor="middle" x="480.5" y="-413.8" font-family="Times,serif" font-size="14.00">112</text>
</g>
<!-- Insert Date Appeal to Prefecture&#45;&gt;Payment -->
<g id="edge32" class="edge">
<title>Insert Date Appeal to Prefecture&#45;&gt;Payment</title>
<path fill="none" stroke="#ff0000" stroke-width="0.5" stroke-dasharray="5,2" d="M334.69,-529.8C339.91,-518.12 346.92,-502.45 352.88,-489.11"/>
<polygon fill="#ff0000" stroke="#ff0000" stroke-width="0.5" points="356,-490.72 356.88,-480.16 349.61,-487.86 356,-490.72"/>
<text text-anchor="middle" x="351.5" y="-500.8" font-family="Times,serif" font-size="14.00">1</text>
</g>
<!-- Add penalty&#45;&gt;Insert Date Appeal to Prefecture -->
<g id="edge8" class="edge">
<title>Add penalty&#45;&gt;Insert Date Appeal to Prefecture</title>
<path fill="none" stroke="#000000" stroke-width="1.8" d="M329.49,-392.37C317.39,-405.07 302.62,-423.43 296,-443 287.43,-468.33 297.89,-497.54 308.91,-518.54"/>
<polygon fill="#000000" stroke="#000000" stroke-width="1.8" points="305.85,-520.23 313.82,-527.21 311.94,-516.79 305.85,-520.23"/>
<text text-anchor="middle" x="303" y="-457.3" font-family="Times,serif" font-size="14.00">62</text>
</g>
<!-- Add penalty&#45;&gt;Send Appeal to Prefecture -->
<g id="edge6" class="edge">
<title>Add penalty&#45;&gt;Send Appeal to Prefecture</title>
<path fill="none" stroke="#000000" stroke-width="3.54" d="M360.34,-355.57C368.42,-345.1 379.74,-332.09 392,-323 397.32,-319.06 403.15,-315.42 409.16,-312.1"/>
<polygon fill="#000000" stroke="#000000" stroke-width="3.54" points="410.34,-315.42 417.66,-307.77 407.16,-309.18 410.34,-315.42"/>
<text text-anchor="middle" x="402.5" y="-326.8" font-family="Times,serif" font-size="14.00">144</text>
</g>
<!-- Add penalty&#45;&gt;Payment -->
<g id="edge12" class="edge">
<title>Add penalty&#45;&gt;Payment</title>
<path fill="none" stroke="#000000" stroke-width="0.95" d="M351.49,-392.47C353.75,-403.74 356.73,-418.67 359.32,-431.62"/>
<polygon fill="#000000" stroke="#000000" stroke-width="0.95" points="355.89,-432.28 361.28,-441.4 362.75,-430.9 355.89,-432.28"/>
<text text-anchor="middle" x="364" y="-413.8" font-family="Times,serif" font-size="14.00">22</text>
</g>
<!-- Add penalty&#45;&gt;Receive Result Appeal from Prefecture -->
<g id="edge23" class="edge">
<title>Add penalty&#45;&gt;Receive Result Appeal from Prefecture</title>
<path fill="none" stroke="#ff0000" stroke-width="0.56" stroke-dasharray="5,2" d="M347.42,-355.68C347.18,-334.72 348.29,-298.55 357,-269 361.26,-254.54 368.76,-239.62 375.81,-227.45"/>
<polygon fill="#ff0000" stroke="#ff0000" stroke-width="0.56" points="378.7,-229.44 380.87,-219.07 372.7,-225.83 378.7,-229.44"/>
<text text-anchor="middle" x="360.5" y="-283.3" font-family="Times,serif" font-size="14.00">4</text>
</g>
<!-- Notify Result Appeal to Offender -->
<g id="node11" class="node">
<title>Notify Result Appeal to Offender</title>
<polygon fill="#fefeff" stroke="black" points="246,-218 28,-218 28,-182 246,-182 246,-218"/>
<text text-anchor="middle" x="137" y="-196.3" font-family="Times,serif" font-size="14.00">Notify Result Appeal to Offender (5)</text>
</g>
<!-- Add penalty&#45;&gt;Notify Result Appeal to Offender -->
<g id="edge21" class="edge">
<title>Add penalty&#45;&gt;Notify Result Appeal to Offender</title>
<path fill="none" stroke="#ff0000" stroke-width="0.58" stroke-dasharray="5,2" d="M326.61,-355.56C288.77,-324.72 209.98,-260.49 166.84,-225.32"/>
<polygon fill="#ff0000" stroke="#ff0000" stroke-width="0.58" points="169.1,-222.65 159.14,-219.04 164.68,-228.08 169.1,-222.65"/>
<text text-anchor="middle" x="267.5" y="-283.3" font-family="Times,serif" font-size="14.00">5</text>
</g>
<!-- Send Appeal to Prefecture&#45;&gt;Add penalty -->
<g id="edge11" class="edge">
<title>Send Appeal to Prefecture&#45;&gt;Add penalty</title>
<path fill="none" stroke="#000000" stroke-width="1.01" d="M451.74,-305.35C441.1,-315.53 426.87,-328.27 413,-338 406.94,-342.25 400.3,-346.37 393.65,-350.19"/>
<polygon fill="#000000" stroke="#000000" stroke-width="1.01" points="392.36,-346.91 385.32,-354.82 395.76,-353.02 392.36,-346.91"/>
<text text-anchor="middle" x="437" y="-326.8" font-family="Times,serif" font-size="14.00">25</text>
</g>
<!-- Send Appeal to Prefecture&#45;&gt;Payment -->
<g id="edge25" class="edge">
<title>Send Appeal to Prefecture&#45;&gt;Payment</title>
<path fill="none" stroke="#ff0000" stroke-width="0.52" stroke-dasharray="5,2" d="M462.44,-305.42C458.58,-315.16 453.41,-327.44 448,-338 429.99,-373.18 403.54,-410.27 385.37,-434.19"/>
<polygon fill="#ff0000" stroke="#ff0000" stroke-width="0.52" points="382.64,-431.99 379.32,-442.05 388.19,-436.26 382.64,-431.99"/>
<text text-anchor="middle" x="440.5" y="-370.3" font-family="Times,serif" font-size="14.00">2</text>
</g>
<!-- Send Appeal to Prefecture&#45;&gt;Appeal to Judge -->
<g id="edge16" class="edge">
<title>Send Appeal to Prefecture&#45;&gt;Appeal to Judge</title>
<path fill="none" stroke="#ff0000" stroke-width="0.52" stroke-dasharray="5,2" d="M538.1,-268.68C547.61,-264.09 556.63,-258.3 564,-251 594.11,-221.19 607.05,-172.18 612.42,-141.57"/>
<polygon fill="#ff0000" stroke="#ff0000" stroke-width="0.52" points="615.83,-142.4 613.95,-131.98 608.92,-141.3 615.83,-142.4"/>
<text text-anchor="middle" x="605.5" y="-196.3" font-family="Times,serif" font-size="14.00">2</text>
</g>
<!-- Send Appeal to Prefecture&#45;&gt;Receive Result Appeal from Prefecture -->
<g id="edge19" class="edge">
<title>Send Appeal to Prefecture&#45;&gt;Receive Result Appeal from Prefecture</title>
<path fill="none" stroke="#ff0000" stroke-width="0.61" stroke-dasharray="5,2" d="M447.4,-268.69C441.19,-263.29 434.59,-257.14 429,-251 422.38,-243.72 415.87,-235.21 410.24,-227.31"/>
<polygon fill="#ff0000" stroke="#ff0000" stroke-width="0.61" points="413.18,-225.4 404.61,-219.16 407.42,-229.37 413.18,-225.4"/>
<text text-anchor="middle" x="432.5" y="-239.8" font-family="Times,serif" font-size="14.00">6</text>
</g>
<!-- end_node -->
<g id="node13" class="node">
<title>end_node</title>
<ellipse fill="none" stroke="black" cx="393" cy="-22" rx="18" ry="18"/>
<ellipse fill="none" stroke="black" cx="393" cy="-22" rx="22" ry="22"/>
<text text-anchor="start" x="388.5" y="-18.3" font-family="Times,serif" font-size="14.00">■</text>
</g>
<!-- Send Appeal to Prefecture&#45;&gt;end_node -->
<g id="edge38" class="edge">
<title>Send Appeal to Prefecture&#45;&gt;end_node</title>
<path fill="none" stroke="#000000" stroke-width="5.28" d="M492.03,-268.52C516.1,-248.01 548.17,-212.86 531,-182 523.63,-168.74 513.26,-174.16 502,-164 465.68,-131.22 432.64,-85.14 412.69,-54.7"/>
<polygon fill="#000000" stroke="#000000" stroke-width="5.28" points="416.67,-52.36 407.38,-46.43 408.9,-57.34 416.67,-52.36"/>
<text text-anchor="middle" x="512.5" y="-152.8" font-family="Times,serif" font-size="14.00">226</text>
</g>
<!-- Payment&#45;&gt;Add penalty -->
<g id="edge33" class="edge">
<title>Payment&#45;&gt;Add penalty</title>
<path fill="none" stroke="#ff0000" stroke-width="0.52" stroke-dasharray="5,2" d="M352.11,-442.69C348.8,-437.3 345.7,-431.15 344,-425 342.06,-417.98 341.81,-410.2 342.36,-402.92"/>
<polygon fill="#ff0000" stroke="#ff0000" stroke-width="0.52" points="345.81,-403.55 343.59,-393.19 338.86,-402.67 345.81,-403.55"/>
<text text-anchor="middle" x="347.5" y="-413.8" font-family="Times,serif" font-size="14.00">2</text>
</g>
<!-- Payment&#45;&gt;Payment -->
<g id="edge15" class="edge">
<title>Payment&#45;&gt;Payment</title>
<path fill="none" stroke="#ff0000" stroke-width="0.54" stroke-dasharray="5,2" d="M410.95,-468.94C421.1,-468.19 428.5,-465.55 428.5,-461 428.5,-458.23 425.75,-456.17 421.31,-454.81"/>
<polygon fill="#ff0000" stroke="#ff0000" stroke-width="0.54" points="422.2,-451.41 411.76,-453.2 421.04,-458.31 422.2,-451.41"/>
<text text-anchor="middle" x="432" y="-457.3" font-family="Times,serif" font-size="14.00">3</text>
</g>
<!-- Payment&#45;&gt;end_node -->
<g id="edge39" class="edge">
<title>Payment&#45;&gt;end_node</title>
<path fill="none" stroke="#000000" stroke-width="0.99" d="M319.14,-443.73C221.11,-407.55 0,-317.81 0,-244.5 0,-244.5 0,-244.5 0,-112 0,-38.54 264.5,-25.71 359.52,-23.47"/>
<polygon fill="#000000" stroke="#000000" stroke-width="0.99" points="359.32,-26.98 369.25,-23.27 359.18,-19.98 359.32,-26.98"/>
<text text-anchor="middle" x="8" y="-239.8" font-family="Times,serif" font-size="14.00">24</text>
</g>
<!-- Appeal to Judge&#45;&gt;Insert Date Appeal to Prefecture -->
<g id="edge14" class="edge">
<title>Appeal to Judge&#45;&gt;Insert Date Appeal to Prefecture</title>
<path fill="none" stroke="#ff0000" stroke-width="0.56" stroke-dasharray="5,2" d="M626.28,-131.23C629.02,-136.72 631.61,-142.94 633,-149 639.87,-178.89 636.35,-187.64 632,-218 611.65,-359.96 612.57,-424.43 499,-512 493.47,-516.27 469.81,-521.97 441.73,-527.53"/>
<polygon fill="#ff0000" stroke="#ff0000" stroke-width="0.56" points="441.2,-524.07 432.05,-529.41 442.54,-530.94 441.2,-524.07"/>
<text text-anchor="middle" x="619.5" y="-326.8" font-family="Times,serif" font-size="14.00">4</text>
</g>
<!-- Appeal to Judge&#45;&gt;Add penalty -->
<g id="edge37" class="edge">
<title>Appeal to Judge&#45;&gt;Add penalty</title>
<path fill="none" stroke="#ff0000" stroke-width="0.5" stroke-dasharray="5,2" d="M618.2,-131.27C621.97,-169.27 624.89,-260.3 574,-305 567.83,-310.42 480.65,-335.75 416.41,-353.91"/>
<polygon fill="#ff0000" stroke="#ff0000" stroke-width="0.5" points="415.71,-350.47 407.04,-356.55 417.61,-357.2 415.71,-350.47"/>
<text text-anchor="middle" x="615.5" y="-239.8" font-family="Times,serif" font-size="14.00">1</text>
</g>
<!-- Appeal to Judge&#45;&gt;end_node -->
<g id="edge40" class="edge">
<title>Appeal to Judge&#45;&gt;end_node</title>
<path fill="none" stroke="#ff0000" stroke-width="0.58" stroke-dasharray="5,2" d="M585.64,-94.6C566.84,-84.26 541.97,-71.39 519,-62 487.66,-49.19 450.48,-38.16 424.67,-31.14"/>
<polygon fill="#ff0000" stroke="#ff0000" stroke-width="0.58" points="425.77,-27.81 415.21,-28.61 423.97,-34.57 425.77,-27.81"/>
<text text-anchor="middle" x="554.5" y="-65.8" font-family="Times,serif" font-size="14.00">5</text>
</g>
<!-- Receive Result Appeal from Prefecture&#45;&gt;Insert Date Appeal to Prefecture -->
<g id="edge31" class="edge">
<title>Receive Result Appeal from Prefecture&#45;&gt;Insert Date Appeal to Prefecture</title>
<path fill="none" stroke="#ff0000" stroke-width="0.5" stroke-dasharray="5,2" d="M272.81,-218.46C169.82,-235.13 38,-261.28 38,-286 38,-462 38,-462 38,-462 38,-498.73 124.98,-520.74 203.51,-533.13"/>
<polygon fill="#ff0000" stroke="#ff0000" stroke-width="0.5" points="202.86,-536.57 213.28,-534.62 203.92,-529.65 202.86,-536.57"/>
<text text-anchor="middle" x="41.5" y="-370.3" font-family="Times,serif" font-size="14.00">1</text>
</g>
<!-- Receive Result Appeal from Prefecture&#45;&gt;Add penalty -->
<g id="edge20" class="edge">
<title>Receive Result Appeal from Prefecture&#45;&gt;Add penalty</title>
<path fill="none" stroke="#ff0000" stroke-width="0.58" stroke-dasharray="5,2" d="M355.78,-218.39C347.9,-223.29 340.12,-229.17 334,-236 323.24,-247.99 322.41,-253.25 319,-269 315.61,-284.64 315.8,-289.32 319,-305 321.89,-319.15 327.84,-333.99 333.6,-346.19"/>
<polygon fill="#ff0000" stroke="#ff0000" stroke-width="0.58" points="330.36,-347.54 337.94,-354.95 336.64,-344.43 330.36,-347.54"/>
<text text-anchor="middle" x="322.5" y="-283.3" font-family="Times,serif" font-size="14.00">5</text>
</g>
<!-- Receive Result Appeal from Prefecture&#45;&gt;Send Appeal to Prefecture -->
<g id="edge35" class="edge">
<title>Receive Result Appeal from Prefecture&#45;&gt;Send Appeal to Prefecture</title>
<path fill="none" stroke="#ff0000" stroke-width="0.5" stroke-dasharray="5,2" d="M416.91,-218.32C423.46,-223.62 430.32,-229.72 436,-236 442.52,-243.21 448.68,-251.81 453.87,-259.84"/>
<polygon fill="#ff0000" stroke="#ff0000" stroke-width="0.5" points="450.83,-261.58 459.08,-268.23 456.78,-257.89 450.83,-261.58"/>
<text text-anchor="middle" x="450.5" y="-239.8" font-family="Times,serif" font-size="14.00">1</text>
</g>
<!-- Receive Result Appeal from Prefecture&#45;&gt;Appeal to Judge -->
<g id="edge36" class="edge">
<title>Receive Result Appeal from Prefecture&#45;&gt;Appeal to Judge</title>
<path fill="none" stroke="#ff0000" stroke-width="0.5" stroke-dasharray="5,2" d="M509.66,-181.58C526,-177.01 542.24,-171.25 557,-164 569.93,-157.65 582.39,-147.83 592.5,-138.58"/>
<polygon fill="#ff0000" stroke="#ff0000" stroke-width="0.5" points="594.7,-141.31 599.52,-131.87 589.87,-136.25 594.7,-141.31"/>
<text text-anchor="middle" x="583.5" y="-152.8" font-family="Times,serif" font-size="14.00">1</text>
</g>
<!-- Receive Result Appeal from Prefecture&#45;&gt;end_node -->
<g id="edge41" class="edge">
<title>Receive Result Appeal from Prefecture&#45;&gt;end_node</title>
<path fill="none" stroke="#ff0000" stroke-width="0.54" stroke-dasharray="5,2" d="M393,-181.8C393,-152.49 393,-92.39 393,-55.12"/>
<polygon fill="#ff0000" stroke="#ff0000" stroke-width="0.54" points="396.5,-55.16 393,-45.16 389.5,-55.16 396.5,-55.16"/>
<text text-anchor="middle" x="396.5" y="-109.3" font-family="Times,serif" font-size="14.00">3</text>
</g>
<!-- Notify Result Appeal to Offender&#45;&gt;Appeal to Judge -->
<g id="edge22" class="edge">
<title>Notify Result Appeal to Offender&#45;&gt;Appeal to Judge</title>
<path fill="none" stroke="#ff0000" stroke-width="0.52" stroke-dasharray="5,2" d="M246.25,-182.96C249.2,-182.62 252.12,-182.3 255,-182 315.25,-175.68 469.19,-182.09 527,-164 539.37,-160.13 540.76,-155.44 552,-149 559.18,-144.88 566.87,-140.58 574.34,-136.47"/>
<polygon fill="#ff0000" stroke="#ff0000" stroke-width="0.52" points="575.85,-139.63 582.94,-131.76 572.49,-133.49 575.85,-139.63"/>
<text text-anchor="middle" x="555.5" y="-152.8" font-family="Times,serif" font-size="14.00">2</text>
</g>
<!-- Send for Credit Collection -->
<g id="node12" class="node">
<title>Send for Credit Collection</title>
<polygon fill="#ffffff" stroke="black" points="292,-131 112,-131 112,-95 292,-95 292,-131"/>
<text text-anchor="middle" x="202" y="-109.3" font-family="Times,serif" font-size="14.00">Send for Credit Collection (3)</text>
</g>
<!-- Notify Result Appeal to Offender&#45;&gt;Send for Credit Collection -->
<g id="edge24" class="edge">
<title>Notify Result Appeal to Offender&#45;&gt;Send for Credit Collection</title>
<path fill="none" stroke="#ff0000" stroke-width="0.54" stroke-dasharray="5,2" d="M150.15,-181.8C159.34,-169.78 171.78,-153.52 182.17,-139.94"/>
<polygon fill="#ff0000" stroke="#ff0000" stroke-width="0.54" points="184.85,-142.19 188.14,-132.12 179.29,-137.94 184.85,-142.19"/>
<text text-anchor="middle" x="177.5" y="-152.8" font-family="Times,serif" font-size="14.00">3</text>
</g>
<!-- Send for Credit Collection&#45;&gt;end_node -->
<g id="edge42" class="edge">
<title>Send for Credit Collection&#45;&gt;end_node</title>
<path fill="none" stroke="#ff0000" stroke-width="0.54" stroke-dasharray="5,2" d="M239.28,-94.63C275.58,-77.71 330.04,-52.34 363.45,-36.77"/>
<polygon fill="#ff0000" stroke="#ff0000" stroke-width="0.54" points="364.77,-40.02 372.36,-32.62 361.81,-33.67 364.77,-40.02"/>
<text text-anchor="middle" x="312.5" y="-65.8" font-family="Times,serif" font-size="14.00">3</text>
</g>
</g>
</svg>
