<?xml version="1.0" encoding="UTF-8" standalone="no"?>
<!DOCTYPE svg PUBLIC "-//W3C//DTD SVG 1.1//EN"
 "http://www.w3.org/Graphics/SVG/1.1/DTD/svg11.dtd">
<!-- Generated by graphviz version 7.0.5 (0)
 -->
<!-- Title: dfg Pages: 1 -->
<svg width="378pt" height="922pt"
 viewBox="0.00 0.00 378.00 922.00" xmlns="http://www.w3.org/2000/svg" xmlns:xlink="http://www.w3.org/1999/xlink">
<g id="graph0" class="graph" transform="scale(1 1) rotate(0) translate(4 918)">
<title>dfg</title>
<polygon fill="white" stroke="none" points="-4,4 -4,-918 374,-918 374,4 -4,4"/>
<!-- start_node -->
<g id="node1" class="node">
<title>start_node</title>
<ellipse fill="none" stroke="black" cx="248.5" cy="-896" rx="18" ry="18"/>
<text text-anchor="start" x="244" y="-892.3" font-family="Times,serif" font-size="14.00">●</text>
</g>
<!-- Create Fine -->
<g id="node2" class="node">
<title>Create Fine</title>
<polygon fill="#ffffff" stroke="black" points="301.5,-827 195.5,-827 195.5,-791 301.5,-791 301.5,-827"/>
<text text-anchor="middle" x="248.5" y="-805.3" font-family="Times,serif" font-size="14.00">Create Fine (73)</text>
</g>
<!-- start_node&#45;&gt;Create Fine -->
<g id="edge1" class="edge">
<title>start_node&#45;&gt;Create Fine</title>
<path fill="none" stroke="#000000" stroke-width="6" d="M248.5,-877.8C248.5,-867.96 248.5,-855.27 248.5,-843.53"/>
<polygon fill="#000000" stroke="#000000" stroke-width="6" points="253.75,-843.92 248.5,-833.92 243.25,-843.92 253.75,-843.92"/>
<text text-anchor="middle" x="255.5" y="-848.8" font-family="Times,serif" font-size="14.00">73</text>
</g>
<!-- Send Fine -->
<g id="node3" class="node">
<title>Send Fine</title>
<polygon fill="#ffffff" stroke="black" points="297.5,-740 199.5,-740 199.5,-704 297.5,-704 297.5,-740"/>
<text text-anchor="middle" x="248.5" y="-718.3" font-family="Times,serif" font-size="14.00">Send Fine (73)</text>
</g>
<!-- Create Fine&#45;&gt;Send Fine -->
<g id="edge2" class="edge">
<title>Create Fine&#45;&gt;Send Fine</title>
<path fill="none" stroke="#000000" stroke-width="6" d="M248.5,-790.8C248.5,-780.96 248.5,-768.27 248.5,-756.53"/>
<polygon fill="#000000" stroke="#000000" stroke-width="6" points="253.75,-756.92 248.5,-746.92 243.25,-756.92 253.75,-756.92"/>
<text text-anchor="middle" x="255.5" y="-761.8" font-family="Times,serif" font-size="14.00">73</text>
</g>
<!-- Insert Fine Notification -->
<g id="node4" class="node">
<title>Insert Fine Notification</title>
<polygon fill="#ffffff" stroke="black" points="333.5,-653 163.5,-653 163.5,-617 333.5,-617 333.5,-653"/>
<text text-anchor="middle" x="248.5" y="-631.3" font-family="Times,serif" font-size="14.00">Insert Fine Notification (73)</text>
</g>
<!-- Send Fine&#45;&gt;Insert Fine Notification -->
<g id="edge3" class="edge">
<title>Send Fine&#45;&gt;Insert Fine Notification</title>
<path fill="none" stroke="#000000" stroke-width="6" d="M248.5,-703.8C248.5,-693.96 248.5,-681.27 248.5,-669.53"/>
<polygon fill="#000000" stroke="#000000" stroke-width="6" points="253.75,-669.92 248.5,-659.92 243.25,-669.92 253.75,-669.92"/>
<text text-anchor="middle" x="255.5" y="-674.8" font-family="Times,serif" font-size="14.00">73</text>
</g>
<!-- Insert Date Appeal to Prefecture -->
<g id="node5" class="node">
<title>Insert Date Appeal to Prefecture</title>
<polygon fill="#ffffff" stroke="black" points="357.5,-566 139.5,-566 139.5,-530 357.5,-530 357.5,-566"/>
<text text-anchor="middle" x="248.5" y="-544.3" font-family="Times,serif" font-size="14.00">Insert Date Appeal to Prefecture (73)</text>
</g>
<!-- Insert Fine Notification&#45;&gt;Insert Date Appeal to Prefecture -->
<g id="edge4" class="edge">
<title>Insert Fine Notification&#45;&gt;Insert Date Appeal to Prefecture</title>
<path fill="none" stroke="#000000" stroke-width="6" d="M248.5,-616.8C248.5,-606.96 248.5,-594.27 248.5,-582.53"/>
<polygon fill="#000000" stroke="#000000" stroke-width="6" points="253.75,-582.92 248.5,-572.92 243.25,-582.92 253.75,-582.92"/>
<text text-anchor="middle" x="255.5" y="-587.8" font-family="Times,serif" font-size="14.00">73</text>
</g>
<!-- Add penalty -->
<g id="node6" class="node">
<title>Add penalty</title>
<polygon fill="#ffffff" stroke="black" points="258.5,-479 148.5,-479 148.5,-443 258.5,-443 258.5,-479"/>
<text text-anchor="middle" x="203.5" y="-457.3" font-family="Times,serif" font-size="14.00">Add penalty (73)</text>
</g>
<!-- Insert Date Appeal to Prefecture&#45;&gt;Add penalty -->
<g id="edge5" class="edge">
<title>Insert Date Appeal to Prefecture&#45;&gt;Add penalty</title>
<path fill="none" stroke="#000000" stroke-width="3.37" d="M239.39,-529.8C233.76,-519.15 226.36,-505.18 219.75,-492.69"/>
<polygon fill="#000000" stroke="#000000" stroke-width="3.37" points="222.91,-491.17 215.13,-483.97 216.72,-494.45 222.91,-491.17"/>
<text text-anchor="middle" x="235.5" y="-500.8" font-family="Times,serif" font-size="14.00">40</text>
</g>
<!-- Send Appeal to Prefecture -->
<g id="node7" class="node">
<title>Send Appeal to Prefecture</title>
<polygon fill="#ffffff" stroke="black" points="370,-392 185,-392 185,-356 370,-356 370,-392"/>
<text text-anchor="middle" x="277.5" y="-370.3" font-family="Times,serif" font-size="14.00">Send Appeal to Prefecture (73)</text>
</g>
<!-- Insert Date Appeal to Prefecture&#45;&gt;Send Appeal to Prefecture -->
<g id="edge10" class="edge">
<title>Insert Date Appeal to Prefecture&#45;&gt;Send Appeal to Prefecture</title>
<path fill="none" stroke="#000000" stroke-width="2.81" d="M254.28,-529.59C258.58,-515.97 264.25,-496.47 267.5,-479 272,-454.87 274.53,-427.19 275.93,-406.45"/>
<polygon fill="#000000" stroke="#000000" stroke-width="2.81" points="279.41,-406.87 276.51,-396.68 272.42,-406.45 279.41,-406.87"/>
<text text-anchor="middle" x="279.5" y="-457.3" font-family="Times,serif" font-size="14.00">33</text>
</g>
<!-- Add penalty&#45;&gt;Send Appeal to Prefecture -->
<g id="edge6" class="edge">
<title>Add penalty&#45;&gt;Send Appeal to Prefecture</title>
<path fill="none" stroke="#000000" stroke-width="3.05" d="M218.48,-442.8C228.34,-431.47 241.49,-416.36 252.87,-403.29"/>
<polygon fill="#000000" stroke="#000000" stroke-width="3.05" points="255.33,-405.79 259.26,-395.95 250.06,-401.19 255.33,-405.79"/>
<text text-anchor="middle" x="251.5" y="-413.8" font-family="Times,serif" font-size="14.00">36</text>
</g>
<!-- Receive Result Appeal from Prefecture -->
<g id="node8" class="node">
<title>Receive Result Appeal from Prefecture</title>
<polygon fill="#ffffff" stroke="black" points="257,-305 0,-305 0,-269 257,-269 257,-305"/>
<text text-anchor="middle" x="128.5" y="-283.3" font-family="Times,serif" font-size="14.00">Receive Result Appeal from Prefecture (73)</text>
</g>
<!-- Add penalty&#45;&gt;Receive Result Appeal from Prefecture -->
<g id="edge12" class="edge">
<title>Add penalty&#45;&gt;Receive Result Appeal from Prefecture</title>
<path fill="none" stroke="#000000" stroke-width="3.13" d="M191.2,-442.77C182.08,-429.41 169.83,-410.16 161.5,-392 150.74,-368.56 142.1,-340.64 136.35,-319.64"/>
<polygon fill="#000000" stroke="#000000" stroke-width="3.13" points="139.75,-318.78 133.83,-310 132.98,-320.56 139.75,-318.78"/>
<text text-anchor="middle" x="168.5" y="-370.3" font-family="Times,serif" font-size="14.00">37</text>
</g>
<!-- Send Appeal to Prefecture&#45;&gt;Add penalty -->
<g id="edge11" class="edge">
<title>Send Appeal to Prefecture&#45;&gt;Add penalty</title>
<path fill="none" stroke="#000000" stroke-width="2.81" d="M237.61,-392.41C230.07,-397.19 222.88,-403.03 217.5,-410 213.24,-415.52 210.27,-422.26 208.21,-428.99"/>
<polygon fill="#000000" stroke="#000000" stroke-width="2.81" points="204.82,-428.12 206,-438.65 211.64,-429.68 204.82,-428.12"/>
<text text-anchor="middle" x="224.5" y="-413.8" font-family="Times,serif" font-size="14.00">33</text>
</g>
<!-- Send Appeal to Prefecture&#45;&gt;Receive Result Appeal from Prefecture -->
<g id="edge7" class="edge">
<title>Send Appeal to Prefecture&#45;&gt;Receive Result Appeal from Prefecture</title>
<path fill="none" stroke="#000000" stroke-width="3.05" d="M246.99,-355.59C225.19,-343.16 195.57,-326.26 171.4,-312.47"/>
<polygon fill="#000000" stroke="#000000" stroke-width="3.05" points="173.4,-309.59 162.98,-307.67 169.93,-315.67 173.4,-309.59"/>
<text text-anchor="middle" x="218.5" y="-326.8" font-family="Times,serif" font-size="14.00">36</text>
</g>
<!-- end_node -->
<g id="node11" class="node">
<title>end_node</title>
<ellipse fill="none" stroke="black" cx="270.5" cy="-22" rx="18" ry="18"/>
<ellipse fill="none" stroke="black" cx="270.5" cy="-22" rx="22" ry="22"/>
<text text-anchor="start" x="266" y="-18.3" font-family="Times,serif" font-size="14.00">■</text>
</g>
<!-- Send Appeal to Prefecture&#45;&gt;end_node -->
<g id="edge15" class="edge">
<title>Send Appeal to Prefecture&#45;&gt;end_node</title>
<path fill="none" stroke="#ff0000" stroke-width="0.5" stroke-dasharray="5,2" d="M296.69,-355.78C312.21,-339.89 331.5,-314.75 331.5,-288 331.5,-288 331.5,-288 331.5,-112 331.5,-84.87 311.98,-59.95 295.02,-43.43"/>
<polygon fill="#ff0000" stroke="#ff0000" stroke-width="0.5" points="297.76,-41.19 288.05,-36.96 293,-46.33 297.76,-41.19"/>
<text text-anchor="middle" x="335" y="-196.3" font-family="Times,serif" font-size="14.00">4</text>
</g>
<!-- Notify Result Appeal to Offender -->
<g id="node9" class="node">
<title>Notify Result Appeal to Offender</title>
<polygon fill="#ffffff" stroke="black" points="253,-218 28,-218 28,-182 253,-182 253,-218"/>
<text text-anchor="middle" x="140.5" y="-196.3" font-family="Times,serif" font-size="14.00">Notify Result Appeal to Offender (73)</text>
</g>
<!-- Receive Result Appeal from Prefecture&#45;&gt;Notify Result Appeal to Offender -->
<g id="edge8" class="edge">
<title>Receive Result Appeal from Prefecture&#45;&gt;Notify Result Appeal to Offender</title>
<path fill="none" stroke="#000000" stroke-width="6" d="M130.93,-268.8C132.32,-258.96 134.11,-246.27 135.77,-234.53"/>
<polygon fill="#000000" stroke="#000000" stroke-width="6" points="140.93,-235.49 137.13,-224.86 130.54,-234.03 140.93,-235.49"/>
<text text-anchor="middle" x="142.5" y="-239.8" font-family="Times,serif" font-size="14.00">73</text>
</g>
<!-- Send for Credit Collection -->
<g id="node10" class="node">
<title>Send for Credit Collection</title>
<polygon fill="#ffffff" stroke="black" points="303,-131 116,-131 116,-95 303,-95 303,-131"/>
<text text-anchor="middle" x="209.5" y="-109.3" font-family="Times,serif" font-size="14.00">Send for Credit Collection (73)</text>
</g>
<!-- Notify Result Appeal to Offender&#45;&gt;Send for Credit Collection -->
<g id="edge9" class="edge">
<title>Notify Result Appeal to Offender&#45;&gt;Send for Credit Collection</title>
<path fill="none" stroke="#000000" stroke-width="6" d="M154.46,-181.8C163.29,-170.93 174.94,-156.58 185.24,-143.88"/>
<polygon fill="#000000" stroke="#000000" stroke-width="6" points="189.03,-147.55 191.25,-136.48 180.87,-140.93 189.03,-147.55"/>
<text text-anchor="middle" x="186.5" y="-152.8" font-family="Times,serif" font-size="14.00">73</text>
</g>
<!-- Send for Credit Collection&#45;&gt;Send Appeal to Prefecture -->
<g id="edge13" class="edge">
<title>Send for Credit Collection&#45;&gt;Send Appeal to Prefecture</title>
<path fill="none" stroke="#ff0000" stroke-width="0.5" stroke-dasharray="5,2" d="M227.88,-131.47C239.99,-144.22 254.97,-162.6 262.5,-182 283.8,-236.89 282.82,-307.2 280.18,-345.36"/>
<polygon fill="#ff0000" stroke="#ff0000" stroke-width="0.5" points="276.72,-344.67 279.43,-354.91 283.7,-345.22 276.72,-344.67"/>
<text text-anchor="middle" x="281" y="-239.8" font-family="Times,serif" font-size="14.00">4</text>
</g>
<!-- Send for Credit Collection&#45;&gt;end_node -->
<g id="edge14" class="edge">
<title>Send for Credit Collection&#45;&gt;end_node</title>
<path fill="none" stroke="#000000" stroke-width="5.68" d="M221.26,-94.84C229.18,-83.29 239.84,-67.74 249.22,-54.05"/>
<polygon fill="#000000" stroke="#000000" stroke-width="5.68" points="253.2,-57.04 254.75,-45.98 245,-51.42 253.2,-57.04"/>
<text text-anchor="middle" x="250.5" y="-65.8" font-family="Times,serif" font-size="14.00">69</text>
</g>
</g>
</svg>
