<?xml version="1.0" encoding="UTF-8" standalone="no"?>
<!DOCTYPE svg PUBLIC "-//W3C//DTD SVG 1.1//EN"
 "http://www.w3.org/Graphics/SVG/1.1/DTD/svg11.dtd">
<!-- Generated by graphviz version 7.0.5 (0)
 -->
<!-- Title: dfg Pages: 1 -->
<svg width="291pt" height="595pt"
 viewBox="0.00 0.00 291.00 595.00" xmlns="http://www.w3.org/2000/svg" xmlns:xlink="http://www.w3.org/1999/xlink">
<g id="graph0" class="graph" transform="scale(1 1) rotate(0) translate(4 591)">
<title>dfg</title>
<polygon fill="white" stroke="none" points="-4,4 -4,-591 287,-591 287,4 -4,4"/>
<!-- start_node -->
<g id="node1" class="node">
<title>start_node</title>
<ellipse fill="none" stroke="black" cx="174.5" cy="-569" rx="18" ry="18"/>
<text text-anchor="start" x="170" y="-565.3" font-family="Times,serif" font-size="14.00">●</text>
</g>
<!-- Create Fine -->
<g id="node2" class="node">
<title>Create Fine</title>
<polygon fill="#9b9bff" stroke="black" points="237.5,-500 111.5,-500 111.5,-464 237.5,-464 237.5,-500"/>
<text text-anchor="middle" x="174.5" y="-478.3" font-family="Times,serif" font-size="14.00">Create Fine (31885)</text>
</g>
<!-- start_node&#45;&gt;Create Fine -->
<g id="edge1" class="edge">
<title>start_node&#45;&gt;Create Fine</title>
<path fill="none" stroke="#000000" stroke-width="49.18" d="M174.5,-550.8C174.5,-546.22 174.5,-541.03 174.5,-535.6"/>
<polygon fill="#000000" stroke="#000000" stroke-width="49.18" points="217.53,-535.71 174.5,-525.71 131.47,-535.71 217.53,-535.71"/>
<text text-anchor="middle" x="191.5" y="-521.8" font-family="Times,serif" font-size="14.00">31885</text>
</g>
<!-- Send Fine -->
<g id="node3" class="node">
<title>Send Fine</title>
<polygon fill="#f3f3ff" stroke="black" points="188.5,-413 70.5,-413 70.5,-377 188.5,-377 188.5,-413"/>
<text text-anchor="middle" x="129.5" y="-391.3" font-family="Times,serif" font-size="14.00">Send Fine (16897)</text>
</g>
<!-- Create Fine&#45;&gt;Send Fine -->
<g id="edge2" class="edge">
<title>Create Fine&#45;&gt;Send Fine</title>
<path fill="none" stroke="#000000" stroke-width="6" d="M165.39,-463.8C159.94,-453.5 152.84,-440.08 146.39,-427.9"/>
<polygon fill="#000000" stroke="#000000" stroke-width="6" points="151.09,-425.55 141.77,-419.17 141.81,-430.47 151.09,-425.55"/>
<text text-anchor="middle" x="172.5" y="-434.8" font-family="Times,serif" font-size="14.00">16897</text>
</g>
<!-- Payment -->
<g id="node7" class="node">
<title>Payment</title>
<polygon fill="#ffffff" stroke="black" points="283,-359 172,-359 172,-323 283,-323 283,-359"/>
<text text-anchor="middle" x="227.5" y="-337.3" font-family="Times,serif" font-size="14.00">Payment (14988)</text>
</g>
<!-- Create Fine&#45;&gt;Payment -->
<g id="edge6" class="edge">
<title>Create Fine&#45;&gt;Payment</title>
<path fill="none" stroke="#000000" stroke-width="0.5" d="M184.8,-463.5C187.82,-458.01 190.98,-451.84 193.5,-446 204.38,-420.74 213.83,-390.79 219.98,-369.54"/>
<polygon fill="#000000" stroke="#000000" stroke-width="0.5" points="223.32,-370.59 222.68,-360.01 216.59,-368.68 223.32,-370.59"/>
<text text-anchor="middle" x="216.5" y="-434.8" font-family="Times,serif" font-size="14.00">14988</text>
</g>
<!-- Insert Fine Notification -->
<g id="node4" class="node">
<title>Insert Fine Notification</title>
<polygon fill="#f3f3ff" stroke="black" points="207,-305 16,-305 16,-269 207,-269 207,-305"/>
<text text-anchor="middle" x="111.5" y="-283.3" font-family="Times,serif" font-size="14.00">Insert Fine Notification (16897)</text>
</g>
<!-- Send Fine&#45;&gt;Insert Fine Notification -->
<g id="edge3" class="edge">
<title>Send Fine&#45;&gt;Insert Fine Notification</title>
<path fill="none" stroke="#000000" stroke-width="6" d="M126.61,-376.97C124.08,-362.07 120.33,-339.98 117.2,-321.55"/>
<polygon fill="#000000" stroke="#000000" stroke-width="6" points="122.38,-320.68 115.53,-311.7 112.02,-322.44 122.38,-320.68"/>
<text text-anchor="middle" x="140.5" y="-337.3" font-family="Times,serif" font-size="14.00">16897</text>
</g>
<!-- Add penalty -->
<g id="node5" class="node">
<title>Add penalty</title>
<polygon fill="#f3f3ff" stroke="black" points="173.5,-218 43.5,-218 43.5,-182 173.5,-182 173.5,-218"/>
<text text-anchor="middle" x="108.5" y="-196.3" font-family="Times,serif" font-size="14.00">Add penalty (16897)</text>
</g>
<!-- Insert Fine Notification&#45;&gt;Add penalty -->
<g id="edge4" class="edge">
<title>Insert Fine Notification&#45;&gt;Add penalty</title>
<path fill="none" stroke="#000000" stroke-width="6" d="M110.89,-268.8C110.55,-258.96 110.1,-246.27 109.68,-234.53"/>
<polygon fill="#000000" stroke="#000000" stroke-width="6" points="114.94,-234.73 109.34,-224.92 104.45,-235.1 114.94,-234.73"/>
<text text-anchor="middle" x="127.5" y="-239.8" font-family="Times,serif" font-size="14.00">16897</text>
</g>
<!-- Send for Credit Collection -->
<g id="node6" class="node">
<title>Send for Credit Collection</title>
<polygon fill="#f3f3ff" stroke="black" points="207,-131 0,-131 0,-95 207,-95 207,-131"/>
<text text-anchor="middle" x="103.5" y="-109.3" font-family="Times,serif" font-size="14.00">Send for Credit Collection (16897)</text>
</g>
<!-- Add penalty&#45;&gt;Send for Credit Collection -->
<g id="edge5" class="edge">
<title>Add penalty&#45;&gt;Send for Credit Collection</title>
<path fill="none" stroke="#000000" stroke-width="6" d="M107.49,-181.8C106.91,-171.96 106.16,-159.27 105.47,-147.53"/>
<polygon fill="#000000" stroke="#000000" stroke-width="6" points="110.73,-147.58 104.91,-137.91 100.25,-148.2 110.73,-147.58"/>
<text text-anchor="middle" x="123.5" y="-152.8" font-family="Times,serif" font-size="14.00">16897</text>
</g>
<!-- end_node -->
<g id="node8" class="node">
<title>end_node</title>
<ellipse fill="none" stroke="black" cx="169.5" cy="-22" rx="18" ry="18"/>
<ellipse fill="none" stroke="black" cx="169.5" cy="-22" rx="22" ry="22"/>
<text text-anchor="start" x="165" y="-18.3" font-family="Times,serif" font-size="14.00">■</text>
</g>
<!-- Send for Credit Collection&#45;&gt;end_node -->
<g id="edge7" class="edge">
<title>Send for Credit Collection&#45;&gt;end_node</title>
<path fill="none" stroke="#000000" stroke-width="6" d="M116.23,-94.84C124.93,-83.1 136.72,-67.2 146.99,-53.35"/>
<polygon fill="#000000" stroke="#000000" stroke-width="6" points="151,-56.75 152.74,-45.6 142.57,-50.5 151,-56.75"/>
<text text-anchor="middle" x="157.5" y="-65.8" font-family="Times,serif" font-size="14.00">16897</text>
</g>
<!-- Payment&#45;&gt;end_node -->
<g id="edge8" class="edge">
<title>Payment&#45;&gt;end_node</title>
<path fill="none" stroke="#000000" stroke-width="0.5" d="M229.81,-322.78C232.18,-303.69 235.5,-271.95 235.5,-244.5 235.5,-244.5 235.5,-244.5 235.5,-112 235.5,-83.81 213.87,-58.73 195.37,-42.43"/>
<polygon fill="#000000" stroke="#000000" stroke-width="0.5" points="197.68,-39.8 187.77,-36.07 193.19,-45.17 197.68,-39.8"/>
<text text-anchor="middle" x="252.5" y="-196.3" font-family="Times,serif" font-size="14.00">14988</text>
</g>
</g>
</svg>
