<?xml version="1.0" encoding="UTF-8" standalone="no"?>
<!DOCTYPE svg PUBLIC "-//W3C//DTD SVG 1.1//EN"
 "http://www.w3.org/Graphics/SVG/1.1/DTD/svg11.dtd">
<!-- Generated by graphviz version 7.0.5 (0)
 -->
<!-- Title: dfg Pages: 1 -->
<svg width="318pt" height="922pt"
 viewBox="0.00 0.00 318.00 922.00" xmlns="http://www.w3.org/2000/svg" xmlns:xlink="http://www.w3.org/1999/xlink">
<g id="graph0" class="graph" transform="scale(1 1) rotate(0) translate(4 918)">
<title>dfg</title>
<polygon fill="white" stroke="none" points="-4,4 -4,-918 314,-918 314,4 -4,4"/>
<!-- start_node -->
<g id="node1" class="node">
<title>start_node</title>
<ellipse fill="none" stroke="black" cx="187.5" cy="-896" rx="18" ry="18"/>
<text text-anchor="start" x="183" y="-892.3" font-family="Times,serif" font-size="14.00">●</text>
</g>
<!-- Create Fine -->
<g id="node2" class="node">
<title>Create Fine</title>
<polygon fill="#ffffff" stroke="black" points="244,-827 131,-827 131,-791 244,-791 244,-827"/>
<text text-anchor="middle" x="187.5" y="-805.3" font-family="Times,serif" font-size="14.00">Create Fine (150)</text>
</g>
<!-- start_node&#45;&gt;Create Fine -->
<g id="edge1" class="edge">
<title>start_node&#45;&gt;Create Fine</title>
<path fill="none" stroke="#000000" stroke-width="6" d="M187.5,-877.8C187.5,-867.96 187.5,-855.27 187.5,-843.53"/>
<polygon fill="#000000" stroke="#000000" stroke-width="6" points="192.75,-843.92 187.5,-833.92 182.25,-843.92 192.75,-843.92"/>
<text text-anchor="middle" x="198" y="-848.8" font-family="Times,serif" font-size="14.00">150</text>
</g>
<!-- Send Fine -->
<g id="node3" class="node">
<title>Send Fine</title>
<polygon fill="#ffffff" stroke="black" points="239.5,-740 135.5,-740 135.5,-704 239.5,-704 239.5,-740"/>
<text text-anchor="middle" x="187.5" y="-718.3" font-family="Times,serif" font-size="14.00">Send Fine (150)</text>
</g>
<!-- Create Fine&#45;&gt;Send Fine -->
<g id="edge2" class="edge">
<title>Create Fine&#45;&gt;Send Fine</title>
<path fill="none" stroke="#000000" stroke-width="6" d="M187.5,-790.8C187.5,-780.96 187.5,-768.27 187.5,-756.53"/>
<polygon fill="#000000" stroke="#000000" stroke-width="6" points="192.75,-756.92 187.5,-746.92 182.25,-756.92 192.75,-756.92"/>
<text text-anchor="middle" x="198" y="-761.8" font-family="Times,serif" font-size="14.00">150</text>
</g>
<!-- Insert Fine Notification -->
<g id="node4" class="node">
<title>Insert Fine Notification</title>
<polygon fill="#ffffff" stroke="black" points="276,-653 99,-653 99,-617 276,-617 276,-653"/>
<text text-anchor="middle" x="187.5" y="-631.3" font-family="Times,serif" font-size="14.00">Insert Fine Notification (150)</text>
</g>
<!-- Send Fine&#45;&gt;Insert Fine Notification -->
<g id="edge3" class="edge">
<title>Send Fine&#45;&gt;Insert Fine Notification</title>
<path fill="none" stroke="#000000" stroke-width="6" d="M187.5,-703.8C187.5,-693.96 187.5,-681.27 187.5,-669.53"/>
<polygon fill="#000000" stroke="#000000" stroke-width="6" points="192.75,-669.92 187.5,-659.92 182.25,-669.92 192.75,-669.92"/>
<text text-anchor="middle" x="198" y="-674.8" font-family="Times,serif" font-size="14.00">150</text>
</g>
<!-- Insert Date Appeal to Prefecture -->
<g id="node5" class="node">
<title>Insert Date Appeal to Prefecture</title>
<polygon fill="#ffffff" stroke="black" points="225,-566 0,-566 0,-530 225,-530 225,-566"/>
<text text-anchor="middle" x="112.5" y="-544.3" font-family="Times,serif" font-size="14.00">Insert Date Appeal to Prefecture (150)</text>
</g>
<!-- Insert Fine Notification&#45;&gt;Insert Date Appeal to Prefecture -->
<g id="edge4" class="edge">
<title>Insert Fine Notification&#45;&gt;Insert Date Appeal to Prefecture</title>
<path fill="none" stroke="#000000" stroke-width="4.85" d="M172.32,-616.8C162.63,-605.81 149.8,-591.28 138.52,-578.48"/>
<polygon fill="#000000" stroke="#000000" stroke-width="4.85" points="141.82,-575.81 132.02,-571.12 135.46,-581.43 141.82,-575.81"/>
<text text-anchor="middle" x="164" y="-587.8" font-family="Times,serif" font-size="14.00">124</text>
</g>
<!-- Add penalty -->
<g id="node6" class="node">
<title>Add penalty</title>
<polygon fill="#ffffff" stroke="black" points="234.5,-479 118.5,-479 118.5,-443 234.5,-443 234.5,-479"/>
<text text-anchor="middle" x="176.5" y="-457.3" font-family="Times,serif" font-size="14.00">Add penalty (150)</text>
</g>
<!-- Insert Fine Notification&#45;&gt;Add penalty -->
<g id="edge13" class="edge">
<title>Insert Fine Notification&#45;&gt;Add penalty</title>
<path fill="none" stroke="#000000" stroke-width="0.5" d="M204.42,-616.65C222.17,-596.26 246.01,-561.23 234.5,-530 228.47,-513.64 216.56,-498.54 205.09,-486.74"/>
<polygon fill="#000000" stroke="#000000" stroke-width="0.5" points="207.82,-484.52 198.22,-480.02 202.92,-489.52 207.82,-484.52"/>
<text text-anchor="middle" x="244.5" y="-544.3" font-family="Times,serif" font-size="14.00">26</text>
</g>
<!-- Insert Date Appeal to Prefecture&#45;&gt;Add penalty -->
<g id="edge5" class="edge">
<title>Insert Date Appeal to Prefecture&#45;&gt;Add penalty</title>
<path fill="none" stroke="#000000" stroke-width="2.72" d="M128.15,-529.51C132.89,-524.01 138.03,-517.85 142.5,-512 147.58,-505.35 152.8,-497.99 157.57,-491.01"/>
<polygon fill="#000000" stroke="#000000" stroke-width="2.72" points="160.37,-493.13 163.03,-482.87 154.55,-489.23 160.37,-493.13"/>
<text text-anchor="middle" x="159.5" y="-500.8" font-family="Times,serif" font-size="14.00">76</text>
</g>
<!-- Send Appeal to Prefecture -->
<g id="node7" class="node">
<title>Send Appeal to Prefecture</title>
<polygon fill="#ffffff" stroke="black" points="208.5,-392 16.5,-392 16.5,-356 208.5,-356 208.5,-392"/>
<text text-anchor="middle" x="112.5" y="-370.3" font-family="Times,serif" font-size="14.00">Send Appeal to Prefecture (150)</text>
</g>
<!-- Insert Date Appeal to Prefecture&#45;&gt;Send Appeal to Prefecture -->
<g id="edge10" class="edge">
<title>Insert Date Appeal to Prefecture&#45;&gt;Send Appeal to Prefecture</title>
<path fill="none" stroke="#000000" stroke-width="2.63" d="M106.9,-529.61C102.82,-516 97.66,-496.51 95.5,-479 93.55,-463.12 93.55,-458.88 95.5,-443 97.03,-430.55 100.09,-417.1 103.19,-405.47"/>
<polygon fill="#000000" stroke="#000000" stroke-width="2.63" points="106.45,-406.79 105.81,-396.22 99.72,-404.88 106.45,-406.79"/>
<text text-anchor="middle" x="102.5" y="-457.3" font-family="Times,serif" font-size="14.00">74</text>
</g>
<!-- Add penalty&#45;&gt;Insert Date Appeal to Prefecture -->
<g id="edge14" class="edge">
<title>Add penalty&#45;&gt;Insert Date Appeal to Prefecture</title>
<path fill="none" stroke="#000000" stroke-width="0.5" d="M142.79,-479.31C135.89,-484.21 129.28,-490.12 124.5,-497 120,-503.48 117.18,-511.44 115.41,-519.09"/>
<polygon fill="#000000" stroke="#000000" stroke-width="0.5" points="111.99,-518.31 113.68,-528.77 118.89,-519.54 111.99,-518.31"/>
<text text-anchor="middle" x="131.5" y="-500.8" font-family="Times,serif" font-size="14.00">26</text>
</g>
<!-- Add penalty&#45;&gt;Send Appeal to Prefecture -->
<g id="edge6" class="edge">
<title>Add penalty&#45;&gt;Send Appeal to Prefecture</title>
<path fill="none" stroke="#000000" stroke-width="2.72" d="M165.32,-442.54C158.9,-432.78 150.54,-420.51 142.5,-410 140.75,-407.72 138.9,-405.38 137.02,-403.06"/>
<polygon fill="#000000" stroke="#000000" stroke-width="2.72" points="139.9,-401.05 130.8,-395.64 134.54,-405.55 139.9,-401.05"/>
<text text-anchor="middle" x="159.5" y="-413.8" font-family="Times,serif" font-size="14.00">76</text>
</g>
<!-- Receive Result Appeal from Prefecture -->
<g id="node8" class="node">
<title>Receive Result Appeal from Prefecture</title>
<polygon fill="#ffffff" stroke="black" points="310,-305 47,-305 47,-269 310,-269 310,-305"/>
<text text-anchor="middle" x="178.5" y="-283.3" font-family="Times,serif" font-size="14.00">Receive Result Appeal from Prefecture (150)</text>
</g>
<!-- Add penalty&#45;&gt;Receive Result Appeal from Prefecture -->
<g id="edge12" class="edge">
<title>Add penalty&#45;&gt;Receive Result Appeal from Prefecture</title>
<path fill="none" stroke="#000000" stroke-width="1.48" d="M190.53,-442.78C200.21,-429.72 212.25,-410.86 217.5,-392 221.79,-376.59 221.62,-371.46 217.5,-356 213.69,-341.7 206.08,-327.28 198.59,-315.43"/>
<polygon fill="#000000" stroke="#000000" stroke-width="1.48" points="201.56,-313.57 193.09,-307.19 195.73,-317.45 201.56,-313.57"/>
<text text-anchor="middle" x="227.5" y="-370.3" font-family="Times,serif" font-size="14.00">48</text>
</g>
<!-- Send Appeal to Prefecture&#45;&gt;Add penalty -->
<g id="edge11" class="edge">
<title>Send Appeal to Prefecture&#45;&gt;Add penalty</title>
<path fill="none" stroke="#000000" stroke-width="1.48" d="M113.55,-392.49C114.89,-402.72 117.88,-415.47 124.5,-425 127.04,-428.66 130.09,-432.04 133.44,-435.14"/>
<polygon fill="#000000" stroke="#000000" stroke-width="1.48" points="131.07,-437.73 141.05,-441.29 135.47,-432.28 131.07,-437.73"/>
<text text-anchor="middle" x="131.5" y="-413.8" font-family="Times,serif" font-size="14.00">48</text>
</g>
<!-- Send Appeal to Prefecture&#45;&gt;Receive Result Appeal from Prefecture -->
<g id="edge7" class="edge">
<title>Send Appeal to Prefecture&#45;&gt;Receive Result Appeal from Prefecture</title>
<path fill="none" stroke="#000000" stroke-width="3.87" d="M125.86,-355.8C134.3,-344.93 145.44,-330.58 155.3,-317.88"/>
<polygon fill="#000000" stroke="#000000" stroke-width="3.87" points="157.98,-320.14 161.34,-310.09 152.45,-315.85 157.98,-320.14"/>
<text text-anchor="middle" x="159" y="-326.8" font-family="Times,serif" font-size="14.00">102</text>
</g>
<!-- Notify Result Appeal to Offender -->
<g id="node9" class="node">
<title>Notify Result Appeal to Offender</title>
<polygon fill="#ffffff" stroke="black" points="294.5,-218 62.5,-218 62.5,-182 294.5,-182 294.5,-218"/>
<text text-anchor="middle" x="178.5" y="-196.3" font-family="Times,serif" font-size="14.00">Notify Result Appeal to Offender (150)</text>
</g>
<!-- Receive Result Appeal from Prefecture&#45;&gt;Notify Result Appeal to Offender -->
<g id="edge8" class="edge">
<title>Receive Result Appeal from Prefecture&#45;&gt;Notify Result Appeal to Offender</title>
<path fill="none" stroke="#000000" stroke-width="6" d="M178.5,-268.8C178.5,-258.96 178.5,-246.27 178.5,-234.53"/>
<polygon fill="#000000" stroke="#000000" stroke-width="6" points="183.75,-234.92 178.5,-224.92 173.25,-234.92 183.75,-234.92"/>
<text text-anchor="middle" x="189" y="-239.8" font-family="Times,serif" font-size="14.00">150</text>
</g>
<!-- Payment -->
<g id="node10" class="node">
<title>Payment</title>
<polygon fill="#ffffff" stroke="black" points="227.5,-131 129.5,-131 129.5,-95 227.5,-95 227.5,-131"/>
<text text-anchor="middle" x="178.5" y="-109.3" font-family="Times,serif" font-size="14.00">Payment (150)</text>
</g>
<!-- Notify Result Appeal to Offender&#45;&gt;Payment -->
<g id="edge9" class="edge">
<title>Notify Result Appeal to Offender&#45;&gt;Payment</title>
<path fill="none" stroke="#000000" stroke-width="6" d="M178.5,-181.8C178.5,-171.96 178.5,-159.27 178.5,-147.53"/>
<polygon fill="#000000" stroke="#000000" stroke-width="6" points="183.75,-147.92 178.5,-137.92 173.25,-147.92 183.75,-147.92"/>
<text text-anchor="middle" x="189" y="-152.8" font-family="Times,serif" font-size="14.00">150</text>
</g>
<!-- end_node -->
<g id="node11" class="node">
<title>end_node</title>
<ellipse fill="none" stroke="black" cx="178.5" cy="-22" rx="18" ry="18"/>
<ellipse fill="none" stroke="black" cx="178.5" cy="-22" rx="22" ry="22"/>
<text text-anchor="start" x="174" y="-18.3" font-family="Times,serif" font-size="14.00">■</text>
</g>
<!-- Payment&#45;&gt;end_node -->
<g id="edge15" class="edge">
<title>Payment&#45;&gt;end_node</title>
<path fill="none" stroke="#000000" stroke-width="6" d="M178.5,-94.84C178.5,-85.02 178.5,-72.3 178.5,-60.3"/>
<polygon fill="#000000" stroke="#000000" stroke-width="6" points="183.75,-60.64 178.5,-50.64 173.25,-60.64 183.75,-60.64"/>
<text text-anchor="middle" x="189" y="-65.8" font-family="Times,serif" font-size="14.00">150</text>
</g>
</g>
</svg>
