<?xml version="1.0" encoding="UTF-8" standalone="no"?>
<!DOCTYPE svg PUBLIC "-//W3C//DTD SVG 1.1//EN"
 "http://www.w3.org/Graphics/SVG/1.1/DTD/svg11.dtd">
<!-- Generated by graphviz version 7.0.5 (0)
 -->
<!-- Title: dfg Pages: 1 -->
<svg width="471pt" height="922pt"
 viewBox="0.00 0.00 470.74 922.00" xmlns="http://www.w3.org/2000/svg" xmlns:xlink="http://www.w3.org/1999/xlink">
<g id="graph0" class="graph" transform="scale(1 1) rotate(0) translate(4 918)">
<title>dfg</title>
<polygon fill="white" stroke="none" points="-4,4 -4,-918 466.74,-918 466.74,4 -4,4"/>
<!-- start_node -->
<g id="node1" class="node">
<title>start_node</title>
<ellipse fill="none" stroke="black" cx="311.24" cy="-896" rx="18" ry="18"/>
<text text-anchor="start" x="306.74" y="-892.3" font-family="Times,serif" font-size="14.00">●</text>
</g>
<!-- Create Fine -->
<g id="node2" class="node">
<title>Create Fine</title>
<polygon fill="#9b9bff" stroke="black" points="364.24,-827 258.24,-827 258.24,-791 364.24,-791 364.24,-827"/>
<text text-anchor="middle" x="311.24" y="-805.3" font-family="Times,serif" font-size="14.00">Create Fine (68)</text>
</g>
<!-- start_node&#45;&gt;Create Fine -->
<g id="edge1" class="edge">
<title>start_node&#45;&gt;Create Fine</title>
<path fill="none" stroke="#000000" stroke-width="6" d="M311.24,-877.8C311.24,-867.96 311.24,-855.27 311.24,-843.53"/>
<polygon fill="#000000" stroke="#000000" stroke-width="6" points="316.49,-843.92 311.24,-833.92 305.99,-843.92 316.49,-843.92"/>
<text text-anchor="middle" x="318.24" y="-848.8" font-family="Times,serif" font-size="14.00">68</text>
</g>
<!-- Send Fine -->
<g id="node3" class="node">
<title>Send Fine</title>
<polygon fill="#9b9bff" stroke="black" points="360.24,-740 262.24,-740 262.24,-704 360.24,-704 360.24,-740"/>
<text text-anchor="middle" x="311.24" y="-718.3" font-family="Times,serif" font-size="14.00">Send Fine (68)</text>
</g>
<!-- Create Fine&#45;&gt;Send Fine -->
<g id="edge2" class="edge">
<title>Create Fine&#45;&gt;Send Fine</title>
<path fill="none" stroke="#000000" stroke-width="6" d="M311.24,-790.8C311.24,-780.96 311.24,-768.27 311.24,-756.53"/>
<polygon fill="#000000" stroke="#000000" stroke-width="6" points="316.49,-756.92 311.24,-746.92 305.99,-756.92 316.49,-756.92"/>
<text text-anchor="middle" x="318.24" y="-761.8" font-family="Times,serif" font-size="14.00">68</text>
</g>
<!-- Insert Fine Notification -->
<g id="node4" class="node">
<title>Insert Fine Notification</title>
<polygon fill="#9b9bff" stroke="black" points="396.24,-653 226.24,-653 226.24,-617 396.24,-617 396.24,-653"/>
<text text-anchor="middle" x="311.24" y="-631.3" font-family="Times,serif" font-size="14.00">Insert Fine Notification (68)</text>
</g>
<!-- Send Fine&#45;&gt;Insert Fine Notification -->
<g id="edge3" class="edge">
<title>Send Fine&#45;&gt;Insert Fine Notification</title>
<path fill="none" stroke="#000000" stroke-width="6" d="M311.24,-703.8C311.24,-693.96 311.24,-681.27 311.24,-669.53"/>
<polygon fill="#000000" stroke="#000000" stroke-width="6" points="316.49,-669.92 311.24,-659.92 305.99,-669.92 316.49,-669.92"/>
<text text-anchor="middle" x="318.24" y="-674.8" font-family="Times,serif" font-size="14.00">68</text>
</g>
<!-- Insert Date Appeal to Prefecture -->
<g id="node5" class="node">
<title>Insert Date Appeal to Prefecture</title>
<polygon fill="#9b9bff" stroke="black" points="352.24,-566 134.24,-566 134.24,-530 352.24,-530 352.24,-566"/>
<text text-anchor="middle" x="243.24" y="-544.3" font-family="Times,serif" font-size="14.00">Insert Date Appeal to Prefecture (68)</text>
</g>
<!-- Insert Fine Notification&#45;&gt;Insert Date Appeal to Prefecture -->
<g id="edge4" class="edge">
<title>Insert Fine Notification&#45;&gt;Insert Date Appeal to Prefecture</title>
<path fill="none" stroke="#000000" stroke-width="5.27" d="M297.48,-616.8C288.78,-605.93 277.3,-591.58 267.14,-578.88"/>
<polygon fill="#000000" stroke="#000000" stroke-width="5.27" points="270.99,-576.31 261.14,-571.38 263.79,-582.07 270.99,-576.31"/>
<text text-anchor="middle" x="288.24" y="-587.8" font-family="Times,serif" font-size="14.00">60</text>
</g>
<!-- Add penalty -->
<g id="node7" class="node">
<title>Add penalty</title>
<polygon fill="#9b9bff" stroke="black" points="307.24,-392 197.24,-392 197.24,-356 307.24,-356 307.24,-392"/>
<text text-anchor="middle" x="252.24" y="-370.3" font-family="Times,serif" font-size="14.00">Add penalty (68)</text>
</g>
<!-- Insert Fine Notification&#45;&gt;Add penalty -->
<g id="edge14" class="edge">
<title>Insert Fine Notification&#45;&gt;Add penalty</title>
<path fill="none" stroke="#000000" stroke-width="0.5" d="M328.79,-616.77C340.49,-604 354.84,-585.49 361.24,-566 366.22,-550.8 366,-545.27 361.24,-530 345.02,-478.05 304.24,-428.51 277.42,-399.96"/>
<polygon fill="#000000" stroke="#000000" stroke-width="0.5" points="280.22,-397.83 270.78,-393.03 275.17,-402.67 280.22,-397.83"/>
<text text-anchor="middle" x="357.74" y="-500.8" font-family="Times,serif" font-size="14.00">8</text>
</g>
<!-- Send Appeal to Prefecture -->
<g id="node6" class="node">
<title>Send Appeal to Prefecture</title>
<polygon fill="#9b9bff" stroke="black" points="232.74,-479 47.74,-479 47.74,-443 232.74,-443 232.74,-479"/>
<text text-anchor="middle" x="140.24" y="-457.3" font-family="Times,serif" font-size="14.00">Send Appeal to Prefecture (68)</text>
</g>
<!-- Insert Date Appeal to Prefecture&#45;&gt;Send Appeal to Prefecture -->
<g id="edge5" class="edge">
<title>Insert Date Appeal to Prefecture&#45;&gt;Send Appeal to Prefecture</title>
<path fill="none" stroke="#000000" stroke-width="4.99" d="M222.39,-529.8C208.38,-518.24 189.62,-502.75 173.56,-489.5"/>
<polygon fill="#000000" stroke="#000000" stroke-width="4.99" points="176.7,-486.43 166.21,-483.44 171.14,-493.17 176.7,-486.43"/>
<text text-anchor="middle" x="205.24" y="-500.8" font-family="Times,serif" font-size="14.00">57</text>
</g>
<!-- Insert Date Appeal to Prefecture&#45;&gt;Add penalty -->
<g id="edge11" class="edge">
<title>Insert Date Appeal to Prefecture&#45;&gt;Add penalty</title>
<path fill="none" stroke="#000000" stroke-width="0.78" d="M244.15,-529.56C245.7,-499.94 248.86,-439.54 250.74,-403.64"/>
<polygon fill="#000000" stroke="#000000" stroke-width="0.78" points="254.23,-403.83 251.26,-393.66 247.24,-403.46 254.23,-403.83"/>
<text text-anchor="middle" x="255.24" y="-457.3" font-family="Times,serif" font-size="14.00">11</text>
</g>
<!-- Send Appeal to Prefecture&#45;&gt;Add penalty -->
<g id="edge6" class="edge">
<title>Send Appeal to Prefecture&#45;&gt;Add penalty</title>
<path fill="none" stroke="#000000" stroke-width="4.26" d="M157.34,-442.91C167.85,-432.81 181.82,-420.08 195.24,-410 199.37,-406.9 203.79,-403.81 208.26,-400.84"/>
<polygon fill="#000000" stroke="#000000" stroke-width="4.26" points="210.07,-404.1 216.52,-395.6 206.08,-397.81 210.07,-404.1"/>
<text text-anchor="middle" x="202.24" y="-413.8" font-family="Times,serif" font-size="14.00">49</text>
</g>
<!-- Receive Result Appeal from Prefecture -->
<g id="node8" class="node">
<title>Receive Result Appeal from Prefecture</title>
<polygon fill="#9b9bff" stroke="black" points="293.74,-305 36.74,-305 36.74,-269 293.74,-269 293.74,-305"/>
<text text-anchor="middle" x="165.24" y="-283.3" font-family="Times,serif" font-size="14.00">Receive Result Appeal from Prefecture (68)</text>
</g>
<!-- Send Appeal to Prefecture&#45;&gt;Receive Result Appeal from Prefecture -->
<g id="edge13" class="edge">
<title>Send Appeal to Prefecture&#45;&gt;Receive Result Appeal from Prefecture</title>
<path fill="none" stroke="#000000" stroke-width="1.51" d="M142.77,-442.56C147.04,-413.2 155.7,-353.59 160.94,-317.58"/>
<polygon fill="#000000" stroke="#000000" stroke-width="1.51" points="164.39,-318.14 162.37,-307.74 157.46,-317.14 164.39,-318.14"/>
<text text-anchor="middle" x="162.24" y="-370.3" font-family="Times,serif" font-size="14.00">19</text>
</g>
<!-- Add penalty&#45;&gt;Insert Date Appeal to Prefecture -->
<g id="edge15" class="edge">
<title>Add penalty&#45;&gt;Insert Date Appeal to Prefecture</title>
<path fill="none" stroke="#000000" stroke-width="0.5" d="M258.46,-392.26C260.27,-397.85 262.06,-404.13 263.24,-410 272.14,-454.49 273.46,-468.92 259.24,-512 258.34,-514.7 257.31,-517.47 256.19,-520.22"/>
<polygon fill="#000000" stroke="#000000" stroke-width="0.5" points="253.08,-518.6 252.29,-529.16 259.5,-521.4 253.08,-518.6"/>
<text text-anchor="middle" x="272.74" y="-457.3" font-family="Times,serif" font-size="14.00">8</text>
</g>
<!-- Add penalty&#45;&gt;Send Appeal to Prefecture -->
<g id="edge12" class="edge">
<title>Add penalty&#45;&gt;Send Appeal to Prefecture</title>
<path fill="none" stroke="#000000" stroke-width="0.78" d="M240.11,-392.26C232.19,-402.67 221.13,-415.67 209.24,-425 203.55,-429.45 197.22,-433.58 190.75,-437.32"/>
<polygon fill="#000000" stroke="#000000" stroke-width="0.78" points="189.37,-434.09 182.27,-441.96 192.72,-440.23 189.37,-434.09"/>
<text text-anchor="middle" x="231.24" y="-413.8" font-family="Times,serif" font-size="14.00">11</text>
</g>
<!-- Add penalty&#45;&gt;Receive Result Appeal from Prefecture -->
<g id="edge7" class="edge">
<title>Add penalty&#45;&gt;Receive Result Appeal from Prefecture</title>
<path fill="none" stroke="#000000" stroke-width="4.26" d="M234.63,-355.8C223.15,-344.58 207.89,-329.67 194.6,-316.69"/>
<polygon fill="#000000" stroke="#000000" stroke-width="4.26" points="197.23,-314.05 187.48,-309.73 192.03,-319.38 197.23,-314.05"/>
<text text-anchor="middle" x="221.24" y="-326.8" font-family="Times,serif" font-size="14.00">49</text>
</g>
<!-- Notify Result Appeal to Offender -->
<g id="node9" class="node">
<title>Notify Result Appeal to Offender</title>
<polygon fill="#9b9bff" stroke="black" points="277.74,-218 52.74,-218 52.74,-182 277.74,-182 277.74,-218"/>
<text text-anchor="middle" x="165.24" y="-196.3" font-family="Times,serif" font-size="14.00">Notify Result Appeal to Offender (68)</text>
</g>
<!-- Receive Result Appeal from Prefecture&#45;&gt;Notify Result Appeal to Offender -->
<g id="edge8" class="edge">
<title>Receive Result Appeal from Prefecture&#45;&gt;Notify Result Appeal to Offender</title>
<path fill="none" stroke="#000000" stroke-width="6" d="M165.24,-268.8C165.24,-258.96 165.24,-246.27 165.24,-234.53"/>
<polygon fill="#000000" stroke="#000000" stroke-width="6" points="170.49,-234.92 165.24,-224.92 159.99,-234.92 170.49,-234.92"/>
<text text-anchor="middle" x="172.24" y="-239.8" font-family="Times,serif" font-size="14.00">68</text>
</g>
<!-- Send for Credit Collection -->
<g id="node10" class="node">
<title>Send for Credit Collection</title>
<polygon fill="#ceceff" stroke="black" points="210.74,-131 23.74,-131 23.74,-95 210.74,-95 210.74,-131"/>
<text text-anchor="middle" x="117.24" y="-109.3" font-family="Times,serif" font-size="14.00">Send for Credit Collection (37)</text>
</g>
<!-- Notify Result Appeal to Offender&#45;&gt;Send for Credit Collection -->
<g id="edge9" class="edge">
<title>Notify Result Appeal to Offender&#45;&gt;Send for Credit Collection</title>
<path fill="none" stroke="#000000" stroke-width="3.16" d="M155.52,-181.8C149.45,-171.04 141.45,-156.88 134.34,-144.29"/>
<polygon fill="#000000" stroke="#000000" stroke-width="3.16" points="137.42,-142.62 129.45,-135.63 131.32,-146.06 137.42,-142.62"/>
<text text-anchor="middle" x="151.24" y="-152.8" font-family="Times,serif" font-size="14.00">37</text>
</g>
<!-- Payment -->
<g id="node11" class="node">
<title>Payment</title>
<polygon fill="#ebebff" stroke="black" points="319.74,-131 228.74,-131 228.74,-95 319.74,-95 319.74,-131"/>
<text text-anchor="middle" x="274.24" y="-109.3" font-family="Times,serif" font-size="14.00">Payment (20)</text>
</g>
<!-- Notify Result Appeal to Offender&#45;&gt;Payment -->
<g id="edge10" class="edge">
<title>Notify Result Appeal to Offender&#45;&gt;Payment</title>
<path fill="none" stroke="#000000" stroke-width="1.6" d="M187.56,-181.59C203.43,-169.22 224.97,-152.42 242.61,-138.66"/>
<polygon fill="#000000" stroke="#000000" stroke-width="1.6" points="244.3,-141.78 250.04,-132.87 240,-136.26 244.3,-141.78"/>
<text text-anchor="middle" x="233.24" y="-152.8" font-family="Times,serif" font-size="14.00">20</text>
</g>
<!-- Appeal to Judge -->
<g id="node12" class="node">
<title>Appeal to Judge</title>
<polygon fill="#ffffff" stroke="black" points="462.74,-131 337.74,-131 337.74,-95 462.74,-95 462.74,-131"/>
<text text-anchor="middle" x="400.24" y="-109.3" font-family="Times,serif" font-size="14.00">Appeal to Judge (8)</text>
</g>
<!-- Notify Result Appeal to Offender&#45;&gt;Appeal to Judge -->
<g id="edge16" class="edge">
<title>Notify Result Appeal to Offender&#45;&gt;Appeal to Judge</title>
<path fill="none" stroke="#000000" stroke-width="0.5" d="M213.36,-181.59C250.66,-168.1 302.51,-149.35 342.13,-135.02"/>
<polygon fill="#000000" stroke="#000000" stroke-width="0.5" points="343.25,-138.33 351.47,-131.64 340.87,-131.75 343.25,-138.33"/>
<text text-anchor="middle" x="299.74" y="-152.8" font-family="Times,serif" font-size="14.00">8</text>
</g>
<!-- end_node -->
<g id="node13" class="node">
<title>end_node</title>
<ellipse fill="none" stroke="black" cx="165.24" cy="-22" rx="18" ry="18"/>
<ellipse fill="none" stroke="black" cx="165.24" cy="-22" rx="22" ry="22"/>
<text text-anchor="start" x="160.74" y="-18.3" font-family="Times,serif" font-size="14.00">■</text>
</g>
<!-- Notify Result Appeal to Offender&#45;&gt;end_node -->
<g id="edge20" class="edge">
<title>Notify Result Appeal to Offender&#45;&gt;end_node</title>
<path fill="none" stroke="#ff0000" stroke-width="0.04" stroke-dasharray="5,2" d="M78.19,-181.51C50.8,-171.46 23.49,-155.69 7.24,-131 -27.85,-77.7 78.62,-43.59 134.01,-29.87"/>
<polygon fill="#ff0000" stroke="#ff0000" stroke-width="0.04" points="134.74,-33.3 143.65,-27.56 133.11,-26.49 134.74,-33.3"/>
<text text-anchor="middle" x="10.74" y="-109.3" font-family="Times,serif" font-size="14.00">3</text>
</g>
<!-- Send for Credit Collection&#45;&gt;end_node -->
<g id="edge17" class="edge">
<title>Send for Credit Collection&#45;&gt;end_node</title>
<path fill="none" stroke="#000000" stroke-width="3.16" d="M126.49,-94.84C132.62,-83.47 140.85,-68.22 148.14,-54.7"/>
<polygon fill="#000000" stroke="#000000" stroke-width="3.16" points="151.08,-56.63 152.74,-46.16 144.92,-53.3 151.08,-56.63"/>
<text text-anchor="middle" x="151.24" y="-65.8" font-family="Times,serif" font-size="14.00">37</text>
</g>
<!-- Payment&#45;&gt;end_node -->
<g id="edge18" class="edge">
<title>Payment&#45;&gt;end_node</title>
<path fill="none" stroke="#000000" stroke-width="1.6" d="M252.96,-94.63C235.32,-80.22 210.16,-59.68 191.3,-44.28"/>
<polygon fill="#000000" stroke="#000000" stroke-width="1.6" points="193.66,-41.69 183.7,-38.08 189.24,-47.11 193.66,-41.69"/>
<text text-anchor="middle" x="236.24" y="-65.8" font-family="Times,serif" font-size="14.00">20</text>
</g>
<!-- Appeal to Judge&#45;&gt;end_node -->
<g id="edge19" class="edge">
<title>Appeal to Judge&#45;&gt;end_node</title>
<path fill="none" stroke="#000000" stroke-width="0.5" d="M354.09,-94.52C307.22,-76.77 235.96,-49.79 195.71,-34.54"/>
<polygon fill="#000000" stroke="#000000" stroke-width="0.5" points="197,-31.29 186.41,-31.02 194.52,-37.83 197,-31.29"/>
<text text-anchor="middle" x="306.74" y="-65.8" font-family="Times,serif" font-size="14.00">8</text>
</g>
</g>
</svg>
