<?xml version="1.0" encoding="UTF-8" standalone="no"?>
<!DOCTYPE svg PUBLIC "-//W3C//DTD SVG 1.1//EN"
 "http://www.w3.org/Graphics/SVG/1.1/DTD/svg11.dtd">
<!-- Generated by graphviz version 7.0.5 (0)
 -->
<!-- Title: dfg Pages: 1 -->
<svg width="707pt" height="1096pt"
 viewBox="0.00 0.00 707.00 1096.00" xmlns="http://www.w3.org/2000/svg" xmlns:xlink="http://www.w3.org/1999/xlink">
<g id="graph0" class="graph" transform="scale(1 1) rotate(0) translate(4 1092)">
<title>dfg</title>
<polygon fill="white" stroke="none" points="-4,4 -4,-1092 703,-1092 703,4 -4,4"/>
<!-- start_node -->
<g id="node1" class="node">
<title>start_node</title>
<ellipse fill="none" stroke="black" cx="646" cy="-1070" rx="18" ry="18"/>
<text text-anchor="start" x="641.5" y="-1066.3" font-family="Times,serif" font-size="14.00">●</text>
</g>
<!-- Create Fine -->
<g id="node2" class="node">
<title>Create Fine</title>
<polygon fill="#9b9bff" stroke="black" points="699,-1001 593,-1001 593,-965 699,-965 699,-1001"/>
<text text-anchor="middle" x="646" y="-979.3" font-family="Times,serif" font-size="14.00">Create Fine (95)</text>
</g>
<!-- start_node&#45;&gt;Create Fine -->
<g id="edge1" class="edge">
<title>start_node&#45;&gt;Create Fine</title>
<path fill="none" stroke="#000000" stroke-width="6.06" d="M646,-1051.8C646,-1041.96 646,-1029.27 646,-1017.53"/>
<polygon fill="#000000" stroke="#000000" stroke-width="6.06" points="651.3,-1017.93 646,-1007.93 640.7,-1017.93 651.3,-1017.93"/>
<text text-anchor="middle" x="653" y="-1022.8" font-family="Times,serif" font-size="14.00">95</text>
</g>
<!-- Send Fine -->
<g id="node3" class="node">
<title>Send Fine</title>
<polygon fill="#9b9bff" stroke="black" points="440,-914 342,-914 342,-878 440,-878 440,-914"/>
<text text-anchor="middle" x="391" y="-892.3" font-family="Times,serif" font-size="14.00">Send Fine (95)</text>
</g>
<!-- Create Fine&#45;&gt;Send Fine -->
<g id="edge2" class="edge">
<title>Create Fine&#45;&gt;Send Fine</title>
<path fill="none" stroke="#000000" stroke-width="6" d="M593.78,-964.59C553.77,-951.26 498.35,-932.78 455.55,-918.52"/>
<polygon fill="#000000" stroke="#000000" stroke-width="6" points="457.39,-913.6 446.24,-915.41 454.07,-923.56 457.39,-913.6"/>
<text text-anchor="middle" x="540" y="-935.8" font-family="Times,serif" font-size="14.00">94</text>
</g>
<!-- Payment -->
<g id="node11" class="node">
<title>Payment</title>
<polygon fill="#d6d6ff" stroke="black" points="484.5,-218 393.5,-218 393.5,-182 484.5,-182 484.5,-218"/>
<text text-anchor="middle" x="439" y="-196.3" font-family="Times,serif" font-size="14.00">Payment (49)</text>
</g>
<!-- Create Fine&#45;&gt;Payment -->
<g id="edge28" class="edge">
<title>Create Fine&#45;&gt;Payment</title>
<path fill="none" stroke="#ff0000" stroke-width="0.5" stroke-dasharray="5,2" d="M659.2,-964.82C670.52,-948.35 685,-922.33 685,-897 685,-897 685,-897 685,-286 685,-257.26 668.85,-250.44 644,-236 619.32,-221.66 546.93,-211.68 495.18,-206.15"/>
<polygon fill="#ff0000" stroke="#ff0000" stroke-width="0.5" points="495.86,-202.7 485.55,-205.15 495.13,-209.66 495.86,-202.7"/>
<text text-anchor="middle" x="688.5" y="-587.8" font-family="Times,serif" font-size="14.00">1</text>
</g>
<!-- Insert Fine Notification -->
<g id="node4" class="node">
<title>Insert Fine Notification</title>
<polygon fill="#9b9bff" stroke="black" points="451,-827 281,-827 281,-791 451,-791 451,-827"/>
<text text-anchor="middle" x="366" y="-805.3" font-family="Times,serif" font-size="14.00">Insert Fine Notification (95)</text>
</g>
<!-- Send Fine&#45;&gt;Insert Fine Notification -->
<g id="edge3" class="edge">
<title>Send Fine&#45;&gt;Insert Fine Notification</title>
<path fill="none" stroke="#000000" stroke-width="6" d="M385.94,-877.8C383.01,-867.84 379.23,-854.97 375.74,-843.12"/>
<polygon fill="#000000" stroke="#000000" stroke-width="6" points="380.82,-841.77 372.96,-833.66 370.74,-844.73 380.82,-841.77"/>
<text text-anchor="middle" x="386" y="-848.8" font-family="Times,serif" font-size="14.00">94</text>
</g>
<!-- Insert Date Appeal to Prefecture -->
<g id="node5" class="node">
<title>Insert Date Appeal to Prefecture</title>
<polygon fill="#9b9bff" stroke="black" points="268,-740 50,-740 50,-704 268,-704 268,-740"/>
<text text-anchor="middle" x="159" y="-718.3" font-family="Times,serif" font-size="14.00">Insert Date Appeal to Prefecture (95)</text>
</g>
<!-- Send Fine&#45;&gt;Insert Date Appeal to Prefecture -->
<g id="edge36" class="edge">
<title>Send Fine&#45;&gt;Insert Date Appeal to Prefecture</title>
<path fill="none" stroke="#ff0000" stroke-width="0.5" stroke-dasharray="5,2" d="M352.12,-877.55C326.32,-865.13 292.31,-847.14 265,-827 233.03,-803.43 201.14,-770.55 180.82,-748.12"/>
<polygon fill="#ff0000" stroke="#ff0000" stroke-width="0.5" points="183.66,-746.04 174.39,-740.92 178.45,-750.71 183.66,-746.04"/>
<text text-anchor="middle" x="268.5" y="-805.3" font-family="Times,serif" font-size="14.00">1</text>
</g>
<!-- Insert Fine Notification&#45;&gt;Insert Date Appeal to Prefecture -->
<g id="edge4" class="edge">
<title>Insert Fine Notification&#45;&gt;Insert Date Appeal to Prefecture</title>
<path fill="none" stroke="#000000" stroke-width="5.05" d="M320.56,-790.66C306.26,-785.12 290.44,-778.89 276,-773 255.56,-764.66 233.26,-755.22 213.65,-746.8"/>
<polygon fill="#000000" stroke="#000000" stroke-width="5.05" points="215.61,-742.82 204.67,-742.93 212.1,-750.95 215.61,-742.82"/>
<text text-anchor="middle" x="283" y="-761.8" font-family="Times,serif" font-size="14.00">78</text>
</g>
<!-- Send Appeal to Prefecture -->
<g id="node6" class="node">
<title>Send Appeal to Prefecture</title>
<polygon fill="#9b9bff" stroke="black" points="446.5,-566 261.5,-566 261.5,-530 446.5,-530 446.5,-566"/>
<text text-anchor="middle" x="354" y="-544.3" font-family="Times,serif" font-size="14.00">Send Appeal to Prefecture (95)</text>
</g>
<!-- Insert Fine Notification&#45;&gt;Send Appeal to Prefecture -->
<g id="edge38" class="edge">
<title>Insert Fine Notification&#45;&gt;Send Appeal to Prefecture</title>
<path fill="none" stroke="#ff0000" stroke-width="0.5" stroke-dasharray="5,2" d="M390.44,-790.64C434.53,-757.1 519.38,-681.09 481,-617 468.41,-595.97 446.84,-581.08 425.03,-570.71"/>
<polygon fill="#ff0000" stroke="#ff0000" stroke-width="0.5" points="426.6,-567.58 416.04,-566.7 423.75,-573.97 426.6,-567.58"/>
<text text-anchor="middle" x="491.5" y="-674.8" font-family="Times,serif" font-size="14.00">1</text>
</g>
<!-- Add penalty -->
<g id="node7" class="node">
<title>Add penalty</title>
<polygon fill="#9b9bff" stroke="black" points="372,-479 262,-479 262,-443 372,-443 372,-479"/>
<text text-anchor="middle" x="317" y="-457.3" font-family="Times,serif" font-size="14.00">Add penalty (95)</text>
</g>
<!-- Insert Fine Notification&#45;&gt;Add penalty -->
<g id="edge14" class="edge">
<title>Insert Fine Notification&#45;&gt;Add penalty</title>
<path fill="none" stroke="#000000" stroke-width="1.27" d="M407.54,-790.57C430.09,-779.19 456.81,-762.28 474,-740 508.08,-695.84 505.29,-672.43 499,-617 492.41,-558.89 495.79,-525.99 445,-497 426.35,-486.35 404.31,-478.82 383.82,-473.54"/>
<polygon fill="#000000" stroke="#000000" stroke-width="1.27" points="384.71,-470.16 374.17,-471.21 383.07,-476.96 384.71,-470.16"/>
<text text-anchor="middle" x="509" y="-631.3" font-family="Times,serif" font-size="14.00">14</text>
</g>
<!-- Appeal to Judge -->
<g id="node12" class="node">
<title>Appeal to Judge</title>
<polygon fill="#ffffff" stroke="black" points="177.5,-305 46.5,-305 46.5,-269 177.5,-269 177.5,-305"/>
<text text-anchor="middle" x="112" y="-283.3" font-family="Times,serif" font-size="14.00">Appeal to Judge (18)</text>
</g>
<!-- Insert Fine Notification&#45;&gt;Appeal to Judge -->
<g id="edge33" class="edge">
<title>Insert Fine Notification&#45;&gt;Appeal to Judge</title>
<path fill="none" stroke="#ff0000" stroke-width="0.56" stroke-dasharray="5,2" d="M280.61,-790.99C192.16,-773.24 63.72,-747.02 41,-740 22.15,-734.18 0,-742.73 0,-723 0,-723 0,-723 0,-373 0,-343.98 24.16,-323.58 50.04,-310.05"/>
<polygon fill="#ff0000" stroke="#ff0000" stroke-width="0.56" points="51.4,-313.28 58.85,-305.75 48.33,-306.99 51.4,-313.28"/>
<text text-anchor="middle" x="3.5" y="-544.3" font-family="Times,serif" font-size="14.00">2</text>
</g>
<!-- Insert Date Appeal to Prefecture&#45;&gt;Insert Fine Notification -->
<g id="edge37" class="edge">
<title>Insert Date Appeal to Prefecture&#45;&gt;Insert Fine Notification</title>
<path fill="none" stroke="#ff0000" stroke-width="0.5" stroke-dasharray="5,2" d="M240.43,-740.41C257.17,-745.18 274.43,-751.02 290,-758 305.69,-765.04 321.78,-775.13 335.09,-784.41"/>
<polygon fill="#ff0000" stroke="#ff0000" stroke-width="0.5" points="333.04,-787.24 343.21,-790.22 337.11,-781.55 333.04,-787.24"/>
<text text-anchor="middle" x="319.5" y="-761.8" font-family="Times,serif" font-size="14.00">1</text>
</g>
<!-- Insert Date Appeal to Prefecture&#45;&gt;Send Appeal to Prefecture -->
<g id="edge5" class="edge">
<title>Insert Date Appeal to Prefecture&#45;&gt;Send Appeal to Prefecture</title>
<path fill="none" stroke="#000000" stroke-width="4.76" d="M160.1,-703.7C162.43,-681.09 169.64,-641.47 192,-617 210.66,-596.58 236.43,-582.09 261.94,-571.89"/>
<polygon fill="#000000" stroke="#000000" stroke-width="4.76" points="263.12,-575.89 271.06,-568.52 260.24,-568.08 263.12,-575.89"/>
<text text-anchor="middle" x="199" y="-631.3" font-family="Times,serif" font-size="14.00">73</text>
</g>
<!-- Insert Date Appeal to Prefecture&#45;&gt;Add penalty -->
<g id="edge11" class="edge">
<title>Insert Date Appeal to Prefecture&#45;&gt;Add penalty</title>
<path fill="none" stroke="#000000" stroke-width="1.56" d="M157.13,-703.68C155.55,-682.39 155.13,-645.6 167,-617 192.16,-556.4 203.87,-540.5 253,-497 257.62,-492.91 262.8,-489.1 268.17,-485.63"/>
<polygon fill="#000000" stroke="#000000" stroke-width="1.56" points="269.8,-488.73 276.57,-480.58 266.2,-482.73 269.8,-488.73"/>
<text text-anchor="middle" x="188" y="-587.8" font-family="Times,serif" font-size="14.00">19</text>
</g>
<!-- Receive Result Appeal from Prefecture -->
<g id="node8" class="node">
<title>Receive Result Appeal from Prefecture</title>
<polygon fill="#9b9bff" stroke="black" points="471.5,-653 214.5,-653 214.5,-617 471.5,-617 471.5,-653"/>
<text text-anchor="middle" x="343" y="-631.3" font-family="Times,serif" font-size="14.00">Receive Result Appeal from Prefecture (95)</text>
</g>
<!-- Insert Date Appeal to Prefecture&#45;&gt;Receive Result Appeal from Prefecture -->
<g id="edge23" class="edge">
<title>Insert Date Appeal to Prefecture&#45;&gt;Receive Result Appeal from Prefecture</title>
<path fill="none" stroke="#ff0000" stroke-width="0.56" stroke-dasharray="5,2" d="M196.68,-703.59C225.33,-690.36 264.93,-672.06 295.71,-657.84"/>
<polygon fill="#ff0000" stroke="#ff0000" stroke-width="0.56" points="296.99,-661.11 304.6,-653.74 294.06,-654.75 296.99,-661.11"/>
<text text-anchor="middle" x="265.5" y="-674.8" font-family="Times,serif" font-size="14.00">2</text>
</g>
<!-- Send Appeal to Prefecture&#45;&gt;Add penalty -->
<g id="edge6" class="edge">
<title>Send Appeal to Prefecture&#45;&gt;Add penalty</title>
<path fill="none" stroke="#000000" stroke-width="3.99" d="M330.66,-529.56C325.56,-524.5 320.85,-518.56 318,-512 315.75,-506.82 314.58,-501.05 314.08,-495.32"/>
<polygon fill="#000000" stroke="#000000" stroke-width="3.99" points="317.58,-495.41 314.14,-485.39 310.58,-495.37 317.58,-495.41"/>
<text text-anchor="middle" x="325" y="-500.8" font-family="Times,serif" font-size="14.00">60</text>
</g>
<!-- Send Appeal to Prefecture&#45;&gt;Receive Result Appeal from Prefecture -->
<g id="edge13" class="edge">
<title>Send Appeal to Prefecture&#45;&gt;Receive Result Appeal from Prefecture</title>
<path fill="none" stroke="#000000" stroke-width="2.39" d="M351.74,-566.47C350.35,-577.17 348.54,-591.15 346.93,-603.62"/>
<polygon fill="#000000" stroke="#000000" stroke-width="2.39" points="343.5,-602.84 345.69,-613.21 350.45,-603.74 343.5,-602.84"/>
<text text-anchor="middle" x="356" y="-587.8" font-family="Times,serif" font-size="14.00">33</text>
</g>
<!-- Notify Result Appeal to Offender -->
<g id="node9" class="node">
<title>Notify Result Appeal to Offender</title>
<polygon fill="#9d9dff" stroke="black" points="353.5,-392 128.5,-392 128.5,-356 353.5,-356 353.5,-392"/>
<text text-anchor="middle" x="241" y="-370.3" font-family="Times,serif" font-size="14.00">Notify Result Appeal to Offender (93)</text>
</g>
<!-- Send Appeal to Prefecture&#45;&gt;Notify Result Appeal to Offender -->
<g id="edge25" class="edge">
<title>Send Appeal to Prefecture&#45;&gt;Notify Result Appeal to Offender</title>
<path fill="none" stroke="#ff0000" stroke-width="0.5" stroke-dasharray="5,2" d="M306.85,-529.53C284.38,-518.61 259.52,-502.15 246,-479 232.51,-455.9 232.95,-424.75 235.72,-402.58"/>
<polygon fill="#ff0000" stroke="#ff0000" stroke-width="0.5" points="239.14,-403.35 237.15,-392.94 232.22,-402.31 239.14,-403.35"/>
<text text-anchor="middle" x="249.5" y="-457.3" font-family="Times,serif" font-size="14.00">1</text>
</g>
<!-- Send Appeal to Prefecture&#45;&gt;Payment -->
<g id="edge27" class="edge">
<title>Send Appeal to Prefecture&#45;&gt;Payment</title>
<path fill="none" stroke="#ff0000" stroke-width="0.5" stroke-dasharray="5,2" d="M394.84,-529.54C420.59,-515.5 449,-492.98 449,-462 449,-462 449,-462 449,-286 449,-266.8 446.45,-245.34 443.93,-228.78"/>
<polygon fill="#ff0000" stroke="#ff0000" stroke-width="0.5" points="447.39,-228.25 442.34,-218.93 440.48,-229.36 447.39,-228.25"/>
<text text-anchor="middle" x="452.5" y="-370.3" font-family="Times,serif" font-size="14.00">1</text>
</g>
<!-- Add penalty&#45;&gt;Insert Date Appeal to Prefecture -->
<g id="edge15" class="edge">
<title>Add penalty&#45;&gt;Insert Date Appeal to Prefecture</title>
<path fill="none" stroke="#000000" stroke-width="1.27" d="M264.14,-479.48C237.96,-490.44 207.63,-506.93 187,-530 143.96,-578.13 153.2,-606.44 152,-671 151.88,-677.67 151.34,-679.37 152,-686 152.2,-687.99 152.46,-690.04 152.76,-692.1"/>
<polygon fill="#000000" stroke="#000000" stroke-width="1.27" points="149.28,-692.54 154.49,-701.76 156.17,-691.3 149.28,-692.54"/>
<text text-anchor="middle" x="162" y="-587.8" font-family="Times,serif" font-size="14.00">14</text>
</g>
<!-- Add penalty&#45;&gt;Send Appeal to Prefecture -->
<g id="edge12" class="edge">
<title>Add penalty&#45;&gt;Send Appeal to Prefecture</title>
<path fill="none" stroke="#000000" stroke-width="1.51" d="M324.6,-479.47C329.51,-490.74 336.01,-505.67 341.65,-518.62"/>
<polygon fill="#000000" stroke="#000000" stroke-width="1.51" points="338.4,-519.94 345.6,-527.71 344.82,-517.14 338.4,-519.94"/>
<text text-anchor="middle" x="344" y="-500.8" font-family="Times,serif" font-size="14.00">18</text>
</g>
<!-- Add penalty&#45;&gt;Receive Result Appeal from Prefecture -->
<g id="edge7" class="edge">
<title>Add penalty&#45;&gt;Receive Result Appeal from Prefecture</title>
<path fill="none" stroke="#000000" stroke-width="3.93" d="M372.49,-474.01C402.77,-483.69 437.72,-500.71 456,-530 476.09,-562.19 438.92,-590.73 401.94,-609.73"/>
<polygon fill="#000000" stroke="#000000" stroke-width="3.93" points="400.73,-606.43 393.26,-613.94 403.78,-612.73 400.73,-606.43"/>
<text text-anchor="middle" x="468" y="-544.3" font-family="Times,serif" font-size="14.00">59</text>
</g>
<!-- Add penalty&#45;&gt;Notify Result Appeal to Offender -->
<g id="edge26" class="edge">
<title>Add penalty&#45;&gt;Notify Result Appeal to Offender</title>
<path fill="none" stroke="#ff0000" stroke-width="0.62" stroke-dasharray="5,2" d="M301.62,-442.8C290.77,-430.67 276.06,-414.21 263.84,-400.55"/>
<polygon fill="#ff0000" stroke="#ff0000" stroke-width="0.62" points="266.52,-398.29 257.24,-393.16 261.3,-402.95 266.52,-398.29"/>
<text text-anchor="middle" x="286.5" y="-413.8" font-family="Times,serif" font-size="14.00">3</text>
</g>
<!-- Add penalty&#45;&gt;Payment -->
<g id="edge21" class="edge">
<title>Add penalty&#45;&gt;Payment</title>
<path fill="none" stroke="#ff0000" stroke-width="0.5" stroke-dasharray="5,2" d="M330.2,-442.76C340.05,-429.39 353.4,-410.14 363,-392 392.6,-336.06 417.66,-265.98 430.27,-228.18"/>
<polygon fill="#ff0000" stroke="#ff0000" stroke-width="0.5" points="433.44,-229.73 433.25,-219.13 426.79,-227.54 433.44,-229.73"/>
<text text-anchor="middle" x="397.5" y="-326.8" font-family="Times,serif" font-size="14.00">1</text>
</g>
<!-- Receive Result Appeal from Prefecture&#45;&gt;Send Appeal to Prefecture -->
<g id="edge24" class="edge">
<title>Receive Result Appeal from Prefecture&#45;&gt;Send Appeal to Prefecture</title>
<path fill="none" stroke="#ff0000" stroke-width="0.62" stroke-dasharray="5,2" d="M337.41,-616.72C335.06,-607.01 333.4,-594.73 336,-584 336.65,-581.33 337.54,-578.63 338.57,-575.98"/>
<polygon fill="#ff0000" stroke="#ff0000" stroke-width="0.62" points="341.7,-577.56 342.73,-567.01 335.35,-574.61 341.7,-577.56"/>
<text text-anchor="middle" x="339.5" y="-587.8" font-family="Times,serif" font-size="14.00">3</text>
</g>
<!-- Receive Result Appeal from Prefecture&#45;&gt;Add penalty -->
<g id="edge32" class="edge">
<title>Receive Result Appeal from Prefecture&#45;&gt;Add penalty</title>
<path fill="none" stroke="#ff0000" stroke-width="0.56" stroke-dasharray="5,2" d="M302.12,-616.72C281.27,-605.55 257.86,-588.81 246,-566 230.86,-536.9 257.86,-506.19 282.8,-485.75"/>
<polygon fill="#ff0000" stroke="#ff0000" stroke-width="0.56" points="284.74,-488.67 290.45,-479.75 280.42,-483.16 284.74,-488.67"/>
<text text-anchor="middle" x="249.5" y="-544.3" font-family="Times,serif" font-size="14.00">2</text>
</g>
<!-- Receive Result Appeal from Prefecture&#45;&gt;Notify Result Appeal to Offender -->
<g id="edge8" class="edge">
<title>Receive Result Appeal from Prefecture&#45;&gt;Notify Result Appeal to Offender</title>
<path fill="none" stroke="#000000" stroke-width="5.59" d="M217.07,-616.51C186.37,-611.01 160.85,-604.84 156,-599 107.17,-540.18 172.26,-450.36 212.87,-404.37"/>
<polygon fill="#000000" stroke="#000000" stroke-width="5.59" points="216.4,-407.75 219.52,-397.07 209.18,-401.17 216.4,-407.75"/>
<text text-anchor="middle" x="157" y="-500.8" font-family="Times,serif" font-size="14.00">87</text>
</g>
<!-- Receive Result Appeal from Prefecture&#45;&gt;Payment -->
<g id="edge19" class="edge">
<title>Receive Result Appeal from Prefecture&#45;&gt;Payment</title>
<path fill="none" stroke="#ff0000" stroke-width="0.5" stroke-dasharray="5,2" d="M471.51,-618.21C499.35,-613.08 524.04,-606.69 536,-599 578.57,-571.63 601,-556.11 601,-505.5 601,-505.5 601,-505.5 601,-286 601,-236.98 542.13,-216.17 495.36,-207.38"/>
<polygon fill="#ff0000" stroke="#ff0000" stroke-width="0.5" points="496.19,-203.97 485.74,-205.71 494.99,-210.87 496.19,-203.97"/>
<text text-anchor="middle" x="604.5" y="-413.8" font-family="Times,serif" font-size="14.00">1</text>
</g>
<!-- Receive Result Appeal from Prefecture&#45;&gt;Appeal to Judge -->
<g id="edge30" class="edge">
<title>Receive Result Appeal from Prefecture&#45;&gt;Appeal to Judge</title>
<path fill="none" stroke="#ff0000" stroke-width="0.56" stroke-dasharray="5,2" d="M284.33,-616.55C273.92,-611.87 263.65,-606.08 255,-599 169.99,-529.45 155.31,-496 120,-392 111.61,-367.29 110.13,-337.45 110.44,-316.08"/>
<polygon fill="#ff0000" stroke="#ff0000" stroke-width="0.56" points="113.93,-316.4 110.73,-306.3 106.94,-316.19 113.93,-316.4"/>
<text text-anchor="middle" x="155.5" y="-457.3" font-family="Times,serif" font-size="14.00">2</text>
</g>
<!-- Send for Credit Collection -->
<g id="node10" class="node">
<title>Send for Credit Collection</title>
<polygon fill="#e3e3ff" stroke="black" points="286.5,-131 99.5,-131 99.5,-95 286.5,-95 286.5,-131"/>
<text text-anchor="middle" x="193" y="-109.3" font-family="Times,serif" font-size="14.00">Send for Credit Collection (39)</text>
</g>
<!-- Notify Result Appeal to Offender&#45;&gt;Send for Credit Collection -->
<g id="edge9" class="edge">
<title>Notify Result Appeal to Offender&#45;&gt;Send for Credit Collection</title>
<path fill="none" stroke="#000000" stroke-width="2.63" d="M237.78,-355.6C229.77,-312.38 208.88,-199.67 198.72,-144.84"/>
<polygon fill="#000000" stroke="#000000" stroke-width="2.63" points="202.2,-144.43 196.94,-135.23 195.32,-145.7 202.2,-144.43"/>
<text text-anchor="middle" x="225" y="-239.8" font-family="Times,serif" font-size="14.00">37</text>
</g>
<!-- Notify Result Appeal to Offender&#45;&gt;Payment -->
<g id="edge10" class="edge">
<title>Notify Result Appeal to Offender&#45;&gt;Payment</title>
<path fill="none" stroke="#000000" stroke-width="2.45" d="M300.4,-355.66C310.62,-350.99 320.64,-345.17 329,-338 368.93,-303.76 353.31,-274.63 389,-236 391.98,-232.77 395.31,-229.67 398.8,-226.74"/>
<polygon fill="#000000" stroke="#000000" stroke-width="2.45" points="400.79,-229.62 406.59,-220.76 396.53,-224.07 400.79,-229.62"/>
<text text-anchor="middle" x="374" y="-283.3" font-family="Times,serif" font-size="14.00">34</text>
</g>
<!-- Notify Result Appeal to Offender&#45;&gt;Appeal to Judge -->
<g id="edge16" class="edge">
<title>Notify Result Appeal to Offender&#45;&gt;Appeal to Judge</title>
<path fill="none" stroke="#000000" stroke-width="1.27" d="M196.68,-355.53C185.94,-350.51 174.75,-344.58 165,-338 154.73,-331.06 144.56,-322.11 135.91,-313.71"/>
<polygon fill="#000000" stroke="#000000" stroke-width="1.27" points="138.4,-311.25 128.87,-306.61 133.43,-316.18 138.4,-311.25"/>
<text text-anchor="middle" x="172" y="-326.8" font-family="Times,serif" font-size="14.00">14</text>
</g>
<!-- end_node -->
<g id="node13" class="node">
<title>end_node</title>
<ellipse fill="none" stroke="black" cx="284" cy="-22" rx="18" ry="18"/>
<ellipse fill="none" stroke="black" cx="284" cy="-22" rx="22" ry="22"/>
<text text-anchor="start" x="279.5" y="-18.3" font-family="Times,serif" font-size="14.00">■</text>
</g>
<!-- Notify Result Appeal to Offender&#45;&gt;end_node -->
<g id="edge42" class="edge">
<title>Notify Result Appeal to Offender&#45;&gt;end_node</title>
<path fill="none" stroke="#000000" stroke-width="0.91" d="M269.82,-355.54C290.6,-340.52 315,-316.76 315,-288 315,-288 315,-288 315,-112 315,-91 307.21,-68.68 299.43,-51.65"/>
<polygon fill="#000000" stroke="#000000" stroke-width="0.91" points="302.77,-50.51 295.27,-43.03 296.47,-53.56 302.77,-50.51"/>
<text text-anchor="middle" x="318.5" y="-196.3" font-family="Times,serif" font-size="14.00">8</text>
</g>
<!-- Send for Credit Collection&#45;&gt;end_node -->
<g id="edge39" class="edge">
<title>Send for Credit Collection&#45;&gt;end_node</title>
<path fill="none" stroke="#000000" stroke-width="2.75" d="M210.55,-94.84C224.23,-81.46 243.41,-62.7 258.74,-47.7"/>
<polygon fill="#000000" stroke="#000000" stroke-width="2.75" points="260.95,-50.44 265.65,-40.94 256.06,-45.43 260.95,-50.44"/>
<text text-anchor="middle" x="250" y="-65.8" font-family="Times,serif" font-size="14.00">39</text>
</g>
<!-- Payment&#45;&gt;Send Fine -->
<g id="edge29" class="edge">
<title>Payment&#45;&gt;Send Fine</title>
<path fill="none" stroke="#ff0000" stroke-width="0.5" stroke-dasharray="5,2" d="M484.9,-200.52C546.16,-202.55 647,-216.46 647,-286 647,-810 647,-810 647,-810 647,-851.15 526.36,-875.86 450.72,-887.31"/>
<polygon fill="#ff0000" stroke="#ff0000" stroke-width="0.5" points="450.49,-883.8 441.11,-888.72 451.51,-890.73 450.49,-883.8"/>
<text text-anchor="middle" x="650.5" y="-544.3" font-family="Times,serif" font-size="14.00">1</text>
</g>
<!-- Payment&#45;&gt;Receive Result Appeal from Prefecture -->
<g id="edge22" class="edge">
<title>Payment&#45;&gt;Receive Result Appeal from Prefecture</title>
<path fill="none" stroke="#ff0000" stroke-width="0.5" stroke-dasharray="5,2" d="M479.14,-218.42C504.69,-232.5 533,-255.09 533,-286 533,-462 533,-462 533,-462 533,-534.37 506.68,-561.14 445,-599 436.53,-604.2 427.19,-608.74 417.71,-612.69"/>
<polygon fill="#ff0000" stroke="#ff0000" stroke-width="0.5" points="416.53,-609.39 408.5,-616.3 419.09,-615.9 416.53,-609.39"/>
<text text-anchor="middle" x="536.5" y="-413.8" font-family="Times,serif" font-size="14.00">1</text>
</g>
<!-- Payment&#45;&gt;Send for Credit Collection -->
<g id="edge20" class="edge">
<title>Payment&#45;&gt;Send for Credit Collection</title>
<path fill="none" stroke="#ff0000" stroke-width="0.5" stroke-dasharray="5,2" d="M393.02,-183.11C353.62,-169.5 296.59,-149.79 253.5,-134.9"/>
<polygon fill="#ff0000" stroke="#ff0000" stroke-width="0.5" points="254.73,-131.63 244.13,-131.67 252.44,-138.24 254.73,-131.63"/>
<text text-anchor="middle" x="333.5" y="-152.8" font-family="Times,serif" font-size="14.00">1</text>
</g>
<!-- Payment&#45;&gt;Payment -->
<g id="edge18" class="edge">
<title>Payment&#45;&gt;Payment</title>
<path fill="none" stroke="#000000" stroke-width="0.85" d="M484.95,-207.94C495.1,-207.19 502.5,-204.55 502.5,-200 502.5,-197.37 500.03,-195.38 495.98,-194.02"/>
<polygon fill="#000000" stroke="#000000" stroke-width="0.85" points="496.68,-190.59 486.22,-192.29 495.46,-197.48 496.68,-190.59"/>
<text text-anchor="middle" x="506" y="-196.3" font-family="Times,serif" font-size="14.00">7</text>
</g>
<!-- Payment&#45;&gt;end_node -->
<g id="edge40" class="edge">
<title>Payment&#45;&gt;end_node</title>
<path fill="none" stroke="#000000" stroke-width="2.75" d="M426.71,-181.74C407.29,-154.94 367.72,-102.21 329,-62 323.53,-56.32 317.33,-50.57 311.31,-45.28"/>
<polygon fill="#000000" stroke="#000000" stroke-width="2.75" points="313.94,-42.92 304.05,-39.1 309.4,-48.25 313.94,-42.92"/>
<text text-anchor="middle" x="395" y="-109.3" font-family="Times,serif" font-size="14.00">39</text>
</g>
<!-- Appeal to Judge&#45;&gt;Insert Date Appeal to Prefecture -->
<g id="edge34" class="edge">
<title>Appeal to Judge&#45;&gt;Insert Date Appeal to Prefecture</title>
<path fill="none" stroke="#ff0000" stroke-width="0.56" stroke-dasharray="5,2" d="M83.18,-305.46C62.4,-320.48 38,-344.24 38,-373 38,-636 38,-636 38,-636 38,-665.74 62.78,-685.97 89.91,-699.21"/>
<polygon fill="#ff0000" stroke="#ff0000" stroke-width="0.56" points="88.24,-702.29 98.79,-703.25 91.14,-695.92 88.24,-702.29"/>
<text text-anchor="middle" x="41.5" y="-500.8" font-family="Times,serif" font-size="14.00">2</text>
</g>
<!-- Appeal to Judge&#45;&gt;Notify Result Appeal to Offender -->
<g id="edge31" class="edge">
<title>Appeal to Judge&#45;&gt;Notify Result Appeal to Offender</title>
<path fill="none" stroke="#ff0000" stroke-width="0.56" stroke-dasharray="5,2" d="M148.56,-305.44C158.65,-310.7 169.45,-316.74 179,-323 190.66,-330.64 202.74,-340.01 213.12,-348.57"/>
<polygon fill="#ff0000" stroke="#ff0000" stroke-width="0.56" points="210.82,-351.21 220.73,-354.97 215.33,-345.85 210.82,-351.21"/>
<text text-anchor="middle" x="201.5" y="-326.8" font-family="Times,serif" font-size="14.00">2</text>
</g>
<!-- Appeal to Judge&#45;&gt;Send for Credit Collection -->
<g id="edge35" class="edge">
<title>Appeal to Judge&#45;&gt;Send for Credit Collection</title>
<path fill="none" stroke="#ff0000" stroke-width="0.5" stroke-dasharray="5,2" d="M120.21,-268.56C134.4,-238.43 163.6,-176.43 180.38,-140.79"/>
<polygon fill="#ff0000" stroke="#ff0000" stroke-width="0.5" points="183.35,-142.71 184.44,-132.17 177.02,-139.73 183.35,-142.71"/>
<text text-anchor="middle" x="163.5" y="-196.3" font-family="Times,serif" font-size="14.00">1</text>
</g>
<!-- Appeal to Judge&#45;&gt;Payment -->
<g id="edge17" class="edge">
<title>Appeal to Judge&#45;&gt;Payment</title>
<path fill="none" stroke="#ff0000" stroke-width="0.68" stroke-dasharray="5,2" d="M138.86,-268.54C157.09,-257.5 182.13,-243.88 206,-236 257.21,-219.09 272.67,-226.01 326,-218 344.36,-215.24 364.41,-212.23 382.44,-209.51"/>
<polygon fill="#ff0000" stroke="#ff0000" stroke-width="0.68" points="382.71,-213.01 392.08,-208.06 381.67,-206.09 382.71,-213.01"/>
<text text-anchor="middle" x="209.5" y="-239.8" font-family="Times,serif" font-size="14.00">4</text>
</g>
<!-- Appeal to Judge&#45;&gt;end_node -->
<g id="edge41" class="edge">
<title>Appeal to Judge&#45;&gt;end_node</title>
<path fill="none" stroke="#000000" stroke-width="0.97" d="M103.07,-268.57C86,-232.56 53.62,-148.85 91,-95 127.13,-42.95 205.69,-28.46 250.65,-24.47"/>
<polygon fill="#000000" stroke="#000000" stroke-width="0.97" points="250.66,-27.98 260.37,-23.74 250.14,-21 250.66,-27.98"/>
<text text-anchor="middle" x="76.5" y="-152.8" font-family="Times,serif" font-size="14.00">9</text>
</g>
</g>
</svg>
