<?xml version="1.0" encoding="UTF-8" standalone="no"?>
<!DOCTYPE svg PUBLIC "-//W3C//DTD SVG 1.1//EN"
 "http://www.w3.org/Graphics/SVG/1.1/DTD/svg11.dtd">
<!-- Generated by graphviz version 7.0.5 (0)
 -->
<!-- Title: dfg Pages: 1 -->
<svg width="477pt" height="922pt"
 viewBox="0.00 0.00 476.50 922.00" xmlns="http://www.w3.org/2000/svg" xmlns:xlink="http://www.w3.org/1999/xlink">
<g id="graph0" class="graph" transform="scale(1 1) rotate(0) translate(4 918)">
<title>dfg</title>
<polygon fill="white" stroke="none" points="-4,4 -4,-918 472.5,-918 472.5,4 -4,4"/>
<!-- start_node -->
<g id="node1" class="node">
<title>start_node</title>
<ellipse fill="none" stroke="black" cx="85" cy="-896" rx="18" ry="18"/>
<text text-anchor="start" x="80.5" y="-892.3" font-family="Times,serif" font-size="14.00">●</text>
</g>
<!-- Create Fine -->
<g id="node2" class="node">
<title>Create Fine</title>
<polygon fill="#9b9bff" stroke="black" points="138,-827 32,-827 32,-791 138,-791 138,-827"/>
<text text-anchor="middle" x="85" y="-805.3" font-family="Times,serif" font-size="14.00">Create Fine (36)</text>
</g>
<!-- start_node&#45;&gt;Create Fine -->
<g id="edge1" class="edge">
<title>start_node&#45;&gt;Create Fine</title>
<path fill="none" stroke="#000000" stroke-width="6" d="M85,-877.8C85,-867.96 85,-855.27 85,-843.53"/>
<polygon fill="#000000" stroke="#000000" stroke-width="6" points="90.25,-843.92 85,-833.92 79.75,-843.92 90.25,-843.92"/>
<text text-anchor="middle" x="92" y="-848.8" font-family="Times,serif" font-size="14.00">36</text>
</g>
<!-- Send Fine -->
<g id="node3" class="node">
<title>Send Fine</title>
<polygon fill="#9b9bff" stroke="black" points="134,-740 36,-740 36,-704 134,-704 134,-740"/>
<text text-anchor="middle" x="85" y="-718.3" font-family="Times,serif" font-size="14.00">Send Fine (36)</text>
</g>
<!-- Create Fine&#45;&gt;Send Fine -->
<g id="edge2" class="edge">
<title>Create Fine&#45;&gt;Send Fine</title>
<path fill="none" stroke="#000000" stroke-width="6" d="M85,-790.8C85,-780.96 85,-768.27 85,-756.53"/>
<polygon fill="#000000" stroke="#000000" stroke-width="6" points="90.25,-756.92 85,-746.92 79.75,-756.92 90.25,-756.92"/>
<text text-anchor="middle" x="92" y="-761.8" font-family="Times,serif" font-size="14.00">36</text>
</g>
<!-- Insert Fine Notification -->
<g id="node4" class="node">
<title>Insert Fine Notification</title>
<polygon fill="#9b9bff" stroke="black" points="170,-653 0,-653 0,-617 170,-617 170,-653"/>
<text text-anchor="middle" x="85" y="-631.3" font-family="Times,serif" font-size="14.00">Insert Fine Notification (36)</text>
</g>
<!-- Send Fine&#45;&gt;Insert Fine Notification -->
<g id="edge3" class="edge">
<title>Send Fine&#45;&gt;Insert Fine Notification</title>
<path fill="none" stroke="#000000" stroke-width="6" d="M85,-703.8C85,-693.96 85,-681.27 85,-669.53"/>
<polygon fill="#000000" stroke="#000000" stroke-width="6" points="90.25,-669.92 85,-659.92 79.75,-669.92 90.25,-669.92"/>
<text text-anchor="middle" x="92" y="-674.8" font-family="Times,serif" font-size="14.00">36</text>
</g>
<!-- Insert Date Appeal to Prefecture -->
<g id="node5" class="node">
<title>Insert Date Appeal to Prefecture</title>
<polygon fill="#9b9bff" stroke="black" points="319,-566 101,-566 101,-530 319,-530 319,-566"/>
<text text-anchor="middle" x="210" y="-544.3" font-family="Times,serif" font-size="14.00">Insert Date Appeal to Prefecture (36)</text>
</g>
<!-- Insert Fine Notification&#45;&gt;Insert Date Appeal to Prefecture -->
<g id="edge4" class="edge">
<title>Insert Fine Notification&#45;&gt;Insert Date Appeal to Prefecture</title>
<path fill="none" stroke="#000000" stroke-width="4.06" d="M110.6,-616.59C128.04,-604.73 151.46,-588.81 171.18,-575.4"/>
<polygon fill="#000000" stroke="#000000" stroke-width="4.06" points="173.15,-578.35 179.42,-569.79 169.16,-572.48 173.15,-578.35"/>
<text text-anchor="middle" x="161" y="-587.8" font-family="Times,serif" font-size="14.00">24</text>
</g>
<!-- Add penalty -->
<g id="node6" class="node">
<title>Add penalty</title>
<polygon fill="#9b9bff" stroke="black" points="195,-479 85,-479 85,-443 195,-443 195,-479"/>
<text text-anchor="middle" x="140" y="-457.3" font-family="Times,serif" font-size="14.00">Add penalty (36)</text>
</g>
<!-- Insert Fine Notification&#45;&gt;Add penalty -->
<g id="edge10" class="edge">
<title>Insert Fine Notification&#45;&gt;Add penalty</title>
<path fill="none" stroke="#000000" stroke-width="2.12" d="M79.5,-616.76C73.7,-595.56 66.82,-558.85 78,-530 84.13,-514.17 95.85,-499.77 107.47,-488.33"/>
<polygon fill="#000000" stroke="#000000" stroke-width="2.12" points="109.75,-490.99 114.72,-481.64 105,-485.85 109.75,-490.99"/>
<text text-anchor="middle" x="85" y="-544.3" font-family="Times,serif" font-size="14.00">12</text>
</g>
<!-- Insert Date Appeal to Prefecture&#45;&gt;Add penalty -->
<g id="edge5" class="edge">
<title>Insert Date Appeal to Prefecture&#45;&gt;Add penalty</title>
<path fill="none" stroke="#000000" stroke-width="3.25" d="M185.28,-529.63C178.86,-524.42 172.28,-518.38 167,-512 162.14,-506.13 157.76,-499.26 154.01,-492.52"/>
<polygon fill="#000000" stroke="#000000" stroke-width="3.25" points="157.13,-490.94 149.47,-483.62 150.9,-494.12 157.13,-490.94"/>
<text text-anchor="middle" x="174" y="-500.8" font-family="Times,serif" font-size="14.00">19</text>
</g>
<!-- Send Appeal to Prefecture -->
<g id="node7" class="node">
<title>Send Appeal to Prefecture</title>
<polygon fill="#9f9fff" stroke="black" points="209.5,-218 24.5,-218 24.5,-182 209.5,-182 209.5,-218"/>
<text text-anchor="middle" x="117" y="-196.3" font-family="Times,serif" font-size="14.00">Send Appeal to Prefecture (35)</text>
</g>
<!-- Insert Date Appeal to Prefecture&#45;&gt;Send Appeal to Prefecture -->
<g id="edge12" class="edge">
<title>Insert Date Appeal to Prefecture&#45;&gt;Send Appeal to Prefecture</title>
<path fill="none" stroke="#000000" stroke-width="2.44" d="M107.23,-529.51C73.27,-517.37 44,-496.81 44,-462 44,-462 44,-462 44,-286 44,-261.93 61.05,-241.28 78.67,-226.35"/>
<polygon fill="#000000" stroke="#000000" stroke-width="2.44" points="80.38,-229.46 86.08,-220.53 76.05,-223.96 80.38,-229.46"/>
<text text-anchor="middle" x="51" y="-370.3" font-family="Times,serif" font-size="14.00">14</text>
</g>
<!-- Receive Result Appeal from Prefecture -->
<g id="node8" class="node">
<title>Receive Result Appeal from Prefecture</title>
<polygon fill="#9b9bff" stroke="black" points="409.5,-392 152.5,-392 152.5,-356 409.5,-356 409.5,-392"/>
<text text-anchor="middle" x="281" y="-370.3" font-family="Times,serif" font-size="14.00">Receive Result Appeal from Prefecture (36)</text>
</g>
<!-- Insert Date Appeal to Prefecture&#45;&gt;Receive Result Appeal from Prefecture -->
<g id="edge18" class="edge">
<title>Insert Date Appeal to Prefecture&#45;&gt;Receive Result Appeal from Prefecture</title>
<path fill="none" stroke="#000000" stroke-width="0.66" d="M217.2,-529.56C229.58,-499.56 255.01,-437.96 269.75,-402.25"/>
<polygon fill="#000000" stroke="#000000" stroke-width="0.66" points="272.82,-403.99 273.4,-393.41 266.35,-401.32 272.82,-403.99"/>
<text text-anchor="middle" x="255.5" y="-457.3" font-family="Times,serif" font-size="14.00">3</text>
</g>
<!-- Add penalty&#45;&gt;Insert Date Appeal to Prefecture -->
<g id="edge11" class="edge">
<title>Add penalty&#45;&gt;Insert Date Appeal to Prefecture</title>
<path fill="none" stroke="#000000" stroke-width="2.12" d="M162.98,-479.26C169.23,-484.56 175.73,-490.67 181,-497 186.42,-503.5 191.41,-511.14 195.67,-518.46"/>
<polygon fill="#000000" stroke="#000000" stroke-width="2.12" points="192.5,-519.96 200.37,-527.06 198.64,-516.6 192.5,-519.96"/>
<text text-anchor="middle" x="198" y="-500.8" font-family="Times,serif" font-size="14.00">12</text>
</g>
<!-- Add penalty&#45;&gt;Send Appeal to Prefecture -->
<g id="edge6" class="edge">
<title>Add penalty&#45;&gt;Send Appeal to Prefecture</title>
<path fill="none" stroke="#000000" stroke-width="3.25" d="M122.38,-442.64C117.8,-437.34 113.24,-431.25 110,-425 91.65,-389.59 92.93,-377.58 88,-338 83.41,-301.16 94.62,-259.52 104.41,-231.91"/>
<polygon fill="#000000" stroke="#000000" stroke-width="3.25" points="107.61,-233.34 107.86,-222.75 101.06,-230.87 107.61,-233.34"/>
<text text-anchor="middle" x="95" y="-326.8" font-family="Times,serif" font-size="14.00">19</text>
</g>
<!-- Add penalty&#45;&gt;Receive Result Appeal from Prefecture -->
<g id="edge17" class="edge">
<title>Add penalty&#45;&gt;Receive Result Appeal from Prefecture</title>
<path fill="none" stroke="#000000" stroke-width="0.99" d="M165.71,-442.61C180.53,-432.76 199.62,-420.38 217,-410 223.88,-405.89 231.26,-401.68 238.49,-397.66"/>
<polygon fill="#000000" stroke="#000000" stroke-width="0.99" points="239.79,-400.94 246.87,-393.05 236.42,-394.81 239.79,-400.94"/>
<text text-anchor="middle" x="220.5" y="-413.8" font-family="Times,serif" font-size="14.00">5</text>
</g>
<!-- Send Appeal to Prefecture&#45;&gt;Add penalty -->
<g id="edge16" class="edge">
<title>Send Appeal to Prefecture&#45;&gt;Add penalty</title>
<path fill="none" stroke="#000000" stroke-width="0.99" d="M118.54,-218.32C122.43,-262.1 132.68,-377.55 137.47,-431.48"/>
<polygon fill="#000000" stroke="#000000" stroke-width="0.99" points="133.95,-431.47 138.32,-441.12 140.92,-430.85 133.95,-431.47"/>
<text text-anchor="middle" x="132.5" y="-326.8" font-family="Times,serif" font-size="14.00">5</text>
</g>
<!-- Send Appeal to Prefecture&#45;&gt;Receive Result Appeal from Prefecture -->
<g id="edge7" class="edge">
<title>Send Appeal to Prefecture&#45;&gt;Receive Result Appeal from Prefecture</title>
<path fill="none" stroke="#000000" stroke-width="4.71" d="M127.51,-218.46C145.21,-247.84 179.14,-304.1 180,-305 195.61,-321.38 215.83,-335.95 234.07,-347.36"/>
<polygon fill="#000000" stroke="#000000" stroke-width="4.71" points="231.84,-350.83 242.54,-352.45 236.08,-343.77 231.84,-350.83"/>
<text text-anchor="middle" x="187" y="-283.3" font-family="Times,serif" font-size="14.00">28</text>
</g>
<!-- Send for Credit Collection -->
<g id="node10" class="node">
<title>Send for Credit Collection</title>
<polygon fill="#e1e1ff" stroke="black" points="315.5,-131 128.5,-131 128.5,-95 315.5,-95 315.5,-131"/>
<text text-anchor="middle" x="222" y="-109.3" font-family="Times,serif" font-size="14.00">Send for Credit Collection (19)</text>
</g>
<!-- Send Appeal to Prefecture&#45;&gt;Send for Credit Collection -->
<g id="edge20" class="edge">
<title>Send Appeal to Prefecture&#45;&gt;Send for Credit Collection</title>
<path fill="none" stroke="#ff0000" stroke-width="0.5" stroke-dasharray="5,2" d="M138.5,-181.59C154.07,-168.99 175.31,-151.79 192.47,-137.9"/>
<polygon fill="#ff0000" stroke="#ff0000" stroke-width="0.5" points="194.37,-140.87 199.94,-131.86 189.96,-135.43 194.37,-140.87"/>
<text text-anchor="middle" x="178.5" y="-152.8" font-family="Times,serif" font-size="14.00">2</text>
</g>
<!-- Notify Result Appeal to Offender -->
<g id="node9" class="node">
<title>Notify Result Appeal to Offender</title>
<polygon fill="#9b9bff" stroke="black" points="427.5,-305 202.5,-305 202.5,-269 427.5,-269 427.5,-305"/>
<text text-anchor="middle" x="315" y="-283.3" font-family="Times,serif" font-size="14.00">Notify Result Appeal to Offender (36)</text>
</g>
<!-- Receive Result Appeal from Prefecture&#45;&gt;Notify Result Appeal to Offender -->
<g id="edge8" class="edge">
<title>Receive Result Appeal from Prefecture&#45;&gt;Notify Result Appeal to Offender</title>
<path fill="none" stroke="#000000" stroke-width="6" d="M287.88,-355.8C291.91,-345.73 297.13,-332.67 301.91,-320.72"/>
<polygon fill="#000000" stroke="#000000" stroke-width="6" points="306.78,-322.69 305.62,-311.46 297.03,-318.79 306.78,-322.69"/>
<text text-anchor="middle" x="307" y="-326.8" font-family="Times,serif" font-size="14.00">36</text>
</g>
<!-- Notify Result Appeal to Offender&#45;&gt;Send Appeal to Prefecture -->
<g id="edge19" class="edge">
<title>Notify Result Appeal to Offender&#45;&gt;Send Appeal to Prefecture</title>
<path fill="none" stroke="#ff0000" stroke-width="0.5" stroke-dasharray="5,2" d="M268.53,-268.57C254.47,-263.12 239.04,-256.97 225,-251 204.44,-242.25 181.97,-231.97 162.89,-223.02"/>
<polygon fill="#ff0000" stroke="#ff0000" stroke-width="0.5" points="164.46,-219.89 153.92,-218.79 161.48,-226.22 164.46,-219.89"/>
<text text-anchor="middle" x="228.5" y="-239.8" font-family="Times,serif" font-size="14.00">2</text>
</g>
<!-- Notify Result Appeal to Offender&#45;&gt;Send for Credit Collection -->
<g id="edge9" class="edge">
<title>Notify Result Appeal to Offender&#45;&gt;Send for Credit Collection</title>
<path fill="none" stroke="#000000" stroke-width="2.6" d="M296.55,-268.77C283.66,-255.86 266.86,-237.18 256,-218 242.99,-195.03 234.09,-166.36 228.67,-144.95"/>
<polygon fill="#000000" stroke="#000000" stroke-width="2.6" points="232.09,-144.19 226.37,-135.27 225.27,-145.81 232.09,-144.19"/>
<text text-anchor="middle" x="263" y="-196.3" font-family="Times,serif" font-size="14.00">15</text>
</g>
<!-- Appeal to Judge -->
<g id="node11" class="node">
<title>Appeal to Judge</title>
<polygon fill="#fafaff" stroke="black" points="409.5,-218 278.5,-218 278.5,-182 409.5,-182 409.5,-218"/>
<text text-anchor="middle" x="344" y="-196.3" font-family="Times,serif" font-size="14.00">Appeal to Judge (13)</text>
</g>
<!-- Notify Result Appeal to Offender&#45;&gt;Appeal to Judge -->
<g id="edge13" class="edge">
<title>Notify Result Appeal to Offender&#45;&gt;Appeal to Judge</title>
<path fill="none" stroke="#000000" stroke-width="2.28" d="M320.87,-268.8C324.58,-257.93 329.47,-243.58 333.8,-230.88"/>
<polygon fill="#000000" stroke="#000000" stroke-width="2.28" points="337.01,-232.33 336.93,-221.73 330.39,-230.07 337.01,-232.33"/>
<text text-anchor="middle" x="338" y="-239.8" font-family="Times,serif" font-size="14.00">13</text>
</g>
<!-- Payment -->
<g id="node12" class="node">
<title>Payment</title>
<polygon fill="#ffffff" stroke="black" points="468.5,-131 377.5,-131 377.5,-95 468.5,-95 468.5,-131"/>
<text text-anchor="middle" x="423" y="-109.3" font-family="Times,serif" font-size="14.00">Payment (12)</text>
</g>
<!-- Notify Result Appeal to Offender&#45;&gt;Payment -->
<g id="edge14" class="edge">
<title>Notify Result Appeal to Offender&#45;&gt;Payment</title>
<path fill="none" stroke="#000000" stroke-width="1.15" d="M359.73,-268.57C381.61,-257.56 405.98,-241 419,-218 431.93,-195.15 431.47,-164.74 428.66,-142.71"/>
<polygon fill="#000000" stroke="#000000" stroke-width="1.15" points="432.12,-142.19 427.13,-132.84 425.2,-143.26 432.12,-142.19"/>
<text text-anchor="middle" x="432.5" y="-196.3" font-family="Times,serif" font-size="14.00">6</text>
</g>
<!-- end_node -->
<g id="node13" class="node">
<title>end_node</title>
<ellipse fill="none" stroke="black" cx="352" cy="-22" rx="18" ry="18"/>
<ellipse fill="none" stroke="black" cx="352" cy="-22" rx="22" ry="22"/>
<text text-anchor="start" x="347.5" y="-18.3" font-family="Times,serif" font-size="14.00">■</text>
</g>
<!-- Send for Credit Collection&#45;&gt;end_node -->
<g id="edge22" class="edge">
<title>Send for Credit Collection&#45;&gt;end_node</title>
<path fill="none" stroke="#000000" stroke-width="3.25" d="M247.37,-94.63C268.75,-80 299.36,-59.04 321.95,-43.57"/>
<polygon fill="#000000" stroke="#000000" stroke-width="3.25" points="323.87,-46.5 330.14,-37.97 319.91,-40.73 323.87,-46.5"/>
<text text-anchor="middle" x="301" y="-65.8" font-family="Times,serif" font-size="14.00">19</text>
</g>
<!-- Appeal to Judge&#45;&gt;Send for Credit Collection -->
<g id="edge21" class="edge">
<title>Appeal to Judge&#45;&gt;Send for Credit Collection</title>
<path fill="none" stroke="#ff0000" stroke-width="0.5" stroke-dasharray="5,2" d="M319.02,-181.59C300.76,-168.87 275.8,-151.48 255.76,-137.52"/>
<polygon fill="#ff0000" stroke="#ff0000" stroke-width="0.5" points="257.78,-134.66 247.57,-131.82 253.77,-140.4 257.78,-134.66"/>
<text text-anchor="middle" x="293.5" y="-152.8" font-family="Times,serif" font-size="14.00">2</text>
</g>
<!-- Appeal to Judge&#45;&gt;Payment -->
<g id="edge15" class="edge">
<title>Appeal to Judge&#45;&gt;Payment</title>
<path fill="none" stroke="#000000" stroke-width="1.15" d="M359.99,-181.8C371.16,-169.78 386.27,-153.52 398.89,-139.94"/>
<polygon fill="#000000" stroke="#000000" stroke-width="1.15" points="401.34,-142.45 405.58,-132.74 396.21,-137.68 401.34,-142.45"/>
<text text-anchor="middle" x="391.5" y="-152.8" font-family="Times,serif" font-size="14.00">6</text>
</g>
<!-- Appeal to Judge&#45;&gt;end_node -->
<g id="edge23" class="edge">
<title>Appeal to Judge&#45;&gt;end_node</title>
<path fill="none" stroke="#000000" stroke-width="0.99" d="M344.78,-181.8C346.11,-152.61 348.82,-92.91 350.52,-55.6"/>
<polygon fill="#000000" stroke="#000000" stroke-width="0.99" points="354,-55.98 350.96,-45.83 347.01,-55.66 354,-55.98"/>
<text text-anchor="middle" x="351.5" y="-109.3" font-family="Times,serif" font-size="14.00">5</text>
</g>
<!-- Payment&#45;&gt;end_node -->
<g id="edge24" class="edge">
<title>Payment&#45;&gt;end_node</title>
<path fill="none" stroke="#000000" stroke-width="2.12" d="M409.31,-94.84C399.13,-82.08 385.04,-64.41 373.38,-49.8"/>
<polygon fill="#000000" stroke="#000000" stroke-width="2.12" points="376.38,-47.95 367.41,-42.31 370.91,-52.31 376.38,-47.95"/>
<text text-anchor="middle" x="400" y="-65.8" font-family="Times,serif" font-size="14.00">12</text>
</g>
</g>
</svg>
