<?xml version="1.0" encoding="UTF-8" standalone="no"?>
<!DOCTYPE svg PUBLIC "-//W3C//DTD SVG 1.1//EN"
 "http://www.w3.org/Graphics/SVG/1.1/DTD/svg11.dtd">
<!-- Generated by graphviz version 7.0.5 (0)
 -->
<!-- Title: dfg Pages: 1 -->
<svg width="495pt" height="1009pt"
 viewBox="0.00 0.00 495.00 1009.00" xmlns="http://www.w3.org/2000/svg" xmlns:xlink="http://www.w3.org/1999/xlink">
<g id="graph0" class="graph" transform="scale(1 1) rotate(0) translate(4 1005)">
<title>dfg</title>
<polygon fill="white" stroke="none" points="-4,4 -4,-1005 491,-1005 491,4 -4,4"/>
<!-- start_node -->
<g id="node1" class="node">
<title>start_node</title>
<ellipse fill="none" stroke="black" cx="316" cy="-983" rx="18" ry="18"/>
<text text-anchor="start" x="311.5" y="-979.3" font-family="Times,serif" font-size="14.00">●</text>
</g>
<!-- Create Fine -->
<g id="node2" class="node">
<title>Create Fine</title>
<polygon fill="#f4f4ff" stroke="black" points="369,-914 263,-914 263,-878 369,-878 369,-914"/>
<text text-anchor="middle" x="316" y="-892.3" font-family="Times,serif" font-size="14.00">Create Fine (10)</text>
</g>
<!-- start_node&#45;&gt;Create Fine -->
<g id="edge1" class="edge">
<title>start_node&#45;&gt;Create Fine</title>
<path fill="none" stroke="#000000" stroke-width="1.53" d="M316,-964.8C316,-953.81 316,-939.28 316,-926.48"/>
<polygon fill="#000000" stroke="#000000" stroke-width="1.53" points="319.5,-926.78 316,-916.78 312.5,-926.78 319.5,-926.78"/>
<text text-anchor="middle" x="323" y="-935.8" font-family="Times,serif" font-size="14.00">10</text>
</g>
<!-- Send Fine -->
<g id="node3" class="node">
<title>Send Fine</title>
<polygon fill="#f4f4ff" stroke="black" points="365,-827 267,-827 267,-791 365,-791 365,-827"/>
<text text-anchor="middle" x="316" y="-805.3" font-family="Times,serif" font-size="14.00">Send Fine (10)</text>
</g>
<!-- Create Fine&#45;&gt;Send Fine -->
<g id="edge2" class="edge">
<title>Create Fine&#45;&gt;Send Fine</title>
<path fill="none" stroke="#000000" stroke-width="1.53" d="M316,-877.8C316,-866.81 316,-852.28 316,-839.48"/>
<polygon fill="#000000" stroke="#000000" stroke-width="1.53" points="319.5,-839.78 316,-829.78 312.5,-839.78 319.5,-839.78"/>
<text text-anchor="middle" x="323" y="-848.8" font-family="Times,serif" font-size="14.00">10</text>
</g>
<!-- Insert Fine Notification -->
<g id="node4" class="node">
<title>Insert Fine Notification</title>
<polygon fill="#f4f4ff" stroke="black" points="401,-740 231,-740 231,-704 401,-704 401,-740"/>
<text text-anchor="middle" x="316" y="-718.3" font-family="Times,serif" font-size="14.00">Insert Fine Notification (10)</text>
</g>
<!-- Send Fine&#45;&gt;Insert Fine Notification -->
<g id="edge3" class="edge">
<title>Send Fine&#45;&gt;Insert Fine Notification</title>
<path fill="none" stroke="#000000" stroke-width="1.53" d="M316,-790.8C316,-779.81 316,-765.28 316,-752.48"/>
<polygon fill="#000000" stroke="#000000" stroke-width="1.53" points="319.5,-752.78 316,-742.78 312.5,-752.78 319.5,-752.78"/>
<text text-anchor="middle" x="323" y="-761.8" font-family="Times,serif" font-size="14.00">10</text>
</g>
<!-- Insert Date Appeal to Prefecture -->
<g id="node5" class="node">
<title>Insert Date Appeal to Prefecture</title>
<polygon fill="#fbfbff" stroke="black" points="422,-653 210,-653 210,-617 422,-617 422,-653"/>
<text text-anchor="middle" x="316" y="-631.3" font-family="Times,serif" font-size="14.00">Insert Date Appeal to Prefecture (6)</text>
</g>
<!-- Insert Fine Notification&#45;&gt;Insert Date Appeal to Prefecture -->
<g id="edge4" class="edge">
<title>Insert Fine Notification&#45;&gt;Insert Date Appeal to Prefecture</title>
<path fill="none" stroke="#000000" stroke-width="1.07" d="M316,-703.8C316,-692.7 316,-677.97 316,-665.08"/>
<polygon fill="#000000" stroke="#000000" stroke-width="1.07" points="319.5,-665.09 316,-655.09 312.5,-665.09 319.5,-665.09"/>
<text text-anchor="middle" x="319.5" y="-674.8" font-family="Times,serif" font-size="14.00">6</text>
</g>
<!-- Add penalty -->
<g id="node7" class="node">
<title>Add penalty</title>
<polygon fill="#f4f4ff" stroke="black" points="256,-479 146,-479 146,-443 256,-443 256,-479"/>
<text text-anchor="middle" x="201" y="-457.3" font-family="Times,serif" font-size="14.00">Add penalty (10)</text>
</g>
<!-- Insert Fine Notification&#45;&gt;Add penalty -->
<g id="edge11" class="edge">
<title>Insert Fine Notification&#45;&gt;Add penalty</title>
<path fill="none" stroke="#000000" stroke-width="0.73" d="M264.9,-703.6C241.36,-692.84 215.49,-676.49 201,-653 169.94,-602.66 182.17,-529.73 192.44,-490.14"/>
<polygon fill="#000000" stroke="#000000" stroke-width="0.73" points="195.81,-491.08 195.08,-480.51 189.06,-489.22 195.81,-491.08"/>
<text text-anchor="middle" x="186.5" y="-587.8" font-family="Times,serif" font-size="14.00">3</text>
</g>
<!-- Appeal to Judge -->
<g id="node11" class="node">
<title>Appeal to Judge</title>
<polygon fill="#ffffff" stroke="black" points="414.5,-218 289.5,-218 289.5,-182 414.5,-182 414.5,-218"/>
<text text-anchor="middle" x="352" y="-196.3" font-family="Times,serif" font-size="14.00">Appeal to Judge (4)</text>
</g>
<!-- Insert Fine Notification&#45;&gt;Appeal to Judge -->
<g id="edge19" class="edge">
<title>Insert Fine Notification&#45;&gt;Appeal to Judge</title>
<path fill="none" stroke="#ff0000" stroke-width="0.5" stroke-dasharray="5,2" d="M401.36,-708.36C441.21,-697.12 480,-675.93 480,-636 480,-636 480,-636 480,-286 480,-254.96 453.56,-234.58 424.72,-221.58"/>
<polygon fill="#ff0000" stroke="#ff0000" stroke-width="0.5" points="426.15,-218.38 415.57,-217.74 423.44,-224.84 426.15,-218.38"/>
<text text-anchor="middle" x="483.5" y="-457.3" font-family="Times,serif" font-size="14.00">1</text>
</g>
<!-- Send Appeal to Prefecture -->
<g id="node6" class="node">
<title>Send Appeal to Prefecture</title>
<polygon fill="#fbfbff" stroke="black" points="405.5,-566 226.5,-566 226.5,-530 405.5,-530 405.5,-566"/>
<text text-anchor="middle" x="316" y="-544.3" font-family="Times,serif" font-size="14.00">Send Appeal to Prefecture (6)</text>
</g>
<!-- Insert Date Appeal to Prefecture&#45;&gt;Send Appeal to Prefecture -->
<g id="edge5" class="edge">
<title>Insert Date Appeal to Prefecture&#45;&gt;Send Appeal to Prefecture</title>
<path fill="none" stroke="#000000" stroke-width="0.84" d="M316,-616.8C316,-605.58 316,-590.67 316,-577.69"/>
<polygon fill="#000000" stroke="#000000" stroke-width="0.84" points="319.5,-577.74 316,-567.74 312.5,-577.74 319.5,-577.74"/>
<text text-anchor="middle" x="319.5" y="-587.8" font-family="Times,serif" font-size="14.00">4</text>
</g>
<!-- Insert Date Appeal to Prefecture&#45;&gt;Add penalty -->
<g id="edge20" class="edge">
<title>Insert Date Appeal to Prefecture&#45;&gt;Add penalty</title>
<path fill="none" stroke="#ff0000" stroke-width="0.5" stroke-dasharray="5,2" d="M270.88,-616.51C248.71,-605.48 223.85,-588.93 210,-566 196.13,-543.04 195.29,-511.87 197.05,-489.65"/>
<polygon fill="#ff0000" stroke="#ff0000" stroke-width="0.5" points="200.5,-490.3 198.04,-480 193.54,-489.59 200.5,-490.3"/>
<text text-anchor="middle" x="213.5" y="-544.3" font-family="Times,serif" font-size="14.00">1</text>
</g>
<!-- Insert Date Appeal to Prefecture&#45;&gt;Appeal to Judge -->
<g id="edge15" class="edge">
<title>Insert Date Appeal to Prefecture&#45;&gt;Appeal to Judge</title>
<path fill="none" stroke="#ff0000" stroke-width="0.5" stroke-dasharray="5,2" d="M373.27,-616.5C403.34,-603.39 434,-581.95 434,-549 434,-549 434,-549 434,-286 434,-259.98 413.86,-238.88 393.54,-224.2"/>
<polygon fill="#ff0000" stroke="#ff0000" stroke-width="0.5" points="395.74,-221.47 385.51,-218.74 391.81,-227.26 395.74,-221.47"/>
<text text-anchor="middle" x="437.5" y="-413.8" font-family="Times,serif" font-size="14.00">1</text>
</g>
<!-- Send Appeal to Prefecture&#45;&gt;Add penalty -->
<g id="edge6" class="edge">
<title>Send Appeal to Prefecture&#45;&gt;Add penalty</title>
<path fill="none" stroke="#000000" stroke-width="0.84" d="M295.44,-529.6C283.55,-519.75 268.18,-507.36 254,-497 248.81,-493.21 243.24,-489.33 237.72,-485.59"/>
<polygon fill="#000000" stroke="#000000" stroke-width="0.84" points="239.9,-482.84 229.64,-480.21 236.02,-488.66 239.9,-482.84"/>
<text text-anchor="middle" x="276.5" y="-500.8" font-family="Times,serif" font-size="14.00">4</text>
</g>
<!-- Receive Result Appeal from Prefecture -->
<g id="node8" class="node">
<title>Receive Result Appeal from Prefecture</title>
<polygon fill="#ffffff" stroke="black" points="278,-392 28,-392 28,-356 278,-356 278,-392"/>
<text text-anchor="middle" x="153" y="-370.3" font-family="Times,serif" font-size="14.00">Receive Result Appeal from Prefecture (4)</text>
</g>
<!-- Send Appeal to Prefecture&#45;&gt;Receive Result Appeal from Prefecture -->
<g id="edge22" class="edge">
<title>Send Appeal to Prefecture&#45;&gt;Receive Result Appeal from Prefecture</title>
<path fill="none" stroke="#ff0000" stroke-width="0.5" stroke-dasharray="5,2" d="M310.92,-529.77C303.68,-507.59 288.61,-468.83 265,-443 247.76,-424.14 224.1,-408.75 202.96,-397.4"/>
<polygon fill="#ff0000" stroke="#ff0000" stroke-width="0.5" points="204.62,-394.32 194.13,-392.82 201.4,-400.53 204.62,-394.32"/>
<text text-anchor="middle" x="291.5" y="-457.3" font-family="Times,serif" font-size="14.00">1</text>
</g>
<!-- Send Appeal to Prefecture&#45;&gt;Appeal to Judge -->
<g id="edge17" class="edge">
<title>Send Appeal to Prefecture&#45;&gt;Appeal to Judge</title>
<path fill="none" stroke="#ff0000" stroke-width="0.5" stroke-dasharray="5,2" d="M328.19,-529.67C338.63,-513.1 352,-487 352,-462 352,-462 352,-462 352,-286 352,-266.94 352,-245.47 352,-228.87"/>
<polygon fill="#ff0000" stroke="#ff0000" stroke-width="0.5" points="355.5,-229.01 352,-219.01 348.5,-229.01 355.5,-229.01"/>
<text text-anchor="middle" x="355.5" y="-370.3" font-family="Times,serif" font-size="14.00">1</text>
</g>
<!-- Add penalty&#45;&gt;Send Appeal to Prefecture -->
<g id="edge21" class="edge">
<title>Add penalty&#45;&gt;Send Appeal to Prefecture</title>
<path fill="none" stroke="#ff0000" stroke-width="0.5" stroke-dasharray="5,2" d="M213.81,-479.25C222.15,-489.66 233.74,-502.66 246,-512 252.02,-516.58 258.73,-520.83 265.55,-524.67"/>
<polygon fill="#ff0000" stroke="#ff0000" stroke-width="0.5" points="263.73,-527.66 274.2,-529.29 267.03,-521.49 263.73,-527.66"/>
<text text-anchor="middle" x="249.5" y="-500.8" font-family="Times,serif" font-size="14.00">1</text>
</g>
<!-- Add penalty&#45;&gt;Receive Result Appeal from Prefecture -->
<g id="edge7" class="edge">
<title>Add penalty&#45;&gt;Receive Result Appeal from Prefecture</title>
<path fill="none" stroke="#000000" stroke-width="0.73" d="M191.29,-442.8C184.69,-431.12 175.84,-415.45 168.31,-402.11"/>
<polygon fill="#000000" stroke="#000000" stroke-width="0.73" points="171.37,-400.41 163.41,-393.43 165.28,-403.86 171.37,-400.41"/>
<text text-anchor="middle" x="183.5" y="-413.8" font-family="Times,serif" font-size="14.00">3</text>
</g>
<!-- Payment -->
<g id="node10" class="node">
<title>Payment</title>
<polygon fill="#9b9bff" stroke="black" points="210.5,-131 119.5,-131 119.5,-95 210.5,-95 210.5,-131"/>
<text text-anchor="middle" x="165" y="-109.3" font-family="Times,serif" font-size="14.00">Payment (59)</text>
</g>
<!-- Add penalty&#45;&gt;Payment -->
<g id="edge12" class="edge">
<title>Add penalty&#45;&gt;Payment</title>
<path fill="none" stroke="#000000" stroke-width="1.07" d="M145.54,-459.3C86.05,-455.27 0,-438.46 0,-375 0,-375 0,-375 0,-199 0,-149.18 60.18,-128.53 107.85,-119.99"/>
<polygon fill="#000000" stroke="#000000" stroke-width="1.07" points="108.13,-123.49 117.44,-118.43 107,-116.59 108.13,-123.49"/>
<text text-anchor="middle" x="3.5" y="-283.3" font-family="Times,serif" font-size="14.00">6</text>
</g>
<!-- Notify Result Appeal to Offender -->
<g id="node9" class="node">
<title>Notify Result Appeal to Offender</title>
<polygon fill="#ffffff" stroke="black" points="274,-305 56,-305 56,-269 274,-269 274,-305"/>
<text text-anchor="middle" x="165" y="-283.3" font-family="Times,serif" font-size="14.00">Notify Result Appeal to Offender (4)</text>
</g>
<!-- Receive Result Appeal from Prefecture&#45;&gt;Notify Result Appeal to Offender -->
<g id="edge8" class="edge">
<title>Receive Result Appeal from Prefecture&#45;&gt;Notify Result Appeal to Offender</title>
<path fill="none" stroke="#000000" stroke-width="0.84" d="M155.43,-355.8C157.03,-344.47 159.16,-329.36 161.01,-316.29"/>
<polygon fill="#000000" stroke="#000000" stroke-width="0.84" points="164.42,-317.12 162.36,-306.73 157.49,-316.14 164.42,-317.12"/>
<text text-anchor="middle" x="163.5" y="-326.8" font-family="Times,serif" font-size="14.00">4</text>
</g>
<!-- Notify Result Appeal to Offender&#45;&gt;Payment -->
<g id="edge9" class="edge">
<title>Notify Result Appeal to Offender&#45;&gt;Payment</title>
<path fill="none" stroke="#000000" stroke-width="0.73" d="M165,-268.56C165,-238.81 165,-178.01 165,-142.17"/>
<polygon fill="#000000" stroke="#000000" stroke-width="0.73" points="168.5,-142.59 165,-132.59 161.5,-142.59 168.5,-142.59"/>
<text text-anchor="middle" x="168.5" y="-196.3" font-family="Times,serif" font-size="14.00">3</text>
</g>
<!-- Notify Result Appeal to Offender&#45;&gt;Appeal to Judge -->
<g id="edge13" class="edge">
<title>Notify Result Appeal to Offender&#45;&gt;Appeal to Judge</title>
<path fill="none" stroke="#ff0000" stroke-width="0.5" stroke-dasharray="5,2" d="M203.29,-268.59C232.54,-255.3 273.01,-236.91 304.35,-222.66"/>
<polygon fill="#ff0000" stroke="#ff0000" stroke-width="0.5" points="305.41,-226.02 313.07,-218.7 302.52,-219.65 305.41,-226.02"/>
<text text-anchor="middle" x="272.5" y="-239.8" font-family="Times,serif" font-size="14.00">1</text>
</g>
<!-- Payment&#45;&gt;Payment -->
<g id="edge10" class="edge">
<title>Payment&#45;&gt;Payment</title>
<path fill="none" stroke="#000000" stroke-width="6" d="M210.95,-120.94C221.1,-120.19 228.5,-117.55 228.5,-113 228.5,-111.58 227.78,-110.34 226.47,-109.3"/>
<polygon fill="#000000" stroke="#000000" stroke-width="6" points="228.21,-104.33 217.18,-106.76 225.44,-114.46 228.21,-104.33"/>
<text text-anchor="middle" x="235.5" y="-109.3" font-family="Times,serif" font-size="14.00">49</text>
</g>
<!-- end_node -->
<g id="node12" class="node">
<title>end_node</title>
<ellipse fill="none" stroke="black" cx="165" cy="-22" rx="18" ry="18"/>
<ellipse fill="none" stroke="black" cx="165" cy="-22" rx="22" ry="22"/>
<text text-anchor="start" x="160.5" y="-18.3" font-family="Times,serif" font-size="14.00">■</text>
</g>
<!-- Payment&#45;&gt;end_node -->
<g id="edge23" class="edge">
<title>Payment&#45;&gt;end_node</title>
<path fill="none" stroke="#000000" stroke-width="1.53" d="M165,-94.84C165,-83.89 165,-69.34 165,-56.2"/>
<polygon fill="#000000" stroke="#000000" stroke-width="1.53" points="168.5,-56.51 165,-46.51 161.5,-56.51 168.5,-56.51"/>
<text text-anchor="middle" x="172" y="-65.8" font-family="Times,serif" font-size="14.00">10</text>
</g>
<!-- Appeal to Judge&#45;&gt;Send Appeal to Prefecture -->
<g id="edge16" class="edge">
<title>Appeal to Judge&#45;&gt;Send Appeal to Prefecture</title>
<path fill="none" stroke="#ff0000" stroke-width="0.5" stroke-dasharray="5,2" d="M366.8,-218.28C379.24,-234.61 395,-260.37 395,-286 395,-462 395,-462 395,-462 395,-487.62 375.5,-508.76 355.88,-523.56"/>
<polygon fill="#ff0000" stroke="#ff0000" stroke-width="0.5" points="353.97,-520.62 347.84,-529.26 358.02,-526.33 353.97,-520.62"/>
<text text-anchor="middle" x="398.5" y="-370.3" font-family="Times,serif" font-size="14.00">1</text>
</g>
<!-- Appeal to Judge&#45;&gt;Add penalty -->
<g id="edge18" class="edge">
<title>Appeal to Judge&#45;&gt;Add penalty</title>
<path fill="none" stroke="#ff0000" stroke-width="0.61" stroke-dasharray="5,2" d="M344.8,-218.36C342.54,-223.96 340.1,-230.22 338,-236 313.11,-304.57 328.72,-332.16 287,-392 274.69,-409.65 256.48,-424.98 239.98,-436.59"/>
<polygon fill="#ff0000" stroke="#ff0000" stroke-width="0.61" points="238.13,-433.62 231.81,-442.12 242.05,-439.41 238.13,-433.62"/>
<text text-anchor="middle" x="320.5" y="-326.8" font-family="Times,serif" font-size="14.00">2</text>
</g>
<!-- Appeal to Judge&#45;&gt;Payment -->
<g id="edge14" class="edge">
<title>Appeal to Judge&#45;&gt;Payment</title>
<path fill="none" stroke="#ff0000" stroke-width="0.5" stroke-dasharray="5,2" d="M313.71,-181.59C284.46,-168.3 243.99,-149.91 212.65,-135.66"/>
<polygon fill="#ff0000" stroke="#ff0000" stroke-width="0.5" points="214.48,-132.65 203.93,-131.7 211.59,-139.02 214.48,-132.65"/>
<text text-anchor="middle" x="272.5" y="-152.8" font-family="Times,serif" font-size="14.00">1</text>
</g>
</g>
</svg>
