<?xml version="1.0" encoding="UTF-8" standalone="no"?>
<!DOCTYPE svg PUBLIC "-//W3C//DTD SVG 1.1//EN"
 "http://www.w3.org/Graphics/SVG/1.1/DTD/svg11.dtd">
<!-- Generated by graphviz version 7.0.5 (0)
 -->
<!-- Title: dfg Pages: 1 -->
<svg width="818pt" height="1009pt"
 viewBox="0.00 0.00 818.00 1009.00" xmlns="http://www.w3.org/2000/svg" xmlns:xlink="http://www.w3.org/1999/xlink">
<g id="graph0" class="graph" transform="scale(1 1) rotate(0) translate(4 1005)">
<title>dfg</title>
<polygon fill="white" stroke="none" points="-4,4 -4,-1005 814,-1005 814,4 -4,4"/>
<!-- start_node -->
<g id="node1" class="node">
<title>start_node</title>
<ellipse fill="none" stroke="black" cx="155" cy="-983" rx="18" ry="18"/>
<text text-anchor="start" x="150.5" y="-979.3" font-family="Times,serif" font-size="14.00">●</text>
</g>
<!-- Create Fine -->
<g id="node2" class="node">
<title>Create Fine</title>
<polygon fill="#9b9bff" stroke="black" points="211.5,-914 98.5,-914 98.5,-878 211.5,-878 211.5,-914"/>
<text text-anchor="middle" x="155" y="-892.3" font-family="Times,serif" font-size="14.00">Create Fine (572)</text>
</g>
<!-- start_node&#45;&gt;Create Fine -->
<g id="edge1" class="edge">
<title>start_node&#45;&gt;Create Fine</title>
<path fill="none" stroke="#000000" stroke-width="6.04" d="M155,-964.8C155,-954.96 155,-942.27 155,-930.53"/>
<polygon fill="#000000" stroke="#000000" stroke-width="6.04" points="160.28,-930.93 155,-920.93 149.72,-930.93 160.28,-930.93"/>
<text text-anchor="middle" x="165.5" y="-935.8" font-family="Times,serif" font-size="14.00">572</text>
</g>
<!-- Send Fine -->
<g id="node3" class="node">
<title>Send Fine</title>
<polygon fill="#9b9bff" stroke="black" points="401,-827 297,-827 297,-791 401,-791 401,-827"/>
<text text-anchor="middle" x="349" y="-805.3" font-family="Times,serif" font-size="14.00">Send Fine (572)</text>
</g>
<!-- Create Fine&#45;&gt;Send Fine -->
<g id="edge2" class="edge">
<title>Create Fine&#45;&gt;Send Fine</title>
<path fill="none" stroke="#000000" stroke-width="6" d="M194.73,-877.59C223.5,-864.99 262.74,-847.79 294.45,-833.9"/>
<polygon fill="#000000" stroke="#000000" stroke-width="6" points="296.36,-838.79 303.41,-829.97 292.15,-829.18 296.36,-838.79"/>
<text text-anchor="middle" x="273.5" y="-848.8" font-family="Times,serif" font-size="14.00">568</text>
</g>
<!-- Insert Date Appeal to Prefecture -->
<g id="node5" class="node">
<title>Insert Date Appeal to Prefecture</title>
<polygon fill="#9b9bff" stroke="black" points="303.5,-653 78.5,-653 78.5,-617 303.5,-617 303.5,-653"/>
<text text-anchor="middle" x="191" y="-631.3" font-family="Times,serif" font-size="14.00">Insert Date Appeal to Prefecture (572)</text>
</g>
<!-- Create Fine&#45;&gt;Insert Date Appeal to Prefecture -->
<g id="edge21" class="edge">
<title>Create Fine&#45;&gt;Insert Date Appeal to Prefecture</title>
<path fill="none" stroke="#ff0000" stroke-width="0.53" stroke-dasharray="5,2" d="M156.56,-877.77C160.1,-840.09 169.49,-747.61 183,-671 183.41,-668.66 183.88,-666.23 184.38,-663.81"/>
<polygon fill="#ff0000" stroke="#ff0000" stroke-width="0.53" points="187.77,-664.68 186.49,-654.16 180.93,-663.18 187.77,-664.68"/>
<text text-anchor="middle" x="173.5" y="-761.8" font-family="Times,serif" font-size="14.00">4</text>
</g>
<!-- Insert Fine Notification -->
<g id="node4" class="node">
<title>Insert Fine Notification</title>
<polygon fill="#a2a2ff" stroke="black" points="437.5,-740 260.5,-740 260.5,-704 437.5,-704 437.5,-740"/>
<text text-anchor="middle" x="349" y="-718.3" font-family="Times,serif" font-size="14.00">Insert Fine Notification (531)</text>
</g>
<!-- Send Fine&#45;&gt;Insert Fine Notification -->
<g id="edge3" class="edge">
<title>Send Fine&#45;&gt;Insert Fine Notification</title>
<path fill="none" stroke="#000000" stroke-width="5.61" d="M349,-790.8C349,-780.96 349,-768.27 349,-756.53"/>
<polygon fill="#000000" stroke="#000000" stroke-width="5.61" points="353.91,-756.83 349,-746.83 344.09,-756.83 353.91,-756.83"/>
<text text-anchor="middle" x="359.5" y="-761.8" font-family="Times,serif" font-size="14.00">528</text>
</g>
<!-- Send Fine&#45;&gt;Insert Date Appeal to Prefecture -->
<g id="edge10" class="edge">
<title>Send Fine&#45;&gt;Insert Date Appeal to Prefecture</title>
<path fill="none" stroke="#000000" stroke-width="0.89" d="M296.74,-802.32C271.97,-797.58 243.05,-788.9 221,-773 187.58,-748.9 185.24,-696.8 187.48,-664.25"/>
<polygon fill="#000000" stroke="#000000" stroke-width="0.89" points="190.95,-664.84 188.35,-654.57 183.97,-664.21 190.95,-664.84"/>
<text text-anchor="middle" x="204" y="-718.3" font-family="Times,serif" font-size="14.00">41</text>
</g>
<!-- Appeal to Judge -->
<g id="node12" class="node">
<title>Appeal to Judge</title>
<polygon fill="#ffffff" stroke="black" points="476.5,-566 351.5,-566 351.5,-530 476.5,-530 476.5,-566"/>
<text text-anchor="middle" x="414" y="-544.3" font-family="Times,serif" font-size="14.00">Appeal to Judge (6)</text>
</g>
<!-- Send Fine&#45;&gt;Appeal to Judge -->
<g id="edge26" class="edge">
<title>Send Fine&#45;&gt;Appeal to Judge</title>
<path fill="none" stroke="#ff0000" stroke-width="0.5" stroke-dasharray="5,2" d="M401.34,-806.83C497.69,-804.12 695.25,-795.82 716,-773 797.95,-682.86 599.94,-605.11 486.58,-569.58"/>
<polygon fill="#ff0000" stroke="#ff0000" stroke-width="0.5" points="487.87,-566.31 477.29,-566.7 485.8,-573 487.87,-566.31"/>
<text text-anchor="middle" x="718.5" y="-674.8" font-family="Times,serif" font-size="14.00">1</text>
</g>
<!-- end_node -->
<g id="node13" class="node">
<title>end_node</title>
<ellipse fill="none" stroke="black" cx="559" cy="-22" rx="18" ry="18"/>
<ellipse fill="none" stroke="black" cx="559" cy="-22" rx="22" ry="22"/>
<text text-anchor="start" x="554.5" y="-18.3" font-family="Times,serif" font-size="14.00">■</text>
</g>
<!-- Send Fine&#45;&gt;end_node -->
<g id="edge45" class="edge">
<title>Send Fine&#45;&gt;end_node</title>
<path fill="none" stroke="#ff0000" stroke-width="0.51" stroke-dasharray="5,2" d="M401.18,-806.73C492.04,-803.94 675.3,-795.62 735,-773 770.08,-759.71 803,-760.51 803,-723 803,-723 803,-723 803,-112 803,-82.98 786.02,-76.71 761,-62 707.69,-30.66 634.1,-23.87 592.04,-22.76"/>
<polygon fill="#ff0000" stroke="#ff0000" stroke-width="0.51" points="592.14,-19.26 582.08,-22.6 592.02,-26.26 592.14,-19.26"/>
<text text-anchor="middle" x="806.5" y="-413.8" font-family="Times,serif" font-size="14.00">2</text>
</g>
<!-- Insert Fine Notification&#45;&gt;Insert Date Appeal to Prefecture -->
<g id="edge4" class="edge">
<title>Insert Fine Notification&#45;&gt;Insert Date Appeal to Prefecture</title>
<path fill="none" stroke="#000000" stroke-width="4.88" d="M305.61,-703.57C293.56,-698.32 280.61,-692.27 269,-686 258.26,-680.2 256.26,-677.61 246,-671 241.39,-668.03 236.55,-664.93 231.74,-661.85"/>
<polygon fill="#000000" stroke="#000000" stroke-width="4.88" points="234.43,-658.5 223.7,-656.73 229.83,-665.71 234.43,-658.5"/>
<text text-anchor="middle" x="279.5" y="-674.8" font-family="Times,serif" font-size="14.00">453</text>
</g>
<!-- Add penalty -->
<g id="node6" class="node">
<title>Add penalty</title>
<polygon fill="#a2a2ff" stroke="black" points="350,-479 234,-479 234,-443 350,-443 350,-479"/>
<text text-anchor="middle" x="292" y="-457.3" font-family="Times,serif" font-size="14.00">Add penalty (531)</text>
</g>
<!-- Insert Fine Notification&#45;&gt;Add penalty -->
<g id="edge7" class="edge">
<title>Insert Fine Notification&#45;&gt;Add penalty</title>
<path fill="none" stroke="#000000" stroke-width="1.24" d="M345.17,-703.6C335.54,-659.83 310.22,-544.77 298.33,-490.77"/>
<polygon fill="#000000" stroke="#000000" stroke-width="1.24" points="301.78,-490.16 296.21,-481.15 294.95,-491.67 301.78,-490.16"/>
<text text-anchor="middle" x="328" y="-587.8" font-family="Times,serif" font-size="14.00">77</text>
</g>
<!-- Insert Fine Notification&#45;&gt;Appeal to Judge -->
<g id="edge29" class="edge">
<title>Insert Fine Notification&#45;&gt;Appeal to Judge</title>
<path fill="none" stroke="#ff0000" stroke-width="0.5" stroke-dasharray="5,2" d="M355.59,-703.56C366.93,-673.56 390.21,-611.96 403.7,-576.25"/>
<polygon fill="#ff0000" stroke="#ff0000" stroke-width="0.5" points="406.86,-577.78 407.12,-567.19 400.32,-575.31 406.86,-577.78"/>
<text text-anchor="middle" x="390.5" y="-631.3" font-family="Times,serif" font-size="14.00">1</text>
</g>
<!-- Insert Date Appeal to Prefecture&#45;&gt;Send Fine -->
<g id="edge22" class="edge">
<title>Insert Date Appeal to Prefecture&#45;&gt;Send Fine</title>
<path fill="none" stroke="#ff0000" stroke-width="0.51" stroke-dasharray="5,2" d="M196.9,-653.48C205.03,-675.58 221.39,-713.9 245,-740 261.62,-758.37 284.25,-773.94 304.16,-785.53"/>
<polygon fill="#ff0000" stroke="#ff0000" stroke-width="0.51" points="302.27,-788.48 312.7,-790.35 305.71,-782.39 302.27,-788.48"/>
<text text-anchor="middle" x="248.5" y="-718.3" font-family="Times,serif" font-size="14.00">2</text>
</g>
<!-- Insert Date Appeal to Prefecture&#45;&gt;Insert Fine Notification -->
<g id="edge15" class="edge">
<title>Insert Date Appeal to Prefecture&#45;&gt;Insert Fine Notification</title>
<path fill="none" stroke="#ff0000" stroke-width="0.52" stroke-dasharray="5,2" d="M251.45,-653.44C264.56,-658.29 278.07,-664.14 290,-671 302.1,-677.95 314.09,-687.49 324.08,-696.38"/>
<polygon fill="#ff0000" stroke="#ff0000" stroke-width="0.52" points="321.64,-698.9 331.37,-703.09 326.38,-693.75 321.64,-698.9"/>
<text text-anchor="middle" x="313.5" y="-674.8" font-family="Times,serif" font-size="14.00">3</text>
</g>
<!-- Insert Date Appeal to Prefecture&#45;&gt;Add penalty -->
<g id="edge5" class="edge">
<title>Insert Date Appeal to Prefecture&#45;&gt;Add penalty</title>
<path fill="none" stroke="#000000" stroke-width="4.79" d="M201.24,-616.56C218.25,-587.59 252.57,-529.15 273.79,-493.01"/>
<polygon fill="#000000" stroke="#000000" stroke-width="4.79" points="277.14,-495.57 278.6,-484.83 269.92,-491.33 277.14,-495.57"/>
<text text-anchor="middle" x="261.5" y="-544.3" font-family="Times,serif" font-size="14.00">443</text>
</g>
<!-- Send Appeal to Prefecture -->
<g id="node7" class="node">
<title>Send Appeal to Prefecture</title>
<polygon fill="#9b9bff" stroke="black" points="394,-305 202,-305 202,-269 394,-269 394,-305"/>
<text text-anchor="middle" x="298" y="-283.3" font-family="Times,serif" font-size="14.00">Send Appeal to Prefecture (572)</text>
</g>
<!-- Insert Date Appeal to Prefecture&#45;&gt;Send Appeal to Prefecture -->
<g id="edge9" class="edge">
<title>Insert Date Appeal to Prefecture&#45;&gt;Send Appeal to Prefecture</title>
<path fill="none" stroke="#000000" stroke-width="1.65" d="M179.95,-616.51C156.85,-577.54 108.35,-481.38 143,-410 164.82,-365.05 212.12,-331.71 248.76,-311.34"/>
<polygon fill="#000000" stroke="#000000" stroke-width="1.65" points="250.39,-314.44 257.55,-306.63 247.08,-308.27 250.39,-314.44"/>
<text text-anchor="middle" x="143.5" y="-457.3" font-family="Times,serif" font-size="14.00">120</text>
</g>
<!-- Receive Result Appeal from Prefecture -->
<g id="node8" class="node">
<title>Receive Result Appeal from Prefecture</title>
<polygon fill="#fbfbff" stroke="black" points="451.5,-218 194.5,-218 194.5,-182 451.5,-182 451.5,-218"/>
<text text-anchor="middle" x="323" y="-196.3" font-family="Times,serif" font-size="14.00">Receive Result Appeal from Prefecture (26)</text>
</g>
<!-- Insert Date Appeal to Prefecture&#45;&gt;Receive Result Appeal from Prefecture -->
<g id="edge37" class="edge">
<title>Insert Date Appeal to Prefecture&#45;&gt;Receive Result Appeal from Prefecture</title>
<path fill="none" stroke="#ff0000" stroke-width="0.5" stroke-dasharray="5,2" d="M139.86,-616.52C111.14,-603.11 81,-581.34 81,-549 81,-549 81,-549 81,-416.5 81,-345.39 91.8,-318.35 143,-269 165.9,-246.92 196.68,-231.86 226.3,-221.65"/>
<polygon fill="#ff0000" stroke="#ff0000" stroke-width="0.5" points="227.16,-225.05 235.56,-218.6 224.97,-218.4 227.16,-225.05"/>
<text text-anchor="middle" x="84.5" y="-413.8" font-family="Times,serif" font-size="14.00">1</text>
</g>
<!-- Payment -->
<g id="node10" class="node">
<title>Payment</title>
<polygon fill="#fdfdff" stroke="black" points="168.5,-131 77.5,-131 77.5,-95 168.5,-95 168.5,-131"/>
<text text-anchor="middle" x="123" y="-109.3" font-family="Times,serif" font-size="14.00">Payment (13)</text>
</g>
<!-- Insert Date Appeal to Prefecture&#45;&gt;Payment -->
<g id="edge17" class="edge">
<title>Insert Date Appeal to Prefecture&#45;&gt;Payment</title>
<path fill="none" stroke="#ff0000" stroke-width="0.51" stroke-dasharray="5,2" d="M78.24,-622.31C36.89,-611.19 0,-589.83 0,-549 0,-549 0,-549 0,-199 0,-173.31 9.37,-165.57 29,-149 40.03,-139.69 53.77,-132.74 67.31,-127.6"/>
<polygon fill="#ff0000" stroke="#ff0000" stroke-width="0.51" points="68.09,-131.04 76.37,-124.42 65.77,-124.43 68.09,-131.04"/>
<text text-anchor="middle" x="3.5" y="-370.3" font-family="Times,serif" font-size="14.00">2</text>
</g>
<!-- Insert Date Appeal to Prefecture&#45;&gt;Appeal to Judge -->
<g id="edge34" class="edge">
<title>Insert Date Appeal to Prefecture&#45;&gt;Appeal to Judge</title>
<path fill="none" stroke="#ff0000" stroke-width="0.5" stroke-dasharray="5,2" d="M240.78,-616.64C254.35,-611.43 268.92,-605.38 282,-599 293.65,-593.32 295.21,-589.38 307,-584 318.25,-578.86 330.48,-574.13 342.51,-569.91"/>
<polygon fill="#ff0000" stroke="#ff0000" stroke-width="0.5" points="343.49,-573.27 351.83,-566.73 341.24,-566.65 343.49,-573.27"/>
<text text-anchor="middle" x="310.5" y="-587.8" font-family="Times,serif" font-size="14.00">1</text>
</g>
<!-- Add penalty&#45;&gt;Insert Date Appeal to Prefecture -->
<g id="edge8" class="edge">
<title>Add penalty&#45;&gt;Insert Date Appeal to Prefecture</title>
<path fill="none" stroke="#000000" stroke-width="1.18" d="M264.49,-479.24C247.39,-491.38 226.38,-509.14 214,-530 200.36,-552.97 194.79,-583.13 192.53,-605.05"/>
<polygon fill="#000000" stroke="#000000" stroke-width="1.18" points="189.06,-604.55 191.71,-614.81 196.03,-605.14 189.06,-604.55"/>
<text text-anchor="middle" x="221" y="-544.3" font-family="Times,serif" font-size="14.00">71</text>
</g>
<!-- Add penalty&#45;&gt;Send Appeal to Prefecture -->
<g id="edge6" class="edge">
<title>Add penalty&#45;&gt;Send Appeal to Prefecture</title>
<path fill="none" stroke="#000000" stroke-width="4.84" d="M278.71,-442.54C264.78,-422.05 246.04,-386.92 255,-356 258.85,-342.7 266.17,-329.5 273.69,-318.32"/>
<polygon fill="#000000" stroke="#000000" stroke-width="4.84" points="276.99,-320.99 279.44,-310.41 270.14,-316.01 276.99,-320.99"/>
<text text-anchor="middle" x="265.5" y="-370.3" font-family="Times,serif" font-size="14.00">448</text>
</g>
<!-- Add penalty&#45;&gt;Receive Result Appeal from Prefecture -->
<g id="edge14" class="edge">
<title>Add penalty&#45;&gt;Receive Result Appeal from Prefecture</title>
<path fill="none" stroke="#ff0000" stroke-width="0.56" stroke-dasharray="5,2" d="M310.28,-442.57C336.78,-415.9 384.68,-362.04 403,-305 407.89,-289.77 409.72,-283.52 403,-269 394.54,-250.71 378.48,-235.54 362.95,-224.2"/>
<polygon fill="#ff0000" stroke="#ff0000" stroke-width="0.56" points="365.33,-221.6 355.12,-218.78 361.35,-227.35 365.33,-221.6"/>
<text text-anchor="middle" x="399.5" y="-326.8" font-family="Times,serif" font-size="14.00">7</text>
</g>
<!-- Add penalty&#45;&gt;Payment -->
<g id="edge32" class="edge">
<title>Add penalty&#45;&gt;Payment</title>
<path fill="none" stroke="#ff0000" stroke-width="0.53" stroke-dasharray="5,2" d="M263.17,-442.71C244.63,-430.43 221.08,-412.53 205,-392 145.02,-315.42 128.87,-195.97 124.55,-142.07"/>
<polygon fill="#ff0000" stroke="#ff0000" stroke-width="0.53" points="128.04,-141.83 123.84,-132.1 121.06,-142.33 128.04,-141.83"/>
<text text-anchor="middle" x="162.5" y="-283.3" font-family="Times,serif" font-size="14.00">4</text>
</g>
<!-- Send for Credit Collection -->
<g id="node11" class="node">
<title>Send for Credit Collection</title>
<polygon fill="#ffffff" stroke="black" points="579,-392 399,-392 399,-356 579,-356 579,-392"/>
<text text-anchor="middle" x="489" y="-370.3" font-family="Times,serif" font-size="14.00">Send for Credit Collection (6)</text>
</g>
<!-- Add penalty&#45;&gt;Send for Credit Collection -->
<g id="edge31" class="edge">
<title>Add penalty&#45;&gt;Send for Credit Collection</title>
<path fill="none" stroke="#ff0000" stroke-width="0.5" stroke-dasharray="5,2" d="M340.59,-442.64C354.99,-437.24 370.72,-431.1 385,-425 404.99,-416.45 426.71,-406.17 445.11,-397.16"/>
<polygon fill="#ff0000" stroke="#ff0000" stroke-width="0.5" points="446.58,-400.34 454.01,-392.77 443.49,-394.06 446.58,-400.34"/>
<text text-anchor="middle" x="419.5" y="-413.8" font-family="Times,serif" font-size="14.00">1</text>
</g>
<!-- Send Appeal to Prefecture&#45;&gt;Send Fine -->
<g id="edge24" class="edge">
<title>Send Appeal to Prefecture&#45;&gt;Send Fine</title>
<path fill="none" stroke="#ff0000" stroke-width="0.51" stroke-dasharray="5,2" d="M394.48,-294.45C508.35,-302.37 683.99,-315.64 697,-323 741.72,-348.3 765,-365.12 765,-416.5 765,-549 765,-549 765,-549 765,-713.38 528.02,-777.17 411.79,-798.57"/>
<polygon fill="#ff0000" stroke="#ff0000" stroke-width="0.51" points="411.25,-795.11 402.02,-800.31 412.48,-802 411.25,-795.11"/>
<text text-anchor="middle" x="768.5" y="-544.3" font-family="Times,serif" font-size="14.00">2</text>
</g>
<!-- Send Appeal to Prefecture&#45;&gt;Add penalty -->
<g id="edge13" class="edge">
<title>Send Appeal to Prefecture&#45;&gt;Add penalty</title>
<path fill="none" stroke="#ff0000" stroke-width="0.55" stroke-dasharray="5,2" d="M297.39,-305.48C296.35,-335.26 294.23,-396.07 292.98,-431.88"/>
<polygon fill="#ff0000" stroke="#ff0000" stroke-width="0.55" points="289.49,-431.62 292.64,-441.73 296.48,-431.86 289.49,-431.62"/>
<text text-anchor="middle" x="298.5" y="-370.3" font-family="Times,serif" font-size="14.00">6</text>
</g>
<!-- Send Appeal to Prefecture&#45;&gt;Receive Result Appeal from Prefecture -->
<g id="edge11" class="edge">
<title>Send Appeal to Prefecture&#45;&gt;Receive Result Appeal from Prefecture</title>
<path fill="none" stroke="#ff0000" stroke-width="0.66" stroke-dasharray="5,2" d="M303.06,-268.8C306.43,-257.35 310.92,-242.06 314.8,-228.89"/>
<polygon fill="#ff0000" stroke="#ff0000" stroke-width="0.66" points="318.11,-230.01 317.58,-219.43 311.4,-228.04 318.11,-230.01"/>
<text text-anchor="middle" x="318" y="-239.8" font-family="Times,serif" font-size="14.00">18</text>
</g>
<!-- Send Appeal to Prefecture&#45;&gt;Payment -->
<g id="edge23" class="edge">
<title>Send Appeal to Prefecture&#45;&gt;Payment</title>
<path fill="none" stroke="#ff0000" stroke-width="0.53" stroke-dasharray="5,2" d="M254.31,-268.62C229.59,-257.12 199.44,-240.07 178,-218 166.45,-206.11 147.45,-167.51 135.08,-140.84"/>
<polygon fill="#ff0000" stroke="#ff0000" stroke-width="0.53" points="138.38,-139.63 131.02,-132 132.01,-142.55 138.38,-139.63"/>
<text text-anchor="middle" x="181.5" y="-196.3" font-family="Times,serif" font-size="14.00">4</text>
</g>
<!-- Send Appeal to Prefecture&#45;&gt;Appeal to Judge -->
<g id="edge28" class="edge">
<title>Send Appeal to Prefecture&#45;&gt;Appeal to Judge</title>
<path fill="none" stroke="#ff0000" stroke-width="0.5" stroke-dasharray="5,2" d="M305.76,-305.32C325.53,-349.47 377.94,-466.49 401.83,-519.83"/>
<polygon fill="#ff0000" stroke="#ff0000" stroke-width="0.5" points="398.62,-521.22 405.9,-528.91 405.01,-518.36 398.62,-521.22"/>
<text text-anchor="middle" x="361.5" y="-413.8" font-family="Times,serif" font-size="14.00">1</text>
</g>
<!-- Send Appeal to Prefecture&#45;&gt;end_node -->
<g id="edge40" class="edge">
<title>Send Appeal to Prefecture&#45;&gt;end_node</title>
<path fill="none" stroke="#000000" stroke-width="5.74" d="M389.44,-268.53C417.11,-258.51 444.51,-242.75 461,-218 469.87,-204.69 469.49,-195.56 461,-182 451.3,-166.5 433.7,-179.5 424,-164 413.43,-147.1 419.02,-120.28 438,-95 459.37,-66.53 495.57,-47.16 522.82,-35.74"/>
<polygon fill="#000000" stroke="#000000" stroke-width="5.74" points="524.6,-40.44 532.08,-32.12 520.94,-31.08 524.6,-40.44"/>
<text text-anchor="middle" x="434.5" y="-152.8" font-family="Times,serif" font-size="14.00">541</text>
</g>
<!-- Receive Result Appeal from Prefecture&#45;&gt;Send Appeal to Prefecture -->
<g id="edge38" class="edge">
<title>Receive Result Appeal from Prefecture&#45;&gt;Send Appeal to Prefecture</title>
<path fill="none" stroke="#ff0000" stroke-width="0.5" stroke-dasharray="5,2" d="M307.42,-218.35C303.59,-223.65 300.01,-229.74 298,-236 295.75,-243.03 294.99,-250.9 294.99,-258.28"/>
<polygon fill="#ff0000" stroke="#ff0000" stroke-width="0.5" points="291.49,-258.34 295.42,-268.18 298.48,-258.03 291.49,-258.34"/>
<text text-anchor="middle" x="301.5" y="-239.8" font-family="Times,serif" font-size="14.00">1</text>
</g>
<!-- Notify Result Appeal to Offender -->
<g id="node9" class="node">
<title>Notify Result Appeal to Offender</title>
<polygon fill="#fefeff" stroke="black" points="671.5,-131 446.5,-131 446.5,-95 671.5,-95 671.5,-131"/>
<text text-anchor="middle" x="559" y="-109.3" font-family="Times,serif" font-size="14.00">Notify Result Appeal to Offender (11)</text>
</g>
<!-- Receive Result Appeal from Prefecture&#45;&gt;Notify Result Appeal to Offender -->
<g id="edge12" class="edge">
<title>Receive Result Appeal from Prefecture&#45;&gt;Notify Result Appeal to Offender</title>
<path fill="none" stroke="#ff0000" stroke-width="0.6" stroke-dasharray="5,2" d="M393.26,-181.57C411.59,-176.45 431.18,-170.48 449,-164 471.09,-155.97 494.92,-145.38 514.74,-136.02"/>
<polygon fill="#ff0000" stroke="#ff0000" stroke-width="0.6" points="516.08,-139.26 523.59,-131.79 513.06,-132.95 516.08,-139.26"/>
<text text-anchor="middle" x="492" y="-152.8" font-family="Times,serif" font-size="14.00">11</text>
</g>
<!-- Receive Result Appeal from Prefecture&#45;&gt;Payment -->
<g id="edge16" class="edge">
<title>Receive Result Appeal from Prefecture&#45;&gt;Payment</title>
<path fill="none" stroke="#ff0000" stroke-width="0.51" stroke-dasharray="5,2" d="M282.04,-181.59C250.63,-168.24 207.11,-149.75 173.53,-135.48"/>
<polygon fill="#ff0000" stroke="#ff0000" stroke-width="0.51" points="175.18,-132.37 164.61,-131.68 172.45,-138.82 175.18,-132.37"/>
<text text-anchor="middle" x="238.5" y="-152.8" font-family="Times,serif" font-size="14.00">2</text>
</g>
<!-- Receive Result Appeal from Prefecture&#45;&gt;Appeal to Judge -->
<g id="edge25" class="edge">
<title>Receive Result Appeal from Prefecture&#45;&gt;Appeal to Judge</title>
<path fill="none" stroke="#ff0000" stroke-width="0.5" stroke-dasharray="5,2" d="M451.78,-213.91C521.75,-224 598.02,-241.13 618,-269 658.4,-325.36 655.4,-364.79 621,-425 592.02,-475.72 532.8,-507.46 485.1,-525.8"/>
<polygon fill="#ff0000" stroke="#ff0000" stroke-width="0.5" points="483.98,-522.49 475.82,-529.25 486.41,-529.05 483.98,-522.49"/>
<text text-anchor="middle" x="649.5" y="-370.3" font-family="Times,serif" font-size="14.00">1</text>
</g>
<!-- Receive Result Appeal from Prefecture&#45;&gt;end_node -->
<g id="edge41" class="edge">
<title>Receive Result Appeal from Prefecture&#45;&gt;end_node</title>
<path fill="none" stroke="#ff0000" stroke-width="0.6" stroke-dasharray="5,2" d="M328.3,-181.72C338.21,-152.4 362.39,-93.09 404,-62 439.95,-35.14 492.33,-26.65 526.04,-24.04"/>
<polygon fill="#ff0000" stroke="#ff0000" stroke-width="0.6" points="526.05,-27.55 535.81,-23.42 525.6,-20.56 526.05,-27.55"/>
<text text-anchor="middle" x="377" y="-109.3" font-family="Times,serif" font-size="14.00">11</text>
</g>
<!-- Notify Result Appeal to Offender&#45;&gt;Add penalty -->
<g id="edge30" class="edge">
<title>Notify Result Appeal to Offender&#45;&gt;Add penalty</title>
<path fill="none" stroke="#ff0000" stroke-width="0.5" stroke-dasharray="5,2" d="M575.79,-131.3C589.63,-147.44 607,-172.9 607,-199 607,-375 607,-375 607,-375 607,-425.6 453.55,-446.98 360.85,-455.27"/>
<polygon fill="#ff0000" stroke="#ff0000" stroke-width="0.5" points="360.56,-451.78 350.9,-456.13 361.16,-458.76 360.56,-451.78"/>
<text text-anchor="middle" x="610.5" y="-283.3" font-family="Times,serif" font-size="14.00">1</text>
</g>
<!-- Notify Result Appeal to Offender&#45;&gt;Send for Credit Collection -->
<g id="edge19" class="edge">
<title>Notify Result Appeal to Offender&#45;&gt;Send for Credit Collection</title>
<path fill="none" stroke="#ff0000" stroke-width="0.54" stroke-dasharray="5,2" d="M554.32,-131.32C542.41,-175.38 510.89,-292.01 496.43,-345.49"/>
<polygon fill="#ff0000" stroke="#ff0000" stroke-width="0.54" points="493.14,-344.25 493.91,-354.82 499.9,-346.08 493.14,-344.25"/>
<text text-anchor="middle" x="528.5" y="-239.8" font-family="Times,serif" font-size="14.00">5</text>
</g>
<!-- Notify Result Appeal to Offender&#45;&gt;Appeal to Judge -->
<g id="edge36" class="edge">
<title>Notify Result Appeal to Offender&#45;&gt;Appeal to Judge</title>
<path fill="none" stroke="#ff0000" stroke-width="0.5" stroke-dasharray="5,2" d="M621.16,-131.41C646.17,-141.81 672.48,-157.85 687,-182 735.57,-262.81 689.02,-303.32 657,-392 632.22,-460.62 612.6,-484.57 545,-512 526.6,-519.47 506.11,-525.81 486.9,-530.96"/>
<polygon fill="#ff0000" stroke="#ff0000" stroke-width="0.5" points="486.21,-527.53 477.41,-533.44 487.97,-534.3 486.21,-527.53"/>
<text text-anchor="middle" x="689.5" y="-326.8" font-family="Times,serif" font-size="14.00">1</text>
</g>
<!-- Notify Result Appeal to Offender&#45;&gt;end_node -->
<g id="edge42" class="edge">
<title>Notify Result Appeal to Offender&#45;&gt;end_node</title>
<path fill="none" stroke="#ff0000" stroke-width="0.53" stroke-dasharray="5,2" d="M559,-94.84C559,-83.55 559,-68.44 559,-54.98"/>
<polygon fill="#ff0000" stroke="#ff0000" stroke-width="0.53" points="562.5,-54.99 559,-44.99 555.5,-54.99 562.5,-54.99"/>
<text text-anchor="middle" x="562.5" y="-65.8" font-family="Times,serif" font-size="14.00">4</text>
</g>
<!-- Payment&#45;&gt;Insert Date Appeal to Prefecture -->
<g id="edge39" class="edge">
<title>Payment&#45;&gt;Insert Date Appeal to Prefecture</title>
<path fill="none" stroke="#ff0000" stroke-width="0.5" stroke-dasharray="5,2" d="M91.38,-131.21C69.02,-145.93 43,-169.41 43,-199 43,-549 43,-549 43,-549 43,-580.15 67.96,-600.05 97.37,-612.69"/>
<polygon fill="#ff0000" stroke="#ff0000" stroke-width="0.5" points="95.77,-615.81 106.35,-616.26 98.35,-609.31 95.77,-615.81"/>
<text text-anchor="middle" x="46.5" y="-370.3" font-family="Times,serif" font-size="14.00">1</text>
</g>
<!-- Payment&#45;&gt;Add penalty -->
<g id="edge18" class="edge">
<title>Payment&#45;&gt;Add penalty</title>
<path fill="none" stroke="#ff0000" stroke-width="0.52" stroke-dasharray="5,2" d="M127.3,-131.46C132.54,-152.25 141.97,-187.95 152,-218 184.67,-315.85 193.77,-343.49 257,-425 259.59,-428.34 262.48,-431.69 265.46,-434.92"/>
<polygon fill="#ff0000" stroke="#ff0000" stroke-width="0.52" points="262.9,-437.32 272.37,-442.08 267.94,-432.45 262.9,-437.32"/>
<text text-anchor="middle" x="186.5" y="-283.3" font-family="Times,serif" font-size="14.00">3</text>
</g>
<!-- Payment&#45;&gt;Payment -->
<g id="edge33" class="edge">
<title>Payment&#45;&gt;Payment</title>
<path fill="none" stroke="#ff0000" stroke-width="0.5" stroke-dasharray="5,2" d="M168.95,-120.94C179.1,-120.19 186.5,-117.55 186.5,-113 186.5,-110.23 183.75,-108.17 179.31,-106.81"/>
<polygon fill="#ff0000" stroke="#ff0000" stroke-width="0.5" points="180.14,-103.4 169.7,-105.19 178.98,-110.3 180.14,-103.4"/>
<text text-anchor="middle" x="190" y="-109.3" font-family="Times,serif" font-size="14.00">1</text>
</g>
<!-- Payment&#45;&gt;end_node -->
<g id="edge43" class="edge">
<title>Payment&#45;&gt;end_node</title>
<path fill="none" stroke="#ff0000" stroke-width="0.57" stroke-dasharray="5,2" d="M168.97,-98.87C208.1,-88 265.93,-72.67 317,-62 391.27,-46.48 479.48,-33.66 526.18,-27.31"/>
<polygon fill="#ff0000" stroke="#ff0000" stroke-width="0.57" points="526.56,-30.79 536,-25.99 525.62,-23.85 526.56,-30.79"/>
<text text-anchor="middle" x="320.5" y="-65.8" font-family="Times,serif" font-size="14.00">8</text>
</g>
<!-- Send for Credit Collection&#45;&gt;Send Appeal to Prefecture -->
<g id="edge20" class="edge">
<title>Send for Credit Collection&#45;&gt;Send Appeal to Prefecture</title>
<path fill="none" stroke="#ff0000" stroke-width="0.52" stroke-dasharray="5,2" d="M470.41,-355.57C458.08,-344.83 441.07,-331.53 424,-323 412.97,-317.49 400.95,-312.74 388.86,-308.68"/>
<polygon fill="#ff0000" stroke="#ff0000" stroke-width="0.52" points="390.05,-305.39 379.46,-305.67 387.91,-312.06 390.05,-305.39"/>
<text text-anchor="middle" x="449.5" y="-326.8" font-family="Times,serif" font-size="14.00">3</text>
</g>
<!-- Send for Credit Collection&#45;&gt;end_node -->
<g id="edge44" class="edge">
<title>Send for Credit Collection&#45;&gt;end_node</title>
<path fill="none" stroke="#ff0000" stroke-width="0.52" stroke-dasharray="5,2" d="M534.03,-355.59C560.41,-343.93 593.29,-326.74 618,-305 679.76,-250.68 672.57,-212.81 681,-131 682.64,-115.08 688.93,-108.89 681,-95 661.78,-61.33 619.97,-41.83 590.68,-31.81"/>
<polygon fill="#ff0000" stroke="#ff0000" stroke-width="0.52" points="591.86,-28.51 581.27,-28.78 589.71,-35.17 591.86,-28.51"/>
<text text-anchor="middle" x="679.5" y="-196.3" font-family="Times,serif" font-size="14.00">3</text>
</g>
<!-- Appeal to Judge&#45;&gt;Insert Date Appeal to Prefecture -->
<g id="edge27" class="edge">
<title>Appeal to Judge&#45;&gt;Insert Date Appeal to Prefecture</title>
<path fill="none" stroke="#ff0000" stroke-width="0.51" stroke-dasharray="5,2" d="M351.04,-561.05C327.33,-566.62 300.45,-574.22 277,-584 265.04,-588.99 263.18,-592.44 252,-599 245.04,-603.08 237.61,-607.39 230.41,-611.54"/>
<polygon fill="#ff0000" stroke="#ff0000" stroke-width="0.51" points="229.07,-608.27 222.14,-616.29 232.56,-614.34 229.07,-608.27"/>
<text text-anchor="middle" x="280.5" y="-587.8" font-family="Times,serif" font-size="14.00">2</text>
</g>
<!-- Appeal to Judge&#45;&gt;Add penalty -->
<g id="edge35" class="edge">
<title>Appeal to Judge&#45;&gt;Add penalty</title>
<path fill="none" stroke="#ff0000" stroke-width="0.5" stroke-dasharray="5,2" d="M385.76,-529.59C377.08,-524.1 367.57,-517.91 359,-512 346.91,-503.66 333.91,-494.1 322.6,-485.59"/>
<polygon fill="#ff0000" stroke="#ff0000" stroke-width="0.5" points="325.02,-483.03 314.94,-479.78 320.79,-488.61 325.02,-483.03"/>
<text text-anchor="middle" x="362.5" y="-500.8" font-family="Times,serif" font-size="14.00">1</text>
</g>
<!-- Appeal to Judge&#45;&gt;end_node -->
<g id="edge46" class="edge">
<title>Appeal to Judge&#45;&gt;end_node</title>
<path fill="none" stroke="#ff0000" stroke-width="0.52" stroke-dasharray="5,2" d="M476.82,-537.9C507.12,-532.38 543.61,-524.02 575,-512 696.65,-465.42 764,-418.26 764,-288 764,-288 764,-288 764,-112 764,-37.82 649.67,-24.8 591.77,-22.96"/>
<polygon fill="#ff0000" stroke="#ff0000" stroke-width="0.52" points="592.19,-19.47 582.11,-22.75 592.04,-26.47 592.19,-19.47"/>
<text text-anchor="middle" x="767.5" y="-283.3" font-family="Times,serif" font-size="14.00">3</text>
</g>
</g>
</svg>
