<?xml version="1.0" encoding="UTF-8" standalone="no"?>
<!DOCTYPE svg PUBLIC "-//W3C//DTD SVG 1.1//EN"
 "http://www.w3.org/Graphics/SVG/1.1/DTD/svg11.dtd">
<!-- Generated by graphviz version 7.0.5 (0)
 -->
<!-- Title: dfg Pages: 1 -->
<svg width="469pt" height="943pt"
 viewBox="0.00 0.00 468.50 943.00" xmlns="http://www.w3.org/2000/svg" xmlns:xlink="http://www.w3.org/1999/xlink">
<g id="graph0" class="graph" transform="scale(1 1) rotate(0) translate(4 939)">
<title>dfg</title>
<polygon fill="white" stroke="none" points="-4,4 -4,-939 464.5,-939 464.5,4 -4,4"/>
<!-- start_node -->
<g id="node1" class="node">
<title>start_node</title>
<ellipse fill="none" stroke="black" cx="281.5" cy="-917" rx="18" ry="18"/>
<text text-anchor="start" x="277" y="-913.3" font-family="Times,serif" font-size="14.00">●</text>
</g>
<!-- Create Fine -->
<g id="node2" class="node">
<title>Create Fine</title>
<polygon fill="#9b9bff" stroke="black" points="334.5,-848 228.5,-848 228.5,-812 334.5,-812 334.5,-848"/>
<text text-anchor="middle" x="281.5" y="-826.3" font-family="Times,serif" font-size="14.00">Create Fine (83)</text>
</g>
<!-- start_node&#45;&gt;Create Fine -->
<g id="edge1" class="edge">
<title>start_node&#45;&gt;Create Fine</title>
<path fill="none" stroke="#000000" stroke-width="6" d="M281.5,-898.8C281.5,-888.96 281.5,-876.27 281.5,-864.53"/>
<polygon fill="#000000" stroke="#000000" stroke-width="6" points="286.75,-864.92 281.5,-854.92 276.25,-864.92 286.75,-864.92"/>
<text text-anchor="middle" x="288.5" y="-869.8" font-family="Times,serif" font-size="14.00">83</text>
</g>
<!-- Send Fine -->
<g id="node3" class="node">
<title>Send Fine</title>
<polygon fill="#9b9bff" stroke="black" points="330.5,-761 232.5,-761 232.5,-725 330.5,-725 330.5,-761"/>
<text text-anchor="middle" x="281.5" y="-739.3" font-family="Times,serif" font-size="14.00">Send Fine (83)</text>
</g>
<!-- Create Fine&#45;&gt;Send Fine -->
<g id="edge2" class="edge">
<title>Create Fine&#45;&gt;Send Fine</title>
<path fill="none" stroke="#000000" stroke-width="6" d="M281.5,-811.8C281.5,-801.96 281.5,-789.27 281.5,-777.53"/>
<polygon fill="#000000" stroke="#000000" stroke-width="6" points="286.75,-777.92 281.5,-767.92 276.25,-777.92 286.75,-777.92"/>
<text text-anchor="middle" x="288.5" y="-782.8" font-family="Times,serif" font-size="14.00">83</text>
</g>
<!-- Insert Fine Notification -->
<g id="node4" class="node">
<title>Insert Fine Notification</title>
<polygon fill="#9b9bff" stroke="black" points="460.5,-674 290.5,-674 290.5,-638 460.5,-638 460.5,-674"/>
<text text-anchor="middle" x="375.5" y="-652.3" font-family="Times,serif" font-size="14.00">Insert Fine Notification (83)</text>
</g>
<!-- Send Fine&#45;&gt;Insert Fine Notification -->
<g id="edge3" class="edge">
<title>Send Fine&#45;&gt;Insert Fine Notification</title>
<path fill="none" stroke="#000000" stroke-width="5.79" d="M300.52,-724.8C313.05,-713.47 329.76,-698.36 344.21,-685.29"/>
<polygon fill="#000000" stroke="#000000" stroke-width="5.79" points="347.41,-689.23 351.43,-678.76 340.61,-681.71 347.41,-689.23"/>
<text text-anchor="middle" x="340.5" y="-695.8" font-family="Times,serif" font-size="14.00">80</text>
</g>
<!-- Insert Date Appeal to Prefecture -->
<g id="node5" class="node">
<title>Insert Date Appeal to Prefecture</title>
<polygon fill="#9b9bff" stroke="black" points="374.5,-587 156.5,-587 156.5,-551 374.5,-551 374.5,-587"/>
<text text-anchor="middle" x="265.5" y="-565.3" font-family="Times,serif" font-size="14.00">Insert Date Appeal to Prefecture (83)</text>
</g>
<!-- Send Fine&#45;&gt;Insert Date Appeal to Prefecture -->
<g id="edge20" class="edge">
<title>Send Fine&#45;&gt;Insert Date Appeal to Prefecture</title>
<path fill="none" stroke="#ff0000" stroke-width="0.5" stroke-dasharray="5,2" d="M279.64,-724.68C278.18,-710.94 276.13,-691.25 274.5,-674 272.06,-648.27 269.55,-618.94 267.8,-598"/>
<polygon fill="#ff0000" stroke="#ff0000" stroke-width="0.5" points="271.29,-597.74 266.97,-588.06 264.31,-598.31 271.29,-597.74"/>
<text text-anchor="middle" x="278" y="-652.3" font-family="Times,serif" font-size="14.00">3</text>
</g>
<!-- Insert Fine Notification&#45;&gt;Insert Date Appeal to Prefecture -->
<g id="edge4" class="edge">
<title>Insert Fine Notification&#45;&gt;Insert Date Appeal to Prefecture</title>
<path fill="none" stroke="#000000" stroke-width="5.52" d="M358.72,-637.92C348.41,-627.82 334.69,-615.09 321.5,-605 317.57,-602 313.38,-599.01 309.12,-596.13"/>
<polygon fill="#000000" stroke="#000000" stroke-width="5.52" points="311.9,-592.17 300.88,-590.79 306.65,-600.28 311.9,-592.17"/>
<text text-anchor="middle" x="345.5" y="-608.8" font-family="Times,serif" font-size="14.00">76</text>
</g>
<!-- Add penalty -->
<g id="node6" class="node">
<title>Add penalty</title>
<polygon fill="#9b9bff" stroke="black" points="335.5,-413 225.5,-413 225.5,-377 335.5,-377 335.5,-413"/>
<text text-anchor="middle" x="280.5" y="-391.3" font-family="Times,serif" font-size="14.00">Add penalty (83)</text>
</g>
<!-- Insert Fine Notification&#45;&gt;Add penalty -->
<g id="edge14" class="edge">
<title>Insert Fine Notification&#45;&gt;Add penalty</title>
<path fill="none" stroke="#ff0000" stroke-width="0.57" stroke-dasharray="5,2" d="M380.29,-637.75C385.31,-616.85 391.44,-580.74 383.5,-551 367.63,-491.56 351.55,-480.11 314.5,-431 311.99,-427.67 309.19,-424.33 306.3,-421.1"/>
<polygon fill="#ff0000" stroke="#ff0000" stroke-width="0.57" points="309.04,-418.91 299.64,-414.01 303.94,-423.7 309.04,-418.91"/>
<text text-anchor="middle" x="381" y="-521.8" font-family="Times,serif" font-size="14.00">4</text>
</g>
<!-- Send Appeal to Prefecture -->
<g id="node7" class="node">
<title>Send Appeal to Prefecture</title>
<polygon fill="#9b9bff" stroke="black" points="415,-131 230,-131 230,-95 415,-95 415,-131"/>
<text text-anchor="middle" x="322.5" y="-109.3" font-family="Times,serif" font-size="14.00">Send Appeal to Prefecture (83)</text>
</g>
<!-- Insert Fine Notification&#45;&gt;Send Appeal to Prefecture -->
<g id="edge22" class="edge">
<title>Insert Fine Notification&#45;&gt;Send Appeal to Prefecture</title>
<path fill="none" stroke="#ff0000" stroke-width="0.5" stroke-dasharray="5,2" d="M405.93,-637.51C427.46,-622.63 452.5,-599.07 452.5,-570 452.5,-570 452.5,-570 452.5,-220 452.5,-180.47 415.95,-153.06 381.61,-136.03"/>
<polygon fill="#ff0000" stroke="#ff0000" stroke-width="0.5" points="383.24,-132.93 372.7,-131.82 380.25,-139.26 383.24,-132.93"/>
<text text-anchor="middle" x="456" y="-391.3" font-family="Times,serif" font-size="14.00">3</text>
</g>
<!-- Insert Date Appeal to Prefecture&#45;&gt;Insert Fine Notification -->
<g id="edge21" class="edge">
<title>Insert Date Appeal to Prefecture&#45;&gt;Insert Fine Notification</title>
<path fill="none" stroke="#ff0000" stroke-width="0.5" stroke-dasharray="5,2" d="M279.96,-587.45C288.96,-597.67 301.14,-610.41 313.5,-620 319.08,-624.33 325.25,-628.47 331.48,-632.28"/>
<polygon fill="#ff0000" stroke="#ff0000" stroke-width="0.5" points="329.53,-635.2 339.93,-637.25 333.08,-629.16 329.53,-635.2"/>
<text text-anchor="middle" x="317" y="-608.8" font-family="Times,serif" font-size="14.00">3</text>
</g>
<!-- Insert Date Appeal to Prefecture&#45;&gt;Add penalty -->
<g id="edge5" class="edge">
<title>Insert Date Appeal to Prefecture&#45;&gt;Add penalty</title>
<path fill="none" stroke="#000000" stroke-width="3.04" d="M156.09,-558.75C69.96,-547.05 -28.73,-521.01 15.5,-464 27.67,-448.31 137.01,-424.1 211.39,-409.2"/>
<polygon fill="#000000" stroke="#000000" stroke-width="3.04" points="211.65,-412.72 220.78,-407.34 210.29,-405.85 211.65,-412.72"/>
<text text-anchor="middle" x="22.5" y="-478.3" font-family="Times,serif" font-size="14.00">40</text>
</g>
<!-- Insert Date Appeal to Prefecture&#45;&gt;Send Appeal to Prefecture -->
<g id="edge10" class="edge">
<title>Insert Date Appeal to Prefecture&#45;&gt;Send Appeal to Prefecture</title>
<path fill="none" stroke="#000000" stroke-width="2.77" d="M290.33,-550.72C296.74,-545.51 303.3,-539.44 308.5,-533 370.24,-456.49 379.12,-424.04 386.5,-326 392.44,-247.1 411.54,-214.73 367.5,-149 365.52,-146.05 363.22,-143.24 360.71,-140.59"/>
<polygon fill="#000000" stroke="#000000" stroke-width="2.77" points="363.21,-138.13 353.45,-134 358.5,-143.31 363.21,-138.13"/>
<text text-anchor="middle" x="391.5" y="-347.8" font-family="Times,serif" font-size="14.00">36</text>
</g>
<!-- Receive Result Appeal from Prefecture -->
<g id="node8" class="node">
<title>Receive Result Appeal from Prefecture</title>
<polygon fill="#9b9bff" stroke="black" points="296,-500 39,-500 39,-464 296,-464 296,-500"/>
<text text-anchor="middle" x="167.5" y="-478.3" font-family="Times,serif" font-size="14.00">Receive Result Appeal from Prefecture (83)</text>
</g>
<!-- Insert Date Appeal to Prefecture&#45;&gt;Receive Result Appeal from Prefecture -->
<g id="edge16" class="edge">
<title>Insert Date Appeal to Prefecture&#45;&gt;Receive Result Appeal from Prefecture</title>
<path fill="none" stroke="#ff0000" stroke-width="0.57" stroke-dasharray="5,2" d="M245.67,-550.8C231.28,-538.32 211.63,-521.28 195.63,-507.4"/>
<polygon fill="#ff0000" stroke="#ff0000" stroke-width="0.57" points="198.14,-504.94 188.29,-501.03 193.55,-510.23 198.14,-504.94"/>
<text text-anchor="middle" x="226" y="-521.8" font-family="Times,serif" font-size="14.00">4</text>
</g>
<!-- Add penalty&#45;&gt;Insert Date Appeal to Prefecture -->
<g id="edge15" class="edge">
<title>Add penalty&#45;&gt;Insert Date Appeal to Prefecture</title>
<path fill="none" stroke="#ff0000" stroke-width="0.57" stroke-dasharray="5,2" d="M289.72,-413.39C299.52,-434.11 312.56,-469.74 304.5,-500 300.57,-514.73 292.61,-529.6 284.9,-541.65"/>
<polygon fill="#ff0000" stroke="#ff0000" stroke-width="0.57" points="282,-539.7 279.33,-549.95 287.81,-543.6 282,-539.7"/>
<text text-anchor="middle" x="311" y="-478.3" font-family="Times,serif" font-size="14.00">4</text>
</g>
<!-- Add penalty&#45;&gt;Send Appeal to Prefecture -->
<g id="edge6" class="edge">
<title>Add penalty&#45;&gt;Send Appeal to Prefecture</title>
<path fill="none" stroke="#000000" stroke-width="2.77" d="M291.01,-376.74C293.9,-371.25 296.72,-365.03 298.5,-359 320.4,-284.62 323.31,-192.61 323.15,-145.32"/>
<polygon fill="#000000" stroke="#000000" stroke-width="2.77" points="326.65,-145.51 323.05,-135.54 319.65,-145.58 326.65,-145.51"/>
<text text-anchor="middle" x="325.5" y="-260.8" font-family="Times,serif" font-size="14.00">36</text>
</g>
<!-- Add penalty&#45;&gt;Receive Result Appeal from Prefecture -->
<g id="edge12" class="edge">
<title>Add penalty&#45;&gt;Receive Result Appeal from Prefecture</title>
<path fill="none" stroke="#000000" stroke-width="3.04" d="M237.86,-413.45C228.07,-418.4 218.04,-424.3 209.5,-431 201.77,-437.06 194.47,-444.74 188.18,-452.26"/>
<polygon fill="#000000" stroke="#000000" stroke-width="3.04" points="185.49,-450.02 182.07,-460.05 191,-454.34 185.49,-450.02"/>
<text text-anchor="middle" x="216.5" y="-434.8" font-family="Times,serif" font-size="14.00">40</text>
</g>
<!-- Notify Result Appeal to Offender -->
<g id="node9" class="node">
<title>Notify Result Appeal to Offender</title>
<polygon fill="#9b9bff" stroke="black" points="256,-326 31,-326 31,-290 256,-290 256,-326"/>
<text text-anchor="middle" x="143.5" y="-304.3" font-family="Times,serif" font-size="14.00">Notify Result Appeal to Offender (83)</text>
</g>
<!-- Add penalty&#45;&gt;Notify Result Appeal to Offender -->
<g id="edge18" class="edge">
<title>Add penalty&#45;&gt;Notify Result Appeal to Offender</title>
<path fill="none" stroke="#ff0000" stroke-width="0.5" stroke-dasharray="5,2" d="M252.45,-376.59C231.67,-363.7 203.15,-346.01 180.51,-331.96"/>
<polygon fill="#ff0000" stroke="#ff0000" stroke-width="0.5" points="182.5,-329.08 172.16,-326.78 178.81,-335.03 182.5,-329.08"/>
<text text-anchor="middle" x="224" y="-347.8" font-family="Times,serif" font-size="14.00">3</text>
</g>
<!-- Send Appeal to Prefecture&#45;&gt;Add penalty -->
<g id="edge11" class="edge">
<title>Send Appeal to Prefecture&#45;&gt;Add penalty</title>
<path fill="none" stroke="#000000" stroke-width="2.77" d="M319.42,-131.14C314.65,-157.94 305.31,-211.44 298.5,-257 293.08,-293.23 287.72,-334.99 284.28,-362.79"/>
<polygon fill="#000000" stroke="#000000" stroke-width="2.77" points="280.83,-362.16 283.09,-372.51 287.78,-363.01 280.83,-362.16"/>
<text text-anchor="middle" x="305.5" y="-260.8" font-family="Times,serif" font-size="14.00">36</text>
</g>
<!-- Send Appeal to Prefecture&#45;&gt;Receive Result Appeal from Prefecture -->
<g id="edge7" class="edge">
<title>Send Appeal to Prefecture&#45;&gt;Receive Result Appeal from Prefecture</title>
<path fill="none" stroke="#000000" stroke-width="2.98" d="M335.31,-131.38C348.92,-151.6 368.5,-186.5 368.5,-220 368.5,-352.5 368.5,-352.5 368.5,-352.5 368.5,-381.43 365.07,-392.66 344.5,-413 323.18,-434.09 294.62,-448.78 266.68,-458.95"/>
<polygon fill="#000000" stroke="#000000" stroke-width="2.98" points="265.64,-455.61 257.3,-462.14 267.9,-462.24 265.64,-455.61"/>
<text text-anchor="middle" x="375.5" y="-304.3" font-family="Times,serif" font-size="14.00">39</text>
</g>
<!-- end_node -->
<g id="node12" class="node">
<title>end_node</title>
<ellipse fill="none" stroke="black" cx="162.5" cy="-22" rx="18" ry="18"/>
<ellipse fill="none" stroke="black" cx="162.5" cy="-22" rx="22" ry="22"/>
<text text-anchor="start" x="158" y="-18.3" font-family="Times,serif" font-size="14.00">■</text>
</g>
<!-- Send Appeal to Prefecture&#45;&gt;end_node -->
<g id="edge24" class="edge">
<title>Send Appeal to Prefecture&#45;&gt;end_node</title>
<path fill="none" stroke="#000000" stroke-width="0.84" d="M291.27,-94.63C262.27,-78.5 219.45,-54.68 191.27,-39"/>
<polygon fill="#000000" stroke="#000000" stroke-width="0.84" points="193.16,-36.05 182.72,-34.25 189.76,-42.17 193.16,-36.05"/>
<text text-anchor="middle" x="261" y="-65.8" font-family="Times,serif" font-size="14.00">8</text>
</g>
<!-- Receive Result Appeal from Prefecture&#45;&gt;Add penalty -->
<g id="edge17" class="edge">
<title>Receive Result Appeal from Prefecture&#45;&gt;Add penalty</title>
<path fill="none" stroke="#ff0000" stroke-width="0.5" stroke-dasharray="5,2" d="M197.45,-463.52C206.05,-458.17 215.31,-452.09 223.5,-446 233.96,-438.22 244.85,-428.99 254.28,-420.58"/>
<polygon fill="#ff0000" stroke="#ff0000" stroke-width="0.5" points="256.52,-423.27 261.58,-413.97 251.82,-418.09 256.52,-423.27"/>
<text text-anchor="middle" x="245" y="-434.8" font-family="Times,serif" font-size="14.00">3</text>
</g>
<!-- Receive Result Appeal from Prefecture&#45;&gt;Notify Result Appeal to Offender -->
<g id="edge8" class="edge">
<title>Receive Result Appeal from Prefecture&#45;&gt;Notify Result Appeal to Offender</title>
<path fill="none" stroke="#000000" stroke-width="5.79" d="M165.07,-463.56C161.11,-435.23 153.23,-378.73 148.17,-342.46"/>
<polygon fill="#000000" stroke="#000000" stroke-width="5.79" points="153.23,-342.03 146.83,-332.83 143.19,-343.43 153.23,-342.03"/>
<text text-anchor="middle" x="165.5" y="-391.3" font-family="Times,serif" font-size="14.00">80</text>
</g>
<!-- Send for Credit Collection -->
<g id="node10" class="node">
<title>Send for Credit Collection</title>
<polygon fill="#9e9eff" stroke="black" points="256,-239 69,-239 69,-203 256,-203 256,-239"/>
<text text-anchor="middle" x="162.5" y="-217.3" font-family="Times,serif" font-size="14.00">Send for Credit Collection (80)</text>
</g>
<!-- Notify Result Appeal to Offender&#45;&gt;Send for Credit Collection -->
<g id="edge9" class="edge">
<title>Notify Result Appeal to Offender&#45;&gt;Send for Credit Collection</title>
<path fill="none" stroke="#000000" stroke-width="5.79" d="M147.34,-289.8C149.57,-279.84 152.45,-266.97 155.1,-255.12"/>
<polygon fill="#000000" stroke="#000000" stroke-width="5.79" points="159.96,-256.58 157.2,-245.72 150.07,-254.37 159.96,-256.58"/>
<text text-anchor="middle" x="161.5" y="-260.8" font-family="Times,serif" font-size="14.00">80</text>
</g>
<!-- Appeal to Judge -->
<g id="node11" class="node">
<title>Appeal to Judge</title>
<polygon fill="#ffffff" stroke="black" points="125,-185 0,-185 0,-149 125,-149 125,-185"/>
<text text-anchor="middle" x="62.5" y="-163.3" font-family="Times,serif" font-size="14.00">Appeal to Judge (3)</text>
</g>
<!-- Notify Result Appeal to Offender&#45;&gt;Appeal to Judge -->
<g id="edge19" class="edge">
<title>Notify Result Appeal to Offender&#45;&gt;Appeal to Judge</title>
<path fill="none" stroke="#ff0000" stroke-width="0.5" stroke-dasharray="5,2" d="M109.69,-289.53C91.17,-277.94 69.92,-260.85 59.5,-239 53.13,-225.64 53.39,-209.22 55.46,-195.53"/>
<polygon fill="#ff0000" stroke="#ff0000" stroke-width="0.5" points="58.84,-196.47 57.28,-186 51.97,-195.16 58.84,-196.47"/>
<text text-anchor="middle" x="89" y="-260.8" font-family="Times,serif" font-size="14.00">3</text>
</g>
<!-- Send for Credit Collection&#45;&gt;Send Appeal to Prefecture -->
<g id="edge13" class="edge">
<title>Send for Credit Collection&#45;&gt;Send Appeal to Prefecture</title>
<path fill="none" stroke="#000000" stroke-width="0.84" d="M186.22,-202.54C206.47,-187.83 236.5,-166.46 263.5,-149 269.68,-145 276.32,-140.89 282.83,-136.96"/>
<polygon fill="#000000" stroke="#000000" stroke-width="0.84" points="284.32,-140.15 291.11,-132.02 280.73,-134.14 284.32,-140.15"/>
<text text-anchor="middle" x="267" y="-163.3" font-family="Times,serif" font-size="14.00">8</text>
</g>
<!-- Send for Credit Collection&#45;&gt;end_node -->
<g id="edge23" class="edge">
<title>Send for Credit Collection&#45;&gt;end_node</title>
<path fill="none" stroke="#000000" stroke-width="5.24" d="M162.5,-202.52C162.5,-170.81 162.5,-103.15 162.5,-60.55"/>
<polygon fill="#000000" stroke="#000000" stroke-width="5.24" points="167.09,-60.56 162.5,-50.56 157.91,-60.56 167.09,-60.56"/>
<text text-anchor="middle" x="169.5" y="-109.3" font-family="Times,serif" font-size="14.00">72</text>
</g>
<!-- Appeal to Judge&#45;&gt;end_node -->
<g id="edge25" class="edge">
<title>Appeal to Judge&#45;&gt;end_node</title>
<path fill="none" stroke="#ff0000" stroke-width="0.5" stroke-dasharray="5,2" d="M74.56,-148.75C91.81,-124.08 123.68,-78.52 143.94,-49.54"/>
<polygon fill="#ff0000" stroke="#ff0000" stroke-width="0.5" points="146.78,-51.58 149.65,-41.38 141.05,-47.57 146.78,-51.58"/>
<text text-anchor="middle" x="114" y="-109.3" font-family="Times,serif" font-size="14.00">3</text>
</g>
</g>
</svg>
