<?xml version="1.0" encoding="UTF-8" standalone="no"?>
<!DOCTYPE svg PUBLIC "-//W3C//DTD SVG 1.1//EN"
 "http://www.w3.org/Graphics/SVG/1.1/DTD/svg11.dtd">
<!-- Generated by graphviz version 7.0.5 (0)
 -->
<!-- Title: dfg Pages: 1 -->
<svg width="699pt" height="922pt"
 viewBox="0.00 0.00 698.50 922.00" xmlns="http://www.w3.org/2000/svg" xmlns:xlink="http://www.w3.org/1999/xlink">
<g id="graph0" class="graph" transform="scale(1 1) rotate(0) translate(4 918)">
<title>dfg</title>
<polygon fill="white" stroke="none" points="-4,4 -4,-918 694.5,-918 694.5,4 -4,4"/>
<!-- start_node -->
<g id="node1" class="node">
<title>start_node</title>
<ellipse fill="none" stroke="black" cx="204" cy="-896" rx="18" ry="18"/>
<text text-anchor="start" x="199.5" y="-892.3" font-family="Times,serif" font-size="14.00">●</text>
</g>
<!-- Create Fine -->
<g id="node2" class="node">
<title>Create Fine</title>
<polygon fill="#9b9bff" stroke="black" points="260.5,-827 147.5,-827 147.5,-791 260.5,-791 260.5,-827"/>
<text text-anchor="middle" x="204" y="-805.3" font-family="Times,serif" font-size="14.00">Create Fine (110)</text>
</g>
<!-- start_node&#45;&gt;Create Fine -->
<g id="edge1" class="edge">
<title>start_node&#45;&gt;Create Fine</title>
<path fill="none" stroke="#000000" stroke-width="6" d="M204,-877.8C204,-867.96 204,-855.27 204,-843.53"/>
<polygon fill="#000000" stroke="#000000" stroke-width="6" points="209.25,-843.92 204,-833.92 198.75,-843.92 209.25,-843.92"/>
<text text-anchor="middle" x="214.5" y="-848.8" font-family="Times,serif" font-size="14.00">110</text>
</g>
<!-- Send Fine -->
<g id="node3" class="node">
<title>Send Fine</title>
<polygon fill="#9b9bff" stroke="black" points="256,-740 152,-740 152,-704 256,-704 256,-740"/>
<text text-anchor="middle" x="204" y="-718.3" font-family="Times,serif" font-size="14.00">Send Fine (110)</text>
</g>
<!-- Create Fine&#45;&gt;Send Fine -->
<g id="edge2" class="edge">
<title>Create Fine&#45;&gt;Send Fine</title>
<path fill="none" stroke="#000000" stroke-width="6" d="M204,-790.8C204,-780.96 204,-768.27 204,-756.53"/>
<polygon fill="#000000" stroke="#000000" stroke-width="6" points="209.25,-756.92 204,-746.92 198.75,-756.92 209.25,-756.92"/>
<text text-anchor="middle" x="214.5" y="-761.8" font-family="Times,serif" font-size="14.00">110</text>
</g>
<!-- Insert Fine Notification -->
<g id="node4" class="node">
<title>Insert Fine Notification</title>
<polygon fill="#9b9bff" stroke="black" points="292.5,-653 115.5,-653 115.5,-617 292.5,-617 292.5,-653"/>
<text text-anchor="middle" x="204" y="-631.3" font-family="Times,serif" font-size="14.00">Insert Fine Notification (110)</text>
</g>
<!-- Send Fine&#45;&gt;Insert Fine Notification -->
<g id="edge3" class="edge">
<title>Send Fine&#45;&gt;Insert Fine Notification</title>
<path fill="none" stroke="#000000" stroke-width="6" d="M204,-703.8C204,-693.96 204,-681.27 204,-669.53"/>
<polygon fill="#000000" stroke="#000000" stroke-width="6" points="209.25,-669.92 204,-659.92 198.75,-669.92 209.25,-669.92"/>
<text text-anchor="middle" x="214.5" y="-674.8" font-family="Times,serif" font-size="14.00">110</text>
</g>
<!-- Insert Date Appeal to Prefecture -->
<g id="node5" class="node">
<title>Insert Date Appeal to Prefecture</title>
<polygon fill="#9b9bff" stroke="black" points="242.5,-566 17.5,-566 17.5,-530 242.5,-530 242.5,-566"/>
<text text-anchor="middle" x="130" y="-544.3" font-family="Times,serif" font-size="14.00">Insert Date Appeal to Prefecture (110)</text>
</g>
<!-- Insert Fine Notification&#45;&gt;Insert Date Appeal to Prefecture -->
<g id="edge4" class="edge">
<title>Insert Fine Notification&#45;&gt;Insert Date Appeal to Prefecture</title>
<path fill="none" stroke="#000000" stroke-width="5.41" d="M189.02,-616.8C179.46,-605.81 166.81,-591.28 155.67,-578.48"/>
<polygon fill="#000000" stroke="#000000" stroke-width="5.41" points="159.5,-575.67 149.36,-571.24 152.35,-581.89 159.5,-575.67"/>
<text text-anchor="middle" x="178" y="-587.8" font-family="Times,serif" font-size="14.00">99</text>
</g>
<!-- Add penalty -->
<g id="node6" class="node">
<title>Add penalty</title>
<polygon fill="#9b9bff" stroke="black" points="256,-479 140,-479 140,-443 256,-443 256,-479"/>
<text text-anchor="middle" x="198" y="-457.3" font-family="Times,serif" font-size="14.00">Add penalty (110)</text>
</g>
<!-- Insert Fine Notification&#45;&gt;Add penalty -->
<g id="edge14" class="edge">
<title>Insert Fine Notification&#45;&gt;Add penalty</title>
<path fill="none" stroke="#000000" stroke-width="0.71" d="M220.87,-616.64C232.1,-603.81 245.88,-585.28 252,-566 256.84,-550.75 257.27,-545.11 252,-530 246.45,-514.08 235.44,-499.09 224.8,-487.26"/>
<polygon fill="#000000" stroke="#000000" stroke-width="0.71" points="227.36,-484.87 217.95,-480.01 222.28,-489.68 227.36,-484.87"/>
<text text-anchor="middle" x="262" y="-544.3" font-family="Times,serif" font-size="14.00">11</text>
</g>
<!-- Insert Date Appeal to Prefecture&#45;&gt;Add penalty -->
<g id="edge5" class="edge">
<title>Insert Date Appeal to Prefecture&#45;&gt;Add penalty</title>
<path fill="none" stroke="#000000" stroke-width="3.38" d="M147.92,-529.75C153.3,-524.26 159.07,-518.04 164,-512 169.17,-505.65 174.35,-498.53 179.05,-491.7"/>
<polygon fill="#000000" stroke="#000000" stroke-width="3.38" points="181.91,-493.72 184.53,-483.45 176.08,-489.84 181.91,-493.72"/>
<text text-anchor="middle" x="182" y="-500.8" font-family="Times,serif" font-size="14.00">61</text>
</g>
<!-- Send Appeal to Prefecture -->
<g id="node7" class="node">
<title>Send Appeal to Prefecture</title>
<polygon fill="#9b9bff" stroke="black" points="192,-392 0,-392 0,-356 192,-356 192,-392"/>
<text text-anchor="middle" x="96" y="-370.3" font-family="Times,serif" font-size="14.00">Send Appeal to Prefecture (110)</text>
</g>
<!-- Insert Date Appeal to Prefecture&#45;&gt;Send Appeal to Prefecture -->
<g id="edge11" class="edge">
<title>Insert Date Appeal to Prefecture&#45;&gt;Send Appeal to Prefecture</title>
<path fill="none" stroke="#000000" stroke-width="2.74" d="M126.55,-529.56C120.83,-500.59 109.27,-442.15 102.13,-406.01"/>
<polygon fill="#000000" stroke="#000000" stroke-width="2.74" points="105.63,-405.69 100.26,-396.56 98.77,-407.05 105.63,-405.69"/>
<text text-anchor="middle" x="124" y="-457.3" font-family="Times,serif" font-size="14.00">49</text>
</g>
<!-- Add penalty&#45;&gt;Insert Date Appeal to Prefecture -->
<g id="edge15" class="edge">
<title>Add penalty&#45;&gt;Insert Date Appeal to Prefecture</title>
<path fill="none" stroke="#000000" stroke-width="0.71" d="M164.93,-479.39C157.91,-484.31 151.1,-490.21 146,-497 141.09,-503.54 137.66,-511.64 135.27,-519.4"/>
<polygon fill="#000000" stroke="#000000" stroke-width="0.71" points="131.93,-518.34 132.81,-528.9 138.7,-520.09 131.93,-518.34"/>
<text text-anchor="middle" x="153" y="-500.8" font-family="Times,serif" font-size="14.00">11</text>
</g>
<!-- Add penalty&#45;&gt;Send Appeal to Prefecture -->
<g id="edge6" class="edge">
<title>Add penalty&#45;&gt;Send Appeal to Prefecture</title>
<path fill="none" stroke="#000000" stroke-width="3.38" d="M177.36,-442.8C163.35,-431.12 144.54,-415.45 128.53,-402.11"/>
<polygon fill="#000000" stroke="#000000" stroke-width="3.38" points="130.82,-399.46 120.89,-395.75 126.34,-404.84 130.82,-399.46"/>
<text text-anchor="middle" x="160" y="-413.8" font-family="Times,serif" font-size="14.00">61</text>
</g>
<!-- Receive Result Appeal from Prefecture -->
<g id="node8" class="node">
<title>Receive Result Appeal from Prefecture</title>
<polygon fill="#9b9bff" stroke="black" points="325.5,-305 62.5,-305 62.5,-269 325.5,-269 325.5,-305"/>
<text text-anchor="middle" x="194" y="-283.3" font-family="Times,serif" font-size="14.00">Receive Result Appeal from Prefecture (110)</text>
</g>
<!-- Add penalty&#45;&gt;Receive Result Appeal from Prefecture -->
<g id="edge13" class="edge">
<title>Add penalty&#45;&gt;Receive Result Appeal from Prefecture</title>
<path fill="none" stroke="#000000" stroke-width="1.62" d="M199.35,-442.69C200.76,-422.05 202.57,-386.49 201,-356 200.35,-343.29 199.01,-329.3 197.68,-317.33"/>
<polygon fill="#000000" stroke="#000000" stroke-width="1.62" points="201.2,-317.25 196.56,-307.73 194.25,-318.07 201.2,-317.25"/>
<text text-anchor="middle" x="208" y="-370.3" font-family="Times,serif" font-size="14.00">28</text>
</g>
<!-- Notify Result Appeal to Offender -->
<g id="node9" class="node">
<title>Notify Result Appeal to Offender</title>
<polygon fill="#a2a2ff" stroke="black" points="461,-218 229,-218 229,-182 461,-182 461,-218"/>
<text text-anchor="middle" x="345" y="-196.3" font-family="Times,serif" font-size="14.00">Notify Result Appeal to Offender (102)</text>
</g>
<!-- Add penalty&#45;&gt;Notify Result Appeal to Offender -->
<g id="edge17" class="edge">
<title>Add penalty&#45;&gt;Notify Result Appeal to Offender</title>
<path fill="none" stroke="#000000" stroke-width="0.66" d="M220.51,-442.59C252.3,-416.54 309.32,-364.13 335,-305 345.47,-280.88 347.29,-250.74 346.9,-229.12"/>
<polygon fill="#000000" stroke="#000000" stroke-width="0.66" points="350.41,-229.24 346.55,-219.37 343.41,-229.49 350.41,-229.24"/>
<text text-anchor="middle" x="332" y="-326.8" font-family="Times,serif" font-size="14.00">10</text>
</g>
<!-- Send Appeal to Prefecture&#45;&gt;Add penalty -->
<g id="edge12" class="edge">
<title>Send Appeal to Prefecture&#45;&gt;Add penalty</title>
<path fill="none" stroke="#000000" stroke-width="1.62" d="M144.14,-392.43C153.39,-397.19 162.52,-403.02 170,-410 176.55,-416.11 181.95,-424.11 186.21,-431.91"/>
<polygon fill="#000000" stroke="#000000" stroke-width="1.62" points="183,-433.31 190.54,-440.75 189.28,-430.23 183,-433.31"/>
<text text-anchor="middle" x="188" y="-413.8" font-family="Times,serif" font-size="14.00">28</text>
</g>
<!-- Send Appeal to Prefecture&#45;&gt;Receive Result Appeal from Prefecture -->
<g id="edge7" class="edge">
<title>Send Appeal to Prefecture&#45;&gt;Receive Result Appeal from Prefecture</title>
<path fill="none" stroke="#000000" stroke-width="4.5" d="M115.83,-355.8C129.03,-344.35 146.66,-329.06 161.84,-315.89"/>
<polygon fill="#000000" stroke="#000000" stroke-width="4.5" points="164.25,-319.02 169.22,-309.49 159.08,-313.07 164.25,-319.02"/>
<text text-anchor="middle" x="157" y="-326.8" font-family="Times,serif" font-size="14.00">82</text>
</g>
<!-- Receive Result Appeal from Prefecture&#45;&gt;Add penalty -->
<g id="edge16" class="edge">
<title>Receive Result Appeal from Prefecture&#45;&gt;Add penalty</title>
<path fill="none" stroke="#000000" stroke-width="0.66" d="M204.8,-305.3C207.84,-310.79 210.89,-317 213,-323 217.95,-337.06 217.66,-341.15 219,-356 221.76,-386.62 222.78,-395.53 214,-425 213.26,-427.49 212.38,-430.02 211.41,-432.54"/>
<polygon fill="#000000" stroke="#000000" stroke-width="0.66" points="208.23,-431.07 207.52,-441.65 214.66,-433.82 208.23,-431.07"/>
<text text-anchor="middle" x="227" y="-370.3" font-family="Times,serif" font-size="14.00">10</text>
</g>
<!-- Receive Result Appeal from Prefecture&#45;&gt;Notify Result Appeal to Offender -->
<g id="edge8" class="edge">
<title>Receive Result Appeal from Prefecture&#45;&gt;Notify Result Appeal to Offender</title>
<path fill="none" stroke="#000000" stroke-width="5.04" d="M224.92,-268.59C246.6,-256.39 275.92,-239.88 300.16,-226.24"/>
<polygon fill="#000000" stroke="#000000" stroke-width="5.04" points="302.13,-230.19 308.68,-221.45 297.8,-222.51 302.13,-230.19"/>
<text text-anchor="middle" x="285" y="-239.8" font-family="Times,serif" font-size="14.00">92</text>
</g>
<!-- Payment -->
<g id="node10" class="node">
<title>Payment</title>
<polygon fill="#c5c5ff" stroke="black" points="342.5,-131 251.5,-131 251.5,-95 342.5,-95 342.5,-131"/>
<text text-anchor="middle" x="297" y="-109.3" font-family="Times,serif" font-size="14.00">Payment (66)</text>
</g>
<!-- Receive Result Appeal from Prefecture&#45;&gt;Payment -->
<g id="edge19" class="edge">
<title>Receive Result Appeal from Prefecture&#45;&gt;Payment</title>
<path fill="none" stroke="#000000" stroke-width="0.55" d="M193.59,-268.53C193.85,-246.76 196.89,-209.15 213,-182 223.66,-164.03 240.95,-148.82 257.07,-137.38"/>
<polygon fill="#000000" stroke="#000000" stroke-width="0.55" points="258.86,-140.4 265.17,-131.88 254.93,-134.6 258.86,-140.4"/>
<text text-anchor="middle" x="216.5" y="-196.3" font-family="Times,serif" font-size="14.00">8</text>
</g>
<!-- Notify Result Appeal to Offender&#45;&gt;Payment -->
<g id="edge9" class="edge">
<title>Notify Result Appeal to Offender&#45;&gt;Payment</title>
<path fill="none" stroke="#000000" stroke-width="3.22" d="M335.29,-181.8C329.21,-171.04 321.22,-156.88 314.1,-144.29"/>
<polygon fill="#000000" stroke="#000000" stroke-width="3.22" points="317.23,-142.7 309.26,-135.72 311.13,-146.14 317.23,-142.7"/>
<text text-anchor="middle" x="330" y="-152.8" font-family="Times,serif" font-size="14.00">58</text>
</g>
<!-- Send for Credit Collection -->
<g id="node11" class="node">
<title>Send for Credit Collection</title>
<polygon fill="#ececff" stroke="black" points="547.5,-131 360.5,-131 360.5,-95 547.5,-95 547.5,-131"/>
<text text-anchor="middle" x="454" y="-109.3" font-family="Times,serif" font-size="14.00">Send for Credit Collection (26)</text>
</g>
<!-- Notify Result Appeal to Offender&#45;&gt;Send for Credit Collection -->
<g id="edge10" class="edge">
<title>Notify Result Appeal to Offender&#45;&gt;Send for Credit Collection</title>
<path fill="none" stroke="#000000" stroke-width="1.51" d="M367.32,-181.59C383.19,-169.22 404.73,-152.42 422.37,-138.66"/>
<polygon fill="#000000" stroke="#000000" stroke-width="1.51" points="424.17,-141.7 429.9,-132.79 419.86,-136.18 424.17,-141.7"/>
<text text-anchor="middle" x="413" y="-152.8" font-family="Times,serif" font-size="14.00">26</text>
</g>
<!-- Appeal to Judge -->
<g id="node12" class="node">
<title>Appeal to Judge</title>
<polygon fill="#ffffff" stroke="black" points="690.5,-131 565.5,-131 565.5,-95 690.5,-95 690.5,-131"/>
<text text-anchor="middle" x="628" y="-109.3" font-family="Times,serif" font-size="14.00">Appeal to Judge (7)</text>
</g>
<!-- Notify Result Appeal to Offender&#45;&gt;Appeal to Judge -->
<g id="edge18" class="edge">
<title>Notify Result Appeal to Offender&#45;&gt;Appeal to Judge</title>
<path fill="none" stroke="#000000" stroke-width="0.5" d="M402.95,-181.59C448.45,-167.93 511.9,-148.87 559.84,-134.47"/>
<polygon fill="#000000" stroke="#000000" stroke-width="0.5" points="560.83,-137.83 569.4,-131.6 558.82,-131.13 560.83,-137.83"/>
<text text-anchor="middle" x="506.5" y="-152.8" font-family="Times,serif" font-size="14.00">7</text>
</g>
<!-- end_node -->
<g id="node13" class="node">
<title>end_node</title>
<ellipse fill="none" stroke="black" cx="345" cy="-22" rx="18" ry="18"/>
<ellipse fill="none" stroke="black" cx="345" cy="-22" rx="22" ry="22"/>
<text text-anchor="start" x="340.5" y="-18.3" font-family="Times,serif" font-size="14.00">■</text>
</g>
<!-- Notify Result Appeal to Offender&#45;&gt;end_node -->
<g id="edge22" class="edge">
<title>Notify Result Appeal to Offender&#45;&gt;end_node</title>
<path fill="none" stroke="#000000" stroke-width="0.71" d="M291.55,-181.59C267.97,-170.94 242.58,-154.7 229,-131 204.35,-87.97 271.9,-52 314.05,-34.48"/>
<polygon fill="#000000" stroke="#000000" stroke-width="0.71" points="315.17,-37.8 323.14,-30.83 312.56,-31.3 315.17,-37.8"/>
<text text-anchor="middle" x="236" y="-109.3" font-family="Times,serif" font-size="14.00">11</text>
</g>
<!-- Payment&#45;&gt;end_node -->
<g id="edge20" class="edge">
<title>Payment&#45;&gt;end_node</title>
<path fill="none" stroke="#000000" stroke-width="3.65" d="M306.25,-94.84C312.26,-83.71 320.27,-68.86 327.45,-55.55"/>
<polygon fill="#000000" stroke="#000000" stroke-width="3.65" points="330.49,-57.28 332.15,-46.82 324.33,-53.96 330.49,-57.28"/>
<text text-anchor="middle" x="330" y="-65.8" font-family="Times,serif" font-size="14.00">66</text>
</g>
<!-- Send for Credit Collection&#45;&gt;end_node -->
<g id="edge21" class="edge">
<title>Send for Credit Collection&#45;&gt;end_node</title>
<path fill="none" stroke="#000000" stroke-width="1.51" d="M432.72,-94.63C415.08,-80.22 389.92,-59.68 371.07,-44.28"/>
<polygon fill="#000000" stroke="#000000" stroke-width="1.51" points="373.33,-41.61 363.37,-38 368.9,-47.03 373.33,-41.61"/>
<text text-anchor="middle" x="416" y="-65.8" font-family="Times,serif" font-size="14.00">26</text>
</g>
<!-- Appeal to Judge&#45;&gt;end_node -->
<g id="edge23" class="edge">
<title>Appeal to Judge&#45;&gt;end_node</title>
<path fill="none" stroke="#000000" stroke-width="0.5" d="M572.43,-94.52C513.74,-76.07 423.31,-47.63 376.1,-32.78"/>
<polygon fill="#000000" stroke="#000000" stroke-width="0.5" points="377.2,-29.46 366.62,-29.8 375.1,-36.14 377.2,-29.46"/>
<text text-anchor="middle" x="514.5" y="-65.8" font-family="Times,serif" font-size="14.00">7</text>
</g>
</g>
</svg>
