<?xml version="1.0" encoding="UTF-8" standalone="no"?>
<!DOCTYPE svg PUBLIC "-//W3C//DTD SVG 1.1//EN"
 "http://www.w3.org/Graphics/SVG/1.1/DTD/svg11.dtd">
<!-- Generated by graphviz version 7.0.5 (0)
 -->
<!-- Title: dfg Pages: 1 -->
<svg width="461pt" height="922pt"
 viewBox="0.00 0.00 460.50 922.00" xmlns="http://www.w3.org/2000/svg" xmlns:xlink="http://www.w3.org/1999/xlink">
<g id="graph0" class="graph" transform="scale(1 1) rotate(0) translate(4 918)">
<title>dfg</title>
<polygon fill="white" stroke="none" points="-4,4 -4,-918 456.5,-918 456.5,4 -4,4"/>
<!-- start_node -->
<g id="node1" class="node">
<title>start_node</title>
<ellipse fill="none" stroke="black" cx="191" cy="-896" rx="18" ry="18"/>
<text text-anchor="start" x="186.5" y="-892.3" font-family="Times,serif" font-size="14.00">●</text>
</g>
<!-- Create Fine -->
<g id="node2" class="node">
<title>Create Fine</title>
<polygon fill="#9b9bff" stroke="black" points="247.5,-827 134.5,-827 134.5,-791 247.5,-791 247.5,-827"/>
<text text-anchor="middle" x="191" y="-805.3" font-family="Times,serif" font-size="14.00">Create Fine (191)</text>
</g>
<!-- start_node&#45;&gt;Create Fine -->
<g id="edge1" class="edge">
<title>start_node&#45;&gt;Create Fine</title>
<path fill="none" stroke="#000000" stroke-width="6" d="M191,-877.8C191,-867.96 191,-855.27 191,-843.53"/>
<polygon fill="#000000" stroke="#000000" stroke-width="6" points="196.25,-843.92 191,-833.92 185.75,-843.92 196.25,-843.92"/>
<text text-anchor="middle" x="201.5" y="-848.8" font-family="Times,serif" font-size="14.00">191</text>
</g>
<!-- Send Fine -->
<g id="node3" class="node">
<title>Send Fine</title>
<polygon fill="#9b9bff" stroke="black" points="243,-740 139,-740 139,-704 243,-704 243,-740"/>
<text text-anchor="middle" x="191" y="-718.3" font-family="Times,serif" font-size="14.00">Send Fine (191)</text>
</g>
<!-- Create Fine&#45;&gt;Send Fine -->
<g id="edge2" class="edge">
<title>Create Fine&#45;&gt;Send Fine</title>
<path fill="none" stroke="#000000" stroke-width="6" d="M191,-790.8C191,-780.96 191,-768.27 191,-756.53"/>
<polygon fill="#000000" stroke="#000000" stroke-width="6" points="196.25,-756.92 191,-746.92 185.75,-756.92 196.25,-756.92"/>
<text text-anchor="middle" x="201.5" y="-761.8" font-family="Times,serif" font-size="14.00">191</text>
</g>
<!-- Insert Fine Notification -->
<g id="node4" class="node">
<title>Insert Fine Notification</title>
<polygon fill="#9b9bff" stroke="black" points="279.5,-653 102.5,-653 102.5,-617 279.5,-617 279.5,-653"/>
<text text-anchor="middle" x="191" y="-631.3" font-family="Times,serif" font-size="14.00">Insert Fine Notification (191)</text>
</g>
<!-- Send Fine&#45;&gt;Insert Fine Notification -->
<g id="edge3" class="edge">
<title>Send Fine&#45;&gt;Insert Fine Notification</title>
<path fill="none" stroke="#000000" stroke-width="6" d="M191,-703.8C191,-693.96 191,-681.27 191,-669.53"/>
<polygon fill="#000000" stroke="#000000" stroke-width="6" points="196.25,-669.92 191,-659.92 185.75,-669.92 196.25,-669.92"/>
<text text-anchor="middle" x="201.5" y="-674.8" font-family="Times,serif" font-size="14.00">191</text>
</g>
<!-- Insert Date Appeal to Prefecture -->
<g id="node5" class="node">
<title>Insert Date Appeal to Prefecture</title>
<polygon fill="#9b9bff" stroke="black" points="228.5,-566 3.5,-566 3.5,-530 228.5,-530 228.5,-566"/>
<text text-anchor="middle" x="116" y="-544.3" font-family="Times,serif" font-size="14.00">Insert Date Appeal to Prefecture (191)</text>
</g>
<!-- Insert Fine Notification&#45;&gt;Insert Date Appeal to Prefecture -->
<g id="edge4" class="edge">
<title>Insert Fine Notification&#45;&gt;Insert Date Appeal to Prefecture</title>
<path fill="none" stroke="#000000" stroke-width="4.52" d="M175.82,-616.8C166.13,-605.81 153.3,-591.28 142.02,-578.48"/>
<polygon fill="#000000" stroke="#000000" stroke-width="4.52" points="145.06,-575.96 135.48,-571.07 139.13,-581.19 145.06,-575.96"/>
<text text-anchor="middle" x="167.5" y="-587.8" font-family="Times,serif" font-size="14.00">145</text>
</g>
<!-- Add penalty -->
<g id="node6" class="node">
<title>Add penalty</title>
<polygon fill="#9b9bff" stroke="black" points="238,-479 122,-479 122,-443 238,-443 238,-479"/>
<text text-anchor="middle" x="180" y="-457.3" font-family="Times,serif" font-size="14.00">Add penalty (191)</text>
</g>
<!-- Insert Fine Notification&#45;&gt;Add penalty -->
<g id="edge13" class="edge">
<title>Insert Fine Notification&#45;&gt;Add penalty</title>
<path fill="none" stroke="#000000" stroke-width="1.34" d="M207.92,-616.65C225.67,-596.26 249.51,-561.23 238,-530 232.14,-514.11 220.73,-499.4 209.57,-487.76"/>
<polygon fill="#000000" stroke="#000000" stroke-width="1.34" points="212.2,-485.44 202.62,-480.91 207.29,-490.42 212.2,-485.44"/>
<text text-anchor="middle" x="248" y="-544.3" font-family="Times,serif" font-size="14.00">46</text>
</g>
<!-- Insert Date Appeal to Prefecture&#45;&gt;Add penalty -->
<g id="edge5" class="edge">
<title>Insert Date Appeal to Prefecture&#45;&gt;Add penalty</title>
<path fill="none" stroke="#000000" stroke-width="2.98" d="M131.65,-529.51C136.39,-524.01 141.53,-517.85 146,-512 151.02,-505.43 156.17,-498.18 160.9,-491.27"/>
<polygon fill="#000000" stroke="#000000" stroke-width="2.98" points="163.65,-493.45 166.31,-483.2 157.83,-489.56 163.65,-493.45"/>
<text text-anchor="middle" x="163" y="-500.8" font-family="Times,serif" font-size="14.00">97</text>
</g>
<!-- Send Appeal to Prefecture -->
<g id="node7" class="node">
<title>Send Appeal to Prefecture</title>
<polygon fill="#9b9bff" stroke="black" points="212,-392 20,-392 20,-356 212,-356 212,-392"/>
<text text-anchor="middle" x="116" y="-370.3" font-family="Times,serif" font-size="14.00">Send Appeal to Prefecture (191)</text>
</g>
<!-- Insert Date Appeal to Prefecture&#45;&gt;Send Appeal to Prefecture -->
<g id="edge10" class="edge">
<title>Insert Date Appeal to Prefecture&#45;&gt;Send Appeal to Prefecture</title>
<path fill="none" stroke="#000000" stroke-width="2.88" d="M110.4,-529.61C106.32,-516 101.16,-496.51 99,-479 97.05,-463.12 97.05,-458.88 99,-443 100.52,-430.69 103.52,-417.4 106.59,-405.86"/>
<polygon fill="#000000" stroke="#000000" stroke-width="2.88" points="109.86,-407.16 109.21,-396.58 103.12,-405.25 109.86,-407.16"/>
<text text-anchor="middle" x="106" y="-457.3" font-family="Times,serif" font-size="14.00">94</text>
</g>
<!-- Add penalty&#45;&gt;Insert Date Appeal to Prefecture -->
<g id="edge14" class="edge">
<title>Add penalty&#45;&gt;Insert Date Appeal to Prefecture</title>
<path fill="none" stroke="#000000" stroke-width="1.34" d="M146.29,-479.31C139.39,-484.21 132.78,-490.12 128,-497 123.76,-503.11 121.01,-510.53 119.23,-517.77"/>
<polygon fill="#000000" stroke="#000000" stroke-width="1.34" points="115.8,-517.05 117.42,-527.52 122.68,-518.33 115.8,-517.05"/>
<text text-anchor="middle" x="135" y="-500.8" font-family="Times,serif" font-size="14.00">46</text>
</g>
<!-- Add penalty&#45;&gt;Send Appeal to Prefecture -->
<g id="edge6" class="edge">
<title>Add penalty&#45;&gt;Send Appeal to Prefecture</title>
<path fill="none" stroke="#000000" stroke-width="2.98" d="M168.82,-442.54C162.4,-432.78 154.04,-420.51 146,-410 144.32,-407.81 142.55,-405.57 140.75,-403.34"/>
<polygon fill="#000000" stroke="#000000" stroke-width="2.98" points="143.65,-401.36 134.55,-395.94 138.29,-405.85 143.65,-401.36"/>
<text text-anchor="middle" x="163" y="-413.8" font-family="Times,serif" font-size="14.00">97</text>
</g>
<!-- Receive Result Appeal from Prefecture -->
<g id="node8" class="node">
<title>Receive Result Appeal from Prefecture</title>
<polygon fill="#9b9bff" stroke="black" points="313.5,-305 50.5,-305 50.5,-269 313.5,-269 313.5,-305"/>
<text text-anchor="middle" x="182" y="-283.3" font-family="Times,serif" font-size="14.00">Receive Result Appeal from Prefecture (191)</text>
</g>
<!-- Add penalty&#45;&gt;Receive Result Appeal from Prefecture -->
<g id="edge12" class="edge">
<title>Add penalty&#45;&gt;Receive Result Appeal from Prefecture</title>
<path fill="none" stroke="#000000" stroke-width="1.4" d="M194.03,-442.78C203.71,-429.72 215.75,-410.86 221,-392 225.29,-376.59 225.12,-371.46 221,-356 217.15,-341.56 209.43,-326.99 201.86,-315.07"/>
<polygon fill="#000000" stroke="#000000" stroke-width="1.4" points="205,-313.46 196.53,-307.1 199.18,-317.36 205,-313.46"/>
<text text-anchor="middle" x="231" y="-370.3" font-family="Times,serif" font-size="14.00">48</text>
</g>
<!-- Send Appeal to Prefecture&#45;&gt;Add penalty -->
<g id="edge11" class="edge">
<title>Send Appeal to Prefecture&#45;&gt;Add penalty</title>
<path fill="none" stroke="#000000" stroke-width="1.4" d="M117.05,-392.49C118.39,-402.72 121.38,-415.47 128,-425 130.54,-428.66 133.59,-432.04 136.94,-435.14"/>
<polygon fill="#000000" stroke="#000000" stroke-width="1.4" points="134.66,-437.8 144.64,-441.36 139.06,-432.35 134.66,-437.8"/>
<text text-anchor="middle" x="135" y="-413.8" font-family="Times,serif" font-size="14.00">48</text>
</g>
<!-- Send Appeal to Prefecture&#45;&gt;Receive Result Appeal from Prefecture -->
<g id="edge7" class="edge">
<title>Send Appeal to Prefecture&#45;&gt;Receive Result Appeal from Prefecture</title>
<path fill="none" stroke="#000000" stroke-width="4.46" d="M129.36,-355.8C137.8,-344.93 148.94,-330.58 158.8,-317.88"/>
<polygon fill="#000000" stroke="#000000" stroke-width="4.46" points="161.62,-320.6 164.68,-310.31 155.46,-315.82 161.62,-320.6"/>
<text text-anchor="middle" x="162.5" y="-326.8" font-family="Times,serif" font-size="14.00">143</text>
</g>
<!-- Notify Result Appeal to Offender -->
<g id="node9" class="node">
<title>Notify Result Appeal to Offender</title>
<polygon fill="#9b9bff" stroke="black" points="298,-218 66,-218 66,-182 298,-182 298,-218"/>
<text text-anchor="middle" x="182" y="-196.3" font-family="Times,serif" font-size="14.00">Notify Result Appeal to Offender (191)</text>
</g>
<!-- Receive Result Appeal from Prefecture&#45;&gt;Notify Result Appeal to Offender -->
<g id="edge8" class="edge">
<title>Receive Result Appeal from Prefecture&#45;&gt;Notify Result Appeal to Offender</title>
<path fill="none" stroke="#000000" stroke-width="6" d="M182,-268.8C182,-258.96 182,-246.27 182,-234.53"/>
<polygon fill="#000000" stroke="#000000" stroke-width="6" points="187.25,-234.92 182,-224.92 176.75,-234.92 187.25,-234.92"/>
<text text-anchor="middle" x="192.5" y="-239.8" font-family="Times,serif" font-size="14.00">191</text>
</g>
<!-- Payment -->
<g id="node10" class="node">
<title>Payment</title>
<polygon fill="#b2b2ff" stroke="black" points="98,-131 0,-131 0,-95 98,-95 98,-131"/>
<text text-anchor="middle" x="49" y="-109.3" font-family="Times,serif" font-size="14.00">Payment (150)</text>
</g>
<!-- Notify Result Appeal to Offender&#45;&gt;Payment -->
<g id="edge9" class="edge">
<title>Notify Result Appeal to Offender&#45;&gt;Payment</title>
<path fill="none" stroke="#000000" stroke-width="4.68" d="M154.76,-181.59C136.03,-169.62 110.81,-153.5 89.7,-140.01"/>
<polygon fill="#000000" stroke="#000000" stroke-width="4.68" points="92.03,-136.64 81.4,-134.71 87.62,-143.54 92.03,-136.64"/>
<text text-anchor="middle" x="134.5" y="-152.8" font-family="Times,serif" font-size="14.00">150</text>
</g>
<!-- Appeal to Judge -->
<g id="node11" class="node">
<title>Appeal to Judge</title>
<polygon fill="#fefeff" stroke="black" points="247.5,-131 116.5,-131 116.5,-95 247.5,-95 247.5,-131"/>
<text text-anchor="middle" x="182" y="-109.3" font-family="Times,serif" font-size="14.00">Appeal to Judge (21)</text>
</g>
<!-- Notify Result Appeal to Offender&#45;&gt;Appeal to Judge -->
<g id="edge15" class="edge">
<title>Notify Result Appeal to Offender&#45;&gt;Appeal to Judge</title>
<path fill="none" stroke="#000000" stroke-width="0.53" d="M182,-181.8C182,-170.35 182,-155.06 182,-141.89"/>
<polygon fill="#000000" stroke="#000000" stroke-width="0.53" points="185.5,-142.27 182,-132.27 178.5,-142.27 185.5,-142.27"/>
<text text-anchor="middle" x="189" y="-152.8" font-family="Times,serif" font-size="14.00">21</text>
</g>
<!-- Send for Credit Collection -->
<g id="node12" class="node">
<title>Send for Credit Collection</title>
<polygon fill="#ffffff" stroke="black" points="452.5,-131 265.5,-131 265.5,-95 452.5,-95 452.5,-131"/>
<text text-anchor="middle" x="359" y="-109.3" font-family="Times,serif" font-size="14.00">Send for Credit Collection (20)</text>
</g>
<!-- Notify Result Appeal to Offender&#45;&gt;Send for Credit Collection -->
<g id="edge16" class="edge">
<title>Notify Result Appeal to Offender&#45;&gt;Send for Credit Collection</title>
<path fill="none" stroke="#000000" stroke-width="0.5" d="M218.25,-181.59C245.69,-168.42 283.57,-150.22 313.13,-136.03"/>
<polygon fill="#000000" stroke="#000000" stroke-width="0.5" points="314.62,-139.19 322.12,-131.71 311.59,-132.88 314.62,-139.19"/>
<text text-anchor="middle" x="288" y="-152.8" font-family="Times,serif" font-size="14.00">20</text>
</g>
<!-- end_node -->
<g id="node13" class="node">
<title>end_node</title>
<ellipse fill="none" stroke="black" cx="182" cy="-22" rx="18" ry="18"/>
<ellipse fill="none" stroke="black" cx="182" cy="-22" rx="22" ry="22"/>
<text text-anchor="start" x="177.5" y="-18.3" font-family="Times,serif" font-size="14.00">■</text>
</g>
<!-- Payment&#45;&gt;end_node -->
<g id="edge17" class="edge">
<title>Payment&#45;&gt;end_node</title>
<path fill="none" stroke="#000000" stroke-width="4.68" d="M74.96,-94.63C96.62,-80.13 127.56,-59.43 150.61,-44.01"/>
<polygon fill="#000000" stroke="#000000" stroke-width="4.68" points="152.62,-47.59 158.66,-38.62 148.07,-40.78 152.62,-47.59"/>
<text text-anchor="middle" x="134.5" y="-65.8" font-family="Times,serif" font-size="14.00">150</text>
</g>
<!-- Appeal to Judge&#45;&gt;end_node -->
<g id="edge18" class="edge">
<title>Appeal to Judge&#45;&gt;end_node</title>
<path fill="none" stroke="#000000" stroke-width="0.53" d="M182,-94.84C182,-83.55 182,-68.44 182,-54.98"/>
<polygon fill="#000000" stroke="#000000" stroke-width="0.53" points="185.5,-55 182,-45 178.5,-55 185.5,-55"/>
<text text-anchor="middle" x="189" y="-65.8" font-family="Times,serif" font-size="14.00">21</text>
</g>
<!-- Send for Credit Collection&#45;&gt;end_node -->
<g id="edge19" class="edge">
<title>Send for Credit Collection&#45;&gt;end_node</title>
<path fill="none" stroke="#000000" stroke-width="0.5" d="M324.45,-94.63C291.41,-78.01 242.14,-53.24 211.06,-37.61"/>
<polygon fill="#000000" stroke="#000000" stroke-width="0.5" points="212.83,-34.58 202.32,-33.22 209.69,-40.84 212.83,-34.58"/>
<text text-anchor="middle" x="293" y="-65.8" font-family="Times,serif" font-size="14.00">20</text>
</g>
</g>
</svg>
