<?xml version="1.0" encoding="UTF-8" standalone="no"?>
<!DOCTYPE svg PUBLIC "-//W3C//DTD SVG 1.1//EN"
 "http://www.w3.org/Graphics/SVG/1.1/DTD/svg11.dtd">
<!-- Generated by graphviz version 7.0.5 (0)
 -->
<!-- Title: dfg Pages: 1 -->
<svg width="565pt" height="661pt"
 viewBox="0.00 0.00 564.50 661.00" xmlns="http://www.w3.org/2000/svg" xmlns:xlink="http://www.w3.org/1999/xlink">
<g id="graph0" class="graph" transform="scale(1 1) rotate(0) translate(4 657)">
<title>dfg</title>
<polygon fill="white" stroke="none" points="-4,4 -4,-657 560.5,-657 560.5,4 -4,4"/>
<!-- start_node -->
<g id="node1" class="node">
<title>start_node</title>
<ellipse fill="none" stroke="black" cx="308" cy="-635" rx="18" ry="18"/>
<text text-anchor="start" x="303.5" y="-631.3" font-family="Times,serif" font-size="14.00">●</text>
</g>
<!-- Create Fine -->
<g id="node2" class="node">
<title>Create Fine</title>
<polygon fill="#9b9bff" stroke="black" points="367.5,-566 248.5,-566 248.5,-530 367.5,-530 367.5,-566"/>
<text text-anchor="middle" x="308" y="-544.3" font-family="Times,serif" font-size="14.00">Create Fine (1022)</text>
</g>
<!-- start_node&#45;&gt;Create Fine -->
<g id="edge1" class="edge">
<title>start_node&#45;&gt;Create Fine</title>
<path fill="none" stroke="#000000" stroke-width="6" d="M308,-616.8C308,-606.96 308,-594.27 308,-582.53"/>
<polygon fill="#000000" stroke="#000000" stroke-width="6" points="313.25,-582.92 308,-572.92 302.75,-582.92 313.25,-582.92"/>
<text text-anchor="middle" x="322" y="-587.8" font-family="Times,serif" font-size="14.00">1022</text>
</g>
<!-- Send Fine -->
<g id="node3" class="node">
<title>Send Fine</title>
<polygon fill="#9b9bff" stroke="black" points="363.5,-479 252.5,-479 252.5,-443 363.5,-443 363.5,-479"/>
<text text-anchor="middle" x="308" y="-457.3" font-family="Times,serif" font-size="14.00">Send Fine (1022)</text>
</g>
<!-- Create Fine&#45;&gt;Send Fine -->
<g id="edge2" class="edge">
<title>Create Fine&#45;&gt;Send Fine</title>
<path fill="none" stroke="#000000" stroke-width="6" d="M308,-529.8C308,-519.96 308,-507.27 308,-495.53"/>
<polygon fill="#000000" stroke="#000000" stroke-width="6" points="313.25,-495.92 308,-485.92 302.75,-495.92 313.25,-495.92"/>
<text text-anchor="middle" x="322" y="-500.8" font-family="Times,serif" font-size="14.00">1022</text>
</g>
<!-- Insert Fine Notification -->
<g id="node4" class="node">
<title>Insert Fine Notification</title>
<polygon fill="#9b9bff" stroke="black" points="400,-392 216,-392 216,-356 400,-356 400,-392"/>
<text text-anchor="middle" x="308" y="-370.3" font-family="Times,serif" font-size="14.00">Insert Fine Notification (1022)</text>
</g>
<!-- Send Fine&#45;&gt;Insert Fine Notification -->
<g id="edge3" class="edge">
<title>Send Fine&#45;&gt;Insert Fine Notification</title>
<path fill="none" stroke="#000000" stroke-width="6" d="M308,-442.8C308,-432.96 308,-420.27 308,-408.53"/>
<polygon fill="#000000" stroke="#000000" stroke-width="6" points="313.25,-408.92 308,-398.92 302.75,-408.92 313.25,-408.92"/>
<text text-anchor="middle" x="322" y="-413.8" font-family="Times,serif" font-size="14.00">1022</text>
</g>
<!-- Add penalty -->
<g id="node5" class="node">
<title>Add penalty</title>
<polygon fill="#9b9bff" stroke="black" points="369.5,-218 246.5,-218 246.5,-182 369.5,-182 369.5,-218"/>
<text text-anchor="middle" x="308" y="-196.3" font-family="Times,serif" font-size="14.00">Add penalty (1022)</text>
</g>
<!-- Insert Fine Notification&#45;&gt;Add penalty -->
<g id="edge4" class="edge">
<title>Insert Fine Notification&#45;&gt;Add penalty</title>
<path fill="none" stroke="#000000" stroke-width="5.16" d="M305.73,-355.71C304.04,-341.99 301.89,-322.3 301,-305 300.18,-289.02 300.18,-284.98 301,-269 301.58,-257.64 302.71,-245.26 303.89,-234.22"/>
<polygon fill="#000000" stroke="#000000" stroke-width="5.16" points="308.35,-234.97 305.01,-224.52 299.38,-233.94 308.35,-234.97"/>
<text text-anchor="middle" x="311.5" y="-283.3" font-family="Times,serif" font-size="14.00">886</text>
</g>
<!-- Insert Date Appeal to Prefecture -->
<g id="node7" class="node">
<title>Insert Date Appeal to Prefecture</title>
<polygon fill="#fefeff" stroke="black" points="556.5,-305 331.5,-305 331.5,-269 556.5,-269 556.5,-305"/>
<text text-anchor="middle" x="444" y="-283.3" font-family="Times,serif" font-size="14.00">Insert Date Appeal to Prefecture (136)</text>
</g>
<!-- Insert Fine Notification&#45;&gt;Insert Date Appeal to Prefecture -->
<g id="edge6" class="edge">
<title>Insert Fine Notification&#45;&gt;Insert Date Appeal to Prefecture</title>
<path fill="none" stroke="#000000" stroke-width="0.54" d="M335.85,-355.59C356.48,-342.7 384.78,-325.01 407.26,-310.96"/>
<polygon fill="#000000" stroke="#000000" stroke-width="0.54" points="408.87,-314.08 415.5,-305.81 405.16,-308.15 408.87,-314.08"/>
<text text-anchor="middle" x="394.5" y="-326.8" font-family="Times,serif" font-size="14.00">136</text>
</g>
<!-- Send for Credit Collection -->
<g id="node6" class="node">
<title>Send for Credit Collection</title>
<polygon fill="#b8b8ff" stroke="black" points="194,-131 0,-131 0,-95 194,-95 194,-131"/>
<text text-anchor="middle" x="97" y="-109.3" font-family="Times,serif" font-size="14.00">Send for Credit Collection (756)</text>
</g>
<!-- Add penalty&#45;&gt;Send for Credit Collection -->
<g id="edge5" class="edge">
<title>Add penalty&#45;&gt;Send for Credit Collection</title>
<path fill="none" stroke="#000000" stroke-width="4.36" d="M264.79,-181.59C233.07,-168.82 189.65,-151.32 154.93,-137.34"/>
<polygon fill="#000000" stroke="#000000" stroke-width="4.36" points="156.52,-133.87 145.82,-133.67 153.67,-140.94 156.52,-133.87"/>
<text text-anchor="middle" x="226.5" y="-152.8" font-family="Times,serif" font-size="14.00">756</text>
</g>
<!-- Send Appeal to Prefecture -->
<g id="node8" class="node">
<title>Send Appeal to Prefecture</title>
<polygon fill="#fefeff" stroke="black" points="404,-131 212,-131 212,-95 404,-95 404,-131"/>
<text text-anchor="middle" x="308" y="-109.3" font-family="Times,serif" font-size="14.00">Send Appeal to Prefecture (136)</text>
</g>
<!-- Add penalty&#45;&gt;Send Appeal to Prefecture -->
<g id="edge8" class="edge">
<title>Add penalty&#45;&gt;Send Appeal to Prefecture</title>
<path fill="none" stroke="#000000" stroke-width="0.54" d="M308,-181.8C308,-170.35 308,-155.06 308,-141.89"/>
<polygon fill="#000000" stroke="#000000" stroke-width="0.54" points="311.5,-142.28 308,-132.28 304.5,-142.28 311.5,-142.28"/>
<text text-anchor="middle" x="318.5" y="-152.8" font-family="Times,serif" font-size="14.00">136</text>
</g>
<!-- Payment -->
<g id="node9" class="node">
<title>Payment</title>
<polygon fill="#ffffff" stroke="black" points="520,-131 422,-131 422,-95 520,-95 520,-131"/>
<text text-anchor="middle" x="471" y="-109.3" font-family="Times,serif" font-size="14.00">Payment (130)</text>
</g>
<!-- Add penalty&#45;&gt;Payment -->
<g id="edge9" class="edge">
<title>Add penalty&#45;&gt;Payment</title>
<path fill="none" stroke="#000000" stroke-width="0.5" d="M341.38,-181.59C366.54,-168.47 401.24,-150.38 428.4,-136.21"/>
<polygon fill="#000000" stroke="#000000" stroke-width="0.5" points="429.75,-139.46 436.99,-131.73 426.51,-133.25 429.75,-139.46"/>
<text text-anchor="middle" x="409.5" y="-152.8" font-family="Times,serif" font-size="14.00">130</text>
</g>
<!-- end_node -->
<g id="node10" class="node">
<title>end_node</title>
<ellipse fill="none" stroke="black" cx="308" cy="-22" rx="18" ry="18"/>
<ellipse fill="none" stroke="black" cx="308" cy="-22" rx="22" ry="22"/>
<text text-anchor="start" x="303.5" y="-18.3" font-family="Times,serif" font-size="14.00">■</text>
</g>
<!-- Send for Credit Collection&#45;&gt;end_node -->
<g id="edge10" class="edge">
<title>Send for Credit Collection&#45;&gt;end_node</title>
<path fill="none" stroke="#000000" stroke-width="4.36" d="M138.44,-94.52C177.82,-77.91 236.36,-53.22 273.34,-37.62"/>
<polygon fill="#000000" stroke="#000000" stroke-width="4.36" points="274.38,-41.32 282.11,-33.92 271.41,-34.29 274.38,-41.32"/>
<text text-anchor="middle" x="226.5" y="-65.8" font-family="Times,serif" font-size="14.00">756</text>
</g>
<!-- Insert Date Appeal to Prefecture&#45;&gt;Add penalty -->
<g id="edge7" class="edge">
<title>Insert Date Appeal to Prefecture&#45;&gt;Add penalty</title>
<path fill="none" stroke="#000000" stroke-width="0.54" d="M416.15,-268.59C395.52,-255.7 367.22,-238.01 344.74,-223.96"/>
<polygon fill="#000000" stroke="#000000" stroke-width="0.54" points="346.84,-221.15 336.5,-218.81 343.13,-227.08 346.84,-221.15"/>
<text text-anchor="middle" x="394.5" y="-239.8" font-family="Times,serif" font-size="14.00">136</text>
</g>
<!-- Send Appeal to Prefecture&#45;&gt;end_node -->
<g id="edge11" class="edge">
<title>Send Appeal to Prefecture&#45;&gt;end_node</title>
<path fill="none" stroke="#000000" stroke-width="0.54" d="M308,-94.84C308,-83.55 308,-68.44 308,-54.98"/>
<polygon fill="#000000" stroke="#000000" stroke-width="0.54" points="311.5,-55 308,-45 304.5,-55 311.5,-55"/>
<text text-anchor="middle" x="318.5" y="-65.8" font-family="Times,serif" font-size="14.00">136</text>
</g>
<!-- Payment&#45;&gt;end_node -->
<g id="edge12" class="edge">
<title>Payment&#45;&gt;end_node</title>
<path fill="none" stroke="#000000" stroke-width="0.5" d="M439.19,-94.63C409.22,-78.27 364.76,-53.99 336.08,-38.33"/>
<polygon fill="#000000" stroke="#000000" stroke-width="0.5" points="338.12,-35.46 327.67,-33.74 334.77,-41.6 338.12,-35.46"/>
<text text-anchor="middle" x="414.5" y="-65.8" font-family="Times,serif" font-size="14.00">130</text>
</g>
</g>
</svg>
