<?xml version="1.0" encoding="UTF-8" standalone="no"?>
<!DOCTYPE svg PUBLIC "-//W3C//DTD SVG 1.1//EN"
 "http://www.w3.org/Graphics/SVG/1.1/DTD/svg11.dtd">
<!-- Generated by graphviz version 7.0.5 (0)
 -->
<!-- Title: dfg Pages: 1 -->
<svg width="540pt" height="1009pt"
 viewBox="0.00 0.00 540.00 1009.00" xmlns="http://www.w3.org/2000/svg" xmlns:xlink="http://www.w3.org/1999/xlink">
<g id="graph0" class="graph" transform="scale(1 1) rotate(0) translate(4 1005)">
<title>dfg</title>
<polygon fill="white" stroke="none" points="-4,4 -4,-1005 536,-1005 536,4 -4,4"/>
<!-- start_node -->
<g id="node1" class="node">
<title>start_node</title>
<ellipse fill="none" stroke="black" cx="317" cy="-983" rx="18" ry="18"/>
<text text-anchor="start" x="312.5" y="-979.3" font-family="Times,serif" font-size="14.00">●</text>
</g>
<!-- Create Fine -->
<g id="node2" class="node">
<title>Create Fine</title>
<polygon fill="#f2f2ff" stroke="black" points="370,-914 264,-914 264,-878 370,-878 370,-914"/>
<text text-anchor="middle" x="317" y="-892.3" font-family="Times,serif" font-size="14.00">Create Fine (13)</text>
</g>
<!-- start_node&#45;&gt;Create Fine -->
<g id="edge1" class="edge">
<title>start_node&#45;&gt;Create Fine</title>
<path fill="none" stroke="#000000" stroke-width="1.55" d="M317,-964.8C317,-953.81 317,-939.28 317,-926.48"/>
<polygon fill="#000000" stroke="#000000" stroke-width="1.55" points="320.5,-926.81 317,-916.81 313.5,-926.81 320.5,-926.81"/>
<text text-anchor="middle" x="324" y="-935.8" font-family="Times,serif" font-size="14.00">13</text>
</g>
<!-- Send Fine -->
<g id="node3" class="node">
<title>Send Fine</title>
<polygon fill="#f2f2ff" stroke="black" points="366,-827 268,-827 268,-791 366,-791 366,-827"/>
<text text-anchor="middle" x="317" y="-805.3" font-family="Times,serif" font-size="14.00">Send Fine (13)</text>
</g>
<!-- Create Fine&#45;&gt;Send Fine -->
<g id="edge2" class="edge">
<title>Create Fine&#45;&gt;Send Fine</title>
<path fill="none" stroke="#000000" stroke-width="1.55" d="M317,-877.8C317,-866.81 317,-852.28 317,-839.48"/>
<polygon fill="#000000" stroke="#000000" stroke-width="1.55" points="320.5,-839.81 317,-829.81 313.5,-839.81 320.5,-839.81"/>
<text text-anchor="middle" x="324" y="-848.8" font-family="Times,serif" font-size="14.00">13</text>
</g>
<!-- Insert Fine Notification -->
<g id="node4" class="node">
<title>Insert Fine Notification</title>
<polygon fill="#f2f2ff" stroke="black" points="402,-740 232,-740 232,-704 402,-704 402,-740"/>
<text text-anchor="middle" x="317" y="-718.3" font-family="Times,serif" font-size="14.00">Insert Fine Notification (13)</text>
</g>
<!-- Send Fine&#45;&gt;Insert Fine Notification -->
<g id="edge3" class="edge">
<title>Send Fine&#45;&gt;Insert Fine Notification</title>
<path fill="none" stroke="#000000" stroke-width="1.55" d="M317,-790.8C317,-779.81 317,-765.28 317,-752.48"/>
<polygon fill="#000000" stroke="#000000" stroke-width="1.55" points="320.5,-752.81 317,-742.81 313.5,-752.81 320.5,-752.81"/>
<text text-anchor="middle" x="324" y="-761.8" font-family="Times,serif" font-size="14.00">13</text>
</g>
<!-- Insert Date Appeal to Prefecture -->
<g id="node5" class="node">
<title>Insert Date Appeal to Prefecture</title>
<polygon fill="#fafaff" stroke="black" points="423,-653 211,-653 211,-617 423,-617 423,-653"/>
<text text-anchor="middle" x="317" y="-631.3" font-family="Times,serif" font-size="14.00">Insert Date Appeal to Prefecture (7)</text>
</g>
<!-- Insert Fine Notification&#45;&gt;Insert Date Appeal to Prefecture -->
<g id="edge4" class="edge">
<title>Insert Fine Notification&#45;&gt;Insert Date Appeal to Prefecture</title>
<path fill="none" stroke="#000000" stroke-width="0.94" d="M317,-703.8C317,-692.58 317,-677.67 317,-664.69"/>
<polygon fill="#000000" stroke="#000000" stroke-width="0.94" points="320.5,-664.88 317,-654.88 313.5,-664.88 320.5,-664.88"/>
<text text-anchor="middle" x="320.5" y="-674.8" font-family="Times,serif" font-size="14.00">6</text>
</g>
<!-- Add penalty -->
<g id="node7" class="node">
<title>Add penalty</title>
<polygon fill="#f2f2ff" stroke="black" points="235,-479 125,-479 125,-443 235,-443 235,-479"/>
<text text-anchor="middle" x="180" y="-457.3" font-family="Times,serif" font-size="14.00">Add penalty (13)</text>
</g>
<!-- Insert Fine Notification&#45;&gt;Add penalty -->
<g id="edge11" class="edge">
<title>Insert Fine Notification&#45;&gt;Add penalty</title>
<path fill="none" stroke="#000000" stroke-width="0.94" d="M272.62,-703.57C248.86,-692.28 220.71,-675.45 202,-653 160.8,-603.55 169.6,-576.36 169,-512 168.94,-505.33 167.99,-503.59 169,-497 169.35,-494.69 169.83,-492.32 170.39,-489.96"/>
<polygon fill="#000000" stroke="#000000" stroke-width="0.94" points="173.7,-491.14 173.06,-480.56 166.96,-489.23 173.7,-491.14"/>
<text text-anchor="middle" x="176.5" y="-587.8" font-family="Times,serif" font-size="14.00">6</text>
</g>
<!-- Appeal to Judge -->
<g id="node11" class="node">
<title>Appeal to Judge</title>
<polygon fill="#ffffff" stroke="black" points="414.5,-218 289.5,-218 289.5,-182 414.5,-182 414.5,-218"/>
<text text-anchor="middle" x="352" y="-196.3" font-family="Times,serif" font-size="14.00">Appeal to Judge (4)</text>
</g>
<!-- Insert Fine Notification&#45;&gt;Appeal to Judge -->
<g id="edge19" class="edge">
<title>Insert Fine Notification&#45;&gt;Appeal to Judge</title>
<path fill="none" stroke="#ff0000" stroke-width="0.5" stroke-dasharray="5,2" d="M402.2,-718.61C459.64,-711.91 525,-691.98 525,-636 525,-636 525,-636 525,-286 525,-238.87 472.63,-217.87 425.52,-208.51"/>
<polygon fill="#ff0000" stroke="#ff0000" stroke-width="0.5" points="426.16,-205.07 415.69,-206.72 424.9,-211.96 426.16,-205.07"/>
<text text-anchor="middle" x="528.5" y="-457.3" font-family="Times,serif" font-size="14.00">1</text>
</g>
<!-- Send Appeal to Prefecture -->
<g id="node6" class="node">
<title>Send Appeal to Prefecture</title>
<polygon fill="#fcfcff" stroke="black" points="406.5,-566 227.5,-566 227.5,-530 406.5,-530 406.5,-566"/>
<text text-anchor="middle" x="317" y="-544.3" font-family="Times,serif" font-size="14.00">Send Appeal to Prefecture (6)</text>
</g>
<!-- Insert Date Appeal to Prefecture&#45;&gt;Send Appeal to Prefecture -->
<g id="edge5" class="edge">
<title>Insert Date Appeal to Prefecture&#45;&gt;Send Appeal to Prefecture</title>
<path fill="none" stroke="#000000" stroke-width="0.76" d="M317,-616.8C317,-605.47 317,-590.36 317,-577.29"/>
<polygon fill="#000000" stroke="#000000" stroke-width="0.76" points="320.5,-577.62 317,-567.62 313.5,-577.62 320.5,-577.62"/>
<text text-anchor="middle" x="320.5" y="-587.8" font-family="Times,serif" font-size="14.00">4</text>
</g>
<!-- Insert Date Appeal to Prefecture&#45;&gt;Add penalty -->
<g id="edge20" class="edge">
<title>Insert Date Appeal to Prefecture&#45;&gt;Add penalty</title>
<path fill="none" stroke="#ff0000" stroke-width="0.5" stroke-dasharray="5,2" d="M277.07,-616.63C255.01,-605.18 228.76,-588.18 212,-566 195.14,-543.7 187.08,-512.42 183.28,-490.01"/>
<polygon fill="#ff0000" stroke="#ff0000" stroke-width="0.5" points="186.76,-489.6 181.81,-480.23 179.84,-490.64 186.76,-489.6"/>
<text text-anchor="middle" x="215.5" y="-544.3" font-family="Times,serif" font-size="14.00">1</text>
</g>
<!-- Payment -->
<g id="node10" class="node">
<title>Payment</title>
<polygon fill="#9b9bff" stroke="black" points="328.5,-131 237.5,-131 237.5,-95 328.5,-95 328.5,-131"/>
<text text-anchor="middle" x="283" y="-109.3" font-family="Times,serif" font-size="14.00">Payment (77)</text>
</g>
<!-- Insert Date Appeal to Prefecture&#45;&gt;Payment -->
<g id="edge24" class="edge">
<title>Insert Date Appeal to Prefecture&#45;&gt;Payment</title>
<path fill="none" stroke="#ff0000" stroke-width="0.5" stroke-dasharray="5,2" d="M415.44,-616.52C449.36,-604.36 479,-583.78 479,-549 479,-549 479,-549 479,-199 479,-137.72 397.36,-120.13 339.46,-115.37"/>
<polygon fill="#ff0000" stroke="#ff0000" stroke-width="0.5" points="339.93,-111.89 329.71,-114.67 339.43,-118.87 339.93,-111.89"/>
<text text-anchor="middle" x="482.5" y="-370.3" font-family="Times,serif" font-size="14.00">1</text>
</g>
<!-- Insert Date Appeal to Prefecture&#45;&gt;Appeal to Judge -->
<g id="edge15" class="edge">
<title>Insert Date Appeal to Prefecture&#45;&gt;Appeal to Judge</title>
<path fill="none" stroke="#ff0000" stroke-width="0.5" stroke-dasharray="5,2" d="M357.18,-616.62C378.26,-605.33 402.45,-588.51 416,-566 450.03,-509.46 433,-484.49 433,-418.5 433,-418.5 433,-418.5 433,-286 433,-260.25 413.28,-239.22 393.3,-224.52"/>
<polygon fill="#ff0000" stroke="#ff0000" stroke-width="0.5" points="395.32,-221.66 385.1,-218.84 391.33,-227.41 395.32,-221.66"/>
<text text-anchor="middle" x="436.5" y="-413.8" font-family="Times,serif" font-size="14.00">1</text>
</g>
<!-- Send Appeal to Prefecture&#45;&gt;Add penalty -->
<g id="edge6" class="edge">
<title>Send Appeal to Prefecture&#45;&gt;Add penalty</title>
<path fill="none" stroke="#000000" stroke-width="0.76" d="M288.01,-529.67C278.72,-524.08 268.4,-517.81 259,-512 245.11,-503.42 229.94,-493.86 216.64,-485.42"/>
<polygon fill="#000000" stroke="#000000" stroke-width="0.76" points="218.62,-482.53 208.3,-480.12 214.86,-488.44 218.62,-482.53"/>
<text text-anchor="middle" x="262.5" y="-500.8" font-family="Times,serif" font-size="14.00">4</text>
</g>
<!-- Receive Result Appeal from Prefecture -->
<g id="node8" class="node">
<title>Receive Result Appeal from Prefecture</title>
<polygon fill="#ffffff" stroke="black" points="278,-392 28,-392 28,-356 278,-356 278,-392"/>
<text text-anchor="middle" x="153" y="-370.3" font-family="Times,serif" font-size="14.00">Receive Result Appeal from Prefecture (4)</text>
</g>
<!-- Send Appeal to Prefecture&#45;&gt;Receive Result Appeal from Prefecture -->
<g id="edge22" class="edge">
<title>Send Appeal to Prefecture&#45;&gt;Receive Result Appeal from Prefecture</title>
<path fill="none" stroke="#ff0000" stroke-width="0.5" stroke-dasharray="5,2" d="M311.03,-529.59C307.21,-519.62 301.71,-507.12 295,-497 267.49,-455.53 222.1,-420.03 190.05,-398.19"/>
<polygon fill="#ff0000" stroke="#ff0000" stroke-width="0.5" points="192.28,-395.47 182.02,-392.81 188.38,-401.28 192.28,-395.47"/>
<text text-anchor="middle" x="284.5" y="-457.3" font-family="Times,serif" font-size="14.00">1</text>
</g>
<!-- Send Appeal to Prefecture&#45;&gt;Appeal to Judge -->
<g id="edge17" class="edge">
<title>Send Appeal to Prefecture&#45;&gt;Appeal to Judge</title>
<path fill="none" stroke="#ff0000" stroke-width="0.5" stroke-dasharray="5,2" d="M328.85,-529.62C339,-513.01 352,-486.9 352,-462 352,-462 352,-462 352,-286 352,-266.94 352,-245.47 352,-228.87"/>
<polygon fill="#ff0000" stroke="#ff0000" stroke-width="0.5" points="355.5,-229.01 352,-219.01 348.5,-229.01 355.5,-229.01"/>
<text text-anchor="middle" x="355.5" y="-370.3" font-family="Times,serif" font-size="14.00">1</text>
</g>
<!-- Add penalty&#45;&gt;Insert Date Appeal to Prefecture -->
<g id="edge23" class="edge">
<title>Add penalty&#45;&gt;Insert Date Appeal to Prefecture</title>
<path fill="none" stroke="#ff0000" stroke-width="0.5" stroke-dasharray="5,2" d="M176.2,-479.3C172.4,-500.88 168.9,-538.31 183,-566 193.88,-587.37 214.21,-602.15 235.82,-612.33"/>
<polygon fill="#ff0000" stroke="#ff0000" stroke-width="0.5" points="234.21,-615.45 244.77,-616.25 237.01,-609.04 234.21,-615.45"/>
<text text-anchor="middle" x="186.5" y="-544.3" font-family="Times,serif" font-size="14.00">1</text>
</g>
<!-- Add penalty&#45;&gt;Send Appeal to Prefecture -->
<g id="edge21" class="edge">
<title>Add penalty&#45;&gt;Send Appeal to Prefecture</title>
<path fill="none" stroke="#ff0000" stroke-width="0.5" stroke-dasharray="5,2" d="M232.12,-479.41C243.71,-484.31 255.62,-490.19 266,-497 276.63,-503.98 286.94,-513.4 295.46,-522.18"/>
<polygon fill="#ff0000" stroke="#ff0000" stroke-width="0.5" points="292.85,-524.51 302.24,-529.42 297.96,-519.72 292.85,-524.51"/>
<text text-anchor="middle" x="287.5" y="-500.8" font-family="Times,serif" font-size="14.00">1</text>
</g>
<!-- Add penalty&#45;&gt;Receive Result Appeal from Prefecture -->
<g id="edge7" class="edge">
<title>Add penalty&#45;&gt;Receive Result Appeal from Prefecture</title>
<path fill="none" stroke="#ff0000" stroke-width="0.67" stroke-dasharray="5,2" d="M174.54,-442.8C170.9,-431.35 166.04,-416.06 161.86,-402.89"/>
<polygon fill="#ff0000" stroke="#ff0000" stroke-width="0.67" points="165.22,-401.91 158.86,-393.44 158.55,-404.03 165.22,-401.91"/>
<text text-anchor="middle" x="172.5" y="-413.8" font-family="Times,serif" font-size="14.00">3</text>
</g>
<!-- Add penalty&#45;&gt;Payment -->
<g id="edge12" class="edge">
<title>Add penalty&#45;&gt;Payment</title>
<path fill="none" stroke="#000000" stroke-width="1.11" d="M124.53,-456.62C71.64,-450.03 0,-430.81 0,-375 0,-375 0,-375 0,-199 0,-152.32 143.03,-129.05 225.72,-119.5"/>
<polygon fill="#000000" stroke="#000000" stroke-width="1.11" points="226,-122.99 235.55,-118.4 225.22,-116.03 226,-122.99"/>
<text text-anchor="middle" x="3.5" y="-283.3" font-family="Times,serif" font-size="14.00">8</text>
</g>
<!-- Notify Result Appeal to Offender -->
<g id="node9" class="node">
<title>Notify Result Appeal to Offender</title>
<polygon fill="#ffffff" stroke="black" points="278,-305 60,-305 60,-269 278,-269 278,-305"/>
<text text-anchor="middle" x="169" y="-283.3" font-family="Times,serif" font-size="14.00">Notify Result Appeal to Offender (4)</text>
</g>
<!-- Receive Result Appeal from Prefecture&#45;&gt;Notify Result Appeal to Offender -->
<g id="edge8" class="edge">
<title>Receive Result Appeal from Prefecture&#45;&gt;Notify Result Appeal to Offender</title>
<path fill="none" stroke="#000000" stroke-width="0.76" d="M156.24,-355.8C158.37,-344.47 161.21,-329.36 163.67,-316.29"/>
<polygon fill="#000000" stroke="#000000" stroke-width="0.76" points="167.09,-317.08 165.5,-306.6 160.21,-315.78 167.09,-317.08"/>
<text text-anchor="middle" x="165.5" y="-326.8" font-family="Times,serif" font-size="14.00">4</text>
</g>
<!-- Notify Result Appeal to Offender&#45;&gt;Payment -->
<g id="edge9" class="edge">
<title>Notify Result Appeal to Offender&#45;&gt;Payment</title>
<path fill="none" stroke="#ff0000" stroke-width="0.67" stroke-dasharray="5,2" d="M180.56,-268.56C200.62,-238.3 241.98,-175.9 265.55,-140.33"/>
<polygon fill="#ff0000" stroke="#ff0000" stroke-width="0.67" points="268.24,-142.61 270.85,-132.34 262.4,-138.74 268.24,-142.61"/>
<text text-anchor="middle" x="240.5" y="-196.3" font-family="Times,serif" font-size="14.00">3</text>
</g>
<!-- Notify Result Appeal to Offender&#45;&gt;Appeal to Judge -->
<g id="edge13" class="edge">
<title>Notify Result Appeal to Offender&#45;&gt;Appeal to Judge</title>
<path fill="none" stroke="#ff0000" stroke-width="0.5" stroke-dasharray="5,2" d="M206.47,-268.59C234.97,-255.36 274.36,-237.06 304.97,-222.84"/>
<polygon fill="#ff0000" stroke="#ff0000" stroke-width="0.5" points="306.29,-226.09 313.89,-218.7 303.35,-219.74 306.29,-226.09"/>
<text text-anchor="middle" x="274.5" y="-239.8" font-family="Times,serif" font-size="14.00">1</text>
</g>
<!-- Payment&#45;&gt;Payment -->
<g id="edge10" class="edge">
<title>Payment&#45;&gt;Payment</title>
<path fill="none" stroke="#000000" stroke-width="6" d="M328.95,-120.94C339.1,-120.19 346.5,-117.55 346.5,-113 346.5,-111.58 345.78,-110.34 344.47,-109.3"/>
<polygon fill="#000000" stroke="#000000" stroke-width="6" points="346.21,-104.33 335.18,-106.76 343.44,-114.46 346.21,-104.33"/>
<text text-anchor="middle" x="353.5" y="-109.3" font-family="Times,serif" font-size="14.00">64</text>
</g>
<!-- end_node -->
<g id="node12" class="node">
<title>end_node</title>
<ellipse fill="none" stroke="black" cx="283" cy="-22" rx="18" ry="18"/>
<ellipse fill="none" stroke="black" cx="283" cy="-22" rx="22" ry="22"/>
<text text-anchor="start" x="278.5" y="-18.3" font-family="Times,serif" font-size="14.00">■</text>
</g>
<!-- Payment&#45;&gt;end_node -->
<g id="edge25" class="edge">
<title>Payment&#45;&gt;end_node</title>
<path fill="none" stroke="#000000" stroke-width="1.55" d="M283,-94.84C283,-83.89 283,-69.34 283,-56.2"/>
<polygon fill="#000000" stroke="#000000" stroke-width="1.55" points="286.5,-56.53 283,-46.53 279.5,-56.53 286.5,-56.53"/>
<text text-anchor="middle" x="290" y="-65.8" font-family="Times,serif" font-size="14.00">13</text>
</g>
<!-- Appeal to Judge&#45;&gt;Send Appeal to Prefecture -->
<g id="edge16" class="edge">
<title>Appeal to Judge&#45;&gt;Send Appeal to Prefecture</title>
<path fill="none" stroke="#ff0000" stroke-width="0.5" stroke-dasharray="5,2" d="M366.8,-218.28C379.24,-234.61 395,-260.37 395,-286 395,-462 395,-462 395,-462 395,-487.47 375.75,-508.61 356.37,-523.44"/>
<polygon fill="#ff0000" stroke="#ff0000" stroke-width="0.5" points="354.51,-520.47 348.44,-529.16 358.6,-526.15 354.51,-520.47"/>
<text text-anchor="middle" x="398.5" y="-370.3" font-family="Times,serif" font-size="14.00">1</text>
</g>
<!-- Appeal to Judge&#45;&gt;Add penalty -->
<g id="edge18" class="edge">
<title>Appeal to Judge&#45;&gt;Add penalty</title>
<path fill="none" stroke="#ff0000" stroke-width="0.59" stroke-dasharray="5,2" d="M344.8,-218.36C342.54,-223.96 340.1,-230.22 338,-236 313.11,-304.57 331.74,-334.39 287,-392 272.14,-411.13 250.28,-426.38 230.18,-437.55"/>
<polygon fill="#ff0000" stroke="#ff0000" stroke-width="0.59" points="228.77,-434.34 221.59,-442.14 232.06,-440.52 228.77,-434.34"/>
<text text-anchor="middle" x="321.5" y="-326.8" font-family="Times,serif" font-size="14.00">2</text>
</g>
<!-- Appeal to Judge&#45;&gt;Payment -->
<g id="edge14" class="edge">
<title>Appeal to Judge&#45;&gt;Payment</title>
<path fill="none" stroke="#ff0000" stroke-width="0.5" stroke-dasharray="5,2" d="M338.04,-181.8C328.19,-169.67 314.83,-153.21 303.74,-139.55"/>
<polygon fill="#ff0000" stroke="#ff0000" stroke-width="0.5" points="306.68,-137.61 297.66,-132.05 301.24,-142.02 306.68,-137.61"/>
<text text-anchor="middle" x="324.5" y="-152.8" font-family="Times,serif" font-size="14.00">1</text>
</g>
</g>
</svg>
