<?xml version="1.0" encoding="UTF-8" standalone="no"?>
<!DOCTYPE svg PUBLIC "-//W3C//DTD SVG 1.1//EN"
 "http://www.w3.org/Graphics/SVG/1.1/DTD/svg11.dtd">
<!-- Generated by graphviz version 7.0.5 (0)
 -->
<!-- Title: dfg Pages: 1 -->
<svg width="334pt" height="661pt"
 viewBox="0.00 0.00 334.00 661.00" xmlns="http://www.w3.org/2000/svg" xmlns:xlink="http://www.w3.org/1999/xlink">
<g id="graph0" class="graph" transform="scale(1 1) rotate(0) translate(4 657)">
<title>dfg</title>
<polygon fill="white" stroke="none" points="-4,4 -4,-657 330,-657 330,4 -4,4"/>
<!-- start_node -->
<g id="node1" class="node">
<title>start_node</title>
<ellipse fill="none" stroke="black" cx="151.5" cy="-635" rx="18" ry="18"/>
<text text-anchor="start" x="147" y="-631.3" font-family="Times,serif" font-size="14.00">●</text>
</g>
<!-- Create Fine -->
<g id="node2" class="node">
<title>Create Fine</title>
<polygon fill="#9b9bff" stroke="black" points="208,-566 95,-566 95,-530 208,-530 208,-566"/>
<text text-anchor="middle" x="151.5" y="-544.3" font-family="Times,serif" font-size="14.00">Create Fine (526)</text>
</g>
<!-- start_node&#45;&gt;Create Fine -->
<g id="edge1" class="edge">
<title>start_node&#45;&gt;Create Fine</title>
<path fill="none" stroke="#000000" stroke-width="6" d="M151.5,-616.8C151.5,-606.96 151.5,-594.27 151.5,-582.53"/>
<polygon fill="#000000" stroke="#000000" stroke-width="6" points="156.75,-582.92 151.5,-572.92 146.25,-582.92 156.75,-582.92"/>
<text text-anchor="middle" x="162" y="-587.8" font-family="Times,serif" font-size="14.00">526</text>
</g>
<!-- Send Fine -->
<g id="node3" class="node">
<title>Send Fine</title>
<polygon fill="#9b9bff" stroke="black" points="203.5,-479 99.5,-479 99.5,-443 203.5,-443 203.5,-479"/>
<text text-anchor="middle" x="151.5" y="-457.3" font-family="Times,serif" font-size="14.00">Send Fine (526)</text>
</g>
<!-- Create Fine&#45;&gt;Send Fine -->
<g id="edge2" class="edge">
<title>Create Fine&#45;&gt;Send Fine</title>
<path fill="none" stroke="#000000" stroke-width="6" d="M151.5,-529.8C151.5,-519.96 151.5,-507.27 151.5,-495.53"/>
<polygon fill="#000000" stroke="#000000" stroke-width="6" points="156.75,-495.92 151.5,-485.92 146.25,-495.92 156.75,-495.92"/>
<text text-anchor="middle" x="162" y="-500.8" font-family="Times,serif" font-size="14.00">526</text>
</g>
<!-- Insert Fine Notification -->
<g id="node4" class="node">
<title>Insert Fine Notification</title>
<polygon fill="#ffffff" stroke="black" points="177,-392 0,-392 0,-356 177,-356 177,-392"/>
<text text-anchor="middle" x="88.5" y="-370.3" font-family="Times,serif" font-size="14.00">Insert Fine Notification (489)</text>
</g>
<!-- Send Fine&#45;&gt;Insert Fine Notification -->
<g id="edge3" class="edge">
<title>Send Fine&#45;&gt;Insert Fine Notification</title>
<path fill="none" stroke="#000000" stroke-width="5.58" d="M138.75,-442.8C130.78,-432.04 120.28,-417.88 110.95,-405.29"/>
<polygon fill="#000000" stroke="#000000" stroke-width="5.58" points="115.11,-402.7 105.23,-397.58 107.26,-408.52 115.11,-402.7"/>
<text text-anchor="middle" x="135" y="-413.8" font-family="Times,serif" font-size="14.00">489</text>
</g>
<!-- Insert Date Appeal to Prefecture -->
<g id="node5" class="node">
<title>Insert Date Appeal to Prefecture</title>
<polygon fill="#9b9bff" stroke="black" points="326,-305 101,-305 101,-269 326,-269 326,-305"/>
<text text-anchor="middle" x="213.5" y="-283.3" font-family="Times,serif" font-size="14.00">Insert Date Appeal to Prefecture (526)</text>
</g>
<!-- Send Fine&#45;&gt;Insert Date Appeal to Prefecture -->
<g id="edge10" class="edge">
<title>Send Fine&#45;&gt;Insert Date Appeal to Prefecture</title>
<path fill="none" stroke="#000000" stroke-width="0.5" d="M161.45,-442.54C168.83,-429.06 178.75,-409.77 185.5,-392 195.12,-366.7 202.81,-336.76 207.68,-315.51"/>
<polygon fill="#000000" stroke="#000000" stroke-width="0.5" points="211.04,-316.53 209.8,-306 204.21,-315 211.04,-316.53"/>
<text text-anchor="middle" x="204.5" y="-370.3" font-family="Times,serif" font-size="14.00">37</text>
</g>
<!-- Insert Fine Notification&#45;&gt;Insert Date Appeal to Prefecture -->
<g id="edge4" class="edge">
<title>Insert Fine Notification&#45;&gt;Insert Date Appeal to Prefecture</title>
<path fill="none" stroke="#000000" stroke-width="4.93" d="M114.1,-355.59C131.54,-343.73 154.96,-327.81 174.68,-314.4"/>
<polygon fill="#000000" stroke="#000000" stroke-width="4.93" points="176.95,-318.07 182.79,-308.88 172.09,-310.94 176.95,-318.07"/>
<text text-anchor="middle" x="169" y="-326.8" font-family="Times,serif" font-size="14.00">431</text>
</g>
<!-- Add penalty -->
<g id="node6" class="node">
<title>Add penalty</title>
<polygon fill="#ffffff" stroke="black" points="197.5,-218 81.5,-218 81.5,-182 197.5,-182 197.5,-218"/>
<text text-anchor="middle" x="139.5" y="-196.3" font-family="Times,serif" font-size="14.00">Add penalty (489)</text>
</g>
<!-- Insert Fine Notification&#45;&gt;Add penalty -->
<g id="edge7" class="edge">
<title>Insert Fine Notification&#45;&gt;Add penalty</title>
<path fill="none" stroke="#000000" stroke-width="0.74" d="M81.96,-355.79C74.96,-334.63 66.28,-297.95 77.5,-269 83.94,-252.38 96.54,-237.33 108.71,-225.64"/>
<polygon fill="#000000" stroke="#000000" stroke-width="0.74" points="110.73,-228.54 115.75,-219.21 106.01,-223.37 110.73,-228.54"/>
<text text-anchor="middle" x="84.5" y="-283.3" font-family="Times,serif" font-size="14.00">58</text>
</g>
<!-- Insert Date Appeal to Prefecture&#45;&gt;Add penalty -->
<g id="edge5" class="edge">
<title>Insert Date Appeal to Prefecture&#45;&gt;Add penalty</title>
<path fill="none" stroke="#000000" stroke-width="4.93" d="M198.52,-268.8C188.96,-257.81 176.31,-243.28 165.17,-230.48"/>
<polygon fill="#000000" stroke="#000000" stroke-width="4.93" points="168.61,-227.87 158.79,-223.16 162.1,-233.54 168.61,-227.87"/>
<text text-anchor="middle" x="192" y="-239.8" font-family="Times,serif" font-size="14.00">431</text>
</g>
<!-- Send Appeal to Prefecture -->
<g id="node7" class="node">
<title>Send Appeal to Prefecture</title>
<polygon fill="#9b9bff" stroke="black" points="282.5,-131 90.5,-131 90.5,-95 282.5,-95 282.5,-131"/>
<text text-anchor="middle" x="186.5" y="-109.3" font-family="Times,serif" font-size="14.00">Send Appeal to Prefecture (526)</text>
</g>
<!-- Insert Date Appeal to Prefecture&#45;&gt;Send Appeal to Prefecture -->
<g id="edge9" class="edge">
<title>Insert Date Appeal to Prefecture&#45;&gt;Send Appeal to Prefecture</title>
<path fill="none" stroke="#000000" stroke-width="1.15" d="M213.49,-268.56C213.2,-247.79 211.87,-212.11 206.5,-182 204.12,-168.69 200.1,-154.28 196.29,-142.16"/>
<polygon fill="#000000" stroke="#000000" stroke-width="1.15" points="199.73,-141.43 193.29,-133.02 193.08,-143.61 199.73,-141.43"/>
<text text-anchor="middle" x="218.5" y="-196.3" font-family="Times,serif" font-size="14.00">95</text>
</g>
<!-- Add penalty&#45;&gt;Insert Date Appeal to Prefecture -->
<g id="edge8" class="edge">
<title>Add penalty&#45;&gt;Insert Date Appeal to Prefecture</title>
<path fill="none" stroke="#000000" stroke-width="0.74" d="M141.46,-218.19C143.38,-228.58 147.13,-241.57 154.5,-251 157.72,-255.12 161.58,-258.86 165.75,-262.23"/>
<polygon fill="#000000" stroke="#000000" stroke-width="0.74" points="163.59,-264.99 173.76,-267.96 167.67,-259.3 163.59,-264.99"/>
<text text-anchor="middle" x="161.5" y="-239.8" font-family="Times,serif" font-size="14.00">58</text>
</g>
<!-- Add penalty&#45;&gt;Send Appeal to Prefecture -->
<g id="edge6" class="edge">
<title>Add penalty&#45;&gt;Send Appeal to Prefecture</title>
<path fill="none" stroke="#000000" stroke-width="4.93" d="M149.01,-181.8C154.77,-171.38 162.29,-157.78 169.08,-145.5"/>
<polygon fill="#000000" stroke="#000000" stroke-width="4.93" points="172.77,-147.75 173.83,-136.91 165.21,-143.58 172.77,-147.75"/>
<text text-anchor="middle" x="177" y="-152.8" font-family="Times,serif" font-size="14.00">431</text>
</g>
<!-- end_node -->
<g id="node8" class="node">
<title>end_node</title>
<ellipse fill="none" stroke="black" cx="186.5" cy="-22" rx="18" ry="18"/>
<ellipse fill="none" stroke="black" cx="186.5" cy="-22" rx="22" ry="22"/>
<text text-anchor="start" x="182" y="-18.3" font-family="Times,serif" font-size="14.00">■</text>
</g>
<!-- Send Appeal to Prefecture&#45;&gt;end_node -->
<g id="edge11" class="edge">
<title>Send Appeal to Prefecture&#45;&gt;end_node</title>
<path fill="none" stroke="#000000" stroke-width="6" d="M186.5,-94.84C186.5,-85.02 186.5,-72.3 186.5,-60.3"/>
<polygon fill="#000000" stroke="#000000" stroke-width="6" points="191.75,-60.64 186.5,-50.64 181.25,-60.64 191.75,-60.64"/>
<text text-anchor="middle" x="197" y="-65.8" font-family="Times,serif" font-size="14.00">526</text>
</g>
</g>
</svg>
