<?xml version="1.0" encoding="UTF-8" standalone="no"?>
<!DOCTYPE svg PUBLIC "-//W3C//DTD SVG 1.1//EN"
 "http://www.w3.org/Graphics/SVG/1.1/DTD/svg11.dtd">
<!-- Generated by graphviz version 7.0.5 (0)
 -->
<!-- Title: dfg Pages: 1 -->
<svg width="326pt" height="748pt"
 viewBox="0.00 0.00 326.00 748.00" xmlns="http://www.w3.org/2000/svg" xmlns:xlink="http://www.w3.org/1999/xlink">
<g id="graph0" class="graph" transform="scale(1 1) rotate(0) translate(4 744)">
<title>dfg</title>
<polygon fill="white" stroke="none" points="-4,4 -4,-744 322,-744 322,4 -4,4"/>
<!-- start_node -->
<g id="node1" class="node">
<title>start_node</title>
<ellipse fill="none" stroke="black" cx="221.5" cy="-722" rx="18" ry="18"/>
<text text-anchor="start" x="217" y="-718.3" font-family="Times,serif" font-size="14.00">●</text>
</g>
<!-- Create Fine -->
<g id="node2" class="node">
<title>Create Fine</title>
<polygon fill="#9b9bff" stroke="black" points="278,-653 165,-653 165,-617 278,-617 278,-653"/>
<text text-anchor="middle" x="221.5" y="-631.3" font-family="Times,serif" font-size="14.00">Create Fine (237)</text>
</g>
<!-- start_node&#45;&gt;Create Fine -->
<g id="edge1" class="edge">
<title>start_node&#45;&gt;Create Fine</title>
<path fill="none" stroke="#000000" stroke-width="6" d="M221.5,-703.8C221.5,-693.96 221.5,-681.27 221.5,-669.53"/>
<polygon fill="#000000" stroke="#000000" stroke-width="6" points="226.75,-669.92 221.5,-659.92 216.25,-669.92 226.75,-669.92"/>
<text text-anchor="middle" x="232" y="-674.8" font-family="Times,serif" font-size="14.00">237</text>
</g>
<!-- Send Fine -->
<g id="node3" class="node">
<title>Send Fine</title>
<polygon fill="#9b9bff" stroke="black" points="273.5,-566 169.5,-566 169.5,-530 273.5,-530 273.5,-566"/>
<text text-anchor="middle" x="221.5" y="-544.3" font-family="Times,serif" font-size="14.00">Send Fine (237)</text>
</g>
<!-- Create Fine&#45;&gt;Send Fine -->
<g id="edge2" class="edge">
<title>Create Fine&#45;&gt;Send Fine</title>
<path fill="none" stroke="#000000" stroke-width="6" d="M221.5,-616.8C221.5,-606.96 221.5,-594.27 221.5,-582.53"/>
<polygon fill="#000000" stroke="#000000" stroke-width="6" points="226.75,-582.92 221.5,-572.92 216.25,-582.92 226.75,-582.92"/>
<text text-anchor="middle" x="232" y="-587.8" font-family="Times,serif" font-size="14.00">237</text>
</g>
<!-- Insert Fine Notification -->
<g id="node4" class="node">
<title>Insert Fine Notification</title>
<polygon fill="#a3a3ff" stroke="black" points="236,-479 59,-479 59,-443 236,-443 236,-479"/>
<text text-anchor="middle" x="147.5" y="-457.3" font-family="Times,serif" font-size="14.00">Insert Fine Notification (218)</text>
</g>
<!-- Send Fine&#45;&gt;Insert Fine Notification -->
<g id="edge3" class="edge">
<title>Send Fine&#45;&gt;Insert Fine Notification</title>
<path fill="none" stroke="#000000" stroke-width="5.55" d="M206.52,-529.8C196.96,-518.81 184.31,-504.28 173.17,-491.48"/>
<polygon fill="#000000" stroke="#000000" stroke-width="5.55" points="177.11,-488.61 166.88,-484.26 169.78,-494.99 177.11,-488.61"/>
<text text-anchor="middle" x="199" y="-500.8" font-family="Times,serif" font-size="14.00">218</text>
</g>
<!-- Insert Date Appeal to Prefecture -->
<g id="node5" class="node">
<title>Insert Date Appeal to Prefecture</title>
<polygon fill="#9b9bff" stroke="black" points="318,-305 93,-305 93,-269 318,-269 318,-305"/>
<text text-anchor="middle" x="205.5" y="-283.3" font-family="Times,serif" font-size="14.00">Insert Date Appeal to Prefecture (237)</text>
</g>
<!-- Send Fine&#45;&gt;Insert Date Appeal to Prefecture -->
<g id="edge10" class="edge">
<title>Send Fine&#45;&gt;Insert Date Appeal to Prefecture</title>
<path fill="none" stroke="#000000" stroke-width="0.88" d="M229.51,-529.55C235.24,-516.06 242.46,-496.77 245.5,-479 257.31,-410.05 252.36,-387.17 224.5,-323 223.37,-320.39 222.11,-317.72 220.79,-315.07"/>
<polygon fill="#000000" stroke="#000000" stroke-width="0.88" points="223.95,-313.55 216.2,-306.32 217.75,-316.8 223.95,-313.55"/>
<text text-anchor="middle" x="257.5" y="-413.8" font-family="Times,serif" font-size="14.00">19</text>
</g>
<!-- Insert Fine Notification&#45;&gt;Insert Date Appeal to Prefecture -->
<g id="edge4" class="edge">
<title>Insert Fine Notification&#45;&gt;Insert Date Appeal to Prefecture</title>
<path fill="none" stroke="#000000" stroke-width="4.07" d="M167.56,-442.59C180.48,-430.01 196.18,-411.8 203.5,-392 211.86,-369.37 212.04,-342.04 210.3,-321.07"/>
<polygon fill="#000000" stroke="#000000" stroke-width="4.07" points="213.86,-320.77 209.2,-311.23 206.77,-321.57 213.86,-320.77"/>
<text text-anchor="middle" x="221" y="-370.3" font-family="Times,serif" font-size="14.00">155</text>
</g>
<!-- Add penalty -->
<g id="node6" class="node">
<title>Add penalty</title>
<polygon fill="#a3a3ff" stroke="black" points="189.5,-218 73.5,-218 73.5,-182 189.5,-182 189.5,-218"/>
<text text-anchor="middle" x="131.5" y="-196.3" font-family="Times,serif" font-size="14.00">Add penalty (218)</text>
</g>
<!-- Insert Fine Notification&#45;&gt;Add penalty -->
<g id="edge7" class="edge">
<title>Insert Fine Notification&#45;&gt;Add penalty</title>
<path fill="none" stroke="#000000" stroke-width="1.84" d="M111.67,-442.64C92.39,-431.18 70.39,-414.18 59.5,-392 31.8,-335.59 77.02,-265.69 107.43,-228.05"/>
<polygon fill="#000000" stroke="#000000" stroke-width="1.84" points="110.04,-230.38 113.76,-220.46 104.67,-225.9 110.04,-230.38"/>
<text text-anchor="middle" x="62.5" y="-326.8" font-family="Times,serif" font-size="14.00">60</text>
</g>
<!-- Appeal to Judge -->
<g id="node9" class="node">
<title>Appeal to Judge</title>
<polygon fill="#ffffff" stroke="black" points="194,-392 69,-392 69,-356 194,-356 194,-392"/>
<text text-anchor="middle" x="131.5" y="-370.3" font-family="Times,serif" font-size="14.00">Appeal to Judge (3)</text>
</g>
<!-- Insert Fine Notification&#45;&gt;Appeal to Judge -->
<g id="edge13" class="edge">
<title>Insert Fine Notification&#45;&gt;Appeal to Judge</title>
<path fill="none" stroke="#ff0000" stroke-width="0.5" stroke-dasharray="5,2" d="M144.26,-442.8C142.11,-431.35 139.23,-416.06 136.75,-402.89"/>
<polygon fill="#ff0000" stroke="#ff0000" stroke-width="0.5" points="140.22,-402.39 134.93,-393.21 133.34,-403.69 140.22,-402.39"/>
<text text-anchor="middle" x="143" y="-413.8" font-family="Times,serif" font-size="14.00">3</text>
</g>
<!-- Insert Date Appeal to Prefecture&#45;&gt;Add penalty -->
<g id="edge5" class="edge">
<title>Insert Date Appeal to Prefecture&#45;&gt;Add penalty</title>
<path fill="none" stroke="#000000" stroke-width="3.77" d="M190.52,-268.8C180.86,-257.7 168.04,-242.97 156.82,-230.08"/>
<polygon fill="#000000" stroke="#000000" stroke-width="3.77" points="159.66,-228.01 150.45,-222.77 154.38,-232.61 159.66,-228.01"/>
<text text-anchor="middle" x="183" y="-239.8" font-family="Times,serif" font-size="14.00">142</text>
</g>
<!-- Send Appeal to Prefecture -->
<g id="node7" class="node">
<title>Send Appeal to Prefecture</title>
<polygon fill="#9b9bff" stroke="black" points="301.5,-131 109.5,-131 109.5,-95 301.5,-95 301.5,-131"/>
<text text-anchor="middle" x="205.5" y="-109.3" font-family="Times,serif" font-size="14.00">Send Appeal to Prefecture (237)</text>
</g>
<!-- Insert Date Appeal to Prefecture&#45;&gt;Send Appeal to Prefecture -->
<g id="edge9" class="edge">
<title>Insert Date Appeal to Prefecture&#45;&gt;Send Appeal to Prefecture</title>
<path fill="none" stroke="#000000" stroke-width="2.66" d="M205.5,-268.56C205.5,-239.72 205.5,-181.67 205.5,-145.5"/>
<polygon fill="#000000" stroke="#000000" stroke-width="2.66" points="209,-145.51 205.5,-135.51 202,-145.51 209,-145.51"/>
<text text-anchor="middle" x="212.5" y="-196.3" font-family="Times,serif" font-size="14.00">95</text>
</g>
<!-- Add penalty&#45;&gt;Insert Date Appeal to Prefecture -->
<g id="edge8" class="edge">
<title>Add penalty&#45;&gt;Insert Date Appeal to Prefecture</title>
<path fill="none" stroke="#000000" stroke-width="1.84" d="M133.05,-218.2C134.73,-228.59 138.22,-241.58 145.5,-251 148.36,-254.7 151.73,-258.08 155.39,-261.16"/>
<polygon fill="#000000" stroke="#000000" stroke-width="1.84" points="153.21,-263.9 163.35,-266.96 157.33,-258.24 153.21,-263.9"/>
<text text-anchor="middle" x="152.5" y="-239.8" font-family="Times,serif" font-size="14.00">60</text>
</g>
<!-- Add penalty&#45;&gt;Send Appeal to Prefecture -->
<g id="edge6" class="edge">
<title>Add penalty&#45;&gt;Send Appeal to Prefecture</title>
<path fill="none" stroke="#000000" stroke-width="3.77" d="M146.48,-181.8C156.14,-170.7 168.96,-155.97 180.18,-143.08"/>
<polygon fill="#000000" stroke="#000000" stroke-width="3.77" points="182.62,-145.61 186.55,-135.77 177.34,-141.01 182.62,-145.61"/>
<text text-anchor="middle" x="183" y="-152.8" font-family="Times,serif" font-size="14.00">142</text>
</g>
<!-- Payment -->
<g id="node8" class="node">
<title>Payment</title>
<polygon fill="#f9f9ff" stroke="black" points="91,-131 0,-131 0,-95 91,-95 91,-131"/>
<text text-anchor="middle" x="45.5" y="-109.3" font-family="Times,serif" font-size="14.00">Payment (16)</text>
</g>
<!-- Add penalty&#45;&gt;Payment -->
<g id="edge12" class="edge">
<title>Add penalty&#45;&gt;Payment</title>
<path fill="none" stroke="#000000" stroke-width="0.81" d="M114.1,-181.8C101.71,-169.55 84.86,-152.9 70.96,-139.16"/>
<polygon fill="#000000" stroke="#000000" stroke-width="0.81" points="73.61,-136.86 64.04,-132.32 68.69,-141.84 73.61,-136.86"/>
<text text-anchor="middle" x="101.5" y="-152.8" font-family="Times,serif" font-size="14.00">16</text>
</g>
<!-- Send Appeal to Prefecture&#45;&gt;Add penalty -->
<g id="edge11" class="edge">
<title>Send Appeal to Prefecture&#45;&gt;Add penalty</title>
<path fill="none" stroke="#000000" stroke-width="0.81" d="M165.61,-131.41C158.07,-136.19 150.88,-142.03 145.5,-149 140.61,-155.33 137.43,-163.27 135.36,-170.95"/>
<polygon fill="#000000" stroke="#000000" stroke-width="0.81" points="131.96,-170.1 133.3,-180.61 138.81,-171.55 131.96,-170.1"/>
<text text-anchor="middle" x="152.5" y="-152.8" font-family="Times,serif" font-size="14.00">16</text>
</g>
<!-- end_node -->
<g id="node10" class="node">
<title>end_node</title>
<ellipse fill="none" stroke="black" cx="124.5" cy="-22" rx="18" ry="18"/>
<ellipse fill="none" stroke="black" cx="124.5" cy="-22" rx="22" ry="22"/>
<text text-anchor="start" x="120" y="-18.3" font-family="Times,serif" font-size="14.00">■</text>
</g>
<!-- Send Appeal to Prefecture&#45;&gt;end_node -->
<g id="edge15" class="edge">
<title>Send Appeal to Prefecture&#45;&gt;end_node</title>
<path fill="none" stroke="#000000" stroke-width="5.62" d="M189.88,-94.84C178.5,-82.34 162.85,-65.14 149.71,-50.7"/>
<polygon fill="#000000" stroke="#000000" stroke-width="5.62" points="153.64,-47.7 143.27,-43.62 146.36,-54.33 153.64,-47.7"/>
<text text-anchor="middle" x="182" y="-65.8" font-family="Times,serif" font-size="14.00">221</text>
</g>
<!-- Payment&#45;&gt;end_node -->
<g id="edge16" class="edge">
<title>Payment&#45;&gt;end_node</title>
<path fill="none" stroke="#000000" stroke-width="0.81" d="M60.73,-94.84C72.65,-81.41 89.38,-62.56 102.72,-47.54"/>
<polygon fill="#000000" stroke="#000000" stroke-width="0.81" points="105.28,-49.92 109.3,-40.12 100.05,-45.27 105.28,-49.92"/>
<text text-anchor="middle" x="97.5" y="-65.8" font-family="Times,serif" font-size="14.00">16</text>
</g>
<!-- Appeal to Judge&#45;&gt;Insert Date Appeal to Prefecture -->
<g id="edge14" class="edge">
<title>Appeal to Judge&#45;&gt;Insert Date Appeal to Prefecture</title>
<path fill="none" stroke="#ff0000" stroke-width="0.5" stroke-dasharray="5,2" d="M146.48,-355.8C157.04,-343.67 171.36,-327.21 183.26,-313.55"/>
<polygon fill="#ff0000" stroke="#ff0000" stroke-width="0.5" points="185.87,-315.88 189.8,-306.04 180.59,-311.28 185.87,-315.88"/>
<text text-anchor="middle" x="176" y="-326.8" font-family="Times,serif" font-size="14.00">3</text>
</g>
</g>
</svg>
