<?xml version="1.0" encoding="UTF-8" standalone="no"?>
<!DOCTYPE svg PUBLIC "-//W3C//DTD SVG 1.1//EN"
 "http://www.w3.org/Graphics/SVG/1.1/DTD/svg11.dtd">
<!-- Generated by graphviz version 7.0.5 (0)
 -->
<!-- Title: dfg Pages: 1 -->
<svg width="419pt" height="574pt"
 viewBox="0.00 0.00 418.50 574.00" xmlns="http://www.w3.org/2000/svg" xmlns:xlink="http://www.w3.org/1999/xlink">
<g id="graph0" class="graph" transform="scale(1 1) rotate(0) translate(4 570)">
<title>dfg</title>
<polygon fill="white" stroke="none" points="-4,4 -4,-570 414.5,-570 414.5,4 -4,4"/>
<!-- start_node -->
<g id="node1" class="node">
<title>start_node</title>
<ellipse fill="none" stroke="black" cx="237" cy="-548" rx="18" ry="18"/>
<text text-anchor="start" x="232.5" y="-544.3" font-family="Times,serif" font-size="14.00">●</text>
</g>
<!-- Create Fine -->
<g id="node2" class="node">
<title>Create Fine</title>
<polygon fill="#9b9bff" stroke="black" points="303.5,-479 170.5,-479 170.5,-443 303.5,-443 303.5,-479"/>
<text text-anchor="middle" x="237" y="-457.3" font-family="Times,serif" font-size="14.00">Create Fine (136494)</text>
</g>
<!-- start_node&#45;&gt;Create Fine -->
<g id="edge1" class="edge">
<title>start_node&#45;&gt;Create Fine</title>
<path fill="none" stroke="#000000" stroke-width="8.95" d="M237,-529.8C237,-520.18 237,-507.86 237,-496.35"/>
<polygon fill="#000000" stroke="#000000" stroke-width="8.95" points="244.83,-496.73 237,-486.73 229.17,-496.73 244.83,-496.73"/>
<text text-anchor="middle" x="257.5" y="-500.8" font-family="Times,serif" font-size="14.00">136494</text>
</g>
<!-- Send Fine -->
<g id="node3" class="node">
<title>Send Fine</title>
<polygon fill="#d4d4ff" stroke="black" points="208,-392 90,-392 90,-356 208,-356 208,-392"/>
<text text-anchor="middle" x="149" y="-370.3" font-family="Times,serif" font-size="14.00">Send Fine (90123)</text>
</g>
<!-- Create Fine&#45;&gt;Send Fine -->
<g id="edge2" class="edge">
<title>Create Fine&#45;&gt;Send Fine</title>
<path fill="none" stroke="#000000" stroke-width="6" d="M219.19,-442.8C207.58,-431.58 192.14,-416.67 178.7,-403.69"/>
<polygon fill="#000000" stroke="#000000" stroke-width="6" points="182.57,-400.12 171.73,-396.95 175.27,-407.67 182.57,-400.12"/>
<text text-anchor="middle" x="215" y="-413.8" font-family="Times,serif" font-size="14.00">90123</text>
</g>
<!-- Payment -->
<g id="node7" class="node">
<title>Payment</title>
<polygon fill="#f6f6ff" stroke="black" points="364.5,-131 253.5,-131 253.5,-95 364.5,-95 364.5,-131"/>
<text text-anchor="middle" x="309" y="-109.3" font-family="Times,serif" font-size="14.00">Payment (63363)</text>
</g>
<!-- Create Fine&#45;&gt;Payment -->
<g id="edge6" class="edge">
<title>Create Fine&#45;&gt;Payment</title>
<path fill="none" stroke="#000000" stroke-width="3.21" d="M261.58,-442.76C280.34,-427.39 303,-403.02 303,-375 303,-375 303,-375 303,-199 303,-181.45 304.29,-161.91 305.67,-146"/>
<polygon fill="#000000" stroke="#000000" stroke-width="3.21" points="309.15,-146.36 306.61,-136.07 302.18,-145.7 309.15,-146.36"/>
<text text-anchor="middle" x="320" y="-283.3" font-family="Times,serif" font-size="14.00">46371</text>
</g>
<!-- Insert Fine Notification -->
<g id="node4" class="node">
<title>Insert Fine Notification</title>
<polygon fill="#eeeeff" stroke="black" points="244.5,-305 53.5,-305 53.5,-269 244.5,-269 244.5,-305"/>
<text text-anchor="middle" x="149" y="-283.3" font-family="Times,serif" font-size="14.00">Insert Fine Notification (69738)</text>
</g>
<!-- Send Fine&#45;&gt;Insert Fine Notification -->
<g id="edge3" class="edge">
<title>Send Fine&#45;&gt;Insert Fine Notification</title>
<path fill="none" stroke="#000000" stroke-width="4.7" d="M149,-355.8C149,-345.96 149,-333.27 149,-321.53"/>
<polygon fill="#000000" stroke="#000000" stroke-width="4.7" points="153.11,-321.65 149,-311.65 144.89,-321.65 153.11,-321.65"/>
<text text-anchor="middle" x="166" y="-326.8" font-family="Times,serif" font-size="14.00">69738</text>
</g>
<!-- end_node -->
<g id="node8" class="node">
<title>end_node</title>
<ellipse fill="none" stroke="black" cx="132" cy="-22" rx="18" ry="18"/>
<ellipse fill="none" stroke="black" cx="132" cy="-22" rx="22" ry="22"/>
<text text-anchor="start" x="127.5" y="-18.3" font-family="Times,serif" font-size="14.00">■</text>
</g>
<!-- Send Fine&#45;&gt;end_node -->
<g id="edge11" class="edge">
<title>Send Fine&#45;&gt;end_node</title>
<path fill="none" stroke="#000000" stroke-width="1.56" d="M89.68,-363.38C48.13,-352.87 0,-331.33 0,-288 0,-288 0,-288 0,-112 0,-64.61 59.2,-40.78 98.31,-30.21"/>
<polygon fill="#000000" stroke="#000000" stroke-width="1.56" points="99.06,-33.63 107.91,-27.8 97.36,-26.84 99.06,-33.63"/>
<text text-anchor="middle" x="17" y="-196.3" font-family="Times,serif" font-size="14.00">20385</text>
</g>
<!-- Add penalty -->
<g id="node5" class="node">
<title>Add penalty</title>
<polygon fill="#eeeeff" stroke="black" points="214,-218 84,-218 84,-182 214,-182 214,-218"/>
<text text-anchor="middle" x="149" y="-196.3" font-family="Times,serif" font-size="14.00">Add penalty (69738)</text>
</g>
<!-- Insert Fine Notification&#45;&gt;Add penalty -->
<g id="edge4" class="edge">
<title>Insert Fine Notification&#45;&gt;Add penalty</title>
<path fill="none" stroke="#000000" stroke-width="4.7" d="M149,-268.8C149,-258.96 149,-246.27 149,-234.53"/>
<polygon fill="#000000" stroke="#000000" stroke-width="4.7" points="153.11,-234.65 149,-224.65 144.89,-234.65 153.11,-234.65"/>
<text text-anchor="middle" x="166" y="-239.8" font-family="Times,serif" font-size="14.00">69738</text>
</g>
<!-- Send for Credit Collection -->
<g id="node6" class="node">
<title>Send for Credit Collection</title>
<polygon fill="#ffffff" stroke="black" points="235.5,-131 28.5,-131 28.5,-95 235.5,-95 235.5,-131"/>
<text text-anchor="middle" x="132" y="-109.3" font-family="Times,serif" font-size="14.00">Send for Credit Collection (56482)</text>
</g>
<!-- Add penalty&#45;&gt;Send for Credit Collection -->
<g id="edge5" class="edge">
<title>Add penalty&#45;&gt;Send for Credit Collection</title>
<path fill="none" stroke="#000000" stroke-width="3.86" d="M145.56,-181.8C143.55,-171.73 140.93,-158.67 138.54,-146.72"/>
<polygon fill="#000000" stroke="#000000" stroke-width="3.86" points="142.03,-146.31 136.64,-137.19 135.17,-147.69 142.03,-146.31"/>
<text text-anchor="middle" x="159" y="-152.8" font-family="Times,serif" font-size="14.00">56482</text>
</g>
<!-- Add penalty&#45;&gt;Payment -->
<g id="edge7" class="edge">
<title>Add penalty&#45;&gt;Payment</title>
<path fill="none" stroke="#000000" stroke-width="1.11" d="M181.76,-181.59C206.14,-168.64 239.63,-150.85 266.13,-136.77"/>
<polygon fill="#000000" stroke="#000000" stroke-width="1.11" points="267.61,-139.95 274.8,-132.17 264.33,-133.77 267.61,-139.95"/>
<text text-anchor="middle" x="255" y="-152.8" font-family="Times,serif" font-size="14.00">13256</text>
</g>
<!-- Send for Credit Collection&#45;&gt;end_node -->
<g id="edge9" class="edge">
<title>Send for Credit Collection&#45;&gt;end_node</title>
<path fill="none" stroke="#000000" stroke-width="3.86" d="M132,-94.84C132,-84.91 132,-72.01 132,-59.89"/>
<polygon fill="#000000" stroke="#000000" stroke-width="3.86" points="135.5,-60.03 132,-50.03 128.5,-60.03 135.5,-60.03"/>
<text text-anchor="middle" x="149" y="-65.8" font-family="Times,serif" font-size="14.00">56482</text>
</g>
<!-- Payment&#45;&gt;Payment -->
<g id="edge8" class="edge">
<title>Payment&#45;&gt;Payment</title>
<path fill="none" stroke="#ff0000" stroke-width="0.5" stroke-dasharray="5,2" d="M364.77,-120.74C375.17,-119.78 382.5,-117.21 382.5,-113 382.5,-110.44 379.78,-108.48 375.3,-107.12"/>
<polygon fill="#ff0000" stroke="#ff0000" stroke-width="0.5" points="375.97,-103.69 365.51,-105.39 374.75,-110.58 375.97,-103.69"/>
<text text-anchor="middle" x="396.5" y="-109.3" font-family="Times,serif" font-size="14.00">3736</text>
</g>
<!-- Payment&#45;&gt;end_node -->
<g id="edge10" class="edge">
<title>Payment&#45;&gt;end_node</title>
<path fill="none" stroke="#000000" stroke-width="4.06" d="M274.45,-94.63C242.98,-78.8 196.79,-55.58 165.62,-39.9"/>
<polygon fill="#000000" stroke="#000000" stroke-width="4.06" points="167.59,-36.92 157.07,-35.6 164.4,-43.27 167.59,-36.92"/>
<text text-anchor="middle" x="253" y="-65.8" font-family="Times,serif" font-size="14.00">59627</text>
</g>
</g>
</svg>
