<?xml version="1.0" encoding="UTF-8" standalone="no"?>
<!DOCTYPE svg PUBLIC "-//W3C//DTD SVG 1.1//EN"
 "http://www.w3.org/Graphics/SVG/1.1/DTD/svg11.dtd">
<!-- Generated by graphviz version 7.0.5 (0)
 -->
<!-- Title: dfg Pages: 1 -->
<svg width="832pt" height="1357pt"
 viewBox="0.00 0.00 831.50 1357.00" xmlns="http://www.w3.org/2000/svg" xmlns:xlink="http://www.w3.org/1999/xlink">
<g id="graph0" class="graph" transform="scale(1 1) rotate(0) translate(4 1353)">
<title>dfg</title>
<polygon fill="white" stroke="none" points="-4,4 -4,-1353 827.5,-1353 827.5,4 -4,4"/>
<!-- start_node -->
<g id="node1" class="node">
<title>start_node</title>
<ellipse fill="none" stroke="black" cx="489.5" cy="-1331" rx="18" ry="18"/>
<text text-anchor="start" x="485" y="-1327.3" font-family="Times,serif" font-size="14.00">●</text>
</g>
<!-- A_Create Application -->
<g id="node2" class="node">
<title>A_Create Application</title>
<polygon fill="#eeeeff" stroke="black" points="577,-1262 402,-1262 402,-1226 577,-1226 577,-1262"/>
<text text-anchor="middle" x="489.5" y="-1240.3" font-family="Times,serif" font-size="14.00">A_Create Application (2829)</text>
</g>
<!-- start_node&#45;&gt;A_Create Application -->
<g id="edge1" class="edge">
<title>start_node&#45;&gt;A_Create Application</title>
<path fill="none" stroke="#000000" stroke-width="2.18" d="M489.5,-1312.8C489.5,-1302.15 489.5,-1288.18 489.5,-1275.69"/>
<polygon fill="#000000" stroke="#000000" stroke-width="2.18" points="493,-1275.76 489.5,-1265.76 486,-1275.76 493,-1275.76"/>
<text text-anchor="middle" x="503.5" y="-1283.8" font-family="Times,serif" font-size="14.00">2829</text>
</g>
<!-- A_Submitted -->
<g id="node3" class="node">
<title>A_Submitted</title>
<polygon fill="#f4f4ff" stroke="black" points="651,-1175 522,-1175 522,-1139 651,-1139 651,-1175"/>
<text text-anchor="middle" x="586.5" y="-1153.3" font-family="Times,serif" font-size="14.00">A_Submitted (1914)</text>
</g>
<!-- A_Create Application&#45;&gt;A_Submitted -->
<g id="edge2" class="edge">
<title>A_Create Application&#45;&gt;A_Submitted</title>
<path fill="none" stroke="#000000" stroke-width="1.63" d="M509.13,-1225.8C522.97,-1213.67 541.75,-1197.21 557.34,-1183.55"/>
<polygon fill="#000000" stroke="#000000" stroke-width="1.63" points="559.49,-1186.32 564.71,-1177.1 554.88,-1181.05 559.49,-1186.32"/>
<text text-anchor="middle" x="557.5" y="-1196.8" font-family="Times,serif" font-size="14.00">1914</text>
</g>
<!-- W_Complete application -->
<g id="node5" class="node">
<title>W_Complete application</title>
<polygon fill="#b9b9ff" stroke="black" points="691.5,-1001 491.5,-1001 491.5,-965 691.5,-965 691.5,-1001"/>
<text text-anchor="middle" x="591.5" y="-979.3" font-family="Times,serif" font-size="14.00">W_Complete application (11890)</text>
</g>
<!-- A_Create Application&#45;&gt;W_Complete application -->
<g id="edge20" class="edge">
<title>A_Create Application&#45;&gt;W_Complete application</title>
<path fill="none" stroke="#000000" stroke-width="0.82" d="M487.17,-1225.67C483.3,-1190.55 478.74,-1109.47 509.5,-1052 519.13,-1034.01 535.69,-1018.89 551.42,-1007.52"/>
<polygon fill="#000000" stroke="#000000" stroke-width="0.82" points="553.25,-1010.51 559.51,-1001.96 549.29,-1004.74 553.25,-1010.51"/>
<text text-anchor="middle" x="502" y="-1109.8" font-family="Times,serif" font-size="14.00">541</text>
</g>
<!-- A_Concept -->
<g id="node6" class="node">
<title>A_Concept</title>
<polygon fill="#eeeeff" stroke="black" points="577.5,-914 459.5,-914 459.5,-878 577.5,-878 577.5,-914"/>
<text text-anchor="middle" x="518.5" y="-892.3" font-family="Times,serif" font-size="14.00">A_Concept (2829)</text>
</g>
<!-- A_Create Application&#45;&gt;A_Concept -->
<g id="edge31" class="edge">
<title>A_Create Application&#45;&gt;A_Concept</title>
<path fill="none" stroke="#ff0000" stroke-width="0.72" stroke-dasharray="5,2" d="M462.25,-1225.57C442.23,-1210.42 418.5,-1186.46 418.5,-1158 418.5,-1158 418.5,-1158 418.5,-982 418.5,-954.24 441.15,-933.65 464.89,-919.7"/>
<polygon fill="#ff0000" stroke="#ff0000" stroke-width="0.72" points="466.32,-922.9 473.39,-915.01 462.95,-916.77 466.32,-922.9"/>
<text text-anchor="middle" x="429" y="-1066.3" font-family="Times,serif" font-size="14.00">374</text>
</g>
<!-- W_Handle leads -->
<g id="node4" class="node">
<title>W_Handle leads</title>
<polygon fill="#e7e7ff" stroke="black" points="665,-1088 518,-1088 518,-1052 665,-1052 665,-1088"/>
<text text-anchor="middle" x="591.5" y="-1066.3" font-family="Times,serif" font-size="14.00">W_Handle leads (4016)</text>
</g>
<!-- A_Submitted&#45;&gt;W_Handle leads -->
<g id="edge3" class="edge">
<title>A_Submitted&#45;&gt;W_Handle leads</title>
<path fill="none" stroke="#000000" stroke-width="1.63" d="M587.51,-1138.8C588.15,-1127.93 589,-1113.58 589.74,-1100.88"/>
<polygon fill="#000000" stroke="#000000" stroke-width="1.63" points="593.23,-1101.12 590.33,-1090.93 586.25,-1100.71 593.23,-1101.12"/>
<text text-anchor="middle" x="602.5" y="-1109.8" font-family="Times,serif" font-size="14.00">1914</text>
</g>
<!-- W_Handle leads&#45;&gt;W_Handle leads -->
<g id="edge4" class="edge">
<title>W_Handle leads&#45;&gt;W_Handle leads</title>
<path fill="none" stroke="#000000" stroke-width="1.74" d="M665.46,-1077.32C675.95,-1076.14 683,-1073.7 683,-1070 683,-1068.04 681.01,-1066.43 677.57,-1065.17"/>
<polygon fill="#000000" stroke="#000000" stroke-width="1.74" points="678.54,-1061.8 668.04,-1063.21 677.13,-1068.66 678.54,-1061.8"/>
<text text-anchor="middle" x="697" y="-1066.3" font-family="Times,serif" font-size="14.00">2102</text>
</g>
<!-- W_Handle leads&#45;&gt;W_Complete application -->
<g id="edge5" class="edge">
<title>W_Handle leads&#45;&gt;W_Complete application</title>
<path fill="none" stroke="#000000" stroke-width="1.63" d="M591.5,-1051.8C591.5,-1040.93 591.5,-1026.58 591.5,-1013.88"/>
<polygon fill="#000000" stroke="#000000" stroke-width="1.63" points="595,-1013.94 591.5,-1003.94 588,-1013.94 595,-1013.94"/>
<text text-anchor="middle" x="605.5" y="-1022.8" font-family="Times,serif" font-size="14.00">1914</text>
</g>
<!-- W_Complete application&#45;&gt;W_Complete application -->
<g id="edge21" class="edge">
<title>W_Complete application&#45;&gt;W_Complete application</title>
<path fill="none" stroke="#000000" stroke-width="3.14" d="M691.79,-989.81C702.57,-988.5 709.5,-986.23 709.5,-983 709.5,-981.59 708.17,-980.36 705.78,-979.31"/>
<polygon fill="#000000" stroke="#000000" stroke-width="3.14" points="706.94,-975.99 696.42,-977.22 705.42,-982.82 706.94,-975.99"/>
<text text-anchor="middle" x="723.5" y="-979.3" font-family="Times,serif" font-size="14.00">4443</text>
</g>
<!-- W_Complete application&#45;&gt;A_Concept -->
<g id="edge6" class="edge">
<title>W_Complete application&#45;&gt;A_Concept</title>
<path fill="none" stroke="#000000" stroke-width="1.95" d="M576.73,-964.8C566.7,-953.12 553.24,-937.45 541.78,-924.11"/>
<polygon fill="#000000" stroke="#000000" stroke-width="1.95" points="544.6,-922.02 535.43,-916.71 539.29,-926.58 544.6,-922.02"/>
<text text-anchor="middle" x="572.5" y="-935.8" font-family="Times,serif" font-size="14.00">2455</text>
</g>
<!-- A_Accepted -->
<g id="node7" class="node">
<title>A_Accepted</title>
<polygon fill="#eeeeff" stroke="black" points="679.5,-827 555.5,-827 555.5,-791 679.5,-791 679.5,-827"/>
<text text-anchor="middle" x="617.5" y="-805.3" font-family="Times,serif" font-size="14.00">A_Accepted (2829)</text>
</g>
<!-- W_Complete application&#45;&gt;A_Accepted -->
<g id="edge8" class="edge">
<title>W_Complete application&#45;&gt;A_Accepted</title>
<path fill="none" stroke="#000000" stroke-width="1.75" d="M614.01,-964.72C619.26,-959.58 624.25,-953.56 627.5,-947 644.47,-912.75 636.27,-867.68 627.77,-838.77"/>
<polygon fill="#000000" stroke="#000000" stroke-width="1.75" points="631.22,-838.07 624.85,-829.6 624.55,-840.2 631.22,-838.07"/>
<text text-anchor="middle" x="650.5" y="-892.3" font-family="Times,serif" font-size="14.00">2106</text>
</g>
<!-- O_Create Offer -->
<g id="node8" class="node">
<title>O_Create Offer</title>
<polygon fill="#ededff" stroke="black" points="718,-740 577,-740 577,-704 718,-704 718,-740"/>
<text text-anchor="middle" x="647.5" y="-718.3" font-family="Times,serif" font-size="14.00">O_Create Offer (3113)</text>
</g>
<!-- W_Complete application&#45;&gt;O_Create Offer -->
<g id="edge42" class="edge">
<title>W_Complete application&#45;&gt;O_Create Offer</title>
<path fill="none" stroke="#ff0000" stroke-width="0.53" stroke-dasharray="5,2" d="M621.11,-964.52C628.79,-959.35 636.78,-953.36 643.5,-947 684.89,-907.86 682.08,-883.6 688.5,-827 690.3,-811.1 692.79,-806.41 688.5,-791 684.32,-775.97 675.82,-760.94 667.65,-748.85"/>
<polygon fill="#ff0000" stroke="#ff0000" stroke-width="0.53" points="670.63,-747.01 661.99,-740.87 664.92,-751.06 670.63,-747.01"/>
<text text-anchor="middle" x="693.5" y="-848.8" font-family="Times,serif" font-size="14.00">51</text>
</g>
<!-- O_Sent (mail and online) -->
<g id="node10" class="node">
<title>O_Sent (mail and online)</title>
<polygon fill="#ededff" stroke="black" points="599,-566 404,-566 404,-530 599,-530 599,-566"/>
<text text-anchor="middle" x="501.5" y="-544.3" font-family="Times,serif" font-size="14.00">O_Sent (mail and online) (3107)</text>
</g>
<!-- W_Complete application&#45;&gt;O_Sent (mail and online) -->
<g id="edge45" class="edge">
<title>W_Complete application&#45;&gt;O_Sent (mail and online)</title>
<path fill="none" stroke="#ff0000" stroke-width="0.5" stroke-dasharray="5,2" d="M491.05,-975.14C442.04,-965.72 393.5,-944.42 393.5,-897 393.5,-897 393.5,-897 393.5,-634 393.5,-605.31 417.32,-584.82 442.59,-571.16"/>
<polygon fill="#ff0000" stroke="#ff0000" stroke-width="0.5" points="443.91,-574.41 451.25,-566.77 440.75,-568.17 443.91,-574.41"/>
<text text-anchor="middle" x="397" y="-761.8" font-family="Times,serif" font-size="14.00">6</text>
</g>
<!-- W_Call after offers -->
<g id="node11" class="node">
<title>W_Call after offers</title>
<polygon fill="#9b9bff" stroke="black" points="730.5,-305 560.5,-305 560.5,-269 730.5,-269 730.5,-305"/>
<text text-anchor="middle" x="645.5" y="-283.3" font-family="Times,serif" font-size="14.00">W_Call after offers (17030)</text>
</g>
<!-- W_Complete application&#45;&gt;W_Call after offers -->
<g id="edge13" class="edge">
<title>W_Complete application&#45;&gt;W_Call after offers</title>
<path fill="none" stroke="#000000" stroke-width="2.18" d="M691.71,-976.64C743.3,-967.86 795.5,-946.69 795.5,-897 795.5,-897 795.5,-897 795.5,-373 795.5,-342.35 771.5,-322.62 742.71,-309.98"/>
<polygon fill="#000000" stroke="#000000" stroke-width="2.18" points="744.23,-306.82 733.64,-306.37 741.63,-313.32 744.23,-306.82"/>
<text text-anchor="middle" x="809.5" y="-631.3" font-family="Times,serif" font-size="14.00">2829</text>
</g>
<!-- A_Concept&#45;&gt;W_Complete application -->
<g id="edge7" class="edge">
<title>A_Concept&#45;&gt;W_Complete application</title>
<path fill="none" stroke="#000000" stroke-width="1.75" d="M514.13,-914.47C512.58,-924.71 512.49,-937.45 518.5,-947 520.86,-950.74 523.73,-954.09 526.97,-957.09"/>
<polygon fill="#000000" stroke="#000000" stroke-width="1.75" points="524.73,-959.78 534.8,-963.04 528.96,-954.21 524.73,-959.78"/>
<text text-anchor="middle" x="532.5" y="-935.8" font-family="Times,serif" font-size="14.00">2106</text>
</g>
<!-- A_Concept&#45;&gt;A_Accepted -->
<g id="edge22" class="edge">
<title>A_Concept&#45;&gt;A_Accepted</title>
<path fill="none" stroke="#000000" stroke-width="0.93" d="M538.53,-877.8C552.93,-865.44 572.56,-848.59 588.64,-834.78"/>
<polygon fill="#000000" stroke="#000000" stroke-width="0.93" points="590.79,-837.55 596.09,-828.38 586.23,-832.24 590.79,-837.55"/>
<text text-anchor="middle" x="584" y="-848.8" font-family="Times,serif" font-size="14.00">723</text>
</g>
<!-- A_Accepted&#45;&gt;W_Complete application -->
<g id="edge41" class="edge">
<title>A_Accepted&#45;&gt;W_Complete application</title>
<path fill="none" stroke="#ff0000" stroke-width="0.53" stroke-dasharray="5,2" d="M614.86,-827.48C610.34,-857.39 601.08,-918.6 595.68,-954.35"/>
<polygon fill="#ff0000" stroke="#ff0000" stroke-width="0.53" points="592.29,-953.36 594.26,-963.77 599.21,-954.41 592.29,-953.36"/>
<text text-anchor="middle" x="613.5" y="-892.3" font-family="Times,serif" font-size="14.00">51</text>
</g>
<!-- A_Accepted&#45;&gt;O_Create Offer -->
<g id="edge9" class="edge">
<title>A_Accepted&#45;&gt;O_Create Offer</title>
<path fill="none" stroke="#000000" stroke-width="2.15" d="M623.57,-790.8C627.41,-779.93 632.47,-765.58 636.95,-752.88"/>
<polygon fill="#000000" stroke="#000000" stroke-width="2.15" points="640.23,-754.13 640.25,-743.53 633.63,-751.8 640.23,-754.13"/>
<text text-anchor="middle" x="647.5" y="-761.8" font-family="Times,serif" font-size="14.00">2778</text>
</g>
<!-- O_Created -->
<g id="node9" class="node">
<title>O_Created</title>
<polygon fill="#ededff" stroke="black" points="655,-653 540,-653 540,-617 655,-617 655,-653"/>
<text text-anchor="middle" x="597.5" y="-631.3" font-family="Times,serif" font-size="14.00">O_Created (3113)</text>
</g>
<!-- O_Create Offer&#45;&gt;O_Created -->
<g id="edge10" class="edge">
<title>O_Create Offer&#45;&gt;O_Created</title>
<path fill="none" stroke="#000000" stroke-width="2.35" d="M613.11,-703.63C606.83,-698.81 601.12,-692.95 597.5,-686 594.41,-680.06 593.18,-673.15 592.97,-666.41"/>
<polygon fill="#000000" stroke="#000000" stroke-width="2.35" points="596.45,-666.86 593.51,-656.68 589.46,-666.47 596.45,-666.86"/>
<text text-anchor="middle" x="611.5" y="-674.8" font-family="Times,serif" font-size="14.00">3113</text>
</g>
<!-- O_Created&#45;&gt;W_Complete application -->
<g id="edge44" class="edge">
<title>O_Created&#45;&gt;W_Complete application</title>
<path fill="none" stroke="#ff0000" stroke-width="0.5" stroke-dasharray="5,2" d="M655.26,-643.02C701.09,-652.19 757.5,-673.19 757.5,-721 757.5,-897 757.5,-897 757.5,-897 757.5,-929.28 732.33,-949.31 701.59,-961.73"/>
<polygon fill="#ff0000" stroke="#ff0000" stroke-width="0.5" points="700.75,-958.31 692.6,-965.08 703.19,-964.87 700.75,-958.31"/>
<text text-anchor="middle" x="761" y="-805.3" font-family="Times,serif" font-size="14.00">6</text>
</g>
<!-- O_Created&#45;&gt;O_Create Offer -->
<g id="edge32" class="edge">
<title>O_Created&#45;&gt;O_Create Offer</title>
<path fill="none" stroke="#ff0000" stroke-width="0.61" stroke-dasharray="5,2" d="M612.68,-653.15C617.13,-658.63 621.79,-664.88 625.5,-671 629.82,-678.14 633.77,-686.28 637.1,-693.89"/>
<polygon fill="#ff0000" stroke="#ff0000" stroke-width="0.61" points="633.79,-695.05 640.86,-702.94 640.26,-692.36 633.79,-695.05"/>
<text text-anchor="middle" x="643" y="-674.8" font-family="Times,serif" font-size="14.00">184</text>
</g>
<!-- O_Created&#45;&gt;O_Sent (mail and online) -->
<g id="edge11" class="edge">
<title>O_Created&#45;&gt;O_Sent (mail and online)</title>
<path fill="none" stroke="#000000" stroke-width="2.23" d="M578.07,-616.8C564.63,-604.9 546.48,-588.83 531.23,-575.32"/>
<polygon fill="#000000" stroke="#000000" stroke-width="2.23" points="533.56,-572.72 523.76,-568.71 528.92,-577.96 533.56,-572.72"/>
<text text-anchor="middle" x="568.5" y="-587.8" font-family="Times,serif" font-size="14.00">2923</text>
</g>
<!-- O_Sent (mail and online)&#45;&gt;W_Complete application -->
<g id="edge12" class="edge">
<title>O_Sent (mail and online)&#45;&gt;W_Complete application</title>
<path fill="none" stroke="#000000" stroke-width="2.18" d="M475.04,-566.21C455.21,-581.39 431.5,-605.52 431.5,-634 431.5,-853.5 431.5,-853.5 431.5,-853.5 431.5,-881.68 432.72,-892.13 450.5,-914 467.22,-934.57 491.66,-949.33 515.52,-959.73"/>
<polygon fill="#000000" stroke="#000000" stroke-width="2.18" points="513.89,-962.85 524.47,-963.39 516.54,-956.37 513.89,-962.85"/>
<text text-anchor="middle" x="445.5" y="-761.8" font-family="Times,serif" font-size="14.00">2829</text>
</g>
<!-- O_Sent (mail and online)&#45;&gt;O_Sent (mail and online) -->
<g id="edge33" class="edge">
<title>O_Sent (mail and online)&#45;&gt;O_Sent (mail and online)</title>
<path fill="none" stroke="#ff0000" stroke-width="0.6" stroke-dasharray="5,2" d="M599.24,-554.86C610.03,-553.56 617,-551.27 617,-548 617,-546.01 614.41,-544.38 609.95,-543.12"/>
<polygon fill="#ff0000" stroke="#ff0000" stroke-width="0.6" points="610.61,-539.68 600.14,-541.3 609.34,-546.56 610.61,-539.68"/>
<text text-anchor="middle" x="627.5" y="-544.3" font-family="Times,serif" font-size="14.00">178</text>
</g>
<!-- O_Sent (mail and online)&#45;&gt;W_Call after offers -->
<g id="edge40" class="edge">
<title>O_Sent (mail and online)&#45;&gt;W_Call after offers</title>
<path fill="none" stroke="#ff0000" stroke-width="0.52" stroke-dasharray="5,2" d="M523.7,-529.54C539.15,-516.66 559.58,-498.12 574.5,-479 601.66,-444.18 606.91,-433.32 622.5,-392 631.91,-367.07 638.01,-337.25 641.55,-315.95"/>
<polygon fill="#ff0000" stroke="#ff0000" stroke-width="0.52" points="645,-316.56 643.09,-306.14 638.08,-315.48 645,-316.56"/>
<text text-anchor="middle" x="621.5" y="-413.8" font-family="Times,serif" font-size="14.00">37</text>
</g>
<!-- A_Cancelled -->
<g id="node13" class="node">
<title>A_Cancelled</title>
<polygon fill="#f3f3ff" stroke="black" points="565,-479 438,-479 438,-443 565,-443 565,-479"/>
<text text-anchor="middle" x="501.5" y="-457.3" font-family="Times,serif" font-size="14.00">A_Cancelled (2068)</text>
</g>
<!-- O_Sent (mail and online)&#45;&gt;A_Cancelled -->
<g id="edge39" class="edge">
<title>O_Sent (mail and online)&#45;&gt;A_Cancelled</title>
<path fill="none" stroke="#ff0000" stroke-width="0.53" stroke-dasharray="5,2" d="M501.5,-529.8C501.5,-518.35 501.5,-503.06 501.5,-489.89"/>
<polygon fill="#ff0000" stroke="#ff0000" stroke-width="0.53" points="505,-490.28 501.5,-480.28 498,-490.28 505,-490.28"/>
<text text-anchor="middle" x="508.5" y="-500.8" font-family="Times,serif" font-size="14.00">63</text>
</g>
<!-- W_Call after offers&#45;&gt;O_Create Offer -->
<g id="edge38" class="edge">
<title>W_Call after offers&#45;&gt;O_Create Offer</title>
<path fill="none" stroke="#ff0000" stroke-width="0.56" stroke-dasharray="5,2" d="M658.37,-305.23C669.39,-321.74 683.5,-347.78 683.5,-373 683.5,-636 683.5,-636 683.5,-636 683.5,-656.9 674.16,-678.56 664.99,-694.79"/>
<polygon fill="#ff0000" stroke="#ff0000" stroke-width="0.56" points="662.24,-692.57 660.12,-702.94 668.25,-696.16 662.24,-692.57"/>
<text text-anchor="middle" x="694" y="-500.8" font-family="Times,serif" font-size="14.00">100</text>
</g>
<!-- W_Call after offers&#45;&gt;W_Call after offers -->
<g id="edge14" class="edge">
<title>W_Call after offers&#45;&gt;W_Call after offers</title>
<path fill="none" stroke="#000000" stroke-width="6" d="M730.75,-294.1C741.45,-292.85 748.5,-290.48 748.5,-287 748.5,-285.91 747.81,-284.93 746.54,-284.06"/>
<polygon fill="#000000" stroke="#000000" stroke-width="6" points="748,-279.02 736.99,-281.54 745.32,-289.17 748,-279.02"/>
<text text-anchor="middle" x="762.5" y="-283.3" font-family="Times,serif" font-size="14.00">9267</text>
</g>
<!-- A_Complete -->
<g id="node12" class="node">
<title>A_Complete</title>
<polygon fill="#eeeeff" stroke="black" points="662.5,-218 536.5,-218 536.5,-182 662.5,-182 662.5,-218"/>
<text text-anchor="middle" x="599.5" y="-196.3" font-family="Times,serif" font-size="14.00">A_Complete (2829)</text>
</g>
<!-- W_Call after offers&#45;&gt;A_Complete -->
<g id="edge15" class="edge">
<title>W_Call after offers&#45;&gt;A_Complete</title>
<path fill="none" stroke="#000000" stroke-width="2.18" d="M639.88,-268.83C636.34,-258.95 631.34,-246.45 625.5,-236 624.17,-233.63 622.71,-231.23 621.16,-228.86"/>
<polygon fill="#000000" stroke="#000000" stroke-width="2.18" points="624.17,-227.06 615.55,-220.9 618.45,-231.09 624.17,-227.06"/>
<text text-anchor="middle" x="646.5" y="-239.8" font-family="Times,serif" font-size="14.00">2829</text>
</g>
<!-- W_Call after offers&#45;&gt;A_Cancelled -->
<g id="edge17" class="edge">
<title>W_Call after offers&#45;&gt;A_Cancelled</title>
<path fill="none" stroke="#000000" stroke-width="1.69" d="M632.28,-305.18C616.15,-326 587.87,-362.02 562.5,-392 550.66,-405.99 537.08,-421.2 525.75,-433.69"/>
<polygon fill="#000000" stroke="#000000" stroke-width="1.69" points="523.46,-431 519.3,-440.75 528.63,-435.72 523.46,-431"/>
<text text-anchor="middle" x="604.5" y="-370.3" font-family="Times,serif" font-size="14.00">2005</text>
</g>
<!-- W_Validate application -->
<g id="node15" class="node">
<title>W_Validate application</title>
<polygon fill="#ededff" stroke="black" points="441,-218 256,-218 256,-182 441,-182 441,-218"/>
<text text-anchor="middle" x="348.5" y="-196.3" font-family="Times,serif" font-size="14.00">W_Validate application (3090)</text>
</g>
<!-- W_Call after offers&#45;&gt;W_Validate application -->
<g id="edge23" class="edge">
<title>W_Call after offers&#45;&gt;W_Validate application</title>
<path fill="none" stroke="#000000" stroke-width="0.95" d="M605.01,-268.51C573.75,-255.08 534.51,-238.44 526.5,-236 502.86,-228.79 476.98,-222.71 452.47,-217.75"/>
<polygon fill="#000000" stroke="#000000" stroke-width="0.95" points="453.21,-214.33 442.72,-215.83 451.85,-221.2 453.21,-214.33"/>
<text text-anchor="middle" x="571" y="-239.8" font-family="Times,serif" font-size="14.00">761</text>
</g>
<!-- end_node -->
<g id="node22" class="node">
<title>end_node</title>
<ellipse fill="none" stroke="black" cx="592.5" cy="-109" rx="18" ry="18"/>
<ellipse fill="none" stroke="black" cx="592.5" cy="-109" rx="22" ry="22"/>
<text text-anchor="start" x="588" y="-105.3" font-family="Times,serif" font-size="14.00">■</text>
</g>
<!-- W_Call after offers&#45;&gt;end_node -->
<g id="edge46" class="edge">
<title>W_Call after offers&#45;&gt;end_node</title>
<path fill="none" stroke="#000000" stroke-width="1.72" d="M656.45,-268.85C668.44,-247.74 684.36,-211.11 671.5,-182 661.33,-158.98 639.77,-140.14 621.73,-127.52"/>
<polygon fill="#000000" stroke="#000000" stroke-width="1.72" points="623.81,-124.7 613.54,-122.09 619.94,-130.53 623.81,-124.7"/>
<text text-anchor="middle" x="689.5" y="-196.3" font-family="Times,serif" font-size="14.00">2068</text>
</g>
<!-- A_Complete&#45;&gt;W_Call after offers -->
<g id="edge16" class="edge">
<title>A_Complete&#45;&gt;W_Call after offers</title>
<path fill="none" stroke="#000000" stroke-width="2.18" d="M592.69,-218.12C589.79,-228.23 588.16,-240.97 593.5,-251 595.19,-254.18 597.31,-257.12 599.73,-259.83"/>
<polygon fill="#000000" stroke="#000000" stroke-width="2.18" points="597.29,-262.34 607.05,-266.46 601.98,-257.15 597.29,-262.34"/>
<text text-anchor="middle" x="607.5" y="-239.8" font-family="Times,serif" font-size="14.00">2829</text>
</g>
<!-- O_Cancelled -->
<g id="node14" class="node">
<title>O_Cancelled</title>
<polygon fill="#f1f1ff" stroke="black" points="514,-392 387,-392 387,-356 514,-356 514,-392"/>
<text text-anchor="middle" x="450.5" y="-370.3" font-family="Times,serif" font-size="14.00">O_Cancelled (2352)</text>
</g>
<!-- A_Cancelled&#45;&gt;O_Cancelled -->
<g id="edge18" class="edge">
<title>A_Cancelled&#45;&gt;O_Cancelled</title>
<path fill="none" stroke="#000000" stroke-width="1.72" d="M491.18,-442.8C484.31,-431.35 475.14,-416.06 467.24,-402.89"/>
<polygon fill="#000000" stroke="#000000" stroke-width="1.72" points="470.47,-401.48 462.32,-394.71 464.47,-405.08 470.47,-401.48"/>
<text text-anchor="middle" x="493.5" y="-413.8" font-family="Times,serif" font-size="14.00">2068</text>
</g>
<!-- O_Cancelled&#45;&gt;W_Call after offers -->
<g id="edge19" class="edge">
<title>O_Cancelled&#45;&gt;W_Call after offers</title>
<path fill="none" stroke="#000000" stroke-width="1.72" d="M486.85,-355.65C498.04,-350.15 510.35,-343.96 521.5,-338 533.27,-331.71 535.39,-328.6 547.5,-323 557.68,-318.29 568.68,-313.81 579.5,-309.72"/>
<polygon fill="#000000" stroke="#000000" stroke-width="1.72" points="580.51,-313.08 588.69,-306.35 578.1,-306.51 580.51,-313.08"/>
<text text-anchor="middle" x="561.5" y="-326.8" font-family="Times,serif" font-size="14.00">2068</text>
</g>
<!-- O_Cancelled&#45;&gt;O_Cancelled -->
<g id="edge34" class="edge">
<title>O_Cancelled&#45;&gt;O_Cancelled</title>
<path fill="none" stroke="#ff0000" stroke-width="0.65" stroke-dasharray="5,2" d="M514.4,-381.55C524.83,-380.47 532,-377.95 532,-374 532,-371.59 529.34,-369.72 524.9,-368.38"/>
<polygon fill="#ff0000" stroke="#ff0000" stroke-width="0.65" points="525.83,-364.99 515.36,-366.63 524.57,-371.87 525.83,-364.99"/>
<text text-anchor="middle" x="542.5" y="-370.3" font-family="Times,serif" font-size="14.00">255</text>
</g>
<!-- O_Cancelled&#45;&gt;end_node -->
<g id="edge48" class="edge">
<title>O_Cancelled&#45;&gt;end_node</title>
<path fill="none" stroke="#ff0000" stroke-width="0.51" stroke-dasharray="5,2" d="M455.24,-355.7C465.21,-320.99 490.54,-241.11 527.5,-182 539.07,-163.5 555.58,-145.28 569.06,-131.8"/>
<polygon fill="#ff0000" stroke="#ff0000" stroke-width="0.51" points="571.33,-134.48 576.04,-124.99 566.44,-129.47 571.33,-134.48"/>
<text text-anchor="middle" x="504.5" y="-239.8" font-family="Times,serif" font-size="14.00">29</text>
</g>
<!-- W_Validate application&#45;&gt;O_Cancelled -->
<g id="edge43" class="edge">
<title>W_Validate application&#45;&gt;O_Cancelled</title>
<path fill="none" stroke="#ff0000" stroke-width="0.51" stroke-dasharray="5,2" d="M358.87,-218.48C376.83,-248.78 413.84,-311.19 434.92,-346.72"/>
<polygon fill="#ff0000" stroke="#ff0000" stroke-width="0.51" points="431.65,-348.08 439.76,-354.89 437.67,-344.51 431.65,-348.08"/>
<text text-anchor="middle" x="417.5" y="-283.3" font-family="Times,serif" font-size="14.00">29</text>
</g>
<!-- W_Validate application&#45;&gt;W_Validate application -->
<g id="edge24" class="edge">
<title>W_Validate application&#45;&gt;W_Validate application</title>
<path fill="none" stroke="#000000" stroke-width="0.98" d="M441.2,-206.96C451.98,-205.68 459,-203.36 459,-200 459,-198.01 456.53,-196.38 452.26,-195.12"/>
<polygon fill="#000000" stroke="#000000" stroke-width="0.98" points="453.13,-191.72 442.65,-193.31 451.83,-198.6 453.13,-191.72"/>
<text text-anchor="middle" x="469.5" y="-196.3" font-family="Times,serif" font-size="14.00">807</text>
</g>
<!-- A_Validating -->
<g id="node16" class="node">
<title>A_Validating</title>
<polygon fill="#fbfbff" stroke="black" points="302.5,-127 180.5,-127 180.5,-91 302.5,-91 302.5,-127"/>
<text text-anchor="middle" x="241.5" y="-105.3" font-family="Times,serif" font-size="14.00">A_Validating (761)</text>
</g>
<!-- W_Validate application&#45;&gt;A_Validating -->
<g id="edge25" class="edge">
<title>W_Validate application&#45;&gt;A_Validating</title>
<path fill="none" stroke="#000000" stroke-width="0.95" d="M325.87,-181.8C318.66,-176.2 310.68,-169.91 303.5,-164 292.14,-154.64 279.87,-144.06 269.27,-134.76"/>
<polygon fill="#000000" stroke="#000000" stroke-width="0.95" points="271.7,-132.24 261.89,-128.25 267.07,-137.49 271.7,-132.24"/>
<text text-anchor="middle" x="314" y="-152.8" font-family="Times,serif" font-size="14.00">761</text>
</g>
<!-- O_Accepted -->
<g id="node18" class="node">
<title>O_Accepted</title>
<polygon fill="#fbfbff" stroke="black" points="552,-127 435,-127 435,-91 552,-91 552,-127"/>
<text text-anchor="middle" x="493.5" y="-105.3" font-family="Times,serif" font-size="14.00">O_Accepted (642)</text>
</g>
<!-- W_Validate application&#45;&gt;O_Accepted -->
<g id="edge28" class="edge">
<title>W_Validate application&#45;&gt;O_Accepted</title>
<path fill="none" stroke="#000000" stroke-width="0.88" d="M377.83,-181.57C387.05,-176.02 397.24,-169.81 406.5,-164 416.84,-157.51 419.18,-155.51 429.5,-149 437.65,-143.86 446.44,-138.43 454.81,-133.31"/>
<polygon fill="#000000" stroke="#000000" stroke-width="0.88" points="456.54,-136.36 463.26,-128.17 452.9,-130.38 456.54,-136.36"/>
<text text-anchor="middle" x="440" y="-152.8" font-family="Times,serif" font-size="14.00">642</text>
</g>
<!-- A_Denied -->
<g id="node20" class="node">
<title>A_Denied</title>
<polygon fill="#ffffff" stroke="black" points="105,-127 0,-127 0,-91 105,-91 105,-127"/>
<text text-anchor="middle" x="52.5" y="-105.3" font-family="Times,serif" font-size="14.00">A_Denied (119)</text>
</g>
<!-- W_Validate application&#45;&gt;A_Denied -->
<g id="edge35" class="edge">
<title>W_Validate application&#45;&gt;A_Denied</title>
<path fill="none" stroke="#ff0000" stroke-width="0.57" stroke-dasharray="5,2" d="M255.53,-191.63C198.75,-185.97 132.26,-176.91 106.5,-164 93.13,-157.3 81.05,-146.01 71.73,-135.49"/>
<polygon fill="#ff0000" stroke="#ff0000" stroke-width="0.57" points="74.53,-133.38 65.42,-127.97 69.16,-137.88 74.53,-133.38"/>
<text text-anchor="middle" x="117" y="-152.8" font-family="Times,serif" font-size="14.00">119</text>
</g>
<!-- W_Validate application&#45;&gt;end_node -->
<g id="edge47" class="edge">
<title>W_Validate application&#45;&gt;end_node</title>
<path fill="none" stroke="#000000" stroke-width="0.93" d="M407.49,-181.53C421.85,-176.53 436.96,-170.61 450.5,-164 461.47,-158.65 462.21,-153.64 473.5,-149 510.43,-133.83 524.71,-146.49 561.5,-131 563,-130.37 564.5,-129.66 565.99,-128.9"/>
<polygon fill="#000000" stroke="#000000" stroke-width="0.93" points="567.46,-132.1 574.27,-123.99 563.89,-126.07 567.46,-132.1"/>
<text text-anchor="middle" x="484" y="-152.8" font-family="Times,serif" font-size="14.00">732</text>
</g>
<!-- O_Returned -->
<g id="node17" class="node">
<title>O_Returned</title>
<polygon fill="#fbfbff" stroke="black" points="333.5,-36 217.5,-36 217.5,0 333.5,0 333.5,-36"/>
<text text-anchor="middle" x="275.5" y="-14.3" font-family="Times,serif" font-size="14.00">O_Returned (761)</text>
</g>
<!-- A_Validating&#45;&gt;O_Returned -->
<g id="edge26" class="edge">
<title>A_Validating&#45;&gt;O_Returned</title>
<path fill="none" stroke="#000000" stroke-width="0.95" d="M248.06,-90.84C252.82,-78.36 259.38,-61.2 264.89,-46.78"/>
<polygon fill="#000000" stroke="#000000" stroke-width="0.95" points="268.04,-48.34 268.34,-37.75 261.5,-45.84 268.04,-48.34"/>
<text text-anchor="middle" x="273" y="-57.8" font-family="Times,serif" font-size="14.00">761</text>
</g>
<!-- O_Returned&#45;&gt;W_Validate application -->
<g id="edge27" class="edge">
<title>O_Returned&#45;&gt;W_Validate application</title>
<path fill="none" stroke="#000000" stroke-width="0.95" d="M285.81,-36.5C293.51,-50 303.96,-69.31 311.5,-87 323.39,-114.88 333.89,-147.96 340.65,-170.9"/>
<polygon fill="#000000" stroke="#000000" stroke-width="0.95" points="337.2,-171.58 343.34,-180.21 343.92,-169.63 337.2,-171.58"/>
<text text-anchor="middle" x="339" y="-105.3" font-family="Times,serif" font-size="14.00">761</text>
</g>
<!-- A_Pending -->
<g id="node19" class="node">
<title>A_Pending</title>
<polygon fill="#fbfbff" stroke="black" points="488.5,-36 378.5,-36 378.5,0 488.5,0 488.5,-36"/>
<text text-anchor="middle" x="433.5" y="-14.3" font-family="Times,serif" font-size="14.00">A_Pending (642)</text>
</g>
<!-- O_Accepted&#45;&gt;A_Pending -->
<g id="edge29" class="edge">
<title>O_Accepted&#45;&gt;A_Pending</title>
<path fill="none" stroke="#000000" stroke-width="0.88" d="M481.93,-90.84C473.27,-77.99 461.27,-60.19 451.38,-45.52"/>
<polygon fill="#000000" stroke="#000000" stroke-width="0.88" points="454.47,-43.85 445.98,-37.51 448.67,-47.76 454.47,-43.85"/>
<text text-anchor="middle" x="478" y="-57.8" font-family="Times,serif" font-size="14.00">642</text>
</g>
<!-- A_Pending&#45;&gt;W_Validate application -->
<g id="edge30" class="edge">
<title>A_Pending&#45;&gt;W_Validate application</title>
<path fill="none" stroke="#000000" stroke-width="0.88" d="M425.25,-36.47C410.43,-67.86 379.18,-134.02 361.47,-171.53"/>
<polygon fill="#000000" stroke="#000000" stroke-width="0.88" points="358.32,-170 357.22,-180.54 364.65,-172.99 358.32,-170"/>
<text text-anchor="middle" x="412" y="-105.3" font-family="Times,serif" font-size="14.00">642</text>
</g>
<!-- O_Refused -->
<g id="node21" class="node">
<title>O_Refused</title>
<polygon fill="#ffffff" stroke="black" points="184.5,-36 74.5,-36 74.5,0 184.5,0 184.5,-36"/>
<text text-anchor="middle" x="129.5" y="-14.3" font-family="Times,serif" font-size="14.00">O_Refused (119)</text>
</g>
<!-- A_Denied&#45;&gt;O_Refused -->
<g id="edge36" class="edge">
<title>A_Denied&#45;&gt;O_Refused</title>
<path fill="none" stroke="#ff0000" stroke-width="0.57" stroke-dasharray="5,2" d="M67.35,-90.84C78.78,-77.63 94.75,-59.17 107.64,-44.27"/>
<polygon fill="#ff0000" stroke="#ff0000" stroke-width="0.57" points="109.98,-46.91 113.87,-37.06 104.69,-42.33 109.98,-46.91"/>
<text text-anchor="middle" x="109" y="-57.8" font-family="Times,serif" font-size="14.00">119</text>
</g>
<!-- O_Refused&#45;&gt;W_Validate application -->
<g id="edge37" class="edge">
<title>O_Refused&#45;&gt;W_Validate application</title>
<path fill="none" stroke="#ff0000" stroke-width="0.57" stroke-dasharray="5,2" d="M127.75,-36.44C126.32,-60.62 127.48,-104.36 150.5,-131 174.56,-158.85 210.57,-175.3 245.3,-185.02"/>
<polygon fill="#ff0000" stroke="#ff0000" stroke-width="0.57" points="244.14,-188.34 254.71,-187.49 245.92,-181.57 244.14,-188.34"/>
<text text-anchor="middle" x="161" y="-105.3" font-family="Times,serif" font-size="14.00">119</text>
</g>
</g>
</svg>
