<?xml version="1.0" encoding="UTF-8" standalone="no"?>
<!DOCTYPE svg PUBLIC "-//W3C//DTD SVG 1.1//EN"
 "http://www.w3.org/Graphics/SVG/1.1/DTD/svg11.dtd">
<!-- Generated by graphviz version 7.0.5 (0)
 -->
<!-- Title: dfg Pages: 1 -->
<svg width="1098pt" height="1444pt"
 viewBox="0.00 0.00 1098.00 1444.00" xmlns="http://www.w3.org/2000/svg" xmlns:xlink="http://www.w3.org/1999/xlink">
<g id="graph0" class="graph" transform="scale(1 1) rotate(0) translate(4 1440)">
<title>dfg</title>
<polygon fill="white" stroke="none" points="-4,4 -4,-1440 1094,-1440 1094,4 -4,4"/>
<!-- start_node -->
<g id="node1" class="node">
<title>start_node</title>
<ellipse fill="none" stroke="black" cx="254" cy="-1418" rx="18" ry="18"/>
<text text-anchor="start" x="249.5" y="-1414.3" font-family="Times,serif" font-size="14.00">●</text>
</g>
<!-- A_Create Application -->
<g id="node2" class="node">
<title>A_Create Application</title>
<polygon fill="#eeeeff" stroke="black" points="341.5,-1349 166.5,-1349 166.5,-1313 341.5,-1313 341.5,-1349"/>
<text text-anchor="middle" x="254" y="-1327.3" font-family="Times,serif" font-size="14.00">A_Create Application (3245)</text>
</g>
<!-- start_node&#45;&gt;A_Create Application -->
<g id="edge1" class="edge">
<title>start_node&#45;&gt;A_Create Application</title>
<path fill="none" stroke="#000000" stroke-width="2.16" d="M254,-1399.8C254,-1389.15 254,-1375.18 254,-1362.69"/>
<polygon fill="#000000" stroke="#000000" stroke-width="2.16" points="257.5,-1362.73 254,-1352.73 250.5,-1362.73 257.5,-1362.73"/>
<text text-anchor="middle" x="268" y="-1370.8" font-family="Times,serif" font-size="14.00">3245</text>
</g>
<!-- A_Submitted -->
<g id="node3" class="node">
<title>A_Submitted</title>
<polygon fill="#f3f3ff" stroke="black" points="318.5,-1262 189.5,-1262 189.5,-1226 318.5,-1226 318.5,-1262"/>
<text text-anchor="middle" x="254" y="-1240.3" font-family="Times,serif" font-size="14.00">A_Submitted (2195)</text>
</g>
<!-- A_Create Application&#45;&gt;A_Submitted -->
<g id="edge2" class="edge">
<title>A_Create Application&#45;&gt;A_Submitted</title>
<path fill="none" stroke="#000000" stroke-width="1.62" d="M254,-1312.8C254,-1301.93 254,-1287.58 254,-1274.88"/>
<polygon fill="#000000" stroke="#000000" stroke-width="1.62" points="257.5,-1274.92 254,-1264.92 250.5,-1274.92 257.5,-1274.92"/>
<text text-anchor="middle" x="268" y="-1283.8" font-family="Times,serif" font-size="14.00">2195</text>
</g>
<!-- W_Complete application -->
<g id="node5" class="node">
<title>W_Complete application</title>
<polygon fill="#b5b5ff" stroke="black" points="446,-1088 246,-1088 246,-1052 446,-1052 446,-1088"/>
<text text-anchor="middle" x="346" y="-1066.3" font-family="Times,serif" font-size="14.00">W_Complete application (14333)</text>
</g>
<!-- A_Create Application&#45;&gt;W_Complete application -->
<g id="edge20" class="edge">
<title>A_Create Application&#45;&gt;W_Complete application</title>
<path fill="none" stroke="#000000" stroke-width="0.8" d="M277.06,-1312.65C308.97,-1286.88 364.62,-1235 382,-1175 389.67,-1148.5 377.24,-1118.82 364.94,-1097.96"/>
<polygon fill="#000000" stroke="#000000" stroke-width="0.8" points="367.92,-1096.13 359.65,-1089.52 361.99,-1099.85 367.92,-1096.13"/>
<text text-anchor="middle" x="385.5" y="-1196.8" font-family="Times,serif" font-size="14.00">594</text>
</g>
<!-- A_Concept -->
<g id="node6" class="node">
<title>A_Concept</title>
<polygon fill="#eeeeff" stroke="black" points="232,-1001 114,-1001 114,-965 232,-965 232,-1001"/>
<text text-anchor="middle" x="173" y="-979.3" font-family="Times,serif" font-size="14.00">A_Concept (3245)</text>
</g>
<!-- A_Create Application&#45;&gt;A_Concept -->
<g id="edge31" class="edge">
<title>A_Create Application&#45;&gt;A_Concept</title>
<path fill="none" stroke="#ff0000" stroke-width="0.73" stroke-dasharray="5,2" d="M200.81,-1312.6C171.5,-1299.32 141,-1277.65 141,-1245 141,-1245 141,-1245 141,-1069 141,-1048.5 149.25,-1026.9 157.38,-1010.6"/>
<polygon fill="#ff0000" stroke="#ff0000" stroke-width="0.73" points="160.25,-1012.65 161.83,-1002.18 154.06,-1009.38 160.25,-1012.65"/>
<text text-anchor="middle" x="151.5" y="-1153.3" font-family="Times,serif" font-size="14.00">456</text>
</g>
<!-- W_Handle leads -->
<g id="node4" class="node">
<title>W_Handle leads</title>
<polygon fill="#e7e7ff" stroke="black" points="327.5,-1175 180.5,-1175 180.5,-1139 327.5,-1139 327.5,-1175"/>
<text text-anchor="middle" x="254" y="-1153.3" font-family="Times,serif" font-size="14.00">W_Handle leads (4685)</text>
</g>
<!-- A_Submitted&#45;&gt;W_Handle leads -->
<g id="edge3" class="edge">
<title>A_Submitted&#45;&gt;W_Handle leads</title>
<path fill="none" stroke="#000000" stroke-width="1.62" d="M254,-1225.8C254,-1214.93 254,-1200.58 254,-1187.88"/>
<polygon fill="#000000" stroke="#000000" stroke-width="1.62" points="257.5,-1187.92 254,-1177.92 250.5,-1187.92 257.5,-1187.92"/>
<text text-anchor="middle" x="268" y="-1196.8" font-family="Times,serif" font-size="14.00">2195</text>
</g>
<!-- W_Handle leads&#45;&gt;W_Handle leads -->
<g id="edge4" class="edge">
<title>W_Handle leads&#45;&gt;W_Handle leads</title>
<path fill="none" stroke="#000000" stroke-width="1.77" d="M327.96,-1164.32C338.45,-1163.14 345.5,-1160.7 345.5,-1157 345.5,-1155.04 343.51,-1153.43 340.07,-1152.17"/>
<polygon fill="#000000" stroke="#000000" stroke-width="1.77" points="341.08,-1148.81 330.58,-1150.22 339.67,-1155.66 341.08,-1148.81"/>
<text text-anchor="middle" x="359.5" y="-1153.3" font-family="Times,serif" font-size="14.00">2490</text>
</g>
<!-- W_Handle leads&#45;&gt;W_Complete application -->
<g id="edge5" class="edge">
<title>W_Handle leads&#45;&gt;W_Complete application</title>
<path fill="none" stroke="#000000" stroke-width="1.62" d="M272.62,-1138.8C285.75,-1126.67 303.56,-1110.21 318.35,-1096.55"/>
<polygon fill="#000000" stroke="#000000" stroke-width="1.62" points="320.32,-1099.49 325.29,-1090.13 315.57,-1094.35 320.32,-1099.49"/>
<text text-anchor="middle" x="320" y="-1109.8" font-family="Times,serif" font-size="14.00">2195</text>
</g>
<!-- W_Complete application&#45;&gt;W_Complete application -->
<g id="edge21" class="edge">
<title>W_Complete application&#45;&gt;W_Complete application</title>
<path fill="none" stroke="#000000" stroke-width="3.42" d="M446.29,-1076.81C457.07,-1075.5 464,-1073.23 464,-1070 464,-1068.69 462.86,-1067.54 460.77,-1066.54"/>
<polygon fill="#000000" stroke="#000000" stroke-width="3.42" points="461.87,-1063.2 451.34,-1064.36 460.29,-1070.02 461.87,-1063.2"/>
<text text-anchor="middle" x="478" y="-1066.3" font-family="Times,serif" font-size="14.00">5729</text>
</g>
<!-- W_Complete application&#45;&gt;A_Concept -->
<g id="edge6" class="edge">
<title>W_Complete application&#45;&gt;A_Concept</title>
<path fill="none" stroke="#000000" stroke-width="1.92" d="M245.67,-1059.03C214.19,-1053.72 185.01,-1045.78 175,-1034 170.29,-1028.46 168.45,-1021.19 168.1,-1013.92"/>
<polygon fill="#000000" stroke="#000000" stroke-width="1.92" points="171.58,-1014.28 168.63,-1004.11 164.59,-1013.9 171.58,-1014.28"/>
<text text-anchor="middle" x="189" y="-1022.8" font-family="Times,serif" font-size="14.00">2789</text>
</g>
<!-- A_Accepted -->
<g id="node7" class="node">
<title>A_Accepted</title>
<polygon fill="#eeeeff" stroke="black" points="275,-914 151,-914 151,-878 275,-878 275,-914"/>
<text text-anchor="middle" x="213" y="-892.3" font-family="Times,serif" font-size="14.00">A_Accepted (3245)</text>
</g>
<!-- W_Complete application&#45;&gt;A_Accepted -->
<g id="edge8" class="edge">
<title>W_Complete application&#45;&gt;A_Accepted</title>
<path fill="none" stroke="#000000" stroke-width="1.76" d="M341.88,-1051.74C334.36,-1023.51 315.96,-967.08 282,-932 278.11,-927.98 273.66,-924.35 268.94,-921.07"/>
<polygon fill="#000000" stroke="#000000" stroke-width="1.76" points="270.88,-918.16 260.53,-915.88 267.2,-924.11 270.88,-918.16"/>
<text text-anchor="middle" x="338" y="-979.3" font-family="Times,serif" font-size="14.00">2464</text>
</g>
<!-- O_Create Offer -->
<g id="node8" class="node">
<title>O_Create Offer</title>
<polygon fill="#ececff" stroke="black" points="246.5,-827 105.5,-827 105.5,-791 246.5,-791 246.5,-827"/>
<text text-anchor="middle" x="176" y="-805.3" font-family="Times,serif" font-size="14.00">O_Create Offer (3655)</text>
</g>
<!-- W_Complete application&#45;&gt;O_Create Offer -->
<g id="edge42" class="edge">
<title>W_Complete application&#45;&gt;O_Create Offer</title>
<path fill="none" stroke="#ff0000" stroke-width="0.54" stroke-dasharray="5,2" d="M245.71,-1054.78C186.38,-1043.85 119.96,-1026.31 105,-1001 72.36,-945.79 121.55,-872.99 153.05,-835.2"/>
<polygon fill="#ff0000" stroke="#ff0000" stroke-width="0.54" points="155.47,-837.75 159.31,-827.88 150.15,-833.2 155.47,-837.75"/>
<text text-anchor="middle" x="105" y="-935.8" font-family="Times,serif" font-size="14.00">91</text>
</g>
<!-- O_Sent (mail and online) -->
<g id="node10" class="node">
<title>O_Sent (mail and online)</title>
<polygon fill="#ececff" stroke="black" points="318.5,-40 123.5,-40 123.5,-4 318.5,-4 318.5,-40"/>
<text text-anchor="middle" x="221" y="-18.3" font-family="Times,serif" font-size="14.00">O_Sent (mail and online) (3629)</text>
</g>
<!-- W_Complete application&#45;&gt;O_Sent (mail and online) -->
<g id="edge45" class="edge">
<title>W_Complete application&#45;&gt;O_Sent (mail and online)</title>
<path fill="none" stroke="#ff0000" stroke-width="0.51" stroke-dasharray="5,2" d="M446.15,-1056.37C522.99,-1043.78 616,-1020.92 616,-984 616,-984 616,-984 616,-460 616,-401.98 593,-389.52 593,-331.5 593,-331.5 593,-331.5 593,-199 593,-132.53 587.7,-99.77 533,-62 500.66,-39.67 406.01,-30.12 329.37,-26.04"/>
<polygon fill="#ff0000" stroke="#ff0000" stroke-width="0.51" points="329.61,-22.55 319.44,-25.54 329.26,-29.54 329.61,-22.55"/>
<text text-anchor="middle" x="623" y="-544.3" font-family="Times,serif" font-size="14.00">15</text>
</g>
<!-- W_Call after offers -->
<g id="node11" class="node">
<title>W_Call after offers</title>
<polygon fill="#9b9bff" stroke="black" points="498,-479 328,-479 328,-443 498,-443 498,-479"/>
<text text-anchor="middle" x="413" y="-457.3" font-family="Times,serif" font-size="14.00">W_Call after offers (19576)</text>
</g>
<!-- W_Complete application&#45;&gt;W_Call after offers -->
<g id="edge13" class="edge">
<title>W_Complete application&#45;&gt;W_Call after offers</title>
<path fill="none" stroke="#000000" stroke-width="2.15" d="M394.04,-1051.63C422.08,-1038.06 452,-1016.08 452,-984 452,-984 452,-984 452,-547 452,-526.82 442.8,-506.19 433.34,-490.31"/>
<polygon fill="#000000" stroke="#000000" stroke-width="2.15" points="436.31,-488.45 427.96,-481.92 430.41,-492.23 436.31,-488.45"/>
<text text-anchor="middle" x="466" y="-761.8" font-family="Times,serif" font-size="14.00">3239</text>
</g>
<!-- end_node -->
<g id="node23" class="node">
<title>end_node</title>
<ellipse fill="none" stroke="black" cx="607" cy="-22" rx="18" ry="18"/>
<ellipse fill="none" stroke="black" cx="607" cy="-22" rx="22" ry="22"/>
<text text-anchor="start" x="602.5" y="-18.3" font-family="Times,serif" font-size="14.00">■</text>
</g>
<!-- W_Complete application&#45;&gt;end_node -->
<g id="edge64" class="edge">
<title>W_Complete application&#45;&gt;end_node</title>
<path fill="none" stroke="#ff0000" stroke-width="0.5" stroke-dasharray="5,2" d="M446.37,-1061.6C540.22,-1051.83 666,-1030.13 666,-984 666,-984 666,-984 666,-590.5 666,-536.75 623.59,-166.21 610.68,-54.69"/>
<polygon fill="#ff0000" stroke="#ff0000" stroke-width="0.5" points="614.18,-54.42 609.55,-44.89 607.22,-55.23 614.18,-54.42"/>
<text text-anchor="middle" x="667.5" y="-544.3" font-family="Times,serif" font-size="14.00">6</text>
</g>
<!-- A_Concept&#45;&gt;W_Complete application -->
<g id="edge7" class="edge">
<title>A_Concept&#45;&gt;W_Complete application</title>
<path fill="none" stroke="#000000" stroke-width="1.76" d="M187.18,-1001.02C197.05,-1011.87 211.07,-1025.45 226,-1034 234.93,-1039.12 244.68,-1043.54 254.62,-1047.35"/>
<polygon fill="#000000" stroke="#000000" stroke-width="1.76" points="253.26,-1050.57 263.85,-1050.65 255.61,-1043.98 253.26,-1050.57"/>
<text text-anchor="middle" x="240" y="-1022.8" font-family="Times,serif" font-size="14.00">2464</text>
</g>
<!-- A_Concept&#45;&gt;A_Accepted -->
<g id="edge22" class="edge">
<title>A_Concept&#45;&gt;A_Accepted</title>
<path fill="none" stroke="#000000" stroke-width="0.9" d="M181.09,-964.8C186.53,-953.24 193.82,-937.75 200.06,-924.5"/>
<polygon fill="#000000" stroke="#000000" stroke-width="0.9" points="203.11,-926.23 204.2,-915.7 196.78,-923.25 203.11,-926.23"/>
<text text-anchor="middle" x="206.5" y="-935.8" font-family="Times,serif" font-size="14.00">781</text>
</g>
<!-- A_Accepted&#45;&gt;W_Complete application -->
<g id="edge41" class="edge">
<title>A_Accepted&#45;&gt;W_Complete application</title>
<path fill="none" stroke="#ff0000" stroke-width="0.54" stroke-dasharray="5,2" d="M225.27,-914.13C240.25,-934.92 266.49,-970.9 290,-1001 301.09,-1015.2 313.83,-1030.73 324.36,-1043.36"/>
<polygon fill="#ff0000" stroke="#ff0000" stroke-width="0.54" points="321.61,-1045.53 330.72,-1050.96 326.98,-1041.04 321.61,-1045.53"/>
<text text-anchor="middle" x="297" y="-979.3" font-family="Times,serif" font-size="14.00">91</text>
</g>
<!-- A_Accepted&#45;&gt;O_Create Offer -->
<g id="edge9" class="edge">
<title>A_Accepted&#45;&gt;O_Create Offer</title>
<path fill="none" stroke="#000000" stroke-width="2.11" d="M205.51,-877.8C200.73,-866.81 194.4,-852.28 188.83,-839.48"/>
<polygon fill="#000000" stroke="#000000" stroke-width="2.11" points="192.08,-838.17 184.88,-830.39 185.66,-840.96 192.08,-838.17"/>
<text text-anchor="middle" x="211" y="-848.8" font-family="Times,serif" font-size="14.00">3154</text>
</g>
<!-- O_Created -->
<g id="node9" class="node">
<title>O_Created</title>
<polygon fill="#ececff" stroke="black" points="229.5,-740 114.5,-740 114.5,-704 229.5,-704 229.5,-740"/>
<text text-anchor="middle" x="172" y="-718.3" font-family="Times,serif" font-size="14.00">O_Created (3655)</text>
</g>
<!-- O_Create Offer&#45;&gt;O_Created -->
<g id="edge10" class="edge">
<title>O_Create Offer&#45;&gt;O_Created</title>
<path fill="none" stroke="#000000" stroke-width="2.36" d="M176.48,-790.86C176.63,-781.2 176.62,-768.92 176,-758 175.92,-756.65 175.83,-755.28 175.72,-753.9"/>
<polygon fill="#000000" stroke="#000000" stroke-width="2.36" points="179.21,-753.58 174.74,-743.98 172.24,-754.27 179.21,-753.58"/>
<text text-anchor="middle" x="191" y="-761.8" font-family="Times,serif" font-size="14.00">3655</text>
</g>
<!-- O_Created&#45;&gt;W_Complete application -->
<g id="edge44" class="edge">
<title>O_Created&#45;&gt;W_Complete application</title>
<path fill="none" stroke="#ff0000" stroke-width="0.51" stroke-dasharray="5,2" d="M197.65,-740.27C215.19,-752.93 238.22,-771.28 255,-791 312.96,-859.09 332.76,-878.66 356,-965 362.83,-990.36 358.73,-1020.29 353.89,-1041.52"/>
<polygon fill="#ff0000" stroke="#ff0000" stroke-width="0.51" points="350.55,-1040.46 351.53,-1051.01 357.34,-1042.15 350.55,-1040.46"/>
<text text-anchor="middle" x="347" y="-892.3" font-family="Times,serif" font-size="14.00">15</text>
</g>
<!-- O_Created&#45;&gt;O_Create Offer -->
<g id="edge32" class="edge">
<title>O_Created&#45;&gt;O_Create Offer</title>
<path fill="none" stroke="#ff0000" stroke-width="0.62" stroke-dasharray="5,2" d="M158.17,-740.3C152.25,-749.8 147.44,-761.88 151,-773 151.94,-775.93 153.23,-778.83 154.72,-781.63"/>
<polygon fill="#ff0000" stroke="#ff0000" stroke-width="0.62" points="151.62,-783.27 159.92,-789.85 157.54,-779.53 151.62,-783.27"/>
<text text-anchor="middle" x="161.5" y="-761.8" font-family="Times,serif" font-size="14.00">244</text>
</g>
<!-- O_Created&#45;&gt;O_Sent (mail and online) -->
<g id="edge11" class="edge">
<title>O_Created&#45;&gt;O_Sent (mail and online)</title>
<path fill="none" stroke="#000000" stroke-width="2.22" d="M162.11,-703.79C132.41,-650.41 46,-482.17 46,-331.5 46,-331.5 46,-331.5 46,-112 46,-76.1 75.63,-54.67 110.5,-41.89"/>
<polygon fill="#000000" stroke="#000000" stroke-width="2.22" points="111.44,-45.26 119.82,-38.78 109.23,-38.62 111.44,-45.26"/>
<text text-anchor="middle" x="64" y="-370.3" font-family="Times,serif" font-size="14.00">3376</text>
</g>
<!-- A_Cancelled -->
<g id="node13" class="node">
<title>A_Cancelled</title>
<polygon fill="#f3f3ff" stroke="black" points="328.5,-566 201.5,-566 201.5,-530 328.5,-530 328.5,-566"/>
<text text-anchor="middle" x="265" y="-544.3" font-family="Times,serif" font-size="14.00">A_Cancelled (2264)</text>
</g>
<!-- O_Created&#45;&gt;A_Cancelled -->
<g id="edge57" class="edge">
<title>O_Created&#45;&gt;A_Cancelled</title>
<path fill="none" stroke="#ff0000" stroke-width="0.5" stroke-dasharray="5,2" d="M169.55,-703.65C167.34,-682.01 166.38,-644.53 181,-617 190.73,-598.68 207.72,-583.51 223.88,-572.18"/>
<polygon fill="#ff0000" stroke="#ff0000" stroke-width="0.5" points="225.71,-575.16 232.09,-566.7 221.83,-569.34 225.71,-575.16"/>
<text text-anchor="middle" x="184.5" y="-631.3" font-family="Times,serif" font-size="14.00">6</text>
</g>
<!-- O_Cancelled -->
<g id="node14" class="node">
<title>O_Cancelled</title>
<polygon fill="#f1f1ff" stroke="black" points="473.5,-131 346.5,-131 346.5,-95 473.5,-95 473.5,-131"/>
<text text-anchor="middle" x="410" y="-109.3" font-family="Times,serif" font-size="14.00">O_Cancelled (2666)</text>
</g>
<!-- O_Created&#45;&gt;O_Cancelled -->
<g id="edge55" class="edge">
<title>O_Created&#45;&gt;O_Cancelled</title>
<path fill="none" stroke="#ff0000" stroke-width="0.5" stroke-dasharray="5,2" d="M167.17,-703.56C146.01,-625.48 65.17,-308.62 126,-236 179.07,-172.65 271.07,-141.37 335.96,-126.5"/>
<polygon fill="#ff0000" stroke="#ff0000" stroke-width="0.5" points="336.38,-129.99 345.39,-124.41 334.87,-123.15 336.38,-129.99"/>
<text text-anchor="middle" x="113.5" y="-413.8" font-family="Times,serif" font-size="14.00">3</text>
</g>
<!-- O_Sent (online only) -->
<g id="node22" class="node">
<title>O_Sent (online only)</title>
<polygon fill="#ffffff" stroke="black" points="355,-653 197,-653 197,-617 355,-617 355,-653"/>
<text text-anchor="middle" x="276" y="-631.3" font-family="Times,serif" font-size="14.00">O_Sent (online only) (11)</text>
</g>
<!-- O_Created&#45;&gt;O_Sent (online only) -->
<g id="edge47" class="edge">
<title>O_Created&#45;&gt;O_Sent (online only)</title>
<path fill="none" stroke="#ff0000" stroke-width="0.5" stroke-dasharray="5,2" d="M193.3,-703.59C208.72,-690.99 229.76,-673.79 246.75,-659.9"/>
<polygon fill="#ff0000" stroke="#ff0000" stroke-width="0.5" points="248.61,-662.9 254.14,-653.87 244.18,-657.48 248.61,-662.9"/>
<text text-anchor="middle" x="238" y="-674.8" font-family="Times,serif" font-size="14.00">11</text>
</g>
<!-- O_Sent (mail and online)&#45;&gt;W_Complete application -->
<g id="edge12" class="edge">
<title>O_Sent (mail and online)&#45;&gt;W_Complete application</title>
<path fill="none" stroke="#000000" stroke-width="2.15" d="M123.1,-25.95C63.99,-33.59 0,-55.02 0,-112 0,-984 0,-984 0,-984 0,-1032.89 131.92,-1053.81 232.84,-1062.66"/>
<polygon fill="#000000" stroke="#000000" stroke-width="2.15" points="232.42,-1066.14 242.68,-1063.49 233.01,-1059.16 232.42,-1066.14"/>
<text text-anchor="middle" x="14" y="-544.3" font-family="Times,serif" font-size="14.00">3231</text>
</g>
<!-- O_Sent (mail and online)&#45;&gt;O_Sent (mail and online) -->
<g id="edge33" class="edge">
<title>O_Sent (mail and online)&#45;&gt;O_Sent (mail and online)</title>
<path fill="none" stroke="#ff0000" stroke-width="0.62" stroke-dasharray="5,2" d="M318.74,-29.49C329.53,-28.07 336.5,-25.57 336.5,-22 336.5,-19.82 333.91,-18.05 329.45,-16.67"/>
<polygon fill="#ff0000" stroke="#ff0000" stroke-width="0.62" points="330.16,-13.24 319.66,-14.69 328.77,-20.1 330.16,-13.24"/>
<text text-anchor="middle" x="347" y="-18.3" font-family="Times,serif" font-size="14.00">235</text>
</g>
<!-- O_Sent (mail and online)&#45;&gt;W_Call after offers -->
<g id="edge40" class="edge">
<title>O_Sent (mail and online)&#45;&gt;W_Call after offers</title>
<path fill="none" stroke="#ff0000" stroke-width="0.54" stroke-dasharray="5,2" d="M230.16,-40.35C255.72,-89.17 329.22,-232.22 379,-356 389.26,-381.51 398.79,-411.43 405.13,-432.61"/>
<polygon fill="#ff0000" stroke="#ff0000" stroke-width="0.54" points="401.73,-433.44 407.92,-442.04 408.44,-431.46 401.73,-433.44"/>
<text text-anchor="middle" x="341" y="-239.8" font-family="Times,serif" font-size="14.00">72</text>
</g>
<!-- O_Sent (mail and online)&#45;&gt;A_Cancelled -->
<g id="edge39" class="edge">
<title>O_Sent (mail and online)&#45;&gt;A_Cancelled</title>
<path fill="none" stroke="#ff0000" stroke-width="0.54" stroke-dasharray="5,2" d="M190.38,-40.33C167.44,-55.83 140,-80.87 140,-112 140,-462 140,-462 140,-462 140,-491.93 164.81,-512.06 192.33,-525.19"/>
<polygon fill="#ff0000" stroke="#ff0000" stroke-width="0.54" points="190.82,-528.35 201.38,-529.21 193.66,-521.95 190.82,-528.35"/>
<text text-anchor="middle" x="147" y="-283.3" font-family="Times,serif" font-size="14.00">91</text>
</g>
<!-- W_Call after offers&#45;&gt;O_Create Offer -->
<g id="edge38" class="edge">
<title>W_Call after offers&#45;&gt;O_Create Offer</title>
<path fill="none" stroke="#ff0000" stroke-width="0.58" stroke-dasharray="5,2" d="M409.78,-479.19C406.86,-496.31 403,-523.37 403,-547 403,-679.5 403,-679.5 403,-679.5 403,-748.6 322.35,-780.98 257.2,-795.86"/>
<polygon fill="#ff0000" stroke="#ff0000" stroke-width="0.58" points="256.77,-792.37 247.75,-797.92 258.26,-799.21 256.77,-792.37"/>
<text text-anchor="middle" x="413.5" y="-631.3" font-family="Times,serif" font-size="14.00">157</text>
</g>
<!-- W_Call after offers&#45;&gt;W_Call after offers -->
<g id="edge14" class="edge">
<title>W_Call after offers&#45;&gt;W_Call after offers</title>
<path fill="none" stroke="#000000" stroke-width="6" d="M498.25,-468.1C508.95,-466.85 516,-464.48 516,-461 516,-459.91 515.31,-458.93 514.04,-458.06"/>
<polygon fill="#000000" stroke="#000000" stroke-width="6" points="515.5,-453.02 504.49,-455.54 512.82,-463.17 515.5,-453.02"/>
<text text-anchor="middle" x="533" y="-457.3" font-family="Times,serif" font-size="14.00">10774</text>
</g>
<!-- A_Complete -->
<g id="node12" class="node">
<title>A_Complete</title>
<polygon fill="#eeeeff" stroke="black" points="370,-392 244,-392 244,-356 370,-356 370,-392"/>
<text text-anchor="middle" x="307" y="-370.3" font-family="Times,serif" font-size="14.00">A_Complete (3239)</text>
</g>
<!-- W_Call after offers&#45;&gt;A_Complete -->
<g id="edge15" class="edge">
<title>W_Call after offers&#45;&gt;A_Complete</title>
<path fill="none" stroke="#000000" stroke-width="2.15" d="M391.04,-442.58C384,-436.98 376.16,-430.74 369,-425 359.09,-417.06 348.32,-408.39 338.57,-400.53"/>
<polygon fill="#000000" stroke="#000000" stroke-width="2.15" points="341.01,-398 331.03,-394.44 336.61,-403.44 341.01,-398"/>
<text text-anchor="middle" x="383" y="-413.8" font-family="Times,serif" font-size="14.00">3239</text>
</g>
<!-- W_Call after offers&#45;&gt;A_Cancelled -->
<g id="edge17" class="edge">
<title>W_Call after offers&#45;&gt;A_Cancelled</title>
<path fill="none" stroke="#000000" stroke-width="1.6" d="M387.2,-479.32C366.54,-493.18 340.58,-510.53 338,-512 330.61,-516.21 322.64,-520.38 314.77,-524.3"/>
<polygon fill="#000000" stroke="#000000" stroke-width="1.6" points="313.42,-521.06 305.96,-528.59 316.49,-527.36 313.42,-521.06"/>
<text text-anchor="middle" x="375" y="-500.8" font-family="Times,serif" font-size="14.00">2156</text>
</g>
<!-- W_Call after offers&#45;&gt;O_Cancelled -->
<g id="edge52" class="edge">
<title>W_Call after offers&#45;&gt;O_Cancelled</title>
<path fill="none" stroke="#ff0000" stroke-width="0.5" stroke-dasharray="5,2" d="M427.46,-442.53C445.49,-418.9 474,-374.72 474,-331.5 474,-331.5 474,-331.5 474,-199 474,-175.19 457.77,-153.8 441.66,-138.44"/>
<polygon fill="#ff0000" stroke="#ff0000" stroke-width="0.5" points="444.17,-135.99 434.39,-131.91 439.49,-141.2 444.17,-135.99"/>
<text text-anchor="middle" x="477.5" y="-283.3" font-family="Times,serif" font-size="14.00">4</text>
</g>
<!-- W_Validate application -->
<g id="node15" class="node">
<title>W_Validate application</title>
<polygon fill="#eaeaff" stroke="black" points="865.5,-218 680.5,-218 680.5,-182 865.5,-182 865.5,-218"/>
<text text-anchor="middle" x="773" y="-196.3" font-family="Times,serif" font-size="14.00">W_Validate application (4030)</text>
</g>
<!-- W_Call after offers&#45;&gt;W_Validate application -->
<g id="edge23" class="edge">
<title>W_Call after offers&#45;&gt;W_Validate application</title>
<path fill="none" stroke="#000000" d="M498.07,-452.52C595.9,-442.62 749.29,-422.76 798,-392 849.76,-359.31 886.83,-324.03 860,-269 851.01,-250.56 834.34,-235.66 817.97,-224.55"/>
<polygon fill="#000000" stroke="#000000" points="820.01,-221.71 809.7,-219.27 816.25,-227.6 820.01,-221.71"/>
<text text-anchor="middle" x="875.5" y="-326.8" font-family="Times,serif" font-size="14.00">974</text>
</g>
<!-- A_Denied -->
<g id="node20" class="node">
<title>A_Denied</title>
<polygon fill="#fdfdff" stroke="black" points="764.5,-392 659.5,-392 659.5,-356 764.5,-356 764.5,-392"/>
<text text-anchor="middle" x="712" y="-370.3" font-family="Times,serif" font-size="14.00">A_Denied (212)</text>
</g>
<!-- W_Call after offers&#45;&gt;A_Denied -->
<g id="edge50" class="edge">
<title>W_Call after offers&#45;&gt;A_Denied</title>
<path fill="none" stroke="#ff0000" stroke-width="0.5" stroke-dasharray="5,2" d="M458.01,-442.66C470.79,-437.36 484.59,-431.27 497,-425 508.57,-419.16 509.88,-414.58 522,-410 562.72,-394.61 611,-385.83 648.69,-380.91"/>
<polygon fill="#ff0000" stroke="#ff0000" stroke-width="0.5" points="648.78,-384.43 658.28,-379.72 647.92,-377.48 648.78,-384.43"/>
<text text-anchor="middle" x="525.5" y="-413.8" font-family="Times,serif" font-size="14.00">7</text>
</g>
<!-- W_Call after offers&#45;&gt;end_node -->
<g id="edge61" class="edge">
<title>W_Call after offers&#45;&gt;end_node</title>
<path fill="none" stroke="#000000" stroke-width="1.66" d="M438.6,-442.52C445.31,-437.31 452.27,-431.3 458,-425 469.7,-412.14 471.43,-407.65 479,-392 536.55,-272.96 580.69,-121.17 598.46,-55.59"/>
<polygon fill="#000000" stroke="#000000" stroke-width="1.66" points="601.8,-56.65 601.01,-46.08 595.04,-54.83 601.8,-56.65"/>
<text text-anchor="middle" x="556" y="-239.8" font-family="Times,serif" font-size="14.00">2265</text>
</g>
<!-- A_Complete&#45;&gt;O_Create Offer -->
<g id="edge60" class="edge">
<title>A_Complete&#45;&gt;O_Create Offer</title>
<path fill="none" stroke="#ff0000" stroke-width="0.5" stroke-dasharray="5,2" d="M284.61,-392.34C233.18,-433.77 107.55,-544.53 62,-671 45.06,-718.03 94.9,-760.26 133.98,-785.02"/>
<polygon fill="#ff0000" stroke="#ff0000" stroke-width="0.5" points="132.13,-787.99 142.48,-790.23 135.79,-782.02 132.13,-787.99"/>
<text text-anchor="middle" x="109.5" y="-587.8" font-family="Times,serif" font-size="14.00">9</text>
</g>
<!-- A_Complete&#45;&gt;W_Call after offers -->
<g id="edge16" class="edge">
<title>A_Complete&#45;&gt;W_Call after offers</title>
<path fill="none" stroke="#000000" stroke-width="2.15" d="M307.57,-392.16C308.78,-402.78 311.96,-416.06 320,-425 323.7,-429.11 327.93,-432.74 332.5,-435.95"/>
<polygon fill="#000000" stroke="#000000" stroke-width="2.15" points="330.54,-438.86 340.92,-441.01 334.15,-432.86 330.54,-438.86"/>
<text text-anchor="middle" x="334" y="-413.8" font-family="Times,serif" font-size="14.00">3226</text>
</g>
<!-- A_Complete&#45;&gt;A_Cancelled -->
<g id="edge49" class="edge">
<title>A_Complete&#45;&gt;A_Cancelled</title>
<path fill="none" stroke="#ff0000" stroke-width="0.5" stroke-dasharray="5,2" d="M302.73,-392.48C295.43,-422.39 280.48,-483.6 271.75,-519.35"/>
<polygon fill="#ff0000" stroke="#ff0000" stroke-width="0.5" points="268.41,-518.28 269.44,-528.83 275.21,-519.94 268.41,-518.28"/>
<text text-anchor="middle" x="294.5" y="-457.3" font-family="Times,serif" font-size="14.00">4</text>
</g>
<!-- A_Cancelled&#45;&gt;W_Call after offers -->
<g id="edge54" class="edge">
<title>A_Cancelled&#45;&gt;W_Call after offers</title>
<path fill="none" stroke="#ff0000" stroke-width="0.5" stroke-dasharray="5,2" d="M286.21,-529.5C299.22,-519.26 316.5,-506.52 333,-497 341.2,-492.27 350.15,-487.77 359.01,-483.66"/>
<polygon fill="#ff0000" stroke="#ff0000" stroke-width="0.5" points="360.17,-486.98 367.85,-479.68 357.3,-480.59 360.17,-486.98"/>
<text text-anchor="middle" x="336.5" y="-500.8" font-family="Times,serif" font-size="14.00">4</text>
</g>
<!-- A_Cancelled&#45;&gt;O_Cancelled -->
<g id="edge18" class="edge">
<title>A_Cancelled&#45;&gt;O_Cancelled</title>
<path fill="none" stroke="#000000" stroke-width="1.65" d="M275.88,-529.83C278.78,-524.35 281.52,-518.11 283,-512 290.22,-482.19 294.31,-471.51 283,-443 271.53,-414.07 246.47,-420.93 235,-392 229.1,-377.13 231.02,-371.5 235,-356 258.55,-264.3 337.54,-180.29 380.9,-139.66"/>
<polygon fill="#000000" stroke="#000000" stroke-width="1.65" points="383.01,-142.47 387.99,-133.12 378.27,-137.33 383.01,-142.47"/>
<text text-anchor="middle" x="260" y="-326.8" font-family="Times,serif" font-size="14.00">2260</text>
</g>
<!-- O_Cancelled&#45;&gt;W_Complete application -->
<g id="edge58" class="edge">
<title>O_Cancelled&#45;&gt;W_Complete application</title>
<path fill="none" stroke="#ff0000" stroke-width="0.5" stroke-dasharray="5,2" d="M445.37,-131.33C454.17,-136.42 463.3,-142.42 471,-149 508.73,-181.24 522.49,-189.95 541,-236 541.56,-237.38 570,-545.82 570,-590.5 570,-984 570,-984 570,-984 570,-1012.26 506.88,-1034.47 447.66,-1049.09"/>
<polygon fill="#ff0000" stroke="#ff0000" stroke-width="0.5" points="447.07,-1045.63 438.17,-1051.37 448.71,-1052.43 447.07,-1045.63"/>
<text text-anchor="middle" x="573.5" y="-587.8" font-family="Times,serif" font-size="14.00">6</text>
</g>
<!-- O_Cancelled&#45;&gt;O_Sent (mail and online) -->
<g id="edge56" class="edge">
<title>O_Cancelled&#45;&gt;O_Sent (mail and online)</title>
<path fill="none" stroke="#ff0000" stroke-width="0.5" stroke-dasharray="5,2" d="M379.06,-94.55C360.91,-84.56 337.41,-72.06 316,-62 303.14,-55.96 289.08,-49.9 275.82,-44.42"/>
<polygon fill="#ff0000" stroke="#ff0000" stroke-width="0.5" points="277.14,-41.18 266.56,-40.64 274.49,-47.66 277.14,-41.18"/>
<text text-anchor="middle" x="348.5" y="-65.8" font-family="Times,serif" font-size="14.00">3</text>
</g>
<!-- O_Cancelled&#45;&gt;W_Call after offers -->
<g id="edge19" class="edge">
<title>O_Cancelled&#45;&gt;W_Call after offers</title>
<path fill="none" stroke="#000000" stroke-width="1.65" d="M410.95,-131.34C413.39,-176.96 419.85,-304.07 422,-410 422.14,-416.67 422.84,-418.39 422,-425 421.77,-426.83 421.47,-428.7 421.13,-430.58"/>
<polygon fill="#000000" stroke="#000000" stroke-width="1.65" points="417.72,-429.76 418.92,-440.29 424.55,-431.31 417.72,-429.76"/>
<text text-anchor="middle" x="432" y="-283.3" font-family="Times,serif" font-size="14.00">2254</text>
</g>
<!-- O_Cancelled&#45;&gt;A_Cancelled -->
<g id="edge53" class="edge">
<title>O_Cancelled&#45;&gt;A_Cancelled</title>
<path fill="none" stroke="#ff0000" stroke-width="0.5" stroke-dasharray="5,2" d="M380.79,-131.46C371.8,-136.96 361.93,-143.13 353,-149 331.67,-163.02 323.61,-163.52 306,-182 256.89,-233.54 245.24,-253.46 230,-323 214.58,-393.36 239.09,-477.58 254.32,-519.9"/>
<polygon fill="#ff0000" stroke="#ff0000" stroke-width="0.5" points="250.94,-520.86 257.7,-529.02 257.51,-518.42 250.94,-520.86"/>
<text text-anchor="middle" x="233.5" y="-326.8" font-family="Times,serif" font-size="14.00">4</text>
</g>
<!-- O_Cancelled&#45;&gt;O_Cancelled -->
<g id="edge34" class="edge">
<title>O_Cancelled&#45;&gt;O_Cancelled</title>
<path fill="none" stroke="#ff0000" stroke-width="0.68" stroke-dasharray="5,2" d="M473.9,-120.55C484.33,-119.47 491.5,-116.95 491.5,-113 491.5,-110.59 488.84,-108.72 484.4,-107.38"/>
<polygon fill="#ff0000" stroke="#ff0000" stroke-width="0.68" points="485.37,-104 474.9,-105.64 484.11,-110.88 485.37,-104"/>
<text text-anchor="middle" x="502" y="-109.3" font-family="Times,serif" font-size="14.00">349</text>
</g>
<!-- O_Cancelled&#45;&gt;end_node -->
<g id="edge63" class="edge">
<title>O_Cancelled&#45;&gt;end_node</title>
<path fill="none" stroke="#ff0000" stroke-width="0.52" stroke-dasharray="5,2" d="M448.45,-94.63C486.26,-77.55 543.16,-51.84 577.52,-36.32"/>
<polygon fill="#ff0000" stroke="#ff0000" stroke-width="0.52" points="578.61,-39.67 586.28,-32.36 575.72,-33.29 578.61,-39.67"/>
<text text-anchor="middle" x="527" y="-65.8" font-family="Times,serif" font-size="14.00">50</text>
</g>
<!-- W_Validate application&#45;&gt;O_Cancelled -->
<g id="edge43" class="edge">
<title>W_Validate application&#45;&gt;O_Cancelled</title>
<path fill="none" stroke="#ff0000" stroke-width="0.52" stroke-dasharray="5,2" d="M698.67,-181.59C635.99,-166.92 546.74,-146.02 484.12,-131.36"/>
<polygon fill="#ff0000" stroke="#ff0000" stroke-width="0.52" points="485.23,-128.02 474.7,-129.15 483.63,-134.84 485.23,-128.02"/>
<text text-anchor="middle" x="620" y="-152.8" font-family="Times,serif" font-size="14.00">50</text>
</g>
<!-- W_Validate application&#45;&gt;W_Validate application -->
<g id="edge24" class="edge">
<title>W_Validate application&#45;&gt;W_Validate application</title>
<path fill="none" stroke="#000000" stroke-width="1.06" d="M865.7,-206.96C876.48,-205.68 883.5,-203.36 883.5,-200 883.5,-198.06 881.16,-196.47 877.09,-195.22"/>
<polygon fill="#000000" stroke="#000000" stroke-width="1.06" points="877.76,-191.78 867.28,-193.34 876.45,-198.66 877.76,-191.78"/>
<text text-anchor="middle" x="897.5" y="-196.3" font-family="Times,serif" font-size="14.00">1108</text>
</g>
<!-- A_Validating -->
<g id="node16" class="node">
<title>A_Validating</title>
<polygon fill="#fafaff" stroke="black" points="1029,-131 907,-131 907,-95 1029,-95 1029,-131"/>
<text text-anchor="middle" x="968" y="-109.3" font-family="Times,serif" font-size="14.00">A_Validating (974)</text>
</g>
<!-- W_Validate application&#45;&gt;A_Validating -->
<g id="edge25" class="edge">
<title>W_Validate application&#45;&gt;A_Validating</title>
<path fill="none" stroke="#000000" d="M835.26,-181.56C850.78,-176.52 867.2,-170.59 882,-164 899.09,-156.4 917.1,-146.28 932.21,-137.14"/>
<polygon fill="#000000" stroke="#000000" points="933.71,-140.32 940.39,-132.1 930.04,-134.36 933.71,-140.32"/>
<text text-anchor="middle" x="921.5" y="-152.8" font-family="Times,serif" font-size="14.00">974</text>
</g>
<!-- O_Accepted -->
<g id="node18" class="node">
<title>O_Accepted</title>
<polygon fill="#fbfbff" stroke="black" points="831.5,-131 714.5,-131 714.5,-95 831.5,-95 831.5,-131"/>
<text text-anchor="middle" x="773" y="-109.3" font-family="Times,serif" font-size="14.00">O_Accepted (769)</text>
</g>
<!-- W_Validate application&#45;&gt;O_Accepted -->
<g id="edge28" class="edge">
<title>W_Validate application&#45;&gt;O_Accepted</title>
<path fill="none" stroke="#000000" stroke-width="0.89" d="M773,-181.8C773,-170.58 773,-155.67 773,-142.69"/>
<polygon fill="#000000" stroke="#000000" stroke-width="0.89" points="776.5,-142.82 773,-132.82 769.5,-142.82 776.5,-142.82"/>
<text text-anchor="middle" x="783.5" y="-152.8" font-family="Times,serif" font-size="14.00">769</text>
</g>
<!-- W_Validate application&#45;&gt;A_Denied -->
<g id="edge35" class="edge">
<title>W_Validate application&#45;&gt;A_Denied</title>
<path fill="none" stroke="#ff0000" stroke-width="0.6" stroke-dasharray="5,2" d="M737.57,-218.46C718.5,-229.94 696.75,-246.94 686,-269 673.96,-293.69 684.45,-324.49 695.49,-346.14"/>
<polygon fill="#ff0000" stroke="#ff0000" stroke-width="0.6" points="692.39,-347.77 700.25,-354.88 698.54,-344.42 692.39,-347.77"/>
<text text-anchor="middle" x="696.5" y="-283.3" font-family="Times,serif" font-size="14.00">205</text>
</g>
<!-- W_Validate application&#45;&gt;end_node -->
<g id="edge62" class="edge">
<title>W_Validate application&#45;&gt;end_node</title>
<path fill="none" stroke="#000000" stroke-width="0.97" d="M745.47,-181.63C726.95,-169.07 702.77,-150.86 685,-131 661.06,-104.24 664.62,-90.66 643,-62 639.12,-56.85 634.67,-51.6 630.25,-46.69"/>
<polygon fill="#000000" stroke="#000000" stroke-width="0.97" points="632.83,-44.33 623.46,-39.39 627.71,-49.1 632.83,-44.33"/>
<text text-anchor="middle" x="695.5" y="-109.3" font-family="Times,serif" font-size="14.00">924</text>
</g>
<!-- O_Returned -->
<g id="node17" class="node">
<title>O_Returned</title>
<polygon fill="#fafaff" stroke="black" points="1090,-40 974,-40 974,-4 1090,-4 1090,-40"/>
<text text-anchor="middle" x="1032" y="-18.3" font-family="Times,serif" font-size="14.00">O_Returned (974)</text>
</g>
<!-- A_Validating&#45;&gt;O_Returned -->
<g id="edge26" class="edge">
<title>A_Validating&#45;&gt;O_Returned</title>
<path fill="none" stroke="#000000" d="M980.34,-94.84C989.58,-81.99 1002.38,-64.19 1012.93,-49.52"/>
<polygon fill="#000000" stroke="#000000" points="1015.6,-51.8 1018.6,-41.63 1009.92,-47.71 1015.6,-51.8"/>
<text text-anchor="middle" x="1013.5" y="-65.8" font-family="Times,serif" font-size="14.00">974</text>
</g>
<!-- O_Returned&#45;&gt;W_Validate application -->
<g id="edge27" class="edge">
<title>O_Returned&#45;&gt;W_Validate application</title>
<path fill="none" stroke="#000000" d="M1039.09,-40.22C1047.32,-63.25 1057.44,-104.27 1038,-131 1018.65,-157.6 942.69,-175.32 877.02,-185.98"/>
<polygon fill="#000000" stroke="#000000" points="876.56,-182.51 867.23,-187.53 877.65,-189.42 876.56,-182.51"/>
<text text-anchor="middle" x="1059.5" y="-109.3" font-family="Times,serif" font-size="14.00">974</text>
</g>
<!-- A_Pending -->
<g id="node19" class="node">
<title>A_Pending</title>
<polygon fill="#fbfbff" stroke="black" points="890,-40 780,-40 780,-4 890,-4 890,-40"/>
<text text-anchor="middle" x="835" y="-18.3" font-family="Times,serif" font-size="14.00">A_Pending (769)</text>
</g>
<!-- O_Accepted&#45;&gt;A_Pending -->
<g id="edge29" class="edge">
<title>O_Accepted&#45;&gt;A_Pending</title>
<path fill="none" stroke="#000000" stroke-width="0.89" d="M784.95,-94.84C793.9,-81.99 806.31,-64.19 816.53,-49.52"/>
<polygon fill="#000000" stroke="#000000" stroke-width="0.89" points="819.26,-51.72 822.1,-41.52 813.51,-47.72 819.26,-51.72"/>
<text text-anchor="middle" x="817.5" y="-65.8" font-family="Times,serif" font-size="14.00">769</text>
</g>
<!-- A_Pending&#45;&gt;W_Validate application -->
<g id="edge30" class="edge">
<title>A_Pending&#45;&gt;W_Validate application</title>
<path fill="none" stroke="#000000" stroke-width="0.89" d="M840.4,-40.23C846.32,-62.22 853.43,-100.99 841,-131 833.92,-148.08 820.25,-163.11 807,-174.66"/>
<polygon fill="#000000" stroke="#000000" stroke-width="0.89" points="804.95,-171.82 799.47,-180.88 809.41,-177.21 804.95,-171.82"/>
<text text-anchor="middle" x="857.5" y="-109.3" font-family="Times,serif" font-size="14.00">769</text>
</g>
<!-- O_Refused -->
<g id="node21" class="node">
<title>O_Refused</title>
<polygon fill="#fdfdff" stroke="black" points="826,-305 716,-305 716,-269 826,-269 826,-305"/>
<text text-anchor="middle" x="771" y="-283.3" font-family="Times,serif" font-size="14.00">O_Refused (220)</text>
</g>
<!-- A_Denied&#45;&gt;O_Refused -->
<g id="edge36" class="edge">
<title>A_Denied&#45;&gt;O_Refused</title>
<path fill="none" stroke="#ff0000" stroke-width="0.61" stroke-dasharray="5,2" d="M723.94,-355.8C732.2,-343.9 743.35,-327.83 752.73,-314.32"/>
<polygon fill="#ff0000" stroke="#ff0000" stroke-width="0.61" points="755.53,-316.43 758.35,-306.22 749.77,-312.44 755.53,-316.43"/>
<text text-anchor="middle" x="755.5" y="-326.8" font-family="Times,serif" font-size="14.00">212</text>
</g>
<!-- O_Refused&#45;&gt;W_Call after offers -->
<g id="edge51" class="edge">
<title>O_Refused&#45;&gt;W_Call after offers</title>
<path fill="none" stroke="#ff0000" stroke-width="0.5" stroke-dasharray="5,2" d="M778.01,-305.27C786.04,-328.23 795.54,-368.62 774,-392 740.92,-427.91 601.83,-396.18 555,-410 541.46,-414 540.03,-419.57 527,-425 514.51,-430.2 500.97,-435.03 487.73,-439.34"/>
<polygon fill="#ff0000" stroke="#ff0000" stroke-width="0.5" points="486.88,-435.93 478.41,-442.29 489,-442.61 486.88,-435.93"/>
<text text-anchor="middle" x="790.5" y="-370.3" font-family="Times,serif" font-size="14.00">7</text>
</g>
<!-- O_Refused&#45;&gt;W_Validate application -->
<g id="edge37" class="edge">
<title>O_Refused&#45;&gt;W_Validate application</title>
<path fill="none" stroke="#ff0000" stroke-width="0.6" stroke-dasharray="5,2" d="M771.4,-268.8C771.67,-257.47 772.03,-242.36 772.33,-229.29"/>
<polygon fill="#ff0000" stroke="#ff0000" stroke-width="0.6" points="775.83,-229.46 772.57,-219.38 768.83,-229.29 775.83,-229.46"/>
<text text-anchor="middle" x="782.5" y="-239.8" font-family="Times,serif" font-size="14.00">205</text>
</g>
<!-- O_Refused&#45;&gt;O_Refused -->
<g id="edge46" class="edge">
<title>O_Refused&#45;&gt;O_Refused</title>
<path fill="none" stroke="#ff0000" stroke-width="0.5" stroke-dasharray="5,2" d="M826.39,-294.74C836.72,-293.78 844,-291.21 844,-287 844,-284.44 841.3,-282.48 836.85,-281.12"/>
<polygon fill="#ff0000" stroke="#ff0000" stroke-width="0.5" points="837.59,-277.7 827.14,-279.4 836.37,-284.59 837.59,-277.7"/>
<text text-anchor="middle" x="847.5" y="-283.3" font-family="Times,serif" font-size="14.00">8</text>
</g>
<!-- O_Sent (online only)&#45;&gt;W_Complete application -->
<g id="edge48" class="edge">
<title>O_Sent (online only)&#45;&gt;W_Complete application</title>
<path fill="none" stroke="#ff0000" stroke-width="0.5" stroke-dasharray="5,2" d="M303.93,-653.34C344.25,-680.78 414,-738.32 414,-808 414,-984 414,-984 414,-984 414,-1008.42 396.68,-1029.84 379.52,-1045.07"/>
<polygon fill="#ff0000" stroke="#ff0000" stroke-width="0.5" points="377.7,-1042.03 372.29,-1051.13 382.2,-1047.39 377.7,-1042.03"/>
<text text-anchor="middle" x="417.5" y="-848.8" font-family="Times,serif" font-size="14.00">8</text>
</g>
<!-- O_Sent (online only)&#45;&gt;A_Cancelled -->
<g id="edge59" class="edge">
<title>O_Sent (online only)&#45;&gt;A_Cancelled</title>
<path fill="none" stroke="#ff0000" stroke-width="0.5" stroke-dasharray="5,2" d="M273.77,-616.8C272.29,-605.35 270.31,-590.06 268.61,-576.89"/>
<polygon fill="#ff0000" stroke="#ff0000" stroke-width="0.5" points="272.11,-576.69 267.36,-567.22 265.17,-577.58 272.11,-576.69"/>
<text text-anchor="middle" x="275.5" y="-587.8" font-family="Times,serif" font-size="14.00">3</text>
</g>
</g>
</svg>
