<?xml version="1.0" encoding="UTF-8" standalone="no"?>
<!DOCTYPE svg PUBLIC "-//W3C//DTD SVG 1.1//EN"
 "http://www.w3.org/Graphics/SVG/1.1/DTD/svg11.dtd">
<!-- Generated by graphviz version 7.0.5 (0)
 -->
<!-- Title: dfg Pages: 1 -->
<svg width="929pt" height="1357pt"
 viewBox="0.00 0.00 929.00 1357.00" xmlns="http://www.w3.org/2000/svg" xmlns:xlink="http://www.w3.org/1999/xlink">
<g id="graph0" class="graph" transform="scale(1 1) rotate(0) translate(4 1353)">
<title>dfg</title>
<polygon fill="white" stroke="none" points="-4,4 -4,-1353 925,-1353 925,4 -4,4"/>
<!-- start_node -->
<g id="node1" class="node">
<title>start_node</title>
<ellipse fill="none" stroke="black" cx="470" cy="-1331" rx="18" ry="18"/>
<text text-anchor="start" x="465.5" y="-1327.3" font-family="Times,serif" font-size="14.00">●</text>
</g>
<!-- A_Create Application -->
<g id="node2" class="node">
<title>A_Create Application</title>
<polygon fill="#efefff" stroke="black" points="554,-1262 386,-1262 386,-1226 554,-1226 554,-1262"/>
<text text-anchor="middle" x="470" y="-1240.3" font-family="Times,serif" font-size="14.00">A_Create Application (692)</text>
</g>
<!-- start_node&#45;&gt;A_Create Application -->
<g id="edge1" class="edge">
<title>start_node&#45;&gt;A_Create Application</title>
<path fill="none" stroke="#000000" stroke-width="2.22" d="M470,-1312.8C470,-1302.15 470,-1288.18 470,-1275.69"/>
<polygon fill="#000000" stroke="#000000" stroke-width="2.22" points="473.5,-1275.83 470,-1265.83 466.5,-1275.83 473.5,-1275.83"/>
<text text-anchor="middle" x="480.5" y="-1283.8" font-family="Times,serif" font-size="14.00">692</text>
</g>
<!-- W_Complete application -->
<g id="node3" class="node">
<title>W_Complete application</title>
<polygon fill="#b8b8ff" stroke="black" points="426,-1001 232,-1001 232,-965 426,-965 426,-1001"/>
<text text-anchor="middle" x="329" y="-979.3" font-family="Times,serif" font-size="14.00">W_Complete application (2966)</text>
</g>
<!-- A_Create Application&#45;&gt;W_Complete application -->
<g id="edge2" class="edge">
<title>A_Create Application&#45;&gt;W_Complete application</title>
<path fill="none" stroke="#000000" stroke-width="0.86" d="M473.09,-1225.71C478.51,-1189.98 485.99,-1106.74 450,-1052 436.57,-1031.58 414.79,-1016.66 393.38,-1006.1"/>
<polygon fill="#000000" stroke="#000000" stroke-width="0.86" points="395,-1002.99 384.46,-1001.95 392.05,-1009.34 395,-1002.99"/>
<text text-anchor="middle" x="485.5" y="-1109.8" font-family="Times,serif" font-size="14.00">148</text>
</g>
<!-- A_Concept -->
<g id="node4" class="node">
<title>A_Concept</title>
<polygon fill="#efefff" stroke="black" points="504.5,-914 393.5,-914 393.5,-878 504.5,-878 504.5,-914"/>
<text text-anchor="middle" x="449" y="-892.3" font-family="Times,serif" font-size="14.00">A_Concept (692)</text>
</g>
<!-- A_Create Application&#45;&gt;A_Concept -->
<g id="edge23" class="edge">
<title>A_Create Application&#45;&gt;A_Concept</title>
<path fill="none" stroke="#ff0000" stroke-width="0.68" stroke-dasharray="5,2" d="M506.56,-1225.54C530.73,-1211.18 558,-1188.27 558,-1158 558,-1158 558,-1158 558,-982 558,-953.38 534.34,-932.98 509.07,-919.35"/>
<polygon fill="#ff0000" stroke="#ff0000" stroke-width="0.68" points="510.78,-916.29 500.27,-914.92 507.63,-922.54 510.78,-916.29"/>
<text text-anchor="middle" x="565" y="-1066.3" font-family="Times,serif" font-size="14.00">74</text>
</g>
<!-- A_Submitted -->
<g id="node13" class="node">
<title>A_Submitted</title>
<polygon fill="#f4f4ff" stroke="black" points="429,-1175 307,-1175 307,-1139 429,-1139 429,-1175"/>
<text text-anchor="middle" x="368" y="-1153.3" font-family="Times,serif" font-size="14.00">A_Submitted (470)</text>
</g>
<!-- A_Create Application&#45;&gt;A_Submitted -->
<g id="edge17" class="edge">
<title>A_Create Application&#45;&gt;A_Submitted</title>
<path fill="none" stroke="#000000" stroke-width="1.67" d="M449.36,-1225.8C434.66,-1213.55 414.68,-1196.9 398.2,-1183.16"/>
<polygon fill="#000000" stroke="#000000" stroke-width="1.67" points="400.82,-1180.8 390.9,-1177.08 396.34,-1186.17 400.82,-1180.8"/>
<text text-anchor="middle" x="436.5" y="-1196.8" font-family="Times,serif" font-size="14.00">470</text>
</g>
<!-- W_Complete application&#45;&gt;W_Complete application -->
<g id="edge3" class="edge">
<title>W_Complete application&#45;&gt;W_Complete application</title>
<path fill="none" stroke="#000000" stroke-width="3.34" d="M426.32,-989.86C437.06,-988.56 444,-986.27 444,-983 444,-981.67 442.86,-980.5 440.78,-979.5"/>
<polygon fill="#000000" stroke="#000000" stroke-width="3.34" points="441.78,-976.14 431.25,-977.28 440.2,-982.96 441.78,-976.14"/>
<text text-anchor="middle" x="458" y="-979.3" font-family="Times,serif" font-size="14.00">1142</text>
</g>
<!-- W_Complete application&#45;&gt;A_Concept -->
<g id="edge4" class="edge">
<title>W_Complete application&#45;&gt;A_Concept</title>
<path fill="none" stroke="#000000" stroke-width="2.04" d="M387.72,-964.61C398.13,-959.92 408.38,-954.12 417,-947 424.07,-941.16 430.1,-933.34 434.94,-925.62"/>
<polygon fill="#000000" stroke="#000000" stroke-width="2.04" points="437.98,-927.36 439.86,-916.94 431.89,-923.91 437.98,-927.36"/>
<text text-anchor="middle" x="441.5" y="-935.8" font-family="Times,serif" font-size="14.00">618</text>
</g>
<!-- A_Accepted -->
<g id="node5" class="node">
<title>A_Accepted</title>
<polygon fill="#efefff" stroke="black" points="412.5,-827 295.5,-827 295.5,-791 412.5,-791 412.5,-827"/>
<text text-anchor="middle" x="354" y="-805.3" font-family="Times,serif" font-size="14.00">A_Accepted (692)</text>
</g>
<!-- W_Complete application&#45;&gt;A_Accepted -->
<g id="edge22" class="edge">
<title>W_Complete application&#45;&gt;A_Accepted</title>
<path fill="none" stroke="#000000" stroke-width="1.74" d="M331.53,-964.56C335.8,-935.2 344.47,-875.59 349.7,-839.58"/>
<polygon fill="#000000" stroke="#000000" stroke-width="1.74" points="353.1,-840.5 351.08,-830.1 346.18,-839.49 353.1,-840.5"/>
<text text-anchor="middle" x="354.5" y="-892.3" font-family="Times,serif" font-size="14.00">501</text>
</g>
<!-- O_Create Offer -->
<g id="node6" class="node">
<title>O_Create Offer</title>
<polygon fill="#ececff" stroke="black" points="421,-740 287,-740 287,-704 421,-704 421,-740"/>
<text text-anchor="middle" x="354" y="-718.3" font-family="Times,serif" font-size="14.00">O_Create Offer (784)</text>
</g>
<!-- W_Complete application&#45;&gt;O_Create Offer -->
<g id="edge41" class="edge">
<title>W_Complete application&#45;&gt;O_Create Offer</title>
<path fill="none" stroke="#ff0000" stroke-width="0.53" stroke-dasharray="5,2" d="M318.21,-964.54C298.47,-930.2 260.77,-851.92 286,-791 293.14,-773.76 307.02,-758.6 320.38,-747.01"/>
<polygon fill="#ff0000" stroke="#ff0000" stroke-width="0.53" points="322.46,-749.83 327.95,-740.77 318.01,-744.42 322.46,-749.83"/>
<text text-anchor="middle" x="287" y="-848.8" font-family="Times,serif" font-size="14.00">13</text>
</g>
<!-- W_Call after offers -->
<g id="node9" class="node">
<title>W_Call after offers</title>
<polygon fill="#9b9bff" stroke="black" points="197.5,-305 34.5,-305 34.5,-269 197.5,-269 197.5,-305"/>
<text text-anchor="middle" x="116" y="-283.3" font-family="Times,serif" font-size="14.00">W_Call after offers (4167)</text>
</g>
<!-- W_Complete application&#45;&gt;W_Call after offers -->
<g id="edge10" class="edge">
<title>W_Complete application&#45;&gt;W_Call after offers</title>
<path fill="none" stroke="#000000" stroke-width="2.21" d="M231.61,-971.31C149.75,-959.53 46,-936.76 46,-897 46,-897 46,-897 46,-373 46,-349.19 62.57,-328.43 79.59,-313.38"/>
<polygon fill="#000000" stroke="#000000" stroke-width="2.21" points="81.45,-316.39 86.95,-307.33 77,-310.98 81.45,-316.39"/>
<text text-anchor="middle" x="56.5" y="-631.3" font-family="Times,serif" font-size="14.00">689</text>
</g>
<!-- end_node -->
<g id="node22" class="node">
<title>end_node</title>
<ellipse fill="none" stroke="black" cx="240" cy="-109" rx="18" ry="18"/>
<ellipse fill="none" stroke="black" cx="240" cy="-109" rx="22" ry="22"/>
<text text-anchor="start" x="235.5" y="-105.3" font-family="Times,serif" font-size="14.00">■</text>
</g>
<!-- W_Complete application&#45;&gt;end_node -->
<g id="edge52" class="edge">
<title>W_Complete application&#45;&gt;end_node</title>
<path fill="none" stroke="#ff0000" stroke-width="0.5" stroke-dasharray="5,2" d="M231.62,-975.66C134.61,-966.59 0,-945.3 0,-897 0,-897 0,-897 0,-199 0,-155.21 142.26,-126.09 207.73,-115.01"/>
<polygon fill="#ff0000" stroke="#ff0000" stroke-width="0.5" points="208.23,-118.48 217.53,-113.39 207.09,-111.57 208.23,-118.48"/>
<text text-anchor="middle" x="3.5" y="-544.3" font-family="Times,serif" font-size="14.00">3</text>
</g>
<!-- A_Concept&#45;&gt;W_Complete application -->
<g id="edge21" class="edge">
<title>A_Concept&#45;&gt;W_Complete application</title>
<path fill="none" stroke="#000000" stroke-width="1.74" d="M419.28,-914.32C410.36,-919.77 400.66,-925.94 392,-932 381.02,-939.69 369.41,-948.64 359.2,-956.83"/>
<polygon fill="#000000" stroke="#000000" stroke-width="1.74" points="357.13,-954 351.57,-963.02 361.54,-959.44 357.13,-954"/>
<text text-anchor="middle" x="402.5" y="-935.8" font-family="Times,serif" font-size="14.00">501</text>
</g>
<!-- A_Concept&#45;&gt;A_Accepted -->
<g id="edge5" class="edge">
<title>A_Concept&#45;&gt;A_Accepted</title>
<path fill="none" stroke="#000000" stroke-width="0.97" d="M429.78,-877.8C415.96,-865.44 397.13,-848.59 381.69,-834.78"/>
<polygon fill="#000000" stroke="#000000" stroke-width="0.97" points="384.4,-832.51 374.62,-828.45 379.74,-837.72 384.4,-832.51"/>
<text text-anchor="middle" x="418.5" y="-848.8" font-family="Times,serif" font-size="14.00">191</text>
</g>
<!-- A_Accepted&#45;&gt;W_Complete application -->
<g id="edge40" class="edge">
<title>A_Accepted&#45;&gt;W_Complete application</title>
<path fill="none" stroke="#ff0000" stroke-width="0.53" stroke-dasharray="5,2" d="M343.18,-827.41C335.58,-840.71 326.07,-859.79 322,-878 316.31,-903.45 319.24,-933.2 322.9,-954.35"/>
<polygon fill="#ff0000" stroke="#ff0000" stroke-width="0.53" points="319.44,-954.88 324.74,-964.06 326.31,-953.58 319.44,-954.88"/>
<text text-anchor="middle" x="329" y="-892.3" font-family="Times,serif" font-size="14.00">13</text>
</g>
<!-- A_Accepted&#45;&gt;O_Create Offer -->
<g id="edge6" class="edge">
<title>A_Accepted&#45;&gt;O_Create Offer</title>
<path fill="none" stroke="#000000" stroke-width="2.19" d="M354,-790.8C354,-780.15 354,-766.18 354,-753.69"/>
<polygon fill="#000000" stroke="#000000" stroke-width="2.19" points="357.5,-753.78 354,-743.78 350.5,-753.78 357.5,-753.78"/>
<text text-anchor="middle" x="364.5" y="-761.8" font-family="Times,serif" font-size="14.00">679</text>
</g>
<!-- O_Created -->
<g id="node7" class="node">
<title>O_Created</title>
<polygon fill="#ececff" stroke="black" points="490,-653 382,-653 382,-617 490,-617 490,-653"/>
<text text-anchor="middle" x="436" y="-631.3" font-family="Times,serif" font-size="14.00">O_Created (784)</text>
</g>
<!-- O_Create Offer&#45;&gt;O_Created -->
<g id="edge7" class="edge">
<title>O_Create Offer&#45;&gt;O_Created</title>
<path fill="none" stroke="#000000" stroke-width="2.45" d="M389.18,-703.64C397,-698.68 404.8,-692.76 411,-686 416.41,-680.1 420.93,-672.81 424.57,-665.64"/>
<polygon fill="#000000" stroke="#000000" stroke-width="2.45" points="427.74,-667.12 428.66,-656.56 421.36,-664.24 427.74,-667.12"/>
<text text-anchor="middle" x="432.5" y="-674.8" font-family="Times,serif" font-size="14.00">784</text>
</g>
<!-- O_Created&#45;&gt;O_Create Offer -->
<g id="edge24" class="edge">
<title>O_Created&#45;&gt;O_Create Offer</title>
<path fill="none" stroke="#ff0000" stroke-width="0.63" stroke-dasharray="5,2" d="M412.85,-653.26C406.18,-658.65 399.06,-664.81 393,-671 385.84,-678.31 378.73,-686.91 372.59,-694.9"/>
<polygon fill="#ff0000" stroke="#ff0000" stroke-width="0.63" points="369.87,-692.69 366.68,-702.79 375.47,-696.88 369.87,-692.69"/>
<text text-anchor="middle" x="400" y="-674.8" font-family="Times,serif" font-size="14.00">54</text>
</g>
<!-- O_Sent (mail and online) -->
<g id="node8" class="node">
<title>O_Sent (mail and online)</title>
<polygon fill="#ececff" stroke="black" points="300,-566 112,-566 112,-530 300,-530 300,-566"/>
<text text-anchor="middle" x="206" y="-544.3" font-family="Times,serif" font-size="14.00">O_Sent (mail and online) (781)</text>
</g>
<!-- O_Created&#45;&gt;O_Sent (mail and online) -->
<g id="edge8" class="edge">
<title>O_Created&#45;&gt;O_Sent (mail and online)</title>
<path fill="none" stroke="#000000" stroke-width="2.31" d="M388.9,-616.59C353.24,-603.42 304.01,-585.22 265.61,-571.03"/>
<polygon fill="#000000" stroke="#000000" stroke-width="2.31" points="266.91,-567.78 256.31,-567.59 264.48,-574.34 266.91,-567.78"/>
<text text-anchor="middle" x="345.5" y="-587.8" font-family="Times,serif" font-size="14.00">727</text>
</g>
<!-- A_Cancelled -->
<g id="node11" class="node">
<title>A_Cancelled</title>
<polygon fill="#f1f1ff" stroke="black" points="415,-479 295,-479 295,-443 415,-443 415,-479"/>
<text text-anchor="middle" x="355" y="-457.3" font-family="Times,serif" font-size="14.00">A_Cancelled (583)</text>
</g>
<!-- O_Created&#45;&gt;A_Cancelled -->
<g id="edge42" class="edge">
<title>O_Created&#45;&gt;A_Cancelled</title>
<path fill="none" stroke="#ff0000" stroke-width="0.5" stroke-dasharray="5,2" d="M427.79,-616.56C413.6,-586.43 384.4,-524.43 367.62,-488.79"/>
<polygon fill="#ff0000" stroke="#ff0000" stroke-width="0.5" points="370.99,-487.73 363.56,-480.17 364.65,-490.71 370.99,-487.73"/>
<text text-anchor="middle" x="407.5" y="-544.3" font-family="Times,serif" font-size="14.00">3</text>
</g>
<!-- O_Sent (mail and online)&#45;&gt;W_Complete application -->
<g id="edge9" class="edge">
<title>O_Sent (mail and online)&#45;&gt;W_Complete application</title>
<path fill="none" stroke="#000000" stroke-width="2.21" d="M207.29,-566.25C208.46,-583.41 210,-610.51 210,-634 210,-897 210,-897 210,-897 210,-925.73 233.25,-945.67 259.2,-958.98"/>
<polygon fill="#000000" stroke="#000000" stroke-width="2.21" points="257.67,-962.13 268.21,-963.21 260.65,-955.79 257.67,-962.13"/>
<text text-anchor="middle" x="220.5" y="-761.8" font-family="Times,serif" font-size="14.00">689</text>
</g>
<!-- O_Sent (mail and online)&#45;&gt;O_Sent (mail and online) -->
<g id="edge25" class="edge">
<title>O_Sent (mail and online)&#45;&gt;O_Sent (mail and online)</title>
<path fill="none" stroke="#ff0000" stroke-width="0.63" stroke-dasharray="5,2" d="M300.37,-554.91C311.07,-553.62 318,-551.31 318,-548 318,-545.98 315.43,-544.34 310.99,-543.07"/>
<polygon fill="#ff0000" stroke="#ff0000" stroke-width="0.63" points="311.78,-539.65 301.31,-541.26 310.5,-546.54 311.78,-539.65"/>
<text text-anchor="middle" x="325" y="-544.3" font-family="Times,serif" font-size="14.00">54</text>
</g>
<!-- O_Sent (mail and online)&#45;&gt;W_Call after offers -->
<g id="edge46" class="edge">
<title>O_Sent (mail and online)&#45;&gt;W_Call after offers</title>
<path fill="none" stroke="#ff0000" stroke-width="0.53" stroke-dasharray="5,2" d="M199.96,-529.6C184.62,-485.46 144.09,-368.83 125.53,-315.42"/>
<polygon fill="#ff0000" stroke="#ff0000" stroke-width="0.53" points="128.87,-314.37 122.28,-306.08 122.26,-316.67 128.87,-314.37"/>
<text text-anchor="middle" x="171" y="-413.8" font-family="Times,serif" font-size="14.00">14</text>
</g>
<!-- O_Sent (mail and online)&#45;&gt;A_Cancelled -->
<g id="edge39" class="edge">
<title>O_Sent (mail and online)&#45;&gt;A_Cancelled</title>
<path fill="none" stroke="#ff0000" stroke-width="0.55" stroke-dasharray="5,2" d="M236.51,-529.59C259.31,-516.59 290.67,-498.7 315.41,-484.59"/>
<polygon fill="#ff0000" stroke="#ff0000" stroke-width="0.55" points="316.85,-487.79 323.8,-479.8 313.38,-481.71 316.85,-487.79"/>
<text text-anchor="middle" x="297" y="-500.8" font-family="Times,serif" font-size="14.00">24</text>
</g>
<!-- W_Call after offers&#45;&gt;O_Create Offer -->
<g id="edge38" class="edge">
<title>W_Call after offers&#45;&gt;O_Create Offer</title>
<path fill="none" stroke="#ff0000" stroke-width="0.57" stroke-dasharray="5,2" d="M105.34,-305.2C96.04,-321.88 84,-348.24 84,-373 84,-505.5 84,-505.5 84,-505.5 84,-608.74 206.08,-670.58 286.06,-700.01"/>
<polygon fill="#ff0000" stroke="#ff0000" stroke-width="0.57" points="284.67,-703.23 295.27,-703.32 287.04,-696.64 284.67,-703.23"/>
<text text-anchor="middle" x="92" y="-500.8" font-family="Times,serif" font-size="14.00">30</text>
</g>
<!-- W_Call after offers&#45;&gt;W_Call after offers -->
<g id="edge11" class="edge">
<title>W_Call after offers&#45;&gt;W_Call after offers</title>
<path fill="none" stroke="#000000" stroke-width="6" d="M197.97,-294.15C208.53,-292.91 215.5,-290.53 215.5,-287 215.5,-285.9 214.82,-284.91 213.56,-284.03"/>
<polygon fill="#000000" stroke="#000000" stroke-width="6" points="215.22,-279.04 204.21,-281.52 212.51,-289.18 215.22,-279.04"/>
<text text-anchor="middle" x="229.5" y="-283.3" font-family="Times,serif" font-size="14.00">2208</text>
</g>
<!-- A_Complete -->
<g id="node10" class="node">
<title>A_Complete</title>
<polygon fill="#efefff" stroke="black" points="311.5,-218 192.5,-218 192.5,-182 311.5,-182 311.5,-218"/>
<text text-anchor="middle" x="252" y="-196.3" font-family="Times,serif" font-size="14.00">A_Complete (689)</text>
</g>
<!-- W_Call after offers&#45;&gt;A_Complete -->
<g id="edge12" class="edge">
<title>W_Call after offers&#45;&gt;A_Complete</title>
<path fill="none" stroke="#000000" stroke-width="2.21" d="M139.57,-268.68C153.43,-258.74 171.43,-246.24 188,-236 194.13,-232.21 200.69,-228.38 207.19,-224.71"/>
<polygon fill="#000000" stroke="#000000" stroke-width="2.21" points="208.74,-227.85 215.8,-219.95 205.35,-221.73 208.74,-227.85"/>
<text text-anchor="middle" x="198.5" y="-239.8" font-family="Times,serif" font-size="14.00">689</text>
</g>
<!-- W_Call after offers&#45;&gt;A_Cancelled -->
<g id="edge14" class="edge">
<title>W_Call after offers&#45;&gt;A_Cancelled</title>
<path fill="none" stroke="#000000" stroke-width="1.87" d="M139.48,-305.38C147.01,-310.98 155.37,-317.23 163,-323 222.43,-367.91 234.3,-383.26 296,-425 301.41,-428.66 307.21,-432.36 312.98,-435.91"/>
<polygon fill="#000000" stroke="#000000" stroke-width="1.87" points="311.15,-438.89 321.52,-441.05 314.76,-432.9 311.15,-438.89"/>
<text text-anchor="middle" x="259.5" y="-370.3" font-family="Times,serif" font-size="14.00">551</text>
</g>
<!-- W_Validate application -->
<g id="node15" class="node">
<title>W_Validate application</title>
<polygon fill="#f4f4ff" stroke="black" points="582,-218 404,-218 404,-182 582,-182 582,-218"/>
<text text-anchor="middle" x="493" y="-196.3" font-family="Times,serif" font-size="14.00">W_Validate application (462)</text>
</g>
<!-- W_Call after offers&#45;&gt;W_Validate application -->
<g id="edge27" class="edge">
<title>W_Call after offers&#45;&gt;W_Validate application</title>
<path fill="none" stroke="#000000" stroke-width="0.77" d="M193.2,-268.59C254.73,-254.72 340.9,-235.29 405.07,-220.82"/>
<polygon fill="#000000" stroke="#000000" stroke-width="0.77" points="405.45,-224.33 414.44,-218.71 403.91,-217.5 405.45,-224.33"/>
<text text-anchor="middle" x="338.5" y="-239.8" font-family="Times,serif" font-size="14.00">111</text>
</g>
<!-- W_Call after offers&#45;&gt;end_node -->
<g id="edge50" class="edge">
<title>W_Call after offers&#45;&gt;end_node</title>
<path fill="none" stroke="#000000" stroke-width="1.94" d="M121.23,-268.68C128.27,-247.07 142.24,-209.62 162,-182 176.07,-162.33 196.22,-143.9 212.51,-130.61"/>
<polygon fill="#000000" stroke="#000000" stroke-width="1.94" points="214.59,-133.43 220.26,-124.48 210.25,-127.94 214.59,-133.43"/>
<text text-anchor="middle" x="172.5" y="-196.3" font-family="Times,serif" font-size="14.00">578</text>
</g>
<!-- A_Complete&#45;&gt;O_Create Offer -->
<g id="edge45" class="edge">
<title>A_Complete&#45;&gt;O_Create Offer</title>
<path fill="none" stroke="#ff0000" stroke-width="0.51" stroke-dasharray="5,2" d="M254.18,-218.17C256.34,-238.98 258.45,-274.99 252,-305 246.77,-329.31 234.23,-331.69 229,-356 225.64,-371.64 224.87,-376.54 229,-392 240.5,-435.09 250.2,-444.95 279,-479 302.04,-506.24 324.68,-498.27 341,-530 368.06,-582.59 363.78,-654.35 358.66,-693.22"/>
<polygon fill="#ff0000" stroke="#ff0000" stroke-width="0.51" points="355.22,-692.55 357.26,-702.95 362.15,-693.55 355.22,-692.55"/>
<text text-anchor="middle" x="282.5" y="-457.3" font-family="Times,serif" font-size="14.00">8</text>
</g>
<!-- A_Complete&#45;&gt;W_Call after offers -->
<g id="edge13" class="edge">
<title>A_Complete&#45;&gt;W_Call after offers</title>
<path fill="none" stroke="#000000" stroke-width="2.19" d="M240.58,-218.25C232.76,-228.92 221.57,-242.21 209,-251 202.49,-255.55 195.32,-259.6 187.92,-263.17"/>
<polygon fill="#000000" stroke="#000000" stroke-width="2.19" points="186.51,-259.97 178.8,-267.23 189.36,-266.36 186.51,-259.97"/>
<text text-anchor="middle" x="236.5" y="-239.8" font-family="Times,serif" font-size="14.00">678</text>
</g>
<!-- A_Complete&#45;&gt;A_Cancelled -->
<g id="edge44" class="edge">
<title>A_Complete&#45;&gt;A_Cancelled</title>
<path fill="none" stroke="#ff0000" stroke-width="0.5" stroke-dasharray="5,2" d="M272.32,-218.42C277.4,-223.63 282.41,-229.66 286,-236 309.09,-276.82 300.34,-292.85 313,-338 319.76,-362.1 320.97,-368.29 329,-392 333.59,-405.56 339.21,-420.44 344.05,-432.81"/>
<polygon fill="#ff0000" stroke="#ff0000" stroke-width="0.5" points="340.68,-433.8 347.61,-441.82 347.19,-431.23 340.68,-433.8"/>
<text text-anchor="middle" x="316.5" y="-326.8" font-family="Times,serif" font-size="14.00">3</text>
</g>
<!-- O_Cancelled -->
<g id="node12" class="node">
<title>O_Cancelled</title>
<polygon fill="#efefff" stroke="black" points="458,-392 338,-392 338,-356 458,-356 458,-392"/>
<text text-anchor="middle" x="398" y="-370.3" font-family="Times,serif" font-size="14.00">O_Cancelled (675)</text>
</g>
<!-- A_Cancelled&#45;&gt;O_Cancelled -->
<g id="edge15" class="edge">
<title>A_Cancelled&#45;&gt;O_Cancelled</title>
<path fill="none" stroke="#000000" stroke-width="1.95" d="M363.7,-442.8C369.38,-431.58 376.92,-416.67 383.49,-403.69"/>
<polygon fill="#000000" stroke="#000000" stroke-width="1.95" points="386.44,-405.6 387.83,-395.1 380.2,-402.44 386.44,-405.6"/>
<text text-anchor="middle" x="390.5" y="-413.8" font-family="Times,serif" font-size="14.00">583</text>
</g>
<!-- O_Cancelled&#45;&gt;W_Complete application -->
<g id="edge43" class="edge">
<title>O_Cancelled&#45;&gt;W_Complete application</title>
<path fill="none" stroke="#ff0000" stroke-width="0.5" stroke-dasharray="5,2" d="M458.39,-388.43C494.34,-400.38 533,-422.06 533,-460 533,-897 533,-897 533,-897 533,-944.28 485.73,-965.74 436.69,-975.28"/>
<polygon fill="#ff0000" stroke="#ff0000" stroke-width="0.5" points="436.2,-971.81 426.97,-977.01 437.43,-978.7 436.2,-971.81"/>
<text text-anchor="middle" x="536.5" y="-674.8" font-family="Times,serif" font-size="14.00">3</text>
</g>
<!-- O_Cancelled&#45;&gt;W_Call after offers -->
<g id="edge16" class="edge">
<title>O_Cancelled&#45;&gt;W_Call after offers</title>
<path fill="none" stroke="#000000" stroke-width="1.94" d="M373.57,-355.58C355.36,-342.9 331.84,-327.23 321,-323 286.1,-309.36 245.82,-301.03 210.24,-295.94"/>
<polygon fill="#000000" stroke="#000000" stroke-width="1.94" points="211.15,-292.54 200.78,-294.67 210.22,-299.47 211.15,-292.54"/>
<text text-anchor="middle" x="357.5" y="-326.8" font-family="Times,serif" font-size="14.00">578</text>
</g>
<!-- O_Cancelled&#45;&gt;O_Cancelled -->
<g id="edge26" class="edge">
<title>O_Cancelled&#45;&gt;O_Cancelled</title>
<path fill="none" stroke="#ff0000" stroke-width="0.72" stroke-dasharray="5,2" d="M458.18,-381.65C468.69,-380.63 476,-378.08 476,-374 476,-371.51 473.28,-369.6 468.78,-368.25"/>
<polygon fill="#ff0000" stroke="#ff0000" stroke-width="0.72" points="469.71,-364.86 459.25,-366.54 468.48,-371.75 469.71,-364.86"/>
<text text-anchor="middle" x="483" y="-370.3" font-family="Times,serif" font-size="14.00">90</text>
</g>
<!-- O_Cancelled&#45;&gt;W_Validate application -->
<g id="edge49" class="edge">
<title>O_Cancelled&#45;&gt;W_Validate application</title>
<path fill="none" stroke="#ff0000" stroke-width="0.5" stroke-dasharray="5,2" d="M415.25,-355.83C420.71,-350.24 426.7,-343.94 432,-338 444.61,-323.86 449.9,-321.62 459,-305 472.28,-280.74 481.45,-250.43 486.9,-228.8"/>
<polygon fill="#ff0000" stroke="#ff0000" stroke-width="0.5" points="490.29,-229.64 489.23,-219.09 483.49,-228 490.29,-229.64"/>
<text text-anchor="middle" x="478.5" y="-283.3" font-family="Times,serif" font-size="14.00">2</text>
</g>
<!-- O_Cancelled&#45;&gt;end_node -->
<g id="edge53" class="edge">
<title>O_Cancelled&#45;&gt;end_node</title>
<path fill="none" stroke="#ff0000" stroke-width="0.5" stroke-dasharray="5,2" d="M394.61,-355.62C386.86,-319.7 364.98,-236.14 320,-182 303.73,-162.42 282.12,-143.28 265.46,-129.67"/>
<polygon fill="#ff0000" stroke="#ff0000" stroke-width="0.5" points="267.83,-127.09 257.84,-123.55 263.45,-132.54 267.83,-127.09"/>
<text text-anchor="middle" x="364.5" y="-239.8" font-family="Times,serif" font-size="14.00">2</text>
</g>
<!-- W_Handle leads -->
<g id="node14" class="node">
<title>W_Handle leads</title>
<polygon fill="#e7e7ff" stroke="black" points="402.5,-1088 255.5,-1088 255.5,-1052 402.5,-1052 402.5,-1088"/>
<text text-anchor="middle" x="329" y="-1066.3" font-family="Times,serif" font-size="14.00">W_Handle leads (1008)</text>
</g>
<!-- A_Submitted&#45;&gt;W_Handle leads -->
<g id="edge18" class="edge">
<title>A_Submitted&#45;&gt;W_Handle leads</title>
<path fill="none" stroke="#000000" stroke-width="1.67" d="M360.11,-1138.8C354.96,-1127.58 348.12,-1112.67 342.16,-1099.69"/>
<polygon fill="#000000" stroke="#000000" stroke-width="1.67" points="345.42,-1098.39 338.07,-1090.76 339.06,-1101.31 345.42,-1098.39"/>
<text text-anchor="middle" x="361.5" y="-1109.8" font-family="Times,serif" font-size="14.00">470</text>
</g>
<!-- W_Handle leads&#45;&gt;W_Complete application -->
<g id="edge20" class="edge">
<title>W_Handle leads&#45;&gt;W_Complete application</title>
<path fill="none" stroke="#000000" stroke-width="1.67" d="M329,-1051.8C329,-1040.93 329,-1026.58 329,-1013.88"/>
<polygon fill="#000000" stroke="#000000" stroke-width="1.67" points="332.5,-1013.99 329,-1003.99 325.5,-1013.99 332.5,-1013.99"/>
<text text-anchor="middle" x="339.5" y="-1022.8" font-family="Times,serif" font-size="14.00">470</text>
</g>
<!-- W_Handle leads&#45;&gt;W_Handle leads -->
<g id="edge19" class="edge">
<title>W_Handle leads&#45;&gt;W_Handle leads</title>
<path fill="none" stroke="#000000" stroke-width="1.84" d="M402.96,-1077.32C413.45,-1076.14 420.5,-1073.7 420.5,-1070 420.5,-1068.09 418.63,-1066.52 415.37,-1065.28"/>
<polygon fill="#000000" stroke="#000000" stroke-width="1.84" points="416.18,-1061.88 405.68,-1063.25 414.74,-1068.73 416.18,-1061.88"/>
<text text-anchor="middle" x="431" y="-1066.3" font-family="Times,serif" font-size="14.00">538</text>
</g>
<!-- W_Validate application&#45;&gt;A_Cancelled -->
<g id="edge48" class="edge">
<title>W_Validate application&#45;&gt;A_Cancelled</title>
<path fill="none" stroke="#ff0000" stroke-width="0.5" stroke-dasharray="5,2" d="M499.48,-218.23C511.69,-253.87 533.89,-336.93 499,-392 482.59,-417.89 453.38,-434.12 425.54,-444.18"/>
<polygon fill="#ff0000" stroke="#ff0000" stroke-width="0.5" points="424.44,-440.86 416.09,-447.38 426.68,-447.49 424.44,-440.86"/>
<text text-anchor="middle" x="521.5" y="-326.8" font-family="Times,serif" font-size="14.00">2</text>
</g>
<!-- W_Validate application&#45;&gt;O_Cancelled -->
<g id="edge47" class="edge">
<title>W_Validate application&#45;&gt;O_Cancelled</title>
<path fill="none" stroke="#ff0000" stroke-width="0.5" stroke-dasharray="5,2" d="M479.16,-218.39C475.04,-223.89 470.66,-230.07 467,-236 444.34,-272.74 422.71,-317.88 409.89,-346.05"/>
<polygon fill="#ff0000" stroke="#ff0000" stroke-width="0.5" points="406.81,-344.37 405.9,-354.93 413.19,-347.25 406.81,-344.37"/>
<text text-anchor="middle" x="451.5" y="-283.3" font-family="Times,serif" font-size="14.00">2</text>
</g>
<!-- W_Validate application&#45;&gt;W_Validate application -->
<g id="edge28" class="edge">
<title>W_Validate application&#45;&gt;W_Validate application</title>
<path fill="none" stroke="#000000" stroke-width="0.82" d="M582.37,-207.01C593.03,-205.73 600,-203.4 600,-200 600,-197.98 597.54,-196.34 593.32,-195.07"/>
<polygon fill="#000000" stroke="#000000" stroke-width="0.82" points="594.06,-191.65 583.58,-193.22 592.75,-198.53 594.06,-191.65"/>
<text text-anchor="middle" x="610.5" y="-196.3" font-family="Times,serif" font-size="14.00">129</text>
</g>
<!-- A_Validating -->
<g id="node16" class="node">
<title>A_Validating</title>
<polygon fill="#fdfdff" stroke="black" points="860,-127 738,-127 738,-91 860,-91 860,-127"/>
<text text-anchor="middle" x="799" y="-105.3" font-family="Times,serif" font-size="14.00">A_Validating (111)</text>
</g>
<!-- W_Validate application&#45;&gt;A_Validating -->
<g id="edge29" class="edge">
<title>W_Validate application&#45;&gt;A_Validating</title>
<path fill="none" stroke="#000000" stroke-width="0.77" d="M567,-181.52C588.38,-176.19 611.69,-170.12 633,-164 668.07,-153.93 706.86,-141.38 738.13,-130.92"/>
<polygon fill="#000000" stroke="#000000" stroke-width="0.77" points="738.95,-134.34 747.32,-127.84 736.72,-127.7 738.95,-134.34"/>
<text text-anchor="middle" x="688.5" y="-152.8" font-family="Times,serif" font-size="14.00">111</text>
</g>
<!-- O_Accepted -->
<g id="node18" class="node">
<title>O_Accepted</title>
<polygon fill="#fefeff" stroke="black" points="720,-127 610,-127 610,-91 720,-91 720,-127"/>
<text text-anchor="middle" x="665" y="-105.3" font-family="Times,serif" font-size="14.00">O_Accepted (72)</text>
</g>
<!-- W_Validate application&#45;&gt;O_Accepted -->
<g id="edge32" class="edge">
<title>W_Validate application&#45;&gt;O_Accepted</title>
<path fill="none" stroke="#ff0000" stroke-width="0.67" stroke-dasharray="5,2" d="M551.56,-181.54C565.17,-176.6 579.36,-170.71 592,-164 607.61,-155.71 623.55,-144.32 636.54,-134.14"/>
<polygon fill="#ff0000" stroke="#ff0000" stroke-width="0.67" points="638.61,-136.96 644.22,-127.98 634.23,-131.5 638.61,-136.96"/>
<text text-anchor="middle" x="622" y="-152.8" font-family="Times,serif" font-size="14.00">72</text>
</g>
<!-- A_Denied -->
<g id="node20" class="node">
<title>A_Denied</title>
<polygon fill="#ffffff" stroke="black" points="542,-127 444,-127 444,-91 542,-91 542,-127"/>
<text text-anchor="middle" x="493" y="-105.3" font-family="Times,serif" font-size="14.00">A_Denied (37)</text>
</g>
<!-- W_Validate application&#45;&gt;A_Denied -->
<g id="edge35" class="edge">
<title>W_Validate application&#45;&gt;A_Denied</title>
<path fill="none" stroke="#ff0000" stroke-width="0.59" stroke-dasharray="5,2" d="M493,-181.84C493,-169.48 493,-152.54 493,-138.21"/>
<polygon fill="#ff0000" stroke="#ff0000" stroke-width="0.59" points="496.5,-138.3 493,-128.3 489.5,-138.3 496.5,-138.3"/>
<text text-anchor="middle" x="500" y="-152.8" font-family="Times,serif" font-size="14.00">37</text>
</g>
<!-- W_Validate application&#45;&gt;end_node -->
<g id="edge51" class="edge">
<title>W_Validate application&#45;&gt;end_node</title>
<path fill="none" stroke="#ff0000" stroke-width="0.77" stroke-dasharray="5,2" d="M434.86,-181.57C420.57,-176.55 405.5,-170.62 392,-164 381.04,-158.63 380.06,-154.15 369,-149 337.45,-134.31 299.01,-123.52 272.34,-117.06"/>
<polygon fill="#ff0000" stroke="#ff0000" stroke-width="0.77" points="273.35,-113.71 262.82,-114.83 271.75,-120.52 273.35,-113.71"/>
<text text-anchor="middle" x="402.5" y="-152.8" font-family="Times,serif" font-size="14.00">109</text>
</g>
<!-- O_Returned -->
<g id="node17" class="node">
<title>O_Returned</title>
<polygon fill="#fdfdff" stroke="black" points="921,-36 805,-36 805,0 921,0 921,-36"/>
<text text-anchor="middle" x="863" y="-14.3" font-family="Times,serif" font-size="14.00">O_Returned (111)</text>
</g>
<!-- A_Validating&#45;&gt;O_Returned -->
<g id="edge30" class="edge">
<title>A_Validating&#45;&gt;O_Returned</title>
<path fill="none" stroke="#000000" stroke-width="0.77" d="M811.34,-90.84C820.66,-77.87 833.63,-59.85 844.23,-45.1"/>
<polygon fill="#000000" stroke="#000000" stroke-width="0.77" points="846.8,-47.52 849.8,-37.36 841.12,-43.43 846.8,-47.52"/>
<text text-anchor="middle" x="846.5" y="-57.8" font-family="Times,serif" font-size="14.00">111</text>
</g>
<!-- O_Returned&#45;&gt;W_Validate application -->
<g id="edge31" class="edge">
<title>O_Returned&#45;&gt;W_Validate application</title>
<path fill="none" stroke="#000000" stroke-width="0.77" d="M870.46,-36.39C879.5,-60.53 890.99,-104.21 869,-131 834.82,-172.64 692.68,-188.81 593.31,-195.08"/>
<polygon fill="#000000" stroke="#000000" stroke-width="0.77" points="593.26,-191.57 583.49,-195.67 593.68,-198.56 593.26,-191.57"/>
<text text-anchor="middle" x="891.5" y="-105.3" font-family="Times,serif" font-size="14.00">111</text>
</g>
<!-- A_Pending -->
<g id="node19" class="node">
<title>A_Pending</title>
<polygon fill="#fefeff" stroke="black" points="659,-36 555,-36 555,0 659,0 659,-36"/>
<text text-anchor="middle" x="607" y="-14.3" font-family="Times,serif" font-size="14.00">A_Pending (72)</text>
</g>
<!-- O_Accepted&#45;&gt;A_Pending -->
<g id="edge33" class="edge">
<title>O_Accepted&#45;&gt;A_Pending</title>
<path fill="none" stroke="#ff0000" stroke-width="0.67" stroke-dasharray="5,2" d="M653.82,-90.84C645.45,-77.99 633.84,-60.19 624.28,-45.52"/>
<polygon fill="#ff0000" stroke="#ff0000" stroke-width="0.67" points="627.3,-43.73 618.9,-37.27 621.43,-47.56 627.3,-43.73"/>
<text text-anchor="middle" x="646" y="-57.8" font-family="Times,serif" font-size="14.00">72</text>
</g>
<!-- A_Pending&#45;&gt;W_Validate application -->
<g id="edge34" class="edge">
<title>A_Pending&#45;&gt;W_Validate application</title>
<path fill="none" stroke="#ff0000" stroke-width="0.67" stroke-dasharray="5,2" d="M599.87,-36.4C590.25,-59.05 571.89,-99.46 551,-131 541.05,-146.03 528.18,-161.43 517.1,-173.76"/>
<polygon fill="#ff0000" stroke="#ff0000" stroke-width="0.67" points="514.63,-171.27 510.45,-181.01 519.79,-176 514.63,-171.27"/>
<text text-anchor="middle" x="582" y="-105.3" font-family="Times,serif" font-size="14.00">72</text>
</g>
<!-- O_Refused -->
<g id="node21" class="node">
<title>O_Refused</title>
<polygon fill="#ffffff" stroke="black" points="515,-36 411,-36 411,0 515,0 515,-36"/>
<text text-anchor="middle" x="463" y="-14.3" font-family="Times,serif" font-size="14.00">O_Refused (37)</text>
</g>
<!-- A_Denied&#45;&gt;O_Refused -->
<g id="edge36" class="edge">
<title>A_Denied&#45;&gt;O_Refused</title>
<path fill="none" stroke="#ff0000" stroke-width="0.59" stroke-dasharray="5,2" d="M487.22,-90.84C482.97,-78.24 477.11,-60.86 472.22,-46.36"/>
<polygon fill="#ff0000" stroke="#ff0000" stroke-width="0.59" points="475.66,-45.61 469.15,-37.25 469.03,-47.85 475.66,-45.61"/>
<text text-anchor="middle" x="487" y="-57.8" font-family="Times,serif" font-size="14.00">37</text>
</g>
<!-- O_Refused&#45;&gt;W_Validate application -->
<g id="edge37" class="edge">
<title>O_Refused&#45;&gt;W_Validate application</title>
<path fill="none" stroke="#ff0000" stroke-width="0.59" stroke-dasharray="5,2" d="M448.13,-36.28C430.96,-58.46 406.78,-98.01 421,-131 428.5,-148.39 442.87,-163.4 456.81,-174.87"/>
<polygon fill="#ff0000" stroke="#ff0000" stroke-width="0.59" points="454.64,-177.61 464.68,-180.99 458.94,-172.08 454.64,-177.61"/>
<text text-anchor="middle" x="428" y="-105.3" font-family="Times,serif" font-size="14.00">37</text>
</g>
</g>
</svg>
