<?xml version="1.0" encoding="UTF-8" standalone="no"?>
<!DOCTYPE svg PUBLIC "-//W3C//DTD SVG 1.1//EN"
 "http://www.w3.org/Graphics/SVG/1.1/DTD/svg11.dtd">
<!-- Generated by graphviz version 7.0.5 (0)
 -->
<!-- Title: dfg Pages: 1 -->
<svg width="1046pt" height="835pt"
 viewBox="0.00 0.00 1046.00 835.00" xmlns="http://www.w3.org/2000/svg" xmlns:xlink="http://www.w3.org/1999/xlink">
<g id="graph0" class="graph" transform="scale(1 1) rotate(0) translate(4 831)">
<title>dfg</title>
<polygon fill="white" stroke="none" points="-4,4 -4,-831 1042,-831 1042,4 -4,4"/>
<!-- start_node -->
<g id="node1" class="node">
<title>start_node</title>
<ellipse fill="none" stroke="black" cx="140" cy="-809" rx="18" ry="18"/>
<text text-anchor="start" x="135.5" y="-805.3" font-family="Times,serif" font-size="14.00">●</text>
</g>
<!-- A_Create Application -->
<g id="node2" class="node">
<title>A_Create Application</title>
<polygon fill="#eeeeff" stroke="black" points="227.5,-740 52.5,-740 52.5,-704 227.5,-704 227.5,-740"/>
<text text-anchor="middle" x="140" y="-718.3" font-family="Times,serif" font-size="14.00">A_Create Application (4249)</text>
</g>
<!-- start_node&#45;&gt;A_Create Application -->
<g id="edge1" class="edge">
<title>start_node&#45;&gt;A_Create Application</title>
<path fill="none" stroke="#000000" stroke-width="2.17" d="M140,-790.8C140,-780.15 140,-766.18 140,-753.69"/>
<polygon fill="#000000" stroke="#000000" stroke-width="2.17" points="143.5,-753.75 140,-743.75 136.5,-753.75 143.5,-753.75"/>
<text text-anchor="middle" x="154" y="-761.8" font-family="Times,serif" font-size="14.00">4249</text>
</g>
<!-- A_Submitted -->
<g id="node3" class="node">
<title>A_Submitted</title>
<polygon fill="#f3f3ff" stroke="black" points="204.5,-653 75.5,-653 75.5,-617 204.5,-617 204.5,-653"/>
<text text-anchor="middle" x="140" y="-631.3" font-family="Times,serif" font-size="14.00">A_Submitted (2990)</text>
</g>
<!-- A_Create Application&#45;&gt;A_Submitted -->
<g id="edge2" class="edge">
<title>A_Create Application&#45;&gt;A_Submitted</title>
<path fill="none" stroke="#000000" stroke-width="1.66" d="M140,-703.8C140,-692.93 140,-678.58 140,-665.88"/>
<polygon fill="#000000" stroke="#000000" stroke-width="1.66" points="143.5,-665.98 140,-655.98 136.5,-665.98 143.5,-665.98"/>
<text text-anchor="middle" x="154" y="-674.8" font-family="Times,serif" font-size="14.00">2990</text>
</g>
<!-- W_Complete application -->
<g id="node5" class="node">
<title>W_Complete application</title>
<polygon fill="#bdbdff" stroke="black" points="255,-479 55,-479 55,-443 255,-443 255,-479"/>
<text text-anchor="middle" x="155" y="-457.3" font-family="Times,serif" font-size="14.00">W_Complete application (16809)</text>
</g>
<!-- A_Create Application&#45;&gt;W_Complete application -->
<g id="edge20" class="edge">
<title>A_Create Application&#45;&gt;W_Complete application</title>
<path fill="none" stroke="#000000" stroke-width="0.87" d="M163.06,-703.65C194.97,-677.88 250.62,-626 268,-566 272.45,-550.63 275.87,-543.93 268,-530 256.63,-509.88 236.65,-495.05 216.63,-484.48"/>
<polygon fill="#000000" stroke="#000000" stroke-width="0.87" points="218.22,-481.36 207.7,-480.06 215.11,-487.63 218.22,-481.36"/>
<text text-anchor="middle" x="275" y="-587.8" font-family="Times,serif" font-size="14.00">1056</text>
</g>
<!-- A_Concept -->
<g id="node6" class="node">
<title>A_Concept</title>
<polygon fill="#eeeeff" stroke="black" points="118,-392 0,-392 0,-356 118,-356 118,-392"/>
<text text-anchor="middle" x="59" y="-370.3" font-family="Times,serif" font-size="14.00">A_Concept (4249)</text>
</g>
<!-- A_Create Application&#45;&gt;A_Concept -->
<g id="edge34" class="edge">
<title>A_Create Application&#45;&gt;A_Concept</title>
<path fill="none" stroke="#ff0000" stroke-width="0.53" stroke-dasharray="5,2" d="M86.81,-703.6C57.5,-690.32 27,-668.65 27,-636 27,-636 27,-636 27,-460 27,-439.5 35.25,-417.9 43.38,-401.6"/>
<polygon fill="#ff0000" stroke="#ff0000" stroke-width="0.53" points="46.4,-403.38 47.97,-392.9 40.21,-400.11 46.4,-403.38"/>
<text text-anchor="middle" x="37.5" y="-544.3" font-family="Times,serif" font-size="14.00">203</text>
</g>
<!-- W_Handle leads -->
<g id="node4" class="node">
<title>W_Handle leads</title>
<polygon fill="#e6e6ff" stroke="black" points="213.5,-566 66.5,-566 66.5,-530 213.5,-530 213.5,-566"/>
<text text-anchor="middle" x="140" y="-544.3" font-family="Times,serif" font-size="14.00">W_Handle leads (6328)</text>
</g>
<!-- A_Submitted&#45;&gt;W_Handle leads -->
<g id="edge3" class="edge">
<title>A_Submitted&#45;&gt;W_Handle leads</title>
<path fill="none" stroke="#000000" stroke-width="1.66" d="M140,-616.8C140,-605.93 140,-591.58 140,-578.88"/>
<polygon fill="#000000" stroke="#000000" stroke-width="1.66" points="143.5,-578.98 140,-568.98 136.5,-578.98 143.5,-578.98"/>
<text text-anchor="middle" x="154" y="-587.8" font-family="Times,serif" font-size="14.00">2990</text>
</g>
<!-- W_Handle leads&#45;&gt;W_Handle leads -->
<g id="edge4" class="edge">
<title>W_Handle leads&#45;&gt;W_Handle leads</title>
<path fill="none" stroke="#000000" stroke-width="1.8" d="M213.96,-555.32C224.45,-554.14 231.5,-551.7 231.5,-548 231.5,-546.09 229.63,-544.52 226.37,-543.28"/>
<polygon fill="#000000" stroke="#000000" stroke-width="1.8" points="227.13,-539.87 216.62,-541.24 225.69,-546.72 227.13,-539.87"/>
<text text-anchor="middle" x="245.5" y="-544.3" font-family="Times,serif" font-size="14.00">3338</text>
</g>
<!-- W_Handle leads&#45;&gt;W_Complete application -->
<g id="edge5" class="edge">
<title>W_Handle leads&#45;&gt;W_Complete application</title>
<path fill="none" stroke="#000000" stroke-width="1.66" d="M143.04,-529.8C144.97,-518.81 147.54,-504.28 149.8,-491.48"/>
<polygon fill="#000000" stroke="#000000" stroke-width="1.66" points="153.19,-492.39 151.48,-481.94 146.3,-491.18 153.19,-492.39"/>
<text text-anchor="middle" x="163" y="-500.8" font-family="Times,serif" font-size="14.00">2990</text>
</g>
<!-- W_Complete application&#45;&gt;W_Complete application -->
<g id="edge21" class="edge">
<title>W_Complete application&#45;&gt;W_Complete application</title>
<path fill="none" stroke="#000000" stroke-width="2.7" d="M255.29,-467.81C266.07,-466.5 273,-464.23 273,-461 273,-459.54 271.58,-458.27 269.02,-457.2"/>
<polygon fill="#000000" stroke="#000000" stroke-width="2.7" points="269.8,-453.79 259.28,-455.07 268.3,-460.63 269.8,-453.79"/>
<text text-anchor="middle" x="287" y="-457.3" font-family="Times,serif" font-size="14.00">5566</text>
</g>
<!-- W_Complete application&#45;&gt;A_Concept -->
<g id="edge6" class="edge">
<title>W_Complete application&#45;&gt;A_Concept</title>
<path fill="none" stroke="#000000" stroke-width="2.09" d="M81.18,-442.71C73.35,-438.13 66.31,-432.33 61,-425 56.9,-419.34 55.18,-412.3 54.75,-405.31"/>
<polygon fill="#000000" stroke="#000000" stroke-width="2.09" points="58.24,-405.57 55.1,-395.45 51.24,-405.32 58.24,-405.57"/>
<text text-anchor="middle" x="75" y="-413.8" font-family="Times,serif" font-size="14.00">4046</text>
</g>
<!-- A_Accepted -->
<g id="node7" class="node">
<title>A_Accepted</title>
<polygon fill="#eeeeff" stroke="black" points="173,-305 49,-305 49,-269 173,-269 173,-305"/>
<text text-anchor="middle" x="111" y="-283.3" font-family="Times,serif" font-size="14.00">A_Accepted (4249)</text>
</g>
<!-- W_Complete application&#45;&gt;A_Accepted -->
<g id="edge8" class="edge">
<title>W_Complete application&#45;&gt;A_Accepted</title>
<path fill="none" stroke="#000000" stroke-width="1.64" d="M150.9,-442.65C144.7,-416.6 132.44,-365.86 121,-323 120.5,-321.12 119.97,-319.18 119.43,-317.23"/>
<polygon fill="#000000" stroke="#000000" stroke-width="1.64" points="122.86,-316.48 116.78,-307.8 116.12,-318.38 122.86,-316.48"/>
<text text-anchor="middle" x="153" y="-370.3" font-family="Times,serif" font-size="14.00">2948</text>
</g>
<!-- W_Call after offers -->
<g id="node11" class="node">
<title>W_Call after offers</title>
<polygon fill="#9b9bff" stroke="black" points="707,-392 537,-392 537,-356 707,-356 707,-392"/>
<text text-anchor="middle" x="622" y="-370.3" font-family="Times,serif" font-size="14.00">W_Call after offers (25570)</text>
</g>
<!-- W_Complete application&#45;&gt;W_Call after offers -->
<g id="edge13" class="edge">
<title>W_Complete application&#45;&gt;W_Call after offers</title>
<path fill="none" stroke="#000000" stroke-width="2.17" d="M250.91,-442.54C330.73,-428.02 443.88,-407.42 524.21,-392.8"/>
<polygon fill="#000000" stroke="#000000" stroke-width="2.17" points="524.37,-396.33 533.58,-391.09 523.11,-389.44 524.37,-396.33"/>
<text text-anchor="middle" x="430" y="-413.8" font-family="Times,serif" font-size="14.00">4249</text>
</g>
<!-- A_Concept&#45;&gt;W_Complete application -->
<g id="edge7" class="edge">
<title>A_Concept&#45;&gt;W_Complete application</title>
<path fill="none" stroke="#000000" stroke-width="1.64" d="M76.85,-392.46C86.99,-402.22 100.01,-414.49 112,-425 115.83,-428.35 119.91,-431.82 123.97,-435.2"/>
<polygon fill="#000000" stroke="#000000" stroke-width="1.64" points="121.44,-437.65 131.39,-441.28 125.88,-432.23 121.44,-437.65"/>
<text text-anchor="middle" x="126" y="-413.8" font-family="Times,serif" font-size="14.00">2948</text>
</g>
<!-- A_Concept&#45;&gt;A_Accepted -->
<g id="edge22" class="edge">
<title>A_Concept&#45;&gt;A_Accepted</title>
<path fill="none" stroke="#000000" stroke-width="0.97" d="M69.52,-355.8C76.66,-344.12 86.26,-328.45 94.42,-315.11"/>
<polygon fill="#000000" stroke="#000000" stroke-width="0.97" points="97.31,-317.08 99.55,-306.72 91.34,-313.43 97.31,-317.08"/>
<text text-anchor="middle" x="103" y="-326.8" font-family="Times,serif" font-size="14.00">1301</text>
</g>
<!-- O_Create Offer -->
<g id="node8" class="node">
<title>O_Create Offer</title>
<polygon fill="#eeeeff" stroke="black" points="181.5,-214 40.5,-214 40.5,-178 181.5,-178 181.5,-214"/>
<text text-anchor="middle" x="111" y="-192.3" font-family="Times,serif" font-size="14.00">O_Create Offer (4382)</text>
</g>
<!-- A_Accepted&#45;&gt;O_Create Offer -->
<g id="edge9" class="edge">
<title>A_Accepted&#45;&gt;O_Create Offer</title>
<path fill="none" stroke="#000000" stroke-width="2.17" d="M111,-268.84C111,-257.1 111,-241.2 111,-227.35"/>
<polygon fill="#000000" stroke="#000000" stroke-width="2.17" points="114.5,-227.69 111,-217.69 107.5,-227.69 114.5,-227.69"/>
<text text-anchor="middle" x="125" y="-239.8" font-family="Times,serif" font-size="14.00">4249</text>
</g>
<!-- O_Created -->
<g id="node9" class="node">
<title>O_Created</title>
<polygon fill="#eeeeff" stroke="black" points="181.5,-123 66.5,-123 66.5,-87 181.5,-87 181.5,-123"/>
<text text-anchor="middle" x="124" y="-101.3" font-family="Times,serif" font-size="14.00">O_Created (4382)</text>
</g>
<!-- O_Create Offer&#45;&gt;O_Created -->
<g id="edge10" class="edge">
<title>O_Create Offer&#45;&gt;O_Created</title>
<path fill="none" stroke="#000000" stroke-width="2.22" d="M99.17,-177.85C93.31,-167.17 88.38,-153.2 93,-141 93.93,-138.55 95.11,-136.17 96.48,-133.86"/>
<polygon fill="#000000" stroke="#000000" stroke-width="2.22" points="99.26,-135.99 102.41,-125.87 93.64,-131.81 99.26,-135.99"/>
<text text-anchor="middle" x="107" y="-144.8" font-family="Times,serif" font-size="14.00">4382</text>
</g>
<!-- O_Created&#45;&gt;O_Create Offer -->
<g id="edge31" class="edge">
<title>O_Created&#45;&gt;O_Create Offer</title>
<path fill="none" stroke="#ff0000" stroke-width="0.5" stroke-dasharray="5,2" d="M123.78,-123.21C123.45,-132.89 122.7,-145.17 121,-156 120.42,-159.7 119.64,-163.57 118.78,-167.36"/>
<polygon fill="#ff0000" stroke="#ff0000" stroke-width="0.5" points="115.41,-166.39 116.38,-176.94 122.2,-168.09 115.41,-166.39"/>
<text text-anchor="middle" x="133.5" y="-144.8" font-family="Times,serif" font-size="14.00">133</text>
</g>
<!-- O_Sent (mail and online) -->
<g id="node10" class="node">
<title>O_Sent (mail and online)</title>
<polygon fill="#eeeeff" stroke="black" points="264.5,-36 69.5,-36 69.5,0 264.5,0 264.5,-36"/>
<text text-anchor="middle" x="167" y="-14.3" font-family="Times,serif" font-size="14.00">O_Sent (mail and online) (4382)</text>
</g>
<!-- O_Created&#45;&gt;O_Sent (mail and online) -->
<g id="edge11" class="edge">
<title>O_Created&#45;&gt;O_Sent (mail and online)</title>
<path fill="none" stroke="#000000" stroke-width="2.17" d="M132.7,-86.8C138.32,-75.7 145.77,-60.97 152.29,-48.08"/>
<polygon fill="#000000" stroke="#000000" stroke-width="2.17" points="155.29,-49.9 156.68,-39.4 149.04,-46.74 155.29,-49.9"/>
<text text-anchor="middle" x="163" y="-57.8" font-family="Times,serif" font-size="14.00">4249</text>
</g>
<!-- O_Sent (mail and online)&#45;&gt;W_Complete application -->
<g id="edge12" class="edge">
<title>O_Sent (mail and online)&#45;&gt;W_Complete application</title>
<path fill="none" stroke="#000000" stroke-width="2.17" d="M181.8,-36.28C194.24,-52.61 210,-78.37 210,-104 210,-375 210,-375 210,-375 210,-396.92 196.95,-417.65 183.57,-433.15"/>
<polygon fill="#000000" stroke="#000000" stroke-width="2.17" points="181.32,-430.42 177.09,-440.13 186.45,-435.18 181.32,-430.42"/>
<text text-anchor="middle" x="224" y="-239.8" font-family="Times,serif" font-size="14.00">4249</text>
</g>
<!-- O_Sent (mail and online)&#45;&gt;O_Sent (mail and online) -->
<g id="edge32" class="edge">
<title>O_Sent (mail and online)&#45;&gt;O_Sent (mail and online)</title>
<path fill="none" stroke="#ff0000" stroke-width="0.5" stroke-dasharray="5,2" d="M264.74,-24.86C275.53,-23.56 282.5,-21.27 282.5,-18 282.5,-15.96 279.78,-14.3 275.1,-13.02"/>
<polygon fill="#ff0000" stroke="#ff0000" stroke-width="0.5" points="275.95,-9.62 265.49,-11.27 274.7,-16.5 275.95,-9.62"/>
<text text-anchor="middle" x="293" y="-14.3" font-family="Times,serif" font-size="14.00">133</text>
</g>
<!-- W_Call after offers&#45;&gt;W_Call after offers -->
<g id="edge14" class="edge">
<title>W_Call after offers&#45;&gt;W_Call after offers</title>
<path fill="none" stroke="#000000" stroke-width="6" d="M707.25,-381.1C717.95,-379.85 725,-377.48 725,-374 725,-372.91 724.31,-371.93 723.04,-371.06"/>
<polygon fill="#000000" stroke="#000000" stroke-width="6" points="724.5,-366.02 713.49,-368.54 721.82,-376.17 724.5,-366.02"/>
<text text-anchor="middle" x="742" y="-370.3" font-family="Times,serif" font-size="14.00">13700</text>
</g>
<!-- A_Complete -->
<g id="node12" class="node">
<title>A_Complete</title>
<polygon fill="#eeeeff" stroke="black" points="898,-305 772,-305 772,-269 898,-269 898,-305"/>
<text text-anchor="middle" x="835" y="-283.3" font-family="Times,serif" font-size="14.00">A_Complete (4249)</text>
</g>
<!-- W_Call after offers&#45;&gt;A_Complete -->
<g id="edge15" class="edge">
<title>W_Call after offers&#45;&gt;A_Complete</title>
<path fill="none" stroke="#000000" stroke-width="2.17" d="M655.2,-355.6C675.37,-345.39 701.81,-332.65 726,-323 737.91,-318.25 750.73,-313.67 763.26,-309.48"/>
<polygon fill="#000000" stroke="#000000" stroke-width="2.17" points="764.11,-312.89 772.52,-306.45 761.93,-306.24 764.11,-312.89"/>
<text text-anchor="middle" x="740" y="-326.8" font-family="Times,serif" font-size="14.00">4249</text>
</g>
<!-- A_Cancelled -->
<g id="node13" class="node">
<title>A_Cancelled</title>
<polygon fill="#f2f2ff" stroke="black" points="374.5,-305 247.5,-305 247.5,-269 374.5,-269 374.5,-305"/>
<text text-anchor="middle" x="311" y="-283.3" font-family="Times,serif" font-size="14.00">A_Cancelled (3372)</text>
</g>
<!-- W_Call after offers&#45;&gt;A_Cancelled -->
<g id="edge17" class="edge">
<title>W_Call after offers&#45;&gt;A_Cancelled</title>
<path fill="none" stroke="#000000" stroke-width="1.81" d="M536.7,-372.45C486.86,-369.39 423.79,-360.68 372,-338 358.88,-332.25 346.3,-322.86 336.01,-313.75"/>
<polygon fill="#000000" stroke="#000000" stroke-width="1.81" points="338.6,-311.39 328.91,-307.12 333.82,-316.5 338.6,-311.39"/>
<text text-anchor="middle" x="386" y="-326.8" font-family="Times,serif" font-size="14.00">3372</text>
</g>
<!-- W_Validate application -->
<g id="node15" class="node">
<title>W_Validate application</title>
<polygon fill="#f1f1ff" stroke="black" points="714.5,-305 529.5,-305 529.5,-269 714.5,-269 714.5,-305"/>
<text text-anchor="middle" x="622" y="-283.3" font-family="Times,serif" font-size="14.00">W_Validate application (3508)</text>
</g>
<!-- W_Call after offers&#45;&gt;W_Validate application -->
<g id="edge23" class="edge">
<title>W_Call after offers&#45;&gt;W_Validate application</title>
<path fill="none" stroke="#000000" stroke-width="0.8" d="M622,-355.8C622,-344.47 622,-329.36 622,-316.29"/>
<polygon fill="#000000" stroke="#000000" stroke-width="0.8" points="625.5,-316.68 622,-306.68 618.5,-316.68 625.5,-316.68"/>
<text text-anchor="middle" x="632.5" y="-326.8" font-family="Times,serif" font-size="14.00">877</text>
</g>
<!-- end_node -->
<g id="node22" class="node">
<title>end_node</title>
<ellipse fill="none" stroke="black" cx="1016" cy="-196" rx="18" ry="18"/>
<ellipse fill="none" stroke="black" cx="1016" cy="-196" rx="22" ry="22"/>
<text text-anchor="start" x="1011.5" y="-192.3" font-family="Times,serif" font-size="14.00">■</text>
</g>
<!-- W_Call after offers&#45;&gt;end_node -->
<g id="edge38" class="edge">
<title>W_Call after offers&#45;&gt;end_node</title>
<path fill="none" stroke="#000000" stroke-width="1.81" d="M707.34,-367.04C767.06,-359.58 846.63,-342.78 907,-305 942.17,-282.99 974.89,-247.78 995.13,-223.59"/>
<polygon fill="#000000" stroke="#000000" stroke-width="1.81" points="997.64,-226.04 1001.27,-216.09 992.22,-221.61 997.64,-226.04"/>
<text text-anchor="middle" x="964" y="-283.3" font-family="Times,serif" font-size="14.00">3372</text>
</g>
<!-- A_Complete&#45;&gt;W_Call after offers -->
<g id="edge16" class="edge">
<title>A_Complete&#45;&gt;W_Call after offers</title>
<path fill="none" stroke="#000000" stroke-width="2.17" d="M811.21,-305.28C795.58,-315.96 774.34,-329.25 754,-338 741.79,-343.25 728.59,-347.88 715.43,-351.91"/>
<polygon fill="#000000" stroke="#000000" stroke-width="2.17" points="714.61,-348.5 706,-354.67 716.58,-355.22 714.61,-348.5"/>
<text text-anchor="middle" x="795" y="-326.8" font-family="Times,serif" font-size="14.00">4249</text>
</g>
<!-- O_Cancelled -->
<g id="node14" class="node">
<title>O_Cancelled</title>
<polygon fill="#f1f1ff" stroke="black" points="365.5,-214 238.5,-214 238.5,-178 365.5,-178 365.5,-214"/>
<text text-anchor="middle" x="302" y="-192.3" font-family="Times,serif" font-size="14.00">O_Cancelled (3505)</text>
</g>
<!-- A_Cancelled&#45;&gt;O_Cancelled -->
<g id="edge18" class="edge">
<title>A_Cancelled&#45;&gt;O_Cancelled</title>
<path fill="none" stroke="#000000" stroke-width="1.81" d="M309.26,-268.84C308.06,-256.97 306.44,-240.87 305.03,-226.92"/>
<polygon fill="#000000" stroke="#000000" stroke-width="1.81" points="308.53,-226.74 304.04,-217.14 301.56,-227.44 308.53,-226.74"/>
<text text-anchor="middle" x="321" y="-239.8" font-family="Times,serif" font-size="14.00">3372</text>
</g>
<!-- O_Cancelled&#45;&gt;W_Call after offers -->
<g id="edge19" class="edge">
<title>O_Cancelled&#45;&gt;W_Call after offers</title>
<path fill="none" stroke="#000000" stroke-width="1.81" d="M332.28,-214.49C369.81,-236.08 435.83,-273.78 493,-305 520.72,-320.14 552.05,-336.67 576.9,-349.64"/>
<polygon fill="#000000" stroke="#000000" stroke-width="1.81" points="575.26,-352.73 585.74,-354.25 578.49,-346.52 575.26,-352.73"/>
<text text-anchor="middle" x="507" y="-283.3" font-family="Times,serif" font-size="14.00">3372</text>
</g>
<!-- O_Cancelled&#45;&gt;O_Cancelled -->
<g id="edge33" class="edge">
<title>O_Cancelled&#45;&gt;O_Cancelled</title>
<path fill="none" stroke="#ff0000" stroke-width="0.5" stroke-dasharray="5,2" d="M365.9,-204.24C376.33,-203.06 383.5,-200.31 383.5,-196 383.5,-193.37 380.84,-191.32 376.4,-189.86"/>
<polygon fill="#ff0000" stroke="#ff0000" stroke-width="0.5" points="377.13,-186.44 366.64,-187.91 375.76,-193.3 377.13,-186.44"/>
<text text-anchor="middle" x="394" y="-192.3" font-family="Times,serif" font-size="14.00">133</text>
</g>
<!-- W_Validate application&#45;&gt;W_Validate application -->
<g id="edge24" class="edge">
<title>W_Validate application&#45;&gt;W_Validate application</title>
<path fill="none" stroke="#000000" stroke-width="0.8" d="M714.7,-293.96C725.48,-292.68 732.5,-290.36 732.5,-287 732.5,-284.95 729.89,-283.29 725.42,-282.02"/>
<polygon fill="#000000" stroke="#000000" stroke-width="0.8" points="726.36,-278.63 715.89,-280.26 725.09,-285.52 726.36,-278.63"/>
<text text-anchor="middle" x="743" y="-283.3" font-family="Times,serif" font-size="14.00">877</text>
</g>
<!-- A_Validating -->
<g id="node16" class="node">
<title>A_Validating</title>
<polygon fill="#fcfcff" stroke="black" points="783,-214 661,-214 661,-178 783,-178 783,-214"/>
<text text-anchor="middle" x="722" y="-192.3" font-family="Times,serif" font-size="14.00">A_Validating (877)</text>
</g>
<!-- W_Validate application&#45;&gt;A_Validating -->
<g id="edge25" class="edge">
<title>W_Validate application&#45;&gt;A_Validating</title>
<path fill="none" stroke="#000000" stroke-width="0.8" d="M641.28,-268.84C656.26,-255.51 677.25,-236.82 694.07,-221.85"/>
<polygon fill="#000000" stroke="#000000" stroke-width="0.8" points="696.39,-224.48 701.53,-215.22 691.73,-219.25 696.39,-224.48"/>
<text text-anchor="middle" x="687.5" y="-239.8" font-family="Times,serif" font-size="14.00">877</text>
</g>
<!-- O_Accepted -->
<g id="node18" class="node">
<title>O_Accepted</title>
<polygon fill="#fcfcff" stroke="black" points="975.5,-214 858.5,-214 858.5,-178 975.5,-178 975.5,-214"/>
<text text-anchor="middle" x="917" y="-192.3" font-family="Times,serif" font-size="14.00">O_Accepted (742)</text>
</g>
<!-- W_Validate application&#45;&gt;O_Accepted -->
<g id="edge28" class="edge">
<title>W_Validate application&#45;&gt;O_Accepted</title>
<path fill="none" stroke="#000000" stroke-width="0.75" d="M714.75,-274.36C760.94,-267.82 811.43,-259.31 833,-251 852.02,-243.67 871.29,-231.68 886.57,-220.86"/>
<polygon fill="#000000" stroke="#000000" stroke-width="0.75" points="888.6,-223.71 894.62,-214.99 884.47,-218.05 888.6,-223.71"/>
<text text-anchor="middle" x="872.5" y="-239.8" font-family="Times,serif" font-size="14.00">742</text>
</g>
<!-- A_Denied -->
<g id="node20" class="node">
<title>A_Denied</title>
<polygon fill="#ffffff" stroke="black" points="585.5,-214 480.5,-214 480.5,-178 585.5,-178 585.5,-214"/>
<text text-anchor="middle" x="533" y="-192.3" font-family="Times,serif" font-size="14.00">A_Denied (135)</text>
</g>
<!-- W_Validate application&#45;&gt;A_Denied -->
<g id="edge35" class="edge">
<title>W_Validate application&#45;&gt;A_Denied</title>
<path fill="none" stroke="#ff0000" stroke-width="0.5" stroke-dasharray="5,2" d="M604.84,-268.84C591.51,-255.51 572.82,-236.82 557.85,-221.85"/>
<polygon fill="#ff0000" stroke="#ff0000" stroke-width="0.5" points="560.49,-219.54 550.95,-214.95 555.54,-224.49 560.49,-219.54"/>
<text text-anchor="middle" x="595.5" y="-239.8" font-family="Times,serif" font-size="14.00">135</text>
</g>
<!-- W_Validate application&#45;&gt;end_node -->
<g id="edge39" class="edge">
<title>W_Validate application&#45;&gt;end_node</title>
<path fill="none" stroke="#000000" stroke-width="0.8" d="M714.77,-274.66C784.32,-266 870.28,-254.91 887,-251 907.12,-246.29 911.42,-242.6 931,-236 954.97,-227.92 962.32,-229.2 985,-218 986.42,-217.3 987.85,-216.54 989.28,-215.74"/>
<polygon fill="#000000" stroke="#000000" stroke-width="0.8" points="990.76,-218.94 997.44,-210.72 987.09,-212.98 990.76,-218.94"/>
<text text-anchor="middle" x="941.5" y="-239.8" font-family="Times,serif" font-size="14.00">877</text>
</g>
<!-- O_Returned -->
<g id="node17" class="node">
<title>O_Returned</title>
<polygon fill="#fcfcff" stroke="black" points="713,-123 597,-123 597,-87 713,-87 713,-123"/>
<text text-anchor="middle" x="655" y="-101.3" font-family="Times,serif" font-size="14.00">O_Returned (877)</text>
</g>
<!-- A_Validating&#45;&gt;O_Returned -->
<g id="edge26" class="edge">
<title>A_Validating&#45;&gt;O_Returned</title>
<path fill="none" stroke="#000000" stroke-width="0.8" d="M709.08,-177.84C699.32,-164.87 685.75,-146.85 674.65,-132.1"/>
<polygon fill="#000000" stroke="#000000" stroke-width="0.8" points="677.65,-130.26 668.84,-124.38 672.06,-134.47 677.65,-130.26"/>
<text text-anchor="middle" x="702.5" y="-144.8" font-family="Times,serif" font-size="14.00">877</text>
</g>
<!-- O_Returned&#45;&gt;W_Validate application -->
<g id="edge27" class="edge">
<title>O_Returned&#45;&gt;W_Validate application</title>
<path fill="none" stroke="#000000" stroke-width="0.8" d="M647.51,-123.25C641.98,-136.79 634.78,-156.24 631,-174 625.02,-202.11 622.94,-234.96 622.25,-257.78"/>
<polygon fill="#000000" stroke="#000000" stroke-width="0.8" points="618.76,-257.43 622.04,-267.51 625.76,-257.59 618.76,-257.43"/>
<text text-anchor="middle" x="641.5" y="-192.3" font-family="Times,serif" font-size="14.00">877</text>
</g>
<!-- A_Pending -->
<g id="node19" class="node">
<title>A_Pending</title>
<polygon fill="#fcfcff" stroke="black" points="906,-123 796,-123 796,-87 906,-87 906,-123"/>
<text text-anchor="middle" x="851" y="-101.3" font-family="Times,serif" font-size="14.00">A_Pending (742)</text>
</g>
<!-- O_Accepted&#45;&gt;A_Pending -->
<g id="edge29" class="edge">
<title>O_Accepted&#45;&gt;A_Pending</title>
<path fill="none" stroke="#000000" stroke-width="0.75" d="M904.27,-177.84C894.66,-164.87 881.29,-146.85 870.35,-132.1"/>
<polygon fill="#000000" stroke="#000000" stroke-width="0.75" points="873.35,-130.27 864.58,-124.32 867.73,-134.44 873.35,-130.27"/>
<text text-anchor="middle" x="897.5" y="-144.8" font-family="Times,serif" font-size="14.00">742</text>
</g>
<!-- A_Pending&#45;&gt;W_Validate application -->
<g id="edge30" class="edge">
<title>A_Pending&#45;&gt;W_Validate application</title>
<path fill="none" stroke="#000000" stroke-width="0.75" d="M846.13,-123.16C838.43,-147.4 821.23,-191.67 792,-218 768.13,-239.5 736.6,-254.63 707.19,-265.06"/>
<polygon fill="#000000" stroke="#000000" stroke-width="0.75" points="706.3,-261.66 697.96,-268.19 708.55,-268.29 706.3,-261.66"/>
<text text-anchor="middle" x="834.5" y="-192.3" font-family="Times,serif" font-size="14.00">742</text>
</g>
<!-- O_Refused -->
<g id="node21" class="node">
<title>O_Refused</title>
<polygon fill="#ffffff" stroke="black" points="554,-123 444,-123 444,-87 554,-87 554,-123"/>
<text text-anchor="middle" x="499" y="-101.3" font-family="Times,serif" font-size="14.00">O_Refused (135)</text>
</g>
<!-- A_Denied&#45;&gt;O_Refused -->
<g id="edge36" class="edge">
<title>A_Denied&#45;&gt;O_Refused</title>
<path fill="none" stroke="#ff0000" stroke-width="0.5" stroke-dasharray="5,2" d="M526.44,-177.84C521.63,-165.24 514.99,-147.86 509.45,-133.36"/>
<polygon fill="#ff0000" stroke="#ff0000" stroke-width="0.5" points="512.76,-132.21 505.92,-124.12 506.22,-134.71 512.76,-132.21"/>
<text text-anchor="middle" x="528.5" y="-144.8" font-family="Times,serif" font-size="14.00">135</text>
</g>
<!-- O_Refused&#45;&gt;W_Validate application -->
<g id="edge37" class="edge">
<title>O_Refused&#45;&gt;W_Validate application</title>
<path fill="none" stroke="#ff0000" stroke-width="0.5" stroke-dasharray="5,2" d="M481.38,-123.34C460.28,-146.28 430.21,-187.36 451,-218 467.06,-241.66 492.79,-257.09 519.47,-267.15"/>
<polygon fill="#ff0000" stroke="#ff0000" stroke-width="0.5" points="518.02,-270.35 528.61,-270.37 520.34,-263.75 518.02,-270.35"/>
<text text-anchor="middle" x="461.5" y="-192.3" font-family="Times,serif" font-size="14.00">135</text>
</g>
</g>
</svg>
