<?xml version="1.0" encoding="UTF-8" standalone="no"?>
<!DOCTYPE svg PUBLIC "-//W3C//DTD SVG 1.1//EN"
 "http://www.w3.org/Graphics/SVG/1.1/DTD/svg11.dtd">
<!-- Generated by graphviz version 7.0.5 (0)
 -->
<!-- Title: dfg Pages: 1 -->
<svg width="616pt" height="1357pt"
 viewBox="0.00 0.00 616.00 1357.00" xmlns="http://www.w3.org/2000/svg" xmlns:xlink="http://www.w3.org/1999/xlink">
<g id="graph0" class="graph" transform="scale(1 1) rotate(0) translate(4 1353)">
<title>dfg</title>
<polygon fill="white" stroke="none" points="-4,4 -4,-1353 612,-1353 612,4 -4,4"/>
<!-- start_node -->
<g id="node1" class="node">
<title>start_node</title>
<ellipse fill="none" stroke="black" cx="287" cy="-1331" rx="18" ry="18"/>
<text text-anchor="start" x="282.5" y="-1327.3" font-family="Times,serif" font-size="14.00">●</text>
</g>
<!-- A_Create Application -->
<g id="node2" class="node">
<title>A_Create Application</title>
<polygon fill="#eeeeff" stroke="black" points="374.5,-1262 199.5,-1262 199.5,-1226 374.5,-1226 374.5,-1262"/>
<text text-anchor="middle" x="287" y="-1240.3" font-family="Times,serif" font-size="14.00">A_Create Application (2274)</text>
</g>
<!-- start_node&#45;&gt;A_Create Application -->
<g id="edge1" class="edge">
<title>start_node&#45;&gt;A_Create Application</title>
<path fill="none" stroke="#000000" stroke-width="2.16" d="M287,-1312.8C287,-1302.15 287,-1288.18 287,-1275.69"/>
<polygon fill="#000000" stroke="#000000" stroke-width="2.16" points="290.5,-1275.74 287,-1265.74 283.5,-1275.74 290.5,-1275.74"/>
<text text-anchor="middle" x="301" y="-1283.8" font-family="Times,serif" font-size="14.00">2274</text>
</g>
<!-- A_Submitted -->
<g id="node3" class="node">
<title>A_Submitted</title>
<polygon fill="#f3f3ff" stroke="black" points="351.5,-1175 222.5,-1175 222.5,-1139 351.5,-1139 351.5,-1175"/>
<text text-anchor="middle" x="287" y="-1153.3" font-family="Times,serif" font-size="14.00">A_Submitted (1579)</text>
</g>
<!-- A_Create Application&#45;&gt;A_Submitted -->
<g id="edge2" class="edge">
<title>A_Create Application&#45;&gt;A_Submitted</title>
<path fill="none" stroke="#000000" stroke-width="1.64" d="M287,-1225.8C287,-1214.93 287,-1200.58 287,-1187.88"/>
<polygon fill="#000000" stroke="#000000" stroke-width="1.64" points="290.5,-1187.95 287,-1177.95 283.5,-1187.95 290.5,-1187.95"/>
<text text-anchor="middle" x="301" y="-1196.8" font-family="Times,serif" font-size="14.00">1579</text>
</g>
<!-- W_Complete application -->
<g id="node5" class="node">
<title>W_Complete application</title>
<polygon fill="#bdbdff" stroke="black" points="369,-1001 175,-1001 175,-965 369,-965 369,-1001"/>
<text text-anchor="middle" x="272" y="-979.3" font-family="Times,serif" font-size="14.00">W_Complete application (9050)</text>
</g>
<!-- A_Create Application&#45;&gt;W_Complete application -->
<g id="edge20" class="edge">
<title>A_Create Application&#45;&gt;W_Complete application</title>
<path fill="none" stroke="#000000" stroke-width="0.81" d="M259.75,-1225.62C243.27,-1213.55 223.49,-1195.89 213,-1175 195.56,-1140.26 206,-1126.82 204,-1088 203.18,-1072.02 197.88,-1066.78 204,-1052 211.08,-1034.92 224.75,-1019.89 238,-1008.34"/>
<polygon fill="#000000" stroke="#000000" stroke-width="0.81" points="240.15,-1011.1 245.63,-1002.03 235.69,-1005.71 240.15,-1011.1"/>
<text text-anchor="middle" x="215.5" y="-1109.8" font-family="Times,serif" font-size="14.00">464</text>
</g>
<!-- A_Concept -->
<g id="node6" class="node">
<title>A_Concept</title>
<polygon fill="#eeeeff" stroke="black" points="438,-914 320,-914 320,-878 438,-878 438,-914"/>
<text text-anchor="middle" x="379" y="-892.3" font-family="Times,serif" font-size="14.00">A_Concept (2274)</text>
</g>
<!-- A_Create Application&#45;&gt;A_Concept -->
<g id="edge31" class="edge">
<title>A_Create Application&#45;&gt;A_Concept</title>
<path fill="none" stroke="#ff0000" stroke-width="0.63" stroke-dasharray="5,2" d="M374.58,-1227.1C410.14,-1215.12 443,-1194.24 443,-1158 443,-1158 443,-1158 443,-982 443,-958.19 426.77,-936.8 410.66,-921.44"/>
<polygon fill="#ff0000" stroke="#ff0000" stroke-width="0.63" points="413.32,-919.12 403.54,-915.04 408.64,-924.33 413.32,-919.12"/>
<text text-anchor="middle" x="453.5" y="-1066.3" font-family="Times,serif" font-size="14.00">231</text>
</g>
<!-- W_Handle leads -->
<g id="node4" class="node">
<title>W_Handle leads</title>
<polygon fill="#e7e7ff" stroke="black" points="360.5,-1088 213.5,-1088 213.5,-1052 360.5,-1052 360.5,-1088"/>
<text text-anchor="middle" x="287" y="-1066.3" font-family="Times,serif" font-size="14.00">W_Handle leads (3241)</text>
</g>
<!-- A_Submitted&#45;&gt;W_Handle leads -->
<g id="edge3" class="edge">
<title>A_Submitted&#45;&gt;W_Handle leads</title>
<path fill="none" stroke="#000000" stroke-width="1.64" d="M287,-1138.8C287,-1127.93 287,-1113.58 287,-1100.88"/>
<polygon fill="#000000" stroke="#000000" stroke-width="1.64" points="290.5,-1100.95 287,-1090.95 283.5,-1100.95 290.5,-1100.95"/>
<text text-anchor="middle" x="301" y="-1109.8" font-family="Times,serif" font-size="14.00">1579</text>
</g>
<!-- W_Handle leads&#45;&gt;W_Handle leads -->
<g id="edge4" class="edge">
<title>W_Handle leads&#45;&gt;W_Handle leads</title>
<path fill="none" stroke="#000000" stroke-width="1.7" d="M360.96,-1077.32C371.45,-1076.14 378.5,-1073.7 378.5,-1070 378.5,-1068.04 376.51,-1066.43 373.07,-1065.17"/>
<polygon fill="#000000" stroke="#000000" stroke-width="1.7" points="373.98,-1061.79 363.48,-1063.2 372.57,-1068.64 373.98,-1061.79"/>
<text text-anchor="middle" x="392.5" y="-1066.3" font-family="Times,serif" font-size="14.00">1662</text>
</g>
<!-- W_Handle leads&#45;&gt;W_Complete application -->
<g id="edge5" class="edge">
<title>W_Handle leads&#45;&gt;W_Complete application</title>
<path fill="none" stroke="#000000" stroke-width="1.64" d="M283.96,-1051.8C282.03,-1040.81 279.46,-1026.28 277.2,-1013.48"/>
<polygon fill="#000000" stroke="#000000" stroke-width="1.64" points="280.7,-1013.15 275.51,-1003.91 273.81,-1014.37 280.7,-1013.15"/>
<text text-anchor="middle" x="295" y="-1022.8" font-family="Times,serif" font-size="14.00">1579</text>
</g>
<!-- W_Complete application&#45;&gt;W_Complete application -->
<g id="edge21" class="edge">
<title>W_Complete application&#45;&gt;W_Complete application</title>
<path fill="none" stroke="#000000" stroke-width="2.76" d="M369.32,-989.86C380.06,-988.56 387,-986.27 387,-983 387,-981.52 385.58,-980.24 383.02,-979.16"/>
<polygon fill="#000000" stroke="#000000" stroke-width="2.76" points="383.92,-975.77 373.4,-977.04 382.41,-982.61 383.92,-975.77"/>
<text text-anchor="middle" x="401" y="-979.3" font-family="Times,serif" font-size="14.00">3070</text>
</g>
<!-- W_Complete application&#45;&gt;A_Concept -->
<g id="edge6" class="edge">
<title>W_Complete application&#45;&gt;A_Concept</title>
<path fill="none" stroke="#000000" stroke-width="1.99" d="M286.14,-964.59C294.95,-954.39 306.88,-941.64 319,-932 323.76,-928.21 328.98,-924.55 334.29,-921.13"/>
<polygon fill="#000000" stroke="#000000" stroke-width="1.99" points="335.93,-924.23 342.62,-916.02 332.27,-918.26 335.93,-924.23"/>
<text text-anchor="middle" x="333" y="-935.8" font-family="Times,serif" font-size="14.00">2043</text>
</g>
<!-- A_Accepted -->
<g id="node7" class="node">
<title>A_Accepted</title>
<polygon fill="#eeeeff" stroke="black" points="392,-827 268,-827 268,-791 392,-791 392,-827"/>
<text text-anchor="middle" x="330" y="-805.3" font-family="Times,serif" font-size="14.00">A_Accepted (2274)</text>
</g>
<!-- W_Complete application&#45;&gt;A_Accepted -->
<g id="edge8" class="edge">
<title>W_Complete application&#45;&gt;A_Accepted</title>
<path fill="none" stroke="#000000" stroke-width="1.7" d="M271.26,-964.85C270.92,-943.73 272.21,-907.11 283,-878 288.44,-863.33 297.78,-848.81 306.7,-836.99"/>
<polygon fill="#000000" stroke="#000000" stroke-width="1.7" points="309.26,-839.39 312.73,-829.37 303.77,-835.04 309.26,-839.39"/>
<text text-anchor="middle" x="297" y="-892.3" font-family="Times,serif" font-size="14.00">1663</text>
</g>
<!-- W_Call after offers -->
<g id="node11" class="node">
<title>W_Call after offers</title>
<polygon fill="#9b9bff" stroke="black" points="397,-305 227,-305 227,-269 397,-269 397,-305"/>
<text text-anchor="middle" x="312" y="-283.3" font-family="Times,serif" font-size="14.00">W_Call after offers (13692)</text>
</g>
<!-- W_Complete application&#45;&gt;W_Call after offers -->
<g id="edge13" class="edge">
<title>W_Complete application&#45;&gt;W_Call after offers</title>
<path fill="none" stroke="#000000" stroke-width="2.16" d="M256.86,-964.78C244.13,-948.48 228,-922.76 228,-897 228,-897 228,-897 228,-373 228,-347.68 247.1,-327.18 267.08,-312.66"/>
<polygon fill="#000000" stroke="#000000" stroke-width="2.16" points="268.78,-315.73 275.12,-307.25 264.87,-309.93 268.78,-315.73"/>
<text text-anchor="middle" x="242" y="-631.3" font-family="Times,serif" font-size="14.00">2274</text>
</g>
<!-- A_Concept&#45;&gt;W_Complete application -->
<g id="edge7" class="edge">
<title>A_Concept&#45;&gt;W_Complete application</title>
<path fill="none" stroke="#000000" stroke-width="1.7" d="M371.2,-914.05C365.67,-924.63 357.39,-937.9 347,-947 342.07,-951.32 336.51,-955.21 330.71,-958.69"/>
<polygon fill="#000000" stroke="#000000" stroke-width="1.7" points="329.44,-955.39 322.35,-963.27 332.8,-961.53 329.44,-955.39"/>
<text text-anchor="middle" x="373" y="-935.8" font-family="Times,serif" font-size="14.00">1663</text>
</g>
<!-- A_Concept&#45;&gt;A_Accepted -->
<g id="edge22" class="edge">
<title>A_Concept&#45;&gt;A_Accepted</title>
<path fill="none" stroke="#000000" stroke-width="0.92" d="M369.08,-877.8C362.35,-866.12 353.32,-850.45 345.63,-837.11"/>
<polygon fill="#000000" stroke="#000000" stroke-width="0.92" points="348.79,-835.58 340.76,-828.67 342.72,-839.08 348.79,-835.58"/>
<text text-anchor="middle" x="367.5" y="-848.8" font-family="Times,serif" font-size="14.00">611</text>
</g>
<!-- O_Create Offer -->
<g id="node8" class="node">
<title>O_Create Offer</title>
<polygon fill="#ededff" stroke="black" points="400.5,-740 259.5,-740 259.5,-704 400.5,-704 400.5,-740"/>
<text text-anchor="middle" x="330" y="-718.3" font-family="Times,serif" font-size="14.00">O_Create Offer (2460)</text>
</g>
<!-- A_Accepted&#45;&gt;O_Create Offer -->
<g id="edge9" class="edge">
<title>A_Accepted&#45;&gt;O_Create Offer</title>
<path fill="none" stroke="#000000" stroke-width="2.16" d="M330,-790.8C330,-780.15 330,-766.18 330,-753.69"/>
<polygon fill="#000000" stroke="#000000" stroke-width="2.16" points="333.5,-753.74 330,-743.74 326.5,-753.74 333.5,-753.74"/>
<text text-anchor="middle" x="344" y="-761.8" font-family="Times,serif" font-size="14.00">2274</text>
</g>
<!-- O_Created -->
<g id="node9" class="node">
<title>O_Created</title>
<polygon fill="#ededff" stroke="black" points="438.5,-653 323.5,-653 323.5,-617 438.5,-617 438.5,-653"/>
<text text-anchor="middle" x="381" y="-631.3" font-family="Times,serif" font-size="14.00">O_Created (2460)</text>
</g>
<!-- O_Create Offer&#45;&gt;O_Created -->
<g id="edge10" class="edge">
<title>O_Create Offer&#45;&gt;O_Created</title>
<path fill="none" stroke="#000000" stroke-width="2.3" d="M326.63,-703.82C325.51,-693.7 325.69,-680.96 331,-671 332.61,-667.97 334.62,-665.15 336.89,-662.53"/>
<polygon fill="#000000" stroke="#000000" stroke-width="2.3" points="339.21,-665.16 344.16,-655.8 334.45,-660.03 339.21,-665.16"/>
<text text-anchor="middle" x="345" y="-674.8" font-family="Times,serif" font-size="14.00">2460</text>
</g>
<!-- O_Created&#45;&gt;O_Create Offer -->
<g id="edge32" class="edge">
<title>O_Created&#45;&gt;O_Create Offer</title>
<path fill="none" stroke="#ff0000" stroke-width="0.56" stroke-dasharray="5,2" d="M374.78,-653.25C370.88,-663.17 365.38,-675.67 359,-686 357.08,-689.12 354.9,-692.25 352.62,-695.3"/>
<polygon fill="#ff0000" stroke="#ff0000" stroke-width="0.56" points="350.06,-692.89 346.58,-702.9 355.54,-697.24 350.06,-692.89"/>
<text text-anchor="middle" x="376.5" y="-674.8" font-family="Times,serif" font-size="14.00">131</text>
</g>
<!-- O_Sent (mail and online) -->
<g id="node10" class="node">
<title>O_Sent (mail and online)</title>
<polygon fill="#ededff" stroke="black" points="527.5,-566 332.5,-566 332.5,-530 527.5,-530 527.5,-566"/>
<text text-anchor="middle" x="430" y="-544.3" font-family="Times,serif" font-size="14.00">O_Sent (mail and online) (2460)</text>
</g>
<!-- O_Created&#45;&gt;O_Sent (mail and online) -->
<g id="edge11" class="edge">
<title>O_Created&#45;&gt;O_Sent (mail and online)</title>
<path fill="none" stroke="#000000" stroke-width="2.2" d="M390.92,-616.8C397.38,-605.58 405.98,-590.67 413.46,-577.69"/>
<polygon fill="#000000" stroke="#000000" stroke-width="2.2" points="416.3,-579.77 418.27,-569.36 410.24,-576.27 416.3,-579.77"/>
<text text-anchor="middle" x="422" y="-587.8" font-family="Times,serif" font-size="14.00">2329</text>
</g>
<!-- O_Sent (mail and online)&#45;&gt;W_Complete application -->
<g id="edge12" class="edge">
<title>O_Sent (mail and online)&#45;&gt;W_Complete application</title>
<path fill="none" stroke="#000000" stroke-width="2.16" d="M442.87,-566.23C453.89,-582.74 468,-608.78 468,-634 468,-897 468,-897 468,-897 468,-940.47 426.92,-961.95 382.37,-972.47"/>
<polygon fill="#000000" stroke="#000000" stroke-width="2.16" points="381.68,-969.04 372.63,-974.54 383.14,-975.89 381.68,-969.04"/>
<text text-anchor="middle" x="482" y="-761.8" font-family="Times,serif" font-size="14.00">2274</text>
</g>
<!-- O_Sent (mail and online)&#45;&gt;O_Sent (mail and online) -->
<g id="edge33" class="edge">
<title>O_Sent (mail and online)&#45;&gt;O_Sent (mail and online)</title>
<path fill="none" stroke="#ff0000" stroke-width="0.56" stroke-dasharray="5,2" d="M527.74,-554.86C538.53,-553.56 545.5,-551.27 545.5,-548 545.5,-545.96 542.78,-544.3 538.1,-543.02"/>
<polygon fill="#ff0000" stroke="#ff0000" stroke-width="0.56" points="539.04,-539.63 528.57,-541.29 537.79,-546.52 539.04,-539.63"/>
<text text-anchor="middle" x="556" y="-544.3" font-family="Times,serif" font-size="14.00">131</text>
</g>
<!-- A_Cancelled -->
<g id="node13" class="node">
<title>A_Cancelled</title>
<polygon fill="#f2f2ff" stroke="black" points="493.5,-479 366.5,-479 366.5,-443 493.5,-443 493.5,-479"/>
<text text-anchor="middle" x="430" y="-457.3" font-family="Times,serif" font-size="14.00">A_Cancelled (1745)</text>
</g>
<!-- O_Sent (mail and online)&#45;&gt;A_Cancelled -->
<g id="edge39" class="edge">
<title>O_Sent (mail and online)&#45;&gt;A_Cancelled</title>
<path fill="none" stroke="#ff0000" stroke-width="0.5" stroke-dasharray="5,2" d="M430,-529.8C430,-518.35 430,-503.06 430,-489.89"/>
<polygon fill="#ff0000" stroke="#ff0000" stroke-width="0.5" points="433.5,-490.22 430,-480.22 426.5,-490.22 433.5,-490.22"/>
<text text-anchor="middle" x="437" y="-500.8" font-family="Times,serif" font-size="14.00">55</text>
</g>
<!-- W_Call after offers&#45;&gt;O_Create Offer -->
<g id="edge38" class="edge">
<title>W_Call after offers&#45;&gt;O_Create Offer</title>
<path fill="none" stroke="#ff0000" stroke-width="0.5" stroke-dasharray="5,2" d="M304.47,-305.21C297.76,-322.13 289,-348.85 289,-373 289,-636 289,-636 289,-636 289,-657.23 299.5,-678.74 309.88,-694.82"/>
<polygon fill="#ff0000" stroke="#ff0000" stroke-width="0.5" points="306.93,-696.7 315.46,-702.98 312.71,-692.75 306.93,-696.7"/>
<text text-anchor="middle" x="296" y="-500.8" font-family="Times,serif" font-size="14.00">55</text>
</g>
<!-- W_Call after offers&#45;&gt;W_Call after offers -->
<g id="edge14" class="edge">
<title>W_Call after offers&#45;&gt;W_Call after offers</title>
<path fill="none" stroke="#000000" stroke-width="6" d="M397.25,-294.1C407.95,-292.85 415,-290.48 415,-287 415,-285.91 414.31,-284.93 413.04,-284.06"/>
<polygon fill="#000000" stroke="#000000" stroke-width="6" points="414.5,-279.02 403.49,-281.54 411.82,-289.17 414.5,-279.02"/>
<text text-anchor="middle" x="429" y="-283.3" font-family="Times,serif" font-size="14.00">7399</text>
</g>
<!-- A_Complete -->
<g id="node12" class="node">
<title>A_Complete</title>
<polygon fill="#eeeeff" stroke="black" points="267,-218 141,-218 141,-182 267,-182 267,-218"/>
<text text-anchor="middle" x="204" y="-196.3" font-family="Times,serif" font-size="14.00">A_Complete (2274)</text>
</g>
<!-- W_Call after offers&#45;&gt;A_Complete -->
<g id="edge15" class="edge">
<title>W_Call after offers&#45;&gt;A_Complete</title>
<path fill="none" stroke="#000000" stroke-width="2.16" d="M258.71,-268.5C249.13,-263.81 239.75,-258.03 232,-251 225.59,-245.19 220.31,-237.57 216.13,-230.03"/>
<polygon fill="#000000" stroke="#000000" stroke-width="2.16" points="219.28,-228.51 211.73,-221.08 213,-231.6 219.28,-228.51"/>
<text text-anchor="middle" x="246" y="-239.8" font-family="Times,serif" font-size="14.00">2274</text>
</g>
<!-- W_Call after offers&#45;&gt;A_Cancelled -->
<g id="edge17" class="edge">
<title>W_Call after offers&#45;&gt;A_Cancelled</title>
<path fill="none" stroke="#000000" stroke-width="1.72" d="M314.31,-305.19C317.9,-326.99 326.45,-364.98 345,-392 356.76,-409.13 374.09,-424.08 390.04,-435.57"/>
<polygon fill="#000000" stroke="#000000" stroke-width="1.72" points="387.88,-438.34 398.1,-441.13 391.86,-432.57 387.88,-438.34"/>
<text text-anchor="middle" x="359" y="-370.3" font-family="Times,serif" font-size="14.00">1690</text>
</g>
<!-- W_Validate application -->
<g id="node15" class="node">
<title>W_Validate application</title>
<polygon fill="#efefff" stroke="black" points="470.5,-218 285.5,-218 285.5,-182 470.5,-182 470.5,-218"/>
<text text-anchor="middle" x="378" y="-196.3" font-family="Times,serif" font-size="14.00">W_Validate application (2116)</text>
</g>
<!-- W_Call after offers&#45;&gt;W_Validate application -->
<g id="edge23" class="edge">
<title>W_Call after offers&#45;&gt;W_Validate application</title>
<path fill="none" stroke="#000000" stroke-width="0.85" d="M325.36,-268.8C334.6,-256.9 347.07,-240.83 357.56,-227.32"/>
<polygon fill="#000000" stroke="#000000" stroke-width="0.85" points="360.28,-229.53 363.64,-219.49 354.75,-225.24 360.28,-229.53"/>
<text text-anchor="middle" x="358.5" y="-239.8" font-family="Times,serif" font-size="14.00">529</text>
</g>
<!-- end_node -->
<g id="node22" class="node">
<title>end_node</title>
<ellipse fill="none" stroke="black" cx="586" cy="-109" rx="18" ry="18"/>
<ellipse fill="none" stroke="black" cx="586" cy="-109" rx="22" ry="22"/>
<text text-anchor="start" x="581.5" y="-105.3" font-family="Times,serif" font-size="14.00">■</text>
</g>
<!-- W_Call after offers&#45;&gt;end_node -->
<g id="edge40" class="edge">
<title>W_Call after offers&#45;&gt;end_node</title>
<path fill="none" stroke="#000000" stroke-width="1.77" d="M389.95,-268.63C430.18,-257.66 479.07,-241.13 519,-218 550.04,-200.02 562.32,-195.76 579,-164 582.23,-157.85 584.18,-150.79 585.32,-143.84"/>
<polygon fill="#000000" stroke="#000000" stroke-width="1.77" points="588.8,-144.25 586.35,-133.94 581.83,-143.53 588.8,-144.25"/>
<text text-anchor="middle" x="581" y="-196.3" font-family="Times,serif" font-size="14.00">1745</text>
</g>
<!-- A_Complete&#45;&gt;W_Call after offers -->
<g id="edge16" class="edge">
<title>A_Complete&#45;&gt;W_Call after offers</title>
<path fill="none" stroke="#000000" stroke-width="2.16" d="M234.42,-218.42C242.94,-223.72 252.04,-229.8 260,-236 269.13,-243.12 278.44,-251.61 286.62,-259.56"/>
<polygon fill="#000000" stroke="#000000" stroke-width="2.16" points="284.07,-261.97 293.62,-266.55 289.02,-257.01 284.07,-261.97"/>
<text text-anchor="middle" x="291" y="-239.8" font-family="Times,serif" font-size="14.00">2274</text>
</g>
<!-- O_Cancelled -->
<g id="node14" class="node">
<title>O_Cancelled</title>
<polygon fill="#f1f1ff" stroke="black" points="508.5,-392 381.5,-392 381.5,-356 508.5,-356 508.5,-392"/>
<text text-anchor="middle" x="445" y="-370.3" font-family="Times,serif" font-size="14.00">O_Cancelled (1931)</text>
</g>
<!-- A_Cancelled&#45;&gt;O_Cancelled -->
<g id="edge18" class="edge">
<title>A_Cancelled&#45;&gt;O_Cancelled</title>
<path fill="none" stroke="#000000" stroke-width="1.77" d="M433.04,-442.8C434.95,-431.93 437.49,-417.58 439.73,-404.88"/>
<polygon fill="#000000" stroke="#000000" stroke-width="1.77" points="443.16,-405.56 441.45,-395.1 436.27,-404.34 443.16,-405.56"/>
<text text-anchor="middle" x="452" y="-413.8" font-family="Times,serif" font-size="14.00">1745</text>
</g>
<!-- O_Cancelled&#45;&gt;W_Call after offers -->
<g id="edge19" class="edge">
<title>O_Cancelled&#45;&gt;W_Call after offers</title>
<path fill="none" stroke="#000000" stroke-width="1.77" d="M417.76,-355.59C398.13,-343.05 371.38,-325.95 349.7,-312.09"/>
<polygon fill="#000000" stroke="#000000" stroke-width="1.77" points="351.76,-309.26 341.45,-306.82 347.99,-315.16 351.76,-309.26"/>
<text text-anchor="middle" x="400" y="-326.8" font-family="Times,serif" font-size="14.00">1745</text>
</g>
<!-- O_Cancelled&#45;&gt;O_Cancelled -->
<g id="edge34" class="edge">
<title>O_Cancelled&#45;&gt;O_Cancelled</title>
<path fill="none" stroke="#ff0000" stroke-width="0.6" stroke-dasharray="5,2" d="M508.9,-381.55C519.33,-380.47 526.5,-377.95 526.5,-374 526.5,-371.59 523.84,-369.72 519.4,-368.38"/>
<polygon fill="#ff0000" stroke="#ff0000" stroke-width="0.6" points="520.25,-364.98 509.79,-366.62 518.99,-371.86 520.25,-364.98"/>
<text text-anchor="middle" x="537" y="-370.3" font-family="Times,serif" font-size="14.00">186</text>
</g>
<!-- W_Validate application&#45;&gt;W_Validate application -->
<g id="edge24" class="edge">
<title>W_Validate application&#45;&gt;W_Validate application</title>
<path fill="none" stroke="#000000" stroke-width="0.85" d="M470.7,-206.96C481.48,-205.68 488.5,-203.36 488.5,-200 488.5,-198.01 486.03,-196.38 481.76,-195.12"/>
<polygon fill="#000000" stroke="#000000" stroke-width="0.85" points="482.45,-191.69 471.97,-193.28 481.15,-198.57 482.45,-191.69"/>
<text text-anchor="middle" x="499" y="-196.3" font-family="Times,serif" font-size="14.00">529</text>
</g>
<!-- A_Validating -->
<g id="node16" class="node">
<title>A_Validating</title>
<polygon fill="#fbfbff" stroke="black" points="122,-127 0,-127 0,-91 122,-91 122,-127"/>
<text text-anchor="middle" x="61" y="-105.3" font-family="Times,serif" font-size="14.00">A_Validating (529)</text>
</g>
<!-- W_Validate application&#45;&gt;A_Validating -->
<g id="edge25" class="edge">
<title>W_Validate application&#45;&gt;A_Validating</title>
<path fill="none" stroke="#000000" stroke-width="0.85" d="M285.19,-183.34C282.09,-182.88 279.02,-182.43 276,-182 208.21,-172.37 185.61,-191.72 123,-164 108.13,-157.41 94.21,-145.99 83.34,-135.34"/>
<polygon fill="#000000" stroke="#000000" stroke-width="0.85" points="86.05,-133.1 76.57,-128.37 81.03,-137.98 86.05,-133.1"/>
<text text-anchor="middle" x="133.5" y="-152.8" font-family="Times,serif" font-size="14.00">529</text>
</g>
<!-- O_Accepted -->
<g id="node18" class="node">
<title>O_Accepted</title>
<polygon fill="#fcfcff" stroke="black" points="314.5,-127 197.5,-127 197.5,-91 314.5,-91 314.5,-127"/>
<text text-anchor="middle" x="256" y="-105.3" font-family="Times,serif" font-size="14.00">O_Accepted (461)</text>
</g>
<!-- W_Validate application&#45;&gt;O_Accepted -->
<g id="edge28" class="edge">
<title>W_Validate application&#45;&gt;O_Accepted</title>
<path fill="none" stroke="#000000" stroke-width="0.8" d="M344.03,-181.59C334.69,-176.33 324.73,-170.28 316,-164 303.88,-155.29 291.46,-144.47 281.08,-134.82"/>
<polygon fill="#000000" stroke="#000000" stroke-width="0.8" points="283.79,-132.57 274.13,-128.22 278.98,-137.64 283.79,-132.57"/>
<text text-anchor="middle" x="326.5" y="-152.8" font-family="Times,serif" font-size="14.00">461</text>
</g>
<!-- A_Denied -->
<g id="node20" class="node">
<title>A_Denied</title>
<polygon fill="#ffffff" stroke="black" points="488,-127 390,-127 390,-91 488,-91 488,-127"/>
<text text-anchor="middle" x="439" y="-105.3" font-family="Times,serif" font-size="14.00">A_Denied (68)</text>
</g>
<!-- W_Validate application&#45;&gt;A_Denied -->
<g id="edge35" class="edge">
<title>W_Validate application&#45;&gt;A_Denied</title>
<path fill="none" stroke="#ff0000" stroke-width="0.51" stroke-dasharray="5,2" d="M389.76,-181.84C398.65,-168.87 411,-150.85 421.11,-136.1"/>
<polygon fill="#ff0000" stroke="#ff0000" stroke-width="0.51" points="423.86,-138.27 426.63,-128.05 418.09,-134.32 423.86,-138.27"/>
<text text-anchor="middle" x="419" y="-152.8" font-family="Times,serif" font-size="14.00">68</text>
</g>
<!-- W_Validate application&#45;&gt;end_node -->
<g id="edge41" class="edge">
<title>W_Validate application&#45;&gt;end_node</title>
<path fill="none" stroke="#000000" stroke-width="0.85" d="M470.63,-187.86C492.68,-182.69 515.45,-175.1 535,-164 547.14,-157.1 558.14,-146.38 566.78,-136.3"/>
<polygon fill="#000000" stroke="#000000" stroke-width="0.85" points="569.34,-138.7 572.93,-128.73 563.91,-134.28 569.34,-138.7"/>
<text text-anchor="middle" x="564.5" y="-152.8" font-family="Times,serif" font-size="14.00">529</text>
</g>
<!-- O_Returned -->
<g id="node17" class="node">
<title>O_Returned</title>
<polygon fill="#fbfbff" stroke="black" points="195,-36 79,-36 79,0 195,0 195,-36"/>
<text text-anchor="middle" x="137" y="-14.3" font-family="Times,serif" font-size="14.00">O_Returned (529)</text>
</g>
<!-- A_Validating&#45;&gt;O_Returned -->
<g id="edge26" class="edge">
<title>A_Validating&#45;&gt;O_Returned</title>
<path fill="none" stroke="#000000" stroke-width="0.85" d="M75.65,-90.84C86.83,-77.75 102.41,-59.51 115.07,-44.68"/>
<polygon fill="#000000" stroke="#000000" stroke-width="0.85" points="117.46,-47.27 121.29,-37.4 112.14,-42.73 117.46,-47.27"/>
<text text-anchor="middle" x="116.5" y="-57.8" font-family="Times,serif" font-size="14.00">529</text>
</g>
<!-- O_Returned&#45;&gt;W_Validate application -->
<g id="edge27" class="edge">
<title>O_Returned&#45;&gt;W_Validate application</title>
<path fill="none" stroke="#000000" stroke-width="0.85" d="M136.77,-36.22C137.39,-60.54 142.17,-104.89 167,-131 184.17,-149.06 237.97,-166.25 286.93,-178.82"/>
<polygon fill="#000000" stroke="#000000" stroke-width="0.85" points="285.81,-182.15 296.36,-181.2 287.52,-175.36 285.81,-182.15"/>
<text text-anchor="middle" x="177.5" y="-105.3" font-family="Times,serif" font-size="14.00">529</text>
</g>
<!-- A_Pending -->
<g id="node19" class="node">
<title>A_Pending</title>
<polygon fill="#fcfcff" stroke="black" points="348,-36 238,-36 238,0 348,0 348,-36"/>
<text text-anchor="middle" x="293" y="-14.3" font-family="Times,serif" font-size="14.00">A_Pending (461)</text>
</g>
<!-- O_Accepted&#45;&gt;A_Pending -->
<g id="edge29" class="edge">
<title>O_Accepted&#45;&gt;A_Pending</title>
<path fill="none" stroke="#000000" stroke-width="0.8" d="M263.13,-90.84C268.37,-78.24 275.6,-60.86 281.63,-46.36"/>
<polygon fill="#000000" stroke="#000000" stroke-width="0.8" points="284.69,-48.11 285.29,-37.53 278.22,-45.43 284.69,-48.11"/>
<text text-anchor="middle" x="288.5" y="-57.8" font-family="Times,serif" font-size="14.00">461</text>
</g>
<!-- A_Pending&#45;&gt;W_Validate application -->
<g id="edge30" class="edge">
<title>A_Pending&#45;&gt;W_Validate application</title>
<path fill="none" stroke="#000000" stroke-width="0.8" d="M301.25,-36.47C316.14,-68 347.58,-134.59 365.26,-172.01"/>
<polygon fill="#000000" stroke="#000000" stroke-width="0.8" points="361.9,-173.09 369.33,-180.64 368.22,-170.1 361.9,-173.09"/>
<text text-anchor="middle" x="355.5" y="-105.3" font-family="Times,serif" font-size="14.00">461</text>
</g>
<!-- O_Refused -->
<g id="node21" class="node">
<title>O_Refused</title>
<polygon fill="#ffffff" stroke="black" points="547,-36 443,-36 443,0 547,0 547,-36"/>
<text text-anchor="middle" x="495" y="-14.3" font-family="Times,serif" font-size="14.00">O_Refused (68)</text>
</g>
<!-- A_Denied&#45;&gt;O_Refused -->
<g id="edge36" class="edge">
<title>A_Denied&#45;&gt;O_Refused</title>
<path fill="none" stroke="#ff0000" stroke-width="0.51" stroke-dasharray="5,2" d="M449.8,-90.84C457.88,-77.99 469.08,-60.19 478.32,-45.52"/>
<polygon fill="#ff0000" stroke="#ff0000" stroke-width="0.51" points="481.27,-47.39 483.63,-37.06 475.35,-43.66 481.27,-47.39"/>
<text text-anchor="middle" x="479" y="-57.8" font-family="Times,serif" font-size="14.00">68</text>
</g>
<!-- O_Refused&#45;&gt;W_Validate application -->
<g id="edge37" class="edge">
<title>O_Refused&#45;&gt;W_Validate application</title>
<path fill="none" stroke="#ff0000" stroke-width="0.51" stroke-dasharray="5,2" d="M500.5,-36.3C506.79,-59.56 514.18,-101.4 497,-131 485.04,-151.61 464.22,-166.51 443.31,-177"/>
<polygon fill="#ff0000" stroke="#ff0000" stroke-width="0.51" points="441.97,-173.76 434.42,-181.19 444.96,-180.09 441.97,-173.76"/>
<text text-anchor="middle" x="514" y="-105.3" font-family="Times,serif" font-size="14.00">68</text>
</g>
</g>
</svg>
