<?xml version="1.0" encoding="UTF-8" standalone="no"?>
<!DOCTYPE svg PUBLIC "-//W3C//DTD SVG 1.1//EN"
 "http://www.w3.org/Graphics/SVG/1.1/DTD/svg11.dtd">
<!-- Generated by graphviz version 7.0.5 (0)
 -->
<!-- Title: dfg Pages: 1 -->
<svg width="327pt" height="574pt"
 viewBox="0.00 0.00 327.00 574.00" xmlns="http://www.w3.org/2000/svg" xmlns:xlink="http://www.w3.org/1999/xlink">
<g id="graph0" class="graph" transform="scale(1 1) rotate(0) translate(4 570)">
<title>dfg</title>
<polygon fill="white" stroke="none" points="-4,4 -4,-570 323,-570 323,4 -4,4"/>
<!-- start_node -->
<g id="node1" class="node">
<title>start_node</title>
<ellipse fill="none" stroke="black" cx="185.5" cy="-548" rx="18" ry="18"/>
<text text-anchor="start" x="181" y="-544.3" font-family="Times,serif" font-size="14.00">●</text>
</g>
<!-- Create Purchase Order Item -->
<g id="node2" class="node">
<title>Create Purchase Order Item</title>
<polygon fill="#ffffff" stroke="black" points="293,-479 78,-479 78,-443 293,-443 293,-479"/>
<text text-anchor="middle" x="185.5" y="-457.3" font-family="Times,serif" font-size="14.00">Create Purchase Order Item (31050)</text>
</g>
<!-- start_node&#45;&gt;Create Purchase Order Item -->
<g id="edge1" class="edge">
<title>start_node&#45;&gt;Create Purchase Order Item</title>
<path fill="none" stroke="#000000" stroke-width="6" d="M185.5,-529.8C185.5,-519.96 185.5,-507.27 185.5,-495.53"/>
<polygon fill="#000000" stroke="#000000" stroke-width="6" points="190.75,-495.92 185.5,-485.92 180.25,-495.92 190.75,-495.92"/>
<text text-anchor="middle" x="202.5" y="-500.8" font-family="Times,serif" font-size="14.00">31050</text>
</g>
<!-- Record Goods Receipt -->
<g id="node3" class="node">
<title>Record Goods Receipt</title>
<polygon fill="#ffffff" stroke="black" points="214.5,-392 28.5,-392 28.5,-356 214.5,-356 214.5,-392"/>
<text text-anchor="middle" x="121.5" y="-370.3" font-family="Times,serif" font-size="14.00">Record Goods Receipt (31050)</text>
</g>
<!-- Create Purchase Order Item&#45;&gt;Record Goods Receipt -->
<g id="edge2" class="edge">
<title>Create Purchase Order Item&#45;&gt;Record Goods Receipt</title>
<path fill="none" stroke="#000000" stroke-width="2.15" d="M172.55,-442.8C163.93,-431.35 152.42,-416.06 142.5,-402.89"/>
<polygon fill="#000000" stroke="#000000" stroke-width="2.15" points="145.42,-400.95 136.61,-395.07 139.83,-405.16 145.42,-400.95"/>
<text text-anchor="middle" x="173.5" y="-413.8" font-family="Times,serif" font-size="14.00">18270</text>
</g>
<!-- Vendor creates invoice -->
<g id="node4" class="node">
<title>Vendor creates invoice</title>
<polygon fill="#ffffff" stroke="black" points="319,-305 132,-305 132,-269 319,-269 319,-305"/>
<text text-anchor="middle" x="225.5" y="-283.3" font-family="Times,serif" font-size="14.00">Vendor creates invoice (31050)</text>
</g>
<!-- Create Purchase Order Item&#45;&gt;Vendor creates invoice -->
<g id="edge6" class="edge">
<title>Create Purchase Order Item&#45;&gt;Vendor creates invoice</title>
<path fill="none" stroke="#000000" stroke-width="0.5" d="M197.63,-442.68C206.28,-429.43 217.43,-410.36 223.5,-392 233.17,-362.73 232.69,-353.75 230.5,-323 230.33,-320.66 230.11,-318.24 229.84,-315.82"/>
<polygon fill="#000000" stroke="#000000" stroke-width="0.5" points="233.34,-315.61 228.58,-306.14 226.4,-316.51 233.34,-315.61"/>
<text text-anchor="middle" x="248.5" y="-370.3" font-family="Times,serif" font-size="14.00">12780</text>
</g>
<!-- Record Goods Receipt&#45;&gt;Vendor creates invoice -->
<g id="edge3" class="edge">
<title>Record Goods Receipt&#45;&gt;Vendor creates invoice</title>
<path fill="none" stroke="#000000" stroke-width="2.15" d="M152.37,-355.6C160.81,-350.35 169.76,-344.29 177.5,-338 186.04,-331.07 194.6,-322.71 202.08,-314.83"/>
<polygon fill="#000000" stroke="#000000" stroke-width="2.15" points="204.49,-317.37 208.68,-307.64 199.34,-312.64 204.49,-317.37"/>
<text text-anchor="middle" x="209.5" y="-326.8" font-family="Times,serif" font-size="14.00">18270</text>
</g>
<!-- Record Invoice Receipt -->
<g id="node5" class="node">
<title>Record Invoice Receipt</title>
<polygon fill="#ffffff" stroke="black" points="191,-218 0,-218 0,-182 191,-182 191,-218"/>
<text text-anchor="middle" x="95.5" y="-196.3" font-family="Times,serif" font-size="14.00">Record Invoice Receipt (31050)</text>
</g>
<!-- Record Goods Receipt&#45;&gt;Record Invoice Receipt -->
<g id="edge8" class="edge">
<title>Record Goods Receipt&#45;&gt;Record Invoice Receipt</title>
<path fill="none" stroke="#000000" stroke-width="0.5" d="M110.34,-355.64C102.51,-342.36 92.7,-323.29 88.5,-305 82.66,-279.59 85.61,-249.83 89.31,-228.67"/>
<polygon fill="#000000" stroke="#000000" stroke-width="0.5" points="92.73,-229.4 91.18,-218.92 85.86,-228.08 92.73,-229.4"/>
<text text-anchor="middle" x="105.5" y="-283.3" font-family="Times,serif" font-size="14.00">12780</text>
</g>
<!-- Vendor creates invoice&#45;&gt;Record Goods Receipt -->
<g id="edge7" class="edge">
<title>Vendor creates invoice&#45;&gt;Record Goods Receipt</title>
<path fill="none" stroke="#000000" stroke-width="0.5" d="M164.11,-305.41C155.03,-310.02 146.42,-315.79 139.5,-323 133.55,-329.2 129.54,-337.51 126.86,-345.57"/>
<polygon fill="#000000" stroke="#000000" stroke-width="0.5" points="123.51,-344.53 124.24,-355.1 130.26,-346.39 123.51,-344.53"/>
<text text-anchor="middle" x="156.5" y="-326.8" font-family="Times,serif" font-size="14.00">12780</text>
</g>
<!-- Vendor creates invoice&#45;&gt;Record Invoice Receipt -->
<g id="edge4" class="edge">
<title>Vendor creates invoice&#45;&gt;Record Invoice Receipt</title>
<path fill="none" stroke="#000000" stroke-width="2.15" d="M198.88,-268.59C179.86,-256.16 154.02,-239.26 132.93,-225.47"/>
<polygon fill="#000000" stroke="#000000" stroke-width="2.15" points="135.1,-222.71 124.81,-220.17 131.27,-228.57 135.1,-222.71"/>
<text text-anchor="middle" x="184.5" y="-239.8" font-family="Times,serif" font-size="14.00">18270</text>
</g>
<!-- Clear Invoice -->
<g id="node6" class="node">
<title>Clear Invoice</title>
<polygon fill="#ffffff" stroke="black" points="164,-131 27,-131 27,-95 164,-95 164,-131"/>
<text text-anchor="middle" x="95.5" y="-109.3" font-family="Times,serif" font-size="14.00">Clear Invoice (31050)</text>
</g>
<!-- Record Invoice Receipt&#45;&gt;Clear Invoice -->
<g id="edge5" class="edge">
<title>Record Invoice Receipt&#45;&gt;Clear Invoice</title>
<path fill="none" stroke="#000000" stroke-width="6" d="M95.5,-181.8C95.5,-171.96 95.5,-159.27 95.5,-147.53"/>
<polygon fill="#000000" stroke="#000000" stroke-width="6" points="100.75,-147.92 95.5,-137.92 90.25,-147.92 100.75,-147.92"/>
<text text-anchor="middle" x="112.5" y="-152.8" font-family="Times,serif" font-size="14.00">31050</text>
</g>
<!-- end_node -->
<g id="node7" class="node">
<title>end_node</title>
<ellipse fill="none" stroke="black" cx="95.5" cy="-22" rx="18" ry="18"/>
<ellipse fill="none" stroke="black" cx="95.5" cy="-22" rx="22" ry="22"/>
<text text-anchor="start" x="91" y="-18.3" font-family="Times,serif" font-size="14.00">■</text>
</g>
<!-- Clear Invoice&#45;&gt;end_node -->
<g id="edge9" class="edge">
<title>Clear Invoice&#45;&gt;end_node</title>
<path fill="none" stroke="#000000" stroke-width="6" d="M95.5,-94.84C95.5,-85.02 95.5,-72.3 95.5,-60.3"/>
<polygon fill="#000000" stroke="#000000" stroke-width="6" points="100.75,-60.64 95.5,-50.64 90.25,-60.64 100.75,-60.64"/>
<text text-anchor="middle" x="112.5" y="-65.8" font-family="Times,serif" font-size="14.00">31050</text>
</g>
</g>
</svg>
