<?xml version="1.0" encoding="UTF-8" standalone="no"?>
<!DOCTYPE svg PUBLIC "-//W3C//DTD SVG 1.1//EN"
 "http://www.w3.org/Graphics/SVG/1.1/DTD/svg11.dtd">
<!-- Generated by graphviz version 7.0.5 (0)
 -->
<!-- Title: dfg Pages: 1 -->
<svg width="555pt" height="769pt"
 viewBox="0.00 0.00 555.15 769.00" xmlns="http://www.w3.org/2000/svg" xmlns:xlink="http://www.w3.org/1999/xlink">
<g id="graph0" class="graph" transform="scale(1 1) rotate(0) translate(4 765)">
<title>dfg</title>
<polygon fill="white" stroke="none" points="-4,4 -4,-765 551.15,-765 551.15,4 -4,4"/>
<!-- start_node -->
<g id="node1" class="node">
<title>start_node</title>
<ellipse fill="none" stroke="black" cx="271.65" cy="-743" rx="18" ry="18"/>
<text text-anchor="start" x="267.15" y="-739.3" font-family="Times,serif" font-size="14.00">●</text>
</g>
<!-- Create Purchase Order Item -->
<g id="node2" class="node">
<title>Create Purchase Order Item</title>
<polygon fill="#9b9bff" stroke="black" points="379.15,-587 164.15,-587 164.15,-551 379.15,-551 379.15,-587"/>
<text text-anchor="middle" x="271.65" y="-565.3" font-family="Times,serif" font-size="14.00">Create Purchase Order Item (13982)</text>
</g>
<!-- start_node&#45;&gt;Create Purchase Order Item -->
<g id="edge1" class="edge">
<title>start_node&#45;&gt;Create Purchase Order Item</title>
<path fill="none" stroke="#000000" stroke-width="6.43" d="M269.37,-724.71C267.69,-710.99 265.53,-691.3 264.65,-674 263.83,-658.02 263.83,-653.98 264.65,-638 265.22,-626.78 266.33,-614.56 267.5,-603.61"/>
<polygon fill="#000000" stroke="#000000" stroke-width="6.43" points="273.07,-604.38 268.62,-593.8 261.9,-603.1 273.07,-604.38"/>
<text text-anchor="middle" x="281.65" y="-652.3" font-family="Times,serif" font-size="14.00">10334</text>
</g>
<!-- Create Purchase Requisition Item -->
<g id="node3" class="node">
<title>Create Purchase Requisition Item</title>
<polygon fill="#e7e7ff" stroke="black" points="547.15,-674 308.15,-674 308.15,-638 547.15,-638 547.15,-674"/>
<text text-anchor="middle" x="427.65" y="-652.3" font-family="Times,serif" font-size="14.00">Create Purchase Requisition Item (3648)</text>
</g>
<!-- start_node&#45;&gt;Create Purchase Requisition Item -->
<g id="edge2" class="edge">
<title>start_node&#45;&gt;Create Purchase Requisition Item</title>
<path fill="none" stroke="#000000" stroke-width="2.43" d="M287.17,-733.54C309.52,-721.36 351.61,-698.43 383.91,-680.83"/>
<polygon fill="#000000" stroke="#000000" stroke-width="2.43" points="385.41,-684 392.52,-676.14 382.06,-677.85 385.41,-684"/>
<text text-anchor="middle" x="372.65" y="-695.8" font-family="Times,serif" font-size="14.00">3648</text>
</g>
<!-- Vendor creates invoice -->
<g id="node4" class="node">
<title>Vendor creates invoice</title>
<polygon fill="#b2b2ff" stroke="black" points="356.15,-392 169.15,-392 169.15,-356 356.15,-356 356.15,-392"/>
<text text-anchor="middle" x="262.65" y="-370.3" font-family="Times,serif" font-size="14.00">Vendor creates invoice (10737)</text>
</g>
<!-- Create Purchase Order Item&#45;&gt;Vendor creates invoice -->
<g id="edge3" class="edge">
<title>Create Purchase Order Item&#45;&gt;Vendor creates invoice</title>
<path fill="none" stroke="#000000" stroke-width="4.11" d="M270.83,-550.53C269.33,-518.38 266.11,-449.35 264.19,-408.09"/>
<polygon fill="#000000" stroke="#000000" stroke-width="4.11" points="267.79,-408.18 263.74,-398.35 260.61,-408.51 267.79,-408.18"/>
<text text-anchor="middle" x="282.65" y="-478.3" font-family="Times,serif" font-size="14.00">6451</text>
</g>
<!-- Record Goods Receipt -->
<g id="node5" class="node">
<title>Record Goods Receipt</title>
<polygon fill="#a1a1ff" stroke="black" points="228.65,-305 42.65,-305 42.65,-269 228.65,-269 228.65,-305"/>
<text text-anchor="middle" x="135.65" y="-283.3" font-family="Times,serif" font-size="14.00">Record Goods Receipt (13151)</text>
</g>
<!-- Create Purchase Order Item&#45;&gt;Record Goods Receipt -->
<g id="edge7" class="edge">
<title>Create Purchase Order Item&#45;&gt;Record Goods Receipt</title>
<path fill="none" stroke="#000000" stroke-width="2.8" d="M163.99,-552.9C102.26,-541.79 33.4,-524.37 14.65,-500 -32.94,-438.19 50.47,-355.65 101.09,-314.16"/>
<polygon fill="#000000" stroke="#000000" stroke-width="2.8" points="103.01,-317.11 108.63,-308.13 98.64,-311.64 103.01,-317.11"/>
<text text-anchor="middle" x="28.65" y="-424.3" font-family="Times,serif" font-size="14.00">4264</text>
</g>
<!-- Receive Order Confirmation -->
<g id="node8" class="node">
<title>Receive Order Confirmation</title>
<polygon fill="#f0f0ff" stroke="black" points="235.65,-500 23.65,-500 23.65,-464 235.65,-464 235.65,-500"/>
<text text-anchor="middle" x="129.65" y="-478.3" font-family="Times,serif" font-size="14.00">Receive Order Confirmation (2436)</text>
</g>
<!-- Create Purchase Order Item&#45;&gt;Receive Order Confirmation -->
<g id="edge10" class="edge">
<title>Create Purchase Order Item&#45;&gt;Receive Order Confirmation</title>
<path fill="none" stroke="#000000" stroke-width="1.71" d="M242.57,-550.59C221.41,-537.93 192.52,-520.64 169.26,-506.71"/>
<polygon fill="#000000" stroke="#000000" stroke-width="1.71" points="171.29,-503.85 160.91,-501.71 167.69,-509.85 171.29,-503.85"/>
<text text-anchor="middle" x="223.65" y="-521.8" font-family="Times,serif" font-size="14.00">2436</text>
</g>
<!-- Delete Purchase Order Item -->
<g id="node9" class="node">
<title>Delete Purchase Order Item</title>
<polygon fill="#ffffff" stroke="black" points="486.65,-446 284.65,-446 284.65,-410 486.65,-410 486.65,-446"/>
<text text-anchor="middle" x="385.65" y="-424.3" font-family="Times,serif" font-size="14.00">Delete Purchase Order Item (407)</text>
</g>
<!-- Create Purchase Order Item&#45;&gt;Delete Purchase Order Item -->
<g id="edge14" class="edge">
<title>Create Purchase Order Item&#45;&gt;Delete Purchase Order Item</title>
<path fill="none" stroke="#ff0000" stroke-width="0.5" stroke-dasharray="5,2" d="M285.85,-550.68C305.76,-526.41 342.07,-482.13 364.97,-454.21"/>
<polygon fill="#ff0000" stroke="#ff0000" stroke-width="0.5" points="367.5,-456.64 371.14,-446.69 362.09,-452.2 367.5,-456.64"/>
<text text-anchor="middle" x="323.15" y="-521.8" font-family="Times,serif" font-size="14.00">407</text>
</g>
<!-- end_node -->
<g id="node10" class="node">
<title>end_node</title>
<ellipse fill="none" stroke="black" cx="292.65" cy="-22" rx="18" ry="18"/>
<ellipse fill="none" stroke="black" cx="292.65" cy="-22" rx="22" ry="22"/>
<text text-anchor="start" x="288.15" y="-18.3" font-family="Times,serif" font-size="14.00">■</text>
</g>
<!-- Create Purchase Order Item&#45;&gt;end_node -->
<g id="edge18" class="edge">
<title>Create Purchase Order Item&#45;&gt;end_node</title>
<path fill="none" stroke="#ff0000" stroke-width="0.51" stroke-dasharray="5,2" d="M367.52,-550.5C430.63,-536.15 501.65,-513.28 501.65,-483 501.65,-483 501.65,-483 501.65,-112 501.65,-36.42 384.51,-24.12 325.63,-22.72"/>
<polygon fill="#ff0000" stroke="#ff0000" stroke-width="0.51" points="325.83,-19.22 315.79,-22.58 325.73,-26.22 325.83,-19.22"/>
<text text-anchor="middle" x="512.15" y="-283.3" font-family="Times,serif" font-size="14.00">424</text>
</g>
<!-- Create Purchase Requisition Item&#45;&gt;Create Purchase Order Item -->
<g id="edge12" class="edge">
<title>Create Purchase Requisition Item&#45;&gt;Create Purchase Order Item</title>
<path fill="none" stroke="#000000" stroke-width="2.43" d="M395.7,-637.59C372.57,-624.99 341.01,-607.79 315.51,-593.9"/>
<polygon fill="#000000" stroke="#000000" stroke-width="2.43" points="317.24,-590.86 306.79,-589.15 313.89,-597 317.24,-590.86"/>
<text text-anchor="middle" x="372.65" y="-608.8" font-family="Times,serif" font-size="14.00">3648</text>
</g>
<!-- Vendor creates invoice&#45;&gt;Record Goods Receipt -->
<g id="edge4" class="edge">
<title>Vendor creates invoice&#45;&gt;Record Goods Receipt</title>
<path fill="none" stroke="#000000" stroke-width="5.3" d="M241.54,-355.55C229.09,-345.56 212.84,-333.06 197.65,-323 192.77,-319.77 187.59,-316.55 182.37,-313.43"/>
<polygon fill="#000000" stroke="#000000" stroke-width="5.3" points="185.09,-309.65 174.12,-308.65 180.45,-317.67 185.09,-309.65"/>
<text text-anchor="middle" x="232.65" y="-326.8" font-family="Times,serif" font-size="14.00">8444</text>
</g>
<!-- Record Invoice Receipt -->
<g id="node6" class="node">
<title>Record Invoice Receipt</title>
<polygon fill="#b2b2ff" stroke="black" points="356.15,-218 165.15,-218 165.15,-182 356.15,-182 356.15,-218"/>
<text text-anchor="middle" x="260.65" y="-196.3" font-family="Times,serif" font-size="14.00">Record Invoice Receipt (10737)</text>
</g>
<!-- Vendor creates invoice&#45;&gt;Record Invoice Receipt -->
<g id="edge9" class="edge">
<title>Vendor creates invoice&#45;&gt;Record Invoice Receipt</title>
<path fill="none" stroke="#000000" stroke-width="1.63" d="M262.44,-355.56C262.1,-326.2 261.41,-266.59 260.99,-230.58"/>
<polygon fill="#000000" stroke="#000000" stroke-width="1.63" points="264.49,-230.9 260.88,-220.95 257.49,-230.99 264.49,-230.9"/>
<text text-anchor="middle" x="276.65" y="-283.3" font-family="Times,serif" font-size="14.00">2293</text>
</g>
<!-- Record Goods Receipt&#45;&gt;Vendor creates invoice -->
<g id="edge8" class="edge">
<title>Record Goods Receipt&#45;&gt;Vendor creates invoice</title>
<path fill="none" stroke="#000000" stroke-width="1.63" d="M142.45,-305.37C147.44,-316.09 155.17,-329.38 165.65,-338 171.36,-342.7 177.76,-346.8 184.48,-350.36"/>
<polygon fill="#000000" stroke="#000000" stroke-width="1.63" points="182.48,-353.29 193.01,-354.47 185.52,-346.98 182.48,-353.29"/>
<text text-anchor="middle" x="179.65" y="-326.8" font-family="Times,serif" font-size="14.00">2293</text>
</g>
<!-- Record Goods Receipt&#45;&gt;Record Invoice Receipt -->
<g id="edge5" class="edge">
<title>Record Goods Receipt&#45;&gt;Record Invoice Receipt</title>
<path fill="none" stroke="#000000" stroke-width="5.3" d="M161.24,-268.59C178.69,-256.73 202.1,-240.81 221.83,-227.4"/>
<polygon fill="#000000" stroke="#000000" stroke-width="5.3" points="224.21,-231.38 229.88,-221.92 219,-223.71 224.21,-231.38"/>
<text text-anchor="middle" x="219.65" y="-239.8" font-family="Times,serif" font-size="14.00">8444</text>
</g>
<!-- Record Goods Receipt&#45;&gt;end_node -->
<g id="edge16" class="edge">
<title>Record Goods Receipt&#45;&gt;end_node</title>
<path fill="none" stroke="#000000" stroke-width="1.7" d="M134.99,-268.65C134.41,-226.46 139.21,-117.87 199.65,-62 216.31,-46.6 239.94,-36.79 259.21,-30.87"/>
<polygon fill="#000000" stroke="#000000" stroke-width="1.7" points="259.97,-34.29 268.65,-28.21 258.08,-27.55 259.97,-34.29"/>
<text text-anchor="middle" x="163.65" y="-152.8" font-family="Times,serif" font-size="14.00">2414</text>
</g>
<!-- Clear Invoice -->
<g id="node7" class="node">
<title>Clear Invoice</title>
<polygon fill="#bbbbff" stroke="black" points="357.65,-131 227.65,-131 227.65,-95 357.65,-95 357.65,-131"/>
<text text-anchor="middle" x="292.65" y="-109.3" font-family="Times,serif" font-size="14.00">Clear Invoice (9620)</text>
</g>
<!-- Record Invoice Receipt&#45;&gt;Clear Invoice -->
<g id="edge6" class="edge">
<title>Record Invoice Receipt&#45;&gt;Clear Invoice</title>
<path fill="none" stroke="#000000" stroke-width="6" d="M267.12,-181.8C270.91,-171.73 275.83,-158.67 280.33,-146.72"/>
<polygon fill="#000000" stroke="#000000" stroke-width="6" points="285.19,-148.72 283.8,-137.51 275.36,-145.02 285.19,-148.72"/>
<text text-anchor="middle" x="292.65" y="-152.8" font-family="Times,serif" font-size="14.00">9620</text>
</g>
<!-- Record Invoice Receipt&#45;&gt;end_node -->
<g id="edge17" class="edge">
<title>Record Invoice Receipt&#45;&gt;end_node</title>
<path fill="none" stroke="#000000" stroke-width="0.92" d="M235.08,-181.73C208.81,-161.7 173.92,-127.27 190.65,-95 205.5,-66.33 237.6,-46.65 261.85,-35.2"/>
<polygon fill="#000000" stroke="#000000" stroke-width="0.92" points="263.04,-38.5 270.74,-31.23 260.18,-32.11 263.04,-38.5"/>
<text text-anchor="middle" x="204.65" y="-109.3" font-family="Times,serif" font-size="14.00">1117</text>
</g>
<!-- Clear Invoice&#45;&gt;end_node -->
<g id="edge15" class="edge">
<title>Clear Invoice&#45;&gt;end_node</title>
<path fill="none" stroke="#000000" stroke-width="6" d="M292.65,-94.84C292.65,-85.02 292.65,-72.3 292.65,-60.3"/>
<polygon fill="#000000" stroke="#000000" stroke-width="6" points="297.9,-60.64 292.65,-50.64 287.4,-60.64 297.9,-60.64"/>
<text text-anchor="middle" x="306.65" y="-65.8" font-family="Times,serif" font-size="14.00">9620</text>
</g>
<!-- Receive Order Confirmation&#45;&gt;Vendor creates invoice -->
<g id="edge11" class="edge">
<title>Receive Order Confirmation&#45;&gt;Vendor creates invoice</title>
<path fill="none" stroke="#000000" stroke-width="1.45" d="M151.31,-463.73C173.15,-446.33 207.05,-419.31 231.71,-399.66"/>
<polygon fill="#000000" stroke="#000000" stroke-width="1.45" points="233.64,-402.59 239.28,-393.62 229.28,-397.12 233.64,-402.59"/>
<text text-anchor="middle" x="230.65" y="-424.3" font-family="Times,serif" font-size="14.00">1993</text>
</g>
<!-- Receive Order Confirmation&#45;&gt;Record Goods Receipt -->
<g id="edge13" class="edge">
<title>Receive Order Confirmation&#45;&gt;Record Goods Receipt</title>
<path fill="none" stroke="#ff0000" stroke-width="0.52" stroke-dasharray="5,2" d="M130.19,-463.53C131.23,-430.02 133.52,-356.43 134.78,-315.99"/>
<polygon fill="#ff0000" stroke="#ff0000" stroke-width="0.52" points="138.27,-316.18 135.08,-306.08 131.28,-315.96 138.27,-316.18"/>
<text text-anchor="middle" x="144.15" y="-370.3" font-family="Times,serif" font-size="14.00">443</text>
</g>
<!-- Delete Purchase Order Item&#45;&gt;end_node -->
<g id="edge19" class="edge">
<title>Delete Purchase Order Item&#45;&gt;end_node</title>
<path fill="none" stroke="#ff0000" stroke-width="0.5" stroke-dasharray="5,2" d="M385.65,-409.75C385.65,-390.62 385.65,-358.86 385.65,-331.5 385.65,-331.5 385.65,-331.5 385.65,-112 385.65,-76.37 349.58,-50.6 322.37,-36.23"/>
<polygon fill="#ff0000" stroke="#ff0000" stroke-width="0.5" points="324.01,-33.14 313.5,-31.79 320.88,-39.4 324.01,-33.14"/>
<text text-anchor="middle" x="396.15" y="-239.8" font-family="Times,serif" font-size="14.00">407</text>
</g>
</g>
</svg>
