<?xml version="1.0" encoding="UTF-8" standalone="no"?>
<!DOCTYPE svg PUBLIC "-//W3C//DTD SVG 1.1//EN"
 "http://www.w3.org/Graphics/SVG/1.1/DTD/svg11.dtd">
<!-- Generated by graphviz version 7.0.5 (0)
 -->
<!-- Title: dfg Pages: 1 -->
<svg width="1037pt" height="1009pt"
 viewBox="0.00 0.00 1037.00 1009.00" xmlns="http://www.w3.org/2000/svg" xmlns:xlink="http://www.w3.org/1999/xlink">
<g id="graph0" class="graph" transform="scale(1 1) rotate(0) translate(4 1005)">
<title>dfg</title>
<polygon fill="white" stroke="none" points="-4,4 -4,-1005 1033,-1005 1033,4 -4,4"/>
<!-- start_node -->
<g id="node1" class="node">
<title>start_node</title>
<ellipse fill="none" stroke="black" cx="257" cy="-983" rx="18" ry="18"/>
<text text-anchor="start" x="252.5" y="-979.3" font-family="Times,serif" font-size="14.00">●</text>
</g>
<!-- Create Purchase Order Item -->
<g id="node2" class="node">
<title>Create Purchase Order Item</title>
<polygon fill="#cdcdff" stroke="black" points="361,-827 159,-827 159,-791 361,-791 361,-827"/>
<text text-anchor="middle" x="260" y="-805.3" font-family="Times,serif" font-size="14.00">Create Purchase Order Item (774)</text>
</g>
<!-- start_node&#45;&gt;Create Purchase Order Item -->
<g id="edge1" class="edge">
<title>start_node&#45;&gt;Create Purchase Order Item</title>
<path fill="none" stroke="#000000" stroke-width="7.26" d="M239.53,-977.92C194.42,-966.51 79.85,-931.59 114,-878 126.7,-858.08 146.92,-843.9 168.32,-833.84"/>
<polygon fill="#000000" stroke="#000000" stroke-width="7.26" points="170.65,-839.75 177.39,-830 165.71,-828.05 170.65,-839.75"/>
<text text-anchor="middle" x="124.5" y="-892.3" font-family="Times,serif" font-size="14.00">735</text>
</g>
<!-- Vendor creates invoice -->
<g id="node3" class="node">
<title>Vendor creates invoice</title>
<polygon fill="#bdbdff" stroke="black" points="423,-653 243,-653 243,-617 423,-617 423,-653"/>
<text text-anchor="middle" x="333" y="-631.3" font-family="Times,serif" font-size="14.00">Vendor creates invoice (1028)</text>
</g>
<!-- start_node&#45;&gt;Vendor creates invoice -->
<g id="edge2" class="edge">
<title>start_node&#45;&gt;Vendor creates invoice</title>
<path fill="none" stroke="#ff0000" stroke-width="0.71" stroke-dasharray="5,2" d="M275.14,-979.65C313.23,-973.59 398,-953.74 398,-897 398,-897 398,-897 398,-721 398,-697.05 381.52,-675.67 365.15,-660.34"/>
<polygon fill="#ff0000" stroke="#ff0000" stroke-width="0.71" points="367.82,-658.03 358.01,-654.03 363.19,-663.28 367.82,-658.03"/>
<text text-anchor="middle" x="405" y="-805.3" font-family="Times,serif" font-size="14.00">26</text>
</g>
<!-- Create Purchase Requisition Item -->
<g id="node4" class="node">
<title>Create Purchase Requisition Item</title>
<polygon fill="#fefeff" stroke="black" points="370,-914 144,-914 144,-878 370,-878 370,-914"/>
<text text-anchor="middle" x="257" y="-892.3" font-family="Times,serif" font-size="14.00">Create Purchase Requisition Item (13)</text>
</g>
<!-- start_node&#45;&gt;Create Purchase Requisition Item -->
<g id="edge3" class="edge">
<title>start_node&#45;&gt;Create Purchase Requisition Item</title>
<path fill="none" stroke="#ff0000" stroke-width="0.59" stroke-dasharray="5,2" d="M257,-964.8C257,-953.47 257,-938.36 257,-925.29"/>
<polygon fill="#ff0000" stroke="#ff0000" stroke-width="0.59" points="260.5,-925.36 257,-915.36 253.5,-925.36 260.5,-925.36"/>
<text text-anchor="middle" x="264" y="-935.8" font-family="Times,serif" font-size="14.00">13</text>
</g>
<!-- Create Purchase Order Item&#45;&gt;Vendor creates invoice -->
<g id="edge10" class="edge">
<title>Create Purchase Order Item&#45;&gt;Vendor creates invoice</title>
<path fill="none" stroke="#000000" stroke-width="3" d="M295.64,-790.53C302.35,-785.72 308.62,-779.89 313,-773 333.22,-741.19 336.17,-696.94 335.42,-667.43"/>
<polygon fill="#000000" stroke="#000000" stroke-width="3" points="338.93,-667.47 334.96,-657.64 331.94,-667.8 338.93,-667.47"/>
<text text-anchor="middle" x="344.5" y="-718.3" font-family="Times,serif" font-size="14.00">274</text>
</g>
<!-- Receive Order Confirmation -->
<g id="node5" class="node">
<title>Receive Order Confirmation</title>
<polygon fill="#f6f6ff" stroke="black" points="632,-740 426,-740 426,-704 632,-704 632,-740"/>
<text text-anchor="middle" x="529" y="-718.3" font-family="Times,serif" font-size="14.00">Receive Order Confirmation (130)</text>
</g>
<!-- Create Purchase Order Item&#45;&gt;Receive Order Confirmation -->
<g id="edge4" class="edge">
<title>Create Purchase Order Item&#45;&gt;Receive Order Confirmation</title>
<path fill="none" stroke="#000000" stroke-width="1.67" d="M315.09,-790.59C357.7,-777.13 416.88,-758.43 462.19,-744.11"/>
<polygon fill="#000000" stroke="#000000" stroke-width="1.67" points="463.09,-747.5 471.58,-741.15 460.99,-740.82 463.09,-747.5"/>
<text text-anchor="middle" x="420.5" y="-761.8" font-family="Times,serif" font-size="14.00">130</text>
</g>
<!-- Record Goods Receipt -->
<g id="node6" class="node">
<title>Record Goods Receipt</title>
<polygon fill="#c3c3ff" stroke="black" points="465.5,-479 292.5,-479 292.5,-443 465.5,-443 465.5,-479"/>
<text text-anchor="middle" x="379" y="-457.3" font-family="Times,serif" font-size="14.00">Record Goods Receipt (940)</text>
</g>
<!-- Create Purchase Order Item&#45;&gt;Record Goods Receipt -->
<g id="edge26" class="edge">
<title>Create Purchase Order Item&#45;&gt;Record Goods Receipt</title>
<path fill="none" stroke="#000000" stroke-width="2.74" d="M171,-790.53C137.34,-778.29 107,-757.64 107,-723 107,-723 107,-723 107,-547 107,-527.91 205.84,-500.95 284.36,-482.54"/>
<polygon fill="#000000" stroke="#000000" stroke-width="2.74" points="284.76,-486.04 293.72,-480.37 283.18,-479.22 284.76,-486.04"/>
<text text-anchor="middle" x="117.5" y="-631.3" font-family="Times,serif" font-size="14.00">246</text>
</g>
<!-- Vendor creates debit memo -->
<g id="node9" class="node">
<title>Vendor creates debit memo</title>
<polygon fill="#e3e3ff" stroke="black" points="856,-131 656,-131 656,-95 856,-95 856,-131"/>
<text text-anchor="middle" x="756" y="-109.3" font-family="Times,serif" font-size="14.00">Vendor creates debit memo (430)</text>
</g>
<!-- Create Purchase Order Item&#45;&gt;Vendor creates debit memo -->
<g id="edge18" class="edge">
<title>Create Purchase Order Item&#45;&gt;Vendor creates debit memo</title>
<path fill="none" stroke="#000000" stroke-width="1.57" d="M361.19,-792.94C366.2,-792.27 371.15,-791.62 376,-791 446.06,-782.1 1008,-793.63 1008,-723 1008,-723 1008,-723 1008,-199 1008,-165.96 982.65,-163.57 953,-149 927.02,-136.23 897.07,-128.06 868.5,-122.86"/>
<polygon fill="#000000" stroke="#000000" stroke-width="1.57" points="869.14,-119.42 858.7,-121.2 867.97,-126.32 869.14,-119.42"/>
<text text-anchor="middle" x="1018.5" y="-457.3" font-family="Times,serif" font-size="14.00">119</text>
</g>
<!-- Change Quantity -->
<g id="node13" class="node">
<title>Change Quantity</title>
<polygon fill="#ffffff" stroke="black" points="263,-740 135,-740 135,-704 263,-704 263,-740"/>
<text text-anchor="middle" x="199" y="-718.3" font-family="Times,serif" font-size="14.00">Change Quantity (5)</text>
</g>
<!-- Create Purchase Order Item&#45;&gt;Change Quantity -->
<g id="edge50" class="edge">
<title>Create Purchase Order Item&#45;&gt;Change Quantity</title>
<path fill="none" stroke="#ff0000" stroke-width="0.52" stroke-dasharray="5,2" d="M247.66,-790.8C239.03,-778.78 227.36,-762.52 217.61,-748.94"/>
<polygon fill="#ff0000" stroke="#ff0000" stroke-width="0.52" points="220.67,-747.19 211.99,-741.1 214.98,-751.27 220.67,-747.19"/>
<text text-anchor="middle" x="237.5" y="-761.8" font-family="Times,serif" font-size="14.00">5</text>
</g>
<!-- Vendor creates invoice&#45;&gt;Create Purchase Order Item -->
<g id="edge24" class="edge">
<title>Vendor creates invoice&#45;&gt;Create Purchase Order Item</title>
<path fill="none" stroke="#ff0000" stroke-width="0.71" stroke-dasharray="5,2" d="M325.58,-653.48C312.83,-683.52 286.69,-745.13 271.54,-780.81"/>
<polygon fill="#ff0000" stroke="#ff0000" stroke-width="0.71" points="268.51,-779 267.82,-789.57 274.95,-781.73 268.51,-779"/>
<text text-anchor="middle" x="310" y="-718.3" font-family="Times,serif" font-size="14.00">26</text>
</g>
<!-- Vendor creates invoice&#45;&gt;Vendor creates invoice -->
<g id="edge45" class="edge">
<title>Vendor creates invoice&#45;&gt;Vendor creates invoice</title>
<path fill="none" stroke="#ff0000" stroke-width="0.63" stroke-dasharray="5,2" d="M423.2,-642.01C433.97,-640.73 441,-638.4 441,-635 441,-632.93 438.39,-631.25 433.91,-629.97"/>
<polygon fill="#ff0000" stroke="#ff0000" stroke-width="0.63" points="434.61,-626.54 424.14,-628.16 433.34,-633.42 434.61,-626.54"/>
<text text-anchor="middle" x="448" y="-631.3" font-family="Times,serif" font-size="14.00">17</text>
</g>
<!-- Vendor creates invoice&#45;&gt;Record Goods Receipt -->
<g id="edge20" class="edge">
<title>Vendor creates invoice&#45;&gt;Record Goods Receipt</title>
<path fill="none" stroke="#000000" stroke-width="3.18" d="M340.96,-616.72C346.93,-603.17 354.92,-583.7 360,-566 366.86,-542.1 371.78,-514.37 374.89,-493.56"/>
<polygon fill="#000000" stroke="#000000" stroke-width="3.18" points="378.32,-494.32 376.25,-483.93 371.39,-493.34 378.32,-494.32"/>
<text text-anchor="middle" x="378.5" y="-544.3" font-family="Times,serif" font-size="14.00">293</text>
</g>
<!-- Record Invoice Receipt -->
<g id="node7" class="node">
<title>Record Invoice Receipt</title>
<polygon fill="#9b9bff" stroke="black" points="442.5,-218 257.5,-218 257.5,-182 442.5,-182 442.5,-218"/>
<text text-anchor="middle" x="350" y="-196.3" font-family="Times,serif" font-size="14.00">Record Invoice Receipt (1564)</text>
</g>
<!-- Vendor creates invoice&#45;&gt;Record Invoice Receipt -->
<g id="edge7" class="edge">
<title>Vendor creates invoice&#45;&gt;Record Invoice Receipt</title>
<path fill="none" stroke="#000000" stroke-width="4.55" d="M242.89,-625.5C156.13,-614.74 38,-592.17 38,-549 38,-549 38,-549 38,-329.5 38,-300.57 40.88,-288.76 62,-269 81.09,-251.14 93.94,-261.21 118,-251 131,-245.48 132.64,-240.57 146,-236 186.26,-222.21 201.53,-225.12 241.3,-219.58"/>
<polygon fill="#000000" stroke="#000000" stroke-width="4.55" points="241.81,-223.53 251.07,-218.06 240.58,-215.66 241.81,-223.53"/>
<text text-anchor="middle" x="48.5" y="-413.8" font-family="Times,serif" font-size="14.00">442</text>
</g>
<!-- Clear Invoice -->
<g id="node8" class="node">
<title>Clear Invoice</title>
<polygon fill="#a3a3ff" stroke="black" points="279,-131 149,-131 149,-95 279,-95 279,-131"/>
<text text-anchor="middle" x="214" y="-109.3" font-family="Times,serif" font-size="14.00">Clear Invoice (1428)</text>
</g>
<!-- Vendor creates invoice&#45;&gt;Clear Invoice -->
<g id="edge47" class="edge">
<title>Vendor creates invoice&#45;&gt;Clear Invoice</title>
<path fill="none" stroke="#ff0000" stroke-width="0.52" stroke-dasharray="5,2" d="M242.59,-627.25C177.67,-621.45 96.32,-611.98 65,-599 31.33,-585.05 0,-585.45 0,-549 0,-549 0,-549 0,-329.5 0,-235.97 102.76,-168.58 165.86,-136.02"/>
<polygon fill="#ff0000" stroke="#ff0000" stroke-width="0.52" points="167.2,-139.27 174.55,-131.64 164.04,-133.02 167.2,-139.27"/>
<text text-anchor="middle" x="3.5" y="-370.3" font-family="Times,serif" font-size="14.00">5</text>
</g>
<!-- Vendor creates invoice&#45;&gt;Vendor creates debit memo -->
<g id="edge11" class="edge">
<title>Vendor creates invoice&#45;&gt;Vendor creates debit memo</title>
<path fill="none" stroke="#000000" stroke-width="2.51" d="M423.46,-627.51C470.7,-624.2 529.45,-620.21 582,-617 619.1,-614.73 882.65,-615.41 916,-599 942.3,-586.06 959,-578.31 959,-549 959,-549 959,-549 959,-199 959,-154.04 916.12,-132.46 869.77,-122.25"/>
<polygon fill="#000000" stroke="#000000" stroke-width="2.51" points="870.53,-118.84 860.04,-120.34 869.18,-125.71 870.53,-118.84"/>
<text text-anchor="middle" x="969.5" y="-370.3" font-family="Times,serif" font-size="14.00">221</text>
</g>
<!-- Cancel Invoice Receipt -->
<g id="node10" class="node">
<title>Cancel Invoice Receipt</title>
<polygon fill="#e0e0ff" stroke="black" points="577,-305 401,-305 401,-269 577,-269 577,-305"/>
<text text-anchor="middle" x="489" y="-283.3" font-family="Times,serif" font-size="14.00">Cancel Invoice Receipt (487)</text>
</g>
<!-- Vendor creates invoice&#45;&gt;Cancel Invoice Receipt -->
<g id="edge59" class="edge">
<title>Vendor creates invoice&#45;&gt;Cancel Invoice Receipt</title>
<path fill="none" stroke="#ff0000" stroke-width="0.5" stroke-dasharray="5,2" d="M423.47,-628.01C474.04,-619.17 527,-598.18 527,-549 527,-549 527,-549 527,-373 527,-351.92 517.14,-330.26 507.46,-314.08"/>
<polygon fill="#ff0000" stroke="#ff0000" stroke-width="0.5" points="510.58,-312.45 502.27,-305.87 504.66,-316.19 510.58,-312.45"/>
<text text-anchor="middle" x="530.5" y="-457.3" font-family="Times,serif" font-size="14.00">3</text>
</g>
<!-- Remove Payment Block -->
<g id="node11" class="node">
<title>Remove Payment Block</title>
<polygon fill="#e4e4ff" stroke="black" points="312.5,-392 129.5,-392 129.5,-356 312.5,-356 312.5,-392"/>
<text text-anchor="middle" x="221" y="-370.3" font-family="Times,serif" font-size="14.00">Remove Payment Block (422)</text>
</g>
<!-- Vendor creates invoice&#45;&gt;Remove Payment Block -->
<g id="edge43" class="edge">
<title>Vendor creates invoice&#45;&gt;Remove Payment Block</title>
<path fill="none" stroke="#ff0000" stroke-width="0.56" stroke-dasharray="5,2" d="M321.76,-616.53C304.14,-588.49 269.88,-531.3 249,-479 239.01,-453.98 231.4,-424.17 226.65,-402.9"/>
<polygon fill="#ff0000" stroke="#ff0000" stroke-width="0.56" points="230.08,-402.2 224.55,-393.17 223.23,-403.68 230.08,-402.2"/>
<text text-anchor="middle" x="270" y="-500.8" font-family="Times,serif" font-size="14.00">10</text>
</g>
<!-- Change Price -->
<g id="node12" class="node">
<title>Change Price</title>
<polygon fill="#fcfcff" stroke="black" points="731,-566 615,-566 615,-530 731,-530 731,-566"/>
<text text-anchor="middle" x="673" y="-544.3" font-family="Times,serif" font-size="14.00">Change Price (45)</text>
</g>
<!-- Vendor creates invoice&#45;&gt;Change Price -->
<g id="edge32" class="edge">
<title>Vendor creates invoice&#45;&gt;Change Price</title>
<path fill="none" stroke="#ff0000" stroke-width="0.57" stroke-dasharray="5,2" d="M423.41,-622.72C460.24,-617.11 503,-609.29 541,-599 568.86,-591.46 599.02,-580.27 623.47,-570.39"/>
<polygon fill="#ff0000" stroke="#ff0000" stroke-width="0.57" points="624.5,-573.75 632.43,-566.73 621.85,-567.28 624.5,-573.75"/>
<text text-anchor="middle" x="592" y="-587.8" font-family="Times,serif" font-size="14.00">11</text>
</g>
<!-- Create Purchase Requisition Item&#45;&gt;Create Purchase Order Item -->
<g id="edge40" class="edge">
<title>Create Purchase Requisition Item&#45;&gt;Create Purchase Order Item</title>
<path fill="none" stroke="#ff0000" stroke-width="0.59" stroke-dasharray="5,2" d="M257.61,-877.8C258.01,-866.47 258.54,-851.36 259,-838.29"/>
<polygon fill="#ff0000" stroke="#ff0000" stroke-width="0.59" points="262.5,-838.48 259.35,-828.36 255.5,-838.23 262.5,-838.48"/>
<text text-anchor="middle" x="265" y="-848.8" font-family="Times,serif" font-size="14.00">13</text>
</g>
<!-- Receive Order Confirmation&#45;&gt;Vendor creates invoice -->
<g id="edge34" class="edge">
<title>Receive Order Confirmation&#45;&gt;Vendor creates invoice</title>
<path fill="none" stroke="#ff0000" stroke-width="0.59" stroke-dasharray="5,2" d="M488.86,-703.59C458.21,-690.3 415.79,-671.91 382.95,-657.66"/>
<polygon fill="#ff0000" stroke="#ff0000" stroke-width="0.59" points="384.47,-654.51 373.91,-653.74 381.69,-660.93 384.47,-654.51"/>
<text text-anchor="middle" x="449" y="-674.8" font-family="Times,serif" font-size="14.00">13</text>
</g>
<!-- Receive Order Confirmation&#45;&gt;Record Goods Receipt -->
<g id="edge5" class="edge">
<title>Receive Order Confirmation&#45;&gt;Record Goods Receipt</title>
<path fill="none" stroke="#000000" stroke-width="1.52" d="M518.93,-703.6C493.41,-659.55 426.09,-543.32 395.07,-489.75"/>
<polygon fill="#000000" stroke="#000000" stroke-width="1.52" points="398.22,-488.2 390.18,-481.3 392.16,-491.71 398.22,-488.2"/>
<text text-anchor="middle" x="467.5" y="-587.8" font-family="Times,serif" font-size="14.00">113</text>
</g>
<!-- Receive Order Confirmation&#45;&gt;Change Price -->
<g id="edge54" class="edge">
<title>Receive Order Confirmation&#45;&gt;Change Price</title>
<path fill="none" stroke="#ff0000" stroke-width="0.51" stroke-dasharray="5,2" d="M543.6,-703.56C569.15,-673.04 622.07,-609.83 651.71,-574.43"/>
<polygon fill="#ff0000" stroke="#ff0000" stroke-width="0.51" points="654.13,-576.99 657.87,-567.08 648.76,-572.5 654.13,-576.99"/>
<text text-anchor="middle" x="618.5" y="-631.3" font-family="Times,serif" font-size="14.00">4</text>
</g>
<!-- Record Goods Receipt&#45;&gt;Vendor creates invoice -->
<g id="edge6" class="edge">
<title>Record Goods Receipt&#45;&gt;Vendor creates invoice</title>
<path fill="none" stroke="#000000" stroke-width="4.68" d="M365.63,-479.37C356.34,-492.5 344.65,-511.39 339,-530 332.06,-552.87 330.68,-579.84 330.98,-600.59"/>
<polygon fill="#000000" stroke="#000000" stroke-width="4.68" points="326.88,-600.62 331.33,-610.46 335.07,-600.33 326.88,-600.62"/>
<text text-anchor="middle" x="349.5" y="-544.3" font-family="Times,serif" font-size="14.00">456</text>
</g>
<!-- Record Goods Receipt&#45;&gt;Record Goods Receipt -->
<g id="edge41" class="edge">
<title>Record Goods Receipt&#45;&gt;Record Goods Receipt</title>
<path fill="none" stroke="#ff0000" stroke-width="0.54" stroke-dasharray="5,2" d="M465.89,-468.06C476.53,-466.79 483.5,-464.44 483.5,-461 483.5,-458.9 480.91,-457.21 476.48,-455.92"/>
<polygon fill="#ff0000" stroke="#ff0000" stroke-width="0.54" points="477.16,-452.49 466.69,-454.09 475.87,-459.37 477.16,-452.49"/>
<text text-anchor="middle" x="487" y="-457.3" font-family="Times,serif" font-size="14.00">7</text>
</g>
<!-- Record Goods Receipt&#45;&gt;Record Invoice Receipt -->
<g id="edge13" class="edge">
<title>Record Goods Receipt&#45;&gt;Record Invoice Receipt</title>
<path fill="none" stroke="#000000" stroke-width="3.83" d="M370.7,-442.74C360.08,-419.56 342.3,-376.79 336,-338 330.23,-302.46 336.1,-261.32 341.9,-233.47"/>
<polygon fill="#000000" stroke="#000000" stroke-width="3.83" points="345.24,-234.57 344.03,-224.04 338.41,-233.02 345.24,-234.57"/>
<text text-anchor="middle" x="346.5" y="-326.8" font-family="Times,serif" font-size="14.00">364</text>
</g>
<!-- Record Goods Receipt&#45;&gt;Vendor creates debit memo -->
<g id="edge31" class="edge">
<title>Record Goods Receipt&#45;&gt;Vendor creates debit memo</title>
<path fill="none" stroke="#000000" stroke-width="1.15" d="M428.92,-442.58C510.26,-411.38 670.01,-337.81 747,-218 761.3,-195.74 762.22,-165.06 760.37,-142.79"/>
<polygon fill="#000000" stroke="#000000" stroke-width="1.15" points="763.88,-142.67 759.31,-133.11 756.92,-143.44 763.88,-142.67"/>
<text text-anchor="middle" x="713" y="-283.3" font-family="Times,serif" font-size="14.00">73</text>
</g>
<!-- Record Goods Receipt&#45;&gt;Cancel Invoice Receipt -->
<g id="edge42" class="edge">
<title>Record Goods Receipt&#45;&gt;Cancel Invoice Receipt</title>
<path fill="none" stroke="#ff0000" stroke-width="0.66" stroke-dasharray="5,2" d="M390.15,-442.56C409.51,-412.3 449.42,-349.9 472.16,-314.33"/>
<polygon fill="#ff0000" stroke="#ff0000" stroke-width="0.66" points="474.84,-316.63 477.28,-306.32 468.95,-312.86 474.84,-316.63"/>
<text text-anchor="middle" x="451" y="-370.3" font-family="Times,serif" font-size="14.00">20</text>
</g>
<!-- Record Goods Receipt&#45;&gt;Remove Payment Block -->
<g id="edge37" class="edge">
<title>Record Goods Receipt&#45;&gt;Remove Payment Block</title>
<path fill="none" stroke="#ff0000" stroke-width="0.66" stroke-dasharray="5,2" d="M327.48,-442.65C314.61,-437.59 301.05,-431.62 289,-425 281.34,-420.79 266.06,-409.66 251.93,-398.96"/>
<polygon fill="#ff0000" stroke="#ff0000" stroke-width="0.66" points="254.21,-396.3 244.14,-393.02 249.97,-401.87 254.21,-396.3"/>
<text text-anchor="middle" x="296" y="-413.8" font-family="Times,serif" font-size="14.00">20</text>
</g>
<!-- Record Invoice Receipt&#45;&gt;Vendor creates invoice -->
<g id="edge35" class="edge">
<title>Record Invoice Receipt&#45;&gt;Vendor creates invoice</title>
<path fill="none" stroke="#000000" stroke-width="0.81" d="M257.19,-218.09C234.74,-223.4 214.49,-229.57 205,-236 150.9,-272.67 139.82,-293.72 120,-356 84.78,-466.67 220.7,-566.96 291.98,-610.75"/>
<polygon fill="#000000" stroke="#000000" stroke-width="0.81" points="290.16,-613.74 300.53,-615.91 293.78,-607.74 290.16,-613.74"/>
<text text-anchor="middle" x="126" y="-413.8" font-family="Times,serif" font-size="14.00">37</text>
</g>
<!-- Record Invoice Receipt&#45;&gt;Record Goods Receipt -->
<g id="edge29" class="edge">
<title>Record Invoice Receipt&#45;&gt;Record Goods Receipt</title>
<path fill="none" stroke="#000000" stroke-width="1.92" d="M352,-218.45C352.64,-224.05 353.35,-230.29 354,-236 361.83,-305.32 370.88,-386.72 375.65,-429.76"/>
<polygon fill="#000000" stroke="#000000" stroke-width="1.92" points="372.17,-430.13 376.75,-439.68 379.13,-429.36 372.17,-430.13"/>
<text text-anchor="middle" x="375.5" y="-326.8" font-family="Times,serif" font-size="14.00">157</text>
</g>
<!-- Record Invoice Receipt&#45;&gt;Record Invoice Receipt -->
<g id="edge8" class="edge">
<title>Record Invoice Receipt&#45;&gt;Record Invoice Receipt</title>
<path fill="none" stroke="#000000" stroke-width="1.91" d="M442.7,-206.96C453.48,-205.68 460.5,-203.36 460.5,-200 460.5,-198.22 458.52,-196.73 455.05,-195.53"/>
<polygon fill="#000000" stroke="#000000" stroke-width="1.91" points="456.03,-192.16 445.54,-193.61 454.65,-199.02 456.03,-192.16"/>
<text text-anchor="middle" x="471" y="-196.3" font-family="Times,serif" font-size="14.00">156</text>
</g>
<!-- Record Invoice Receipt&#45;&gt;Clear Invoice -->
<g id="edge9" class="edge">
<title>Record Invoice Receipt&#45;&gt;Clear Invoice</title>
<path fill="none" stroke="#000000" stroke-width="6" d="M302.39,-181.54C291.07,-176.55 279.3,-170.64 269,-164 259.49,-157.87 250.05,-150.07 241.74,-142.47"/>
<polygon fill="#000000" stroke="#000000" stroke-width="6" points="245.64,-138.94 234.79,-135.8 238.37,-146.51 245.64,-138.94"/>
<text text-anchor="middle" x="279.5" y="-152.8" font-family="Times,serif" font-size="14.00">599</text>
</g>
<!-- Record Invoice Receipt&#45;&gt;Vendor creates debit memo -->
<g id="edge58" class="edge">
<title>Record Invoice Receipt&#45;&gt;Vendor creates debit memo</title>
<path fill="none" stroke="#ff0000" stroke-width="0.51" stroke-dasharray="5,2" d="M395.93,-181.61C426,-170.82 466.38,-157.45 503,-149 549,-138.39 600.5,-130.55 644.96,-125.02"/>
<polygon fill="#ff0000" stroke="#ff0000" stroke-width="0.51" points="645.25,-128.51 654.75,-123.82 644.4,-121.56 645.25,-128.51"/>
<text text-anchor="middle" x="506.5" y="-152.8" font-family="Times,serif" font-size="14.00">4</text>
</g>
<!-- Record Invoice Receipt&#45;&gt;Cancel Invoice Receipt -->
<g id="edge14" class="edge">
<title>Record Invoice Receipt&#45;&gt;Cancel Invoice Receipt</title>
<path fill="none" stroke="#000000" stroke-width="3.46" d="M404.47,-218.32C416.31,-223.19 428.45,-229.08 439,-236 448.24,-242.06 457.17,-250.04 464.86,-257.84"/>
<polygon fill="#000000" stroke="#000000" stroke-width="3.46" points="462.19,-260.11 471.57,-265.06 467.32,-255.35 462.19,-260.11"/>
<text text-anchor="middle" x="467.5" y="-239.8" font-family="Times,serif" font-size="14.00">324</text>
</g>
<!-- Record Invoice Receipt&#45;&gt;Remove Payment Block -->
<g id="edge23" class="edge">
<title>Record Invoice Receipt&#45;&gt;Remove Payment Block</title>
<path fill="none" stroke="#000000" stroke-width="2.52" d="M307.84,-218.4C297.93,-223.39 287.73,-229.31 279,-236 263.5,-247.88 259.3,-251.83 250,-269 237.6,-291.9 230.11,-320.58 225.86,-342.01"/>
<polygon fill="#000000" stroke="#000000" stroke-width="2.52" points="222.43,-341.32 224.1,-351.78 229.32,-342.57 222.43,-341.32"/>
<text text-anchor="middle" x="260.5" y="-283.3" font-family="Times,serif" font-size="14.00">222</text>
</g>
<!-- Record Invoice Receipt&#45;&gt;Change Price -->
<g id="edge52" class="edge">
<title>Record Invoice Receipt&#45;&gt;Change Price</title>
<path fill="none" stroke="#ff0000" stroke-width="0.59" stroke-dasharray="5,2" d="M442.81,-212.95C457.58,-214.72 472.7,-216.47 487,-218 575.74,-227.5 603.19,-205.32 687,-236 710.97,-244.77 720.02,-247.65 734,-269 785.18,-347.15 764.76,-388.15 743,-479 739.29,-494.49 739.35,-499.88 729,-512 725.46,-516.14 721.31,-519.96 716.89,-523.42"/>
<polygon fill="#ff0000" stroke="#ff0000" stroke-width="0.59" points="715,-520.46 708.88,-529.11 719.06,-526.17 715,-520.46"/>
<text text-anchor="middle" x="773" y="-370.3" font-family="Times,serif" font-size="14.00">13</text>
</g>
<!-- end_node -->
<g id="node14" class="node">
<title>end_node</title>
<ellipse fill="none" stroke="black" cx="319" cy="-22" rx="18" ry="18"/>
<ellipse fill="none" stroke="black" cx="319" cy="-22" rx="22" ry="22"/>
<text text-anchor="start" x="314.5" y="-18.3" font-family="Times,serif" font-size="14.00">■</text>
</g>
<!-- Record Invoice Receipt&#45;&gt;end_node -->
<g id="edge62" class="edge">
<title>Record Invoice Receipt&#45;&gt;end_node</title>
<path fill="none" stroke="#000000" stroke-width="0.95" d="M346.97,-181.8C341.82,-152.54 331.26,-92.59 324.69,-55.3"/>
<polygon fill="#000000" stroke="#000000" stroke-width="0.95" points="328.14,-54.72 322.96,-45.48 321.25,-55.93 328.14,-54.72"/>
<text text-anchor="middle" x="344" y="-109.3" font-family="Times,serif" font-size="14.00">52</text>
</g>
<!-- Clear Invoice&#45;&gt;Record Invoice Receipt -->
<g id="edge22" class="edge">
<title>Clear Invoice&#45;&gt;Record Invoice Receipt</title>
<path fill="none" stroke="#000000" stroke-width="2.62" d="M256.85,-131.35C267.95,-136.48 279.68,-142.49 290,-149 300.8,-155.82 311.77,-164.38 321.32,-172.49"/>
<polygon fill="#000000" stroke="#000000" stroke-width="2.62" points="318.98,-175.09 328.81,-179.05 323.59,-169.82 318.98,-175.09"/>
<text text-anchor="middle" x="320.5" y="-152.8" font-family="Times,serif" font-size="14.00">233</text>
</g>
<!-- Clear Invoice&#45;&gt;Clear Invoice -->
<g id="edge30" class="edge">
<title>Clear Invoice&#45;&gt;Clear Invoice</title>
<path fill="none" stroke="#000000" stroke-width="2.59" d="M279.41,-120.51C289.85,-119.41 297,-116.91 297,-113 297,-111.23 295.53,-109.75 292.96,-108.55"/>
<polygon fill="#000000" stroke="#000000" stroke-width="2.59" points="293.77,-105.15 283.24,-106.36 292.23,-111.98 293.77,-105.15"/>
<text text-anchor="middle" x="307.5" y="-109.3" font-family="Times,serif" font-size="14.00">230</text>
</g>
<!-- Clear Invoice&#45;&gt;Cancel Invoice Receipt -->
<g id="edge25" class="edge">
<title>Clear Invoice&#45;&gt;Cancel Invoice Receipt</title>
<path fill="none" stroke="#000000" stroke-width="1.52" d="M279.32,-125.68C356.98,-140.24 477.84,-165.22 491,-182 507.45,-202.98 504.26,-234.36 498.61,-257.16"/>
<polygon fill="#000000" stroke="#000000" stroke-width="1.52" points="495.29,-256.04 495.95,-266.61 502.03,-257.94 495.29,-256.04"/>
<text text-anchor="middle" x="513.5" y="-196.3" font-family="Times,serif" font-size="14.00">113</text>
</g>
<!-- Clear Invoice&#45;&gt;Remove Payment Block -->
<g id="edge16" class="edge">
<title>Clear Invoice&#45;&gt;Remove Payment Block</title>
<path fill="none" stroke="#000000" stroke-width="1.91" d="M208.64,-131.28C207.15,-136.88 205.74,-143.15 205,-149 204.16,-155.61 204.82,-157.34 205,-164 206.77,-227.92 213.65,-302.55 217.79,-343.08"/>
<polygon fill="#000000" stroke="#000000" stroke-width="1.91" points="214.29,-343.23 218.8,-352.81 221.25,-342.5 214.29,-343.23"/>
<text text-anchor="middle" x="220.5" y="-239.8" font-family="Times,serif" font-size="14.00">156</text>
</g>
<!-- Clear Invoice&#45;&gt;end_node -->
<g id="edge60" class="edge">
<title>Clear Invoice&#45;&gt;end_node</title>
<path fill="none" stroke="#000000" stroke-width="6.9" d="M234.49,-94.63C250.21,-81.31 272.1,-62.75 289.67,-47.86"/>
<polygon fill="#000000" stroke="#000000" stroke-width="6.9" points="293.54,-52.49 297.27,-41.42 285.74,-43.29 293.54,-52.49"/>
<text text-anchor="middle" x="282.5" y="-65.8" font-family="Times,serif" font-size="14.00">696</text>
</g>
<!-- Vendor creates debit memo&#45;&gt;Vendor creates invoice -->
<g id="edge19" class="edge">
<title>Vendor creates debit memo&#45;&gt;Vendor creates invoice</title>
<path fill="none" stroke="#000000" stroke-width="2.24" d="M837.96,-131.46C871.24,-143.8 902,-164.54 902,-199 902,-549 902,-549 902,-549 902,-572.26 600.57,-606.69 436.49,-623.71"/>
<polygon fill="#000000" stroke="#000000" stroke-width="2.24" points="436.44,-620.2 426.85,-624.7 437.16,-627.16 436.44,-620.2"/>
<text text-anchor="middle" x="912.5" y="-370.3" font-family="Times,serif" font-size="14.00">192</text>
</g>
<!-- Vendor creates debit memo&#45;&gt;Record Goods Receipt -->
<g id="edge12" class="edge">
<title>Vendor creates debit memo&#45;&gt;Record Goods Receipt</title>
<path fill="none" stroke="#000000" stroke-width="1.51" d="M776.54,-131.44C781.19,-136.57 785.5,-142.55 788,-149 799.1,-177.59 798.13,-189.05 788,-218 768.58,-273.53 674.05,-395.76 623,-425 619.68,-426.9 543.77,-437.62 477.5,-446.7"/>
<polygon fill="#000000" stroke="#000000" stroke-width="1.51" points="477.37,-443.19 467.94,-448.01 478.32,-450.12 477.37,-443.19"/>
<text text-anchor="middle" x="770.5" y="-283.3" font-family="Times,serif" font-size="14.00">112</text>
</g>
<!-- Vendor creates debit memo&#45;&gt;Record Invoice Receipt -->
<g id="edge33" class="edge">
<title>Vendor creates debit memo&#45;&gt;Record Invoice Receipt</title>
<path fill="none" stroke="#000000" stroke-width="1.27" d="M655.64,-120.45C615.86,-125.34 570.31,-133.93 531,-149 519.6,-153.37 519.25,-159.27 508,-164 491.06,-171.12 472.45,-176.89 454.15,-181.53"/>
<polygon fill="#000000" stroke="#000000" stroke-width="1.27" points="453.56,-178.07 444.67,-183.83 455.21,-184.88 453.56,-178.07"/>
<text text-anchor="middle" x="538" y="-152.8" font-family="Times,serif" font-size="14.00">86</text>
</g>
<!-- Vendor creates debit memo&#45;&gt;Cancel Invoice Receipt -->
<g id="edge39" class="edge">
<title>Vendor creates debit memo&#45;&gt;Cancel Invoice Receipt</title>
<path fill="none" stroke="#ff0000" stroke-width="0.64" stroke-dasharray="5,2" d="M739.82,-131.46C734.92,-136.96 729.62,-143.13 725,-149 720.73,-154.43 659.75,-247.18 654,-251 634.43,-263.99 610.92,-272.27 587.87,-277.53"/>
<polygon fill="#ff0000" stroke="#ff0000" stroke-width="0.64" points="587.34,-274.06 578.27,-279.54 588.77,-280.91 587.34,-274.06"/>
<text text-anchor="middle" x="708" y="-196.3" font-family="Times,serif" font-size="14.00">18</text>
</g>
<!-- Vendor creates debit memo&#45;&gt;Remove Payment Block -->
<g id="edge49" class="edge">
<title>Vendor creates debit memo&#45;&gt;Remove Payment Block</title>
<path fill="none" stroke="#ff0000" stroke-width="0.52" stroke-dasharray="5,2" d="M729.64,-131.44C712.36,-143.91 690.23,-161.98 675,-182 637.56,-231.2 653.66,-261.21 610,-305 587.96,-327.11 577.84,-328.84 548,-338 526.82,-344.5 411.15,-355.98 323.33,-364.02"/>
<polygon fill="#ff0000" stroke="#ff0000" stroke-width="0.52" points="323.19,-360.52 313.55,-364.91 323.83,-367.49 323.19,-360.52"/>
<text text-anchor="middle" x="650.5" y="-239.8" font-family="Times,serif" font-size="14.00">5</text>
</g>
<!-- Vendor creates debit memo&#45;&gt;Change Price -->
<g id="edge27" class="edge">
<title>Vendor creates debit memo&#45;&gt;Change Price</title>
<path fill="none" stroke="#ff0000" stroke-width="0.63" stroke-dasharray="5,2" d="M788.4,-131.3C794.63,-136.17 800.34,-142.07 804,-149 854.57,-244.84 804.39,-285.57 784,-392 779.69,-414.51 765.73,-492.49 747,-512 742.65,-516.53 737.59,-520.54 732.21,-524.07"/>
<polygon fill="#ff0000" stroke="#ff0000" stroke-width="0.63" points="730.54,-520.99 723.72,-529.09 734.11,-527.02 730.54,-520.99"/>
<text text-anchor="middle" x="809" y="-326.8" font-family="Times,serif" font-size="14.00">17</text>
</g>
<!-- Cancel Invoice Receipt&#45;&gt;Record Invoice Receipt -->
<g id="edge15" class="edge">
<title>Cancel Invoice Receipt&#45;&gt;Record Invoice Receipt</title>
<path fill="none" stroke="#000000" stroke-width="2.62" d="M447.25,-268.56C436.18,-263.39 424.41,-257.38 414,-251 402.52,-243.97 390.71,-235.22 380.4,-227.03"/>
<polygon fill="#000000" stroke="#000000" stroke-width="2.62" points="382.93,-224.57 372.97,-220.96 378.5,-230 382.93,-224.57"/>
<text text-anchor="middle" x="424.5" y="-239.8" font-family="Times,serif" font-size="14.00">233</text>
</g>
<!-- Cancel Invoice Receipt&#45;&gt;Clear Invoice -->
<g id="edge21" class="edge">
<title>Cancel Invoice Receipt&#45;&gt;Clear Invoice</title>
<path fill="none" stroke="#000000" stroke-width="2.58" d="M400.7,-273.86C333.93,-262.77 249.95,-244.13 227,-218 209.76,-198.37 207.77,-168.05 209.34,-145.21"/>
<polygon fill="#000000" stroke="#000000" stroke-width="2.58" points="212.82,-145.65 210.37,-135.34 205.86,-144.92 212.82,-145.65"/>
<text text-anchor="middle" x="237.5" y="-196.3" font-family="Times,serif" font-size="14.00">228</text>
</g>
<!-- Cancel Invoice Receipt&#45;&gt;Vendor creates debit memo -->
<g id="edge48" class="edge">
<title>Cancel Invoice Receipt&#45;&gt;Vendor creates debit memo</title>
<path fill="none" stroke="#ff0000" stroke-width="0.52" stroke-dasharray="5,2" d="M577.1,-277.56C608.32,-272.43 643.1,-264.2 673,-251 695.36,-241.13 702.34,-237.56 717,-218 734.11,-195.16 744.47,-163.97 750.17,-141.72"/>
<polygon fill="#ff0000" stroke="#ff0000" stroke-width="0.52" points="753.56,-142.59 752.48,-132.05 746.75,-140.96 753.56,-142.59"/>
<text text-anchor="middle" x="739.5" y="-196.3" font-family="Times,serif" font-size="14.00">5</text>
</g>
<!-- Cancel Invoice Receipt&#45;&gt;end_node -->
<g id="edge61" class="edge">
<title>Cancel Invoice Receipt&#45;&gt;end_node</title>
<path fill="none" stroke="#ff0000" stroke-width="0.67" stroke-dasharray="5,2" d="M505.87,-268.82C529.97,-242.13 568.82,-189.54 545,-149 502.71,-77.01 402.7,-43.14 351.07,-29.98"/>
<polygon fill="#ff0000" stroke="#ff0000" stroke-width="0.67" points="352.06,-26.62 341.51,-27.65 350.4,-33.42 352.06,-26.62"/>
<text text-anchor="middle" x="557" y="-152.8" font-family="Times,serif" font-size="14.00">21</text>
</g>
<!-- Remove Payment Block&#45;&gt;Vendor creates invoice -->
<g id="edge46" class="edge">
<title>Remove Payment Block&#45;&gt;Vendor creates invoice</title>
<path fill="none" stroke="#ff0000" stroke-width="0.55" stroke-dasharray="5,2" d="M222.09,-392.15C222.77,-401.82 223.76,-414.1 225,-425 232.43,-490.22 233.6,-510.72 269,-566 279.04,-581.68 292.95,-596.98 305.24,-609.08"/>
<polygon fill="#ff0000" stroke="#ff0000" stroke-width="0.55" points="302.79,-611.57 312.43,-615.97 307.63,-606.52 302.79,-611.57"/>
<text text-anchor="middle" x="244.5" y="-500.8" font-family="Times,serif" font-size="14.00">8</text>
</g>
<!-- Remove Payment Block&#45;&gt;Record Goods Receipt -->
<g id="edge57" class="edge">
<title>Remove Payment Block&#45;&gt;Record Goods Receipt</title>
<path fill="none" stroke="#ff0000" stroke-width="0.55" stroke-dasharray="5,2" d="M265.94,-392.47C278.17,-397.69 291.27,-403.7 303,-410 311.45,-414.54 329,-426.03 345.11,-436.86"/>
<polygon fill="#ff0000" stroke="#ff0000" stroke-width="0.55" points="342.91,-439.59 353.16,-442.29 346.83,-433.79 342.91,-439.59"/>
<text text-anchor="middle" x="328.5" y="-413.8" font-family="Times,serif" font-size="14.00">8</text>
</g>
<!-- Remove Payment Block&#45;&gt;Record Invoice Receipt -->
<g id="edge36" class="edge">
<title>Remove Payment Block&#45;&gt;Record Invoice Receipt</title>
<path fill="none" stroke="#ff0000" stroke-width="0.68" stroke-dasharray="5,2" d="M234.81,-355.55C245.24,-342.07 259.64,-322.78 271,-305 289.85,-275.5 286.88,-263.14 309,-236 312.01,-232.31 315.44,-228.7 319.01,-225.29"/>
<polygon fill="#ff0000" stroke="#ff0000" stroke-width="0.68" points="321.06,-228.15 326.16,-218.87 316.38,-222.94 321.06,-228.15"/>
<text text-anchor="middle" x="295" y="-283.3" font-family="Times,serif" font-size="14.00">22</text>
</g>
<!-- Remove Payment Block&#45;&gt;Clear Invoice -->
<g id="edge17" class="edge">
<title>Remove Payment Block&#45;&gt;Clear Invoice</title>
<path fill="none" stroke="#000000" stroke-width="3.85" d="M213.94,-355.59C204.89,-332.26 189.68,-289.31 184,-251 178.6,-214.56 190.06,-173.34 200.34,-145.71"/>
<polygon fill="#000000" stroke="#000000" stroke-width="3.85" points="203.53,-147.16 203.97,-136.58 197.02,-144.58 203.53,-147.16"/>
<text text-anchor="middle" x="194.5" y="-239.8" font-family="Times,serif" font-size="14.00">366</text>
</g>
<!-- Remove Payment Block&#45;&gt;Vendor creates debit memo -->
<g id="edge38" class="edge">
<title>Remove Payment Block&#45;&gt;Vendor creates debit memo</title>
<path fill="none" stroke="#ff0000" stroke-width="0.55" stroke-dasharray="5,2" d="M312.92,-367.24C407.99,-359.37 547.82,-341.78 586,-305 637.8,-255.11 578.14,-199.85 629,-149 634.16,-143.84 640.01,-139.42 646.29,-135.64"/>
<polygon fill="#ff0000" stroke="#ff0000" stroke-width="0.55" points="647.9,-138.75 655.05,-130.94 644.59,-132.58 647.9,-138.75"/>
<text text-anchor="middle" x="611.5" y="-239.8" font-family="Times,serif" font-size="14.00">8</text>
</g>
<!-- Remove Payment Block&#45;&gt;Cancel Invoice Receipt -->
<g id="edge44" class="edge">
<title>Remove Payment Block&#45;&gt;Cancel Invoice Receipt</title>
<path fill="none" stroke="#ff0000" stroke-width="0.52" stroke-dasharray="5,2" d="M312.98,-361.74C342.63,-356.45 375.24,-348.84 404,-338 421.91,-331.25 440.39,-320.86 455.52,-311.3"/>
<polygon fill="#ff0000" stroke="#ff0000" stroke-width="0.52" points="457.33,-314.29 463.82,-305.92 453.53,-308.42 457.33,-314.29"/>
<text text-anchor="middle" x="438.5" y="-326.8" font-family="Times,serif" font-size="14.00">5</text>
</g>
<!-- Remove Payment Block&#45;&gt;end_node -->
<g id="edge63" class="edge">
<title>Remove Payment Block&#45;&gt;end_node</title>
<path fill="none" stroke="#ff0000" stroke-width="0.52" stroke-dasharray="5,2" d="M206.83,-355.82C170.66,-309.77 81.74,-181.23 140,-95 172.79,-46.46 244.31,-30.64 286.34,-25.49"/>
<polygon fill="#ff0000" stroke="#ff0000" stroke-width="0.52" points="286.51,-28.99 296.08,-24.43 285.76,-22.03 286.51,-28.99"/>
<text text-anchor="middle" x="133.5" y="-196.3" font-family="Times,serif" font-size="14.00">5</text>
</g>
<!-- Change Price&#45;&gt;Record Goods Receipt -->
<g id="edge55" class="edge">
<title>Change Price&#45;&gt;Record Goods Receipt</title>
<path fill="none" stroke="#ff0000" stroke-width="0.51" stroke-dasharray="5,2" d="M614.56,-530.11C567.09,-516.38 499.98,-496.98 449.52,-482.39"/>
<polygon fill="#ff0000" stroke="#ff0000" stroke-width="0.51" points="450.66,-479.08 440.09,-479.66 448.72,-485.8 450.66,-479.08"/>
<text text-anchor="middle" x="546.5" y="-500.8" font-family="Times,serif" font-size="14.00">4</text>
</g>
<!-- Change Price&#45;&gt;Record Invoice Receipt -->
<g id="edge28" class="edge">
<title>Change Price&#45;&gt;Record Invoice Receipt</title>
<path fill="none" stroke="#ff0000" stroke-width="0.73" stroke-dasharray="5,2" d="M693.94,-529.76C710.55,-514.03 731,-489.15 731,-462 731,-462 731,-462 731,-329.5 731,-276.78 707.55,-254.02 658,-236 586.18,-209.88 562.92,-226.71 487,-218 476.17,-216.76 464.87,-215.42 453.6,-214.06"/>
<polygon fill="#ff0000" stroke="#ff0000" stroke-width="0.73" points="454.27,-210.62 443.92,-212.89 453.43,-217.57 454.27,-210.62"/>
<text text-anchor="middle" x="738" y="-370.3" font-family="Times,serif" font-size="14.00">28</text>
</g>
<!-- Change Price&#45;&gt;Cancel Invoice Receipt -->
<g id="edge56" class="edge">
<title>Change Price&#45;&gt;Cancel Invoice Receipt</title>
<path fill="none" stroke="#ff0000" stroke-width="0.51" stroke-dasharray="5,2" d="M675.82,-529.66C679.38,-502.28 682.65,-448.22 661,-410 634.49,-363.21 581.78,-329.95 541.66,-310.1"/>
<polygon fill="#ff0000" stroke="#ff0000" stroke-width="0.51" points="543.23,-306.97 532.71,-305.79 540.2,-313.28 543.23,-306.97"/>
<text text-anchor="middle" x="670.5" y="-413.8" font-family="Times,serif" font-size="14.00">4</text>
</g>
<!-- Change Price&#45;&gt;Remove Payment Block -->
<g id="edge53" class="edge">
<title>Change Price&#45;&gt;Remove Payment Block</title>
<path fill="none" stroke="#ff0000" stroke-width="0.56" stroke-dasharray="5,2" d="M614.52,-543.2C517.84,-535.91 330.09,-517.18 277,-479 263.42,-469.23 244.4,-429.67 232.4,-402.26"/>
<polygon fill="#ff0000" stroke="#ff0000" stroke-width="0.56" points="235.67,-401.01 228.5,-393.21 229.24,-403.78 235.67,-401.01"/>
<text text-anchor="middle" x="280.5" y="-457.3" font-family="Times,serif" font-size="14.00">9</text>
</g>
<!-- Change Quantity&#45;&gt;Vendor creates invoice -->
<g id="edge51" class="edge">
<title>Change Quantity&#45;&gt;Vendor creates invoice</title>
<path fill="none" stroke="#ff0000" stroke-width="0.52" stroke-dasharray="5,2" d="M226.44,-703.59C246.67,-690.76 274.41,-673.17 296.51,-659.15"/>
<polygon fill="#ff0000" stroke="#ff0000" stroke-width="0.52" points="298.36,-662.12 304.93,-653.8 294.61,-656.2 298.36,-662.12"/>
<text text-anchor="middle" x="277.5" y="-674.8" font-family="Times,serif" font-size="14.00">5</text>
</g>
</g>
</svg>
