<?xml version="1.0" encoding="UTF-8" standalone="no"?>
<!DOCTYPE svg PUBLIC "-//W3C//DTD SVG 1.1//EN"
 "http://www.w3.org/Graphics/SVG/1.1/DTD/svg11.dtd">
<!-- Generated by graphviz version 7.0.5 (0)
 -->
<!-- Title: dfg Pages: 1 -->
<svg width="685pt" height="1009pt"
 viewBox="0.00 0.00 685.45 1009.00" xmlns="http://www.w3.org/2000/svg" xmlns:xlink="http://www.w3.org/1999/xlink">
<g id="graph0" class="graph" transform="scale(1 1) rotate(0) translate(4 1005)">
<title>dfg</title>
<polygon fill="white" stroke="none" points="-4,4 -4,-1005 681.45,-1005 681.45,4 -4,4"/>
<!-- start_node -->
<g id="node1" class="node">
<title>start_node</title>
<ellipse fill="none" stroke="black" cx="599.45" cy="-983" rx="18" ry="18"/>
<text text-anchor="start" x="594.95" y="-979.3" font-family="Times,serif" font-size="14.00">●</text>
</g>
<!-- Create Purchase Order Item -->
<g id="node2" class="node">
<title>Create Purchase Order Item</title>
<polygon fill="#f9f9ff" stroke="black" points="490.45,-914 288.45,-914 288.45,-878 490.45,-878 490.45,-914"/>
<text text-anchor="middle" x="389.45" y="-892.3" font-family="Times,serif" font-size="14.00">Create Purchase Order Item (715)</text>
</g>
<!-- start_node&#45;&gt;Create Purchase Order Item -->
<g id="edge1" class="edge">
<title>start_node&#45;&gt;Create Purchase Order Item</title>
<path fill="none" stroke="#000000" stroke-width="0.84" d="M582.97,-975.33C553.13,-963.25 488.94,-937.27 442.66,-918.54"/>
<polygon fill="#000000" stroke="#000000" stroke-width="0.84" points="444.25,-915.41 433.67,-914.9 441.63,-921.89 444.25,-915.41"/>
<text text-anchor="middle" x="516.95" y="-935.8" font-family="Times,serif" font-size="14.00">698</text>
</g>
<!-- Vendor creates invoice -->
<g id="node3" class="node">
<title>Vendor creates invoice</title>
<polygon fill="#fefeff" stroke="black" points="518.95,-653 345.95,-653 345.95,-617 518.95,-617 518.95,-653"/>
<text text-anchor="middle" x="432.45" y="-631.3" font-family="Times,serif" font-size="14.00">Vendor creates invoice (113)</text>
</g>
<!-- start_node&#45;&gt;Vendor creates invoice -->
<g id="edge2" class="edge">
<title>start_node&#45;&gt;Vendor creates invoice</title>
<path fill="none" stroke="#ff0000" stroke-width="0.51" stroke-dasharray="5,2" d="M613.97,-972.05C632.86,-957.81 663.45,-929.7 663.45,-897 663.45,-897 663.45,-897 663.45,-721 663.45,-690.74 592.76,-667.95 529.59,-653.62"/>
<polygon fill="#ff0000" stroke="#ff0000" stroke-width="0.51" points="530.4,-650.21 519.88,-651.47 528.88,-657.05 530.4,-650.21"/>
<text text-anchor="middle" x="670.45" y="-805.3" font-family="Times,serif" font-size="14.00">17</text>
</g>
<!-- Record Service Entry Sheet -->
<g id="node4" class="node">
<title>Record Service Entry Sheet</title>
<polygon fill="#9b9bff" stroke="black" points="389.45,-827 175.45,-827 175.45,-791 389.45,-791 389.45,-827"/>
<text text-anchor="middle" x="282.45" y="-805.3" font-family="Times,serif" font-size="14.00">Record Service Entry Sheet (13175)</text>
</g>
<!-- Create Purchase Order Item&#45;&gt;Record Service Entry Sheet -->
<g id="edge3" class="edge">
<title>Create Purchase Order Item&#45;&gt;Record Service Entry Sheet</title>
<path fill="none" stroke="#ff0000" stroke-width="0.75" stroke-dasharray="5,2" d="M367.54,-877.59C351.82,-865.1 330.42,-848.11 313.02,-834.28"/>
<polygon fill="#ff0000" stroke="#ff0000" stroke-width="0.75" points="315.23,-831.57 305.22,-828.09 310.88,-837.05 315.23,-831.57"/>
<text text-anchor="middle" x="352.95" y="-848.8" font-family="Times,serif" font-size="14.00">506</text>
</g>
<!-- Record Goods Receipt -->
<g id="node5" class="node">
<title>Record Goods Receipt</title>
<polygon fill="#dedeff" stroke="black" points="189.95,-566 10.95,-566 10.95,-530 189.95,-530 189.95,-566"/>
<text text-anchor="middle" x="100.45" y="-544.3" font-family="Times,serif" font-size="14.00">Record Goods Receipt (4343)</text>
</g>
<!-- Create Purchase Order Item&#45;&gt;Record Goods Receipt -->
<g id="edge8" class="edge">
<title>Create Purchase Order Item&#45;&gt;Record Goods Receipt</title>
<path fill="none" stroke="#ff0000" stroke-width="0.6" stroke-dasharray="5,2" d="M288.16,-891.91C176.19,-885.68 11.45,-866.84 11.45,-810 11.45,-810 11.45,-810 11.45,-634 11.45,-607.36 32.57,-586.51 54.23,-572.12"/>
<polygon fill="#ff0000" stroke="#ff0000" stroke-width="0.6" points="56.07,-575.1 62.71,-566.84 52.37,-569.15 56.07,-575.1"/>
<text text-anchor="middle" x="21.95" y="-718.3" font-family="Times,serif" font-size="14.00">209</text>
</g>
<!-- Vendor creates invoice&#45;&gt;Create Purchase Order Item -->
<g id="edge17" class="edge">
<title>Vendor creates invoice&#45;&gt;Create Purchase Order Item</title>
<path fill="none" stroke="#ff0000" stroke-width="0.51" stroke-dasharray="5,2" d="M484.66,-653.42C542.66,-675.87 624.32,-718.57 593.45,-773 564.75,-823.6 505.8,-855.47 458.62,-873.89"/>
<polygon fill="#ff0000" stroke="#ff0000" stroke-width="0.51" points="457.58,-870.54 449.46,-877.35 460.05,-877.09 457.58,-870.54"/>
<text text-anchor="middle" x="605.45" y="-761.8" font-family="Times,serif" font-size="14.00">17</text>
</g>
<!-- Vendor creates invoice&#45;&gt;Vendor creates invoice -->
<g id="edge25" class="edge">
<title>Vendor creates invoice&#45;&gt;Vendor creates invoice</title>
<path fill="none" stroke="#ff0000" stroke-width="0.5" stroke-dasharray="5,2" d="M519.34,-642.06C529.98,-640.79 536.95,-638.44 536.95,-635 536.95,-632.85 534.23,-631.12 529.59,-629.82"/>
<polygon fill="#ff0000" stroke="#ff0000" stroke-width="0.5" points="530.55,-626.44 520.08,-628.08 529.29,-633.33 530.55,-626.44"/>
<text text-anchor="middle" x="540.45" y="-631.3" font-family="Times,serif" font-size="14.00">2</text>
</g>
<!-- Vendor creates invoice&#45;&gt;Record Service Entry Sheet -->
<g id="edge28" class="edge">
<title>Vendor creates invoice&#45;&gt;Record Service Entry Sheet</title>
<path fill="none" stroke="#ff0000" stroke-width="0.5" stroke-dasharray="5,2" d="M457.95,-653.14C464.52,-658.35 471.21,-664.45 476.45,-671 496.13,-695.57 505.32,-711.27 492.45,-740 483.44,-760.11 475.16,-763.14 455.45,-773 438.26,-781.6 419.11,-788.09 399.99,-792.98"/>
<polygon fill="#ff0000" stroke="#ff0000" stroke-width="0.5" points="399.33,-789.54 390.43,-795.29 400.98,-796.34 399.33,-789.54"/>
<text text-anchor="middle" x="500.95" y="-718.3" font-family="Times,serif" font-size="14.00">7</text>
</g>
<!-- Vendor creates invoice&#45;&gt;Record Goods Receipt -->
<g id="edge27" class="edge">
<title>Vendor creates invoice&#45;&gt;Record Goods Receipt</title>
<path fill="none" stroke="#ff0000" stroke-width="0.5" stroke-dasharray="5,2" d="M345.86,-621.9C311.5,-616.23 271.82,-608.58 236.45,-599 207.94,-591.28 176.98,-580.12 151.8,-570.31"/>
<polygon fill="#ff0000" stroke="#ff0000" stroke-width="0.5" points="153.4,-567.17 142.81,-566.76 150.83,-573.68 153.4,-567.17"/>
<text text-anchor="middle" x="239.95" y="-587.8" font-family="Times,serif" font-size="14.00">6</text>
</g>
<!-- Cancel Goods Receipt -->
<g id="node6" class="node">
<title>Cancel Goods Receipt</title>
<polygon fill="#fefeff" stroke="black" points="384.45,-479 220.45,-479 220.45,-443 384.45,-443 384.45,-479"/>
<text text-anchor="middle" x="302.45" y="-457.3" font-family="Times,serif" font-size="14.00">Cancel Goods Receipt (82)</text>
</g>
<!-- Vendor creates invoice&#45;&gt;Cancel Goods Receipt -->
<g id="edge34" class="edge">
<title>Vendor creates invoice&#45;&gt;Cancel Goods Receipt</title>
<path fill="none" stroke="#ff0000" stroke-width="0.5" stroke-dasharray="5,2" d="M428.48,-616.76C422.82,-594.91 410.78,-556.86 390.45,-530 377.06,-512.3 357.95,-496.79 340.95,-485.06"/>
<polygon fill="#ff0000" stroke="#ff0000" stroke-width="0.5" points="343.19,-482.35 332.93,-479.7 339.31,-488.17 343.19,-482.35"/>
<text text-anchor="middle" x="413.95" y="-544.3" font-family="Times,serif" font-size="14.00">1</text>
</g>
<!-- Record Invoice Receipt -->
<g id="node7" class="node">
<title>Record Invoice Receipt</title>
<polygon fill="#fefeff" stroke="black" points="391.45,-392 213.45,-392 213.45,-356 391.45,-356 391.45,-392"/>
<text text-anchor="middle" x="302.45" y="-370.3" font-family="Times,serif" font-size="14.00">Record Invoice Receipt (125)</text>
</g>
<!-- Vendor creates invoice&#45;&gt;Record Invoice Receipt -->
<g id="edge12" class="edge">
<title>Vendor creates invoice&#45;&gt;Record Invoice Receipt</title>
<path fill="none" stroke="#ff0000" stroke-width="0.54" stroke-dasharray="5,2" d="M401.79,-616.52C384.39,-604.73 364.2,-587.42 354.45,-566 347.83,-551.44 347.15,-544.24 354.45,-530 372.18,-495.43 407.72,-513.57 425.45,-479 432.75,-464.76 433.58,-456.78 425.45,-443 413.2,-422.22 392.07,-407.35 370.74,-396.92"/>
<polygon fill="#ff0000" stroke="#ff0000" stroke-width="0.54" points="372.25,-393.77 361.7,-392.78 369.33,-400.13 372.25,-393.77"/>
<text text-anchor="middle" x="415.45" y="-500.8" font-family="Times,serif" font-size="14.00">79</text>
</g>
<!-- end_node -->
<g id="node12" class="node">
<title>end_node</title>
<ellipse fill="none" stroke="black" cx="432.45" cy="-22" rx="18" ry="18"/>
<ellipse fill="none" stroke="black" cx="432.45" cy="-22" rx="22" ry="22"/>
<text text-anchor="start" x="427.95" y="-18.3" font-family="Times,serif" font-size="14.00">■</text>
</g>
<!-- Vendor creates invoice&#45;&gt;end_node -->
<g id="edge42" class="edge">
<title>Vendor creates invoice&#45;&gt;end_node</title>
<path fill="none" stroke="#ff0000" stroke-width="0.5" stroke-dasharray="5,2" d="M469.01,-616.54C493.19,-602.18 520.45,-579.27 520.45,-549 520.45,-549 520.45,-549 520.45,-112 520.45,-77.9 487.38,-52.16 461.78,-37.34"/>
<polygon fill="#ff0000" stroke="#ff0000" stroke-width="0.5" points="463.53,-34.32 453.08,-32.57 460.17,-40.45 463.53,-34.32"/>
<text text-anchor="middle" x="523.95" y="-326.8" font-family="Times,serif" font-size="14.00">1</text>
</g>
<!-- Record Service Entry Sheet&#45;&gt;Vendor creates invoice -->
<g id="edge11" class="edge">
<title>Record Service Entry Sheet&#45;&gt;Vendor creates invoice</title>
<path fill="none" stroke="#ff0000" stroke-width="0.52" stroke-dasharray="5,2" d="M389.8,-792.14C419.85,-782.21 449.24,-766.1 467.45,-740 484.03,-716.25 468.57,-684.02 453.28,-661.77"/>
<polygon fill="#ff0000" stroke="#ff0000" stroke-width="0.52" points="456.22,-659.86 447.51,-653.82 450.55,-663.97 456.22,-659.86"/>
<text text-anchor="middle" x="481.45" y="-718.3" font-family="Times,serif" font-size="14.00">42</text>
</g>
<!-- Record Service Entry Sheet&#45;&gt;Record Service Entry Sheet -->
<g id="edge4" class="edge">
<title>Record Service Entry Sheet&#45;&gt;Record Service Entry Sheet</title>
<path fill="none" stroke="#000000" stroke-width="6" d="M389.58,-815.7C400.49,-814.38 407.45,-812.14 407.45,-809 407.45,-808.02 406.77,-807.12 405.5,-806.32"/>
<polygon fill="#000000" stroke="#000000" stroke-width="6" points="406.82,-801.24 395.84,-803.88 404.25,-811.42 406.82,-801.24"/>
<text text-anchor="middle" x="424.45" y="-805.3" font-family="Times,serif" font-size="14.00">11148</text>
</g>
<!-- Record Service Entry Sheet&#45;&gt;Record Goods Receipt -->
<g id="edge5" class="edge">
<title>Record Service Entry Sheet&#45;&gt;Record Goods Receipt</title>
<path fill="none" stroke="#000000" stroke-width="1.39" d="M217.89,-790.65C208.54,-786.04 199.66,-780.26 192.45,-773 129.11,-709.22 158.87,-665.27 120.45,-584 119.31,-581.58 118.06,-579.11 116.77,-576.65"/>
<polygon fill="#000000" stroke="#000000" stroke-width="1.39" points="119.89,-575.06 111.98,-568 113.76,-578.45 119.89,-575.06"/>
<text text-anchor="middle" x="161.45" y="-674.8" font-family="Times,serif" font-size="14.00">1801</text>
</g>
<!-- Record Service Entry Sheet&#45;&gt;Cancel Goods Receipt -->
<g id="edge9" class="edge">
<title>Record Service Entry Sheet&#45;&gt;Cancel Goods Receipt</title>
<path fill="none" stroke="#ff0000" stroke-width="0.51" stroke-dasharray="5,2" d="M276.2,-790.67C271.64,-777.09 265.87,-757.61 263.45,-740 256.85,-691.82 284.24,-549.8 296.64,-489.54"/>
<polygon fill="#ff0000" stroke="#ff0000" stroke-width="0.51" points="300.01,-490.54 298.61,-480.04 293.15,-489.12 300.01,-490.54"/>
<text text-anchor="middle" x="280.45" y="-631.3" font-family="Times,serif" font-size="14.00">31</text>
</g>
<!-- Record Service Entry Sheet&#45;&gt;Record Invoice Receipt -->
<g id="edge20" class="edge">
<title>Record Service Entry Sheet&#45;&gt;Record Invoice Receipt</title>
<path fill="none" stroke="#ff0000" stroke-width="0.5" stroke-dasharray="5,2" d="M199.81,-790.57C184.94,-785.9 169.9,-780.11 156.45,-773 43.22,-713.1 -8.17,-657.74 1.45,-530 2.57,-515.21 -2.7,-508.67 6.45,-497 53.99,-436.39 136.81,-405.65 202.77,-390.2"/>
<polygon fill="#ff0000" stroke="#ff0000" stroke-width="0.5" points="203.47,-393.63 212.46,-388.02 201.93,-386.8 203.47,-393.63"/>
<text text-anchor="middle" x="10.45" y="-587.8" font-family="Times,serif" font-size="14.00">11</text>
</g>
<!-- Vendor creates debit memo -->
<g id="node9" class="node">
<title>Vendor creates debit memo</title>
<polygon fill="#ffffff" stroke="black" points="458.45,-740 272.45,-740 272.45,-704 458.45,-704 458.45,-740"/>
<text text-anchor="middle" x="365.45" y="-718.3" font-family="Times,serif" font-size="14.00">Vendor creates debit memo (1)</text>
</g>
<!-- Record Service Entry Sheet&#45;&gt;Vendor creates debit memo -->
<g id="edge29" class="edge">
<title>Record Service Entry Sheet&#45;&gt;Vendor creates debit memo</title>
<path fill="none" stroke="#ff0000" stroke-width="0.5" stroke-dasharray="5,2" d="M299.25,-790.8C311.21,-778.55 327.47,-761.9 340.88,-748.16"/>
<polygon fill="#ff0000" stroke="#ff0000" stroke-width="0.5" points="343.39,-750.61 347.87,-741.01 338.38,-745.72 343.39,-750.61"/>
<text text-anchor="middle" x="332.95" y="-761.8" font-family="Times,serif" font-size="14.00">1</text>
</g>
<!-- Record Service Entry Sheet&#45;&gt;end_node -->
<g id="edge38" class="edge">
<title>Record Service Entry Sheet&#45;&gt;end_node</title>
<path fill="none" stroke="#ff0000" stroke-width="0.57" stroke-dasharray="5,2" d="M389.68,-797.49C474.75,-786.08 579.45,-763.76 579.45,-723 579.45,-723 579.45,-723 579.45,-112 579.45,-58.89 508.38,-36.61 465.07,-27.96"/>
<polygon fill="#ff0000" stroke="#ff0000" stroke-width="0.57" points="465.78,-24.53 455.31,-26.16 464.5,-31.42 465.78,-24.53"/>
<text text-anchor="middle" x="589.95" y="-413.8" font-family="Times,serif" font-size="14.00">141</text>
</g>
<!-- Record Goods Receipt&#45;&gt;Vendor creates invoice -->
<g id="edge16" class="edge">
<title>Record Goods Receipt&#45;&gt;Vendor creates invoice</title>
<path fill="none" stroke="#ff0000" stroke-width="0.52" stroke-dasharray="5,2" d="M168.63,-566.46C222.53,-580.25 297.81,-599.53 354.17,-613.96"/>
<polygon fill="#ff0000" stroke="#ff0000" stroke-width="0.52" points="353.15,-617.31 363.7,-616.4 354.88,-610.53 353.15,-617.31"/>
<text text-anchor="middle" x="293.45" y="-587.8" font-family="Times,serif" font-size="14.00">44</text>
</g>
<!-- Record Goods Receipt&#45;&gt;Record Service Entry Sheet -->
<g id="edge7" class="edge">
<title>Record Goods Receipt&#45;&gt;Record Service Entry Sheet</title>
<path fill="none" stroke="#000000" stroke-width="1.24" d="M99.5,-566.43C98.62,-593.01 99.16,-644.93 113.45,-686 122.85,-713.01 131.59,-716.9 148.45,-740 159.62,-755.31 159.82,-762.29 175.45,-773 182.68,-777.95 190.67,-782.25 198.91,-785.96"/>
<polygon fill="#000000" stroke="#000000" stroke-width="1.24" points="197.55,-789.18 208.13,-789.78 200.23,-782.72 197.55,-789.18"/>
<text text-anchor="middle" x="127.45" y="-674.8" font-family="Times,serif" font-size="14.00">1510</text>
</g>
<!-- Record Goods Receipt&#45;&gt;Record Goods Receipt -->
<g id="edge6" class="edge">
<title>Record Goods Receipt&#45;&gt;Record Goods Receipt</title>
<path fill="none" stroke="#000000" stroke-width="1.64" d="M190.24,-555.01C200.95,-553.73 207.95,-551.4 207.95,-548 207.95,-546.14 205.86,-544.6 202.21,-543.38"/>
<polygon fill="#000000" stroke="#000000" stroke-width="1.64" points="203.17,-540 192.67,-541.48 201.8,-546.86 203.17,-540"/>
<text text-anchor="middle" x="221.95" y="-544.3" font-family="Times,serif" font-size="14.00">2316</text>
</g>
<!-- Record Goods Receipt&#45;&gt;Cancel Goods Receipt -->
<g id="edge14" class="edge">
<title>Record Goods Receipt&#45;&gt;Cancel Goods Receipt</title>
<path fill="none" stroke="#ff0000" stroke-width="0.5" stroke-dasharray="5,2" d="M151.11,-529.51C165.84,-524.16 181.88,-518.08 196.45,-512 216.92,-503.46 239.18,-493.13 257.99,-484.08"/>
<polygon fill="#ff0000" stroke="#ff0000" stroke-width="0.5" points="259.32,-487.32 266.8,-479.81 256.27,-481.02 259.32,-487.32"/>
<text text-anchor="middle" x="232.95" y="-500.8" font-family="Times,serif" font-size="14.00">7</text>
</g>
<!-- Record Goods Receipt&#45;&gt;Record Invoice Receipt -->
<g id="edge21" class="edge">
<title>Record Goods Receipt&#45;&gt;Record Invoice Receipt</title>
<path fill="none" stroke="#ff0000" stroke-width="0.51" stroke-dasharray="5,2" d="M114.42,-529.57C132.3,-507.85 164.9,-470.28 197.45,-443 217.52,-426.19 241.97,-410.13 262.22,-397.85"/>
<polygon fill="#ff0000" stroke="#ff0000" stroke-width="0.51" points="263.76,-401.01 270.54,-392.87 260.16,-395 263.76,-401.01"/>
<text text-anchor="middle" x="204.45" y="-457.3" font-family="Times,serif" font-size="14.00">16</text>
</g>
<!-- Record Goods Receipt&#45;&gt;end_node -->
<g id="edge37" class="edge">
<title>Record Goods Receipt&#45;&gt;end_node</title>
<path fill="none" stroke="#ff0000" stroke-width="0.72" stroke-dasharray="5,2" d="M68.83,-529.79C46.47,-515.07 20.45,-491.59 20.45,-462 20.45,-462 20.45,-462 20.45,-112 20.45,-34.74 300.78,-24.38 398.97,-23.12"/>
<polygon fill="#ff0000" stroke="#ff0000" stroke-width="0.72" points="398.95,-26.62 408.92,-23.02 398.88,-19.62 398.95,-26.62"/>
<text text-anchor="middle" x="30.95" y="-283.3" font-family="Times,serif" font-size="14.00">450</text>
</g>
<!-- Cancel Goods Receipt&#45;&gt;Vendor creates invoice -->
<g id="edge24" class="edge">
<title>Cancel Goods Receipt&#45;&gt;Vendor creates invoice</title>
<path fill="none" stroke="#ff0000" stroke-width="0.5" stroke-dasharray="5,2" d="M315.67,-479.48C338.66,-509.91 386.13,-572.72 412.93,-608.17"/>
<polygon fill="#ff0000" stroke="#ff0000" stroke-width="0.5" points="409.99,-610.09 418.81,-615.95 415.58,-605.87 409.99,-610.09"/>
<text text-anchor="middle" x="382.95" y="-544.3" font-family="Times,serif" font-size="14.00">6</text>
</g>
<!-- Cancel Goods Receipt&#45;&gt;Record Service Entry Sheet -->
<g id="edge15" class="edge">
<title>Cancel Goods Receipt&#45;&gt;Record Service Entry Sheet</title>
<path fill="none" stroke="#ff0000" stroke-width="0.5" stroke-dasharray="5,2" d="M295.18,-479.33C292.92,-484.93 290.49,-491.19 288.45,-497 283.38,-511.46 282.47,-515.21 278.45,-530 268.01,-568.38 262.15,-577.5 257.45,-617 250.99,-671.29 254.03,-685.51 258.45,-740 259.65,-754.79 258.73,-758.94 263.45,-773 264.37,-775.73 265.49,-778.5 266.73,-781.23"/>
<polygon fill="#ff0000" stroke="#ff0000" stroke-width="0.5" points="263.56,-782.72 271.2,-790.06 269.81,-779.56 263.56,-782.72"/>
<text text-anchor="middle" x="260.95" y="-631.3" font-family="Times,serif" font-size="14.00">4</text>
</g>
<!-- Cancel Goods Receipt&#45;&gt;Record Goods Receipt -->
<g id="edge22" class="edge">
<title>Cancel Goods Receipt&#45;&gt;Record Goods Receipt</title>
<path fill="none" stroke="#ff0000" stroke-width="0.5" stroke-dasharray="5,2" d="M227.09,-479.43C210.73,-484.27 193.75,-490.12 178.45,-497 162.45,-504.2 145.92,-514.34 132.22,-523.61"/>
<polygon fill="#ff0000" stroke="#ff0000" stroke-width="0.5" points="130.51,-520.53 124.28,-529.11 134.5,-526.29 130.51,-520.53"/>
<text text-anchor="middle" x="185.45" y="-500.8" font-family="Times,serif" font-size="14.00">11</text>
</g>
<!-- Cancel Goods Receipt&#45;&gt;Cancel Goods Receipt -->
<g id="edge10" class="edge">
<title>Cancel Goods Receipt&#45;&gt;Cancel Goods Receipt</title>
<path fill="none" stroke="#ff0000" stroke-width="0.52" stroke-dasharray="5,2" d="M384.84,-468.15C395.44,-466.91 402.45,-464.53 402.45,-461 402.45,-458.85 399.85,-457.13 395.42,-455.83"/>
<polygon fill="#ff0000" stroke="#ff0000" stroke-width="0.52" points="396.08,-452.39 385.61,-454 394.8,-459.27 396.08,-452.39"/>
<text text-anchor="middle" x="409.45" y="-457.3" font-family="Times,serif" font-size="14.00">43</text>
</g>
<!-- Cancel Goods Receipt&#45;&gt;Record Invoice Receipt -->
<g id="edge18" class="edge">
<title>Cancel Goods Receipt&#45;&gt;Record Invoice Receipt</title>
<path fill="none" stroke="#ff0000" stroke-width="0.5" stroke-dasharray="5,2" d="M302.45,-442.8C302.45,-431.35 302.45,-416.06 302.45,-402.89"/>
<polygon fill="#ff0000" stroke="#ff0000" stroke-width="0.5" points="305.95,-403.23 302.45,-393.23 298.95,-403.23 305.95,-403.23"/>
<text text-anchor="middle" x="305.95" y="-413.8" font-family="Times,serif" font-size="14.00">3</text>
</g>
<!-- Cancel Goods Receipt&#45;&gt;end_node -->
<g id="edge39" class="edge">
<title>Cancel Goods Receipt&#45;&gt;end_node</title>
<path fill="none" stroke="#ff0000" stroke-width="0.51" stroke-dasharray="5,2" d="M357.26,-442.53C383.3,-431.71 412.92,-415.35 432.45,-392 450.53,-370.38 451.45,-359.68 451.45,-331.5 451.45,-331.5 451.45,-331.5 451.45,-112 451.45,-92.11 446.86,-70.26 442.19,-53.19"/>
<polygon fill="#ff0000" stroke="#ff0000" stroke-width="0.51" points="445.66,-52.61 439.52,-43.98 438.94,-54.56 445.66,-52.61"/>
<text text-anchor="middle" x="458.45" y="-239.8" font-family="Times,serif" font-size="14.00">15</text>
</g>
<!-- Record Invoice Receipt&#45;&gt;Vendor creates invoice -->
<g id="edge23" class="edge">
<title>Record Invoice Receipt&#45;&gt;Vendor creates invoice</title>
<path fill="none" stroke="#ff0000" stroke-width="0.5" stroke-dasharray="5,2" d="M386.46,-392.46C410.67,-402.49 432.87,-418.25 441.45,-443 460.65,-498.38 449.08,-568.23 440.06,-606.24"/>
<polygon fill="#ff0000" stroke="#ff0000" stroke-width="0.5" points="436.7,-605.24 437.67,-615.79 443.49,-606.94 436.7,-605.24"/>
<text text-anchor="middle" x="454.95" y="-500.8" font-family="Times,serif" font-size="14.00">1</text>
</g>
<!-- Record Invoice Receipt&#45;&gt;Record Invoice Receipt -->
<g id="edge19" class="edge">
<title>Record Invoice Receipt&#45;&gt;Record Invoice Receipt</title>
<path fill="none" stroke="#ff0000" stroke-width="0.51" stroke-dasharray="5,2" d="M391.82,-381.01C402.49,-379.73 409.45,-377.4 409.45,-374 409.45,-371.88 406.73,-370.17 402.09,-368.87"/>
<polygon fill="#ff0000" stroke="#ff0000" stroke-width="0.51" points="403.04,-365.49 392.57,-367.13 401.78,-372.37 403.04,-365.49"/>
<text text-anchor="middle" x="416.45" y="-370.3" font-family="Times,serif" font-size="14.00">14</text>
</g>
<!-- Clear Invoice -->
<g id="node8" class="node">
<title>Clear Invoice</title>
<polygon fill="#fefeff" stroke="black" points="334.95,-131 211.95,-131 211.95,-95 334.95,-95 334.95,-131"/>
<text text-anchor="middle" x="273.45" y="-109.3" font-family="Times,serif" font-size="14.00">Clear Invoice (101)</text>
</g>
<!-- Record Invoice Receipt&#45;&gt;Clear Invoice -->
<g id="edge13" class="edge">
<title>Record Invoice Receipt&#45;&gt;Clear Invoice</title>
<path fill="none" stroke="#ff0000" stroke-width="0.55" stroke-dasharray="5,2" d="M319.7,-355.85C323.99,-350.55 328.05,-344.41 330.45,-338 354.77,-273.03 360.51,-246.68 335.45,-182 329.01,-165.38 316.41,-150.33 304.24,-138.64"/>
<polygon fill="#ff0000" stroke="#ff0000" stroke-width="0.55" points="306.73,-136.18 296.99,-132.02 302.02,-141.35 306.73,-136.18"/>
<text text-anchor="middle" x="362.95" y="-239.8" font-family="Times,serif" font-size="14.00">100</text>
</g>
<!-- Cancel Invoice Receipt -->
<g id="node10" class="node">
<title>Cancel Invoice Receipt</title>
<polygon fill="#ffffff" stroke="black" points="303.95,-305 140.95,-305 140.95,-269 303.95,-269 303.95,-305"/>
<text text-anchor="middle" x="222.45" y="-283.3" font-family="Times,serif" font-size="14.00">Cancel Invoice Receipt (1)</text>
</g>
<!-- Record Invoice Receipt&#45;&gt;Cancel Invoice Receipt -->
<g id="edge31" class="edge">
<title>Record Invoice Receipt&#45;&gt;Cancel Invoice Receipt</title>
<path fill="none" stroke="#ff0000" stroke-width="0.5" stroke-dasharray="5,2" d="M286.26,-355.8C274.74,-343.55 259.06,-326.9 246.13,-313.16"/>
<polygon fill="#ff0000" stroke="#ff0000" stroke-width="0.5" points="248.81,-310.9 239.41,-306.02 243.72,-315.7 248.81,-310.9"/>
<text text-anchor="middle" x="270.95" y="-326.8" font-family="Times,serif" font-size="14.00">1</text>
</g>
<!-- Remove Payment Block -->
<g id="node11" class="node">
<title>Remove Payment Block</title>
<polygon fill="#fefeff" stroke="black" points="326.45,-218 156.45,-218 156.45,-182 326.45,-182 326.45,-218"/>
<text text-anchor="middle" x="241.45" y="-196.3" font-family="Times,serif" font-size="14.00">Remove Payment Block (2)</text>
</g>
<!-- Record Invoice Receipt&#45;&gt;Remove Payment Block -->
<g id="edge35" class="edge">
<title>Record Invoice Receipt&#45;&gt;Remove Payment Block</title>
<path fill="none" stroke="#ff0000" stroke-width="0.5" stroke-dasharray="5,2" d="M309.06,-355.65C316.08,-334.35 324.63,-297.53 312.45,-269 304.95,-251.42 290.41,-236.2 276.44,-224.65"/>
<polygon fill="#ff0000" stroke="#ff0000" stroke-width="0.5" points="278.96,-222.17 268.93,-218.75 274.63,-227.68 278.96,-222.17"/>
<text text-anchor="middle" x="322.95" y="-283.3" font-family="Times,serif" font-size="14.00">1</text>
</g>
<!-- Record Invoice Receipt&#45;&gt;end_node -->
<g id="edge41" class="edge">
<title>Record Invoice Receipt&#45;&gt;end_node</title>
<path fill="none" stroke="#ff0000" stroke-width="0.5" stroke-dasharray="5,2" d="M354.05,-355.65C383.04,-342.29 413.45,-320.52 413.45,-288 413.45,-288 413.45,-288 413.45,-112 413.45,-92.11 418.05,-70.26 422.72,-53.19"/>
<polygon fill="#ff0000" stroke="#ff0000" stroke-width="0.5" points="425.97,-54.55 425.38,-43.97 419.24,-52.61 425.97,-54.55"/>
<text text-anchor="middle" x="416.95" y="-196.3" font-family="Times,serif" font-size="14.00">8</text>
</g>
<!-- Clear Invoice&#45;&gt;Record Invoice Receipt -->
<g id="edge26" class="edge">
<title>Clear Invoice&#45;&gt;Record Invoice Receipt</title>
<path fill="none" stroke="#ff0000" stroke-width="0.5" stroke-dasharray="5,2" d="M223.07,-131.37C197.47,-142.4 167.59,-159 147.45,-182 110.16,-224.58 97.49,-251 114.45,-305 119.81,-322.06 122.55,-328.12 137.45,-338 156.82,-350.84 180.03,-359.09 202.84,-364.35"/>
<polygon fill="#ff0000" stroke="#ff0000" stroke-width="0.5" points="202.03,-367.75 212.54,-366.4 203.48,-360.91 202.03,-367.75"/>
<text text-anchor="middle" x="114.95" y="-239.8" font-family="Times,serif" font-size="14.00">1</text>
</g>
<!-- Clear Invoice&#45;&gt;end_node -->
<g id="edge40" class="edge">
<title>Clear Invoice&#45;&gt;end_node</title>
<path fill="none" stroke="#ff0000" stroke-width="0.55" stroke-dasharray="5,2" d="M304.49,-94.63C333.43,-78.43 376.23,-54.47 404.23,-38.8"/>
<polygon fill="#ff0000" stroke="#ff0000" stroke-width="0.55" points="405.73,-41.97 412.74,-34.03 402.31,-35.86 405.73,-41.97"/>
<text text-anchor="middle" x="373.95" y="-65.8" font-family="Times,serif" font-size="14.00">100</text>
</g>
<!-- Vendor creates debit memo&#45;&gt;Vendor creates invoice -->
<g id="edge30" class="edge">
<title>Vendor creates debit memo&#45;&gt;Vendor creates invoice</title>
<path fill="none" stroke="#ff0000" stroke-width="0.5" stroke-dasharray="5,2" d="M379.01,-703.8C388.57,-691.67 401.55,-675.21 412.31,-661.55"/>
<polygon fill="#ff0000" stroke="#ff0000" stroke-width="0.5" points="414.77,-664.08 418.22,-654.06 409.28,-659.75 414.77,-664.08"/>
<text text-anchor="middle" x="405.95" y="-674.8" font-family="Times,serif" font-size="14.00">1</text>
</g>
<!-- Cancel Invoice Receipt&#45;&gt;Remove Payment Block -->
<g id="edge32" class="edge">
<title>Cancel Invoice Receipt&#45;&gt;Remove Payment Block</title>
<path fill="none" stroke="#ff0000" stroke-width="0.5" stroke-dasharray="5,2" d="M226.3,-268.8C228.86,-257.35 232.27,-242.06 235.22,-228.89"/>
<polygon fill="#ff0000" stroke="#ff0000" stroke-width="0.5" points="238.62,-229.73 237.38,-219.21 231.79,-228.2 238.62,-229.73"/>
<text text-anchor="middle" x="236.95" y="-239.8" font-family="Times,serif" font-size="14.00">1</text>
</g>
<!-- Remove Payment Block&#45;&gt;Record Invoice Receipt -->
<g id="edge33" class="edge">
<title>Remove Payment Block&#45;&gt;Record Invoice Receipt</title>
<path fill="none" stroke="#ff0000" stroke-width="0.5" stroke-dasharray="5,2" d="M194.82,-218.45C152.31,-237.12 99.64,-268.96 124.45,-305 142.65,-331.44 172.63,-347.6 202.84,-357.49"/>
<polygon fill="#ff0000" stroke="#ff0000" stroke-width="0.5" points="201.77,-360.82 212.35,-360.38 203.81,-354.12 201.77,-360.82"/>
<text text-anchor="middle" x="127.95" y="-283.3" font-family="Times,serif" font-size="14.00">1</text>
</g>
<!-- Remove Payment Block&#45;&gt;Clear Invoice -->
<g id="edge36" class="edge">
<title>Remove Payment Block&#45;&gt;Clear Invoice</title>
<path fill="none" stroke="#ff0000" stroke-width="0.5" stroke-dasharray="5,2" d="M247.93,-181.8C252.28,-170.24 258.11,-154.75 263.1,-141.5"/>
<polygon fill="#ff0000" stroke="#ff0000" stroke-width="0.5" points="266.36,-142.77 266.61,-132.18 259.81,-140.3 266.36,-142.77"/>
<text text-anchor="middle" x="262.95" y="-152.8" font-family="Times,serif" font-size="14.00">1</text>
</g>
</g>
</svg>
