<?xml version="1.0" encoding="UTF-8" standalone="no"?>
<!DOCTYPE svg PUBLIC "-//W3C//DTD SVG 1.1//EN"
 "http://www.w3.org/Graphics/SVG/1.1/DTD/svg11.dtd">
<!-- Generated by graphviz version 7.0.5 (0)
 -->
<!-- Title: dfg Pages: 1 -->
<svg width="509pt" height="835pt"
 viewBox="0.00 0.00 509.00 835.00" xmlns="http://www.w3.org/2000/svg" xmlns:xlink="http://www.w3.org/1999/xlink">
<g id="graph0" class="graph" transform="scale(1 1) rotate(0) translate(4 831)">
<title>dfg</title>
<polygon fill="white" stroke="none" points="-4,4 -4,-831 505,-831 505,4 -4,4"/>
<!-- start_node -->
<g id="node1" class="node">
<title>start_node</title>
<ellipse fill="none" stroke="black" cx="225.5" cy="-809" rx="18" ry="18"/>
<text text-anchor="start" x="221" y="-805.3" font-family="Times,serif" font-size="14.00">●</text>
</g>
<!-- Create Purchase Order Item -->
<g id="node2" class="node">
<title>Create Purchase Order Item</title>
<polygon fill="#9b9bff" stroke="black" points="333,-653 118,-653 118,-617 333,-617 333,-653"/>
<text text-anchor="middle" x="225.5" y="-631.3" font-family="Times,serif" font-size="14.00">Create Purchase Order Item (20307)</text>
</g>
<!-- start_node&#45;&gt;Create Purchase Order Item -->
<g id="edge1" class="edge">
<title>start_node&#45;&gt;Create Purchase Order Item</title>
<path fill="none" stroke="#000000" stroke-width="5.77" d="M223.23,-790.71C221.54,-776.99 219.39,-757.3 218.5,-740 217.68,-724.02 217.68,-719.98 218.5,-704 219.08,-692.64 220.21,-680.26 221.39,-669.22"/>
<polygon fill="#000000" stroke="#000000" stroke-width="5.77" points="226.36,-670.16 222.49,-659.65 216.34,-669.01 226.36,-670.16"/>
<text text-anchor="middle" x="235.5" y="-718.3" font-family="Times,serif" font-size="14.00">16844</text>
</g>
<!-- Create Purchase Requisition Item -->
<g id="node3" class="node">
<title>Create Purchase Requisition Item</title>
<polygon fill="#f8f8ff" stroke="black" points="501,-740 262,-740 262,-704 501,-704 501,-740"/>
<text text-anchor="middle" x="381.5" y="-718.3" font-family="Times,serif" font-size="14.00">Create Purchase Requisition Item (3463)</text>
</g>
<!-- start_node&#45;&gt;Create Purchase Requisition Item -->
<g id="edge2" class="edge">
<title>start_node&#45;&gt;Create Purchase Requisition Item</title>
<path fill="none" stroke="#000000" stroke-width="1.3" d="M241.03,-799.54C263.77,-787.15 306.95,-763.62 339.46,-745.9"/>
<polygon fill="#000000" stroke="#000000" stroke-width="1.3" points="340.76,-749.18 347.87,-741.32 337.41,-743.03 340.76,-749.18"/>
<text text-anchor="middle" x="326.5" y="-761.8" font-family="Times,serif" font-size="14.00">3463</text>
</g>
<!-- Record Goods Receipt -->
<g id="node4" class="node">
<title>Record Goods Receipt</title>
<polygon fill="#9b9bff" stroke="black" points="318.5,-479 132.5,-479 132.5,-443 318.5,-443 318.5,-479"/>
<text text-anchor="middle" x="225.5" y="-457.3" font-family="Times,serif" font-size="14.00">Record Goods Receipt (20307)</text>
</g>
<!-- Create Purchase Order Item&#45;&gt;Record Goods Receipt -->
<g id="edge3" class="edge">
<title>Create Purchase Order Item&#45;&gt;Record Goods Receipt</title>
<path fill="none" stroke="#000000" stroke-width="2.12" d="M271.65,-616.53C312.21,-598.29 361.71,-567.18 340.5,-530 329.21,-510.21 309.66,-495.6 289.84,-485.1"/>
<polygon fill="#000000" stroke="#000000" stroke-width="2.12" points="291.61,-482.07 281.09,-480.8 288.52,-488.35 291.61,-482.07"/>
<text text-anchor="middle" x="359.5" y="-544.3" font-family="Times,serif" font-size="14.00">5921</text>
</g>
<!-- Vendor creates invoice -->
<g id="node5" class="node">
<title>Vendor creates invoice</title>
<polygon fill="#9b9bff" stroke="black" points="187,-392 0,-392 0,-356 187,-356 187,-392"/>
<text text-anchor="middle" x="93.5" y="-370.3" font-family="Times,serif" font-size="14.00">Vendor creates invoice (20307)</text>
</g>
<!-- Create Purchase Order Item&#45;&gt;Vendor creates invoice -->
<g id="edge8" class="edge">
<title>Create Purchase Order Item&#45;&gt;Vendor creates invoice</title>
<path fill="none" stroke="#000000" stroke-width="4.2" d="M174.89,-616.61C151.33,-605.82 125.29,-589.44 110.5,-566 80.11,-517.82 82.75,-448.71 87.84,-408.18"/>
<polygon fill="#000000" stroke="#000000" stroke-width="4.2" points="91.45,-408.91 89.25,-398.49 84.18,-407.86 91.45,-408.91"/>
<text text-anchor="middle" x="107.5" y="-500.8" font-family="Times,serif" font-size="14.00">12137</text>
</g>
<!-- Receive Order Confirmation -->
<g id="node9" class="node">
<title>Receive Order Confirmation</title>
<polygon fill="#ffffff" stroke="black" points="331.5,-566 119.5,-566 119.5,-530 331.5,-530 331.5,-566"/>
<text text-anchor="middle" x="225.5" y="-544.3" font-family="Times,serif" font-size="14.00">Receive Order Confirmation (2249)</text>
</g>
<!-- Create Purchase Order Item&#45;&gt;Receive Order Confirmation -->
<g id="edge13" class="edge">
<title>Create Purchase Order Item&#45;&gt;Receive Order Confirmation</title>
<path fill="none" stroke="#000000" stroke-width="0.9" d="M225.5,-616.8C225.5,-605.58 225.5,-590.67 225.5,-577.69"/>
<polygon fill="#000000" stroke="#000000" stroke-width="0.9" points="229,-577.83 225.5,-567.83 222,-577.83 229,-577.83"/>
<text text-anchor="middle" x="239.5" y="-587.8" font-family="Times,serif" font-size="14.00">2249</text>
</g>
<!-- Create Purchase Requisition Item&#45;&gt;Create Purchase Order Item -->
<g id="edge15" class="edge">
<title>Create Purchase Requisition Item&#45;&gt;Create Purchase Order Item</title>
<path fill="none" stroke="#000000" stroke-width="1.3" d="M349.55,-703.59C325.89,-690.7 293.43,-673.01 267.64,-658.96"/>
<polygon fill="#000000" stroke="#000000" stroke-width="1.3" points="269.59,-656.04 259.14,-654.33 266.24,-662.19 269.59,-656.04"/>
<text text-anchor="middle" x="326.5" y="-674.8" font-family="Times,serif" font-size="14.00">3463</text>
</g>
<!-- Record Goods Receipt&#45;&gt;Vendor creates invoice -->
<g id="edge4" class="edge">
<title>Record Goods Receipt&#45;&gt;Vendor creates invoice</title>
<path fill="none" stroke="#000000" stroke-width="2.87" d="M159.77,-442.54C148.71,-437.9 137.81,-432.13 128.5,-425 121.19,-419.4 114.81,-411.85 109.57,-404.3"/>
<polygon fill="#000000" stroke="#000000" stroke-width="2.87" points="112.67,-402.67 104.4,-396.05 106.74,-406.38 112.67,-402.67"/>
<text text-anchor="middle" x="142.5" y="-413.8" font-family="Times,serif" font-size="14.00">8170</text>
</g>
<!-- Record Invoice Receipt -->
<g id="node6" class="node">
<title>Record Invoice Receipt</title>
<polygon fill="#9b9bff" stroke="black" points="314,-305 123,-305 123,-269 314,-269 314,-305"/>
<text text-anchor="middle" x="218.5" y="-283.3" font-family="Times,serif" font-size="14.00">Record Invoice Receipt (20307)</text>
</g>
<!-- Record Goods Receipt&#45;&gt;Record Invoice Receipt -->
<g id="edge10" class="edge">
<title>Record Goods Receipt&#45;&gt;Record Invoice Receipt</title>
<path fill="none" stroke="#000000" stroke-width="2.84" d="M236.25,-442.79C247.75,-422.24 263.33,-386.78 255.5,-356 252.08,-342.56 245.41,-328.91 238.66,-317.4"/>
<polygon fill="#000000" stroke="#000000" stroke-width="2.84" points="241.72,-315.7 233.45,-309.08 235.79,-319.41 241.72,-315.7"/>
<text text-anchor="middle" x="272.5" y="-370.3" font-family="Times,serif" font-size="14.00">8054</text>
</g>
<!-- Remove Payment Block -->
<g id="node7" class="node">
<title>Remove Payment Block</title>
<polygon fill="#a6a6ff" stroke="black" points="452,-218 255,-218 255,-182 452,-182 452,-218"/>
<text text-anchor="middle" x="353.5" y="-196.3" font-family="Times,serif" font-size="14.00">Remove Payment Block (18164)</text>
</g>
<!-- Record Goods Receipt&#45;&gt;Remove Payment Block -->
<g id="edge12" class="edge">
<title>Record Goods Receipt&#45;&gt;Remove Payment Block</title>
<path fill="none" stroke="#000000" stroke-width="1.51" d="M246.59,-442.62C260.79,-429.92 278.96,-411.55 290.5,-392 321.59,-339.32 339.63,-269.29 347.92,-230.33"/>
<polygon fill="#000000" stroke="#000000" stroke-width="1.51" points="351.34,-231.12 349.91,-220.62 344.48,-229.71 351.34,-231.12"/>
<text text-anchor="middle" x="334.5" y="-326.8" font-family="Times,serif" font-size="14.00">4083</text>
</g>
<!-- Vendor creates invoice&#45;&gt;Record Goods Receipt -->
<g id="edge9" class="edge">
<title>Vendor creates invoice&#45;&gt;Record Goods Receipt</title>
<path fill="none" stroke="#000000" stroke-width="2.84" d="M126.63,-392.43C136.4,-397.83 147,-403.95 156.5,-410 168.23,-417.47 180.65,-426.2 191.67,-434.25"/>
<polygon fill="#000000" stroke="#000000" stroke-width="2.84" points="189.41,-436.93 199.53,-440.07 193.58,-431.31 189.41,-436.93"/>
<text text-anchor="middle" x="192.5" y="-413.8" font-family="Times,serif" font-size="14.00">8054</text>
</g>
<!-- Vendor creates invoice&#45;&gt;Record Invoice Receipt -->
<g id="edge5" class="edge">
<title>Vendor creates invoice&#45;&gt;Record Invoice Receipt</title>
<path fill="none" stroke="#000000" stroke-width="4.24" d="M119.1,-355.59C136.54,-343.73 159.96,-327.81 179.68,-314.4"/>
<polygon fill="#000000" stroke="#000000" stroke-width="4.24" points="181.71,-317.5 187.9,-308.81 177.54,-311.37 181.71,-317.5"/>
<text text-anchor="middle" x="180.5" y="-326.8" font-family="Times,serif" font-size="14.00">12253</text>
</g>
<!-- Record Invoice Receipt&#45;&gt;Record Goods Receipt -->
<g id="edge11" class="edge">
<title>Record Invoice Receipt&#45;&gt;Record Goods Receipt</title>
<path fill="none" stroke="#000000" stroke-width="1.51" d="M219.21,-305.48C220.41,-334.88 222.83,-394.5 224.3,-430.48"/>
<polygon fill="#000000" stroke="#000000" stroke-width="1.51" points="220.79,-430.43 224.7,-440.28 227.79,-430.14 220.79,-430.43"/>
<text text-anchor="middle" x="237.5" y="-370.3" font-family="Times,serif" font-size="14.00">4083</text>
</g>
<!-- Record Invoice Receipt&#45;&gt;Remove Payment Block -->
<g id="edge6" class="edge">
<title>Record Invoice Receipt&#45;&gt;Remove Payment Block</title>
<path fill="none" stroke="#000000" stroke-width="4.85" d="M246.15,-268.59C265.16,-256.62 290.76,-240.5 312.19,-227.01"/>
<polygon fill="#000000" stroke="#000000" stroke-width="4.85" points="314.44,-230.61 320.64,-221.69 309.92,-223.43 314.44,-230.61"/>
<text text-anchor="middle" x="311.5" y="-239.8" font-family="Times,serif" font-size="14.00">14081</text>
</g>
<!-- Clear Invoice -->
<g id="node8" class="node">
<title>Clear Invoice</title>
<polygon fill="#a4a4ff" stroke="black" points="323,-131 186,-131 186,-95 323,-95 323,-131"/>
<text text-anchor="middle" x="254.5" y="-109.3" font-family="Times,serif" font-size="14.00">Clear Invoice (18593)</text>
</g>
<!-- Record Invoice Receipt&#45;&gt;Clear Invoice -->
<g id="edge16" class="edge">
<title>Record Invoice Receipt&#45;&gt;Clear Invoice</title>
<path fill="none" stroke="#000000" stroke-width="0.5" d="M215.67,-268.75C212.86,-247.85 209.93,-211.75 217.5,-182 221.21,-167.41 228.76,-152.56 236.08,-140.48"/>
<polygon fill="#000000" stroke="#000000" stroke-width="0.5" points="239.01,-142.4 241.42,-132.08 233.1,-138.64 239.01,-142.4"/>
<text text-anchor="middle" x="231.5" y="-196.3" font-family="Times,serif" font-size="14.00">1050</text>
</g>
<!-- end_node -->
<g id="node10" class="node">
<title>end_node</title>
<ellipse fill="none" stroke="black" cx="254.5" cy="-22" rx="18" ry="18"/>
<ellipse fill="none" stroke="black" cx="254.5" cy="-22" rx="22" ry="22"/>
<text text-anchor="start" x="250" y="-18.3" font-family="Times,serif" font-size="14.00">■</text>
</g>
<!-- Record Invoice Receipt&#45;&gt;end_node -->
<g id="edge18" class="edge">
<title>Record Invoice Receipt&#45;&gt;end_node</title>
<path fill="none" stroke="#000000" stroke-width="0.51" d="M207.81,-268.7C188.02,-234.32 150.01,-155.49 176.5,-95 186.79,-71.5 208.96,-52.26 227.04,-39.61"/>
<polygon fill="#000000" stroke="#000000" stroke-width="0.51" points="228.51,-42.84 234.87,-34.36 224.61,-37.02 228.51,-42.84"/>
<text text-anchor="middle" x="183.5" y="-152.8" font-family="Times,serif" font-size="14.00">1093</text>
</g>
<!-- Remove Payment Block&#45;&gt;Clear Invoice -->
<g id="edge7" class="edge">
<title>Remove Payment Block&#45;&gt;Clear Invoice</title>
<path fill="none" stroke="#000000" stroke-width="6" d="M332.48,-181.66C325.75,-176.06 318.28,-169.8 311.5,-164 303.29,-156.98 294.49,-149.33 286.32,-142.17"/>
<polygon fill="#000000" stroke="#000000" stroke-width="6" points="290,-138.41 279.02,-135.74 283.06,-146.29 290,-138.41"/>
<text text-anchor="middle" x="328.5" y="-152.8" font-family="Times,serif" font-size="14.00">17543</text>
</g>
<!-- Remove Payment Block&#45;&gt;end_node -->
<g id="edge19" class="edge">
<title>Remove Payment Block&#45;&gt;end_node</title>
<path fill="none" stroke="#ff0000" stroke-width="0.36" stroke-dasharray="5,2" d="M353.38,-181.58C352.51,-159.88 348.54,-122.32 332.5,-95 319.59,-73.01 297.85,-53.76 280.6,-40.71"/>
<polygon fill="#ff0000" stroke="#ff0000" stroke-width="0.36" points="283.12,-38.22 272.98,-35.13 278.99,-43.87 283.12,-38.22"/>
<text text-anchor="middle" x="356" y="-109.3" font-family="Times,serif" font-size="14.00">621</text>
</g>
<!-- Clear Invoice&#45;&gt;end_node -->
<g id="edge17" class="edge">
<title>Clear Invoice&#45;&gt;end_node</title>
<path fill="none" stroke="#000000" stroke-width="6.35" d="M254.5,-94.84C254.5,-85.13 254.5,-72.59 254.5,-60.72"/>
<polygon fill="#000000" stroke="#000000" stroke-width="6.35" points="260.06,-60.73 254.5,-50.73 248.94,-60.73 260.06,-60.73"/>
<text text-anchor="middle" x="271.5" y="-65.8" font-family="Times,serif" font-size="14.00">18593</text>
</g>
<!-- Receive Order Confirmation&#45;&gt;Record Goods Receipt -->
<g id="edge14" class="edge">
<title>Receive Order Confirmation&#45;&gt;Record Goods Receipt</title>
<path fill="none" stroke="#000000" stroke-width="0.9" d="M225.5,-529.8C225.5,-518.58 225.5,-503.67 225.5,-490.69"/>
<polygon fill="#000000" stroke="#000000" stroke-width="0.9" points="229,-490.83 225.5,-480.83 222,-490.83 229,-490.83"/>
<text text-anchor="middle" x="239.5" y="-500.8" font-family="Times,serif" font-size="14.00">2249</text>
</g>
</g>
</svg>
