<?xml version="1.0" encoding="UTF-8" standalone="no"?>
<!DOCTYPE svg PUBLIC "-//W3C//DTD SVG 1.1//EN"
 "http://www.w3.org/Graphics/SVG/1.1/DTD/svg11.dtd">
<!-- Generated by graphviz version 7.0.5 (0)
 -->
<!-- Title: dfg Pages: 1 -->
<svg width="484pt" height="400pt"
 viewBox="0.00 0.00 483.50 400.00" xmlns="http://www.w3.org/2000/svg" xmlns:xlink="http://www.w3.org/1999/xlink">
<g id="graph0" class="graph" transform="scale(1 1) rotate(0) translate(4 396)">
<title>dfg</title>
<polygon fill="white" stroke="none" points="-4,4 -4,-396 479.5,-396 479.5,4 -4,4"/>
<!-- start_node -->
<g id="node1" class="node">
<title>start_node</title>
<ellipse fill="none" stroke="black" cx="200" cy="-374" rx="18" ry="18"/>
<text text-anchor="start" x="195.5" y="-370.3" font-family="Times,serif" font-size="14.00">●</text>
</g>
<!-- Create Purchase Order Item -->
<g id="node2" class="node">
<title>Create Purchase Order Item</title>
<polygon fill="#9b9bff" stroke="black" points="307.5,-218 92.5,-218 92.5,-182 307.5,-182 307.5,-218"/>
<text text-anchor="middle" x="200" y="-196.3" font-family="Times,serif" font-size="14.00">Create Purchase Order Item (12807)</text>
</g>
<!-- start_node&#45;&gt;Create Purchase Order Item -->
<g id="edge1" class="edge">
<title>start_node&#45;&gt;Create Purchase Order Item</title>
<path fill="none" stroke="#000000" stroke-width="6.3" d="M197.73,-355.71C196.04,-341.99 193.89,-322.3 193,-305 192.18,-289.02 192.18,-284.98 193,-269 193.58,-257.78 194.68,-245.56 195.85,-234.61"/>
<polygon fill="#000000" stroke="#000000" stroke-width="6.3" points="201.32,-235.34 196.98,-224.77 190.36,-234.08 201.32,-235.34"/>
<text text-anchor="middle" x="210" y="-283.3" font-family="Times,serif" font-size="14.00">10700</text>
</g>
<!-- Create Purchase Requisition Item -->
<g id="node3" class="node">
<title>Create Purchase Requisition Item</title>
<polygon fill="#ffffff" stroke="black" points="475.5,-305 236.5,-305 236.5,-269 475.5,-269 475.5,-305"/>
<text text-anchor="middle" x="356" y="-283.3" font-family="Times,serif" font-size="14.00">Create Purchase Requisition Item (2107)</text>
</g>
<!-- start_node&#45;&gt;Create Purchase Requisition Item -->
<g id="edge2" class="edge">
<title>start_node&#45;&gt;Create Purchase Requisition Item</title>
<path fill="none" stroke="#000000" stroke-width="0.5" d="M215.53,-364.54C238.47,-352.04 282.2,-328.21 314.81,-310.45"/>
<polygon fill="#000000" stroke="#000000" stroke-width="0.5" points="316.33,-313.6 323.44,-305.74 312.98,-307.45 316.33,-313.6"/>
<text text-anchor="middle" x="301" y="-326.8" font-family="Times,serif" font-size="14.00">2107</text>
</g>
<!-- Record Goods Receipt -->
<g id="node4" class="node">
<title>Record Goods Receipt</title>
<polygon fill="#b2b2ff" stroke="black" points="186,-131 0,-131 0,-95 186,-95 186,-131"/>
<text text-anchor="middle" x="93" y="-109.3" font-family="Times,serif" font-size="14.00">Record Goods Receipt (10256)</text>
</g>
<!-- Create Purchase Order Item&#45;&gt;Record Goods Receipt -->
<g id="edge3" class="edge">
<title>Create Purchase Order Item&#45;&gt;Record Goods Receipt</title>
<path fill="none" stroke="#000000" stroke-width="6" d="M178.09,-181.59C163.52,-170.02 144.08,-154.58 127.46,-141.37"/>
<polygon fill="#000000" stroke="#000000" stroke-width="6" points="131.03,-137.51 119.94,-135.4 124.5,-145.73 131.03,-137.51"/>
<text text-anchor="middle" x="170" y="-152.8" font-family="Times,serif" font-size="14.00">10256</text>
</g>
<!-- Delete Purchase Order Item -->
<g id="node5" class="node">
<title>Delete Purchase Order Item</title>
<polygon fill="#fafaff" stroke="black" points="413.5,-131 204.5,-131 204.5,-95 413.5,-95 413.5,-131"/>
<text text-anchor="middle" x="309" y="-109.3" font-family="Times,serif" font-size="14.00">Delete Purchase Order Item (2551)</text>
</g>
<!-- Create Purchase Order Item&#45;&gt;Delete Purchase Order Item -->
<g id="edge4" class="edge">
<title>Create Purchase Order Item&#45;&gt;Delete Purchase Order Item</title>
<path fill="none" stroke="#000000" stroke-width="0.8" d="M222.32,-181.59C238.49,-168.99 260.53,-151.79 278.35,-137.9"/>
<polygon fill="#000000" stroke="#000000" stroke-width="0.8" points="280.02,-141.04 285.75,-132.13 275.72,-135.52 280.02,-141.04"/>
<text text-anchor="middle" x="276" y="-152.8" font-family="Times,serif" font-size="14.00">2551</text>
</g>
<!-- Create Purchase Requisition Item&#45;&gt;Create Purchase Order Item -->
<g id="edge5" class="edge">
<title>Create Purchase Requisition Item&#45;&gt;Create Purchase Order Item</title>
<path fill="none" stroke="#000000" stroke-width="0.5" d="M324.05,-268.59C300.08,-255.53 267.06,-237.54 241.11,-223.4"/>
<polygon fill="#000000" stroke="#000000" stroke-width="0.5" points="243.02,-220.46 232.57,-218.74 239.67,-226.6 243.02,-220.46"/>
<text text-anchor="middle" x="301" y="-239.8" font-family="Times,serif" font-size="14.00">2107</text>
</g>
<!-- end_node -->
<g id="node6" class="node">
<title>end_node</title>
<ellipse fill="none" stroke="black" cx="200" cy="-22" rx="18" ry="18"/>
<ellipse fill="none" stroke="black" cx="200" cy="-22" rx="22" ry="22"/>
<text text-anchor="start" x="195.5" y="-18.3" font-family="Times,serif" font-size="14.00">■</text>
</g>
<!-- Record Goods Receipt&#45;&gt;end_node -->
<g id="edge6" class="edge">
<title>Record Goods Receipt&#45;&gt;end_node</title>
<path fill="none" stroke="#000000" stroke-width="6" d="M113.88,-94.63C130.15,-81.1 152.92,-62.16 170.96,-47.15"/>
<polygon fill="#000000" stroke="#000000" stroke-width="6" points="174.08,-51.38 178.42,-40.95 167.37,-43.31 174.08,-51.38"/>
<text text-anchor="middle" x="170" y="-65.8" font-family="Times,serif" font-size="14.00">10256</text>
</g>
<!-- Delete Purchase Order Item&#45;&gt;end_node -->
<g id="edge7" class="edge">
<title>Delete Purchase Order Item&#45;&gt;end_node</title>
<path fill="none" stroke="#000000" stroke-width="0.8" d="M287.72,-94.63C269.75,-79.96 243.99,-58.92 225.03,-43.44"/>
<polygon fill="#000000" stroke="#000000" stroke-width="0.8" points="227.49,-40.93 217.53,-37.31 223.06,-46.35 227.49,-40.93"/>
<text text-anchor="middle" x="279" y="-65.8" font-family="Times,serif" font-size="14.00">2551</text>
</g>
</g>
</svg>
