<?xml version="1.0" encoding="UTF-8" standalone="no"?>
<!DOCTYPE svg PUBLIC "-//W3C//DTD SVG 1.1//EN"
 "http://www.w3.org/Graphics/SVG/1.1/DTD/svg11.dtd">
<!-- Generated by graphviz version 7.0.5 (0)
 -->
<!-- Title: dfg Pages: 1 -->
<svg width="408pt" height="769pt"
 viewBox="0.00 0.00 408.00 769.00" xmlns="http://www.w3.org/2000/svg" xmlns:xlink="http://www.w3.org/1999/xlink">
<g id="graph0" class="graph" transform="scale(1 1) rotate(0) translate(4 765)">
<title>dfg</title>
<polygon fill="white" stroke="none" points="-4,4 -4,-765 404,-765 404,4 -4,4"/>
<!-- start_node -->
<g id="node1" class="node">
<title>start_node</title>
<ellipse fill="none" stroke="black" cx="164.5" cy="-743" rx="18" ry="18"/>
<text text-anchor="start" x="160" y="-739.3" font-family="Times,serif" font-size="14.00">●</text>
</g>
<!-- Create Purchase Order Item -->
<g id="node2" class="node">
<title>Create Purchase Order Item</title>
<polygon fill="#fcfcff" stroke="black" points="262,-587 67,-587 67,-551 262,-551 262,-587"/>
<text text-anchor="middle" x="164.5" y="-565.3" font-family="Times,serif" font-size="14.00">Create Purchase Order Item (41)</text>
</g>
<!-- start_node&#45;&gt;Create Purchase Order Item -->
<g id="edge1" class="edge">
<title>start_node&#45;&gt;Create Purchase Order Item</title>
<path fill="none" stroke="#ff0000" stroke-width="0.63" stroke-dasharray="5,2" d="M162.23,-724.71C160.54,-710.99 158.39,-691.3 157.5,-674 156.68,-658.02 156.68,-653.98 157.5,-638 158.18,-624.75 159.6,-610.11 160.99,-597.81"/>
<polygon fill="#ff0000" stroke="#ff0000" stroke-width="0.63" points="164.42,-598.58 162.11,-588.24 157.47,-597.76 164.42,-598.58"/>
<text text-anchor="middle" x="164.5" y="-652.3" font-family="Times,serif" font-size="14.00">32</text>
</g>
<!-- Create Purchase Requisition Item -->
<g id="node3" class="node">
<title>Create Purchase Requisition Item</title>
<polygon fill="#fefeff" stroke="black" points="400,-674 181,-674 181,-638 400,-638 400,-674"/>
<text text-anchor="middle" x="290.5" y="-652.3" font-family="Times,serif" font-size="14.00">Create Purchase Requisition Item (9)</text>
</g>
<!-- start_node&#45;&gt;Create Purchase Requisition Item -->
<g id="edge2" class="edge">
<title>start_node&#45;&gt;Create Purchase Requisition Item</title>
<path fill="none" stroke="#ff0000" stroke-width="0.53" stroke-dasharray="5,2" d="M178.95,-732.25C197.61,-719.67 230.67,-697.36 255.97,-680.3"/>
<polygon fill="#ff0000" stroke="#ff0000" stroke-width="0.53" points="257.9,-683.21 264.23,-674.72 253.98,-677.41 257.9,-683.21"/>
<text text-anchor="middle" x="238" y="-695.8" font-family="Times,serif" font-size="14.00">9</text>
</g>
<!-- Vendor creates invoice -->
<g id="node4" class="node">
<title>Vendor creates invoice</title>
<polygon fill="#fbfbff" stroke="black" points="344,-392 177,-392 177,-356 344,-356 344,-392"/>
<text text-anchor="middle" x="260.5" y="-370.3" font-family="Times,serif" font-size="14.00">Vendor creates invoice (45)</text>
</g>
<!-- Create Purchase Order Item&#45;&gt;Vendor creates invoice -->
<g id="edge3" class="edge">
<title>Create Purchase Order Item&#45;&gt;Vendor creates invoice</title>
<path fill="none" stroke="#ff0000" stroke-width="0.65" stroke-dasharray="5,2" d="M162.54,-550.53C160.9,-529.11 160.58,-492.17 173.5,-464 185.38,-438.11 208.09,-415.29 227.33,-399.24"/>
<polygon fill="#ff0000" stroke="#ff0000" stroke-width="0.65" points="229.51,-401.97 235.1,-392.97 225.12,-396.52 229.51,-401.97"/>
<text text-anchor="middle" x="180.5" y="-478.3" font-family="Times,serif" font-size="14.00">37</text>
</g>
<!-- Change Price -->
<g id="node8" class="node">
<title>Change Price</title>
<polygon fill="#ffffff" stroke="black" points="148,-446 39,-446 39,-410 148,-410 148,-446"/>
<text text-anchor="middle" x="93.5" y="-424.3" font-family="Times,serif" font-size="14.00">Change Price (2)</text>
</g>
<!-- Create Purchase Order Item&#45;&gt;Change Price -->
<g id="edge14" class="edge">
<title>Create Purchase Order Item&#45;&gt;Change Price</title>
<path fill="none" stroke="#ff0000" stroke-width="0.5" stroke-dasharray="5,2" d="M153.71,-550.74C150.33,-545.14 146.66,-538.86 143.5,-533 129.62,-507.23 115.29,-477.01 105.56,-455.8"/>
<polygon fill="#ff0000" stroke="#ff0000" stroke-width="0.5" points="108.81,-454.51 101.48,-446.86 102.45,-457.41 108.81,-454.51"/>
<text text-anchor="middle" x="147" y="-521.8" font-family="Times,serif" font-size="14.00">2</text>
</g>
<!-- Change Quantity -->
<g id="node9" class="node">
<title>Change Quantity</title>
<polygon fill="#ffffff" stroke="black" points="324.5,-500 196.5,-500 196.5,-464 324.5,-464 324.5,-500"/>
<text text-anchor="middle" x="260.5" y="-478.3" font-family="Times,serif" font-size="14.00">Change Quantity (2)</text>
</g>
<!-- Create Purchase Order Item&#45;&gt;Change Quantity -->
<g id="edge16" class="edge">
<title>Create Purchase Order Item&#45;&gt;Change Quantity</title>
<path fill="none" stroke="#ff0000" stroke-width="0.5" stroke-dasharray="5,2" d="M183.93,-550.8C198.02,-538.32 217.27,-521.28 232.95,-507.4"/>
<polygon fill="#ff0000" stroke="#ff0000" stroke-width="0.5" points="235.04,-510.22 240.21,-500.97 230.4,-504.98 235.04,-510.22"/>
<text text-anchor="middle" x="222" y="-521.8" font-family="Times,serif" font-size="14.00">2</text>
</g>
<!-- Create Purchase Requisition Item&#45;&gt;Create Purchase Order Item -->
<g id="edge8" class="edge">
<title>Create Purchase Requisition Item&#45;&gt;Create Purchase Order Item</title>
<path fill="none" stroke="#ff0000" stroke-width="0.53" stroke-dasharray="5,2" d="M264.7,-637.59C245.76,-624.82 219.83,-607.32 199.09,-593.34"/>
<polygon fill="#ff0000" stroke="#ff0000" stroke-width="0.53" points="201.18,-590.52 190.93,-587.83 197.27,-596.33 201.18,-590.52"/>
<text text-anchor="middle" x="238" y="-608.8" font-family="Times,serif" font-size="14.00">9</text>
</g>
<!-- Record Goods Receipt -->
<g id="node5" class="node">
<title>Record Goods Receipt</title>
<polygon fill="#9b9bff" stroke="black" points="179,-305 0,-305 0,-269 179,-269 179,-305"/>
<text text-anchor="middle" x="89.5" y="-283.3" font-family="Times,serif" font-size="14.00">Record Goods Receipt (1311)</text>
</g>
<!-- Vendor creates invoice&#45;&gt;Record Goods Receipt -->
<g id="edge4" class="edge">
<title>Vendor creates invoice&#45;&gt;Record Goods Receipt</title>
<path fill="none" stroke="#ff0000" stroke-width="0.66" stroke-dasharray="5,2" d="M221.65,-355.59C209.67,-350.09 196.49,-343.91 184.5,-338 166.75,-329.25 147.39,-319.16 130.8,-310.34"/>
<polygon fill="#ff0000" stroke="#ff0000" stroke-width="0.66" points="132.74,-307.41 122.27,-305.79 129.44,-313.59 132.74,-307.41"/>
<text text-anchor="middle" x="191.5" y="-326.8" font-family="Times,serif" font-size="14.00">39</text>
</g>
<!-- Record Invoice Receipt -->
<g id="node6" class="node">
<title>Record Invoice Receipt</title>
<polygon fill="#fcfcff" stroke="black" points="311,-218 140,-218 140,-182 311,-182 311,-218"/>
<text text-anchor="middle" x="225.5" y="-196.3" font-family="Times,serif" font-size="14.00">Record Invoice Receipt (39)</text>
</g>
<!-- Vendor creates invoice&#45;&gt;Record Invoice Receipt -->
<g id="edge10" class="edge">
<title>Vendor creates invoice&#45;&gt;Record Invoice Receipt</title>
<path fill="none" stroke="#ff0000" stroke-width="0.5" stroke-dasharray="5,2" d="M269.58,-355.65C272,-350.15 274.28,-343.96 275.5,-338 284.61,-293.59 296.44,-276.21 275.5,-236 273.46,-232.09 270.77,-228.52 267.68,-225.29"/>
<polygon fill="#ff0000" stroke="#ff0000" stroke-width="0.5" points="270.26,-222.91 260.46,-218.88 265.61,-228.14 270.26,-222.91"/>
<text text-anchor="middle" x="290" y="-283.3" font-family="Times,serif" font-size="14.00">3</text>
</g>
<!-- Clear Invoice -->
<g id="node7" class="node">
<title>Clear Invoice</title>
<polygon fill="#fbfbff" stroke="black" points="304.5,-131 188.5,-131 188.5,-95 304.5,-95 304.5,-131"/>
<text text-anchor="middle" x="246.5" y="-109.3" font-family="Times,serif" font-size="14.00">Clear Invoice (42)</text>
</g>
<!-- Vendor creates invoice&#45;&gt;Clear Invoice -->
<g id="edge13" class="edge">
<title>Vendor creates invoice&#45;&gt;Clear Invoice</title>
<path fill="none" stroke="#ff0000" stroke-width="0.5" stroke-dasharray="5,2" d="M278.13,-355.65C282.71,-350.35 287.27,-344.26 290.5,-338 322.9,-275.27 348.89,-246.64 320.5,-182 312.7,-164.24 297.72,-149.08 283.26,-137.61"/>
<polygon fill="#ff0000" stroke="#ff0000" stroke-width="0.5" points="285.58,-134.97 275.48,-131.75 281.37,-140.56 285.58,-134.97"/>
<text text-anchor="middle" x="336" y="-239.8" font-family="Times,serif" font-size="14.00">3</text>
</g>
<!-- Record Goods Receipt&#45;&gt;Vendor creates invoice -->
<g id="edge9" class="edge">
<title>Record Goods Receipt&#45;&gt;Vendor creates invoice</title>
<path fill="none" stroke="#ff0000" stroke-width="0.5" stroke-dasharray="5,2" d="M157.1,-305.43C171.18,-310.23 185.64,-316.06 198.5,-323 211.27,-329.89 223.99,-339.53 234.56,-348.51"/>
<polygon fill="#ff0000" stroke="#ff0000" stroke-width="0.5" points="232.13,-351.04 241.95,-355.01 236.75,-345.78 232.13,-351.04"/>
<text text-anchor="middle" x="224" y="-326.8" font-family="Times,serif" font-size="14.00">3</text>
</g>
<!-- Record Goods Receipt&#45;&gt;Record Goods Receipt -->
<g id="edge5" class="edge">
<title>Record Goods Receipt&#45;&gt;Record Goods Receipt</title>
<path fill="none" stroke="#000000" stroke-width="6" d="M179.28,-294.01C190,-292.73 197,-290.4 197,-287 197,-285.94 196.32,-284.98 195.05,-284.13"/>
<polygon fill="#000000" stroke="#000000" stroke-width="6" points="196.53,-279.09 185.53,-281.63 193.87,-289.24 196.53,-279.09"/>
<text text-anchor="middle" x="211" y="-283.3" font-family="Times,serif" font-size="14.00">1270</text>
</g>
<!-- Record Goods Receipt&#45;&gt;Record Invoice Receipt -->
<g id="edge6" class="edge">
<title>Record Goods Receipt&#45;&gt;Record Invoice Receipt</title>
<path fill="none" stroke="#ff0000" stroke-width="0.65" stroke-dasharray="5,2" d="M117.35,-268.59C137.89,-255.76 166.03,-238.17 188.46,-224.15"/>
<polygon fill="#ff0000" stroke="#ff0000" stroke-width="0.65" points="190.23,-227.17 196.86,-218.9 186.52,-221.23 190.23,-227.17"/>
<text text-anchor="middle" x="173.5" y="-239.8" font-family="Times,serif" font-size="14.00">36</text>
</g>
<!-- end_node -->
<g id="node10" class="node">
<title>end_node</title>
<ellipse fill="none" stroke="black" cx="163.5" cy="-22" rx="18" ry="18"/>
<ellipse fill="none" stroke="black" cx="163.5" cy="-22" rx="22" ry="22"/>
<text text-anchor="start" x="159" y="-18.3" font-family="Times,serif" font-size="14.00">■</text>
</g>
<!-- Record Goods Receipt&#45;&gt;end_node -->
<g id="edge20" class="edge">
<title>Record Goods Receipt&#45;&gt;end_node</title>
<path fill="none" stroke="#ff0000" stroke-width="0.5" stroke-dasharray="5,2" d="M94.36,-268.74C106.65,-225.03 139.17,-109.48 154.83,-53.82"/>
<polygon fill="#ff0000" stroke="#ff0000" stroke-width="0.5" points="158.18,-54.83 157.52,-44.26 151.44,-52.93 158.18,-54.83"/>
<text text-anchor="middle" x="131" y="-152.8" font-family="Times,serif" font-size="14.00">2</text>
</g>
<!-- Record Invoice Receipt&#45;&gt;Vendor creates invoice -->
<g id="edge12" class="edge">
<title>Record Invoice Receipt&#45;&gt;Vendor creates invoice</title>
<path fill="none" stroke="#ff0000" stroke-width="0.5" stroke-dasharray="5,2" d="M229.06,-218.48C235.14,-248.39 247.6,-309.6 254.87,-345.35"/>
<polygon fill="#ff0000" stroke="#ff0000" stroke-width="0.5" points="251.38,-345.71 256.8,-354.81 258.23,-344.32 251.38,-345.71"/>
<text text-anchor="middle" x="249" y="-283.3" font-family="Times,serif" font-size="14.00">3</text>
</g>
<!-- Record Invoice Receipt&#45;&gt;Clear Invoice -->
<g id="edge7" class="edge">
<title>Record Invoice Receipt&#45;&gt;Clear Invoice</title>
<path fill="none" stroke="#ff0000" stroke-width="0.63" stroke-dasharray="5,2" d="M229.75,-181.8C232.58,-170.35 236.36,-155.06 239.61,-141.89"/>
<polygon fill="#ff0000" stroke="#ff0000" stroke-width="0.63" points="242.95,-142.95 241.95,-132.4 236.16,-141.27 242.95,-142.95"/>
<text text-anchor="middle" x="243.5" y="-152.8" font-family="Times,serif" font-size="14.00">33</text>
</g>
<!-- Record Invoice Receipt&#45;&gt;end_node -->
<g id="edge19" class="edge">
<title>Record Invoice Receipt&#45;&gt;end_node</title>
<path fill="none" stroke="#ff0000" stroke-width="0.5" stroke-dasharray="5,2" d="M207.15,-181.51C195.05,-168.76 180.07,-150.38 172.5,-131 162.95,-106.56 161.13,-76.71 161.46,-54.58"/>
<polygon fill="#ff0000" stroke="#ff0000" stroke-width="0.5" points="164.95,-54.96 161.76,-44.86 157.95,-54.75 164.95,-54.96"/>
<text text-anchor="middle" x="176" y="-109.3" font-family="Times,serif" font-size="14.00">3</text>
</g>
<!-- Clear Invoice&#45;&gt;Clear Invoice -->
<g id="edge11" class="edge">
<title>Clear Invoice&#45;&gt;Clear Invoice</title>
<path fill="none" stroke="#ff0000" stroke-width="0.52" stroke-dasharray="5,2" d="M304.81,-120.68C315.23,-119.68 322.5,-117.12 322.5,-113 322.5,-110.49 319.8,-108.56 315.33,-107.21"/>
<polygon fill="#ff0000" stroke="#ff0000" stroke-width="0.52" points="316.04,-103.78 305.58,-105.46 314.81,-110.67 316.04,-103.78"/>
<text text-anchor="middle" x="326" y="-109.3" font-family="Times,serif" font-size="14.00">6</text>
</g>
<!-- Clear Invoice&#45;&gt;end_node -->
<g id="edge18" class="edge">
<title>Clear Invoice&#45;&gt;end_node</title>
<path fill="none" stroke="#ff0000" stroke-width="0.65" stroke-dasharray="5,2" d="M230.5,-94.84C217.78,-81.2 199.84,-61.97 185.73,-46.84"/>
<polygon fill="#ff0000" stroke="#ff0000" stroke-width="0.65" points="188.39,-44.55 179.01,-39.63 183.27,-49.33 188.39,-44.55"/>
<text text-anchor="middle" x="219.5" y="-65.8" font-family="Times,serif" font-size="14.00">36</text>
</g>
<!-- Change Price&#45;&gt;Record Goods Receipt -->
<g id="edge15" class="edge">
<title>Change Price&#45;&gt;Record Goods Receipt</title>
<path fill="none" stroke="#ff0000" stroke-width="0.5" stroke-dasharray="5,2" d="M93,-409.68C92.32,-386.14 91.11,-343.78 90.3,-315.78"/>
<polygon fill="#ff0000" stroke="#ff0000" stroke-width="0.5" points="93.8,-315.76 90.01,-305.86 86.8,-315.96 93.8,-315.76"/>
<text text-anchor="middle" x="96" y="-370.3" font-family="Times,serif" font-size="14.00">2</text>
</g>
<!-- Change Quantity&#45;&gt;Vendor creates invoice -->
<g id="edge17" class="edge">
<title>Change Quantity&#45;&gt;Vendor creates invoice</title>
<path fill="none" stroke="#ff0000" stroke-width="0.5" stroke-dasharray="5,2" d="M260.5,-463.97C260.5,-447.53 260.5,-422.35 260.5,-402.97"/>
<polygon fill="#ff0000" stroke="#ff0000" stroke-width="0.5" points="264,-403.1 260.5,-393.1 257,-403.1 264,-403.1"/>
<text text-anchor="middle" x="264" y="-424.3" font-family="Times,serif" font-size="14.00">2</text>
</g>
</g>
</svg>
