<?xml version="1.0" encoding="UTF-8" standalone="no"?>
<!DOCTYPE svg PUBLIC "-//W3C//DTD SVG 1.1//EN"
 "http://www.w3.org/Graphics/SVG/1.1/DTD/svg11.dtd">
<!-- Generated by graphviz version 7.0.5 (0)
 -->
<!-- Title: dfg Pages: 1 -->
<svg width="879pt" height="922pt"
 viewBox="0.00 0.00 879.00 922.00" xmlns="http://www.w3.org/2000/svg" xmlns:xlink="http://www.w3.org/1999/xlink">
<g id="graph0" class="graph" transform="scale(1 1) rotate(0) translate(4 918)">
<title>dfg</title>
<polygon fill="white" stroke="none" points="-4,4 -4,-918 875,-918 875,4 -4,4"/>
<!-- start_node -->
<g id="node1" class="node">
<title>start_node</title>
<ellipse fill="none" stroke="black" cx="219" cy="-896" rx="18" ry="18"/>
<text text-anchor="start" x="214.5" y="-892.3" font-family="Times,serif" font-size="14.00">●</text>
</g>
<!-- Create Purchase Order Item -->
<g id="node2" class="node">
<title>Create Purchase Order Item</title>
<polygon fill="#fbfbff" stroke="black" points="316.5,-740 121.5,-740 121.5,-704 316.5,-704 316.5,-740"/>
<text text-anchor="middle" x="219" y="-718.3" font-family="Times,serif" font-size="14.00">Create Purchase Order Item (80)</text>
</g>
<!-- start_node&#45;&gt;Create Purchase Order Item -->
<g id="edge1" class="edge">
<title>start_node&#45;&gt;Create Purchase Order Item</title>
<path fill="none" stroke="#ff0000" stroke-width="0.65" stroke-dasharray="5,2" d="M216.73,-877.71C215.04,-863.99 212.89,-844.3 212,-827 211.18,-811.02 211.18,-806.98 212,-791 212.67,-777.89 214.07,-763.41 215.44,-751.19"/>
<polygon fill="#ff0000" stroke="#ff0000" stroke-width="0.65" points="218.92,-751.61 216.61,-741.27 211.97,-750.79 218.92,-751.61"/>
<text text-anchor="middle" x="219" y="-805.3" font-family="Times,serif" font-size="14.00">66</text>
</g>
<!-- Create Purchase Requisition Item -->
<g id="node3" class="node">
<title>Create Purchase Requisition Item</title>
<polygon fill="#fefeff" stroke="black" points="461,-827 235,-827 235,-791 461,-791 461,-827"/>
<text text-anchor="middle" x="348" y="-805.3" font-family="Times,serif" font-size="14.00">Create Purchase Requisition Item (14)</text>
</g>
<!-- start_node&#45;&gt;Create Purchase Requisition Item -->
<g id="edge2" class="edge">
<title>start_node&#45;&gt;Create Purchase Requisition Item</title>
<path fill="none" stroke="#ff0000" stroke-width="0.53" stroke-dasharray="5,2" d="M233.8,-885.25C252.98,-872.61 287.04,-850.17 312.99,-833.07"/>
<polygon fill="#ff0000" stroke="#ff0000" stroke-width="0.53" points="314.69,-836.14 321.12,-827.71 310.84,-830.29 314.69,-836.14"/>
<text text-anchor="middle" x="298" y="-848.8" font-family="Times,serif" font-size="14.00">14</text>
</g>
<!-- Vendor creates invoice -->
<g id="node4" class="node">
<title>Vendor creates invoice</title>
<polygon fill="#fafaff" stroke="black" points="485.5,-653 312.5,-653 312.5,-617 485.5,-617 485.5,-653"/>
<text text-anchor="middle" x="399" y="-631.3" font-family="Times,serif" font-size="14.00">Vendor creates invoice (109)</text>
</g>
<!-- Create Purchase Order Item&#45;&gt;Vendor creates invoice -->
<g id="edge3" class="edge">
<title>Create Purchase Order Item&#45;&gt;Vendor creates invoice</title>
<path fill="none" stroke="#ff0000" stroke-width="0.65" stroke-dasharray="5,2" d="M255.86,-703.59C283.77,-690.42 322.29,-672.22 352.35,-658.03"/>
<polygon fill="#ff0000" stroke="#ff0000" stroke-width="0.65" points="353.76,-661.24 361.31,-653.8 350.77,-654.91 353.76,-661.24"/>
<text text-anchor="middle" x="326" y="-674.8" font-family="Times,serif" font-size="14.00">63</text>
</g>
<!-- Record Goods Receipt -->
<g id="node5" class="node">
<title>Record Goods Receipt</title>
<polygon fill="#9b9bff" stroke="black" points="286.5,-479 107.5,-479 107.5,-443 286.5,-443 286.5,-479"/>
<text text-anchor="middle" x="197" y="-457.3" font-family="Times,serif" font-size="14.00">Record Goods Receipt (2430)</text>
</g>
<!-- Create Purchase Order Item&#45;&gt;Record Goods Receipt -->
<g id="edge18" class="edge">
<title>Create Purchase Order Item&#45;&gt;Record Goods Receipt</title>
<path fill="none" stroke="#ff0000" stroke-width="0.52" stroke-dasharray="5,2" d="M217.52,-703.6C213.78,-659.55 203.91,-543.32 199.36,-489.75"/>
<polygon fill="#ff0000" stroke="#ff0000" stroke-width="0.52" points="202.87,-489.77 198.54,-480.1 195.9,-490.36 202.87,-489.77"/>
<text text-anchor="middle" x="212.5" y="-587.8" font-family="Times,serif" font-size="14.00">8</text>
</g>
<!-- Change Price -->
<g id="node8" class="node">
<title>Change Price</title>
<polygon fill="#fefeff" stroke="black" points="129.5,-218 20.5,-218 20.5,-182 129.5,-182 129.5,-218"/>
<text text-anchor="middle" x="75" y="-196.3" font-family="Times,serif" font-size="14.00">Change Price (7)</text>
</g>
<!-- Create Purchase Order Item&#45;&gt;Change Price -->
<g id="edge14" class="edge">
<title>Create Purchase Order Item&#45;&gt;Change Price</title>
<path fill="none" stroke="#ff0000" stroke-width="0.51" stroke-dasharray="5,2" d="M130.87,-703.52C70.02,-688.83 0,-665.52 0,-636 0,-636 0,-636 0,-329.5 0,-289.12 27.97,-250.14 49.75,-225.91"/>
<polygon fill="#ff0000" stroke="#ff0000" stroke-width="0.51" points="52.07,-228.55 56.32,-218.84 46.94,-223.78 52.07,-228.55"/>
<text text-anchor="middle" x="3.5" y="-457.3" font-family="Times,serif" font-size="14.00">6</text>
</g>
<!-- Change Quantity -->
<g id="node9" class="node">
<title>Change Quantity</title>
<polygon fill="#fefeff" stroke="black" points="404.5,-392 269.5,-392 269.5,-356 404.5,-356 404.5,-392"/>
<text text-anchor="middle" x="337" y="-370.3" font-family="Times,serif" font-size="14.00">Change Quantity (10)</text>
</g>
<!-- Create Purchase Order Item&#45;&gt;Change Quantity -->
<g id="edge16" class="edge">
<title>Create Purchase Order Item&#45;&gt;Change Quantity</title>
<path fill="none" stroke="#ff0000" stroke-width="0.5" stroke-dasharray="5,2" d="M316.75,-716.42C474.67,-706.75 774.86,-678.18 840,-599 881.21,-548.91 735.92,-459.39 702,-443 586.51,-387.19 541.7,-415.55 415.41,-392.95"/>
<polygon fill="#ff0000" stroke="#ff0000" stroke-width="0.5" points="416.19,-389.54 405.72,-391.14 414.9,-396.42 416.19,-389.54"/>
<text text-anchor="middle" x="847.5" y="-544.3" font-family="Times,serif" font-size="14.00">3</text>
</g>
<!-- Create Purchase Requisition Item&#45;&gt;Create Purchase Order Item -->
<g id="edge8" class="edge">
<title>Create Purchase Requisition Item&#45;&gt;Create Purchase Order Item</title>
<path fill="none" stroke="#ff0000" stroke-width="0.53" stroke-dasharray="5,2" d="M321.58,-790.59C302.11,-777.76 275.41,-760.17 254.13,-746.15"/>
<polygon fill="#ff0000" stroke="#ff0000" stroke-width="0.53" points="256.33,-743.4 246.05,-740.82 252.48,-749.25 256.33,-743.4"/>
<text text-anchor="middle" x="298" y="-761.8" font-family="Times,serif" font-size="14.00">14</text>
</g>
<!-- Vendor creates invoice&#45;&gt;Vendor creates invoice -->
<g id="edge21" class="edge">
<title>Vendor creates invoice&#45;&gt;Vendor creates invoice</title>
<path fill="none" stroke="#ff0000" stroke-width="0.51" stroke-dasharray="5,2" d="M485.89,-642.06C496.53,-640.79 503.5,-638.44 503.5,-635 503.5,-632.85 500.78,-631.12 496.13,-629.82"/>
<polygon fill="#ff0000" stroke="#ff0000" stroke-width="0.51" points="497.12,-626.45 486.65,-628.08 495.85,-633.33 497.12,-626.45"/>
<text text-anchor="middle" x="507" y="-631.3" font-family="Times,serif" font-size="14.00">6</text>
</g>
<!-- Vendor creates invoice&#45;&gt;Record Goods Receipt -->
<g id="edge4" class="edge">
<title>Vendor creates invoice&#45;&gt;Record Goods Receipt</title>
<path fill="none" stroke="#ff0000" stroke-width="0.67" stroke-dasharray="5,2" d="M371.47,-616.57C363.41,-611.18 354.7,-605.05 347,-599 300.62,-562.54 250.81,-515.23 221.85,-486.82"/>
<polygon fill="#ff0000" stroke="#ff0000" stroke-width="0.67" points="224.56,-484.58 214.98,-480.05 219.64,-489.56 224.56,-484.58"/>
<text text-anchor="middle" x="313" y="-544.3" font-family="Times,serif" font-size="14.00">73</text>
</g>
<!-- Record Invoice Receipt -->
<g id="node6" class="node">
<title>Record Invoice Receipt</title>
<polygon fill="#fbfbff" stroke="black" points="593.5,-305 422.5,-305 422.5,-269 593.5,-269 593.5,-305"/>
<text text-anchor="middle" x="508" y="-283.3" font-family="Times,serif" font-size="14.00">Record Invoice Receipt (90)</text>
</g>
<!-- Vendor creates invoice&#45;&gt;Record Invoice Receipt -->
<g id="edge10" class="edge">
<title>Vendor creates invoice&#45;&gt;Record Invoice Receipt</title>
<path fill="none" stroke="#ff0000" stroke-width="0.53" stroke-dasharray="5,2" d="M485.76,-630.22C548.9,-625.99 627.89,-617.17 655,-599 676.34,-584.7 684,-574.69 684,-549 684,-549 684,-549 684,-373 684,-332.33 645.43,-311.11 604.4,-300.05"/>
<polygon fill="#ff0000" stroke="#ff0000" stroke-width="0.53" points="605.26,-296.65 594.71,-297.64 603.57,-303.45 605.26,-296.65"/>
<text text-anchor="middle" x="691" y="-457.3" font-family="Times,serif" font-size="14.00">13</text>
</g>
<!-- Clear Invoice -->
<g id="node7" class="node">
<title>Clear Invoice</title>
<polygon fill="#fafaff" stroke="black" points="431.5,-131 308.5,-131 308.5,-95 431.5,-95 431.5,-131"/>
<text text-anchor="middle" x="370" y="-109.3" font-family="Times,serif" font-size="14.00">Clear Invoice (104)</text>
</g>
<!-- Vendor creates invoice&#45;&gt;Clear Invoice -->
<g id="edge13" class="edge">
<title>Vendor creates invoice&#45;&gt;Clear Invoice</title>
<path fill="none" stroke="#ff0000" stroke-width="0.52" stroke-dasharray="5,2" d="M485.66,-630.79C586.84,-626.26 743.12,-616.52 764,-599 803.56,-565.8 826,-426.65 826,-375 826,-375 826,-375 826,-199 826,-174.35 822.32,-162.96 802,-149 773.13,-129.16 557.75,-119.67 442.42,-115.96"/>
<polygon fill="#ff0000" stroke="#ff0000" stroke-width="0.52" points="442.81,-112.47 432.7,-115.66 442.58,-119.47 442.81,-112.47"/>
<text text-anchor="middle" x="829.5" y="-370.3" font-family="Times,serif" font-size="14.00">8</text>
</g>
<!-- Vendor creates invoice&#45;&gt;Change Quantity -->
<g id="edge22" class="edge">
<title>Vendor creates invoice&#45;&gt;Change Quantity</title>
<path fill="none" stroke="#ff0000" stroke-width="0.5" stroke-dasharray="5,2" d="M394.84,-616.6C384.29,-572.55 356.47,-456.32 343.64,-402.75"/>
<polygon fill="#ff0000" stroke="#ff0000" stroke-width="0.5" points="347.06,-401.97 341.32,-393.06 340.25,-403.6 347.06,-401.97"/>
<text text-anchor="middle" x="372.5" y="-500.8" font-family="Times,serif" font-size="14.00">3</text>
</g>
<!-- Vendor creates debit memo -->
<g id="node11" class="node">
<title>Vendor creates debit memo</title>
<polygon fill="#fefeff" stroke="black" points="613,-566 427,-566 427,-530 613,-530 613,-566"/>
<text text-anchor="middle" x="520" y="-544.3" font-family="Times,serif" font-size="14.00">Vendor creates debit memo (5)</text>
</g>
<!-- Vendor creates invoice&#45;&gt;Vendor creates debit memo -->
<g id="edge25" class="edge">
<title>Vendor creates invoice&#45;&gt;Vendor creates debit memo</title>
<path fill="none" stroke="#ff0000" stroke-width="0.51" stroke-dasharray="5,2" d="M423.78,-616.59C441.89,-603.87 466.64,-586.48 486.51,-572.52"/>
<polygon fill="#ff0000" stroke="#ff0000" stroke-width="0.51" points="488.45,-575.44 494.62,-566.83 484.43,-569.71 488.45,-575.44"/>
<text text-anchor="middle" x="469.5" y="-587.8" font-family="Times,serif" font-size="14.00">5</text>
</g>
<!-- Remove Payment Block -->
<g id="node13" class="node">
<title>Remove Payment Block</title>
<polygon fill="#fefeff" stroke="black" points="427,-40 257,-40 257,-4 427,-4 427,-40"/>
<text text-anchor="middle" x="342" y="-18.3" font-family="Times,serif" font-size="14.00">Remove Payment Block (7)</text>
</g>
<!-- Vendor creates invoice&#45;&gt;Remove Payment Block -->
<g id="edge40" class="edge">
<title>Vendor creates invoice&#45;&gt;Remove Payment Block</title>
<path fill="none" stroke="#ff0000" stroke-width="0.5" stroke-dasharray="5,2" d="M312.03,-617.74C238.65,-598.7 139.18,-558.95 98,-479 90.67,-464.78 94.53,-458.62 98,-443 118.26,-351.77 213.19,-131.19 276,-62 281.47,-55.97 288.1,-50.6 295.01,-45.91"/>
<polygon fill="#ff0000" stroke="#ff0000" stroke-width="0.5" points="296.62,-49.03 303.22,-40.74 292.89,-43.11 296.62,-49.03"/>
<text text-anchor="middle" x="141.5" y="-326.8" font-family="Times,serif" font-size="14.00">1</text>
</g>
<!-- Record Goods Receipt&#45;&gt;Vendor creates invoice -->
<g id="edge9" class="edge">
<title>Record Goods Receipt&#45;&gt;Vendor creates invoice</title>
<path fill="none" stroke="#ff0000" stroke-width="0.56" stroke-dasharray="5,2" d="M201.87,-479.28C209.03,-501.88 224.39,-541.47 250,-566 271.67,-586.75 300.79,-601.95 327.54,-612.65"/>
<polygon fill="#ff0000" stroke="#ff0000" stroke-width="0.56" points="326.27,-615.91 336.86,-616.23 328.78,-609.38 326.27,-615.91"/>
<text text-anchor="middle" x="257" y="-544.3" font-family="Times,serif" font-size="14.00">26</text>
</g>
<!-- Record Goods Receipt&#45;&gt;Record Goods Receipt -->
<g id="edge5" class="edge">
<title>Record Goods Receipt&#45;&gt;Record Goods Receipt</title>
<path fill="none" stroke="#000000" stroke-width="6" d="M286.78,-468.01C297.5,-466.73 304.5,-464.4 304.5,-461 304.5,-459.94 303.82,-458.98 302.55,-458.13"/>
<polygon fill="#000000" stroke="#000000" stroke-width="6" points="304.03,-453.09 293.03,-455.63 301.37,-463.24 304.03,-453.09"/>
<text text-anchor="middle" x="318.5" y="-457.3" font-family="Times,serif" font-size="14.00">2338</text>
</g>
<!-- Record Goods Receipt&#45;&gt;Record Invoice Receipt -->
<g id="edge6" class="edge">
<title>Record Goods Receipt&#45;&gt;Record Invoice Receipt</title>
<path fill="none" stroke="#ff0000" stroke-width="0.63" stroke-dasharray="5,2" d="M286.96,-443.74C328.06,-433.42 375.94,-417.12 414,-392 445.56,-371.17 473.44,-337.31 490.48,-313.92"/>
<polygon fill="#ff0000" stroke="#ff0000" stroke-width="0.63" points="493.17,-316.17 496.11,-305.99 487.47,-312.11 493.17,-316.17"/>
<text text-anchor="middle" x="461" y="-370.3" font-family="Times,serif" font-size="14.00">58</text>
</g>
<!-- Record Goods Receipt&#45;&gt;Clear Invoice -->
<g id="edge37" class="edge">
<title>Record Goods Receipt&#45;&gt;Clear Invoice</title>
<path fill="none" stroke="#ff0000" stroke-width="0.5" stroke-dasharray="5,2" d="M193.82,-442.65C188.29,-407.85 179.92,-327.82 207,-269 233.8,-210.79 293.21,-163.52 332.42,-137.08"/>
<polygon fill="#ff0000" stroke="#ff0000" stroke-width="0.5" points="333.89,-140.3 340.31,-131.87 330.03,-134.46 333.89,-140.3"/>
<text text-anchor="middle" x="210.5" y="-283.3" font-family="Times,serif" font-size="14.00">3</text>
</g>
<!-- Record Goods Receipt&#45;&gt;Change Quantity -->
<g id="edge34" class="edge">
<title>Record Goods Receipt&#45;&gt;Change Quantity</title>
<path fill="none" stroke="#ff0000" stroke-width="0.5" stroke-dasharray="5,2" d="M255.56,-442.63C267.46,-437.84 279.52,-431.99 290,-425 300.07,-418.29 309.54,-409.03 317.31,-400.31"/>
<polygon fill="#ff0000" stroke="#ff0000" stroke-width="0.5" points="319.89,-402.68 323.71,-392.79 314.56,-398.14 319.89,-402.68"/>
<text text-anchor="middle" x="310.5" y="-413.8" font-family="Times,serif" font-size="14.00">3</text>
</g>
<!-- end_node -->
<g id="node15" class="node">
<title>end_node</title>
<ellipse fill="none" stroke="black" cx="217" cy="-22" rx="18" ry="18"/>
<ellipse fill="none" stroke="black" cx="217" cy="-22" rx="22" ry="22"/>
<text text-anchor="start" x="212.5" y="-18.3" font-family="Times,serif" font-size="14.00">■</text>
</g>
<!-- Record Goods Receipt&#45;&gt;end_node -->
<g id="edge49" class="edge">
<title>Record Goods Receipt&#45;&gt;end_node</title>
<path fill="none" stroke="#ff0000" stroke-width="0.5" stroke-dasharray="5,2" d="M169.93,-442.68C108.69,-401.14 -31.95,-291.16 11,-182 37.93,-113.54 64,-103.12 125,-62 143.85,-49.29 167.5,-39.38 186.1,-32.73"/>
<polygon fill="#ff0000" stroke="#ff0000" stroke-width="0.5" points="187.09,-36.09 195.41,-29.53 184.81,-29.47 187.09,-36.09"/>
<text text-anchor="middle" x="9.5" y="-239.8" font-family="Times,serif" font-size="14.00">2</text>
</g>
<!-- Record Invoice Receipt&#45;&gt;Vendor creates invoice -->
<g id="edge12" class="edge">
<title>Record Invoice Receipt&#45;&gt;Vendor creates invoice</title>
<path fill="none" stroke="#ff0000" stroke-width="0.51" stroke-dasharray="5,2" d="M577.62,-305.39C609.8,-318.02 641,-339.02 641,-373 641,-549 641,-549 641,-549 641,-581.3 563.3,-604.28 495.96,-618.14"/>
<polygon fill="#ff0000" stroke="#ff0000" stroke-width="0.51" points="495.56,-614.65 486.44,-620.05 496.93,-621.52 495.56,-614.65"/>
<text text-anchor="middle" x="644.5" y="-457.3" font-family="Times,serif" font-size="14.00">5</text>
</g>
<!-- Record Invoice Receipt&#45;&gt;Record Invoice Receipt -->
<g id="edge24" class="edge">
<title>Record Invoice Receipt&#45;&gt;Record Invoice Receipt</title>
<path fill="none" stroke="#ff0000" stroke-width="0.52" stroke-dasharray="5,2" d="M593.66,-294.1C604.42,-292.85 611.5,-290.48 611.5,-287 611.5,-284.82 608.73,-283.08 604.03,-281.78"/>
<polygon fill="#ff0000" stroke="#ff0000" stroke-width="0.52" points="604.9,-278.38 594.44,-280.04 603.65,-285.26 604.9,-278.38"/>
<text text-anchor="middle" x="615" y="-283.3" font-family="Times,serif" font-size="14.00">9</text>
</g>
<!-- Record Invoice Receipt&#45;&gt;Clear Invoice -->
<g id="edge7" class="edge">
<title>Record Invoice Receipt&#45;&gt;Clear Invoice</title>
<path fill="none" stroke="#ff0000" stroke-width="0.65" stroke-dasharray="5,2" d="M422.21,-269.28C390.32,-262.53 360.29,-255.34 354,-251 327.49,-232.74 323.89,-213.15 332,-182 335.82,-167.34 343.57,-152.48 351.09,-140.41"/>
<polygon fill="#ff0000" stroke="#ff0000" stroke-width="0.65" points="353.91,-142.49 356.45,-132.21 348.05,-138.67 353.91,-142.49"/>
<text text-anchor="middle" x="339" y="-196.3" font-family="Times,serif" font-size="14.00">63</text>
</g>
<!-- Record Invoice Receipt&#45;&gt;Change Price -->
<g id="edge42" class="edge">
<title>Record Invoice Receipt&#45;&gt;Change Price</title>
<path fill="none" stroke="#ff0000" stroke-width="0.5" stroke-dasharray="5,2" d="M422.24,-270.16C419.46,-269.76 416.71,-269.37 414,-269 325.11,-257.01 300.56,-270.44 213,-251 182.91,-244.32 150.45,-232.79 124.58,-222.49"/>
<polygon fill="#ff0000" stroke="#ff0000" stroke-width="0.5" points="125.93,-219.26 115.34,-218.75 123.3,-225.75 125.93,-219.26"/>
<text text-anchor="middle" x="216.5" y="-239.8" font-family="Times,serif" font-size="14.00">1</text>
</g>
<!-- Record Subsequent Invoice -->
<g id="node10" class="node">
<title>Record Subsequent Invoice</title>
<polygon fill="#ffffff" stroke="black" points="578.5,-218 393.5,-218 393.5,-182 578.5,-182 578.5,-218"/>
<text text-anchor="middle" x="486" y="-196.3" font-family="Times,serif" font-size="14.00">Record Subsequent Invoice (1)</text>
</g>
<!-- Record Invoice Receipt&#45;&gt;Record Subsequent Invoice -->
<g id="edge19" class="edge">
<title>Record Invoice Receipt&#45;&gt;Record Subsequent Invoice</title>
<path fill="none" stroke="#ff0000" stroke-width="0.5" stroke-dasharray="5,2" d="M503.55,-268.8C500.56,-257.24 496.55,-241.75 493.12,-228.5"/>
<polygon fill="#ff0000" stroke="#ff0000" stroke-width="0.5" points="496.6,-228 490.71,-219.2 489.83,-229.76 496.6,-228"/>
<text text-anchor="middle" x="501.5" y="-239.8" font-family="Times,serif" font-size="14.00">1</text>
</g>
<!-- Cancel Invoice Receipt -->
<g id="node12" class="node">
<title>Cancel Invoice Receipt</title>
<polygon fill="#fefeff" stroke="black" points="759.5,-218 596.5,-218 596.5,-182 759.5,-182 759.5,-218"/>
<text text-anchor="middle" x="678" y="-196.3" font-family="Times,serif" font-size="14.00">Cancel Invoice Receipt (2)</text>
</g>
<!-- Record Invoice Receipt&#45;&gt;Cancel Invoice Receipt -->
<g id="edge27" class="edge">
<title>Record Invoice Receipt&#45;&gt;Cancel Invoice Receipt</title>
<path fill="none" stroke="#ff0000" stroke-width="0.5" stroke-dasharray="5,2" d="M563.06,-268.54C576.71,-263.51 591.12,-257.57 604,-251 618.81,-243.44 634.2,-233.44 647.08,-224.37"/>
<polygon fill="#ff0000" stroke="#ff0000" stroke-width="0.5" points="648.87,-227.4 654.95,-218.72 644.78,-221.71 648.87,-227.4"/>
<text text-anchor="middle" x="632.5" y="-239.8" font-family="Times,serif" font-size="14.00">2</text>
</g>
<!-- Record Invoice Receipt&#45;&gt;Remove Payment Block -->
<g id="edge30" class="edge">
<title>Record Invoice Receipt&#45;&gt;Remove Payment Block</title>
<path fill="none" stroke="#ff0000" stroke-width="0.51" stroke-dasharray="5,2" d="M422.11,-269.82C378.73,-261.47 334.82,-252.69 333,-251 269.66,-192 245.93,-138.73 286,-62 288.92,-56.42 293.04,-51.47 297.74,-47.14"/>
<polygon fill="#ff0000" stroke="#ff0000" stroke-width="0.51" points="299.89,-49.9 305.48,-40.9 295.5,-44.44 299.89,-49.9"/>
<text text-anchor="middle" x="274.5" y="-152.8" font-family="Times,serif" font-size="14.00">4</text>
</g>
<!-- Record Invoice Receipt&#45;&gt;end_node -->
<g id="edge48" class="edge">
<title>Record Invoice Receipt&#45;&gt;end_node</title>
<path fill="none" stroke="#ff0000" stroke-width="0.51" stroke-dasharray="5,2" d="M422.19,-270.47C419.43,-269.98 416.69,-269.48 414,-269 349.23,-257.37 311.54,-272.73 275,-218 241.03,-167.12 226.47,-95.82 220.61,-55.03"/>
<polygon fill="#ff0000" stroke="#ff0000" stroke-width="0.51" points="224.09,-54.58 219.29,-45.13 217.15,-55.51 224.09,-54.58"/>
<text text-anchor="middle" x="251.5" y="-152.8" font-family="Times,serif" font-size="14.00">5</text>
</g>
<!-- Clear Invoice&#45;&gt;Vendor creates invoice -->
<g id="edge38" class="edge">
<title>Clear Invoice&#45;&gt;Vendor creates invoice</title>
<path fill="none" stroke="#ff0000" stroke-width="0.5" stroke-dasharray="5,2" d="M431.69,-115.2C532.74,-118.62 726.57,-131.72 769,-182 830.17,-254.48 756.99,-546.5 678,-599 648.8,-618.41 564.55,-627.05 496.2,-630.91"/>
<polygon fill="#ff0000" stroke="#ff0000" stroke-width="0.5" points="496.37,-627.39 486.58,-631.42 496.75,-634.38 496.37,-627.39"/>
<text text-anchor="middle" x="787.5" y="-370.3" font-family="Times,serif" font-size="14.00">3</text>
</g>
<!-- Clear Invoice&#45;&gt;Record Invoice Receipt -->
<g id="edge29" class="edge">
<title>Clear Invoice&#45;&gt;Record Invoice Receipt</title>
<path fill="none" stroke="#ff0000" stroke-width="0.51" stroke-dasharray="5,2" d="M366.54,-131.46C363.17,-153.54 360.76,-191.84 378,-218 391.86,-239.03 414.41,-253.95 436.86,-264.36"/>
<polygon fill="#ff0000" stroke="#ff0000" stroke-width="0.51" points="435.18,-267.44 445.75,-268.24 437.98,-261.03 435.18,-267.44"/>
<text text-anchor="middle" x="381.5" y="-196.3" font-family="Times,serif" font-size="14.00">5</text>
</g>
<!-- Clear Invoice&#45;&gt;Clear Invoice -->
<g id="edge11" class="edge">
<title>Clear Invoice&#45;&gt;Clear Invoice</title>
<path fill="none" stroke="#ff0000" stroke-width="0.55" stroke-dasharray="5,2" d="M432,-120.58C442.35,-119.52 449.5,-116.99 449.5,-113 449.5,-110.57 446.85,-108.68 442.43,-107.33"/>
<polygon fill="#ff0000" stroke="#ff0000" stroke-width="0.55" points="443.28,-103.93 432.82,-105.57 442.02,-110.82 443.28,-103.93"/>
<text text-anchor="middle" x="456.5" y="-109.3" font-family="Times,serif" font-size="14.00">22</text>
</g>
<!-- Clear Invoice&#45;&gt;Remove Payment Block -->
<g id="edge45" class="edge">
<title>Clear Invoice&#45;&gt;Remove Payment Block</title>
<path fill="none" stroke="#ff0000" stroke-width="0.5" stroke-dasharray="5,2" d="M354.65,-94.57C350.81,-89.27 347.18,-83.2 345,-77 342.1,-68.75 340.91,-59.35 340.58,-50.73"/>
<polygon fill="#ff0000" stroke="#ff0000" stroke-width="0.5" points="344.08,-50.76 340.55,-40.77 337.08,-50.78 344.08,-50.76"/>
<text text-anchor="middle" x="348.5" y="-65.8" font-family="Times,serif" font-size="14.00">1</text>
</g>
<!-- Clear Invoice&#45;&gt;end_node -->
<g id="edge47" class="edge">
<title>Clear Invoice&#45;&gt;end_node</title>
<path fill="none" stroke="#ff0000" stroke-width="0.67" stroke-dasharray="5,2" d="M336.93,-94.58C312.13,-81.27 277.53,-62.18 248,-44 246.65,-43.17 245.28,-42.31 243.9,-41.42"/>
<polygon fill="#ff0000" stroke="#ff0000" stroke-width="0.67" points="245.98,-38.61 235.7,-36.04 242.14,-44.46 245.98,-38.61"/>
<text text-anchor="middle" x="311" y="-65.8" font-family="Times,serif" font-size="14.00">73</text>
</g>
<!-- Change Price&#45;&gt;Vendor creates invoice -->
<g id="edge44" class="edge">
<title>Change Price&#45;&gt;Vendor creates invoice</title>
<path fill="none" stroke="#ff0000" stroke-width="0.5" stroke-dasharray="5,2" d="M62.47,-218.28C51.74,-234.82 38,-260.89 38,-286 38,-418.5 38,-418.5 38,-418.5 38,-503.32 31.85,-548.5 100,-599 104.13,-602.06 215.92,-614.56 301.6,-623.75"/>
<polygon fill="#ff0000" stroke="#ff0000" stroke-width="0.5" points="301.11,-627.22 311.42,-624.8 301.85,-620.26 301.11,-627.22"/>
<text text-anchor="middle" x="41.5" y="-413.8" font-family="Times,serif" font-size="14.00">2</text>
</g>
<!-- Change Price&#45;&gt;Record Goods Receipt -->
<g id="edge15" class="edge">
<title>Change Price&#45;&gt;Record Goods Receipt</title>
<path fill="none" stroke="#ff0000" stroke-width="0.51" stroke-dasharray="5,2" d="M79.05,-218.41C85.57,-244.97 99.64,-296.86 119,-338 135.51,-373.1 160.46,-410.2 177.67,-434.15"/>
<polygon fill="#ff0000" stroke="#ff0000" stroke-width="0.51" points="174.69,-436 183.4,-442.03 180.35,-431.88 174.69,-436"/>
<text text-anchor="middle" x="122.5" y="-326.8" font-family="Times,serif" font-size="14.00">4</text>
</g>
<!-- Change Price&#45;&gt;Remove Payment Block -->
<g id="edge43" class="edge">
<title>Change Price&#45;&gt;Remove Payment Block</title>
<path fill="none" stroke="#ff0000" stroke-width="0.5" stroke-dasharray="5,2" d="M78.4,-181.92C85.22,-152.36 103.56,-91.97 144,-62 181.69,-34.07 201.98,-53.12 248,-44 250.18,-43.57 252.38,-43.13 254.61,-42.67"/>
<polygon fill="#ff0000" stroke="#ff0000" stroke-width="0.5" points="255.29,-46.1 264.37,-40.65 253.87,-39.25 255.29,-46.1"/>
<text text-anchor="middle" x="117.5" y="-109.3" font-family="Times,serif" font-size="14.00">1</text>
</g>
<!-- Change Quantity&#45;&gt;Vendor creates invoice -->
<g id="edge17" class="edge">
<title>Change Quantity&#45;&gt;Vendor creates invoice</title>
<path fill="none" stroke="#ff0000" stroke-width="0.5" stroke-dasharray="5,2" d="M361.22,-392.42C366.6,-397.48 371.69,-403.43 375,-410 407.37,-474.27 405.61,-561.86 402.06,-606.05"/>
<polygon fill="#ff0000" stroke="#ff0000" stroke-width="0.5" points="398.59,-605.53 401.18,-615.8 405.56,-606.16 398.59,-605.53"/>
<text text-anchor="middle" x="404.5" y="-500.8" font-family="Times,serif" font-size="14.00">3</text>
</g>
<!-- Change Quantity&#45;&gt;Record Goods Receipt -->
<g id="edge23" class="edge">
<title>Change Quantity&#45;&gt;Record Goods Receipt</title>
<path fill="none" stroke="#ff0000" stroke-width="0.51" stroke-dasharray="5,2" d="M308.96,-392.48C293.4,-402.13 273.67,-414.3 256,-425 249.42,-428.99 242.4,-433.19 235.58,-437.25"/>
<polygon fill="#ff0000" stroke="#ff0000" stroke-width="0.51" points="233.94,-434.15 227.13,-442.26 237.52,-440.17 233.94,-434.15"/>
<text text-anchor="middle" x="284.5" y="-413.8" font-family="Times,serif" font-size="14.00">4</text>
</g>
<!-- Change Quantity&#45;&gt;Record Invoice Receipt -->
<g id="edge46" class="edge">
<title>Change Quantity&#45;&gt;Record Invoice Receipt</title>
<path fill="none" stroke="#ff0000" stroke-width="0.5" stroke-dasharray="5,2" d="M363.29,-355.65C379.31,-345.46 400.41,-332.72 420,-323 429.6,-318.24 440.02,-313.63 450.21,-309.41"/>
<polygon fill="#ff0000" stroke="#ff0000" stroke-width="0.5" points="451.23,-312.78 459.18,-305.78 448.6,-306.29 451.23,-312.78"/>
<text text-anchor="middle" x="423.5" y="-326.8" font-family="Times,serif" font-size="14.00">1</text>
</g>
<!-- Change Delivery Indicator -->
<g id="node14" class="node">
<title>Change Delivery Indicator</title>
<polygon fill="#fefeff" stroke="black" points="404.5,-305 223.5,-305 223.5,-269 404.5,-269 404.5,-305"/>
<text text-anchor="middle" x="314" y="-283.3" font-family="Times,serif" font-size="14.00">Change Delivery Indicator (2)</text>
</g>
<!-- Change Quantity&#45;&gt;Change Delivery Indicator -->
<g id="edge35" class="edge">
<title>Change Quantity&#45;&gt;Change Delivery Indicator</title>
<path fill="none" stroke="#ff0000" stroke-width="0.5" stroke-dasharray="5,2" d="M332.35,-355.8C329.22,-344.24 325.03,-328.75 321.44,-315.5"/>
<polygon fill="#ff0000" stroke="#ff0000" stroke-width="0.5" points="324.92,-314.94 318.93,-306.2 318.16,-316.77 324.92,-314.94"/>
<text text-anchor="middle" x="329.5" y="-326.8" font-family="Times,serif" font-size="14.00">2</text>
</g>
<!-- Record Subsequent Invoice&#45;&gt;Clear Invoice -->
<g id="edge20" class="edge">
<title>Record Subsequent Invoice&#45;&gt;Clear Invoice</title>
<path fill="none" stroke="#ff0000" stroke-width="0.5" stroke-dasharray="5,2" d="M462.25,-181.59C444.96,-168.93 421.36,-151.64 402.36,-137.71"/>
<polygon fill="#ff0000" stroke="#ff0000" stroke-width="0.5" points="404.47,-134.92 394.33,-131.83 400.33,-140.56 404.47,-134.92"/>
<text text-anchor="middle" x="437.5" y="-152.8" font-family="Times,serif" font-size="14.00">1</text>
</g>
<!-- Vendor creates debit memo&#45;&gt;Record Goods Receipt -->
<g id="edge26" class="edge">
<title>Vendor creates debit memo&#45;&gt;Record Goods Receipt</title>
<path fill="none" stroke="#ff0000" stroke-width="0.5" stroke-dasharray="5,2" d="M426.53,-532.84C396.13,-527.38 362.4,-520.39 332,-512 303.84,-504.22 273.25,-493.12 248.32,-483.36"/>
<polygon fill="#ff0000" stroke="#ff0000" stroke-width="0.5" points="249.65,-480.12 239.06,-479.69 247.07,-486.63 249.65,-480.12"/>
<text text-anchor="middle" x="335.5" y="-500.8" font-family="Times,serif" font-size="14.00">2</text>
</g>
<!-- Vendor creates debit memo&#45;&gt;Record Invoice Receipt -->
<g id="edge32" class="edge">
<title>Vendor creates debit memo&#45;&gt;Record Invoice Receipt</title>
<path fill="none" stroke="#ff0000" stroke-width="0.5" stroke-dasharray="5,2" d="M519.19,-529.6C517.15,-485.55 511.77,-369.32 509.29,-315.75"/>
<polygon fill="#ff0000" stroke="#ff0000" stroke-width="0.5" points="512.8,-315.91 508.84,-306.08 505.8,-316.23 512.8,-315.91"/>
<text text-anchor="middle" x="517.5" y="-413.8" font-family="Times,serif" font-size="14.00">3</text>
</g>
<!-- Cancel Invoice Receipt&#45;&gt;Record Invoice Receipt -->
<g id="edge33" class="edge">
<title>Cancel Invoice Receipt&#45;&gt;Record Invoice Receipt</title>
<path fill="none" stroke="#ff0000" stroke-width="0.5" stroke-dasharray="5,2" d="M634.6,-218.44C622.02,-223.79 608.34,-229.88 596,-236 579.18,-244.33 561.07,-254.42 545.68,-263.34"/>
<polygon fill="#ff0000" stroke="#ff0000" stroke-width="0.5" points="544.01,-260.27 537.14,-268.34 547.54,-266.31 544.01,-260.27"/>
<text text-anchor="middle" x="599.5" y="-239.8" font-family="Times,serif" font-size="14.00">1</text>
</g>
<!-- Cancel Invoice Receipt&#45;&gt;Clear Invoice -->
<g id="edge28" class="edge">
<title>Cancel Invoice Receipt&#45;&gt;Clear Invoice</title>
<path fill="none" stroke="#ff0000" stroke-width="0.5" stroke-dasharray="5,2" d="M614.93,-181.59C564.77,-167.75 494.56,-148.38 442.17,-133.92"/>
<polygon fill="#ff0000" stroke="#ff0000" stroke-width="0.5" points="443.24,-130.58 432.66,-131.29 441.37,-137.33 443.24,-130.58"/>
<text text-anchor="middle" x="545.5" y="-152.8" font-family="Times,serif" font-size="14.00">1</text>
</g>
<!-- Remove Payment Block&#45;&gt;Vendor creates invoice -->
<g id="edge41" class="edge">
<title>Remove Payment Block&#45;&gt;Vendor creates invoice</title>
<path fill="none" stroke="#ff0000" stroke-width="0.5" stroke-dasharray="5,2" d="M427.32,-28.92C575.32,-40.35 864,-68.25 864,-112 864,-418.5 864,-418.5 864,-418.5 864,-454.68 808.94,-584.51 784,-599 736.76,-626.45 593.87,-633.14 496.12,-634.38"/>
<polygon fill="#ff0000" stroke="#ff0000" stroke-width="0.5" points="496.34,-630.87 486.37,-634.48 496.41,-637.87 496.34,-630.87"/>
<text text-anchor="middle" x="867.5" y="-326.8" font-family="Times,serif" font-size="14.00">1</text>
</g>
<!-- Remove Payment Block&#45;&gt;Clear Invoice -->
<g id="edge31" class="edge">
<title>Remove Payment Block&#45;&gt;Clear Invoice</title>
<path fill="none" stroke="#ff0000" stroke-width="0.51" stroke-dasharray="5,2" d="M347.48,-40.41C351.46,-53.07 356.93,-70.46 361.48,-84.93"/>
<polygon fill="#ff0000" stroke="#ff0000" stroke-width="0.51" points="358.03,-85.61 364.37,-94.1 364.71,-83.51 358.03,-85.61"/>
<text text-anchor="middle" x="361.5" y="-65.8" font-family="Times,serif" font-size="14.00">6</text>
</g>
<!-- Change Delivery Indicator&#45;&gt;Record Goods Receipt -->
<g id="edge36" class="edge">
<title>Change Delivery Indicator&#45;&gt;Record Goods Receipt</title>
<path fill="none" stroke="#ff0000" stroke-width="0.5" stroke-dasharray="5,2" d="M296.19,-305.48C283.3,-318.67 265.95,-337.57 253,-356 235.59,-380.77 219.64,-411.55 209.25,-433.18"/>
<polygon fill="#ff0000" stroke="#ff0000" stroke-width="0.5" points="206.18,-431.49 205.08,-442.02 212.51,-434.48 206.18,-431.49"/>
<text text-anchor="middle" x="256.5" y="-370.3" font-family="Times,serif" font-size="14.00">1</text>
</g>
<!-- Change Delivery Indicator&#45;&gt;Change Quantity -->
<g id="edge39" class="edge">
<title>Change Delivery Indicator&#45;&gt;Change Quantity</title>
<path fill="none" stroke="#ff0000" stroke-width="0.5" stroke-dasharray="5,2" d="M311.03,-305.04C309.96,-314.88 309.71,-327.38 313,-338 313.9,-340.9 315.13,-343.78 316.57,-346.56"/>
<polygon fill="#ff0000" stroke="#ff0000" stroke-width="0.5" points="313.46,-348.19 321.64,-354.92 319.44,-344.55 313.46,-348.19"/>
<text text-anchor="middle" x="316.5" y="-326.8" font-family="Times,serif" font-size="14.00">1</text>
</g>
</g>
</svg>
