<?xml version="1.0" encoding="UTF-8" standalone="no"?>
<!DOCTYPE svg PUBLIC "-//W3C//DTD SVG 1.1//EN"
 "http://www.w3.org/Graphics/SVG/1.1/DTD/svg11.dtd">
<!-- Generated by graphviz version 7.0.5 (0)
 -->
<!-- Title: dfg Pages: 1 -->
<svg width="714pt" height="1009pt"
 viewBox="0.00 0.00 714.00 1009.00" xmlns="http://www.w3.org/2000/svg" xmlns:xlink="http://www.w3.org/1999/xlink">
<g id="graph0" class="graph" transform="scale(1 1) rotate(0) translate(4 1005)">
<title>dfg</title>
<polygon fill="white" stroke="none" points="-4,4 -4,-1005 710,-1005 710,4 -4,4"/>
<!-- start_node -->
<g id="node1" class="node">
<title>start_node</title>
<ellipse fill="none" stroke="black" cx="136" cy="-983" rx="18" ry="18"/>
<text text-anchor="start" x="131.5" y="-979.3" font-family="Times,serif" font-size="14.00">●</text>
</g>
<!-- Create Purchase Order Item -->
<g id="node2" class="node">
<title>Create Purchase Order Item</title>
<polygon fill="#f9f9ff" stroke="black" points="357.5,-914 148.5,-914 148.5,-878 357.5,-878 357.5,-914"/>
<text text-anchor="middle" x="253" y="-892.3" font-family="Times,serif" font-size="14.00">Create Purchase Order Item (1001)</text>
</g>
<!-- start_node&#45;&gt;Create Purchase Order Item -->
<g id="edge1" class="edge">
<title>start_node&#45;&gt;Create Purchase Order Item</title>
<path fill="none" stroke="#000000" stroke-width="0.83" d="M150.35,-971.58C167.62,-959.03 197.16,-937.57 220.13,-920.88"/>
<polygon fill="#000000" stroke="#000000" stroke-width="0.83" points="222.15,-923.74 228.19,-915.03 218.04,-918.07 222.15,-923.74"/>
<text text-anchor="middle" x="211.5" y="-935.8" font-family="Times,serif" font-size="14.00">970</text>
</g>
<!-- Vendor creates invoice -->
<g id="node3" class="node">
<title>Vendor creates invoice</title>
<polygon fill="#fdfdff" stroke="black" points="206.5,-740 33.5,-740 33.5,-704 206.5,-704 206.5,-740"/>
<text text-anchor="middle" x="120" y="-718.3" font-family="Times,serif" font-size="14.00">Vendor creates invoice (200)</text>
</g>
<!-- start_node&#45;&gt;Vendor creates invoice -->
<g id="edge2" class="edge">
<title>start_node&#45;&gt;Vendor creates invoice</title>
<path fill="none" stroke="#ff0000" stroke-width="0.51" stroke-dasharray="5,2" d="M134.93,-964.6C132.2,-920.55 125.02,-804.32 121.71,-750.75"/>
<polygon fill="#ff0000" stroke="#ff0000" stroke-width="0.51" points="125.23,-750.86 121.12,-741.09 118.24,-751.29 125.23,-750.86"/>
<text text-anchor="middle" x="136" y="-848.8" font-family="Times,serif" font-size="14.00">31</text>
</g>
<!-- Record Service Entry Sheet -->
<g id="node4" class="node">
<title>Record Service Entry Sheet</title>
<polygon fill="#9b9bff" stroke="black" points="551,-827 337,-827 337,-791 551,-791 551,-827"/>
<text text-anchor="middle" x="444" y="-805.3" font-family="Times,serif" font-size="14.00">Record Service Entry Sheet (19242)</text>
</g>
<!-- Create Purchase Order Item&#45;&gt;Record Service Entry Sheet -->
<g id="edge3" class="edge">
<title>Create Purchase Order Item&#45;&gt;Record Service Entry Sheet</title>
<path fill="none" stroke="#ff0000" stroke-width="0.74" stroke-dasharray="5,2" d="M292.11,-877.59C321.85,-864.36 362.96,-846.06 394.91,-831.84"/>
<polygon fill="#ff0000" stroke="#ff0000" stroke-width="0.74" points="396.21,-835.1 403.92,-827.84 393.36,-828.7 396.21,-835.1"/>
<text text-anchor="middle" x="369.5" y="-848.8" font-family="Times,serif" font-size="14.00">699</text>
</g>
<!-- Record Goods Receipt -->
<g id="node5" class="node">
<title>Record Goods Receipt</title>
<polygon fill="#ddddff" stroke="black" points="331.5,-653 152.5,-653 152.5,-617 331.5,-617 331.5,-653"/>
<text text-anchor="middle" x="242" y="-631.3" font-family="Times,serif" font-size="14.00">Record Goods Receipt (6355)</text>
</g>
<!-- Create Purchase Order Item&#45;&gt;Record Goods Receipt -->
<g id="edge8" class="edge">
<title>Create Purchase Order Item&#45;&gt;Record Goods Receipt</title>
<path fill="none" stroke="#ff0000" stroke-width="0.6" stroke-dasharray="5,2" d="M252.26,-877.6C250.39,-833.65 245.47,-717.8 243.19,-664.09"/>
<polygon fill="#ff0000" stroke="#ff0000" stroke-width="0.6" points="246.7,-664.07 242.77,-654.23 239.7,-664.37 246.7,-664.07"/>
<text text-anchor="middle" x="257.5" y="-761.8" font-family="Times,serif" font-size="14.00">302</text>
</g>
<!-- Vendor creates invoice&#45;&gt;Create Purchase Order Item -->
<g id="edge17" class="edge">
<title>Vendor creates invoice&#45;&gt;Create Purchase Order Item</title>
<path fill="none" stroke="#ff0000" stroke-width="0.51" stroke-dasharray="5,2" d="M133.52,-740.48C157.05,-770.91 205.61,-833.72 233.03,-869.17"/>
<polygon fill="#ff0000" stroke="#ff0000" stroke-width="0.51" points="230.16,-871.18 239.04,-876.95 235.69,-866.9 230.16,-871.18"/>
<text text-anchor="middle" x="206" y="-805.3" font-family="Times,serif" font-size="14.00">31</text>
</g>
<!-- Vendor creates invoice&#45;&gt;Vendor creates invoice -->
<g id="edge25" class="edge">
<title>Vendor creates invoice&#45;&gt;Vendor creates invoice</title>
<path fill="none" stroke="#ff0000" stroke-width="0.5" stroke-dasharray="5,2" d="M206.89,-729.06C217.53,-727.79 224.5,-725.44 224.5,-722 224.5,-719.85 221.78,-718.12 217.13,-716.82"/>
<polygon fill="#ff0000" stroke="#ff0000" stroke-width="0.5" points="218.1,-713.44 207.63,-715.08 216.84,-720.33 218.1,-713.44"/>
<text text-anchor="middle" x="228" y="-718.3" font-family="Times,serif" font-size="14.00">2</text>
</g>
<!-- Vendor creates invoice&#45;&gt;Record Service Entry Sheet -->
<g id="edge28" class="edge">
<title>Vendor creates invoice&#45;&gt;Record Service Entry Sheet</title>
<path fill="none" stroke="#ff0000" stroke-width="0.5" stroke-dasharray="5,2" d="M206.62,-731.35C240.35,-736.5 278.79,-744.77 312,-758 323.34,-762.52 323.98,-767.75 335,-773 346.01,-778.24 357.99,-782.98 369.86,-787.15"/>
<polygon fill="#ff0000" stroke="#ff0000" stroke-width="0.5" points="368.46,-790.37 379.06,-790.28 370.72,-783.75 368.46,-790.37"/>
<text text-anchor="middle" x="342" y="-761.8" font-family="Times,serif" font-size="14.00">14</text>
</g>
<!-- Vendor creates invoice&#45;&gt;Record Goods Receipt -->
<g id="edge27" class="edge">
<title>Vendor creates invoice&#45;&gt;Record Goods Receipt</title>
<path fill="none" stroke="#ff0000" stroke-width="0.5" stroke-dasharray="5,2" d="M175.73,-703.67C186.38,-698.92 197.01,-693.08 206,-686 214.27,-679.49 221.5,-670.6 227.27,-662.12"/>
<polygon fill="#ff0000" stroke="#ff0000" stroke-width="0.5" points="230.12,-664.16 232.53,-653.85 224.21,-660.41 230.12,-664.16"/>
<text text-anchor="middle" x="223.5" y="-674.8" font-family="Times,serif" font-size="14.00">8</text>
</g>
<!-- Cancel Goods Receipt -->
<g id="node6" class="node">
<title>Cancel Goods Receipt</title>
<polygon fill="#fefeff" stroke="black" points="296,-566 132,-566 132,-530 296,-530 296,-566"/>
<text text-anchor="middle" x="214" y="-544.3" font-family="Times,serif" font-size="14.00">Cancel Goods Receipt (96)</text>
</g>
<!-- Vendor creates invoice&#45;&gt;Cancel Goods Receipt -->
<g id="edge34" class="edge">
<title>Vendor creates invoice&#45;&gt;Cancel Goods Receipt</title>
<path fill="none" stroke="#ff0000" stroke-width="0.5" stroke-dasharray="5,2" d="M114.35,-703.7C108.41,-682.45 101.38,-645.68 113,-617 121.12,-596.97 138.86,-582.1 157.24,-571.45"/>
<polygon fill="#ff0000" stroke="#ff0000" stroke-width="0.5" points="158.77,-574.6 165.9,-566.77 155.44,-568.44 158.77,-574.6"/>
<text text-anchor="middle" x="116.5" y="-631.3" font-family="Times,serif" font-size="14.00">1</text>
</g>
<!-- Record Invoice Receipt -->
<g id="node7" class="node">
<title>Record Invoice Receipt</title>
<polygon fill="#fdfdff" stroke="black" points="415,-479 237,-479 237,-443 415,-443 415,-479"/>
<text text-anchor="middle" x="326" y="-457.3" font-family="Times,serif" font-size="14.00">Record Invoice Receipt (212)</text>
</g>
<!-- Vendor creates invoice&#45;&gt;Record Invoice Receipt -->
<g id="edge12" class="edge">
<title>Vendor creates invoice&#45;&gt;Record Invoice Receipt</title>
<path fill="none" stroke="#ff0000" stroke-width="0.55" stroke-dasharray="5,2" d="M110.49,-703.67C107.92,-698.17 105.45,-691.97 104,-686 87.58,-618.11 71.69,-577.39 123,-530 151.45,-503.72 190.38,-487.57 226.53,-477.66"/>
<polygon fill="#ff0000" stroke="#ff0000" stroke-width="0.55" points="227.05,-481.14 235.84,-475.23 225.28,-474.36 227.05,-481.14"/>
<text text-anchor="middle" x="100.5" y="-587.8" font-family="Times,serif" font-size="14.00">143</text>
</g>
<!-- end_node -->
<g id="node12" class="node">
<title>end_node</title>
<ellipse fill="none" stroke="black" cx="133" cy="-22" rx="18" ry="18"/>
<ellipse fill="none" stroke="black" cx="133" cy="-22" rx="22" ry="22"/>
<text text-anchor="start" x="128.5" y="-18.3" font-family="Times,serif" font-size="14.00">■</text>
</g>
<!-- Vendor creates invoice&#45;&gt;end_node -->
<g id="edge46" class="edge">
<title>Vendor creates invoice&#45;&gt;end_node</title>
<path fill="none" stroke="#ff0000" stroke-width="0.5" stroke-dasharray="5,2" d="M61.41,-703.62C30.94,-690.59 0,-669.19 0,-636 0,-636 0,-636 0,-112 0,-63.62 61.53,-39.88 100.89,-29.64"/>
<polygon fill="#ff0000" stroke="#ff0000" stroke-width="0.5" points="101.71,-33.04 110.6,-27.28 100.06,-26.24 101.71,-33.04"/>
<text text-anchor="middle" x="3.5" y="-370.3" font-family="Times,serif" font-size="14.00">1</text>
</g>
<!-- Record Service Entry Sheet&#45;&gt;Vendor creates invoice -->
<g id="edge11" class="edge">
<title>Record Service Entry Sheet&#45;&gt;Vendor creates invoice</title>
<path fill="none" stroke="#ff0000" stroke-width="0.53" stroke-dasharray="5,2" d="M350.16,-790.54C332.48,-785.85 314.4,-780.06 298,-773 286.79,-768.17 286.24,-762.75 275,-758 256.91,-750.35 236.89,-744.25 217.41,-739.43"/>
<polygon fill="#ff0000" stroke="#ff0000" stroke-width="0.53" points="218.3,-736.04 207.76,-737.13 216.68,-742.85 218.3,-736.04"/>
<text text-anchor="middle" x="305" y="-761.8" font-family="Times,serif" font-size="14.00">86</text>
</g>
<!-- Record Service Entry Sheet&#45;&gt;Record Service Entry Sheet -->
<g id="edge4" class="edge">
<title>Record Service Entry Sheet&#45;&gt;Record Service Entry Sheet</title>
<path fill="none" stroke="#000000" stroke-width="6" d="M551.13,-815.7C562.04,-814.38 569,-812.14 569,-809 569,-808.02 568.32,-807.12 567.05,-806.32"/>
<polygon fill="#000000" stroke="#000000" stroke-width="6" points="568.37,-801.24 557.39,-803.88 565.8,-811.42 568.37,-801.24"/>
<text text-anchor="middle" x="586" y="-805.3" font-family="Times,serif" font-size="14.00">16248</text>
</g>
<!-- Record Service Entry Sheet&#45;&gt;Record Goods Receipt -->
<g id="edge5" class="edge">
<title>Record Service Entry Sheet&#45;&gt;Record Goods Receipt</title>
<path fill="none" stroke="#000000" stroke-width="1.4" d="M432.33,-790.56C410.03,-757.65 361.49,-688.16 338,-671 331.5,-666.25 324.3,-662.09 316.83,-658.45"/>
<polygon fill="#000000" stroke="#000000" stroke-width="1.4" points="318.27,-655.26 307.71,-654.36 315.4,-661.65 318.27,-655.26"/>
<text text-anchor="middle" x="410" y="-718.3" font-family="Times,serif" font-size="14.00">2671</text>
</g>
<!-- Record Service Entry Sheet&#45;&gt;Cancel Goods Receipt -->
<g id="edge9" class="edge">
<title>Record Service Entry Sheet&#45;&gt;Cancel Goods Receipt</title>
<path fill="none" stroke="#ff0000" stroke-width="0.51" stroke-dasharray="5,2" d="M454.12,-790.55C466.84,-767.51 487.98,-725.25 496,-686 504.72,-643.32 459.83,-585.4 458,-584 457.9,-583.92 375.68,-572.14 306.72,-562.27"/>
<polygon fill="#ff0000" stroke="#ff0000" stroke-width="0.51" points="307.38,-558.83 296.99,-560.87 306.39,-565.76 307.38,-558.83"/>
<text text-anchor="middle" x="504" y="-674.8" font-family="Times,serif" font-size="14.00">37</text>
</g>
<!-- Record Service Entry Sheet&#45;&gt;Record Invoice Receipt -->
<g id="edge20" class="edge">
<title>Record Service Entry Sheet&#45;&gt;Record Invoice Receipt</title>
<path fill="none" stroke="#ff0000" stroke-width="0.51" stroke-dasharray="5,2" d="M463.71,-790.75C469.3,-785.36 475.18,-779.19 480,-773 490.39,-759.64 492.33,-755.55 499,-740 535.82,-654.16 562.33,-605.25 507,-530 487.44,-503.4 456.19,-487.2 425.13,-477.34"/>
<polygon fill="#ff0000" stroke="#ff0000" stroke-width="0.51" points="426.38,-474.06 415.79,-474.57 424.39,-480.77 426.38,-474.06"/>
<text text-anchor="middle" x="545" y="-631.3" font-family="Times,serif" font-size="14.00">17</text>
</g>
<!-- Vendor creates debit memo -->
<g id="node9" class="node">
<title>Vendor creates debit memo</title>
<polygon fill="#ffffff" stroke="black" points="619,-392 433,-392 433,-356 619,-356 619,-392"/>
<text text-anchor="middle" x="526" y="-370.3" font-family="Times,serif" font-size="14.00">Vendor creates debit memo (2)</text>
</g>
<!-- Record Service Entry Sheet&#45;&gt;Vendor creates debit memo -->
<g id="edge29" class="edge">
<title>Record Service Entry Sheet&#45;&gt;Vendor creates debit memo</title>
<path fill="none" stroke="#ff0000" stroke-width="0.5" stroke-dasharray="5,2" d="M476.59,-790.57C484.44,-785.51 492.44,-779.56 499,-773 540.75,-731.25 544.49,-710.91 556,-653 561.32,-626.25 559.9,-672.66 547,-443 546.18,-428.33 549.05,-424.13 545,-410 544.21,-407.23 543.17,-404.43 541.98,-401.69"/>
<polygon fill="#ff0000" stroke="#ff0000" stroke-width="0.5" points="545.17,-400.23 537.58,-392.84 538.9,-403.35 545.17,-400.23"/>
<text text-anchor="middle" x="559.5" y="-587.8" font-family="Times,serif" font-size="14.00">1</text>
</g>
<!-- Record Service Entry Sheet&#45;&gt;end_node -->
<g id="edge42" class="edge">
<title>Record Service Entry Sheet&#45;&gt;end_node</title>
<path fill="none" stroke="#ff0000" stroke-width="0.56" stroke-dasharray="5,2" d="M551.47,-802.15C581.86,-797.06 613.98,-788.2 641,-773 666.8,-758.49 685,-752.6 685,-723 685,-723 685,-723 685,-112 685,-59.1 284.83,-31.76 165.93,-24.81"/>
<polygon fill="#ff0000" stroke="#ff0000" stroke-width="0.56" points="166.36,-21.33 156.17,-24.25 165.95,-28.31 166.36,-21.33"/>
<text text-anchor="middle" x="695.5" y="-413.8" font-family="Times,serif" font-size="14.00">182</text>
</g>
<!-- Record Goods Receipt&#45;&gt;Vendor creates invoice -->
<g id="edge16" class="edge">
<title>Record Goods Receipt&#45;&gt;Vendor creates invoice</title>
<path fill="none" stroke="#ff0000" stroke-width="0.52" stroke-dasharray="5,2" d="M217.05,-653.38C198.8,-666.1 173.84,-683.49 153.8,-697.45"/>
<polygon fill="#ff0000" stroke="#ff0000" stroke-width="0.52" points="151.84,-694.55 145.63,-703.14 155.84,-700.3 151.84,-694.55"/>
<text text-anchor="middle" x="195" y="-674.8" font-family="Times,serif" font-size="14.00">70</text>
</g>
<!-- Record Goods Receipt&#45;&gt;Record Service Entry Sheet -->
<g id="edge7" class="edge">
<title>Record Goods Receipt&#45;&gt;Record Service Entry Sheet</title>
<path fill="none" stroke="#000000" stroke-width="1.27" d="M257.95,-653.44C263.08,-659.05 268.78,-665.29 274,-671 302.01,-701.66 305.2,-713.3 337,-740 356.95,-756.75 381.33,-772.55 401.77,-784.7"/>
<polygon fill="#000000" stroke="#000000" stroke-width="1.27" points="400,-787.71 410.4,-789.73 403.53,-781.67 400,-787.71"/>
<text text-anchor="middle" x="351" y="-718.3" font-family="Times,serif" font-size="14.00">2273</text>
</g>
<!-- Record Goods Receipt&#45;&gt;Record Goods Receipt -->
<g id="edge6" class="edge">
<title>Record Goods Receipt&#45;&gt;Record Goods Receipt</title>
<path fill="none" stroke="#000000" stroke-width="1.64" d="M331.78,-642.01C342.5,-640.73 349.5,-638.4 349.5,-635 349.5,-633.14 347.41,-631.6 343.76,-630.38"/>
<polygon fill="#000000" stroke="#000000" stroke-width="1.64" points="344.71,-627 334.22,-628.48 343.34,-633.86 344.71,-627"/>
<text text-anchor="middle" x="363.5" y="-631.3" font-family="Times,serif" font-size="14.00">3361</text>
</g>
<!-- Record Goods Receipt&#45;&gt;Cancel Goods Receipt -->
<g id="edge14" class="edge">
<title>Record Goods Receipt&#45;&gt;Cancel Goods Receipt</title>
<path fill="none" stroke="#ff0000" stroke-width="0.5" stroke-dasharray="5,2" d="M221.46,-616.56C216.81,-611.43 212.5,-605.45 210,-599 207.29,-592.02 206.85,-584.09 207.47,-576.63"/>
<polygon fill="#ff0000" stroke="#ff0000" stroke-width="0.5" points="210.9,-577.36 208.87,-566.96 203.97,-576.36 210.9,-577.36"/>
<text text-anchor="middle" x="217" y="-587.8" font-family="Times,serif" font-size="14.00">12</text>
</g>
<!-- Record Goods Receipt&#45;&gt;Record Invoice Receipt -->
<g id="edge21" class="edge">
<title>Record Goods Receipt&#45;&gt;Record Invoice Receipt</title>
<path fill="none" stroke="#ff0000" stroke-width="0.51" stroke-dasharray="5,2" d="M282.06,-616.52C302.49,-605.29 325.41,-588.55 337,-566 349.27,-542.13 343.7,-511.15 336.81,-489.23"/>
<polygon fill="#ff0000" stroke="#ff0000" stroke-width="0.51" points="340.19,-488.32 333.64,-480 333.57,-490.6 340.19,-488.32"/>
<text text-anchor="middle" x="351" y="-544.3" font-family="Times,serif" font-size="14.00">31</text>
</g>
<!-- Record Goods Receipt&#45;&gt;end_node -->
<g id="edge41" class="edge">
<title>Record Goods Receipt&#45;&gt;end_node</title>
<path fill="none" stroke="#ff0000" stroke-width="0.71" stroke-dasharray="5,2" d="M179.95,-616.63C129.28,-598.2 66,-563.57 66,-505.5 66,-505.5 66,-505.5 66,-112 66,-83.66 87.96,-58.6 106.73,-42.35"/>
<polygon fill="#ff0000" stroke="#ff0000" stroke-width="0.71" points="108.71,-45.25 114.22,-36.2 104.27,-39.84 108.71,-45.25"/>
<text text-anchor="middle" x="76.5" y="-326.8" font-family="Times,serif" font-size="14.00">608</text>
</g>
<!-- Cancel Goods Receipt&#45;&gt;Vendor creates invoice -->
<g id="edge24" class="edge">
<title>Cancel Goods Receipt&#45;&gt;Vendor creates invoice</title>
<path fill="none" stroke="#ff0000" stroke-width="0.5" stroke-dasharray="5,2" d="M185.65,-566.24C168.44,-578.27 147.61,-595.91 136,-617 123.1,-640.44 119.72,-671.1 119.19,-693.05"/>
<polygon fill="#ff0000" stroke="#ff0000" stroke-width="0.5" points="115.7,-692.87 119.15,-702.89 122.7,-692.9 115.7,-692.87"/>
<text text-anchor="middle" x="139.5" y="-631.3" font-family="Times,serif" font-size="14.00">9</text>
</g>
<!-- Cancel Goods Receipt&#45;&gt;Record Service Entry Sheet -->
<g id="edge15" class="edge">
<title>Cancel Goods Receipt&#45;&gt;Record Service Entry Sheet</title>
<path fill="none" stroke="#ff0000" stroke-width="0.5" stroke-dasharray="5,2" d="M296.22,-561.3C348.72,-569.52 407.74,-579.6 412,-584 463.33,-637.06 456.54,-732.93 449.3,-780.17"/>
<polygon fill="#ff0000" stroke="#ff0000" stroke-width="0.5" points="445.89,-779.35 447.71,-789.79 452.8,-780.5 445.89,-779.35"/>
<text text-anchor="middle" x="455.5" y="-674.8" font-family="Times,serif" font-size="14.00">7</text>
</g>
<!-- Cancel Goods Receipt&#45;&gt;Record Goods Receipt -->
<g id="edge22" class="edge">
<title>Cancel Goods Receipt&#45;&gt;Record Goods Receipt</title>
<path fill="none" stroke="#ff0000" stroke-width="0.5" stroke-dasharray="5,2" d="M219.75,-566.47C223.58,-578.09 228.69,-593.59 233.04,-606.8"/>
<polygon fill="#ff0000" stroke="#ff0000" stroke-width="0.5" points="229.64,-607.67 236.1,-616.07 236.29,-605.48 229.64,-607.67"/>
<text text-anchor="middle" x="236" y="-587.8" font-family="Times,serif" font-size="14.00">13</text>
</g>
<!-- Cancel Goods Receipt&#45;&gt;Cancel Goods Receipt -->
<g id="edge10" class="edge">
<title>Cancel Goods Receipt&#45;&gt;Cancel Goods Receipt</title>
<path fill="none" stroke="#ff0000" stroke-width="0.52" stroke-dasharray="5,2" d="M296.38,-555.15C306.99,-553.91 314,-551.53 314,-548 314,-545.85 311.4,-544.13 306.96,-542.83"/>
<polygon fill="#ff0000" stroke="#ff0000" stroke-width="0.52" points="307.62,-539.39 297.15,-541 306.34,-546.27 307.62,-539.39"/>
<text text-anchor="middle" x="321" y="-544.3" font-family="Times,serif" font-size="14.00">46</text>
</g>
<!-- Cancel Goods Receipt&#45;&gt;Record Invoice Receipt -->
<g id="edge18" class="edge">
<title>Cancel Goods Receipt&#45;&gt;Record Invoice Receipt</title>
<path fill="none" stroke="#ff0000" stroke-width="0.5" stroke-dasharray="5,2" d="M236.94,-529.59C253.7,-516.87 276.61,-499.48 295,-485.52"/>
<polygon fill="#ff0000" stroke="#ff0000" stroke-width="0.5" points="296.64,-488.68 302.49,-479.84 292.41,-483.1 296.64,-488.68"/>
<text text-anchor="middle" x="279.5" y="-500.8" font-family="Times,serif" font-size="14.00">5</text>
</g>
<!-- Cancel Goods Receipt&#45;&gt;end_node -->
<g id="edge43" class="edge">
<title>Cancel Goods Receipt&#45;&gt;end_node</title>
<path fill="none" stroke="#ff0000" stroke-width="0.51" stroke-dasharray="5,2" d="M168.67,-529.6C141.43,-515.86 112,-493.7 112,-462 112,-462 112,-462 112,-112 112,-92.02 117.08,-70.17 122.24,-53.12"/>
<polygon fill="#ff0000" stroke="#ff0000" stroke-width="0.51" points="125.47,-54.5 125.19,-43.91 118.8,-52.37 125.47,-54.5"/>
<text text-anchor="middle" x="119" y="-283.3" font-family="Times,serif" font-size="14.00">16</text>
</g>
<!-- Record Invoice Receipt&#45;&gt;Vendor creates invoice -->
<g id="edge23" class="edge">
<title>Record Invoice Receipt&#45;&gt;Vendor creates invoice</title>
<path fill="none" stroke="#ff0000" stroke-width="0.5" stroke-dasharray="5,2" d="M341.16,-479.4C370.57,-515.36 428.98,-598.99 387,-653 365.92,-680.12 284.45,-698.22 216.99,-708.87"/>
<polygon fill="#ff0000" stroke="#ff0000" stroke-width="0.5" points="216.82,-705.36 207.47,-710.34 217.88,-712.28 216.82,-705.36"/>
<text text-anchor="middle" x="404.5" y="-587.8" font-family="Times,serif" font-size="14.00">1</text>
</g>
<!-- Record Invoice Receipt&#45;&gt;Record Invoice Receipt -->
<g id="edge19" class="edge">
<title>Record Invoice Receipt&#45;&gt;Record Invoice Receipt</title>
<path fill="none" stroke="#ff0000" stroke-width="0.5" stroke-dasharray="5,2" d="M415.37,-468.01C426.03,-466.73 433,-464.4 433,-461 433,-458.88 430.28,-457.17 425.63,-455.87"/>
<polygon fill="#ff0000" stroke="#ff0000" stroke-width="0.5" points="426.59,-452.49 416.12,-454.13 425.32,-459.37 426.59,-452.49"/>
<text text-anchor="middle" x="440" y="-457.3" font-family="Times,serif" font-size="14.00">14</text>
</g>
<!-- Clear Invoice -->
<g id="node8" class="node">
<title>Clear Invoice</title>
<polygon fill="#fefeff" stroke="black" points="374.5,-131 251.5,-131 251.5,-95 374.5,-95 374.5,-131"/>
<text text-anchor="middle" x="313" y="-109.3" font-family="Times,serif" font-size="14.00">Clear Invoice (189)</text>
</g>
<!-- Record Invoice Receipt&#45;&gt;Clear Invoice -->
<g id="edge13" class="edge">
<title>Record Invoice Receipt&#45;&gt;Clear Invoice</title>
<path fill="none" stroke="#ff0000" stroke-width="0.56" stroke-dasharray="5,2" d="M262.26,-442.53C231.01,-429.69 200,-408.51 200,-375 200,-375 200,-375 200,-199 200,-169.92 224.19,-149.55 250.19,-136.06"/>
<polygon fill="#ff0000" stroke="#ff0000" stroke-width="0.56" points="251.57,-139.28 259.04,-131.77 248.52,-132.98 251.57,-139.28"/>
<text text-anchor="middle" x="210.5" y="-283.3" font-family="Times,serif" font-size="14.00">186</text>
</g>
<!-- Record Invoice Receipt&#45;&gt;Vendor creates debit memo -->
<g id="edge37" class="edge">
<title>Record Invoice Receipt&#45;&gt;Vendor creates debit memo</title>
<path fill="none" stroke="#ff0000" stroke-width="0.5" stroke-dasharray="5,2" d="M374.55,-442.54C388.95,-437.14 404.69,-431.03 419,-425 439.6,-416.33 462.05,-405.97 481.05,-396.95"/>
<polygon fill="#ff0000" stroke="#ff0000" stroke-width="0.5" points="482.45,-400.16 489.96,-392.69 479.43,-393.84 482.45,-400.16"/>
<text text-anchor="middle" x="454.5" y="-413.8" font-family="Times,serif" font-size="14.00">1</text>
</g>
<!-- Cancel Invoice Receipt -->
<g id="node10" class="node">
<title>Cancel Invoice Receipt</title>
<polygon fill="#ffffff" stroke="black" points="478.5,-305 315.5,-305 315.5,-269 478.5,-269 478.5,-305"/>
<text text-anchor="middle" x="397" y="-283.3" font-family="Times,serif" font-size="14.00">Cancel Invoice Receipt (2)</text>
</g>
<!-- Record Invoice Receipt&#45;&gt;Cancel Invoice Receipt -->
<g id="edge31" class="edge">
<title>Record Invoice Receipt&#45;&gt;Cancel Invoice Receipt</title>
<path fill="none" stroke="#ff0000" stroke-width="0.5" stroke-dasharray="5,2" d="M333.2,-442.56C345.58,-412.56 371.01,-350.96 385.75,-315.25"/>
<polygon fill="#ff0000" stroke="#ff0000" stroke-width="0.5" points="388.91,-316.76 389.49,-306.18 382.44,-314.09 388.91,-316.76"/>
<text text-anchor="middle" x="371.5" y="-370.3" font-family="Times,serif" font-size="14.00">1</text>
</g>
<!-- Remove Payment Block -->
<g id="node11" class="node">
<title>Remove Payment Block</title>
<polygon fill="#fefeff" stroke="black" points="398,-218 228,-218 228,-182 398,-182 398,-218"/>
<text text-anchor="middle" x="313" y="-196.3" font-family="Times,serif" font-size="14.00">Remove Payment Block (3)</text>
</g>
<!-- Record Invoice Receipt&#45;&gt;Remove Payment Block -->
<g id="edge35" class="edge">
<title>Record Invoice Receipt&#45;&gt;Remove Payment Block</title>
<path fill="none" stroke="#ff0000" stroke-width="0.5" stroke-dasharray="5,2" d="M322.6,-442.66C316.41,-409.18 304.17,-333.25 307,-269 307.58,-255.77 308.8,-241.12 309.99,-228.83"/>
<polygon fill="#ff0000" stroke="#ff0000" stroke-width="0.5" points="313.45,-229.35 310.97,-219.05 306.49,-228.65 313.45,-229.35"/>
<text text-anchor="middle" x="311.5" y="-326.8" font-family="Times,serif" font-size="14.00">1</text>
</g>
<!-- Record Invoice Receipt&#45;&gt;end_node -->
<g id="edge45" class="edge">
<title>Record Invoice Receipt&#45;&gt;end_node</title>
<path fill="none" stroke="#ff0000" stroke-width="0.5" stroke-dasharray="5,2" d="M236.73,-448.65C194.84,-437.79 154,-416.55 154,-375 154,-375 154,-375 154,-112 154,-92.02 148.92,-70.17 143.76,-53.12"/>
<polygon fill="#ff0000" stroke="#ff0000" stroke-width="0.5" points="147.2,-52.36 140.81,-43.91 140.53,-54.5 147.2,-52.36"/>
<text text-anchor="middle" x="157.5" y="-239.8" font-family="Times,serif" font-size="14.00">8</text>
</g>
<!-- Clear Invoice&#45;&gt;Record Service Entry Sheet -->
<g id="edge40" class="edge">
<title>Clear Invoice&#45;&gt;Record Service Entry Sheet</title>
<path fill="none" stroke="#ff0000" stroke-width="0.5" stroke-dasharray="5,2" d="M374.65,-117.14C471.16,-123.75 647,-143.43 647,-199 647,-723 647,-723 647,-723 647,-766.6 606.67,-788.22 561.96,-798.79"/>
<polygon fill="#ff0000" stroke="#ff0000" stroke-width="0.5" points="561.22,-795.37 552.18,-800.91 562.7,-802.21 561.22,-795.37"/>
<text text-anchor="middle" x="650.5" y="-457.3" font-family="Times,serif" font-size="14.00">1</text>
</g>
<!-- Clear Invoice&#45;&gt;Record Invoice Receipt -->
<g id="edge26" class="edge">
<title>Clear Invoice&#45;&gt;Record Invoice Receipt</title>
<path fill="none" stroke="#ff0000" stroke-width="0.5" stroke-dasharray="5,2" d="M347.4,-131.29C390.59,-155.29 462.14,-203.28 488,-269 493.86,-283.89 496.62,-291.52 488,-305 477.71,-321.08 464.36,-311.66 449,-323 446.02,-325.2 382.9,-396.01 348.27,-434.94"/>
<polygon fill="#ff0000" stroke="#ff0000" stroke-width="0.5" points="345.88,-432.36 341.85,-442.16 351.11,-437.01 345.88,-432.36"/>
<text text-anchor="middle" x="496.5" y="-283.3" font-family="Times,serif" font-size="14.00">1</text>
</g>
<!-- Clear Invoice&#45;&gt;Clear Invoice -->
<g id="edge39" class="edge">
<title>Clear Invoice&#45;&gt;Clear Invoice</title>
<path fill="none" stroke="#ff0000" stroke-width="0.5" stroke-dasharray="5,2" d="M375,-120.58C385.35,-119.52 392.5,-116.99 392.5,-113 392.5,-110.57 389.85,-108.68 385.43,-107.33"/>
<polygon fill="#ff0000" stroke="#ff0000" stroke-width="0.5" points="386.21,-103.92 375.74,-105.56 384.95,-110.8 386.21,-103.92"/>
<text text-anchor="middle" x="396" y="-109.3" font-family="Times,serif" font-size="14.00">1</text>
</g>
<!-- Clear Invoice&#45;&gt;end_node -->
<g id="edge44" class="edge">
<title>Clear Invoice&#45;&gt;end_node</title>
<path fill="none" stroke="#ff0000" stroke-width="0.56" stroke-dasharray="5,2" d="M277.87,-94.63C244.08,-77.92 193.6,-52.97 162.03,-37.35"/>
<polygon fill="#ff0000" stroke="#ff0000" stroke-width="0.56" points="163.77,-34.31 153.25,-33.01 160.66,-40.58 163.77,-34.31"/>
<text text-anchor="middle" x="249.5" y="-65.8" font-family="Times,serif" font-size="14.00">186</text>
</g>
<!-- Vendor creates debit memo&#45;&gt;Vendor creates invoice -->
<g id="edge30" class="edge">
<title>Vendor creates debit memo&#45;&gt;Vendor creates invoice</title>
<path fill="none" stroke="#ff0000" stroke-width="0.5" stroke-dasharray="5,2" d="M528.73,-392.45C535.95,-445.76 549.54,-607.57 463,-686 461.85,-687.04 318.18,-701.43 217.17,-711.43"/>
<polygon fill="#ff0000" stroke="#ff0000" stroke-width="0.5" points="216.97,-707.93 207.36,-712.4 217.66,-714.9 216.97,-707.93"/>
<text text-anchor="middle" x="533.5" y="-544.3" font-family="Times,serif" font-size="14.00">1</text>
</g>
<!-- Vendor creates debit memo&#45;&gt;Cancel Invoice Receipt -->
<g id="edge38" class="edge">
<title>Vendor creates debit memo&#45;&gt;Cancel Invoice Receipt</title>
<path fill="none" stroke="#ff0000" stroke-width="0.5" stroke-dasharray="5,2" d="M499.58,-355.59C480.11,-342.76 453.41,-325.17 432.13,-311.15"/>
<polygon fill="#ff0000" stroke="#ff0000" stroke-width="0.5" points="434.29,-308.38 424.01,-305.8 430.44,-314.22 434.29,-308.38"/>
<text text-anchor="middle" x="472.5" y="-326.8" font-family="Times,serif" font-size="14.00">1</text>
</g>
<!-- Cancel Invoice Receipt&#45;&gt;Remove Payment Block -->
<g id="edge32" class="edge">
<title>Cancel Invoice Receipt&#45;&gt;Remove Payment Block</title>
<path fill="none" stroke="#ff0000" stroke-width="0.5" stroke-dasharray="5,2" d="M380,-268.8C367.79,-256.44 351.13,-239.59 337.49,-225.78"/>
<polygon fill="#ff0000" stroke="#ff0000" stroke-width="0.5" points="340.31,-223.66 330.79,-219.01 335.33,-228.58 340.31,-223.66"/>
<text text-anchor="middle" x="363.5" y="-239.8" font-family="Times,serif" font-size="14.00">2</text>
</g>
<!-- Remove Payment Block&#45;&gt;Record Invoice Receipt -->
<g id="edge33" class="edge">
<title>Remove Payment Block&#45;&gt;Record Invoice Receipt</title>
<path fill="none" stroke="#ff0000" stroke-width="0.5" stroke-dasharray="5,2" d="M287.81,-218.38C282.14,-223.44 276.7,-229.4 273,-236 250.58,-275.96 254.09,-292.35 258,-338 261.35,-377.09 251.53,-392.16 273,-425 275.62,-429 278.87,-432.65 282.46,-435.96"/>
<polygon fill="#ff0000" stroke="#ff0000" stroke-width="0.5" points="280.19,-438.62 290.18,-442.16 284.58,-433.17 280.19,-438.62"/>
<text text-anchor="middle" x="261.5" y="-326.8" font-family="Times,serif" font-size="14.00">1</text>
</g>
<!-- Remove Payment Block&#45;&gt;Clear Invoice -->
<g id="edge36" class="edge">
<title>Remove Payment Block&#45;&gt;Clear Invoice</title>
<path fill="none" stroke="#ff0000" stroke-width="0.5" stroke-dasharray="5,2" d="M313,-181.8C313,-170.35 313,-155.06 313,-141.89"/>
<polygon fill="#ff0000" stroke="#ff0000" stroke-width="0.5" points="316.5,-142.22 313,-132.22 309.5,-142.22 316.5,-142.22"/>
<text text-anchor="middle" x="316.5" y="-152.8" font-family="Times,serif" font-size="14.00">2</text>
</g>
</g>
</svg>
