<?xml version="1.0" encoding="UTF-8" standalone="no"?>
<!DOCTYPE svg PUBLIC "-//W3C//DTD SVG 1.1//EN"
 "http://www.w3.org/Graphics/SVG/1.1/DTD/svg11.dtd">
<!-- Generated by graphviz version 7.0.5 (0)
 -->
<!-- Title: dfg Pages: 1 -->
<svg width="456pt" height="769pt"
 viewBox="0.00 0.00 456.00 769.00" xmlns="http://www.w3.org/2000/svg" xmlns:xlink="http://www.w3.org/1999/xlink">
<g id="graph0" class="graph" transform="scale(1 1) rotate(0) translate(4 765)">
<title>dfg</title>
<polygon fill="white" stroke="none" points="-4,4 -4,-765 452,-765 452,4 -4,4"/>
<!-- start_node -->
<g id="node1" class="node">
<title>start_node</title>
<ellipse fill="none" stroke="black" cx="133.5" cy="-743" rx="18" ry="18"/>
<text text-anchor="start" x="129" y="-739.3" font-family="Times,serif" font-size="14.00">●</text>
</g>
<!-- Create Purchase Order Item -->
<g id="node2" class="node">
<title>Create Purchase Order Item</title>
<polygon fill="#9b9bff" stroke="black" points="331,-587 116,-587 116,-551 331,-551 331,-587"/>
<text text-anchor="middle" x="223.5" y="-565.3" font-family="Times,serif" font-size="14.00">Create Purchase Order Item (13334)</text>
</g>
<!-- start_node&#45;&gt;Create Purchase Order Item -->
<g id="edge1" class="edge">
<title>start_node&#45;&gt;Create Purchase Order Item</title>
<path fill="none" stroke="#000000" stroke-width="5.81" d="M131.13,-724.69C129,-703.1 128.12,-665.66 142.5,-638 151.06,-621.54 165.48,-607.47 179.81,-596.48"/>
<polygon fill="#000000" stroke="#000000" stroke-width="5.81" points="182.34,-600.92 187.54,-590.98 176.45,-592.64 182.34,-600.92"/>
<text text-anchor="middle" x="159.5" y="-652.3" font-family="Times,serif" font-size="14.00">10742</text>
</g>
<!-- Vendor creates invoice -->
<g id="node3" class="node">
<title>Vendor creates invoice</title>
<polygon fill="#a4a4ff" stroke="black" points="187,-500 0,-500 0,-464 187,-464 187,-500"/>
<text text-anchor="middle" x="93.5" y="-478.3" font-family="Times,serif" font-size="14.00">Vendor creates invoice (12187)</text>
</g>
<!-- start_node&#45;&gt;Vendor creates invoice -->
<g id="edge2" class="edge">
<title>start_node&#45;&gt;Vendor creates invoice</title>
<path fill="none" stroke="#000000" stroke-width="0.63" d="M129.97,-724.93C128.82,-719.24 127.57,-712.85 126.5,-707 116.75,-653.82 114.3,-640.5 106.5,-587 102.76,-561.32 99.15,-531.99 96.69,-511.03"/>
<polygon fill="#000000" stroke="#000000" stroke-width="0.63" points="100.19,-510.8 95.56,-501.27 93.23,-511.61 100.19,-510.8"/>
<text text-anchor="middle" x="125.5" y="-608.8" font-family="Times,serif" font-size="14.00">1334</text>
</g>
<!-- Create Purchase Requisition Item -->
<g id="node4" class="node">
<title>Create Purchase Requisition Item</title>
<polygon fill="#fdfdff" stroke="black" points="425,-674 186,-674 186,-638 425,-638 425,-674"/>
<text text-anchor="middle" x="305.5" y="-652.3" font-family="Times,serif" font-size="14.00">Create Purchase Requisition Item (1258)</text>
</g>
<!-- start_node&#45;&gt;Create Purchase Requisition Item -->
<g id="edge3" class="edge">
<title>start_node&#45;&gt;Create Purchase Requisition Item</title>
<path fill="none" stroke="#000000" stroke-width="0.59" d="M149.37,-734.16C174.49,-721.74 224.3,-697.13 260.93,-679.03"/>
<polygon fill="#000000" stroke="#000000" stroke-width="0.59" points="262.2,-682.3 269.61,-674.74 259.1,-676.03 262.2,-682.3"/>
<text text-anchor="middle" x="244.5" y="-695.8" font-family="Times,serif" font-size="14.00">1258</text>
</g>
<!-- Create Purchase Order Item&#45;&gt;Vendor creates invoice -->
<g id="edge4" class="edge">
<title>Create Purchase Order Item&#45;&gt;Vendor creates invoice</title>
<path fill="none" stroke="#000000" stroke-width="4.59" d="M159.87,-550.69C148.78,-546.01 137.83,-540.19 128.5,-533 121.73,-527.79 115.76,-520.9 110.75,-513.91"/>
<polygon fill="#000000" stroke="#000000" stroke-width="4.59" points="114.17,-511.81 105.41,-505.53 107.4,-516.12 114.17,-511.81"/>
<text text-anchor="middle" x="142.5" y="-521.8" font-family="Times,serif" font-size="14.00">8525</text>
</g>
<!-- Record Goods Receipt -->
<g id="node5" class="node">
<title>Record Goods Receipt</title>
<polygon fill="#a4a4ff" stroke="black" points="294.5,-392 108.5,-392 108.5,-356 294.5,-356 294.5,-392"/>
<text text-anchor="middle" x="201.5" y="-370.3" font-family="Times,serif" font-size="14.00">Record Goods Receipt (12187)</text>
</g>
<!-- Create Purchase Order Item&#45;&gt;Record Goods Receipt -->
<g id="edge8" class="edge">
<title>Create Purchase Order Item&#45;&gt;Record Goods Receipt</title>
<path fill="none" stroke="#000000" stroke-width="1.91" d="M222.75,-550.84C221.3,-521.73 217.53,-460.87 209.5,-410 209.23,-408.28 208.92,-406.52 208.59,-404.75"/>
<polygon fill="#000000" stroke="#000000" stroke-width="1.91" points="212.06,-404.24 206.56,-395.19 205.21,-405.69 212.06,-404.24"/>
<text text-anchor="middle" x="233.5" y="-478.3" font-family="Times,serif" font-size="14.00">3662</text>
</g>
<!-- Delete Purchase Order Item -->
<g id="node8" class="node">
<title>Delete Purchase Order Item</title>
<polygon fill="#fefeff" stroke="black" points="448,-446 239,-446 239,-410 448,-410 448,-446"/>
<text text-anchor="middle" x="343.5" y="-424.3" font-family="Times,serif" font-size="14.00">Delete Purchase Order Item (1147)</text>
</g>
<!-- Create Purchase Order Item&#45;&gt;Delete Purchase Order Item -->
<g id="edge13" class="edge">
<title>Create Purchase Order Item&#45;&gt;Delete Purchase Order Item</title>
<path fill="none" stroke="#000000" stroke-width="0.53" d="M238.46,-550.68C259.41,-526.41 297.63,-482.13 321.74,-454.21"/>
<polygon fill="#000000" stroke="#000000" stroke-width="0.53" points="324.33,-456.56 328.21,-446.71 319.03,-451.99 324.33,-456.56"/>
<text text-anchor="middle" x="279.5" y="-521.8" font-family="Times,serif" font-size="14.00">1147</text>
</g>
<!-- Vendor creates invoice&#45;&gt;Create Purchase Order Item -->
<g id="edge11" class="edge">
<title>Vendor creates invoice&#45;&gt;Create Purchase Order Item</title>
<path fill="none" stroke="#000000" stroke-width="0.63" d="M126.69,-500.35C136.45,-505.74 147.04,-511.88 156.5,-518 168.81,-525.96 181.83,-535.42 193.09,-543.96"/>
<polygon fill="#000000" stroke="#000000" stroke-width="0.63" points="190.88,-546.68 200.94,-549.99 195.14,-541.12 190.88,-546.68"/>
<text text-anchor="middle" x="191.5" y="-521.8" font-family="Times,serif" font-size="14.00">1334</text>
</g>
<!-- Vendor creates invoice&#45;&gt;Record Goods Receipt -->
<g id="edge5" class="edge">
<title>Vendor creates invoice&#45;&gt;Record Goods Receipt</title>
<path fill="none" stroke="#000000" stroke-width="4.59" d="M96.69,-463.78C100.43,-448.01 108.03,-424.9 122.5,-410 125.73,-406.67 129.34,-403.63 133.18,-400.87"/>
<polygon fill="#000000" stroke="#000000" stroke-width="4.59" points="135.24,-404.32 141.69,-395.69 131.06,-397.46 135.24,-404.32"/>
<text text-anchor="middle" x="136.5" y="-424.3" font-family="Times,serif" font-size="14.00">8525</text>
</g>
<!-- Record Invoice Receipt -->
<g id="node6" class="node">
<title>Record Invoice Receipt</title>
<polygon fill="#a4a4ff" stroke="black" points="226,-305 35,-305 35,-269 226,-269 226,-305"/>
<text text-anchor="middle" x="130.5" y="-283.3" font-family="Times,serif" font-size="14.00">Record Invoice Receipt (12187)</text>
</g>
<!-- Vendor creates invoice&#45;&gt;Record Invoice Receipt -->
<g id="edge10" class="edge">
<title>Vendor creates invoice&#45;&gt;Record Invoice Receipt</title>
<path fill="none" stroke="#000000" stroke-width="1.18" d="M84.98,-463.91C73.96,-439.34 57.7,-392.95 71.5,-356 77.53,-339.86 89.3,-325.01 100.76,-313.33"/>
<polygon fill="#000000" stroke="#000000" stroke-width="1.18" points="102.92,-316.12 107.68,-306.65 98.05,-311.08 102.92,-316.12"/>
<text text-anchor="middle" x="85.5" y="-370.3" font-family="Times,serif" font-size="14.00">2328</text>
</g>
<!-- Create Purchase Requisition Item&#45;&gt;Create Purchase Order Item -->
<g id="edge12" class="edge">
<title>Create Purchase Requisition Item&#45;&gt;Create Purchase Order Item</title>
<path fill="none" stroke="#000000" stroke-width="0.59" d="M288.91,-637.8C277.09,-625.55 261.03,-608.9 247.77,-595.16"/>
<polygon fill="#000000" stroke="#000000" stroke-width="0.59" points="250.43,-592.87 240.97,-588.11 245.39,-597.73 250.43,-592.87"/>
<text text-anchor="middle" x="282.5" y="-608.8" font-family="Times,serif" font-size="14.00">1258</text>
</g>
<!-- Record Goods Receipt&#45;&gt;Vendor creates invoice -->
<g id="edge9" class="edge">
<title>Record Goods Receipt&#45;&gt;Vendor creates invoice</title>
<path fill="none" stroke="#000000" stroke-width="1.18" d="M191.81,-392.25C182.59,-407.62 167.61,-430.08 150.5,-446 146.2,-450 141.37,-453.79 136.4,-457.29"/>
<polygon fill="#000000" stroke="#000000" stroke-width="1.18" points="134.65,-454.24 128.23,-462.67 138.51,-460.09 134.65,-454.24"/>
<text text-anchor="middle" x="193.5" y="-424.3" font-family="Times,serif" font-size="14.00">2328</text>
</g>
<!-- Record Goods Receipt&#45;&gt;Record Invoice Receipt -->
<g id="edge6" class="edge">
<title>Record Goods Receipt&#45;&gt;Record Invoice Receipt</title>
<path fill="none" stroke="#000000" stroke-width="5.32" d="M187.13,-355.8C178.05,-344.93 166.07,-330.58 155.46,-317.88"/>
<polygon fill="#000000" stroke="#000000" stroke-width="5.32" points="159.12,-314.99 149.13,-310.31 151.97,-320.97 159.12,-314.99"/>
<text text-anchor="middle" x="184.5" y="-326.8" font-family="Times,serif" font-size="14.00">9859</text>
</g>
<!-- Clear Invoice -->
<g id="node7" class="node">
<title>Clear Invoice</title>
<polygon fill="#a4a4ff" stroke="black" points="289,-131 152,-131 152,-95 289,-95 289,-131"/>
<text text-anchor="middle" x="220.5" y="-109.3" font-family="Times,serif" font-size="14.00">Clear Invoice (12187)</text>
</g>
<!-- Record Invoice Receipt&#45;&gt;Clear Invoice -->
<g id="edge7" class="edge">
<title>Record Invoice Receipt&#45;&gt;Clear Invoice</title>
<path fill="none" stroke="#000000" stroke-width="6" d="M112.2,-268.77C91.99,-247.58 64.54,-210.87 82.5,-182 95.05,-161.82 115.55,-147.46 136.95,-137.3"/>
<polygon fill="#000000" stroke="#000000" stroke-width="6" points="138.77,-142.23 145.89,-133.47 134.63,-132.58 138.77,-142.23"/>
<text text-anchor="middle" x="99.5" y="-196.3" font-family="Times,serif" font-size="14.00">11087</text>
</g>
<!-- Remove Payment Block -->
<g id="node9" class="node">
<title>Remove Payment Block</title>
<polygon fill="#ffffff" stroke="black" points="315.5,-218 125.5,-218 125.5,-182 315.5,-182 315.5,-218"/>
<text text-anchor="middle" x="220.5" y="-196.3" font-family="Times,serif" font-size="14.00">Remove Payment Block (1100)</text>
</g>
<!-- Record Invoice Receipt&#45;&gt;Remove Payment Block -->
<g id="edge14" class="edge">
<title>Record Invoice Receipt&#45;&gt;Remove Payment Block</title>
<path fill="none" stroke="#000000" stroke-width="0.5" d="M148.71,-268.8C161.8,-256.44 179.64,-239.59 194.26,-225.78"/>
<polygon fill="#000000" stroke="#000000" stroke-width="0.5" points="196.59,-228.4 201.46,-218.99 191.78,-223.31 196.59,-228.4"/>
<text text-anchor="middle" x="195.5" y="-239.8" font-family="Times,serif" font-size="14.00">1100</text>
</g>
<!-- end_node -->
<g id="node10" class="node">
<title>end_node</title>
<ellipse fill="none" stroke="black" cx="281.5" cy="-22" rx="18" ry="18"/>
<ellipse fill="none" stroke="black" cx="281.5" cy="-22" rx="22" ry="22"/>
<text text-anchor="start" x="277" y="-18.3" font-family="Times,serif" font-size="14.00">■</text>
</g>
<!-- Clear Invoice&#45;&gt;end_node -->
<g id="edge16" class="edge">
<title>Clear Invoice&#45;&gt;end_node</title>
<path fill="none" stroke="#000000" stroke-width="6.61" d="M232.26,-94.84C240.18,-83.29 250.84,-67.74 260.22,-54.05"/>
<polygon fill="#000000" stroke="#000000" stroke-width="6.61" points="264.74,-57.68 265.63,-46.16 255.2,-51.14 264.74,-57.68"/>
<text text-anchor="middle" x="271.5" y="-65.8" font-family="Times,serif" font-size="14.00">12187</text>
</g>
<!-- Delete Purchase Order Item&#45;&gt;end_node -->
<g id="edge17" class="edge">
<title>Delete Purchase Order Item&#45;&gt;end_node</title>
<path fill="none" stroke="#000000" stroke-width="0.53" d="M343.5,-409.75C343.5,-390.62 343.5,-358.86 343.5,-331.5 343.5,-331.5 343.5,-331.5 343.5,-112 343.5,-84.73 323.66,-59.83 306.42,-43.35"/>
<polygon fill="#000000" stroke="#000000" stroke-width="0.53" points="309.11,-41.06 299.36,-36.92 304.4,-46.24 309.11,-41.06"/>
<text text-anchor="middle" x="357.5" y="-239.8" font-family="Times,serif" font-size="14.00">1147</text>
</g>
<!-- Remove Payment Block&#45;&gt;Clear Invoice -->
<g id="edge15" class="edge">
<title>Remove Payment Block&#45;&gt;Clear Invoice</title>
<path fill="none" stroke="#000000" stroke-width="0.5" d="M220.5,-181.8C220.5,-170.35 220.5,-155.06 220.5,-141.89"/>
<polygon fill="#000000" stroke="#000000" stroke-width="0.5" points="224,-142.22 220.5,-132.22 217,-142.22 224,-142.22"/>
<text text-anchor="middle" x="234.5" y="-152.8" font-family="Times,serif" font-size="14.00">1100</text>
</g>
</g>
</svg>
