<?xml version="1.0" encoding="UTF-8" standalone="no"?>
<!DOCTYPE svg PUBLIC "-//W3C//DTD SVG 1.1//EN"
 "http://www.w3.org/Graphics/SVG/1.1/DTD/svg11.dtd">
<!-- Generated by graphviz version 7.0.5 (0)
 -->
<!-- Title: dfg Pages: 1 -->
<svg width="462pt" height="661pt"
 viewBox="0.00 0.00 462.00 661.00" xmlns="http://www.w3.org/2000/svg" xmlns:xlink="http://www.w3.org/1999/xlink">
<g id="graph0" class="graph" transform="scale(1 1) rotate(0) translate(4 657)">
<title>dfg</title>
<polygon fill="white" stroke="none" points="-4,4 -4,-657 458,-657 458,4 -4,4"/>
<!-- start_node -->
<g id="node1" class="node">
<title>start_node</title>
<ellipse fill="none" stroke="black" cx="178.5" cy="-635" rx="18" ry="18"/>
<text text-anchor="start" x="174" y="-631.3" font-family="Times,serif" font-size="14.00">●</text>
</g>
<!-- Create Purchase Order Item -->
<g id="node2" class="node">
<title>Create Purchase Order Item</title>
<polygon fill="#9b9bff" stroke="black" points="286,-479 71,-479 71,-443 286,-443 286,-479"/>
<text text-anchor="middle" x="178.5" y="-457.3" font-family="Times,serif" font-size="14.00">Create Purchase Order Item (40430)</text>
</g>
<!-- start_node&#45;&gt;Create Purchase Order Item -->
<g id="edge1" class="edge">
<title>start_node&#45;&gt;Create Purchase Order Item</title>
<path fill="none" stroke="#000000" stroke-width="5.09" d="M176.23,-616.71C174.54,-602.99 172.39,-583.3 171.5,-566 170.68,-550.02 170.68,-545.98 171.5,-530 172.08,-518.64 173.21,-506.26 174.39,-495.22"/>
<polygon fill="#000000" stroke="#000000" stroke-width="5.09" points="178.8,-495.95 175.51,-485.51 169.94,-494.93 178.8,-495.95"/>
<text text-anchor="middle" x="188.5" y="-544.3" font-family="Times,serif" font-size="14.00">34717</text>
</g>
<!-- Create Purchase Requisition Item -->
<g id="node3" class="node">
<title>Create Purchase Requisition Item</title>
<polygon fill="#ffffff" stroke="black" points="454,-566 215,-566 215,-530 454,-530 454,-566"/>
<text text-anchor="middle" x="334.5" y="-544.3" font-family="Times,serif" font-size="14.00">Create Purchase Requisition Item (5713)</text>
</g>
<!-- start_node&#45;&gt;Create Purchase Requisition Item -->
<g id="edge2" class="edge">
<title>start_node&#45;&gt;Create Purchase Requisition Item</title>
<path fill="none" stroke="#000000" stroke-width="0.5" d="M194.03,-625.54C216.97,-613.04 260.7,-589.21 293.31,-571.45"/>
<polygon fill="#000000" stroke="#000000" stroke-width="0.5" points="294.83,-574.6 301.94,-566.74 291.48,-568.45 294.83,-574.6"/>
<text text-anchor="middle" x="279.5" y="-587.8" font-family="Times,serif" font-size="14.00">5713</text>
</g>
<!-- Vendor creates invoice -->
<g id="node4" class="node">
<title>Vendor creates invoice</title>
<polygon fill="#9b9bff" stroke="black" points="207,-392 20,-392 20,-356 207,-356 207,-392"/>
<text text-anchor="middle" x="113.5" y="-370.3" font-family="Times,serif" font-size="14.00">Vendor creates invoice (40430)</text>
</g>
<!-- Create Purchase Order Item&#45;&gt;Vendor creates invoice -->
<g id="edge3" class="edge">
<title>Create Purchase Order Item&#45;&gt;Vendor creates invoice</title>
<path fill="none" stroke="#000000" stroke-width="4.68" d="M165.35,-442.8C157.12,-432.04 146.29,-417.88 136.66,-405.29"/>
<polygon fill="#000000" stroke="#000000" stroke-width="4.68" points="139.94,-402.83 130.61,-397.37 133.43,-407.81 139.94,-402.83"/>
<text text-anchor="middle" x="167.5" y="-413.8" font-family="Times,serif" font-size="14.00">32126</text>
</g>
<!-- Record Goods Receipt -->
<g id="node5" class="node">
<title>Record Goods Receipt</title>
<polygon fill="#9b9bff" stroke="black" points="311.5,-305 125.5,-305 125.5,-269 311.5,-269 311.5,-305"/>
<text text-anchor="middle" x="218.5" y="-283.3" font-family="Times,serif" font-size="14.00">Record Goods Receipt (40430)</text>
</g>
<!-- Create Purchase Order Item&#45;&gt;Record Goods Receipt -->
<g id="edge7" class="edge">
<title>Create Purchase Order Item&#45;&gt;Record Goods Receipt</title>
<path fill="none" stroke="#000000" stroke-width="0.91" d="M190.01,-442.54C198.29,-429.21 209.08,-410.11 215.5,-392 223.66,-369 223.27,-362.31 225.5,-338 226.11,-331.36 226.16,-329.63 225.5,-323 225.28,-320.83 225,-318.59 224.66,-316.34"/>
<polygon fill="#000000" stroke="#000000" stroke-width="0.91" points="228.14,-315.92 222.92,-306.7 221.25,-317.16 228.14,-315.92"/>
<text text-anchor="middle" x="238.5" y="-370.3" font-family="Times,serif" font-size="14.00">8304</text>
</g>
<!-- Create Purchase Requisition Item&#45;&gt;Create Purchase Order Item -->
<g id="edge10" class="edge">
<title>Create Purchase Requisition Item&#45;&gt;Create Purchase Order Item</title>
<path fill="none" stroke="#000000" stroke-width="0.5" d="M302.55,-529.59C278.58,-516.53 245.56,-498.54 219.61,-484.4"/>
<polygon fill="#000000" stroke="#000000" stroke-width="0.5" points="221.52,-481.46 211.07,-479.74 218.17,-487.6 221.52,-481.46"/>
<text text-anchor="middle" x="279.5" y="-500.8" font-family="Times,serif" font-size="14.00">5713</text>
</g>
<!-- Vendor creates invoice&#45;&gt;Record Goods Receipt -->
<g id="edge4" class="edge">
<title>Vendor creates invoice&#45;&gt;Record Goods Receipt</title>
<path fill="none" stroke="#000000" stroke-width="4.68" d="M145.85,-355.61C154.51,-350.39 163.63,-344.36 171.5,-338 179.12,-331.84 186.7,-324.48 193.47,-317.32"/>
<polygon fill="#000000" stroke="#000000" stroke-width="4.68" points="196.5,-320.09 200.16,-309.92 190.42,-314.59 196.5,-320.09"/>
<text text-anchor="middle" x="204.5" y="-326.8" font-family="Times,serif" font-size="14.00">32126</text>
</g>
<!-- Record Invoice Receipt -->
<g id="node6" class="node">
<title>Record Invoice Receipt</title>
<polygon fill="#9b9bff" stroke="black" points="191,-218 0,-218 0,-182 191,-182 191,-218"/>
<text text-anchor="middle" x="95.5" y="-196.3" font-family="Times,serif" font-size="14.00">Record Invoice Receipt (40430)</text>
</g>
<!-- Vendor creates invoice&#45;&gt;Record Invoice Receipt -->
<g id="edge9" class="edge">
<title>Vendor creates invoice&#45;&gt;Record Invoice Receipt</title>
<path fill="none" stroke="#000000" stroke-width="0.91" d="M105.15,-355.58C99.19,-342.12 91.67,-322.83 88.5,-305 84,-279.71 86.64,-250.5 89.89,-229.48"/>
<polygon fill="#000000" stroke="#000000" stroke-width="0.91" points="93.31,-230.24 91.54,-219.8 86.41,-229.07 93.31,-230.24"/>
<text text-anchor="middle" x="102.5" y="-283.3" font-family="Times,serif" font-size="14.00">8304</text>
</g>
<!-- Record Goods Receipt&#45;&gt;Vendor creates invoice -->
<g id="edge8" class="edge">
<title>Record Goods Receipt&#45;&gt;Vendor creates invoice</title>
<path fill="none" stroke="#000000" stroke-width="0.91" d="M165.7,-305.4C156.26,-310.1 147.04,-315.91 139.5,-323 132.86,-329.24 127.6,-337.56 123.61,-345.62"/>
<polygon fill="#000000" stroke="#000000" stroke-width="0.91" points="120.48,-344.05 119.63,-354.61 126.88,-346.88 120.48,-344.05"/>
<text text-anchor="middle" x="153.5" y="-326.8" font-family="Times,serif" font-size="14.00">8304</text>
</g>
<!-- Record Goods Receipt&#45;&gt;Record Invoice Receipt -->
<g id="edge5" class="edge">
<title>Record Goods Receipt&#45;&gt;Record Invoice Receipt</title>
<path fill="none" stroke="#000000" stroke-width="4.68" d="M193.31,-268.59C176.15,-256.73 153.11,-240.81 133.7,-227.4"/>
<polygon fill="#000000" stroke="#000000" stroke-width="4.68" points="136.29,-224.21 125.73,-221.89 131.63,-230.95 136.29,-224.21"/>
<text text-anchor="middle" x="181.5" y="-239.8" font-family="Times,serif" font-size="14.00">32126</text>
</g>
<!-- Clear Invoice -->
<g id="node7" class="node">
<title>Clear Invoice</title>
<polygon fill="#9b9bff" stroke="black" points="164,-131 27,-131 27,-95 164,-95 164,-131"/>
<text text-anchor="middle" x="95.5" y="-109.3" font-family="Times,serif" font-size="14.00">Clear Invoice (40430)</text>
</g>
<!-- Record Invoice Receipt&#45;&gt;Clear Invoice -->
<g id="edge6" class="edge">
<title>Record Invoice Receipt&#45;&gt;Clear Invoice</title>
<path fill="none" stroke="#000000" stroke-width="6" d="M95.5,-181.8C95.5,-171.96 95.5,-159.27 95.5,-147.53"/>
<polygon fill="#000000" stroke="#000000" stroke-width="6" points="100.75,-147.92 95.5,-137.92 90.25,-147.92 100.75,-147.92"/>
<text text-anchor="middle" x="112.5" y="-152.8" font-family="Times,serif" font-size="14.00">40430</text>
</g>
<!-- end_node -->
<g id="node8" class="node">
<title>end_node</title>
<ellipse fill="none" stroke="black" cx="95.5" cy="-22" rx="18" ry="18"/>
<ellipse fill="none" stroke="black" cx="95.5" cy="-22" rx="22" ry="22"/>
<text text-anchor="start" x="91" y="-18.3" font-family="Times,serif" font-size="14.00">■</text>
</g>
<!-- Clear Invoice&#45;&gt;end_node -->
<g id="edge11" class="edge">
<title>Clear Invoice&#45;&gt;end_node</title>
<path fill="none" stroke="#000000" stroke-width="6" d="M95.5,-94.84C95.5,-85.02 95.5,-72.3 95.5,-60.3"/>
<polygon fill="#000000" stroke="#000000" stroke-width="6" points="100.75,-60.64 95.5,-50.64 90.25,-60.64 100.75,-60.64"/>
<text text-anchor="middle" x="112.5" y="-65.8" font-family="Times,serif" font-size="14.00">40430</text>
</g>
</g>
</svg>
