<?xml version="1.0" encoding="UTF-8" standalone="no"?>
<!DOCTYPE svg PUBLIC "-//W3C//DTD SVG 1.1//EN"
 "http://www.w3.org/Graphics/SVG/1.1/DTD/svg11.dtd">
<!-- Generated by graphviz version 7.0.5 (0)
 -->
<!-- Title: dfg Pages: 1 -->
<svg width="493pt" height="748pt"
 viewBox="0.00 0.00 493.00 748.00" xmlns="http://www.w3.org/2000/svg" xmlns:xlink="http://www.w3.org/1999/xlink">
<g id="graph0" class="graph" transform="scale(1 1) rotate(0) translate(4 744)">
<title>dfg</title>
<polygon fill="white" stroke="none" points="-4,4 -4,-744 489,-744 489,4 -4,4"/>
<!-- start_node -->
<g id="node1" class="node">
<title>start_node</title>
<ellipse fill="none" stroke="black" cx="209.5" cy="-722" rx="18" ry="18"/>
<text text-anchor="start" x="205" y="-718.3" font-family="Times,serif" font-size="14.00">●</text>
</g>
<!-- Create Purchase Order Item -->
<g id="node2" class="node">
<title>Create Purchase Order Item</title>
<polygon fill="#9b9bff" stroke="black" points="317,-566 102,-566 102,-530 317,-530 317,-566"/>
<text text-anchor="middle" x="209.5" y="-544.3" font-family="Times,serif" font-size="14.00">Create Purchase Order Item (49734)</text>
</g>
<!-- start_node&#45;&gt;Create Purchase Order Item -->
<g id="edge1" class="edge">
<title>start_node&#45;&gt;Create Purchase Order Item</title>
<path fill="none" stroke="#000000" stroke-width="6.5" d="M207.23,-703.71C205.54,-689.99 203.39,-670.3 202.5,-653 201.68,-637.02 201.68,-632.98 202.5,-617 203.08,-605.78 204.18,-593.56 205.35,-582.61"/>
<polygon fill="#000000" stroke="#000000" stroke-width="6.5" points="210.98,-583.4 206.48,-572.82 199.68,-582.11 210.98,-583.4"/>
<text text-anchor="middle" x="219.5" y="-631.3" font-family="Times,serif" font-size="14.00">46328</text>
</g>
<!-- Create Purchase Requisition Item -->
<g id="node3" class="node">
<title>Create Purchase Requisition Item</title>
<polygon fill="#ffffff" stroke="black" points="485,-653 246,-653 246,-617 485,-617 485,-653"/>
<text text-anchor="middle" x="365.5" y="-631.3" font-family="Times,serif" font-size="14.00">Create Purchase Requisition Item (3406)</text>
</g>
<!-- start_node&#45;&gt;Create Purchase Requisition Item -->
<g id="edge2" class="edge">
<title>start_node&#45;&gt;Create Purchase Requisition Item</title>
<path fill="none" stroke="#000000" stroke-width="0.62" d="M225.03,-712.54C247.97,-700.04 291.7,-676.21 324.31,-658.45"/>
<polygon fill="#000000" stroke="#000000" stroke-width="0.62" points="325.68,-661.68 332.78,-653.83 322.33,-655.54 325.68,-661.68"/>
<text text-anchor="middle" x="310.5" y="-674.8" font-family="Times,serif" font-size="14.00">3406</text>
</g>
<!-- Record Goods Receipt -->
<g id="node4" class="node">
<title>Record Goods Receipt</title>
<polygon fill="#9b9bff" stroke="black" points="214.5,-392 28.5,-392 28.5,-356 214.5,-356 214.5,-392"/>
<text text-anchor="middle" x="121.5" y="-370.3" font-family="Times,serif" font-size="14.00">Record Goods Receipt (49734)</text>
</g>
<!-- Create Purchase Order Item&#45;&gt;Record Goods Receipt -->
<g id="edge3" class="edge">
<title>Create Purchase Order Item&#45;&gt;Record Goods Receipt</title>
<path fill="none" stroke="#000000" stroke-width="3.2" d="M127.15,-529.62C99.96,-519.55 72.58,-503.74 56.5,-479 39.65,-453.07 62.84,-423.09 86.06,-402"/>
<polygon fill="#000000" stroke="#000000" stroke-width="3.2" points="88.28,-404.71 93.61,-395.56 83.73,-399.39 88.28,-404.71"/>
<text text-anchor="middle" x="73.5" y="-457.3" font-family="Times,serif" font-size="14.00">22221</text>
</g>
<!-- Vendor creates invoice -->
<g id="node5" class="node">
<title>Vendor creates invoice</title>
<polygon fill="#9b9bff" stroke="black" points="344,-305 157,-305 157,-269 344,-269 344,-305"/>
<text text-anchor="middle" x="250.5" y="-283.3" font-family="Times,serif" font-size="14.00">Vendor creates invoice (49734)</text>
</g>
<!-- Create Purchase Order Item&#45;&gt;Vendor creates invoice -->
<g id="edge7" class="edge">
<title>Create Purchase Order Item&#45;&gt;Vendor creates invoice</title>
<path fill="none" stroke="#000000" stroke-width="2.05" d="M265.22,-529.52C289.14,-518.93 314.71,-502.77 328.5,-479 360.6,-423.69 309.98,-352.62 276.42,-314.68"/>
<polygon fill="#000000" stroke="#000000" stroke-width="2.05" points="279.31,-312.67 269.99,-307.63 274.14,-317.38 279.31,-312.67"/>
<text text-anchor="middle" x="354.5" y="-413.8" font-family="Times,serif" font-size="14.00">13873</text>
</g>
<!-- Receive Order Confirmation -->
<g id="node8" class="node">
<title>Receive Order Confirmation</title>
<polygon fill="#e8e8ff" stroke="black" points="319,-479 100,-479 100,-443 319,-443 319,-479"/>
<text text-anchor="middle" x="209.5" y="-457.3" font-family="Times,serif" font-size="14.00">Receive Order Confirmation (13640)</text>
</g>
<!-- Create Purchase Order Item&#45;&gt;Receive Order Confirmation -->
<g id="edge10" class="edge">
<title>Create Purchase Order Item&#45;&gt;Receive Order Confirmation</title>
<path fill="none" stroke="#000000" stroke-width="2.02" d="M209.5,-529.8C209.5,-519.04 209.5,-504.88 209.5,-492.29"/>
<polygon fill="#000000" stroke="#000000" stroke-width="2.02" points="213,-492.52 209.5,-482.52 206,-492.52 213,-492.52"/>
<text text-anchor="middle" x="226.5" y="-500.8" font-family="Times,serif" font-size="14.00">13640</text>
</g>
<!-- Create Purchase Requisition Item&#45;&gt;Create Purchase Order Item -->
<g id="edge13" class="edge">
<title>Create Purchase Requisition Item&#45;&gt;Create Purchase Order Item</title>
<path fill="none" stroke="#000000" stroke-width="0.62" d="M333.55,-616.59C309.68,-603.59 276.85,-585.7 250.95,-571.59"/>
<polygon fill="#000000" stroke="#000000" stroke-width="0.62" points="252.68,-568.54 242.22,-566.83 249.33,-574.69 252.68,-568.54"/>
<text text-anchor="middle" x="310.5" y="-587.8" font-family="Times,serif" font-size="14.00">3406</text>
</g>
<!-- Record Goods Receipt&#45;&gt;Vendor creates invoice -->
<g id="edge4" class="edge">
<title>Record Goods Receipt&#45;&gt;Vendor creates invoice</title>
<path fill="none" stroke="#000000" stroke-width="4.71" d="M125.31,-355.57C128.5,-344.83 134.08,-331.53 143.5,-323 147.61,-319.28 152.12,-315.95 156.89,-312.98"/>
<polygon fill="#000000" stroke="#000000" stroke-width="4.71" points="158.59,-316.75 165.47,-308.41 154.71,-309.47 158.59,-316.75"/>
<text text-anchor="middle" x="160.5" y="-326.8" font-family="Times,serif" font-size="14.00">33311</text>
</g>
<!-- Record Invoice Receipt -->
<g id="node6" class="node">
<title>Record Invoice Receipt</title>
<polygon fill="#9b9bff" stroke="black" points="216,-218 25,-218 25,-182 216,-182 216,-218"/>
<text text-anchor="middle" x="120.5" y="-196.3" font-family="Times,serif" font-size="14.00">Record Invoice Receipt (49734)</text>
</g>
<!-- Record Goods Receipt&#45;&gt;Record Invoice Receipt -->
<g id="edge9" class="edge">
<title>Record Goods Receipt&#45;&gt;Record Invoice Receipt</title>
<path fill="none" stroke="#000000" stroke-width="2.4" d="M118.9,-355.72C116.97,-342.01 114.52,-322.33 113.5,-305 112.05,-280.31 114.15,-252.35 116.41,-231.64"/>
<polygon fill="#000000" stroke="#000000" stroke-width="2.4" points="119.86,-232.24 117.57,-221.9 112.91,-231.41 119.86,-232.24"/>
<text text-anchor="middle" x="130.5" y="-283.3" font-family="Times,serif" font-size="14.00">16423</text>
</g>
<!-- Vendor creates invoice&#45;&gt;Record Goods Receipt -->
<g id="edge8" class="edge">
<title>Vendor creates invoice&#45;&gt;Record Goods Receipt</title>
<path fill="none" stroke="#000000" stroke-width="2.4" d="M225.67,-305.39C211.63,-315.12 193.69,-327.4 177.5,-338 172.2,-341.47 166.59,-345.07 161.03,-348.58"/>
<polygon fill="#000000" stroke="#000000" stroke-width="2.4" points="159.53,-345.39 152.93,-353.67 163.26,-351.32 159.53,-345.39"/>
<text text-anchor="middle" x="217.5" y="-326.8" font-family="Times,serif" font-size="14.00">16423</text>
</g>
<!-- Vendor creates invoice&#45;&gt;Record Invoice Receipt -->
<g id="edge5" class="edge">
<title>Vendor creates invoice&#45;&gt;Record Invoice Receipt</title>
<path fill="none" stroke="#000000" stroke-width="4.71" d="M223.88,-268.59C205.65,-256.68 181.15,-240.66 160.58,-227.2"/>
<polygon fill="#000000" stroke="#000000" stroke-width="4.71" points="162.89,-223.79 152.26,-221.77 158.37,-230.69 162.89,-223.79"/>
<text text-anchor="middle" x="210.5" y="-239.8" font-family="Times,serif" font-size="14.00">33311</text>
</g>
<!-- Clear Invoice -->
<g id="node7" class="node">
<title>Clear Invoice</title>
<polygon fill="#aaaaff" stroke="black" points="137,-131 0,-131 0,-95 137,-95 137,-131"/>
<text text-anchor="middle" x="68.5" y="-109.3" font-family="Times,serif" font-size="14.00">Clear Invoice (42694)</text>
</g>
<!-- Record Invoice Receipt&#45;&gt;Clear Invoice -->
<g id="edge6" class="edge">
<title>Record Invoice Receipt&#45;&gt;Clear Invoice</title>
<path fill="none" stroke="#000000" stroke-width="6" d="M109.98,-181.8C103.61,-171.38 95.28,-157.78 87.77,-145.5"/>
<polygon fill="#000000" stroke="#000000" stroke-width="6" points="92.25,-142.76 82.55,-136.97 83.29,-148.24 92.25,-142.76"/>
<text text-anchor="middle" x="115.5" y="-152.8" font-family="Times,serif" font-size="14.00">42694</text>
</g>
<!-- end_node -->
<g id="node9" class="node">
<title>end_node</title>
<ellipse fill="none" stroke="black" cx="120.5" cy="-22" rx="18" ry="18"/>
<ellipse fill="none" stroke="black" cx="120.5" cy="-22" rx="22" ry="22"/>
<text text-anchor="start" x="116" y="-18.3" font-family="Times,serif" font-size="14.00">■</text>
</g>
<!-- Record Invoice Receipt&#45;&gt;end_node -->
<g id="edge15" class="edge">
<title>Record Invoice Receipt&#45;&gt;end_node</title>
<path fill="none" stroke="#000000" stroke-width="1.12" d="M129.29,-181.65C135.49,-168.22 143.1,-148.95 145.5,-131 149.6,-100.35 146.46,-91.28 136.5,-62 135.55,-59.21 134.51,-56.34 133.42,-53.47"/>
<polygon fill="#000000" stroke="#000000" stroke-width="1.12" points="136.69,-52.23 129.74,-44.23 130.19,-54.82 136.69,-52.23"/>
<text text-anchor="middle" x="161.5" y="-109.3" font-family="Times,serif" font-size="14.00">7040</text>
</g>
<!-- Clear Invoice&#45;&gt;end_node -->
<g id="edge14" class="edge">
<title>Clear Invoice&#45;&gt;end_node</title>
<path fill="none" stroke="#000000" stroke-width="6" d="M78.53,-94.84C85,-83.76 93.64,-68.98 101.39,-55.71"/>
<polygon fill="#000000" stroke="#000000" stroke-width="6" points="105.84,-58.5 106.35,-47.22 96.77,-53.2 105.84,-58.5"/>
<text text-anchor="middle" x="115.5" y="-65.8" font-family="Times,serif" font-size="14.00">42694</text>
</g>
<!-- Receive Order Confirmation&#45;&gt;Record Goods Receipt -->
<g id="edge11" class="edge">
<title>Receive Order Confirmation&#45;&gt;Record Goods Receipt</title>
<path fill="none" stroke="#000000" stroke-width="1.67" d="M191.69,-442.8C179.25,-430.78 162.42,-414.52 148.35,-400.94"/>
<polygon fill="#000000" stroke="#000000" stroke-width="1.67" points="151.03,-398.65 141.4,-394.22 146.16,-403.69 151.03,-398.65"/>
<text text-anchor="middle" x="188.5" y="-413.8" font-family="Times,serif" font-size="14.00">11090</text>
</g>
<!-- Receive Order Confirmation&#45;&gt;Vendor creates invoice -->
<g id="edge12" class="edge">
<title>Receive Order Confirmation&#45;&gt;Vendor creates invoice</title>
<path fill="none" stroke="#000000" stroke-width="0.5" d="M213.66,-442.56C220.78,-412.69 235.37,-351.48 243.9,-315.71"/>
<polygon fill="#000000" stroke="#000000" stroke-width="0.5" points="247.24,-316.76 246.16,-306.22 240.43,-315.14 247.24,-316.76"/>
<text text-anchor="middle" x="248.5" y="-370.3" font-family="Times,serif" font-size="14.00">2550</text>
</g>
</g>
</svg>
