<?xml version="1.0" encoding="UTF-8" standalone="no"?>
<!DOCTYPE svg PUBLIC "-//W3C//DTD SVG 1.1//EN"
 "http://www.w3.org/Graphics/SVG/1.1/DTD/svg11.dtd">
<!-- Generated by graphviz version 7.0.5 (0)
 -->
<!-- Title: dfg Pages: 1 -->
<svg width="896pt" height="595pt"
 viewBox="0.00 0.00 895.50 595.00" xmlns="http://www.w3.org/2000/svg" xmlns:xlink="http://www.w3.org/1999/xlink">
<g id="graph0" class="graph" transform="scale(1 1) rotate(0) translate(4 591)">
<title>dfg</title>
<polygon fill="white" stroke="none" points="-4,4 -4,-591 891.5,-591 891.5,4 -4,4"/>
<!-- start_node -->
<g id="node1" class="node">
<title>start_node</title>
<ellipse fill="none" stroke="black" cx="559.5" cy="-569" rx="18" ry="18"/>
<text text-anchor="start" x="555" y="-565.3" font-family="Times,serif" font-size="14.00">●</text>
</g>
<!-- Create Purchase Order Item -->
<g id="node2" class="node">
<title>Create Purchase Order Item</title>
<polygon fill="#9b9bff" stroke="black" points="667,-413 452,-413 452,-377 667,-377 667,-413"/>
<text text-anchor="middle" x="559.5" y="-391.3" font-family="Times,serif" font-size="14.00">Create Purchase Order Item (18810)</text>
</g>
<!-- start_node&#45;&gt;Create Purchase Order Item -->
<g id="edge1" class="edge">
<title>start_node&#45;&gt;Create Purchase Order Item</title>
<path fill="none" stroke="#000000" stroke-width="7.51" d="M557.23,-550.71C555.54,-536.99 553.39,-517.3 552.5,-500 551.68,-484.02 551.68,-479.98 552.5,-464 553.07,-452.91 554.16,-440.85 555.31,-430.01"/>
<polygon fill="#000000" stroke="#000000" stroke-width="7.51" points="561.83,-430.77 556.45,-420.08 548.78,-429.27 561.83,-430.77"/>
<text text-anchor="middle" x="569.5" y="-478.3" font-family="Times,serif" font-size="14.00">14191</text>
</g>
<!-- Create Purchase Requisition Item -->
<g id="node3" class="node">
<title>Create Purchase Requisition Item</title>
<polygon fill="#e6e6ff" stroke="black" points="835,-500 596,-500 596,-464 835,-464 835,-500"/>
<text text-anchor="middle" x="715.5" y="-478.3" font-family="Times,serif" font-size="14.00">Create Purchase Requisition Item (4619)</text>
</g>
<!-- start_node&#45;&gt;Create Purchase Requisition Item -->
<g id="edge2" class="edge">
<title>start_node&#45;&gt;Create Purchase Requisition Item</title>
<path fill="none" stroke="#000000" stroke-width="2.75" d="M575.03,-559.54C597.28,-547.42 639.09,-524.63 671.34,-507.06"/>
<polygon fill="#000000" stroke="#000000" stroke-width="2.75" points="672.84,-510.23 679.95,-502.37 669.49,-504.08 672.84,-510.23"/>
<text text-anchor="middle" x="660.5" y="-521.8" font-family="Times,serif" font-size="14.00">4619</text>
</g>
<!-- Record Goods Receipt -->
<g id="node4" class="node">
<title>Record Goods Receipt</title>
<polygon fill="#b5b5ff" stroke="black" points="567.5,-218 381.5,-218 381.5,-182 567.5,-182 567.5,-218"/>
<text text-anchor="middle" x="474.5" y="-196.3" font-family="Times,serif" font-size="14.00">Record Goods Receipt (13756)</text>
</g>
<!-- Create Purchase Order Item&#45;&gt;Record Goods Receipt -->
<g id="edge3" class="edge">
<title>Create Purchase Order Item&#45;&gt;Record Goods Receipt</title>
<path fill="none" stroke="#000000" stroke-width="6" d="M513.87,-376.5C492.03,-365.54 467.97,-349.05 455.5,-326 439.93,-297.22 448.94,-259.58 459.17,-233.15"/>
<polygon fill="#000000" stroke="#000000" stroke-width="6" points="463.87,-235.51 462.97,-224.26 454.21,-231.39 463.87,-235.51"/>
<text text-anchor="middle" x="472.5" y="-304.3" font-family="Times,serif" font-size="14.00">11159</text>
</g>
<!-- Delete Purchase Order Item -->
<g id="node5" class="node">
<title>Delete Purchase Order Item</title>
<polygon fill="#eaeaff" stroke="black" points="276,-218 67,-218 67,-182 276,-182 276,-218"/>
<text text-anchor="middle" x="171.5" y="-196.3" font-family="Times,serif" font-size="14.00">Delete Purchase Order Item (4016)</text>
</g>
<!-- Create Purchase Order Item&#45;&gt;Delete Purchase Order Item -->
<g id="edge4" class="edge">
<title>Create Purchase Order Item&#45;&gt;Delete Purchase Order Item</title>
<path fill="none" stroke="#000000" stroke-width="2.02" d="M451.76,-390.73C346.84,-385 198,-369.26 161.5,-326 139.32,-299.71 148.33,-258.27 158.47,-230.38"/>
<polygon fill="#000000" stroke="#000000" stroke-width="2.02" points="161.71,-231.7 162.13,-221.11 155.2,-229.13 161.71,-231.7"/>
<text text-anchor="middle" x="175.5" y="-304.3" font-family="Times,serif" font-size="14.00">3150</text>
</g>
<!-- Receive Order Confirmation -->
<g id="node6" class="node">
<title>Receive Order Confirmation</title>
<polygon fill="#f4f4ff" stroke="black" points="410.5,-326 198.5,-326 198.5,-290 410.5,-290 410.5,-326"/>
<text text-anchor="middle" x="304.5" y="-304.3" font-family="Times,serif" font-size="14.00">Receive Order Confirmation (1963)</text>
</g>
<!-- Create Purchase Order Item&#45;&gt;Receive Order Confirmation -->
<g id="edge6" class="edge">
<title>Create Purchase Order Item&#45;&gt;Receive Order Confirmation</title>
<path fill="none" stroke="#000000" stroke-width="1.43" d="M465.43,-376.59C445.07,-371.76 423.86,-365.91 404.5,-359 384.21,-351.76 362.73,-341.4 344.89,-331.99"/>
<polygon fill="#000000" stroke="#000000" stroke-width="1.43" points="346.67,-328.97 336.21,-327.31 343.35,-335.14 346.67,-328.97"/>
<text text-anchor="middle" x="418.5" y="-347.8" font-family="Times,serif" font-size="14.00">1963</text>
</g>
<!-- Change Quantity -->
<g id="node7" class="node">
<title>Change Quantity</title>
<polygon fill="#fbfbff" stroke="black" points="780.5,-326 638.5,-326 638.5,-290 780.5,-290 780.5,-326"/>
<text text-anchor="middle" x="709.5" y="-304.3" font-family="Times,serif" font-size="14.00">Change Quantity (697)</text>
</g>
<!-- Create Purchase Order Item&#45;&gt;Change Quantity -->
<g id="edge10" class="edge">
<title>Create Purchase Order Item&#45;&gt;Change Quantity</title>
<path fill="none" stroke="#000000" stroke-width="0.8" d="M590.22,-376.59C613.07,-363.64 644.47,-345.85 669.31,-331.77"/>
<polygon fill="#000000" stroke="#000000" stroke-width="0.8" points="670.79,-334.96 677.77,-326.98 667.34,-328.87 670.79,-334.96"/>
<text text-anchor="middle" x="654" y="-347.8" font-family="Times,serif" font-size="14.00">697</text>
</g>
<!-- Change Price -->
<g id="node9" class="node">
<title>Change Price</title>
<polygon fill="#fefeff" stroke="black" points="620.5,-326 498.5,-326 498.5,-290 620.5,-290 620.5,-326"/>
<text text-anchor="middle" x="559.5" y="-304.3" font-family="Times,serif" font-size="14.00">Change Price (119)</text>
</g>
<!-- Create Purchase Order Item&#45;&gt;Change Price -->
<g id="edge13" class="edge">
<title>Create Purchase Order Item&#45;&gt;Change Price</title>
<path fill="none" stroke="#ff0000" stroke-width="0.52" stroke-dasharray="5,2" d="M559.5,-376.8C559.5,-365.35 559.5,-350.06 559.5,-336.89"/>
<polygon fill="#ff0000" stroke="#ff0000" stroke-width="0.52" points="563,-337.25 559.5,-327.25 556,-337.25 563,-337.25"/>
<text text-anchor="middle" x="570" y="-347.8" font-family="Times,serif" font-size="14.00">119</text>
</g>
<!-- Change Delivery Indicator -->
<g id="node10" class="node">
<title>Change Delivery Indicator</title>
<polygon fill="#fefeff" stroke="black" points="844.5,-272 656.5,-272 656.5,-236 844.5,-236 844.5,-272"/>
<text text-anchor="middle" x="750.5" y="-250.3" font-family="Times,serif" font-size="14.00">Change Delivery Indicator (88)</text>
</g>
<!-- Create Purchase Order Item&#45;&gt;Change Delivery Indicator -->
<g id="edge15" class="edge">
<title>Create Purchase Order Item&#45;&gt;Change Delivery Indicator</title>
<path fill="none" stroke="#ff0000" stroke-width="0.5" stroke-dasharray="5,2" d="M660.03,-376.55C714.24,-364.88 773.3,-347.68 789.5,-326 799.08,-313.18 796.02,-304.61 789.5,-290 787.97,-286.57 785.92,-283.34 783.56,-280.33"/>
<polygon fill="#ff0000" stroke="#ff0000" stroke-width="0.5" points="786.13,-277.96 776.76,-273.01 781,-282.72 786.13,-277.96"/>
<text text-anchor="middle" x="770.5" y="-347.8" font-family="Times,serif" font-size="14.00">88</text>
</g>
<!-- end_node -->
<g id="node12" class="node">
<title>end_node</title>
<ellipse fill="none" stroke="black" cx="547.5" cy="-22" rx="18" ry="18"/>
<ellipse fill="none" stroke="black" cx="547.5" cy="-22" rx="22" ry="22"/>
<text text-anchor="start" x="543" y="-18.3" font-family="Times,serif" font-size="14.00">■</text>
</g>
<!-- Create Purchase Order Item&#45;&gt;end_node -->
<g id="edge19" class="edge">
<title>Create Purchase Order Item&#45;&gt;end_node</title>
<path fill="none" stroke="#000000" stroke-width="1.27" d="M667.38,-383.74C753.39,-372.47 859.5,-350.21 859.5,-309 859.5,-309 859.5,-309 859.5,-112 859.5,-54.54 661.33,-32.14 580.86,-25.41"/>
<polygon fill="#000000" stroke="#000000" stroke-width="1.27" points="581.6,-21.96 571.35,-24.65 581.04,-28.94 581.6,-21.96"/>
<text text-anchor="middle" x="873.5" y="-196.3" font-family="Times,serif" font-size="14.00">1634</text>
</g>
<!-- Create Purchase Requisition Item&#45;&gt;Create Purchase Order Item -->
<g id="edge5" class="edge">
<title>Create Purchase Requisition Item&#45;&gt;Create Purchase Order Item</title>
<path fill="none" stroke="#000000" stroke-width="2.75" d="M683.55,-463.59C660.53,-451.05 629.15,-433.95 603.72,-420.09"/>
<polygon fill="#000000" stroke="#000000" stroke-width="2.75" points="605.51,-417.09 595.06,-415.38 602.17,-423.23 605.51,-417.09"/>
<text text-anchor="middle" x="660.5" y="-434.8" font-family="Times,serif" font-size="14.00">4619</text>
</g>
<!-- Record Goods Receipt&#45;&gt;Record Goods Receipt -->
<g id="edge8" class="edge">
<title>Record Goods Receipt&#45;&gt;Record Goods Receipt</title>
<path fill="none" stroke="#000000" stroke-width="0.9" d="M567.62,-206.96C578.45,-205.68 585.5,-203.36 585.5,-200 585.5,-198.01 583.02,-196.38 578.73,-195.12"/>
<polygon fill="#000000" stroke="#000000" stroke-width="0.9" points="579.43,-191.69 568.96,-193.29 578.14,-198.57 579.43,-191.69"/>
<text text-anchor="middle" x="596" y="-196.3" font-family="Times,serif" font-size="14.00">890</text>
</g>
<!-- Record Invoice Receipt -->
<g id="node8" class="node">
<title>Record Invoice Receipt</title>
<polygon fill="#fefeff" stroke="black" points="543.5,-131 365.5,-131 365.5,-95 543.5,-95 543.5,-131"/>
<text text-anchor="middle" x="454.5" y="-109.3" font-family="Times,serif" font-size="14.00">Record Invoice Receipt (264)</text>
</g>
<!-- Record Goods Receipt&#45;&gt;Record Invoice Receipt -->
<g id="edge12" class="edge">
<title>Record Goods Receipt&#45;&gt;Record Invoice Receipt</title>
<path fill="none" stroke="#ff0000" stroke-width="0.59" stroke-dasharray="5,2" d="M470.45,-181.8C467.76,-170.35 464.16,-155.06 461.06,-141.89"/>
<polygon fill="#ff0000" stroke="#ff0000" stroke-width="0.59" points="464.51,-141.27 458.81,-132.33 457.7,-142.87 464.51,-141.27"/>
<text text-anchor="middle" x="477" y="-152.8" font-family="Times,serif" font-size="14.00">264</text>
</g>
<!-- Record Goods Receipt&#45;&gt;end_node -->
<g id="edge17" class="edge">
<title>Record Goods Receipt&#45;&gt;end_node</title>
<path fill="none" stroke="#000000" stroke-width="6.72" d="M505.16,-181.52C522.56,-169.73 542.76,-152.42 552.5,-131 562.62,-108.76 561.15,-81.2 557.27,-59.49"/>
<polygon fill="#000000" stroke="#000000" stroke-width="6.72" points="563.08,-58.56 555.21,-50.03 551.59,-61.05 563.08,-58.56"/>
<text text-anchor="middle" x="577.5" y="-109.3" font-family="Times,serif" font-size="14.00">12602</text>
</g>
<!-- Change Approval for Purchase Order -->
<g id="node11" class="node">
<title>Change Approval for Purchase Order</title>
<polygon fill="#ffffff" stroke="black" points="245,-131 0,-131 0,-95 245,-95 245,-131"/>
<text text-anchor="middle" x="122.5" y="-109.3" font-family="Times,serif" font-size="14.00">Change Approval for Purchase Order (87)</text>
</g>
<!-- Delete Purchase Order Item&#45;&gt;Change Approval for Purchase Order -->
<g id="edge16" class="edge">
<title>Delete Purchase Order Item&#45;&gt;Change Approval for Purchase Order</title>
<path fill="none" stroke="#ff0000" stroke-width="0.5" stroke-dasharray="5,2" d="M161.58,-181.8C154.79,-170.01 145.64,-154.14 137.9,-140.72"/>
<polygon fill="#ff0000" stroke="#ff0000" stroke-width="0.5" points="140.97,-139.04 132.95,-132.12 134.91,-142.53 140.97,-139.04"/>
<text text-anchor="middle" x="157.5" y="-152.8" font-family="Times,serif" font-size="14.00">87</text>
</g>
<!-- Delete Purchase Order Item&#45;&gt;end_node -->
<g id="edge18" class="edge">
<title>Delete Purchase Order Item&#45;&gt;end_node</title>
<path fill="none" stroke="#000000" stroke-width="2.41" d="M193.51,-181.6C210.27,-168.15 233.75,-148.86 253.5,-131 285.9,-101.7 284.66,-81.99 323.5,-62 384.44,-30.64 465.76,-23.88 511.78,-22.77"/>
<polygon fill="#000000" stroke="#000000" stroke-width="2.41" points="511.54,-26.28 521.49,-22.64 511.44,-19.28 511.54,-26.28"/>
<text text-anchor="middle" x="298.5" y="-109.3" font-family="Times,serif" font-size="14.00">3929</text>
</g>
<!-- Receive Order Confirmation&#45;&gt;Record Goods Receipt -->
<g id="edge9" class="edge">
<title>Receive Order Confirmation&#45;&gt;Record Goods Receipt</title>
<path fill="none" stroke="#000000" stroke-width="0.95" d="M329.65,-289.5C351.1,-274.77 382.93,-253.38 411.5,-236 418.26,-231.89 425.53,-227.67 432.64,-223.65"/>
<polygon fill="#000000" stroke="#000000" stroke-width="0.95" points="433.89,-226.96 440.91,-219.03 430.48,-220.85 433.89,-226.96"/>
<text text-anchor="middle" x="422" y="-250.3" font-family="Times,serif" font-size="14.00">997</text>
</g>
<!-- Receive Order Confirmation&#45;&gt;Delete Purchase Order Item -->
<g id="edge7" class="edge">
<title>Receive Order Confirmation&#45;&gt;Delete Purchase Order Item</title>
<path fill="none" stroke="#000000" stroke-width="0.89" d="M282.84,-289.73C260.81,-272.18 226.5,-244.83 201.78,-225.14"/>
<polygon fill="#000000" stroke="#000000" stroke-width="0.89" points="204.21,-222.59 194.21,-219.1 199.84,-228.07 204.21,-222.59"/>
<text text-anchor="middle" x="269" y="-250.3" font-family="Times,serif" font-size="14.00">866</text>
</g>
<!-- Receive Order Confirmation&#45;&gt;end_node -->
<g id="edge22" class="edge">
<title>Receive Order Confirmation&#45;&gt;end_node</title>
<path fill="none" stroke="#ff0000" stroke-width="0.51" stroke-dasharray="5,2" d="M303.67,-289.74C302.73,-250.18 305.96,-151.99 356.5,-95 397.61,-48.63 471.68,-32.02 514.5,-26.14"/>
<polygon fill="#ff0000" stroke="#ff0000" stroke-width="0.51" points="514.93,-29.61 524.42,-24.9 514.07,-22.67 514.93,-29.61"/>
<text text-anchor="middle" x="336" y="-152.8" font-family="Times,serif" font-size="14.00">100</text>
</g>
<!-- Change Quantity&#45;&gt;Record Goods Receipt -->
<g id="edge11" class="edge">
<title>Change Quantity&#45;&gt;Record Goods Receipt</title>
<path fill="none" stroke="#000000" stroke-width="0.75" d="M648.67,-289.56C634.5,-284.62 619.71,-278.73 606.5,-272 581.78,-259.41 579.7,-249.58 555.5,-236 547.25,-231.37 538.26,-226.94 529.38,-222.88"/>
<polygon fill="#000000" stroke="#000000" stroke-width="0.75" points="531.04,-219.78 520.48,-218.92 528.19,-226.18 531.04,-219.78"/>
<text text-anchor="middle" x="617" y="-250.3" font-family="Times,serif" font-size="14.00">591</text>
</g>
<!-- Change Quantity&#45;&gt;end_node -->
<g id="edge21" class="edge">
<title>Change Quantity&#45;&gt;end_node</title>
<path fill="none" stroke="#ff0000" stroke-width="0.51" stroke-dasharray="5,2" d="M674.89,-289.61C667.7,-284.72 660.73,-278.83 655.5,-272 605.25,-206.39 635.48,-168.91 598.5,-95 590.12,-78.26 578.12,-61.09 567.86,-47.72"/>
<polygon fill="#ff0000" stroke="#ff0000" stroke-width="0.51" points="570.83,-45.83 561.9,-40.13 565.33,-50.16 570.83,-45.83"/>
<text text-anchor="middle" x="630" y="-152.8" font-family="Times,serif" font-size="14.00">106</text>
</g>
<!-- Record Invoice Receipt&#45;&gt;end_node -->
<g id="edge20" class="edge">
<title>Record Invoice Receipt&#45;&gt;end_node</title>
<path fill="none" stroke="#ff0000" stroke-width="0.59" stroke-dasharray="5,2" d="M472.43,-94.84C487.22,-80.69 508.3,-60.51 524.36,-45.15"/>
<polygon fill="#ff0000" stroke="#ff0000" stroke-width="0.59" points="526.34,-48.09 531.15,-38.65 521.5,-43.04 526.34,-48.09"/>
<text text-anchor="middle" x="518" y="-65.8" font-family="Times,serif" font-size="14.00">264</text>
</g>
<!-- Change Price&#45;&gt;Record Goods Receipt -->
<g id="edge14" class="edge">
<title>Change Price&#45;&gt;Record Goods Receipt</title>
<path fill="none" stroke="#ff0000" stroke-width="0.52" stroke-dasharray="5,2" d="M545.84,-289.97C532.11,-272.84 510.76,-246.22 495,-226.56"/>
<polygon fill="#ff0000" stroke="#ff0000" stroke-width="0.52" points="497.88,-224.56 488.89,-218.95 492.42,-228.94 497.88,-224.56"/>
<text text-anchor="middle" x="541" y="-250.3" font-family="Times,serif" font-size="14.00">119</text>
</g>
<!-- Change Delivery Indicator&#45;&gt;end_node -->
<g id="edge23" class="edge">
<title>Change Delivery Indicator&#45;&gt;end_node</title>
<path fill="none" stroke="#ff0000" stroke-width="0.5" stroke-dasharray="5,2" d="M746.51,-235.54C737.14,-198.36 710.25,-110.79 655.5,-62 634.3,-43.11 603.26,-33.17 579.89,-28.06"/>
<polygon fill="#ff0000" stroke="#ff0000" stroke-width="0.5" points="580.66,-24.65 570.17,-26.13 579.3,-31.51 580.66,-24.65"/>
<text text-anchor="middle" x="728.5" y="-152.8" font-family="Times,serif" font-size="14.00">88</text>
</g>
<!-- Change Approval for Purchase Order&#45;&gt;end_node -->
<g id="edge24" class="edge">
<title>Change Approval for Purchase Order&#45;&gt;end_node</title>
<path fill="none" stroke="#ff0000" stroke-width="0.5" stroke-dasharray="5,2" d="M161,-94.58C186.7,-83.64 221.53,-70.1 253.5,-62 346.65,-38.39 460.25,-28.48 514.97,-24.84"/>
<polygon fill="#ff0000" stroke="#ff0000" stroke-width="0.5" points="514.9,-28.35 524.65,-24.22 514.45,-21.36 514.9,-28.35"/>
<text text-anchor="middle" x="260.5" y="-65.8" font-family="Times,serif" font-size="14.00">87</text>
</g>
</g>
</svg>
