<?xml version="1.0" encoding="UTF-8" standalone="no"?>
<!DOCTYPE svg PUBLIC "-//W3C//DTD SVG 1.1//EN"
 "http://www.w3.org/Graphics/SVG/1.1/DTD/svg11.dtd">
<!-- Generated by graphviz version 7.0.5 (0)
 -->
<!-- Title: dfg Pages: 1 -->
<svg width="1188pt" height="856pt"
 viewBox="0.00 0.00 1188.15 856.00" xmlns="http://www.w3.org/2000/svg" xmlns:xlink="http://www.w3.org/1999/xlink">
<g id="graph0" class="graph" transform="scale(1 1) rotate(0) translate(4 852)">
<title>dfg</title>
<polygon fill="white" stroke="none" points="-4,4 -4,-852 1184.15,-852 1184.15,4 -4,4"/>
<!-- start_node -->
<g id="node1" class="node">
<title>start_node</title>
<ellipse fill="none" stroke="black" cx="938.15" cy="-830" rx="18" ry="18"/>
<text text-anchor="start" x="933.65" y="-826.3" font-family="Times,serif" font-size="14.00">●</text>
</g>
<!-- Create Purchase Order Item -->
<g id="node2" class="node">
<title>Create Purchase Order Item</title>
<polygon fill="#fbfbff" stroke="black" points="1035.65,-674 840.65,-674 840.65,-638 1035.65,-638 1035.65,-674"/>
<text text-anchor="middle" x="938.15" y="-652.3" font-family="Times,serif" font-size="14.00">Create Purchase Order Item (72)</text>
</g>
<!-- start_node&#45;&gt;Create Purchase Order Item -->
<g id="edge1" class="edge">
<title>start_node&#45;&gt;Create Purchase Order Item</title>
<path fill="none" stroke="#ff0000" stroke-width="0.65" stroke-dasharray="5,2" d="M935.88,-811.71C934.19,-797.99 932.04,-778.3 931.15,-761 930.33,-745.02 930.33,-740.98 931.15,-725 931.82,-711.89 933.22,-697.41 934.59,-685.19"/>
<polygon fill="#ff0000" stroke="#ff0000" stroke-width="0.65" points="938.07,-685.61 935.76,-675.27 931.12,-684.79 938.07,-685.61"/>
<text text-anchor="middle" x="938.15" y="-739.3" font-family="Times,serif" font-size="14.00">58</text>
</g>
<!-- Create Purchase Requisition Item -->
<g id="node3" class="node">
<title>Create Purchase Requisition Item</title>
<polygon fill="#fefeff" stroke="black" points="1180.15,-761 954.15,-761 954.15,-725 1180.15,-725 1180.15,-761"/>
<text text-anchor="middle" x="1067.15" y="-739.3" font-family="Times,serif" font-size="14.00">Create Purchase Requisition Item (14)</text>
</g>
<!-- start_node&#45;&gt;Create Purchase Requisition Item -->
<g id="edge2" class="edge">
<title>start_node&#45;&gt;Create Purchase Requisition Item</title>
<path fill="none" stroke="#ff0000" stroke-width="0.53" stroke-dasharray="5,2" d="M952.95,-819.25C972.13,-806.61 1006.19,-784.17 1032.14,-767.07"/>
<polygon fill="#ff0000" stroke="#ff0000" stroke-width="0.53" points="1033.84,-770.14 1040.26,-761.72 1029.99,-764.3 1033.84,-770.14"/>
<text text-anchor="middle" x="1017.15" y="-782.8" font-family="Times,serif" font-size="14.00">14</text>
</g>
<!-- Vendor creates invoice -->
<g id="node4" class="node">
<title>Vendor creates invoice</title>
<polygon fill="#fafaff" stroke="black" points="629.65,-587 462.65,-587 462.65,-551 629.65,-551 629.65,-587"/>
<text text-anchor="middle" x="546.15" y="-565.3" font-family="Times,serif" font-size="14.00">Vendor creates invoice (98)</text>
</g>
<!-- Create Purchase Order Item&#45;&gt;Vendor creates invoice -->
<g id="edge3" class="edge">
<title>Create Purchase Order Item&#45;&gt;Vendor creates invoice</title>
<path fill="none" stroke="#ff0000" stroke-width="0.65" stroke-dasharray="5,2" d="M857.88,-637.59C793.77,-623.69 703.94,-604.21 637.16,-589.73"/>
<polygon fill="#ff0000" stroke="#ff0000" stroke-width="0.65" points="638.13,-586.36 627.62,-587.66 636.65,-593.2 638.13,-586.36"/>
<text text-anchor="middle" x="773.15" y="-608.8" font-family="Times,serif" font-size="14.00">59</text>
</g>
<!-- Record Goods Receipt -->
<g id="node5" class="node">
<title>Record Goods Receipt</title>
<polygon fill="#9b9bff" stroke="black" points="871.65,-392 692.65,-392 692.65,-356 871.65,-356 871.65,-392"/>
<text text-anchor="middle" x="782.15" y="-370.3" font-family="Times,serif" font-size="14.00">Record Goods Receipt (2187)</text>
</g>
<!-- Create Purchase Order Item&#45;&gt;Record Goods Receipt -->
<g id="edge18" class="edge">
<title>Create Purchase Order Item&#45;&gt;Record Goods Receipt</title>
<path fill="none" stroke="#ff0000" stroke-width="0.51" stroke-dasharray="5,2" d="M929.84,-637.64C910.14,-596.94 858.42,-492.57 807.15,-410 805.3,-407.02 803.28,-403.95 801.23,-400.93"/>
<polygon fill="#ff0000" stroke="#ff0000" stroke-width="0.51" points="804.12,-398.96 795.51,-392.78 798.39,-402.98 804.12,-398.96"/>
<text text-anchor="middle" x="880.65" y="-511.3" font-family="Times,serif" font-size="14.00">6</text>
</g>
<!-- Change Price -->
<g id="node8" class="node">
<title>Change Price</title>
<polygon fill="#fefeff" stroke="black" points="1095.65,-533 986.65,-533 986.65,-497 1095.65,-497 1095.65,-533"/>
<text text-anchor="middle" x="1041.15" y="-511.3" font-family="Times,serif" font-size="14.00">Change Price (4)</text>
</g>
<!-- Create Purchase Order Item&#45;&gt;Change Price -->
<g id="edge14" class="edge">
<title>Create Purchase Order Item&#45;&gt;Change Price</title>
<path fill="none" stroke="#ff0000" stroke-width="0.51" stroke-dasharray="5,2" d="M950.99,-637.68C968.89,-613.51 1001.5,-569.51 1022.2,-541.57"/>
<polygon fill="#ff0000" stroke="#ff0000" stroke-width="0.51" points="1024.88,-543.84 1028.02,-533.72 1019.25,-539.67 1024.88,-543.84"/>
<text text-anchor="middle" x="978.65" y="-608.8" font-family="Times,serif" font-size="14.00">4</text>
</g>
<!-- Change Quantity -->
<g id="node9" class="node">
<title>Change Quantity</title>
<polygon fill="#fefeff" stroke="black" points="1018.15,-305 890.15,-305 890.15,-269 1018.15,-269 1018.15,-305"/>
<text text-anchor="middle" x="954.15" y="-283.3" font-family="Times,serif" font-size="14.00">Change Quantity (8)</text>
</g>
<!-- Create Purchase Order Item&#45;&gt;Change Quantity -->
<g id="edge16" class="edge">
<title>Create Purchase Order Item&#45;&gt;Change Quantity</title>
<path fill="none" stroke="#ff0000" stroke-width="0.51" stroke-dasharray="5,2" d="M1036.02,-641.59C1075.17,-630.18 1111.15,-609.07 1111.15,-570 1111.15,-570 1111.15,-570 1111.15,-373 1111.15,-332 1069.23,-310.67 1028.71,-299.64"/>
<polygon fill="#ff0000" stroke="#ff0000" stroke-width="0.51" points="1029.75,-296.29 1019.2,-297.24 1028.04,-303.08 1029.75,-296.29"/>
<text text-anchor="middle" x="1114.65" y="-457.3" font-family="Times,serif" font-size="14.00">3</text>
</g>
<!-- Create Purchase Requisition Item&#45;&gt;Create Purchase Order Item -->
<g id="edge8" class="edge">
<title>Create Purchase Requisition Item&#45;&gt;Create Purchase Order Item</title>
<path fill="none" stroke="#ff0000" stroke-width="0.53" stroke-dasharray="5,2" d="M1040.73,-724.59C1021.26,-711.76 994.56,-694.17 973.28,-680.15"/>
<polygon fill="#ff0000" stroke="#ff0000" stroke-width="0.53" points="975.48,-677.41 965.21,-674.83 971.63,-683.25 975.48,-677.41"/>
<text text-anchor="middle" x="1017.15" y="-695.8" font-family="Times,serif" font-size="14.00">14</text>
</g>
<!-- Vendor creates invoice&#45;&gt;Vendor creates invoice -->
<g id="edge21" class="edge">
<title>Vendor creates invoice&#45;&gt;Vendor creates invoice</title>
<path fill="none" stroke="#ff0000" stroke-width="0.51" stroke-dasharray="5,2" d="M629.77,-576.15C640.54,-574.91 647.65,-572.53 647.65,-569 647.65,-566.8 644.87,-565.04 640.16,-563.73"/>
<polygon fill="#ff0000" stroke="#ff0000" stroke-width="0.51" points="641,-560.32 630.53,-561.99 639.75,-567.21 641,-560.32"/>
<text text-anchor="middle" x="651.15" y="-565.3" font-family="Times,serif" font-size="14.00">6</text>
</g>
<!-- Vendor creates invoice&#45;&gt;Record Goods Receipt -->
<g id="edge4" class="edge">
<title>Vendor creates invoice&#45;&gt;Record Goods Receipt</title>
<path fill="none" stroke="#ff0000" stroke-width="0.67" stroke-dasharray="5,2" d="M630.13,-565.56C685.91,-562.02 752.25,-553.48 771.15,-533 803.45,-497.99 797.07,-438 789.57,-402.88"/>
<polygon fill="#ff0000" stroke="#ff0000" stroke-width="0.67" points="793.04,-402.35 787.37,-393.4 786.22,-403.93 793.04,-402.35"/>
<text text-anchor="middle" x="803.15" y="-457.3" font-family="Times,serif" font-size="14.00">66</text>
</g>
<!-- Record Invoice Receipt -->
<g id="node6" class="node">
<title>Record Invoice Receipt</title>
<polygon fill="#fbfbff" stroke="black" points="592.65,-305 421.65,-305 421.65,-269 592.65,-269 592.65,-305"/>
<text text-anchor="middle" x="507.15" y="-283.3" font-family="Times,serif" font-size="14.00">Record Invoice Receipt (81)</text>
</g>
<!-- Vendor creates invoice&#45;&gt;Record Invoice Receipt -->
<g id="edge10" class="edge">
<title>Vendor creates invoice&#45;&gt;Record Invoice Receipt</title>
<path fill="none" stroke="#ff0000" stroke-width="0.53" stroke-dasharray="5,2" d="M511.07,-550.53C504.24,-545.69 497.78,-539.85 493.15,-533 465.73,-492.41 476.06,-473.74 471.15,-425 467.21,-385.95 482.18,-342.34 494.01,-315.03"/>
<polygon fill="#ff0000" stroke="#ff0000" stroke-width="0.53" points="497.1,-316.69 498.01,-306.14 490.72,-313.82 497.1,-316.69"/>
<text text-anchor="middle" x="478.15" y="-413.8" font-family="Times,serif" font-size="14.00">11</text>
</g>
<!-- Clear Invoice -->
<g id="node7" class="node">
<title>Clear Invoice</title>
<polygon fill="#fafaff" stroke="black" points="427.15,-131 311.15,-131 311.15,-95 427.15,-95 427.15,-131"/>
<text text-anchor="middle" x="369.15" y="-109.3" font-family="Times,serif" font-size="14.00">Clear Invoice (93)</text>
</g>
<!-- Vendor creates invoice&#45;&gt;Clear Invoice -->
<g id="edge13" class="edge">
<title>Vendor creates invoice&#45;&gt;Clear Invoice</title>
<path fill="none" stroke="#ff0000" stroke-width="0.52" stroke-dasharray="5,2" d="M462.39,-567.41C323.64,-565.71 57.98,-559.03 24.15,-533 -2.25,-512.69 0.15,-495.31 0.15,-462 0.15,-462 0.15,-462 0.15,-199 0.15,-174.35 3.98,-163.17 24.15,-149 67.25,-118.74 212.57,-113.49 300.27,-113.2"/>
<polygon fill="#ff0000" stroke="#ff0000" stroke-width="0.52" points="300.15,-116.7 310.14,-113.19 300.14,-109.7 300.15,-116.7"/>
<text text-anchor="middle" x="3.65" y="-326.8" font-family="Times,serif" font-size="14.00">8</text>
</g>
<!-- Vendor creates invoice&#45;&gt;Change Quantity -->
<g id="edge22" class="edge">
<title>Vendor creates invoice&#45;&gt;Change Quantity</title>
<path fill="none" stroke="#ff0000" stroke-width="0.5" stroke-dasharray="5,2" d="M629.88,-564.35C724.78,-559.45 868.86,-549.41 888.15,-533 952.57,-478.21 957.49,-367.81 955.92,-316.02"/>
<polygon fill="#ff0000" stroke="#ff0000" stroke-width="0.5" points="959.42,-315.93 955.51,-306.09 952.42,-316.22 959.42,-315.93"/>
<text text-anchor="middle" x="953.65" y="-413.8" font-family="Times,serif" font-size="14.00">2</text>
</g>
<!-- Vendor creates debit memo -->
<g id="node11" class="node">
<title>Vendor creates debit memo</title>
<polygon fill="#fefeff" stroke="black" points="721.15,-479 535.15,-479 535.15,-443 721.15,-443 721.15,-479"/>
<text text-anchor="middle" x="628.15" y="-457.3" font-family="Times,serif" font-size="14.00">Vendor creates debit memo (4)</text>
</g>
<!-- Vendor creates invoice&#45;&gt;Vendor creates debit memo -->
<g id="edge25" class="edge">
<title>Vendor creates invoice&#45;&gt;Vendor creates debit memo</title>
<path fill="none" stroke="#ff0000" stroke-width="0.51" stroke-dasharray="5,2" d="M559.32,-550.97C572.52,-533.92 592.98,-507.46 608.17,-487.82"/>
<polygon fill="#ff0000" stroke="#ff0000" stroke-width="0.51" points="610.91,-490 614.27,-479.95 605.38,-485.72 610.91,-490"/>
<text text-anchor="middle" x="603.65" y="-511.3" font-family="Times,serif" font-size="14.00">4</text>
</g>
<!-- Remove Payment Block -->
<g id="node13" class="node">
<title>Remove Payment Block</title>
<polygon fill="#fefeff" stroke="black" points="236.15,-218 66.15,-218 66.15,-182 236.15,-182 236.15,-218"/>
<text text-anchor="middle" x="151.15" y="-196.3" font-family="Times,serif" font-size="14.00">Remove Payment Block (4)</text>
</g>
<!-- Vendor creates invoice&#45;&gt;Remove Payment Block -->
<g id="edge40" class="edge">
<title>Vendor creates invoice&#45;&gt;Remove Payment Block</title>
<path fill="none" stroke="#ff0000" stroke-width="0.5" stroke-dasharray="5,2" d="M462.27,-568.89C370.92,-568.3 232.08,-562.35 189.15,-533 159.94,-513.03 153.15,-497.38 153.15,-462 153.15,-462 153.15,-462 153.15,-286 153.15,-266.93 152.64,-245.46 152.14,-228.87"/>
<polygon fill="#ff0000" stroke="#ff0000" stroke-width="0.5" points="155.64,-228.89 151.82,-219.01 148.64,-229.12 155.64,-228.89"/>
<text text-anchor="middle" x="156.65" y="-370.3" font-family="Times,serif" font-size="14.00">1</text>
</g>
<!-- Record Goods Receipt&#45;&gt;Vendor creates invoice -->
<g id="edge9" class="edge">
<title>Record Goods Receipt&#45;&gt;Vendor creates invoice</title>
<path fill="none" stroke="#ff0000" stroke-width="0.55" stroke-dasharray="5,2" d="M777.38,-392.19C770.36,-414.7 755.29,-454.18 730.15,-479 698.16,-510.58 652.77,-532.7 615.08,-546.99"/>
<polygon fill="#ff0000" stroke="#ff0000" stroke-width="0.55" points="614.14,-543.6 605.96,-550.34 616.55,-550.17 614.14,-543.6"/>
<text text-anchor="middle" x="763.15" y="-457.3" font-family="Times,serif" font-size="14.00">21</text>
</g>
<!-- Record Goods Receipt&#45;&gt;Record Goods Receipt -->
<g id="edge5" class="edge">
<title>Record Goods Receipt&#45;&gt;Record Goods Receipt</title>
<path fill="none" stroke="#000000" stroke-width="6" d="M871.93,-381.01C882.65,-379.73 889.65,-377.4 889.65,-374 889.65,-372.94 888.97,-371.98 887.7,-371.13"/>
<polygon fill="#000000" stroke="#000000" stroke-width="6" points="889.18,-366.09 878.18,-368.63 886.52,-376.24 889.18,-366.09"/>
<text text-anchor="middle" x="903.65" y="-370.3" font-family="Times,serif" font-size="14.00">2105</text>
</g>
<!-- Record Goods Receipt&#45;&gt;Record Invoice Receipt -->
<g id="edge6" class="edge">
<title>Record Goods Receipt&#45;&gt;Record Invoice Receipt</title>
<path fill="none" stroke="#ff0000" stroke-width="0.64" stroke-dasharray="5,2" d="M725.84,-355.59C681.72,-341.96 620.22,-322.95 573.68,-308.56"/>
<polygon fill="#ff0000" stroke="#ff0000" stroke-width="0.64" points="574.9,-305.28 564.31,-305.67 572.83,-311.97 574.9,-305.28"/>
<text text-anchor="middle" x="668.15" y="-326.8" font-family="Times,serif" font-size="14.00">54</text>
</g>
<!-- Record Goods Receipt&#45;&gt;Clear Invoice -->
<g id="edge37" class="edge">
<title>Record Goods Receipt&#45;&gt;Clear Invoice</title>
<path fill="none" stroke="#ff0000" stroke-width="0.51" stroke-dasharray="5,2" d="M786.17,-355.63C793.62,-318.61 805.08,-231.33 761.15,-182 719.38,-135.09 539.11,-120.51 438.21,-116"/>
<polygon fill="#ff0000" stroke="#ff0000" stroke-width="0.51" points="438.41,-112.51 428.27,-115.58 438.11,-119.5 438.41,-112.51"/>
<text text-anchor="middle" x="794.65" y="-239.8" font-family="Times,serif" font-size="14.00">3</text>
</g>
<!-- Record Goods Receipt&#45;&gt;Change Quantity -->
<g id="edge34" class="edge">
<title>Record Goods Receipt&#45;&gt;Change Quantity</title>
<path fill="none" stroke="#ff0000" stroke-width="0.5" stroke-dasharray="5,2" d="M833.04,-355.66C846.63,-350.49 861.14,-344.46 874.15,-338 878.85,-335.67 898.86,-323.16 917.69,-311.24"/>
<polygon fill="#ff0000" stroke="#ff0000" stroke-width="0.5" points="919.56,-314.2 926.13,-305.89 915.81,-308.29 919.56,-314.2"/>
<text text-anchor="middle" x="901.65" y="-326.8" font-family="Times,serif" font-size="14.00">2</text>
</g>
<!-- end_node -->
<g id="node15" class="node">
<title>end_node</title>
<ellipse fill="none" stroke="black" cx="369.15" cy="-22" rx="18" ry="18"/>
<ellipse fill="none" stroke="black" cx="369.15" cy="-22" rx="22" ry="22"/>
<text text-anchor="start" x="364.65" y="-18.3" font-family="Times,serif" font-size="14.00">■</text>
</g>
<!-- Record Goods Receipt&#45;&gt;end_node -->
<g id="edge44" class="edge">
<title>Record Goods Receipt&#45;&gt;end_node</title>
<path fill="none" stroke="#ff0000" stroke-width="0.5" stroke-dasharray="5,2" d="M796.25,-355.84C799.87,-350.46 803.27,-344.27 805.15,-338 825.17,-271.08 829.15,-237.04 786.15,-182 688.89,-57.5 482.01,-30.46 401.84,-24.61"/>
<polygon fill="#ff0000" stroke="#ff0000" stroke-width="0.5" points="402.36,-21.13 392.15,-23.96 401.9,-28.12 402.36,-21.13"/>
<text text-anchor="middle" x="812.65" y="-196.3" font-family="Times,serif" font-size="14.00">2</text>
</g>
<!-- Record Invoice Receipt&#45;&gt;Vendor creates invoice -->
<g id="edge12" class="edge">
<title>Record Invoice Receipt&#45;&gt;Vendor creates invoice</title>
<path fill="none" stroke="#ff0000" stroke-width="0.51" stroke-dasharray="5,2" d="M508.17,-305.47C510.3,-339.19 515.9,-415.51 526.15,-479 529.52,-499.84 534.8,-523.12 539.09,-540.64"/>
<polygon fill="#ff0000" stroke="#ff0000" stroke-width="0.51" points="535.61,-541.12 541.42,-549.98 542.4,-539.43 535.61,-541.12"/>
<text text-anchor="middle" x="522.65" y="-413.8" font-family="Times,serif" font-size="14.00">5</text>
</g>
<!-- Record Invoice Receipt&#45;&gt;Record Invoice Receipt -->
<g id="edge24" class="edge">
<title>Record Invoice Receipt&#45;&gt;Record Invoice Receipt</title>
<path fill="none" stroke="#ff0000" stroke-width="0.52" stroke-dasharray="5,2" d="M592.81,-294.1C603.57,-292.85 610.65,-290.48 610.65,-287 610.65,-284.82 607.88,-283.08 603.18,-281.78"/>
<polygon fill="#ff0000" stroke="#ff0000" stroke-width="0.52" points="604.05,-278.38 593.58,-280.04 602.8,-285.26 604.05,-278.38"/>
<text text-anchor="middle" x="614.15" y="-283.3" font-family="Times,serif" font-size="14.00">8</text>
</g>
<!-- Record Invoice Receipt&#45;&gt;Clear Invoice -->
<g id="edge7" class="edge">
<title>Record Invoice Receipt&#45;&gt;Clear Invoice</title>
<path fill="none" stroke="#ff0000" stroke-width="0.65" stroke-dasharray="5,2" d="M518.14,-268.69C530.53,-246.76 546.77,-208.63 529.15,-182 508.78,-151.2 471.33,-134.31 437.79,-125.07"/>
<polygon fill="#ff0000" stroke="#ff0000" stroke-width="0.65" points="439.03,-121.77 428.47,-122.68 437.29,-128.55 439.03,-121.77"/>
<text text-anchor="middle" x="544.15" y="-196.3" font-family="Times,serif" font-size="14.00">57</text>
</g>
<!-- Record Subsequent Invoice -->
<g id="node10" class="node">
<title>Record Subsequent Invoice</title>
<polygon fill="#ffffff" stroke="black" points="520.65,-218 335.65,-218 335.65,-182 520.65,-182 520.65,-218"/>
<text text-anchor="middle" x="428.15" y="-196.3" font-family="Times,serif" font-size="14.00">Record Subsequent Invoice (1)</text>
</g>
<!-- Record Invoice Receipt&#45;&gt;Record Subsequent Invoice -->
<g id="edge19" class="edge">
<title>Record Invoice Receipt&#45;&gt;Record Subsequent Invoice</title>
<path fill="none" stroke="#ff0000" stroke-width="0.5" stroke-dasharray="5,2" d="M491.16,-268.8C479.78,-256.55 464.3,-239.9 451.54,-226.16"/>
<polygon fill="#ff0000" stroke="#ff0000" stroke-width="0.5" points="454.27,-223.96 444.9,-219.02 449.14,-228.73 454.27,-223.96"/>
<text text-anchor="middle" x="476.65" y="-239.8" font-family="Times,serif" font-size="14.00">1</text>
</g>
<!-- Cancel Invoice Receipt -->
<g id="node12" class="node">
<title>Cancel Invoice Receipt</title>
<polygon fill="#fefeff" stroke="black" points="752.65,-218 589.65,-218 589.65,-182 752.65,-182 752.65,-218"/>
<text text-anchor="middle" x="671.15" y="-196.3" font-family="Times,serif" font-size="14.00">Cancel Invoice Receipt (2)</text>
</g>
<!-- Record Invoice Receipt&#45;&gt;Cancel Invoice Receipt -->
<g id="edge27" class="edge">
<title>Record Invoice Receipt&#45;&gt;Cancel Invoice Receipt</title>
<path fill="none" stroke="#ff0000" stroke-width="0.5" stroke-dasharray="5,2" d="M574.57,-268.55C588.11,-263.79 601.92,-257.97 614.15,-251 626.12,-244.18 637.83,-234.57 647.5,-225.6"/>
<polygon fill="#ff0000" stroke="#ff0000" stroke-width="0.5" points="649.77,-228.28 654.55,-218.82 644.91,-223.23 649.77,-228.28"/>
<text text-anchor="middle" x="638.65" y="-239.8" font-family="Times,serif" font-size="14.00">2</text>
</g>
<!-- Record Invoice Receipt&#45;&gt;Remove Payment Block -->
<g id="edge30" class="edge">
<title>Record Invoice Receipt&#45;&gt;Remove Payment Block</title>
<path fill="none" stroke="#ff0000" stroke-width="0.51" stroke-dasharray="5,2" d="M421.41,-283.1C368.8,-279.26 300.72,-270.56 243.15,-251 230.52,-246.71 228.82,-242.46 217.15,-236 209.65,-231.85 201.62,-227.51 193.83,-223.35"/>
<polygon fill="#ff0000" stroke="#ff0000" stroke-width="0.51" points="195.66,-220.36 185.19,-218.75 192.38,-226.54 195.66,-220.36"/>
<text text-anchor="middle" x="246.65" y="-239.8" font-family="Times,serif" font-size="14.00">3</text>
</g>
<!-- Record Invoice Receipt&#45;&gt;end_node -->
<g id="edge43" class="edge">
<title>Record Invoice Receipt&#45;&gt;end_node</title>
<path fill="none" stroke="#ff0000" stroke-width="0.51" stroke-dasharray="5,2" d="M421.4,-281.45C391.63,-276.7 359.22,-267.72 333.15,-251 317.88,-241.21 315.45,-235.01 309.15,-218 290.14,-166.65 282.11,-145.96 302.15,-95 310.48,-73.82 328.3,-55.17 343.47,-42.16"/>
<polygon fill="#ff0000" stroke="#ff0000" stroke-width="0.51" points="345.44,-45.08 350.96,-36.03 341,-39.66 345.44,-45.08"/>
<text text-anchor="middle" x="295.65" y="-152.8" font-family="Times,serif" font-size="14.00">5</text>
</g>
<!-- Clear Invoice&#45;&gt;Vendor creates invoice -->
<g id="edge38" class="edge">
<title>Clear Invoice&#45;&gt;Vendor creates invoice</title>
<path fill="none" stroke="#ff0000" stroke-width="0.51" stroke-dasharray="5,2" d="M310.74,-117.05C215.71,-123.64 38.15,-143.38 38.15,-199 38.15,-462 38.15,-462 38.15,-462 38.15,-545.58 305.01,-563.69 451.9,-567.33"/>
<polygon fill="#ff0000" stroke="#ff0000" stroke-width="0.51" points="451.42,-570.82 461.5,-567.55 451.58,-563.82 451.42,-570.82"/>
<text text-anchor="middle" x="41.65" y="-326.8" font-family="Times,serif" font-size="14.00">3</text>
</g>
<!-- Clear Invoice&#45;&gt;Record Invoice Receipt -->
<g id="edge29" class="edge">
<title>Clear Invoice&#45;&gt;Record Invoice Receipt</title>
<path fill="none" stroke="#ff0000" stroke-width="0.51" stroke-dasharray="5,2" d="M350.14,-131.13C328.73,-152.54 299.36,-189.79 319.15,-218 340.29,-248.13 376.17,-264.96 410.95,-274.35"/>
<polygon fill="#ff0000" stroke="#ff0000" stroke-width="0.51" points="409.91,-277.69 420.46,-276.73 411.61,-270.9 409.91,-277.69"/>
<text text-anchor="middle" x="322.65" y="-196.3" font-family="Times,serif" font-size="14.00">5</text>
</g>
<!-- Clear Invoice&#45;&gt;Clear Invoice -->
<g id="edge11" class="edge">
<title>Clear Invoice&#45;&gt;Clear Invoice</title>
<path fill="none" stroke="#ff0000" stroke-width="0.55" stroke-dasharray="5,2" d="M427.46,-120.68C437.88,-119.68 445.15,-117.12 445.15,-113 445.15,-110.49 442.45,-108.56 437.98,-107.21"/>
<polygon fill="#ff0000" stroke="#ff0000" stroke-width="0.55" points="438.74,-103.79 428.28,-105.47 437.51,-110.68 438.74,-103.79"/>
<text text-anchor="middle" x="452.15" y="-109.3" font-family="Times,serif" font-size="14.00">20</text>
</g>
<!-- Clear Invoice&#45;&gt;end_node -->
<g id="edge42" class="edge">
<title>Clear Invoice&#45;&gt;end_node</title>
<path fill="none" stroke="#ff0000" stroke-width="0.67" stroke-dasharray="5,2" d="M369.15,-94.84C369.15,-83.55 369.15,-68.44 369.15,-54.98"/>
<polygon fill="#ff0000" stroke="#ff0000" stroke-width="0.67" points="372.65,-55.2 369.15,-45.2 365.65,-55.2 372.65,-55.2"/>
<text text-anchor="middle" x="376.15" y="-65.8" font-family="Times,serif" font-size="14.00">65</text>
</g>
<!-- Change Price&#45;&gt;Record Goods Receipt -->
<g id="edge15" class="edge">
<title>Change Price&#45;&gt;Record Goods Receipt</title>
<path fill="none" stroke="#ff0000" stroke-width="0.51" stroke-dasharray="5,2" d="M1038.61,-496.51C1034.2,-472.92 1022.79,-431.39 995.15,-410 977.21,-396.11 928.58,-387.53 882.31,-382.35"/>
<polygon fill="#ff0000" stroke="#ff0000" stroke-width="0.51" points="882.95,-378.89 872.63,-381.31 882.2,-385.85 882.95,-378.89"/>
<text text-anchor="middle" x="1037.65" y="-457.3" font-family="Times,serif" font-size="14.00">4</text>
</g>
<!-- Change Quantity&#45;&gt;Vendor creates invoice -->
<g id="edge17" class="edge">
<title>Change Quantity&#45;&gt;Vendor creates invoice</title>
<path fill="none" stroke="#ff0000" stroke-width="0.51" stroke-dasharray="5,2" d="M961.43,-305.19C979.05,-349.8 1018.19,-470.13 957.15,-533 935.53,-555.26 754.76,-563.42 640.27,-566.37"/>
<polygon fill="#ff0000" stroke="#ff0000" stroke-width="0.51" points="640.42,-562.87 630.51,-566.62 640.6,-569.87 640.42,-562.87"/>
<text text-anchor="middle" x="993.65" y="-413.8" font-family="Times,serif" font-size="14.00">3</text>
</g>
<!-- Change Quantity&#45;&gt;Record Goods Receipt -->
<g id="edge23" class="edge">
<title>Change Quantity&#45;&gt;Record Goods Receipt</title>
<path fill="none" stroke="#ff0000" stroke-width="0.51" stroke-dasharray="5,2" d="M940.97,-305.07C931.75,-315.94 918.53,-329.53 904.15,-338 894.94,-343.42 884.84,-348.05 874.52,-351.98"/>
<polygon fill="#ff0000" stroke="#ff0000" stroke-width="0.51" points="873.54,-348.62 865.3,-355.29 875.9,-355.21 873.54,-348.62"/>
<text text-anchor="middle" x="926.65" y="-326.8" font-family="Times,serif" font-size="14.00">3</text>
</g>
<!-- Change Delivery Indicator -->
<g id="node14" class="node">
<title>Change Delivery Indicator</title>
<polygon fill="#fefeff" stroke="black" points="1033.65,-218 852.65,-218 852.65,-182 1033.65,-182 1033.65,-218"/>
<text text-anchor="middle" x="943.15" y="-196.3" font-family="Times,serif" font-size="14.00">Change Delivery Indicator (2)</text>
</g>
<!-- Change Quantity&#45;&gt;Change Delivery Indicator -->
<g id="edge35" class="edge">
<title>Change Quantity&#45;&gt;Change Delivery Indicator</title>
<path fill="none" stroke="#ff0000" stroke-width="0.5" stroke-dasharray="5,2" d="M943.27,-268.83C940.37,-263.35 937.63,-257.11 936.15,-251 934.42,-243.87 934.57,-236.06 935.56,-228.78"/>
<polygon fill="#ff0000" stroke="#ff0000" stroke-width="0.5" points="938.98,-229.51 937.42,-219.03 932.11,-228.2 938.98,-229.51"/>
<text text-anchor="middle" x="939.65" y="-239.8" font-family="Times,serif" font-size="14.00">2</text>
</g>
<!-- Record Subsequent Invoice&#45;&gt;Clear Invoice -->
<g id="edge20" class="edge">
<title>Record Subsequent Invoice&#45;&gt;Clear Invoice</title>
<path fill="none" stroke="#ff0000" stroke-width="0.5" stroke-dasharray="5,2" d="M416.21,-181.8C407.87,-169.78 396.58,-153.52 387.15,-139.94"/>
<polygon fill="#ff0000" stroke="#ff0000" stroke-width="0.5" points="390.28,-138.31 381.71,-132.09 384.53,-142.3 390.28,-138.31"/>
<text text-anchor="middle" x="406.65" y="-152.8" font-family="Times,serif" font-size="14.00">1</text>
</g>
<!-- Vendor creates debit memo&#45;&gt;Record Goods Receipt -->
<g id="edge26" class="edge">
<title>Vendor creates debit memo&#45;&gt;Record Goods Receipt</title>
<path fill="none" stroke="#ff0000" stroke-width="0.5" stroke-dasharray="5,2" d="M659.69,-442.59C683.35,-429.53 715.95,-411.54 741.57,-397.4"/>
<polygon fill="#ff0000" stroke="#ff0000" stroke-width="0.5" points="742.93,-400.65 749.99,-392.75 739.54,-394.52 742.93,-400.65"/>
<text text-anchor="middle" x="718.65" y="-413.8" font-family="Times,serif" font-size="14.00">2</text>
</g>
<!-- Vendor creates debit memo&#45;&gt;Record Invoice Receipt -->
<g id="edge32" class="edge">
<title>Vendor creates debit memo&#45;&gt;Record Invoice Receipt</title>
<path fill="none" stroke="#ff0000" stroke-width="0.5" stroke-dasharray="5,2" d="M615.88,-442.56C594.5,-412.17 550.32,-349.36 525.36,-313.88"/>
<polygon fill="#ff0000" stroke="#ff0000" stroke-width="0.5" points="528.5,-312.27 519.89,-306.11 522.78,-316.3 528.5,-312.27"/>
<text text-anchor="middle" x="583.65" y="-370.3" font-family="Times,serif" font-size="14.00">2</text>
</g>
<!-- Cancel Invoice Receipt&#45;&gt;Record Invoice Receipt -->
<g id="edge33" class="edge">
<title>Cancel Invoice Receipt&#45;&gt;Record Invoice Receipt</title>
<path fill="none" stroke="#ff0000" stroke-width="0.5" stroke-dasharray="5,2" d="M637.61,-218.38C612.31,-231.5 577.4,-249.59 550.06,-263.76"/>
<polygon fill="#ff0000" stroke="#ff0000" stroke-width="0.5" points="548.67,-260.54 541.41,-268.25 551.89,-266.75 548.67,-260.54"/>
<text text-anchor="middle" x="602.65" y="-239.8" font-family="Times,serif" font-size="14.00">1</text>
</g>
<!-- Cancel Invoice Receipt&#45;&gt;Clear Invoice -->
<g id="edge28" class="edge">
<title>Cancel Invoice Receipt&#45;&gt;Clear Invoice</title>
<path fill="none" stroke="#ff0000" stroke-width="0.5" stroke-dasharray="5,2" d="M641.93,-181.53C622.49,-170.64 596.04,-157.18 571.15,-149 527.94,-134.8 477.54,-126.05 437.89,-120.86"/>
<polygon fill="#ff0000" stroke="#ff0000" stroke-width="0.5" points="438.38,-117.39 428.02,-119.61 437.5,-124.33 438.38,-117.39"/>
<text text-anchor="middle" x="609.65" y="-152.8" font-family="Times,serif" font-size="14.00">1</text>
</g>
<!-- Remove Payment Block&#45;&gt;Vendor creates invoice -->
<g id="edge41" class="edge">
<title>Remove Payment Block&#45;&gt;Vendor creates invoice</title>
<path fill="none" stroke="#ff0000" stroke-width="0.5" stroke-dasharray="5,2" d="M169.63,-218.35C184.58,-234.34 203.15,-259.53 203.15,-286 203.15,-462 203.15,-462 203.15,-462 203.15,-514.22 350.11,-543.49 451.64,-557.49"/>
<polygon fill="#ff0000" stroke="#ff0000" stroke-width="0.5" points="451.11,-560.95 461.49,-558.81 452.05,-554.01 451.11,-560.95"/>
<text text-anchor="middle" x="206.65" y="-370.3" font-family="Times,serif" font-size="14.00">1</text>
</g>
<!-- Remove Payment Block&#45;&gt;Clear Invoice -->
<g id="edge31" class="edge">
<title>Remove Payment Block&#45;&gt;Clear Invoice</title>
<path fill="none" stroke="#ff0000" stroke-width="0.51" stroke-dasharray="5,2" d="M175.9,-181.74C192.14,-171.06 214.17,-157.78 235.15,-149 255.83,-140.35 279.23,-133.36 300.61,-127.96"/>
<polygon fill="#ff0000" stroke="#ff0000" stroke-width="0.51" points="301.3,-131.4 310.18,-125.62 299.64,-124.6 301.3,-131.4"/>
<text text-anchor="middle" x="238.65" y="-152.8" font-family="Times,serif" font-size="14.00">3</text>
</g>
<!-- Change Delivery Indicator&#45;&gt;Record Goods Receipt -->
<g id="edge36" class="edge">
<title>Change Delivery Indicator&#45;&gt;Record Goods Receipt</title>
<path fill="none" stroke="#ff0000" stroke-width="0.5" stroke-dasharray="5,2" d="M923.05,-218.26C908.5,-231.33 888.88,-250.2 874.15,-269 852.15,-297.08 857.54,-311.97 833.15,-338 829.44,-341.96 825.2,-345.73 820.79,-349.22"/>
<polygon fill="#ff0000" stroke="#ff0000" stroke-width="0.5" points="818.77,-346.36 812.8,-355.11 822.93,-351.99 818.77,-346.36"/>
<text text-anchor="middle" x="877.65" y="-283.3" font-family="Times,serif" font-size="14.00">1</text>
</g>
<!-- Change Delivery Indicator&#45;&gt;Change Quantity -->
<g id="edge39" class="edge">
<title>Change Delivery Indicator&#45;&gt;Change Quantity</title>
<path fill="none" stroke="#ff0000" stroke-width="0.5" stroke-dasharray="5,2" d="M945.41,-218.47C946.9,-229.97 948.88,-245.28 950.58,-258.41"/>
<polygon fill="#ff0000" stroke="#ff0000" stroke-width="0.5" points="947.07,-258.58 951.83,-268.05 954.01,-257.68 947.07,-258.58"/>
<text text-anchor="middle" x="953.65" y="-239.8" font-family="Times,serif" font-size="14.00">1</text>
</g>
</g>
</svg>
