<?xml version="1.0" encoding="UTF-8" standalone="no"?>
<!DOCTYPE svg PUBLIC "-//W3C//DTD SVG 1.1//EN"
 "http://www.w3.org/Graphics/SVG/1.1/DTD/svg11.dtd">
<!-- Generated by graphviz version 7.0.5 (0)
 -->
<!-- Title: dfg Pages: 1 -->
<svg width="380pt" height="661pt"
 viewBox="0.00 0.00 379.50 661.00" xmlns="http://www.w3.org/2000/svg" xmlns:xlink="http://www.w3.org/1999/xlink">
<g id="graph0" class="graph" transform="scale(1 1) rotate(0) translate(4 657)">
<title>dfg</title>
<polygon fill="white" stroke="none" points="-4,4 -4,-657 375.5,-657 375.5,4 -4,4"/>
<!-- start_node -->
<g id="node1" class="node">
<title>start_node</title>
<ellipse fill="none" stroke="black" cx="209.5" cy="-635" rx="18" ry="18"/>
<text text-anchor="start" x="205" y="-631.3" font-family="Times,serif" font-size="14.00">●</text>
</g>
<!-- Create Purchase Order Item -->
<g id="node2" class="node">
<title>Create Purchase Order Item</title>
<polygon fill="#9b9bff" stroke="black" points="317,-566 102,-566 102,-530 317,-530 317,-566"/>
<text text-anchor="middle" x="209.5" y="-544.3" font-family="Times,serif" font-size="14.00">Create Purchase Order Item (45235)</text>
</g>
<!-- start_node&#45;&gt;Create Purchase Order Item -->
<g id="edge1" class="edge">
<title>start_node&#45;&gt;Create Purchase Order Item</title>
<path fill="none" stroke="#000000" stroke-width="6.35" d="M209.5,-616.8C209.5,-607.07 209.5,-594.56 209.5,-582.94"/>
<polygon fill="#000000" stroke="#000000" stroke-width="6.35" points="215.05,-583 209.5,-573 203.95,-583 215.05,-583"/>
<text text-anchor="middle" x="226.5" y="-587.8" font-family="Times,serif" font-size="14.00">45235</text>
</g>
<!-- Record Goods Receipt -->
<g id="node3" class="node">
<title>Record Goods Receipt</title>
<polygon fill="#9b9bff" stroke="black" points="214.5,-392 28.5,-392 28.5,-356 214.5,-356 214.5,-392"/>
<text text-anchor="middle" x="121.5" y="-370.3" font-family="Times,serif" font-size="14.00">Record Goods Receipt (45235)</text>
</g>
<!-- Create Purchase Order Item&#45;&gt;Record Goods Receipt -->
<g id="edge2" class="edge">
<title>Create Purchase Order Item&#45;&gt;Record Goods Receipt</title>
<path fill="none" stroke="#000000" stroke-width="3" d="M127.15,-529.62C99.96,-519.55 72.58,-503.74 56.5,-479 39.57,-452.95 63.05,-422.82 86.38,-401.71"/>
<polygon fill="#000000" stroke="#000000" stroke-width="3" points="88.49,-404.51 93.83,-395.36 83.95,-399.18 88.49,-404.51"/>
<text text-anchor="middle" x="73.5" y="-457.3" font-family="Times,serif" font-size="14.00">20811</text>
</g>
<!-- Vendor creates invoice -->
<g id="node4" class="node">
<title>Vendor creates invoice</title>
<polygon fill="#9b9bff" stroke="black" points="344,-305 157,-305 157,-269 344,-269 344,-305"/>
<text text-anchor="middle" x="250.5" y="-283.3" font-family="Times,serif" font-size="14.00">Vendor creates invoice (45235)</text>
</g>
<!-- Create Purchase Order Item&#45;&gt;Vendor creates invoice -->
<g id="edge6" class="edge">
<title>Create Purchase Order Item&#45;&gt;Vendor creates invoice</title>
<path fill="none" stroke="#000000" stroke-width="1.9" d="M265.22,-529.52C289.14,-518.93 314.71,-502.77 328.5,-479 360.6,-423.69 309.98,-352.62 276.42,-314.68"/>
<polygon fill="#000000" stroke="#000000" stroke-width="1.9" points="279.16,-312.5 269.84,-307.47 273.99,-317.21 279.16,-312.5"/>
<text text-anchor="middle" x="354.5" y="-413.8" font-family="Times,serif" font-size="14.00">12780</text>
</g>
<!-- Receive Order Confirmation -->
<g id="node7" class="node">
<title>Receive Order Confirmation</title>
<polygon fill="#ffffff" stroke="black" points="319,-479 100,-479 100,-443 319,-443 319,-479"/>
<text text-anchor="middle" x="209.5" y="-457.3" font-family="Times,serif" font-size="14.00">Receive Order Confirmation (11644)</text>
</g>
<!-- Create Purchase Order Item&#45;&gt;Receive Order Confirmation -->
<g id="edge9" class="edge">
<title>Create Purchase Order Item&#45;&gt;Receive Order Confirmation</title>
<path fill="none" stroke="#000000" stroke-width="1.75" d="M209.5,-529.8C209.5,-518.93 209.5,-504.58 209.5,-491.88"/>
<polygon fill="#000000" stroke="#000000" stroke-width="1.75" points="213,-492.11 209.5,-482.11 206,-492.11 213,-492.11"/>
<text text-anchor="middle" x="226.5" y="-500.8" font-family="Times,serif" font-size="14.00">11644</text>
</g>
<!-- Record Goods Receipt&#45;&gt;Vendor creates invoice -->
<g id="edge3" class="edge">
<title>Record Goods Receipt&#45;&gt;Vendor creates invoice</title>
<path fill="none" stroke="#000000" stroke-width="4.25" d="M125.31,-355.57C128.5,-344.83 134.08,-331.53 143.5,-323 147.61,-319.28 152.12,-315.95 156.89,-312.98"/>
<polygon fill="#000000" stroke="#000000" stroke-width="4.25" points="158.47,-316.35 165.55,-308.37 154.97,-309.79 158.47,-316.35"/>
<text text-anchor="middle" x="160.5" y="-326.8" font-family="Times,serif" font-size="14.00">29905</text>
</g>
<!-- Record Invoice Receipt -->
<g id="node5" class="node">
<title>Record Invoice Receipt</title>
<polygon fill="#9b9bff" stroke="black" points="216,-218 25,-218 25,-182 216,-182 216,-218"/>
<text text-anchor="middle" x="120.5" y="-196.3" font-family="Times,serif" font-size="14.00">Record Invoice Receipt (45235)</text>
</g>
<!-- Record Goods Receipt&#45;&gt;Record Invoice Receipt -->
<g id="edge8" class="edge">
<title>Record Goods Receipt&#45;&gt;Record Invoice Receipt</title>
<path fill="none" stroke="#000000" stroke-width="2.25" d="M118.9,-355.72C116.97,-342.01 114.52,-322.33 113.5,-305 112.05,-280.19 114.17,-252.08 116.44,-231.34"/>
<polygon fill="#000000" stroke="#000000" stroke-width="2.25" points="119.89,-232.02 117.6,-221.67 112.94,-231.19 119.89,-232.02"/>
<text text-anchor="middle" x="130.5" y="-283.3" font-family="Times,serif" font-size="14.00">15330</text>
</g>
<!-- Vendor creates invoice&#45;&gt;Record Goods Receipt -->
<g id="edge7" class="edge">
<title>Vendor creates invoice&#45;&gt;Record Goods Receipt</title>
<path fill="none" stroke="#000000" stroke-width="2.25" d="M225.67,-305.39C211.63,-315.12 193.69,-327.4 177.5,-338 172.2,-341.47 166.59,-345.07 161.03,-348.58"/>
<polygon fill="#000000" stroke="#000000" stroke-width="2.25" points="159.34,-345.51 152.73,-353.79 163.06,-351.44 159.34,-345.51"/>
<text text-anchor="middle" x="216.5" y="-326.8" font-family="Times,serif" font-size="14.00">15330</text>
</g>
<!-- Vendor creates invoice&#45;&gt;Record Invoice Receipt -->
<g id="edge4" class="edge">
<title>Vendor creates invoice&#45;&gt;Record Invoice Receipt</title>
<path fill="none" stroke="#000000" stroke-width="4.25" d="M223.88,-268.59C205.56,-256.62 180.92,-240.5 160.28,-227.01"/>
<polygon fill="#000000" stroke="#000000" stroke-width="4.25" points="162.59,-224.08 152.19,-221.72 158.52,-230.3 162.59,-224.08"/>
<text text-anchor="middle" x="209.5" y="-239.8" font-family="Times,serif" font-size="14.00">29905</text>
</g>
<!-- Clear Invoice -->
<g id="node6" class="node">
<title>Clear Invoice</title>
<polygon fill="#a2a2ff" stroke="black" points="137,-131 0,-131 0,-95 137,-95 137,-131"/>
<text text-anchor="middle" x="68.5" y="-109.3" font-family="Times,serif" font-size="14.00">Clear Invoice (42694)</text>
</g>
<!-- Record Invoice Receipt&#45;&gt;Clear Invoice -->
<g id="edge5" class="edge">
<title>Record Invoice Receipt&#45;&gt;Clear Invoice</title>
<path fill="none" stroke="#000000" stroke-width="6" d="M109.98,-181.8C103.61,-171.38 95.28,-157.78 87.77,-145.5"/>
<polygon fill="#000000" stroke="#000000" stroke-width="6" points="92.25,-142.76 82.55,-136.97 83.29,-148.24 92.25,-142.76"/>
<text text-anchor="middle" x="115.5" y="-152.8" font-family="Times,serif" font-size="14.00">42694</text>
</g>
<!-- end_node -->
<g id="node8" class="node">
<title>end_node</title>
<ellipse fill="none" stroke="black" cx="120.5" cy="-22" rx="18" ry="18"/>
<ellipse fill="none" stroke="black" cx="120.5" cy="-22" rx="22" ry="22"/>
<text text-anchor="start" x="116" y="-18.3" font-family="Times,serif" font-size="14.00">■</text>
</g>
<!-- Record Invoice Receipt&#45;&gt;end_node -->
<g id="edge13" class="edge">
<title>Record Invoice Receipt&#45;&gt;end_node</title>
<path fill="none" stroke="#000000" stroke-width="0.5" d="M129.29,-181.65C135.49,-168.22 143.1,-148.95 145.5,-131 149.6,-100.35 146.46,-91.28 136.5,-62 135.45,-58.91 134.28,-55.72 133.07,-52.55"/>
<polygon fill="#000000" stroke="#000000" stroke-width="0.5" points="136.36,-51.35 129.4,-43.36 129.86,-53.95 136.36,-51.35"/>
<text text-anchor="middle" x="161.5" y="-109.3" font-family="Times,serif" font-size="14.00">2541</text>
</g>
<!-- Clear Invoice&#45;&gt;end_node -->
<g id="edge12" class="edge">
<title>Clear Invoice&#45;&gt;end_node</title>
<path fill="none" stroke="#000000" stroke-width="6" d="M78.53,-94.84C85,-83.76 93.64,-68.98 101.39,-55.71"/>
<polygon fill="#000000" stroke="#000000" stroke-width="6" points="105.84,-58.5 106.35,-47.22 96.77,-53.2 105.84,-58.5"/>
<text text-anchor="middle" x="115.5" y="-65.8" font-family="Times,serif" font-size="14.00">42694</text>
</g>
<!-- Receive Order Confirmation&#45;&gt;Record Goods Receipt -->
<g id="edge10" class="edge">
<title>Receive Order Confirmation&#45;&gt;Record Goods Receipt</title>
<path fill="none" stroke="#000000" stroke-width="1.4" d="M191.69,-442.8C179.13,-430.67 162.09,-414.21 147.95,-400.55"/>
<polygon fill="#000000" stroke="#000000" stroke-width="1.4" points="150.73,-398.37 141.1,-393.94 145.87,-403.4 150.73,-398.37"/>
<text text-anchor="middle" x="185.5" y="-413.8" font-family="Times,serif" font-size="14.00">9094</text>
</g>
<!-- Receive Order Confirmation&#45;&gt;Vendor creates invoice -->
<g id="edge11" class="edge">
<title>Receive Order Confirmation&#45;&gt;Vendor creates invoice</title>
<path fill="none" stroke="#000000" stroke-width="0.5" d="M213.66,-442.56C220.78,-412.69 235.37,-351.48 243.9,-315.71"/>
<polygon fill="#000000" stroke="#000000" stroke-width="0.5" points="247.24,-316.76 246.16,-306.22 240.43,-315.14 247.24,-316.76"/>
<text text-anchor="middle" x="247.5" y="-370.3" font-family="Times,serif" font-size="14.00">2550</text>
</g>
</g>
</svg>
