<?xml version="1.0" encoding="UTF-8" standalone="no"?>
<!DOCTYPE svg PUBLIC "-//W3C//DTD SVG 1.1//EN"
 "http://www.w3.org/Graphics/SVG/1.1/DTD/svg11.dtd">
<!-- Generated by graphviz version 7.0.5 (0)
 -->
<!-- Title: dfg Pages: 1 -->
<svg width="564pt" height="922pt"
 viewBox="0.00 0.00 564.00 922.00" xmlns="http://www.w3.org/2000/svg" xmlns:xlink="http://www.w3.org/1999/xlink">
<g id="graph0" class="graph" transform="scale(1 1) rotate(0) translate(4 918)">
<title>dfg</title>
<polygon fill="white" stroke="none" points="-4,4 -4,-918 560,-918 560,4 -4,4"/>
<!-- start_node -->
<g id="node1" class="node">
<title>start_node</title>
<ellipse fill="none" stroke="black" cx="280.5" cy="-896" rx="18" ry="18"/>
<text text-anchor="start" x="276" y="-892.3" font-family="Times,serif" font-size="14.00">●</text>
</g>
<!-- Create Purchase Order Item -->
<g id="node2" class="node">
<title>Create Purchase Order Item</title>
<polygon fill="#9b9bff" stroke="black" points="388,-740 173,-740 173,-704 388,-704 388,-740"/>
<text text-anchor="middle" x="280.5" y="-718.3" font-family="Times,serif" font-size="14.00">Create Purchase Order Item (25880)</text>
</g>
<!-- start_node&#45;&gt;Create Purchase Order Item -->
<g id="edge1" class="edge">
<title>start_node&#45;&gt;Create Purchase Order Item</title>
<path fill="none" stroke="#000000" stroke-width="5.79" d="M278.23,-877.71C276.54,-863.99 274.39,-844.3 273.5,-827 272.68,-811.02 272.68,-806.98 273.5,-791 274.08,-779.64 275.21,-767.26 276.39,-756.22"/>
<polygon fill="#000000" stroke="#000000" stroke-width="5.79" points="281.38,-757.17 277.49,-746.65 271.31,-756.01 281.38,-757.17"/>
<text text-anchor="middle" x="290.5" y="-805.3" font-family="Times,serif" font-size="14.00">19066</text>
</g>
<!-- Create Purchase Requisition Item -->
<g id="node3" class="node">
<title>Create Purchase Requisition Item</title>
<polygon fill="#e5e5ff" stroke="black" points="556,-827 317,-827 317,-791 556,-791 556,-827"/>
<text text-anchor="middle" x="436.5" y="-805.3" font-family="Times,serif" font-size="14.00">Create Purchase Requisition Item (6814)</text>
</g>
<!-- start_node&#45;&gt;Create Purchase Requisition Item -->
<g id="edge2" class="edge">
<title>start_node&#45;&gt;Create Purchase Requisition Item</title>
<path fill="none" stroke="#000000" stroke-width="2.36" d="M296.03,-886.54C318.37,-874.36 360.46,-851.43 392.77,-833.83"/>
<polygon fill="#000000" stroke="#000000" stroke-width="2.36" points="394.36,-836.95 401.46,-829.09 391.01,-830.8 394.36,-836.95"/>
<text text-anchor="middle" x="381.5" y="-848.8" font-family="Times,serif" font-size="14.00">6814</text>
</g>
<!-- Record Goods Receipt -->
<g id="node4" class="node">
<title>Record Goods Receipt</title>
<polygon fill="#9b9bff" stroke="black" points="354.5,-566 168.5,-566 168.5,-530 354.5,-530 354.5,-566"/>
<text text-anchor="middle" x="261.5" y="-544.3" font-family="Times,serif" font-size="14.00">Record Goods Receipt (25880)</text>
</g>
<!-- Create Purchase Order Item&#45;&gt;Record Goods Receipt -->
<g id="edge3" class="edge">
<title>Create Purchase Order Item&#45;&gt;Record Goods Receipt</title>
<path fill="none" stroke="#000000" stroke-width="2.4" d="M284.97,-703.54C289.62,-682.75 295.44,-647.05 289.5,-617 286.91,-603.9 281.76,-590.15 276.57,-578.46"/>
<polygon fill="#000000" stroke="#000000" stroke-width="2.4" points="279.82,-577.14 272.39,-569.58 273.48,-580.12 279.82,-577.14"/>
<text text-anchor="middle" x="306.5" y="-631.3" font-family="Times,serif" font-size="14.00">6937</text>
</g>
<!-- Vendor creates invoice -->
<g id="node5" class="node">
<title>Vendor creates invoice</title>
<polygon fill="#9b9bff" stroke="black" points="187,-479 0,-479 0,-443 187,-443 187,-479"/>
<text text-anchor="middle" x="93.5" y="-457.3" font-family="Times,serif" font-size="14.00">Vendor creates invoice (25880)</text>
</g>
<!-- Create Purchase Order Item&#45;&gt;Vendor creates invoice -->
<g id="edge8" class="edge">
<title>Create Purchase Order Item&#45;&gt;Vendor creates invoice</title>
<path fill="none" stroke="#000000" stroke-width="4.31" d="M185.96,-703.53C133.29,-691.66 75.21,-674.27 59.5,-653 24.55,-605.67 53.13,-534 74.81,-493.25"/>
<polygon fill="#000000" stroke="#000000" stroke-width="4.31" points="78.06,-495.15 79.65,-484.58 71.48,-491.47 78.06,-495.15"/>
<text text-anchor="middle" x="61.5" y="-587.8" font-family="Times,serif" font-size="14.00">13766</text>
</g>
<!-- Receive Order Confirmation -->
<g id="node9" class="node">
<title>Receive Order Confirmation</title>
<polygon fill="#ededff" stroke="black" points="280.5,-653 68.5,-653 68.5,-617 280.5,-617 280.5,-653"/>
<text text-anchor="middle" x="174.5" y="-631.3" font-family="Times,serif" font-size="14.00">Receive Order Confirmation (4889)</text>
</g>
<!-- Create Purchase Order Item&#45;&gt;Receive Order Confirmation -->
<g id="edge13" class="edge">
<title>Create Purchase Order Item&#45;&gt;Receive Order Confirmation</title>
<path fill="none" stroke="#000000" stroke-width="1.82" d="M258.79,-703.59C243.5,-691.33 222.8,-674.73 205.73,-661.05"/>
<polygon fill="#000000" stroke="#000000" stroke-width="1.82" points="208.32,-658.64 198.33,-655.11 203.94,-664.1 208.32,-658.64"/>
<text text-anchor="middle" x="248.5" y="-674.8" font-family="Times,serif" font-size="14.00">4889</text>
</g>
<!-- Change Price -->
<g id="node10" class="node">
<title>Change Price</title>
<polygon fill="#ffffff" stroke="black" points="499.5,-305 377.5,-305 377.5,-269 499.5,-269 499.5,-305"/>
<text text-anchor="middle" x="438.5" y="-283.3" font-family="Times,serif" font-size="14.00">Change Price (446)</text>
</g>
<!-- Create Purchase Order Item&#45;&gt;Change Price -->
<g id="edge18" class="edge">
<title>Create Purchase Order Item&#45;&gt;Change Price</title>
<path fill="none" stroke="#ff0000" stroke-width="0.54" stroke-dasharray="5,2" d="M380.01,-703.52C413.95,-691.36 443.5,-670.79 443.5,-636 443.5,-636 443.5,-636 443.5,-373 443.5,-353.9 442.23,-332.43 440.97,-315.85"/>
<polygon fill="#ff0000" stroke="#ff0000" stroke-width="0.54" points="444.47,-315.73 440.17,-306.05 437.49,-316.3 444.47,-315.73"/>
<text text-anchor="middle" x="454" y="-500.8" font-family="Times,serif" font-size="14.00">288</text>
</g>
<!-- Create Purchase Requisition Item&#45;&gt;Create Purchase Order Item -->
<g id="edge15" class="edge">
<title>Create Purchase Requisition Item&#45;&gt;Create Purchase Order Item</title>
<path fill="none" stroke="#000000" stroke-width="2.36" d="M404.55,-790.59C381.31,-777.93 349.58,-760.64 324.02,-746.71"/>
<polygon fill="#000000" stroke="#000000" stroke-width="2.36" points="326,-743.81 315.54,-742.09 322.65,-749.95 326,-743.81"/>
<text text-anchor="middle" x="381.5" y="-761.8" font-family="Times,serif" font-size="14.00">6814</text>
</g>
<!-- Record Goods Receipt&#45;&gt;Vendor creates invoice -->
<g id="edge4" class="edge">
<title>Record Goods Receipt&#45;&gt;Vendor creates invoice</title>
<path fill="none" stroke="#000000" stroke-width="3.26" d="M168.28,-533.98C152.34,-528.88 136.69,-521.81 123.5,-512 116.6,-506.87 110.97,-499.63 106.53,-492.25"/>
<polygon fill="#000000" stroke="#000000" stroke-width="3.26" points="109.77,-490.9 102.08,-483.62 103.55,-494.11 109.77,-490.9"/>
<text text-anchor="middle" x="140.5" y="-500.8" font-family="Times,serif" font-size="14.00">10007</text>
</g>
<!-- Record Invoice Receipt -->
<g id="node6" class="node">
<title>Record Invoice Receipt</title>
<polygon fill="#9b9bff" stroke="black" points="313,-392 122,-392 122,-356 313,-356 313,-392"/>
<text text-anchor="middle" x="217.5" y="-370.3" font-family="Times,serif" font-size="14.00">Record Invoice Receipt (25880)</text>
</g>
<!-- Record Goods Receipt&#45;&gt;Record Invoice Receipt -->
<g id="edge10" class="edge">
<title>Record Goods Receipt&#45;&gt;Record Invoice Receipt</title>
<path fill="none" stroke="#000000" stroke-width="3.53" d="M254.55,-529.62C249.32,-516.01 242.25,-496.52 237.5,-479 231.09,-455.34 225.93,-428.1 222.46,-407.45"/>
<polygon fill="#000000" stroke="#000000" stroke-width="3.53" points="225.94,-407.06 220.89,-397.75 219.03,-408.18 225.94,-407.06"/>
<text text-anchor="middle" x="254.5" y="-457.3" font-family="Times,serif" font-size="14.00">10967</text>
</g>
<!-- Remove Payment Block -->
<g id="node7" class="node">
<title>Remove Payment Block</title>
<polygon fill="#a6a6ff" stroke="black" points="448,-218 251,-218 251,-182 448,-182 448,-218"/>
<text text-anchor="middle" x="349.5" y="-196.3" font-family="Times,serif" font-size="14.00">Remove Payment Block (22999)</text>
</g>
<!-- Record Goods Receipt&#45;&gt;Remove Payment Block -->
<g id="edge12" class="edge">
<title>Record Goods Receipt&#45;&gt;Remove Payment Block</title>
<path fill="none" stroke="#000000" stroke-width="1.83" d="M298.06,-529.54C322.23,-515.18 349.5,-492.27 349.5,-462 349.5,-462 349.5,-462 349.5,-286 349.5,-267.67 349.5,-247.11 349.5,-230.81"/>
<polygon fill="#000000" stroke="#000000" stroke-width="1.83" points="353,-231.02 349.5,-221.02 346,-231.02 353,-231.02"/>
<text text-anchor="middle" x="363.5" y="-370.3" font-family="Times,serif" font-size="14.00">4906</text>
</g>
<!-- Vendor creates invoice&#45;&gt;Record Goods Receipt -->
<g id="edge9" class="edge">
<title>Vendor creates invoice&#45;&gt;Record Goods Receipt</title>
<path fill="none" stroke="#000000" stroke-width="3.53" d="M126.33,-479.32C136.42,-484.82 147.5,-491.02 157.5,-497 167.97,-503.27 169.75,-506.23 180.5,-512 187.84,-515.94 195.71,-519.79 203.57,-523.4"/>
<polygon fill="#000000" stroke="#000000" stroke-width="3.53" points="202.12,-526.59 212.68,-527.46 204.97,-520.19 202.12,-526.59"/>
<text text-anchor="middle" x="197.5" y="-500.8" font-family="Times,serif" font-size="14.00">10967</text>
</g>
<!-- Vendor creates invoice&#45;&gt;Record Invoice Receipt -->
<g id="edge5" class="edge">
<title>Vendor creates invoice&#45;&gt;Record Invoice Receipt</title>
<path fill="none" stroke="#000000" stroke-width="4.63" d="M118.89,-442.59C136.19,-430.73 159.42,-414.81 178.99,-401.4"/>
<polygon fill="#000000" stroke="#000000" stroke-width="4.63" points="181.1,-404.86 187.06,-395.87 176.52,-398.18 181.1,-404.86"/>
<text text-anchor="middle" x="180.5" y="-413.8" font-family="Times,serif" font-size="14.00">14913</text>
</g>
<!-- Record Invoice Receipt&#45;&gt;Record Goods Receipt -->
<g id="edge11" class="edge">
<title>Record Invoice Receipt&#45;&gt;Record Goods Receipt</title>
<path fill="none" stroke="#000000" stroke-width="1.83" d="M236.7,-392.23C249.27,-404.87 264.6,-423.21 271.5,-443 279.91,-467.11 276.05,-496.16 270.86,-517.42"/>
<polygon fill="#000000" stroke="#000000" stroke-width="1.83" points="267.54,-516.29 268.29,-526.86 274.3,-518.13 267.54,-516.29"/>
<text text-anchor="middle" x="290.5" y="-457.3" font-family="Times,serif" font-size="14.00">4906</text>
</g>
<!-- Record Invoice Receipt&#45;&gt;Remove Payment Block -->
<g id="edge6" class="edge">
<title>Record Invoice Receipt&#45;&gt;Remove Payment Block</title>
<path fill="none" stroke="#000000" stroke-width="5.48" d="M230.88,-355.56C253.32,-326.33 298.77,-267.11 326.43,-231.06"/>
<polygon fill="#000000" stroke="#000000" stroke-width="5.48" points="329.94,-234.36 332.22,-223.51 322.33,-228.53 329.94,-234.36"/>
<text text-anchor="middle" x="314.5" y="-283.3" font-family="Times,serif" font-size="14.00">17935</text>
</g>
<!-- Clear Invoice -->
<g id="node8" class="node">
<title>Clear Invoice</title>
<polygon fill="#adadff" stroke="black" points="321,-131 184,-131 184,-95 321,-95 321,-131"/>
<text text-anchor="middle" x="252.5" y="-109.3" font-family="Times,serif" font-size="14.00">Clear Invoice (21078)</text>
</g>
<!-- Record Invoice Receipt&#45;&gt;Clear Invoice -->
<g id="edge16" class="edge">
<title>Record Invoice Receipt&#45;&gt;Clear Invoice</title>
<path fill="none" stroke="#000000" stroke-width="0.81" d="M219.48,-355.59C223.34,-321.98 232.33,-245.85 241.5,-182 243.38,-168.9 245.69,-154.43 247.71,-142.21"/>
<polygon fill="#000000" stroke="#000000" stroke-width="0.81" points="251.13,-142.95 249.33,-132.51 244.23,-141.8 251.13,-142.95"/>
<text text-anchor="middle" x="248.5" y="-239.8" font-family="Times,serif" font-size="14.00">1269</text>
</g>
<!-- Record Invoice Receipt&#45;&gt;Change Price -->
<g id="edge20" class="edge">
<title>Record Invoice Receipt&#45;&gt;Change Price</title>
<path fill="none" stroke="#ff0000" stroke-width="0.5" stroke-dasharray="5,2" d="M262.76,-355.59C297.76,-342.13 346.39,-323.43 383.61,-309.11"/>
<polygon fill="#ff0000" stroke="#ff0000" stroke-width="0.5" points="384.52,-312.51 392.6,-305.65 382.01,-305.98 384.52,-312.51"/>
<text text-anchor="middle" x="352" y="-326.8" font-family="Times,serif" font-size="14.00">158</text>
</g>
<!-- end_node -->
<g id="node11" class="node">
<title>end_node</title>
<ellipse fill="none" stroke="black" cx="252.5" cy="-22" rx="18" ry="18"/>
<ellipse fill="none" stroke="black" cx="252.5" cy="-22" rx="22" ry="22"/>
<text text-anchor="start" x="248" y="-18.3" font-family="Times,serif" font-size="14.00">■</text>
</g>
<!-- Record Invoice Receipt&#45;&gt;end_node -->
<g id="edge23" class="edge">
<title>Record Invoice Receipt&#45;&gt;end_node</title>
<path fill="none" stroke="#000000" stroke-width="0.91" d="M194.77,-355.75C177.07,-340.2 155.5,-315.58 155.5,-288 155.5,-288 155.5,-288 155.5,-112 155.5,-75.36 193.54,-49.71 221.97,-35.65"/>
<polygon fill="#000000" stroke="#000000" stroke-width="0.91" points="223.11,-38.98 230.69,-31.58 220.14,-32.64 223.11,-38.98"/>
<text text-anchor="middle" x="169.5" y="-196.3" font-family="Times,serif" font-size="14.00">1612</text>
</g>
<!-- Remove Payment Block&#45;&gt;Clear Invoice -->
<g id="edge7" class="edge">
<title>Remove Payment Block&#45;&gt;Clear Invoice</title>
<path fill="none" stroke="#000000" stroke-width="6" d="M329.56,-181.56C323.15,-175.95 316.02,-169.72 309.5,-164 301.38,-156.88 292.61,-149.19 284.44,-142.03"/>
<polygon fill="#000000" stroke="#000000" stroke-width="6" points="288.11,-138.27 277.13,-135.62 281.19,-146.16 288.11,-138.27"/>
<text text-anchor="middle" x="326.5" y="-152.8" font-family="Times,serif" font-size="14.00">19809</text>
</g>
<!-- Remove Payment Block&#45;&gt;end_node -->
<g id="edge24" class="edge">
<title>Remove Payment Block&#45;&gt;end_node</title>
<path fill="none" stroke="#000000" stroke-width="1.35" d="M349.67,-181.54C349.13,-159.79 345.66,-122.18 329.5,-95 316.99,-73.96 296.54,-55.25 279.85,-42.18"/>
<polygon fill="#000000" stroke="#000000" stroke-width="1.35" points="282.27,-39.62 272.18,-36.39 278.05,-45.21 282.27,-39.62"/>
<text text-anchor="middle" x="357.5" y="-109.3" font-family="Times,serif" font-size="14.00">3190</text>
</g>
<!-- Clear Invoice&#45;&gt;end_node -->
<g id="edge22" class="edge">
<title>Clear Invoice&#45;&gt;end_node</title>
<path fill="none" stroke="#000000" stroke-width="6.36" d="M252.5,-94.84C252.5,-85.13 252.5,-72.59 252.5,-60.72"/>
<polygon fill="#000000" stroke="#000000" stroke-width="6.36" points="258.06,-60.73 252.5,-50.73 246.94,-60.73 258.06,-60.73"/>
<text text-anchor="middle" x="269.5" y="-65.8" font-family="Times,serif" font-size="14.00">21078</text>
</g>
<!-- Receive Order Confirmation&#45;&gt;Record Goods Receipt -->
<g id="edge14" class="edge">
<title>Receive Order Confirmation&#45;&gt;Record Goods Receipt</title>
<path fill="none" stroke="#000000" stroke-width="1.23" d="M192.11,-616.8C204.52,-604.67 221.37,-588.21 235.35,-574.55"/>
<polygon fill="#000000" stroke="#000000" stroke-width="1.23" points="237.58,-577.26 242.29,-567.77 232.69,-572.26 237.58,-577.26"/>
<text text-anchor="middle" x="237.5" y="-587.8" font-family="Times,serif" font-size="14.00">2782</text>
</g>
<!-- Receive Order Confirmation&#45;&gt;Vendor creates invoice -->
<g id="edge17" class="edge">
<title>Receive Order Confirmation&#45;&gt;Vendor creates invoice</title>
<path fill="none" stroke="#000000" stroke-width="1.05" d="M162.42,-616.69C147.03,-593.81 120.73,-551.72 106.5,-512 104.03,-505.1 101.81,-497.51 99.94,-490.38"/>
<polygon fill="#000000" stroke="#000000" stroke-width="1.05" points="103.39,-489.76 97.58,-480.89 96.59,-491.44 103.39,-489.76"/>
<text text-anchor="middle" x="145.5" y="-544.3" font-family="Times,serif" font-size="14.00">2107</text>
</g>
<!-- Change Price&#45;&gt;Record Goods Receipt -->
<g id="edge19" class="edge">
<title>Change Price&#45;&gt;Record Goods Receipt</title>
<path fill="none" stroke="#ff0000" stroke-width="0.54" stroke-dasharray="5,2" d="M433.68,-305.26C419.61,-355.1 378.7,-496.68 363.5,-512 358.78,-516.75 353.39,-520.86 347.61,-524.41"/>
<polygon fill="#ff0000" stroke="#ff0000" stroke-width="0.54" points="346.04,-521.28 338.95,-529.15 349.4,-527.42 346.04,-521.28"/>
<text text-anchor="middle" x="413" y="-413.8" font-family="Times,serif" font-size="14.00">288</text>
</g>
<!-- Change Price&#45;&gt;Remove Payment Block -->
<g id="edge21" class="edge">
<title>Change Price&#45;&gt;Remove Payment Block</title>
<path fill="none" stroke="#ff0000" stroke-width="0.5" stroke-dasharray="5,2" d="M420.49,-268.8C407.55,-256.44 389.9,-239.59 375.44,-225.78"/>
<polygon fill="#ff0000" stroke="#ff0000" stroke-width="0.5" points="377.99,-223.37 368.34,-218.99 373.15,-228.43 377.99,-223.37"/>
<text text-anchor="middle" x="409" y="-239.8" font-family="Times,serif" font-size="14.00">158</text>
</g>
</g>
</svg>
