<?xml version="1.0" encoding="UTF-8" standalone="no"?>
<!DOCTYPE svg PUBLIC "-//W3C//DTD SVG 1.1//EN"
 "http://www.w3.org/Graphics/SVG/1.1/DTD/svg11.dtd">
<!-- Generated by graphviz version 7.0.5 (0)
 -->
<!-- Title: dfg Pages: 1 -->
<svg width="1050pt" height="856pt"
 viewBox="0.00 0.00 1049.50 856.00" xmlns="http://www.w3.org/2000/svg" xmlns:xlink="http://www.w3.org/1999/xlink">
<g id="graph0" class="graph" transform="scale(1 1) rotate(0) translate(4 852)">
<title>dfg</title>
<polygon fill="white" stroke="none" points="-4,4 -4,-852 1045.5,-852 1045.5,4 -4,4"/>
<!-- start_node -->
<g id="node1" class="node">
<title>start_node</title>
<ellipse fill="none" stroke="black" cx="101.5" cy="-830" rx="18" ry="18"/>
<text text-anchor="start" x="97" y="-826.3" font-family="Times,serif" font-size="14.00">●</text>
</g>
<!-- Create Purchase Order Item -->
<g id="node2" class="node">
<title>Create Purchase Order Item</title>
<polygon fill="#fbfbff" stroke="black" points="199,-674 4,-674 4,-638 199,-638 199,-674"/>
<text text-anchor="middle" x="101.5" y="-652.3" font-family="Times,serif" font-size="14.00">Create Purchase Order Item (64)</text>
</g>
<!-- start_node&#45;&gt;Create Purchase Order Item -->
<g id="edge1" class="edge">
<title>start_node&#45;&gt;Create Purchase Order Item</title>
<path fill="none" stroke="#ff0000" stroke-width="0.64" stroke-dasharray="5,2" d="M99.23,-811.71C97.54,-797.99 95.39,-778.3 94.5,-761 93.68,-745.02 93.68,-740.98 94.5,-725 95.18,-711.75 96.6,-697.11 97.99,-684.81"/>
<polygon fill="#ff0000" stroke="#ff0000" stroke-width="0.64" points="101.42,-685.6 99.11,-675.25 94.47,-684.78 101.42,-685.6"/>
<text text-anchor="middle" x="101.5" y="-739.3" font-family="Times,serif" font-size="14.00">50</text>
</g>
<!-- Create Purchase Requisition Item -->
<g id="node3" class="node">
<title>Create Purchase Requisition Item</title>
<polygon fill="#fefeff" stroke="black" points="343.5,-761 117.5,-761 117.5,-725 343.5,-725 343.5,-761"/>
<text text-anchor="middle" x="230.5" y="-739.3" font-family="Times,serif" font-size="14.00">Create Purchase Requisition Item (14)</text>
</g>
<!-- start_node&#45;&gt;Create Purchase Requisition Item -->
<g id="edge2" class="edge">
<title>start_node&#45;&gt;Create Purchase Requisition Item</title>
<path fill="none" stroke="#ff0000" stroke-width="0.54" stroke-dasharray="5,2" d="M116.3,-819.25C135.48,-806.61 169.54,-784.17 195.49,-767.07"/>
<polygon fill="#ff0000" stroke="#ff0000" stroke-width="0.54" points="197.18,-770.14 203.61,-761.72 193.33,-764.3 197.18,-770.14"/>
<text text-anchor="middle" x="180.5" y="-782.8" font-family="Times,serif" font-size="14.00">14</text>
</g>
<!-- Vendor creates invoice -->
<g id="node4" class="node">
<title>Vendor creates invoice</title>
<polygon fill="#fafaff" stroke="black" points="415,-587 248,-587 248,-551 415,-551 415,-587"/>
<text text-anchor="middle" x="331.5" y="-565.3" font-family="Times,serif" font-size="14.00">Vendor creates invoice (87)</text>
</g>
<!-- Create Purchase Order Item&#45;&gt;Vendor creates invoice -->
<g id="edge3" class="edge">
<title>Create Purchase Order Item&#45;&gt;Vendor creates invoice</title>
<path fill="none" stroke="#ff0000" stroke-width="0.65" stroke-dasharray="5,2" d="M148.6,-637.59C185.03,-624.13 235.63,-605.43 274.38,-591.11"/>
<polygon fill="#ff0000" stroke="#ff0000" stroke-width="0.65" points="275.37,-594.48 283.54,-587.73 272.94,-587.91 275.37,-594.48"/>
<text text-anchor="middle" x="236.5" y="-608.8" font-family="Times,serif" font-size="14.00">54</text>
</g>
<!-- Record Goods Receipt -->
<g id="node5" class="node">
<title>Record Goods Receipt</title>
<polygon fill="#9b9bff" stroke="black" points="309,-392 130,-392 130,-356 309,-356 309,-392"/>
<text text-anchor="middle" x="219.5" y="-370.3" font-family="Times,serif" font-size="14.00">Record Goods Receipt (1977)</text>
</g>
<!-- Create Purchase Order Item&#45;&gt;Record Goods Receipt -->
<g id="edge18" class="edge">
<title>Create Purchase Order Item&#45;&gt;Record Goods Receipt</title>
<path fill="none" stroke="#ff0000" stroke-width="0.51" stroke-dasharray="5,2" d="M94.89,-637.76C84.54,-608.02 67.45,-545.59 85.5,-497 101.88,-452.92 144.8,-418.73 177.69,-397.9"/>
<polygon fill="#ff0000" stroke="#ff0000" stroke-width="0.51" points="179.33,-401.01 186.02,-392.79 175.67,-395.04 179.33,-401.01"/>
<text text-anchor="middle" x="89" y="-511.3" font-family="Times,serif" font-size="14.00">4</text>
</g>
<!-- Change Price -->
<g id="node8" class="node">
<title>Change Price</title>
<polygon fill="#fefeff" stroke="black" points="204,-533 95,-533 95,-497 204,-497 204,-533"/>
<text text-anchor="middle" x="149.5" y="-511.3" font-family="Times,serif" font-size="14.00">Change Price (4)</text>
</g>
<!-- Create Purchase Order Item&#45;&gt;Change Price -->
<g id="edge14" class="edge">
<title>Create Purchase Order Item&#45;&gt;Change Price</title>
<path fill="none" stroke="#ff0000" stroke-width="0.51" stroke-dasharray="5,2" d="M107.48,-637.68C115.68,-613.93 130.5,-571.03 140.16,-543.03"/>
<polygon fill="#ff0000" stroke="#ff0000" stroke-width="0.51" points="143.39,-544.43 143.34,-533.83 136.77,-542.14 143.39,-544.43"/>
<text text-anchor="middle" x="122" y="-608.8" font-family="Times,serif" font-size="14.00">4</text>
</g>
<!-- Change Quantity -->
<g id="node9" class="node">
<title>Change Quantity</title>
<polygon fill="#fefeff" stroke="black" points="148.5,-305 20.5,-305 20.5,-269 148.5,-269 148.5,-305"/>
<text text-anchor="middle" x="84.5" y="-283.3" font-family="Times,serif" font-size="14.00">Change Quantity (5)</text>
</g>
<!-- Create Purchase Order Item&#45;&gt;Change Quantity -->
<g id="edge16" class="edge">
<title>Create Purchase Order Item&#45;&gt;Change Quantity</title>
<path fill="none" stroke="#ff0000" stroke-width="0.5" stroke-dasharray="5,2" d="M63.85,-637.6C39.19,-623.33 11.5,-600.52 11.5,-570 11.5,-570 11.5,-570 11.5,-373 11.5,-348.03 29.85,-326.74 48.15,-311.7"/>
<polygon fill="#ff0000" stroke="#ff0000" stroke-width="0.5" points="50.12,-314.6 55.88,-305.71 45.83,-309.07 50.12,-314.6"/>
<text text-anchor="middle" x="15" y="-457.3" font-family="Times,serif" font-size="14.00">2</text>
</g>
<!-- Create Purchase Requisition Item&#45;&gt;Create Purchase Order Item -->
<g id="edge8" class="edge">
<title>Create Purchase Requisition Item&#45;&gt;Create Purchase Order Item</title>
<path fill="none" stroke="#ff0000" stroke-width="0.54" stroke-dasharray="5,2" d="M204.08,-724.59C184.61,-711.76 157.91,-694.17 136.63,-680.15"/>
<polygon fill="#ff0000" stroke="#ff0000" stroke-width="0.54" points="138.84,-677.41 128.56,-674.83 134.98,-683.26 138.84,-677.41"/>
<text text-anchor="middle" x="180.5" y="-695.8" font-family="Times,serif" font-size="14.00">14</text>
</g>
<!-- Vendor creates invoice&#45;&gt;Vendor creates invoice -->
<g id="edge21" class="edge">
<title>Vendor creates invoice&#45;&gt;Vendor creates invoice</title>
<path fill="none" stroke="#ff0000" stroke-width="0.51" stroke-dasharray="5,2" d="M415.12,-576.15C425.89,-574.91 433,-572.53 433,-569 433,-566.8 430.22,-565.04 425.51,-563.73"/>
<polygon fill="#ff0000" stroke="#ff0000" stroke-width="0.51" points="426.35,-560.32 415.89,-561.99 425.11,-567.21 426.35,-560.32"/>
<text text-anchor="middle" x="436.5" y="-565.3" font-family="Times,serif" font-size="14.00">6</text>
</g>
<!-- Vendor creates invoice&#45;&gt;Record Goods Receipt -->
<g id="edge4" class="edge">
<title>Vendor creates invoice&#45;&gt;Record Goods Receipt</title>
<path fill="none" stroke="#ff0000" stroke-width="0.67" stroke-dasharray="5,2" d="M325.71,-550.74C315.03,-520.42 290.23,-456.43 256.5,-410 254,-406.56 251.13,-403.17 248.12,-399.94"/>
<polygon fill="#ff0000" stroke="#ff0000" stroke-width="0.67" points="250.74,-397.61 241.2,-393.02 245.79,-402.56 250.74,-397.61"/>
<text text-anchor="middle" x="302.5" y="-457.3" font-family="Times,serif" font-size="14.00">59</text>
</g>
<!-- Record Invoice Receipt -->
<g id="node6" class="node">
<title>Record Invoice Receipt</title>
<polygon fill="#fbfbff" stroke="black" points="661,-305 490,-305 490,-269 661,-269 661,-305"/>
<text text-anchor="middle" x="575.5" y="-283.3" font-family="Times,serif" font-size="14.00">Record Invoice Receipt (72)</text>
</g>
<!-- Vendor creates invoice&#45;&gt;Record Invoice Receipt -->
<g id="edge10" class="edge">
<title>Vendor creates invoice&#45;&gt;Record Invoice Receipt</title>
<path fill="none" stroke="#ff0000" stroke-width="0.53" stroke-dasharray="5,2" d="M415.34,-565.15C469.77,-561.41 533.93,-552.79 552.5,-533 608.35,-473.48 593.65,-366.35 582.6,-315.82"/>
<polygon fill="#ff0000" stroke="#ff0000" stroke-width="0.53" points="586.02,-315.1 580.36,-306.14 579.2,-316.67 586.02,-315.1"/>
<text text-anchor="middle" x="599.5" y="-413.8" font-family="Times,serif" font-size="14.00">10</text>
</g>
<!-- Clear Invoice -->
<g id="node7" class="node">
<title>Clear Invoice</title>
<polygon fill="#fafaff" stroke="black" points="848.5,-131 732.5,-131 732.5,-95 848.5,-95 848.5,-131"/>
<text text-anchor="middle" x="790.5" y="-109.3" font-family="Times,serif" font-size="14.00">Clear Invoice (82)</text>
</g>
<!-- Vendor creates invoice&#45;&gt;Clear Invoice -->
<g id="edge13" class="edge">
<title>Vendor creates invoice&#45;&gt;Clear Invoice</title>
<path fill="none" stroke="#ff0000" stroke-width="0.51" stroke-dasharray="5,2" d="M415.39,-563.25C594.16,-551.99 996.5,-520.2 996.5,-462 996.5,-462 996.5,-462 996.5,-199 996.5,-138.41 919.42,-120.14 859.56,-115.09"/>
<polygon fill="#ff0000" stroke="#ff0000" stroke-width="0.51" points="859.99,-111.61 849.76,-114.37 859.47,-118.59 859.99,-111.61"/>
<text text-anchor="middle" x="1000" y="-326.8" font-family="Times,serif" font-size="14.00">6</text>
</g>
<!-- Vendor creates invoice&#45;&gt;Change Quantity -->
<g id="edge22" class="edge">
<title>Vendor creates invoice&#45;&gt;Change Quantity</title>
<path fill="none" stroke="#ff0000" stroke-width="0.5" stroke-dasharray="5,2" d="M295.01,-550.62C285.42,-545.44 275.3,-539.43 266.5,-533 248.29,-519.7 132.63,-411.01 120.5,-392 105.38,-368.3 95.74,-337.49 90.29,-315.57"/>
<polygon fill="#ff0000" stroke="#ff0000" stroke-width="0.5" points="93.74,-314.97 88.05,-306.04 86.93,-316.57 93.74,-314.97"/>
<text text-anchor="middle" x="154" y="-413.8" font-family="Times,serif" font-size="14.00">2</text>
</g>
<!-- Vendor creates debit memo -->
<g id="node11" class="node">
<title>Vendor creates debit memo</title>
<polygon fill="#fefeff" stroke="black" points="510.5,-479 324.5,-479 324.5,-443 510.5,-443 510.5,-479"/>
<text text-anchor="middle" x="417.5" y="-457.3" font-family="Times,serif" font-size="14.00">Vendor creates debit memo (4)</text>
</g>
<!-- Vendor creates invoice&#45;&gt;Vendor creates debit memo -->
<g id="edge25" class="edge">
<title>Vendor creates invoice&#45;&gt;Vendor creates debit memo</title>
<path fill="none" stroke="#ff0000" stroke-width="0.51" stroke-dasharray="5,2" d="M345.32,-550.97C359.21,-533.84 380.81,-507.22 396.76,-487.56"/>
<polygon fill="#ff0000" stroke="#ff0000" stroke-width="0.51" points="399.36,-489.91 402.95,-479.94 393.93,-485.5 399.36,-489.91"/>
<text text-anchor="middle" x="390" y="-511.3" font-family="Times,serif" font-size="14.00">4</text>
</g>
<!-- Record Goods Receipt&#45;&gt;Vendor creates invoice -->
<g id="edge9" class="edge">
<title>Record Goods Receipt&#45;&gt;Vendor creates invoice</title>
<path fill="none" stroke="#ff0000" stroke-width="0.55" stroke-dasharray="5,2" d="M224.48,-392.23C230.96,-413.41 243.4,-450.1 259.5,-479 274.17,-505.32 281.39,-509.7 300.5,-533 303.15,-536.23 305.98,-539.57 308.82,-542.85"/>
<polygon fill="#ff0000" stroke="#ff0000" stroke-width="0.55" points="306.01,-544.95 315.24,-550.15 311.27,-540.33 306.01,-544.95"/>
<text text-anchor="middle" x="266.5" y="-457.3" font-family="Times,serif" font-size="14.00">18</text>
</g>
<!-- Record Goods Receipt&#45;&gt;Record Goods Receipt -->
<g id="edge5" class="edge">
<title>Record Goods Receipt&#45;&gt;Record Goods Receipt</title>
<path fill="none" stroke="#000000" stroke-width="6" d="M309.28,-381.01C320,-379.73 327,-377.4 327,-374 327,-372.94 326.32,-371.98 325.05,-371.13"/>
<polygon fill="#000000" stroke="#000000" stroke-width="6" points="326.53,-366.09 315.53,-368.63 323.87,-376.24 326.53,-366.09"/>
<text text-anchor="middle" x="341" y="-370.3" font-family="Times,serif" font-size="14.00">1905</text>
</g>
<!-- Record Goods Receipt&#45;&gt;Record Invoice Receipt -->
<g id="edge6" class="edge">
<title>Record Goods Receipt&#45;&gt;Record Invoice Receipt</title>
<path fill="none" stroke="#ff0000" stroke-width="0.64" stroke-dasharray="5,2" d="M292.4,-355.59C350.38,-341.75 431.53,-322.37 492.1,-307.91"/>
<polygon fill="#ff0000" stroke="#ff0000" stroke-width="0.64" points="492.54,-311.41 501.46,-305.68 490.92,-304.6 492.54,-311.41"/>
<text text-anchor="middle" x="425.5" y="-326.8" font-family="Times,serif" font-size="14.00">48</text>
</g>
<!-- Record Goods Receipt&#45;&gt;Clear Invoice -->
<g id="edge37" class="edge">
<title>Record Goods Receipt&#45;&gt;Clear Invoice</title>
<path fill="none" stroke="#ff0000" stroke-width="0.51" stroke-dasharray="5,2" d="M226.97,-355.73C229.24,-350.13 231.63,-343.86 233.5,-338 259.84,-255.66 213.39,-204.71 279.5,-149 312.53,-121.17 589.75,-115.42 721.49,-114.27"/>
<polygon fill="#ff0000" stroke="#ff0000" stroke-width="0.51" points="721.51,-117.77 731.48,-114.19 721.45,-110.77 721.51,-117.77"/>
<text text-anchor="middle" x="245" y="-239.8" font-family="Times,serif" font-size="14.00">3</text>
</g>
<!-- Record Goods Receipt&#45;&gt;Change Quantity -->
<g id="edge34" class="edge">
<title>Record Goods Receipt&#45;&gt;Change Quantity</title>
<path fill="none" stroke="#ff0000" stroke-width="0.5" stroke-dasharray="5,2" d="M192.1,-355.61C176.91,-345.98 157.67,-333.8 140.5,-323 134.37,-319.14 127.86,-315.06 121.52,-311.1"/>
<polygon fill="#ff0000" stroke="#ff0000" stroke-width="0.5" points="123.41,-308.15 113.08,-305.82 119.7,-314.09 123.41,-308.15"/>
<text text-anchor="middle" x="166" y="-326.8" font-family="Times,serif" font-size="14.00">1</text>
</g>
<!-- end_node -->
<g id="node15" class="node">
<title>end_node</title>
<ellipse fill="none" stroke="black" cx="292.5" cy="-22" rx="18" ry="18"/>
<ellipse fill="none" stroke="black" cx="292.5" cy="-22" rx="22" ry="22"/>
<text text-anchor="start" x="288" y="-18.3" font-family="Times,serif" font-size="14.00">■</text>
</g>
<!-- Record Goods Receipt&#45;&gt;end_node -->
<g id="edge41" class="edge">
<title>Record Goods Receipt&#45;&gt;end_node</title>
<path fill="none" stroke="#ff0000" stroke-width="0.5" stroke-dasharray="5,2" d="M219.5,-355.74C219.5,-338.57 219.5,-311.46 219.5,-288 219.5,-288 219.5,-288 219.5,-112 219.5,-81.92 244.73,-56.45 265.52,-40.56"/>
<polygon fill="#ff0000" stroke="#ff0000" stroke-width="0.5" points="267.43,-43.51 273.46,-34.8 263.31,-37.84 267.43,-43.51"/>
<text text-anchor="middle" x="223" y="-196.3" font-family="Times,serif" font-size="14.00">2</text>
</g>
<!-- Record Invoice Receipt&#45;&gt;Vendor creates invoice -->
<g id="edge12" class="edge">
<title>Record Invoice Receipt&#45;&gt;Vendor creates invoice</title>
<path fill="none" stroke="#ff0000" stroke-width="0.51" stroke-dasharray="5,2" d="M575.01,-305.23C573.09,-341.6 563.83,-427.11 519.5,-479 491.4,-511.89 448.43,-533.49 410.66,-547.16"/>
<polygon fill="#ff0000" stroke="#ff0000" stroke-width="0.51" points="409.7,-543.79 401.41,-550.38 412,-550.4 409.7,-543.79"/>
<text text-anchor="middle" x="559" y="-413.8" font-family="Times,serif" font-size="14.00">5</text>
</g>
<!-- Record Invoice Receipt&#45;&gt;Record Invoice Receipt -->
<g id="edge24" class="edge">
<title>Record Invoice Receipt&#45;&gt;Record Invoice Receipt</title>
<path fill="none" stroke="#ff0000" stroke-width="0.52" stroke-dasharray="5,2" d="M661.16,-294.1C671.92,-292.85 679,-290.48 679,-287 679,-284.82 676.23,-283.08 671.53,-281.78"/>
<polygon fill="#ff0000" stroke="#ff0000" stroke-width="0.52" points="672.4,-278.38 661.93,-280.04 671.15,-285.26 672.4,-278.38"/>
<text text-anchor="middle" x="682.5" y="-283.3" font-family="Times,serif" font-size="14.00">7</text>
</g>
<!-- Record Invoice Receipt&#45;&gt;Clear Invoice -->
<g id="edge7" class="edge">
<title>Record Invoice Receipt&#45;&gt;Clear Invoice</title>
<path fill="none" stroke="#ff0000" stroke-width="0.64" stroke-dasharray="5,2" d="M661.27,-278.97C742.79,-270.31 856.93,-252.3 884.5,-218 907.88,-188.92 869.55,-157.37 835.03,-136.74"/>
<polygon fill="#ff0000" stroke="#ff0000" stroke-width="0.64" points="837.17,-133.94 826.76,-131.97 833.67,-140 837.17,-133.94"/>
<text text-anchor="middle" x="898.5" y="-196.3" font-family="Times,serif" font-size="14.00">50</text>
</g>
<!-- Record Subsequent Invoice -->
<g id="node10" class="node">
<title>Record Subsequent Invoice</title>
<polygon fill="#ffffff" stroke="black" points="506,-218 321,-218 321,-182 506,-182 506,-218"/>
<text text-anchor="middle" x="413.5" y="-196.3" font-family="Times,serif" font-size="14.00">Record Subsequent Invoice (1)</text>
</g>
<!-- Record Invoice Receipt&#45;&gt;Record Subsequent Invoice -->
<g id="edge19" class="edge">
<title>Record Invoice Receipt&#45;&gt;Record Subsequent Invoice</title>
<path fill="none" stroke="#ff0000" stroke-width="0.5" stroke-dasharray="5,2" d="M542.33,-268.59C517.32,-255.47 482.84,-237.38 455.84,-223.21"/>
<polygon fill="#ff0000" stroke="#ff0000" stroke-width="0.5" points="457.78,-220.28 447.3,-218.73 454.53,-226.48 457.78,-220.28"/>
<text text-anchor="middle" x="507" y="-239.8" font-family="Times,serif" font-size="14.00">1</text>
</g>
<!-- Cancel Invoice Receipt -->
<g id="node12" class="node">
<title>Cancel Invoice Receipt</title>
<polygon fill="#fefeff" stroke="black" points="687,-218 524,-218 524,-182 687,-182 687,-218"/>
<text text-anchor="middle" x="605.5" y="-196.3" font-family="Times,serif" font-size="14.00">Cancel Invoice Receipt (2)</text>
</g>
<!-- Record Invoice Receipt&#45;&gt;Cancel Invoice Receipt -->
<g id="edge27" class="edge">
<title>Record Invoice Receipt&#45;&gt;Cancel Invoice Receipt</title>
<path fill="none" stroke="#ff0000" stroke-width="0.5" stroke-dasharray="5,2" d="M581.57,-268.8C585.65,-257.24 591.12,-241.75 595.79,-228.5"/>
<polygon fill="#ff0000" stroke="#ff0000" stroke-width="0.5" points="599.05,-229.78 599.08,-219.18 592.45,-227.45 599.05,-229.78"/>
<text text-anchor="middle" x="595" y="-239.8" font-family="Times,serif" font-size="14.00">2</text>
</g>
<!-- Remove Payment Block -->
<g id="node13" class="node">
<title>Remove Payment Block</title>
<polygon fill="#fefeff" stroke="black" points="875.5,-218 705.5,-218 705.5,-182 875.5,-182 875.5,-218"/>
<text text-anchor="middle" x="790.5" y="-196.3" font-family="Times,serif" font-size="14.00">Remove Payment Block (3)</text>
</g>
<!-- Record Invoice Receipt&#45;&gt;Remove Payment Block -->
<g id="edge30" class="edge">
<title>Record Invoice Receipt&#45;&gt;Remove Payment Block</title>
<path fill="none" stroke="#ff0000" stroke-width="0.51" stroke-dasharray="5,2" d="M619.53,-268.59C653.44,-255.19 700.48,-236.59 736.64,-222.29"/>
<polygon fill="#ff0000" stroke="#ff0000" stroke-width="0.51" points="737.81,-225.6 745.82,-218.66 735.23,-219.09 737.81,-225.6"/>
<text text-anchor="middle" x="699" y="-239.8" font-family="Times,serif" font-size="14.00">3</text>
</g>
<!-- Record Invoice Receipt&#45;&gt;end_node -->
<g id="edge40" class="edge">
<title>Record Invoice Receipt&#45;&gt;end_node</title>
<path fill="none" stroke="#ff0000" stroke-width="0.51" stroke-dasharray="5,2" d="M489.76,-274.53C422.17,-263.62 335.59,-244.87 312.5,-218 273.3,-172.39 278.69,-96.84 285.79,-54.41"/>
<polygon fill="#ff0000" stroke="#ff0000" stroke-width="0.51" points="289.22,-55.09 287.56,-44.63 282.33,-53.84 289.22,-55.09"/>
<text text-anchor="middle" x="289" y="-152.8" font-family="Times,serif" font-size="14.00">4</text>
</g>
<!-- Clear Invoice&#45;&gt;Vendor creates invoice -->
<g id="edge38" class="edge">
<title>Clear Invoice&#45;&gt;Vendor creates invoice</title>
<path fill="none" stroke="#ff0000" stroke-width="0.5" stroke-dasharray="5,2" d="M848.68,-119.48C899.74,-125.1 969.47,-135.01 993.5,-149 1018.33,-163.46 1034.5,-170.26 1034.5,-199 1034.5,-462 1034.5,-462 1034.5,-462 1034.5,-543.88 944.5,-515.57 864.5,-533 783.58,-550.63 556.14,-560.69 426.01,-565.17"/>
<polygon fill="#ff0000" stroke="#ff0000" stroke-width="0.5" points="425.9,-561.67 416.03,-565.51 426.14,-568.67 425.9,-561.67"/>
<text text-anchor="middle" x="1038" y="-326.8" font-family="Times,serif" font-size="14.00">2</text>
</g>
<!-- Clear Invoice&#45;&gt;Record Invoice Receipt -->
<g id="edge29" class="edge">
<title>Clear Invoice&#45;&gt;Record Invoice Receipt</title>
<path fill="none" stroke="#ff0000" stroke-width="0.51" stroke-dasharray="5,2" d="M842.67,-131.34C854.26,-136.23 866.16,-142.14 876.5,-149 904.82,-167.8 926.13,-188.35 909.5,-218 886.39,-259.21 762.17,-275.46 671.96,-281.87"/>
<polygon fill="#ff0000" stroke="#ff0000" stroke-width="0.51" points="671.92,-278.36 662.18,-282.53 672.39,-285.34 671.92,-278.36"/>
<text text-anchor="middle" x="918" y="-196.3" font-family="Times,serif" font-size="14.00">4</text>
</g>
<!-- Clear Invoice&#45;&gt;Clear Invoice -->
<g id="edge11" class="edge">
<title>Clear Invoice&#45;&gt;Clear Invoice</title>
<path fill="none" stroke="#ff0000" stroke-width="0.55" stroke-dasharray="5,2" d="M848.81,-120.68C859.23,-119.68 866.5,-117.12 866.5,-113 866.5,-110.49 863.8,-108.56 859.33,-107.21"/>
<polygon fill="#ff0000" stroke="#ff0000" stroke-width="0.55" points="860.09,-103.79 849.63,-105.47 858.86,-110.68 860.09,-103.79"/>
<text text-anchor="middle" x="873.5" y="-109.3" font-family="Times,serif" font-size="14.00">18</text>
</g>
<!-- Clear Invoice&#45;&gt;end_node -->
<g id="edge39" class="edge">
<title>Clear Invoice&#45;&gt;end_node</title>
<path fill="none" stroke="#ff0000" stroke-width="0.66" stroke-dasharray="5,2" d="M732.4,-101.62C627.03,-82.78 407.67,-43.58 324.98,-28.8"/>
<polygon fill="#ff0000" stroke="#ff0000" stroke-width="0.66" points="325.7,-25.38 315.24,-27.06 324.46,-32.27 325.7,-25.38"/>
<text text-anchor="middle" x="592.5" y="-65.8" font-family="Times,serif" font-size="14.00">58</text>
</g>
<!-- Change Price&#45;&gt;Record Goods Receipt -->
<g id="edge15" class="edge">
<title>Change Price&#45;&gt;Record Goods Receipt</title>
<path fill="none" stroke="#ff0000" stroke-width="0.51" stroke-dasharray="5,2" d="M149.47,-496.74C150.2,-474.87 154.15,-436.8 171.5,-410 174.03,-406.1 177.15,-402.48 180.59,-399.18"/>
<polygon fill="#ff0000" stroke="#ff0000" stroke-width="0.51" points="182.57,-402.09 187.91,-392.94 178.03,-396.76 182.57,-402.09"/>
<text text-anchor="middle" x="161" y="-457.3" font-family="Times,serif" font-size="14.00">4</text>
</g>
<!-- Change Quantity&#45;&gt;Vendor creates invoice -->
<g id="edge17" class="edge">
<title>Change Quantity&#45;&gt;Vendor creates invoice</title>
<path fill="none" stroke="#ff0000" stroke-width="0.5" stroke-dasharray="5,2" d="M76.63,-305.47C58.04,-349.7 17.11,-467.26 74.5,-533 95.57,-557.14 172.65,-565.26 236.95,-567.7"/>
<polygon fill="#ff0000" stroke="#ff0000" stroke-width="0.5" points="236.68,-571.2 246.8,-568.04 236.92,-564.2 236.68,-571.2"/>
<text text-anchor="middle" x="51" y="-413.8" font-family="Times,serif" font-size="14.00">2</text>
</g>
<!-- Change Quantity&#45;&gt;Record Goods Receipt -->
<g id="edge23" class="edge">
<title>Change Quantity&#45;&gt;Record Goods Receipt</title>
<path fill="none" stroke="#ff0000" stroke-width="0.5" stroke-dasharray="5,2" d="M99.2,-305.47C108.72,-315.95 121.86,-328.96 135.5,-338 142.88,-342.89 151.06,-347.32 159.33,-351.25"/>
<polygon fill="#ff0000" stroke="#ff0000" stroke-width="0.5" points="157.79,-354.4 168.35,-355.33 160.68,-348.02 157.79,-354.4"/>
<text text-anchor="middle" x="139" y="-326.8" font-family="Times,serif" font-size="14.00">2</text>
</g>
<!-- Change Delivery Indicator -->
<g id="node14" class="node">
<title>Change Delivery Indicator</title>
<polygon fill="#ffffff" stroke="black" points="181,-218 0,-218 0,-182 181,-182 181,-218"/>
<text text-anchor="middle" x="90.5" y="-196.3" font-family="Times,serif" font-size="14.00">Change Delivery Indicator (1)</text>
</g>
<!-- Change Quantity&#45;&gt;Change Delivery Indicator -->
<g id="edge35" class="edge">
<title>Change Quantity&#45;&gt;Change Delivery Indicator</title>
<path fill="none" stroke="#ff0000" stroke-width="0.5" stroke-dasharray="5,2" d="M85.71,-268.8C86.52,-257.35 87.6,-242.06 88.53,-228.89"/>
<polygon fill="#ff0000" stroke="#ff0000" stroke-width="0.5" points="92,-229.44 89.21,-219.22 85.02,-228.95 92,-229.44"/>
<text text-anchor="middle" x="92" y="-239.8" font-family="Times,serif" font-size="14.00">1</text>
</g>
<!-- Record Subsequent Invoice&#45;&gt;Clear Invoice -->
<g id="edge20" class="edge">
<title>Record Subsequent Invoice&#45;&gt;Clear Invoice</title>
<path fill="none" stroke="#ff0000" stroke-width="0.5" stroke-dasharray="5,2" d="M490.7,-181.59C558.69,-166.26 656.78,-144.15 722.02,-129.44"/>
<polygon fill="#ff0000" stroke="#ff0000" stroke-width="0.5" points="722.48,-132.92 731.47,-127.31 720.94,-126.1 722.48,-132.92"/>
<text text-anchor="middle" x="628" y="-152.8" font-family="Times,serif" font-size="14.00">1</text>
</g>
<!-- Vendor creates debit memo&#45;&gt;Record Goods Receipt -->
<g id="edge26" class="edge">
<title>Vendor creates debit memo&#45;&gt;Record Goods Receipt</title>
<path fill="none" stroke="#ff0000" stroke-width="0.5" stroke-dasharray="5,2" d="M379.91,-442.61C358.49,-432.81 331.1,-420.48 306.5,-410 295.95,-405.5 284.62,-400.83 273.74,-396.42"/>
<polygon fill="#ff0000" stroke="#ff0000" stroke-width="0.5" points="275.19,-393.24 264.61,-392.74 272.57,-399.73 275.19,-393.24"/>
<text text-anchor="middle" x="343" y="-413.8" font-family="Times,serif" font-size="14.00">2</text>
</g>
<!-- Vendor creates debit memo&#45;&gt;Record Invoice Receipt -->
<g id="edge32" class="edge">
<title>Vendor creates debit memo&#45;&gt;Record Invoice Receipt</title>
<path fill="none" stroke="#ff0000" stroke-width="0.5" stroke-dasharray="5,2" d="M428.53,-442.61C446.47,-415.17 484.04,-361.04 524.5,-323 528.71,-319.05 533.39,-315.21 538.17,-311.62"/>
<polygon fill="#ff0000" stroke="#ff0000" stroke-width="0.5" points="540.09,-314.55 546.18,-305.88 536.01,-308.86 540.09,-314.55"/>
<text text-anchor="middle" x="495" y="-370.3" font-family="Times,serif" font-size="14.00">2</text>
</g>
<!-- Cancel Invoice Receipt&#45;&gt;Record Invoice Receipt -->
<g id="edge33" class="edge">
<title>Cancel Invoice Receipt&#45;&gt;Record Invoice Receipt</title>
<path fill="none" stroke="#ff0000" stroke-width="0.5" stroke-dasharray="5,2" d="M588.94,-218.27C584.8,-223.56 580.87,-229.68 578.5,-236 575.91,-242.92 574.7,-250.76 574.26,-258.14"/>
<polygon fill="#ff0000" stroke="#ff0000" stroke-width="0.5" points="570.76,-258 574.08,-268.06 577.76,-258.12 570.76,-258"/>
<text text-anchor="middle" x="582" y="-239.8" font-family="Times,serif" font-size="14.00">1</text>
</g>
<!-- Cancel Invoice Receipt&#45;&gt;Clear Invoice -->
<g id="edge28" class="edge">
<title>Cancel Invoice Receipt&#45;&gt;Clear Invoice</title>
<path fill="none" stroke="#ff0000" stroke-width="0.5" stroke-dasharray="5,2" d="M643.38,-181.59C672.19,-168.36 712.01,-150.06 742.96,-135.84"/>
<polygon fill="#ff0000" stroke="#ff0000" stroke-width="0.5" points="744.35,-139.05 751.98,-131.7 741.43,-132.69 744.35,-139.05"/>
<text text-anchor="middle" x="712" y="-152.8" font-family="Times,serif" font-size="14.00">1</text>
</g>
<!-- Remove Payment Block&#45;&gt;Clear Invoice -->
<g id="edge31" class="edge">
<title>Remove Payment Block&#45;&gt;Clear Invoice</title>
<path fill="none" stroke="#ff0000" stroke-width="0.51" stroke-dasharray="5,2" d="M790.5,-181.8C790.5,-170.35 790.5,-155.06 790.5,-141.89"/>
<polygon fill="#ff0000" stroke="#ff0000" stroke-width="0.51" points="794,-142.23 790.5,-132.23 787,-142.23 794,-142.23"/>
<text text-anchor="middle" x="794" y="-152.8" font-family="Times,serif" font-size="14.00">3</text>
</g>
<!-- Change Delivery Indicator&#45;&gt;Record Goods Receipt -->
<g id="edge36" class="edge">
<title>Change Delivery Indicator&#45;&gt;Record Goods Receipt</title>
<path fill="none" stroke="#ff0000" stroke-width="0.5" stroke-dasharray="5,2" d="M109.97,-218.36C124.07,-231.49 143.11,-250.38 157.5,-269 176.56,-293.67 194.34,-324.65 205.93,-346.36"/>
<polygon fill="#ff0000" stroke="#ff0000" stroke-width="0.5" points="202.7,-347.73 210.45,-354.96 208.89,-344.48 202.7,-347.73"/>
<text text-anchor="middle" x="185" y="-283.3" font-family="Times,serif" font-size="14.00">1</text>
</g>
</g>
</svg>
