<?xml version="1.0" encoding="UTF-8" standalone="no"?>
<!DOCTYPE svg PUBLIC "-//W3C//DTD SVG 1.1//EN"
 "http://www.w3.org/Graphics/SVG/1.1/DTD/svg11.dtd">
<!-- Generated by graphviz version 7.0.5 (0)
 -->
<!-- Title: dfg Pages: 1 -->
<svg width="641pt" height="835pt"
 viewBox="0.00 0.00 640.59 835.00" xmlns="http://www.w3.org/2000/svg" xmlns:xlink="http://www.w3.org/1999/xlink">
<g id="graph0" class="graph" transform="scale(1 1) rotate(0) translate(4 831)">
<title>dfg</title>
<polygon fill="white" stroke="none" points="-4,4 -4,-831 636.59,-831 636.59,4 -4,4"/>
<!-- start_node -->
<g id="node1" class="node">
<title>start_node</title>
<ellipse fill="none" stroke="black" cx="266.59" cy="-809" rx="18" ry="18"/>
<text text-anchor="start" x="262.09" y="-805.3" font-family="Times,serif" font-size="14.00">●</text>
</g>
<!-- Create Purchase Order Item -->
<g id="node2" class="node">
<title>Create Purchase Order Item</title>
<polygon fill="#9b9bff" stroke="black" points="374.09,-653 159.09,-653 159.09,-617 374.09,-617 374.09,-653"/>
<text text-anchor="middle" x="266.59" y="-631.3" font-family="Times,serif" font-size="14.00">Create Purchase Order Item (56062)</text>
</g>
<!-- start_node&#45;&gt;Create Purchase Order Item -->
<g id="edge1" class="edge">
<title>start_node&#45;&gt;Create Purchase Order Item</title>
<path fill="none" stroke="#000000" stroke-width="6.54" d="M264.31,-790.71C262.63,-776.99 260.47,-757.3 259.59,-740 258.77,-724.02 258.77,-719.98 259.59,-704 260.16,-692.78 261.27,-680.56 262.44,-669.61"/>
<polygon fill="#000000" stroke="#000000" stroke-width="6.54" points="268.1,-670.42 263.56,-659.83 256.74,-669.11 268.1,-670.42"/>
<text text-anchor="middle" x="276.59" y="-718.3" font-family="Times,serif" font-size="14.00">51206</text>
</g>
<!-- Create Purchase Requisition Item -->
<g id="node3" class="node">
<title>Create Purchase Requisition Item</title>
<polygon fill="#f7f7ff" stroke="black" points="542.09,-740 303.09,-740 303.09,-704 542.09,-704 542.09,-740"/>
<text text-anchor="middle" x="422.59" y="-718.3" font-family="Times,serif" font-size="14.00">Create Purchase Requisition Item (4856)</text>
</g>
<!-- start_node&#45;&gt;Create Purchase Requisition Item -->
<g id="edge2" class="edge">
<title>start_node&#45;&gt;Create Purchase Requisition Item</title>
<path fill="none" stroke="#000000" stroke-width="1.04" d="M282.11,-799.54C304.85,-787.15 348.04,-763.62 380.55,-745.9"/>
<polygon fill="#000000" stroke="#000000" stroke-width="1.04" points="382.2,-748.99 389.31,-741.13 378.85,-742.84 382.2,-748.99"/>
<text text-anchor="middle" x="367.59" y="-761.8" font-family="Times,serif" font-size="14.00">4856</text>
</g>
<!-- Record Goods Receipt -->
<g id="node4" class="node">
<title>Record Goods Receipt</title>
<polygon fill="#9b9bff" stroke="black" points="266.59,-479 80.59,-479 80.59,-443 266.59,-443 266.59,-479"/>
<text text-anchor="middle" x="173.59" y="-457.3" font-family="Times,serif" font-size="14.00">Record Goods Receipt (56062)</text>
</g>
<!-- Create Purchase Order Item&#45;&gt;Record Goods Receipt -->
<g id="edge3" class="edge">
<title>Create Purchase Order Item&#45;&gt;Record Goods Receipt</title>
<path fill="none" stroke="#000000" stroke-width="3.18" d="M158.86,-619.01C96.81,-607.93 27.46,-590.49 8.59,-566 -20.21,-528.64 31.19,-501.14 84.04,-483.84"/>
<polygon fill="#000000" stroke="#000000" stroke-width="3.18" points="85.07,-487.18 93.58,-480.87 82.99,-480.5 85.07,-487.18"/>
<text text-anchor="middle" x="25.59" y="-544.3" font-family="Times,serif" font-size="14.00">22929</text>
</g>
<!-- Vendor creates invoice -->
<g id="node5" class="node">
<title>Vendor creates invoice</title>
<polygon fill="#9b9bff" stroke="black" points="403.09,-392 216.09,-392 216.09,-356 403.09,-356 403.09,-392"/>
<text text-anchor="middle" x="309.59" y="-370.3" font-family="Times,serif" font-size="14.00">Vendor creates invoice (56062)</text>
</g>
<!-- Create Purchase Order Item&#45;&gt;Vendor creates invoice -->
<g id="edge7" class="edge">
<title>Create Purchase Order Item&#45;&gt;Vendor creates invoice</title>
<path fill="none" stroke="#000000" stroke-width="2.11" d="M374.35,-625.53C456.86,-616.54 560.91,-598.92 587.59,-566 652.35,-486.08 497.32,-425.9 393.65,-396.01"/>
<polygon fill="#000000" stroke="#000000" stroke-width="2.11" points="394.61,-392.64 384.04,-393.29 392.71,-399.38 394.61,-392.64"/>
<text text-anchor="middle" x="615.59" y="-500.8" font-family="Times,serif" font-size="14.00">13873</text>
</g>
<!-- Receive Order Confirmation -->
<g id="node8" class="node">
<title>Receive Order Confirmation</title>
<polygon fill="#e3e3ff" stroke="black" points="578.09,-566 359.09,-566 359.09,-530 578.09,-530 578.09,-566"/>
<text text-anchor="middle" x="468.59" y="-544.3" font-family="Times,serif" font-size="14.00">Receive Order Confirmation (15835)</text>
</g>
<!-- Create Purchase Order Item&#45;&gt;Receive Order Confirmation -->
<g id="edge10" class="edge">
<title>Create Purchase Order Item&#45;&gt;Receive Order Confirmation</title>
<path fill="none" stroke="#000000" stroke-width="2.34" d="M307.95,-616.59C338.86,-603.59 381.38,-585.7 414.91,-571.59"/>
<polygon fill="#000000" stroke="#000000" stroke-width="2.34" points="416.15,-574.86 424.01,-567.76 413.43,-568.41 416.15,-574.86"/>
<text text-anchor="middle" x="396.59" y="-587.8" font-family="Times,serif" font-size="14.00">15835</text>
</g>
<!-- Change Quantity -->
<g id="node9" class="node">
<title>Change Quantity</title>
<polygon fill="#fbfbff" stroke="black" points="341.09,-566 192.09,-566 192.09,-530 341.09,-530 341.09,-566"/>
<text text-anchor="middle" x="266.59" y="-544.3" font-family="Times,serif" font-size="14.00">Change Quantity (2667)</text>
</g>
<!-- Create Purchase Order Item&#45;&gt;Change Quantity -->
<g id="edge14" class="edge">
<title>Create Purchase Order Item&#45;&gt;Change Quantity</title>
<path fill="none" stroke="#000000" stroke-width="0.78" d="M266.59,-616.8C266.59,-605.47 266.59,-590.36 266.59,-577.29"/>
<polygon fill="#000000" stroke="#000000" stroke-width="0.78" points="270.09,-577.65 266.59,-567.65 263.09,-577.65 270.09,-577.65"/>
<text text-anchor="middle" x="280.59" y="-587.8" font-family="Times,serif" font-size="14.00">2667</text>
</g>
<!-- Change Price -->
<g id="node11" class="node">
<title>Change Price</title>
<polygon fill="#ffffff" stroke="black" points="173.59,-566 51.59,-566 51.59,-530 173.59,-530 173.59,-566"/>
<text text-anchor="middle" x="112.59" y="-544.3" font-family="Times,serif" font-size="14.00">Change Price (758)</text>
</g>
<!-- Create Purchase Order Item&#45;&gt;Change Price -->
<g id="edge19" class="edge">
<title>Create Purchase Order Item&#45;&gt;Change Price</title>
<path fill="none" stroke="#ff0000" stroke-width="0.55" stroke-dasharray="5,2" d="M235.05,-616.59C211.49,-603.59 179.07,-585.7 153.51,-571.59"/>
<polygon fill="#ff0000" stroke="#ff0000" stroke-width="0.55" points="155.26,-568.56 144.81,-566.79 151.88,-574.68 155.26,-568.56"/>
<text text-anchor="middle" x="210.09" y="-587.8" font-family="Times,serif" font-size="14.00">758</text>
</g>
<!-- Create Purchase Requisition Item&#45;&gt;Create Purchase Order Item -->
<g id="edge13" class="edge">
<title>Create Purchase Requisition Item&#45;&gt;Create Purchase Order Item</title>
<path fill="none" stroke="#000000" stroke-width="1.04" d="M390.64,-703.59C366.88,-690.64 334.22,-672.85 308.38,-658.77"/>
<polygon fill="#000000" stroke="#000000" stroke-width="1.04" points="310.33,-655.85 299.87,-654.14 306.98,-661.99 310.33,-655.85"/>
<text text-anchor="middle" x="367.59" y="-674.8" font-family="Times,serif" font-size="14.00">4856</text>
</g>
<!-- Record Goods Receipt&#45;&gt;Vendor creates invoice -->
<g id="edge4" class="edge">
<title>Record Goods Receipt&#45;&gt;Vendor creates invoice</title>
<path fill="none" stroke="#000000" stroke-width="4.92" d="M178.09,-442.51C181.71,-431.74 187.83,-418.44 197.59,-410 202.05,-406.14 206.93,-402.71 212.09,-399.65"/>
<polygon fill="#000000" stroke="#000000" stroke-width="4.92" points="213.77,-403.63 220.72,-395.25 209.85,-395.96 213.77,-403.63"/>
<text text-anchor="middle" x="214.59" y="-413.8" font-family="Times,serif" font-size="14.00">37586</text>
</g>
<!-- Record Invoice Receipt -->
<g id="node6" class="node">
<title>Record Invoice Receipt</title>
<polygon fill="#9b9bff" stroke="black" points="275.09,-305 84.09,-305 84.09,-269 275.09,-269 275.09,-305"/>
<text text-anchor="middle" x="179.59" y="-283.3" font-family="Times,serif" font-size="14.00">Record Invoice Receipt (56062)</text>
</g>
<!-- Record Goods Receipt&#45;&gt;Record Invoice Receipt -->
<g id="edge9" class="edge">
<title>Record Goods Receipt&#45;&gt;Record Invoice Receipt</title>
<path fill="none" stroke="#000000" stroke-width="2.65" d="M172.78,-442.69C171.96,-422.04 171.02,-386.48 172.59,-356 173.21,-343.83 174.46,-330.49 175.73,-318.87"/>
<polygon fill="#000000" stroke="#000000" stroke-width="2.65" points="179.17,-319.62 176.85,-309.28 172.22,-318.81 179.17,-319.62"/>
<text text-anchor="middle" x="189.59" y="-370.3" font-family="Times,serif" font-size="14.00">18476</text>
</g>
<!-- Vendor creates invoice&#45;&gt;Record Goods Receipt -->
<g id="edge8" class="edge">
<title>Vendor creates invoice&#45;&gt;Record Goods Receipt</title>
<path fill="none" stroke="#000000" stroke-width="2.65" d="M282.13,-392.39C273.32,-397.99 263.53,-404.24 254.59,-410 244.33,-416.61 241.92,-418.51 231.59,-425 226.09,-428.45 220.26,-432.04 214.5,-435.55"/>
<polygon fill="#000000" stroke="#000000" stroke-width="2.65" points="213.09,-432.32 206.35,-440.49 216.72,-438.3 213.09,-432.32"/>
<text text-anchor="middle" x="271.59" y="-413.8" font-family="Times,serif" font-size="14.00">18476</text>
</g>
<!-- Vendor creates invoice&#45;&gt;Record Invoice Receipt -->
<g id="edge5" class="edge">
<title>Vendor creates invoice&#45;&gt;Record Invoice Receipt</title>
<path fill="none" stroke="#000000" stroke-width="4.92" d="M282.97,-355.59C264.74,-343.68 240.24,-327.66 219.66,-314.2"/>
<polygon fill="#000000" stroke="#000000" stroke-width="4.92" points="222.11,-310.66 211.38,-308.79 217.39,-317.86 222.11,-310.66"/>
<text text-anchor="middle" x="269.59" y="-326.8" font-family="Times,serif" font-size="14.00">37586</text>
</g>
<!-- Clear Invoice -->
<g id="node7" class="node">
<title>Clear Invoice</title>
<polygon fill="#aaaaff" stroke="black" points="248.09,-131 111.09,-131 111.09,-95 248.09,-95 248.09,-131"/>
<text text-anchor="middle" x="179.59" y="-109.3" font-family="Times,serif" font-size="14.00">Clear Invoice (47569)</text>
</g>
<!-- Record Invoice Receipt&#45;&gt;Clear Invoice -->
<g id="edge6" class="edge">
<title>Record Invoice Receipt&#45;&gt;Clear Invoice</title>
<path fill="none" stroke="#000000" stroke-width="6" d="M222.47,-268.62C243.76,-257.55 267.46,-240.92 279.59,-218 287.07,-203.86 287.07,-196.14 279.59,-182 270.11,-164.1 253.57,-150.03 236.64,-139.45"/>
<polygon fill="#000000" stroke="#000000" stroke-width="6" points="239.37,-134.96 228.08,-134.57 234.17,-144.08 239.37,-134.96"/>
<text text-anchor="middle" x="302.59" y="-196.3" font-family="Times,serif" font-size="14.00">46675</text>
</g>
<!-- Remove Payment Block -->
<g id="node10" class="node">
<title>Remove Payment Block</title>
<polygon fill="#fefeff" stroke="black" points="271.09,-218 88.09,-218 88.09,-182 271.09,-182 271.09,-218"/>
<text text-anchor="middle" x="179.59" y="-196.3" font-family="Times,serif" font-size="14.00">Remove Payment Block (894)</text>
</g>
<!-- Record Invoice Receipt&#45;&gt;Remove Payment Block -->
<g id="edge17" class="edge">
<title>Record Invoice Receipt&#45;&gt;Remove Payment Block</title>
<path fill="none" stroke="#ff0000" stroke-width="0.57" stroke-dasharray="5,2" d="M179.59,-268.8C179.59,-257.47 179.59,-242.36 179.59,-229.29"/>
<polygon fill="#ff0000" stroke="#ff0000" stroke-width="0.57" points="183.09,-229.33 179.59,-219.33 176.09,-229.33 183.09,-229.33"/>
<text text-anchor="middle" x="190.09" y="-239.8" font-family="Times,serif" font-size="14.00">894</text>
</g>
<!-- end_node -->
<g id="node12" class="node">
<title>end_node</title>
<ellipse fill="none" stroke="black" cx="75.59" cy="-22" rx="18" ry="18"/>
<ellipse fill="none" stroke="black" cx="75.59" cy="-22" rx="22" ry="22"/>
<text text-anchor="start" x="71.09" y="-18.3" font-family="Times,serif" font-size="14.00">■</text>
</g>
<!-- Record Invoice Receipt&#45;&gt;end_node -->
<g id="edge23" class="edge">
<title>Record Invoice Receipt&#45;&gt;end_node</title>
<path fill="none" stroke="#000000" stroke-width="1.47" d="M136.16,-268.52C114.78,-257.45 90.98,-240.86 78.59,-218 50.79,-166.72 59.04,-96.16 67.42,-55.48"/>
<polygon fill="#000000" stroke="#000000" stroke-width="1.47" points="70.82,-56.32 69.56,-45.8 63.98,-54.81 70.82,-56.32"/>
<text text-anchor="middle" x="75.59" y="-152.8" font-family="Times,serif" font-size="14.00">8493</text>
</g>
<!-- Clear Invoice&#45;&gt;end_node -->
<g id="edge22" class="edge">
<title>Clear Invoice&#45;&gt;end_node</title>
<path fill="none" stroke="#000000" stroke-width="6.11" d="M159.53,-94.84C143.92,-81.48 122.03,-62.74 104.51,-47.75"/>
<polygon fill="#000000" stroke="#000000" stroke-width="6.11" points="108.15,-43.83 97.07,-41.39 101.2,-51.95 108.15,-43.83"/>
<text text-anchor="middle" x="154.59" y="-65.8" font-family="Times,serif" font-size="14.00">47569</text>
</g>
<!-- Receive Order Confirmation&#45;&gt;Record Goods Receipt -->
<g id="edge11" class="edge">
<title>Receive Order Confirmation&#45;&gt;Record Goods Receipt</title>
<path fill="none" stroke="#000000" stroke-width="1.99" d="M408.18,-529.59C361.32,-516.09 296.21,-497.33 246.46,-483"/>
<polygon fill="#000000" stroke="#000000" stroke-width="1.99" points="247.63,-479.69 237.06,-480.29 245.7,-486.42 247.63,-479.69"/>
<text text-anchor="middle" x="356.59" y="-500.8" font-family="Times,serif" font-size="14.00">12833</text>
</g>
<!-- Receive Order Confirmation&#45;&gt;Vendor creates invoice -->
<g id="edge12" class="edge">
<title>Receive Order Confirmation&#45;&gt;Vendor creates invoice</title>
<path fill="none" stroke="#000000" stroke-width="0.82" d="M452.47,-529.56C424.25,-499.04 365.82,-435.83 333.1,-400.43"/>
<polygon fill="#000000" stroke="#000000" stroke-width="0.82" points="335.95,-398.36 326.59,-393.4 330.81,-403.11 335.95,-398.36"/>
<text text-anchor="middle" x="418.59" y="-457.3" font-family="Times,serif" font-size="14.00">3002</text>
</g>
<!-- Change Quantity&#45;&gt;Record Goods Receipt -->
<g id="edge15" class="edge">
<title>Change Quantity&#45;&gt;Record Goods Receipt</title>
<path fill="none" stroke="#ff0000" stroke-width="0.63" stroke-dasharray="5,2" d="M247.77,-529.8C234.24,-517.44 215.81,-500.59 200.7,-486.78"/>
<polygon fill="#ff0000" stroke="#ff0000" stroke-width="0.63" points="203.14,-484.27 193.4,-480.11 198.42,-489.44 203.14,-484.27"/>
<text text-anchor="middle" x="240.59" y="-500.8" font-family="Times,serif" font-size="14.00">1377</text>
</g>
<!-- Change Quantity&#45;&gt;Vendor creates invoice -->
<g id="edge16" class="edge">
<title>Change Quantity&#45;&gt;Vendor creates invoice</title>
<path fill="none" stroke="#ff0000" stroke-width="0.62" stroke-dasharray="5,2" d="M298.06,-529.56C304.9,-524.61 311.58,-518.71 316.59,-512 325.83,-499.61 325.11,-494.26 327.59,-479 331.79,-453.09 325.65,-423.61 319.43,-402.67"/>
<polygon fill="#ff0000" stroke="#ff0000" stroke-width="0.62" points="322.78,-401.64 316.41,-393.17 316.1,-403.76 322.78,-401.64"/>
<text text-anchor="middle" x="343.59" y="-457.3" font-family="Times,serif" font-size="14.00">1290</text>
</g>
<!-- Remove Payment Block&#45;&gt;Clear Invoice -->
<g id="edge18" class="edge">
<title>Remove Payment Block&#45;&gt;Clear Invoice</title>
<path fill="none" stroke="#ff0000" stroke-width="0.57" stroke-dasharray="5,2" d="M179.59,-181.8C179.59,-170.47 179.59,-155.36 179.59,-142.29"/>
<polygon fill="#ff0000" stroke="#ff0000" stroke-width="0.57" points="183.09,-142.33 179.59,-132.33 176.09,-142.33 183.09,-142.33"/>
<text text-anchor="middle" x="190.09" y="-152.8" font-family="Times,serif" font-size="14.00">894</text>
</g>
<!-- Change Price&#45;&gt;Record Goods Receipt -->
<g id="edge20" class="edge">
<title>Change Price&#45;&gt;Record Goods Receipt</title>
<path fill="none" stroke="#ff0000" stroke-width="0.52" stroke-dasharray="5,2" d="M124.93,-529.8C133.55,-517.78 145.22,-501.52 154.97,-487.94"/>
<polygon fill="#ff0000" stroke="#ff0000" stroke-width="0.52" points="157.61,-490.27 160.6,-480.1 151.92,-486.19 157.61,-490.27"/>
<text text-anchor="middle" x="158.09" y="-500.8" font-family="Times,serif" font-size="14.00">447</text>
</g>
<!-- Change Price&#45;&gt;Vendor creates invoice -->
<g id="edge21" class="edge">
<title>Change Price&#45;&gt;Vendor creates invoice</title>
<path fill="none" stroke="#ff0000" stroke-width="0.5" stroke-dasharray="5,2" d="M174.04,-532.05C176.93,-531.36 179.79,-530.67 182.59,-530 216.34,-521.9 231.25,-533.39 258.59,-512 292.38,-485.56 303.78,-434.29 307.63,-402.52"/>
<polygon fill="#ff0000" stroke="#ff0000" stroke-width="0.5" points="311.07,-403.23 308.62,-392.92 304.11,-402.51 311.07,-403.23"/>
<text text-anchor="middle" x="310.09" y="-457.3" font-family="Times,serif" font-size="14.00">311</text>
</g>
</g>
</svg>
