<?xml version="1.0" encoding="UTF-8" standalone="no"?>
<!DOCTYPE svg PUBLIC "-//W3C//DTD SVG 1.1//EN"
 "http://www.w3.org/Graphics/SVG/1.1/DTD/svg11.dtd">
<!-- Generated by graphviz version 7.0.5 (0)
 -->
<!-- Title: dfg Pages: 1 -->
<svg width="414pt" height="313pt"
 viewBox="0.00 0.00 414.00 313.00" xmlns="http://www.w3.org/2000/svg" xmlns:xlink="http://www.w3.org/1999/xlink">
<g id="graph0" class="graph" transform="scale(1 1) rotate(0) translate(4 309)">
<title>dfg</title>
<polygon fill="white" stroke="none" points="-4,4 -4,-309 410,-309 410,4 -4,4"/>
<!-- start_node -->
<g id="node1" class="node">
<title>start_node</title>
<ellipse fill="none" stroke="black" cx="194.5" cy="-287" rx="18" ry="18"/>
<text text-anchor="start" x="190" y="-283.3" font-family="Times,serif" font-size="14.00">●</text>
</g>
<!-- Create Purchase Order Item -->
<g id="node2" class="node">
<title>Create Purchase Order Item</title>
<polygon fill="#9b9bff" stroke="black" points="302,-218 87,-218 87,-182 302,-182 302,-218"/>
<text text-anchor="middle" x="194.5" y="-196.3" font-family="Times,serif" font-size="14.00">Create Purchase Order Item (10700)</text>
</g>
<!-- start_node&#45;&gt;Create Purchase Order Item -->
<g id="edge1" class="edge">
<title>start_node&#45;&gt;Create Purchase Order Item</title>
<path fill="none" stroke="#000000" stroke-width="8.51" d="M194.5,-268.8C194.5,-259.18 194.5,-246.86 194.5,-235.35"/>
<polygon fill="#000000" stroke="#000000" stroke-width="8.51" points="201.94,-235.59 194.5,-225.59 187.06,-235.59 201.94,-235.59"/>
<text text-anchor="middle" x="211.5" y="-239.8" font-family="Times,serif" font-size="14.00">10700</text>
</g>
<!-- Record Goods Receipt -->
<g id="node3" class="node">
<title>Record Goods Receipt</title>
<polygon fill="#babaff" stroke="black" points="179,-131 0,-131 0,-95 179,-95 179,-131"/>
<text text-anchor="middle" x="89.5" y="-109.3" font-family="Times,serif" font-size="14.00">Record Goods Receipt (8149)</text>
</g>
<!-- Create Purchase Order Item&#45;&gt;Record Goods Receipt -->
<g id="edge2" class="edge">
<title>Create Purchase Order Item&#45;&gt;Record Goods Receipt</title>
<path fill="none" stroke="#000000" stroke-width="6" d="M173,-181.59C158.7,-170.02 139.62,-154.58 123.32,-141.37"/>
<polygon fill="#000000" stroke="#000000" stroke-width="6" points="127.06,-137.66 115.99,-135.44 120.46,-145.82 127.06,-137.66"/>
<text text-anchor="middle" x="162.5" y="-152.8" font-family="Times,serif" font-size="14.00">8149</text>
</g>
<!-- Delete Purchase Order Item -->
<g id="node4" class="node">
<title>Delete Purchase Order Item</title>
<polygon fill="#ffffff" stroke="black" points="406,-131 197,-131 197,-95 406,-95 406,-131"/>
<text text-anchor="middle" x="301.5" y="-109.3" font-family="Times,serif" font-size="14.00">Delete Purchase Order Item (2551)</text>
</g>
<!-- Create Purchase Order Item&#45;&gt;Delete Purchase Order Item -->
<g id="edge3" class="edge">
<title>Create Purchase Order Item&#45;&gt;Delete Purchase Order Item</title>
<path fill="none" stroke="#000000" stroke-width="0.5" d="M216.41,-181.59C232.28,-168.99 253.92,-151.79 271.41,-137.9"/>
<polygon fill="#000000" stroke="#000000" stroke-width="0.5" points="273.37,-140.81 279.03,-131.85 269.02,-135.33 273.37,-140.81"/>
<text text-anchor="middle" x="267.5" y="-152.8" font-family="Times,serif" font-size="14.00">2551</text>
</g>
<!-- end_node -->
<g id="node5" class="node">
<title>end_node</title>
<ellipse fill="none" stroke="black" cx="194.5" cy="-22" rx="18" ry="18"/>
<ellipse fill="none" stroke="black" cx="194.5" cy="-22" rx="22" ry="22"/>
<text text-anchor="start" x="190" y="-18.3" font-family="Times,serif" font-size="14.00">■</text>
</g>
<!-- Record Goods Receipt&#45;&gt;end_node -->
<g id="edge4" class="edge">
<title>Record Goods Receipt&#45;&gt;end_node</title>
<path fill="none" stroke="#000000" stroke-width="6" d="M109.99,-94.63C125.78,-81.25 147.82,-62.57 165.43,-47.64"/>
<polygon fill="#000000" stroke="#000000" stroke-width="6" points="168.7,-51.75 172.93,-41.28 161.91,-43.74 168.7,-51.75"/>
<text text-anchor="middle" x="162.5" y="-65.8" font-family="Times,serif" font-size="14.00">8149</text>
</g>
<!-- Delete Purchase Order Item&#45;&gt;end_node -->
<g id="edge5" class="edge">
<title>Delete Purchase Order Item&#45;&gt;end_node</title>
<path fill="none" stroke="#000000" stroke-width="0.5" d="M280.62,-94.63C263,-79.98 237.76,-58.98 219.15,-43.5"/>
<polygon fill="#000000" stroke="#000000" stroke-width="0.5" points="221.63,-41.01 211.7,-37.31 217.15,-46.4 221.63,-41.01"/>
<text text-anchor="middle" x="271.5" y="-65.8" font-family="Times,serif" font-size="14.00">2551</text>
</g>
</g>
</svg>
