<?xml version="1.0" encoding="UTF-8" standalone="no"?>
<!DOCTYPE svg PUBLIC "-//W3C//DTD SVG 1.1//EN"
 "http://www.w3.org/Graphics/SVG/1.1/DTD/svg11.dtd">
<!-- Generated by graphviz version 7.0.5 (0)
 -->
<!-- Title: dfg Pages: 1 -->
<svg width="472pt" height="748pt"
 viewBox="0.00 0.00 472.00 748.00" xmlns="http://www.w3.org/2000/svg" xmlns:xlink="http://www.w3.org/1999/xlink">
<g id="graph0" class="graph" transform="scale(1 1) rotate(0) translate(4 744)">
<title>dfg</title>
<polygon fill="white" stroke="none" points="-4,4 -4,-744 468,-744 468,4 -4,4"/>
<!-- start_node -->
<g id="node1" class="node">
<title>start_node</title>
<ellipse fill="none" stroke="black" cx="188.5" cy="-722" rx="18" ry="18"/>
<text text-anchor="start" x="184" y="-718.3" font-family="Times,serif" font-size="14.00">●</text>
</g>
<!-- Create Purchase Order Item -->
<g id="node2" class="node">
<title>Create Purchase Order Item</title>
<polygon fill="#9b9bff" stroke="black" points="296,-566 81,-566 81,-530 296,-530 296,-566"/>
<text text-anchor="middle" x="188.5" y="-544.3" font-family="Times,serif" font-size="14.00">Create Purchase Order Item (49945)</text>
</g>
<!-- start_node&#45;&gt;Create Purchase Order Item -->
<g id="edge1" class="edge">
<title>start_node&#45;&gt;Create Purchase Order Item</title>
<path fill="none" stroke="#000000" stroke-width="6.56" d="M186.23,-703.71C184.54,-689.99 182.39,-670.3 181.5,-653 180.68,-637.02 180.68,-632.98 181.5,-617 182.08,-605.78 183.18,-593.56 184.35,-582.61"/>
<polygon fill="#000000" stroke="#000000" stroke-width="6.56" points="190.04,-583.43 185.47,-572.84 178.63,-582.12 190.04,-583.43"/>
<text text-anchor="middle" x="198.5" y="-631.3" font-family="Times,serif" font-size="14.00">44232</text>
</g>
<!-- Create Purchase Requisition Item -->
<g id="node3" class="node">
<title>Create Purchase Requisition Item</title>
<polygon fill="#ffffff" stroke="black" points="464,-653 225,-653 225,-617 464,-617 464,-653"/>
<text text-anchor="middle" x="344.5" y="-631.3" font-family="Times,serif" font-size="14.00">Create Purchase Requisition Item (5713)</text>
</g>
<!-- start_node&#45;&gt;Create Purchase Requisition Item -->
<g id="edge2" class="edge">
<title>start_node&#45;&gt;Create Purchase Requisition Item</title>
<path fill="none" stroke="#000000" stroke-width="0.86" d="M204.03,-712.54C226.87,-700.1 270.33,-676.42 302.89,-658.67"/>
<polygon fill="#000000" stroke="#000000" stroke-width="0.86" points="304.35,-661.86 311.46,-654 301,-655.71 304.35,-661.86"/>
<text text-anchor="middle" x="289.5" y="-674.8" font-family="Times,serif" font-size="14.00">5713</text>
</g>
<!-- Vendor creates invoice -->
<g id="node4" class="node">
<title>Vendor creates invoice</title>
<polygon fill="#9f9fff" stroke="black" points="217,-479 30,-479 30,-443 217,-443 217,-479"/>
<text text-anchor="middle" x="123.5" y="-457.3" font-family="Times,serif" font-size="14.00">Vendor creates invoice (47763)</text>
</g>
<!-- Create Purchase Order Item&#45;&gt;Vendor creates invoice -->
<g id="edge3" class="edge">
<title>Create Purchase Order Item&#45;&gt;Vendor creates invoice</title>
<path fill="none" stroke="#000000" stroke-width="5.86" d="M175.35,-529.8C167.12,-519.04 156.29,-504.88 146.66,-492.29"/>
<polygon fill="#000000" stroke="#000000" stroke-width="5.86" points="150.9,-489.4 140.76,-484.57 142.76,-495.62 150.9,-489.4"/>
<text text-anchor="middle" x="177.5" y="-500.8" font-family="Times,serif" font-size="14.00">39459</text>
</g>
<!-- Record Goods Receipt -->
<g id="node5" class="node">
<title>Record Goods Receipt</title>
<polygon fill="#9b9bff" stroke="black" points="320.5,-392 134.5,-392 134.5,-356 320.5,-356 320.5,-392"/>
<text text-anchor="middle" x="227.5" y="-370.3" font-family="Times,serif" font-size="14.00">Record Goods Receipt (49945)</text>
</g>
<!-- Create Purchase Order Item&#45;&gt;Record Goods Receipt -->
<g id="edge7" class="edge">
<title>Create Purchase Order Item&#45;&gt;Record Goods Receipt</title>
<path fill="none" stroke="#000000" stroke-width="1.57" d="M200.39,-529.67C208.87,-516.4 219.74,-497.34 225.5,-479 233.12,-454.75 232.97,-425.72 231.28,-404.5"/>
<polygon fill="#000000" stroke="#000000" stroke-width="1.57" points="234.79,-404.38 230.32,-394.77 227.82,-405.07 234.79,-404.38"/>
<text text-anchor="middle" x="249.5" y="-457.3" font-family="Times,serif" font-size="14.00">10486</text>
</g>
<!-- Create Purchase Requisition Item&#45;&gt;Create Purchase Order Item -->
<g id="edge10" class="edge">
<title>Create Purchase Requisition Item&#45;&gt;Create Purchase Order Item</title>
<path fill="none" stroke="#000000" stroke-width="0.86" d="M312.55,-616.59C288.79,-603.64 256.14,-585.85 230.3,-571.77"/>
<polygon fill="#000000" stroke="#000000" stroke-width="0.86" points="232,-568.72 221.55,-567.01 228.65,-574.86 232,-568.72"/>
<text text-anchor="middle" x="289.5" y="-587.8" font-family="Times,serif" font-size="14.00">5713</text>
</g>
<!-- Vendor creates invoice&#45;&gt;Record Goods Receipt -->
<g id="edge4" class="edge">
<title>Vendor creates invoice&#45;&gt;Record Goods Receipt</title>
<path fill="none" stroke="#000000" stroke-width="5.37" d="M151.99,-442.62C160.13,-437.28 168.87,-431.17 176.5,-425 184.63,-418.43 192.94,-410.77 200.42,-403.44"/>
<polygon fill="#000000" stroke="#000000" stroke-width="5.37" points="203.56,-406.95 207.26,-396.54 196.89,-400.33 203.56,-406.95"/>
<text text-anchor="middle" x="210.5" y="-413.8" font-family="Times,serif" font-size="14.00">36188</text>
</g>
<!-- Record Invoice Receipt -->
<g id="node6" class="node">
<title>Record Invoice Receipt</title>
<polygon fill="#9f9fff" stroke="black" points="191,-305 0,-305 0,-269 191,-269 191,-305"/>
<text text-anchor="middle" x="95.5" y="-283.3" font-family="Times,serif" font-size="14.00">Record Invoice Receipt (47763)</text>
</g>
<!-- Vendor creates invoice&#45;&gt;Record Invoice Receipt -->
<g id="edge9" class="edge">
<title>Vendor creates invoice&#45;&gt;Record Invoice Receipt</title>
<path fill="none" stroke="#000000" stroke-width="1.73" d="M112.68,-442.59C105.08,-429.29 95.57,-410.21 91.5,-392 85.98,-367.29 87.7,-338.48 90.39,-317.45"/>
<polygon fill="#000000" stroke="#000000" stroke-width="1.73" points="93.82,-318.17 91.8,-307.77 86.89,-317.15 93.82,-318.17"/>
<text text-anchor="middle" x="108.5" y="-370.3" font-family="Times,serif" font-size="14.00">11575</text>
</g>
<!-- Record Goods Receipt&#45;&gt;Vendor creates invoice -->
<g id="edge8" class="edge">
<title>Record Goods Receipt&#45;&gt;Vendor creates invoice</title>
<path fill="none" stroke="#000000" stroke-width="1.24" d="M169.83,-392.36C160.57,-397.01 151.68,-402.81 144.5,-410 138.51,-416 134.14,-423.96 130.98,-431.77"/>
<polygon fill="#000000" stroke="#000000" stroke-width="1.24" points="127.73,-430.46 127.8,-441.06 134.35,-432.73 127.73,-430.46"/>
<text text-anchor="middle" x="158.5" y="-413.8" font-family="Times,serif" font-size="14.00">8304</text>
</g>
<!-- Record Goods Receipt&#45;&gt;Record Invoice Receipt -->
<g id="edge5" class="edge">
<title>Record Goods Receipt&#45;&gt;Record Invoice Receipt</title>
<path fill="none" stroke="#000000" stroke-width="5.37" d="M200.81,-355.58C186.01,-345.95 167.26,-333.77 150.5,-323 146.03,-320.12 141.34,-317.12 136.67,-314.14"/>
<polygon fill="#000000" stroke="#000000" stroke-width="5.37" points="139.23,-310.2 128.27,-308.79 134.18,-318.13 139.23,-310.2"/>
<text text-anchor="middle" x="189.5" y="-326.8" font-family="Times,serif" font-size="14.00">36188</text>
</g>
<!-- Remove Payment Block -->
<g id="node8" class="node">
<title>Remove Payment Block</title>
<polygon fill="#fbfbff" stroke="black" points="285.5,-218 95.5,-218 95.5,-182 285.5,-182 285.5,-218"/>
<text text-anchor="middle" x="190.5" y="-196.3" font-family="Times,serif" font-size="14.00">Remove Payment Block (7333)</text>
</g>
<!-- Record Goods Receipt&#45;&gt;Remove Payment Block -->
<g id="edge14" class="edge">
<title>Record Goods Receipt&#45;&gt;Remove Payment Block</title>
<path fill="none" stroke="#000000" stroke-width="0.5" d="M223.75,-355.56C217.32,-325.69 204.16,-264.48 196.46,-228.71"/>
<polygon fill="#000000" stroke="#000000" stroke-width="0.5" points="199.95,-228.27 194.42,-219.22 193.1,-229.74 199.95,-228.27"/>
<text text-anchor="middle" x="227.5" y="-283.3" font-family="Times,serif" font-size="14.00">3271</text>
</g>
<!-- end_node -->
<g id="node9" class="node">
<title>end_node</title>
<ellipse fill="none" stroke="black" cx="255.5" cy="-22" rx="18" ry="18"/>
<ellipse fill="none" stroke="black" cx="255.5" cy="-22" rx="22" ry="22"/>
<text text-anchor="start" x="251" y="-18.3" font-family="Times,serif" font-size="14.00">■</text>
</g>
<!-- Record Goods Receipt&#45;&gt;end_node -->
<g id="edge16" class="edge">
<title>Record Goods Receipt&#45;&gt;end_node</title>
<path fill="none" stroke="#000000" stroke-width="0.34" d="M267.64,-355.58C293.19,-341.5 321.5,-318.91 321.5,-288 321.5,-288 321.5,-288 321.5,-112 321.5,-83.68 299.67,-58.5 281.13,-42.21"/>
<polygon fill="#000000" stroke="#000000" stroke-width="0.34" points="283.5,-39.64 273.58,-35.92 279.01,-45.01 283.5,-39.64"/>
<text text-anchor="middle" x="335.5" y="-196.3" font-family="Times,serif" font-size="14.00">2182</text>
</g>
<!-- Record Invoice Receipt&#45;&gt;Record Goods Receipt -->
<g id="edge13" class="edge">
<title>Record Invoice Receipt&#45;&gt;Record Goods Receipt</title>
<path fill="none" stroke="#000000" stroke-width="0.5" d="M99.66,-305.46C103.07,-316.21 108.92,-329.51 118.5,-338 124.12,-342.98 130.47,-347.26 137.19,-350.93"/>
<polygon fill="#000000" stroke="#000000" stroke-width="0.5" points="135.37,-353.93 145.88,-355.23 138.47,-347.66 135.37,-353.93"/>
<text text-anchor="middle" x="132.5" y="-326.8" font-family="Times,serif" font-size="14.00">3271</text>
</g>
<!-- Clear Invoice -->
<g id="node7" class="node">
<title>Clear Invoice</title>
<polygon fill="#9f9fff" stroke="black" points="259,-131 122,-131 122,-95 259,-95 259,-131"/>
<text text-anchor="middle" x="190.5" y="-109.3" font-family="Times,serif" font-size="14.00">Clear Invoice (47763)</text>
</g>
<!-- Record Invoice Receipt&#45;&gt;Clear Invoice -->
<g id="edge6" class="edge">
<title>Record Invoice Receipt&#45;&gt;Clear Invoice</title>
<path fill="none" stroke="#000000" stroke-width="6" d="M78.59,-268.6C59.97,-247.24 34.85,-210.37 52.5,-182 65.05,-161.82 85.55,-147.46 106.95,-137.3"/>
<polygon fill="#000000" stroke="#000000" stroke-width="6" points="108.77,-142.23 115.89,-133.47 104.63,-132.58 108.77,-142.23"/>
<text text-anchor="middle" x="69.5" y="-196.3" font-family="Times,serif" font-size="14.00">40430</text>
</g>
<!-- Record Invoice Receipt&#45;&gt;Remove Payment Block -->
<g id="edge11" class="edge">
<title>Record Invoice Receipt&#45;&gt;Remove Payment Block</title>
<path fill="none" stroke="#000000" stroke-width="0.62" d="M114.72,-268.8C128.67,-256.32 147.72,-239.28 163.23,-225.4"/>
<polygon fill="#000000" stroke="#000000" stroke-width="0.62" points="165.16,-228.37 170.28,-219.09 160.5,-223.15 165.16,-228.37"/>
<text text-anchor="middle" x="163.5" y="-239.8" font-family="Times,serif" font-size="14.00">4062</text>
</g>
<!-- Clear Invoice&#45;&gt;end_node -->
<g id="edge15" class="edge">
<title>Clear Invoice&#45;&gt;end_node</title>
<path fill="none" stroke="#000000" stroke-width="7.09" d="M203.03,-94.84C211.52,-83.22 222.97,-67.53 233.02,-53.79"/>
<polygon fill="#000000" stroke="#000000" stroke-width="7.09" points="237.93,-57.57 238.82,-45.84 227.91,-50.26 237.93,-57.57"/>
<text text-anchor="middle" x="244.5" y="-65.8" font-family="Times,serif" font-size="14.00">47763</text>
</g>
<!-- Remove Payment Block&#45;&gt;Clear Invoice -->
<g id="edge12" class="edge">
<title>Remove Payment Block&#45;&gt;Clear Invoice</title>
<path fill="none" stroke="#000000" stroke-width="1.1" d="M190.5,-181.8C190.5,-170.7 190.5,-155.97 190.5,-143.08"/>
<polygon fill="#000000" stroke="#000000" stroke-width="1.1" points="194,-143.13 190.5,-133.13 187,-143.13 194,-143.13"/>
<text text-anchor="middle" x="204.5" y="-152.8" font-family="Times,serif" font-size="14.00">7333</text>
</g>
</g>
</svg>
