<?xml version="1.0" encoding="UTF-8" standalone="no"?>
<!DOCTYPE svg PUBLIC "-//W3C//DTD SVG 1.1//EN"
 "http://www.w3.org/Graphics/SVG/1.1/DTD/svg11.dtd">
<!-- Generated by graphviz version 7.0.5 (0)
 -->
<!-- Title: dfg Pages: 1 -->
<svg width="690pt" height="856pt"
 viewBox="0.00 0.00 689.50 856.00" xmlns="http://www.w3.org/2000/svg" xmlns:xlink="http://www.w3.org/1999/xlink">
<g id="graph0" class="graph" transform="scale(1 1) rotate(0) translate(4 852)">
<title>dfg</title>
<polygon fill="white" stroke="none" points="-4,4 -4,-852 685.5,-852 685.5,4 -4,4"/>
<!-- start_node -->
<g id="node1" class="node">
<title>start_node</title>
<ellipse fill="none" stroke="black" cx="418" cy="-830" rx="18" ry="18"/>
<text text-anchor="start" x="413.5" y="-826.3" font-family="Times,serif" font-size="14.00">●</text>
</g>
<!-- Create Purchase Order Item -->
<g id="node2" class="node">
<title>Create Purchase Order Item</title>
<polygon fill="#9b9bff" stroke="black" points="406.5,-674 191.5,-674 191.5,-638 406.5,-638 406.5,-674"/>
<text text-anchor="middle" x="299" y="-652.3" font-family="Times,serif" font-size="14.00">Create Purchase Order Item (15404)</text>
</g>
<!-- start_node&#45;&gt;Create Purchase Order Item -->
<g id="edge1" class="edge">
<title>start_node&#45;&gt;Create Purchase Order Item</title>
<path fill="none" stroke="#000000" stroke-width="6.37" d="M417.02,-811.73C415.04,-789.83 409.07,-751.74 391,-725 379.73,-708.32 362.98,-694.2 346.84,-683.21"/>
<polygon fill="#000000" stroke="#000000" stroke-width="6.37" points="349.91,-678.57 338.48,-677.9 343.93,-687.97 349.91,-678.57"/>
<text text-anchor="middle" x="424" y="-739.3" font-family="Times,serif" font-size="14.00">12301</text>
</g>
<!-- Vendor creates invoice -->
<g id="node3" class="node">
<title>Vendor creates invoice</title>
<polygon fill="#a6a6ff" stroke="black" points="334.5,-479 147.5,-479 147.5,-443 334.5,-443 334.5,-479"/>
<text text-anchor="middle" x="241" y="-457.3" font-family="Times,serif" font-size="14.00">Vendor creates invoice (13655)</text>
</g>
<!-- start_node&#45;&gt;Vendor creates invoice -->
<g id="edge2" class="edge">
<title>start_node&#45;&gt;Vendor creates invoice</title>
<path fill="none" stroke="#000000" stroke-width="0.93" d="M427.6,-814.21C450.47,-776.97 503.53,-677.16 466,-605 433.91,-543.31 362,-504.78 308.05,-483.47"/>
<polygon fill="#000000" stroke="#000000" stroke-width="0.93" points="309.42,-480.24 298.83,-479.94 306.92,-486.78 309.42,-480.24"/>
<text text-anchor="middle" x="493" y="-652.3" font-family="Times,serif" font-size="14.00">1334</text>
</g>
<!-- Create Purchase Requisition Item -->
<g id="node4" class="node">
<title>Create Purchase Requisition Item</title>
<polygon fill="#f6f6ff" stroke="black" points="381.5,-761 142.5,-761 142.5,-725 381.5,-725 381.5,-761"/>
<text text-anchor="middle" x="262" y="-739.3" font-family="Times,serif" font-size="14.00">Create Purchase Requisition Item (1769)</text>
</g>
<!-- start_node&#45;&gt;Create Purchase Requisition Item -->
<g id="edge3" class="edge">
<title>start_node&#45;&gt;Create Purchase Requisition Item</title>
<path fill="none" stroke="#000000" stroke-width="1.14" d="M402.47,-820.54C379.73,-808.15 336.55,-784.62 304.04,-766.9"/>
<polygon fill="#000000" stroke="#000000" stroke-width="1.14" points="305.87,-763.92 295.41,-762.21 302.52,-770.06 305.87,-763.92"/>
<text text-anchor="middle" x="363" y="-782.8" font-family="Times,serif" font-size="14.00">1769</text>
</g>
<!-- Create Purchase Order Item&#45;&gt;Vendor creates invoice -->
<g id="edge4" class="edge">
<title>Create Purchase Order Item&#45;&gt;Vendor creates invoice</title>
<path fill="none" stroke="#000000" stroke-width="4.99" d="M205.05,-637.61C177.17,-627.6 149.66,-611.83 133,-587 108.11,-549.91 153.49,-511.68 192.84,-487.43"/>
<polygon fill="#000000" stroke="#000000" stroke-width="4.99" points="194.87,-491.3 201.28,-482.46 190.45,-483.77 194.87,-491.3"/>
<text text-anchor="middle" x="147" y="-565.3" font-family="Times,serif" font-size="14.00">9519</text>
</g>
<!-- Record Goods Receipt -->
<g id="node5" class="node">
<title>Record Goods Receipt</title>
<polygon fill="#a6a6ff" stroke="black" points="203,-305 17,-305 17,-269 203,-269 203,-305"/>
<text text-anchor="middle" x="110" y="-283.3" font-family="Times,serif" font-size="14.00">Record Goods Receipt (13655)</text>
</g>
<!-- Create Purchase Order Item&#45;&gt;Record Goods Receipt -->
<g id="edge8" class="edge">
<title>Create Purchase Order Item&#45;&gt;Record Goods Receipt</title>
<path fill="none" stroke="#000000" stroke-width="2.08" d="M191.05,-644.62C105.41,-633.29 0,-611.01 0,-570 0,-570 0,-570 0,-373 0,-344.96 22.66,-324.86 47.42,-311.27"/>
<polygon fill="#000000" stroke="#000000" stroke-width="2.08" points="48.71,-314.54 56.05,-306.9 45.55,-308.29 48.71,-314.54"/>
<text text-anchor="middle" x="14" y="-457.3" font-family="Times,serif" font-size="14.00">3662</text>
</g>
<!-- Delete Purchase Order Item -->
<g id="node8" class="node">
<title>Delete Purchase Order Item</title>
<polygon fill="#fafaff" stroke="black" points="681.5,-533 472.5,-533 472.5,-497 681.5,-497 681.5,-533"/>
<text text-anchor="middle" x="577" y="-511.3" font-family="Times,serif" font-size="14.00">Delete Purchase Order Item (1147)</text>
</g>
<!-- Create Purchase Order Item&#45;&gt;Delete Purchase Order Item -->
<g id="edge13" class="edge">
<title>Create Purchase Order Item&#45;&gt;Delete Purchase Order Item</title>
<path fill="none" stroke="#000000" stroke-width="0.83" d="M368.25,-637.54C383.93,-632.65 400.29,-626.78 415,-620 463.21,-597.78 513.95,-563.1 545.53,-539.98"/>
<polygon fill="#000000" stroke="#000000" stroke-width="0.83" points="547.33,-543 553.29,-534.24 543.17,-537.37 547.33,-543"/>
<text text-anchor="middle" x="455" y="-608.8" font-family="Times,serif" font-size="14.00">1147</text>
</g>
<!-- Change Quantity -->
<g id="node10" class="node">
<title>Change Quantity</title>
<polygon fill="#ffffff" stroke="black" points="312,-587 170,-587 170,-551 312,-551 312,-587"/>
<text text-anchor="middle" x="241" y="-565.3" font-family="Times,serif" font-size="14.00">Change Quantity (474)</text>
</g>
<!-- Create Purchase Order Item&#45;&gt;Change Quantity -->
<g id="edge18" class="edge">
<title>Create Purchase Order Item&#45;&gt;Change Quantity</title>
<path fill="none" stroke="#ff0000" stroke-width="0.5" stroke-dasharray="5,2" d="M287.26,-637.8C279.14,-625.9 268.18,-609.83 258.96,-596.32"/>
<polygon fill="#ff0000" stroke="#ff0000" stroke-width="0.5" points="261.87,-594.38 253.35,-588.09 256.09,-598.33 261.87,-594.38"/>
<text text-anchor="middle" x="284.5" y="-608.8" font-family="Times,serif" font-size="14.00">474</text>
</g>
<!-- end_node -->
<g id="node11" class="node">
<title>end_node</title>
<ellipse fill="none" stroke="black" cx="432" cy="-22" rx="18" ry="18"/>
<ellipse fill="none" stroke="black" cx="432" cy="-22" rx="22" ry="22"/>
<text text-anchor="start" x="427.5" y="-18.3" font-family="Times,serif" font-size="14.00">■</text>
</g>
<!-- Create Purchase Order Item&#45;&gt;end_node -->
<g id="edge22" class="edge">
<title>Create Purchase Order Item&#45;&gt;end_node</title>
<path fill="none" stroke="#000000" stroke-width="0.56" d="M327.98,-637.67C373.59,-607.93 457,-542.54 457,-462 457,-462 457,-462 457,-112 457,-91.53 450.8,-69.37 444.57,-52.28"/>
<polygon fill="#000000" stroke="#000000" stroke-width="0.56" points="447.91,-51.22 441.05,-43.15 441.38,-53.74 447.91,-51.22"/>
<text text-anchor="middle" x="467.5" y="-326.8" font-family="Times,serif" font-size="14.00">602</text>
</g>
<!-- Vendor creates invoice&#45;&gt;Create Purchase Order Item -->
<g id="edge11" class="edge">
<title>Vendor creates invoice&#45;&gt;Create Purchase Order Item</title>
<path fill="none" stroke="#000000" stroke-width="0.93" d="M263.9,-479.21C283.27,-495.33 309.62,-521.32 321,-551 330.56,-575.95 322.28,-605.94 313.27,-627.29"/>
<polygon fill="#000000" stroke="#000000" stroke-width="0.93" points="310.12,-625.76 309.16,-636.32 316.49,-628.66 310.12,-625.76"/>
<text text-anchor="middle" x="339" y="-565.3" font-family="Times,serif" font-size="14.00">1334</text>
</g>
<!-- Vendor creates invoice&#45;&gt;Record Goods Receipt -->
<g id="edge5" class="edge">
<title>Vendor creates invoice&#45;&gt;Record Goods Receipt</title>
<path fill="none" stroke="#000000" stroke-width="4.98" d="M147.02,-452.09C111.02,-443.42 75,-426.11 60,-392 48.83,-366.61 64.37,-338.26 81,-317.58"/>
<polygon fill="#000000" stroke="#000000" stroke-width="4.98" points="84.15,-320.6 87.44,-310.2 77.58,-314.87 84.15,-320.6"/>
<text text-anchor="middle" x="74" y="-370.3" font-family="Times,serif" font-size="14.00">9510</text>
</g>
<!-- Record Invoice Receipt -->
<g id="node6" class="node">
<title>Record Invoice Receipt</title>
<polygon fill="#a6a6ff" stroke="black" points="347.5,-392 156.5,-392 156.5,-356 347.5,-356 347.5,-392"/>
<text text-anchor="middle" x="252" y="-370.3" font-family="Times,serif" font-size="14.00">Record Invoice Receipt (13655)</text>
</g>
<!-- Vendor creates invoice&#45;&gt;Record Invoice Receipt -->
<g id="edge10" class="edge">
<title>Vendor creates invoice&#45;&gt;Record Invoice Receipt</title>
<path fill="none" stroke="#000000" stroke-width="1.66" d="M243.23,-442.8C244.65,-431.81 246.53,-417.28 248.18,-404.48"/>
<polygon fill="#000000" stroke="#000000" stroke-width="1.66" points="251.6,-405.32 249.42,-394.96 244.66,-404.43 251.6,-405.32"/>
<text text-anchor="middle" x="262" y="-413.8" font-family="Times,serif" font-size="14.00">2811</text>
</g>
<!-- Create Purchase Requisition Item&#45;&gt;Create Purchase Order Item -->
<g id="edge12" class="edge">
<title>Create Purchase Requisition Item&#45;&gt;Create Purchase Order Item</title>
<path fill="none" stroke="#000000" stroke-width="1.14" d="M269.49,-724.8C274.47,-713.35 281.13,-698.06 286.86,-684.89"/>
<polygon fill="#000000" stroke="#000000" stroke-width="1.14" points="289.92,-686.62 290.71,-676.05 283.51,-683.82 289.92,-686.62"/>
<text text-anchor="middle" x="297" y="-695.8" font-family="Times,serif" font-size="14.00">1769</text>
</g>
<!-- Record Goods Receipt&#45;&gt;Vendor creates invoice -->
<g id="edge9" class="edge">
<title>Record Goods Receipt&#45;&gt;Vendor creates invoice</title>
<path fill="none" stroke="#000000" stroke-width="1.42" d="M106.85,-305.41C103.85,-327.44 101.97,-365.68 119,-392 132.07,-412.2 153.33,-426.95 174.47,-437.45"/>
<polygon fill="#000000" stroke="#000000" stroke-width="1.42" points="172.98,-440.62 183.52,-441.65 175.93,-434.27 172.98,-440.62"/>
<text text-anchor="middle" x="133" y="-370.3" font-family="Times,serif" font-size="14.00">2328</text>
</g>
<!-- Record Goods Receipt&#45;&gt;Record Invoice Receipt -->
<g id="edge6" class="edge">
<title>Record Goods Receipt&#45;&gt;Record Invoice Receipt</title>
<path fill="none" stroke="#000000" stroke-width="5.64" d="M137.45,-305.39C146.27,-310.99 156.06,-317.24 165,-323 175.26,-329.61 177.53,-331.73 188,-338 193.47,-341.27 199.26,-344.61 205.03,-347.86"/>
<polygon fill="#000000" stroke="#000000" stroke-width="5.64" points="202.45,-352.07 213.59,-352.59 207.23,-343.43 202.45,-352.07"/>
<text text-anchor="middle" x="205" y="-326.8" font-family="Times,serif" font-size="14.00">10844</text>
</g>
<!-- Remove Payment Block -->
<g id="node9" class="node">
<title>Remove Payment Block</title>
<polygon fill="#f7f7ff" stroke="black" points="372,-218 182,-218 182,-182 372,-182 372,-218"/>
<text text-anchor="middle" x="277" y="-196.3" font-family="Times,serif" font-size="14.00">Remove Payment Block (1583)</text>
</g>
<!-- Record Goods Receipt&#45;&gt;Remove Payment Block -->
<g id="edge17" class="edge">
<title>Record Goods Receipt&#45;&gt;Remove Payment Block</title>
<path fill="none" stroke="#ff0000" stroke-width="0.5" stroke-dasharray="5,2" d="M119.12,-268.8C125.75,-257.88 135.7,-244.29 148,-236 155.91,-230.67 164.61,-226.14 173.64,-222.31"/>
<polygon fill="#ff0000" stroke="#ff0000" stroke-width="0.5" points="174.82,-225.61 182.84,-218.69 172.25,-219.1 174.82,-225.61"/>
<text text-anchor="middle" x="158.5" y="-239.8" font-family="Times,serif" font-size="14.00">483</text>
</g>
<!-- Record Invoice Receipt&#45;&gt;Record Goods Receipt -->
<g id="edge16" class="edge">
<title>Record Invoice Receipt&#45;&gt;Record Goods Receipt</title>
<path fill="none" stroke="#ff0000" stroke-width="0.5" stroke-dasharray="5,2" d="M171.02,-355.57C159.93,-351 149.21,-345.24 140,-338 132.14,-331.81 125.88,-322.96 121.15,-314.41"/>
<polygon fill="#ff0000" stroke="#ff0000" stroke-width="0.5" points="124.41,-313.1 116.81,-305.73 118.15,-316.24 124.41,-313.1"/>
<text text-anchor="middle" x="150.5" y="-326.8" font-family="Times,serif" font-size="14.00">483</text>
</g>
<!-- Clear Invoice -->
<g id="node7" class="node">
<title>Clear Invoice</title>
<polygon fill="#aaaaff" stroke="black" points="345.5,-131 208.5,-131 208.5,-95 345.5,-95 345.5,-131"/>
<text text-anchor="middle" x="277" y="-109.3" font-family="Times,serif" font-size="14.00">Clear Invoice (13144)</text>
</g>
<!-- Record Invoice Receipt&#45;&gt;Clear Invoice -->
<g id="edge7" class="edge">
<title>Record Invoice Receipt&#45;&gt;Clear Invoice</title>
<path fill="none" stroke="#000000" stroke-width="6" d="M247.04,-355.77C240.57,-334.57 228.15,-297.87 212,-269 198.07,-244.1 182.15,-245.03 173,-218 167.87,-202.84 165.39,-196.07 173,-182 182.79,-163.9 199.73,-149.85 217.12,-139.34"/>
<polygon fill="#000000" stroke="#000000" stroke-width="6" points="219.49,-144.03 225.72,-134.61 214.42,-134.83 219.49,-144.03"/>
<text text-anchor="middle" x="215" y="-239.8" font-family="Times,serif" font-size="14.00">11561</text>
</g>
<!-- Record Invoice Receipt&#45;&gt;Remove Payment Block -->
<g id="edge14" class="edge">
<title>Record Invoice Receipt&#45;&gt;Remove Payment Block</title>
<path fill="none" stroke="#000000" stroke-width="0.81" d="M254.53,-355.56C258.86,-325.81 267.7,-265.01 272.91,-229.17"/>
<polygon fill="#000000" stroke="#000000" stroke-width="0.81" points="276.31,-230.1 274.28,-219.7 269.38,-229.09 276.31,-230.1"/>
<text text-anchor="middle" x="281" y="-283.3" font-family="Times,serif" font-size="14.00">1100</text>
</g>
<!-- Record Invoice Receipt&#45;&gt;end_node -->
<g id="edge23" class="edge">
<title>Record Invoice Receipt&#45;&gt;end_node</title>
<path fill="none" stroke="#ff0000" stroke-width="0.52" stroke-dasharray="5,2" d="M344.1,-355.53C377.87,-343.31 408,-322.7 408,-288 408,-288 408,-288 408,-112 408,-91.72 413.88,-69.72 419.82,-52.66"/>
<polygon fill="#ff0000" stroke="#ff0000" stroke-width="0.52" points="423.03,-54.07 423.2,-43.47 416.46,-51.65 423.03,-54.07"/>
<text text-anchor="middle" x="418.5" y="-196.3" font-family="Times,serif" font-size="14.00">511</text>
</g>
<!-- Clear Invoice&#45;&gt;end_node -->
<g id="edge20" class="edge">
<title>Clear Invoice&#45;&gt;end_node</title>
<path fill="none" stroke="#000000" stroke-width="6.79" d="M305.24,-94.55C321.2,-84.8 341.6,-72.52 360,-62 372.41,-54.91 386.18,-47.37 398.32,-40.83"/>
<polygon fill="#000000" stroke="#000000" stroke-width="6.79" points="400.73,-46.27 406.75,-36.32 395.14,-35.8 400.73,-46.27"/>
<text text-anchor="middle" x="377" y="-65.8" font-family="Times,serif" font-size="14.00">13144</text>
</g>
<!-- Delete Purchase Order Item&#45;&gt;end_node -->
<g id="edge21" class="edge">
<title>Delete Purchase Order Item&#45;&gt;end_node</title>
<path fill="none" stroke="#000000" stroke-width="0.83" d="M565.9,-496.82C555,-478.27 540,-447.48 540,-418.5 540,-418.5 540,-418.5 540,-112 540,-71.94 495.21,-46.57 463.32,-33.58"/>
<polygon fill="#000000" stroke="#000000" stroke-width="0.83" points="464.85,-30.42 454.26,-30.1 462.34,-36.95 464.85,-30.42"/>
<text text-anchor="middle" x="554" y="-283.3" font-family="Times,serif" font-size="14.00">1147</text>
</g>
<!-- Remove Payment Block&#45;&gt;Clear Invoice -->
<g id="edge15" class="edge">
<title>Remove Payment Block&#45;&gt;Clear Invoice</title>
<path fill="none" stroke="#000000" stroke-width="1.05" d="M277,-181.8C277,-170.58 277,-155.67 277,-142.69"/>
<polygon fill="#000000" stroke="#000000" stroke-width="1.05" points="280.5,-143.06 277,-133.06 273.5,-143.06 280.5,-143.06"/>
<text text-anchor="middle" x="291" y="-152.8" font-family="Times,serif" font-size="14.00">1583</text>
</g>
<!-- Change Quantity&#45;&gt;Vendor creates invoice -->
<g id="edge19" class="edge">
<title>Change Quantity&#45;&gt;Vendor creates invoice</title>
<path fill="none" stroke="#ff0000" stroke-width="0.5" stroke-dasharray="5,2" d="M241,-550.97C241,-534.53 241,-509.35 241,-489.97"/>
<polygon fill="#ff0000" stroke="#ff0000" stroke-width="0.5" points="244.5,-490.1 241,-480.1 237.5,-490.1 244.5,-490.1"/>
<text text-anchor="middle" x="251.5" y="-511.3" font-family="Times,serif" font-size="14.00">474</text>
</g>
</g>
</svg>
