<?xml version="1.0" encoding="UTF-8" standalone="no"?>
<!DOCTYPE svg PUBLIC "-//W3C//DTD SVG 1.1//EN"
 "http://www.w3.org/Graphics/SVG/1.1/DTD/svg11.dtd">
<!-- Generated by graphviz version 7.0.5 (0)
 -->
<!-- Title: dfg Pages: 1 -->
<svg width="504pt" height="835pt"
 viewBox="0.00 0.00 504.21 835.00" xmlns="http://www.w3.org/2000/svg" xmlns:xlink="http://www.w3.org/1999/xlink">
<g id="graph0" class="graph" transform="scale(1 1) rotate(0) translate(4 831)">
<title>dfg</title>
<polygon fill="white" stroke="none" points="-4,4 -4,-831 500.21,-831 500.21,4 -4,4"/>
<!-- start_node -->
<g id="node1" class="node">
<title>start_node</title>
<ellipse fill="none" stroke="black" cx="232.71" cy="-809" rx="18" ry="18"/>
<text text-anchor="start" x="228.21" y="-805.3" font-family="Times,serif" font-size="14.00">●</text>
</g>
<!-- Create Purchase Order Item -->
<g id="node2" class="node">
<title>Create Purchase Order Item</title>
<polygon fill="#9b9bff" stroke="black" points="337.21,-653 128.21,-653 128.21,-617 337.21,-617 337.21,-653"/>
<text text-anchor="middle" x="232.71" y="-631.3" font-family="Times,serif" font-size="14.00">Create Purchase Order Item (3231)</text>
</g>
<!-- start_node&#45;&gt;Create Purchase Order Item -->
<g id="edge1" class="edge">
<title>start_node&#45;&gt;Create Purchase Order Item</title>
<path fill="none" stroke="#000000" stroke-width="5.39" d="M230.43,-790.71C228.75,-776.99 226.59,-757.3 225.71,-740 224.89,-724.02 224.89,-719.98 225.71,-704 226.29,-692.64 227.42,-680.26 228.6,-669.22"/>
<polygon fill="#000000" stroke="#000000" stroke-width="5.39" points="233.25,-670.04 229.71,-659.57 223.88,-668.96 233.25,-670.04"/>
<text text-anchor="middle" x="239.71" y="-718.3" font-family="Times,serif" font-size="14.00">2802</text>
</g>
<!-- Create Purchase Requisition Item -->
<g id="node3" class="node">
<title>Create Purchase Requisition Item</title>
<polygon fill="#f8f8ff" stroke="black" points="496.21,-740 263.21,-740 263.21,-704 496.21,-704 496.21,-740"/>
<text text-anchor="middle" x="379.71" y="-718.3" font-family="Times,serif" font-size="14.00">Create Purchase Requisition Item (429)</text>
</g>
<!-- start_node&#45;&gt;Create Purchase Requisition Item -->
<g id="edge2" class="edge">
<title>start_node&#45;&gt;Create Purchase Requisition Item</title>
<path fill="none" stroke="#000000" stroke-width="0.89" d="M248.16,-799.06C269.78,-786.56 309.79,-763.43 340.03,-745.94"/>
<polygon fill="#000000" stroke="#000000" stroke-width="0.89" points="341.4,-749.19 348.3,-741.16 337.89,-743.13 341.4,-749.19"/>
<text text-anchor="middle" x="325.21" y="-761.8" font-family="Times,serif" font-size="14.00">429</text>
</g>
<!-- Vendor creates invoice -->
<g id="node4" class="node">
<title>Vendor creates invoice</title>
<polygon fill="#9b9bff" stroke="black" points="322.71,-479 142.71,-479 142.71,-443 322.71,-443 322.71,-479"/>
<text text-anchor="middle" x="232.71" y="-457.3" font-family="Times,serif" font-size="14.00">Vendor creates invoice (3231)</text>
</g>
<!-- Create Purchase Order Item&#45;&gt;Vendor creates invoice -->
<g id="edge3" class="edge">
<title>Create Purchase Order Item&#45;&gt;Vendor creates invoice</title>
<path fill="none" stroke="#000000" stroke-width="4.88" d="M172.43,-616.62C124.02,-599.32 67.88,-569.65 92.71,-530 105.17,-510.09 125.32,-495.86 146.49,-485.75"/>
<polygon fill="#000000" stroke="#000000" stroke-width="4.88" points="148.03,-489.73 155.52,-481.85 144.65,-481.89 148.03,-489.73"/>
<text text-anchor="middle" x="106.71" y="-544.3" font-family="Times,serif" font-size="14.00">2530</text>
</g>
<!-- Record Goods Receipt -->
<g id="node6" class="node">
<title>Record Goods Receipt</title>
<polygon fill="#9b9bff" stroke="black" points="362.21,-305 183.21,-305 183.21,-269 362.21,-269 362.21,-305"/>
<text text-anchor="middle" x="272.71" y="-283.3" font-family="Times,serif" font-size="14.00">Record Goods Receipt (3231)</text>
</g>
<!-- Create Purchase Order Item&#45;&gt;Record Goods Receipt -->
<g id="edge11" class="edge">
<title>Create Purchase Order Item&#45;&gt;Record Goods Receipt</title>
<path fill="none" stroke="#000000" stroke-width="0.59" d="M300.51,-616.63C332.47,-603.95 363.71,-582.89 363.71,-549 363.71,-549 363.71,-549 363.71,-373 363.71,-346.11 342.23,-325.29 320.14,-310.98"/>
<polygon fill="#000000" stroke="#000000" stroke-width="0.59" points="322.16,-308.12 311.8,-305.91 318.53,-314.1 322.16,-308.12"/>
<text text-anchor="middle" x="374.21" y="-457.3" font-family="Times,serif" font-size="14.00">273</text>
</g>
<!-- Receive Order Confirmation -->
<g id="node9" class="node">
<title>Receive Order Confirmation</title>
<polygon fill="#f8f8ff" stroke="black" points="335.71,-566 129.71,-566 129.71,-530 335.71,-530 335.71,-566"/>
<text text-anchor="middle" x="232.71" y="-544.3" font-family="Times,serif" font-size="14.00">Receive Order Confirmation (428)</text>
</g>
<!-- Create Purchase Order Item&#45;&gt;Receive Order Confirmation -->
<g id="edge13" class="edge">
<title>Create Purchase Order Item&#45;&gt;Receive Order Confirmation</title>
<path fill="none" stroke="#000000" stroke-width="0.89" d="M232.71,-616.8C232.71,-605.58 232.71,-590.67 232.71,-577.69"/>
<polygon fill="#000000" stroke="#000000" stroke-width="0.89" points="236.21,-577.81 232.71,-567.81 229.21,-577.81 236.21,-577.81"/>
<text text-anchor="middle" x="243.21" y="-587.8" font-family="Times,serif" font-size="14.00">428</text>
</g>
<!-- Create Purchase Requisition Item&#45;&gt;Create Purchase Order Item -->
<g id="edge17" class="edge">
<title>Create Purchase Requisition Item&#45;&gt;Create Purchase Order Item</title>
<path fill="none" stroke="#000000" stroke-width="0.89" d="M349.6,-703.59C327.31,-690.7 296.71,-673.01 272.41,-658.96"/>
<polygon fill="#000000" stroke="#000000" stroke-width="0.89" points="274.34,-656.03 263.93,-654.06 270.84,-662.09 274.34,-656.03"/>
<text text-anchor="middle" x="325.21" y="-674.8" font-family="Times,serif" font-size="14.00">429</text>
</g>
<!-- Record Invoice Receipt -->
<g id="node5" class="node">
<title>Record Invoice Receipt</title>
<polygon fill="#9b9bff" stroke="black" points="205.21,-392 20.21,-392 20.21,-356 205.21,-356 205.21,-392"/>
<text text-anchor="middle" x="112.71" y="-370.3" font-family="Times,serif" font-size="14.00">Record Invoice Receipt (3231)</text>
</g>
<!-- Vendor creates invoice&#45;&gt;Record Invoice Receipt -->
<g id="edge4" class="edge">
<title>Vendor creates invoice&#45;&gt;Record Invoice Receipt</title>
<path fill="none" stroke="#000000" stroke-width="3.23" d="M208.13,-442.59C191.15,-430.56 168.26,-414.35 149.15,-400.82"/>
<polygon fill="#000000" stroke="#000000" stroke-width="3.23" points="151.42,-398.13 141.24,-395.21 147.37,-403.84 151.42,-398.13"/>
<text text-anchor="middle" x="194.71" y="-413.8" font-family="Times,serif" font-size="14.00">1662</text>
</g>
<!-- Vendor creates invoice&#45;&gt;Record Goods Receipt -->
<g id="edge8" class="edge">
<title>Vendor creates invoice&#45;&gt;Record Goods Receipt</title>
<path fill="none" stroke="#000000" stroke-width="3.05" d="M236.39,-442.67C240.81,-422 248.54,-386.42 255.71,-356 258.54,-343.98 261.8,-330.79 264.7,-319.27"/>
<polygon fill="#000000" stroke="#000000" stroke-width="3.05" points="268.04,-320.33 267.11,-309.78 261.26,-318.61 268.04,-320.33"/>
<text text-anchor="middle" x="269.71" y="-370.3" font-family="Times,serif" font-size="14.00">1569</text>
</g>
<!-- Record Invoice Receipt&#45;&gt;Record Goods Receipt -->
<g id="edge5" class="edge">
<title>Record Invoice Receipt&#45;&gt;Record Goods Receipt</title>
<path fill="none" stroke="#000000" stroke-width="2.71" d="M121.17,-355.84C127.38,-344.93 136.79,-331.34 148.71,-323 155.34,-318.36 162.57,-314.32 170.11,-310.83"/>
<polygon fill="#000000" stroke="#000000" stroke-width="2.71" points="171.36,-314.1 179.24,-307.01 168.66,-307.64 171.36,-314.1"/>
<text text-anchor="middle" x="162.71" y="-326.8" font-family="Times,serif" font-size="14.00">1389</text>
</g>
<!-- Remove Payment Block -->
<g id="node7" class="node">
<title>Remove Payment Block</title>
<polygon fill="#9b9bff" stroke="black" points="198.71,-218 8.71,-218 8.71,-182 198.71,-182 198.71,-218"/>
<text text-anchor="middle" x="103.71" y="-196.3" font-family="Times,serif" font-size="14.00">Remove Payment Block (3231)</text>
</g>
<!-- Record Invoice Receipt&#45;&gt;Remove Payment Block -->
<g id="edge10" class="edge">
<title>Record Invoice Receipt&#45;&gt;Remove Payment Block</title>
<path fill="none" stroke="#000000" stroke-width="3.15" d="M65.24,-355.55C42.93,-344.67 18.48,-328.25 5.71,-305 -2,-290.98 -1.71,-283.18 5.71,-269 15.24,-250.78 32.12,-236.46 49.22,-225.76"/>
<polygon fill="#000000" stroke="#000000" stroke-width="3.15" points="50.87,-228.85 57.78,-220.82 47.37,-222.79 50.87,-228.85"/>
<text text-anchor="middle" x="19.71" y="-283.3" font-family="Times,serif" font-size="14.00">1618</text>
</g>
<!-- Change Price -->
<g id="node10" class="node">
<title>Change Price</title>
<polygon fill="#ffffff" stroke="black" points="164.71,-305 42.71,-305 42.71,-269 164.71,-269 164.71,-305"/>
<text text-anchor="middle" x="103.71" y="-283.3" font-family="Times,serif" font-size="14.00">Change Price (224)</text>
</g>
<!-- Record Invoice Receipt&#45;&gt;Change Price -->
<g id="edge15" class="edge">
<title>Record Invoice Receipt&#45;&gt;Change Price</title>
<path fill="none" stroke="#000000" stroke-width="0.5" d="M108.01,-355.68C106.69,-350.08 105.42,-343.82 104.71,-338 103.83,-330.87 103.42,-323.14 103.26,-315.92"/>
<polygon fill="#000000" stroke="#000000" stroke-width="0.5" points="106.76,-315.92 103.19,-305.94 99.76,-315.97 106.76,-315.92"/>
<text text-anchor="middle" x="115.21" y="-326.8" font-family="Times,serif" font-size="14.00">224</text>
</g>
<!-- Record Goods Receipt&#45;&gt;Vendor creates invoice -->
<g id="edge12" class="edge">
<title>Record Goods Receipt&#45;&gt;Vendor creates invoice</title>
<path fill="none" stroke="#000000" stroke-width="0.59" d="M278.9,-305.41C285.41,-326.46 293.47,-362.72 283.71,-392 278.49,-407.66 268.09,-422.62 258.04,-434.49"/>
<polygon fill="#000000" stroke="#000000" stroke-width="0.59" points="255.49,-432.1 251.46,-441.9 260.72,-436.75 255.49,-432.1"/>
<text text-anchor="middle" x="299.21" y="-370.3" font-family="Times,serif" font-size="14.00">273</text>
</g>
<!-- Record Goods Receipt&#45;&gt;Record Invoice Receipt -->
<g id="edge9" class="edge">
<title>Record Goods Receipt&#45;&gt;Record Invoice Receipt</title>
<path fill="none" stroke="#000000" stroke-width="3.05" d="M233.96,-305.42C222.75,-310.77 210.61,-316.87 199.71,-323 189.07,-328.98 187.18,-331.73 176.71,-338 170.77,-341.55 164.45,-345.18 158.19,-348.69"/>
<polygon fill="#000000" stroke="#000000" stroke-width="3.05" points="156.65,-345.55 149.59,-353.44 160.03,-351.67 156.65,-345.55"/>
<text text-anchor="middle" x="213.71" y="-326.8" font-family="Times,serif" font-size="14.00">1569</text>
</g>
<!-- Record Goods Receipt&#45;&gt;Remove Payment Block -->
<g id="edge6" class="edge">
<title>Record Goods Receipt&#45;&gt;Remove Payment Block</title>
<path fill="none" stroke="#000000" stroke-width="2.71" d="M238.1,-268.59C212.92,-255.93 178.54,-238.64 150.85,-224.71"/>
<polygon fill="#000000" stroke="#000000" stroke-width="2.71" points="152.44,-221.59 141.93,-220.23 149.29,-227.85 152.44,-221.59"/>
<text text-anchor="middle" x="212.71" y="-239.8" font-family="Times,serif" font-size="14.00">1389</text>
</g>
<!-- Clear Invoice -->
<g id="node8" class="node">
<title>Clear Invoice</title>
<polygon fill="#9e9eff" stroke="black" points="256.71,-131 126.71,-131 126.71,-95 256.71,-95 256.71,-131"/>
<text text-anchor="middle" x="191.71" y="-109.3" font-family="Times,serif" font-size="14.00">Clear Invoice (3122)</text>
</g>
<!-- Remove Payment Block&#45;&gt;Clear Invoice -->
<g id="edge7" class="edge">
<title>Remove Payment Block&#45;&gt;Clear Invoice</title>
<path fill="none" stroke="#000000" stroke-width="6" d="M121.51,-181.8C133.13,-170.58 148.57,-155.67 162.01,-142.69"/>
<polygon fill="#000000" stroke="#000000" stroke-width="6" points="165.44,-146.67 168.98,-135.95 158.14,-139.12 165.44,-146.67"/>
<text text-anchor="middle" x="167.71" y="-152.8" font-family="Times,serif" font-size="14.00">3122</text>
</g>
<!-- end_node -->
<g id="node11" class="node">
<title>end_node</title>
<ellipse fill="none" stroke="black" cx="103.71" cy="-22" rx="18" ry="18"/>
<ellipse fill="none" stroke="black" cx="103.71" cy="-22" rx="22" ry="22"/>
<text text-anchor="start" x="99.21" y="-18.3" font-family="Times,serif" font-size="14.00">■</text>
</g>
<!-- Remove Payment Block&#45;&gt;end_node -->
<g id="edge19" class="edge">
<title>Remove Payment Block&#45;&gt;end_node</title>
<path fill="none" stroke="#ff0000" stroke-width="0.28" stroke-dasharray="5,2" d="M101.43,-181.71C99.75,-167.99 97.59,-148.3 96.71,-131 95.89,-115.02 95.93,-110.98 96.71,-95 97.36,-81.57 98.69,-66.79 100.02,-54.13"/>
<polygon fill="#ff0000" stroke="#ff0000" stroke-width="0.28" points="103.46,-54.81 101.07,-44.49 96.5,-54.05 103.46,-54.81"/>
<text text-anchor="middle" x="107.21" y="-109.3" font-family="Times,serif" font-size="14.00">109</text>
</g>
<!-- Clear Invoice&#45;&gt;end_node -->
<g id="edge18" class="edge">
<title>Clear Invoice&#45;&gt;end_node</title>
<path fill="none" stroke="#000000" stroke-width="6" d="M174.74,-94.84C162.1,-82.05 144.59,-64.35 130.13,-49.72"/>
<polygon fill="#000000" stroke="#000000" stroke-width="6" points="134.16,-46.33 123.4,-42.91 126.69,-53.72 134.16,-46.33"/>
<text text-anchor="middle" x="169.71" y="-65.8" font-family="Times,serif" font-size="14.00">3122</text>
</g>
<!-- Receive Order Confirmation&#45;&gt;Vendor creates invoice -->
<g id="edge14" class="edge">
<title>Receive Order Confirmation&#45;&gt;Vendor creates invoice</title>
<path fill="none" stroke="#000000" stroke-width="0.89" d="M232.71,-529.8C232.71,-518.58 232.71,-503.67 232.71,-490.69"/>
<polygon fill="#000000" stroke="#000000" stroke-width="0.89" points="236.21,-490.81 232.71,-480.81 229.21,-490.81 236.21,-490.81"/>
<text text-anchor="middle" x="243.21" y="-500.8" font-family="Times,serif" font-size="14.00">428</text>
</g>
<!-- Change Price&#45;&gt;Remove Payment Block -->
<g id="edge16" class="edge">
<title>Change Price&#45;&gt;Remove Payment Block</title>
<path fill="none" stroke="#000000" stroke-width="0.5" d="M103.71,-268.8C103.71,-257.35 103.71,-242.06 103.71,-228.89"/>
<polygon fill="#000000" stroke="#000000" stroke-width="0.5" points="107.21,-229.22 103.71,-219.22 100.21,-229.22 107.21,-229.22"/>
<text text-anchor="middle" x="114.21" y="-239.8" font-family="Times,serif" font-size="14.00">224</text>
</g>
</g>
</svg>
