<?xml version="1.0" encoding="UTF-8" standalone="no"?>
<!DOCTYPE svg PUBLIC "-//W3C//DTD SVG 1.1//EN"
 "http://www.w3.org/Graphics/SVG/1.1/DTD/svg11.dtd">
<!-- Generated by graphviz version 7.0.5 (0)
 -->
<!-- Title: dfg Pages: 1 -->
<svg width="646pt" height="487pt"
 viewBox="0.00 0.00 646.00 487.00" xmlns="http://www.w3.org/2000/svg" xmlns:xlink="http://www.w3.org/1999/xlink">
<g id="graph0" class="graph" transform="scale(1 1) rotate(0) translate(4 483)">
<title>dfg</title>
<polygon fill="white" stroke="none" points="-4,4 -4,-483 642,-483 642,4 -4,4"/>
<!-- start_node -->
<g id="node1" class="node">
<title>start_node</title>
<ellipse fill="none" stroke="black" cx="362.5" cy="-461" rx="18" ry="18"/>
<text text-anchor="start" x="358" y="-457.3" font-family="Times,serif" font-size="14.00">●</text>
</g>
<!-- Create Purchase Order Item -->
<g id="node2" class="node">
<title>Create Purchase Order Item</title>
<polygon fill="#9b9bff" stroke="black" points="470,-305 255,-305 255,-269 470,-269 470,-305"/>
<text text-anchor="middle" x="362.5" y="-283.3" font-family="Times,serif" font-size="14.00">Create Purchase Order Item (16869)</text>
</g>
<!-- start_node&#45;&gt;Create Purchase Order Item -->
<g id="edge1" class="edge">
<title>start_node&#45;&gt;Create Purchase Order Item</title>
<path fill="none" stroke="#000000" stroke-width="7.28" d="M360.23,-442.71C358.54,-428.99 356.39,-409.3 355.5,-392 354.68,-376.02 354.68,-371.98 355.5,-356 356.08,-344.78 357.18,-332.56 358.35,-321.61"/>
<polygon fill="#000000" stroke="#000000" stroke-width="7.28" points="364.64,-322.68 359.45,-312.02 351.98,-321.23 364.64,-322.68"/>
<text text-anchor="middle" x="372.5" y="-370.3" font-family="Times,serif" font-size="14.00">13155</text>
</g>
<!-- Create Purchase Requisition Item -->
<g id="node3" class="node">
<title>Create Purchase Requisition Item</title>
<polygon fill="#f0f0ff" stroke="black" points="638,-392 399,-392 399,-356 638,-356 638,-392"/>
<text text-anchor="middle" x="518.5" y="-370.3" font-family="Times,serif" font-size="14.00">Create Purchase Requisition Item (3714)</text>
</g>
<!-- start_node&#45;&gt;Create Purchase Requisition Item -->
<g id="edge2" class="edge">
<title>start_node&#45;&gt;Create Purchase Requisition Item</title>
<path fill="none" stroke="#000000" stroke-width="2.22" d="M378.03,-451.54C400.47,-439.31 442.83,-416.23 475.19,-398.6"/>
<polygon fill="#000000" stroke="#000000" stroke-width="2.22" points="476.55,-401.84 483.66,-393.99 473.2,-395.7 476.55,-401.84"/>
<text text-anchor="middle" x="463.5" y="-413.8" font-family="Times,serif" font-size="14.00">3714</text>
</g>
<!-- Record Goods Receipt -->
<g id="node4" class="node">
<title>Record Goods Receipt</title>
<polygon fill="#b9b9ff" stroke="black" points="413.5,-131 227.5,-131 227.5,-95 413.5,-95 413.5,-131"/>
<text text-anchor="middle" x="320.5" y="-109.3" font-family="Times,serif" font-size="14.00">Record Goods Receipt (12144)</text>
</g>
<!-- Create Purchase Order Item&#45;&gt;Record Goods Receipt -->
<g id="edge3" class="edge">
<title>Create Purchase Order Item&#45;&gt;Record Goods Receipt</title>
<path fill="none" stroke="#000000" stroke-width="6" d="M368.16,-268.57C374.08,-247.5 381.24,-211.23 371.5,-182 366.89,-168.17 358.24,-154.88 349.35,-143.78"/>
<polygon fill="#000000" stroke="#000000" stroke-width="6" points="353.4,-140.43 342.88,-136.31 345.46,-147.31 353.4,-140.43"/>
<text text-anchor="middle" x="393.5" y="-196.3" font-family="Times,serif" font-size="14.00">10764</text>
</g>
<!-- Delete Purchase Order Item -->
<g id="node5" class="node">
<title>Delete Purchase Order Item</title>
<polygon fill="#f0f0ff" stroke="black" points="209,-131 0,-131 0,-95 209,-95 209,-131"/>
<text text-anchor="middle" x="104.5" y="-109.3" font-family="Times,serif" font-size="14.00">Delete Purchase Order Item (3599)</text>
</g>
<!-- Create Purchase Order Item&#45;&gt;Delete Purchase Order Item -->
<g id="edge4" class="edge">
<title>Create Purchase Order Item&#45;&gt;Delete Purchase Order Item</title>
<path fill="none" stroke="#000000" stroke-width="1.87" d="M254.81,-269.12C196.32,-257.62 132.19,-240.41 113.5,-218 96.52,-197.64 96,-166.59 98.68,-143.71"/>
<polygon fill="#000000" stroke="#000000" stroke-width="1.87" points="102.1,-144.54 100.11,-134.13 95.18,-143.51 102.1,-144.54"/>
<text text-anchor="middle" x="127.5" y="-196.3" font-family="Times,serif" font-size="14.00">3063</text>
</g>
<!-- Receive Order Confirmation -->
<g id="node6" class="node">
<title>Receive Order Confirmation</title>
<polygon fill="#ffffff" stroke="black" points="362.5,-218 150.5,-218 150.5,-182 362.5,-182 362.5,-218"/>
<text text-anchor="middle" x="256.5" y="-196.3" font-family="Times,serif" font-size="14.00">Receive Order Confirmation (1408)</text>
</g>
<!-- Create Purchase Order Item&#45;&gt;Receive Order Confirmation -->
<g id="edge6" class="edge">
<title>Create Purchase Order Item&#45;&gt;Receive Order Confirmation</title>
<path fill="none" stroke="#000000" stroke-width="0.98" d="M340.79,-268.59C325.22,-256.1 304.02,-239.11 286.78,-225.28"/>
<polygon fill="#000000" stroke="#000000" stroke-width="0.98" points="289.33,-222.84 279.34,-219.31 284.95,-228.3 289.33,-222.84"/>
<text text-anchor="middle" x="330.5" y="-239.8" font-family="Times,serif" font-size="14.00">1408</text>
</g>
<!-- end_node -->
<g id="node7" class="node">
<title>end_node</title>
<ellipse fill="none" stroke="black" cx="320.5" cy="-22" rx="18" ry="18"/>
<ellipse fill="none" stroke="black" cx="320.5" cy="-22" rx="22" ry="22"/>
<text text-anchor="start" x="316" y="-18.3" font-family="Times,serif" font-size="14.00">■</text>
</g>
<!-- Create Purchase Order Item&#45;&gt;end_node -->
<g id="edge12" class="edge">
<title>Create Purchase Order Item&#45;&gt;end_node</title>
<path fill="none" stroke="#000000" stroke-width="1.1" d="M383.76,-268.69C422.97,-234.62 499.33,-156.8 461.5,-95 438.07,-56.73 387.18,-37.99 353.39,-29.43"/>
<polygon fill="#000000" stroke="#000000" stroke-width="1.1" points="354.38,-26.07 343.84,-27.2 352.78,-32.89 354.38,-26.07"/>
<text text-anchor="middle" x="483.5" y="-152.8" font-family="Times,serif" font-size="14.00">1634</text>
</g>
<!-- Create Purchase Requisition Item&#45;&gt;Create Purchase Order Item -->
<g id="edge5" class="edge">
<title>Create Purchase Requisition Item&#45;&gt;Create Purchase Order Item</title>
<path fill="none" stroke="#000000" stroke-width="2.22" d="M486.55,-355.59C463.31,-342.93 431.58,-325.64 406.02,-311.71"/>
<polygon fill="#000000" stroke="#000000" stroke-width="2.22" points="407.81,-308.7 397.35,-306.99 404.46,-314.85 407.81,-308.7"/>
<text text-anchor="middle" x="463.5" y="-326.8" font-family="Times,serif" font-size="14.00">3714</text>
</g>
<!-- Record Goods Receipt&#45;&gt;Record Goods Receipt -->
<g id="edge8" class="edge">
<title>Record Goods Receipt&#45;&gt;Record Goods Receipt</title>
<path fill="none" stroke="#ff0000" stroke-width="0.5" stroke-dasharray="5,2" d="M413.62,-119.96C424.45,-118.68 431.5,-116.36 431.5,-113 431.5,-110.9 428.75,-109.21 424.04,-107.92"/>
<polygon fill="#ff0000" stroke="#ff0000" stroke-width="0.5" points="424.83,-104.51 414.37,-106.17 423.58,-111.4 424.83,-104.51"/>
<text text-anchor="middle" x="442" y="-109.3" font-family="Times,serif" font-size="14.00">508</text>
</g>
<!-- Record Goods Receipt&#45;&gt;end_node -->
<g id="edge10" class="edge">
<title>Record Goods Receipt&#45;&gt;end_node</title>
<path fill="none" stroke="#000000" stroke-width="6.47" d="M320.5,-94.84C320.5,-85.13 320.5,-72.59 320.5,-60.72"/>
<polygon fill="#000000" stroke="#000000" stroke-width="6.47" points="326.16,-60.76 320.5,-50.76 314.84,-60.76 326.16,-60.76"/>
<text text-anchor="middle" x="337.5" y="-65.8" font-family="Times,serif" font-size="14.00">11636</text>
</g>
<!-- Delete Purchase Order Item&#45;&gt;end_node -->
<g id="edge11" class="edge">
<title>Delete Purchase Order Item&#45;&gt;end_node</title>
<path fill="none" stroke="#000000" stroke-width="2.16" d="M146.92,-94.52C188.35,-77.45 250.51,-51.84 288.12,-36.34"/>
<polygon fill="#000000" stroke="#000000" stroke-width="2.16" points="289.39,-39.6 297.3,-32.56 286.72,-33.13 289.39,-39.6"/>
<text text-anchor="middle" x="239.5" y="-65.8" font-family="Times,serif" font-size="14.00">3599</text>
</g>
<!-- Receive Order Confirmation&#45;&gt;Record Goods Receipt -->
<g id="edge9" class="edge">
<title>Receive Order Confirmation&#45;&gt;Record Goods Receipt</title>
<path fill="none" stroke="#000000" stroke-width="0.7" d="M269.45,-181.8C278.5,-169.78 290.74,-153.52 300.97,-139.94"/>
<polygon fill="#000000" stroke="#000000" stroke-width="0.7" points="303.5,-142.4 306.72,-132.31 297.9,-138.19 303.5,-142.4"/>
<text text-anchor="middle" x="303" y="-152.8" font-family="Times,serif" font-size="14.00">872</text>
</g>
<!-- Receive Order Confirmation&#45;&gt;Delete Purchase Order Item -->
<g id="edge7" class="edge">
<title>Receive Order Confirmation&#45;&gt;Delete Purchase Order Item</title>
<path fill="none" stroke="#ff0000" stroke-width="0.52" stroke-dasharray="5,2" d="M225.37,-181.59C202.12,-168.59 170.12,-150.7 144.89,-136.59"/>
<polygon fill="#ff0000" stroke="#ff0000" stroke-width="0.52" points="146.7,-133.59 136.26,-131.76 143.28,-139.7 146.7,-133.59"/>
<text text-anchor="middle" x="201" y="-152.8" font-family="Times,serif" font-size="14.00">536</text>
</g>
</g>
</svg>
