<?xml version="1.0" encoding="UTF-8" standalone="no"?>
<!DOCTYPE svg PUBLIC "-//W3C//DTD SVG 1.1//EN"
 "http://www.w3.org/Graphics/SVG/1.1/DTD/svg11.dtd">
<!-- Generated by graphviz version 7.0.5 (0)
 -->
<!-- Title: dfg Pages: 1 -->
<svg width="1138pt" height="856pt"
 viewBox="0.00 0.00 1138.00 856.00" xmlns="http://www.w3.org/2000/svg" xmlns:xlink="http://www.w3.org/1999/xlink">
<g id="graph0" class="graph" transform="scale(1 1) rotate(0) translate(4 852)">
<title>dfg</title>
<polygon fill="white" stroke="none" points="-4,4 -4,-852 1134,-852 1134,4 -4,4"/>
<!-- start_node -->
<g id="node1" class="node">
<title>start_node</title>
<ellipse fill="none" stroke="black" cx="888" cy="-830" rx="18" ry="18"/>
<text text-anchor="start" x="883.5" y="-826.3" font-family="Times,serif" font-size="14.00">●</text>
</g>
<!-- Create Purchase Order Item -->
<g id="node2" class="node">
<title>Create Purchase Order Item</title>
<polygon fill="#fbfbff" stroke="black" points="985.5,-674 790.5,-674 790.5,-638 985.5,-638 985.5,-674"/>
<text text-anchor="middle" x="888" y="-652.3" font-family="Times,serif" font-size="14.00">Create Purchase Order Item (56)</text>
</g>
<!-- start_node&#45;&gt;Create Purchase Order Item -->
<g id="edge1" class="edge">
<title>start_node&#45;&gt;Create Purchase Order Item</title>
<path fill="none" stroke="#ff0000" stroke-width="0.63" stroke-dasharray="5,2" d="M885.73,-811.71C884.04,-797.99 881.89,-778.3 881,-761 880.18,-745.02 880.18,-740.98 881,-725 881.68,-711.75 883.1,-697.11 884.49,-684.81"/>
<polygon fill="#ff0000" stroke="#ff0000" stroke-width="0.63" points="887.92,-685.58 885.61,-675.24 880.97,-684.77 887.92,-685.58"/>
<text text-anchor="middle" x="888" y="-739.3" font-family="Times,serif" font-size="14.00">42</text>
</g>
<!-- Create Purchase Requisition Item -->
<g id="node3" class="node">
<title>Create Purchase Requisition Item</title>
<polygon fill="#fefeff" stroke="black" points="1130,-761 904,-761 904,-725 1130,-725 1130,-761"/>
<text text-anchor="middle" x="1017" y="-739.3" font-family="Times,serif" font-size="14.00">Create Purchase Requisition Item (14)</text>
</g>
<!-- start_node&#45;&gt;Create Purchase Requisition Item -->
<g id="edge2" class="edge">
<title>start_node&#45;&gt;Create Purchase Requisition Item</title>
<path fill="none" stroke="#ff0000" stroke-width="0.54" stroke-dasharray="5,2" d="M902.8,-819.25C921.98,-806.61 956.04,-784.17 981.99,-767.07"/>
<polygon fill="#ff0000" stroke="#ff0000" stroke-width="0.54" points="983.68,-770.15 990.1,-761.72 979.83,-764.3 983.68,-770.15"/>
<text text-anchor="middle" x="967" y="-782.8" font-family="Times,serif" font-size="14.00">14</text>
</g>
<!-- Vendor creates invoice -->
<g id="node4" class="node">
<title>Vendor creates invoice</title>
<polygon fill="#fbfbff" stroke="black" points="757.5,-587 590.5,-587 590.5,-551 757.5,-551 757.5,-587"/>
<text text-anchor="middle" x="674" y="-565.3" font-family="Times,serif" font-size="14.00">Vendor creates invoice (69)</text>
</g>
<!-- Create Purchase Order Item&#45;&gt;Vendor creates invoice -->
<g id="edge3" class="edge">
<title>Create Purchase Order Item&#45;&gt;Vendor creates invoice</title>
<path fill="none" stroke="#ff0000" stroke-width="0.65" stroke-dasharray="5,2" d="M844.18,-637.59C810.42,-624.19 763.6,-605.59 727.61,-591.29"/>
<polygon fill="#ff0000" stroke="#ff0000" stroke-width="0.65" points="729.26,-588.18 718.67,-587.74 726.68,-594.69 729.26,-588.18"/>
<text text-anchor="middle" x="801" y="-608.8" font-family="Times,serif" font-size="14.00">46</text>
</g>
<!-- Record Goods Receipt -->
<g id="node5" class="node">
<title>Record Goods Receipt</title>
<polygon fill="#9b9bff" stroke="black" points="808.5,-392 629.5,-392 629.5,-356 808.5,-356 808.5,-392"/>
<text text-anchor="middle" x="719" y="-370.3" font-family="Times,serif" font-size="14.00">Record Goods Receipt (1738)</text>
</g>
<!-- Create Purchase Order Item&#45;&gt;Record Goods Receipt -->
<g id="edge18" class="edge">
<title>Create Purchase Order Item&#45;&gt;Record Goods Receipt</title>
<path fill="none" stroke="#ff0000" stroke-width="0.51" stroke-dasharray="5,2" d="M884.69,-637.67C875.47,-593.75 845.49,-476.88 777,-410 772.63,-405.74 767.65,-401.76 762.49,-398.14"/>
<polygon fill="#ff0000" stroke="#ff0000" stroke-width="0.51" points="764.63,-395.35 754.35,-392.8 760.79,-401.21 764.63,-395.35"/>
<text text-anchor="middle" x="857.5" y="-511.3" font-family="Times,serif" font-size="14.00">4</text>
</g>
<!-- Change Price -->
<g id="node8" class="node">
<title>Change Price</title>
<polygon fill="#fefeff" stroke="black" points="1032.5,-533 923.5,-533 923.5,-497 1032.5,-497 1032.5,-533"/>
<text text-anchor="middle" x="978" y="-511.3" font-family="Times,serif" font-size="14.00">Change Price (4)</text>
</g>
<!-- Create Purchase Order Item&#45;&gt;Change Price -->
<g id="edge14" class="edge">
<title>Create Purchase Order Item&#45;&gt;Change Price</title>
<path fill="none" stroke="#ff0000" stroke-width="0.51" stroke-dasharray="5,2" d="M899.22,-637.68C914.8,-613.61 943.11,-569.89 961.21,-541.93"/>
<polygon fill="#ff0000" stroke="#ff0000" stroke-width="0.51" points="964.01,-544.05 966.51,-533.75 958.13,-540.24 964.01,-544.05"/>
<text text-anchor="middle" x="923.5" y="-608.8" font-family="Times,serif" font-size="14.00">4</text>
</g>
<!-- Change Quantity -->
<g id="node9" class="node">
<title>Change Quantity</title>
<polygon fill="#fefeff" stroke="black" points="950,-305 822,-305 822,-269 950,-269 950,-305"/>
<text text-anchor="middle" x="886" y="-283.3" font-family="Times,serif" font-size="14.00">Change Quantity (5)</text>
</g>
<!-- Create Purchase Order Item&#45;&gt;Change Quantity -->
<g id="edge16" class="edge">
<title>Create Purchase Order Item&#45;&gt;Change Quantity</title>
<path fill="none" stroke="#ff0000" stroke-width="0.5" stroke-dasharray="5,2" d="M984.3,-637.52C1018.19,-625.35 1048,-604.76 1048,-570 1048,-570 1048,-570 1048,-373 1048,-330.31 1003.34,-309.01 960.91,-298.42"/>
<polygon fill="#ff0000" stroke="#ff0000" stroke-width="0.5" points="961.77,-295.02 951.23,-296.18 960.19,-301.84 961.77,-295.02"/>
<text text-anchor="middle" x="1051.5" y="-457.3" font-family="Times,serif" font-size="14.00">2</text>
</g>
<!-- Create Purchase Requisition Item&#45;&gt;Create Purchase Order Item -->
<g id="edge8" class="edge">
<title>Create Purchase Requisition Item&#45;&gt;Create Purchase Order Item</title>
<path fill="none" stroke="#ff0000" stroke-width="0.54" stroke-dasharray="5,2" d="M990.58,-724.59C971.19,-711.82 944.65,-694.32 923.42,-680.34"/>
<polygon fill="#ff0000" stroke="#ff0000" stroke-width="0.54" points="925.34,-677.41 915.07,-674.83 921.49,-683.26 925.34,-677.41"/>
<text text-anchor="middle" x="967" y="-695.8" font-family="Times,serif" font-size="14.00">14</text>
</g>
<!-- Vendor creates invoice&#45;&gt;Vendor creates invoice -->
<g id="edge21" class="edge">
<title>Vendor creates invoice&#45;&gt;Vendor creates invoice</title>
<path fill="none" stroke="#ff0000" stroke-width="0.51" stroke-dasharray="5,2" d="M757.62,-576.15C768.39,-574.91 775.5,-572.53 775.5,-569 775.5,-566.8 772.72,-565.04 768.01,-563.73"/>
<polygon fill="#ff0000" stroke="#ff0000" stroke-width="0.51" points="768.84,-560.32 758.38,-561.99 767.6,-567.21 768.84,-560.32"/>
<text text-anchor="middle" x="779" y="-565.3" font-family="Times,serif" font-size="14.00">4</text>
</g>
<!-- Vendor creates invoice&#45;&gt;Record Goods Receipt -->
<g id="edge4" class="edge">
<title>Vendor creates invoice&#45;&gt;Record Goods Receipt</title>
<path fill="none" stroke="#ff0000" stroke-width="0.65" stroke-dasharray="5,2" d="M636.4,-550.56C592.62,-527.76 529.69,-485.69 558,-443 572.44,-421.22 595.39,-406.4 619.49,-396.32"/>
<polygon fill="#ff0000" stroke="#ff0000" stroke-width="0.65" points="620.54,-399.67 628.58,-392.77 618,-393.14 620.54,-399.67"/>
<text text-anchor="middle" x="565" y="-457.3" font-family="Times,serif" font-size="14.00">46</text>
</g>
<!-- Record Invoice Receipt -->
<g id="node6" class="node">
<title>Record Invoice Receipt</title>
<polygon fill="#fbfbff" stroke="black" points="551.5,-305 380.5,-305 380.5,-269 551.5,-269 551.5,-305"/>
<text text-anchor="middle" x="466" y="-283.3" font-family="Times,serif" font-size="14.00">Record Invoice Receipt (58)</text>
</g>
<!-- Vendor creates invoice&#45;&gt;Record Invoice Receipt -->
<g id="edge10" class="edge">
<title>Vendor creates invoice&#45;&gt;Record Invoice Receipt</title>
<path fill="none" stroke="#ff0000" stroke-width="0.53" stroke-dasharray="5,2" d="M590.07,-561.6C548.06,-556.59 503.17,-547.88 489,-533 432.72,-473.89 447.63,-366.55 458.82,-315.89"/>
<polygon fill="#ff0000" stroke="#ff0000" stroke-width="0.53" points="462.22,-316.73 461.08,-306.19 455.4,-315.14 462.22,-316.73"/>
<text text-anchor="middle" x="452.5" y="-413.8" font-family="Times,serif" font-size="14.00">9</text>
</g>
<!-- Clear Invoice -->
<g id="node7" class="node">
<title>Clear Invoice</title>
<polygon fill="#fbfbff" stroke="black" points="474,-131 358,-131 358,-95 474,-95 474,-131"/>
<text text-anchor="middle" x="416" y="-109.3" font-family="Times,serif" font-size="14.00">Clear Invoice (65)</text>
</g>
<!-- Vendor creates invoice&#45;&gt;Clear Invoice -->
<g id="edge13" class="edge">
<title>Vendor creates invoice&#45;&gt;Clear Invoice</title>
<path fill="none" stroke="#ff0000" stroke-width="0.51" stroke-dasharray="5,2" d="M590,-563.42C409.32,-552.45 0,-521.08 0,-462 0,-462 0,-462 0,-199 0,-129.04 228.73,-116.09 346.98,-114.08"/>
<polygon fill="#ff0000" stroke="#ff0000" stroke-width="0.51" points="347,-117.58 356.94,-113.93 346.89,-110.58 347,-117.58"/>
<text text-anchor="middle" x="3.5" y="-326.8" font-family="Times,serif" font-size="14.00">5</text>
</g>
<!-- Vendor creates invoice&#45;&gt;Change Quantity -->
<g id="edge22" class="edge">
<title>Vendor creates invoice&#45;&gt;Change Quantity</title>
<path fill="none" stroke="#ff0000" stroke-width="0.5" stroke-dasharray="5,2" d="M757.84,-562.56C802.18,-557.82 850.41,-549.06 865,-533 893.33,-501.82 890.46,-373.12 887.66,-315.78"/>
<polygon fill="#ff0000" stroke="#ff0000" stroke-width="0.5" points="891.17,-315.88 887.15,-306.08 884.18,-316.25 891.17,-315.88"/>
<text text-anchor="middle" x="892.5" y="-413.8" font-family="Times,serif" font-size="14.00">2</text>
</g>
<!-- Vendor creates debit memo -->
<g id="node11" class="node">
<title>Vendor creates debit memo</title>
<polygon fill="#fefeff" stroke="black" points="767,-479 581,-479 581,-443 767,-443 767,-479"/>
<text text-anchor="middle" x="674" y="-457.3" font-family="Times,serif" font-size="14.00">Vendor creates debit memo (3)</text>
</g>
<!-- Vendor creates invoice&#45;&gt;Vendor creates debit memo -->
<g id="edge25" class="edge">
<title>Vendor creates invoice&#45;&gt;Vendor creates debit memo</title>
<path fill="none" stroke="#ff0000" stroke-width="0.51" stroke-dasharray="5,2" d="M674,-550.97C674,-534.53 674,-509.35 674,-489.97"/>
<polygon fill="#ff0000" stroke="#ff0000" stroke-width="0.51" points="677.5,-490.11 674,-480.11 670.5,-490.11 677.5,-490.11"/>
<text text-anchor="middle" x="677.5" y="-511.3" font-family="Times,serif" font-size="14.00">3</text>
</g>
<!-- Record Goods Receipt&#45;&gt;Vendor creates invoice -->
<g id="edge9" class="edge">
<title>Record Goods Receipt&#45;&gt;Vendor creates invoice</title>
<path fill="none" stroke="#ff0000" stroke-width="0.54" stroke-dasharray="5,2" d="M739.65,-392.26C761.29,-412.56 790.32,-447.51 776,-479 763.29,-506.95 736.99,-529.56 714.27,-544.99"/>
<polygon fill="#ff0000" stroke="#ff0000" stroke-width="0.54" points="712.6,-541.9 706.14,-550.3 716.43,-547.76 712.6,-541.9"/>
<text text-anchor="middle" x="787" y="-457.3" font-family="Times,serif" font-size="14.00">13</text>
</g>
<!-- Record Goods Receipt&#45;&gt;Record Goods Receipt -->
<g id="edge5" class="edge">
<title>Record Goods Receipt&#45;&gt;Record Goods Receipt</title>
<path fill="none" stroke="#000000" stroke-width="6" d="M808.78,-381.01C819.5,-379.73 826.5,-377.4 826.5,-374 826.5,-372.94 825.82,-371.98 824.55,-371.13"/>
<polygon fill="#000000" stroke="#000000" stroke-width="6" points="826.03,-366.09 815.03,-368.63 823.37,-376.24 826.03,-366.09"/>
<text text-anchor="middle" x="840.5" y="-370.3" font-family="Times,serif" font-size="14.00">1679</text>
</g>
<!-- Record Goods Receipt&#45;&gt;Record Invoice Receipt -->
<g id="edge6" class="edge">
<title>Record Goods Receipt&#45;&gt;Record Invoice Receipt</title>
<path fill="none" stroke="#ff0000" stroke-width="0.64" stroke-dasharray="5,2" d="M682.49,-355.51C659.93,-345.15 630.19,-332.27 603,-323 587.13,-317.59 569.97,-312.57 553.34,-308.13"/>
<polygon fill="#ff0000" stroke="#ff0000" stroke-width="0.64" points="554.57,-304.83 544,-305.68 552.79,-311.6 554.57,-304.83"/>
<text text-anchor="middle" x="649" y="-326.8" font-family="Times,serif" font-size="14.00">43</text>
</g>
<!-- Record Goods Receipt&#45;&gt;Change Quantity -->
<g id="edge34" class="edge">
<title>Record Goods Receipt&#45;&gt;Change Quantity</title>
<path fill="none" stroke="#ff0000" stroke-width="0.5" stroke-dasharray="5,2" d="M800.9,-355.5C814.16,-350.9 827.34,-345.15 839,-338 849.47,-331.58 859.12,-322.23 866.93,-313.34"/>
<polygon fill="#ff0000" stroke="#ff0000" stroke-width="0.5" points="869.61,-315.58 873.32,-305.66 864.23,-311.11 869.61,-315.58"/>
<text text-anchor="middle" x="860.5" y="-326.8" font-family="Times,serif" font-size="14.00">1</text>
</g>
<!-- end_node -->
<g id="node15" class="node">
<title>end_node</title>
<ellipse fill="none" stroke="black" cx="705" cy="-22" rx="18" ry="18"/>
<ellipse fill="none" stroke="black" cx="705" cy="-22" rx="22" ry="22"/>
<text text-anchor="start" x="700.5" y="-18.3" font-family="Times,serif" font-size="14.00">■</text>
</g>
<!-- Record Goods Receipt&#45;&gt;end_node -->
<g id="edge39" class="edge">
<title>Record Goods Receipt&#45;&gt;end_node</title>
<path fill="none" stroke="#ff0000" stroke-width="0.5" stroke-dasharray="5,2" d="M729.66,-355.8C738.96,-339.12 751,-312.76 751,-288 751,-288 751,-288 751,-112 751,-88.15 737.81,-64.32 725.55,-47.33"/>
<polygon fill="#ff0000" stroke="#ff0000" stroke-width="0.5" points="728.6,-45.56 719.76,-39.71 723.02,-49.79 728.6,-45.56"/>
<text text-anchor="middle" x="754.5" y="-196.3" font-family="Times,serif" font-size="14.00">2</text>
</g>
<!-- Record Invoice Receipt&#45;&gt;Vendor creates invoice -->
<g id="edge12" class="edge">
<title>Record Invoice Receipt&#45;&gt;Vendor creates invoice</title>
<path fill="none" stroke="#ff0000" stroke-width="0.51" stroke-dasharray="5,2" d="M470.61,-305.36C484.29,-355.71 525.89,-500.25 561,-533 566.91,-538.52 573.68,-543.16 580.9,-547.08"/>
<polygon fill="#ff0000" stroke="#ff0000" stroke-width="0.51" points="579.04,-550.07 589.56,-551.32 582.12,-543.78 579.04,-550.07"/>
<text text-anchor="middle" x="511.5" y="-413.8" font-family="Times,serif" font-size="14.00">4</text>
</g>
<!-- Record Invoice Receipt&#45;&gt;Record Invoice Receipt -->
<g id="edge24" class="edge">
<title>Record Invoice Receipt&#45;&gt;Record Invoice Receipt</title>
<path fill="none" stroke="#ff0000" stroke-width="0.5" stroke-dasharray="5,2" d="M551.66,-294.1C562.42,-292.85 569.5,-290.48 569.5,-287 569.5,-284.82 566.73,-283.08 562.03,-281.78"/>
<polygon fill="#ff0000" stroke="#ff0000" stroke-width="0.5" points="562.88,-278.37 552.41,-280.03 561.63,-285.26 562.88,-278.37"/>
<text text-anchor="middle" x="573" y="-283.3" font-family="Times,serif" font-size="14.00">2</text>
</g>
<!-- Record Invoice Receipt&#45;&gt;Clear Invoice -->
<g id="edge7" class="edge">
<title>Record Invoice Receipt&#45;&gt;Clear Invoice</title>
<path fill="none" stroke="#ff0000" stroke-width="0.64" stroke-dasharray="5,2" d="M454.56,-268.58C446.38,-255.28 435.83,-236.19 430,-218 422.02,-193.12 418.59,-163.47 417.11,-142.21"/>
<polygon fill="#ff0000" stroke="#ff0000" stroke-width="0.64" points="420.61,-142.08 416.53,-132.3 413.62,-142.49 420.61,-142.08"/>
<text text-anchor="middle" x="437" y="-196.3" font-family="Times,serif" font-size="14.00">43</text>
</g>
<!-- Record Subsequent Invoice -->
<g id="node10" class="node">
<title>Record Subsequent Invoice</title>
<polygon fill="#ffffff" stroke="black" points="676.5,-218 491.5,-218 491.5,-182 676.5,-182 676.5,-218"/>
<text text-anchor="middle" x="584" y="-196.3" font-family="Times,serif" font-size="14.00">Record Subsequent Invoice (1)</text>
</g>
<!-- Record Invoice Receipt&#45;&gt;Record Subsequent Invoice -->
<g id="edge19" class="edge">
<title>Record Invoice Receipt&#45;&gt;Record Subsequent Invoice</title>
<path fill="none" stroke="#ff0000" stroke-width="0.5" stroke-dasharray="5,2" d="M490.16,-268.59C507.82,-255.87 531.97,-238.48 551.34,-224.52"/>
<polygon fill="#ff0000" stroke="#ff0000" stroke-width="0.5" points="553.19,-227.51 559.25,-218.83 549.09,-221.83 553.19,-227.51"/>
<text text-anchor="middle" x="536.5" y="-239.8" font-family="Times,serif" font-size="14.00">1</text>
</g>
<!-- Cancel Invoice Receipt -->
<g id="node12" class="node">
<title>Cancel Invoice Receipt</title>
<polygon fill="#fefeff" stroke="black" points="191.5,-218 28.5,-218 28.5,-182 191.5,-182 191.5,-218"/>
<text text-anchor="middle" x="110" y="-196.3" font-family="Times,serif" font-size="14.00">Cancel Invoice Receipt (2)</text>
</g>
<!-- Record Invoice Receipt&#45;&gt;Cancel Invoice Receipt -->
<g id="edge27" class="edge">
<title>Record Invoice Receipt&#45;&gt;Cancel Invoice Receipt</title>
<path fill="none" stroke="#ff0000" stroke-width="0.5" stroke-dasharray="5,2" d="M393.1,-268.59C335.12,-254.75 253.97,-235.37 193.4,-220.91"/>
<polygon fill="#ff0000" stroke="#ff0000" stroke-width="0.5" points="194.39,-217.55 183.85,-218.63 192.76,-224.36 194.39,-217.55"/>
<text text-anchor="middle" x="313.5" y="-239.8" font-family="Times,serif" font-size="14.00">2</text>
</g>
<!-- Remove Payment Block -->
<g id="node13" class="node">
<title>Remove Payment Block</title>
<polygon fill="#fefeff" stroke="black" points="380,-218 210,-218 210,-182 380,-182 380,-218"/>
<text text-anchor="middle" x="295" y="-196.3" font-family="Times,serif" font-size="14.00">Remove Payment Block (2)</text>
</g>
<!-- Record Invoice Receipt&#45;&gt;Remove Payment Block -->
<g id="edge30" class="edge">
<title>Record Invoice Receipt&#45;&gt;Remove Payment Block</title>
<path fill="none" stroke="#ff0000" stroke-width="0.5" stroke-dasharray="5,2" d="M430.59,-268.59C419.22,-262.99 406.57,-256.74 395,-251 376.66,-241.9 356.46,-231.81 339.05,-223.09"/>
<polygon fill="#ff0000" stroke="#ff0000" stroke-width="0.5" points="340.88,-220.09 330.37,-218.74 337.74,-226.35 340.88,-220.09"/>
<text text-anchor="middle" x="398.5" y="-239.8" font-family="Times,serif" font-size="14.00">2</text>
</g>
<!-- Record Invoice Receipt&#45;&gt;end_node -->
<g id="edge38" class="edge">
<title>Record Invoice Receipt&#45;&gt;end_node</title>
<path fill="none" stroke="#ff0000" stroke-width="0.51" stroke-dasharray="5,2" d="M551.84,-281.49C598.4,-274.3 652.85,-257.28 685,-218 722.99,-171.59 718.15,-96.65 711.45,-54.47"/>
<polygon fill="#ff0000" stroke="#ff0000" stroke-width="0.51" points="714.92,-54.01 709.77,-44.75 708.02,-55.2 714.92,-54.01"/>
<text text-anchor="middle" x="717.5" y="-152.8" font-family="Times,serif" font-size="14.00">4</text>
</g>
<!-- Clear Invoice&#45;&gt;Record Invoice Receipt -->
<g id="edge29" class="edge">
<title>Clear Invoice&#45;&gt;Record Invoice Receipt</title>
<path fill="none" stroke="#ff0000" stroke-width="0.5" stroke-dasharray="5,2" d="M424.93,-131.24C427.68,-136.84 430.6,-143.12 433,-149 447.83,-185.4 457.05,-230.08 461.85,-258.3"/>
<polygon fill="#ff0000" stroke="#ff0000" stroke-width="0.5" points="458.35,-258.55 463.41,-267.86 465.25,-257.43 458.35,-258.55"/>
<text text-anchor="middle" x="457.5" y="-196.3" font-family="Times,serif" font-size="14.00">2</text>
</g>
<!-- Clear Invoice&#45;&gt;Clear Invoice -->
<g id="edge11" class="edge">
<title>Clear Invoice&#45;&gt;Clear Invoice</title>
<path fill="none" stroke="#ff0000" stroke-width="0.54" stroke-dasharray="5,2" d="M474.31,-120.68C484.73,-119.68 492,-117.12 492,-113 492,-110.49 489.3,-108.56 484.83,-107.21"/>
<polygon fill="#ff0000" stroke="#ff0000" stroke-width="0.54" points="485.58,-103.78 475.12,-105.47 484.34,-110.67 485.58,-103.78"/>
<text text-anchor="middle" x="499" y="-109.3" font-family="Times,serif" font-size="14.00">13</text>
</g>
<!-- Clear Invoice&#45;&gt;end_node -->
<g id="edge37" class="edge">
<title>Clear Invoice&#45;&gt;end_node</title>
<path fill="none" stroke="#ff0000" stroke-width="0.66" stroke-dasharray="5,2" d="M472.75,-94.52C532.84,-76.02 625.5,-47.48 673.61,-32.67"/>
<polygon fill="#ff0000" stroke="#ff0000" stroke-width="0.66" points="674.52,-36.05 683.04,-29.76 672.46,-29.36 674.52,-36.05"/>
<text text-anchor="middle" x="585" y="-65.8" font-family="Times,serif" font-size="14.00">50</text>
</g>
<!-- Change Price&#45;&gt;Record Goods Receipt -->
<g id="edge15" class="edge">
<title>Change Price&#45;&gt;Record Goods Receipt</title>
<path fill="none" stroke="#ff0000" stroke-width="0.51" stroke-dasharray="5,2" d="M975.46,-496.51C971.05,-472.92 959.64,-431.39 932,-410 914.06,-396.11 865.43,-387.53 819.16,-382.35"/>
<polygon fill="#ff0000" stroke="#ff0000" stroke-width="0.51" points="819.8,-378.89 809.49,-381.31 819.06,-385.85 819.8,-378.89"/>
<text text-anchor="middle" x="974.5" y="-457.3" font-family="Times,serif" font-size="14.00">4</text>
</g>
<!-- Change Quantity&#45;&gt;Vendor creates invoice -->
<g id="edge17" class="edge">
<title>Change Quantity&#45;&gt;Vendor creates invoice</title>
<path fill="none" stroke="#ff0000" stroke-width="0.5" stroke-dasharray="5,2" d="M893.65,-305.26C911.96,-349.51 952.6,-468.08 894,-533 877.09,-551.73 820.24,-560.46 768.58,-564.52"/>
<polygon fill="#ff0000" stroke="#ff0000" stroke-width="0.5" points="768.46,-561.02 758.75,-565.24 768.97,-568 768.46,-561.02"/>
<text text-anchor="middle" x="927.5" y="-413.8" font-family="Times,serif" font-size="14.00">2</text>
</g>
<!-- Change Quantity&#45;&gt;Record Goods Receipt -->
<g id="edge23" class="edge">
<title>Change Quantity&#45;&gt;Record Goods Receipt</title>
<path fill="none" stroke="#ff0000" stroke-width="0.5" stroke-dasharray="5,2" d="M860.55,-305.33C842.3,-317.6 819.21,-332.77 809,-338 799.6,-342.82 789.38,-347.38 779.3,-351.53"/>
<polygon fill="#ff0000" stroke="#ff0000" stroke-width="0.5" points="778,-348.28 770.02,-355.24 780.61,-354.77 778,-348.28"/>
<text text-anchor="middle" x="837.5" y="-326.8" font-family="Times,serif" font-size="14.00">2</text>
</g>
<!-- Change Delivery Indicator -->
<g id="node14" class="node">
<title>Change Delivery Indicator</title>
<polygon fill="#ffffff" stroke="black" points="966.5,-218 785.5,-218 785.5,-182 966.5,-182 966.5,-218"/>
<text text-anchor="middle" x="876" y="-196.3" font-family="Times,serif" font-size="14.00">Change Delivery Indicator (1)</text>
</g>
<!-- Change Quantity&#45;&gt;Change Delivery Indicator -->
<g id="edge35" class="edge">
<title>Change Quantity&#45;&gt;Change Delivery Indicator</title>
<path fill="none" stroke="#ff0000" stroke-width="0.5" stroke-dasharray="5,2" d="M883.98,-268.8C882.63,-257.35 880.83,-242.06 879.28,-228.89"/>
<polygon fill="#ff0000" stroke="#ff0000" stroke-width="0.5" points="882.79,-228.74 878.14,-219.22 875.84,-229.56 882.79,-228.74"/>
<text text-anchor="middle" x="885.5" y="-239.8" font-family="Times,serif" font-size="14.00">1</text>
</g>
<!-- Record Subsequent Invoice&#45;&gt;Clear Invoice -->
<g id="edge20" class="edge">
<title>Record Subsequent Invoice&#45;&gt;Clear Invoice</title>
<path fill="none" stroke="#ff0000" stroke-width="0.5" stroke-dasharray="5,2" d="M549.6,-181.59C523.66,-168.47 487.9,-150.38 459.91,-136.21"/>
<polygon fill="#ff0000" stroke="#ff0000" stroke-width="0.5" points="461.54,-133.12 451.03,-131.72 458.37,-139.36 461.54,-133.12"/>
<text text-anchor="middle" x="514.5" y="-152.8" font-family="Times,serif" font-size="14.00">1</text>
</g>
<!-- Vendor creates debit memo&#45;&gt;Record Goods Receipt -->
<g id="edge26" class="edge">
<title>Vendor creates debit memo&#45;&gt;Record Goods Receipt</title>
<path fill="none" stroke="#ff0000" stroke-width="0.5" stroke-dasharray="5,2" d="M683.11,-442.8C689.35,-431.01 697.75,-415.14 704.86,-401.72"/>
<polygon fill="#ff0000" stroke="#ff0000" stroke-width="0.5" points="707.81,-403.62 709.4,-393.14 701.62,-400.34 707.81,-403.62"/>
<text text-anchor="middle" x="703.5" y="-413.8" font-family="Times,serif" font-size="14.00">2</text>
</g>
<!-- Vendor creates debit memo&#45;&gt;Record Invoice Receipt -->
<g id="edge32" class="edge">
<title>Vendor creates debit memo&#45;&gt;Record Invoice Receipt</title>
<path fill="none" stroke="#ff0000" stroke-width="0.5" stroke-dasharray="5,2" d="M655.74,-442.83C627.07,-416.14 569.32,-363.56 517,-323 512.05,-319.16 506.71,-315.26 501.42,-311.52"/>
<polygon fill="#ff0000" stroke="#ff0000" stroke-width="0.5" points="503.46,-308.67 493.25,-305.85 499.46,-314.42 503.46,-308.67"/>
<text text-anchor="middle" x="603.5" y="-370.3" font-family="Times,serif" font-size="14.00">1</text>
</g>
<!-- Cancel Invoice Receipt&#45;&gt;Record Invoice Receipt -->
<g id="edge33" class="edge">
<title>Cancel Invoice Receipt&#45;&gt;Record Invoice Receipt</title>
<path fill="none" stroke="#ff0000" stroke-width="0.5" stroke-dasharray="5,2" d="M154.8,-218.49C183.39,-229.11 221.45,-242.27 256,-251 292.69,-260.27 333.63,-267.73 369.54,-273.33"/>
<polygon fill="#ff0000" stroke="#ff0000" stroke-width="0.5" points="368.86,-276.77 379.27,-274.83 369.92,-269.85 368.86,-276.77"/>
<text text-anchor="middle" x="259.5" y="-239.8" font-family="Times,serif" font-size="14.00">1</text>
</g>
<!-- Cancel Invoice Receipt&#45;&gt;Clear Invoice -->
<g id="edge28" class="edge">
<title>Cancel Invoice Receipt&#45;&gt;Clear Invoice</title>
<path fill="none" stroke="#ff0000" stroke-width="0.5" stroke-dasharray="5,2" d="M172.66,-181.59C223.48,-167.48 295.01,-147.61 347.36,-133.07"/>
<polygon fill="#ff0000" stroke="#ff0000" stroke-width="0.5" points="348.14,-136.48 356.84,-130.43 346.27,-129.74 348.14,-136.48"/>
<text text-anchor="middle" x="285.5" y="-152.8" font-family="Times,serif" font-size="14.00">1</text>
</g>
<!-- Remove Payment Block&#45;&gt;Clear Invoice -->
<g id="edge31" class="edge">
<title>Remove Payment Block&#45;&gt;Clear Invoice</title>
<path fill="none" stroke="#ff0000" stroke-width="0.5" stroke-dasharray="5,2" d="M319.78,-181.59C337.89,-168.87 362.64,-151.48 382.51,-137.52"/>
<polygon fill="#ff0000" stroke="#ff0000" stroke-width="0.5" points="384.46,-140.43 390.63,-131.82 380.44,-134.71 384.46,-140.43"/>
<text text-anchor="middle" x="366.5" y="-152.8" font-family="Times,serif" font-size="14.00">2</text>
</g>
<!-- Change Delivery Indicator&#45;&gt;Record Goods Receipt -->
<g id="edge36" class="edge">
<title>Change Delivery Indicator&#45;&gt;Record Goods Receipt</title>
<path fill="none" stroke="#ff0000" stroke-width="0.5" stroke-dasharray="5,2" d="M855.27,-218.48C840.53,-231.52 820.8,-250.25 806,-269 783.9,-297 788.74,-311.38 765,-338 761.59,-341.82 757.71,-345.52 753.68,-348.97"/>
<polygon fill="#ff0000" stroke="#ff0000" stroke-width="0.5" points="751.5,-346.24 745.9,-355.24 755.89,-351.69 751.5,-346.24"/>
<text text-anchor="middle" x="809.5" y="-283.3" font-family="Times,serif" font-size="14.00">1</text>
</g>
</g>
</svg>
