<?xml version="1.0" encoding="UTF-8" standalone="no"?>
<!DOCTYPE svg PUBLIC "-//W3C//DTD SVG 1.1//EN"
 "http://www.w3.org/Graphics/SVG/1.1/DTD/svg11.dtd">
<!-- Generated by graphviz version 7.0.5 (0)
 -->
<!-- Title: dfg Pages: 1 -->
<svg width="1035pt" height="922pt"
 viewBox="0.00 0.00 1035.00 922.00" xmlns="http://www.w3.org/2000/svg" xmlns:xlink="http://www.w3.org/1999/xlink">
<g id="graph0" class="graph" transform="scale(1 1) rotate(0) translate(4 918)">
<title>dfg</title>
<polygon fill="white" stroke="none" points="-4,4 -4,-918 1031,-918 1031,4 -4,4"/>
<!-- start_node -->
<g id="node1" class="node">
<title>start_node</title>
<ellipse fill="none" stroke="black" cx="396" cy="-896" rx="18" ry="18"/>
<text text-anchor="start" x="391.5" y="-892.3" font-family="Times,serif" font-size="14.00">●</text>
</g>
<!-- Create Purchase Order Item -->
<g id="node2" class="node">
<title>Create Purchase Order Item</title>
<polygon fill="#f9f9ff" stroke="black" points="430.5,-827 221.5,-827 221.5,-791 430.5,-791 430.5,-827"/>
<text text-anchor="middle" x="326" y="-805.3" font-family="Times,serif" font-size="14.00">Create Purchase Order Item (1430)</text>
</g>
<!-- start_node&#45;&gt;Create Purchase Order Item -->
<g id="edge1" class="edge">
<title>start_node&#45;&gt;Create Purchase Order Item</title>
<path fill="none" stroke="#000000" stroke-width="0.82" d="M384.75,-881.34C374.67,-869.1 359.62,-850.82 347.27,-835.83"/>
<polygon fill="#000000" stroke="#000000" stroke-width="0.82" points="350.22,-833.9 341.16,-828.41 344.82,-838.35 350.22,-833.9"/>
<text text-anchor="middle" x="379" y="-848.8" font-family="Times,serif" font-size="14.00">1385</text>
</g>
<!-- Vendor creates invoice -->
<g id="node3" class="node">
<title>Vendor creates invoice</title>
<polygon fill="#fdfdff" stroke="black" points="553.5,-740 380.5,-740 380.5,-704 553.5,-704 553.5,-740"/>
<text text-anchor="middle" x="467" y="-718.3" font-family="Times,serif" font-size="14.00">Vendor creates invoice (348)</text>
</g>
<!-- start_node&#45;&gt;Vendor creates invoice -->
<g id="edge2" class="edge">
<title>start_node&#45;&gt;Vendor creates invoice</title>
<path fill="none" stroke="#ff0000" stroke-width="0.51" stroke-dasharray="5,2" d="M406.86,-881.17C416.76,-867.94 431.17,-847.08 440,-827 450.87,-802.28 458.08,-772.26 462.29,-750.84"/>
<polygon fill="#ff0000" stroke="#ff0000" stroke-width="0.51" points="465.69,-751.73 464.08,-741.25 458.81,-750.44 465.69,-751.73"/>
<text text-anchor="middle" x="459" y="-805.3" font-family="Times,serif" font-size="14.00">45</text>
</g>
<!-- Create Purchase Order Item&#45;&gt;Vendor creates invoice -->
<g id="edge51" class="edge">
<title>Create Purchase Order Item&#45;&gt;Vendor creates invoice</title>
<path fill="none" stroke="#ff0000" stroke-width="0.5" stroke-dasharray="5,2" d="M374.24,-790.66C385.97,-785.63 398.24,-779.68 409,-773 420.65,-765.77 432.33,-756.25 442.12,-747.46"/>
<polygon fill="#ff0000" stroke="#ff0000" stroke-width="0.5" points="444.33,-750.19 449.3,-740.83 439.58,-745.04 444.33,-750.19"/>
<text text-anchor="middle" x="432.5" y="-761.8" font-family="Times,serif" font-size="14.00">1</text>
</g>
<!-- Record Service Entry Sheet -->
<g id="node4" class="node">
<title>Record Service Entry Sheet</title>
<polygon fill="#9b9bff" stroke="black" points="584,-653 370,-653 370,-617 584,-617 584,-653"/>
<text text-anchor="middle" x="477" y="-631.3" font-family="Times,serif" font-size="14.00">Record Service Entry Sheet (28190)</text>
</g>
<!-- Create Purchase Order Item&#45;&gt;Record Service Entry Sheet -->
<g id="edge3" class="edge">
<title>Create Purchase Order Item&#45;&gt;Record Service Entry Sheet</title>
<path fill="none" stroke="#ff0000" stroke-width="0.73" stroke-dasharray="5,2" d="M325.99,-790.71C326.83,-768.45 331.29,-729.61 351,-704 366.71,-683.58 390.36,-668.55 412.94,-657.89"/>
<polygon fill="#ff0000" stroke="#ff0000" stroke-width="0.73" points="414.17,-661.17 421.86,-653.89 411.3,-654.79 414.17,-661.17"/>
<text text-anchor="middle" x="361.5" y="-718.3" font-family="Times,serif" font-size="14.00">994</text>
</g>
<!-- Record Goods Receipt -->
<g id="node5" class="node">
<title>Record Goods Receipt</title>
<polygon fill="#dedeff" stroke="black" points="356.5,-566 177.5,-566 177.5,-530 356.5,-530 356.5,-566"/>
<text text-anchor="middle" x="267" y="-544.3" font-family="Times,serif" font-size="14.00">Record Goods Receipt (9190)</text>
</g>
<!-- Create Purchase Order Item&#45;&gt;Record Goods Receipt -->
<g id="edge8" class="edge">
<title>Create Purchase Order Item&#45;&gt;Record Goods Receipt</title>
<path fill="none" stroke="#ff0000" stroke-width="0.6" stroke-dasharray="5,2" d="M221.28,-792.48C157.51,-777.03 80.86,-746.43 41,-686 2.31,-627.35 90.76,-589.85 168.1,-569.18"/>
<polygon fill="#ff0000" stroke="#ff0000" stroke-width="0.6" points="168.76,-572.62 177.56,-566.72 167,-565.85 168.76,-572.62"/>
<text text-anchor="middle" x="51.5" y="-674.8" font-family="Times,serif" font-size="14.00">435</text>
</g>
<!-- Vendor creates invoice&#45;&gt;Create Purchase Order Item -->
<g id="edge17" class="edge">
<title>Vendor creates invoice&#45;&gt;Create Purchase Order Item</title>
<path fill="none" stroke="#ff0000" stroke-width="0.51" stroke-dasharray="5,2" d="M427.86,-740.5C417.01,-745.75 405.37,-751.79 395,-758 381.95,-765.82 368.26,-775.42 356.54,-784.11"/>
<polygon fill="#ff0000" stroke="#ff0000" stroke-width="0.51" points="354.51,-781.26 348.63,-790.07 358.72,-786.85 354.51,-781.26"/>
<text text-anchor="middle" x="402" y="-761.8" font-family="Times,serif" font-size="14.00">45</text>
</g>
<!-- Vendor creates invoice&#45;&gt;Vendor creates invoice -->
<g id="edge25" class="edge">
<title>Vendor creates invoice&#45;&gt;Vendor creates invoice</title>
<path fill="none" stroke="#ff0000" stroke-width="0.51" stroke-dasharray="5,2" d="M553.89,-729.06C564.53,-727.79 571.5,-725.44 571.5,-722 571.5,-719.85 568.78,-718.12 564.13,-716.82"/>
<polygon fill="#ff0000" stroke="#ff0000" stroke-width="0.51" points="565.11,-713.44 554.64,-715.08 563.84,-720.33 565.11,-713.44"/>
<text text-anchor="middle" x="578.5" y="-718.3" font-family="Times,serif" font-size="14.00">24</text>
</g>
<!-- Vendor creates invoice&#45;&gt;Record Service Entry Sheet -->
<g id="edge28" class="edge">
<title>Vendor creates invoice&#45;&gt;Record Service Entry Sheet</title>
<path fill="none" stroke="#ff0000" stroke-width="0.5" stroke-dasharray="5,2" d="M457.23,-703.81C452.98,-694.13 449.64,-681.85 453,-671 453.9,-668.1 455.13,-665.22 456.57,-662.44"/>
<polygon fill="#ff0000" stroke="#ff0000" stroke-width="0.5" points="459.44,-664.45 461.64,-654.09 453.46,-660.82 459.44,-664.45"/>
<text text-anchor="middle" x="460" y="-674.8" font-family="Times,serif" font-size="14.00">17</text>
</g>
<!-- Vendor creates invoice&#45;&gt;Record Goods Receipt -->
<g id="edge27" class="edge">
<title>Vendor creates invoice&#45;&gt;Record Goods Receipt</title>
<path fill="none" stroke="#ff0000" stroke-width="0.5" stroke-dasharray="5,2" d="M380.37,-703.59C347.07,-696.58 315.24,-689.37 308,-686 286.16,-675.83 275.65,-674.61 265,-653 253.25,-629.17 255.67,-598.37 259.85,-576.5"/>
<polygon fill="#ff0000" stroke="#ff0000" stroke-width="0.5" points="263.21,-577.5 261.9,-566.99 256.37,-576.03 263.21,-577.5"/>
<text text-anchor="middle" x="272" y="-631.3" font-family="Times,serif" font-size="14.00">13</text>
</g>
<!-- Cancel Goods Receipt -->
<g id="node6" class="node">
<title>Cancel Goods Receipt</title>
<polygon fill="#fefeff" stroke="black" points="503.5,-479 332.5,-479 332.5,-443 503.5,-443 503.5,-479"/>
<text text-anchor="middle" x="418" y="-457.3" font-family="Times,serif" font-size="14.00">Cancel Goods Receipt (126)</text>
</g>
<!-- Vendor creates invoice&#45;&gt;Cancel Goods Receipt -->
<g id="edge34" class="edge">
<title>Vendor creates invoice&#45;&gt;Cancel Goods Receipt</title>
<path fill="none" stroke="#ff0000" stroke-width="0.5" stroke-dasharray="5,2" d="M553.94,-705.03C608.93,-690.22 665.99,-663.29 645,-617 614.23,-549.15 536.56,-506.41 480.64,-483.38"/>
<polygon fill="#ff0000" stroke="#ff0000" stroke-width="0.5" points="482.11,-480.2 471.52,-479.73 479.5,-486.7 482.11,-480.2"/>
<text text-anchor="middle" x="637.5" y="-587.8" font-family="Times,serif" font-size="14.00">1</text>
</g>
<!-- Record Invoice Receipt -->
<g id="node7" class="node">
<title>Record Invoice Receipt</title>
<polygon fill="#fdfdff" stroke="black" points="687,-218 509,-218 509,-182 687,-182 687,-218"/>
<text text-anchor="middle" x="598" y="-196.3" font-family="Times,serif" font-size="14.00">Record Invoice Receipt (371)</text>
</g>
<!-- Vendor creates invoice&#45;&gt;Record Invoice Receipt -->
<g id="edge12" class="edge">
<title>Vendor creates invoice&#45;&gt;Record Invoice Receipt</title>
<path fill="none" stroke="#ff0000" stroke-width="0.56" stroke-dasharray="5,2" d="M553.99,-717.01C627.27,-712.49 725.65,-703.38 761,-686 788.92,-672.27 810,-667.11 810,-636 810,-636 810,-636 810,-503.5 810,-378.2 824.42,-306.73 721,-236 713.34,-230.76 704.91,-226.3 696.16,-222.51"/>
<polygon fill="#ff0000" stroke="#ff0000" stroke-width="0.56" points="697.53,-219.29 686.95,-218.81 694.92,-225.78 697.53,-219.29"/>
<text text-anchor="middle" x="820.5" y="-457.3" font-family="Times,serif" font-size="14.00">242</text>
</g>
<!-- Clear Invoice -->
<g id="node8" class="node">
<title>Clear Invoice</title>
<polygon fill="#fdfdff" stroke="black" points="706.5,-392 583.5,-392 583.5,-356 706.5,-356 706.5,-392"/>
<text text-anchor="middle" x="645" y="-370.3" font-family="Times,serif" font-size="14.00">Clear Invoice (319)</text>
</g>
<!-- Vendor creates invoice&#45;&gt;Clear Invoice -->
<g id="edge49" class="edge">
<title>Vendor creates invoice&#45;&gt;Clear Invoice</title>
<path fill="none" stroke="#ff0000" stroke-width="0.5" stroke-dasharray="5,2" d="M553.91,-713.23C580.29,-708.13 608.49,-699.75 632,-686 673.66,-661.62 683.01,-645.2 697,-599 721.65,-517.6 700.36,-488.24 667,-410 665.79,-407.15 664.36,-404.27 662.82,-401.45"/>
<polygon fill="#ff0000" stroke="#ff0000" stroke-width="0.5" points="665.83,-399.67 657.72,-392.86 659.82,-403.25 665.83,-399.67"/>
<text text-anchor="middle" x="710.5" y="-544.3" font-family="Times,serif" font-size="14.00">2</text>
</g>
<!-- Vendor creates debit memo -->
<g id="node9" class="node">
<title>Vendor creates debit memo</title>
<polygon fill="#fefeff" stroke="black" points="1027,-131 841,-131 841,-95 1027,-95 1027,-131"/>
<text text-anchor="middle" x="934" y="-109.3" font-family="Times,serif" font-size="14.00">Vendor creates debit memo (5)</text>
</g>
<!-- Vendor creates invoice&#45;&gt;Vendor creates debit memo -->
<g id="edge41" class="edge">
<title>Vendor creates invoice&#45;&gt;Vendor creates debit memo</title>
<path fill="none" stroke="#ff0000" stroke-width="0.5" stroke-dasharray="5,2" d="M553.8,-716.99C647.41,-711.94 790.04,-701.95 842,-686 886.12,-672.46 933,-682.15 933,-636 933,-636 933,-636 933,-199 933,-179.93 933.25,-158.47 933.51,-141.87"/>
<polygon fill="#ff0000" stroke="#ff0000" stroke-width="0.5" points="937,-142.07 933.67,-132.01 930.01,-141.96 937,-142.07"/>
<text text-anchor="middle" x="936.5" y="-413.8" font-family="Times,serif" font-size="14.00">2</text>
</g>
<!-- Change Price -->
<g id="node13" class="node">
<title>Change Price</title>
<polygon fill="#fefeff" stroke="black" points="137.5,-131 28.5,-131 28.5,-95 137.5,-95 137.5,-131"/>
<text text-anchor="middle" x="83" y="-109.3" font-family="Times,serif" font-size="14.00">Change Price (2)</text>
</g>
<!-- Vendor creates invoice&#45;&gt;Change Price -->
<g id="edge52" class="edge">
<title>Vendor creates invoice&#45;&gt;Change Price</title>
<path fill="none" stroke="#ff0000" stroke-width="0.5" stroke-dasharray="5,2" d="M380.3,-704.79C378.86,-704.52 377.42,-704.26 376,-704 331.14,-695.81 317.03,-703.68 275,-686 190.42,-650.41 156.27,-643.41 107,-566 92.89,-543.83 65,-500.55 65,-331.5 65,-331.5 65,-331.5 65,-199 65,-179.45 69.61,-157.91 74.17,-141.4"/>
<polygon fill="#ff0000" stroke="#ff0000" stroke-width="0.5" points="77.45,-142.66 76.89,-132.08 70.73,-140.7 77.45,-142.66"/>
<text text-anchor="middle" x="72.5" y="-413.8" font-family="Times,serif" font-size="14.00">1</text>
</g>
<!-- end_node -->
<g id="node14" class="node">
<title>end_node</title>
<ellipse fill="none" stroke="black" cx="295" cy="-22" rx="18" ry="18"/>
<ellipse fill="none" stroke="black" cx="295" cy="-22" rx="22" ry="22"/>
<text text-anchor="start" x="290.5" y="-18.3" font-family="Times,serif" font-size="14.00">■</text>
</g>
<!-- Vendor creates invoice&#45;&gt;end_node -->
<g id="edge61" class="edge">
<title>Vendor creates invoice&#45;&gt;end_node</title>
<path fill="none" stroke="#ff0000" stroke-width="0.5" stroke-dasharray="5,2" d="M380.34,-704.54C378.88,-704.35 377.44,-704.17 376,-704 337.88,-699.47 64.04,-705.54 31,-686 8.49,-672.69 0,-662.15 0,-636 0,-636 0,-636 0,-112 0,-57.7 185.52,-33.55 262.32,-25.88"/>
<polygon fill="#ff0000" stroke="#ff0000" stroke-width="0.5" points="262.46,-29.38 272.07,-24.94 261.78,-22.42 262.46,-29.38"/>
<text text-anchor="middle" x="3.5" y="-370.3" font-family="Times,serif" font-size="14.00">1</text>
</g>
<!-- Record Service Entry Sheet&#45;&gt;Vendor creates invoice -->
<g id="edge11" class="edge">
<title>Record Service Entry Sheet&#45;&gt;Vendor creates invoice</title>
<path fill="none" stroke="#ff0000" stroke-width="0.53" stroke-dasharray="5,2" d="M474.95,-653.47C473.59,-664.97 471.79,-680.28 470.25,-693.41"/>
<polygon fill="#ff0000" stroke="#ff0000" stroke-width="0.53" points="466.81,-692.66 469.12,-703 473.76,-693.47 466.81,-692.66"/>
<text text-anchor="middle" x="482.5" y="-674.8" font-family="Times,serif" font-size="14.00">145</text>
</g>
<!-- Record Service Entry Sheet&#45;&gt;Record Service Entry Sheet -->
<g id="edge4" class="edge">
<title>Record Service Entry Sheet&#45;&gt;Record Service Entry Sheet</title>
<path fill="none" stroke="#000000" stroke-width="6" d="M584.13,-641.7C595.04,-640.38 602,-638.14 602,-635 602,-634.02 601.32,-633.12 600.05,-632.32"/>
<polygon fill="#000000" stroke="#000000" stroke-width="6" points="601.37,-627.24 590.39,-629.88 598.8,-637.42 601.37,-627.24"/>
<text text-anchor="middle" x="619" y="-631.3" font-family="Times,serif" font-size="14.00">23836</text>
</g>
<!-- Record Service Entry Sheet&#45;&gt;Record Goods Receipt -->
<g id="edge5" class="edge">
<title>Record Service Entry Sheet&#45;&gt;Record Goods Receipt</title>
<path fill="none" stroke="#000000" stroke-width="1.4" d="M424.49,-616.58C410.76,-611.45 396.12,-605.46 383,-599 371.72,-593.44 370.27,-589.6 359,-584 349.45,-579.25 339.08,-574.74 328.87,-570.63"/>
<polygon fill="#000000" stroke="#000000" stroke-width="1.4" points="330.45,-567.49 319.86,-567.11 327.9,-574.01 330.45,-567.49"/>
<text text-anchor="middle" x="397" y="-587.8" font-family="Times,serif" font-size="14.00">3883</text>
</g>
<!-- Record Service Entry Sheet&#45;&gt;Cancel Goods Receipt -->
<g id="edge9" class="edge">
<title>Record Service Entry Sheet&#45;&gt;Cancel Goods Receipt</title>
<path fill="none" stroke="#ff0000" stroke-width="0.51" stroke-dasharray="5,2" d="M485.58,-616.53C497.99,-588.48 516.78,-532.94 491,-497 487.86,-492.62 484.01,-488.76 479.75,-485.37"/>
<polygon fill="#ff0000" stroke="#ff0000" stroke-width="0.51" points="481.97,-482.65 471.75,-479.85 478,-488.41 481.97,-482.65"/>
<text text-anchor="middle" x="510" y="-544.3" font-family="Times,serif" font-size="14.00">51</text>
</g>
<!-- Record Service Entry Sheet&#45;&gt;Record Invoice Receipt -->
<g id="edge20" class="edge">
<title>Record Service Entry Sheet&#45;&gt;Record Invoice Receipt</title>
<path fill="none" stroke="#ff0000" stroke-width="0.51" stroke-dasharray="5,2" d="M573.35,-616.55C580.91,-611.94 587.67,-606.18 593,-599 596.98,-593.65 593.35,-590.66 593,-584 589.66,-521.07 595.34,-503.59 578,-443 556.87,-369.16 500.25,-377.18 474,-305 468.53,-289.96 465.85,-282.77 474,-269 486.37,-248.11 507.68,-233.22 529.18,-222.8"/>
<polygon fill="#ff0000" stroke="#ff0000" stroke-width="0.51" points="530.36,-226.11 538.01,-218.78 527.46,-219.74 530.36,-226.11"/>
<text text-anchor="middle" x="578" y="-413.8" font-family="Times,serif" font-size="14.00">26</text>
</g>
<!-- Record Service Entry Sheet&#45;&gt;Vendor creates debit memo -->
<g id="edge29" class="edge">
<title>Record Service Entry Sheet&#45;&gt;Vendor creates debit memo</title>
<path fill="none" stroke="#ff0000" stroke-width="0.5" stroke-dasharray="5,2" d="M584.19,-623.63C603.93,-618.32 623.49,-610.49 640,-599 684.06,-568.35 866.33,-238.1 919.43,-140.82"/>
<polygon fill="#ff0000" stroke="#ff0000" stroke-width="0.5" points="922.49,-142.51 924.2,-132.05 916.34,-139.16 922.49,-142.51"/>
<text text-anchor="middle" x="801.5" y="-370.3" font-family="Times,serif" font-size="14.00">2</text>
</g>
<!-- Record Service Entry Sheet&#45;&gt;end_node -->
<g id="edge57" class="edge">
<title>Record Service Entry Sheet&#45;&gt;end_node</title>
<path fill="none" stroke="#ff0000" stroke-width="0.56" stroke-dasharray="5,2" d="M391.42,-616.51C301.21,-597.88 171.58,-570.46 168,-566 102.32,-484.3 158.03,-193.46 194,-95 200.13,-78.21 203.48,-73.69 217,-62 230.77,-50.09 248.82,-40.77 264.08,-34.22"/>
<polygon fill="#ff0000" stroke="#ff0000" stroke-width="0.56" points="265.39,-37.47 273.34,-30.46 262.75,-30.99 265.39,-37.47"/>
<text text-anchor="middle" x="155.5" y="-326.8" font-family="Times,serif" font-size="14.00">247</text>
</g>
<!-- Record Goods Receipt&#45;&gt;Vendor creates invoice -->
<g id="edge16" class="edge">
<title>Record Goods Receipt&#45;&gt;Vendor creates invoice</title>
<path fill="none" stroke="#ff0000" stroke-width="0.53" stroke-dasharray="5,2" d="M269.15,-566.32C273.87,-596.25 288.1,-657.19 328,-686 335.79,-691.62 351.52,-697.04 369.7,-701.86"/>
<polygon fill="#ff0000" stroke="#ff0000" stroke-width="0.53" points="368.69,-705.21 379.24,-704.28 370.41,-698.43 368.69,-705.21"/>
<text text-anchor="middle" x="309.5" y="-631.3" font-family="Times,serif" font-size="14.00">115</text>
</g>
<!-- Record Goods Receipt&#45;&gt;Record Service Entry Sheet -->
<g id="edge7" class="edge">
<title>Record Goods Receipt&#45;&gt;Record Service Entry Sheet</title>
<path fill="none" stroke="#000000" stroke-width="1.27" d="M356.92,-564.83C375.3,-569.72 394.15,-576 411,-584 418.7,-587.66 433.44,-598.66 447.03,-609.42"/>
<polygon fill="#000000" stroke="#000000" stroke-width="1.27" points="444.68,-612.01 454.67,-615.53 449.05,-606.55 444.68,-612.01"/>
<text text-anchor="middle" x="446" y="-587.8" font-family="Times,serif" font-size="14.00">3325</text>
</g>
<!-- Record Goods Receipt&#45;&gt;Record Goods Receipt -->
<g id="edge6" class="edge">
<title>Record Goods Receipt&#45;&gt;Record Goods Receipt</title>
<path fill="none" stroke="#000000" stroke-width="1.62" d="M356.78,-555.01C367.5,-553.73 374.5,-551.4 374.5,-548 374.5,-546.14 372.41,-544.6 368.76,-543.38"/>
<polygon fill="#000000" stroke="#000000" stroke-width="1.62" points="369.67,-539.99 359.18,-541.47 368.31,-546.86 369.67,-539.99"/>
<text text-anchor="middle" x="388.5" y="-544.3" font-family="Times,serif" font-size="14.00">4837</text>
</g>
<!-- Record Goods Receipt&#45;&gt;Cancel Goods Receipt -->
<g id="edge14" class="edge">
<title>Record Goods Receipt&#45;&gt;Cancel Goods Receipt</title>
<path fill="none" stroke="#ff0000" stroke-width="0.5" stroke-dasharray="5,2" d="M317.36,-529.53C329.67,-524.51 342.57,-518.59 354,-512 366.72,-504.67 379.69,-495.02 390.59,-486.16"/>
<polygon fill="#ff0000" stroke="#ff0000" stroke-width="0.5" points="392.82,-488.86 398.26,-479.78 388.34,-483.49 392.82,-488.86"/>
<text text-anchor="middle" x="383" y="-500.8" font-family="Times,serif" font-size="14.00">20</text>
</g>
<!-- Record Goods Receipt&#45;&gt;Record Invoice Receipt -->
<g id="edge21" class="edge">
<title>Record Goods Receipt&#45;&gt;Record Invoice Receipt</title>
<path fill="none" stroke="#ff0000" stroke-width="0.51" stroke-dasharray="5,2" d="M263.78,-529.81C260.86,-512.69 257,-485.63 257,-462 257,-462 257,-462 257,-286 257,-262.67 254.92,-250.75 273,-236 281.77,-228.84 405.93,-217.01 498.18,-209.11"/>
<polygon fill="#ff0000" stroke="#ff0000" stroke-width="0.51" points="498.26,-212.61 507.93,-208.28 497.67,-205.64 498.26,-212.61"/>
<text text-anchor="middle" x="264" y="-370.3" font-family="Times,serif" font-size="14.00">42</text>
</g>
<!-- Record Goods Receipt&#45;&gt;Clear Invoice -->
<g id="edge55" class="edge">
<title>Record Goods Receipt&#45;&gt;Clear Invoice</title>
<path fill="none" stroke="#ff0000" stroke-width="0.5" stroke-dasharray="5,2" d="M356.86,-542.72C415.35,-535.95 490.59,-519.28 545,-479 573.67,-457.77 560.77,-435.21 586,-410 590.32,-405.69 595.27,-401.7 600.43,-398.07"/>
<polygon fill="#ff0000" stroke="#ff0000" stroke-width="0.5" points="602.14,-401.14 608.61,-392.75 598.32,-395.27 602.14,-401.14"/>
<text text-anchor="middle" x="570.5" y="-457.3" font-family="Times,serif" font-size="14.00">1</text>
</g>
<!-- Record Goods Receipt&#45;&gt;end_node -->
<g id="edge56" class="edge">
<title>Record Goods Receipt&#45;&gt;end_node</title>
<path fill="none" stroke="#ff0000" stroke-width="0.7" stroke-dasharray="5,2" d="M245.37,-529.52C228.53,-513.82 208,-489.12 208,-462 208,-462 208,-462 208,-112 208,-78.24 240.41,-52.53 265.67,-37.63"/>
<polygon fill="#ff0000" stroke="#ff0000" stroke-width="0.7" points="267.32,-40.72 274.34,-32.78 263.9,-34.61 267.32,-40.72"/>
<text text-anchor="middle" x="218.5" y="-283.3" font-family="Times,serif" font-size="14.00">850</text>
</g>
<!-- Cancel Goods Receipt&#45;&gt;Vendor creates invoice -->
<g id="edge24" class="edge">
<title>Cancel Goods Receipt&#45;&gt;Vendor creates invoice</title>
<path fill="none" stroke="#ff0000" stroke-width="0.5" stroke-dasharray="5,2" d="M422.63,-479.32C427.55,-501.95 432.15,-541.59 412,-566 391.28,-591.11 360.99,-558.31 341,-584 336.91,-589.26 339.82,-592.44 341,-599 345.52,-624.19 344.96,-633.06 361,-653 376.26,-671.97 398.31,-687.3 418.34,-698.57"/>
<polygon fill="#ff0000" stroke="#ff0000" stroke-width="0.5" points="416.55,-701.58 427.01,-703.26 419.88,-695.42 416.55,-701.58"/>
<text text-anchor="middle" x="348" y="-587.8" font-family="Times,serif" font-size="14.00">12</text>
</g>
<!-- Cancel Goods Receipt&#45;&gt;Record Service Entry Sheet -->
<g id="edge15" class="edge">
<title>Cancel Goods Receipt&#45;&gt;Record Service Entry Sheet</title>
<path fill="none" stroke="#ff0000" stroke-width="0.5" stroke-dasharray="5,2" d="M433.6,-479.19C437.82,-484.58 442.04,-490.76 445,-497 461.92,-532.65 470.23,-577.86 474.06,-606.37"/>
<polygon fill="#ff0000" stroke="#ff0000" stroke-width="0.5" points="470.55,-606.54 475.26,-616.03 477.5,-605.67 470.55,-606.54"/>
<text text-anchor="middle" x="474" y="-544.3" font-family="Times,serif" font-size="14.00">14</text>
</g>
<!-- Cancel Goods Receipt&#45;&gt;Record Goods Receipt -->
<g id="edge22" class="edge">
<title>Cancel Goods Receipt&#45;&gt;Record Goods Receipt</title>
<path fill="none" stroke="#ff0000" stroke-width="0.5" stroke-dasharray="5,2" d="M371.94,-479.37C359.96,-484.5 347.26,-490.5 336,-497 326.38,-502.55 324.97,-505.44 316,-512 310.92,-515.72 305.52,-519.62 300.23,-523.42"/>
<polygon fill="#ff0000" stroke="#ff0000" stroke-width="0.5" points="298.22,-520.55 292.13,-529.22 302.3,-526.25 298.22,-520.55"/>
<text text-anchor="middle" x="343" y="-500.8" font-family="Times,serif" font-size="14.00">20</text>
</g>
<!-- Cancel Goods Receipt&#45;&gt;Cancel Goods Receipt -->
<g id="edge10" class="edge">
<title>Cancel Goods Receipt&#45;&gt;Cancel Goods Receipt</title>
<path fill="none" stroke="#ff0000" stroke-width="0.51" stroke-dasharray="5,2" d="M503.66,-468.1C514.42,-466.85 521.5,-464.48 521.5,-461 521.5,-458.82 518.73,-457.08 514.03,-455.78"/>
<polygon fill="#ff0000" stroke="#ff0000" stroke-width="0.51" points="514.89,-452.37 504.43,-454.04 513.64,-459.26 514.89,-452.37"/>
<text text-anchor="middle" x="528.5" y="-457.3" font-family="Times,serif" font-size="14.00">54</text>
</g>
<!-- Cancel Goods Receipt&#45;&gt;Record Invoice Receipt -->
<g id="edge18" class="edge">
<title>Cancel Goods Receipt&#45;&gt;Record Invoice Receipt</title>
<path fill="none" stroke="#ff0000" stroke-width="0.5" stroke-dasharray="5,2" d="M413.77,-442.8C404.7,-401.41 388.26,-295.3 441,-236 449.6,-226.33 472.56,-219.07 498.35,-213.75"/>
<polygon fill="#ff0000" stroke="#ff0000" stroke-width="0.5" points="498.84,-217.22 507.99,-211.88 497.51,-210.35 498.84,-217.22"/>
<text text-anchor="middle" x="408.5" y="-326.8" font-family="Times,serif" font-size="14.00">9</text>
</g>
<!-- Cancel Goods Receipt&#45;&gt;Clear Invoice -->
<g id="edge47" class="edge">
<title>Cancel Goods Receipt&#45;&gt;Clear Invoice</title>
<path fill="none" stroke="#ff0000" stroke-width="0.5" stroke-dasharray="5,2" d="M464.15,-442.61C489.73,-432.98 522.12,-420.81 551,-410 563.1,-405.47 576.08,-400.63 588.41,-396.04"/>
<polygon fill="#ff0000" stroke="#ff0000" stroke-width="0.5" points="589.27,-399.45 597.42,-392.68 586.83,-392.89 589.27,-399.45"/>
<text text-anchor="middle" x="554.5" y="-413.8" font-family="Times,serif" font-size="14.00">1</text>
</g>
<!-- Cancel Goods Receipt&#45;&gt;end_node -->
<g id="edge58" class="edge">
<title>Cancel Goods Receipt&#45;&gt;end_node</title>
<path fill="none" stroke="#ff0000" stroke-width="0.5" stroke-dasharray="5,2" d="M401.41,-442.57C367.84,-406.52 295,-324.16 295,-288 295,-288 295,-288 295,-112 295,-92.99 295,-71.69 295,-54.7"/>
<polygon fill="#ff0000" stroke="#ff0000" stroke-width="0.5" points="298.5,-54.98 295,-44.98 291.5,-54.98 298.5,-54.98"/>
<text text-anchor="middle" x="302" y="-239.8" font-family="Times,serif" font-size="14.00">16</text>
</g>
<!-- Record Invoice Receipt&#45;&gt;Vendor creates invoice -->
<g id="edge23" class="edge">
<title>Record Invoice Receipt&#45;&gt;Vendor creates invoice</title>
<path fill="none" stroke="#ff0000" stroke-width="0.5" stroke-dasharray="5,2" d="M687.02,-212.09C723.77,-221.31 763.44,-238.17 788,-269 856.53,-355.01 867,-393.52 867,-503.5 867,-636 867,-636 867,-636 867,-697.68 682.73,-714.79 564.33,-719.42"/>
<polygon fill="#ff0000" stroke="#ff0000" stroke-width="0.5" points="564.42,-715.91 554.55,-719.77 564.67,-722.91 564.42,-715.91"/>
<text text-anchor="middle" x="869.5" y="-457.3" font-family="Times,serif" font-size="14.00">2</text>
</g>
<!-- Record Invoice Receipt&#45;&gt;Record Goods Receipt -->
<g id="edge46" class="edge">
<title>Record Invoice Receipt&#45;&gt;Record Goods Receipt</title>
<path fill="none" stroke="#ff0000" stroke-width="0.5" stroke-dasharray="5,2" d="M508.83,-204.95C480.04,-209.74 449.32,-218.9 425,-236 373.99,-271.86 302.81,-451.27 276.91,-520.08"/>
<polygon fill="#ff0000" stroke="#ff0000" stroke-width="0.5" points="273.78,-518.46 273.56,-529.06 280.34,-520.91 273.78,-518.46"/>
<text text-anchor="middle" x="349.5" y="-370.3" font-family="Times,serif" font-size="14.00">2</text>
</g>
<!-- Record Invoice Receipt&#45;&gt;Record Invoice Receipt -->
<g id="edge19" class="edge">
<title>Record Invoice Receipt&#45;&gt;Record Invoice Receipt</title>
<path fill="none" stroke="#ff0000" stroke-width="0.51" stroke-dasharray="5,2" d="M687.37,-207.01C698.03,-205.73 705,-203.4 705,-200 705,-197.88 702.28,-196.17 697.63,-194.87"/>
<polygon fill="#ff0000" stroke="#ff0000" stroke-width="0.51" points="698.59,-191.49 688.12,-193.13 697.33,-198.38 698.59,-191.49"/>
<text text-anchor="middle" x="712" y="-196.3" font-family="Times,serif" font-size="14.00">39</text>
</g>
<!-- Record Invoice Receipt&#45;&gt;Clear Invoice -->
<g id="edge13" class="edge">
<title>Record Invoice Receipt&#45;&gt;Clear Invoice</title>
<path fill="none" stroke="#ff0000" stroke-width="0.57" stroke-dasharray="5,2" d="M683.12,-218.24C690.84,-222.86 697.72,-228.67 703,-236 729.51,-272.78 725.29,-298.52 703,-338 700.76,-341.98 697.86,-345.55 694.56,-348.75"/>
<polygon fill="#ff0000" stroke="#ff0000" stroke-width="0.57" points="692.43,-345.97 686.91,-355.02 696.87,-351.39 692.43,-345.97"/>
<text text-anchor="middle" x="731.5" y="-283.3" font-family="Times,serif" font-size="14.00">308</text>
</g>
<!-- Record Invoice Receipt&#45;&gt;Vendor creates debit memo -->
<g id="edge37" class="edge">
<title>Record Invoice Receipt&#45;&gt;Vendor creates debit memo</title>
<path fill="none" stroke="#ff0000" stroke-width="0.5" stroke-dasharray="5,2" d="M687.4,-189.14C726.42,-183.64 772.44,-175.52 813,-164 838.62,-156.73 866.13,-145.64 888.44,-135.75"/>
<polygon fill="#ff0000" stroke="#ff0000" stroke-width="0.5" points="889.61,-139.06 897.29,-131.77 886.73,-132.68 889.61,-139.06"/>
<text text-anchor="middle" x="856.5" y="-152.8" font-family="Times,serif" font-size="14.00">1</text>
</g>
<!-- Cancel Invoice Receipt -->
<g id="node10" class="node">
<title>Cancel Invoice Receipt</title>
<polygon fill="#fefeff" stroke="black" points="856.5,-40 693.5,-40 693.5,-4 856.5,-4 856.5,-40"/>
<text text-anchor="middle" x="775" y="-18.3" font-family="Times,serif" font-size="14.00">Cancel Invoice Receipt (6)</text>
</g>
<!-- Record Invoice Receipt&#45;&gt;Cancel Invoice Receipt -->
<g id="edge31" class="edge">
<title>Record Invoice Receipt&#45;&gt;Cancel Invoice Receipt</title>
<path fill="none" stroke="#ff0000" stroke-width="0.5" stroke-dasharray="5,2" d="M631.19,-181.52C639.66,-176.38 648.48,-170.41 656,-164 697.07,-128.95 735.65,-78.93 757.21,-48.84"/>
<polygon fill="#ff0000" stroke="#ff0000" stroke-width="0.5" points="759.98,-50.99 762.9,-40.81 754.27,-46.94 759.98,-50.99"/>
<text text-anchor="middle" x="724.5" y="-109.3" font-family="Times,serif" font-size="14.00">2</text>
</g>
<!-- Remove Payment Block -->
<g id="node11" class="node">
<title>Remove Payment Block</title>
<polygon fill="#fefeff" stroke="black" points="653,-305 483,-305 483,-269 653,-269 653,-305"/>
<text text-anchor="middle" x="568" y="-283.3" font-family="Times,serif" font-size="14.00">Remove Payment Block (6)</text>
</g>
<!-- Record Invoice Receipt&#45;&gt;Remove Payment Block -->
<g id="edge35" class="edge">
<title>Record Invoice Receipt&#45;&gt;Remove Payment Block</title>
<path fill="none" stroke="#ff0000" stroke-width="0.5" stroke-dasharray="5,2" d="M581.44,-218.27C577.3,-223.56 573.37,-229.68 571,-236 568.41,-242.92 567.2,-250.76 566.76,-258.14"/>
<polygon fill="#ff0000" stroke="#ff0000" stroke-width="0.5" points="563.26,-258 566.58,-268.06 570.26,-258.12 563.26,-258"/>
<text text-anchor="middle" x="574.5" y="-239.8" font-family="Times,serif" font-size="14.00">3</text>
</g>
<!-- Set Payment Block -->
<g id="node12" class="node">
<title>Set Payment Block</title>
<polygon fill="#ffffff" stroke="black" points="523.5,-131 382.5,-131 382.5,-95 523.5,-95 523.5,-131"/>
<text text-anchor="middle" x="453" y="-109.3" font-family="Times,serif" font-size="14.00">Set Payment Block (1)</text>
</g>
<!-- Record Invoice Receipt&#45;&gt;Set Payment Block -->
<g id="edge50" class="edge">
<title>Record Invoice Receipt&#45;&gt;Set Payment Block</title>
<path fill="none" stroke="#ff0000" stroke-width="0.5" stroke-dasharray="5,2" d="M568.31,-181.59C546.22,-168.64 515.87,-150.85 491.85,-136.77"/>
<polygon fill="#ff0000" stroke="#ff0000" stroke-width="0.5" points="493.7,-133.8 483.31,-131.77 490.16,-139.84 493.7,-133.8"/>
<text text-anchor="middle" x="537.5" y="-152.8" font-family="Times,serif" font-size="14.00">1</text>
</g>
<!-- Record Invoice Receipt&#45;&gt;Change Price -->
<g id="edge54" class="edge">
<title>Record Invoice Receipt&#45;&gt;Change Price</title>
<path fill="none" stroke="#ff0000" stroke-width="0.5" stroke-dasharray="5,2" d="M508.59,-184.24C405.8,-167.28 239.54,-139.84 148.22,-124.77"/>
<polygon fill="#ff0000" stroke="#ff0000" stroke-width="0.5" points="148.92,-121.33 138.49,-123.16 147.78,-128.24 148.92,-121.33"/>
<text text-anchor="middle" x="374.5" y="-152.8" font-family="Times,serif" font-size="14.00">1</text>
</g>
<!-- Record Invoice Receipt&#45;&gt;end_node -->
<g id="edge60" class="edge">
<title>Record Invoice Receipt&#45;&gt;end_node</title>
<path fill="none" stroke="#ff0000" stroke-width="0.5" stroke-dasharray="5,2" d="M591.64,-181.55C582.33,-158.39 562.76,-117.77 533,-95 470.65,-47.31 376.8,-31.04 327.65,-25.62"/>
<polygon fill="#ff0000" stroke="#ff0000" stroke-width="0.5" points="328.08,-22.14 317.77,-24.62 327.37,-29.11 328.08,-22.14"/>
<text text-anchor="middle" x="572" y="-109.3" font-family="Times,serif" font-size="14.00">12</text>
</g>
<!-- Clear Invoice&#45;&gt;Vendor creates invoice -->
<g id="edge48" class="edge">
<title>Clear Invoice&#45;&gt;Vendor creates invoice</title>
<path fill="none" stroke="#ff0000" stroke-width="0.5" stroke-dasharray="5,2" d="M706.79,-387.64C718.45,-392.75 729.36,-399.92 737,-410 774.08,-458.88 783.56,-639.97 743,-686 731.05,-699.56 638.69,-709.23 564.05,-714.92"/>
<polygon fill="#ff0000" stroke="#ff0000" stroke-width="0.5" points="564.11,-711.41 554.4,-715.64 564.63,-718.39 564.11,-711.41"/>
<text text-anchor="middle" x="772.5" y="-544.3" font-family="Times,serif" font-size="14.00">1</text>
</g>
<!-- Clear Invoice&#45;&gt;Record Service Entry Sheet -->
<g id="edge40" class="edge">
<title>Clear Invoice&#45;&gt;Record Service Entry Sheet</title>
<path fill="none" stroke="#ff0000" stroke-width="0.5" stroke-dasharray="5,2" d="M649.13,-392.46C657.83,-433.94 673.2,-539.43 621,-599 616.14,-604.55 606.22,-609.37 593.76,-613.51"/>
<polygon fill="#ff0000" stroke="#ff0000" stroke-width="0.5" points="593.05,-610.07 584.5,-616.32 595.09,-616.77 593.05,-610.07"/>
<text text-anchor="middle" x="660.5" y="-500.8" font-family="Times,serif" font-size="14.00">2</text>
</g>
<!-- Clear Invoice&#45;&gt;Record Invoice Receipt -->
<g id="edge26" class="edge">
<title>Clear Invoice&#45;&gt;Record Invoice Receipt</title>
<path fill="none" stroke="#ff0000" stroke-width="0.5" stroke-dasharray="5,2" d="M653.19,-355.84C662.07,-334.71 673.53,-298.08 662,-269 655.27,-252.03 642.07,-236.83 629.4,-225.13"/>
<polygon fill="#ff0000" stroke="#ff0000" stroke-width="0.5" points="632.04,-222.78 622.22,-218.81 627.42,-228.04 632.04,-222.78"/>
<text text-anchor="middle" x="669.5" y="-283.3" font-family="Times,serif" font-size="14.00">7</text>
</g>
<!-- Clear Invoice&#45;&gt;Clear Invoice -->
<g id="edge39" class="edge">
<title>Clear Invoice&#45;&gt;Clear Invoice</title>
<path fill="none" stroke="#ff0000" stroke-width="0.5" stroke-dasharray="5,2" d="M707,-381.58C717.35,-380.52 724.5,-377.99 724.5,-374 724.5,-371.57 721.85,-369.68 717.43,-368.33"/>
<polygon fill="#ff0000" stroke="#ff0000" stroke-width="0.5" points="718.21,-364.92 707.74,-366.56 716.95,-371.8 718.21,-364.92"/>
<text text-anchor="middle" x="728" y="-370.3" font-family="Times,serif" font-size="14.00">2</text>
</g>
<!-- Clear Invoice&#45;&gt;Cancel Invoice Receipt -->
<g id="edge43" class="edge">
<title>Clear Invoice&#45;&gt;Cancel Invoice Receipt</title>
<path fill="none" stroke="#ff0000" stroke-width="0.5" stroke-dasharray="5,2" d="M691.01,-355.67C701.09,-350.78 711.33,-344.87 720,-338 760.69,-305.76 815.68,-251.92 843,-164 844.98,-157.63 844.81,-155.42 843,-149 840.46,-139.97 836.63,-139.15 832,-131 816.46,-103.67 799.8,-71.77 788.53,-49.75"/>
<polygon fill="#ff0000" stroke="#ff0000" stroke-width="0.5" points="791.76,-48.38 784.1,-41.06 785.52,-51.56 791.76,-48.38"/>
<text text-anchor="middle" x="839.5" y="-196.3" font-family="Times,serif" font-size="14.00">3</text>
</g>
<!-- Clear Invoice&#45;&gt;Remove Payment Block -->
<g id="edge45" class="edge">
<title>Clear Invoice&#45;&gt;Remove Payment Block</title>
<path fill="none" stroke="#ff0000" stroke-width="0.5" stroke-dasharray="5,2" d="M610.83,-355.67C603.29,-350.72 595.82,-344.78 590,-338 584.33,-331.39 579.9,-323.1 576.55,-315.17"/>
<polygon fill="#ff0000" stroke="#ff0000" stroke-width="0.5" points="579.83,-313.96 573.01,-305.85 573.28,-316.44 579.83,-313.96"/>
<text text-anchor="middle" x="593.5" y="-326.8" font-family="Times,serif" font-size="14.00">1</text>
</g>
<!-- Clear Invoice&#45;&gt;end_node -->
<g id="edge59" class="edge">
<title>Clear Invoice&#45;&gt;end_node</title>
<path fill="none" stroke="#ff0000" stroke-width="0.57" stroke-dasharray="5,2" d="M583.13,-370.04C520.68,-366.02 429.39,-357.04 400,-338 358.76,-311.28 341,-293.64 341,-244.5 341,-244.5 341,-244.5 341,-112 341,-88.15 327.81,-64.32 315.55,-47.33"/>
<polygon fill="#ff0000" stroke="#ff0000" stroke-width="0.57" points="318.66,-45.64 309.82,-39.79 313.09,-49.87 318.66,-45.64"/>
<text text-anchor="middle" x="351.5" y="-196.3" font-family="Times,serif" font-size="14.00">303</text>
</g>
<!-- Vendor creates debit memo&#45;&gt;Vendor creates invoice -->
<g id="edge30" class="edge">
<title>Vendor creates debit memo&#45;&gt;Vendor creates invoice</title>
<path fill="none" stroke="#ff0000" stroke-width="0.5" stroke-dasharray="5,2" d="M946.53,-131.28C957.26,-147.82 971,-173.89 971,-199 971,-636 971,-636 971,-636 971,-660.65 967.37,-672.12 947,-686 916.22,-706.97 695.48,-715.71 564.31,-719.08"/>
<polygon fill="#ff0000" stroke="#ff0000" stroke-width="0.5" points="564.53,-715.57 554.62,-719.32 564.7,-722.57 564.53,-715.57"/>
<text text-anchor="middle" x="974.5" y="-413.8" font-family="Times,serif" font-size="14.00">3</text>
</g>
<!-- Vendor creates debit memo&#45;&gt;Record Invoice Receipt -->
<g id="edge42" class="edge">
<title>Vendor creates debit memo&#45;&gt;Record Invoice Receipt</title>
<path fill="none" stroke="#ff0000" stroke-width="0.5" stroke-dasharray="5,2" d="M858.24,-131.48C841.4,-136.34 823.85,-142.19 808,-149 796.09,-154.11 795.11,-159.39 783,-164 756.06,-174.25 725.74,-181.59 697.55,-186.82"/>
<polygon fill="#ff0000" stroke="#ff0000" stroke-width="0.5" points="697.25,-183.31 688.02,-188.51 698.48,-190.21 697.25,-183.31"/>
<text text-anchor="middle" x="811.5" y="-152.8" font-family="Times,serif" font-size="14.00">1</text>
</g>
<!-- Vendor creates debit memo&#45;&gt;Cancel Invoice Receipt -->
<g id="edge38" class="edge">
<title>Vendor creates debit memo&#45;&gt;Cancel Invoice Receipt</title>
<path fill="none" stroke="#ff0000" stroke-width="0.5" stroke-dasharray="5,2" d="M902.97,-94.63C877.99,-80.65 842.68,-60.88 815.48,-45.66"/>
<polygon fill="#ff0000" stroke="#ff0000" stroke-width="0.5" points="817.32,-42.68 806.89,-40.85 813.9,-48.79 817.32,-42.68"/>
<text text-anchor="middle" x="871.5" y="-65.8" font-family="Times,serif" font-size="14.00">1</text>
</g>
<!-- Cancel Invoice Receipt&#45;&gt;Record Invoice Receipt -->
<g id="edge44" class="edge">
<title>Cancel Invoice Receipt&#45;&gt;Record Invoice Receipt</title>
<path fill="none" stroke="#ff0000" stroke-width="0.5" stroke-dasharray="5,2" d="M748.24,-40.22C728.1,-53.83 700.41,-73.98 679,-95 654.42,-119.13 630.75,-150.83 615.41,-172.87"/>
<polygon fill="#ff0000" stroke="#ff0000" stroke-width="0.5" points="612.57,-170.81 609.8,-181.04 618.34,-174.78 612.57,-170.81"/>
<text text-anchor="middle" x="682.5" y="-109.3" font-family="Times,serif" font-size="14.00">4</text>
</g>
<!-- Cancel Invoice Receipt&#45;&gt;Remove Payment Block -->
<g id="edge32" class="edge">
<title>Cancel Invoice Receipt&#45;&gt;Remove Payment Block</title>
<path fill="none" stroke="#ff0000" stroke-width="0.5" stroke-dasharray="5,2" d="M775.72,-40.39C776.31,-77.51 772.56,-165.38 728,-218 709.58,-239.75 682.98,-254.71 656.73,-264.92"/>
<polygon fill="#ff0000" stroke="#ff0000" stroke-width="0.5" points="655.6,-261.61 647.42,-268.35 658.02,-268.18 655.6,-261.61"/>
<text text-anchor="middle" x="765.5" y="-152.8" font-family="Times,serif" font-size="14.00">2</text>
</g>
<!-- Remove Payment Block&#45;&gt;Record Invoice Receipt -->
<g id="edge33" class="edge">
<title>Remove Payment Block&#45;&gt;Record Invoice Receipt</title>
<path fill="none" stroke="#ff0000" stroke-width="0.5" stroke-dasharray="5,2" d="M574.07,-268.8C578.15,-257.24 583.62,-241.75 588.29,-228.5"/>
<polygon fill="#ff0000" stroke="#ff0000" stroke-width="0.5" points="591.56,-229.78 591.58,-219.18 584.95,-227.45 591.56,-229.78"/>
<text text-anchor="middle" x="587.5" y="-239.8" font-family="Times,serif" font-size="14.00">1</text>
</g>
<!-- Remove Payment Block&#45;&gt;Clear Invoice -->
<g id="edge36" class="edge">
<title>Remove Payment Block&#45;&gt;Clear Invoice</title>
<path fill="none" stroke="#ff0000" stroke-width="0.5" stroke-dasharray="5,2" d="M583.82,-305.47C594.97,-317.78 610.07,-334.44 622.47,-348.13"/>
<polygon fill="#ff0000" stroke="#ff0000" stroke-width="0.5" points="619.6,-350.18 628.91,-355.24 624.79,-345.48 619.6,-350.18"/>
<text text-anchor="middle" x="614.5" y="-326.8" font-family="Times,serif" font-size="14.00">5</text>
</g>
<!-- Set Payment Block&#45;&gt;end_node -->
<g id="edge62" class="edge">
<title>Set Payment Block&#45;&gt;end_node</title>
<path fill="none" stroke="#ff0000" stroke-width="0.5" stroke-dasharray="5,2" d="M422.16,-94.63C393.4,-78.43 350.87,-54.47 323.05,-38.8"/>
<polygon fill="#ff0000" stroke="#ff0000" stroke-width="0.5" points="324.96,-35.86 314.53,-34 321.52,-41.96 324.96,-35.86"/>
<text text-anchor="middle" x="391.5" y="-65.8" font-family="Times,serif" font-size="14.00">1</text>
</g>
<!-- Change Price&#45;&gt;Record Service Entry Sheet -->
<g id="edge53" class="edge">
<title>Change Price&#45;&gt;Record Service Entry Sheet</title>
<path fill="none" stroke="#ff0000" stroke-width="0.5" stroke-dasharray="5,2" d="M92.32,-131.36C100.47,-148.16 111,-174.61 111,-199 111,-549 111,-549 111,-549 111,-574.92 252.11,-601.43 359.09,-617.79"/>
<polygon fill="#ff0000" stroke="#ff0000" stroke-width="0.5" points="358.5,-621.24 368.91,-619.28 359.55,-614.32 358.5,-621.24"/>
<text text-anchor="middle" x="114.5" y="-370.3" font-family="Times,serif" font-size="14.00">2</text>
</g>
</g>
</svg>
