<?xml version="1.0" encoding="UTF-8" standalone="no"?>
<!DOCTYPE svg PUBLIC "-//W3C//DTD SVG 1.1//EN"
 "http://www.w3.org/Graphics/SVG/1.1/DTD/svg11.dtd">
<!-- Generated by graphviz version 7.0.5 (0)
 -->
<!-- Title: dfg Pages: 1 -->
<svg width="585pt" height="769pt"
 viewBox="0.00 0.00 585.00 769.00" xmlns="http://www.w3.org/2000/svg" xmlns:xlink="http://www.w3.org/1999/xlink">
<g id="graph0" class="graph" transform="scale(1 1) rotate(0) translate(4 765)">
<title>dfg</title>
<polygon fill="white" stroke="none" points="-4,4 -4,-765 581,-765 581,4 -4,4"/>
<!-- start_node -->
<g id="node1" class="node">
<title>start_node</title>
<ellipse fill="none" stroke="black" cx="301.5" cy="-743" rx="18" ry="18"/>
<text text-anchor="start" x="297" y="-739.3" font-family="Times,serif" font-size="14.00">●</text>
</g>
<!-- Create Purchase Order Item -->
<g id="node2" class="node">
<title>Create Purchase Order Item</title>
<polygon fill="#9b9bff" stroke="black" points="409,-587 194,-587 194,-551 409,-551 409,-587"/>
<text text-anchor="middle" x="301.5" y="-565.3" font-family="Times,serif" font-size="14.00">Create Purchase Order Item (57089)</text>
</g>
<!-- start_node&#45;&gt;Create Purchase Order Item -->
<g id="edge1" class="edge">
<title>start_node&#45;&gt;Create Purchase Order Item</title>
<path fill="none" stroke="#000000" stroke-width="6.74" d="M299.23,-724.71C297.54,-710.99 295.39,-691.3 294.5,-674 293.68,-658.02 293.68,-653.98 294.5,-638 295.08,-626.78 296.18,-614.56 297.35,-603.61"/>
<polygon fill="#000000" stroke="#000000" stroke-width="6.74" points="303.19,-604.49 298.47,-593.88 291.47,-603.14 303.19,-604.49"/>
<text text-anchor="middle" x="311.5" y="-652.3" font-family="Times,serif" font-size="14.00">48000</text>
</g>
<!-- Create Purchase Requisition Item -->
<g id="node3" class="node">
<title>Create Purchase Requisition Item</title>
<polygon fill="#f0f0ff" stroke="black" points="577,-674 338,-674 338,-638 577,-638 577,-674"/>
<text text-anchor="middle" x="457.5" y="-652.3" font-family="Times,serif" font-size="14.00">Create Purchase Requisition Item (9089)</text>
</g>
<!-- start_node&#45;&gt;Create Purchase Requisition Item -->
<g id="edge2" class="edge">
<title>start_node&#45;&gt;Create Purchase Requisition Item</title>
<path fill="none" stroke="#000000" stroke-width="1.56" d="M317.03,-733.54C339.67,-721.2 382.58,-697.82 415.04,-680.13"/>
<polygon fill="#000000" stroke="#000000" stroke-width="1.56" points="416.42,-683.37 423.53,-675.51 413.07,-677.22 416.42,-683.37"/>
<text text-anchor="middle" x="402.5" y="-695.8" font-family="Times,serif" font-size="14.00">9089</text>
</g>
<!-- Vendor creates invoice -->
<g id="node4" class="node">
<title>Vendor creates invoice</title>
<polygon fill="#a0a0ff" stroke="black" points="265,-500 78,-500 78,-464 265,-464 265,-500"/>
<text text-anchor="middle" x="171.5" y="-478.3" font-family="Times,serif" font-size="14.00">Vendor creates invoice (53792)</text>
</g>
<!-- Create Purchase Order Item&#45;&gt;Vendor creates invoice -->
<g id="edge3" class="edge">
<title>Create Purchase Order Item&#45;&gt;Vendor creates invoice</title>
<path fill="none" stroke="#000000" stroke-width="6" d="M274.88,-550.59C256.65,-538.68 232.15,-522.66 211.58,-509.2"/>
<polygon fill="#000000" stroke="#000000" stroke-width="6" points="214.73,-504.99 203.49,-503.91 208.98,-513.78 214.73,-504.99"/>
<text text-anchor="middle" x="261.5" y="-521.8" font-family="Times,serif" font-size="14.00">42429</text>
</g>
<!-- Record Goods Receipt -->
<g id="node5" class="node">
<title>Record Goods Receipt</title>
<polygon fill="#9c9cff" stroke="black" points="327.5,-392 141.5,-392 141.5,-356 327.5,-356 327.5,-392"/>
<text text-anchor="middle" x="234.5" y="-370.3" font-family="Times,serif" font-size="14.00">Record Goods Receipt (55974)</text>
</g>
<!-- Create Purchase Order Item&#45;&gt;Record Goods Receipt -->
<g id="edge7" class="edge">
<title>Create Purchase Order Item&#45;&gt;Record Goods Receipt</title>
<path fill="none" stroke="#000000" stroke-width="2.15" d="M300.38,-550.92C297.84,-520.88 289.79,-457.3 265.5,-410 264.17,-407.42 262.61,-404.88 260.91,-402.41"/>
<polygon fill="#000000" stroke="#000000" stroke-width="2.15" points="263.81,-400.43 254.84,-394.78 258.33,-404.78 263.81,-400.43"/>
<text text-anchor="middle" x="310.5" y="-478.3" font-family="Times,serif" font-size="14.00">13545</text>
</g>
<!-- Delete Purchase Order Item -->
<g id="node9" class="node">
<title>Delete Purchase Order Item</title>
<polygon fill="#ffffff" stroke="black" points="526,-446 317,-446 317,-410 526,-410 526,-446"/>
<text text-anchor="middle" x="421.5" y="-424.3" font-family="Times,serif" font-size="14.00">Delete Purchase Order Item (1115)</text>
</g>
<!-- Create Purchase Order Item&#45;&gt;Delete Purchase Order Item -->
<g id="edge15" class="edge">
<title>Create Purchase Order Item&#45;&gt;Delete Purchase Order Item</title>
<path fill="none" stroke="#ff0000" stroke-width="0.5" stroke-dasharray="5,2" d="M316.46,-550.68C337.41,-526.41 375.63,-482.13 399.74,-454.21"/>
<polygon fill="#ff0000" stroke="#ff0000" stroke-width="0.5" points="402.35,-456.53 406.24,-446.68 397.05,-451.96 402.35,-456.53"/>
<text text-anchor="middle" x="358.5" y="-521.8" font-family="Times,serif" font-size="14.00">1115</text>
</g>
<!-- Create Purchase Requisition Item&#45;&gt;Create Purchase Order Item -->
<g id="edge10" class="edge">
<title>Create Purchase Requisition Item&#45;&gt;Create Purchase Order Item</title>
<path fill="none" stroke="#000000" stroke-width="1.56" d="M425.55,-637.59C402,-624.76 369.71,-607.17 343.98,-593.15"/>
<polygon fill="#000000" stroke="#000000" stroke-width="1.56" points="345.93,-590.22 335.48,-588.51 342.58,-596.37 345.93,-590.22"/>
<text text-anchor="middle" x="402.5" y="-608.8" font-family="Times,serif" font-size="14.00">9089</text>
</g>
<!-- Vendor creates invoice&#45;&gt;Record Goods Receipt -->
<g id="edge4" class="edge">
<title>Vendor creates invoice&#45;&gt;Record Goods Receipt</title>
<path fill="none" stroke="#000000" stroke-width="5.56" d="M195.63,-463.6C201.46,-458.47 207.24,-452.47 211.5,-446 218.95,-434.69 224.15,-420.79 227.7,-408.29"/>
<polygon fill="#000000" stroke="#000000" stroke-width="5.56" points="232.4,-409.53 230.05,-398.66 222.94,-407.22 232.4,-409.53"/>
<text text-anchor="middle" x="244.5" y="-424.3" font-family="Times,serif" font-size="14.00">39158</text>
</g>
<!-- Record Invoice Receipt -->
<g id="node6" class="node">
<title>Record Invoice Receipt</title>
<polygon fill="#a0a0ff" stroke="black" points="191,-305 0,-305 0,-269 191,-269 191,-305"/>
<text text-anchor="middle" x="95.5" y="-283.3" font-family="Times,serif" font-size="14.00">Record Invoice Receipt (53792)</text>
</g>
<!-- Vendor creates invoice&#45;&gt;Record Invoice Receipt -->
<g id="edge9" class="edge">
<title>Vendor creates invoice&#45;&gt;Record Invoice Receipt</title>
<path fill="none" stroke="#000000" stroke-width="2.3" d="M151.1,-463.6C133.51,-447.18 109.28,-420.83 98.5,-392 89.71,-368.49 89.58,-339.87 91.29,-318.61"/>
<polygon fill="#000000" stroke="#000000" stroke-width="2.3" points="94.77,-318.99 92.33,-308.68 87.81,-318.26 94.77,-318.99"/>
<text text-anchor="middle" x="115.5" y="-370.3" font-family="Times,serif" font-size="14.00">14634</text>
</g>
<!-- Record Goods Receipt&#45;&gt;Vendor creates invoice -->
<g id="edge8" class="edge">
<title>Record Goods Receipt&#45;&gt;Vendor creates invoice</title>
<path fill="none" stroke="#000000" stroke-width="1.86" d="M191.02,-392.38C184.06,-397.07 177.76,-402.87 173.5,-410 166.24,-422.14 165.08,-437.67 166.02,-451.1"/>
<polygon fill="#000000" stroke="#000000" stroke-width="1.86" points="162.52,-451.31 167.18,-460.83 169.47,-450.49 162.52,-451.31"/>
<text text-anchor="middle" x="190.5" y="-424.3" font-family="Times,serif" font-size="14.00">11363</text>
</g>
<!-- Record Goods Receipt&#45;&gt;Record Invoice Receipt -->
<g id="edge5" class="edge">
<title>Record Goods Receipt&#45;&gt;Record Invoice Receipt</title>
<path fill="none" stroke="#000000" stroke-width="5.56" d="M208.74,-355.7C193.9,-345.88 174.81,-333.49 157.5,-323 152.33,-319.87 146.88,-316.66 141.44,-313.51"/>
<polygon fill="#000000" stroke="#000000" stroke-width="5.56" points="143.88,-309.3 132.78,-308.58 139.06,-317.76 143.88,-309.3"/>
<text text-anchor="middle" x="198.5" y="-326.8" font-family="Times,serif" font-size="14.00">39158</text>
</g>
<!-- Remove Payment Block -->
<g id="node8" class="node">
<title>Remove Payment Block</title>
<polygon fill="#f1f1ff" stroke="black" points="329.5,-218 139.5,-218 139.5,-182 329.5,-182 329.5,-218"/>
<text text-anchor="middle" x="234.5" y="-196.3" font-family="Times,serif" font-size="14.00">Remove Payment Block (8877)</text>
</g>
<!-- Record Goods Receipt&#45;&gt;Remove Payment Block -->
<g id="edge14" class="edge">
<title>Record Goods Receipt&#45;&gt;Remove Payment Block</title>
<path fill="none" stroke="#000000" stroke-width="0.79" d="M234.5,-355.56C234.5,-325.94 234.5,-265.54 234.5,-229.64"/>
<polygon fill="#000000" stroke="#000000" stroke-width="0.79" points="238,-229.68 234.5,-219.68 231,-229.68 238,-229.68"/>
<text text-anchor="middle" x="248.5" y="-283.3" font-family="Times,serif" font-size="14.00">3271</text>
</g>
<!-- end_node -->
<g id="node10" class="node">
<title>end_node</title>
<ellipse fill="none" stroke="black" cx="332.5" cy="-22" rx="18" ry="18"/>
<ellipse fill="none" stroke="black" cx="332.5" cy="-22" rx="22" ry="22"/>
<text text-anchor="start" x="328" y="-18.3" font-family="Times,serif" font-size="14.00">■</text>
</g>
<!-- Record Goods Receipt&#45;&gt;end_node -->
<g id="edge17" class="edge">
<title>Record Goods Receipt&#45;&gt;end_node</title>
<path fill="none" stroke="#000000" stroke-width="0.64" d="M302.3,-355.63C334.27,-342.95 365.5,-321.89 365.5,-288 365.5,-288 365.5,-288 365.5,-112 365.5,-90.51 356.94,-67.82 348.53,-50.73"/>
<polygon fill="#000000" stroke="#000000" stroke-width="0.64" points="351.83,-49.49 344.12,-42.23 345.62,-52.71 351.83,-49.49"/>
<text text-anchor="middle" x="379.5" y="-196.3" font-family="Times,serif" font-size="14.00">2182</text>
</g>
<!-- Record Invoice Receipt&#45;&gt;Record Goods Receipt -->
<g id="edge13" class="edge">
<title>Record Invoice Receipt&#45;&gt;Record Goods Receipt</title>
<path fill="none" stroke="#000000" stroke-width="0.79" d="M101.99,-305.02C106.92,-315.87 114.71,-329.44 125.5,-338 131.76,-342.97 138.75,-347.24 146.07,-350.91"/>
<polygon fill="#000000" stroke="#000000" stroke-width="0.79" points="144.61,-354.08 155.16,-355.05 147.51,-347.72 144.61,-354.08"/>
<text text-anchor="middle" x="139.5" y="-326.8" font-family="Times,serif" font-size="14.00">3271</text>
</g>
<!-- Clear Invoice -->
<g id="node7" class="node">
<title>Clear Invoice</title>
<polygon fill="#a6a6ff" stroke="black" points="303,-131 166,-131 166,-95 303,-95 303,-131"/>
<text text-anchor="middle" x="234.5" y="-109.3" font-family="Times,serif" font-size="14.00">Clear Invoice (50822)</text>
</g>
<!-- Record Invoice Receipt&#45;&gt;Clear Invoice -->
<g id="edge6" class="edge">
<title>Record Invoice Receipt&#45;&gt;Clear Invoice</title>
<path fill="none" stroke="#000000" stroke-width="5.94" d="M90.5,-268.63C85.26,-246.64 79.87,-208.44 96.5,-182 109.09,-161.98 129.49,-147.67 150.78,-137.52"/>
<polygon fill="#000000" stroke="#000000" stroke-width="5.94" points="152.54,-142.41 159.67,-133.68 148.43,-132.88 152.54,-142.41"/>
<text text-anchor="middle" x="113.5" y="-196.3" font-family="Times,serif" font-size="14.00">41945</text>
</g>
<!-- Record Invoice Receipt&#45;&gt;Remove Payment Block -->
<g id="edge11" class="edge">
<title>Record Invoice Receipt&#45;&gt;Remove Payment Block</title>
<path fill="none" stroke="#000000" stroke-width="1.1" d="M123.96,-268.59C144.86,-255.82 173.46,-238.32 196.34,-224.34"/>
<polygon fill="#000000" stroke="#000000" stroke-width="1.1" points="197.95,-227.45 204.66,-219.25 194.3,-221.48 197.95,-227.45"/>
<text text-anchor="middle" x="187.5" y="-239.8" font-family="Times,serif" font-size="14.00">5606</text>
</g>
<!-- Record Invoice Receipt&#45;&gt;end_node -->
<g id="edge18" class="edge">
<title>Record Invoice Receipt&#45;&gt;end_node</title>
<path fill="none" stroke="#000000" stroke-width="0.75" d="M87.82,-268.87C76.89,-241.78 60.31,-188.12 80.5,-149 123.2,-66.28 241.68,-36.92 299.67,-27.29"/>
<polygon fill="#000000" stroke="#000000" stroke-width="0.75" points="299.96,-30.79 309.31,-25.79 298.89,-23.87 299.96,-30.79"/>
<text text-anchor="middle" x="94.5" y="-152.8" font-family="Times,serif" font-size="14.00">2970</text>
</g>
<!-- Clear Invoice&#45;&gt;end_node -->
<g id="edge16" class="edge">
<title>Clear Invoice&#45;&gt;end_node</title>
<path fill="none" stroke="#000000" stroke-width="7.12" d="M253.4,-94.84C267.88,-81.69 288.09,-63.33 304.46,-48.47"/>
<polygon fill="#000000" stroke="#000000" stroke-width="7.12" points="308.38,-53.32 311.59,-41.99 300,-44.1 308.38,-53.32"/>
<text text-anchor="middle" x="306.5" y="-65.8" font-family="Times,serif" font-size="14.00">50822</text>
</g>
<!-- Remove Payment Block&#45;&gt;Clear Invoice -->
<g id="edge12" class="edge">
<title>Remove Payment Block&#45;&gt;Clear Invoice</title>
<path fill="none" stroke="#000000" stroke-width="1.53" d="M234.5,-181.8C234.5,-170.81 234.5,-156.28 234.5,-143.48"/>
<polygon fill="#000000" stroke="#000000" stroke-width="1.53" points="238,-143.79 234.5,-133.79 231,-143.79 238,-143.79"/>
<text text-anchor="middle" x="248.5" y="-152.8" font-family="Times,serif" font-size="14.00">8877</text>
</g>
<!-- Delete Purchase Order Item&#45;&gt;end_node -->
<g id="edge19" class="edge">
<title>Delete Purchase Order Item&#45;&gt;end_node</title>
<path fill="none" stroke="#ff0000" stroke-width="0.5" stroke-dasharray="5,2" d="M421.5,-409.75C421.5,-390.62 421.5,-358.86 421.5,-331.5 421.5,-331.5 421.5,-331.5 421.5,-112 421.5,-77.51 387.67,-51.72 361.72,-37.01"/>
<polygon fill="#ff0000" stroke="#ff0000" stroke-width="0.5" points="363.38,-33.93 352.92,-32.28 360.07,-40.09 363.38,-33.93"/>
<text text-anchor="middle" x="435.5" y="-239.8" font-family="Times,serif" font-size="14.00">1115</text>
</g>
</g>
</svg>
