<?xml version="1.0" encoding="UTF-8" standalone="no"?>
<!DOCTYPE svg PUBLIC "-//W3C//DTD SVG 1.1//EN"
 "http://www.w3.org/Graphics/SVG/1.1/DTD/svg11.dtd">
<!-- Generated by graphviz version 7.0.5 (0)
 -->
<!-- Title: dfg Pages: 1 -->
<svg width="632pt" height="856pt"
 viewBox="0.00 0.00 631.50 856.00" xmlns="http://www.w3.org/2000/svg" xmlns:xlink="http://www.w3.org/1999/xlink">
<g id="graph0" class="graph" transform="scale(1 1) rotate(0) translate(4 852)">
<title>dfg</title>
<polygon fill="white" stroke="none" points="-4,4 -4,-852 627.5,-852 627.5,4 -4,4"/>
<!-- start_node -->
<g id="node1" class="node">
<title>start_node</title>
<ellipse fill="none" stroke="black" cx="271" cy="-830" rx="18" ry="18"/>
<text text-anchor="start" x="266.5" y="-826.3" font-family="Times,serif" font-size="14.00">●</text>
</g>
<!-- Create Purchase Order Item -->
<g id="node2" class="node">
<title>Create Purchase Order Item</title>
<polygon fill="#9b9bff" stroke="black" points="372,-674 170,-674 170,-638 372,-638 372,-674"/>
<text text-anchor="middle" x="271" y="-652.3" font-family="Times,serif" font-size="14.00">Create Purchase Order Item (484)</text>
</g>
<!-- start_node&#45;&gt;Create Purchase Order Item -->
<g id="edge1" class="edge">
<title>start_node&#45;&gt;Create Purchase Order Item</title>
<path fill="none" stroke="#000000" stroke-width="11.37" d="M268.73,-811.71C267.04,-797.99 264.89,-778.3 264,-761 263.18,-745.02 263.18,-740.98 264,-725 264.55,-714.32 265.58,-702.73 266.68,-692.2"/>
<polygon fill="#000000" stroke="#000000" stroke-width="11.37" points="276.56,-693.36 267.81,-682.3 256.79,-691.11 276.56,-693.36"/>
<text text-anchor="middle" x="274.5" y="-739.3" font-family="Times,serif" font-size="14.00">425</text>
</g>
<!-- Create Purchase Requisition Item -->
<g id="node3" class="node">
<title>Create Purchase Requisition Item</title>
<polygon fill="#f5f5ff" stroke="black" points="520,-761 294,-761 294,-725 520,-725 520,-761"/>
<text text-anchor="middle" x="407" y="-739.3" font-family="Times,serif" font-size="14.00">Create Purchase Requisition Item (59)</text>
</g>
<!-- start_node&#45;&gt;Create Purchase Requisition Item -->
<g id="edge2" class="edge">
<title>start_node&#45;&gt;Create Purchase Requisition Item</title>
<path fill="none" stroke="#000000" stroke-width="1.74" d="M286.07,-819.58C305.86,-807.22 341.28,-785.08 368.69,-767.95"/>
<polygon fill="#000000" stroke="#000000" stroke-width="1.74" points="370.27,-771.08 376.9,-762.82 366.56,-765.15 370.27,-771.08"/>
<text text-anchor="middle" x="354" y="-782.8" font-family="Times,serif" font-size="14.00">59</text>
</g>
<!-- Vendor creates invoice -->
<g id="node4" class="node">
<title>Vendor creates invoice</title>
<polygon fill="#b6b6ff" stroke="black" points="266.5,-479 93.5,-479 93.5,-443 266.5,-443 266.5,-479"/>
<text text-anchor="middle" x="180" y="-457.3" font-family="Times,serif" font-size="14.00">Vendor creates invoice (355)</text>
</g>
<!-- Create Purchase Order Item&#45;&gt;Vendor creates invoice -->
<g id="edge3" class="edge">
<title>Create Purchase Order Item&#45;&gt;Vendor creates invoice</title>
<path fill="none" stroke="#000000" stroke-width="5.37" d="M173.5,-637.66C145.41,-627.65 117.84,-611.87 101,-587 78.65,-553.98 112.49,-515.02 142.58,-489.48"/>
<polygon fill="#000000" stroke="#000000" stroke-width="5.37" points="145.31,-493.3 150.15,-483.37 139.42,-485.99 145.31,-493.3"/>
<text text-anchor="middle" x="111.5" y="-565.3" font-family="Times,serif" font-size="14.00">197</text>
</g>
<!-- Record Goods Receipt -->
<g id="node5" class="node">
<title>Record Goods Receipt</title>
<polygon fill="#b6b6ff" stroke="black" points="392.5,-392 219.5,-392 219.5,-356 392.5,-356 392.5,-392"/>
<text text-anchor="middle" x="306" y="-370.3" font-family="Times,serif" font-size="14.00">Record Goods Receipt (355)</text>
</g>
<!-- Create Purchase Order Item&#45;&gt;Record Goods Receipt -->
<g id="edge8" class="edge">
<title>Create Purchase Order Item&#45;&gt;Record Goods Receipt</title>
<path fill="none" stroke="#000000" stroke-width="1.95" d="M273.14,-637.91C278.92,-591.63 294.94,-463.46 302.26,-404.89"/>
<polygon fill="#000000" stroke="#000000" stroke-width="1.95" points="305.71,-405.51 303.48,-395.15 298.77,-404.64 305.71,-405.51"/>
<text text-anchor="middle" x="298" y="-511.3" font-family="Times,serif" font-size="14.00">67</text>
</g>
<!-- Delete Purchase Order Item -->
<g id="node8" class="node">
<title>Delete Purchase Order Item</title>
<polygon fill="#f1f1ff" stroke="black" points="623.5,-533 428.5,-533 428.5,-497 623.5,-497 623.5,-533"/>
<text text-anchor="middle" x="526" y="-511.3" font-family="Times,serif" font-size="14.00">Delete Purchase Order Item (78)</text>
</g>
<!-- Create Purchase Order Item&#45;&gt;Delete Purchase Order Item -->
<g id="edge7" class="edge">
<title>Create Purchase Order Item&#45;&gt;Delete Purchase Order Item</title>
<path fill="none" stroke="#000000" stroke-width="2.24" d="M335.66,-637.57C350.25,-632.68 365.43,-626.8 379,-620 422.37,-598.27 467.17,-564.67 495.74,-541.57"/>
<polygon fill="#000000" stroke="#000000" stroke-width="2.24" points="497.72,-544.48 503.23,-535.43 493.28,-539.06 497.72,-544.48"/>
<text text-anchor="middle" x="410" y="-608.8" font-family="Times,serif" font-size="14.00">78</text>
</g>
<!-- Change Quantity -->
<g id="node10" class="node">
<title>Change Quantity</title>
<polygon fill="#fcfcff" stroke="black" points="266.5,-587 131.5,-587 131.5,-551 266.5,-551 266.5,-587"/>
<text text-anchor="middle" x="199" y="-565.3" font-family="Times,serif" font-size="14.00">Change Quantity (24)</text>
</g>
<!-- Create Purchase Order Item&#45;&gt;Change Quantity -->
<g id="edge13" class="edge">
<title>Create Purchase Order Item&#45;&gt;Change Quantity</title>
<path fill="none" stroke="#000000" stroke-width="0.82" d="M256.43,-637.8C246.25,-625.78 232.48,-609.52 220.97,-595.94"/>
<polygon fill="#000000" stroke="#000000" stroke-width="0.82" points="223.73,-593.78 214.59,-588.41 218.39,-598.3 223.73,-593.78"/>
<text text-anchor="middle" x="247" y="-608.8" font-family="Times,serif" font-size="14.00">24</text>
</g>
<!-- Receive Order Confirmation -->
<g id="node11" class="node">
<title>Receive Order Confirmation</title>
<polygon fill="#f1f1ff" stroke="black" points="522.5,-479 323.5,-479 323.5,-443 522.5,-443 522.5,-479"/>
<text text-anchor="middle" x="423" y="-457.3" font-family="Times,serif" font-size="14.00">Receive Order Confirmation (77)</text>
</g>
<!-- Create Purchase Order Item&#45;&gt;Receive Order Confirmation -->
<g id="edge15" class="edge">
<title>Create Purchase Order Item&#45;&gt;Receive Order Confirmation</title>
<path fill="none" stroke="#000000" stroke-width="2.21" d="M291.45,-637.55C297.36,-632.16 303.64,-626.04 309,-620 346.59,-577.64 383.78,-523.1 405.01,-490.43"/>
<polygon fill="#000000" stroke="#000000" stroke-width="2.21" points="407.79,-492.57 410.26,-482.27 401.91,-488.78 407.79,-492.57"/>
<text text-anchor="middle" x="369" y="-565.3" font-family="Times,serif" font-size="14.00">77</text>
</g>
<!-- end_node -->
<g id="node13" class="node">
<title>end_node</title>
<ellipse fill="none" stroke="black" cx="297" cy="-22" rx="18" ry="18"/>
<ellipse fill="none" stroke="black" cx="297" cy="-22" rx="22" ry="22"/>
<text text-anchor="start" x="292.5" y="-18.3" font-family="Times,serif" font-size="14.00">■</text>
</g>
<!-- Create Purchase Order Item&#45;&gt;end_node -->
<g id="edge23" class="edge">
<title>Create Purchase Order Item&#45;&gt;end_node</title>
<path fill="none" stroke="#000000" stroke-width="1.26" d="M169.7,-642.31C92.73,-629.73 0,-606.92 0,-570 0,-570 0,-570 0,-112 0,-57.46 186.13,-33.5 263.69,-25.88"/>
<polygon fill="#000000" stroke="#000000" stroke-width="1.26" points="263.63,-29.4 273.26,-24.97 262.97,-22.43 263.63,-29.4"/>
<text text-anchor="middle" x="7" y="-326.8" font-family="Times,serif" font-size="14.00">41</text>
</g>
<!-- Create Purchase Requisition Item&#45;&gt;Create Purchase Order Item -->
<g id="edge17" class="edge">
<title>Create Purchase Requisition Item&#45;&gt;Create Purchase Order Item</title>
<path fill="none" stroke="#000000" stroke-width="1.74" d="M379.15,-724.59C358.98,-711.99 331.47,-694.79 309.24,-680.9"/>
<polygon fill="#000000" stroke="#000000" stroke-width="1.74" points="311.38,-678.11 301.04,-675.78 307.67,-684.04 311.38,-678.11"/>
<text text-anchor="middle" x="354" y="-695.8" font-family="Times,serif" font-size="14.00">59</text>
</g>
<!-- Vendor creates invoice&#45;&gt;Record Goods Receipt -->
<g id="edge4" class="edge">
<title>Vendor creates invoice&#45;&gt;Record Goods Receipt</title>
<path fill="none" stroke="#000000" stroke-width="6" d="M209.27,-442.62C218.26,-437.12 228.12,-430.93 237,-425 247.86,-417.74 259.44,-409.54 269.95,-401.92"/>
<polygon fill="#000000" stroke="#000000" stroke-width="6" points="272.84,-406.31 277.79,-396.16 266.63,-397.84 272.84,-406.31"/>
<text text-anchor="middle" x="269.5" y="-413.8" font-family="Times,serif" font-size="14.00">221</text>
</g>
<!-- Record Invoice Receipt -->
<g id="node6" class="node">
<title>Record Invoice Receipt</title>
<polygon fill="#b6b6ff" stroke="black" points="269,-305 91,-305 91,-269 269,-269 269,-305"/>
<text text-anchor="middle" x="180" y="-283.3" font-family="Times,serif" font-size="14.00">Record Invoice Receipt (355)</text>
</g>
<!-- Vendor creates invoice&#45;&gt;Record Invoice Receipt -->
<g id="edge10" class="edge">
<title>Vendor creates invoice&#45;&gt;Record Invoice Receipt</title>
<path fill="none" stroke="#000000" stroke-width="3.39" d="M180,-442.56C180,-413.97 180,-356.7 180,-320.47"/>
<polygon fill="#000000" stroke="#000000" stroke-width="3.39" points="183.5,-320.62 180,-310.62 176.5,-320.62 183.5,-320.62"/>
<text text-anchor="middle" x="190.5" y="-370.3" font-family="Times,serif" font-size="14.00">122</text>
</g>
<!-- Change Price -->
<g id="node12" class="node">
<title>Change Price</title>
<polygon fill="#ffffff" stroke="black" points="144,-392 28,-392 28,-356 144,-356 144,-392"/>
<text text-anchor="middle" x="86" y="-370.3" font-family="Times,serif" font-size="14.00">Change Price (12)</text>
</g>
<!-- Vendor creates invoice&#45;&gt;Change Price -->
<g id="edge18" class="edge">
<title>Vendor creates invoice&#45;&gt;Change Price</title>
<path fill="none" stroke="#000000" stroke-width="0.5" d="M160.98,-442.8C147.18,-430.32 128.33,-413.28 112.98,-399.4"/>
<polygon fill="#000000" stroke="#000000" stroke-width="0.5" points="115.64,-397.09 105.88,-392.97 110.95,-402.28 115.64,-397.09"/>
<text text-anchor="middle" x="146" y="-413.8" font-family="Times,serif" font-size="14.00">12</text>
</g>
<!-- Record Goods Receipt&#45;&gt;Vendor creates invoice -->
<g id="edge9" class="edge">
<title>Record Goods Receipt&#45;&gt;Vendor creates invoice</title>
<path fill="none" stroke="#000000" stroke-width="3.71" d="M242.3,-392.29C231.52,-396.96 220.94,-402.78 212,-410 205.45,-415.28 199.82,-422.29 195.2,-429.37"/>
<polygon fill="#000000" stroke="#000000" stroke-width="3.71" points="192.3,-427.38 190.35,-437.8 198.37,-430.87 192.3,-427.38"/>
<text text-anchor="middle" x="222.5" y="-413.8" font-family="Times,serif" font-size="14.00">134</text>
</g>
<!-- Record Goods Receipt&#45;&gt;Record Invoice Receipt -->
<g id="edge5" class="edge">
<title>Record Goods Receipt&#45;&gt;Record Invoice Receipt</title>
<path fill="none" stroke="#000000" stroke-width="6" d="M280.2,-355.59C262.62,-343.73 239.01,-327.81 219.13,-314.4"/>
<polygon fill="#000000" stroke="#000000" stroke-width="6" points="222.34,-310.23 211.12,-308.99 216.47,-318.94 222.34,-310.23"/>
<text text-anchor="middle" x="261.5" y="-326.8" font-family="Times,serif" font-size="14.00">221</text>
</g>
<!-- Clear Invoice -->
<g id="node7" class="node">
<title>Clear Invoice</title>
<polygon fill="#cacaff" stroke="black" points="285.5,-131 162.5,-131 162.5,-95 285.5,-95 285.5,-131"/>
<text text-anchor="middle" x="224" y="-109.3" font-family="Times,serif" font-size="14.00">Clear Invoice (261)</text>
</g>
<!-- Record Invoice Receipt&#45;&gt;Clear Invoice -->
<g id="edge6" class="edge">
<title>Record Invoice Receipt&#45;&gt;Clear Invoice</title>
<path fill="none" stroke="#000000" stroke-width="5.18" d="M179.47,-268.7C179.29,-247.75 180.46,-211.6 189,-182 192.62,-169.46 198.62,-156.52 204.64,-145.34"/>
<polygon fill="#000000" stroke="#000000" stroke-width="5.18" points="208.48,-147.76 209.52,-136.83 200.61,-143.25 208.48,-147.76"/>
<text text-anchor="middle" x="199.5" y="-196.3" font-family="Times,serif" font-size="14.00">190</text>
</g>
<!-- Remove Payment Block -->
<g id="node9" class="node">
<title>Remove Payment Block</title>
<polygon fill="#efefff" stroke="black" points="395,-218 219,-218 219,-182 395,-182 395,-218"/>
<text text-anchor="middle" x="307" y="-196.3" font-family="Times,serif" font-size="14.00">Remove Payment Block (86)</text>
</g>
<!-- Record Invoice Receipt&#45;&gt;Remove Payment Block -->
<g id="edge11" class="edge">
<title>Record Invoice Receipt&#45;&gt;Remove Payment Block</title>
<path fill="none" stroke="#000000" stroke-width="2.45" d="M206.01,-268.59C224.41,-256.27 249.37,-239.57 269.86,-225.85"/>
<polygon fill="#000000" stroke="#000000" stroke-width="2.45" points="271.59,-228.91 277.95,-220.44 267.69,-223.1 271.59,-228.91"/>
<text text-anchor="middle" x="259" y="-239.8" font-family="Times,serif" font-size="14.00">86</text>
</g>
<!-- Record Invoice Receipt&#45;&gt;end_node -->
<g id="edge22" class="edge">
<title>Record Invoice Receipt&#45;&gt;end_node</title>
<path fill="none" stroke="#000000" stroke-width="2.26" d="M170.56,-268.64C152.65,-233.13 118.49,-150.84 153,-95 176.74,-56.59 227.87,-37.98 262.36,-29.48"/>
<polygon fill="#000000" stroke="#000000" stroke-width="2.26" points="262.78,-32.98 271.77,-27.36 261.24,-26.15 262.78,-32.98"/>
<text text-anchor="middle" x="146" y="-152.8" font-family="Times,serif" font-size="14.00">79</text>
</g>
<!-- Clear Invoice&#45;&gt;end_node -->
<g id="edge20" class="edge">
<title>Clear Invoice&#45;&gt;end_node</title>
<path fill="none" stroke="#000000" stroke-width="7.05" d="M238.08,-94.84C248,-82.74 261.53,-66.25 273.12,-52.11"/>
<polygon fill="#000000" stroke="#000000" stroke-width="7.05" points="277.63,-56.34 279.2,-44.7 268.09,-48.52 277.63,-56.34"/>
<text text-anchor="middle" x="275.5" y="-65.8" font-family="Times,serif" font-size="14.00">261</text>
</g>
<!-- Delete Purchase Order Item&#45;&gt;end_node -->
<g id="edge21" class="edge">
<title>Delete Purchase Order Item&#45;&gt;end_node</title>
<path fill="none" stroke="#000000" stroke-width="2.24" d="M533.37,-496.75C540.74,-477.9 551,-446.61 551,-418.5 551,-418.5 551,-418.5 551,-112 551,-66.21 402.11,-38.37 332.32,-27.83"/>
<polygon fill="#000000" stroke="#000000" stroke-width="2.24" points="332.85,-24.37 322.45,-26.39 331.84,-31.3 332.85,-24.37"/>
<text text-anchor="middle" x="558" y="-283.3" font-family="Times,serif" font-size="14.00">78</text>
</g>
<!-- Remove Payment Block&#45;&gt;Clear Invoice -->
<g id="edge12" class="edge">
<title>Remove Payment Block&#45;&gt;Clear Invoice</title>
<path fill="none" stroke="#000000" stroke-width="2.05" d="M290.2,-181.8C278.69,-170.01 263.19,-154.14 250.09,-140.72"/>
<polygon fill="#000000" stroke="#000000" stroke-width="2.05" points="252.72,-138.4 243.23,-133.69 247.71,-143.29 252.72,-138.4"/>
<text text-anchor="middle" x="278" y="-152.8" font-family="Times,serif" font-size="14.00">71</text>
</g>
<!-- Remove Payment Block&#45;&gt;end_node -->
<g id="edge24" class="edge">
<title>Remove Payment Block&#45;&gt;end_node</title>
<path fill="none" stroke="#000000" stroke-width="0.58" d="M306.02,-181.8C304.36,-152.49 300.94,-92.39 298.82,-55.12"/>
<polygon fill="#000000" stroke="#000000" stroke-width="0.58" points="302.32,-55 298.26,-45.22 295.34,-55.4 302.32,-55"/>
<text text-anchor="middle" x="310" y="-109.3" font-family="Times,serif" font-size="14.00">15</text>
</g>
<!-- Change Quantity&#45;&gt;Vendor creates invoice -->
<g id="edge14" class="edge">
<title>Change Quantity&#45;&gt;Vendor creates invoice</title>
<path fill="none" stroke="#000000" stroke-width="0.82" d="M195.95,-550.97C193.01,-534.61 188.53,-509.59 185.06,-490.24"/>
<polygon fill="#000000" stroke="#000000" stroke-width="0.82" points="188.54,-489.78 183.33,-480.56 181.65,-491.02 188.54,-489.78"/>
<text text-anchor="middle" x="200" y="-511.3" font-family="Times,serif" font-size="14.00">24</text>
</g>
<!-- Receive Order Confirmation&#45;&gt;Record Goods Receipt -->
<g id="edge16" class="edge">
<title>Receive Order Confirmation&#45;&gt;Record Goods Receipt</title>
<path fill="none" stroke="#000000" stroke-width="1.95" d="M399.04,-442.59C382.08,-430.27 359.1,-413.57 340.21,-399.85"/>
<polygon fill="#000000" stroke="#000000" stroke-width="1.95" points="342.46,-397.16 332.31,-394.12 338.34,-402.82 342.46,-397.16"/>
<text text-anchor="middle" x="378" y="-413.8" font-family="Times,serif" font-size="14.00">67</text>
</g>
<!-- Receive Order Confirmation&#45;&gt;end_node -->
<g id="edge25" class="edge">
<title>Receive Order Confirmation&#45;&gt;end_node</title>
<path fill="none" stroke="#ff0000" stroke-width="0.45" stroke-dasharray="5,2" d="M423,-442.74C423,-425.57 423,-398.46 423,-375 423,-375 423,-375 423,-112 423,-65.85 365.92,-41.51 328.6,-30.52"/>
<polygon fill="#ff0000" stroke="#ff0000" stroke-width="0.45" points="329.88,-27.25 319.31,-27.95 328.02,-33.99 329.88,-27.25"/>
<text text-anchor="middle" x="430" y="-239.8" font-family="Times,serif" font-size="14.00">10</text>
</g>
<!-- Change Price&#45;&gt;Record Invoice Receipt -->
<g id="edge19" class="edge">
<title>Change Price&#45;&gt;Record Invoice Receipt</title>
<path fill="none" stroke="#000000" stroke-width="0.5" d="M105.02,-355.8C118.82,-343.32 137.67,-326.28 153.02,-312.4"/>
<polygon fill="#000000" stroke="#000000" stroke-width="0.5" points="155.05,-315.28 160.12,-305.97 150.36,-310.09 155.05,-315.28"/>
<text text-anchor="middle" x="146" y="-326.8" font-family="Times,serif" font-size="14.00">12</text>
</g>
</g>
</svg>
