<?xml version="1.0" encoding="UTF-8" standalone="no"?>
<!DOCTYPE svg PUBLIC "-//W3C//DTD SVG 1.1//EN"
 "http://www.w3.org/Graphics/SVG/1.1/DTD/svg11.dtd">
<!-- Generated by graphviz version 7.0.5 (0)
 -->
<!-- Title: dfg Pages: 1 -->
<svg width="798pt" height="1291pt"
 viewBox="0.00 0.00 798.00 1291.00" xmlns="http://www.w3.org/2000/svg" xmlns:xlink="http://www.w3.org/1999/xlink">
<g id="graph0" class="graph" transform="scale(1 1) rotate(0) translate(4 1287)">
<title>dfg</title>
<polygon fill="white" stroke="none" points="-4,4 -4,-1287 794,-1287 794,4 -4,4"/>
<!-- start_node -->
<g id="node1" class="node">
<title>start_node</title>
<ellipse fill="none" stroke="black" cx="139" cy="-1265" rx="18" ry="18"/>
<text text-anchor="start" x="134.5" y="-1261.3" font-family="Times,serif" font-size="14.00">●</text>
</g>
<!-- SRM &#45; Created -->
<g id="node2" class="node">
<title>SRM &#45; Created</title>
<polygon fill="#a7a7ff" stroke="black" points="202,-1196 76,-1196 76,-1160 202,-1160 202,-1196"/>
<text text-anchor="middle" x="139" y="-1174.3" font-family="Times,serif" font-size="14.00">SRM &#45; Created (30)</text>
</g>
<!-- start_node&#45;&gt;SRM &#45; Created -->
<g id="edge1" class="edge">
<title>start_node&#45;&gt;SRM &#45; Created</title>
<path fill="none" stroke="#000000" stroke-width="5.62" d="M139,-1246.8C139,-1236.96 139,-1224.27 139,-1212.53"/>
<polygon fill="#000000" stroke="#000000" stroke-width="5.62" points="143.92,-1212.84 139,-1202.84 134.08,-1212.84 143.92,-1212.84"/>
<text text-anchor="middle" x="146" y="-1217.8" font-family="Times,serif" font-size="14.00">28</text>
</g>
<!-- SRM &#45; Complete -->
<g id="node3" class="node">
<title>SRM &#45; Complete</title>
<polygon fill="#a7a7ff" stroke="black" points="207.5,-1109 70.5,-1109 70.5,-1073 207.5,-1073 207.5,-1109"/>
<text text-anchor="middle" x="139" y="-1087.3" font-family="Times,serif" font-size="14.00">SRM &#45; Complete (30)</text>
</g>
<!-- SRM &#45; Created&#45;&gt;SRM &#45; Complete -->
<g id="edge2" class="edge">
<title>SRM &#45; Created&#45;&gt;SRM &#45; Complete</title>
<path fill="none" stroke="#000000" stroke-width="6" d="M139,-1159.8C139,-1149.96 139,-1137.27 139,-1125.53"/>
<polygon fill="#000000" stroke="#000000" stroke-width="6" points="144.25,-1125.92 139,-1115.92 133.75,-1125.92 144.25,-1125.92"/>
<text text-anchor="middle" x="146" y="-1130.8" font-family="Times,serif" font-size="14.00">30</text>
</g>
<!-- SRM &#45; Awaiting Approval -->
<g id="node4" class="node">
<title>SRM &#45; Awaiting Approval</title>
<polygon fill="#a7a7ff" stroke="black" points="232.5,-1022 45.5,-1022 45.5,-986 232.5,-986 232.5,-1022"/>
<text text-anchor="middle" x="139" y="-1000.3" font-family="Times,serif" font-size="14.00">SRM &#45; Awaiting Approval (30)</text>
</g>
<!-- SRM &#45; Complete&#45;&gt;SRM &#45; Awaiting Approval -->
<g id="edge3" class="edge">
<title>SRM &#45; Complete&#45;&gt;SRM &#45; Awaiting Approval</title>
<path fill="none" stroke="#000000" stroke-width="6" d="M139,-1072.8C139,-1062.96 139,-1050.27 139,-1038.53"/>
<polygon fill="#000000" stroke="#000000" stroke-width="6" points="144.25,-1038.92 139,-1028.92 133.75,-1038.92 144.25,-1038.92"/>
<text text-anchor="middle" x="146" y="-1043.8" font-family="Times,serif" font-size="14.00">30</text>
</g>
<!-- SRM &#45; Document Completed -->
<g id="node5" class="node">
<title>SRM &#45; Document Completed</title>
<polygon fill="#a7a7ff" stroke="black" points="241.5,-935 36.5,-935 36.5,-899 241.5,-899 241.5,-935"/>
<text text-anchor="middle" x="139" y="-913.3" font-family="Times,serif" font-size="14.00">SRM &#45; Document Completed (30)</text>
</g>
<!-- SRM &#45; Awaiting Approval&#45;&gt;SRM &#45; Document Completed -->
<g id="edge4" class="edge">
<title>SRM &#45; Awaiting Approval&#45;&gt;SRM &#45; Document Completed</title>
<path fill="none" stroke="#000000" stroke-width="6" d="M139,-985.8C139,-975.96 139,-963.27 139,-951.53"/>
<polygon fill="#000000" stroke="#000000" stroke-width="6" points="144.25,-951.92 139,-941.92 133.75,-951.92 144.25,-951.92"/>
<text text-anchor="middle" x="146" y="-956.8" font-family="Times,serif" font-size="14.00">30</text>
</g>
<!-- SRM &#45; In Transfer to Execution Syst. -->
<g id="node6" class="node">
<title>SRM &#45; In Transfer to Execution Syst.</title>
<polygon fill="#9b9bff" stroke="black" points="452,-848 204,-848 204,-812 452,-812 452,-848"/>
<text text-anchor="middle" x="328" y="-826.3" font-family="Times,serif" font-size="14.00">SRM &#45; In Transfer to Execution Syst. (34)</text>
</g>
<!-- SRM &#45; Document Completed&#45;&gt;SRM &#45; In Transfer to Execution Syst. -->
<g id="edge5" class="edge">
<title>SRM &#45; Document Completed&#45;&gt;SRM &#45; In Transfer to Execution Syst.</title>
<path fill="none" stroke="#000000" stroke-width="4.48" d="M177.7,-898.59C205.73,-885.99 243.96,-868.79 274.85,-854.9"/>
<polygon fill="#000000" stroke="#000000" stroke-width="4.48" points="276.24,-858.58 283.75,-850.9 273.02,-851.42 276.24,-858.58"/>
<text text-anchor="middle" x="251" y="-869.8" font-family="Times,serif" font-size="14.00">22</text>
</g>
<!-- SRM &#45; Ordered -->
<g id="node7" class="node">
<title>SRM &#45; Ordered</title>
<polygon fill="#a7a7ff" stroke="black" points="308,-761 180,-761 180,-725 308,-725 308,-761"/>
<text text-anchor="middle" x="244" y="-739.3" font-family="Times,serif" font-size="14.00">SRM &#45; Ordered (30)</text>
</g>
<!-- SRM &#45; Document Completed&#45;&gt;SRM &#45; Ordered -->
<g id="edge14" class="edge">
<title>SRM &#45; Document Completed&#45;&gt;SRM &#45; Ordered</title>
<path fill="none" stroke="#000000" stroke-width="1.64" d="M145.58,-898.75C154.01,-877.55 169.74,-840.83 188,-812 197.23,-797.42 209.21,-782.48 219.71,-770.34"/>
<polygon fill="#000000" stroke="#000000" stroke-width="1.64" points="222.1,-772.92 226.1,-763.11 216.85,-768.28 222.1,-772.92"/>
<text text-anchor="middle" x="191.5" y="-826.3" font-family="Times,serif" font-size="14.00">7</text>
</g>
<!-- Create Purchase Order Item -->
<g id="node9" class="node">
<title>Create Purchase Order Item</title>
<polygon fill="#adadff" stroke="black" points="249.5,-566 54.5,-566 54.5,-530 249.5,-530 249.5,-566"/>
<text text-anchor="middle" x="152" y="-544.3" font-family="Times,serif" font-size="14.00">Create Purchase Order Item (28)</text>
</g>
<!-- SRM &#45; Document Completed&#45;&gt;Create Purchase Order Item -->
<g id="edge42" class="edge">
<title>SRM &#45; Document Completed&#45;&gt;Create Purchase Order Item</title>
<path fill="none" stroke="#ff0000" stroke-width="0.5" stroke-dasharray="5,2" d="M115.54,-898.52C97.63,-883 76,-858.55 76,-831 76,-831 76,-831 76,-634 76,-608.77 94.84,-587.59 113.77,-572.68"/>
<polygon fill="#ff0000" stroke="#ff0000" stroke-width="0.5" points="115.84,-575.5 121.79,-566.73 111.67,-569.87 115.84,-575.5"/>
<text text-anchor="middle" x="79.5" y="-739.3" font-family="Times,serif" font-size="14.00">1</text>
</g>
<!-- SRM &#45; In Transfer to Execution Syst.&#45;&gt;SRM &#45; Ordered -->
<g id="edge6" class="edge">
<title>SRM &#45; In Transfer to Execution Syst.&#45;&gt;SRM &#45; Ordered</title>
<path fill="none" stroke="#000000" stroke-width="4.67" d="M296.84,-811.64C289.19,-806.55 281.38,-800.56 275,-794 269.65,-788.49 264.77,-781.91 260.54,-775.36"/>
<polygon fill="#000000" stroke="#000000" stroke-width="4.67" points="264.12,-773.38 255.54,-766.82 257.07,-777.51 264.12,-773.38"/>
<text text-anchor="middle" x="282" y="-782.8" font-family="Times,serif" font-size="14.00">23</text>
</g>
<!-- SRM &#45; Change was Transmitted -->
<g id="node8" class="node">
<title>SRM &#45; Change was Transmitted</title>
<polygon fill="#adadff" stroke="black" points="442.5,-653 223.5,-653 223.5,-617 442.5,-617 442.5,-653"/>
<text text-anchor="middle" x="333" y="-631.3" font-family="Times,serif" font-size="14.00">SRM &#45; Change was Transmitted (28)</text>
</g>
<!-- SRM &#45; In Transfer to Execution Syst.&#45;&gt;SRM &#45; Change was Transmitted -->
<g id="edge16" class="edge">
<title>SRM &#45; In Transfer to Execution Syst.&#45;&gt;SRM &#45; Change was Transmitted</title>
<path fill="none" stroke="#000000" stroke-width="1.07" d="M346.96,-811.74C351.44,-806.52 355.61,-800.46 358,-794 376.97,-742.73 374.68,-723.06 358,-671 357.12,-668.26 355.94,-665.56 354.57,-662.93"/>
<polygon fill="#000000" stroke="#000000" stroke-width="1.07" points="357.71,-661.34 349.44,-654.72 351.77,-665.06 357.71,-661.34"/>
<text text-anchor="middle" x="374.5" y="-739.3" font-family="Times,serif" font-size="14.00">4</text>
</g>
<!-- SRM &#45; In Transfer to Execution Syst.&#45;&gt;Create Purchase Order Item -->
<g id="edge21" class="edge">
<title>SRM &#45; In Transfer to Execution Syst.&#45;&gt;Create Purchase Order Item</title>
<path fill="none" stroke="#000000" stroke-width="0.88" d="M216.93,-811.55C184.45,-805.58 155.98,-799.12 150,-794 87.69,-740.65 120.39,-628.64 140.32,-576.63"/>
<polygon fill="#000000" stroke="#000000" stroke-width="0.88" points="143.53,-578.02 143.97,-567.43 137.03,-575.44 143.53,-578.02"/>
<text text-anchor="middle" x="119.5" y="-685.3" font-family="Times,serif" font-size="14.00">3</text>
</g>
<!-- SRM &#45; Transfer Failed (E.Sys.) -->
<g id="node15" class="node">
<title>SRM &#45; Transfer Failed (E.Sys.)</title>
<polygon fill="#fbfbff" stroke="black" points="768,-707 560,-707 560,-671 768,-671 768,-707"/>
<text text-anchor="middle" x="664" y="-685.3" font-family="Times,serif" font-size="14.00">SRM &#45; Transfer Failed (E.Sys.) (2)</text>
</g>
<!-- SRM &#45; In Transfer to Execution Syst.&#45;&gt;SRM &#45; Transfer Failed (E.Sys.) -->
<g id="edge24" class="edge">
<title>SRM &#45; In Transfer to Execution Syst.&#45;&gt;SRM &#45; Transfer Failed (E.Sys.)</title>
<path fill="none" stroke="#ff0000" stroke-width="0.69" stroke-dasharray="5,2" d="M436.07,-811.56C455.37,-806.91 475.04,-801.13 493,-794 545.11,-773.33 599.45,-737.41 632.52,-713.67"/>
<polygon fill="#ff0000" stroke="#ff0000" stroke-width="0.69" points="634.38,-716.64 640.42,-707.93 630.27,-710.97 634.38,-716.64"/>
<text text-anchor="middle" x="527.5" y="-782.8" font-family="Times,serif" font-size="14.00">2</text>
</g>
<!-- end_node -->
<g id="node18" class="node">
<title>end_node</title>
<ellipse fill="none" stroke="black" cx="523" cy="-22" rx="18" ry="18"/>
<ellipse fill="none" stroke="black" cx="523" cy="-22" rx="22" ry="22"/>
<text text-anchor="start" x="518.5" y="-18.3" font-family="Times,serif" font-size="14.00">■</text>
</g>
<!-- SRM &#45; In Transfer to Execution Syst.&#45;&gt;end_node -->
<g id="edge47" class="edge">
<title>SRM &#45; In Transfer to Execution Syst.&#45;&gt;end_node</title>
<path fill="none" stroke="#ff0000" stroke-width="0.69" stroke-dasharray="5,2" d="M452.33,-817.74C587.05,-803.81 783,-777.75 783,-744 783,-744 783,-744 783,-112 783,-64.55 626.01,-37.1 556.01,-27.22"/>
<polygon fill="#ff0000" stroke="#ff0000" stroke-width="0.69" points="556.58,-23.77 546.2,-25.88 555.63,-30.7 556.58,-23.77"/>
<text text-anchor="middle" x="786.5" y="-413.8" font-family="Times,serif" font-size="14.00">2</text>
</g>
<!-- SRM &#45; Ordered&#45;&gt;SRM &#45; In Transfer to Execution Syst. -->
<g id="edge15" class="edge">
<title>SRM &#45; Ordered&#45;&gt;SRM &#45; In Transfer to Execution Syst.</title>
<path fill="none" stroke="#000000" stroke-width="1.45" d="M268.74,-761.48C275.59,-766.79 282.84,-772.85 289,-779 296.12,-786.11 303.13,-794.52 309.2,-802.39"/>
<polygon fill="#000000" stroke="#000000" stroke-width="1.45" points="306.22,-804.26 315.01,-810.18 311.83,-800.07 306.22,-804.26"/>
<text text-anchor="middle" x="304.5" y="-782.8" font-family="Times,serif" font-size="14.00">6</text>
</g>
<!-- SRM &#45; Ordered&#45;&gt;SRM &#45; Change was Transmitted -->
<g id="edge7" class="edge">
<title>SRM &#45; Ordered&#45;&gt;SRM &#45; Change was Transmitted</title>
<path fill="none" stroke="#000000" stroke-width="2.78" d="M258.3,-724.97C272.1,-708.53 293.24,-683.35 309.51,-663.97"/>
<polygon fill="#000000" stroke="#000000" stroke-width="2.78" points="311.99,-666.47 315.74,-656.56 306.63,-661.97 311.99,-666.47"/>
<text text-anchor="middle" x="308" y="-685.3" font-family="Times,serif" font-size="14.00">13</text>
</g>
<!-- SRM &#45; Ordered&#45;&gt;Create Purchase Order Item -->
<g id="edge18" class="edge">
<title>SRM &#45; Ordered&#45;&gt;Create Purchase Order Item</title>
<path fill="none" stroke="#000000" stroke-width="2.02" d="M235.67,-724.53C219.83,-691.3 185.22,-618.69 165.84,-578.04"/>
<polygon fill="#000000" stroke="#000000" stroke-width="2.02" points="169.02,-576.57 161.56,-569.05 162.7,-579.58 169.02,-576.57"/>
<text text-anchor="middle" x="204.5" y="-631.3" font-family="Times,serif" font-size="14.00">9</text>
</g>
<!-- SRM &#45; Deleted -->
<g id="node16" class="node">
<title>SRM &#45; Deleted</title>
<polygon fill="#fbfbff" stroke="black" points="499.5,-566 380.5,-566 380.5,-530 499.5,-530 499.5,-566"/>
<text text-anchor="middle" x="440" y="-544.3" font-family="Times,serif" font-size="14.00">SRM &#45; Deleted (2)</text>
</g>
<!-- SRM &#45; Ordered&#45;&gt;SRM &#45; Deleted -->
<g id="edge34" class="edge">
<title>SRM &#45; Ordered&#45;&gt;SRM &#45; Deleted</title>
<path fill="none" stroke="#ff0000" stroke-width="0.69" stroke-dasharray="5,2" d="M303.55,-724.58C358.73,-707.08 434.8,-679.06 452,-653 466.88,-630.45 460.43,-599.01 452.41,-576.62"/>
<polygon fill="#ff0000" stroke="#ff0000" stroke-width="0.69" points="455.71,-575.45 448.81,-567.4 449.19,-577.99 455.71,-575.45"/>
<text text-anchor="middle" x="463.5" y="-631.3" font-family="Times,serif" font-size="14.00">2</text>
</g>
<!-- SRM &#45; Change was Transmitted&#45;&gt;SRM &#45; Created -->
<g id="edge40" class="edge">
<title>SRM &#45; Change was Transmitted&#45;&gt;SRM &#45; Created</title>
<path fill="none" stroke="#ff0000" stroke-width="0.5" stroke-dasharray="5,2" d="M375.77,-653.5C435.58,-681.14 537,-741 537,-829 537,-1092 537,-1092 537,-1092 537,-1157.6 327.57,-1172.76 212.55,-1176.13"/>
<polygon fill="#ff0000" stroke="#ff0000" stroke-width="0.5" points="212.72,-1172.63 202.82,-1176.39 212.91,-1179.62 212.72,-1172.63"/>
<text text-anchor="middle" x="540.5" y="-913.3" font-family="Times,serif" font-size="14.00">1</text>
</g>
<!-- SRM &#45; Change was Transmitted&#45;&gt;SRM &#45; In Transfer to Execution Syst. -->
<g id="edge22" class="edge">
<title>SRM &#45; Change was Transmitted&#45;&gt;SRM &#45; In Transfer to Execution Syst.</title>
<path fill="none" stroke="#ff0000" stroke-width="0.69" stroke-dasharray="5,2" d="M332.55,-653.29C331.69,-686.59 329.79,-759.92 328.74,-800.53"/>
<polygon fill="#ff0000" stroke="#ff0000" stroke-width="0.69" points="325.24,-800.4 328.48,-810.49 332.24,-800.58 325.24,-800.4"/>
<text text-anchor="middle" x="333.5" y="-739.3" font-family="Times,serif" font-size="14.00">2</text>
</g>
<!-- SRM &#45; Change was Transmitted&#45;&gt;Create Purchase Order Item -->
<g id="edge8" class="edge">
<title>SRM &#45; Change was Transmitted&#45;&gt;Create Purchase Order Item</title>
<path fill="none" stroke="#000000" stroke-width="3.16" d="M268.69,-616.51C254.01,-611.61 238.71,-605.74 225,-599 220.88,-596.97 204.69,-585.94 188.61,-574.75"/>
<polygon fill="#000000" stroke="#000000" stroke-width="3.16" points="190.64,-571.9 180.44,-569.05 186.63,-577.64 190.64,-571.9"/>
<text text-anchor="middle" x="232" y="-587.8" font-family="Times,serif" font-size="14.00">15</text>
</g>
<!-- Vendor creates invoice -->
<g id="node10" class="node">
<title>Vendor creates invoice</title>
<polygon fill="#bfbfff" stroke="black" points="233.5,-305 66.5,-305 66.5,-269 233.5,-269 233.5,-305"/>
<text text-anchor="middle" x="150" y="-283.3" font-family="Times,serif" font-size="14.00">Vendor creates invoice (22)</text>
</g>
<!-- SRM &#45; Change was Transmitted&#45;&gt;Vendor creates invoice -->
<g id="edge20" class="edge">
<title>SRM &#45; Change was Transmitted&#45;&gt;Vendor creates invoice</title>
<path fill="none" stroke="#000000" stroke-width="1.45" d="M321.34,-616.78C307.08,-595.91 282,-559.84 259,-530 241.91,-507.82 232.86,-504.81 222,-479 200.34,-427.5 210.64,-409.92 196,-356 191.95,-341.08 193.13,-336.15 185,-323 183.18,-320.05 181.06,-317.17 178.79,-314.39"/>
<polygon fill="#000000" stroke="#000000" stroke-width="1.45" points="181.47,-312.13 172.14,-307.11 176.3,-316.85 181.47,-312.13"/>
<text text-anchor="middle" x="225.5" y="-457.3" font-family="Times,serif" font-size="14.00">6</text>
</g>
<!-- Record Goods Receipt -->
<g id="node11" class="node">
<title>Record Goods Receipt</title>
<polygon fill="#adadff" stroke="black" points="404,-479 238,-479 238,-443 404,-443 404,-479"/>
<text text-anchor="middle" x="321" y="-457.3" font-family="Times,serif" font-size="14.00">Record Goods Receipt (28)</text>
</g>
<!-- SRM &#45; Change was Transmitted&#45;&gt;Record Goods Receipt -->
<g id="edge25" class="edge">
<title>SRM &#45; Change was Transmitted&#45;&gt;Record Goods Receipt</title>
<path fill="none" stroke="#ff0000" stroke-width="0.69" stroke-dasharray="5,2" d="M331.78,-616.56C329.71,-586.81 325.47,-526.01 322.97,-490.17"/>
<polygon fill="#ff0000" stroke="#ff0000" stroke-width="0.69" points="326.48,-490.26 322.29,-480.53 319.5,-490.75 326.48,-490.26"/>
<text text-anchor="middle" x="331.5" y="-544.3" font-family="Times,serif" font-size="14.00">2</text>
</g>
<!-- SRM &#45; Change was Transmitted&#45;&gt;end_node -->
<g id="edge49" class="edge">
<title>SRM &#45; Change was Transmitted&#45;&gt;end_node</title>
<path fill="none" stroke="#ff0000" stroke-width="0.69" stroke-dasharray="5,2" d="M420.5,-616.53C451.92,-606.39 485.4,-590.57 509,-566 585.3,-486.59 589,-441.62 589,-331.5 589,-331.5 589,-331.5 589,-112 589,-83.94 567.56,-58.95 549.12,-42.65"/>
<polygon fill="#ff0000" stroke="#ff0000" stroke-width="0.69" points="551.4,-39.99 541.49,-36.26 546.91,-45.36 551.4,-39.99"/>
<text text-anchor="middle" x="592.5" y="-326.8" font-family="Times,serif" font-size="14.00">2</text>
</g>
<!-- Create Purchase Order Item&#45;&gt;SRM &#45; In Transfer to Execution Syst. -->
<g id="edge39" class="edge">
<title>Create Purchase Order Item&#45;&gt;SRM &#45; In Transfer to Execution Syst.</title>
<path fill="none" stroke="#ff0000" stroke-width="0.69" stroke-dasharray="5,2" d="M148.12,-566.4C140.47,-605.4 127.71,-701.1 171,-761 186.67,-782.69 210.76,-797.53 235.39,-807.67"/>
<polygon fill="#ff0000" stroke="#ff0000" stroke-width="0.69" points="234.02,-810.89 244.61,-811.22 236.54,-804.36 234.02,-810.89"/>
<text text-anchor="middle" x="149.5" y="-685.3" font-family="Times,serif" font-size="14.00">2</text>
</g>
<!-- Create Purchase Order Item&#45;&gt;SRM &#45; Change was Transmitted -->
<g id="edge19" class="edge">
<title>Create Purchase Order Item&#45;&gt;SRM &#45; Change was Transmitted</title>
<path fill="none" stroke="#000000" stroke-width="2.4" d="M200.17,-566.43C213.01,-571.6 226.73,-577.61 239,-584 249.82,-589.64 251.4,-592.96 262,-599 268.88,-602.92 276.27,-606.85 283.58,-610.59"/>
<polygon fill="#000000" stroke="#000000" stroke-width="2.4" points="281.96,-613.69 292.47,-615.04 285.09,-607.43 281.96,-613.69"/>
<text text-anchor="middle" x="269" y="-587.8" font-family="Times,serif" font-size="14.00">11</text>
</g>
<!-- Create Purchase Order Item&#45;&gt;Vendor creates invoice -->
<g id="edge9" class="edge">
<title>Create Purchase Order Item&#45;&gt;Vendor creates invoice</title>
<path fill="none" stroke="#000000" stroke-width="2.4" d="M151.87,-529.6C151.53,-486.38 150.66,-373.67 150.24,-318.84"/>
<polygon fill="#000000" stroke="#000000" stroke-width="2.4" points="153.74,-318.92 150.16,-308.95 146.74,-318.97 153.74,-318.92"/>
<text text-anchor="middle" x="158" y="-413.8" font-family="Times,serif" font-size="14.00">11</text>
</g>
<!-- Create Purchase Order Item&#45;&gt;Record Goods Receipt -->
<g id="edge17" class="edge">
<title>Create Purchase Order Item&#45;&gt;Record Goods Receipt</title>
<path fill="none" stroke="#ff0000" stroke-width="0.69" stroke-dasharray="5,2" d="M186.61,-529.59C212.7,-516.47 248.67,-498.38 276.83,-484.21"/>
<polygon fill="#ff0000" stroke="#ff0000" stroke-width="0.69" points="278.15,-487.47 285.51,-479.85 275,-481.22 278.15,-487.47"/>
<text text-anchor="middle" x="249.5" y="-500.8" font-family="Times,serif" font-size="14.00">2</text>
</g>
<!-- Create Purchase Order Item&#45;&gt;end_node -->
<g id="edge46" class="edge">
<title>Create Purchase Order Item&#45;&gt;end_node</title>
<path fill="none" stroke="#ff0000" stroke-width="0.69" stroke-dasharray="5,2" d="M133.13,-529.55C93.04,-490.47 3,-391.23 3,-288 3,-288 3,-288 3,-112 3,-62.41 375.13,-33.03 489.78,-25.16"/>
<polygon fill="#ff0000" stroke="#ff0000" stroke-width="0.69" points="489.87,-28.66 499.61,-24.49 489.4,-21.67 489.87,-28.66"/>
<text text-anchor="middle" x="7.5" y="-283.3" font-family="Times,serif" font-size="14.00">2</text>
</g>
<!-- Vendor creates invoice&#45;&gt;SRM &#45; Created -->
<g id="edge33" class="edge">
<title>Vendor creates invoice&#45;&gt;SRM &#45; Created</title>
<path fill="none" stroke="#ff0000" stroke-width="0.5" stroke-dasharray="5,2" d="M94.38,-305.5C84.01,-310.21 73.71,-316 65,-323 25.55,-354.7 0,-365.89 0,-416.5 0,-1092 0,-1092 0,-1092 0,-1126.88 32.26,-1147.88 65.7,-1160.28"/>
<polygon fill="#ff0000" stroke="#ff0000" stroke-width="0.5" points="64.29,-1163.5 74.89,-1163.46 66.58,-1156.88 64.29,-1163.5"/>
<text text-anchor="middle" x="3.5" y="-739.3" font-family="Times,serif" font-size="14.00">1</text>
</g>
<!-- Vendor creates invoice&#45;&gt;Vendor creates invoice -->
<g id="edge32" class="edge">
<title>Vendor creates invoice&#45;&gt;Vendor creates invoice</title>
<path fill="none" stroke="#ff0000" stroke-width="0.69" stroke-dasharray="5,2" d="M233.62,-294.15C244.39,-292.91 251.5,-290.53 251.5,-287 251.5,-284.85 248.86,-283.13 244.36,-281.83"/>
<polygon fill="#ff0000" stroke="#ff0000" stroke-width="0.69" points="245.12,-278.41 234.65,-280.04 243.85,-285.29 245.12,-278.41"/>
<text text-anchor="middle" x="255" y="-283.3" font-family="Times,serif" font-size="14.00">2</text>
</g>
<!-- Vendor creates invoice&#45;&gt;Record Goods Receipt -->
<g id="edge10" class="edge">
<title>Vendor creates invoice&#45;&gt;Record Goods Receipt</title>
<path fill="none" stroke="#000000" stroke-width="3.53" d="M157.9,-305.45C168.53,-327.52 189.11,-365.8 215,-392 231.65,-408.85 253.2,-423.62 272.51,-435.05"/>
<polygon fill="#000000" stroke="#000000" stroke-width="3.53" points="270.68,-438.04 281.11,-439.94 274.15,-431.95 270.68,-438.04"/>
<text text-anchor="middle" x="222" y="-370.3" font-family="Times,serif" font-size="14.00">17</text>
</g>
<!-- Record Service Entry Sheet -->
<g id="node12" class="node">
<title>Record Service Entry Sheet</title>
<polygon fill="#adadff" stroke="black" points="432,-392 238,-392 238,-356 432,-356 432,-392"/>
<text text-anchor="middle" x="335" y="-370.3" font-family="Times,serif" font-size="14.00">Record Service Entry Sheet (28)</text>
</g>
<!-- Vendor creates invoice&#45;&gt;Record Service Entry Sheet -->
<g id="edge30" class="edge">
<title>Vendor creates invoice&#45;&gt;Record Service Entry Sheet</title>
<path fill="none" stroke="#ff0000" stroke-width="0.5" stroke-dasharray="5,2" d="M186.78,-305.42C197.88,-310.86 210.02,-317.01 221,-323 232.38,-329.2 234.38,-332.28 246,-338 255.71,-342.78 266.24,-347.39 276.55,-351.62"/>
<polygon fill="#ff0000" stroke="#ff0000" stroke-width="0.5" points="275.04,-354.79 285.63,-355.26 277.65,-348.29 275.04,-354.79"/>
<text text-anchor="middle" x="249.5" y="-326.8" font-family="Times,serif" font-size="14.00">1</text>
</g>
<!-- Record Invoice Receipt -->
<g id="node13" class="node">
<title>Record Invoice Receipt</title>
<polygon fill="#b9b9ff" stroke="black" points="356.5,-218 185.5,-218 185.5,-182 356.5,-182 356.5,-218"/>
<text text-anchor="middle" x="271" y="-196.3" font-family="Times,serif" font-size="14.00">Record Invoice Receipt (24)</text>
</g>
<!-- Vendor creates invoice&#45;&gt;Record Invoice Receipt -->
<g id="edge28" class="edge">
<title>Vendor creates invoice&#45;&gt;Record Invoice Receipt</title>
<path fill="none" stroke="#ff0000" stroke-width="0.5" stroke-dasharray="5,2" d="M174.78,-268.59C192.89,-255.87 217.64,-238.48 237.51,-224.52"/>
<polygon fill="#ff0000" stroke="#ff0000" stroke-width="0.5" points="239.46,-227.43 245.64,-218.82 235.44,-221.7 239.46,-227.43"/>
<text text-anchor="middle" x="220.5" y="-239.8" font-family="Times,serif" font-size="14.00">1</text>
</g>
<!-- Record Goods Receipt&#45;&gt;Record Service Entry Sheet -->
<g id="edge11" class="edge">
<title>Record Goods Receipt&#45;&gt;Record Service Entry Sheet</title>
<path fill="none" stroke="#000000" stroke-width="5.24" d="M323.83,-442.8C325.45,-432.96 327.54,-420.27 329.48,-408.53"/>
<polygon fill="#000000" stroke="#000000" stroke-width="5.24" points="334,-409.28 331.1,-398.67 324.95,-407.79 334,-409.28"/>
<text text-anchor="middle" x="335" y="-413.8" font-family="Times,serif" font-size="14.00">26</text>
</g>
<!-- Record Goods Receipt&#45;&gt;Record Invoice Receipt -->
<g id="edge31" class="edge">
<title>Record Goods Receipt&#45;&gt;Record Invoice Receipt</title>
<path fill="none" stroke="#ff0000" stroke-width="0.5" stroke-dasharray="5,2" d="M253.53,-442.53C189.18,-421.76 96.39,-380.07 57,-305 28.42,-250.53 105.51,-224.24 175,-211.77"/>
<polygon fill="#ff0000" stroke="#ff0000" stroke-width="0.5" points="175.17,-215.29 184.44,-210.16 174,-208.39 175.17,-215.29"/>
<text text-anchor="middle" x="81.5" y="-326.8" font-family="Times,serif" font-size="14.00">1</text>
</g>
<!-- Record Goods Receipt&#45;&gt;end_node -->
<g id="edge50" class="edge">
<title>Record Goods Receipt&#45;&gt;end_node</title>
<path fill="none" stroke="#ff0000" stroke-width="0.5" stroke-dasharray="5,2" d="M394.05,-442.54C406.89,-437.88 419.73,-432.11 431,-425 460.46,-406.43 524.86,-325.26 532,-305 562.55,-218.31 543.48,-107.19 531.11,-54.03"/>
<polygon fill="#ff0000" stroke="#ff0000" stroke-width="0.5" points="534.52,-53.23 528.78,-44.33 527.72,-54.88 534.52,-53.23"/>
<text text-anchor="middle" x="549.5" y="-239.8" font-family="Times,serif" font-size="14.00">1</text>
</g>
<!-- Record Service Entry Sheet&#45;&gt;Vendor creates invoice -->
<g id="edge27" class="edge">
<title>Record Service Entry Sheet&#45;&gt;Vendor creates invoice</title>
<path fill="none" stroke="#ff0000" stroke-width="0.5" stroke-dasharray="5,2" d="M305.57,-355.58C296.12,-349.98 285.61,-343.74 276,-338 264.87,-331.36 262.74,-328.48 251,-323 240.21,-317.96 228.47,-313.24 216.95,-309.01"/>
<polygon fill="#ff0000" stroke="#ff0000" stroke-width="0.5" points="218.22,-305.75 207.63,-305.67 215.86,-312.34 218.22,-305.75"/>
<text text-anchor="middle" x="279.5" y="-326.8" font-family="Times,serif" font-size="14.00">1</text>
</g>
<!-- Record Service Entry Sheet&#45;&gt;Record Goods Receipt -->
<g id="edge26" class="edge">
<title>Record Service Entry Sheet&#45;&gt;Record Goods Receipt</title>
<path fill="none" stroke="#000000" stroke-width="1.26" d="M324.12,-392.17C321.22,-397.65 318.48,-403.89 317,-410 315.39,-416.67 315.14,-423.96 315.58,-430.87"/>
<polygon fill="#000000" stroke="#000000" stroke-width="1.26" points="312.1,-431.24 316.74,-440.77 319.06,-430.43 312.1,-431.24"/>
<text text-anchor="middle" x="320.5" y="-413.8" font-family="Times,serif" font-size="14.00">5</text>
</g>
<!-- Record Service Entry Sheet&#45;&gt;Record Invoice Receipt -->
<g id="edge12" class="edge">
<title>Record Service Entry Sheet&#45;&gt;Record Invoice Receipt</title>
<path fill="none" stroke="#000000" stroke-width="3.91" d="M328.3,-355.7C323.01,-341.97 315.46,-322.28 309,-305 300.02,-280.99 290.09,-253.77 282.63,-233.21"/>
<polygon fill="#000000" stroke="#000000" stroke-width="3.91" points="285.95,-232.11 279.26,-223.9 279.37,-234.49 285.95,-232.11"/>
<text text-anchor="middle" x="316" y="-283.3" font-family="Times,serif" font-size="14.00">19</text>
</g>
<!-- Cancel Goods Receipt -->
<g id="node17" class="node">
<title>Cancel Goods Receipt</title>
<polygon fill="#ffffff" stroke="black" points="523,-305 365,-305 365,-269 523,-269 523,-305"/>
<text text-anchor="middle" x="444" y="-283.3" font-family="Times,serif" font-size="14.00">Cancel Goods Receipt (1)</text>
</g>
<!-- Record Service Entry Sheet&#45;&gt;Cancel Goods Receipt -->
<g id="edge36" class="edge">
<title>Record Service Entry Sheet&#45;&gt;Cancel Goods Receipt</title>
<path fill="none" stroke="#ff0000" stroke-width="0.5" stroke-dasharray="5,2" d="M357.32,-355.59C373.49,-342.99 395.53,-325.79 413.35,-311.9"/>
<polygon fill="#ff0000" stroke="#ff0000" stroke-width="0.5" points="415.38,-314.76 421.11,-305.85 411.07,-309.24 415.38,-314.76"/>
<text text-anchor="middle" x="399.5" y="-326.8" font-family="Times,serif" font-size="14.00">1</text>
</g>
<!-- Record Service Entry Sheet&#45;&gt;end_node -->
<g id="edge45" class="edge">
<title>Record Service Entry Sheet&#45;&gt;end_node</title>
<path fill="none" stroke="#ff0000" stroke-width="0.69" stroke-dasharray="5,2" d="M334.89,-355.83C335.5,-334.04 339.18,-296.07 356,-269 375.57,-237.51 396.2,-244.62 422,-218 455.23,-183.72 462.85,-173.29 485,-131 497.94,-106.3 508.11,-76.23 514.66,-54.1"/>
<polygon fill="#ff0000" stroke="#ff0000" stroke-width="0.69" points="517.98,-55.21 517.38,-44.63 511.25,-53.28 517.98,-55.21"/>
<text text-anchor="middle" x="457.5" y="-196.3" font-family="Times,serif" font-size="14.00">2</text>
</g>
<!-- Record Invoice Receipt&#45;&gt;Record Invoice Receipt -->
<g id="edge29" class="edge">
<title>Record Invoice Receipt&#45;&gt;Record Invoice Receipt</title>
<path fill="none" stroke="#000000" stroke-width="0.88" d="M356.66,-207.1C367.42,-205.85 374.5,-203.48 374.5,-200 374.5,-197.93 372,-196.26 367.72,-194.98"/>
<polygon fill="#000000" stroke="#000000" stroke-width="0.88" points="368.45,-191.55 357.97,-193.14 367.15,-198.43 368.45,-191.55"/>
<text text-anchor="middle" x="378" y="-196.3" font-family="Times,serif" font-size="14.00">3</text>
</g>
<!-- Clear Invoice -->
<g id="node14" class="node">
<title>Clear Invoice</title>
<polygon fill="#d7d7ff" stroke="black" points="476,-131 360,-131 360,-95 476,-95 476,-131"/>
<text text-anchor="middle" x="418" y="-109.3" font-family="Times,serif" font-size="14.00">Clear Invoice (14)</text>
</g>
<!-- Record Invoice Receipt&#45;&gt;Clear Invoice -->
<g id="edge13" class="edge">
<title>Record Invoice Receipt&#45;&gt;Clear Invoice</title>
<path fill="none" stroke="#000000" stroke-width="2.97" d="M301.1,-181.59C322.61,-169.16 351.83,-152.26 375.68,-138.47"/>
<polygon fill="#000000" stroke="#000000" stroke-width="2.97" points="377.15,-141.67 384.05,-133.63 373.64,-135.61 377.15,-141.67"/>
<text text-anchor="middle" x="360" y="-152.8" font-family="Times,serif" font-size="14.00">14</text>
</g>
<!-- Record Invoice Receipt&#45;&gt;end_node -->
<g id="edge43" class="edge">
<title>Record Invoice Receipt&#45;&gt;end_node</title>
<path fill="none" stroke="#000000" stroke-width="1.64" d="M279.22,-181.56C290.75,-158.78 313.76,-118.99 344,-95 387.97,-60.12 451.07,-40.05 489.41,-30.35"/>
<polygon fill="#000000" stroke="#000000" stroke-width="1.64" points="490.1,-33.79 499,-28.04 488.45,-26.98 490.1,-33.79"/>
<text text-anchor="middle" x="347.5" y="-109.3" font-family="Times,serif" font-size="14.00">7</text>
</g>
<!-- Clear Invoice&#45;&gt;SRM &#45; In Transfer to Execution Syst. -->
<g id="edge23" class="edge">
<title>Clear Invoice&#45;&gt;SRM &#45; In Transfer to Execution Syst.</title>
<path fill="none" stroke="#ff0000" stroke-width="0.69" stroke-dasharray="5,2" d="M440.5,-131.23C468.45,-153.39 516.54,-194.04 550,-236 577.81,-270.87 587.2,-280.28 600,-323 613.01,-366.43 604.78,-380.03 599,-425 574.5,-615.51 507.99,-656.36 374,-794 370.34,-797.76 366.26,-801.44 362.08,-804.92"/>
<polygon fill="#ff0000" stroke="#ff0000" stroke-width="0.69" points="359.96,-802.14 354.29,-811.09 364.3,-807.63 359.96,-802.14"/>
<text text-anchor="middle" x="599.5" y="-457.3" font-family="Times,serif" font-size="14.00">2</text>
</g>
<!-- Clear Invoice&#45;&gt;Vendor creates invoice -->
<g id="edge38" class="edge">
<title>Clear Invoice&#45;&gt;Vendor creates invoice</title>
<path fill="none" stroke="#ff0000" stroke-width="0.69" stroke-dasharray="5,2" d="M418.47,-131.25C418.12,-154.18 413.97,-194.54 391,-218 370.2,-239.24 302.87,-257.19 244.64,-269.3"/>
<polygon fill="#ff0000" stroke="#ff0000" stroke-width="0.69" points="244.01,-265.86 234.91,-271.29 245.41,-272.72 244.01,-265.86"/>
<text text-anchor="middle" x="414.5" y="-196.3" font-family="Times,serif" font-size="14.00">2</text>
</g>
<!-- Clear Invoice&#45;&gt;end_node -->
<g id="edge44" class="edge">
<title>Clear Invoice&#45;&gt;end_node</title>
<path fill="none" stroke="#000000" stroke-width="2.21" d="M438.05,-94.55C449.19,-84.9 463.31,-72.73 476,-62 482.59,-56.43 489.74,-50.46 496.42,-44.91"/>
<polygon fill="#000000" stroke="#000000" stroke-width="2.21" points="498.36,-47.84 503.83,-38.77 493.9,-42.45 498.36,-47.84"/>
<text text-anchor="middle" x="483" y="-65.8" font-family="Times,serif" font-size="14.00">10</text>
</g>
<!-- SRM &#45; Transfer Failed (E.Sys.)&#45;&gt;end_node -->
<g id="edge48" class="edge">
<title>SRM &#45; Transfer Failed (E.Sys.)&#45;&gt;end_node</title>
<path fill="none" stroke="#ff0000" stroke-width="0.69" stroke-dasharray="5,2" d="M666.6,-670.79C669.26,-651.71 673,-619.98 673,-592.5 673,-592.5 673,-592.5 673,-112 673,-57.96 600.1,-36.01 555.94,-27.68"/>
<polygon fill="#ff0000" stroke="#ff0000" stroke-width="0.69" points="556.61,-24.24 546.16,-25.97 555.41,-31.14 556.61,-24.24"/>
<text text-anchor="middle" x="676.5" y="-370.3" font-family="Times,serif" font-size="14.00">2</text>
</g>
<!-- SRM &#45; Deleted&#45;&gt;Record Goods Receipt -->
<g id="edge35" class="edge">
<title>SRM &#45; Deleted&#45;&gt;Record Goods Receipt</title>
<path fill="none" stroke="#ff0000" stroke-width="0.5" stroke-dasharray="5,2" d="M415.63,-529.59C397.82,-516.87 373.47,-499.48 353.93,-485.52"/>
<polygon fill="#ff0000" stroke="#ff0000" stroke-width="0.5" points="356.12,-482.79 345.95,-479.82 352.05,-488.48 356.12,-482.79"/>
<text text-anchor="middle" x="390.5" y="-500.8" font-family="Times,serif" font-size="14.00">1</text>
</g>
<!-- SRM &#45; Deleted&#45;&gt;Record Service Entry Sheet -->
<g id="edge41" class="edge">
<title>SRM &#45; Deleted&#45;&gt;Record Service Entry Sheet</title>
<path fill="none" stroke="#ff0000" stroke-width="0.5" stroke-dasharray="5,2" d="M438.64,-529.57C436.26,-507.85 429.88,-470.29 413,-443 402.24,-425.6 385.61,-410.22 370.47,-398.51"/>
<polygon fill="#ff0000" stroke="#ff0000" stroke-width="0.5" points="372.97,-396.01 362.86,-392.84 368.79,-401.62 372.97,-396.01"/>
<text text-anchor="middle" x="431.5" y="-457.3" font-family="Times,serif" font-size="14.00">1</text>
</g>
<!-- Cancel Goods Receipt&#45;&gt;Record Goods Receipt -->
<g id="edge37" class="edge">
<title>Cancel Goods Receipt&#45;&gt;Record Goods Receipt</title>
<path fill="none" stroke="#ff0000" stroke-width="0.5" stroke-dasharray="5,2" d="M448.34,-305.27C452.82,-327.15 457.12,-365.23 441,-392 428.57,-412.64 407.38,-427.55 386.24,-438.06"/>
<polygon fill="#ff0000" stroke="#ff0000" stroke-width="0.5" points="384.82,-434.86 377.24,-442.26 387.78,-441.2 384.82,-434.86"/>
<text text-anchor="middle" x="454.5" y="-370.3" font-family="Times,serif" font-size="14.00">1</text>
</g>
</g>
</svg>
