<?xml version="1.0" encoding="UTF-8" standalone="no"?>
<!DOCTYPE svg PUBLIC "-//W3C//DTD SVG 1.1//EN"
 "http://www.w3.org/Graphics/SVG/1.1/DTD/svg11.dtd">
<!-- Generated by graphviz version 7.0.5 (0)
 -->
<!-- Title: dfg Pages: 1 -->
<svg width="911pt" height="1096pt"
 viewBox="0.00 0.00 911.00 1096.00" xmlns="http://www.w3.org/2000/svg" xmlns:xlink="http://www.w3.org/1999/xlink">
<g id="graph0" class="graph" transform="scale(1 1) rotate(0) translate(4 1092)">
<title>dfg</title>
<polygon fill="white" stroke="none" points="-4,4 -4,-1092 907,-1092 907,4 -4,4"/>
<!-- start_node -->
<g id="node1" class="node">
<title>start_node</title>
<ellipse fill="none" stroke="black" cx="462" cy="-1070" rx="18" ry="18"/>
<text text-anchor="start" x="457.5" y="-1066.3" font-family="Times,serif" font-size="14.00">●</text>
</g>
<!-- Create Purchase Order Item -->
<g id="node2" class="node">
<title>Create Purchase Order Item</title>
<polygon fill="#9b9bff" stroke="black" points="563,-914 361,-914 361,-878 563,-878 563,-914"/>
<text text-anchor="middle" x="462" y="-892.3" font-family="Times,serif" font-size="14.00">Create Purchase Order Item (556)</text>
</g>
<!-- start_node&#45;&gt;Create Purchase Order Item -->
<g id="edge1" class="edge">
<title>start_node&#45;&gt;Create Purchase Order Item</title>
<path fill="none" stroke="#000000" stroke-width="12.47" d="M459.73,-1051.71C458.04,-1037.99 455.89,-1018.3 455,-1001 454.18,-985.02 454.18,-980.98 455,-965 455.54,-954.46 456.55,-943.03 457.64,-932.6"/>
<polygon fill="#000000" stroke="#000000" stroke-width="12.47" points="468.48,-933.86 458.77,-922.69 446.8,-931.39 468.48,-933.86"/>
<text text-anchor="middle" x="465.5" y="-979.3" font-family="Times,serif" font-size="14.00">487</text>
</g>
<!-- Create Purchase Requisition Item -->
<g id="node3" class="node">
<title>Create Purchase Requisition Item</title>
<polygon fill="#f3f3ff" stroke="black" points="711,-1001 485,-1001 485,-965 711,-965 711,-1001"/>
<text text-anchor="middle" x="598" y="-979.3" font-family="Times,serif" font-size="14.00">Create Purchase Requisition Item (69)</text>
</g>
<!-- start_node&#45;&gt;Create Purchase Requisition Item -->
<g id="edge2" class="edge">
<title>start_node&#45;&gt;Create Purchase Requisition Item</title>
<path fill="none" stroke="#000000" stroke-width="2.07" d="M477.07,-1059.58C496.77,-1047.27 531.96,-1025.27 559.32,-1008.17"/>
<polygon fill="#000000" stroke="#000000" stroke-width="2.07" points="560.85,-1011.35 567.47,-1003.08 557.14,-1005.41 560.85,-1011.35"/>
<text text-anchor="middle" x="545" y="-1022.8" font-family="Times,serif" font-size="14.00">69</text>
</g>
<!-- Vendor creates invoice -->
<g id="node4" class="node">
<title>Vendor creates invoice</title>
<polygon fill="#b8b8ff" stroke="black" points="341.5,-740 168.5,-740 168.5,-704 341.5,-704 341.5,-740"/>
<text text-anchor="middle" x="255" y="-718.3" font-family="Times,serif" font-size="14.00">Vendor creates invoice (396)</text>
</g>
<!-- Create Purchase Order Item&#45;&gt;Vendor creates invoice -->
<g id="edge3" class="edge">
<title>Create Purchase Order Item&#45;&gt;Vendor creates invoice</title>
<path fill="none" stroke="#000000" stroke-width="5.55" d="M360.62,-884.81C323.07,-875.65 283.87,-858.59 260,-827 244.96,-807.1 244.68,-778.44 247.62,-756.24"/>
<polygon fill="#000000" stroke="#000000" stroke-width="5.55" points="252.35,-757.4 249.28,-746.71 242.78,-755.73 252.35,-757.4"/>
<text text-anchor="middle" x="270.5" y="-805.3" font-family="Times,serif" font-size="14.00">209</text>
</g>
<!-- Record Goods Receipt -->
<g id="node5" class="node">
<title>Record Goods Receipt</title>
<polygon fill="#b5b5ff" stroke="black" points="271.5,-566 98.5,-566 98.5,-530 271.5,-530 271.5,-566"/>
<text text-anchor="middle" x="185" y="-544.3" font-family="Times,serif" font-size="14.00">Record Goods Receipt (412)</text>
</g>
<!-- Create Purchase Order Item&#45;&gt;Record Goods Receipt -->
<g id="edge8" class="edge">
<title>Create Purchase Order Item&#45;&gt;Record Goods Receipt</title>
<path fill="none" stroke="#000000" stroke-width="2.59" d="M360.64,-888.02C264.94,-878.56 136,-857.08 136,-810 136,-810 136,-810 136,-634 136,-612.89 147.48,-592.3 159.33,-576.67"/>
<polygon fill="#000000" stroke="#000000" stroke-width="2.59" points="161.76,-579.23 165.38,-569.27 156.34,-574.8 161.76,-579.23"/>
<text text-anchor="middle" x="143" y="-718.3" font-family="Times,serif" font-size="14.00">90</text>
</g>
<!-- Delete Purchase Order Item -->
<g id="node8" class="node">
<title>Delete Purchase Order Item</title>
<polygon fill="#f0f0ff" stroke="black" points="689.5,-827 494.5,-827 494.5,-791 689.5,-791 689.5,-827"/>
<text text-anchor="middle" x="592" y="-805.3" font-family="Times,serif" font-size="14.00">Delete Purchase Order Item (84)</text>
</g>
<!-- Create Purchase Order Item&#45;&gt;Delete Purchase Order Item -->
<g id="edge7" class="edge">
<title>Create Purchase Order Item&#45;&gt;Delete Purchase Order Item</title>
<path fill="none" stroke="#000000" stroke-width="2.44" d="M488.62,-877.59C507.46,-865.27 533.01,-848.57 553.99,-834.85"/>
<polygon fill="#000000" stroke="#000000" stroke-width="2.44" points="555.87,-837.81 562.32,-829.4 552.04,-831.95 555.87,-837.81"/>
<text text-anchor="middle" x="542" y="-848.8" font-family="Times,serif" font-size="14.00">84</text>
</g>
<!-- Change Quantity -->
<g id="node10" class="node">
<title>Change Quantity</title>
<polygon fill="#fbfbff" stroke="black" points="425.5,-827 290.5,-827 290.5,-791 425.5,-791 425.5,-827"/>
<text text-anchor="middle" x="358" y="-805.3" font-family="Times,serif" font-size="14.00">Change Quantity (24)</text>
</g>
<!-- Create Purchase Order Item&#45;&gt;Change Quantity -->
<g id="edge13" class="edge">
<title>Create Purchase Order Item&#45;&gt;Change Quantity</title>
<path fill="none" stroke="#000000" stroke-width="0.95" d="M440.7,-877.59C425.42,-865.1 404.62,-848.11 387.71,-834.28"/>
<polygon fill="#000000" stroke="#000000" stroke-width="0.95" points="390.34,-831.91 380.38,-828.29 385.91,-837.33 390.34,-831.91"/>
<text text-anchor="middle" x="424" y="-848.8" font-family="Times,serif" font-size="14.00">24</text>
</g>
<!-- Receive Order Confirmation -->
<g id="node11" class="node">
<title>Receive Order Confirmation</title>
<polygon fill="#eeeeff" stroke="black" points="558.5,-740 359.5,-740 359.5,-704 558.5,-704 558.5,-740"/>
<text text-anchor="middle" x="459" y="-718.3" font-family="Times,serif" font-size="14.00">Receive Order Confirmation (99)</text>
</g>
<!-- Create Purchase Order Item&#45;&gt;Receive Order Confirmation -->
<g id="edge15" class="edge">
<title>Create Purchase Order Item&#45;&gt;Receive Order Confirmation</title>
<path fill="none" stroke="#000000" stroke-width="2.81" d="M461.7,-877.56C461.19,-848.72 460.18,-790.67 459.55,-754.5"/>
<polygon fill="#000000" stroke="#000000" stroke-width="2.81" points="463.05,-754.68 459.38,-744.74 456.05,-754.8 463.05,-754.68"/>
<text text-anchor="middle" x="468" y="-805.3" font-family="Times,serif" font-size="14.00">99</text>
</g>
<!-- Change Approval for Purchase Order -->
<g id="node13" class="node">
<title>Change Approval for Purchase Order</title>
<polygon fill="#fdfdff" stroke="black" points="860.5,-740 615.5,-740 615.5,-704 860.5,-704 860.5,-740"/>
<text text-anchor="middle" x="738" y="-718.3" font-family="Times,serif" font-size="14.00">Change Approval for Purchase Order (15)</text>
</g>
<!-- Create Purchase Order Item&#45;&gt;Change Approval for Purchase Order -->
<g id="edge20" class="edge">
<title>Create Purchase Order Item&#45;&gt;Change Approval for Purchase Order</title>
<path fill="none" stroke="#ff0000" stroke-width="0.57" stroke-dasharray="5,2" d="M563.5,-886.63C609.77,-878.03 662.29,-860.91 699,-827 720.43,-807.21 730.15,-774.5 734.52,-751.05"/>
<polygon fill="#ff0000" stroke="#ff0000" stroke-width="0.57" points="737.96,-751.67 736.12,-741.23 731.05,-750.54 737.96,-751.67"/>
<text text-anchor="middle" x="725.5" y="-805.3" font-family="Times,serif" font-size="14.00">9</text>
</g>
<!-- end_node -->
<g id="node17" class="node">
<title>end_node</title>
<ellipse fill="none" stroke="black" cx="503" cy="-22" rx="18" ry="18"/>
<ellipse fill="none" stroke="black" cx="503" cy="-22" rx="22" ry="22"/>
<text text-anchor="start" x="498.5" y="-18.3" font-family="Times,serif" font-size="14.00">■</text>
</g>
<!-- Create Purchase Order Item&#45;&gt;end_node -->
<g id="edge35" class="edge">
<title>Create Purchase Order Item&#45;&gt;end_node</title>
<path fill="none" stroke="#000000" stroke-width="1.37" d="M563.46,-894.71C689.75,-891.55 889,-876.09 889,-810 889,-810 889,-810 889,-112 889,-40.17 631.97,-26.3 537.39,-23.63"/>
<polygon fill="#000000" stroke="#000000" stroke-width="1.37" points="537.58,-20.14 527.5,-23.39 537.4,-27.14 537.58,-20.14"/>
<text text-anchor="middle" x="896" y="-457.3" font-family="Times,serif" font-size="14.00">41</text>
</g>
<!-- Create Purchase Requisition Item&#45;&gt;Create Purchase Order Item -->
<g id="edge17" class="edge">
<title>Create Purchase Requisition Item&#45;&gt;Create Purchase Order Item</title>
<path fill="none" stroke="#000000" stroke-width="2.07" d="M570.15,-964.59C550.16,-952.1 522.97,-935.11 500.85,-921.28"/>
<polygon fill="#000000" stroke="#000000" stroke-width="2.07" points="502.8,-918.37 492.47,-916.04 499.09,-924.31 502.8,-918.37"/>
<text text-anchor="middle" x="545" y="-935.8" font-family="Times,serif" font-size="14.00">69</text>
</g>
<!-- Vendor creates invoice&#45;&gt;Record Goods Receipt -->
<g id="edge4" class="edge">
<title>Vendor creates invoice&#45;&gt;Record Goods Receipt</title>
<path fill="none" stroke="#000000" stroke-width="6" d="M235.12,-703.76C221.97,-691.12 205.61,-672.78 197,-653 187.36,-630.85 184.49,-603.66 183.97,-582.64"/>
<polygon fill="#000000" stroke="#000000" stroke-width="6" points="189.22,-582.82 183.98,-572.81 178.72,-582.81 189.22,-582.82"/>
<text text-anchor="middle" x="207.5" y="-631.3" font-family="Times,serif" font-size="14.00">227</text>
</g>
<!-- Record Invoice Receipt -->
<g id="node6" class="node">
<title>Record Invoice Receipt</title>
<polygon fill="#b8b8ff" stroke="black" points="415,-392 237,-392 237,-356 415,-356 415,-392"/>
<text text-anchor="middle" x="326" y="-370.3" font-family="Times,serif" font-size="14.00">Record Invoice Receipt (396)</text>
</g>
<!-- Vendor creates invoice&#45;&gt;Record Invoice Receipt -->
<g id="edge10" class="edge">
<title>Vendor creates invoice&#45;&gt;Record Invoice Receipt</title>
<path fill="none" stroke="#000000" stroke-width="4.26" d="M341.65,-705.31C373.69,-698.75 403.6,-691.41 409,-686 436.98,-657.94 443.64,-551.39 448,-512 453.21,-464.91 454.87,-438.48 417,-410 411.67,-405.99 405.83,-402.39 399.76,-399.17"/>
<polygon fill="#000000" stroke="#000000" stroke-width="4.26" points="401.45,-395.84 390.82,-394.92 398.25,-402.57 401.45,-395.84"/>
<text text-anchor="middle" x="457.5" y="-544.3" font-family="Times,serif" font-size="14.00">157</text>
</g>
<!-- Change Price -->
<g id="node12" class="node">
<title>Change Price</title>
<polygon fill="#fbfbff" stroke="black" points="395,-653 279,-653 279,-617 395,-617 395,-653"/>
<text text-anchor="middle" x="337" y="-631.3" font-family="Times,serif" font-size="14.00">Change Price (27)</text>
</g>
<!-- Vendor creates invoice&#45;&gt;Change Price -->
<g id="edge18" class="edge">
<title>Vendor creates invoice&#45;&gt;Change Price</title>
<path fill="none" stroke="#000000" stroke-width="0.65" d="M271.59,-703.8C283.41,-691.55 299.47,-674.9 312.73,-661.16"/>
<polygon fill="#000000" stroke="#000000" stroke-width="0.65" points="315.04,-663.8 319.47,-654.17 310.01,-658.94 315.04,-663.8"/>
<text text-anchor="middle" x="308" y="-674.8" font-family="Times,serif" font-size="14.00">12</text>
</g>
<!-- Record Goods Receipt&#45;&gt;Vendor creates invoice -->
<g id="edge9" class="edge">
<title>Record Goods Receipt&#45;&gt;Vendor creates invoice</title>
<path fill="none" stroke="#000000" stroke-width="4.41" d="M194.08,-566.37C201.04,-579.97 210.65,-599.45 218,-617 227.89,-640.59 237.52,-667.86 244.48,-688.55"/>
<polygon fill="#000000" stroke="#000000" stroke-width="4.41" points="240.82,-689.75 247.62,-698.03 248.14,-687.33 240.82,-689.75"/>
<text text-anchor="middle" x="242.5" y="-631.3" font-family="Times,serif" font-size="14.00">163</text>
</g>
<!-- Record Goods Receipt&#45;&gt;Record Invoice Receipt -->
<g id="edge5" class="edge">
<title>Record Goods Receipt&#45;&gt;Record Invoice Receipt</title>
<path fill="none" stroke="#000000" stroke-width="5.85" d="M182.62,-529.85C180.48,-507.75 180.03,-469.07 198,-443 211.28,-423.73 231.8,-409.49 252.55,-399.17"/>
<polygon fill="#000000" stroke="#000000" stroke-width="5.85" points="254.41,-403.94 261.39,-395.14 250.16,-394.63 254.41,-403.94"/>
<text text-anchor="middle" x="208.5" y="-457.3" font-family="Times,serif" font-size="14.00">221</text>
</g>
<!-- Remove Payment Block -->
<g id="node9" class="node">
<title>Remove Payment Block</title>
<polygon fill="#ebebff" stroke="black" points="215.5,-305 32.5,-305 32.5,-269 215.5,-269 215.5,-305"/>
<text text-anchor="middle" x="124" y="-283.3" font-family="Times,serif" font-size="14.00">Remove Payment Block (115)</text>
</g>
<!-- Record Goods Receipt&#45;&gt;Remove Payment Block -->
<g id="edge31" class="edge">
<title>Record Goods Receipt&#45;&gt;Remove Payment Block</title>
<path fill="none" stroke="#ff0000" stroke-width="0.5" stroke-dasharray="5,2" d="M174.22,-529.69C171.18,-524.2 168.13,-517.99 166,-512 141.8,-443.89 130.75,-358.93 126.41,-315.84"/>
<polygon fill="#ff0000" stroke="#ff0000" stroke-width="0.5" points="129.91,-315.71 125.47,-306.09 122.94,-316.38 129.91,-315.71"/>
<text text-anchor="middle" x="146.5" y="-413.8" font-family="Times,serif" font-size="14.00">6</text>
</g>
<!-- Vendor creates debit memo -->
<g id="node15" class="node">
<title>Vendor creates debit memo</title>
<polygon fill="#ffffff" stroke="black" points="414,-479 228,-479 228,-443 414,-443 414,-479"/>
<text text-anchor="middle" x="321" y="-457.3" font-family="Times,serif" font-size="14.00">Vendor creates debit memo (6)</text>
</g>
<!-- Record Goods Receipt&#45;&gt;Vendor creates debit memo -->
<g id="edge24" class="edge">
<title>Record Goods Receipt&#45;&gt;Vendor creates debit memo</title>
<path fill="none" stroke="#ff0000" stroke-width="0.5" stroke-dasharray="5,2" d="M212.85,-529.59C233.48,-516.7 261.78,-499.01 284.26,-484.96"/>
<polygon fill="#ff0000" stroke="#ff0000" stroke-width="0.5" points="285.92,-488.05 292.55,-479.78 282.21,-482.12 285.92,-488.05"/>
<text text-anchor="middle" x="265.5" y="-500.8" font-family="Times,serif" font-size="14.00">6</text>
</g>
<!-- Record Goods Receipt&#45;&gt;end_node -->
<g id="edge38" class="edge">
<title>Record Goods Receipt&#45;&gt;end_node</title>
<path fill="none" stroke="#000000" stroke-width="0.75" d="M98.19,-539.6C50.12,-530.2 0,-509.1 0,-462 0,-462 0,-462 0,-112 0,-64.14 357.63,-33.71 469.78,-25.35"/>
<polygon fill="#000000" stroke="#000000" stroke-width="0.75" points="469.89,-28.85 479.61,-24.63 469.38,-21.87 469.89,-28.85"/>
<text text-anchor="middle" x="7" y="-283.3" font-family="Times,serif" font-size="14.00">16</text>
</g>
<!-- Record Invoice Receipt&#45;&gt;Record Goods Receipt -->
<g id="edge30" class="edge">
<title>Record Invoice Receipt&#45;&gt;Record Goods Receipt</title>
<path fill="none" stroke="#ff0000" stroke-width="0.5" stroke-dasharray="5,2" d="M236.8,-391.43C210.53,-401.38 185.7,-417.35 174,-443 162.98,-467.17 168.15,-497.67 174.6,-519.38"/>
<polygon fill="#ff0000" stroke="#ff0000" stroke-width="0.5" points="171.25,-520.41 177.67,-528.84 177.91,-518.25 171.25,-520.41"/>
<text text-anchor="middle" x="177.5" y="-457.3" font-family="Times,serif" font-size="14.00">6</text>
</g>
<!-- Clear Invoice -->
<g id="node7" class="node">
<title>Clear Invoice</title>
<polygon fill="#c8c8ff" stroke="black" points="387.5,-218 264.5,-218 264.5,-182 387.5,-182 387.5,-218"/>
<text text-anchor="middle" x="326" y="-196.3" font-family="Times,serif" font-size="14.00">Clear Invoice (308)</text>
</g>
<!-- Record Invoice Receipt&#45;&gt;Clear Invoice -->
<g id="edge6" class="edge">
<title>Record Invoice Receipt&#45;&gt;Clear Invoice</title>
<path fill="none" stroke="#000000" stroke-width="5.23" d="M369.57,-355.59C390.99,-344.55 414.78,-327.95 427,-305 434.52,-290.88 434.52,-283.12 427,-269 417.41,-250.98 400.68,-236.88 383.56,-226.3"/>
<polygon fill="#000000" stroke="#000000" stroke-width="5.23" points="386,-222.42 375.04,-221.49 381.5,-230.39 386,-222.42"/>
<text text-anchor="middle" x="443.5" y="-283.3" font-family="Times,serif" font-size="14.00">196</text>
</g>
<!-- Record Invoice Receipt&#45;&gt;Remove Payment Block -->
<g id="edge11" class="edge">
<title>Record Invoice Receipt&#45;&gt;Remove Payment Block</title>
<path fill="none" stroke="#000000" stroke-width="3.06" d="M284.63,-355.59C254,-342.7 211.95,-325.01 178.57,-310.96"/>
<polygon fill="#000000" stroke="#000000" stroke-width="3.06" points="180.16,-307.83 169.58,-307.18 177.44,-314.29 180.16,-307.83"/>
<text text-anchor="middle" x="248.5" y="-326.8" font-family="Times,serif" font-size="14.00">109</text>
</g>
<!-- Cancel Subsequent Invoice -->
<g id="node16" class="node">
<title>Cancel Subsequent Invoice</title>
<polygon fill="#ffffff" stroke="black" points="418,-305 234,-305 234,-269 418,-269 418,-305"/>
<text text-anchor="middle" x="326" y="-283.3" font-family="Times,serif" font-size="14.00">Cancel Subsequent Invoice (6)</text>
</g>
<!-- Record Invoice Receipt&#45;&gt;Cancel Subsequent Invoice -->
<g id="edge26" class="edge">
<title>Record Invoice Receipt&#45;&gt;Cancel Subsequent Invoice</title>
<path fill="none" stroke="#ff0000" stroke-width="0.5" stroke-dasharray="5,2" d="M326,-355.8C326,-344.35 326,-329.06 326,-315.89"/>
<polygon fill="#ff0000" stroke="#ff0000" stroke-width="0.5" points="329.5,-316.22 326,-306.22 322.5,-316.22 329.5,-316.22"/>
<text text-anchor="middle" x="329.5" y="-326.8" font-family="Times,serif" font-size="14.00">6</text>
</g>
<!-- Record Invoice Receipt&#45;&gt;end_node -->
<g id="edge34" class="edge">
<title>Record Invoice Receipt&#45;&gt;end_node</title>
<path fill="none" stroke="#000000" stroke-width="2.32" d="M415.28,-363.04C459.27,-352.63 503,-331.38 503,-288 503,-288 503,-288 503,-112 503,-94.07 503,-74.12 503,-57.65"/>
<polygon fill="#000000" stroke="#000000" stroke-width="2.32" points="506.5,-57.73 503,-47.73 499.5,-57.73 506.5,-57.73"/>
<text text-anchor="middle" x="510" y="-196.3" font-family="Times,serif" font-size="14.00">79</text>
</g>
<!-- Clear Invoice&#45;&gt;Clear Invoice -->
<g id="edge28" class="edge">
<title>Clear Invoice&#45;&gt;Clear Invoice</title>
<path fill="none" stroke="#ff0000" stroke-width="0.5" stroke-dasharray="5,2" d="M388,-207.58C398.35,-206.52 405.5,-203.99 405.5,-200 405.5,-197.57 402.85,-195.68 398.43,-194.33"/>
<polygon fill="#ff0000" stroke="#ff0000" stroke-width="0.5" points="399.21,-190.92 388.74,-192.56 397.95,-197.8 399.21,-190.92"/>
<text text-anchor="middle" x="409" y="-196.3" font-family="Times,serif" font-size="14.00">6</text>
</g>
<!-- Cancel Invoice Receipt -->
<g id="node14" class="node">
<title>Cancel Invoice Receipt</title>
<polygon fill="#fefeff" stroke="black" points="474.5,-131 311.5,-131 311.5,-95 474.5,-95 474.5,-131"/>
<text text-anchor="middle" x="393" y="-109.3" font-family="Times,serif" font-size="14.00">Cancel Invoice Receipt (7)</text>
</g>
<!-- Clear Invoice&#45;&gt;Cancel Invoice Receipt -->
<g id="edge23" class="edge">
<title>Clear Invoice&#45;&gt;Cancel Invoice Receipt</title>
<path fill="none" stroke="#ff0000" stroke-width="0.52" stroke-dasharray="5,2" d="M339.56,-181.8C349.03,-169.78 361.85,-153.52 372.56,-139.94"/>
<polygon fill="#ff0000" stroke="#ff0000" stroke-width="0.52" points="375.3,-142.11 378.74,-132.09 369.8,-137.78 375.3,-142.11"/>
<text text-anchor="middle" x="367.5" y="-152.8" font-family="Times,serif" font-size="14.00">7</text>
</g>
<!-- Clear Invoice&#45;&gt;end_node -->
<g id="edge32" class="edge">
<title>Clear Invoice&#45;&gt;end_node</title>
<path fill="none" stroke="#000000" stroke-width="7.69" d="M308.22,-181.6C288.26,-159.91 261.1,-122.37 281,-95 322.98,-37.25 412.36,-24.89 463.99,-22.79"/>
<polygon fill="#000000" stroke="#000000" stroke-width="7.69" points="463.81,-29.53 473.65,-22.58 463.5,-16.07 463.81,-29.53"/>
<text text-anchor="middle" x="291.5" y="-109.3" font-family="Times,serif" font-size="14.00">295</text>
</g>
<!-- Delete Purchase Order Item&#45;&gt;Change Approval for Purchase Order -->
<g id="edge29" class="edge">
<title>Delete Purchase Order Item&#45;&gt;Change Approval for Purchase Order</title>
<path fill="none" stroke="#ff0000" stroke-width="0.5" stroke-dasharray="5,2" d="M621.9,-790.59C644.14,-777.64 674.7,-759.85 698.88,-745.77"/>
<polygon fill="#ff0000" stroke="#ff0000" stroke-width="0.5" points="700.61,-748.82 707.49,-740.76 697.09,-742.77 700.61,-748.82"/>
<text text-anchor="middle" x="676.5" y="-761.8" font-family="Times,serif" font-size="14.00">6</text>
</g>
<!-- Delete Purchase Order Item&#45;&gt;end_node -->
<g id="edge33" class="edge">
<title>Delete Purchase Order Item&#45;&gt;end_node</title>
<path fill="none" stroke="#000000" stroke-width="2.29" d="M590.39,-790.76C588.93,-773.6 587,-746.5 587,-723 587,-723 587,-723 587,-112 587,-80.01 557.94,-54.86 534.01,-39.58"/>
<polygon fill="#000000" stroke="#000000" stroke-width="2.29" points="535.84,-36.59 525.46,-34.47 532.25,-42.6 535.84,-36.59"/>
<text text-anchor="middle" x="594" y="-413.8" font-family="Times,serif" font-size="14.00">78</text>
</g>
<!-- Remove Payment Block&#45;&gt;Clear Invoice -->
<g id="edge12" class="edge">
<title>Remove Payment Block&#45;&gt;Clear Invoice</title>
<path fill="none" stroke="#000000" stroke-width="2.84" d="M165.37,-268.59C196.14,-255.64 238.42,-237.85 271.88,-223.77"/>
<polygon fill="#000000" stroke="#000000" stroke-width="2.84" points="272.87,-227.15 280.73,-220.05 270.15,-220.7 272.87,-227.15"/>
<text text-anchor="middle" x="248.5" y="-239.8" font-family="Times,serif" font-size="14.00">100</text>
</g>
<!-- Remove Payment Block&#45;&gt;end_node -->
<g id="edge36" class="edge">
<title>Remove Payment Block&#45;&gt;end_node</title>
<path fill="none" stroke="#000000" stroke-width="0.72" d="M131.86,-268.51C152.16,-225.52 210.79,-114.37 296,-62 350.22,-28.67 426.4,-22.64 469.61,-22.18"/>
<polygon fill="#000000" stroke="#000000" stroke-width="0.72" points="469.53,-25.68 479.53,-22.19 469.53,-18.68 469.53,-25.68"/>
<text text-anchor="middle" x="210" y="-152.8" font-family="Times,serif" font-size="14.00">15</text>
</g>
<!-- Change Quantity&#45;&gt;Vendor creates invoice -->
<g id="edge14" class="edge">
<title>Change Quantity&#45;&gt;Vendor creates invoice</title>
<path fill="none" stroke="#000000" stroke-width="0.95" d="M337.16,-790.8C322.04,-778.32 301.38,-761.28 284.56,-747.4"/>
<polygon fill="#000000" stroke="#000000" stroke-width="0.95" points="287.21,-745.05 277.27,-741.38 282.76,-750.44 287.21,-745.05"/>
<text text-anchor="middle" x="320" y="-761.8" font-family="Times,serif" font-size="14.00">24</text>
</g>
<!-- Receive Order Confirmation&#45;&gt;Record Goods Receipt -->
<g id="edge16" class="edge">
<title>Receive Order Confirmation&#45;&gt;Record Goods Receipt</title>
<path fill="none" stroke="#000000" stroke-width="2.19" d="M454.35,-703.61C447.28,-680.51 431.65,-639.97 404,-617 370.35,-589.06 325.25,-572.57 284.73,-562.86"/>
<polygon fill="#000000" stroke="#000000" stroke-width="2.19" points="285.51,-559.45 274.99,-560.67 283.97,-566.28 285.51,-559.45"/>
<text text-anchor="middle" x="440" y="-631.3" font-family="Times,serif" font-size="14.00">74</text>
</g>
<!-- Receive Order Confirmation&#45;&gt;Change Price -->
<g id="edge21" class="edge">
<title>Receive Order Confirmation&#45;&gt;Change Price</title>
<path fill="none" stroke="#000000" stroke-width="0.72" d="M434.02,-703.59C415.84,-690.93 391.02,-673.64 371.04,-659.71"/>
<polygon fill="#000000" stroke="#000000" stroke-width="0.72" points="373.05,-656.85 362.85,-654.01 369.05,-662.6 373.05,-656.85"/>
<text text-anchor="middle" x="413" y="-674.8" font-family="Times,serif" font-size="14.00">15</text>
</g>
<!-- Receive Order Confirmation&#45;&gt;end_node -->
<g id="edge37" class="edge">
<title>Receive Order Confirmation&#45;&gt;end_node</title>
<path fill="none" stroke="#ff0000" stroke-width="0.6" stroke-dasharray="5,2" d="M493.98,-703.79C517.79,-689.35 545,-666.23 545,-636 545,-636 545,-636 545,-112 545,-89.08 533.47,-65.74 522.49,-48.72"/>
<polygon fill="#ff0000" stroke="#ff0000" stroke-width="0.6" points="525.55,-47 517.03,-40.7 519.76,-50.94 525.55,-47"/>
<text text-anchor="middle" x="552" y="-370.3" font-family="Times,serif" font-size="14.00">10</text>
</g>
<!-- Change Price&#45;&gt;Record Goods Receipt -->
<g id="edge22" class="edge">
<title>Change Price&#45;&gt;Record Goods Receipt</title>
<path fill="none" stroke="#000000" stroke-width="0.72" d="M309.25,-616.59C293.26,-606.74 272.69,-594.35 254,-584 246.48,-579.84 238.41,-575.57 230.53,-571.51"/>
<polygon fill="#000000" stroke="#000000" stroke-width="0.72" points="232.19,-568.42 221.69,-566.99 229.01,-574.66 232.19,-568.42"/>
<text text-anchor="middle" x="287" y="-587.8" font-family="Times,serif" font-size="14.00">15</text>
</g>
<!-- Change Price&#45;&gt;Record Invoice Receipt -->
<g id="edge19" class="edge">
<title>Change Price&#45;&gt;Record Invoice Receipt</title>
<path fill="none" stroke="#000000" stroke-width="0.65" d="M355.68,-616.57C389.72,-582.6 455.48,-505.43 423,-443 412.9,-423.58 394.43,-408.55 376.29,-397.62"/>
<polygon fill="#000000" stroke="#000000" stroke-width="0.65" points="378.16,-394.66 367.74,-392.76 374.71,-400.75 378.16,-394.66"/>
<text text-anchor="middle" x="437" y="-500.8" font-family="Times,serif" font-size="14.00">12</text>
</g>
<!-- Change Approval for Purchase Order&#45;&gt;end_node -->
<g id="edge39" class="edge">
<title>Change Approval for Purchase Order&#45;&gt;end_node</title>
<path fill="none" stroke="#000000" stroke-width="0.72" d="M719.52,-703.65C704.57,-687.66 686,-662.47 686,-636 686,-636 686,-636 686,-112 686,-46.01 588.57,-28.94 535.89,-24.53"/>
<polygon fill="#000000" stroke="#000000" stroke-width="0.72" points="536.39,-21.05 526.17,-23.83 535.89,-28.04 536.39,-21.05"/>
<text text-anchor="middle" x="693" y="-370.3" font-family="Times,serif" font-size="14.00">15</text>
</g>
<!-- Cancel Invoice Receipt&#45;&gt;end_node -->
<g id="edge40" class="edge">
<title>Cancel Invoice Receipt&#45;&gt;end_node</title>
<path fill="none" stroke="#ff0000" stroke-width="0.52" stroke-dasharray="5,2" d="M414.47,-94.63C432.69,-79.89 458.84,-58.73 478,-43.23"/>
<polygon fill="#ff0000" stroke="#ff0000" stroke-width="0.52" points="480.07,-46.06 485.64,-37.05 475.66,-40.62 480.07,-46.06"/>
<text text-anchor="middle" x="458.5" y="-65.8" font-family="Times,serif" font-size="14.00">7</text>
</g>
<!-- Vendor creates debit memo&#45;&gt;Record Invoice Receipt -->
<g id="edge25" class="edge">
<title>Vendor creates debit memo&#45;&gt;Record Invoice Receipt</title>
<path fill="none" stroke="#ff0000" stroke-width="0.5" stroke-dasharray="5,2" d="M322.01,-442.8C322.69,-431.35 323.58,-416.06 324.36,-402.89"/>
<polygon fill="#ff0000" stroke="#ff0000" stroke-width="0.5" points="327.83,-403.41 324.93,-393.22 320.85,-403 327.83,-403.41"/>
<text text-anchor="middle" x="327.5" y="-413.8" font-family="Times,serif" font-size="14.00">6</text>
</g>
<!-- Cancel Subsequent Invoice&#45;&gt;Clear Invoice -->
<g id="edge27" class="edge">
<title>Cancel Subsequent Invoice&#45;&gt;Clear Invoice</title>
<path fill="none" stroke="#ff0000" stroke-width="0.5" stroke-dasharray="5,2" d="M326,-268.8C326,-257.35 326,-242.06 326,-228.89"/>
<polygon fill="#ff0000" stroke="#ff0000" stroke-width="0.5" points="329.5,-229.22 326,-219.22 322.5,-229.22 329.5,-229.22"/>
<text text-anchor="middle" x="329.5" y="-239.8" font-family="Times,serif" font-size="14.00">6</text>
</g>
</g>
</svg>
