<?xml version="1.0" encoding="UTF-8" standalone="no"?>
<!DOCTYPE svg PUBLIC "-//W3C//DTD SVG 1.1//EN"
 "http://www.w3.org/Graphics/SVG/1.1/DTD/svg11.dtd">
<!-- Generated by graphviz version 7.0.5 (0)
 -->
<!-- Title: dfg Pages: 1 -->
<svg width="594pt" height="856pt"
 viewBox="0.00 0.00 593.50 856.00" xmlns="http://www.w3.org/2000/svg" xmlns:xlink="http://www.w3.org/1999/xlink">
<g id="graph0" class="graph" transform="scale(1 1) rotate(0) translate(4 852)">
<title>dfg</title>
<polygon fill="white" stroke="none" points="-4,4 -4,-852 589.5,-852 589.5,4 -4,4"/>
<!-- start_node -->
<g id="node1" class="node">
<title>start_node</title>
<ellipse fill="none" stroke="black" cx="293.5" cy="-830" rx="18" ry="18"/>
<text text-anchor="start" x="289" y="-826.3" font-family="Times,serif" font-size="14.00">●</text>
</g>
<!-- Create Purchase Order Item -->
<g id="node2" class="node">
<title>Create Purchase Order Item</title>
<polygon fill="#9b9bff" stroke="black" points="385,-674 170,-674 170,-638 385,-638 385,-674"/>
<text text-anchor="middle" x="277.5" y="-652.3" font-family="Times,serif" font-size="14.00">Create Purchase Order Item (17820)</text>
</g>
<!-- start_node&#45;&gt;Create Purchase Order Item -->
<g id="edge1" class="edge">
<title>start_node&#45;&gt;Create Purchase Order Item</title>
<path fill="none" stroke="#000000" stroke-width="7.04" d="M275.25,-827.68C240.08,-824.03 163.49,-810.5 130.5,-761 106.59,-725.12 151.1,-697.72 197.26,-680.07"/>
<polygon fill="#000000" stroke="#000000" stroke-width="7.04" points="199.23,-685.91 206.56,-676.73 195.06,-674.31 199.23,-685.91"/>
<text text-anchor="middle" x="147.5" y="-739.3" font-family="Times,serif" font-size="14.00">14500</text>
</g>
<!-- Vendor creates invoice -->
<g id="node3" class="node">
<title>Vendor creates invoice</title>
<polygon fill="#a9a9ff" stroke="black" points="535,-587 348,-587 348,-551 535,-551 535,-587"/>
<text text-anchor="middle" x="441.5" y="-565.3" font-family="Times,serif" font-size="14.00">Vendor creates invoice (15478)</text>
</g>
<!-- start_node&#45;&gt;Vendor creates invoice -->
<g id="edge2" class="edge">
<title>start_node&#45;&gt;Vendor creates invoice</title>
<path fill="none" stroke="#000000" stroke-width="0.94" d="M311.26,-825.29C340.02,-818.26 396.21,-800.07 422.5,-761 455.63,-711.77 451.86,-638.61 446.5,-598.63"/>
<polygon fill="#000000" stroke="#000000" stroke-width="0.94" points="449.97,-598.14 445.03,-588.76 443.04,-599.17 449.97,-598.14"/>
<text text-anchor="middle" x="460.5" y="-695.8" font-family="Times,serif" font-size="14.00">1334</text>
</g>
<!-- Create Purchase Requisition Item -->
<g id="node4" class="node">
<title>Create Purchase Requisition Item</title>
<polygon fill="#f9f9ff" stroke="black" points="413,-761 174,-761 174,-725 413,-725 413,-761"/>
<text text-anchor="middle" x="293.5" y="-739.3" font-family="Times,serif" font-size="14.00">Create Purchase Requisition Item (1986)</text>
</g>
<!-- start_node&#45;&gt;Create Purchase Requisition Item -->
<g id="edge3" class="edge">
<title>start_node&#45;&gt;Create Purchase Requisition Item</title>
<path fill="none" stroke="#000000" stroke-width="1.24" d="M293.5,-811.8C293.5,-800.7 293.5,-785.97 293.5,-773.08"/>
<polygon fill="#000000" stroke="#000000" stroke-width="1.24" points="297,-773.35 293.5,-763.35 290,-773.35 297,-773.35"/>
<text text-anchor="middle" x="307.5" y="-782.8" font-family="Times,serif" font-size="14.00">1986</text>
</g>
<!-- Create Purchase Order Item&#45;&gt;Vendor creates invoice -->
<g id="edge4" class="edge">
<title>Create Purchase Order Item&#45;&gt;Vendor creates invoice</title>
<path fill="none" stroke="#000000" stroke-width="5.17" d="M298.45,-637.73C313.78,-625.31 333.43,-609.93 342.5,-605 350.36,-600.73 358.83,-596.81 367.41,-593.27"/>
<polygon fill="#000000" stroke="#000000" stroke-width="5.17" points="368.8,-597.58 376.49,-589.75 365.53,-589.15 368.8,-597.58"/>
<text text-anchor="middle" x="359.5" y="-608.8" font-family="Times,serif" font-size="14.00">10453</text>
</g>
<!-- Record Goods Receipt -->
<g id="node5" class="node">
<title>Record Goods Receipt</title>
<polygon fill="#a5a5ff" stroke="black" points="550.5,-392 364.5,-392 364.5,-356 550.5,-356 550.5,-392"/>
<text text-anchor="middle" x="457.5" y="-370.3" font-family="Times,serif" font-size="14.00">Record Goods Receipt (16071)</text>
</g>
<!-- Create Purchase Order Item&#45;&gt;Record Goods Receipt -->
<g id="edge8" class="edge">
<title>Create Purchase Order Item&#45;&gt;Record Goods Receipt</title>
<path fill="none" stroke="#000000" stroke-width="2.56" d="M271.93,-637.66C260.59,-598.79 239.29,-503.33 281.5,-443 298.12,-419.25 324.27,-403.79 351.39,-393.74"/>
<polygon fill="#000000" stroke="#000000" stroke-width="2.56" points="352.29,-397.13 360.64,-390.6 350.04,-390.5 352.29,-397.13"/>
<text text-anchor="middle" x="274.5" y="-511.3" font-family="Times,serif" font-size="14.00">4839</text>
</g>
<!-- Delete Purchase Order Item -->
<g id="node8" class="node">
<title>Delete Purchase Order Item</title>
<polygon fill="#ffffff" stroke="black" points="209,-533 0,-533 0,-497 209,-497 209,-533"/>
<text text-anchor="middle" x="104.5" y="-511.3" font-family="Times,serif" font-size="14.00">Delete Purchase Order Item (1147)</text>
</g>
<!-- Create Purchase Order Item&#45;&gt;Delete Purchase Order Item -->
<g id="edge13" class="edge">
<title>Create Purchase Order Item&#45;&gt;Delete Purchase Order Item</title>
<path fill="none" stroke="#000000" stroke-width="0.85" d="M214.56,-637.65C203.28,-632.96 192.09,-627.14 182.5,-620 154.75,-599.33 132.26,-566.12 118.69,-542.8"/>
<polygon fill="#000000" stroke="#000000" stroke-width="0.85" points="121.85,-541.29 113.89,-534.29 115.75,-544.72 121.85,-541.29"/>
<text text-anchor="middle" x="196.5" y="-608.8" font-family="Times,serif" font-size="14.00">1147</text>
</g>
<!-- Change Quantity -->
<g id="node10" class="node">
<title>Change Quantity</title>
<polygon fill="#fefeff" stroke="black" points="440,-479 291,-479 291,-443 440,-443 440,-479"/>
<text text-anchor="middle" x="365.5" y="-457.3" font-family="Times,serif" font-size="14.00">Change Quantity (1165)</text>
</g>
<!-- Create Purchase Order Item&#45;&gt;Change Quantity -->
<g id="edge18" class="edge">
<title>Create Purchase Order Item&#45;&gt;Change Quantity</title>
<path fill="none" stroke="#000000" stroke-width="0.68" d="M283.61,-637.83C291.16,-617 304.73,-580.98 318.5,-551 328.26,-529.76 340.65,-506.42 350.26,-488.97"/>
<polygon fill="#000000" stroke="#000000" stroke-width="0.68" points="353.26,-490.79 355.05,-480.35 347.14,-487.39 353.26,-490.79"/>
<text text-anchor="middle" x="329" y="-565.3" font-family="Times,serif" font-size="14.00">779</text>
</g>
<!-- end_node -->
<g id="node11" class="node">
<title>end_node</title>
<ellipse fill="none" stroke="black" cx="270.5" cy="-22" rx="18" ry="18"/>
<ellipse fill="none" stroke="black" cx="270.5" cy="-22" rx="22" ry="22"/>
<text text-anchor="start" x="266" y="-18.3" font-family="Times,serif" font-size="14.00">■</text>
</g>
<!-- Create Purchase Order Item&#45;&gt;end_node -->
<g id="edge24" class="edge">
<title>Create Purchase Order Item&#45;&gt;end_node</title>
<path fill="none" stroke="#ff0000" stroke-width="0.6" stroke-dasharray="5,2" d="M258.66,-637.71C243.43,-621.77 224.5,-596.61 224.5,-570 224.5,-570 224.5,-570 224.5,-112 224.5,-88.15 237.69,-64.32 249.95,-47.33"/>
<polygon fill="#ff0000" stroke="#ff0000" stroke-width="0.6" points="252.39,-49.91 255.65,-39.83 246.81,-45.67 252.39,-49.91"/>
<text text-anchor="middle" x="235" y="-326.8" font-family="Times,serif" font-size="14.00">602</text>
</g>
<!-- Vendor creates invoice&#45;&gt;Create Purchase Order Item -->
<g id="edge11" class="edge">
<title>Vendor creates invoice&#45;&gt;Create Purchase Order Item</title>
<path fill="none" stroke="#000000" stroke-width="0.94" d="M420.55,-587.27C405.22,-599.69 385.57,-615.07 376.5,-620 367.29,-625.01 357.22,-629.53 347.14,-633.54"/>
<polygon fill="#000000" stroke="#000000" stroke-width="0.94" points="346.1,-630.19 338,-637.01 348.59,-636.73 346.1,-630.19"/>
<text text-anchor="middle" x="411.5" y="-608.8" font-family="Times,serif" font-size="14.00">1334</text>
</g>
<!-- Vendor creates invoice&#45;&gt;Record Goods Receipt -->
<g id="edge5" class="edge">
<title>Vendor creates invoice&#45;&gt;Record Goods Receipt</title>
<path fill="none" stroke="#000000" stroke-width="4.98" d="M472.09,-550.66C478.88,-545.67 485.53,-539.73 490.5,-533 505.53,-512.65 504.45,-503.97 508.5,-479 513.58,-447.72 509.11,-435.65 490.5,-410 489.12,-408.1 487.65,-406.19 486.11,-404.31"/>
<polygon fill="#000000" stroke="#000000" stroke-width="4.98" points="489.59,-401.65 479.7,-397.06 483.06,-407.44 489.59,-401.65"/>
<text text-anchor="middle" x="526.5" y="-457.3" font-family="Times,serif" font-size="14.00">10058</text>
</g>
<!-- Record Invoice Receipt -->
<g id="node6" class="node">
<title>Record Invoice Receipt</title>
<polygon fill="#a7a7ff" stroke="black" points="540,-305 349,-305 349,-269 540,-269 540,-305"/>
<text text-anchor="middle" x="444.5" y="-283.3" font-family="Times,serif" font-size="14.00">Record Invoice Receipt (15765)</text>
</g>
<!-- Vendor creates invoice&#45;&gt;Record Invoice Receipt -->
<g id="edge10" class="edge">
<title>Vendor creates invoice&#45;&gt;Record Invoice Receipt</title>
<path fill="none" stroke="#000000" stroke-width="2.04" d="M485.17,-550.56C494.44,-545.69 503.76,-539.83 511.5,-533 561.13,-489.19 554.97,-458.04 559.5,-392 560.6,-376.04 567.43,-369.9 559.5,-356 548.21,-336.21 528.66,-321.6 508.84,-311.1"/>
<polygon fill="#000000" stroke="#000000" stroke-width="2.04" points="510.49,-308.01 499.97,-306.75 507.4,-314.29 510.49,-308.01"/>
<text text-anchor="middle" x="571.5" y="-413.8" font-family="Times,serif" font-size="14.00">3700</text>
</g>
<!-- Vendor creates invoice&#45;&gt;Change Quantity -->
<g id="edge20" class="edge">
<title>Vendor creates invoice&#45;&gt;Change Quantity</title>
<path fill="none" stroke="#ff0000" stroke-width="0.5" stroke-dasharray="5,2" d="M392.95,-550.7C385.41,-546.03 378.48,-540.21 373.5,-533 364.94,-520.59 362.71,-503.97 362.72,-489.92"/>
<polygon fill="#ff0000" stroke="#ff0000" stroke-width="0.5" points="366.21,-490.23 363.1,-480.1 359.21,-489.95 366.21,-490.23"/>
<text text-anchor="middle" x="384" y="-511.3" font-family="Times,serif" font-size="14.00">386</text>
</g>
<!-- Create Purchase Requisition Item&#45;&gt;Create Purchase Order Item -->
<g id="edge12" class="edge">
<title>Create Purchase Requisition Item&#45;&gt;Create Purchase Order Item</title>
<path fill="none" stroke="#000000" stroke-width="1.24" d="M290.26,-724.8C288.17,-713.7 285.4,-698.97 282.97,-686.08"/>
<polygon fill="#000000" stroke="#000000" stroke-width="1.24" points="286.43,-685.49 281.14,-676.31 279.55,-686.79 286.43,-685.49"/>
<text text-anchor="middle" x="300.5" y="-695.8" font-family="Times,serif" font-size="14.00">1986</text>
</g>
<!-- Record Goods Receipt&#45;&gt;Vendor creates invoice -->
<g id="edge9" class="edge">
<title>Record Goods Receipt&#45;&gt;Vendor creates invoice</title>
<path fill="none" stroke="#000000" stroke-width="1.81" d="M456.72,-392.1C455.29,-421.13 451.93,-481.87 446.5,-533 446.32,-534.7 446.12,-536.45 445.9,-538.21"/>
<polygon fill="#000000" stroke="#000000" stroke-width="1.81" points="442.47,-537.49 444.61,-547.87 449.41,-538.42 442.47,-537.49"/>
<text text-anchor="middle" x="467.5" y="-457.3" font-family="Times,serif" font-size="14.00">3217</text>
</g>
<!-- Record Goods Receipt&#45;&gt;Record Invoice Receipt -->
<g id="edge6" class="edge">
<title>Record Goods Receipt&#45;&gt;Record Invoice Receipt</title>
<path fill="none" stroke="#000000" stroke-width="5.91" d="M460.84,-355.7C462.14,-345.99 462.83,-333.71 460.5,-323 460.32,-322.16 460.11,-321.31 459.88,-320.46"/>
<polygon fill="#000000" stroke="#000000" stroke-width="5.91" points="464.81,-318.85 456.44,-311.31 455.12,-322.5 464.81,-318.85"/>
<text text-anchor="middle" x="478.5" y="-326.8" font-family="Times,serif" font-size="14.00">12065</text>
</g>
<!-- Remove Payment Block -->
<g id="node9" class="node">
<title>Remove Payment Block</title>
<polygon fill="#f9f9ff" stroke="black" points="537.5,-218 347.5,-218 347.5,-182 537.5,-182 537.5,-218"/>
<text text-anchor="middle" x="442.5" y="-196.3" font-family="Times,serif" font-size="14.00">Remove Payment Block (2040)</text>
</g>
<!-- Record Goods Receipt&#45;&gt;Remove Payment Block -->
<g id="edge17" class="edge">
<title>Record Goods Receipt&#45;&gt;Remove Payment Block</title>
<path fill="none" stroke="#ff0000" stroke-width="0.54" stroke-dasharray="5,2" d="M495.39,-355.76C515.41,-344.43 538.14,-327.52 549.5,-305 556.71,-290.71 557.2,-283.02 549.5,-269 538.53,-249.02 518.92,-234.08 499.47,-223.37"/>
<polygon fill="#ff0000" stroke="#ff0000" stroke-width="0.54" points="501.19,-220.32 490.7,-218.83 497.97,-226.53 501.19,-220.32"/>
<text text-anchor="middle" x="565" y="-283.3" font-family="Times,serif" font-size="14.00">483</text>
</g>
<!-- Record Goods Receipt&#45;&gt;end_node -->
<g id="edge26" class="edge">
<title>Record Goods Receipt&#45;&gt;end_node</title>
<path fill="none" stroke="#ff0000" stroke-width="0.46" stroke-dasharray="5,2" d="M364,-364.74C317.25,-354.9 270.5,-333.65 270.5,-288 270.5,-288 270.5,-288 270.5,-112 270.5,-92.99 270.5,-71.69 270.5,-54.7"/>
<polygon fill="#ff0000" stroke="#ff0000" stroke-width="0.46" points="274,-54.92 270.5,-44.92 267,-54.92 274,-54.92"/>
<text text-anchor="middle" x="281" y="-196.3" font-family="Times,serif" font-size="14.00">306</text>
</g>
<!-- Record Invoice Receipt&#45;&gt;Record Goods Receipt -->
<g id="edge16" class="edge">
<title>Record Invoice Receipt&#45;&gt;Record Goods Receipt</title>
<path fill="none" stroke="#ff0000" stroke-width="0.54" stroke-dasharray="5,2" d="M437.51,-305.32C434.55,-315.04 432.42,-327.32 435.5,-338 436.31,-340.81 437.42,-343.62 438.72,-346.34"/>
<polygon fill="#ff0000" stroke="#ff0000" stroke-width="0.54" points="435.65,-348.04 443.6,-355.05 441.76,-344.61 435.65,-348.04"/>
<text text-anchor="middle" x="446" y="-326.8" font-family="Times,serif" font-size="14.00">483</text>
</g>
<!-- Clear Invoice -->
<g id="node7" class="node">
<title>Clear Invoice</title>
<polygon fill="#b0b0ff" stroke="black" points="511,-131 374,-131 374,-95 511,-95 511,-131"/>
<text text-anchor="middle" x="442.5" y="-109.3" font-family="Times,serif" font-size="14.00">Clear Invoice (14292)</text>
</g>
<!-- Record Invoice Receipt&#45;&gt;Clear Invoice -->
<g id="edge7" class="edge">
<title>Record Invoice Receipt&#45;&gt;Clear Invoice</title>
<path fill="none" stroke="#000000" stroke-width="6" d="M488.75,-268.56C510.31,-257.54 534.2,-240.99 546.5,-218 554.05,-203.89 554.11,-196.07 546.5,-182 536.71,-163.9 519.77,-149.85 502.38,-139.34"/>
<polygon fill="#000000" stroke="#000000" stroke-width="6" points="505.08,-134.83 493.78,-134.61 500.01,-144.03 505.08,-134.83"/>
<text text-anchor="middle" x="568.5" y="-196.3" font-family="Times,serif" font-size="14.00">12252</text>
</g>
<!-- Record Invoice Receipt&#45;&gt;Remove Payment Block -->
<g id="edge14" class="edge">
<title>Record Invoice Receipt&#45;&gt;Remove Payment Block</title>
<path fill="none" stroke="#000000" stroke-width="1.04" d="M444.1,-268.8C443.83,-257.58 443.48,-242.67 443.17,-229.69"/>
<polygon fill="#000000" stroke="#000000" stroke-width="1.04" points="446.68,-229.96 442.95,-220.05 439.68,-230.12 446.68,-229.96"/>
<text text-anchor="middle" x="457.5" y="-239.8" font-family="Times,serif" font-size="14.00">1557</text>
</g>
<!-- Record Invoice Receipt&#45;&gt;end_node -->
<g id="edge25" class="edge">
<title>Record Invoice Receipt&#45;&gt;end_node</title>
<path fill="none" stroke="#000000" d="M404.74,-268.63C382.52,-257.12 355.88,-240.08 338.5,-218 293.12,-160.35 308.89,-131.2 284.5,-62 283.56,-59.33 282.57,-56.56 281.59,-53.78"/>
<polygon fill="#000000" stroke="#000000" points="284.99,-52.89 278.32,-44.66 278.4,-55.25 284.99,-52.89"/>
<text text-anchor="middle" x="321.5" y="-152.8" font-family="Times,serif" font-size="14.00">1473</text>
</g>
<!-- Clear Invoice&#45;&gt;end_node -->
<g id="edge22" class="edge">
<title>Clear Invoice&#45;&gt;end_node</title>
<path fill="none" stroke="#000000" stroke-width="6.95" d="M408.93,-94.63C378.62,-78.95 334.28,-56 304,-40.33"/>
<polygon fill="#000000" stroke="#000000" stroke-width="6.95" points="307.21,-35.15 295.53,-35.95 301.62,-45.95 307.21,-35.15"/>
<text text-anchor="middle" x="388.5" y="-65.8" font-family="Times,serif" font-size="14.00">14292</text>
</g>
<!-- Delete Purchase Order Item&#45;&gt;end_node -->
<g id="edge23" class="edge">
<title>Delete Purchase Order Item&#45;&gt;end_node</title>
<path fill="none" stroke="#000000" stroke-width="0.85" d="M114.1,-496.63C123.53,-477.93 136.5,-447 136.5,-418.5 136.5,-418.5 136.5,-418.5 136.5,-112 136.5,-63.47 198.23,-39.82 237.9,-29.63"/>
<polygon fill="#000000" stroke="#000000" stroke-width="0.85" points="238.51,-33.08 247.42,-27.35 236.88,-26.27 238.51,-33.08"/>
<text text-anchor="middle" x="150.5" y="-283.3" font-family="Times,serif" font-size="14.00">1147</text>
</g>
<!-- Remove Payment Block&#45;&gt;Clear Invoice -->
<g id="edge15" class="edge">
<title>Remove Payment Block&#45;&gt;Clear Invoice</title>
<path fill="none" stroke="#000000" stroke-width="1.27" d="M442.5,-181.8C442.5,-170.7 442.5,-155.97 442.5,-143.08"/>
<polygon fill="#000000" stroke="#000000" stroke-width="1.27" points="446,-143.38 442.5,-133.38 439,-143.38 446,-143.38"/>
<text text-anchor="middle" x="456.5" y="-152.8" font-family="Times,serif" font-size="14.00">2040</text>
</g>
<!-- Change Quantity&#45;&gt;Vendor creates invoice -->
<g id="edge19" class="edge">
<title>Change Quantity&#45;&gt;Vendor creates invoice</title>
<path fill="none" stroke="#ff0000" stroke-width="0.54" stroke-dasharray="5,2" d="M383.05,-479.16C388.28,-484.64 393.85,-490.88 398.5,-497 409.1,-510.94 419.33,-527.64 427.14,-541.34"/>
<polygon fill="#ff0000" stroke="#ff0000" stroke-width="0.54" points="424.05,-542.97 431.98,-549.99 430.15,-539.56 424.05,-542.97"/>
<text text-anchor="middle" x="432" y="-511.3" font-family="Times,serif" font-size="14.00">474</text>
</g>
<!-- Change Quantity&#45;&gt;Record Goods Receipt -->
<g id="edge21" class="edge">
<title>Change Quantity&#45;&gt;Record Goods Receipt</title>
<path fill="none" stroke="#000000" stroke-width="0.64" d="M384.12,-442.8C397.5,-430.44 415.73,-413.59 430.68,-399.78"/>
<polygon fill="#000000" stroke="#000000" stroke-width="0.64" points="432.91,-402.48 437.88,-393.13 428.16,-397.34 432.91,-402.48"/>
<text text-anchor="middle" x="427" y="-413.8" font-family="Times,serif" font-size="14.00">691</text>
</g>
</g>
</svg>
