<?xml version="1.0" encoding="UTF-8" standalone="no"?>
<!DOCTYPE svg PUBLIC "-//W3C//DTD SVG 1.1//EN"
 "http://www.w3.org/Graphics/SVG/1.1/DTD/svg11.dtd">
<!-- Generated by graphviz version 7.0.5 (0)
 -->
<!-- Title: dfg Pages: 1 -->
<svg width="823pt" height="1204pt"
 viewBox="0.00 0.00 823.00 1204.00" xmlns="http://www.w3.org/2000/svg" xmlns:xlink="http://www.w3.org/1999/xlink">
<g id="graph0" class="graph" transform="scale(1 1) rotate(0) translate(4 1200)">
<title>dfg</title>
<polygon fill="white" stroke="none" points="-4,4 -4,-1200 819,-1200 819,4 -4,4"/>
<!-- start_node -->
<g id="node1" class="node">
<title>start_node</title>
<ellipse fill="none" stroke="black" cx="134" cy="-1178" rx="18" ry="18"/>
<text text-anchor="start" x="129.5" y="-1174.3" font-family="Times,serif" font-size="14.00">●</text>
</g>
<!-- Create Purchase Order Item -->
<g id="node2" class="node">
<title>Create Purchase Order Item</title>
<polygon fill="#ccccff" stroke="black" points="235,-1022 33,-1022 33,-986 235,-986 235,-1022"/>
<text text-anchor="middle" x="134" y="-1000.3" font-family="Times,serif" font-size="14.00">Create Purchase Order Item (736)</text>
</g>
<!-- start_node&#45;&gt;Create Purchase Order Item -->
<g id="edge1" class="edge">
<title>start_node&#45;&gt;Create Purchase Order Item</title>
<path fill="none" stroke="#000000" stroke-width="4.85" d="M131.73,-1159.71C130.04,-1145.99 127.89,-1126.3 127,-1109 126.18,-1093.02 126.18,-1088.98 127,-1073 127.58,-1061.64 128.71,-1049.26 129.89,-1038.22"/>
<polygon fill="#000000" stroke="#000000" stroke-width="4.85" points="134.09,-1038.88 131.02,-1028.46 125.65,-1037.91 134.09,-1038.88"/>
<text text-anchor="middle" x="137.5" y="-1087.3" font-family="Times,serif" font-size="14.00">596</text>
</g>
<!-- Create Purchase Requisition Item -->
<g id="node3" class="node">
<title>Create Purchase Requisition Item</title>
<polygon fill="#f5f5ff" stroke="black" points="390.5,-1109 157.5,-1109 157.5,-1073 390.5,-1073 390.5,-1109"/>
<text text-anchor="middle" x="274" y="-1087.3" font-family="Times,serif" font-size="14.00">Create Purchase Requisition Item (140)</text>
</g>
<!-- start_node&#45;&gt;Create Purchase Requisition Item -->
<g id="edge2" class="edge">
<title>start_node&#45;&gt;Create Purchase Requisition Item</title>
<path fill="none" stroke="#000000" stroke-width="1.51" d="M149.25,-1167.74C169.61,-1155.38 206.4,-1133.04 234.77,-1115.82"/>
<polygon fill="#000000" stroke="#000000" stroke-width="1.51" points="236.5,-1118.86 243.23,-1110.68 232.87,-1112.88 236.5,-1118.86"/>
<text text-anchor="middle" x="222.5" y="-1130.8" font-family="Times,serif" font-size="14.00">140</text>
</g>
<!-- Receive Order Confirmation -->
<g id="node4" class="node">
<title>Receive Order Confirmation</title>
<polygon fill="#e4e4ff" stroke="black" points="330,-827 124,-827 124,-791 330,-791 330,-827"/>
<text text-anchor="middle" x="227" y="-805.3" font-family="Times,serif" font-size="14.00">Receive Order Confirmation (388)</text>
</g>
<!-- Create Purchase Order Item&#45;&gt;Receive Order Confirmation -->
<g id="edge3" class="edge">
<title>Create Purchase Order Item&#45;&gt;Receive Order Confirmation</title>
<path fill="none" stroke="#000000" stroke-width="3.29" d="M132.13,-985.57C130.57,-964.18 130.32,-927.28 143,-899 153.91,-874.67 174.31,-852.8 192.28,-836.83"/>
<polygon fill="#000000" stroke="#000000" stroke-width="3.29" points="194.45,-839.58 199.81,-830.44 189.92,-834.24 194.45,-839.58"/>
<text text-anchor="middle" x="153.5" y="-913.3" font-family="Times,serif" font-size="14.00">383</text>
</g>
<!-- Record Goods Receipt -->
<g id="node5" class="node">
<title>Record Goods Receipt</title>
<polygon fill="#a0a0ff" stroke="black" points="483.5,-740 304.5,-740 304.5,-704 483.5,-704 483.5,-740"/>
<text text-anchor="middle" x="394" y="-718.3" font-family="Times,serif" font-size="14.00">Record Goods Receipt (1381)</text>
</g>
<!-- Create Purchase Order Item&#45;&gt;Record Goods Receipt -->
<g id="edge12" class="edge">
<title>Create Purchase Order Item&#45;&gt;Record Goods Receipt</title>
<path fill="none" stroke="#000000" stroke-width="1.94" d="M235.31,-992.36C308.63,-982.33 398.77,-964.36 422,-935 464.22,-881.65 431.64,-796.03 409.72,-751.69"/>
<polygon fill="#000000" stroke="#000000" stroke-width="1.94" points="412.91,-750.25 405.23,-742.95 406.69,-753.45 412.91,-750.25"/>
<text text-anchor="middle" x="452.5" y="-859.3" font-family="Times,serif" font-size="14.00">199</text>
</g>
<!-- Vendor creates invoice -->
<g id="node6" class="node">
<title>Vendor creates invoice</title>
<polygon fill="#b5b5ff" stroke="black" points="448,-566 268,-566 268,-530 448,-530 448,-566"/>
<text text-anchor="middle" x="358" y="-544.3" font-family="Times,serif" font-size="14.00">Vendor creates invoice (1071)</text>
</g>
<!-- Create Purchase Order Item&#45;&gt;Vendor creates invoice -->
<g id="edge16" class="edge">
<title>Create Purchase Order Item&#45;&gt;Vendor creates invoice</title>
<path fill="none" stroke="#000000" stroke-width="1.53" d="M63.47,-985.6C31.19,-973 0,-952.02 0,-918 0,-918 0,-918 0,-634 0,-581.1 149.84,-561.07 255.64,-553.52"/>
<polygon fill="#000000" stroke="#000000" stroke-width="1.53" points="255.61,-557.03 265.35,-552.86 255.14,-550.05 255.61,-557.03"/>
<text text-anchor="middle" x="10.5" y="-761.8" font-family="Times,serif" font-size="14.00">143</text>
</g>
<!-- Change Price -->
<g id="node12" class="node">
<title>Change Price</title>
<polygon fill="#fefeff" stroke="black" points="124.5,-881 15.5,-881 15.5,-845 124.5,-845 124.5,-881"/>
<text text-anchor="middle" x="70" y="-859.3" font-family="Times,serif" font-size="14.00">Change Price (6)</text>
</g>
<!-- Create Purchase Order Item&#45;&gt;Change Price -->
<g id="edge30" class="edge">
<title>Create Purchase Order Item&#45;&gt;Change Price</title>
<path fill="none" stroke="#ff0000" stroke-width="0.52" stroke-dasharray="5,2" d="M123.01,-985.84C119.62,-980.25 115.99,-973.95 113,-968 100.23,-942.62 88.09,-912.51 79.99,-891.24"/>
<polygon fill="#ff0000" stroke="#ff0000" stroke-width="0.52" points="83.32,-890.15 76.52,-882.02 76.76,-892.61 83.32,-890.15"/>
<text text-anchor="middle" x="116.5" y="-956.8" font-family="Times,serif" font-size="14.00">6</text>
</g>
<!-- Change Approval for Purchase Order -->
<g id="node13" class="node">
<title>Change Approval for Purchase Order</title>
<polygon fill="#fefeff" stroke="black" points="412.5,-935 173.5,-935 173.5,-899 412.5,-899 412.5,-935"/>
<text text-anchor="middle" x="293" y="-913.3" font-family="Times,serif" font-size="14.00">Change Approval for Purchase Order (5)</text>
</g>
<!-- Create Purchase Order Item&#45;&gt;Change Approval for Purchase Order -->
<g id="edge34" class="edge">
<title>Create Purchase Order Item&#45;&gt;Change Approval for Purchase Order</title>
<path fill="none" stroke="#ff0000" stroke-width="0.51" stroke-dasharray="5,2" d="M166.56,-985.59C191,-972.53 224.65,-954.54 251.1,-940.4"/>
<polygon fill="#ff0000" stroke="#ff0000" stroke-width="0.51" points="252.63,-943.55 259.8,-935.75 249.33,-937.38 252.63,-943.55"/>
<text text-anchor="middle" x="226.5" y="-956.8" font-family="Times,serif" font-size="14.00">5</text>
</g>
<!-- Create Purchase Requisition Item&#45;&gt;Create Purchase Order Item -->
<g id="edge17" class="edge">
<title>Create Purchase Requisition Item&#45;&gt;Create Purchase Order Item</title>
<path fill="none" stroke="#000000" stroke-width="1.51" d="M245.33,-1072.59C224.47,-1059.93 195.99,-1042.64 173.06,-1028.71"/>
<polygon fill="#000000" stroke="#000000" stroke-width="1.51" points="174.94,-1025.76 164.58,-1023.57 171.31,-1031.75 174.94,-1025.76"/>
<text text-anchor="middle" x="222.5" y="-1043.8" font-family="Times,serif" font-size="14.00">140</text>
</g>
<!-- Receive Order Confirmation&#45;&gt;Record Goods Receipt -->
<g id="edge4" class="edge">
<title>Receive Order Confirmation&#45;&gt;Record Goods Receipt</title>
<path fill="none" stroke="#000000" stroke-width="2.81" d="M261.2,-790.59C286.08,-777.93 320.05,-760.64 347.41,-746.71"/>
<polygon fill="#000000" stroke="#000000" stroke-width="2.81" points="348.74,-749.96 356.06,-742.31 345.56,-743.73 348.74,-749.96"/>
<text text-anchor="middle" x="330.5" y="-761.8" font-family="Times,serif" font-size="14.00">317</text>
</g>
<!-- Receive Order Confirmation&#45;&gt;Vendor creates invoice -->
<g id="edge14" class="edge">
<title>Receive Order Confirmation&#45;&gt;Vendor creates invoice</title>
<path fill="none" stroke="#000000" d="M190.92,-790.68C146.49,-766.76 79.8,-720.89 105,-671 133.81,-613.96 199.43,-583.35 256.62,-567.05"/>
<polygon fill="#000000" stroke="#000000" points="257.37,-570.48 266.1,-564.47 255.53,-563.72 257.37,-570.48"/>
<text text-anchor="middle" x="112" y="-674.8" font-family="Times,serif" font-size="14.00">71</text>
</g>
<!-- Record Goods Receipt&#45;&gt;Record Goods Receipt -->
<g id="edge5" class="edge">
<title>Record Goods Receipt&#45;&gt;Record Goods Receipt</title>
<path fill="none" stroke="#000000" stroke-width="2.91" d="M483.78,-729.01C494.5,-727.73 501.5,-725.4 501.5,-722 501.5,-720.51 500.16,-719.23 497.76,-718.15"/>
<polygon fill="#000000" stroke="#000000" stroke-width="2.91" points="498.6,-714.75 488.08,-715.96 497.06,-721.58 498.6,-714.75"/>
<text text-anchor="middle" x="512" y="-718.3" font-family="Times,serif" font-size="14.00">331</text>
</g>
<!-- Record Goods Receipt&#45;&gt;Vendor creates invoice -->
<g id="edge6" class="edge">
<title>Record Goods Receipt&#45;&gt;Vendor creates invoice</title>
<path fill="none" stroke="#000000" stroke-width="6" d="M314.92,-703.57C288.05,-693.46 260.84,-677.64 245,-653 224.51,-621.12 261.6,-592.58 298.66,-573.5"/>
<polygon fill="#000000" stroke="#000000" stroke-width="6" points="300.76,-578.32 307.47,-569.23 296.18,-568.87 300.76,-578.32"/>
<text text-anchor="middle" x="255.5" y="-631.3" font-family="Times,serif" font-size="14.00">752</text>
</g>
<!-- Record Invoice Receipt -->
<g id="node7" class="node">
<title>Record Invoice Receipt</title>
<polygon fill="#9b9bff" stroke="black" points="674.5,-392 489.5,-392 489.5,-356 674.5,-356 674.5,-392"/>
<text text-anchor="middle" x="582" y="-370.3" font-family="Times,serif" font-size="14.00">Record Invoice Receipt (1454)</text>
</g>
<!-- Record Goods Receipt&#45;&gt;Record Invoice Receipt -->
<g id="edge15" class="edge">
<title>Record Goods Receipt&#45;&gt;Record Invoice Receipt</title>
<path fill="none" stroke="#000000" stroke-width="2.46" d="M483.84,-721.79C578.5,-721.02 719.99,-714.83 765,-686 786.63,-672.14 794,-661.69 794,-636 794,-636 794,-636 794,-460 794,-409.37 741.26,-388.1 688.4,-379.5"/>
<polygon fill="#000000" stroke="#000000" stroke-width="2.46" points="689.07,-376.06 678.67,-378.1 688.07,-382.99 689.07,-376.06"/>
<text text-anchor="middle" x="804.5" y="-544.3" font-family="Times,serif" font-size="14.00">270</text>
</g>
<!-- Remove Payment Block -->
<g id="node9" class="node">
<title>Remove Payment Block</title>
<polygon fill="#e3e3ff" stroke="black" points="431.5,-305 248.5,-305 248.5,-269 431.5,-269 431.5,-305"/>
<text text-anchor="middle" x="340" y="-283.3" font-family="Times,serif" font-size="14.00">Remove Payment Block (395)</text>
</g>
<!-- Record Goods Receipt&#45;&gt;Remove Payment Block -->
<g id="edge21" class="edge">
<title>Record Goods Receipt&#45;&gt;Remove Payment Block</title>
<path fill="none" stroke="#ff0000" stroke-width="0.54" stroke-dasharray="5,2" d="M304.18,-708.99C228.68,-696.3 133,-672.93 133,-636 133,-636 133,-636 133,-373 133,-322.92 185.49,-301.72 237.6,-293.02"/>
<polygon fill="#ff0000" stroke="#ff0000" stroke-width="0.54" points="237.83,-296.52 247.19,-291.56 236.78,-289.6 237.83,-296.52"/>
<text text-anchor="middle" x="136.5" y="-500.8" font-family="Times,serif" font-size="14.00">9</text>
</g>
<!-- Vendor creates debit memo -->
<g id="node10" class="node">
<title>Vendor creates debit memo</title>
<polygon fill="#fefeff" stroke="black" points="643.5,-479 450.5,-479 450.5,-443 643.5,-443 643.5,-479"/>
<text text-anchor="middle" x="547" y="-457.3" font-family="Times,serif" font-size="14.00">Vendor creates debit memo (14)</text>
</g>
<!-- Record Goods Receipt&#45;&gt;Vendor creates debit memo -->
<g id="edge32" class="edge">
<title>Record Goods Receipt&#45;&gt;Vendor creates debit memo</title>
<path fill="none" stroke="#ff0000" stroke-width="0.51" stroke-dasharray="5,2" d="M483.71,-715.96C562.95,-710.57 667.94,-700.75 681,-686 702.34,-661.9 687.24,-518.85 669,-497 664.35,-491.43 658.88,-486.72 652.88,-482.73"/>
<polygon fill="#ff0000" stroke="#ff0000" stroke-width="0.51" points="654.8,-479.8 644.4,-477.78 651.27,-485.84 654.8,-479.8"/>
<text text-anchor="middle" x="693.5" y="-587.8" font-family="Times,serif" font-size="14.00">5</text>
</g>
<!-- Cancel Goods Receipt -->
<g id="node14" class="node">
<title>Cancel Goods Receipt</title>
<polygon fill="#fefeff" stroke="black" points="439,-653 275,-653 275,-617 439,-617 439,-653"/>
<text text-anchor="middle" x="357" y="-631.3" font-family="Times,serif" font-size="14.00">Cancel Goods Receipt (11)</text>
</g>
<!-- Record Goods Receipt&#45;&gt;Cancel Goods Receipt -->
<g id="edge37" class="edge">
<title>Record Goods Receipt&#45;&gt;Cancel Goods Receipt</title>
<path fill="none" stroke="#ff0000" stroke-width="0.56" stroke-dasharray="5,2" d="M370.66,-703.56C365.56,-698.5 360.85,-692.56 358,-686 355.06,-679.23 353.96,-671.44 353.81,-664.06"/>
<polygon fill="#ff0000" stroke="#ff0000" stroke-width="0.56" points="357.3,-664.32 354.15,-654.2 350.3,-664.07 357.3,-664.32"/>
<text text-anchor="middle" x="365" y="-674.8" font-family="Times,serif" font-size="14.00">11</text>
</g>
<!-- Change Delivery Indicator -->
<g id="node15" class="node">
<title>Change Delivery Indicator</title>
<polygon fill="#ffffff" stroke="black" points="638.5,-653 457.5,-653 457.5,-617 638.5,-617 638.5,-653"/>
<text text-anchor="middle" x="548" y="-631.3" font-family="Times,serif" font-size="14.00">Change Delivery Indicator (3)</text>
</g>
<!-- Record Goods Receipt&#45;&gt;Change Delivery Indicator -->
<g id="edge43" class="edge">
<title>Record Goods Receipt&#45;&gt;Change Delivery Indicator</title>
<path fill="none" stroke="#ff0000" stroke-width="0.5" stroke-dasharray="5,2" d="M425.54,-703.59C449.2,-690.53 481.8,-672.54 507.42,-658.4"/>
<polygon fill="#ff0000" stroke="#ff0000" stroke-width="0.5" points="508.78,-661.65 515.84,-653.75 505.4,-655.52 508.78,-661.65"/>
<text text-anchor="middle" x="483.5" y="-674.8" font-family="Times,serif" font-size="14.00">3</text>
</g>
<!-- Vendor creates invoice&#45;&gt;Record Goods Receipt -->
<g id="edge13" class="edge">
<title>Vendor creates invoice&#45;&gt;Record Goods Receipt</title>
<path fill="none" stroke="#000000" stroke-width="4.23" d="M295.23,-566.42C281.58,-571.27 267.5,-577.13 255,-584 234.5,-595.27 224.1,-595.9 214,-617 207.09,-631.43 207.01,-638.61 214,-653 228.24,-682.31 257.76,-699.15 288.85,-708.78"/>
<polygon fill="#000000" stroke="#000000" stroke-width="4.23" points="287.68,-712.29 298.3,-711.35 289.62,-705.15 287.68,-712.29"/>
<text text-anchor="middle" x="224.5" y="-631.3" font-family="Times,serif" font-size="14.00">511</text>
</g>
<!-- Vendor creates invoice&#45;&gt;Vendor creates invoice -->
<g id="edge23" class="edge">
<title>Vendor creates invoice&#45;&gt;Vendor creates invoice</title>
<path fill="none" stroke="#ff0000" stroke-width="0.66" stroke-dasharray="5,2" d="M448.2,-555.01C458.97,-553.73 466,-551.4 466,-548 466,-545.93 463.39,-544.25 458.91,-542.97"/>
<polygon fill="#ff0000" stroke="#ff0000" stroke-width="0.66" points="459.66,-539.55 449.19,-541.17 458.38,-546.43 459.66,-539.55"/>
<text text-anchor="middle" x="473" y="-544.3" font-family="Times,serif" font-size="14.00">25</text>
</g>
<!-- Vendor creates invoice&#45;&gt;Record Invoice Receipt -->
<g id="edge7" class="edge">
<title>Vendor creates invoice&#45;&gt;Record Invoice Receipt</title>
<path fill="none" stroke="#000000" stroke-width="4.32" d="M366.88,-529.53C380.47,-503.35 406.39,-455.63 421,-443 443.95,-423.16 473.53,-408.44 501.06,-397.88"/>
<polygon fill="#000000" stroke="#000000" stroke-width="4.32" points="502.24,-401.47 510.35,-394.51 499.66,-394.37 502.24,-401.47"/>
<text text-anchor="middle" x="431.5" y="-457.3" font-family="Times,serif" font-size="14.00">523</text>
</g>
<!-- Vendor creates invoice&#45;&gt;Remove Payment Block -->
<g id="edge42" class="edge">
<title>Vendor creates invoice&#45;&gt;Remove Payment Block</title>
<path fill="none" stroke="#ff0000" stroke-width="0.5" stroke-dasharray="5,2" d="M357.49,-529.53C356.26,-491.77 352.7,-399.74 345,-323 344.77,-320.67 344.49,-318.25 344.19,-315.83"/>
<polygon fill="#ff0000" stroke="#ff0000" stroke-width="0.5" points="347.69,-315.6 342.88,-306.16 340.76,-316.54 347.69,-315.6"/>
<text text-anchor="middle" x="355.5" y="-413.8" font-family="Times,serif" font-size="14.00">3</text>
</g>
<!-- Vendor creates invoice&#45;&gt;Vendor creates debit memo -->
<g id="edge25" class="edge">
<title>Vendor creates invoice&#45;&gt;Vendor creates debit memo</title>
<path fill="none" stroke="#ff0000" stroke-width="0.54" stroke-dasharray="5,2" d="M396.7,-529.59C426.26,-516.3 467.16,-497.91 498.84,-483.66"/>
<polygon fill="#ff0000" stroke="#ff0000" stroke-width="0.54" points="499.91,-487.01 507.6,-479.72 497.04,-480.63 499.91,-487.01"/>
<text text-anchor="middle" x="466.5" y="-500.8" font-family="Times,serif" font-size="14.00">9</text>
</g>
<!-- Record Invoice Receipt&#45;&gt;Record Goods Receipt -->
<g id="edge36" class="edge">
<title>Record Invoice Receipt&#45;&gt;Record Goods Receipt</title>
<path fill="none" stroke="#ff0000" stroke-width="0.53" stroke-dasharray="5,2" d="M674.9,-388.25C714.18,-399.63 751,-420.75 751,-460 751,-636 751,-636 751,-636 751,-668.38 727.36,-672.34 698,-686 662.75,-702.4 568.43,-711.49 494.11,-716.26"/>
<polygon fill="#ff0000" stroke="#ff0000" stroke-width="0.53" points="494.33,-712.74 484.57,-716.86 494.77,-719.73 494.33,-712.74"/>
<text text-anchor="middle" x="754.5" y="-544.3" font-family="Times,serif" font-size="14.00">7</text>
</g>
<!-- Record Invoice Receipt&#45;&gt;Vendor creates invoice -->
<g id="edge18" class="edge">
<title>Record Invoice Receipt&#45;&gt;Vendor creates invoice</title>
<path fill="none" stroke="#000000" stroke-width="0.93" d="M608.49,-392.48C637.24,-413.6 676.14,-449.92 653,-479 628.91,-509.28 534.92,-527.23 459.42,-537.01"/>
<polygon fill="#000000" stroke="#000000" stroke-width="0.93" points="459.3,-533.5 449.82,-538.22 460.18,-540.44 459.3,-533.5"/>
<text text-anchor="middle" x="667" y="-457.3" font-family="Times,serif" font-size="14.00">61</text>
</g>
<!-- Record Invoice Receipt&#45;&gt;Record Invoice Receipt -->
<g id="edge8" class="edge">
<title>Record Invoice Receipt&#45;&gt;Record Invoice Receipt</title>
<path fill="none" stroke="#000000" stroke-width="4.85" d="M674.7,-380.96C685.48,-379.68 692.5,-377.36 692.5,-374 692.5,-372.85 691.67,-371.82 690.15,-370.91"/>
<polygon fill="#000000" stroke="#000000" stroke-width="4.85" points="691.46,-366.86 680.72,-368.55 689.39,-375.1 691.46,-366.86"/>
<text text-anchor="middle" x="703" y="-370.3" font-family="Times,serif" font-size="14.00">596</text>
</g>
<!-- Clear Invoice -->
<g id="node8" class="node">
<title>Clear Invoice</title>
<polygon fill="#d0d0ff" stroke="black" points="548.5,-131 425.5,-131 425.5,-95 548.5,-95 548.5,-131"/>
<text text-anchor="middle" x="487" y="-109.3" font-family="Times,serif" font-size="14.00">Clear Invoice (675)</text>
</g>
<!-- Record Invoice Receipt&#45;&gt;Clear Invoice -->
<g id="edge9" class="edge">
<title>Record Invoice Receipt&#45;&gt;Clear Invoice</title>
<path fill="none" stroke="#000000" stroke-width="2.95" d="M587.53,-355.59C599.26,-315.1 621.99,-213.18 577,-149 572.78,-142.98 567.36,-137.99 561.28,-133.86"/>
<polygon fill="#000000" stroke="#000000" stroke-width="2.95" points="563.23,-130.95 552.8,-129.11 559.81,-137.05 563.23,-130.95"/>
<text text-anchor="middle" x="613.5" y="-239.8" font-family="Times,serif" font-size="14.00">336</text>
</g>
<!-- Record Invoice Receipt&#45;&gt;Remove Payment Block -->
<g id="edge10" class="edge">
<title>Record Invoice Receipt&#45;&gt;Remove Payment Block</title>
<path fill="none" stroke="#000000" stroke-width="3.19" d="M524.46,-355.57C507.2,-350.15 488.27,-344.01 471,-338 446.73,-329.55 420.19,-319.56 397.39,-310.75"/>
<polygon fill="#000000" stroke="#000000" stroke-width="3.19" points="398.82,-307.55 388.23,-307.19 396.29,-314.07 398.82,-307.55"/>
<text text-anchor="middle" x="481.5" y="-326.8" font-family="Times,serif" font-size="14.00">370</text>
</g>
<!-- end_node -->
<g id="node16" class="node">
<title>end_node</title>
<ellipse fill="none" stroke="black" cx="440" cy="-22" rx="18" ry="18"/>
<ellipse fill="none" stroke="black" cx="440" cy="-22" rx="22" ry="22"/>
<text text-anchor="start" x="435.5" y="-18.3" font-family="Times,serif" font-size="14.00">■</text>
</g>
<!-- Record Invoice Receipt&#45;&gt;end_node -->
<g id="edge47" class="edge">
<title>Record Invoice Receipt&#45;&gt;end_node</title>
<path fill="none" stroke="#000000" stroke-width="1.09" d="M606.2,-355.68C624.68,-340.26 647,-315.87 647,-288 647,-288 647,-288 647,-112 647,-37.5 532.43,-24.59 473.76,-22.86"/>
<polygon fill="#000000" stroke="#000000" stroke-width="1.09" points="473.87,-19.37 463.81,-22.68 473.74,-26.36 473.87,-19.37"/>
<text text-anchor="middle" x="654" y="-196.3" font-family="Times,serif" font-size="14.00">84</text>
</g>
<!-- Clear Invoice&#45;&gt;Record Invoice Receipt -->
<g id="edge19" class="edge">
<title>Clear Invoice&#45;&gt;Record Invoice Receipt</title>
<path fill="none" stroke="#ff0000" stroke-width="0.73" stroke-dasharray="5,2" d="M505.76,-131.25C518.5,-144.04 534.68,-162.55 544,-182 569.83,-235.88 578.1,-306.39 580.75,-344.89"/>
<polygon fill="#ff0000" stroke="#ff0000" stroke-width="0.73" points="577.25,-344.88 581.34,-354.65 584.23,-344.46 577.25,-344.88"/>
<text text-anchor="middle" x="573" y="-239.8" font-family="Times,serif" font-size="14.00">35</text>
</g>
<!-- Clear Invoice&#45;&gt;Clear Invoice -->
<g id="edge20" class="edge">
<title>Clear Invoice&#45;&gt;Clear Invoice</title>
<path fill="none" stroke="#ff0000" stroke-width="0.6" stroke-dasharray="5,2" d="M549,-120.58C559.35,-119.52 566.5,-116.99 566.5,-113 566.5,-110.57 563.85,-108.68 559.43,-107.33"/>
<polygon fill="#ff0000" stroke="#ff0000" stroke-width="0.6" points="560.36,-103.95 549.9,-105.58 559.1,-110.83 560.36,-103.95"/>
<text text-anchor="middle" x="573.5" y="-109.3" font-family="Times,serif" font-size="14.00">17</text>
</g>
<!-- Clear Invoice&#45;&gt;Remove Payment Block -->
<g id="edge41" class="edge">
<title>Clear Invoice&#45;&gt;Remove Payment Block</title>
<path fill="none" stroke="#ff0000" stroke-width="0.51" stroke-dasharray="5,2" d="M440,-131.38C404.53,-145.51 360.15,-165.68 349,-182 333.78,-204.27 333.21,-235.8 335.41,-258.3"/>
<polygon fill="#ff0000" stroke="#ff0000" stroke-width="0.51" points="331.92,-258.58 336.61,-268.08 338.86,-257.72 331.92,-258.58"/>
<text text-anchor="middle" x="352.5" y="-196.3" font-family="Times,serif" font-size="14.00">4</text>
</g>
<!-- Cancel Invoice Receipt -->
<g id="node11" class="node">
<title>Cancel Invoice Receipt</title>
<polygon fill="#fdfdff" stroke="black" points="535,-218 365,-218 365,-182 535,-182 535,-218"/>
<text text-anchor="middle" x="450" y="-196.3" font-family="Times,serif" font-size="14.00">Cancel Invoice Receipt (22)</text>
</g>
<!-- Clear Invoice&#45;&gt;Cancel Invoice Receipt -->
<g id="edge39" class="edge">
<title>Clear Invoice&#45;&gt;Cancel Invoice Receipt</title>
<path fill="none" stroke="#ff0000" stroke-width="0.56" stroke-dasharray="5,2" d="M461.25,-131.46C455.89,-136.44 450.97,-142.35 448,-149 444.99,-155.74 444.2,-163.52 444.49,-170.9"/>
<polygon fill="#ff0000" stroke="#ff0000" stroke-width="0.56" points="441,-171.19 445.51,-180.78 447.96,-170.47 441,-171.19"/>
<text text-anchor="middle" x="455" y="-152.8" font-family="Times,serif" font-size="14.00">11</text>
</g>
<!-- Clear Invoice&#45;&gt;end_node -->
<g id="edge46" class="edge">
<title>Clear Invoice&#45;&gt;end_node</title>
<path fill="none" stroke="#000000" stroke-width="4.94" d="M477.94,-94.84C472.12,-83.83 464.38,-69.17 457.41,-55.97"/>
<polygon fill="#000000" stroke="#000000" stroke-width="4.94" points="461.41,-54.28 452.92,-47.46 453.76,-58.32 461.41,-54.28"/>
<text text-anchor="middle" x="477.5" y="-65.8" font-family="Times,serif" font-size="14.00">608</text>
</g>
<!-- Remove Payment Block&#45;&gt;Vendor creates invoice -->
<g id="edge24" class="edge">
<title>Remove Payment Block&#45;&gt;Vendor creates invoice</title>
<path fill="none" stroke="#ff0000" stroke-width="0.53" stroke-dasharray="5,2" d="M338.13,-305.35C335.68,-328.98 331.53,-372.63 330,-410 328.13,-455.78 333.08,-467.76 345,-512 345.67,-514.48 346.44,-517.03 347.27,-519.58"/>
<polygon fill="#ff0000" stroke="#ff0000" stroke-width="0.53" points="343.97,-520.74 350.61,-529 350.57,-518.41 343.97,-520.74"/>
<text text-anchor="middle" x="333.5" y="-413.8" font-family="Times,serif" font-size="14.00">7</text>
</g>
<!-- Remove Payment Block&#45;&gt;Record Invoice Receipt -->
<g id="edge22" class="edge">
<title>Remove Payment Block&#45;&gt;Record Invoice Receipt</title>
<path fill="none" stroke="#ff0000" stroke-width="0.65" stroke-dasharray="5,2" d="M431.67,-304.73C451.87,-309.62 472.91,-315.67 492,-323 510.69,-330.18 530.26,-340.65 546.35,-350.15"/>
<polygon fill="#ff0000" stroke="#ff0000" stroke-width="0.65" points="544.18,-352.93 554.55,-355.1 547.79,-346.94 544.18,-352.93"/>
<text text-anchor="middle" x="529" y="-326.8" font-family="Times,serif" font-size="14.00">24</text>
</g>
<!-- Remove Payment Block&#45;&gt;Clear Invoice -->
<g id="edge11" class="edge">
<title>Remove Payment Block&#45;&gt;Clear Invoice</title>
<path fill="none" stroke="#000000" stroke-width="2.76" d="M324.44,-268.84C307.82,-248.32 285.35,-212.9 297,-182 316.46,-130.38 356.32,-141.76 411.61,-132.67"/>
<polygon fill="#000000" stroke="#000000" stroke-width="2.76" points="411.94,-136.17 421.09,-130.84 410.61,-129.3 411.94,-136.17"/>
<text text-anchor="middle" x="307.5" y="-196.3" font-family="Times,serif" font-size="14.00">311</text>
</g>
<!-- Remove Payment Block&#45;&gt;Remove Payment Block -->
<g id="edge29" class="edge">
<title>Remove Payment Block&#45;&gt;Remove Payment Block</title>
<path fill="none" stroke="#ff0000" stroke-width="0.54" stroke-dasharray="5,2" d="M431.86,-293.96C442.55,-292.68 449.5,-290.36 449.5,-287 449.5,-284.95 446.92,-283.29 442.48,-282.02"/>
<polygon fill="#ff0000" stroke="#ff0000" stroke-width="0.54" points="443.14,-278.58 432.67,-280.19 441.86,-285.46 443.14,-278.58"/>
<text text-anchor="middle" x="453" y="-283.3" font-family="Times,serif" font-size="14.00">9</text>
</g>
<!-- Remove Payment Block&#45;&gt;Cancel Invoice Receipt -->
<g id="edge27" class="edge">
<title>Remove Payment Block&#45;&gt;Cancel Invoice Receipt</title>
<path fill="none" stroke="#ff0000" stroke-width="0.56" stroke-dasharray="5,2" d="M362.53,-268.59C378.84,-255.99 401.09,-238.79 419.07,-224.9"/>
<polygon fill="#ff0000" stroke="#ff0000" stroke-width="0.56" points="421.06,-227.78 426.84,-218.9 416.78,-222.24 421.06,-227.78"/>
<text text-anchor="middle" x="408" y="-239.8" font-family="Times,serif" font-size="14.00">11</text>
</g>
<!-- Remove Payment Block&#45;&gt;end_node -->
<g id="edge48" class="edge">
<title>Remove Payment Block&#45;&gt;end_node</title>
<path fill="none" stroke="#ff0000" stroke-width="0.72" stroke-dasharray="5,2" d="M315.17,-268.74C309.2,-263.61 303.3,-257.58 299,-251 274.04,-212.84 268.61,-190.27 288,-149 313.25,-95.27 373.92,-56.56 410.52,-37.15"/>
<polygon fill="#ff0000" stroke="#ff0000" stroke-width="0.72" points="411.89,-40.38 419.18,-32.69 408.69,-34.15 411.89,-40.38"/>
<text text-anchor="middle" x="295" y="-152.8" font-family="Times,serif" font-size="14.00">33</text>
</g>
<!-- Vendor creates debit memo&#45;&gt;Record Goods Receipt -->
<g id="edge45" class="edge">
<title>Vendor creates debit memo&#45;&gt;Record Goods Receipt</title>
<path fill="none" stroke="#ff0000" stroke-width="0.5" stroke-dasharray="5,2" d="M569.06,-479.48C610.62,-514.53 692.53,-594.97 648,-653 628.85,-677.96 556.69,-695.75 494.16,-706.86"/>
<polygon fill="#ff0000" stroke="#ff0000" stroke-width="0.5" points="493.82,-703.37 484.56,-708.53 495.01,-710.27 493.82,-703.37"/>
<text text-anchor="middle" x="661.5" y="-587.8" font-family="Times,serif" font-size="14.00">3</text>
</g>
<!-- Vendor creates debit memo&#45;&gt;Vendor creates invoice -->
<g id="edge33" class="edge">
<title>Vendor creates debit memo&#45;&gt;Vendor creates invoice</title>
<path fill="none" stroke="#ff0000" stroke-width="0.51" stroke-dasharray="5,2" d="M525.4,-479.42C511.41,-490.02 492.43,-503.17 474,-512 462.81,-517.36 450.62,-522.11 438.48,-526.24"/>
<polygon fill="#ff0000" stroke="#ff0000" stroke-width="0.51" points="437.48,-522.89 429.06,-529.33 439.65,-529.54 437.48,-522.89"/>
<text text-anchor="middle" x="502.5" y="-500.8" font-family="Times,serif" font-size="14.00">5</text>
</g>
<!-- Vendor creates debit memo&#45;&gt;Record Invoice Receipt -->
<g id="edge26" class="edge">
<title>Vendor creates debit memo&#45;&gt;Record Invoice Receipt</title>
<path fill="none" stroke="#ff0000" stroke-width="0.52" stroke-dasharray="5,2" d="M554.08,-442.8C558.89,-431.12 565.35,-415.45 570.84,-402.11"/>
<polygon fill="#ff0000" stroke="#ff0000" stroke-width="0.52" points="573.94,-403.78 574.51,-393.2 567.46,-401.11 573.94,-403.78"/>
<text text-anchor="middle" x="569.5" y="-413.8" font-family="Times,serif" font-size="14.00">6</text>
</g>
<!-- Cancel Invoice Receipt&#45;&gt;Clear Invoice -->
<g id="edge28" class="edge">
<title>Cancel Invoice Receipt&#45;&gt;Clear Invoice</title>
<path fill="none" stroke="#ff0000" stroke-width="0.56" stroke-dasharray="5,2" d="M457.49,-181.8C462.57,-170.12 469.39,-154.45 475.2,-141.11"/>
<polygon fill="#ff0000" stroke="#ff0000" stroke-width="0.56" points="478.28,-142.81 479.06,-132.24 471.86,-140.01 478.28,-142.81"/>
<text text-anchor="middle" x="477" y="-152.8" font-family="Times,serif" font-size="14.00">11</text>
</g>
<!-- Cancel Invoice Receipt&#45;&gt;end_node -->
<g id="edge49" class="edge">
<title>Cancel Invoice Receipt&#45;&gt;end_node</title>
<path fill="none" stroke="#ff0000" stroke-width="0.56" stroke-dasharray="5,2" d="M433.48,-181.58C422.48,-168.72 408.98,-150.18 403,-131 394.21,-102.82 408.17,-70.87 421.39,-49.07"/>
<polygon fill="#ff0000" stroke="#ff0000" stroke-width="0.56" points="424.23,-51.13 426.68,-40.82 418.34,-47.36 424.23,-51.13"/>
<text text-anchor="middle" x="410" y="-109.3" font-family="Times,serif" font-size="14.00">11</text>
</g>
<!-- Change Price&#45;&gt;Record Goods Receipt -->
<g id="edge31" class="edge">
<title>Change Price&#45;&gt;Record Goods Receipt</title>
<path fill="none" stroke="#ff0000" stroke-width="0.52" stroke-dasharray="5,2" d="M74.75,-844.68C80.13,-828.37 90.5,-804.48 108,-791 160.92,-750.23 234.49,-733.38 293.76,-726.64"/>
<polygon fill="#ff0000" stroke="#ff0000" stroke-width="0.52" points="293.91,-730.14 303.49,-725.61 293.18,-723.18 293.91,-730.14"/>
<text text-anchor="middle" x="111.5" y="-805.3" font-family="Times,serif" font-size="14.00">6</text>
</g>
<!-- Change Approval for Purchase Order&#45;&gt;Receive Order Confirmation -->
<g id="edge35" class="edge">
<title>Change Approval for Purchase Order&#45;&gt;Receive Order Confirmation</title>
<path fill="none" stroke="#ff0000" stroke-width="0.51" stroke-dasharray="5,2" d="M282.4,-898.97C271.87,-882.07 255.6,-855.94 243.41,-836.36"/>
<polygon fill="#ff0000" stroke="#ff0000" stroke-width="0.51" points="246.47,-834.64 238.21,-828 240.52,-838.34 246.47,-834.64"/>
<text text-anchor="middle" x="272.5" y="-859.3" font-family="Times,serif" font-size="14.00">5</text>
</g>
<!-- Cancel Goods Receipt&#45;&gt;Record Goods Receipt -->
<g id="edge40" class="edge">
<title>Cancel Goods Receipt&#45;&gt;Record Goods Receipt</title>
<path fill="none" stroke="#ff0000" stroke-width="0.53" stroke-dasharray="5,2" d="M364.6,-653.47C369.71,-665.2 376.54,-680.89 382.33,-694.2"/>
<polygon fill="#ff0000" stroke="#ff0000" stroke-width="0.53" points="378.99,-695.29 386.19,-703.06 385.41,-692.5 378.99,-695.29"/>
<text text-anchor="middle" x="380.5" y="-674.8" font-family="Times,serif" font-size="14.00">7</text>
</g>
<!-- Cancel Goods Receipt&#45;&gt;Vendor creates invoice -->
<g id="edge38" class="edge">
<title>Cancel Goods Receipt&#45;&gt;Vendor creates invoice</title>
<path fill="none" stroke="#ff0000" stroke-width="0.51" stroke-dasharray="5,2" d="M357.2,-616.8C357.34,-605.35 357.52,-590.06 357.67,-576.89"/>
<polygon fill="#ff0000" stroke="#ff0000" stroke-width="0.51" points="361.17,-577.28 357.79,-567.24 354.17,-577.19 361.17,-577.28"/>
<text text-anchor="middle" x="360.5" y="-587.8" font-family="Times,serif" font-size="14.00">4</text>
</g>
<!-- Change Delivery Indicator&#45;&gt;Vendor creates invoice -->
<g id="edge44" class="edge">
<title>Change Delivery Indicator&#45;&gt;Vendor creates invoice</title>
<path fill="none" stroke="#ff0000" stroke-width="0.5" stroke-dasharray="5,2" d="M509.09,-616.59C479.38,-603.3 438.26,-584.91 406.42,-570.66"/>
<polygon fill="#ff0000" stroke="#ff0000" stroke-width="0.5" points="408.1,-567.58 397.55,-566.69 405.25,-573.97 408.1,-567.58"/>
<text text-anchor="middle" x="467.5" y="-587.8" font-family="Times,serif" font-size="14.00">3</text>
</g>
</g>
</svg>
