<?xml version="1.0" encoding="UTF-8" standalone="no"?>
<!DOCTYPE svg PUBLIC "-//W3C//DTD SVG 1.1//EN"
 "http://www.w3.org/Graphics/SVG/1.1/DTD/svg11.dtd">
<!-- Generated by graphviz version 7.0.5 (0)
 -->
<!-- Title: dfg Pages: 1 -->
<svg width="851pt" height="769pt"
 viewBox="0.00 0.00 851.00 769.00" xmlns="http://www.w3.org/2000/svg" xmlns:xlink="http://www.w3.org/1999/xlink">
<g id="graph0" class="graph" transform="scale(1 1) rotate(0) translate(4 765)">
<title>dfg</title>
<polygon fill="white" stroke="none" points="-4,4 -4,-765 847,-765 847,4 -4,4"/>
<!-- start_node -->
<g id="node1" class="node">
<title>start_node</title>
<ellipse fill="none" stroke="black" cx="174" cy="-743" rx="18" ry="18"/>
<text text-anchor="start" x="169.5" y="-739.3" font-family="Times,serif" font-size="14.00">●</text>
</g>
<!-- Create Purchase Order Item -->
<g id="node2" class="node">
<title>Create Purchase Order Item</title>
<polygon fill="#9b9bff" stroke="black" points="437.5,-587 222.5,-587 222.5,-551 437.5,-551 437.5,-587"/>
<text text-anchor="middle" x="330" y="-565.3" font-family="Times,serif" font-size="14.00">Create Purchase Order Item (16034)</text>
</g>
<!-- start_node&#45;&gt;Create Purchase Order Item -->
<g id="edge1" class="edge">
<title>start_node&#45;&gt;Create Purchase Order Item</title>
<path fill="none" stroke="#000000" stroke-width="6.57" d="M191.55,-737.68C219.5,-729.88 273.92,-710.72 303,-674 318.82,-654.02 325.45,-625.75 328.18,-603.72"/>
<polygon fill="#000000" stroke="#000000" stroke-width="6.57" points="333.89,-604.38 329.07,-593.91 322.45,-603.35 333.89,-604.38"/>
<text text-anchor="middle" x="337" y="-652.3" font-family="Times,serif" font-size="14.00">11357</text>
</g>
<!-- Create Purchase Requisition Item -->
<g id="node3" class="node">
<title>Create Purchase Requisition Item</title>
<polygon fill="#e3e3ff" stroke="black" points="293.5,-674 54.5,-674 54.5,-638 293.5,-638 293.5,-674"/>
<text text-anchor="middle" x="174" y="-652.3" font-family="Times,serif" font-size="14.00">Create Purchase Requisition Item (4521)</text>
</g>
<!-- start_node&#45;&gt;Create Purchase Requisition Item -->
<g id="edge2" class="edge">
<title>start_node&#45;&gt;Create Purchase Requisition Item</title>
<path fill="none" stroke="#000000" stroke-width="2.87" d="M174,-724.8C174,-714.38 174,-700.78 174,-688.5"/>
<polygon fill="#000000" stroke="#000000" stroke-width="2.87" points="177.5,-688.82 174,-678.82 170.5,-688.82 177.5,-688.82"/>
<text text-anchor="middle" x="188" y="-695.8" font-family="Times,serif" font-size="14.00">4521</text>
</g>
<!-- Vendor creates invoice -->
<g id="node4" class="node">
<title>Vendor creates invoice</title>
<polygon fill="#b3b3ff" stroke="black" points="376.5,-392 189.5,-392 189.5,-356 376.5,-356 376.5,-392"/>
<text text-anchor="middle" x="283" y="-370.3" font-family="Times,serif" font-size="14.00">Vendor creates invoice (12193)</text>
</g>
<!-- start_node&#45;&gt;Vendor creates invoice -->
<g id="edge3" class="edge">
<title>start_node&#45;&gt;Vendor creates invoice</title>
<path fill="none" stroke="#ff0000" stroke-width="0.51" stroke-dasharray="5,2" d="M155.71,-741.41C111.03,-738.9 0,-725.75 0,-657 0,-657 0,-657 0,-481 0,-438.81 26.01,-430.28 63,-410 83.18,-398.94 132.14,-390.6 178.75,-384.84"/>
<polygon fill="#ff0000" stroke="#ff0000" stroke-width="0.51" points="178.99,-388.34 188.51,-383.67 178.16,-381.39 178.99,-388.34"/>
<text text-anchor="middle" x="10.5" y="-565.3" font-family="Times,serif" font-size="14.00">156</text>
</g>
<!-- Create Purchase Order Item&#45;&gt;Vendor creates invoice -->
<g id="edge4" class="edge">
<title>Create Purchase Order Item&#45;&gt;Vendor creates invoice</title>
<path fill="none" stroke="#000000" stroke-width="4.02" d="M316.62,-550.63C307.32,-537.5 295.63,-518.62 290,-500 280.9,-469.91 279.84,-433.93 280.65,-408.31"/>
<polygon fill="#000000" stroke="#000000" stroke-width="4.02" points="284.16,-408.64 281.14,-398.48 277.13,-408.29 284.16,-408.64"/>
<text text-anchor="middle" x="304" y="-478.3" font-family="Times,serif" font-size="14.00">6647</text>
</g>
<!-- Record Goods Receipt -->
<g id="node5" class="node">
<title>Record Goods Receipt</title>
<polygon fill="#a3a3ff" stroke="black" points="515,-305 329,-305 329,-269 515,-269 515,-305"/>
<text text-anchor="middle" x="422" y="-283.3" font-family="Times,serif" font-size="14.00">Record Goods Receipt (14721)</text>
</g>
<!-- Create Purchase Order Item&#45;&gt;Record Goods Receipt -->
<g id="edge8" class="edge">
<title>Create Purchase Order Item&#45;&gt;Record Goods Receipt</title>
<path fill="none" stroke="#000000" stroke-width="3.05" d="M222.14,-565.72C132.42,-558.81 24.28,-535.9 57,-464 87.28,-397.48 116.72,-390.77 181,-356 222.23,-333.7 271.48,-318.12 314.68,-307.56"/>
<polygon fill="#000000" stroke="#000000" stroke-width="3.05" points="315.35,-311 324.28,-305.3 313.75,-304.19 315.35,-311"/>
<text text-anchor="middle" x="106" y="-424.3" font-family="Times,serif" font-size="14.00">4853</text>
</g>
<!-- Receive Order Confirmation -->
<g id="node8" class="node">
<title>Receive Order Confirmation</title>
<polygon fill="#ededff" stroke="black" points="699,-500 487,-500 487,-464 699,-464 699,-500"/>
<text text-anchor="middle" x="593" y="-478.3" font-family="Times,serif" font-size="14.00">Receive Order Confirmation (2976)</text>
</g>
<!-- Create Purchase Order Item&#45;&gt;Receive Order Confirmation -->
<g id="edge11" class="edge">
<title>Create Purchase Order Item&#45;&gt;Receive Order Confirmation</title>
<path fill="none" stroke="#000000" stroke-width="2.04" d="M383.86,-550.59C425.25,-537.21 482.64,-518.67 526.83,-504.38"/>
<polygon fill="#000000" stroke="#000000" stroke-width="2.04" points="527.84,-507.74 536.28,-501.33 525.69,-501.08 527.84,-507.74"/>
<text text-anchor="middle" x="491" y="-521.8" font-family="Times,serif" font-size="14.00">2976</text>
</g>
<!-- Delete Purchase Order Item -->
<g id="node9" class="node">
<title>Delete Purchase Order Item</title>
<polygon fill="#fcfcff" stroke="black" points="789,-392 587,-392 587,-356 789,-356 789,-392"/>
<text text-anchor="middle" x="688" y="-370.3" font-family="Times,serif" font-size="14.00">Delete Purchase Order Item (536)</text>
</g>
<!-- Create Purchase Order Item&#45;&gt;Delete Purchase Order Item -->
<g id="edge15" class="edge">
<title>Create Purchase Order Item&#45;&gt;Delete Purchase Order Item</title>
<path fill="none" stroke="#ff0000" stroke-width="0.65" stroke-dasharray="5,2" d="M437.66,-568.28C532.04,-566.68 660.74,-559.45 704,-533 755.09,-501.77 790.63,-460.85 759,-410 756.4,-405.82 753.13,-402.12 749.44,-398.85"/>
<polygon fill="#ff0000" stroke="#ff0000" stroke-width="0.65" points="751.66,-396.14 741.56,-392.96 747.47,-401.75 751.66,-396.14"/>
<text text-anchor="middle" x="778.5" y="-478.3" font-family="Times,serif" font-size="14.00">407</text>
</g>
<!-- Change Quantity -->
<g id="node10" class="node">
<title>Change Quantity</title>
<polygon fill="#fefeff" stroke="black" points="469,-500 327,-500 327,-464 469,-464 469,-500"/>
<text text-anchor="middle" x="398" y="-478.3" font-family="Times,serif" font-size="14.00">Change Quantity (243)</text>
</g>
<!-- Create Purchase Order Item&#45;&gt;Change Quantity -->
<g id="edge16" class="edge">
<title>Create Purchase Order Item&#45;&gt;Change Quantity</title>
<path fill="none" stroke="#ff0000" stroke-width="0.56" stroke-dasharray="5,2" d="M343.76,-550.8C353.37,-538.78 366.38,-522.52 377.25,-508.94"/>
<polygon fill="#ff0000" stroke="#ff0000" stroke-width="0.56" points="379.98,-511.13 383.5,-501.13 374.52,-506.75 379.98,-511.13"/>
<text text-anchor="middle" x="378.5" y="-521.8" font-family="Times,serif" font-size="14.00">243</text>
</g>
<!-- Change Approval for Purchase Order -->
<g id="node11" class="node">
<title>Change Approval for Purchase Order</title>
<polygon fill="#fefeff" stroke="black" points="758,-446 506,-446 506,-410 758,-410 758,-446"/>
<text text-anchor="middle" x="632" y="-424.3" font-family="Times,serif" font-size="14.00">Change Approval for Purchase Order (156)</text>
</g>
<!-- Create Purchase Order Item&#45;&gt;Change Approval for Purchase Order -->
<g id="edge19" class="edge">
<title>Create Purchase Order Item&#45;&gt;Change Approval for Purchase Order</title>
<path fill="none" stroke="#ff0000" stroke-width="0.51" stroke-dasharray="5,2" d="M437.98,-563.56C537.28,-556.95 674.1,-540.54 708,-500 718.26,-487.73 716.63,-477.47 708,-464 705.26,-459.71 701.84,-455.95 697.99,-452.63"/>
<polygon fill="#ff0000" stroke="#ff0000" stroke-width="0.51" points="700.31,-450 690.17,-446.92 696.17,-455.65 700.31,-450"/>
<text text-anchor="middle" x="689.5" y="-521.8" font-family="Times,serif" font-size="14.00">156</text>
</g>
<!-- Change Price -->
<g id="node12" class="node">
<title>Change Price</title>
<polygon fill="#ffffff" stroke="black" points="188,-500 66,-500 66,-464 188,-464 188,-500"/>
<text text-anchor="middle" x="127" y="-478.3" font-family="Times,serif" font-size="14.00">Change Price (131)</text>
</g>
<!-- Create Purchase Order Item&#45;&gt;Change Price -->
<g id="edge21" class="edge">
<title>Create Purchase Order Item&#45;&gt;Change Price</title>
<path fill="none" stroke="#ff0000" stroke-width="0.5" stroke-dasharray="5,2" d="M235.43,-550.59C219.5,-545.96 203.46,-540.18 189,-533 175.81,-526.45 162.86,-516.69 152.24,-507.53"/>
<polygon fill="#ff0000" stroke="#ff0000" stroke-width="0.5" points="154.6,-504.95 144.82,-500.89 149.94,-510.17 154.6,-504.95"/>
<text text-anchor="middle" x="199.5" y="-521.8" font-family="Times,serif" font-size="14.00">131</text>
</g>
<!-- end_node -->
<g id="node13" class="node">
<title>end_node</title>
<ellipse fill="none" stroke="black" cx="632" cy="-22" rx="18" ry="18"/>
<ellipse fill="none" stroke="black" cx="632" cy="-22" rx="22" ry="22"/>
<text text-anchor="start" x="627.5" y="-18.3" font-family="Times,serif" font-size="14.00">■</text>
</g>
<!-- Create Purchase Order Item&#45;&gt;end_node -->
<g id="edge27" class="edge">
<title>Create Purchase Order Item&#45;&gt;end_node</title>
<path fill="none" stroke="#000000" stroke-width="0.77" d="M437.63,-563.14C536.5,-557.85 675.4,-548.05 728,-533 773.49,-519.98 822,-530.32 822,-483 822,-483 822,-483 822,-112 822,-43.48 719.4,-27.6 664.99,-24"/>
<polygon fill="#000000" stroke="#000000" stroke-width="0.77" points="665.5,-20.52 655.32,-23.47 665.12,-27.51 665.5,-20.52"/>
<text text-anchor="middle" x="832.5" y="-283.3" font-family="Times,serif" font-size="14.00">621</text>
</g>
<!-- Create Purchase Requisition Item&#45;&gt;Create Purchase Order Item -->
<g id="edge13" class="edge">
<title>Create Purchase Requisition Item&#45;&gt;Create Purchase Order Item</title>
<path fill="none" stroke="#000000" stroke-width="2.87" d="M205.95,-637.59C228.97,-625.05 260.35,-607.95 285.78,-594.09"/>
<polygon fill="#000000" stroke="#000000" stroke-width="2.87" points="287.17,-597.32 294.28,-589.46 283.82,-591.17 287.17,-597.32"/>
<text text-anchor="middle" x="275" y="-608.8" font-family="Times,serif" font-size="14.00">4521</text>
</g>
<!-- Vendor creates invoice&#45;&gt;Create Purchase Order Item -->
<g id="edge18" class="edge">
<title>Vendor creates invoice&#45;&gt;Create Purchase Order Item</title>
<path fill="none" stroke="#ff0000" stroke-width="0.51" stroke-dasharray="5,2" d="M273.06,-392.25C260.19,-417 241.17,-463.62 257,-500 264.68,-517.66 279.46,-532.8 293.72,-544.29"/>
<polygon fill="#ff0000" stroke="#ff0000" stroke-width="0.51" points="291.31,-546.85 301.38,-550.15 295.57,-541.29 291.31,-546.85"/>
<text text-anchor="middle" x="267.5" y="-478.3" font-family="Times,serif" font-size="14.00">156</text>
</g>
<!-- Vendor creates invoice&#45;&gt;Record Goods Receipt -->
<g id="edge5" class="edge">
<title>Vendor creates invoice&#45;&gt;Record Goods Receipt</title>
<path fill="none" stroke="#000000" stroke-width="5.3" d="M299.09,-355.6C309.45,-345.15 323.63,-332.14 338,-323 344.09,-319.13 350.68,-315.52 357.4,-312.22"/>
<polygon fill="#000000" stroke="#000000" stroke-width="5.3" points="359.28,-316.46 366.44,-308.08 355.42,-308.02 359.28,-316.46"/>
<text text-anchor="middle" x="352" y="-326.8" font-family="Times,serif" font-size="14.00">9014</text>
</g>
<!-- Record Invoice Receipt -->
<g id="node6" class="node">
<title>Record Invoice Receipt</title>
<polygon fill="#b3b3ff" stroke="black" points="641.5,-218 450.5,-218 450.5,-182 641.5,-182 641.5,-218"/>
<text text-anchor="middle" x="546" y="-196.3" font-family="Times,serif" font-size="14.00">Record Invoice Receipt (12193)</text>
</g>
<!-- Vendor creates invoice&#45;&gt;Record Invoice Receipt -->
<g id="edge10" class="edge">
<title>Vendor creates invoice&#45;&gt;Record Invoice Receipt</title>
<path fill="none" stroke="#000000" stroke-width="2.06" d="M279.01,-355.65C274.9,-332.98 271.62,-293.3 292,-269 311.24,-246.06 377.44,-228.77 437.44,-217.37"/>
<polygon fill="#000000" stroke="#000000" stroke-width="2.06" points="437.86,-220.85 447.06,-215.6 436.59,-213.97 437.86,-220.85"/>
<text text-anchor="middle" x="306" y="-283.3" font-family="Times,serif" font-size="14.00">3023</text>
</g>
<!-- Record Goods Receipt&#45;&gt;Vendor creates invoice -->
<g id="edge9" class="edge">
<title>Record Goods Receipt&#45;&gt;Vendor creates invoice</title>
<path fill="none" stroke="#000000" stroke-width="2.06" d="M405.55,-305.36C394.97,-315.8 380.54,-328.8 366,-338 358.98,-342.44 351.3,-346.55 343.53,-350.26"/>
<polygon fill="#000000" stroke="#000000" stroke-width="2.06" points="342.26,-346.99 334.6,-354.31 345.15,-353.37 342.26,-346.99"/>
<text text-anchor="middle" x="399" y="-326.8" font-family="Times,serif" font-size="14.00">3023</text>
</g>
<!-- Record Goods Receipt&#45;&gt;Record Invoice Receipt -->
<g id="edge6" class="edge">
<title>Record Goods Receipt&#45;&gt;Record Invoice Receipt</title>
<path fill="none" stroke="#000000" stroke-width="5.3" d="M447.39,-268.59C464.61,-256.79 487.7,-240.96 507.21,-227.59"/>
<polygon fill="#000000" stroke="#000000" stroke-width="5.3" points="509.82,-231.42 515.45,-221.94 504.58,-223.77 509.82,-231.42"/>
<text text-anchor="middle" x="505" y="-239.8" font-family="Times,serif" font-size="14.00">9014</text>
</g>
<!-- Record Goods Receipt&#45;&gt;end_node -->
<g id="edge25" class="edge">
<title>Record Goods Receipt&#45;&gt;end_node</title>
<path fill="none" stroke="#000000" stroke-width="1.88" d="M419.28,-268.77C414.55,-232.4 408.91,-146.89 450,-95 486.17,-49.33 555.52,-32.54 597.39,-26.43"/>
<polygon fill="#000000" stroke="#000000" stroke-width="1.88" points="597.65,-29.92 607.12,-25.16 596.75,-22.98 597.65,-29.92"/>
<text text-anchor="middle" x="437" y="-152.8" font-family="Times,serif" font-size="14.00">2684</text>
</g>
<!-- Clear Invoice -->
<g id="node7" class="node">
<title>Clear Invoice</title>
<polygon fill="#bfbfff" stroke="black" points="595.5,-131 458.5,-131 458.5,-95 595.5,-95 595.5,-131"/>
<text text-anchor="middle" x="527" y="-109.3" font-family="Times,serif" font-size="14.00">Clear Invoice (10308)</text>
</g>
<!-- Record Invoice Receipt&#45;&gt;Clear Invoice -->
<g id="edge7" class="edge">
<title>Record Invoice Receipt&#45;&gt;Clear Invoice</title>
<path fill="none" stroke="#000000" stroke-width="6" d="M542.16,-181.8C539.93,-171.84 537.05,-158.97 534.4,-147.12"/>
<polygon fill="#000000" stroke="#000000" stroke-width="6" points="539.62,-146.38 532.31,-137.77 529.37,-148.67 539.62,-146.38"/>
<text text-anchor="middle" x="554" y="-152.8" font-family="Times,serif" font-size="14.00">10308</text>
</g>
<!-- Record Invoice Receipt&#45;&gt;end_node -->
<g id="edge26" class="edge">
<title>Record Invoice Receipt&#45;&gt;end_node</title>
<path fill="none" stroke="#000000" stroke-width="1.45" d="M565.14,-181.72C578.2,-168.93 594.9,-150.41 605,-131 617.21,-107.53 624.09,-78.28 627.84,-56.14"/>
<polygon fill="#000000" stroke="#000000" stroke-width="1.45" points="631.26,-56.92 629.32,-46.51 624.34,-55.86 631.26,-56.92"/>
<text text-anchor="middle" x="632" y="-109.3" font-family="Times,serif" font-size="14.00">1885</text>
</g>
<!-- Clear Invoice&#45;&gt;end_node -->
<g id="edge24" class="edge">
<title>Clear Invoice&#45;&gt;end_node</title>
<path fill="none" stroke="#000000" stroke-width="6" d="M546.36,-94.69C557.32,-84.98 571.33,-72.7 584,-62 589.88,-57.03 596.23,-51.79 602.33,-46.82"/>
<polygon fill="#000000" stroke="#000000" stroke-width="6" points="605.51,-51 609.97,-40.62 598.9,-42.84 605.51,-51"/>
<text text-anchor="middle" x="601" y="-65.8" font-family="Times,serif" font-size="14.00">10308</text>
</g>
<!-- Receive Order Confirmation&#45;&gt;Vendor creates invoice -->
<g id="edge12" class="edge">
<title>Receive Order Confirmation&#45;&gt;Vendor creates invoice</title>
<path fill="none" stroke="#000000" stroke-width="1.51" d="M486.66,-464.13C440.82,-456.57 396.54,-448.73 392,-446 374.63,-435.56 380.03,-422.41 364,-410 358.12,-405.45 351.55,-401.36 344.77,-397.73"/>
<polygon fill="#000000" stroke="#000000" stroke-width="1.51" points="346.57,-394.71 336.06,-393.41 343.46,-400.99 346.57,-394.71"/>
<text text-anchor="middle" x="406" y="-424.3" font-family="Times,serif" font-size="14.00">1993</text>
</g>
<!-- Receive Order Confirmation&#45;&gt;Record Goods Receipt -->
<g id="edge14" class="edge">
<title>Receive Order Confirmation&#45;&gt;Record Goods Receipt</title>
<path fill="none" stroke="#000000" stroke-width="0.89" d="M488.94,-463.64C479.74,-459.02 471.2,-453.24 464,-446 429.47,-411.29 422.4,-351.62 421.47,-316.38"/>
<polygon fill="#000000" stroke="#000000" stroke-width="0.89" points="424.97,-316.76 421.37,-306.79 417.97,-316.83 424.97,-316.76"/>
<text text-anchor="middle" x="443.5" y="-370.3" font-family="Times,serif" font-size="14.00">854</text>
</g>
<!-- Receive Order Confirmation&#45;&gt;Delete Purchase Order Item -->
<g id="edge23" class="edge">
<title>Receive Order Confirmation&#45;&gt;Delete Purchase Order Item</title>
<path fill="none" stroke="#ff0000" stroke-width="0.5" stroke-dasharray="5,2" d="M495.83,-463.65C488.2,-459.02 481.38,-453.23 476,-446 466.44,-433.17 465.65,-422.2 476,-410 489.63,-393.94 532.5,-385.23 576.15,-380.52"/>
<polygon fill="#ff0000" stroke="#ff0000" stroke-width="0.5" points="576.3,-384.03 585.9,-379.54 575.6,-377.06 576.3,-384.03"/>
<text text-anchor="middle" x="486.5" y="-424.3" font-family="Times,serif" font-size="14.00">129</text>
</g>
<!-- Delete Purchase Order Item&#45;&gt;end_node -->
<g id="edge28" class="edge">
<title>Delete Purchase Order Item&#45;&gt;end_node</title>
<path fill="none" stroke="#000000" stroke-width="0.72" d="M688,-355.74C688,-338.57 688,-311.46 688,-288 688,-288 688,-288 688,-112 688,-86.11 670.82,-61.6 655.49,-44.88"/>
<polygon fill="#000000" stroke="#000000" stroke-width="0.72" points="658.42,-42.87 648.95,-38.11 653.38,-47.73 658.42,-42.87"/>
<text text-anchor="middle" x="698.5" y="-196.3" font-family="Times,serif" font-size="14.00">536</text>
</g>
<!-- Change Quantity&#45;&gt;Vendor creates invoice -->
<g id="edge17" class="edge">
<title>Change Quantity&#45;&gt;Vendor creates invoice</title>
<path fill="none" stroke="#ff0000" stroke-width="0.56" stroke-dasharray="5,2" d="M367.15,-463.67C358.94,-458.45 350.33,-452.4 343,-446 327.6,-432.55 312.75,-415.02 301.67,-400.75"/>
<polygon fill="#ff0000" stroke="#ff0000" stroke-width="0.56" points="304.64,-398.87 295.81,-393.02 299.06,-403.1 304.64,-398.87"/>
<text text-anchor="middle" x="353.5" y="-424.3" font-family="Times,serif" font-size="14.00">243</text>
</g>
<!-- Change Approval for Purchase Order&#45;&gt;Record Invoice Receipt -->
<g id="edge20" class="edge">
<title>Change Approval for Purchase Order&#45;&gt;Record Invoice Receipt</title>
<path fill="none" stroke="#ff0000" stroke-width="0.51" stroke-dasharray="5,2" d="M595.81,-409.56C588.96,-404.75 582.54,-398.91 578,-392 545.09,-341.86 542.51,-268.85 543.97,-229.19"/>
<polygon fill="#ff0000" stroke="#ff0000" stroke-width="0.51" points="547.46,-229.42 544.45,-219.26 540.47,-229.07 547.46,-229.42"/>
<text text-anchor="middle" x="564.5" y="-326.8" font-family="Times,serif" font-size="14.00">156</text>
</g>
<!-- Change Price&#45;&gt;Vendor creates invoice -->
<g id="edge22" class="edge">
<title>Change Price&#45;&gt;Vendor creates invoice</title>
<path fill="none" stroke="#ff0000" stroke-width="0.5" stroke-dasharray="5,2" d="M138.38,-463.61C149.57,-447.7 168,-424.51 189,-410 196.31,-404.95 204.44,-400.52 212.78,-396.67"/>
<polygon fill="#ff0000" stroke="#ff0000" stroke-width="0.5" points="214.13,-399.89 221.92,-392.71 211.35,-393.47 214.13,-399.89"/>
<text text-anchor="middle" x="199.5" y="-424.3" font-family="Times,serif" font-size="14.00">131</text>
</g>
</g>
</svg>
