<?xml version="1.0" encoding="UTF-8" standalone="no"?>
<!DOCTYPE svg PUBLIC "-//W3C//DTD SVG 1.1//EN"
 "http://www.w3.org/Graphics/SVG/1.1/DTD/svg11.dtd">
<!-- Generated by graphviz version 7.0.5 (0)
 -->
<!-- Title: dfg Pages: 1 -->
<svg width="466pt" height="835pt"
 viewBox="0.00 0.00 465.52 835.00" xmlns="http://www.w3.org/2000/svg" xmlns:xlink="http://www.w3.org/1999/xlink">
<g id="graph0" class="graph" transform="scale(1 1) rotate(0) translate(4 831)">
<title>dfg</title>
<polygon fill="white" stroke="none" points="-4,4 -4,-831 461.52,-831 461.52,4 -4,4"/>
<!-- start_node -->
<g id="node1" class="node">
<title>start_node</title>
<ellipse fill="none" stroke="black" cx="125.02" cy="-809" rx="18" ry="18"/>
<text text-anchor="start" x="120.52" y="-805.3" font-family="Times,serif" font-size="14.00">●</text>
</g>
<!-- Create Purchase Order Item -->
<g id="node2" class="node">
<title>Create Purchase Order Item</title>
<polygon fill="#9b9bff" stroke="black" points="232.52,-653 17.52,-653 17.52,-617 232.52,-617 232.52,-653"/>
<text text-anchor="middle" x="125.02" y="-631.3" font-family="Times,serif" font-size="14.00">Create Purchase Order Item (23173)</text>
</g>
<!-- start_node&#45;&gt;Create Purchase Order Item -->
<g id="edge1" class="edge">
<title>start_node&#45;&gt;Create Purchase Order Item</title>
<path fill="none" stroke="#000000" stroke-width="5.86" d="M122.75,-790.71C121.06,-776.99 118.91,-757.3 118.02,-740 117.2,-724.02 117.2,-719.98 118.02,-704 118.6,-692.64 119.73,-680.26 120.91,-669.22"/>
<polygon fill="#000000" stroke="#000000" stroke-width="5.86" points="125.96,-670.19 122.01,-659.67 115.78,-669.02 125.96,-670.19"/>
<text text-anchor="middle" x="135.02" y="-718.3" font-family="Times,serif" font-size="14.00">18088</text>
</g>
<!-- Create Purchase Requisition Item -->
<g id="node3" class="node">
<title>Create Purchase Requisition Item</title>
<polygon fill="#f7f7ff" stroke="black" points="400.52,-740 161.52,-740 161.52,-704 400.52,-704 400.52,-740"/>
<text text-anchor="middle" x="281.02" y="-718.3" font-family="Times,serif" font-size="14.00">Create Purchase Requisition Item (5085)</text>
</g>
<!-- start_node&#45;&gt;Create Purchase Requisition Item -->
<g id="edge2" class="edge">
<title>start_node&#45;&gt;Create Purchase Requisition Item</title>
<path fill="none" stroke="#000000" stroke-width="1.8" d="M140.55,-799.54C163.09,-787.26 205.73,-764.03 238.14,-746.37"/>
<polygon fill="#000000" stroke="#000000" stroke-width="1.8" points="239.63,-749.54 246.74,-741.68 236.28,-743.39 239.63,-749.54"/>
<text text-anchor="middle" x="226.02" y="-761.8" font-family="Times,serif" font-size="14.00">5085</text>
</g>
<!-- Record Goods Receipt -->
<g id="node4" class="node">
<title>Record Goods Receipt</title>
<polygon fill="#9b9bff" stroke="black" points="321.02,-479 135.02,-479 135.02,-443 321.02,-443 321.02,-479"/>
<text text-anchor="middle" x="228.02" y="-457.3" font-family="Times,serif" font-size="14.00">Record Goods Receipt (23173)</text>
</g>
<!-- Create Purchase Order Item&#45;&gt;Record Goods Receipt -->
<g id="edge3" class="edge">
<title>Create Purchase Order Item&#45;&gt;Record Goods Receipt</title>
<path fill="none" stroke="#000000" stroke-width="2.17" d="M177.72,-616.61C201.18,-605.94 226.52,-589.67 240.02,-566 252.85,-543.51 247.69,-513.85 240.58,-491.96"/>
<polygon fill="#000000" stroke="#000000" stroke-width="2.17" points="243.88,-490.77 237.18,-482.57 237.3,-493.16 243.88,-490.77"/>
<text text-anchor="middle" x="261.02" y="-544.3" font-family="Times,serif" font-size="14.00">6298</text>
</g>
<!-- Vendor creates invoice -->
<g id="node5" class="node">
<title>Vendor creates invoice</title>
<polygon fill="#9b9bff" stroke="black" points="191.52,-392 4.52,-392 4.52,-356 191.52,-356 191.52,-392"/>
<text text-anchor="middle" x="98.02" y="-370.3" font-family="Times,serif" font-size="14.00">Vendor creates invoice (23173)</text>
</g>
<!-- Create Purchase Order Item&#45;&gt;Vendor creates invoice -->
<g id="edge8" class="edge">
<title>Create Purchase Order Item&#45;&gt;Vendor creates invoice</title>
<path fill="none" stroke="#000000" stroke-width="4.32" d="M72.32,-616.61C48.86,-605.94 23.53,-589.67 10.02,-566 -21.65,-510.48 31.14,-441.58 67.69,-403.56"/>
<polygon fill="#000000" stroke="#000000" stroke-width="4.32" points="70.17,-406.43 74.55,-396.68 64.81,-401.1 70.17,-406.43"/>
<text text-anchor="middle" x="23.02" y="-500.8" font-family="Times,serif" font-size="14.00">13153</text>
</g>
<!-- Receive Order Confirmation -->
<g id="node9" class="node">
<title>Receive Order Confirmation</title>
<polygon fill="#ffffff" stroke="black" points="231.02,-566 19.02,-566 19.02,-530 231.02,-530 231.02,-566"/>
<text text-anchor="middle" x="125.02" y="-544.3" font-family="Times,serif" font-size="14.00">Receive Order Confirmation (3722)</text>
</g>
<!-- Create Purchase Order Item&#45;&gt;Receive Order Confirmation -->
<g id="edge13" class="edge">
<title>Create Purchase Order Item&#45;&gt;Receive Order Confirmation</title>
<path fill="none" stroke="#000000" stroke-width="1.37" d="M125.02,-616.8C125.02,-605.81 125.02,-591.28 125.02,-578.48"/>
<polygon fill="#000000" stroke="#000000" stroke-width="1.37" points="128.52,-578.54 125.02,-568.54 121.52,-578.54 128.52,-578.54"/>
<text text-anchor="middle" x="139.02" y="-587.8" font-family="Times,serif" font-size="14.00">3722</text>
</g>
<!-- Create Purchase Requisition Item&#45;&gt;Create Purchase Order Item -->
<g id="edge15" class="edge">
<title>Create Purchase Requisition Item&#45;&gt;Create Purchase Order Item</title>
<path fill="none" stroke="#000000" stroke-width="1.8" d="M249.08,-703.59C225.63,-690.82 193.52,-673.32 167.85,-659.34"/>
<polygon fill="#000000" stroke="#000000" stroke-width="1.8" points="169.77,-656.39 159.31,-654.68 166.42,-662.54 169.77,-656.39"/>
<text text-anchor="middle" x="226.02" y="-674.8" font-family="Times,serif" font-size="14.00">5085</text>
</g>
<!-- Record Goods Receipt&#45;&gt;Vendor creates invoice -->
<g id="edge4" class="edge">
<title>Record Goods Receipt&#45;&gt;Vendor creates invoice</title>
<path fill="none" stroke="#000000" stroke-width="3.04" d="M207.28,-442.67C194.82,-432.6 178.44,-419.99 163.02,-410 157.34,-406.32 151.23,-402.66 145.12,-399.18"/>
<polygon fill="#000000" stroke="#000000" stroke-width="3.04" points="147.18,-396.32 136.73,-394.56 143.79,-402.45 147.18,-396.32"/>
<text text-anchor="middle" x="198.02" y="-413.8" font-family="Times,serif" font-size="14.00">9080</text>
</g>
<!-- Record Invoice Receipt -->
<g id="node6" class="node">
<title>Record Invoice Receipt</title>
<polygon fill="#9b9bff" stroke="black" points="318.52,-305 127.52,-305 127.52,-269 318.52,-269 318.52,-305"/>
<text text-anchor="middle" x="223.02" y="-283.3" font-family="Times,serif" font-size="14.00">Record Invoice Receipt (23173)</text>
</g>
<!-- Record Goods Receipt&#45;&gt;Record Invoice Receipt -->
<g id="edge10" class="edge">
<title>Record Goods Receipt&#45;&gt;Record Invoice Receipt</title>
<path fill="none" stroke="#000000" stroke-width="3.34" d="M239.33,-442.85C251.43,-422.35 267.89,-386.94 260.02,-356 256.68,-342.85 250.22,-329.5 243.62,-318.15"/>
<polygon fill="#000000" stroke="#000000" stroke-width="3.34" points="246.63,-316.36 238.37,-309.73 240.69,-320.06 246.63,-316.36"/>
<text text-anchor="middle" x="279.02" y="-370.3" font-family="Times,serif" font-size="14.00">10010</text>
</g>
<!-- Remove Payment Block -->
<g id="node7" class="node">
<title>Remove Payment Block</title>
<polygon fill="#a8a8ff" stroke="black" points="457.52,-218 260.52,-218 260.52,-182 457.52,-182 457.52,-218"/>
<text text-anchor="middle" x="359.02" y="-196.3" font-family="Times,serif" font-size="14.00">Remove Payment Block (20511)</text>
</g>
<!-- Record Goods Receipt&#45;&gt;Remove Payment Block -->
<g id="edge12" class="edge">
<title>Record Goods Receipt&#45;&gt;Remove Payment Block</title>
<path fill="none" stroke="#000000" stroke-width="1.48" d="M251.74,-442.77C267.43,-430.26 287.36,-412.07 300.02,-392 332.54,-340.44 348.21,-269.72 354.84,-230.4"/>
<polygon fill="#000000" stroke="#000000" stroke-width="1.48" points="358.29,-230.99 356.41,-220.56 351.38,-229.89 358.29,-230.99"/>
<text text-anchor="middle" x="345.02" y="-326.8" font-family="Times,serif" font-size="14.00">4083</text>
</g>
<!-- Vendor creates invoice&#45;&gt;Record Goods Receipt -->
<g id="edge9" class="edge">
<title>Vendor creates invoice&#45;&gt;Record Goods Receipt</title>
<path fill="none" stroke="#000000" stroke-width="3.34" d="M103.69,-392.43C108,-403.17 114.92,-416.47 125.02,-425 129.98,-429.19 135.47,-432.89 141.26,-436.15"/>
<polygon fill="#000000" stroke="#000000" stroke-width="3.34" points="139.26,-439.07 149.77,-440.37 142.37,-432.8 139.26,-439.07"/>
<text text-anchor="middle" x="142.02" y="-413.8" font-family="Times,serif" font-size="14.00">10010</text>
</g>
<!-- Vendor creates invoice&#45;&gt;Record Invoice Receipt -->
<g id="edge5" class="edge">
<title>Vendor creates invoice&#45;&gt;Record Invoice Receipt</title>
<path fill="none" stroke="#000000" stroke-width="4.32" d="M123.62,-355.59C141.06,-343.73 164.48,-327.81 184.2,-314.4"/>
<polygon fill="#000000" stroke="#000000" stroke-width="4.32" points="186.26,-317.57 192.41,-308.82 182.01,-311.31 186.26,-317.57"/>
<text text-anchor="middle" x="185.02" y="-326.8" font-family="Times,serif" font-size="14.00">13163</text>
</g>
<!-- Record Invoice Receipt&#45;&gt;Record Goods Receipt -->
<g id="edge11" class="edge">
<title>Record Invoice Receipt&#45;&gt;Record Goods Receipt</title>
<path fill="none" stroke="#000000" stroke-width="1.48" d="M223.53,-305.48C224.38,-334.88 226.12,-394.5 227.16,-430.48"/>
<polygon fill="#000000" stroke="#000000" stroke-width="1.48" points="223.66,-430.42 227.45,-440.32 230.66,-430.22 223.66,-430.42"/>
<text text-anchor="middle" x="239.02" y="-370.3" font-family="Times,serif" font-size="14.00">4083</text>
</g>
<!-- Record Invoice Receipt&#45;&gt;Remove Payment Block -->
<g id="edge6" class="edge">
<title>Record Invoice Receipt&#45;&gt;Remove Payment Block</title>
<path fill="none" stroke="#000000" stroke-width="5.34" d="M250.87,-268.59C270.03,-256.62 295.82,-240.5 317.41,-227.01"/>
<polygon fill="#000000" stroke="#000000" stroke-width="5.34" points="319.86,-230.99 325.86,-221.73 314.9,-223.06 319.86,-230.99"/>
<text text-anchor="middle" x="316.02" y="-239.8" font-family="Times,serif" font-size="14.00">16428</text>
</g>
<!-- Clear Invoice -->
<g id="node8" class="node">
<title>Clear Invoice</title>
<polygon fill="#adadff" stroke="black" points="327.52,-131 190.52,-131 190.52,-95 327.52,-95 327.52,-131"/>
<text text-anchor="middle" x="259.02" y="-109.3" font-family="Times,serif" font-size="14.00">Clear Invoice (19584)</text>
</g>
<!-- Record Invoice Receipt&#45;&gt;Clear Invoice -->
<g id="edge16" class="edge">
<title>Record Invoice Receipt&#45;&gt;Clear Invoice</title>
<path fill="none" stroke="#000000" stroke-width="0.53" d="M220.79,-268.76C218.63,-247.88 216.65,-211.8 224.02,-182 227.62,-167.46 234.84,-152.52 241.8,-140.37"/>
<polygon fill="#000000" stroke="#000000" stroke-width="0.53" points="244.7,-142.35 246.83,-131.97 238.69,-138.75 244.7,-142.35"/>
<text text-anchor="middle" x="238.02" y="-196.3" font-family="Times,serif" font-size="14.00">1050</text>
</g>
<!-- end_node -->
<g id="node10" class="node">
<title>end_node</title>
<ellipse fill="none" stroke="black" cx="259.02" cy="-22" rx="18" ry="18"/>
<ellipse fill="none" stroke="black" cx="259.02" cy="-22" rx="22" ry="22"/>
<text text-anchor="start" x="254.52" y="-18.3" font-family="Times,serif" font-size="14.00">■</text>
</g>
<!-- Record Invoice Receipt&#45;&gt;end_node -->
<g id="edge19" class="edge">
<title>Record Invoice Receipt&#45;&gt;end_node</title>
<path fill="none" stroke="#000000" stroke-width="0.71" d="M212.33,-268.7C192.54,-234.32 154.54,-155.49 181.02,-95 191.22,-71.71 213.08,-52.61 231.07,-39.95"/>
<polygon fill="#000000" stroke="#000000" stroke-width="0.71" points="232.79,-43.01 239.15,-34.53 228.89,-37.2 232.79,-43.01"/>
<text text-anchor="middle" x="188.02" y="-152.8" font-family="Times,serif" font-size="14.00">1612</text>
</g>
<!-- Remove Payment Block&#45;&gt;Clear Invoice -->
<g id="edge7" class="edge">
<title>Remove Payment Block&#45;&gt;Clear Invoice</title>
<path fill="none" stroke="#000000" stroke-width="6" d="M337.46,-181.71C330.57,-176.11 322.93,-169.84 316.02,-164 307.71,-156.97 298.82,-149.27 290.59,-142.06"/>
<polygon fill="#000000" stroke="#000000" stroke-width="6" points="294.2,-138.25 283.23,-135.57 287.26,-146.12 294.2,-138.25"/>
<text text-anchor="middle" x="333.02" y="-152.8" font-family="Times,serif" font-size="14.00">18534</text>
</g>
<!-- Remove Payment Block&#45;&gt;end_node -->
<g id="edge20" class="edge">
<title>Remove Payment Block&#45;&gt;end_node</title>
<path fill="none" stroke="#000000" stroke-width="0.82" d="M358.66,-181.6C357.5,-159.91 353.09,-122.37 337.02,-95 324.35,-73.41 303.16,-54.46 286.07,-41.43"/>
<polygon fill="#000000" stroke="#000000" stroke-width="0.82" points="288.2,-38.65 278.07,-35.55 284.06,-44.3 288.2,-38.65"/>
<text text-anchor="middle" x="365.02" y="-109.3" font-family="Times,serif" font-size="14.00">1977</text>
</g>
<!-- Clear Invoice&#45;&gt;end_node -->
<g id="edge18" class="edge">
<title>Clear Invoice&#45;&gt;end_node</title>
<path fill="none" stroke="#000000" stroke-width="6.33" d="M259.02,-94.84C259.02,-85.13 259.02,-72.59 259.02,-60.72"/>
<polygon fill="#000000" stroke="#000000" stroke-width="6.33" points="264.56,-60.72 259.02,-50.72 253.48,-60.72 264.56,-60.72"/>
<text text-anchor="middle" x="276.02" y="-65.8" font-family="Times,serif" font-size="14.00">19584</text>
</g>
<!-- Receive Order Confirmation&#45;&gt;Record Goods Receipt -->
<g id="edge14" class="edge">
<title>Receive Order Confirmation&#45;&gt;Record Goods Receipt</title>
<path fill="none" stroke="#000000" stroke-width="1.08" d="M145.87,-529.8C160.84,-517.44 181.26,-500.59 198,-486.78"/>
<polygon fill="#000000" stroke="#000000" stroke-width="1.08" points="200.11,-489.57 205.6,-480.5 195.66,-484.17 200.11,-489.57"/>
<text text-anchor="middle" x="197.02" y="-500.8" font-family="Times,serif" font-size="14.00">2782</text>
</g>
<!-- Receive Order Confirmation&#45;&gt;Vendor creates invoice -->
<g id="edge17" class="edge">
<title>Receive Order Confirmation&#45;&gt;Vendor creates invoice</title>
<path fill="none" stroke="#000000" stroke-width="0.5" d="M118.77,-529.64C114.16,-516.05 108.16,-496.57 105.02,-479 100.49,-453.6 98.83,-424.23 98.26,-403.19"/>
<polygon fill="#000000" stroke="#000000" stroke-width="0.5" points="101.76,-403.12 98.05,-393.2 94.76,-403.26 101.76,-403.12"/>
<text text-anchor="middle" x="115.52" y="-457.3" font-family="Times,serif" font-size="14.00">940</text>
</g>
</g>
</svg>
