<?xml version="1.0" encoding="UTF-8" standalone="no"?>
<!DOCTYPE svg PUBLIC "-//W3C//DTD SVG 1.1//EN"
 "http://www.w3.org/Graphics/SVG/1.1/DTD/svg11.dtd">
<!-- Generated by graphviz version 7.0.5 (0)
 -->
<!-- Title: dfg Pages: 1 -->
<svg width="722pt" height="856pt"
 viewBox="0.00 0.00 721.50 856.00" xmlns="http://www.w3.org/2000/svg" xmlns:xlink="http://www.w3.org/1999/xlink">
<g id="graph0" class="graph" transform="scale(1 1) rotate(0) translate(4 852)">
<title>dfg</title>
<polygon fill="white" stroke="none" points="-4,4 -4,-852 717.5,-852 717.5,4 -4,4"/>
<!-- start_node -->
<g id="node1" class="node">
<title>start_node</title>
<ellipse fill="none" stroke="black" cx="302" cy="-830" rx="18" ry="18"/>
<text text-anchor="start" x="297.5" y="-826.3" font-family="Times,serif" font-size="14.00">●</text>
</g>
<!-- Create Purchase Order Item -->
<g id="node2" class="node">
<title>Create Purchase Order Item</title>
<polygon fill="#9b9bff" stroke="black" points="413,-674 191,-674 191,-638 413,-638 413,-674"/>
<text text-anchor="middle" x="302" y="-652.3" font-family="Times,serif" font-size="14.00">Create Purchase Order Item (175606)</text>
</g>
<!-- start_node&#45;&gt;Create Purchase Order Item -->
<g id="edge1" class="edge">
<title>start_node&#45;&gt;Create Purchase Order Item</title>
<path fill="none" stroke="#000000" stroke-width="8.23" d="M299.73,-811.71C298.04,-797.99 295.89,-778.3 295,-761 294.18,-745.02 294.18,-740.98 295,-725 295.57,-713.91 296.66,-701.85 297.81,-691.01"/>
<polygon fill="#000000" stroke="#000000" stroke-width="8.23" points="304.94,-692.04 298.92,-681.29 290.63,-690.4 304.94,-692.04"/>
<text text-anchor="middle" x="315.5" y="-739.3" font-family="Times,serif" font-size="14.00">151783</text>
</g>
<!-- Create Purchase Requisition Item -->
<g id="node3" class="node">
<title>Create Purchase Requisition Item</title>
<polygon fill="#f2f2ff" stroke="black" points="591,-761 345,-761 345,-725 591,-725 591,-761"/>
<text text-anchor="middle" x="468" y="-739.3" font-family="Times,serif" font-size="14.00">Create Purchase Requisition Item (23823)</text>
</g>
<!-- start_node&#45;&gt;Create Purchase Requisition Item -->
<g id="edge2" class="edge">
<title>start_node&#45;&gt;Create Purchase Requisition Item</title>
<path fill="none" stroke="#000000" stroke-width="1.63" d="M317.92,-820.85C341.93,-808.55 388.34,-784.79 423.22,-766.93"/>
<polygon fill="#000000" stroke="#000000" stroke-width="1.63" points="424.59,-770.16 431.9,-762.49 421.4,-763.93 424.59,-770.16"/>
<text text-anchor="middle" x="411" y="-782.8" font-family="Times,serif" font-size="14.00">23823</text>
</g>
<!-- Vendor creates invoice -->
<g id="node4" class="node">
<title>Vendor creates invoice</title>
<polygon fill="#a8a8ff" stroke="black" points="423,-479 229,-479 229,-443 423,-443 423,-479"/>
<text text-anchor="middle" x="326" y="-457.3" font-family="Times,serif" font-size="14.00">Vendor creates invoice (151536)</text>
</g>
<!-- Create Purchase Order Item&#45;&gt;Vendor creates invoice -->
<g id="edge3" class="edge">
<title>Create Purchase Order Item&#45;&gt;Vendor creates invoice</title>
<path fill="none" stroke="#000000" stroke-width="4.86" d="M390.54,-637.61C418.13,-627.58 445.6,-611.79 462,-587 489.26,-545.79 434.45,-508.91 386.49,-486.07"/>
<polygon fill="#000000" stroke="#000000" stroke-width="4.86" points="388.43,-482.29 377.57,-482.02 384.91,-490.03 388.43,-482.29"/>
<text text-anchor="middle" x="486" y="-565.3" font-family="Times,serif" font-size="14.00">86400</text>
</g>
<!-- Record Goods Receipt -->
<g id="node5" class="node">
<title>Record Goods Receipt</title>
<polygon fill="#9f9fff" stroke="black" points="287.5,-392 94.5,-392 94.5,-356 287.5,-356 287.5,-392"/>
<text text-anchor="middle" x="191" y="-370.3" font-family="Times,serif" font-size="14.00">Record Goods Receipt (167473)</text>
</g>
<!-- Create Purchase Order Item&#45;&gt;Record Goods Receipt -->
<g id="edge7" class="edge">
<title>Create Purchase Order Item&#45;&gt;Record Goods Receipt</title>
<path fill="none" stroke="#000000" stroke-width="3.65" d="M190.65,-637.53C134.16,-626.16 73.93,-609.27 57,-587 8.82,-523.62 97.82,-442.63 152.62,-401.52"/>
<polygon fill="#000000" stroke="#000000" stroke-width="3.65" points="154.58,-404.42 160.59,-395.69 150.45,-398.77 154.58,-404.42"/>
<text text-anchor="middle" x="76" y="-511.3" font-family="Times,serif" font-size="14.00">63016</text>
</g>
<!-- Receive Order Confirmation -->
<g id="node9" class="node">
<title>Receive Order Confirmation</title>
<polygon fill="#f6f6ff" stroke="black" points="285.5,-587 66.5,-587 66.5,-551 285.5,-551 285.5,-587"/>
<text text-anchor="middle" x="176" y="-565.3" font-family="Times,serif" font-size="14.00">Receive Order Confirmation (16159)</text>
</g>
<!-- Create Purchase Order Item&#45;&gt;Receive Order Confirmation -->
<g id="edge12" class="edge">
<title>Create Purchase Order Item&#45;&gt;Receive Order Confirmation</title>
<path fill="none" stroke="#000000" stroke-width="1.24" d="M276.2,-637.59C257.51,-624.99 232.02,-607.79 211.43,-593.9"/>
<polygon fill="#000000" stroke="#000000" stroke-width="1.24" points="213.57,-591.12 203.32,-588.43 209.65,-596.92 213.57,-591.12"/>
<text text-anchor="middle" x="264" y="-608.8" font-family="Times,serif" font-size="14.00">16159</text>
</g>
<!-- Delete Purchase Order Item -->
<g id="node10" class="node">
<title>Delete Purchase Order Item</title>
<polygon fill="#fdfdff" stroke="black" points="713.5,-533 504.5,-533 504.5,-497 713.5,-497 713.5,-533"/>
<text text-anchor="middle" x="609" y="-511.3" font-family="Times,serif" font-size="14.00">Delete Purchase Order Item (5298)</text>
</g>
<!-- Create Purchase Order Item&#45;&gt;Delete Purchase Order Item -->
<g id="edge17" class="edge">
<title>Create Purchase Order Item&#45;&gt;Delete Purchase Order Item</title>
<path fill="none" stroke="#ff0000" stroke-width="0.68" stroke-dasharray="5,2" d="M413.29,-647.77C443.59,-642.62 475.58,-634.07 503,-620 539.2,-601.42 571.06,-566.22 590.16,-541.95"/>
<polygon fill="#ff0000" stroke="#ff0000" stroke-width="0.68" points="592.91,-544.12 596.22,-534.06 587.36,-539.86 592.91,-544.12"/>
<text text-anchor="middle" x="539" y="-608.8" font-family="Times,serif" font-size="14.00">5298</text>
</g>
<!-- Change Quantity -->
<g id="node11" class="node">
<title>Change Quantity</title>
<polygon fill="#ffffff" stroke="black" points="452.5,-587 303.5,-587 303.5,-551 452.5,-551 452.5,-587"/>
<text text-anchor="middle" x="378" y="-565.3" font-family="Times,serif" font-size="14.00">Change Quantity (1898)</text>
</g>
<!-- Create Purchase Order Item&#45;&gt;Change Quantity -->
<g id="edge19" class="edge">
<title>Create Purchase Order Item&#45;&gt;Change Quantity</title>
<path fill="none" stroke="#ff0000" stroke-width="0.5" stroke-dasharray="5,2" d="M317.38,-637.8C328.33,-625.55 343.22,-608.9 355.5,-595.16"/>
<polygon fill="#ff0000" stroke="#ff0000" stroke-width="0.5" points="357.82,-597.82 361.88,-588.03 352.6,-593.15 357.82,-597.82"/>
<text text-anchor="middle" x="359" y="-608.8" font-family="Times,serif" font-size="14.00">1898</text>
</g>
<!-- end_node -->
<g id="node12" class="node">
<title>end_node</title>
<ellipse fill="none" stroke="black" cx="249" cy="-22" rx="18" ry="18"/>
<ellipse fill="none" stroke="black" cx="249" cy="-22" rx="22" ry="22"/>
<text text-anchor="start" x="244.5" y="-18.3" font-family="Times,serif" font-size="14.00">■</text>
</g>
<!-- Create Purchase Order Item&#45;&gt;end_node -->
<g id="edge25" class="edge">
<title>Create Purchase Order Item&#45;&gt;end_node</title>
<path fill="none" stroke="#ff0000" stroke-width="0.55" stroke-dasharray="5,2" d="M190.83,-644.53C104.72,-633.23 0,-611.06 0,-570 0,-570 0,-570 0,-112 0,-79.62 24.22,-76.85 53,-62 105.84,-34.73 175.78,-26.5 216.24,-24.03"/>
<polygon fill="#ff0000" stroke="#ff0000" stroke-width="0.55" points="216.2,-27.54 226,-23.52 215.83,-20.55 216.2,-27.54"/>
<text text-anchor="middle" x="14" y="-326.8" font-family="Times,serif" font-size="14.00">2835</text>
</g>
<!-- Create Purchase Requisition Item&#45;&gt;Create Purchase Order Item -->
<g id="edge14" class="edge">
<title>Create Purchase Requisition Item&#45;&gt;Create Purchase Order Item</title>
<path fill="none" stroke="#000000" stroke-width="1.63" d="M434.01,-724.59C408.83,-711.7 374.28,-694.01 346.84,-679.96"/>
<polygon fill="#000000" stroke="#000000" stroke-width="1.63" points="348.64,-676.95 338.14,-675.51 345.45,-683.18 348.64,-676.95"/>
<text text-anchor="middle" x="411" y="-695.8" font-family="Times,serif" font-size="14.00">23823</text>
</g>
<!-- Vendor creates invoice&#45;&gt;Record Goods Receipt -->
<g id="edge4" class="edge">
<title>Vendor creates invoice&#45;&gt;Record Goods Receipt</title>
<path fill="none" stroke="#000000" stroke-width="4.72" d="M300.9,-442.72C286.45,-432.91 267.86,-420.52 251,-410 246,-406.88 240.72,-403.67 235.46,-400.53"/>
<polygon fill="#000000" stroke="#000000" stroke-width="4.72" points="237.78,-397.1 227.06,-395.59 233.59,-404.22 237.78,-397.1"/>
<text text-anchor="middle" x="291" y="-413.8" font-family="Times,serif" font-size="14.00">83707</text>
</g>
<!-- Record Invoice Receipt -->
<g id="node6" class="node">
<title>Record Invoice Receipt</title>
<polygon fill="#a8a8ff" stroke="black" points="430,-305 232,-305 232,-269 430,-269 430,-305"/>
<text text-anchor="middle" x="331" y="-283.3" font-family="Times,serif" font-size="14.00">Record Invoice Receipt (151536)</text>
</g>
<!-- Vendor creates invoice&#45;&gt;Record Invoice Receipt -->
<g id="edge9" class="edge">
<title>Vendor creates invoice&#45;&gt;Record Invoice Receipt</title>
<path fill="none" stroke="#000000" stroke-width="3.9" d="M326.51,-442.56C327.33,-414.1 328.99,-357.22 330.04,-320.96"/>
<polygon fill="#000000" stroke="#000000" stroke-width="3.9" points="333.53,-321.48 330.32,-311.39 326.53,-321.28 333.53,-321.48"/>
<text text-anchor="middle" x="346" y="-370.3" font-family="Times,serif" font-size="14.00">67829</text>
</g>
<!-- Record Goods Receipt&#45;&gt;Vendor creates invoice -->
<g id="edge8" class="edge">
<title>Record Goods Receipt&#45;&gt;Vendor creates invoice</title>
<path fill="none" stroke="#000000" stroke-width="3.44" d="M194.77,-392.48C197.93,-403.24 203.52,-416.54 213,-425 217.44,-428.96 222.33,-432.48 227.5,-435.59"/>
<polygon fill="#000000" stroke="#000000" stroke-width="3.44" points="225.74,-438.62 236.22,-440.14 228.97,-432.41 225.74,-438.62"/>
<text text-anchor="middle" x="230" y="-413.8" font-family="Times,serif" font-size="14.00">58994</text>
</g>
<!-- Record Goods Receipt&#45;&gt;Record Invoice Receipt -->
<g id="edge5" class="edge">
<title>Record Goods Receipt&#45;&gt;Record Invoice Receipt</title>
<path fill="none" stroke="#000000" stroke-width="4.72" d="M223.29,-355.62C233.22,-350.12 244.14,-343.93 254,-338 266.47,-330.5 279.83,-321.99 291.87,-314.15"/>
<polygon fill="#000000" stroke="#000000" stroke-width="4.72" points="294.01,-317.69 300.1,-308.74 289.47,-310.78 294.01,-317.69"/>
<text text-anchor="middle" x="295" y="-326.8" font-family="Times,serif" font-size="14.00">83707</text>
</g>
<!-- Remove Payment Block -->
<g id="node8" class="node">
<title>Remove Payment Block</title>
<polygon fill="#efefff" stroke="black" points="295.5,-218 98.5,-218 98.5,-182 295.5,-182 295.5,-218"/>
<text text-anchor="middle" x="197" y="-196.3" font-family="Times,serif" font-size="14.00">Remove Payment Block (28203)</text>
</g>
<!-- Record Goods Receipt&#45;&gt;Remove Payment Block -->
<g id="edge16" class="edge">
<title>Record Goods Receipt&#45;&gt;Remove Payment Block</title>
<path fill="none" stroke="#000000" stroke-width="0.86" d="M191.61,-355.56C192.64,-325.94 194.75,-265.54 196,-229.64"/>
<polygon fill="#000000" stroke="#000000" stroke-width="0.86" points="199.49,-229.9 196.34,-219.78 192.5,-229.65 199.49,-229.9"/>
<text text-anchor="middle" x="209" y="-283.3" font-family="Times,serif" font-size="14.00">8835</text>
</g>
<!-- Record Goods Receipt&#45;&gt;end_node -->
<g id="edge22" class="edge">
<title>Record Goods Receipt&#45;&gt;end_node</title>
<path fill="none" stroke="#000000" stroke-width="1.22" d="M110.02,-355.55C76.81,-343.18 46,-322.43 46,-288 46,-288 46,-288 46,-112 46,-39.04 157.34,-25.33 215.1,-23.13"/>
<polygon fill="#000000" stroke="#000000" stroke-width="1.22" points="215.14,-26.63 225.04,-22.86 214.95,-19.63 215.14,-26.63"/>
<text text-anchor="middle" x="63" y="-196.3" font-family="Times,serif" font-size="14.00">15937</text>
</g>
<!-- Record Invoice Receipt&#45;&gt;Record Goods Receipt -->
<g id="edge15" class="edge">
<title>Record Invoice Receipt&#45;&gt;Record Goods Receipt</title>
<path fill="none" stroke="#000000" stroke-width="0.86" d="M253.12,-305.45C242.01,-310.03 231.24,-315.78 222,-323 214.22,-329.08 207.89,-337.7 203.03,-346.07"/>
<polygon fill="#000000" stroke="#000000" stroke-width="0.86" points="199.99,-344.35 198.44,-354.83 206.18,-347.6 199.99,-344.35"/>
<text text-anchor="middle" x="236" y="-326.8" font-family="Times,serif" font-size="14.00">8835</text>
</g>
<!-- Clear Invoice -->
<g id="node7" class="node">
<title>Clear Invoice</title>
<polygon fill="#b1b1ff" stroke="black" points="320.5,-131 177.5,-131 177.5,-95 320.5,-95 320.5,-131"/>
<text text-anchor="middle" x="249" y="-109.3" font-family="Times,serif" font-size="14.00">Clear Invoice (136738)</text>
</g>
<!-- Record Invoice Receipt&#45;&gt;Clear Invoice -->
<g id="edge6" class="edge">
<title>Record Invoice Receipt&#45;&gt;Clear Invoice</title>
<path fill="none" stroke="#000000" stroke-width="6" d="M328.8,-268.64C325.58,-247.32 318.36,-210.48 304,-182 297.07,-168.26 287.01,-154.74 277.38,-143.42"/>
<polygon fill="#000000" stroke="#000000" stroke-width="6" points="281.38,-140.02 270.8,-136.07 273.56,-147.02 281.38,-140.02"/>
<text text-anchor="middle" x="338.5" y="-196.3" font-family="Times,serif" font-size="14.00">108535</text>
</g>
<!-- Record Invoice Receipt&#45;&gt;Remove Payment Block -->
<g id="edge10" class="edge">
<title>Record Invoice Receipt&#45;&gt;Remove Payment Block</title>
<path fill="none" stroke="#000000" stroke-width="1.4" d="M303.56,-268.59C283.6,-255.93 256.34,-238.64 234.38,-224.71"/>
<polygon fill="#000000" stroke="#000000" stroke-width="1.4" points="236.51,-221.92 226.19,-219.52 232.76,-227.83 236.51,-221.92"/>
<text text-anchor="middle" x="290" y="-239.8" font-family="Times,serif" font-size="14.00">19368</text>
</g>
<!-- Record Invoice Receipt&#45;&gt;end_node -->
<g id="edge24" class="edge">
<title>Record Invoice Receipt&#45;&gt;end_node</title>
<path fill="none" stroke="#000000" stroke-width="1.17" d="M341.82,-268.59C349.42,-255.29 358.93,-236.21 363,-218 366.49,-202.39 365.96,-197.72 363,-182 355.31,-141.2 352.22,-129.41 329,-95 317.04,-77.28 309.86,-76.34 294,-62 287.57,-56.18 280.52,-49.99 273.95,-44.3"/>
<polygon fill="#000000" stroke="#000000" stroke-width="1.17" points="276.59,-41.95 266.73,-38.07 272.01,-47.25 276.59,-41.95"/>
<text text-anchor="middle" x="377" y="-152.8" font-family="Times,serif" font-size="14.00">14798</text>
</g>
<!-- Clear Invoice&#45;&gt;end_node -->
<g id="edge21" class="edge">
<title>Clear Invoice&#45;&gt;end_node</title>
<path fill="none" stroke="#000000" stroke-width="7.45" d="M249,-94.84C249,-85.13 249,-72.59 249,-60.72"/>
<polygon fill="#000000" stroke="#000000" stroke-width="7.45" points="255.52,-61.01 249,-51.01 242.48,-61.01 255.52,-61.01"/>
<text text-anchor="middle" x="269.5" y="-65.8" font-family="Times,serif" font-size="14.00">136738</text>
</g>
<!-- Remove Payment Block&#45;&gt;Clear Invoice -->
<g id="edge11" class="edge">
<title>Remove Payment Block&#45;&gt;Clear Invoice</title>
<path fill="none" stroke="#000000" stroke-width="1.86" d="M207.52,-181.8C214.45,-170.47 223.69,-155.36 231.69,-142.29"/>
<polygon fill="#000000" stroke="#000000" stroke-width="1.86" points="234.61,-144.22 236.85,-133.86 228.64,-140.57 234.61,-144.22"/>
<text text-anchor="middle" x="244" y="-152.8" font-family="Times,serif" font-size="14.00">28203</text>
</g>
<!-- Receive Order Confirmation&#45;&gt;Vendor creates invoice -->
<g id="edge18" class="edge">
<title>Receive Order Confirmation&#45;&gt;Vendor creates invoice</title>
<path fill="none" stroke="#ff0000" stroke-width="0.62" stroke-dasharray="5,2" d="M200.43,-550.73C225.53,-533 264.76,-505.28 292.69,-485.54"/>
<polygon fill="#ff0000" stroke="#ff0000" stroke-width="0.62" points="294.41,-488.61 300.56,-479.98 290.37,-482.89 294.41,-488.61"/>
<text text-anchor="middle" x="288" y="-511.3" font-family="Times,serif" font-size="14.00">4244</text>
</g>
<!-- Receive Order Confirmation&#45;&gt;Record Goods Receipt -->
<g id="edge13" class="edge">
<title>Receive Order Confirmation&#45;&gt;Record Goods Receipt</title>
<path fill="none" stroke="#000000" stroke-width="1.02" d="M177.36,-550.53C179.95,-517.23 185.61,-444.37 188.76,-403.77"/>
<polygon fill="#000000" stroke="#000000" stroke-width="1.02" points="192.25,-404.06 189.54,-393.82 185.27,-403.52 192.25,-404.06"/>
<text text-anchor="middle" x="203" y="-457.3" font-family="Times,serif" font-size="14.00">11915</text>
</g>
<!-- Delete Purchase Order Item&#45;&gt;end_node -->
<g id="edge23" class="edge">
<title>Delete Purchase Order Item&#45;&gt;end_node</title>
<path fill="none" stroke="#ff0000" stroke-width="0.68" stroke-dasharray="5,2" d="M586.02,-496.61C565.95,-479.26 540,-450.61 540,-418.5 540,-418.5 540,-418.5 540,-112 540,-58.48 357.74,-33.93 281.7,-26.02"/>
<polygon fill="#ff0000" stroke="#ff0000" stroke-width="0.68" points="282.19,-22.55 271.89,-25.03 281.49,-29.51 282.19,-22.55"/>
<text text-anchor="middle" x="554" y="-283.3" font-family="Times,serif" font-size="14.00">5298</text>
</g>
<!-- Change Quantity&#45;&gt;Vendor creates invoice -->
<g id="edge20" class="edge">
<title>Change Quantity&#45;&gt;Vendor creates invoice</title>
<path fill="none" stroke="#ff0000" stroke-width="0.5" stroke-dasharray="5,2" d="M369.65,-550.97C361.43,-534.22 348.77,-508.41 339.19,-488.89"/>
<polygon fill="#ff0000" stroke="#ff0000" stroke-width="0.5" points="342.39,-487.46 334.84,-480.02 336.1,-490.54 342.39,-487.46"/>
<text text-anchor="middle" x="374" y="-511.3" font-family="Times,serif" font-size="14.00">1898</text>
</g>
</g>
</svg>
