<?xml version="1.0" encoding="UTF-8" standalone="no"?>
<!DOCTYPE svg PUBLIC "-//W3C//DTD SVG 1.1//EN"
 "http://www.w3.org/Graphics/SVG/1.1/DTD/svg11.dtd">
<!-- Generated by graphviz version 7.0.5 (0)
 -->
<!-- Title: dfg Pages: 1 -->
<svg width="525pt" height="748pt"
 viewBox="0.00 0.00 524.50 748.00" xmlns="http://www.w3.org/2000/svg" xmlns:xlink="http://www.w3.org/1999/xlink">
<g id="graph0" class="graph" transform="scale(1 1) rotate(0) translate(4 744)">
<title>dfg</title>
<polygon fill="white" stroke="none" points="-4,4 -4,-744 520.5,-744 520.5,4 -4,4"/>
<!-- start_node -->
<g id="node1" class="node">
<title>start_node</title>
<ellipse fill="none" stroke="black" cx="234" cy="-722" rx="18" ry="18"/>
<text text-anchor="start" x="229.5" y="-718.3" font-family="Times,serif" font-size="14.00">●</text>
</g>
<!-- Create Purchase Order Item -->
<g id="node2" class="node">
<title>Create Purchase Order Item</title>
<polygon fill="#9b9bff" stroke="black" points="345,-566 123,-566 123,-530 345,-530 345,-566"/>
<text text-anchor="middle" x="234" y="-544.3" font-family="Times,serif" font-size="14.00">Create Purchase Order Item (132131)</text>
</g>
<!-- start_node&#45;&gt;Create Purchase Order Item -->
<g id="edge1" class="edge">
<title>start_node&#45;&gt;Create Purchase Order Item</title>
<path fill="none" stroke="#000000" stroke-width="7.42" d="M231.73,-703.71C230.04,-689.99 227.89,-670.3 227,-653 226.18,-637.02 226.18,-632.98 227,-617 227.58,-605.78 228.68,-593.56 229.85,-582.61"/>
<polygon fill="#000000" stroke="#000000" stroke-width="7.42" points="236.26,-583.74 230.95,-573.06 223.35,-582.25 236.26,-583.74"/>
<text text-anchor="middle" x="247.5" y="-631.3" font-family="Times,serif" font-size="14.00">123210</text>
</g>
<!-- Create Purchase Requisition Item -->
<g id="node3" class="node">
<title>Create Purchase Requisition Item</title>
<polygon fill="#ffffff" stroke="black" points="516.5,-653 277.5,-653 277.5,-617 516.5,-617 516.5,-653"/>
<text text-anchor="middle" x="397" y="-631.3" font-family="Times,serif" font-size="14.00">Create Purchase Requisition Item (8921)</text>
</g>
<!-- start_node&#45;&gt;Create Purchase Requisition Item -->
<g id="edge2" class="edge">
<title>start_node&#45;&gt;Create Purchase Requisition Item</title>
<path fill="none" stroke="#000000" stroke-width="0.51" d="M249.93,-712.7C273.87,-700.21 319.98,-676.16 354.22,-658.31"/>
<polygon fill="#000000" stroke="#000000" stroke-width="0.51" points="355.6,-661.53 362.85,-653.81 352.37,-655.33 355.6,-661.53"/>
<text text-anchor="middle" x="339" y="-674.8" font-family="Times,serif" font-size="14.00">8921</text>
</g>
<!-- Vendor creates invoice -->
<g id="node4" class="node">
<title>Vendor creates invoice</title>
<polygon fill="#a4a4ff" stroke="black" points="198,-479 4,-479 4,-443 198,-443 198,-479"/>
<text text-anchor="middle" x="101" y="-457.3" font-family="Times,serif" font-size="14.00">Vendor creates invoice (119917)</text>
</g>
<!-- Create Purchase Order Item&#45;&gt;Vendor creates invoice -->
<g id="edge3" class="edge">
<title>Create Purchase Order Item&#45;&gt;Vendor creates invoice</title>
<path fill="none" stroke="#000000" stroke-width="4.77" d="M206.76,-529.59C188.03,-517.62 162.81,-501.5 141.7,-488.01"/>
<polygon fill="#000000" stroke="#000000" stroke-width="4.77" points="144.09,-484.58 133.42,-482.72 139.59,-491.62 144.09,-484.58"/>
<text text-anchor="middle" x="193" y="-500.8" font-family="Times,serif" font-size="14.00">79425</text>
</g>
<!-- Record Goods Receipt -->
<g id="node5" class="node">
<title>Record Goods Receipt</title>
<polygon fill="#9b9bff" stroke="black" points="330.5,-392 137.5,-392 137.5,-356 330.5,-356 330.5,-392"/>
<text text-anchor="middle" x="234" y="-370.3" font-family="Times,serif" font-size="14.00">Record Goods Receipt (132131)</text>
</g>
<!-- Create Purchase Order Item&#45;&gt;Record Goods Receipt -->
<g id="edge7" class="edge">
<title>Create Purchase Order Item&#45;&gt;Record Goods Receipt</title>
<path fill="none" stroke="#000000" stroke-width="2.57" d="M234,-529.56C234,-500.59 234,-442.15 234,-406.01"/>
<polygon fill="#000000" stroke="#000000" stroke-width="2.57" points="237.5,-406.37 234,-396.37 230.5,-406.37 237.5,-406.37"/>
<text text-anchor="middle" x="251" y="-457.3" font-family="Times,serif" font-size="14.00">43012</text>
</g>
<!-- Receive Order Confirmation -->
<g id="node9" class="node">
<title>Receive Order Confirmation</title>
<polygon fill="#fefeff" stroke="black" points="498,-479 286,-479 286,-443 498,-443 498,-479"/>
<text text-anchor="middle" x="392" y="-457.3" font-family="Times,serif" font-size="14.00">Receive Order Confirmation (9694)</text>
</g>
<!-- Create Purchase Order Item&#45;&gt;Receive Order Confirmation -->
<g id="edge12" class="edge">
<title>Create Purchase Order Item&#45;&gt;Receive Order Confirmation</title>
<path fill="none" stroke="#000000" stroke-width="0.55" d="M266.35,-529.59C290.64,-516.53 324.08,-498.54 350.36,-484.4"/>
<polygon fill="#000000" stroke="#000000" stroke-width="0.55" points="351.8,-487.6 358.95,-479.78 348.49,-481.43 351.8,-487.6"/>
<text text-anchor="middle" x="337" y="-500.8" font-family="Times,serif" font-size="14.00">9694</text>
</g>
<!-- Create Purchase Requisition Item&#45;&gt;Create Purchase Order Item -->
<g id="edge14" class="edge">
<title>Create Purchase Requisition Item&#45;&gt;Create Purchase Order Item</title>
<path fill="none" stroke="#000000" stroke-width="0.51" d="M363.62,-616.59C338.46,-603.47 303.76,-585.38 276.6,-571.21"/>
<polygon fill="#000000" stroke="#000000" stroke-width="0.51" points="278.5,-568.26 268.01,-566.74 275.26,-574.46 278.5,-568.26"/>
<text text-anchor="middle" x="339" y="-587.8" font-family="Times,serif" font-size="14.00">8921</text>
</g>
<!-- Vendor creates invoice&#45;&gt;Record Goods Receipt -->
<g id="edge4" class="edge">
<title>Vendor creates invoice&#45;&gt;Record Goods Receipt</title>
<path fill="none" stroke="#000000" stroke-width="4.24" d="M106.28,-442.54C110.35,-431.78 117,-418.48 127,-410 131.51,-406.17 136.45,-402.76 141.66,-399.72"/>
<polygon fill="#000000" stroke="#000000" stroke-width="4.24" points="143.25,-403.07 150.51,-395.25 139.91,-396.44 143.25,-403.07"/>
<text text-anchor="middle" x="144" y="-413.8" font-family="Times,serif" font-size="14.00">70590</text>
</g>
<!-- Record Invoice Receipt -->
<g id="node6" class="node">
<title>Record Invoice Receipt</title>
<polygon fill="#a4a4ff" stroke="black" points="198,-305 0,-305 0,-269 198,-269 198,-305"/>
<text text-anchor="middle" x="99" y="-283.3" font-family="Times,serif" font-size="14.00">Record Invoice Receipt (119917)</text>
</g>
<!-- Vendor creates invoice&#45;&gt;Record Invoice Receipt -->
<g id="edge9" class="edge">
<title>Vendor creates invoice&#45;&gt;Record Invoice Receipt</title>
<path fill="none" stroke="#000000" stroke-width="2.95" d="M98.73,-442.71C97.04,-428.99 94.89,-409.3 94,-392 92.75,-367.69 94.2,-340.17 95.85,-319.56"/>
<polygon fill="#000000" stroke="#000000" stroke-width="2.95" points="99.33,-320.02 96.72,-309.75 92.35,-319.4 99.33,-320.02"/>
<text text-anchor="middle" x="111" y="-370.3" font-family="Times,serif" font-size="14.00">49327</text>
</g>
<!-- Record Goods Receipt&#45;&gt;Vendor creates invoice -->
<g id="edge8" class="edge">
<title>Record Goods Receipt&#45;&gt;Vendor creates invoice</title>
<path fill="none" stroke="#000000" stroke-width="2.42" d="M209.63,-392.34C195.58,-402.18 177.48,-414.57 161,-425 155.29,-428.62 149.2,-432.33 143.17,-435.92"/>
<polygon fill="#000000" stroke="#000000" stroke-width="2.42" points="141.78,-432.68 134.93,-440.76 145.33,-438.71 141.78,-432.68"/>
<text text-anchor="middle" x="201" y="-413.8" font-family="Times,serif" font-size="14.00">40492</text>
</g>
<!-- Record Goods Receipt&#45;&gt;Record Invoice Receipt -->
<g id="edge5" class="edge">
<title>Record Goods Receipt&#45;&gt;Record Invoice Receipt</title>
<path fill="none" stroke="#000000" stroke-width="4.24" d="M206.35,-355.59C187.24,-343.56 161.49,-327.35 140,-313.82"/>
<polygon fill="#000000" stroke="#000000" stroke-width="4.24" points="142.2,-310.82 131.77,-308.63 138.25,-317.1 142.2,-310.82"/>
<text text-anchor="middle" x="192" y="-326.8" font-family="Times,serif" font-size="14.00">70590</text>
</g>
<!-- Remove Payment Block -->
<g id="node8" class="node">
<title>Remove Payment Block</title>
<polygon fill="#f5f5ff" stroke="black" points="293.5,-218 96.5,-218 96.5,-182 293.5,-182 293.5,-218"/>
<text text-anchor="middle" x="195" y="-196.3" font-family="Times,serif" font-size="14.00">Remove Payment Block (20218)</text>
</g>
<!-- Record Goods Receipt&#45;&gt;Remove Payment Block -->
<g id="edge16" class="edge">
<title>Record Goods Receipt&#45;&gt;Remove Payment Block</title>
<path fill="none" stroke="#000000" stroke-width="0.5" d="M230.05,-355.56C223.27,-325.69 209.39,-264.48 201.28,-228.71"/>
<polygon fill="#000000" stroke="#000000" stroke-width="0.5" points="204.76,-228.2 199.13,-219.22 197.93,-229.75 204.76,-228.2"/>
<text text-anchor="middle" x="233" y="-283.3" font-family="Times,serif" font-size="14.00">8835</text>
</g>
<!-- end_node -->
<g id="node10" class="node">
<title>end_node</title>
<ellipse fill="none" stroke="black" cx="263" cy="-22" rx="18" ry="18"/>
<ellipse fill="none" stroke="black" cx="263" cy="-22" rx="22" ry="22"/>
<text text-anchor="start" x="258.5" y="-18.3" font-family="Times,serif" font-size="14.00">■</text>
</g>
<!-- Record Goods Receipt&#45;&gt;end_node -->
<g id="edge18" class="edge">
<title>Record Goods Receipt&#45;&gt;end_node</title>
<path fill="none" stroke="#000000" stroke-width="0.7" d="M275.55,-355.51C301.49,-341.5 330,-319.05 330,-288 330,-288 330,-288 330,-112 330,-83.66 308.04,-58.6 289.27,-42.35"/>
<polygon fill="#000000" stroke="#000000" stroke-width="0.7" points="291.73,-39.84 281.78,-36.2 287.29,-45.25 291.73,-39.84"/>
<text text-anchor="middle" x="347" y="-196.3" font-family="Times,serif" font-size="14.00">12214</text>
</g>
<!-- Record Invoice Receipt&#45;&gt;Record Goods Receipt -->
<g id="edge15" class="edge">
<title>Record Invoice Receipt&#45;&gt;Record Goods Receipt</title>
<path fill="none" stroke="#000000" stroke-width="0.5" d="M105,-305.47C109.51,-316.23 116.7,-329.53 127,-338 133.21,-343.11 140.19,-347.48 147.52,-351.21"/>
<polygon fill="#000000" stroke="#000000" stroke-width="0.5" points="145.75,-354.25 156.29,-355.3 148.7,-347.9 145.75,-354.25"/>
<text text-anchor="middle" x="141" y="-326.8" font-family="Times,serif" font-size="14.00">8835</text>
</g>
<!-- Clear Invoice -->
<g id="node7" class="node">
<title>Clear Invoice</title>
<polygon fill="#a4a4ff" stroke="black" points="266.5,-131 123.5,-131 123.5,-95 266.5,-95 266.5,-131"/>
<text text-anchor="middle" x="195" y="-109.3" font-family="Times,serif" font-size="14.00">Clear Invoice (119917)</text>
</g>
<!-- Record Invoice Receipt&#45;&gt;Clear Invoice -->
<g id="edge6" class="edge">
<title>Record Invoice Receipt&#45;&gt;Clear Invoice</title>
<path fill="none" stroke="#000000" stroke-width="6" d="M81.2,-268.67C61.58,-247.37 35.01,-210.57 53,-182 65.78,-161.71 86.49,-147.33 108.18,-137.21"/>
<polygon fill="#000000" stroke="#000000" stroke-width="6" points="110.14,-142.08 117.32,-133.36 106.07,-132.4 110.14,-142.08"/>
<text text-anchor="middle" x="70" y="-196.3" font-family="Times,serif" font-size="14.00">99699</text>
</g>
<!-- Record Invoice Receipt&#45;&gt;Remove Payment Block -->
<g id="edge10" class="edge">
<title>Record Invoice Receipt&#45;&gt;Remove Payment Block</title>
<path fill="none" stroke="#000000" stroke-width="0.65" d="M118.43,-268.8C132.52,-256.32 151.77,-239.28 167.45,-225.4"/>
<polygon fill="#000000" stroke="#000000" stroke-width="0.65" points="169.36,-228.37 174.53,-219.12 164.72,-223.13 169.36,-228.37"/>
<text text-anchor="middle" x="170" y="-239.8" font-family="Times,serif" font-size="14.00">11383</text>
</g>
<!-- Clear Invoice&#45;&gt;end_node -->
<g id="edge17" class="edge">
<title>Clear Invoice&#45;&gt;end_node</title>
<path fill="none" stroke="#000000" stroke-width="7.22" d="M208.11,-94.84C217.14,-83.02 229.38,-67 240.01,-53.08"/>
<polygon fill="#000000" stroke="#000000" stroke-width="7.22" points="244.78,-57.26 245.82,-45.48 234.73,-49.59 244.78,-57.26"/>
<text text-anchor="middle" x="254.5" y="-65.8" font-family="Times,serif" font-size="14.00">119917</text>
</g>
<!-- Remove Payment Block&#45;&gt;Clear Invoice -->
<g id="edge11" class="edge">
<title>Remove Payment Block&#45;&gt;Clear Invoice</title>
<path fill="none" stroke="#000000" stroke-width="1.19" d="M195,-181.8C195,-170.7 195,-155.97 195,-143.08"/>
<polygon fill="#000000" stroke="#000000" stroke-width="1.19" points="198.5,-143.27 195,-133.27 191.5,-143.27 198.5,-143.27"/>
<text text-anchor="middle" x="212" y="-152.8" font-family="Times,serif" font-size="14.00">20218</text>
</g>
<!-- Receive Order Confirmation&#45;&gt;Record Goods Receipt -->
<g id="edge13" class="edge">
<title>Receive Order Confirmation&#45;&gt;Record Goods Receipt</title>
<path fill="none" stroke="#000000" stroke-width="0.55" d="M359.65,-442.59C335.36,-429.53 301.92,-411.54 275.64,-397.4"/>
<polygon fill="#000000" stroke="#000000" stroke-width="0.55" points="277.51,-394.43 267.05,-392.78 274.2,-400.6 277.51,-394.43"/>
<text text-anchor="middle" x="337" y="-413.8" font-family="Times,serif" font-size="14.00">9694</text>
</g>
</g>
</svg>
