<svg class="main-svg" xmlns="http://www.w3.org/2000/svg" xmlns:xlink="http://www.w3.org/1999/xlink" width="700" height="500" style="" viewBox="0 0 700 500"><rect x="0" y="0" width="700" height="500" style="fill: rgb(255, 255, 255); fill-opacity: 1;"/><defs id="defs-9bca5a"><g class="clips"><clipPath id="clip9bca5axyplot" class="plotclip"><rect width="540" height="342"/></clipPath><clipPath class="axesclip" id="clip9bca5ax"><rect x="80" y="0" width="540" height="500"/></clipPath><clipPath class="axesclip" id="clip9bca5ay"><rect x="0" y="60" width="700" height="342"/></clipPath><clipPath class="axesclip" id="clip9bca5axy"><rect x="80" y="60" width="540" height="342"/></clipPath></g><g class="gradients"/><g class="patterns"/></defs><g class="bglayer"><rect class="bg" x="80" y="60" width="540" height="342" style="fill: rgb(229, 236, 246); fill-opacity: 1; stroke-width: 0;"/></g><g class="layer-below"><g class="imagelayer"/><g class="shapelayer"/></g><g class="cartesianlayer"><g class="subplot xy"><g class="layer-subplot"><g class="shapelayer"/><g class="imagelayer"/></g><g class="minor-gridlayer"><g class="x"/><g class="y"/></g><g class="gridlayer"><g class="x"/><g class="y"><path class="ygrid crisp" transform="translate(0,344.92)" d="M80,0h540" style="stroke: rgb(255, 255, 255); stroke-opacity: 1; stroke-width: 1px;"/><path class="ygrid crisp" transform="translate(0,304.93)" d="M80,0h540" style="stroke: rgb(255, 255, 255); stroke-opacity: 1; stroke-width: 1px;"/><path class="ygrid crisp" transform="translate(0,264.95)" d="M80,0h540" style="stroke: rgb(255, 255, 255); stroke-opacity: 1; stroke-width: 1px;"/><path class="ygrid crisp" transform="translate(0,224.96)" d="M80,0h540" style="stroke: rgb(255, 255, 255); stroke-opacity: 1; stroke-width: 1px;"/><path class="ygrid crisp" transform="translate(0,184.98000000000002)" d="M80,0h540" style="stroke: rgb(255, 255, 255); stroke-opacity: 1; stroke-width: 1px;"/><path class="ygrid crisp" transform="translate(0,144.99)" d="M80,0h540" style="stroke: rgb(255, 255, 255); stroke-opacity: 1; stroke-width: 1px;"/><path class="ygrid crisp" transform="translate(0,105.00999999999999)" d="M80,0h540" style="stroke: rgb(255, 255, 255); stroke-opacity: 1; stroke-width: 1px;"/><path class="ygrid crisp" transform="translate(0,65.02)" d="M80,0h540" style="stroke: rgb(255, 255, 255); stroke-opacity: 1; stroke-width: 1px;"/></g></g><g class="zerolinelayer"><path class="yzl zl crisp" transform="translate(0,384.9)" d="M80,0h540" style="stroke: rgb(255, 255, 255); stroke-opacity: 1; stroke-width: 2px;"/></g><path class="xlines-below"/><path class="ylines-below"/><g class="overlines-below"/><g class="xaxislayer-below"/><g class="yaxislayer-below"/><g class="overaxes-below"/><g class="plot" transform="translate(80,60)" clip-path="url(#clip9bca5axyplot)"><g class="boxlayer mlayer"><g class="trace boxes" style="opacity: 1;"><path class="box" d="M9.84,294.05H28.74M9.84,317.19H28.74V287.85H9.84ZM19.29,317.19V324.9M19.29,287.85V285.79M14.56,324.9H24.01M14.56,285.79H24.01" style="vector-effect: non-scaling-stroke; stroke-width: 2px; stroke: rgb(99, 110, 250); stroke-opacity: 1; fill: rgb(99, 110, 250); fill-opacity: 0.5;"/><path class="box" d="M48.41,298.76H67.31M48.41,318.36H67.31V289.03H48.41ZM57.86,318.36V324.9M57.86,289.03V285.79M53.13,324.9H62.58M53.13,285.79H62.58" style="vector-effect: non-scaling-stroke; stroke-width: 2px; stroke: rgb(99, 110, 250); stroke-opacity: 1; fill: rgb(99, 110, 250); fill-opacity: 0.5;"/><path class="box" d="M86.98,298.76H105.88M86.98,318.36H105.88V295.22H86.98ZM96.43,318.36V324.9M96.43,295.22V294.05M91.7,324.9H101.15M91.7,294.05H101.15" style="vector-effect: non-scaling-stroke; stroke-width: 2px; stroke: rgb(99, 110, 250); stroke-opacity: 1; fill: rgb(99, 110, 250); fill-opacity: 0.5;"/><path class="box" d="M125.55,46.93H144.45M125.55,218.93H144.45V33.87H125.55ZM135,218.93V324.9M135,33.87V17.1M130.27,324.9H139.73M130.27,17.1H139.73" style="vector-effect: non-scaling-stroke; stroke-width: 2px; stroke: rgb(99, 110, 250); stroke-opacity: 1; fill: rgb(99, 110, 250); fill-opacity: 0.5;"/><path class="box" d="M164.12,127.55H183.02M164.12,240.95H183.02V44.93H164.12ZM173.57,240.95V324.9M173.57,44.93V17.1M168.85,324.9H178.3M168.85,17.1H178.3" style="vector-effect: non-scaling-stroke; stroke-width: 2px; stroke: rgb(99, 110, 250); stroke-opacity: 1; fill: rgb(99, 110, 250); fill-opacity: 0.5;"/><path class="box" d="M202.69,147.97H221.59M202.69,269.75H221.59V76.99H202.69ZM212.14,269.75V324.9M212.14,76.99V51.32M207.42,324.9H216.87M207.42,51.32H216.87" style="vector-effect: non-scaling-stroke; stroke-width: 2px; stroke: rgb(99, 110, 250); stroke-opacity: 1; fill: rgb(99, 110, 250); fill-opacity: 0.5;"/><path class="box" d="M241.26,189.34H260.16M241.26,244.15H260.16V81.38H241.26ZM250.71,244.15V324.9M250.71,81.38V42.65M245.99,324.9H255.44M245.99,42.65H255.44" style="vector-effect: non-scaling-stroke; stroke-width: 2px; stroke: rgb(99, 110, 250); stroke-opacity: 1; fill: rgb(99, 110, 250); fill-opacity: 0.5;"/><path class="box" d="M279.84,164.77H298.74M279.84,255.97H298.74V64.94H279.84ZM289.29,255.97V324.9M289.29,64.94V30.94M284.56,324.9H294.01M284.56,30.94H294.01" style="vector-effect: non-scaling-stroke; stroke-width: 2px; stroke: rgb(99, 110, 250); stroke-opacity: 1; fill: rgb(99, 110, 250); fill-opacity: 0.5;"/><path class="box" d="M318.41,164.77H337.31M318.41,261.47H337.31V77.16H318.41ZM327.86,261.47V324.9M327.86,77.16V46.93M323.13,324.9H332.58M323.13,46.93H332.58" style="vector-effect: non-scaling-stroke; stroke-width: 2px; stroke: rgb(99, 110, 250); stroke-opacity: 1; fill: rgb(99, 110, 250); fill-opacity: 0.5;"/><path class="box" d="M356.98,60.36H375.88M356.98,226.43H375.88V44.38H356.98ZM366.43,226.43V324.9M366.43,44.38V26.14M361.7,324.9H371.15M361.7,26.14H371.15" style="vector-effect: non-scaling-stroke; stroke-width: 2px; stroke: rgb(99, 110, 250); stroke-opacity: 1; fill: rgb(99, 110, 250); fill-opacity: 0.5;"/><path class="box" d="M395.55,194H414.45M395.55,222.98H414.45V90.63H395.55ZM405,222.98V324.9M405,90.63V51.21M400.28,324.9H409.73M400.28,51.21H409.73" style="vector-effect: non-scaling-stroke; stroke-width: 2px; stroke: rgb(99, 110, 250); stroke-opacity: 1; fill: rgb(99, 110, 250); fill-opacity: 0.5;"/><path class="box" d="M434.12,156.32H453.02M434.12,256.83H453.02V60.14H434.12ZM443.57,256.83V324.9M443.57,60.14V27.6M438.85,324.9H448.3M438.85,27.6H448.3" style="vector-effect: non-scaling-stroke; stroke-width: 2px; stroke: rgb(99, 110, 250); stroke-opacity: 1; fill: rgb(99, 110, 250); fill-opacity: 0.5;"/><path class="box" d="M472.69,59.44H491.59M472.69,222.22H491.59V43.06H472.69ZM482.14,222.22V324.9M482.14,43.06V24.67M477.42,324.9H486.87M477.42,24.67H486.87" style="vector-effect: non-scaling-stroke; stroke-width: 2px; stroke: rgb(99, 110, 250); stroke-opacity: 1; fill: rgb(99, 110, 250); fill-opacity: 0.5;"/><path class="box" d="M511.26,136.33H530.16M511.26,253.61H530.16V70.12H511.26ZM520.71,253.61V324.9M520.71,70.12V45.98M515.99,324.9H525.44M515.99,45.98H525.44" style="vector-effect: non-scaling-stroke; stroke-width: 2px; stroke: rgb(99, 110, 250); stroke-opacity: 1; fill: rgb(99, 110, 250); fill-opacity: 0.5;"/><g class="points"/><g class="points"/><g class="points"/><g class="points"/><g class="points"/><g class="points"/><g class="points"/><g class="points"/><g class="points"/><g class="points"/><g class="points"/><g class="points"/><g class="points"/><g class="points"/></g></g></g><g class="overplot"/><path class="xlines-above crisp" d="M0,0" style="fill: none;"/><path class="ylines-above crisp" d="M0,0" style="fill: none;"/><g class="overlines-above"/><g class="xaxislayer-above"><g class="xtick"><text text-anchor="start" x="0" y="415" transform="translate(99.28999999999999,0) rotate(30,0,409)" style="font-family: 'Open Sans', verdana, arial, sans-serif; font-size: 12px; fill: rgb(42, 63, 95); fill-opacity: 1; white-space: pre; opacity: 1;">cluster0</text></g><g class="xtick"><text text-anchor="start" x="0" y="415" transform="translate(137.86,0) rotate(30,0,409)" style="font-family: 'Open Sans', verdana, arial, sans-serif; font-size: 12px; fill: rgb(42, 63, 95); fill-opacity: 1; white-space: pre; opacity: 1;">cluster1</text></g><g class="xtick"><text text-anchor="start" x="0" y="415" transform="translate(176.43,0) rotate(30,0,409)" style="font-family: 'Open Sans', verdana, arial, sans-serif; font-size: 12px; fill: rgb(42, 63, 95); fill-opacity: 1; white-space: pre; opacity: 1;">cluster2</text></g><g class="xtick"><text text-anchor="start" x="0" y="415" transform="translate(215,0) rotate(30,0,409)" style="font-family: 'Open Sans', verdana, arial, sans-serif; font-size: 12px; fill: rgb(42, 63, 95); fill-opacity: 1; white-space: pre; opacity: 1;">cluster0-medoid0</text></g><g class="xtick"><text text-anchor="start" x="0" y="415" transform="translate(253.57,0) rotate(30,0,409)" style="font-family: 'Open Sans', verdana, arial, sans-serif; font-size: 12px; fill: rgb(42, 63, 95); fill-opacity: 1; white-space: pre; opacity: 1;">cluster0-medoid1</text></g><g class="xtick"><text text-anchor="start" x="0" y="415" transform="translate(292.14,0) rotate(30,0,409)" style="font-family: 'Open Sans', verdana, arial, sans-serif; font-size: 12px; fill: rgb(42, 63, 95); fill-opacity: 1; white-space: pre; opacity: 1;">cluster0-medoid2</text></g><g class="xtick"><text text-anchor="start" x="0" y="415" transform="translate(330.71000000000004,0) rotate(30,0,409)" style="font-family: 'Open Sans', verdana, arial, sans-serif; font-size: 12px; fill: rgb(42, 63, 95); fill-opacity: 1; white-space: pre; opacity: 1;">cluster0-medoid3</text></g><g class="xtick"><text text-anchor="start" x="0" y="415" transform="translate(369.29,0) rotate(30,0,409)" style="font-family: 'Open Sans', verdana, arial, sans-serif; font-size: 12px; fill: rgb(42, 63, 95); fill-opacity: 1; white-space: pre; opacity: 1;">cluster1-medoid0</text></g><g class="xtick"><text text-anchor="start" x="0" y="415" transform="translate(407.86,0) rotate(30,0,409)" style="font-family: 'Open Sans', verdana, arial, sans-serif; font-size: 12px; fill: rgb(42, 63, 95); fill-opacity: 1; white-space: pre; opacity: 1;">cluster1-medoid1</text></g><g class="xtick"><text text-anchor="start" x="0" y="415" transform="translate(446.43,0) rotate(30,0,409)" style="font-family: 'Open Sans', verdana, arial, sans-serif; font-size: 12px; fill: rgb(42, 63, 95); fill-opacity: 1; white-space: pre; opacity: 1;">cluster1-medoid2</text></g><g class="xtick"><text text-anchor="start" x="0" y="415" transform="translate(485,0) rotate(30,0,409)" style="font-family: 'Open Sans', verdana, arial, sans-serif; font-size: 12px; fill: rgb(42, 63, 95); fill-opacity: 1; white-space: pre; opacity: 1;">cluster2-medoid0</text></g><g class="xtick"><text text-anchor="start" x="0" y="415" transform="translate(523.5699999999999,0) rotate(30,0,409)" style="font-family: 'Open Sans', verdana, arial, sans-serif; font-size: 12px; fill: rgb(42, 63, 95); fill-opacity: 1; white-space: pre; opacity: 1;">cluster2-medoid1</text></g><g class="xtick"><text text-anchor="start" x="0" y="415" transform="translate(562.14,0) rotate(30,0,409)" style="font-family: 'Open Sans', verdana, arial, sans-serif; font-size: 12px; fill: rgb(42, 63, 95); fill-opacity: 1; white-space: pre; opacity: 1;">cluster2-medoid2</text></g><g class="xtick"><text text-anchor="start" x="0" y="415" transform="translate(600.71,0) rotate(30,0,409)" style="font-family: 'Open Sans', verdana, arial, sans-serif; font-size: 12px; fill: rgb(42, 63, 95); fill-opacity: 1; white-space: pre; opacity: 1;">cluster2-medoid3</text></g></g><g class="yaxislayer-above"><g class="ytick"><text text-anchor="end" x="79" y="4.199999999999999" transform="translate(0,384.9)" style="font-family: 'Open Sans', verdana, arial, sans-serif; font-size: 12px; fill: rgb(42, 63, 95); fill-opacity: 1; white-space: pre; opacity: 1;">0</text></g><g class="ytick"><text text-anchor="end" x="79" y="4.199999999999999" style="font-family: 'Open Sans', verdana, arial, sans-serif; font-size: 12px; fill: rgb(42, 63, 95); fill-opacity: 1; white-space: pre; opacity: 1;" transform="translate(0,344.92)">0.1</text></g><g class="ytick"><text text-anchor="end" x="79" y="4.199999999999999" style="font-family: 'Open Sans', verdana, arial, sans-serif; font-size: 12px; fill: rgb(42, 63, 95); fill-opacity: 1; white-space: pre; opacity: 1;" transform="translate(0,304.93)">0.2</text></g><g class="ytick"><text text-anchor="end" x="79" y="4.199999999999999" style="font-family: 'Open Sans', verdana, arial, sans-serif; font-size: 12px; fill: rgb(42, 63, 95); fill-opacity: 1; white-space: pre; opacity: 1;" transform="translate(0,264.95)">0.3</text></g><g class="ytick"><text text-anchor="end" x="79" y="4.199999999999999" style="font-family: 'Open Sans', verdana, arial, sans-serif; font-size: 12px; fill: rgb(42, 63, 95); fill-opacity: 1; white-space: pre; opacity: 1;" transform="translate(0,224.96)">0.4</text></g><g class="ytick"><text text-anchor="end" x="79" y="4.199999999999999" style="font-family: 'Open Sans', verdana, arial, sans-serif; font-size: 12px; fill: rgb(42, 63, 95); fill-opacity: 1; white-space: pre; opacity: 1;" transform="translate(0,184.98000000000002)">0.5</text></g><g class="ytick"><text text-anchor="end" x="79" y="4.199999999999999" style="font-family: 'Open Sans', verdana, arial, sans-serif; font-size: 12px; fill: rgb(42, 63, 95); fill-opacity: 1; white-space: pre; opacity: 1;" transform="translate(0,144.99)">0.6</text></g><g class="ytick"><text text-anchor="end" x="79" y="4.199999999999999" style="font-family: 'Open Sans', verdana, arial, sans-serif; font-size: 12px; fill: rgb(42, 63, 95); fill-opacity: 1; white-space: pre; opacity: 1;" transform="translate(0,105.00999999999999)">0.7</text></g><g class="ytick"><text text-anchor="end" x="79" y="4.199999999999999" style="font-family: 'Open Sans', verdana, arial, sans-serif; font-size: 12px; fill: rgb(42, 63, 95); fill-opacity: 1; white-space: pre; opacity: 1;" transform="translate(0,65.02)">0.8</text></g></g><g class="overaxes-above"/></g></g><g class="polarlayer"/><g class="smithlayer"/><g class="ternarylayer"/><g class="geolayer"/><g class="funnelarealayer"/><g class="pielayer"/><g class="iciclelayer"/><g class="treemaplayer"/><g class="sunburstlayer"/><g class="glimages"/><defs id="topdefs-9bca5a"><g class="clips"/></defs><g class="layer-above"><g class="imagelayer"/><g class="shapelayer"/></g><g class="infolayer"><g class="g-gtitle"/><g class="g-xtitle"><text class="xtitle" x="350" y="487.7814453125" text-anchor="middle" style="font-family: 'Open Sans', verdana, arial, sans-serif; font-size: 14px; fill: rgb(42, 63, 95); opacity: 1; font-weight: normal; white-space: pre;">cluster_x</text></g><g class="g-ytitle"><text class="ytitle" transform="rotate(-90,37.5125,231)" x="37.5125" y="231" text-anchor="middle" style="font-family: 'Open Sans', verdana, arial, sans-serif; font-size: 14px; fill: rgb(42, 63, 95); opacity: 1; font-weight: normal; white-space: pre;">divergence</text></g></g></svg>