<?xml version="1.0" encoding="UTF-8" standalone="no"?>
<!DOCTYPE svg PUBLIC "-//W3C//DTD SVG 1.1//EN"
 "http://www.w3.org/Graphics/SVG/1.1/DTD/svg11.dtd">
<!-- Generated by graphviz version 7.0.5 (0)
 -->
<!-- Title: dfg Pages: 1 -->
<svg width="726pt" height="1204pt"
 viewBox="0.00 0.00 726.00 1204.00" xmlns="http://www.w3.org/2000/svg" xmlns:xlink="http://www.w3.org/1999/xlink">
<g id="graph0" class="graph" transform="scale(1 1) rotate(0) translate(4 1200)">
<title>dfg</title>
<polygon fill="white" stroke="none" points="-4,4 -4,-1200 722,-1200 722,4 -4,4"/>
<!-- start_node -->
<g id="node1" class="node">
<title>start_node</title>
<ellipse fill="none" stroke="black" cx="142" cy="-1178" rx="18" ry="18"/>
<text text-anchor="start" x="137.5" y="-1174.3" font-family="Times,serif" font-size="14.00">●</text>
</g>
<!-- A_Create Application -->
<g id="node2" class="node">
<title>A_Create Application</title>
<polygon fill="#eeeeff" stroke="black" points="226,-1109 58,-1109 58,-1073 226,-1073 226,-1109"/>
<text text-anchor="middle" x="142" y="-1087.3" font-family="Times,serif" font-size="14.00">A_Create Application (362)</text>
</g>
<!-- start_node&#45;&gt;A_Create Application -->
<g id="edge1" class="edge">
<title>start_node&#45;&gt;A_Create Application</title>
<path fill="none" stroke="#000000" stroke-width="1.93" d="M142,-1159.8C142,-1149.04 142,-1134.88 142,-1122.29"/>
<polygon fill="#000000" stroke="#000000" stroke-width="1.93" points="145.5,-1122.38 142,-1112.38 138.5,-1122.38 145.5,-1122.38"/>
<text text-anchor="middle" x="152.5" y="-1130.8" font-family="Times,serif" font-size="14.00">362</text>
</g>
<!-- W_Complete application -->
<g id="node3" class="node">
<title>W_Complete application</title>
<polygon fill="#c5c5ff" stroke="black" points="435,-1022 241,-1022 241,-986 435,-986 435,-1022"/>
<text text-anchor="middle" x="338" y="-1000.3" font-family="Times,serif" font-size="14.00">W_Complete application (1211)</text>
</g>
<!-- A_Create Application&#45;&gt;W_Complete application -->
<g id="edge2" class="edge">
<title>A_Create Application&#45;&gt;W_Complete application</title>
<path fill="none" stroke="#000000" stroke-width="1.38" d="M182.14,-1072.59C212.52,-1059.42 254.48,-1041.22 287.2,-1027.03"/>
<polygon fill="#000000" stroke="#000000" stroke-width="1.38" points="288.21,-1030.41 295.99,-1023.22 285.43,-1023.98 288.21,-1030.41"/>
<text text-anchor="middle" x="261.5" y="-1043.8" font-family="Times,serif" font-size="14.00">225</text>
</g>
<!-- A_Concept -->
<g id="node4" class="node">
<title>A_Concept</title>
<polygon fill="#eeeeff" stroke="black" points="301.5,-935 190.5,-935 190.5,-899 301.5,-899 301.5,-935"/>
<text text-anchor="middle" x="246" y="-913.3" font-family="Times,serif" font-size="14.00">A_Concept (362)</text>
</g>
<!-- A_Create Application&#45;&gt;A_Concept -->
<g id="edge22" class="edge">
<title>A_Create Application&#45;&gt;A_Concept</title>
<path fill="none" stroke="#000000" stroke-width="1.04" d="M152.54,-1072.56C170.69,-1042.56 207.93,-980.96 229.52,-945.25"/>
<polygon fill="#000000" stroke="#000000" stroke-width="1.04" points="232.44,-947.19 234.62,-936.83 226.45,-943.57 232.44,-947.19"/>
<text text-anchor="middle" x="214.5" y="-1000.3" font-family="Times,serif" font-size="14.00">137</text>
</g>
<!-- W_Complete application&#45;&gt;W_Complete application -->
<g id="edge3" class="edge">
<title>W_Complete application&#45;&gt;W_Complete application</title>
<path fill="none" stroke="#000000" stroke-width="2.36" d="M435.32,-1010.86C446.06,-1009.56 453,-1007.27 453,-1004 453,-1002.42 451.37,-1001.06 448.47,-999.94"/>
<polygon fill="#000000" stroke="#000000" stroke-width="2.36" points="449.32,-996.54 438.81,-997.88 447.86,-1003.39 449.32,-996.54"/>
<text text-anchor="middle" x="463.5" y="-1000.3" font-family="Times,serif" font-size="14.00">470</text>
</g>
<!-- W_Complete application&#45;&gt;A_Concept -->
<g id="edge4" class="edge">
<title>W_Complete application&#45;&gt;A_Concept</title>
<path fill="none" stroke="#000000" stroke-width="1.38" d="M319.38,-985.8C306.25,-973.67 288.44,-957.21 273.65,-943.55"/>
<polygon fill="#000000" stroke="#000000" stroke-width="1.38" points="276.16,-941.1 266.44,-936.89 271.41,-946.25 276.16,-941.1"/>
<text text-anchor="middle" x="307.5" y="-956.8" font-family="Times,serif" font-size="14.00">225</text>
</g>
<!-- A_Accepted -->
<g id="node5" class="node">
<title>A_Accepted</title>
<polygon fill="#eeeeff" stroke="black" points="319.5,-848 202.5,-848 202.5,-812 319.5,-812 319.5,-848"/>
<text text-anchor="middle" x="261" y="-826.3" font-family="Times,serif" font-size="14.00">A_Accepted (362)</text>
</g>
<!-- W_Complete application&#45;&gt;A_Accepted -->
<g id="edge24" class="edge">
<title>W_Complete application&#45;&gt;A_Accepted</title>
<path fill="none" stroke="#000000" stroke-width="1.04" d="M240.69,-988.23C209.71,-978.42 178.67,-962.11 160,-935 138.6,-903.92 176.9,-873.58 212.31,-853.77"/>
<polygon fill="#000000" stroke="#000000" stroke-width="1.04" points="213.64,-857.03 220.79,-849.21 210.33,-850.86 213.64,-857.03"/>
<text text-anchor="middle" x="170.5" y="-913.3" font-family="Times,serif" font-size="14.00">137</text>
</g>
<!-- O_Create Offer -->
<g id="node6" class="node">
<title>O_Create Offer</title>
<polygon fill="#ededff" stroke="black" points="338,-761 204,-761 204,-725 338,-725 338,-761"/>
<text text-anchor="middle" x="271" y="-739.3" font-family="Times,serif" font-size="14.00">O_Create Offer (369)</text>
</g>
<!-- W_Complete application&#45;&gt;O_Create Offer -->
<g id="edge35" class="edge">
<title>W_Complete application&#45;&gt;O_Create Offer</title>
<path fill="none" stroke="#ff0000" stroke-width="0.56" stroke-dasharray="5,2" d="M341.58,-985.63C342.57,-980.03 343.51,-973.77 344,-968 344.57,-961.36 344.12,-959.67 344,-953 342.83,-889.99 355.11,-869.35 329,-812 321.74,-796.05 309.6,-780.94 298.29,-769.03"/>
<polygon fill="#ff0000" stroke="#ff0000" stroke-width="0.56" points="300.79,-766.58 291.27,-761.93 295.81,-771.5 300.79,-766.58"/>
<text text-anchor="middle" x="352" y="-869.8" font-family="Times,serif" font-size="14.00">17</text>
</g>
<!-- W_Call after offers -->
<g id="node9" class="node">
<title>W_Call after offers</title>
<polygon fill="#9b9bff" stroke="black" points="355.5,-500 192.5,-500 192.5,-464 355.5,-464 355.5,-500"/>
<text text-anchor="middle" x="274" y="-478.3" font-family="Times,serif" font-size="14.00">W_Call after offers (2120)</text>
</g>
<!-- W_Complete application&#45;&gt;W_Call after offers -->
<g id="edge10" class="edge">
<title>W_Complete application&#45;&gt;W_Call after offers</title>
<path fill="none" stroke="#000000" stroke-width="1.93" d="M432.38,-985.52C495.11,-971.11 566,-948.15 566,-918 566,-918 566,-918 566,-568 566,-526.09 453.68,-503.47 368.37,-492.33"/>
<polygon fill="#000000" stroke="#000000" stroke-width="1.93" points="368.98,-488.88 358.62,-491.1 368.11,-495.83 368.98,-488.88"/>
<text text-anchor="middle" x="576.5" y="-739.3" font-family="Times,serif" font-size="14.00">362</text>
</g>
<!-- A_Concept&#45;&gt;W_Complete application -->
<g id="edge23" class="edge">
<title>A_Concept&#45;&gt;W_Complete application</title>
<path fill="none" stroke="#000000" stroke-width="1.04" d="M247.61,-935.49C249.39,-945.98 253.13,-958.99 261,-968 264.83,-972.38 269.31,-976.24 274.16,-979.65"/>
<polygon fill="#000000" stroke="#000000" stroke-width="1.04" points="272.17,-982.53 282.52,-984.81 275.85,-976.58 272.17,-982.53"/>
<text text-anchor="middle" x="271.5" y="-956.8" font-family="Times,serif" font-size="14.00">137</text>
</g>
<!-- A_Concept&#45;&gt;A_Accepted -->
<g id="edge5" class="edge">
<title>A_Concept&#45;&gt;A_Accepted</title>
<path fill="none" stroke="#000000" stroke-width="1.38" d="M249.04,-898.8C250.99,-887.7 253.59,-872.97 255.87,-860.08"/>
<polygon fill="#000000" stroke="#000000" stroke-width="1.38" points="259.26,-860.99 257.55,-850.53 252.37,-859.77 259.26,-860.99"/>
<text text-anchor="middle" x="264.5" y="-869.8" font-family="Times,serif" font-size="14.00">225</text>
</g>
<!-- A_Accepted&#45;&gt;W_Complete application -->
<g id="edge34" class="edge">
<title>A_Accepted&#45;&gt;W_Complete application</title>
<path fill="none" stroke="#ff0000" stroke-width="0.56" stroke-dasharray="5,2" d="M276.6,-848.27C287.66,-861.34 302.06,-880.21 311,-899 322.67,-923.53 329.8,-953.8 333.78,-975.35"/>
<polygon fill="#ff0000" stroke="#ff0000" stroke-width="0.56" points="330.28,-975.65 335.43,-984.91 337.18,-974.46 330.28,-975.65"/>
<text text-anchor="middle" x="331" y="-913.3" font-family="Times,serif" font-size="14.00">17</text>
</g>
<!-- A_Accepted&#45;&gt;O_Create Offer -->
<g id="edge6" class="edge">
<title>A_Accepted&#45;&gt;O_Create Offer</title>
<path fill="none" stroke="#000000" stroke-width="1.86" d="M263.02,-811.8C264.3,-800.93 265.99,-786.58 267.48,-773.88"/>
<polygon fill="#000000" stroke="#000000" stroke-width="1.86" points="270.92,-774.6 268.62,-764.26 263.97,-773.79 270.92,-774.6"/>
<text text-anchor="middle" x="276.5" y="-782.8" font-family="Times,serif" font-size="14.00">345</text>
</g>
<!-- O_Created -->
<g id="node7" class="node">
<title>O_Created</title>
<polygon fill="#ededff" stroke="black" points="328,-674 220,-674 220,-638 328,-638 328,-674"/>
<text text-anchor="middle" x="274" y="-652.3" font-family="Times,serif" font-size="14.00">O_Created (369)</text>
</g>
<!-- O_Create Offer&#45;&gt;O_Created -->
<g id="edge7" class="edge">
<title>O_Create Offer&#45;&gt;O_Created</title>
<path fill="none" stroke="#000000" stroke-width="1.96" d="M271.61,-724.8C271.99,-714.04 272.49,-699.88 272.93,-687.29"/>
<polygon fill="#000000" stroke="#000000" stroke-width="1.96" points="276.42,-687.54 273.28,-677.42 269.43,-687.3 276.42,-687.54"/>
<text text-anchor="middle" x="282.5" y="-695.8" font-family="Times,serif" font-size="14.00">369</text>
</g>
<!-- O_Sent (mail and online) -->
<g id="node8" class="node">
<title>O_Sent (mail and online)</title>
<polygon fill="#ededff" stroke="black" points="368,-587 180,-587 180,-551 368,-551 368,-587"/>
<text text-anchor="middle" x="274" y="-565.3" font-family="Times,serif" font-size="14.00">O_Sent (mail and online) (367)</text>
</g>
<!-- O_Created&#45;&gt;O_Sent (mail and online) -->
<g id="edge8" class="edge">
<title>O_Created&#45;&gt;O_Sent (mail and online)</title>
<path fill="none" stroke="#000000" stroke-width="1.95" d="M274,-637.8C274,-627.04 274,-612.88 274,-600.29"/>
<polygon fill="#000000" stroke="#000000" stroke-width="1.95" points="277.5,-600.41 274,-590.41 270.5,-600.41 277.5,-600.41"/>
<text text-anchor="middle" x="284.5" y="-608.8" font-family="Times,serif" font-size="14.00">367</text>
</g>
<!-- O_Sent (online only) -->
<g id="node21" class="node">
<title>O_Sent (online only)</title>
<polygon fill="#ffffff" stroke="black" points="537.5,-587 386.5,-587 386.5,-551 537.5,-551 537.5,-587"/>
<text text-anchor="middle" x="462" y="-565.3" font-family="Times,serif" font-size="14.00">O_Sent (online only) (2)</text>
</g>
<!-- O_Created&#45;&gt;O_Sent (online only) -->
<g id="edge40" class="edge">
<title>O_Created&#45;&gt;O_Sent (online only)</title>
<path fill="none" stroke="#ff0000" stroke-width="0.5" stroke-dasharray="5,2" d="M312.5,-637.59C341.9,-624.3 382.59,-605.91 414.09,-591.66"/>
<polygon fill="#ff0000" stroke="#ff0000" stroke-width="0.5" points="415.19,-595 422.86,-587.69 412.31,-588.63 415.19,-595"/>
<text text-anchor="middle" x="382.5" y="-608.8" font-family="Times,serif" font-size="14.00">2</text>
</g>
<!-- O_Sent (mail and online)&#45;&gt;W_Complete application -->
<g id="edge9" class="edge">
<title>O_Sent (mail and online)&#45;&gt;W_Complete application</title>
<path fill="none" stroke="#000000" stroke-width="1.92" d="M359.56,-587.45C370.48,-592.01 380.98,-597.76 390,-605 409.86,-620.95 418,-629.53 418,-655 418,-918 418,-918 418,-918 418,-943.08 399.3,-963.78 379.99,-978.47"/>
<polygon fill="#000000" stroke="#000000" stroke-width="1.92" points="378.14,-975.49 371.99,-984.12 382.18,-981.2 378.14,-975.49"/>
<text text-anchor="middle" x="428.5" y="-782.8" font-family="Times,serif" font-size="14.00">360</text>
</g>
<!-- O_Sent (mail and online)&#45;&gt;W_Call after offers -->
<g id="edge37" class="edge">
<title>O_Sent (mail and online)&#45;&gt;W_Call after offers</title>
<path fill="none" stroke="#ff0000" stroke-width="0.52" stroke-dasharray="5,2" d="M274,-550.8C274,-539.35 274,-524.06 274,-510.89"/>
<polygon fill="#ff0000" stroke="#ff0000" stroke-width="0.52" points="277.5,-511.25 274,-501.25 270.5,-511.25 277.5,-511.25"/>
<text text-anchor="middle" x="277.5" y="-521.8" font-family="Times,serif" font-size="14.00">7</text>
</g>
<!-- W_Call after offers&#45;&gt;O_Create Offer -->
<g id="edge36" class="edge">
<title>W_Call after offers&#45;&gt;O_Create Offer</title>
<path fill="none" stroke="#ff0000" stroke-width="0.52" stroke-dasharray="5,2" d="M229.06,-500.47C207.36,-511.46 183.39,-527.98 171,-551 138.98,-610.51 201.87,-681.09 241.72,-717.52"/>
<polygon fill="#ff0000" stroke="#ff0000" stroke-width="0.52" points="239.22,-719.97 249.01,-724.03 243.88,-714.75 239.22,-719.97"/>
<text text-anchor="middle" x="172.5" y="-608.8" font-family="Times,serif" font-size="14.00">7</text>
</g>
<!-- W_Call after offers&#45;&gt;W_Call after offers -->
<g id="edge11" class="edge">
<title>W_Call after offers&#45;&gt;W_Call after offers</title>
<path fill="none" stroke="#000000" stroke-width="6" d="M355.97,-489.15C366.53,-487.91 373.5,-485.53 373.5,-482 373.5,-480.9 372.82,-479.91 371.56,-479.03"/>
<polygon fill="#000000" stroke="#000000" stroke-width="6" points="373.22,-474.04 362.21,-476.52 370.51,-484.18 373.22,-474.04"/>
<text text-anchor="middle" x="387.5" y="-478.3" font-family="Times,serif" font-size="14.00">1389</text>
</g>
<!-- A_Complete -->
<g id="node10" class="node">
<title>A_Complete</title>
<polygon fill="#eeeeff" stroke="black" points="289.5,-413 170.5,-413 170.5,-377 289.5,-377 289.5,-413"/>
<text text-anchor="middle" x="230" y="-391.3" font-family="Times,serif" font-size="14.00">A_Complete (362)</text>
</g>
<!-- W_Call after offers&#45;&gt;A_Complete -->
<g id="edge12" class="edge">
<title>W_Call after offers&#45;&gt;A_Complete</title>
<path fill="none" stroke="#000000" stroke-width="1.93" d="M267.08,-463.58C263.02,-453.83 257.6,-441.56 252,-431 250.76,-428.67 249.43,-426.29 248.05,-423.92"/>
<polygon fill="#000000" stroke="#000000" stroke-width="1.93" points="251.2,-422.35 243,-415.64 245.22,-426 251.2,-422.35"/>
<text text-anchor="middle" x="269.5" y="-434.8" font-family="Times,serif" font-size="14.00">362</text>
</g>
<!-- W_Validate application -->
<g id="node11" class="node">
<title>W_Validate application</title>
<polygon fill="#a7a7ff" stroke="black" points="492.5,-413 307.5,-413 307.5,-377 492.5,-377 492.5,-413"/>
<text text-anchor="middle" x="400" y="-391.3" font-family="Times,serif" font-size="14.00">W_Validate application (1852)</text>
</g>
<!-- W_Call after offers&#45;&gt;W_Validate application -->
<g id="edge14" class="edge">
<title>W_Call after offers&#45;&gt;W_Validate application</title>
<path fill="none" stroke="#000000" stroke-width="1.93" d="M299.8,-463.59C318.23,-451.16 343.28,-434.26 363.72,-420.47"/>
<polygon fill="#000000" stroke="#000000" stroke-width="1.93" points="365.48,-423.51 371.81,-415.01 361.57,-417.71 365.48,-423.51"/>
<text text-anchor="middle" x="354.5" y="-434.8" font-family="Times,serif" font-size="14.00">362</text>
</g>
<!-- A_Complete&#45;&gt;W_Call after offers -->
<g id="edge13" class="edge">
<title>A_Complete&#45;&gt;W_Call after offers</title>
<path fill="none" stroke="#000000" stroke-width="1.93" d="M224.85,-413.07C222.78,-423.16 221.93,-435.9 227,-446 228.57,-449.13 230.57,-452.05 232.86,-454.77"/>
<polygon fill="#000000" stroke="#000000" stroke-width="1.93" points="230.38,-457.24 240.01,-461.65 235.23,-452.19 230.38,-457.24"/>
<text text-anchor="middle" x="237.5" y="-434.8" font-family="Times,serif" font-size="14.00">362</text>
</g>
<!-- W_Validate application&#45;&gt;W_Validate application -->
<g id="edge15" class="edge">
<title>W_Validate application&#45;&gt;W_Validate application</title>
<path fill="none" stroke="#000000" stroke-width="3.55" d="M492.7,-401.96C503.48,-400.68 510.5,-398.36 510.5,-395 510.5,-393.69 509.43,-392.54 507.48,-391.54"/>
<polygon fill="#000000" stroke="#000000" stroke-width="3.55" points="508.47,-388.18 497.93,-389.28 506.85,-394.99 508.47,-388.18"/>
<text text-anchor="middle" x="521" y="-391.3" font-family="Times,serif" font-size="14.00">771</text>
</g>
<!-- A_Validating -->
<g id="node12" class="node">
<title>A_Validating</title>
<polygon fill="#eeeeff" stroke="black" points="122,-326 0,-326 0,-290 122,-290 122,-326"/>
<text text-anchor="middle" x="61" y="-304.3" font-family="Times,serif" font-size="14.00">A_Validating (362)</text>
</g>
<!-- W_Validate application&#45;&gt;A_Validating -->
<g id="edge16" class="edge">
<title>W_Validate application&#45;&gt;A_Validating</title>
<path fill="none" stroke="#000000" stroke-width="1.93" d="M307.03,-378.12C304.32,-377.73 301.64,-377.36 299,-377 221.08,-366.47 195.72,-388.92 123,-359 109.63,-353.5 96.83,-344.15 86.38,-335.01"/>
<polygon fill="#000000" stroke="#000000" stroke-width="1.93" points="88.98,-332.65 79.27,-328.43 84.23,-337.79 88.98,-332.65"/>
<text text-anchor="middle" x="133.5" y="-347.8" font-family="Times,serif" font-size="14.00">362</text>
</g>
<!-- O_Accepted -->
<g id="node14" class="node">
<title>O_Accepted</title>
<polygon fill="#f0f0ff" stroke="black" points="371.5,-326 254.5,-326 254.5,-290 371.5,-290 371.5,-326"/>
<text text-anchor="middle" x="313" y="-304.3" font-family="Times,serif" font-size="14.00">O_Accepted (303)</text>
</g>
<!-- W_Validate application&#45;&gt;O_Accepted -->
<g id="edge19" class="edge">
<title>W_Validate application&#45;&gt;O_Accepted</title>
<path fill="none" stroke="#000000" stroke-width="1.67" d="M382.39,-376.8C370.09,-364.78 353.45,-348.52 339.55,-334.94"/>
<polygon fill="#000000" stroke="#000000" stroke-width="1.67" points="342.29,-332.72 332.69,-328.24 337.4,-337.73 342.29,-332.72"/>
<text text-anchor="middle" x="371.5" y="-347.8" font-family="Times,serif" font-size="14.00">298</text>
</g>
<!-- A_Denied -->
<g id="node16" class="node">
<title>A_Denied</title>
<polygon fill="#fcfcff" stroke="black" points="633,-326 535,-326 535,-290 633,-290 633,-326"/>
<text text-anchor="middle" x="584" y="-304.3" font-family="Times,serif" font-size="14.00">A_Denied (59)</text>
</g>
<!-- W_Validate application&#45;&gt;A_Denied -->
<g id="edge25" class="edge">
<title>W_Validate application&#45;&gt;A_Denied</title>
<path fill="none" stroke="#ff0000" stroke-width="0.73" stroke-dasharray="5,2" d="M477.26,-376.53C492.18,-371.81 507.4,-366.02 521,-359 534.12,-352.23 547.15,-342.52 557.93,-333.46"/>
<polygon fill="#ff0000" stroke="#ff0000" stroke-width="0.73" points="559.97,-336.33 565.21,-327.12 555.37,-331.04 559.97,-336.33"/>
<text text-anchor="middle" x="550" y="-347.8" font-family="Times,serif" font-size="14.00">59</text>
</g>
<!-- W_Call incomplete files -->
<g id="node18" class="node">
<title>W_Call incomplete files</title>
<polygon fill="#fefeff" stroke="black" points="404.5,-131 227.5,-131 227.5,-95 404.5,-95 404.5,-131"/>
<text text-anchor="middle" x="316" y="-109.3" font-family="Times,serif" font-size="14.00">W_Call incomplete files (20)</text>
</g>
<!-- W_Validate application&#45;&gt;W_Call incomplete files -->
<g id="edge28" class="edge">
<title>W_Validate application&#45;&gt;W_Call incomplete files</title>
<path fill="none" stroke="#ff0000" stroke-width="0.51" stroke-dasharray="5,2" d="M397.8,-376.86C394.91,-356.08 389.23,-320.1 381,-290 376.59,-273.89 334.8,-164.66 329,-149 328.07,-146.5 327.11,-143.9 326.15,-141.3"/>
<polygon fill="#ff0000" stroke="#ff0000" stroke-width="0.51" points="329.52,-140.33 322.76,-132.17 322.96,-142.76 329.52,-140.33"/>
<text text-anchor="middle" x="377.5" y="-250.3" font-family="Times,serif" font-size="14.00">5</text>
</g>
<!-- O_Cancelled -->
<g id="node20" class="node">
<title>O_Cancelled</title>
<polygon fill="#fefeff" stroke="black" points="491.5,-272 384.5,-272 384.5,-236 491.5,-236 491.5,-272"/>
<text text-anchor="middle" x="438" y="-250.3" font-family="Times,serif" font-size="14.00">O_Cancelled (3)</text>
</g>
<!-- W_Validate application&#45;&gt;O_Cancelled -->
<g id="edge38" class="edge">
<title>W_Validate application&#45;&gt;O_Cancelled</title>
<path fill="none" stroke="#ff0000" stroke-width="0.5" stroke-dasharray="5,2" d="M407.51,-376.74C409.78,-371.15 412.16,-364.87 414,-359 421.98,-333.52 428.58,-303.77 432.83,-282.63"/>
<polygon fill="#ff0000" stroke="#ff0000" stroke-width="0.5" points="436.25,-283.38 434.74,-272.9 429.38,-282.04 436.25,-283.38"/>
<text text-anchor="middle" x="421.5" y="-347.8" font-family="Times,serif" font-size="14.00">3</text>
</g>
<!-- end_node -->
<g id="node22" class="node">
<title>end_node</title>
<ellipse fill="none" stroke="black" cx="458" cy="-22" rx="18" ry="18"/>
<ellipse fill="none" stroke="black" cx="458" cy="-22" rx="22" ry="22"/>
<text text-anchor="start" x="453.5" y="-18.3" font-family="Times,serif" font-size="14.00">■</text>
</g>
<!-- W_Validate application&#45;&gt;end_node -->
<g id="edge42" class="edge">
<title>W_Validate application&#45;&gt;end_node</title>
<path fill="none" stroke="#000000" stroke-width="1.9" d="M448.8,-376.6C477.02,-363.08 507,-341.15 507,-309 507,-309 507,-309 507,-112 507,-88.34 493.54,-65.03 480.73,-48.21"/>
<polygon fill="#000000" stroke="#000000" stroke-width="1.9" points="483.79,-46.42 474.77,-40.86 478.35,-50.83 483.79,-46.42"/>
<text text-anchor="middle" x="517.5" y="-196.3" font-family="Times,serif" font-size="14.00">354</text>
</g>
<!-- O_Returned -->
<g id="node13" class="node">
<title>O_Returned</title>
<polygon fill="#eeeeff" stroke="black" points="145,-218 29,-218 29,-182 145,-182 145,-218"/>
<text text-anchor="middle" x="87" y="-196.3" font-family="Times,serif" font-size="14.00">O_Returned (362)</text>
</g>
<!-- A_Validating&#45;&gt;O_Returned -->
<g id="edge17" class="edge">
<title>A_Validating&#45;&gt;O_Returned</title>
<path fill="none" stroke="#000000" stroke-width="1.93" d="M65.18,-289.97C69.1,-273.99 75.04,-249.76 79.74,-230.62"/>
<polygon fill="#000000" stroke="#000000" stroke-width="1.93" points="83.07,-231.72 82.05,-221.17 76.27,-230.05 83.07,-231.72"/>
<text text-anchor="middle" x="88.5" y="-250.3" font-family="Times,serif" font-size="14.00">362</text>
</g>
<!-- O_Returned&#45;&gt;W_Validate application -->
<g id="edge18" class="edge">
<title>O_Returned&#45;&gt;W_Validate application</title>
<path fill="none" stroke="#000000" stroke-width="1.93" d="M97.9,-218.45C114.67,-244.29 148.87,-293.2 187,-326 209.19,-345.09 216.74,-348.34 244,-359 260.02,-365.26 277.42,-370.54 294.6,-374.95"/>
<polygon fill="#000000" stroke="#000000" stroke-width="1.93" points="293.67,-378.33 304.21,-377.31 295.34,-371.53 293.67,-378.33"/>
<text text-anchor="middle" x="197.5" y="-304.3" font-family="Times,serif" font-size="14.00">362</text>
</g>
<!-- A_Pending -->
<g id="node15" class="node">
<title>A_Pending</title>
<polygon fill="#f0f0ff" stroke="black" points="280,-218 170,-218 170,-182 280,-182 280,-218"/>
<text text-anchor="middle" x="225" y="-196.3" font-family="Times,serif" font-size="14.00">A_Pending (303)</text>
</g>
<!-- O_Accepted&#45;&gt;A_Pending -->
<g id="edge20" class="edge">
<title>O_Accepted&#45;&gt;A_Pending</title>
<path fill="none" stroke="#000000" stroke-width="1.69" d="M296.79,-289.78C291.66,-284.18 286.01,-277.9 281,-272 268.93,-257.79 256.01,-241.49 245.63,-228.1"/>
<polygon fill="#000000" stroke="#000000" stroke-width="1.69" points="248.67,-226.32 239.8,-220.53 243.13,-230.59 248.67,-226.32"/>
<text text-anchor="middle" x="291.5" y="-250.3" font-family="Times,serif" font-size="14.00">303</text>
</g>
<!-- A_Pending&#45;&gt;W_Validate application -->
<g id="edge21" class="edge">
<title>A_Pending&#45;&gt;W_Validate application</title>
<path fill="none" stroke="#000000" stroke-width="1.67" d="M219.41,-218.12C212.11,-243.98 202.7,-293.4 225,-326 236.77,-343.2 280.45,-360.18 321.22,-372.88"/>
<polygon fill="#000000" stroke="#000000" stroke-width="1.67" points="320.16,-376.21 330.75,-375.77 322.2,-369.51 320.16,-376.21"/>
<text text-anchor="middle" x="235.5" y="-304.3" font-family="Times,serif" font-size="14.00">298</text>
</g>
<!-- A_Pending&#45;&gt;W_Call incomplete files -->
<g id="edge33" class="edge">
<title>A_Pending&#45;&gt;W_Call incomplete files</title>
<path fill="none" stroke="#ff0000" stroke-width="0.51" stroke-dasharray="5,2" d="M243.42,-181.8C256.65,-169.44 274.69,-152.59 289.47,-138.78"/>
<polygon fill="#ff0000" stroke="#ff0000" stroke-width="0.51" points="291.81,-141.38 296.73,-132 287.04,-136.26 291.81,-141.38"/>
<text text-anchor="middle" x="278.5" y="-152.8" font-family="Times,serif" font-size="14.00">5</text>
</g>
<!-- O_Refused -->
<g id="node17" class="node">
<title>O_Refused</title>
<polygon fill="#fcfcff" stroke="black" points="693,-218 589,-218 589,-182 693,-182 693,-218"/>
<text text-anchor="middle" x="641" y="-196.3" font-family="Times,serif" font-size="14.00">O_Refused (63)</text>
</g>
<!-- A_Denied&#45;&gt;O_Refused -->
<g id="edge26" class="edge">
<title>A_Denied&#45;&gt;O_Refused</title>
<path fill="none" stroke="#ff0000" stroke-width="0.73" stroke-dasharray="5,2" d="M593.16,-289.97C602.16,-273.22 616.04,-247.41 626.54,-227.89"/>
<polygon fill="#ff0000" stroke="#ff0000" stroke-width="0.73" points="629.5,-229.77 631.15,-219.31 623.34,-226.46 629.5,-229.77"/>
<text text-anchor="middle" x="627" y="-250.3" font-family="Times,serif" font-size="14.00">59</text>
</g>
<!-- O_Refused&#45;&gt;W_Validate application -->
<g id="edge27" class="edge">
<title>O_Refused&#45;&gt;W_Validate application</title>
<path fill="none" stroke="#ff0000" stroke-width="0.73" stroke-dasharray="5,2" d="M646.73,-218.08C654.24,-243.87 664.04,-293.22 642,-326 625.9,-349.95 561.83,-367.3 503.66,-378.48"/>
<polygon fill="#ff0000" stroke="#ff0000" stroke-width="0.73" points="503.15,-375.02 493.97,-380.3 504.44,-381.9 503.15,-375.02"/>
<text text-anchor="middle" x="661" y="-304.3" font-family="Times,serif" font-size="14.00">59</text>
</g>
<!-- O_Refused&#45;&gt;O_Refused -->
<g id="edge39" class="edge">
<title>O_Refused&#45;&gt;O_Refused</title>
<path fill="none" stroke="#ff0000" stroke-width="0.51" stroke-dasharray="5,2" d="M693.2,-207.82C703.59,-206.94 711,-204.33 711,-200 711,-197.36 708.25,-195.36 703.75,-194"/>
<polygon fill="#ff0000" stroke="#ff0000" stroke-width="0.51" points="704.41,-190.56 693.96,-192.31 703.22,-197.46 704.41,-190.56"/>
<text text-anchor="middle" x="714.5" y="-196.3" font-family="Times,serif" font-size="14.00">4</text>
</g>
<!-- W_Call incomplete files&#45;&gt;O_Accepted -->
<g id="edge32" class="edge">
<title>W_Call incomplete files&#45;&gt;O_Accepted</title>
<path fill="none" stroke="#ff0000" stroke-width="0.51" stroke-dasharray="5,2" d="M315.73,-131.29C315.21,-164.66 314.07,-238.23 313.44,-278.79"/>
<polygon fill="#ff0000" stroke="#ff0000" stroke-width="0.51" points="309.94,-278.7 313.28,-288.76 316.94,-278.81 309.94,-278.7"/>
<text text-anchor="middle" x="317.5" y="-196.3" font-family="Times,serif" font-size="14.00">5</text>
</g>
<!-- W_Call incomplete files&#45;&gt;W_Call incomplete files -->
<g id="edge29" class="edge">
<title>W_Call incomplete files&#45;&gt;W_Call incomplete files</title>
<path fill="none" stroke="#ff0000" stroke-width="0.51" stroke-dasharray="5,2" d="M404.95,-120.01C415.57,-118.73 422.5,-116.4 422.5,-113 422.5,-110.93 419.93,-109.25 415.51,-107.97"/>
<polygon fill="#ff0000" stroke="#ff0000" stroke-width="0.51" points="416.18,-104.54 405.71,-106.13 414.89,-111.42 416.18,-104.54"/>
<text text-anchor="middle" x="426" y="-109.3" font-family="Times,serif" font-size="14.00">5</text>
</g>
<!-- A_Incomplete -->
<g id="node19" class="node">
<title>A_Incomplete</title>
<polygon fill="#fefeff" stroke="black" points="373,-40 259,-40 259,-4 373,-4 373,-40"/>
<text text-anchor="middle" x="316" y="-18.3" font-family="Times,serif" font-size="14.00">A_Incomplete (5)</text>
</g>
<!-- W_Call incomplete files&#45;&gt;A_Incomplete -->
<g id="edge30" class="edge">
<title>W_Call incomplete files&#45;&gt;A_Incomplete</title>
<path fill="none" stroke="#ff0000" stroke-width="0.51" stroke-dasharray="5,2" d="M316,-94.84C316,-82.36 316,-65.2 316,-50.78"/>
<polygon fill="#ff0000" stroke="#ff0000" stroke-width="0.51" points="319.5,-51.19 316,-41.19 312.5,-51.19 319.5,-51.19"/>
<text text-anchor="middle" x="319.5" y="-65.8" font-family="Times,serif" font-size="14.00">5</text>
</g>
<!-- W_Call incomplete files&#45;&gt;end_node -->
<g id="edge43" class="edge">
<title>W_Call incomplete files&#45;&gt;end_node</title>
<path fill="none" stroke="#ff0000" stroke-width="0.51" stroke-dasharray="5,2" d="M343.72,-94.63C368.77,-78.93 405.44,-55.94 430.44,-40.27"/>
<polygon fill="#ff0000" stroke="#ff0000" stroke-width="0.51" points="432.13,-43.35 438.74,-35.07 428.41,-37.41 432.13,-43.35"/>
<text text-anchor="middle" x="398.5" y="-65.8" font-family="Times,serif" font-size="14.00">5</text>
</g>
<!-- A_Incomplete&#45;&gt;W_Call incomplete files -->
<g id="edge31" class="edge">
<title>A_Incomplete&#45;&gt;W_Call incomplete files</title>
<path fill="none" stroke="#ff0000" stroke-width="0.51" stroke-dasharray="5,2" d="M309.26,-40.43C305.98,-50.97 303.11,-64.71 305,-77 305.38,-79.5 305.91,-82.06 306.53,-84.61"/>
<polygon fill="#ff0000" stroke="#ff0000" stroke-width="0.51" points="303.12,-85.41 309.24,-94.06 309.85,-83.48 303.12,-85.41"/>
<text text-anchor="middle" x="308.5" y="-65.8" font-family="Times,serif" font-size="14.00">5</text>
</g>
<!-- O_Cancelled&#45;&gt;end_node -->
<g id="edge44" class="edge">
<title>O_Cancelled&#45;&gt;end_node</title>
<path fill="none" stroke="#ff0000" stroke-width="0.5" stroke-dasharray="5,2" d="M439.5,-235.71C442.85,-197.23 450.95,-104.04 455.24,-54.77"/>
<polygon fill="#ff0000" stroke="#ff0000" stroke-width="0.5" points="458.72,-55.12 456.1,-44.86 451.75,-54.51 458.72,-55.12"/>
<text text-anchor="middle" x="449.5" y="-152.8" font-family="Times,serif" font-size="14.00">3</text>
</g>
<!-- O_Sent (online only)&#45;&gt;W_Complete application -->
<g id="edge41" class="edge">
<title>O_Sent (online only)&#45;&gt;W_Complete application</title>
<path fill="none" stroke="#ff0000" stroke-width="0.5" stroke-dasharray="5,2" d="M462,-587.26C462,-604.43 462,-631.54 462,-655 462,-918 462,-918 462,-918 462,-947.88 437.19,-968.04 409.77,-981.19"/>
<polygon fill="#ff0000" stroke="#ff0000" stroke-width="0.5" points="408.39,-977.97 400.69,-985.25 411.25,-984.37 408.39,-977.97"/>
<text text-anchor="middle" x="465.5" y="-782.8" font-family="Times,serif" font-size="14.00">2</text>
</g>
</g>
</svg>
