<?xml version="1.0" encoding="UTF-8" standalone="no"?>
<!DOCTYPE svg PUBLIC "-//W3C//DTD SVG 1.1//EN"
 "http://www.w3.org/Graphics/SVG/1.1/DTD/svg11.dtd">
<!-- Generated by graphviz version 7.0.5 (0)
 -->
<!-- Title: dfg Pages: 1 -->
<svg width="404pt" height="1183pt"
 viewBox="0.00 0.00 403.50 1183.00" xmlns="http://www.w3.org/2000/svg" xmlns:xlink="http://www.w3.org/1999/xlink">
<g id="graph0" class="graph" transform="scale(1 1) rotate(0) translate(4 1179)">
<title>dfg</title>
<polygon fill="white" stroke="none" points="-4,4 -4,-1179 399.5,-1179 399.5,4 -4,4"/>
<!-- start_node -->
<g id="node1" class="node">
<title>start_node</title>
<ellipse fill="none" stroke="black" cx="118" cy="-1157" rx="18" ry="18"/>
<text text-anchor="start" x="113.5" y="-1153.3" font-family="Times,serif" font-size="14.00">●</text>
</g>
<!-- A_Create Application -->
<g id="node2" class="node">
<title>A_Create Application</title>
<polygon fill="#fbfbff" stroke="black" points="205.5,-1088 30.5,-1088 30.5,-1052 205.5,-1052 205.5,-1088"/>
<text text-anchor="middle" x="118" y="-1066.3" font-family="Times,serif" font-size="14.00">A_Create Application (3459)</text>
</g>
<!-- start_node&#45;&gt;A_Create Application -->
<g id="edge1" class="edge">
<title>start_node&#45;&gt;A_Create Application</title>
<path fill="none" stroke="#000000" stroke-width="2.31" d="M118,-1138.8C118,-1128.15 118,-1114.18 118,-1101.69"/>
<polygon fill="#000000" stroke="#000000" stroke-width="2.31" points="121.5,-1101.96 118,-1091.96 114.5,-1101.96 121.5,-1101.96"/>
<text text-anchor="middle" x="132" y="-1109.8" font-family="Times,serif" font-size="14.00">3459</text>
</g>
<!-- A_Submitted -->
<g id="node3" class="node">
<title>A_Submitted</title>
<polygon fill="#ffffff" stroke="black" points="182.5,-1001 53.5,-1001 53.5,-965 182.5,-965 182.5,-1001"/>
<text text-anchor="middle" x="118" y="-979.3" font-family="Times,serif" font-size="14.00">A_Submitted (2876)</text>
</g>
<!-- A_Create Application&#45;&gt;A_Submitted -->
<g id="edge2" class="edge">
<title>A_Create Application&#45;&gt;A_Submitted</title>
<path fill="none" stroke="#000000" stroke-width="2" d="M118,-1051.8C118,-1041.04 118,-1026.88 118,-1014.29"/>
<polygon fill="#000000" stroke="#000000" stroke-width="2" points="121.5,-1014.5 118,-1004.5 114.5,-1014.5 121.5,-1014.5"/>
<text text-anchor="middle" x="132" y="-1022.8" font-family="Times,serif" font-size="14.00">2876</text>
</g>
<!-- W_Complete application -->
<g id="node5" class="node">
<title>W_Complete application</title>
<polygon fill="#bebeff" stroke="black" points="200,-827 0,-827 0,-791 200,-791 200,-827"/>
<text text-anchor="middle" x="100" y="-805.3" font-family="Times,serif" font-size="14.00">W_Complete application (14471)</text>
</g>
<!-- A_Create Application&#45;&gt;W_Complete application -->
<g id="edge21" class="edge">
<title>A_Create Application&#45;&gt;W_Complete application</title>
<path fill="none" stroke="#ff0000" stroke-width="0.75" stroke-dasharray="5,2" d="M90.75,-1051.62C74.27,-1039.55 54.49,-1021.89 44,-1001 26.56,-966.26 37,-952.82 35,-914 34.18,-898.02 29.04,-892.85 35,-878 41.73,-861.21 54.8,-846.23 67.47,-834.62"/>
<polygon fill="#ff0000" stroke="#ff0000" stroke-width="0.75" points="69.55,-837.45 74.8,-828.25 64.96,-832.16 69.55,-837.45"/>
<text text-anchor="middle" x="46.5" y="-935.8" font-family="Times,serif" font-size="14.00">511</text>
</g>
<!-- A_Concept -->
<g id="node6" class="node">
<title>A_Concept</title>
<polygon fill="#fbfbff" stroke="black" points="268,-740 150,-740 150,-704 268,-704 268,-740"/>
<text text-anchor="middle" x="209" y="-718.3" font-family="Times,serif" font-size="14.00">A_Concept (3459)</text>
</g>
<!-- A_Create Application&#45;&gt;A_Concept -->
<g id="edge26" class="edge">
<title>A_Create Application&#45;&gt;A_Concept</title>
<path fill="none" stroke="#ff0000" stroke-width="0.52" stroke-dasharray="5,2" d="M205.58,-1053.1C241.14,-1041.12 274,-1020.24 274,-984 274,-984 274,-984 274,-808 274,-784.05 257.52,-762.67 241.15,-747.34"/>
<polygon fill="#ff0000" stroke="#ff0000" stroke-width="0.52" points="243.61,-744.84 233.79,-740.84 238.97,-750.08 243.61,-744.84"/>
<text text-anchor="middle" x="281" y="-892.3" font-family="Times,serif" font-size="14.00">72</text>
</g>
<!-- W_Handle leads -->
<g id="node4" class="node">
<title>W_Handle leads</title>
<polygon fill="#ececff" stroke="black" points="191.5,-914 44.5,-914 44.5,-878 191.5,-878 191.5,-914"/>
<text text-anchor="middle" x="118" y="-892.3" font-family="Times,serif" font-size="14.00">W_Handle leads (6134)</text>
</g>
<!-- A_Submitted&#45;&gt;W_Handle leads -->
<g id="edge3" class="edge">
<title>A_Submitted&#45;&gt;W_Handle leads</title>
<path fill="none" stroke="#000000" stroke-width="2" d="M118,-964.8C118,-954.04 118,-939.88 118,-927.29"/>
<polygon fill="#000000" stroke="#000000" stroke-width="2" points="121.5,-927.5 118,-917.5 114.5,-927.5 121.5,-927.5"/>
<text text-anchor="middle" x="132" y="-935.8" font-family="Times,serif" font-size="14.00">2876</text>
</g>
<!-- W_Handle leads&#45;&gt;W_Handle leads -->
<g id="edge4" class="edge">
<title>W_Handle leads&#45;&gt;W_Handle leads</title>
<path fill="none" stroke="#000000" stroke-width="2.2" d="M191.96,-903.32C202.45,-902.14 209.5,-899.7 209.5,-896 209.5,-894.21 207.85,-892.71 204.95,-891.51"/>
<polygon fill="#000000" stroke="#000000" stroke-width="2.2" points="205.73,-888.1 195.21,-889.39 204.24,-894.94 205.73,-888.1"/>
<text text-anchor="middle" x="223.5" y="-892.3" font-family="Times,serif" font-size="14.00">3258</text>
</g>
<!-- W_Handle leads&#45;&gt;W_Complete application -->
<g id="edge5" class="edge">
<title>W_Handle leads&#45;&gt;W_Complete application</title>
<path fill="none" stroke="#000000" stroke-width="2" d="M114.36,-877.8C112.05,-866.93 109.02,-852.58 106.33,-839.88"/>
<polygon fill="#000000" stroke="#000000" stroke-width="2" points="109.82,-839.49 104.33,-830.43 102.97,-840.94 109.82,-839.49"/>
<text text-anchor="middle" x="125" y="-848.8" font-family="Times,serif" font-size="14.00">2876</text>
</g>
<!-- W_Complete application&#45;&gt;W_Complete application -->
<g id="edge20" class="edge">
<title>W_Complete application&#45;&gt;W_Complete application</title>
<path fill="none" stroke="#000000" stroke-width="3.06" d="M200.29,-815.81C211.07,-814.5 218,-812.23 218,-809 218,-807.59 216.67,-806.36 214.28,-805.31"/>
<polygon fill="#000000" stroke="#000000" stroke-width="3.06" points="215.34,-801.96 204.81,-803.2 213.81,-808.8 215.34,-801.96"/>
<text text-anchor="middle" x="232" y="-805.3" font-family="Times,serif" font-size="14.00">4888</text>
</g>
<!-- W_Complete application&#45;&gt;A_Concept -->
<g id="edge6" class="edge">
<title>W_Complete application&#45;&gt;A_Concept</title>
<path fill="none" stroke="#000000" stroke-width="2.27" d="M116.81,-790.96C127.13,-780.88 140.85,-768.14 154,-758 158.61,-754.44 163.59,-750.9 168.61,-747.52"/>
<polygon fill="#000000" stroke="#000000" stroke-width="2.27" points="170.17,-750.68 176.63,-742.28 166.34,-744.82 170.17,-750.68"/>
<text text-anchor="middle" x="168" y="-761.8" font-family="Times,serif" font-size="14.00">3387</text>
</g>
<!-- A_Accepted -->
<g id="node7" class="node">
<title>A_Accepted</title>
<polygon fill="#fbfbff" stroke="black" points="220,-653 96,-653 96,-617 220,-617 220,-653"/>
<text text-anchor="middle" x="158" y="-631.3" font-family="Times,serif" font-size="14.00">A_Accepted (3459)</text>
</g>
<!-- W_Complete application&#45;&gt;A_Accepted -->
<g id="edge8" class="edge">
<title>W_Complete application&#45;&gt;A_Accepted</title>
<path fill="none" stroke="#000000" stroke-width="1.93" d="M99.78,-790.87C100.03,-769.78 102.2,-733.18 113,-704 118.34,-689.57 127.26,-675.13 135.76,-663.29"/>
<polygon fill="#000000" stroke="#000000" stroke-width="1.93" points="138.36,-665.66 141.57,-655.56 132.77,-661.45 138.36,-665.66"/>
<text text-anchor="middle" x="127" y="-718.3" font-family="Times,serif" font-size="14.00">2737</text>
</g>
<!-- W_Call after offers -->
<g id="node11" class="node">
<title>W_Call after offers</title>
<polygon fill="#9b9bff" stroke="black" points="226,-131 56,-131 56,-95 226,-95 226,-131"/>
<text text-anchor="middle" x="141" y="-109.3" font-family="Times,serif" font-size="14.00">W_Call after offers (20820)</text>
</g>
<!-- W_Complete application&#45;&gt;W_Call after offers -->
<g id="edge13" class="edge">
<title>W_Complete application&#45;&gt;W_Call after offers</title>
<path fill="none" stroke="#000000" stroke-width="2.31" d="M85.55,-790.66C73.4,-774.29 58,-748.51 58,-723 58,-723 58,-723 58,-199 58,-173.77 76.96,-153.24 96.75,-138.68"/>
<polygon fill="#000000" stroke="#000000" stroke-width="2.31" points="98.53,-141.7 104.83,-133.18 94.59,-135.92 98.53,-141.7"/>
<text text-anchor="middle" x="72" y="-457.3" font-family="Times,serif" font-size="14.00">3459</text>
</g>
<!-- A_Concept&#45;&gt;W_Complete application -->
<g id="edge7" class="edge">
<title>A_Concept&#45;&gt;W_Complete application</title>
<path fill="none" stroke="#000000" stroke-width="1.93" d="M203.1,-740.17C198.71,-750.81 191.77,-764.09 182,-773 177.26,-777.32 171.91,-781.16 166.26,-784.56"/>
<polygon fill="#000000" stroke="#000000" stroke-width="1.93" points="164.84,-781.36 157.7,-789.19 168.17,-787.51 164.84,-781.36"/>
<text text-anchor="middle" x="207" y="-761.8" font-family="Times,serif" font-size="14.00">2737</text>
</g>
<!-- A_Concept&#45;&gt;A_Accepted -->
<g id="edge22" class="edge">
<title>A_Concept&#45;&gt;A_Accepted</title>
<path fill="none" stroke="#000000" stroke-width="0.86" d="M198.68,-703.8C191.67,-692.12 182.27,-676.45 174.26,-663.11"/>
<polygon fill="#000000" stroke="#000000" stroke-width="0.86" points="177.3,-661.36 169.15,-654.59 171.3,-664.96 177.3,-661.36"/>
<text text-anchor="middle" x="196.5" y="-674.8" font-family="Times,serif" font-size="14.00">722</text>
</g>
<!-- O_Create Offer -->
<g id="node8" class="node">
<title>O_Create Offer</title>
<polygon fill="#fafaff" stroke="black" points="228.5,-566 87.5,-566 87.5,-530 228.5,-530 228.5,-566"/>
<text text-anchor="middle" x="158" y="-544.3" font-family="Times,serif" font-size="14.00">O_Create Offer (3673)</text>
</g>
<!-- A_Accepted&#45;&gt;O_Create Offer -->
<g id="edge9" class="edge">
<title>A_Accepted&#45;&gt;O_Create Offer</title>
<path fill="none" stroke="#000000" stroke-width="2.31" d="M158,-616.8C158,-606.15 158,-592.18 158,-579.69"/>
<polygon fill="#000000" stroke="#000000" stroke-width="2.31" points="161.5,-579.96 158,-569.96 154.5,-579.96 161.5,-579.96"/>
<text text-anchor="middle" x="172" y="-587.8" font-family="Times,serif" font-size="14.00">3459</text>
</g>
<!-- O_Created -->
<g id="node9" class="node">
<title>O_Created</title>
<polygon fill="#fafaff" stroke="black" points="266.5,-479 151.5,-479 151.5,-443 266.5,-443 266.5,-479"/>
<text text-anchor="middle" x="209" y="-457.3" font-family="Times,serif" font-size="14.00">O_Created (3673)</text>
</g>
<!-- O_Create Offer&#45;&gt;O_Created -->
<g id="edge10" class="edge">
<title>O_Create Offer&#45;&gt;O_Created</title>
<path fill="none" stroke="#000000" stroke-width="2.42" d="M154.63,-529.82C153.51,-519.7 153.69,-506.96 159,-497 160.61,-493.97 162.62,-491.15 164.89,-488.53"/>
<polygon fill="#000000" stroke="#000000" stroke-width="2.42" points="167.07,-491.29 172.03,-481.92 162.31,-486.15 167.07,-491.29"/>
<text text-anchor="middle" x="173" y="-500.8" font-family="Times,serif" font-size="14.00">3673</text>
</g>
<!-- O_Created&#45;&gt;O_Create Offer -->
<g id="edge23" class="edge">
<title>O_Created&#45;&gt;O_Create Offer</title>
<path fill="none" stroke="#ff0000" stroke-width="0.58" stroke-dasharray="5,2" d="M202.78,-479.25C198.88,-489.17 193.38,-501.67 187,-512 185.08,-515.12 182.9,-518.25 180.62,-521.3"/>
<polygon fill="#ff0000" stroke="#ff0000" stroke-width="0.58" points="178.08,-518.87 174.6,-528.87 183.56,-523.22 178.08,-518.87"/>
<text text-anchor="middle" x="204.5" y="-500.8" font-family="Times,serif" font-size="14.00">180</text>
</g>
<!-- O_Sent (mail and online) -->
<g id="node10" class="node">
<title>O_Sent (mail and online)</title>
<polygon fill="#fafaff" stroke="black" points="356.5,-392 161.5,-392 161.5,-356 356.5,-356 356.5,-392"/>
<text text-anchor="middle" x="259" y="-370.3" font-family="Times,serif" font-size="14.00">O_Sent (mail and online) (3673)</text>
</g>
<!-- O_Created&#45;&gt;O_Sent (mail and online) -->
<g id="edge11" class="edge">
<title>O_Created&#45;&gt;O_Sent (mail and online)</title>
<path fill="none" stroke="#000000" stroke-width="2.33" d="M219.12,-442.8C225.65,-431.7 234.31,-416.97 241.89,-404.08"/>
<polygon fill="#000000" stroke="#000000" stroke-width="2.33" points="244.89,-405.9 246.94,-395.5 238.85,-402.35 244.89,-405.9"/>
<text text-anchor="middle" x="250" y="-413.8" font-family="Times,serif" font-size="14.00">3493</text>
</g>
<!-- O_Sent (mail and online)&#45;&gt;W_Complete application -->
<g id="edge12" class="edge">
<title>O_Sent (mail and online)&#45;&gt;W_Complete application</title>
<path fill="none" stroke="#000000" stroke-width="2.31" d="M272.77,-392.45C284.34,-408.89 299,-434.72 299,-460 299,-723 299,-723 299,-723 299,-766.6 258.09,-788.14 213.38,-798.66"/>
<polygon fill="#000000" stroke="#000000" stroke-width="2.31" points="212.86,-795.19 203.8,-800.68 214.3,-802.04 212.86,-795.19"/>
<text text-anchor="middle" x="313" y="-587.8" font-family="Times,serif" font-size="14.00">3459</text>
</g>
<!-- O_Sent (mail and online)&#45;&gt;O_Sent (mail and online) -->
<g id="edge24" class="edge">
<title>O_Sent (mail and online)&#45;&gt;O_Sent (mail and online)</title>
<path fill="none" stroke="#ff0000" stroke-width="0.58" stroke-dasharray="5,2" d="M356.74,-380.86C367.53,-379.56 374.5,-377.27 374.5,-374 374.5,-371.96 371.78,-370.3 367.1,-369.02"/>
<polygon fill="#ff0000" stroke="#ff0000" stroke-width="0.58" points="368.07,-365.64 357.6,-367.29 366.82,-372.53 368.07,-365.64"/>
<text text-anchor="middle" x="385" y="-370.3" font-family="Times,serif" font-size="14.00">180</text>
</g>
<!-- A_Cancelled -->
<g id="node13" class="node">
<title>A_Cancelled</title>
<polygon fill="#fbfbff" stroke="black" points="322.5,-305 195.5,-305 195.5,-269 322.5,-269 322.5,-305"/>
<text text-anchor="middle" x="259" y="-283.3" font-family="Times,serif" font-size="14.00">A_Cancelled (3459)</text>
</g>
<!-- O_Sent (mail and online)&#45;&gt;A_Cancelled -->
<g id="edge28" class="edge">
<title>O_Sent (mail and online)&#45;&gt;A_Cancelled</title>
<path fill="none" stroke="#ff0000" stroke-width="0.5" stroke-dasharray="5,2" d="M259,-355.8C259,-344.35 259,-329.06 259,-315.89"/>
<polygon fill="#ff0000" stroke="#ff0000" stroke-width="0.5" points="262.5,-316.22 259,-306.22 255.5,-316.22 262.5,-316.22"/>
<text text-anchor="middle" x="266" y="-326.8" font-family="Times,serif" font-size="14.00">34</text>
</g>
<!-- W_Call after offers&#45;&gt;O_Create Offer -->
<g id="edge27" class="edge">
<title>W_Call after offers&#45;&gt;O_Create Offer</title>
<path fill="none" stroke="#ff0000" stroke-width="0.5" stroke-dasharray="5,2" d="M133.47,-131.21C126.76,-148.13 118,-174.85 118,-199 118,-462 118,-462 118,-462 118,-483.13 128.25,-504.65 138.37,-520.74"/>
<polygon fill="#ff0000" stroke="#ff0000" stroke-width="0.5" points="135.36,-522.54 143.81,-528.92 141.18,-518.66 135.36,-522.54"/>
<text text-anchor="middle" x="125" y="-326.8" font-family="Times,serif" font-size="14.00">34</text>
</g>
<!-- W_Call after offers&#45;&gt;W_Call after offers -->
<g id="edge14" class="edge">
<title>W_Call after offers&#45;&gt;W_Call after offers</title>
<path fill="none" stroke="#000000" stroke-width="6" d="M226.25,-120.1C236.95,-118.85 244,-116.48 244,-113 244,-111.91 243.31,-110.93 242.04,-110.06"/>
<polygon fill="#000000" stroke="#000000" stroke-width="6" points="243.5,-105.02 232.49,-107.54 240.82,-115.17 243.5,-105.02"/>
<text text-anchor="middle" x="261" y="-109.3" font-family="Times,serif" font-size="14.00">10443</text>
</g>
<!-- A_Complete -->
<g id="node12" class="node">
<title>A_Complete</title>
<polygon fill="#fbfbff" stroke="black" points="153,-40 27,-40 27,-4 153,-4 153,-40"/>
<text text-anchor="middle" x="90" y="-18.3" font-family="Times,serif" font-size="14.00">A_Complete (3459)</text>
</g>
<!-- W_Call after offers&#45;&gt;A_Complete -->
<g id="edge15" class="edge">
<title>W_Call after offers&#45;&gt;A_Complete</title>
<path fill="none" stroke="#000000" stroke-width="2.31" d="M106.71,-94.58C100.42,-89.77 94.69,-83.92 91,-77 87.21,-69.88 85.85,-61.44 85.72,-53.38"/>
<polygon fill="#000000" stroke="#000000" stroke-width="2.31" points="89.21,-53.73 86.3,-43.54 82.22,-53.32 89.21,-53.73"/>
<text text-anchor="middle" x="105" y="-65.8" font-family="Times,serif" font-size="14.00">3459</text>
</g>
<!-- W_Call after offers&#45;&gt;A_Cancelled -->
<g id="edge17" class="edge">
<title>W_Call after offers&#45;&gt;A_Cancelled</title>
<path fill="none" stroke="#000000" stroke-width="2.29" d="M143.31,-131.19C146.9,-152.99 155.45,-190.98 174,-218 185.65,-234.96 202.76,-249.8 218.59,-261.24"/>
<polygon fill="#000000" stroke="#000000" stroke-width="2.29" points="216.18,-263.84 226.4,-266.64 220.16,-258.08 216.18,-263.84"/>
<text text-anchor="middle" x="188" y="-196.3" font-family="Times,serif" font-size="14.00">3425</text>
</g>
<!-- end_node -->
<g id="node15" class="node">
<title>end_node</title>
<ellipse fill="none" stroke="black" cx="193" cy="-22" rx="18" ry="18"/>
<ellipse fill="none" stroke="black" cx="193" cy="-22" rx="22" ry="22"/>
<text text-anchor="start" x="188.5" y="-18.3" font-family="Times,serif" font-size="14.00">■</text>
</g>
<!-- W_Call after offers&#45;&gt;end_node -->
<g id="edge29" class="edge">
<title>W_Call after offers&#45;&gt;end_node</title>
<path fill="none" stroke="#000000" stroke-width="2.31" d="M151.03,-94.84C157.92,-83.04 167.26,-67.06 175.38,-53.16"/>
<polygon fill="#000000" stroke="#000000" stroke-width="2.31" points="178.32,-55.06 180.34,-44.66 172.28,-51.53 178.32,-55.06"/>
<text text-anchor="middle" x="184" y="-65.8" font-family="Times,serif" font-size="14.00">3459</text>
</g>
<!-- A_Complete&#45;&gt;W_Call after offers -->
<g id="edge16" class="edge">
<title>A_Complete&#45;&gt;W_Call after offers</title>
<path fill="none" stroke="#000000" stroke-width="2.31" d="M104.16,-40.28C109.19,-46.86 114.67,-54.56 119,-62 122.77,-68.48 126.31,-75.72 129.4,-82.63"/>
<polygon fill="#000000" stroke="#000000" stroke-width="2.31" points="126.09,-83.81 133.22,-91.65 132.54,-81.08 126.09,-83.81"/>
<text text-anchor="middle" x="140" y="-65.8" font-family="Times,serif" font-size="14.00">3459</text>
</g>
<!-- O_Cancelled -->
<g id="node14" class="node">
<title>O_Cancelled</title>
<polygon fill="#fafaff" stroke="black" points="337.5,-218 210.5,-218 210.5,-182 337.5,-182 337.5,-218"/>
<text text-anchor="middle" x="274" y="-196.3" font-family="Times,serif" font-size="14.00">O_Cancelled (3673)</text>
</g>
<!-- A_Cancelled&#45;&gt;O_Cancelled -->
<g id="edge18" class="edge">
<title>A_Cancelled&#45;&gt;O_Cancelled</title>
<path fill="none" stroke="#000000" stroke-width="2.31" d="M262.04,-268.8C263.91,-258.15 266.38,-244.18 268.58,-231.69"/>
<polygon fill="#000000" stroke="#000000" stroke-width="2.31" points="272.02,-232.37 270.31,-221.91 265.13,-231.15 272.02,-232.37"/>
<text text-anchor="middle" x="281" y="-239.8" font-family="Times,serif" font-size="14.00">3459</text>
</g>
<!-- O_Cancelled&#45;&gt;W_Call after offers -->
<g id="edge19" class="edge">
<title>O_Cancelled&#45;&gt;W_Call after offers</title>
<path fill="none" stroke="#000000" stroke-width="2.31" d="M246.76,-181.59C227.31,-169.16 200.87,-152.26 179.29,-138.47"/>
<polygon fill="#000000" stroke="#000000" stroke-width="2.31" points="181.46,-135.7 171.14,-133.27 177.69,-141.6 181.46,-135.7"/>
<text text-anchor="middle" x="229" y="-152.8" font-family="Times,serif" font-size="14.00">3459</text>
</g>
<!-- O_Cancelled&#45;&gt;O_Cancelled -->
<g id="edge25" class="edge">
<title>O_Cancelled&#45;&gt;O_Cancelled</title>
<path fill="none" stroke="#ff0000" stroke-width="0.6" stroke-dasharray="5,2" d="M337.9,-207.55C348.33,-206.47 355.5,-203.95 355.5,-200 355.5,-197.59 352.84,-195.72 348.4,-194.38"/>
<polygon fill="#ff0000" stroke="#ff0000" stroke-width="0.6" points="349.25,-190.97 338.78,-192.62 347.99,-197.86 349.25,-190.97"/>
<text text-anchor="middle" x="366" y="-196.3" font-family="Times,serif" font-size="14.00">214</text>
</g>
</g>
</svg>
