<?xml version="1.0" encoding="UTF-8" standalone="no"?>
<!DOCTYPE svg PUBLIC "-//W3C//DTD SVG 1.1//EN"
 "http://www.w3.org/Graphics/SVG/1.1/DTD/svg11.dtd">
<!-- Generated by graphviz version 7.0.5 (0)
 -->
<!-- Title: dfg Pages: 1 -->
<svg width="1156pt" height="1444pt"
 viewBox="0.00 0.00 1156.00 1444.00" xmlns="http://www.w3.org/2000/svg" xmlns:xlink="http://www.w3.org/1999/xlink">
<g id="graph0" class="graph" transform="scale(1 1) rotate(0) translate(4 1440)">
<title>dfg</title>
<polygon fill="white" stroke="none" points="-4,4 -4,-1440 1152,-1440 1152,4 -4,4"/>
<!-- start_node -->
<g id="node1" class="node">
<title>start_node</title>
<ellipse fill="none" stroke="black" cx="708" cy="-1418" rx="18" ry="18"/>
<text text-anchor="start" x="703.5" y="-1414.3" font-family="Times,serif" font-size="14.00">●</text>
</g>
<!-- A_Create Application -->
<g id="node2" class="node">
<title>A_Create Application</title>
<polygon fill="#eeeeff" stroke="black" points="792,-1349 624,-1349 624,-1313 792,-1313 792,-1349"/>
<text text-anchor="middle" x="708" y="-1327.3" font-family="Times,serif" font-size="14.00">A_Create Application (605)</text>
</g>
<!-- start_node&#45;&gt;A_Create Application -->
<g id="edge1" class="edge">
<title>start_node&#45;&gt;A_Create Application</title>
<path fill="none" stroke="#000000" stroke-width="2.36" d="M708,-1399.8C708,-1389.15 708,-1375.18 708,-1362.69"/>
<polygon fill="#000000" stroke="#000000" stroke-width="2.36" points="711.5,-1363.05 708,-1353.05 704.5,-1363.05 711.5,-1363.05"/>
<text text-anchor="middle" x="718.5" y="-1370.8" font-family="Times,serif" font-size="14.00">605</text>
</g>
<!-- W_Complete application -->
<g id="node3" class="node">
<title>W_Complete application</title>
<polygon fill="#c6c6ff" stroke="black" points="688,-1088 494,-1088 494,-1052 688,-1052 688,-1088"/>
<text text-anchor="middle" x="591" y="-1066.3" font-family="Times,serif" font-size="14.00">W_Complete application (2021)</text>
</g>
<!-- A_Create Application&#45;&gt;W_Complete application -->
<g id="edge2" class="edge">
<title>A_Create Application&#45;&gt;W_Complete application</title>
<path fill="none" stroke="#000000" stroke-width="2.09" d="M710.68,-1312.72C715.26,-1277.36 721.14,-1195.32 688,-1139 677.08,-1120.45 658.88,-1105.7 641.17,-1094.74"/>
<polygon fill="#000000" stroke="#000000" stroke-width="2.09" points="643.12,-1091.83 632.71,-1089.84 639.61,-1097.88 643.12,-1091.83"/>
<text text-anchor="middle" x="721.5" y="-1196.8" font-family="Times,serif" font-size="14.00">516</text>
</g>
<!-- A_Concept -->
<g id="node4" class="node">
<title>A_Concept</title>
<polygon fill="#eeeeff" stroke="black" points="595.5,-1001 484.5,-1001 484.5,-965 595.5,-965 595.5,-1001"/>
<text text-anchor="middle" x="540" y="-979.3" font-family="Times,serif" font-size="14.00">A_Concept (605)</text>
</g>
<!-- A_Create Application&#45;&gt;A_Concept -->
<g id="edge20" class="edge">
<title>A_Create Application&#45;&gt;A_Concept</title>
<path fill="none" stroke="#ff0000" stroke-width="0.77" stroke-dasharray="5,2" d="M724.44,-1312.64C737.99,-1296.45 755,-1270.97 755,-1245 755,-1245 755,-1245 755,-1069 755,-1057.67 745.77,-1057.75 736,-1052 713.56,-1038.8 653.96,-1018.82 606.33,-1003.93"/>
<polygon fill="#ff0000" stroke="#ff0000" stroke-width="0.77" points="607.44,-1000.61 596.86,-1000.99 605.37,-1007.3 607.44,-1000.61"/>
<text text-anchor="middle" x="762" y="-1153.3" font-family="Times,serif" font-size="14.00">88</text>
</g>
<!-- A_Submitted -->
<g id="node16" class="node">
<title>A_Submitted</title>
<polygon fill="#ffffff" stroke="black" points="671.5,-1262 562.5,-1262 562.5,-1226 671.5,-1226 671.5,-1262"/>
<text text-anchor="middle" x="617" y="-1240.3" font-family="Times,serif" font-size="14.00">A_Submitted (1)</text>
</g>
<!-- A_Create Application&#45;&gt;A_Submitted -->
<g id="edge50" class="edge">
<title>A_Create Application&#45;&gt;A_Submitted</title>
<path fill="none" stroke="#ff0000" stroke-width="0.5" stroke-dasharray="5,2" d="M689.58,-1312.8C676.35,-1300.44 658.31,-1283.59 643.53,-1269.78"/>
<polygon fill="#ff0000" stroke="#ff0000" stroke-width="0.5" points="645.95,-1267.25 636.25,-1262.98 641.17,-1272.37 645.95,-1267.25"/>
<text text-anchor="middle" x="671.5" y="-1283.8" font-family="Times,serif" font-size="14.00">1</text>
</g>
<!-- W_Complete application&#45;&gt;W_Complete application -->
<g id="edge3" class="edge">
<title>W_Complete application&#45;&gt;W_Complete application</title>
<path fill="none" stroke="#000000" stroke-width="2.87" d="M688.32,-1076.86C699.06,-1075.56 706,-1073.27 706,-1070 706,-1068.57 704.67,-1067.33 702.28,-1066.27"/>
<polygon fill="#000000" stroke="#000000" stroke-width="2.87" points="703.08,-1062.86 692.56,-1064.09 701.55,-1069.69 703.08,-1062.86"/>
<text text-anchor="middle" x="716.5" y="-1066.3" font-family="Times,serif" font-size="14.00">768</text>
</g>
<!-- W_Complete application&#45;&gt;A_Concept -->
<g id="edge4" class="edge">
<title>W_Complete application&#45;&gt;A_Concept</title>
<path fill="none" stroke="#000000" stroke-width="2.09" d="M581.71,-1051.7C576.39,-1041.99 569.51,-1029.71 563,-1019 561.67,-1016.81 560.27,-1014.56 558.84,-1012.31"/>
<polygon fill="#000000" stroke="#000000" stroke-width="2.09" points="561.81,-1010.44 553.43,-1003.95 555.93,-1014.25 561.81,-1010.44"/>
<text text-anchor="middle" x="582.5" y="-1022.8" font-family="Times,serif" font-size="14.00">517</text>
</g>
<!-- A_Accepted -->
<g id="node5" class="node">
<title>A_Accepted</title>
<polygon fill="#eeeeff" stroke="black" points="558.5,-914 441.5,-914 441.5,-878 558.5,-878 558.5,-914"/>
<text text-anchor="middle" x="500" y="-892.3" font-family="Times,serif" font-size="14.00">A_Accepted (605)</text>
</g>
<!-- W_Complete application&#45;&gt;A_Accepted -->
<g id="edge22" class="edge">
<title>W_Complete application&#45;&gt;A_Accepted</title>
<path fill="none" stroke="#000000" stroke-width="0.81" d="M521.73,-1051.53C495.86,-1041.28 469.11,-1025.37 454,-1001 438.36,-975.78 456.94,-944.33 474.95,-922.65"/>
<polygon fill="#000000" stroke="#000000" stroke-width="0.81" points="477.51,-925.05 481.46,-915.22 472.24,-920.44 477.51,-925.05"/>
<text text-anchor="middle" x="464.5" y="-979.3" font-family="Times,serif" font-size="14.00">102</text>
</g>
<!-- O_Create Offer -->
<g id="node6" class="node">
<title>O_Create Offer</title>
<polygon fill="#eaeaff" stroke="black" points="489,-827 355,-827 355,-791 489,-791 489,-827"/>
<text text-anchor="middle" x="422" y="-805.3" font-family="Times,serif" font-size="14.00">O_Create Offer (725)</text>
</g>
<!-- W_Complete application&#45;&gt;O_Create Offer -->
<g id="edge31" class="edge">
<title>W_Complete application&#45;&gt;O_Create Offer</title>
<path fill="none" stroke="#ff0000" stroke-width="0.56" stroke-dasharray="5,2" d="M498.59,-1051.56C486.98,-1047 475.77,-1041.25 466,-1034 405.48,-989.08 410.6,-887.27 417.23,-837.9"/>
<polygon fill="#ff0000" stroke="#ff0000" stroke-width="0.56" points="420.66,-838.6 418.65,-828.19 413.74,-837.58 420.66,-838.6"/>
<text text-anchor="middle" x="425" y="-935.8" font-family="Times,serif" font-size="14.00">19</text>
</g>
<!-- O_Sent (mail and online) -->
<g id="node8" class="node">
<title>O_Sent (mail and online)</title>
<polygon fill="#ececff" stroke="black" points="194,-218 6,-218 6,-182 194,-182 194,-218"/>
<text text-anchor="middle" x="100" y="-196.3" font-family="Times,serif" font-size="14.00">O_Sent (mail and online) (668)</text>
</g>
<!-- W_Complete application&#45;&gt;O_Sent (mail and online) -->
<g id="edge38" class="edge">
<title>W_Complete application&#45;&gt;O_Sent (mail and online)</title>
<path fill="none" stroke="#ff0000" stroke-width="0.51" stroke-dasharray="5,2" d="M493.75,-1069.53C362.98,-1069.05 138.09,-1063.72 62,-1034 29.03,-1021.12 0,-1019.4 0,-984 0,-984 0,-984 0,-286 0,-258.12 22.85,-237.47 46.7,-223.51"/>
<polygon fill="#ff0000" stroke="#ff0000" stroke-width="0.51" points="48.09,-226.74 55.17,-218.86 44.72,-220.61 48.09,-226.74"/>
<text text-anchor="middle" x="3.5" y="-631.3" font-family="Times,serif" font-size="14.00">5</text>
</g>
<!-- W_Call after offers -->
<g id="node9" class="node">
<title>W_Call after offers</title>
<polygon fill="#9b9bff" stroke="black" points="542.5,-479 379.5,-479 379.5,-443 542.5,-443 542.5,-479"/>
<text text-anchor="middle" x="461" y="-457.3" font-family="Times,serif" font-size="14.00">W_Call after offers (3561)</text>
</g>
<!-- W_Complete application&#45;&gt;W_Call after offers -->
<g id="edge10" class="edge">
<title>W_Complete application&#45;&gt;W_Call after offers</title>
<path fill="none" stroke="#000000" stroke-width="2.33" d="M493.61,-1060.41C360.21,-1047.3 137,-1019.98 137,-984 137,-984 137,-984 137,-677.5 137,-607.69 136.96,-574.2 191,-530 232.06,-496.41 257.4,-524.33 309,-512 340.14,-504.56 374.05,-493.68 401.92,-483.97"/>
<polygon fill="#000000" stroke="#000000" stroke-width="2.33" points="403.09,-487.27 411.35,-480.64 400.75,-480.67 403.09,-487.27"/>
<text text-anchor="middle" x="147.5" y="-761.8" font-family="Times,serif" font-size="14.00">594</text>
</g>
<!-- A_Cancelled -->
<g id="node11" class="node">
<title>A_Cancelled</title>
<polygon fill="#eeeeff" stroke="black" points="635,-127 515,-127 515,-91 635,-91 635,-127"/>
<text text-anchor="middle" x="575" y="-105.3" font-family="Times,serif" font-size="14.00">A_Cancelled (599)</text>
</g>
<!-- W_Complete application&#45;&gt;A_Cancelled -->
<g id="edge40" class="edge">
<title>W_Complete application&#45;&gt;A_Cancelled</title>
<path fill="none" stroke="#ff0000" stroke-width="0.51" stroke-dasharray="5,2" d="M688.27,-1057.66C768.09,-1045.55 868,-1022.67 868,-984 868,-984 868,-984 868,-677.5 868,-559.17 897.6,-220.08 803,-149 778.71,-130.75 703.46,-120.45 645.99,-115.07"/>
<polygon fill="#ff0000" stroke="#ff0000" stroke-width="0.51" points="646.53,-111.61 636.25,-114.2 645.9,-118.58 646.53,-111.61"/>
<text text-anchor="middle" x="874.5" y="-587.8" font-family="Times,serif" font-size="14.00">4</text>
</g>
<!-- W_Assess potential fraud -->
<g id="node18" class="node">
<title>W_Assess potential fraud</title>
<polygon fill="#fefeff" stroke="black" points="1123,-1001 947,-1001 947,-965 1123,-965 1123,-1001"/>
<text text-anchor="middle" x="1035" y="-979.3" font-family="Times,serif" font-size="14.00">W_Assess potential fraud (7)</text>
</g>
<!-- W_Complete application&#45;&gt;W_Assess potential fraud -->
<g id="edge59" class="edge">
<title>W_Complete application&#45;&gt;W_Assess potential fraud</title>
<path fill="none" stroke="#ff0000" stroke-width="0.5" stroke-dasharray="5,2" d="M688.49,-1068.42C788.98,-1066.42 937.97,-1059.12 989,-1034 1000.18,-1028.5 1009.97,-1019.02 1017.61,-1009.79"/>
<polygon fill="#ff0000" stroke="#ff0000" stroke-width="0.5" points="1020.2,-1012.15 1023.54,-1002.09 1014.66,-1007.88 1020.2,-1012.15"/>
<text text-anchor="middle" x="1012.5" y="-1022.8" font-family="Times,serif" font-size="14.00">1</text>
</g>
<!-- end_node -->
<g id="node22" class="node">
<title>end_node</title>
<ellipse fill="none" stroke="black" cx="881" cy="-109" rx="18" ry="18"/>
<ellipse fill="none" stroke="black" cx="881" cy="-109" rx="22" ry="22"/>
<text text-anchor="start" x="876.5" y="-105.3" font-family="Times,serif" font-size="14.00">■</text>
</g>
<!-- W_Complete application&#45;&gt;end_node -->
<g id="edge74" class="edge">
<title>W_Complete application&#45;&gt;end_node</title>
<path fill="none" stroke="#ff0000" stroke-width="0.53" stroke-dasharray="5,2" d="M688.08,-1062.6C784.8,-1053.49 919,-1032.16 919,-984 919,-984 919,-984 919,-199 919,-176.6 908.7,-153.4 898.82,-136.3"/>
<polygon fill="#ff0000" stroke="#ff0000" stroke-width="0.53" points="902.05,-134.88 893.86,-128.16 896.07,-138.52 902.05,-134.88"/>
<text text-anchor="middle" x="926" y="-587.8" font-family="Times,serif" font-size="14.00">11</text>
</g>
<!-- A_Concept&#45;&gt;W_Complete application -->
<g id="edge21" class="edge">
<title>A_Concept&#45;&gt;W_Complete application</title>
<path fill="none" stroke="#000000" stroke-width="0.81" d="M535.13,-1001.19C533.25,-1011.32 532.65,-1024.05 538,-1034 540.06,-1037.82 542.74,-1041.3 545.79,-1044.44"/>
<polygon fill="#000000" stroke="#000000" stroke-width="0.81" points="543.27,-1046.88 553.12,-1050.78 547.85,-1041.59 543.27,-1046.88"/>
<text text-anchor="middle" x="548.5" y="-1022.8" font-family="Times,serif" font-size="14.00">102</text>
</g>
<!-- A_Concept&#45;&gt;A_Accepted -->
<g id="edge5" class="edge">
<title>A_Concept&#45;&gt;A_Accepted</title>
<path fill="none" stroke="#000000" stroke-width="2.05" d="M531.91,-964.8C526.68,-953.7 519.75,-938.97 513.69,-926.08"/>
<polygon fill="#000000" stroke="#000000" stroke-width="2.05" points="516.97,-924.83 509.54,-917.27 510.63,-927.81 516.97,-924.83"/>
<text text-anchor="middle" x="533.5" y="-935.8" font-family="Times,serif" font-size="14.00">503</text>
</g>
<!-- A_Accepted&#45;&gt;W_Complete application -->
<g id="edge30" class="edge">
<title>A_Accepted&#45;&gt;W_Complete application</title>
<path fill="none" stroke="#ff0000" stroke-width="0.56" stroke-dasharray="5,2" d="M545.63,-914.5C567.47,-925.46 591.53,-941.95 604,-965 616.8,-988.66 610.48,-1019.67 602.86,-1041.65"/>
<polygon fill="#ff0000" stroke="#ff0000" stroke-width="0.56" points="599.64,-1040.27 599.39,-1050.86 606.19,-1042.74 599.64,-1040.27"/>
<text text-anchor="middle" x="619" y="-979.3" font-family="Times,serif" font-size="14.00">19</text>
</g>
<!-- A_Accepted&#45;&gt;O_Create Offer -->
<g id="edge6" class="edge">
<title>A_Accepted&#45;&gt;O_Create Offer</title>
<path fill="none" stroke="#000000" stroke-width="2.31" d="M484.22,-877.8C473.5,-866.12 459.12,-850.45 446.87,-837.11"/>
<polygon fill="#000000" stroke="#000000" stroke-width="2.31" points="449.73,-835.04 440.39,-830.04 444.57,-839.77 449.73,-835.04"/>
<text text-anchor="middle" x="476.5" y="-848.8" font-family="Times,serif" font-size="14.00">586</text>
</g>
<!-- O_Created -->
<g id="node7" class="node">
<title>O_Created</title>
<polygon fill="#eaeaff" stroke="black" points="520,-740 412,-740 412,-704 520,-704 520,-740"/>
<text text-anchor="middle" x="466" y="-718.3" font-family="Times,serif" font-size="14.00">O_Created (725)</text>
</g>
<!-- O_Create Offer&#45;&gt;O_Created -->
<g id="edge7" class="edge">
<title>O_Create Offer&#45;&gt;O_Created</title>
<path fill="none" stroke="#000000" stroke-width="2.73" d="M418.89,-790.96C417.87,-780.88 418.05,-768.14 423,-758 424.29,-755.36 425.87,-752.86 427.68,-750.49"/>
<polygon fill="#000000" stroke="#000000" stroke-width="2.73" points="430.05,-753.07 434.45,-743.43 425,-748.22 430.05,-753.07"/>
<text text-anchor="middle" x="433.5" y="-761.8" font-family="Times,serif" font-size="14.00">725</text>
</g>
<!-- O_Created&#45;&gt;W_Complete application -->
<g id="edge37" class="edge">
<title>O_Created&#45;&gt;W_Complete application</title>
<path fill="none" stroke="#ff0000" stroke-width="0.52" stroke-dasharray="5,2" d="M520.38,-722.87C582.01,-725.91 674,-741.59 674,-808 674,-984 674,-984 674,-984 674,-1010.17 653.61,-1031.28 633.05,-1045.91"/>
<polygon fill="#ff0000" stroke="#ff0000" stroke-width="0.52" points="631.3,-1042.87 624.94,-1051.34 635.2,-1048.69 631.3,-1042.87"/>
<text text-anchor="middle" x="677.5" y="-892.3" font-family="Times,serif" font-size="14.00">9</text>
</g>
<!-- O_Created&#45;&gt;O_Create Offer -->
<g id="edge17" class="edge">
<title>O_Created&#45;&gt;O_Create Offer</title>
<path fill="none" stroke="#ff0000" stroke-width="0.67" stroke-dasharray="5,2" d="M459.08,-740.42C455.02,-750.17 449.6,-762.44 444,-773 442.52,-775.79 440.89,-778.66 439.22,-781.5"/>
<polygon fill="#ff0000" stroke="#ff0000" stroke-width="0.67" points="436.26,-779.63 434.01,-789.99 442.22,-783.29 436.26,-779.63"/>
<text text-anchor="middle" x="459" y="-761.8" font-family="Times,serif" font-size="14.00">56</text>
</g>
<!-- O_Created&#45;&gt;O_Sent (mail and online) -->
<g id="edge8" class="edge">
<title>O_Created&#45;&gt;O_Sent (mail and online)</title>
<path fill="none" stroke="#000000" stroke-width="2.39" d="M428.52,-703.6C418.88,-698.47 408.76,-692.48 400,-686 383.32,-673.67 380.06,-669.11 367,-653 261.82,-523.24 242.22,-484.51 162,-338 142.39,-302.18 123.6,-258.99 111.95,-230.81"/>
<polygon fill="#000000" stroke="#000000" stroke-width="2.39" points="115.21,-229.55 108.19,-221.62 108.73,-232.2 115.21,-229.55"/>
<text text-anchor="middle" x="251.5" y="-457.3" font-family="Times,serif" font-size="14.00">612</text>
</g>
<!-- O_Created&#45;&gt;A_Cancelled -->
<g id="edge32" class="edge">
<title>O_Created&#45;&gt;A_Cancelled</title>
<path fill="none" stroke="#ff0000" stroke-width="0.52" stroke-dasharray="5,2" d="M487.08,-703.51C548.1,-651.02 722.48,-487.16 753,-305 767.96,-215.71 690.24,-208.5 622,-149 616.29,-144.02 610.1,-138.78 604.15,-133.81"/>
<polygon fill="#ff0000" stroke="#ff0000" stroke-width="0.52" points="606.78,-131.45 596.85,-127.76 602.31,-136.84 606.78,-131.45"/>
<text text-anchor="middle" x="723.5" y="-413.8" font-family="Times,serif" font-size="14.00">8</text>
</g>
<!-- O_Cancelled -->
<g id="node12" class="node">
<title>O_Cancelled</title>
<polygon fill="#eaeaff" stroke="black" points="372,-305 252,-305 252,-269 372,-269 372,-305"/>
<text text-anchor="middle" x="312" y="-283.3" font-family="Times,serif" font-size="14.00">O_Cancelled (720)</text>
</g>
<!-- O_Created&#45;&gt;O_Cancelled -->
<g id="edge34" class="edge">
<title>O_Created&#45;&gt;O_Cancelled</title>
<path fill="none" stroke="#ff0000" stroke-width="0.53" stroke-dasharray="5,2" d="M439.83,-703.73C423.21,-691.46 402.54,-673.55 390,-653 322.18,-541.85 312.77,-380.32 311.86,-315.97"/>
<polygon fill="#ff0000" stroke="#ff0000" stroke-width="0.53" points="315.36,-316.23 311.78,-306.26 308.36,-316.29 315.36,-316.23"/>
<text text-anchor="middle" x="343" y="-500.8" font-family="Times,serif" font-size="14.00">10</text>
</g>
<!-- O_Sent (online only) -->
<g id="node13" class="node">
<title>O_Sent (online only)</title>
<polygon fill="#fefeff" stroke="black" points="777,-653 619,-653 619,-617 777,-617 777,-653"/>
<text text-anchor="middle" x="698" y="-631.3" font-family="Times,serif" font-size="14.00">O_Sent (online only) (31)</text>
</g>
<!-- O_Created&#45;&gt;O_Sent (online only) -->
<g id="edge27" class="edge">
<title>O_Created&#45;&gt;O_Sent (online only)</title>
<path fill="none" stroke="#ff0000" stroke-width="0.59" stroke-dasharray="5,2" d="M513.51,-703.59C550.26,-690.13 601.3,-671.43 640.38,-657.11"/>
<polygon fill="#ff0000" stroke="#ff0000" stroke-width="0.59" points="641.54,-660.41 649.72,-653.69 639.13,-653.84 641.54,-660.41"/>
<text text-anchor="middle" x="603" y="-674.8" font-family="Times,serif" font-size="14.00">29</text>
</g>
<!-- A_Denied -->
<g id="node14" class="node">
<title>A_Denied</title>
<polygon fill="#fefeff" stroke="black" points="512,-653 420,-653 420,-617 512,-617 512,-653"/>
<text text-anchor="middle" x="466" y="-631.3" font-family="Times,serif" font-size="14.00">A_Denied (6)</text>
</g>
<!-- O_Created&#45;&gt;A_Denied -->
<g id="edge48" class="edge">
<title>O_Created&#45;&gt;A_Denied</title>
<path fill="none" stroke="#ff0000" stroke-width="0.5" stroke-dasharray="5,2" d="M466,-703.8C466,-692.35 466,-677.06 466,-663.89"/>
<polygon fill="#ff0000" stroke="#ff0000" stroke-width="0.5" points="469.5,-664.22 466,-654.22 462.5,-664.22 469.5,-664.22"/>
<text text-anchor="middle" x="469.5" y="-674.8" font-family="Times,serif" font-size="14.00">1</text>
</g>
<!-- O_Sent (mail and online)&#45;&gt;W_Complete application -->
<g id="edge9" class="edge">
<title>O_Sent (mail and online)&#45;&gt;W_Complete application</title>
<path fill="none" stroke="#000000" stroke-width="2.26" d="M79.42,-218.32C63.09,-234.09 43,-258.99 43,-286 43,-984 43,-984 43,-984 43,-1020.45 73.94,-1021.02 108,-1034 173.6,-1058.99 359.13,-1066.27 480.22,-1068.31"/>
<polygon fill="#000000" stroke="#000000" stroke-width="2.26" points="480.08,-1071.81 490.14,-1068.47 480.19,-1064.81 480.08,-1071.81"/>
<text text-anchor="middle" x="53.5" y="-631.3" font-family="Times,serif" font-size="14.00">572</text>
</g>
<!-- O_Sent (mail and online)&#45;&gt;O_Create Offer -->
<g id="edge56" class="edge">
<title>O_Sent (mail and online)&#45;&gt;O_Create Offer</title>
<path fill="none" stroke="#ff0000" stroke-width="0.5" stroke-dasharray="5,2" d="M100.89,-218.22C105.79,-305.63 132.58,-698.95 221,-773 239.59,-788.57 295.82,-797.5 344.09,-802.44"/>
<polygon fill="#ff0000" stroke="#ff0000" stroke-width="0.5" points="343.52,-805.9 353.81,-803.39 344.2,-798.93 343.52,-805.9"/>
<text text-anchor="middle" x="135.5" y="-500.8" font-family="Times,serif" font-size="14.00">1</text>
</g>
<!-- O_Sent (mail and online)&#45;&gt;O_Sent (mail and online) -->
<g id="edge18" class="edge">
<title>O_Sent (mail and online)&#45;&gt;O_Sent (mail and online)</title>
<path fill="none" stroke="#ff0000" stroke-width="0.64" stroke-dasharray="5,2" d="M194.37,-206.91C205.07,-205.62 212,-203.31 212,-200 212,-197.98 209.43,-196.34 204.99,-195.07"/>
<polygon fill="#ff0000" stroke="#ff0000" stroke-width="0.64" points="205.8,-191.66 195.33,-193.27 204.52,-198.54 205.8,-191.66"/>
<text text-anchor="middle" x="219" y="-196.3" font-family="Times,serif" font-size="14.00">47</text>
</g>
<!-- O_Sent (mail and online)&#45;&gt;W_Call after offers -->
<g id="edge26" class="edge">
<title>O_Sent (mail and online)&#45;&gt;W_Call after offers</title>
<path fill="none" stroke="#ff0000" stroke-width="0.59" stroke-dasharray="5,2" d="M194.28,-212.99C247.32,-220.15 307.98,-229.15 334,-236 373.59,-246.42 390.31,-240.81 420,-269 464.74,-311.48 466.6,-390.02 463.93,-431.93"/>
<polygon fill="#ff0000" stroke="#ff0000" stroke-width="0.59" points="460.44,-431.59 463.16,-441.84 467.42,-432.14 460.44,-431.59"/>
<text text-anchor="middle" x="464" y="-326.8" font-family="Times,serif" font-size="14.00">29</text>
</g>
<!-- O_Sent (mail and online)&#45;&gt;A_Cancelled -->
<g id="edge24" class="edge">
<title>O_Sent (mail and online)&#45;&gt;A_Cancelled</title>
<path fill="none" stroke="#ff0000" stroke-width="0.56" stroke-dasharray="5,2" d="M194.36,-185.61C233.64,-179.63 279.64,-172.11 321,-164 349.67,-158.38 356.47,-155.27 385,-149 424.36,-140.35 468.45,-131.26 504.24,-124.04"/>
<polygon fill="#ff0000" stroke="#ff0000" stroke-width="0.56" points="504.65,-127.53 513.76,-122.12 503.26,-120.66 504.65,-127.53"/>
<text text-anchor="middle" x="392" y="-152.8" font-family="Times,serif" font-size="14.00">19</text>
</g>
<!-- W_Call after offers&#45;&gt;O_Create Offer -->
<g id="edge23" class="edge">
<title>W_Call after offers&#45;&gt;O_Create Offer</title>
<path fill="none" stroke="#ff0000" stroke-width="0.61" stroke-dasharray="5,2" d="M451.13,-479.42C435.92,-507.37 407.42,-564.45 397,-617 385.54,-674.77 401.68,-743.45 412.87,-780.69"/>
<polygon fill="#ff0000" stroke="#ff0000" stroke-width="0.61" points="409.41,-781.37 415.73,-789.87 416.1,-779.28 409.41,-781.37"/>
<text text-anchor="middle" x="404" y="-631.3" font-family="Times,serif" font-size="14.00">37</text>
</g>
<!-- W_Call after offers&#45;&gt;W_Call after offers -->
<g id="edge11" class="edge">
<title>W_Call after offers&#45;&gt;W_Call after offers</title>
<path fill="none" stroke="#000000" stroke-width="6" d="M542.97,-468.15C553.53,-466.91 560.5,-464.53 560.5,-461 560.5,-459.9 559.82,-458.91 558.56,-458.03"/>
<polygon fill="#000000" stroke="#000000" stroke-width="6" points="560.22,-453.04 549.21,-455.52 557.51,-463.18 560.22,-453.04"/>
<text text-anchor="middle" x="574.5" y="-457.3" font-family="Times,serif" font-size="14.00">1783</text>
</g>
<!-- A_Complete -->
<g id="node10" class="node">
<title>A_Complete</title>
<polygon fill="#eeeeff" stroke="black" points="613.5,-392 494.5,-392 494.5,-356 613.5,-356 613.5,-392"/>
<text text-anchor="middle" x="554" y="-370.3" font-family="Times,serif" font-size="14.00">A_Complete (594)</text>
</g>
<!-- W_Call after offers&#45;&gt;A_Complete -->
<g id="edge12" class="edge">
<title>W_Call after offers&#45;&gt;A_Complete</title>
<path fill="none" stroke="#000000" stroke-width="2.33" d="M476,-442.66C484.92,-432.71 496.67,-420.21 508,-410 511.46,-406.88 515.18,-403.75 518.94,-400.7"/>
<polygon fill="#000000" stroke="#000000" stroke-width="2.33" points="521.01,-403.52 526.74,-394.61 516.71,-398 521.01,-403.52"/>
<text text-anchor="middle" x="518.5" y="-413.8" font-family="Times,serif" font-size="14.00">594</text>
</g>
<!-- W_Call after offers&#45;&gt;A_Cancelled -->
<g id="edge14" class="edge">
<title>W_Call after offers&#45;&gt;A_Cancelled</title>
<path fill="none" stroke="#000000" stroke-width="2.17" d="M542.95,-446.83C573.84,-437.23 605.48,-420.65 622,-392 646.6,-349.34 604.82,-203.37 584.79,-139.89"/>
<polygon fill="#000000" stroke="#000000" stroke-width="2.17" points="588.15,-138.9 581.77,-130.45 581.48,-141.04 588.15,-138.9"/>
<text text-anchor="middle" x="636.5" y="-283.3" font-family="Times,serif" font-size="14.00">542</text>
</g>
<!-- W_Call after offers&#45;&gt;O_Cancelled -->
<g id="edge42" class="edge">
<title>W_Call after offers&#45;&gt;O_Cancelled</title>
<path fill="none" stroke="#ff0000" stroke-width="0.52" stroke-dasharray="5,2" d="M424.4,-442.62C403.43,-430.96 378.16,-413.77 362,-392 344.35,-368.22 330.41,-337.23 321.79,-315.28"/>
<polygon fill="#ff0000" stroke="#ff0000" stroke-width="0.52" points="325.1,-314.14 318.26,-306.04 318.56,-316.63 325.1,-314.14"/>
<text text-anchor="middle" x="365.5" y="-370.3" font-family="Times,serif" font-size="14.00">8</text>
</g>
<!-- W_Call after offers&#45;&gt;A_Denied -->
<g id="edge45" class="edge">
<title>W_Call after offers&#45;&gt;A_Denied</title>
<path fill="none" stroke="#ff0000" stroke-width="0.51" stroke-dasharray="5,2" d="M461.51,-479.48C462.37,-509.26 464.14,-570.07 465.18,-605.88"/>
<polygon fill="#ff0000" stroke="#ff0000" stroke-width="0.51" points="461.68,-605.9 465.47,-615.8 468.68,-605.7 461.68,-605.9"/>
<text text-anchor="middle" x="467.5" y="-544.3" font-family="Times,serif" font-size="14.00">3</text>
</g>
<!-- W_Validate application -->
<g id="node19" class="node">
<title>W_Validate application</title>
<polygon fill="#fefeff" stroke="black" points="415.5,-218 244.5,-218 244.5,-182 415.5,-182 415.5,-218"/>
<text text-anchor="middle" x="330" y="-196.3" font-family="Times,serif" font-size="14.00">W_Validate application (12)</text>
</g>
<!-- W_Call after offers&#45;&gt;W_Validate application -->
<g id="edge62" class="edge">
<title>W_Call after offers&#45;&gt;W_Validate application</title>
<path fill="none" stroke="#ff0000" stroke-width="0.51" stroke-dasharray="5,2" d="M456.34,-442.59C454.89,-436.99 453.33,-430.75 452,-425 444.04,-390.52 438.89,-298.93 420,-269 408.34,-250.53 389.75,-235.24 372.49,-223.87"/>
<polygon fill="#ff0000" stroke="#ff0000" stroke-width="0.51" points="374.6,-221.07 364.27,-218.7 370.87,-226.99 374.6,-221.07"/>
<text text-anchor="middle" x="442.5" y="-326.8" font-family="Times,serif" font-size="14.00">3</text>
</g>
<!-- W_Call after offers&#45;&gt;end_node -->
<g id="edge73" class="edge">
<title>W_Call after offers&#45;&gt;end_node</title>
<path fill="none" stroke="#000000" stroke-width="2.32" d="M542.58,-455.08C573.5,-450.38 607.98,-441.52 636,-425 766.93,-347.79 776.21,-292.75 857,-164 861.21,-157.29 865.06,-149.72 868.39,-142.41"/>
<polygon fill="#000000" stroke="#000000" stroke-width="2.32" points="871.53,-143.98 872.24,-133.41 865.09,-141.23 871.53,-143.98"/>
<text text-anchor="middle" x="805.5" y="-283.3" font-family="Times,serif" font-size="14.00">591</text>
</g>
<!-- A_Complete&#45;&gt;O_Create Offer -->
<g id="edge25" class="edge">
<title>A_Complete&#45;&gt;O_Create Offer</title>
<path fill="none" stroke="#ff0000" stroke-width="0.54" stroke-dasharray="5,2" d="M581.06,-392.42C587.77,-397.55 594.58,-403.54 600,-410 610.6,-422.64 611.95,-427.3 617,-443 633.75,-495.04 631.13,-512.69 619,-566 599.69,-650.9 595.3,-683.57 529,-740 508.94,-757.07 484.25,-773.04 463.65,-785.21"/>
<polygon fill="#ff0000" stroke="#ff0000" stroke-width="0.54" points="462.09,-782.07 455.2,-790.12 465.61,-788.12 462.09,-782.07"/>
<text text-anchor="middle" x="622" y="-587.8" font-family="Times,serif" font-size="14.00">13</text>
</g>
<!-- A_Complete&#45;&gt;W_Call after offers -->
<g id="edge13" class="edge">
<title>A_Complete&#45;&gt;W_Call after offers</title>
<path fill="none" stroke="#000000" stroke-width="2.23" d="M548.42,-392.42C544.37,-402.88 538.01,-415.89 529,-425 525.11,-428.93 520.7,-432.51 516.02,-435.74"/>
<polygon fill="#000000" stroke="#000000" stroke-width="2.23" points="514.32,-432.68 507.64,-440.91 517.99,-438.64 514.32,-432.68"/>
<text text-anchor="middle" x="550.5" y="-413.8" font-family="Times,serif" font-size="14.00">562</text>
</g>
<!-- A_Complete&#45;&gt;A_Cancelled -->
<g id="edge29" class="edge">
<title>A_Complete&#45;&gt;A_Cancelled</title>
<path fill="none" stroke="#ff0000" stroke-width="0.53" stroke-dasharray="5,2" d="M555.38,-355.74C558.93,-311.25 568.43,-192.34 572.77,-137.91"/>
<polygon fill="#ff0000" stroke="#ff0000" stroke-width="0.53" points="576.25,-138.37 573.55,-128.12 569.27,-137.81 576.25,-138.37"/>
<text text-anchor="middle" x="572" y="-239.8" font-family="Times,serif" font-size="14.00">11</text>
</g>
<!-- A_Complete&#45;&gt;O_Cancelled -->
<g id="edge41" class="edge">
<title>A_Complete&#45;&gt;O_Cancelled</title>
<path fill="none" stroke="#ff0000" stroke-width="0.52" stroke-dasharray="5,2" d="M494.16,-362.82C467.51,-357.21 436.08,-349.09 409,-338 397.01,-333.09 395.39,-329.17 384,-323 375.92,-318.62 367.21,-314.17 358.74,-309.98"/>
<polygon fill="#ff0000" stroke="#ff0000" stroke-width="0.52" points="360.54,-306.96 350.02,-305.71 357.46,-313.25 360.54,-306.96"/>
<text text-anchor="middle" x="412.5" y="-326.8" font-family="Times,serif" font-size="14.00">7</text>
</g>
<!-- A_Complete&#45;&gt;A_Denied -->
<g id="edge70" class="edge">
<title>A_Complete&#45;&gt;A_Denied</title>
<path fill="none" stroke="#ff0000" stroke-width="0.5" stroke-dasharray="5,2" d="M568.92,-392.39C579.03,-405.38 591.52,-424.08 597,-443 612.21,-495.51 625.39,-519.28 597,-566 580.71,-592.82 550.02,-609.54 522.45,-619.69"/>
<polygon fill="#ff0000" stroke="#ff0000" stroke-width="0.5" points="521.49,-616.32 513.18,-622.89 523.77,-622.93 521.49,-616.32"/>
<text text-anchor="middle" x="617.5" y="-500.8" font-family="Times,serif" font-size="14.00">1</text>
</g>
<!-- A_Cancelled&#45;&gt;W_Call after offers -->
<g id="edge44" class="edge">
<title>A_Cancelled&#45;&gt;W_Call after offers</title>
<path fill="none" stroke="#ff0000" stroke-width="0.52" stroke-dasharray="5,2" d="M589.32,-127.19C594.37,-133.76 599.82,-141.48 604,-149 611.66,-162.78 611.24,-167.33 617,-182 632.16,-220.65 643.31,-228.2 651,-269 661.16,-322.94 661.2,-341.37 640,-392 625.56,-426.48 589.28,-443.78 553.13,-452.36"/>
<polygon fill="#ff0000" stroke="#ff0000" stroke-width="0.52" points="552.76,-448.85 543.73,-454.38 554.24,-455.7 552.76,-448.85"/>
<text text-anchor="middle" x="660.5" y="-283.3" font-family="Times,serif" font-size="14.00">8</text>
</g>
<!-- A_Cancelled&#45;&gt;O_Cancelled -->
<g id="edge15" class="edge">
<title>A_Cancelled&#45;&gt;O_Cancelled</title>
<path fill="none" stroke="#000000" stroke-width="2.32" d="M564.78,-127.45C543.59,-163.37 495.88,-242.89 484,-251 455.25,-270.64 417.9,-279.72 385.35,-283.75"/>
<polygon fill="#000000" stroke="#000000" stroke-width="2.32" points="385.27,-280.24 375.7,-284.78 386.01,-287.2 385.27,-280.24"/>
<text text-anchor="middle" x="542.5" y="-196.3" font-family="Times,serif" font-size="14.00">590</text>
</g>
<!-- A_Cancelled&#45;&gt;W_Validate application -->
<g id="edge72" class="edge">
<title>A_Cancelled&#45;&gt;W_Validate application</title>
<path fill="none" stroke="#ff0000" stroke-width="0.5" stroke-dasharray="5,2" d="M514.5,-127.38C496.04,-133.42 475.9,-140.77 458,-149 446.23,-154.41 444.76,-158.55 433,-164 421.96,-169.12 409.94,-173.88 398.15,-178.14"/>
<polygon fill="#ff0000" stroke="#ff0000" stroke-width="0.5" points="397.31,-174.72 389.04,-181.34 399.63,-181.32 397.31,-174.72"/>
<text text-anchor="middle" x="461.5" y="-152.8" font-family="Times,serif" font-size="14.00">1</text>
</g>
<!-- O_Cancelled&#45;&gt;W_Complete application -->
<g id="edge33" class="edge">
<title>O_Cancelled&#45;&gt;W_Complete application</title>
<path fill="none" stroke="#ff0000" stroke-width="0.53" stroke-dasharray="5,2" d="M289.93,-305.43C250.05,-338.25 166.39,-413.48 126,-497 90.46,-570.49 92,-595.87 92,-677.5 92,-984 92,-984 92,-984 92,-1040.96 154.76,-1020.12 210,-1034 300.29,-1056.69 405.92,-1065.03 483.02,-1067.92"/>
<polygon fill="#ff0000" stroke="#ff0000" stroke-width="0.53" points="482.8,-1071.42 492.91,-1068.27 483.04,-1064.42 482.8,-1071.42"/>
<text text-anchor="middle" x="99" y="-674.8" font-family="Times,serif" font-size="14.00">10</text>
</g>
<!-- O_Cancelled&#45;&gt;O_Create Offer -->
<g id="edge35" class="edge">
<title>O_Cancelled&#45;&gt;O_Create Offer</title>
<path fill="none" stroke="#ff0000" stroke-width="0.53" stroke-dasharray="5,2" d="M300.25,-305.33C274.03,-345.76 213,-450.24 213,-547 213,-723 213,-723 213,-723 213,-781.75 284.75,-800.84 344.17,-806.57"/>
<polygon fill="#ff0000" stroke="#ff0000" stroke-width="0.53" points="343.66,-810.04 353.92,-807.4 344.25,-803.06 343.66,-810.04"/>
<text text-anchor="middle" x="220" y="-544.3" font-family="Times,serif" font-size="14.00">11</text>
</g>
<!-- O_Cancelled&#45;&gt;O_Sent (mail and online) -->
<g id="edge36" class="edge">
<title>O_Cancelled&#45;&gt;O_Sent (mail and online)</title>
<path fill="none" stroke="#ff0000" stroke-width="0.51" stroke-dasharray="5,2" d="M268.59,-268.59C235.15,-255.19 188.76,-236.59 153.11,-222.29"/>
<polygon fill="#ff0000" stroke="#ff0000" stroke-width="0.51" points="154.65,-219.14 144.07,-218.67 152.05,-225.64 154.65,-219.14"/>
<text text-anchor="middle" x="222.5" y="-239.8" font-family="Times,serif" font-size="14.00">4</text>
</g>
<!-- O_Cancelled&#45;&gt;W_Call after offers -->
<g id="edge16" class="edge">
<title>O_Cancelled&#45;&gt;W_Call after offers</title>
<path fill="none" stroke="#000000" stroke-width="2.29" d="M332.72,-305.22C338.62,-310.61 344.85,-316.78 350,-323 384.14,-364.21 377.57,-385.79 414,-425 416.98,-428.2 420.28,-431.32 423.72,-434.29"/>
<polygon fill="#000000" stroke="#000000" stroke-width="2.29" points="421.52,-437.01 431.52,-440.52 425.89,-431.54 421.52,-437.01"/>
<text text-anchor="middle" x="400.5" y="-370.3" font-family="Times,serif" font-size="14.00">580</text>
</g>
<!-- O_Cancelled&#45;&gt;A_Cancelled -->
<g id="edge43" class="edge">
<title>O_Cancelled&#45;&gt;A_Cancelled</title>
<path fill="none" stroke="#ff0000" stroke-width="0.52" stroke-dasharray="5,2" d="M353.62,-268.6C381.56,-256.14 418.66,-238.08 449,-218 486.77,-193 525.68,-157.97 550.07,-134.66"/>
<polygon fill="#ff0000" stroke="#ff0000" stroke-width="0.52" points="552.43,-137.25 557.2,-127.78 547.57,-132.21 552.43,-137.25"/>
<text text-anchor="middle" x="499.5" y="-196.3" font-family="Times,serif" font-size="14.00">8</text>
</g>
<!-- O_Cancelled&#45;&gt;O_Cancelled -->
<g id="edge19" class="edge">
<title>O_Cancelled&#45;&gt;O_Cancelled</title>
<path fill="none" stroke="#000000" stroke-width="0.82" d="M372.18,-294.65C382.69,-293.63 390,-291.08 390,-287 390,-284.58 387.42,-282.7 383.13,-281.35"/>
<polygon fill="#000000" stroke="#000000" stroke-width="0.82" points="383.86,-277.93 373.39,-279.58 382.6,-284.82 383.86,-277.93"/>
<text text-anchor="middle" x="400.5" y="-283.3" font-family="Times,serif" font-size="14.00">104</text>
</g>
<!-- O_Cancelled&#45;&gt;A_Denied -->
<g id="edge54" class="edge">
<title>O_Cancelled&#45;&gt;A_Denied</title>
<path fill="none" stroke="#ff0000" stroke-width="0.5" stroke-dasharray="5,2" d="M314.62,-305.22C316.21,-314.91 318.43,-327.19 321,-338 326.78,-362.35 329.86,-368.01 337,-392 348.51,-430.68 345.87,-442.46 363,-479 385.97,-527.99 422.97,-579.22 445.81,-608.79"/>
<polygon fill="#ff0000" stroke="#ff0000" stroke-width="0.5" points="442.75,-610.56 451.66,-616.29 448.27,-606.25 442.75,-610.56"/>
<text text-anchor="middle" x="366.5" y="-457.3" font-family="Times,serif" font-size="14.00">1</text>
</g>
<!-- O_Cancelled&#45;&gt;W_Validate application -->
<g id="edge68" class="edge">
<title>O_Cancelled&#45;&gt;W_Validate application</title>
<path fill="none" stroke="#ff0000" stroke-width="0.5" stroke-dasharray="5,2" d="M308.2,-268.58C306.76,-258.84 306.08,-246.56 309,-236 309.77,-233.22 310.83,-230.43 312.06,-227.71"/>
<polygon fill="#ff0000" stroke="#ff0000" stroke-width="0.5" points="315.11,-229.45 316.75,-218.98 308.94,-226.14 315.11,-229.45"/>
<text text-anchor="middle" x="312.5" y="-239.8" font-family="Times,serif" font-size="14.00">2</text>
</g>
<!-- O_Sent (online only)&#45;&gt;W_Complete application -->
<g id="edge28" class="edge">
<title>O_Sent (online only)&#45;&gt;W_Complete application</title>
<path fill="none" stroke="#ff0000" stroke-width="0.56" stroke-dasharray="5,2" d="M730.88,-653.31C753.69,-667.95 780,-691.27 780,-721 780,-984 780,-984 780,-984 780,-1025.71 741.23,-1047.08 698.82,-1057.97"/>
<polygon fill="#ff0000" stroke="#ff0000" stroke-width="0.56" points="698.03,-1054.56 689.1,-1060.26 699.64,-1061.37 698.03,-1054.56"/>
<text text-anchor="middle" x="787" y="-848.8" font-family="Times,serif" font-size="14.00">22</text>
</g>
<!-- O_Sent (online only)&#45;&gt;O_Create Offer -->
<g id="edge57" class="edge">
<title>O_Sent (online only)&#45;&gt;O_Create Offer</title>
<path fill="none" stroke="#ff0000" stroke-width="0.5" stroke-dasharray="5,2" d="M691.55,-653.11C679.45,-682.7 650.4,-743.15 605,-773 587.62,-784.43 541.52,-793.21 499.94,-799.11"/>
<polygon fill="#ff0000" stroke="#ff0000" stroke-width="0.5" points="499.67,-795.62 490.24,-800.45 500.63,-802.55 499.67,-795.62"/>
<text text-anchor="middle" x="669.5" y="-718.3" font-family="Times,serif" font-size="14.00">2</text>
</g>
<!-- O_Sent (online only)&#45;&gt;A_Cancelled -->
<g id="edge39" class="edge">
<title>O_Sent (online only)&#45;&gt;A_Cancelled</title>
<path fill="none" stroke="#ff0000" stroke-width="0.51" stroke-dasharray="5,2" d="M746.8,-616.6C775.02,-603.08 805,-581.15 805,-549 805,-549 805,-549 805,-199 805,-174.35 800.55,-164.02 781,-149 760.12,-132.95 697.02,-122.59 646.11,-116.61"/>
<polygon fill="#ff0000" stroke="#ff0000" stroke-width="0.51" points="646.55,-113.13 636.22,-115.48 645.76,-120.09 646.55,-113.13"/>
<text text-anchor="middle" x="808.5" y="-370.3" font-family="Times,serif" font-size="14.00">5</text>
</g>
<!-- O_Sent (online only)&#45;&gt;O_Sent (online only) -->
<g id="edge58" class="edge">
<title>O_Sent (online only)&#45;&gt;O_Sent (online only)</title>
<path fill="none" stroke="#ff0000" stroke-width="0.5" stroke-dasharray="5,2" d="M777.16,-642.24C787.87,-641.02 795,-638.61 795,-635 795,-632.74 792.22,-630.95 787.51,-629.63"/>
<polygon fill="#ff0000" stroke="#ff0000" stroke-width="0.5" points="788.38,-626.23 777.91,-627.9 787.13,-633.12 788.38,-626.23"/>
<text text-anchor="middle" x="798.5" y="-631.3" font-family="Times,serif" font-size="14.00">2</text>
</g>
<!-- A_Denied&#45;&gt;W_Call after offers -->
<g id="edge55" class="edge">
<title>A_Denied&#45;&gt;W_Call after offers</title>
<path fill="none" stroke="#ff0000" stroke-width="0.5" stroke-dasharray="5,2" d="M461.71,-616.52C458.6,-602.86 454.64,-583.35 453,-566 450.55,-540.17 453.35,-510.69 456.29,-489.72"/>
<polygon fill="#ff0000" stroke="#ff0000" stroke-width="0.5" points="459.71,-490.47 457.74,-480.06 452.79,-489.43 459.71,-490.47"/>
<text text-anchor="middle" x="456.5" y="-544.3" font-family="Times,serif" font-size="14.00">1</text>
</g>
<!-- O_Refused -->
<g id="node15" class="node">
<title>O_Refused</title>
<polygon fill="#fefeff" stroke="black" points="588.5,-566 491.5,-566 491.5,-530 588.5,-530 588.5,-566"/>
<text text-anchor="middle" x="540" y="-544.3" font-family="Times,serif" font-size="14.00">O_Refused (5)</text>
</g>
<!-- A_Denied&#45;&gt;O_Refused -->
<g id="edge46" class="edge">
<title>A_Denied&#45;&gt;O_Refused</title>
<path fill="none" stroke="#ff0000" stroke-width="0.51" stroke-dasharray="5,2" d="M480.98,-616.8C491.54,-604.67 505.86,-588.21 517.76,-574.55"/>
<polygon fill="#ff0000" stroke="#ff0000" stroke-width="0.51" points="520.36,-576.89 524.28,-567.05 515.08,-572.3 520.36,-576.89"/>
<text text-anchor="middle" x="511.5" y="-587.8" font-family="Times,serif" font-size="14.00">5</text>
</g>
<!-- O_Refused&#45;&gt;W_Complete application -->
<g id="edge49" class="edge">
<title>O_Refused&#45;&gt;W_Complete application</title>
<path fill="none" stroke="#ff0000" stroke-width="0.5" stroke-dasharray="5,2" d="M588.91,-554.14C659.36,-562.67 783.96,-582.34 811,-617 877.52,-702.28 835.12,-758.42 798,-860 764.96,-950.42 744.02,-973.67 669,-1034 663.12,-1038.73 656.49,-1042.97 649.65,-1046.71"/>
<polygon fill="#ff0000" stroke="#ff0000" stroke-width="0.5" points="648.22,-1043.51 640.91,-1051.18 651.41,-1049.74 648.22,-1043.51"/>
<text text-anchor="middle" x="828.5" y="-805.3" font-family="Times,serif" font-size="14.00">1</text>
</g>
<!-- O_Refused&#45;&gt;W_Call after offers -->
<g id="edge47" class="edge">
<title>O_Refused&#45;&gt;W_Call after offers</title>
<path fill="none" stroke="#ff0000" stroke-width="0.51" stroke-dasharray="5,2" d="M524.01,-529.8C512.63,-517.55 497.15,-500.9 484.39,-487.16"/>
<polygon fill="#ff0000" stroke="#ff0000" stroke-width="0.51" points="487.13,-484.97 477.76,-480.03 482,-489.74 487.13,-484.97"/>
<text text-anchor="middle" x="509.5" y="-500.8" font-family="Times,serif" font-size="14.00">4</text>
</g>
<!-- W_Handle leads -->
<g id="node17" class="node">
<title>W_Handle leads</title>
<polygon fill="#fefeff" stroke="black" points="654.5,-1175 527.5,-1175 527.5,-1139 654.5,-1139 654.5,-1175"/>
<text text-anchor="middle" x="591" y="-1153.3" font-family="Times,serif" font-size="14.00">W_Handle leads (5)</text>
</g>
<!-- A_Submitted&#45;&gt;W_Handle leads -->
<g id="edge51" class="edge">
<title>A_Submitted&#45;&gt;W_Handle leads</title>
<path fill="none" stroke="#ff0000" stroke-width="0.5" stroke-dasharray="5,2" d="M611.74,-1225.8C608.2,-1214.24 603.47,-1198.75 599.41,-1185.5"/>
<polygon fill="#ff0000" stroke="#ff0000" stroke-width="0.5" points="602.84,-1184.73 596.56,-1176.19 596.14,-1186.78 602.84,-1184.73"/>
<text text-anchor="middle" x="609.5" y="-1196.8" font-family="Times,serif" font-size="14.00">1</text>
</g>
<!-- W_Handle leads&#45;&gt;W_Complete application -->
<g id="edge53" class="edge">
<title>W_Handle leads&#45;&gt;W_Complete application</title>
<path fill="none" stroke="#ff0000" stroke-width="0.5" stroke-dasharray="5,2" d="M591,-1138.8C591,-1127.35 591,-1112.06 591,-1098.89"/>
<polygon fill="#ff0000" stroke="#ff0000" stroke-width="0.5" points="594.5,-1099.22 591,-1089.22 587.5,-1099.22 594.5,-1099.22"/>
<text text-anchor="middle" x="594.5" y="-1109.8" font-family="Times,serif" font-size="14.00">1</text>
</g>
<!-- W_Handle leads&#45;&gt;W_Handle leads -->
<g id="edge52" class="edge">
<title>W_Handle leads&#45;&gt;W_Handle leads</title>
<path fill="none" stroke="#ff0000" stroke-width="0.51" stroke-dasharray="5,2" d="M654.9,-1164.55C665.33,-1163.47 672.5,-1160.95 672.5,-1157 672.5,-1154.59 669.84,-1152.72 665.4,-1151.38"/>
<polygon fill="#ff0000" stroke="#ff0000" stroke-width="0.51" points="666.12,-1147.95 655.65,-1149.59 664.86,-1154.84 666.12,-1147.95"/>
<text text-anchor="middle" x="676" y="-1153.3" font-family="Times,serif" font-size="14.00">4</text>
</g>
<!-- W_Assess potential fraud&#45;&gt;W_Complete application -->
<g id="edge61" class="edge">
<title>W_Assess potential fraud&#45;&gt;W_Complete application</title>
<path fill="none" stroke="#ff0000" stroke-width="0.5" stroke-dasharray="5,2" d="M1006.64,-1001.3C986.76,-1012.56 959.16,-1026.51 933,-1034 856.46,-1055.92 766.82,-1064.5 698.52,-1067.69"/>
<polygon fill="#ff0000" stroke="#ff0000" stroke-width="0.5" points="698.77,-1064.17 688.93,-1068.1 699.07,-1071.17 698.77,-1064.17"/>
<text text-anchor="middle" x="974.5" y="-1022.8" font-family="Times,serif" font-size="14.00">1</text>
</g>
<!-- W_Assess potential fraud&#45;&gt;W_Assess potential fraud -->
<g id="edge60" class="edge">
<title>W_Assess potential fraud&#45;&gt;W_Assess potential fraud</title>
<path fill="none" stroke="#ff0000" stroke-width="0.52" stroke-dasharray="5,2" d="M1123.13,-990.06C1133.93,-988.79 1141,-986.44 1141,-983 1141,-980.85 1138.24,-979.12 1133.53,-977.82"/>
<polygon fill="#ff0000" stroke="#ff0000" stroke-width="0.52" points="1134.36,-974.42 1123.9,-976.08 1133.12,-981.31 1134.36,-974.42"/>
<text text-anchor="middle" x="1144.5" y="-979.3" font-family="Times,serif" font-size="14.00">6</text>
</g>
<!-- W_Validate application&#45;&gt;A_Cancelled -->
<g id="edge67" class="edge">
<title>W_Validate application&#45;&gt;A_Cancelled</title>
<path fill="none" stroke="#ff0000" stroke-width="0.5" stroke-dasharray="5,2" d="M367.85,-181.68C379.26,-176.24 391.74,-170.06 403,-164 414.41,-157.86 416.06,-154.04 428,-149 452.15,-138.79 479.69,-130.63 504.35,-124.47"/>
<polygon fill="#ff0000" stroke="#ff0000" stroke-width="0.5" points="505.09,-127.89 513.98,-122.13 503.44,-121.09 505.09,-127.89"/>
<text text-anchor="middle" x="431.5" y="-152.8" font-family="Times,serif" font-size="14.00">2</text>
</g>
<!-- W_Validate application&#45;&gt;O_Cancelled -->
<g id="edge71" class="edge">
<title>W_Validate application&#45;&gt;O_Cancelled</title>
<path fill="none" stroke="#ff0000" stroke-width="0.5" stroke-dasharray="5,2" d="M326.3,-218.47C323.86,-229.97 320.62,-245.28 317.84,-258.41"/>
<polygon fill="#ff0000" stroke="#ff0000" stroke-width="0.5" points="314.45,-257.55 315.8,-268.06 321.3,-259 314.45,-257.55"/>
<text text-anchor="middle" x="326.5" y="-239.8" font-family="Times,serif" font-size="14.00">1</text>
</g>
<!-- W_Validate application&#45;&gt;W_Validate application -->
<g id="edge63" class="edge">
<title>W_Validate application&#45;&gt;W_Validate application</title>
<path fill="none" stroke="#ff0000" stroke-width="0.51" stroke-dasharray="5,2" d="M415.66,-207.1C426.42,-205.85 433.5,-203.48 433.5,-200 433.5,-197.82 430.73,-196.08 426.03,-194.78"/>
<polygon fill="#ff0000" stroke="#ff0000" stroke-width="0.51" points="426.88,-191.37 416.42,-193.03 425.63,-198.26 426.88,-191.37"/>
<text text-anchor="middle" x="437" y="-196.3" font-family="Times,serif" font-size="14.00">3</text>
</g>
<!-- A_Validating -->
<g id="node20" class="node">
<title>A_Validating</title>
<polygon fill="#fefeff" stroke="black" points="319,-127 211,-127 211,-91 319,-91 319,-127"/>
<text text-anchor="middle" x="265" y="-105.3" font-family="Times,serif" font-size="14.00">A_Validating (3)</text>
</g>
<!-- W_Validate application&#45;&gt;A_Validating -->
<g id="edge64" class="edge">
<title>W_Validate application&#45;&gt;A_Validating</title>
<path fill="none" stroke="#ff0000" stroke-width="0.51" stroke-dasharray="5,2" d="M308.51,-181.71C302.72,-176.41 296.75,-170.31 292,-164 285.86,-155.85 280.49,-146.08 276.19,-137.12"/>
<polygon fill="#ff0000" stroke="#ff0000" stroke-width="0.51" points="279.44,-135.81 272.11,-128.15 273.06,-138.71 279.44,-135.81"/>
<text text-anchor="middle" x="295.5" y="-152.8" font-family="Times,serif" font-size="14.00">3</text>
</g>
<!-- W_Validate application&#45;&gt;end_node -->
<g id="edge75" class="edge">
<title>W_Validate application&#45;&gt;end_node</title>
<path fill="none" stroke="#ff0000" stroke-width="0.51" stroke-dasharray="5,2" d="M415.79,-185.14C540.14,-165.06 764.72,-128.78 848.41,-115.26"/>
<polygon fill="#ff0000" stroke="#ff0000" stroke-width="0.51" points="848.96,-118.72 858.28,-113.67 847.85,-111.81 848.96,-118.72"/>
<text text-anchor="middle" x="642.5" y="-152.8" font-family="Times,serif" font-size="14.00">3</text>
</g>
<!-- A_Validating&#45;&gt;W_Validate application -->
<g id="edge69" class="edge">
<title>A_Validating&#45;&gt;W_Validate application</title>
<path fill="none" stroke="#ff0000" stroke-width="0.5" stroke-dasharray="5,2" d="M281.2,-127.36C287.05,-133.94 293.56,-141.63 299,-149 304.52,-156.48 310.03,-164.96 314.85,-172.78"/>
<polygon fill="#ff0000" stroke="#ff0000" stroke-width="0.5" points="311.78,-174.47 319.93,-181.24 317.78,-170.86 311.78,-174.47"/>
<text text-anchor="middle" x="313.5" y="-152.8" font-family="Times,serif" font-size="14.00">2</text>
</g>
<!-- O_Returned -->
<g id="node21" class="node">
<title>O_Returned</title>
<polygon fill="#ffffff" stroke="black" points="361,-36 259,-36 259,0 361,0 361,-36"/>
<text text-anchor="middle" x="310" y="-14.3" font-family="Times,serif" font-size="14.00">O_Returned (1)</text>
</g>
<!-- A_Validating&#45;&gt;O_Returned -->
<g id="edge65" class="edge">
<title>A_Validating&#45;&gt;O_Returned</title>
<path fill="none" stroke="#ff0000" stroke-width="0.5" stroke-dasharray="5,2" d="M273.68,-90.84C280.11,-78.12 289,-60.53 296.38,-45.94"/>
<polygon fill="#ff0000" stroke="#ff0000" stroke-width="0.5" points="299.47,-47.59 300.86,-37.09 293.22,-44.43 299.47,-47.59"/>
<text text-anchor="middle" x="295.5" y="-57.8" font-family="Times,serif" font-size="14.00">1</text>
</g>
<!-- O_Returned&#45;&gt;W_Validate application -->
<g id="edge66" class="edge">
<title>O_Returned&#45;&gt;W_Validate application</title>
<path fill="none" stroke="#ff0000" stroke-width="0.5" stroke-dasharray="5,2" d="M315.84,-36.37C320.11,-49.98 325.56,-69.46 328,-87 331.97,-115.51 332.02,-148.49 331.35,-171.24"/>
<polygon fill="#ff0000" stroke="#ff0000" stroke-width="0.5" points="327.86,-170.95 331,-181.07 334.86,-171.2 327.86,-170.95"/>
<text text-anchor="middle" x="335.5" y="-105.3" font-family="Times,serif" font-size="14.00">1</text>
</g>
</g>
</svg>
