<?xml version="1.0" encoding="UTF-8" standalone="no"?>
<!DOCTYPE svg PUBLIC "-//W3C//DTD SVG 1.1//EN"
 "http://www.w3.org/Graphics/SVG/1.1/DTD/svg11.dtd">
<!-- Generated by graphviz version 7.0.5 (0)
 -->
<!-- Title: dfg Pages: 1 -->
<svg width="1372pt" height="1357pt"
 viewBox="0.00 0.00 1371.50 1357.00" xmlns="http://www.w3.org/2000/svg" xmlns:xlink="http://www.w3.org/1999/xlink">
<g id="graph0" class="graph" transform="scale(1 1) rotate(0) translate(4 1353)">
<title>dfg</title>
<polygon fill="white" stroke="none" points="-4,4 -4,-1353 1367.5,-1353 1367.5,4 -4,4"/>
<!-- start_node -->
<g id="node1" class="node">
<title>start_node</title>
<ellipse fill="none" stroke="black" cx="399" cy="-1331" rx="18" ry="18"/>
<text text-anchor="start" x="394.5" y="-1327.3" font-family="Times,serif" font-size="14.00">●</text>
</g>
<!-- A_Create Application -->
<g id="node2" class="node">
<title>A_Create Application</title>
<polygon fill="#eeeeff" stroke="black" points="486.5,-1262 311.5,-1262 311.5,-1226 486.5,-1226 486.5,-1262"/>
<text text-anchor="middle" x="399" y="-1240.3" font-family="Times,serif" font-size="14.00">A_Create Application (2310)</text>
</g>
<!-- start_node&#45;&gt;A_Create Application -->
<g id="edge1" class="edge">
<title>start_node&#45;&gt;A_Create Application</title>
<path fill="none" stroke="#000000" stroke-width="1.91" d="M399,-1312.8C399,-1302.04 399,-1287.88 399,-1275.29"/>
<polygon fill="#000000" stroke="#000000" stroke-width="1.91" points="402.5,-1275.35 399,-1265.35 395.5,-1275.35 402.5,-1275.35"/>
<text text-anchor="middle" x="413" y="-1283.8" font-family="Times,serif" font-size="14.00">2310</text>
</g>
<!-- A_Submitted -->
<g id="node3" class="node">
<title>A_Submitted</title>
<polygon fill="#f2f2ff" stroke="black" points="463.5,-1175 334.5,-1175 334.5,-1139 463.5,-1139 463.5,-1175"/>
<text text-anchor="middle" x="399" y="-1153.3" font-family="Times,serif" font-size="14.00">A_Submitted (1674)</text>
</g>
<!-- A_Create Application&#45;&gt;A_Submitted -->
<g id="edge2" class="edge">
<title>A_Create Application&#45;&gt;A_Submitted</title>
<path fill="none" stroke="#000000" stroke-width="1.52" d="M399,-1225.8C399,-1214.81 399,-1200.28 399,-1187.48"/>
<polygon fill="#000000" stroke="#000000" stroke-width="1.52" points="402.5,-1187.76 399,-1177.76 395.5,-1187.77 402.5,-1187.76"/>
<text text-anchor="middle" x="413" y="-1196.8" font-family="Times,serif" font-size="14.00">1674</text>
</g>
<!-- W_Complete application -->
<g id="node5" class="node">
<title>W_Complete application</title>
<polygon fill="#b8b8ff" stroke="black" points="449,-1001 255,-1001 255,-965 449,-965 449,-1001"/>
<text text-anchor="middle" x="352" y="-979.3" font-family="Times,serif" font-size="14.00">W_Complete application (9707)</text>
</g>
<!-- A_Create Application&#45;&gt;W_Complete application -->
<g id="edge26" class="edge">
<title>A_Create Application&#45;&gt;W_Complete application</title>
<path fill="none" stroke="#ff0000" stroke-width="0.73" stroke-dasharray="5,2" d="M371.75,-1225.62C355.27,-1213.55 335.49,-1195.89 325,-1175 300.4,-1126.02 302.79,-1105.2 316,-1052 319.57,-1037.62 326.81,-1022.93 333.86,-1010.9"/>
<polygon fill="#ff0000" stroke="#ff0000" stroke-width="0.73" points="336.81,-1012.79 339.08,-1002.44 330.85,-1009.12 336.81,-1012.79"/>
<text text-anchor="middle" x="317.5" y="-1109.8" font-family="Times,serif" font-size="14.00">386</text>
</g>
<!-- A_Concept -->
<g id="node6" class="node">
<title>A_Concept</title>
<polygon fill="#eeeeff" stroke="black" points="502,-914 384,-914 384,-878 502,-878 502,-914"/>
<text text-anchor="middle" x="443" y="-892.3" font-family="Times,serif" font-size="14.00">A_Concept (2310)</text>
</g>
<!-- A_Create Application&#45;&gt;A_Concept -->
<g id="edge31" class="edge">
<title>A_Create Application&#45;&gt;A_Concept</title>
<path fill="none" stroke="#ff0000" stroke-width="0.65" stroke-dasharray="5,2" d="M486.58,-1227.1C522.14,-1215.12 555,-1194.24 555,-1158 555,-1158 555,-1158 555,-982 555,-952.98 530.84,-932.58 504.96,-919.05"/>
<polygon fill="#ff0000" stroke="#ff0000" stroke-width="0.65" points="506.8,-916.05 496.28,-914.81 503.73,-922.34 506.8,-916.05"/>
<text text-anchor="middle" x="565.5" y="-1066.3" font-family="Times,serif" font-size="14.00">250</text>
</g>
<!-- W_Handle leads -->
<g id="node4" class="node">
<title>W_Handle leads</title>
<polygon fill="#e5e5ff" stroke="black" points="472.5,-1088 325.5,-1088 325.5,-1052 472.5,-1052 472.5,-1088"/>
<text text-anchor="middle" x="399" y="-1066.3" font-family="Times,serif" font-size="14.00">W_Handle leads (3555)</text>
</g>
<!-- A_Submitted&#45;&gt;W_Handle leads -->
<g id="edge3" class="edge">
<title>A_Submitted&#45;&gt;W_Handle leads</title>
<path fill="none" stroke="#000000" stroke-width="1.52" d="M399,-1138.8C399,-1127.81 399,-1113.28 399,-1100.48"/>
<polygon fill="#000000" stroke="#000000" stroke-width="1.52" points="402.5,-1100.76 399,-1090.76 395.5,-1100.77 402.5,-1100.76"/>
<text text-anchor="middle" x="413" y="-1109.8" font-family="Times,serif" font-size="14.00">1674</text>
</g>
<!-- W_Handle leads&#45;&gt;W_Handle leads -->
<g id="edge4" class="edge">
<title>W_Handle leads&#45;&gt;W_Handle leads</title>
<path fill="none" stroke="#000000" stroke-width="1.64" d="M472.96,-1077.32C483.45,-1076.14 490.5,-1073.7 490.5,-1070 490.5,-1068.04 488.51,-1066.43 485.07,-1065.17"/>
<polygon fill="#000000" stroke="#000000" stroke-width="1.64" points="485.89,-1061.77 475.39,-1063.18 484.48,-1068.63 485.89,-1061.77"/>
<text text-anchor="middle" x="504.5" y="-1066.3" font-family="Times,serif" font-size="14.00">1881</text>
</g>
<!-- W_Handle leads&#45;&gt;W_Complete application -->
<g id="edge5" class="edge">
<title>W_Handle leads&#45;&gt;W_Complete application</title>
<path fill="none" stroke="#000000" stroke-width="1.52" d="M389.49,-1051.8C383.16,-1040.35 374.7,-1025.06 367.42,-1011.89"/>
<polygon fill="#000000" stroke="#000000" stroke-width="1.52" points="370.67,-1010.54 362.77,-1003.48 364.55,-1013.92 370.67,-1010.54"/>
<text text-anchor="middle" x="393" y="-1022.8" font-family="Times,serif" font-size="14.00">1674</text>
</g>
<!-- W_Complete application&#45;&gt;W_Complete application -->
<g id="edge25" class="edge">
<title>W_Complete application&#45;&gt;W_Complete application</title>
<path fill="none" stroke="#000000" stroke-width="2.65" d="M449.32,-989.86C460.06,-988.56 467,-986.27 467,-983 467,-981.47 465.48,-980.15 462.75,-979.05"/>
<polygon fill="#000000" stroke="#000000" stroke-width="2.65" points="463.76,-975.69 453.24,-976.99 462.27,-982.53 463.76,-975.69"/>
<text text-anchor="middle" x="481" y="-979.3" font-family="Times,serif" font-size="14.00">3534</text>
</g>
<!-- W_Complete application&#45;&gt;A_Concept -->
<g id="edge6" class="edge">
<title>W_Complete application&#45;&gt;A_Concept</title>
<path fill="none" stroke="#000000" stroke-width="1.75" d="M394.13,-964.69C402.73,-959.85 411.2,-953.96 418,-947 423.87,-940.98 428.63,-933.32 432.36,-925.8"/>
<polygon fill="#000000" stroke="#000000" stroke-width="1.75" points="435.5,-927.37 436.32,-916.81 429.09,-924.55 435.5,-927.37"/>
<text text-anchor="middle" x="442" y="-935.8" font-family="Times,serif" font-size="14.00">2060</text>
</g>
<!-- A_Accepted -->
<g id="node7" class="node">
<title>A_Accepted</title>
<polygon fill="#eeeeff" stroke="black" points="404,-827 280,-827 280,-791 404,-791 404,-827"/>
<text text-anchor="middle" x="342" y="-805.3" font-family="Times,serif" font-size="14.00">A_Accepted (2310)</text>
</g>
<!-- W_Complete application&#45;&gt;A_Accepted -->
<g id="edge8" class="edge">
<title>W_Complete application&#45;&gt;A_Accepted</title>
<path fill="none" stroke="#000000" stroke-width="1.57" d="M334.44,-964.77C322.75,-952 308.4,-933.49 302,-914 293.37,-887.7 306.88,-858.32 320.48,-837.51"/>
<polygon fill="#000000" stroke="#000000" stroke-width="1.57" points="323.27,-839.63 326.12,-829.43 317.52,-835.62 323.27,-839.63"/>
<text text-anchor="middle" x="316" y="-892.3" font-family="Times,serif" font-size="14.00">1765</text>
</g>
<!-- O_Create Offer -->
<g id="node8" class="node">
<title>O_Create Offer</title>
<polygon fill="#ededff" stroke="black" points="361.5,-740 220.5,-740 220.5,-704 361.5,-704 361.5,-740"/>
<text text-anchor="middle" x="291" y="-718.3" font-family="Times,serif" font-size="14.00">O_Create Offer (2468)</text>
</g>
<!-- W_Complete application&#45;&gt;O_Create Offer -->
<g id="edge38" class="edge">
<title>W_Complete application&#45;&gt;O_Create Offer</title>
<path fill="none" stroke="#ff0000" stroke-width="0.52" stroke-dasharray="5,2" d="M324.39,-964.65C317.99,-959.6 311.69,-953.63 307,-947 296.45,-932.09 277.22,-871.16 271,-827 268.77,-811.16 268.72,-806.84 271,-791 272.97,-777.34 277.05,-762.6 281.02,-750.34"/>
<polygon fill="#ff0000" stroke="#ff0000" stroke-width="0.52" points="284.27,-751.65 284.16,-741.05 277.64,-749.4 284.27,-751.65"/>
<text text-anchor="middle" x="285" y="-848.8" font-family="Times,serif" font-size="14.00">38</text>
</g>
<!-- W_Call after offers -->
<g id="node11" class="node">
<title>W_Call after offers</title>
<polygon fill="#9b9bff" stroke="black" points="529,-479 359,-479 359,-443 529,-443 529,-479"/>
<text text-anchor="middle" x="444" y="-457.3" font-family="Times,serif" font-size="14.00">W_Call after offers (13729)</text>
</g>
<!-- W_Complete application&#45;&gt;W_Call after offers -->
<g id="edge13" class="edge">
<title>W_Complete application&#45;&gt;W_Call after offers</title>
<path fill="none" stroke="#000000" stroke-width="1.91" d="M449.33,-970.31C490.89,-959.34 530,-938.09 530,-897 530,-897 530,-897 530,-547 530,-521.26 510.27,-500.67 489.71,-486.21"/>
<polygon fill="#000000" stroke="#000000" stroke-width="1.91" points="491.68,-483.32 481.39,-480.79 487.86,-489.19 491.68,-483.32"/>
<text text-anchor="middle" x="544" y="-718.3" font-family="Times,serif" font-size="14.00">2310</text>
</g>
<!-- A_Concept&#45;&gt;W_Complete application -->
<g id="edge7" class="edge">
<title>A_Concept&#45;&gt;W_Complete application</title>
<path fill="none" stroke="#000000" stroke-width="1.57" d="M409.34,-914.42C401.21,-919.47 392.89,-925.43 386,-932 379.11,-938.58 372.83,-946.78 367.6,-954.62"/>
<polygon fill="#000000" stroke="#000000" stroke-width="1.57" points="364.76,-952.56 362.41,-962.89 370.69,-956.27 364.76,-952.56"/>
<text text-anchor="middle" x="400" y="-935.8" font-family="Times,serif" font-size="14.00">1765</text>
</g>
<!-- A_Concept&#45;&gt;A_Accepted -->
<g id="edge27" class="edge">
<title>A_Concept&#45;&gt;A_Accepted</title>
<path fill="none" stroke="#000000" stroke-width="0.83" d="M422.56,-877.8C407.74,-865.32 387.48,-848.28 370.99,-834.4"/>
<polygon fill="#000000" stroke="#000000" stroke-width="0.83" points="373.62,-832.04 363.72,-828.28 369.11,-837.39 373.62,-832.04"/>
<text text-anchor="middle" x="409.5" y="-848.8" font-family="Times,serif" font-size="14.00">545</text>
</g>
<!-- A_Accepted&#45;&gt;W_Complete application -->
<g id="edge37" class="edge">
<title>A_Accepted&#45;&gt;W_Complete application</title>
<path fill="none" stroke="#ff0000" stroke-width="0.52" stroke-dasharray="5,2" d="M343.02,-827.48C344.75,-857.26 348.28,-918.07 350.37,-953.88"/>
<polygon fill="#ff0000" stroke="#ff0000" stroke-width="0.52" points="346.87,-953.99 350.94,-963.77 353.85,-953.59 346.87,-953.99"/>
<text text-anchor="middle" x="355" y="-892.3" font-family="Times,serif" font-size="14.00">38</text>
</g>
<!-- A_Accepted&#45;&gt;O_Create Offer -->
<g id="edge9" class="edge">
<title>A_Accepted&#45;&gt;O_Create Offer</title>
<path fill="none" stroke="#000000" stroke-width="1.88" d="M331.68,-790.8C324.88,-779.47 315.82,-764.36 307.97,-751.29"/>
<polygon fill="#000000" stroke="#000000" stroke-width="1.88" points="311.09,-749.68 302.95,-742.91 305.09,-753.29 311.09,-749.68"/>
<text text-anchor="middle" x="334" y="-761.8" font-family="Times,serif" font-size="14.00">2272</text>
</g>
<!-- O_Created -->
<g id="node9" class="node">
<title>O_Created</title>
<polygon fill="#ededff" stroke="black" points="341.5,-653 226.5,-653 226.5,-617 341.5,-617 341.5,-653"/>
<text text-anchor="middle" x="284" y="-631.3" font-family="Times,serif" font-size="14.00">O_Created (2468)</text>
</g>
<!-- O_Create Offer&#45;&gt;O_Created -->
<g id="edge10" class="edge">
<title>O_Create Offer&#45;&gt;O_Created</title>
<path fill="none" stroke="#000000" stroke-width="2" d="M289.58,-703.8C288.7,-693.04 287.53,-678.88 286.49,-666.29"/>
<polygon fill="#000000" stroke="#000000" stroke-width="2" points="290,-666.17 285.69,-656.49 283.02,-666.74 290,-666.17"/>
<text text-anchor="middle" x="302" y="-674.8" font-family="Times,serif" font-size="14.00">2468</text>
</g>
<!-- O_Created&#45;&gt;O_Create Offer -->
<g id="edge32" class="edge">
<title>O_Created&#45;&gt;O_Create Offer</title>
<path fill="none" stroke="#ff0000" stroke-width="0.55" stroke-dasharray="5,2" d="M274.49,-653.12C270.31,-662.77 266.97,-675.05 270,-686 270.77,-688.78 271.83,-691.57 273.06,-694.29"/>
<polygon fill="#ff0000" stroke="#ff0000" stroke-width="0.55" points="269.91,-695.8 277.72,-702.96 276.07,-692.49 269.91,-695.8"/>
<text text-anchor="middle" x="277" y="-674.8" font-family="Times,serif" font-size="14.00">79</text>
</g>
<!-- O_Sent (mail and online) -->
<g id="node10" class="node">
<title>O_Sent (mail and online)</title>
<polygon fill="#ededff" stroke="black" points="223.5,-566 28.5,-566 28.5,-530 223.5,-530 223.5,-566"/>
<text text-anchor="middle" x="126" y="-544.3" font-family="Times,serif" font-size="14.00">O_Sent (mail and online) (2462)</text>
</g>
<!-- O_Created&#45;&gt;O_Sent (mail and online) -->
<g id="edge11" class="edge">
<title>O_Created&#45;&gt;O_Sent (mail and online)</title>
<path fill="none" stroke="#000000" stroke-width="1.95" d="M251.65,-616.59C227.89,-603.82 195.38,-586.32 169.38,-572.34"/>
<polygon fill="#000000" stroke="#000000" stroke-width="1.95" points="171.38,-569.44 160.91,-567.78 168.06,-575.6 171.38,-569.44"/>
<text text-anchor="middle" x="229" y="-587.8" font-family="Times,serif" font-size="14.00">2383</text>
</g>
<!-- O_Cancelled -->
<g id="node20" class="node">
<title>O_Cancelled</title>
<polygon fill="#fefeff" stroke="black" points="477,-218 357,-218 357,-182 477,-182 477,-218"/>
<text text-anchor="middle" x="417" y="-196.3" font-family="Times,serif" font-size="14.00">O_Cancelled (132)</text>
</g>
<!-- O_Created&#45;&gt;O_Cancelled -->
<g id="edge46" class="edge">
<title>O_Created&#45;&gt;O_Cancelled</title>
<path fill="none" stroke="#ff0000" stroke-width="0.5" stroke-dasharray="5,2" d="M284,-616.74C284,-599.57 284,-572.46 284,-549 284,-549 284,-549 284,-286 284,-252.23 314.83,-231.27 346.8,-218.62"/>
<polygon fill="#ff0000" stroke="#ff0000" stroke-width="0.5" points="347.85,-221.96 356.01,-215.22 345.42,-215.4 347.85,-221.96"/>
<text text-anchor="middle" x="287.5" y="-413.8" font-family="Times,serif" font-size="14.00">4</text>
</g>
<!-- O_Sent (online only) -->
<g id="node24" class="node">
<title>O_Sent (online only)</title>
<polygon fill="#ffffff" stroke="black" points="463.5,-566 312.5,-566 312.5,-530 463.5,-530 463.5,-566"/>
<text text-anchor="middle" x="388" y="-544.3" font-family="Times,serif" font-size="14.00">O_Sent (online only) (2)</text>
</g>
<!-- O_Created&#45;&gt;O_Sent (online only) -->
<g id="edge53" class="edge">
<title>O_Created&#45;&gt;O_Sent (online only)</title>
<path fill="none" stroke="#ff0000" stroke-width="0.5" stroke-dasharray="5,2" d="M305.3,-616.59C320.72,-603.99 341.76,-586.79 358.75,-572.9"/>
<polygon fill="#ff0000" stroke="#ff0000" stroke-width="0.5" points="360.62,-575.9 366.15,-566.86 356.19,-570.48 360.62,-575.9"/>
<text text-anchor="middle" x="346.5" y="-587.8" font-family="Times,serif" font-size="14.00">2</text>
</g>
<!-- O_Sent (mail and online)&#45;&gt;W_Complete application -->
<g id="edge12" class="edge">
<title>O_Sent (mail and online)&#45;&gt;W_Complete application</title>
<path fill="none" stroke="#000000" stroke-width="1.91" d="M138.19,-566.33C148.63,-582.9 162,-609 162,-634 162,-897 162,-897 162,-897 162,-938.53 200.29,-959.9 242.5,-970.85"/>
<polygon fill="#000000" stroke="#000000" stroke-width="1.91" points="241.43,-974.19 251.97,-973.07 243.03,-967.38 241.43,-974.19"/>
<text text-anchor="middle" x="176" y="-761.8" font-family="Times,serif" font-size="14.00">2310</text>
</g>
<!-- O_Sent (mail and online)&#45;&gt;O_Sent (mail and online) -->
<g id="edge33" class="edge">
<title>O_Sent (mail and online)&#45;&gt;O_Sent (mail and online)</title>
<path fill="none" stroke="#ff0000" stroke-width="0.55" stroke-dasharray="5,2" d="M223.74,-554.86C234.53,-553.56 241.5,-551.27 241.5,-548 241.5,-545.96 238.78,-544.3 234.1,-543.02"/>
<polygon fill="#ff0000" stroke="#ff0000" stroke-width="0.55" points="235.02,-539.63 224.56,-541.29 233.77,-546.52 235.02,-539.63"/>
<text text-anchor="middle" x="248.5" y="-544.3" font-family="Times,serif" font-size="14.00">79</text>
</g>
<!-- O_Sent (mail and online)&#45;&gt;W_Call after offers -->
<g id="edge36" class="edge">
<title>O_Sent (mail and online)&#45;&gt;W_Call after offers</title>
<path fill="none" stroke="#ff0000" stroke-width="0.54" stroke-dasharray="5,2" d="M191.12,-529.59C242.59,-515.84 314.5,-496.61 368.49,-482.18"/>
<polygon fill="#ff0000" stroke="#ff0000" stroke-width="0.54" points="369.15,-485.63 377.9,-479.67 367.34,-478.87 369.15,-485.63"/>
<text text-anchor="middle" x="312" y="-500.8" font-family="Times,serif" font-size="14.00">69</text>
</g>
<!-- O_Sent (mail and online)&#45;&gt;O_Cancelled -->
<g id="edge48" class="edge">
<title>O_Sent (mail and online)&#45;&gt;O_Cancelled</title>
<path fill="none" stroke="#ff0000" stroke-width="0.5" stroke-dasharray="5,2" d="M148,-529.6C165.13,-513.95 186,-489.28 186,-462 186,-462 186,-462 186,-286 186,-251.4 278.43,-226.56 346.36,-212.98"/>
<polygon fill="#ff0000" stroke="#ff0000" stroke-width="0.5" points="346.72,-216.48 355.86,-211.12 345.38,-209.61 346.72,-216.48"/>
<text text-anchor="middle" x="189.5" y="-370.3" font-family="Times,serif" font-size="14.00">4</text>
</g>
<!-- W_Call after offers&#45;&gt;O_Create Offer -->
<g id="edge35" class="edge">
<title>W_Call after offers&#45;&gt;O_Create Offer</title>
<path fill="none" stroke="#ff0000" stroke-width="0.54" stroke-dasharray="5,2" d="M455.91,-479.16C468.99,-500.27 486.44,-536.9 473,-566 444.79,-627.08 379.33,-672.96 335.11,-698.39"/>
<polygon fill="#ff0000" stroke="#ff0000" stroke-width="0.54" points="333.46,-695.3 326.46,-703.25 336.89,-701.4 333.46,-695.3"/>
<text text-anchor="middle" x="469" y="-587.8" font-family="Times,serif" font-size="14.00">75</text>
</g>
<!-- W_Call after offers&#45;&gt;W_Call after offers -->
<g id="edge14" class="edge">
<title>W_Call after offers&#45;&gt;W_Call after offers</title>
<path fill="none" stroke="#000000" stroke-width="6" d="M529.25,-468.1C539.95,-466.85 547,-464.48 547,-461 547,-459.91 546.31,-458.93 545.04,-458.06"/>
<polygon fill="#000000" stroke="#000000" stroke-width="6" points="546.5,-453.02 535.49,-455.54 543.82,-463.17 546.5,-453.02"/>
<text text-anchor="middle" x="561" y="-457.3" font-family="Times,serif" font-size="14.00">9034</text>
</g>
<!-- A_Complete -->
<g id="node12" class="node">
<title>A_Complete</title>
<polygon fill="#eeeeff" stroke="black" points="438,-392 312,-392 312,-356 438,-356 438,-392"/>
<text text-anchor="middle" x="375" y="-370.3" font-family="Times,serif" font-size="14.00">A_Complete (2310)</text>
</g>
<!-- W_Call after offers&#45;&gt;A_Complete -->
<g id="edge15" class="edge">
<title>W_Call after offers&#45;&gt;A_Complete</title>
<path fill="none" stroke="#000000" stroke-width="1.91" d="M391.23,-442.63C383.98,-438.02 377.5,-432.24 373,-425 369.37,-419.16 368.17,-412.14 368.26,-405.24"/>
<polygon fill="#000000" stroke="#000000" stroke-width="1.91" points="371.73,-405.64 369.37,-395.31 364.78,-404.86 371.73,-405.64"/>
<text text-anchor="middle" x="387" y="-413.8" font-family="Times,serif" font-size="14.00">2310</text>
</g>
<!-- W_Validate application -->
<g id="node13" class="node">
<title>W_Validate application</title>
<polygon fill="#ababff" stroke="black" points="910.5,-392 719.5,-392 719.5,-356 910.5,-356 910.5,-392"/>
<text text-anchor="middle" x="815" y="-370.3" font-family="Times,serif" font-size="14.00">W_Validate application (11440)</text>
</g>
<!-- W_Call after offers&#45;&gt;W_Validate application -->
<g id="edge17" class="edge">
<title>W_Call after offers&#45;&gt;W_Validate application</title>
<path fill="none" stroke="#000000" stroke-width="1.91" d="M519.97,-442.59C579.89,-428.87 663.57,-409.69 726.51,-395.27"/>
<polygon fill="#000000" stroke="#000000" stroke-width="1.91" points="727.03,-398.74 736,-393.1 725.47,-391.92 727.03,-398.74"/>
<text text-anchor="middle" x="665" y="-413.8" font-family="Times,serif" font-size="14.00">2310</text>
</g>
<!-- A_Complete&#45;&gt;W_Call after offers -->
<g id="edge16" class="edge">
<title>A_Complete&#45;&gt;W_Call after offers</title>
<path fill="none" stroke="#000000" stroke-width="1.91" d="M389.18,-392.47C398.61,-404.09 411.19,-419.59 421.92,-432.8"/>
<polygon fill="#000000" stroke="#000000" stroke-width="1.91" points="419.2,-435 428.22,-440.56 424.63,-430.59 419.2,-435"/>
<text text-anchor="middle" x="427" y="-413.8" font-family="Times,serif" font-size="14.00">2310</text>
</g>
<!-- W_Validate application&#45;&gt;W_Validate application -->
<g id="edge18" class="edge">
<title>W_Validate application&#45;&gt;W_Validate application</title>
<path fill="none" stroke="#000000" stroke-width="3.28" d="M910.64,-380.91C921.48,-379.62 928.5,-377.31 928.5,-374 928.5,-372.6 927.25,-371.38 924.99,-370.35"/>
<polygon fill="#000000" stroke="#000000" stroke-width="3.28" points="926,-366.99 915.48,-368.19 924.45,-373.81 926,-366.99"/>
<text text-anchor="middle" x="942.5" y="-370.3" font-family="Times,serif" font-size="14.00">4564</text>
</g>
<!-- A_Validating -->
<g id="node14" class="node">
<title>A_Validating</title>
<polygon fill="#eeeeff" stroke="black" points="814,-305 686,-305 686,-269 814,-269 814,-305"/>
<text text-anchor="middle" x="750" y="-283.3" font-family="Times,serif" font-size="14.00">A_Validating (2310)</text>
</g>
<!-- W_Validate application&#45;&gt;A_Validating -->
<g id="edge19" class="edge">
<title>W_Validate application&#45;&gt;A_Validating</title>
<path fill="none" stroke="#000000" stroke-width="1.91" d="M801.85,-355.8C793.01,-344.24 781.16,-328.75 771.03,-315.5"/>
<polygon fill="#000000" stroke="#000000" stroke-width="1.91" points="773.96,-313.58 765.11,-307.76 768.4,-317.83 773.96,-313.58"/>
<text text-anchor="middle" x="800" y="-326.8" font-family="Times,serif" font-size="14.00">2310</text>
</g>
<!-- O_Accepted -->
<g id="node16" class="node">
<title>O_Accepted</title>
<polygon fill="#f3f3ff" stroke="black" points="1201,-305 1077,-305 1077,-269 1201,-269 1201,-305"/>
<text text-anchor="middle" x="1139" y="-283.3" font-family="Times,serif" font-size="14.00">O_Accepted (1605)</text>
</g>
<!-- W_Validate application&#45;&gt;O_Accepted -->
<g id="edge22" class="edge">
<title>W_Validate application&#45;&gt;O_Accepted</title>
<path fill="none" stroke="#000000" stroke-width="1.44" d="M910.94,-367.06C954.85,-362.27 1007.01,-353.62 1052,-338 1070.32,-331.64 1089.16,-321.36 1104.6,-311.77"/>
<polygon fill="#000000" stroke="#000000" stroke-width="1.44" points="1106.33,-314.82 1112.86,-306.47 1102.55,-308.92 1106.33,-314.82"/>
<text text-anchor="middle" x="1098" y="-326.8" font-family="Times,serif" font-size="14.00">1551</text>
</g>
<!-- A_Denied -->
<g id="node18" class="node">
<title>A_Denied</title>
<polygon fill="#f9f9ff" stroke="black" points="1001.5,-305 896.5,-305 896.5,-269 1001.5,-269 1001.5,-305"/>
<text text-anchor="middle" x="949" y="-283.3" font-family="Times,serif" font-size="14.00">A_Denied (702)</text>
</g>
<!-- W_Validate application&#45;&gt;A_Denied -->
<g id="edge28" class="edge">
<title>W_Validate application&#45;&gt;A_Denied</title>
<path fill="none" stroke="#000000" stroke-width="0.93" d="M842.44,-355.59C862.58,-342.82 890.16,-325.32 912.21,-311.34"/>
<polygon fill="#000000" stroke="#000000" stroke-width="0.93" points="913.84,-314.45 920.41,-306.13 910.09,-308.53 913.84,-314.45"/>
<text text-anchor="middle" x="900.5" y="-326.8" font-family="Times,serif" font-size="14.00">702</text>
</g>
<!-- W_Validate application&#45;&gt;O_Cancelled -->
<g id="edge34" class="edge">
<title>W_Validate application&#45;&gt;O_Cancelled</title>
<path fill="none" stroke="#ff0000" stroke-width="0.57" stroke-dasharray="5,2" d="M719.29,-364.43C693.64,-359.25 666.74,-351.03 644,-338 608.23,-317.5 615.68,-292.78 582,-269 553.35,-248.77 517.77,-233.13 487,-221.98"/>
<polygon fill="#ff0000" stroke="#ff0000" stroke-width="0.57" points="488.18,-218.69 477.58,-218.66 485.85,-225.29 488.18,-218.69"/>
<text text-anchor="middle" x="622.5" y="-283.3" font-family="Times,serif" font-size="14.00">121</text>
</g>
<!-- W_Call incomplete files -->
<g id="node21" class="node">
<title>W_Call incomplete files</title>
<polygon fill="#fcfcff" stroke="black" points="1272,-131 1088,-131 1088,-95 1272,-95 1272,-131"/>
<text text-anchor="middle" x="1180" y="-109.3" font-family="Times,serif" font-size="14.00">W_Call incomplete files (288)</text>
</g>
<!-- W_Validate application&#45;&gt;W_Call incomplete files -->
<g id="edge39" class="edge">
<title>W_Validate application&#45;&gt;W_Call incomplete files</title>
<path fill="none" stroke="#ff0000" stroke-width="0.53" stroke-dasharray="5,2" d="M910.95,-371.32C1016.65,-367.07 1176.2,-352.69 1210,-305 1245.09,-255.5 1215.66,-180.67 1195.34,-140.97"/>
<polygon fill="#ff0000" stroke="#ff0000" stroke-width="0.53" points="1198.44,-139.34 1190.67,-132.15 1192.26,-142.62 1198.44,-139.34"/>
<text text-anchor="middle" x="1233" y="-239.8" font-family="Times,serif" font-size="14.00">54</text>
</g>
<!-- A_Cancelled -->
<g id="node23" class="node">
<title>A_Cancelled</title>
<polygon fill="#fefeff" stroke="black" points="572.5,-305 465.5,-305 465.5,-269 572.5,-269 572.5,-305"/>
<text text-anchor="middle" x="519" y="-283.3" font-family="Times,serif" font-size="14.00">A_Cancelled (3)</text>
</g>
<!-- W_Validate application&#45;&gt;A_Cancelled -->
<g id="edge50" class="edge">
<title>W_Validate application&#45;&gt;A_Cancelled</title>
<path fill="none" stroke="#ff0000" stroke-width="0.5" stroke-dasharray="5,2" d="M719.26,-368.32C677.7,-363.76 629.21,-354.94 588,-338 572.92,-331.8 558.03,-321.67 545.96,-312.14"/>
<polygon fill="#ff0000" stroke="#ff0000" stroke-width="0.5" points="548.25,-309.49 538.3,-305.85 543.81,-314.9 548.25,-309.49"/>
<text text-anchor="middle" x="591.5" y="-326.8" font-family="Times,serif" font-size="14.00">3</text>
</g>
<!-- end_node -->
<g id="node25" class="node">
<title>end_node</title>
<ellipse fill="none" stroke="black" cx="658" cy="-22" rx="18" ry="18"/>
<ellipse fill="none" stroke="black" cx="658" cy="-22" rx="22" ry="22"/>
<text text-anchor="start" x="653.5" y="-18.3" font-family="Times,serif" font-size="14.00">■</text>
</g>
<!-- W_Validate application&#45;&gt;end_node -->
<g id="edge55" class="edge">
<title>W_Validate application&#45;&gt;end_node</title>
<path fill="none" stroke="#000000" stroke-width="1.8" d="M721.86,-355.52C688.05,-343.32 658,-322.71 658,-288 658,-288 658,-288 658,-112 658,-93.71 658,-73.31 658,-56.66"/>
<polygon fill="#000000" stroke="#000000" stroke-width="1.8" points="661.5,-56.94 658,-46.94 654.5,-56.94 661.5,-56.94"/>
<text text-anchor="middle" x="672" y="-196.3" font-family="Times,serif" font-size="14.00">2135</text>
</g>
<!-- O_Returned -->
<g id="node15" class="node">
<title>O_Returned</title>
<polygon fill="#eeeeff" stroke="black" points="889,-218 767,-218 767,-182 889,-182 889,-218"/>
<text text-anchor="middle" x="828" y="-196.3" font-family="Times,serif" font-size="14.00">O_Returned (2310)</text>
</g>
<!-- A_Validating&#45;&gt;O_Returned -->
<g id="edge20" class="edge">
<title>A_Validating&#45;&gt;O_Returned</title>
<path fill="none" stroke="#000000" stroke-width="1.91" d="M765.78,-268.8C776.6,-257.01 791.17,-241.14 803.48,-227.72"/>
<polygon fill="#000000" stroke="#000000" stroke-width="1.91" points="805.84,-230.33 810.02,-220.59 800.68,-225.59 805.84,-230.33"/>
<text text-anchor="middle" x="807" y="-239.8" font-family="Times,serif" font-size="14.00">2310</text>
</g>
<!-- O_Returned&#45;&gt;W_Validate application -->
<g id="edge21" class="edge">
<title>O_Returned&#45;&gt;W_Validate application</title>
<path fill="none" stroke="#000000" stroke-width="1.91" d="M827.53,-218.32C826.89,-238.98 825.52,-274.55 823,-305 821.96,-317.57 820.41,-331.39 818.95,-343.28"/>
<polygon fill="#000000" stroke="#000000" stroke-width="1.91" points="815.52,-342.48 817.73,-352.84 822.47,-343.36 815.52,-342.48"/>
<text text-anchor="middle" x="839" y="-283.3" font-family="Times,serif" font-size="14.00">2310</text>
</g>
<!-- A_Pending -->
<g id="node17" class="node">
<title>A_Pending</title>
<polygon fill="#f3f3ff" stroke="black" points="1363.5,-218 1246.5,-218 1246.5,-182 1363.5,-182 1363.5,-218"/>
<text text-anchor="middle" x="1305" y="-196.3" font-family="Times,serif" font-size="14.00">A_Pending (1605)</text>
</g>
<!-- O_Accepted&#45;&gt;A_Pending -->
<g id="edge23" class="edge">
<title>O_Accepted&#45;&gt;A_Pending</title>
<path fill="none" stroke="#000000" stroke-width="1.48" d="M1148.47,-268.82C1155.32,-257.9 1165.55,-244.31 1178,-236 1194.7,-224.85 1214.88,-217.24 1234.19,-212.04"/>
<polygon fill="#000000" stroke="#000000" stroke-width="1.48" points="1235.02,-215.44 1243.89,-209.64 1233.34,-208.64 1235.02,-215.44"/>
<text text-anchor="middle" x="1192" y="-239.8" font-family="Times,serif" font-size="14.00">1605</text>
</g>
<!-- A_Pending&#45;&gt;W_Validate application -->
<g id="edge24" class="edge">
<title>A_Pending&#45;&gt;W_Validate application</title>
<path fill="none" stroke="#000000" stroke-width="1.44" d="M1302.77,-218.4C1297.91,-248.45 1283.34,-309.58 1243,-338 1217.4,-356.03 1041.12,-365.47 922.92,-369.83"/>
<polygon fill="#000000" stroke="#000000" stroke-width="1.44" points="923.01,-366.32 913.14,-370.18 923.26,-373.32 923.01,-366.32"/>
<text text-anchor="middle" x="1303" y="-283.3" font-family="Times,serif" font-size="14.00">1551</text>
</g>
<!-- A_Pending&#45;&gt;W_Call incomplete files -->
<g id="edge44" class="edge">
<title>A_Pending&#45;&gt;W_Call incomplete files</title>
<path fill="none" stroke="#ff0000" stroke-width="0.53" stroke-dasharray="5,2" d="M1279.7,-181.59C1265.66,-171.96 1247.89,-159.79 1232,-149 1226.45,-145.23 1220.55,-141.24 1214.8,-137.36"/>
<polygon fill="#ff0000" stroke="#ff0000" stroke-width="0.53" points="1216.87,-134.54 1206.62,-131.85 1212.96,-140.34 1216.87,-134.54"/>
<text text-anchor="middle" x="1259" y="-152.8" font-family="Times,serif" font-size="14.00">54</text>
</g>
<!-- O_Refused -->
<g id="node19" class="node">
<title>O_Refused</title>
<polygon fill="#f9f9ff" stroke="black" points="1043,-218 933,-218 933,-182 1043,-182 1043,-218"/>
<text text-anchor="middle" x="988" y="-196.3" font-family="Times,serif" font-size="14.00">O_Refused (731)</text>
</g>
<!-- A_Denied&#45;&gt;O_Refused -->
<g id="edge29" class="edge">
<title>A_Denied&#45;&gt;O_Refused</title>
<path fill="none" stroke="#000000" stroke-width="0.93" d="M956.89,-268.8C962.2,-257.24 969.3,-241.75 975.38,-228.5"/>
<polygon fill="#000000" stroke="#000000" stroke-width="0.93" points="978.41,-230.29 979.4,-219.74 972.05,-227.37 978.41,-230.29"/>
<text text-anchor="middle" x="980.5" y="-239.8" font-family="Times,serif" font-size="14.00">702</text>
</g>
<!-- O_Refused&#45;&gt;W_Validate application -->
<g id="edge30" class="edge">
<title>O_Refused&#45;&gt;W_Validate application</title>
<path fill="none" stroke="#000000" stroke-width="0.93" d="M999.53,-218.49C1012.52,-240.6 1029.55,-278.93 1011,-305 990.14,-334.32 955.7,-351.11 921.47,-360.69"/>
<polygon fill="#000000" stroke="#000000" stroke-width="0.93" points="921.03,-357.19 912.22,-363.08 922.78,-363.97 921.03,-357.19"/>
<text text-anchor="middle" x="1029.5" y="-283.3" font-family="Times,serif" font-size="14.00">702</text>
</g>
<!-- O_Refused&#45;&gt;O_Refused -->
<g id="edge45" class="edge">
<title>O_Refused&#45;&gt;O_Refused</title>
<path fill="none" stroke="#ff0000" stroke-width="0.52" stroke-dasharray="5,2" d="M1043.39,-207.74C1053.72,-206.78 1061,-204.21 1061,-200 1061,-197.44 1058.3,-195.48 1053.85,-194.12"/>
<polygon fill="#ff0000" stroke="#ff0000" stroke-width="0.52" points="1054.62,-190.71 1044.16,-192.4 1053.39,-197.6 1054.62,-190.71"/>
<text text-anchor="middle" x="1068" y="-196.3" font-family="Times,serif" font-size="14.00">29</text>
</g>
<!-- O_Cancelled&#45;&gt;O_Create Offer -->
<g id="edge47" class="edge">
<title>O_Cancelled&#45;&gt;O_Create Offer</title>
<path fill="none" stroke="#ff0000" stroke-width="0.5" stroke-dasharray="5,2" d="M356.81,-200.91C241.33,-202.38 0,-214.05 0,-286 0,-636 0,-636 0,-636 0,-679.89 123.53,-702.67 209.62,-713.22"/>
<polygon fill="#ff0000" stroke="#ff0000" stroke-width="0.5" points="209.09,-716.68 219.43,-714.39 209.92,-709.73 209.09,-716.68"/>
<text text-anchor="middle" x="3.5" y="-457.3" font-family="Times,serif" font-size="14.00">4</text>
</g>
<!-- O_Cancelled&#45;&gt;W_Call after offers -->
<g id="edge49" class="edge">
<title>O_Cancelled&#45;&gt;W_Call after offers</title>
<path fill="none" stroke="#ff0000" stroke-width="0.5" stroke-dasharray="5,2" d="M415.35,-218.14C414.67,-227.8 414.2,-240.08 415,-251 416.78,-275.2 415.98,-281.78 423,-305 430.25,-328.98 441.54,-331.55 447,-356 450.49,-371.61 447.35,-376 447,-392 446.71,-405.21 446.1,-419.84 445.51,-432.15"/>
<polygon fill="#ff0000" stroke="#ff0000" stroke-width="0.5" points="442.02,-431.76 445.01,-441.92 449.01,-432.11 442.02,-431.76"/>
<text text-anchor="middle" x="443.5" y="-326.8" font-family="Times,serif" font-size="14.00">4</text>
</g>
<!-- O_Cancelled&#45;&gt;W_Validate application -->
<g id="edge52" class="edge">
<title>O_Cancelled&#45;&gt;W_Validate application</title>
<path fill="none" stroke="#ff0000" stroke-width="0.5" stroke-dasharray="5,2" d="M417.53,-218.24C419.17,-241.16 425.47,-281.51 449,-305 484.82,-340.75 613.82,-358.21 708.56,-366.38"/>
<polygon fill="#ff0000" stroke="#ff0000" stroke-width="0.5" points="708.06,-369.85 718.31,-367.19 708.64,-362.87 708.06,-369.85"/>
<text text-anchor="middle" x="452.5" y="-283.3" font-family="Times,serif" font-size="14.00">3</text>
</g>
<!-- O_Cancelled&#45;&gt;end_node -->
<g id="edge56" class="edge">
<title>O_Cancelled&#45;&gt;end_node</title>
<path fill="none" stroke="#ff0000" stroke-width="0.57" stroke-dasharray="5,2" d="M440.55,-181.8C485.74,-148.8 584.34,-76.79 631.65,-42.24"/>
<polygon fill="#ff0000" stroke="#ff0000" stroke-width="0.57" points="633.69,-45.09 639.7,-36.37 629.56,-39.44 633.69,-45.09"/>
<text text-anchor="middle" x="567.5" y="-109.3" font-family="Times,serif" font-size="14.00">121</text>
</g>
<!-- W_Call incomplete files&#45;&gt;O_Accepted -->
<g id="edge43" class="edge">
<title>W_Call incomplete files&#45;&gt;O_Accepted</title>
<path fill="none" stroke="#ff0000" stroke-width="0.53" stroke-dasharray="5,2" d="M1175.83,-131.48C1168.7,-161.39 1154.11,-222.6 1145.59,-258.35"/>
<polygon fill="#ff0000" stroke="#ff0000" stroke-width="0.53" points="1142.26,-257.24 1143.34,-267.78 1149.07,-258.86 1142.26,-257.24"/>
<text text-anchor="middle" x="1170" y="-196.3" font-family="Times,serif" font-size="14.00">54</text>
</g>
<!-- W_Call incomplete files&#45;&gt;W_Call incomplete files -->
<g id="edge40" class="edge">
<title>W_Call incomplete files&#45;&gt;W_Call incomplete files</title>
<path fill="none" stroke="#ff0000" stroke-width="0.58" stroke-dasharray="5,2" d="M1272.28,-119.96C1283.02,-118.68 1290,-116.36 1290,-113 1290,-110.95 1287.41,-109.29 1282.95,-108.02"/>
<polygon fill="#ff0000" stroke="#ff0000" stroke-width="0.58" points="1283.61,-104.58 1273.14,-106.2 1282.33,-111.46 1283.61,-104.58"/>
<text text-anchor="middle" x="1300.5" y="-109.3" font-family="Times,serif" font-size="14.00">126</text>
</g>
<!-- A_Incomplete -->
<g id="node22" class="node">
<title>A_Incomplete</title>
<polygon fill="#fefeff" stroke="black" points="1239.5,-40 1118.5,-40 1118.5,-4 1239.5,-4 1239.5,-40"/>
<text text-anchor="middle" x="1179" y="-18.3" font-family="Times,serif" font-size="14.00">A_Incomplete (54)</text>
</g>
<!-- W_Call incomplete files&#45;&gt;A_Incomplete -->
<g id="edge41" class="edge">
<title>W_Call incomplete files&#45;&gt;A_Incomplete</title>
<path fill="none" stroke="#ff0000" stroke-width="0.53" stroke-dasharray="5,2" d="M1179.81,-94.84C1179.67,-82.48 1179.48,-65.54 1179.32,-51.21"/>
<polygon fill="#ff0000" stroke="#ff0000" stroke-width="0.53" points="1182.82,-51.18 1179.2,-41.22 1175.82,-51.25 1182.82,-51.18"/>
<text text-anchor="middle" x="1186" y="-65.8" font-family="Times,serif" font-size="14.00">54</text>
</g>
<!-- W_Call incomplete files&#45;&gt;end_node -->
<g id="edge57" class="edge">
<title>W_Call incomplete files&#45;&gt;end_node</title>
<path fill="none" stroke="#ff0000" stroke-width="0.53" stroke-dasharray="5,2" d="M1087.58,-96.24C968.68,-75.97 768.2,-41.79 690.31,-28.51"/>
<polygon fill="#ff0000" stroke="#ff0000" stroke-width="0.53" points="690.97,-25.07 680.52,-26.84 689.79,-31.97 690.97,-25.07"/>
<text text-anchor="middle" x="972" y="-65.8" font-family="Times,serif" font-size="14.00">54</text>
</g>
<!-- A_Incomplete&#45;&gt;W_Call incomplete files -->
<g id="edge42" class="edge">
<title>A_Incomplete&#45;&gt;W_Call incomplete files</title>
<path fill="none" stroke="#ff0000" stroke-width="0.53" stroke-dasharray="5,2" d="M1167.91,-40.32C1162.53,-50.82 1157.84,-64.55 1161,-77 1161.67,-79.64 1162.58,-82.29 1163.65,-84.9"/>
<polygon fill="#ff0000" stroke="#ff0000" stroke-width="0.53" points="1160.46,-86.35 1167.97,-93.82 1166.76,-83.29 1160.46,-86.35"/>
<text text-anchor="middle" x="1168" y="-65.8" font-family="Times,serif" font-size="14.00">54</text>
</g>
<!-- A_Cancelled&#45;&gt;O_Cancelled -->
<g id="edge51" class="edge">
<title>A_Cancelled&#45;&gt;O_Cancelled</title>
<path fill="none" stroke="#ff0000" stroke-width="0.5" stroke-dasharray="5,2" d="M498.36,-268.8C483.25,-256.21 462.55,-238.96 445.82,-225.01"/>
<polygon fill="#ff0000" stroke="#ff0000" stroke-width="0.5" points="448.47,-222.67 438.54,-218.95 443.98,-228.04 448.47,-222.67"/>
<text text-anchor="middle" x="477.5" y="-239.8" font-family="Times,serif" font-size="14.00">3</text>
</g>
<!-- O_Sent (online only)&#45;&gt;W_Call after offers -->
<g id="edge54" class="edge">
<title>O_Sent (online only)&#45;&gt;W_Call after offers</title>
<path fill="none" stroke="#ff0000" stroke-width="0.5" stroke-dasharray="5,2" d="M399.33,-529.8C407.17,-517.9 417.76,-501.83 426.66,-488.32"/>
<polygon fill="#ff0000" stroke="#ff0000" stroke-width="0.5" points="429.5,-490.38 432.08,-480.1 423.65,-486.52 429.5,-490.38"/>
<text text-anchor="middle" x="422.5" y="-500.8" font-family="Times,serif" font-size="14.00">2</text>
</g>
</g>
</svg>
