<?xml version="1.0" encoding="UTF-8" standalone="no"?>
<!DOCTYPE svg PUBLIC "-//W3C//DTD SVG 1.1//EN"
 "http://www.w3.org/Graphics/SVG/1.1/DTD/svg11.dtd">
<!-- Generated by graphviz version 7.0.5 (0)
 -->
<!-- Title: dfg Pages: 1 -->
<svg width="569pt" height="661pt"
 viewBox="0.00 0.00 568.50 661.00" xmlns="http://www.w3.org/2000/svg" xmlns:xlink="http://www.w3.org/1999/xlink">
<g id="graph0" class="graph" transform="scale(1 1) rotate(0) translate(4 657)">
<title>dfg</title>
<polygon fill="white" stroke="none" points="-4,4 -4,-657 564.5,-657 564.5,4 -4,4"/>
<!-- start_node -->
<g id="node1" class="node">
<title>start_node</title>
<ellipse fill="none" stroke="black" cx="332.5" cy="-635" rx="18" ry="18"/>
<text text-anchor="start" x="328" y="-631.3" font-family="Times,serif" font-size="14.00">●</text>
</g>
<!-- A_Create Application -->
<g id="node2" class="node">
<title>A_Create Application</title>
<polygon fill="#ffffff" stroke="black" points="416.5,-566 248.5,-566 248.5,-530 416.5,-530 416.5,-566"/>
<text text-anchor="middle" x="332.5" y="-544.3" font-family="Times,serif" font-size="14.00">A_Create Application (347)</text>
</g>
<!-- start_node&#45;&gt;A_Create Application -->
<g id="edge1" class="edge">
<title>start_node&#45;&gt;A_Create Application</title>
<path fill="none" stroke="#000000" stroke-width="2.13" d="M332.5,-616.8C332.5,-606.15 332.5,-592.18 332.5,-579.69"/>
<polygon fill="#000000" stroke="#000000" stroke-width="2.13" points="336,-579.69 332.5,-569.69 329,-579.69 336,-579.69"/>
<text text-anchor="middle" x="343" y="-587.8" font-family="Times,serif" font-size="14.00">347</text>
</g>
<!-- W_Complete application -->
<g id="node3" class="node">
<title>W_Complete application</title>
<polygon fill="#d8d8ff" stroke="black" points="429.5,-479 235.5,-479 235.5,-443 429.5,-443 429.5,-479"/>
<text text-anchor="middle" x="332.5" y="-457.3" font-family="Times,serif" font-size="14.00">W_Complete application (1041)</text>
</g>
<!-- A_Create Application&#45;&gt;W_Complete application -->
<g id="edge2" class="edge">
<title>A_Create Application&#45;&gt;W_Complete application</title>
<path fill="none" stroke="#000000" stroke-width="2.13" d="M332.5,-529.8C332.5,-519.15 332.5,-505.18 332.5,-492.69"/>
<polygon fill="#000000" stroke="#000000" stroke-width="2.13" points="336,-492.69 332.5,-482.69 329,-492.69 336,-492.69"/>
<text text-anchor="middle" x="343" y="-500.8" font-family="Times,serif" font-size="14.00">347</text>
</g>
<!-- W_Complete application&#45;&gt;W_Complete application -->
<g id="edge3" class="edge">
<title>W_Complete application&#45;&gt;W_Complete application</title>
<path fill="none" stroke="#000000" stroke-width="2.13" d="M429.82,-467.86C440.56,-466.56 447.5,-464.27 447.5,-461 447.5,-459.36 445.77,-457.97 442.69,-456.83"/>
<polygon fill="#000000" stroke="#000000" stroke-width="2.13" points="443.48,-453.42 432.98,-454.8 442.05,-460.27 443.48,-453.42"/>
<text text-anchor="middle" x="458" y="-457.3" font-family="Times,serif" font-size="14.00">347</text>
</g>
<!-- A_Concept -->
<g id="node4" class="node">
<title>A_Concept</title>
<polygon fill="#ffffff" stroke="black" points="220,-392 109,-392 109,-356 220,-356 220,-392"/>
<text text-anchor="middle" x="164.5" y="-370.3" font-family="Times,serif" font-size="14.00">A_Concept (347)</text>
</g>
<!-- W_Complete application&#45;&gt;A_Concept -->
<g id="edge4" class="edge">
<title>W_Complete application&#45;&gt;A_Concept</title>
<path fill="none" stroke="#000000" stroke-width="2.13" d="M298.1,-442.59C272.84,-429.82 238.27,-412.32 210.62,-398.34"/>
<polygon fill="#000000" stroke="#000000" stroke-width="2.13" points="212.24,-395.23 201.73,-393.84 209.08,-401.48 212.24,-395.23"/>
<text text-anchor="middle" x="270" y="-413.8" font-family="Times,serif" font-size="14.00">347</text>
</g>
<!-- W_Call after offers -->
<g id="node9" class="node">
<title>W_Call after offers</title>
<polygon fill="#9b9bff" stroke="black" points="414,-392 251,-392 251,-356 414,-356 414,-392"/>
<text text-anchor="middle" x="332.5" y="-370.3" font-family="Times,serif" font-size="14.00">W_Call after offers (2136)</text>
</g>
<!-- W_Complete application&#45;&gt;W_Call after offers -->
<g id="edge10" class="edge">
<title>W_Complete application&#45;&gt;W_Call after offers</title>
<path fill="none" stroke="#000000" stroke-width="2.13" d="M332.5,-442.8C332.5,-432.15 332.5,-418.18 332.5,-405.69"/>
<polygon fill="#000000" stroke="#000000" stroke-width="2.13" points="336,-405.69 332.5,-395.69 329,-405.69 336,-405.69"/>
<text text-anchor="middle" x="343" y="-413.8" font-family="Times,serif" font-size="14.00">347</text>
</g>
<!-- A_Accepted -->
<g id="node5" class="node">
<title>A_Accepted</title>
<polygon fill="#ffffff" stroke="black" points="117,-301 0,-301 0,-265 117,-265 117,-301"/>
<text text-anchor="middle" x="58.5" y="-279.3" font-family="Times,serif" font-size="14.00">A_Accepted (347)</text>
</g>
<!-- A_Concept&#45;&gt;A_Accepted -->
<g id="edge5" class="edge">
<title>A_Concept&#45;&gt;A_Accepted</title>
<path fill="none" stroke="#000000" stroke-width="2.13" d="M143.81,-355.63C128.2,-342.52 106.53,-324.33 88.95,-309.56"/>
<polygon fill="#000000" stroke="#000000" stroke-width="2.13" points="91.52,-307.15 81.61,-303.4 87.01,-312.51 91.52,-307.15"/>
<text text-anchor="middle" x="132" y="-326.8" font-family="Times,serif" font-size="14.00">347</text>
</g>
<!-- O_Create Offer -->
<g id="node6" class="node">
<title>O_Create Offer</title>
<polygon fill="#fdfdff" stroke="black" points="260.5,-210 126.5,-210 126.5,-174 260.5,-174 260.5,-210"/>
<text text-anchor="middle" x="193.5" y="-188.3" font-family="Times,serif" font-size="14.00">O_Create Offer (379)</text>
</g>
<!-- A_Accepted&#45;&gt;O_Create Offer -->
<g id="edge6" class="edge">
<title>A_Accepted&#45;&gt;O_Create Offer</title>
<path fill="none" stroke="#000000" stroke-width="2.13" d="M84.85,-264.63C105.2,-251.21 133.62,-232.48 156.29,-217.53"/>
<polygon fill="#000000" stroke="#000000" stroke-width="2.13" points="158.1,-220.53 164.53,-212.1 154.25,-214.68 158.1,-220.53"/>
<text text-anchor="middle" x="149" y="-231.8" font-family="Times,serif" font-size="14.00">347</text>
</g>
<!-- O_Created -->
<g id="node7" class="node">
<title>O_Created</title>
<polygon fill="#fdfdff" stroke="black" points="291.5,-123 183.5,-123 183.5,-87 291.5,-87 291.5,-123"/>
<text text-anchor="middle" x="237.5" y="-101.3" font-family="Times,serif" font-size="14.00">O_Created (379)</text>
</g>
<!-- O_Create Offer&#45;&gt;O_Created -->
<g id="edge7" class="edge">
<title>O_Create Offer&#45;&gt;O_Created</title>
<path fill="none" stroke="#000000" stroke-width="2.3" d="M190.39,-173.96C189.37,-163.88 189.55,-151.14 194.5,-141 195.89,-138.15 197.63,-135.46 199.61,-132.93"/>
<polygon fill="#000000" stroke="#000000" stroke-width="2.3" points="201.94,-135.55 206.4,-125.94 196.92,-130.68 201.94,-135.55"/>
<text text-anchor="middle" x="205" y="-144.8" font-family="Times,serif" font-size="14.00">379</text>
</g>
<!-- O_Created&#45;&gt;O_Create Offer -->
<g id="edge17" class="edge">
<title>O_Created&#45;&gt;O_Create Offer</title>
<path fill="none" stroke="#ff0000" stroke-width="0.5" stroke-dasharray="5,2" d="M230.58,-123.42C226.52,-133.17 221.1,-145.44 215.5,-156 213.97,-158.89 212.29,-161.85 210.55,-164.78"/>
<polygon fill="#ff0000" stroke="#ff0000" stroke-width="0.5" points="207.63,-162.85 205.38,-173.21 213.59,-166.52 207.63,-162.85"/>
<text text-anchor="middle" x="230.5" y="-144.8" font-family="Times,serif" font-size="14.00">32</text>
</g>
<!-- O_Sent (mail and online) -->
<g id="node8" class="node">
<title>O_Sent (mail and online)</title>
<polygon fill="#fdfdff" stroke="black" points="482.5,-36 294.5,-36 294.5,0 482.5,0 482.5,-36"/>
<text text-anchor="middle" x="388.5" y="-14.3" font-family="Times,serif" font-size="14.00">O_Sent (mail and online) (379)</text>
</g>
<!-- O_Created&#45;&gt;O_Sent (mail and online) -->
<g id="edge8" class="edge">
<title>O_Created&#45;&gt;O_Sent (mail and online)</title>
<path fill="none" stroke="#000000" stroke-width="2.13" d="M268.42,-86.59C290.92,-73.93 321.64,-56.64 346.37,-42.71"/>
<polygon fill="#000000" stroke="#000000" stroke-width="2.13" points="347.81,-45.92 354.81,-37.96 344.38,-39.82 347.81,-45.92"/>
<text text-anchor="middle" x="333" y="-57.8" font-family="Times,serif" font-size="14.00">347</text>
</g>
<!-- O_Sent (mail and online)&#45;&gt;W_Complete application -->
<g id="edge9" class="edge">
<title>O_Sent (mail and online)&#45;&gt;W_Complete application</title>
<path fill="none" stroke="#000000" stroke-width="2.13" d="M475.46,-36.47C509.03,-48.74 539.5,-69.4 539.5,-104 539.5,-375 539.5,-375 539.5,-375 539.5,-422.53 492.22,-444.05 442.85,-453.55"/>
<polygon fill="#000000" stroke="#000000" stroke-width="2.13" points="442.38,-450.08 433.12,-455.23 443.56,-456.98 442.38,-450.08"/>
<text text-anchor="middle" x="550" y="-231.8" font-family="Times,serif" font-size="14.00">347</text>
</g>
<!-- O_Sent (mail and online)&#45;&gt;O_Sent (mail and online) -->
<g id="edge18" class="edge">
<title>O_Sent (mail and online)&#45;&gt;O_Sent (mail and online)</title>
<path fill="none" stroke="#ff0000" stroke-width="0.5" stroke-dasharray="5,2" d="M482.87,-24.91C493.57,-23.62 500.5,-21.31 500.5,-18 500.5,-15.93 497.79,-14.25 493.15,-12.97"/>
<polygon fill="#ff0000" stroke="#ff0000" stroke-width="0.5" points="494.08,-9.58 483.62,-11.22 492.82,-16.47 494.08,-9.58"/>
<text text-anchor="middle" x="507.5" y="-14.3" font-family="Times,serif" font-size="14.00">32</text>
</g>
<!-- W_Call after offers&#45;&gt;W_Call after offers -->
<g id="edge11" class="edge">
<title>W_Call after offers&#45;&gt;W_Call after offers</title>
<path fill="none" stroke="#000000" stroke-width="6" d="M414.47,-381.15C425.03,-379.91 432,-377.53 432,-374 432,-372.9 431.32,-371.91 430.06,-371.03"/>
<polygon fill="#000000" stroke="#000000" stroke-width="6" points="431.72,-366.04 420.71,-368.52 429.01,-376.18 431.72,-366.04"/>
<text text-anchor="middle" x="446" y="-370.3" font-family="Times,serif" font-size="14.00">1095</text>
</g>
<!-- A_Complete -->
<g id="node10" class="node">
<title>A_Complete</title>
<polygon fill="#ffffff" stroke="black" points="254,-301 135,-301 135,-265 254,-265 254,-301"/>
<text text-anchor="middle" x="194.5" y="-279.3" font-family="Times,serif" font-size="14.00">A_Complete (347)</text>
</g>
<!-- W_Call after offers&#45;&gt;A_Complete -->
<g id="edge12" class="edge">
<title>W_Call after offers&#45;&gt;A_Complete</title>
<path fill="none" stroke="#000000" stroke-width="2.13" d="M250.61,-356.19C239.71,-351.54 229.29,-345.59 220.5,-338 213.01,-331.53 207.49,-322.41 203.52,-313.5"/>
<polygon fill="#000000" stroke="#000000" stroke-width="2.13" points="206.87,-312.46 200.04,-304.36 200.33,-314.95 206.87,-312.46"/>
<text text-anchor="middle" x="231" y="-326.8" font-family="Times,serif" font-size="14.00">347</text>
</g>
<!-- A_Cancelled -->
<g id="node11" class="node">
<title>A_Cancelled</title>
<polygon fill="#ffffff" stroke="black" points="392.5,-301 272.5,-301 272.5,-265 392.5,-265 392.5,-301"/>
<text text-anchor="middle" x="332.5" y="-279.3" font-family="Times,serif" font-size="14.00">A_Cancelled (347)</text>
</g>
<!-- W_Call after offers&#45;&gt;A_Cancelled -->
<g id="edge14" class="edge">
<title>W_Call after offers&#45;&gt;A_Cancelled</title>
<path fill="none" stroke="#000000" stroke-width="2.13" d="M332.5,-355.84C332.5,-344.1 332.5,-328.2 332.5,-314.35"/>
<polygon fill="#000000" stroke="#000000" stroke-width="2.13" points="336,-314.63 332.5,-304.63 329,-314.63 336,-314.63"/>
<text text-anchor="middle" x="343" y="-326.8" font-family="Times,serif" font-size="14.00">347</text>
</g>
<!-- end_node -->
<g id="node13" class="node">
<title>end_node</title>
<ellipse fill="none" stroke="black" cx="432.5" cy="-283" rx="18" ry="18"/>
<ellipse fill="none" stroke="black" cx="432.5" cy="-283" rx="22" ry="22"/>
<text text-anchor="start" x="428" y="-279.3" font-family="Times,serif" font-size="14.00">■</text>
</g>
<!-- W_Call after offers&#45;&gt;end_node -->
<g id="edge20" class="edge">
<title>W_Call after offers&#45;&gt;end_node</title>
<path fill="none" stroke="#000000" stroke-width="2.13" d="M351.78,-355.84C367.44,-341.91 389.66,-322.13 406.82,-306.86"/>
<polygon fill="#000000" stroke="#000000" stroke-width="2.13" points="408.7,-309.87 413.84,-300.6 404.05,-304.64 408.7,-309.87"/>
<text text-anchor="middle" x="399" y="-326.8" font-family="Times,serif" font-size="14.00">347</text>
</g>
<!-- A_Complete&#45;&gt;W_Call after offers -->
<g id="edge13" class="edge">
<title>A_Complete&#45;&gt;W_Call after offers</title>
<path fill="none" stroke="#000000" stroke-width="2.13" d="M221.37,-301.33C242.25,-314.79 271.46,-333.64 294.7,-348.62"/>
<polygon fill="#000000" stroke="#000000" stroke-width="2.13" points="292.55,-351.4 302.86,-353.88 296.35,-345.52 292.55,-351.4"/>
<text text-anchor="middle" x="287" y="-326.8" font-family="Times,serif" font-size="14.00">347</text>
</g>
<!-- O_Cancelled -->
<g id="node12" class="node">
<title>O_Cancelled</title>
<polygon fill="#fdfdff" stroke="black" points="452.5,-210 332.5,-210 332.5,-174 452.5,-174 452.5,-210"/>
<text text-anchor="middle" x="392.5" y="-188.3" font-family="Times,serif" font-size="14.00">O_Cancelled (379)</text>
</g>
<!-- A_Cancelled&#45;&gt;O_Cancelled -->
<g id="edge15" class="edge">
<title>A_Cancelled&#45;&gt;O_Cancelled</title>
<path fill="none" stroke="#000000" stroke-width="2.13" d="M344.07,-264.84C352.4,-252.48 363.82,-235.54 373.48,-221.21"/>
<polygon fill="#000000" stroke="#000000" stroke-width="2.13" points="376.27,-223.33 378.96,-213.08 370.47,-219.42 376.27,-223.33"/>
<text text-anchor="middle" x="379" y="-231.8" font-family="Times,serif" font-size="14.00">347</text>
</g>
<!-- O_Cancelled&#45;&gt;W_Call after offers -->
<g id="edge16" class="edge">
<title>O_Cancelled&#45;&gt;W_Call after offers</title>
<path fill="none" stroke="#000000" stroke-width="2.13" d="M419.39,-210.28C435.49,-222.32 454.52,-239.97 463.5,-261 471.18,-278.99 472.77,-287.78 463.5,-305 452.49,-325.47 432.83,-339.97 412.04,-350.16"/>
<polygon fill="#000000" stroke="#000000" stroke-width="2.13" points="410.71,-346.92 403.02,-354.21 413.57,-353.31 410.71,-346.92"/>
<text text-anchor="middle" x="480" y="-279.3" font-family="Times,serif" font-size="14.00">347</text>
</g>
<!-- O_Cancelled&#45;&gt;O_Cancelled -->
<g id="edge19" class="edge">
<title>O_Cancelled&#45;&gt;O_Cancelled</title>
<path fill="none" stroke="#ff0000" stroke-width="0.5" stroke-dasharray="5,2" d="M452.68,-199.65C463.19,-198.63 470.5,-196.08 470.5,-192 470.5,-189.45 467.64,-187.5 462.93,-186.15"/>
<polygon fill="#ff0000" stroke="#ff0000" stroke-width="0.5" points="463.87,-182.76 453.42,-184.48 462.67,-189.65 463.87,-182.76"/>
<text text-anchor="middle" x="477.5" y="-188.3" font-family="Times,serif" font-size="14.00">32</text>
</g>
</g>
</svg>
