<?xml version="1.0" encoding="UTF-8" standalone="no"?>
<!DOCTYPE svg PUBLIC "-//W3C//DTD SVG 1.1//EN"
 "http://www.w3.org/Graphics/SVG/1.1/DTD/svg11.dtd">
<!-- Generated by graphviz version 7.0.5 (0)
 -->
<!-- Title: dfg Pages: 1 -->
<svg width="481pt" height="1183pt"
 viewBox="0.00 0.00 481.00 1183.00" xmlns="http://www.w3.org/2000/svg" xmlns:xlink="http://www.w3.org/1999/xlink">
<g id="graph0" class="graph" transform="scale(1 1) rotate(0) translate(4 1179)">
<title>dfg</title>
<polygon fill="white" stroke="none" points="-4,4 -4,-1179 477,-1179 477,4 -4,4"/>
<!-- start_node -->
<g id="node1" class="node">
<title>start_node</title>
<ellipse fill="none" stroke="black" cx="179" cy="-1157" rx="18" ry="18"/>
<text text-anchor="start" x="174.5" y="-1153.3" font-family="Times,serif" font-size="14.00">●</text>
</g>
<!-- A_Create Application -->
<g id="node2" class="node">
<title>A_Create Application</title>
<polygon fill="#f9f9ff" stroke="black" points="263,-1088 95,-1088 95,-1052 263,-1052 263,-1088"/>
<text text-anchor="middle" x="179" y="-1066.3" font-family="Times,serif" font-size="14.00">A_Create Application (537)</text>
</g>
<!-- start_node&#45;&gt;A_Create Application -->
<g id="edge1" class="edge">
<title>start_node&#45;&gt;A_Create Application</title>
<path fill="none" stroke="#000000" stroke-width="2.32" d="M179,-1138.8C179,-1128.15 179,-1114.18 179,-1101.69"/>
<polygon fill="#000000" stroke="#000000" stroke-width="2.32" points="182.5,-1101.98 179,-1091.98 175.5,-1101.98 182.5,-1101.98"/>
<text text-anchor="middle" x="189.5" y="-1109.8" font-family="Times,serif" font-size="14.00">537</text>
</g>
<!-- W_Complete application -->
<g id="node3" class="node">
<title>W_Complete application</title>
<polygon fill="#babaff" stroke="black" points="374,-827 180,-827 180,-791 374,-791 374,-827"/>
<text text-anchor="middle" x="277" y="-805.3" font-family="Times,serif" font-size="14.00">W_Complete application (2311)</text>
</g>
<!-- A_Create Application&#45;&gt;W_Complete application -->
<g id="edge2" class="edge">
<title>A_Create Application&#45;&gt;W_Complete application</title>
<path fill="none" stroke="#000000" stroke-width="0.9" d="M176.65,-1051.72C172.71,-1016.71 167.94,-935.8 198,-878 207.13,-860.45 222.86,-845.49 237.9,-834.11"/>
<polygon fill="#000000" stroke="#000000" stroke-width="0.9" points="239.93,-836.96 246.01,-828.28 235.85,-831.27 239.93,-836.96"/>
<text text-anchor="middle" x="190.5" y="-935.8" font-family="Times,serif" font-size="14.00">119</text>
</g>
<!-- A_Concept -->
<g id="node4" class="node">
<title>A_Concept</title>
<polygon fill="#f9f9ff" stroke="black" points="266.5,-740 155.5,-740 155.5,-704 266.5,-704 266.5,-740"/>
<text text-anchor="middle" x="211" y="-718.3" font-family="Times,serif" font-size="14.00">A_Concept (537)</text>
</g>
<!-- A_Create Application&#45;&gt;A_Concept -->
<g id="edge23" class="edge">
<title>A_Create Application&#45;&gt;A_Concept</title>
<path fill="none" stroke="#ff0000" stroke-width="0.63" stroke-dasharray="5,2" d="M146.52,-1051.59C123.99,-1036.9 98,-1013.56 98,-984 98,-984 98,-984 98,-808 98,-778.92 122.19,-758.55 148.19,-745.06"/>
<polygon fill="#ff0000" stroke="#ff0000" stroke-width="0.63" points="149.48,-748.33 156.95,-740.82 146.42,-742.03 149.48,-748.33"/>
<text text-anchor="middle" x="105" y="-892.3" font-family="Times,serif" font-size="14.00">42</text>
</g>
<!-- A_Submitted -->
<g id="node13" class="node">
<title>A_Submitted</title>
<polygon fill="#ffffff" stroke="black" points="333,-1001 211,-1001 211,-965 333,-965 333,-1001"/>
<text text-anchor="middle" x="272" y="-979.3" font-family="Times,serif" font-size="14.00">A_Submitted (376)</text>
</g>
<!-- A_Create Application&#45;&gt;A_Submitted -->
<g id="edge17" class="edge">
<title>A_Create Application&#45;&gt;A_Submitted</title>
<path fill="none" stroke="#000000" stroke-width="1.77" d="M197.82,-1051.8C210.97,-1039.78 228.76,-1023.52 243.62,-1009.94"/>
<polygon fill="#000000" stroke="#000000" stroke-width="1.77" points="245.89,-1012.6 250.91,-1003.27 241.17,-1007.44 245.89,-1012.6"/>
<text text-anchor="middle" x="242.5" y="-1022.8" font-family="Times,serif" font-size="14.00">376</text>
</g>
<!-- W_Complete application&#45;&gt;W_Complete application -->
<g id="edge3" class="edge">
<title>W_Complete application&#45;&gt;W_Complete application</title>
<path fill="none" stroke="#000000" stroke-width="3.51" d="M374.32,-815.86C385.06,-814.56 392,-812.27 392,-809 392,-807.67 390.86,-806.5 388.78,-805.5"/>
<polygon fill="#000000" stroke="#000000" stroke-width="3.51" points="390.03,-802.2 379.5,-803.34 388.45,-809.02 390.03,-802.2"/>
<text text-anchor="middle" x="402.5" y="-805.3" font-family="Times,serif" font-size="14.00">888</text>
</g>
<!-- W_Complete application&#45;&gt;A_Concept -->
<g id="edge4" class="edge">
<title>W_Complete application&#45;&gt;A_Concept</title>
<path fill="none" stroke="#000000" stroke-width="2.18" d="M263.64,-790.8C254.76,-779.35 242.88,-764.06 232.66,-750.89"/>
<polygon fill="#000000" stroke="#000000" stroke-width="2.18" points="235.48,-748.82 226.58,-743.07 229.95,-753.11 235.48,-748.82"/>
<text text-anchor="middle" x="258.5" y="-761.8" font-family="Times,serif" font-size="14.00">495</text>
</g>
<!-- A_Accepted -->
<g id="node5" class="node">
<title>A_Accepted</title>
<polygon fill="#f9f9ff" stroke="black" points="174.5,-653 57.5,-653 57.5,-617 174.5,-617 174.5,-653"/>
<text text-anchor="middle" x="116" y="-631.3" font-family="Times,serif" font-size="14.00">A_Accepted (537)</text>
</g>
<!-- W_Complete application&#45;&gt;A_Accepted -->
<g id="edge22" class="edge">
<title>W_Complete application&#45;&gt;A_Accepted</title>
<path fill="none" stroke="#000000" stroke-width="1.79" d="M198.7,-790.61C171.05,-780.47 142.51,-764.62 125,-740 109.79,-718.62 108.91,-688.16 111.01,-665.73"/>
<polygon fill="#000000" stroke="#000000" stroke-width="1.79" points="114.46,-666.32 112.22,-655.96 107.52,-665.45 114.46,-666.32"/>
<text text-anchor="middle" x="135.5" y="-718.3" font-family="Times,serif" font-size="14.00">383</text>
</g>
<!-- O_Create Offer -->
<g id="node6" class="node">
<title>O_Create Offer</title>
<polygon fill="#f6f6ff" stroke="black" points="183,-566 49,-566 49,-530 183,-530 183,-566"/>
<text text-anchor="middle" x="116" y="-544.3" font-family="Times,serif" font-size="14.00">O_Create Offer (613)</text>
</g>
<!-- W_Complete application&#45;&gt;O_Create Offer -->
<g id="edge30" class="edge">
<title>W_Complete application&#45;&gt;O_Create Offer</title>
<path fill="none" stroke="#ff0000" stroke-width="0.52" stroke-dasharray="5,2" d="M280.77,-790.6C284.53,-769.24 288.18,-732.37 276,-704 251.07,-645.93 192.78,-598.84 153.87,-572.37"/>
<polygon fill="#ff0000" stroke="#ff0000" stroke-width="0.52" points="155.83,-569.47 145.57,-566.85 151.95,-575.3 155.83,-569.47"/>
<text text-anchor="middle" x="269.5" y="-674.8" font-family="Times,serif" font-size="14.00">8</text>
</g>
<!-- W_Call after offers -->
<g id="node9" class="node">
<title>W_Call after offers</title>
<polygon fill="#9b9bff" stroke="black" points="343.5,-131 180.5,-131 180.5,-95 343.5,-95 343.5,-131"/>
<text text-anchor="middle" x="262" y="-109.3" font-family="Times,serif" font-size="14.00">W_Call after offers (3221)</text>
</g>
<!-- W_Complete application&#45;&gt;W_Call after offers -->
<g id="edge10" class="edge">
<title>W_Complete application&#45;&gt;W_Call after offers</title>
<path fill="none" stroke="#000000" stroke-width="2.31" d="M353.15,-790.57C385.98,-778.1 417,-757.26 417,-723 417,-723 417,-723 417,-199 417,-165.39 388.64,-144.98 356.18,-132.63"/>
<polygon fill="#000000" stroke="#000000" stroke-width="2.31" points="357.48,-129.38 346.89,-129.42 355.2,-135.99 357.48,-129.38"/>
<text text-anchor="middle" x="427.5" y="-457.3" font-family="Times,serif" font-size="14.00">534</text>
</g>
<!-- end_node -->
<g id="node15" class="node">
<title>end_node</title>
<ellipse fill="none" stroke="black" cx="307" cy="-22" rx="18" ry="18"/>
<ellipse fill="none" stroke="black" cx="307" cy="-22" rx="22" ry="22"/>
<text text-anchor="start" x="302.5" y="-18.3" font-family="Times,serif" font-size="14.00">■</text>
</g>
<!-- W_Complete application&#45;&gt;end_node -->
<g id="edge37" class="edge">
<title>W_Complete application&#45;&gt;end_node</title>
<path fill="none" stroke="#ff0000" stroke-width="0.5" stroke-dasharray="5,2" d="M374.27,-799.46C420.58,-789.46 466,-768.15 466,-723 466,-723 466,-723 466,-112 466,-54.6 386.12,-33.86 339.6,-26.64"/>
<polygon fill="#ff0000" stroke="#ff0000" stroke-width="0.5" points="340.25,-23.2 329.86,-25.26 339.27,-30.13 340.25,-23.2"/>
<text text-anchor="middle" x="469.5" y="-413.8" font-family="Times,serif" font-size="14.00">3</text>
</g>
<!-- A_Concept&#45;&gt;W_Complete application -->
<g id="edge21" class="edge">
<title>A_Concept&#45;&gt;W_Complete application</title>
<path fill="none" stroke="#000000" stroke-width="1.79" d="M208.96,-740.5C208.64,-750.74 209.83,-763.48 216,-773 218.36,-776.65 221.24,-779.95 224.46,-782.95"/>
<polygon fill="#000000" stroke="#000000" stroke-width="1.79" points="222.06,-785.52 232.1,-788.91 226.36,-780 222.06,-785.52"/>
<text text-anchor="middle" x="226.5" y="-761.8" font-family="Times,serif" font-size="14.00">383</text>
</g>
<!-- A_Concept&#45;&gt;A_Accepted -->
<g id="edge5" class="edge">
<title>A_Concept&#45;&gt;A_Accepted</title>
<path fill="none" stroke="#000000" stroke-width="1.01" d="M191.78,-703.8C177.96,-691.44 159.13,-674.59 143.69,-660.78"/>
<polygon fill="#000000" stroke="#000000" stroke-width="1.01" points="146.45,-658.55 136.67,-654.49 141.78,-663.77 146.45,-658.55"/>
<text text-anchor="middle" x="180.5" y="-674.8" font-family="Times,serif" font-size="14.00">154</text>
</g>
<!-- A_Accepted&#45;&gt;W_Complete application -->
<g id="edge29" class="edge">
<title>A_Accepted&#45;&gt;W_Complete application</title>
<path fill="none" stroke="#ff0000" stroke-width="0.52" stroke-dasharray="5,2" d="M107.92,-653.37C99.22,-674.69 88.24,-711.53 101,-740 113.58,-768.07 140.6,-784.69 169.78,-794.49"/>
<polygon fill="#ff0000" stroke="#ff0000" stroke-width="0.52" points="168.41,-797.73 179,-797.33 170.47,-791.04 168.41,-797.73"/>
<text text-anchor="middle" x="104.5" y="-718.3" font-family="Times,serif" font-size="14.00">8</text>
</g>
<!-- A_Accepted&#45;&gt;O_Create Offer -->
<g id="edge6" class="edge">
<title>A_Accepted&#45;&gt;O_Create Offer</title>
<path fill="none" stroke="#000000" stroke-width="2.29" d="M116,-616.8C116,-606.15 116,-592.18 116,-579.69"/>
<polygon fill="#000000" stroke="#000000" stroke-width="2.29" points="119.5,-579.94 116,-569.94 112.5,-579.94 119.5,-579.94"/>
<text text-anchor="middle" x="126.5" y="-587.8" font-family="Times,serif" font-size="14.00">529</text>
</g>
<!-- O_Created -->
<g id="node7" class="node">
<title>O_Created</title>
<polygon fill="#f6f6ff" stroke="black" points="214,-479 106,-479 106,-443 214,-443 214,-479"/>
<text text-anchor="middle" x="160" y="-457.3" font-family="Times,serif" font-size="14.00">O_Created (613)</text>
</g>
<!-- O_Create Offer&#45;&gt;O_Created -->
<g id="edge7" class="edge">
<title>O_Create Offer&#45;&gt;O_Created</title>
<path fill="none" stroke="#000000" stroke-width="2.58" d="M112.89,-529.96C111.87,-519.88 112.05,-507.14 117,-497 118.34,-494.26 120,-491.66 121.89,-489.21"/>
<polygon fill="#000000" stroke="#000000" stroke-width="2.58" points="124.18,-491.88 128.61,-482.25 119.15,-487.02 124.18,-491.88"/>
<text text-anchor="middle" x="127.5" y="-500.8" font-family="Times,serif" font-size="14.00">613</text>
</g>
<!-- O_Created&#45;&gt;O_Create Offer -->
<g id="edge24" class="edge">
<title>O_Created&#45;&gt;O_Create Offer</title>
<path fill="none" stroke="#ff0000" stroke-width="0.65" stroke-dasharray="5,2" d="M153.08,-479.42C149.02,-489.17 143.6,-501.44 138,-512 136.52,-514.79 134.89,-517.66 133.22,-520.5"/>
<polygon fill="#ff0000" stroke="#ff0000" stroke-width="0.65" points="130.24,-518.66 128,-529.01 136.21,-522.32 130.24,-518.66"/>
<text text-anchor="middle" x="153" y="-500.8" font-family="Times,serif" font-size="14.00">47</text>
</g>
<!-- O_Sent (mail and online) -->
<g id="node8" class="node">
<title>O_Sent (mail and online)</title>
<polygon fill="#f6f6ff" stroke="black" points="254,-392 66,-392 66,-356 254,-356 254,-392"/>
<text text-anchor="middle" x="160" y="-370.3" font-family="Times,serif" font-size="14.00">O_Sent (mail and online) (610)</text>
</g>
<!-- O_Created&#45;&gt;O_Sent (mail and online) -->
<g id="edge8" class="edge">
<title>O_Created&#45;&gt;O_Sent (mail and online)</title>
<path fill="none" stroke="#000000" stroke-width="2.41" d="M160,-442.8C160,-432.27 160,-418.48 160,-406.09"/>
<polygon fill="#000000" stroke="#000000" stroke-width="2.41" points="163.5,-406.11 160,-396.11 156.5,-406.11 163.5,-406.11"/>
<text text-anchor="middle" x="170.5" y="-413.8" font-family="Times,serif" font-size="14.00">563</text>
</g>
<!-- A_Cancelled -->
<g id="node11" class="node">
<title>A_Cancelled</title>
<polygon fill="#f9f9ff" stroke="black" points="262,-305 142,-305 142,-269 262,-269 262,-305"/>
<text text-anchor="middle" x="202" y="-283.3" font-family="Times,serif" font-size="14.00">A_Cancelled (537)</text>
</g>
<!-- O_Created&#45;&gt;A_Cancelled -->
<g id="edge31" class="edge">
<title>O_Created&#45;&gt;A_Cancelled</title>
<path fill="none" stroke="#ff0000" stroke-width="0.5" stroke-dasharray="5,2" d="M214.29,-447.45C243.63,-437.6 277.38,-420.6 295,-392 314.1,-360.99 278.68,-330.53 246.2,-310.67"/>
<polygon fill="#ff0000" stroke="#ff0000" stroke-width="0.5" points="248.21,-307.79 237.81,-305.74 244.66,-313.83 248.21,-307.79"/>
<text text-anchor="middle" x="303.5" y="-370.3" font-family="Times,serif" font-size="14.00">3</text>
</g>
<!-- O_Sent (mail and online)&#45;&gt;W_Complete application -->
<g id="edge9" class="edge">
<title>O_Sent (mail and online)&#45;&gt;W_Complete application</title>
<path fill="none" stroke="#000000" stroke-width="2.31" d="M254.35,-387.41C294.83,-398.57 333,-419.76 333,-460 333,-723 333,-723 333,-723 333,-744.82 319.97,-765.37 306.48,-780.8"/>
<polygon fill="#000000" stroke="#000000" stroke-width="2.31" points="303.93,-778.4 299.61,-788.07 309.02,-783.2 303.93,-778.4"/>
<text text-anchor="middle" x="343.5" y="-587.8" font-family="Times,serif" font-size="14.00">534</text>
</g>
<!-- O_Sent (mail and online)&#45;&gt;O_Sent (mail and online) -->
<g id="edge25" class="edge">
<title>O_Sent (mail and online)&#45;&gt;O_Sent (mail and online)</title>
<path fill="none" stroke="#ff0000" stroke-width="0.65" stroke-dasharray="5,2" d="M254.37,-380.91C265.07,-379.62 272,-377.31 272,-374 272,-371.98 269.43,-370.34 264.99,-369.07"/>
<polygon fill="#ff0000" stroke="#ff0000" stroke-width="0.65" points="265.81,-365.66 255.34,-367.27 264.53,-372.54 265.81,-365.66"/>
<text text-anchor="middle" x="279" y="-370.3" font-family="Times,serif" font-size="14.00">47</text>
</g>
<!-- O_Sent (mail and online)&#45;&gt;W_Call after offers -->
<g id="edge35" class="edge">
<title>O_Sent (mail and online)&#45;&gt;W_Call after offers</title>
<path fill="none" stroke="#ff0000" stroke-width="0.52" stroke-dasharray="5,2" d="M150.99,-355.66C144.55,-342.24 136.44,-322.97 133,-305 119.7,-235.48 117.14,-201.14 165,-149 169.27,-144.35 174.19,-140.32 179.52,-136.83"/>
<polygon fill="#ff0000" stroke="#ff0000" stroke-width="0.52" points="181.25,-139.87 188.14,-131.82 177.74,-133.81 181.25,-139.87"/>
<text text-anchor="middle" x="129.5" y="-239.8" font-family="Times,serif" font-size="14.00">8</text>
</g>
<!-- O_Sent (mail and online)&#45;&gt;A_Cancelled -->
<g id="edge28" class="edge">
<title>O_Sent (mail and online)&#45;&gt;A_Cancelled</title>
<path fill="none" stroke="#ff0000" stroke-width="0.56" stroke-dasharray="5,2" d="M168.5,-355.8C174.27,-344.12 182.01,-328.45 188.61,-315.11"/>
<polygon fill="#ff0000" stroke="#ff0000" stroke-width="0.56" points="191.7,-316.74 192.99,-306.23 185.43,-313.64 191.7,-316.74"/>
<text text-anchor="middle" x="191" y="-326.8" font-family="Times,serif" font-size="14.00">21</text>
</g>
<!-- W_Call after offers&#45;&gt;O_Create Offer -->
<g id="edge27" class="edge">
<title>W_Call after offers&#45;&gt;O_Create Offer</title>
<path fill="none" stroke="#ff0000" stroke-width="0.57" stroke-dasharray="5,2" d="M180.18,-129.25C116.19,-143.59 38,-167.54 38,-199 38,-462 38,-462 38,-462 38,-487.36 57.08,-508.42 76.36,-523.24"/>
<polygon fill="#ff0000" stroke="#ff0000" stroke-width="0.57" points="74.31,-526.08 84.47,-529.09 78.41,-520.4 74.31,-526.08"/>
<text text-anchor="middle" x="45" y="-326.8" font-family="Times,serif" font-size="14.00">25</text>
</g>
<!-- W_Call after offers&#45;&gt;W_Call after offers -->
<g id="edge11" class="edge">
<title>W_Call after offers&#45;&gt;W_Call after offers</title>
<path fill="none" stroke="#000000" stroke-width="6" d="M343.97,-120.15C354.53,-118.91 361.5,-116.53 361.5,-113 361.5,-111.9 360.82,-110.91 359.56,-110.03"/>
<polygon fill="#000000" stroke="#000000" stroke-width="6" points="361.22,-105.04 350.21,-107.52 358.51,-115.18 361.22,-105.04"/>
<text text-anchor="middle" x="375.5" y="-109.3" font-family="Times,serif" font-size="14.00">1618</text>
</g>
<!-- A_Complete -->
<g id="node10" class="node">
<title>A_Complete</title>
<polygon fill="#f9f9ff" stroke="black" points="256.5,-40 137.5,-40 137.5,-4 256.5,-4 256.5,-40"/>
<text text-anchor="middle" x="197" y="-18.3" font-family="Times,serif" font-size="14.00">A_Complete (534)</text>
</g>
<!-- W_Call after offers&#45;&gt;A_Complete -->
<g id="edge12" class="edge">
<title>W_Call after offers&#45;&gt;A_Complete</title>
<path fill="none" stroke="#000000" stroke-width="2.31" d="M228.3,-94.69C221.39,-89.79 214.78,-83.88 210,-77 205.21,-70.1 202.17,-61.64 200.25,-53.49"/>
<polygon fill="#000000" stroke="#000000" stroke-width="2.31" points="203.73,-53.06 198.56,-43.81 196.83,-54.27 203.73,-53.06"/>
<text text-anchor="middle" x="220.5" y="-65.8" font-family="Times,serif" font-size="14.00">534</text>
</g>
<!-- W_Call after offers&#45;&gt;A_Cancelled -->
<g id="edge14" class="edge">
<title>W_Call after offers&#45;&gt;A_Cancelled</title>
<path fill="none" stroke="#000000" stroke-width="2.23" d="M242.75,-131.27C230.08,-143.93 214.52,-162.28 207,-182 198.01,-205.58 197.34,-234.37 198.59,-255.68"/>
<polygon fill="#000000" stroke="#000000" stroke-width="2.23" points="195.08,-255.73 199.38,-265.41 202.06,-255.16 195.08,-255.73"/>
<text text-anchor="middle" x="217.5" y="-196.3" font-family="Times,serif" font-size="14.00">510</text>
</g>
<!-- W_Call after offers&#45;&gt;end_node -->
<g id="edge36" class="edge">
<title>W_Call after offers&#45;&gt;end_node</title>
<path fill="none" stroke="#000000" stroke-width="2.31" d="M270.68,-94.84C276.5,-83.32 284.35,-67.8 291.26,-54.13"/>
<polygon fill="#000000" stroke="#000000" stroke-width="2.31" points="294.29,-55.89 295.68,-45.39 288.04,-52.73 294.29,-55.89"/>
<text text-anchor="middle" x="297.5" y="-65.8" font-family="Times,serif" font-size="14.00">534</text>
</g>
<!-- A_Complete&#45;&gt;O_Create Offer -->
<g id="edge34" class="edge">
<title>A_Complete&#45;&gt;O_Create Offer</title>
<path fill="none" stroke="#ff0000" stroke-width="0.5" stroke-dasharray="5,2" d="M137.09,-25.57C79.13,-31.65 0,-51.11 0,-112 0,-462 0,-462 0,-462 0,-491.37 24.49,-511.69 50.97,-525.09"/>
<polygon fill="#ff0000" stroke="#ff0000" stroke-width="0.5" points="49.15,-528.1 59.69,-529.21 52.15,-521.77 49.15,-528.1"/>
<text text-anchor="middle" x="3.5" y="-283.3" font-family="Times,serif" font-size="14.00">4</text>
</g>
<!-- A_Complete&#45;&gt;W_Call after offers -->
<g id="edge13" class="edge">
<title>A_Complete&#45;&gt;W_Call after offers</title>
<path fill="none" stroke="#000000" stroke-width="2.28" d="M213.2,-40.36C219.05,-46.94 225.56,-54.63 231,-62 235.97,-68.74 240.94,-76.29 245.4,-83.44"/>
<polygon fill="#000000" stroke="#000000" stroke-width="2.28" points="242.36,-85.19 250.53,-91.93 248.35,-81.56 242.36,-85.19"/>
<text text-anchor="middle" x="252.5" y="-65.8" font-family="Times,serif" font-size="14.00">527</text>
</g>
<!-- A_Complete&#45;&gt;A_Cancelled -->
<g id="edge33" class="edge">
<title>A_Complete&#45;&gt;A_Cancelled</title>
<path fill="none" stroke="#ff0000" stroke-width="0.5" stroke-dasharray="5,2" d="M188.83,-40.29C182.55,-54.59 174.39,-75.63 171,-95 160.83,-153.13 179.21,-221.41 191.75,-258.55"/>
<polygon fill="#ff0000" stroke="#ff0000" stroke-width="0.5" points="188.41,-259.59 195.01,-267.88 195.02,-257.29 188.41,-259.59"/>
<text text-anchor="middle" x="173.5" y="-152.8" font-family="Times,serif" font-size="14.00">3</text>
</g>
<!-- O_Cancelled -->
<g id="node12" class="node">
<title>O_Cancelled</title>
<polygon fill="#f6f6ff" stroke="black" points="357,-218 237,-218 237,-182 357,-182 357,-218"/>
<text text-anchor="middle" x="297" y="-196.3" font-family="Times,serif" font-size="14.00">O_Cancelled (613)</text>
</g>
<!-- A_Cancelled&#45;&gt;O_Cancelled -->
<g id="edge15" class="edge">
<title>A_Cancelled&#45;&gt;O_Cancelled</title>
<path fill="none" stroke="#000000" stroke-width="2.32" d="M221.22,-268.8C234.53,-256.9 252.48,-240.83 267.58,-227.32"/>
<polygon fill="#000000" stroke="#000000" stroke-width="2.32" points="269.74,-230.08 274.86,-220.81 265.08,-224.87 269.74,-230.08"/>
<text text-anchor="middle" x="266.5" y="-239.8" font-family="Times,serif" font-size="14.00">537</text>
</g>
<!-- O_Cancelled&#45;&gt;W_Complete application -->
<g id="edge32" class="edge">
<title>O_Cancelled&#45;&gt;W_Complete application</title>
<path fill="none" stroke="#ff0000" stroke-width="0.5" stroke-dasharray="5,2" d="M325.82,-218.46C346.6,-233.48 371,-257.24 371,-286 371,-723 371,-723 371,-723 371,-750.29 348.93,-771.09 326.18,-785.28"/>
<polygon fill="#ff0000" stroke="#ff0000" stroke-width="0.5" points="324.65,-782.12 317.79,-790.2 328.19,-788.16 324.65,-782.12"/>
<text text-anchor="middle" x="374.5" y="-500.8" font-family="Times,serif" font-size="14.00">3</text>
</g>
<!-- O_Cancelled&#45;&gt;W_Call after offers -->
<g id="edge16" class="edge">
<title>O_Cancelled&#45;&gt;W_Call after offers</title>
<path fill="none" stroke="#000000" stroke-width="2.31" d="M289.92,-181.8C285.44,-170.93 279.53,-156.58 274.31,-143.88"/>
<polygon fill="#000000" stroke="#000000" stroke-width="2.31" points="277.57,-142.61 270.52,-134.7 271.09,-145.28 277.57,-142.61"/>
<text text-anchor="middle" x="291.5" y="-152.8" font-family="Times,serif" font-size="14.00">534</text>
</g>
<!-- O_Cancelled&#45;&gt;O_Cancelled -->
<g id="edge26" class="edge">
<title>O_Cancelled&#45;&gt;O_Cancelled</title>
<path fill="none" stroke="#ff0000" stroke-width="0.75" stroke-dasharray="5,2" d="M357.18,-207.65C367.69,-206.63 375,-204.08 375,-200 375,-197.58 372.42,-195.7 368.13,-194.35"/>
<polygon fill="#ff0000" stroke="#ff0000" stroke-width="0.75" points="368.76,-190.91 358.29,-192.56 367.5,-197.8 368.76,-190.91"/>
<text text-anchor="middle" x="382" y="-196.3" font-family="Times,serif" font-size="14.00">76</text>
</g>
<!-- W_Handle leads -->
<g id="node14" class="node">
<title>W_Handle leads</title>
<polygon fill="#f0f0ff" stroke="black" points="347,-914 207,-914 207,-878 347,-878 347,-914"/>
<text text-anchor="middle" x="277" y="-892.3" font-family="Times,serif" font-size="14.00">W_Handle leads (796)</text>
</g>
<!-- A_Submitted&#45;&gt;W_Handle leads -->
<g id="edge18" class="edge">
<title>A_Submitted&#45;&gt;W_Handle leads</title>
<path fill="none" stroke="#000000" stroke-width="1.77" d="M273.01,-964.8C273.65,-953.93 274.5,-939.58 275.24,-926.88"/>
<polygon fill="#000000" stroke="#000000" stroke-width="1.77" points="278.72,-927.33 275.82,-917.14 271.73,-926.92 278.72,-927.33"/>
<text text-anchor="middle" x="284.5" y="-935.8" font-family="Times,serif" font-size="14.00">376</text>
</g>
<!-- W_Handle leads&#45;&gt;W_Complete application -->
<g id="edge20" class="edge">
<title>W_Handle leads&#45;&gt;W_Complete application</title>
<path fill="none" stroke="#000000" stroke-width="1.77" d="M277,-877.8C277,-866.93 277,-852.58 277,-839.88"/>
<polygon fill="#000000" stroke="#000000" stroke-width="1.77" points="280.5,-840.15 277,-830.15 273.5,-840.15 280.5,-840.15"/>
<text text-anchor="middle" x="287.5" y="-848.8" font-family="Times,serif" font-size="14.00">376</text>
</g>
<!-- W_Handle leads&#45;&gt;W_Handle leads -->
<g id="edge19" class="edge">
<title>W_Handle leads&#45;&gt;W_Handle leads</title>
<path fill="none" stroke="#000000" stroke-width="1.92" d="M347.43,-903.4C357.91,-902.25 365,-899.78 365,-896 365,-894.05 363.11,-892.45 359.85,-891.2"/>
<polygon fill="#000000" stroke="#000000" stroke-width="1.92" points="360.77,-887.82 350.27,-889.2 359.34,-894.67 360.77,-887.82"/>
<text text-anchor="middle" x="375.5" y="-892.3" font-family="Times,serif" font-size="14.00">420</text>
</g>
</g>
</svg>
