<?xml version="1.0" encoding="UTF-8" standalone="no"?>
<!DOCTYPE svg PUBLIC "-//W3C//DTD SVG 1.1//EN"
 "http://www.w3.org/Graphics/SVG/1.1/DTD/svg11.dtd">
<!-- Generated by graphviz version 7.0.5 (0)
 -->
<!-- Title: dfg Pages: 1 -->
<svg width="824pt" height="1357pt"
 viewBox="0.00 0.00 824.00 1357.00" xmlns="http://www.w3.org/2000/svg" xmlns:xlink="http://www.w3.org/1999/xlink">
<g id="graph0" class="graph" transform="scale(1 1) rotate(0) translate(4 1353)">
<title>dfg</title>
<polygon fill="white" stroke="none" points="-4,4 -4,-1353 820,-1353 820,4 -4,4"/>
<!-- start_node -->
<g id="node1" class="node">
<title>start_node</title>
<ellipse fill="none" stroke="black" cx="196" cy="-1331" rx="18" ry="18"/>
<text text-anchor="start" x="191.5" y="-1327.3" font-family="Times,serif" font-size="14.00">●</text>
</g>
<!-- A_Create Application -->
<g id="node2" class="node">
<title>A_Create Application</title>
<polygon fill="#eeeeff" stroke="black" points="280,-1262 112,-1262 112,-1226 280,-1226 280,-1262"/>
<text text-anchor="middle" x="196" y="-1240.3" font-family="Times,serif" font-size="14.00">A_Create Application (435)</text>
</g>
<!-- start_node&#45;&gt;A_Create Application -->
<g id="edge1" class="edge">
<title>start_node&#45;&gt;A_Create Application</title>
<path fill="none" stroke="#000000" stroke-width="1.95" d="M196,-1312.8C196,-1302.04 196,-1287.88 196,-1275.29"/>
<polygon fill="#000000" stroke="#000000" stroke-width="1.95" points="199.5,-1275.42 196,-1265.42 192.5,-1275.42 199.5,-1275.42"/>
<text text-anchor="middle" x="206.5" y="-1283.8" font-family="Times,serif" font-size="14.00">435</text>
</g>
<!-- W_Complete application -->
<g id="node3" class="node">
<title>W_Complete application</title>
<polygon fill="#c4c4ff" stroke="black" points="441,-1175 247,-1175 247,-1139 441,-1139 441,-1175"/>
<text text-anchor="middle" x="344" y="-1153.3" font-family="Times,serif" font-size="14.00">W_Complete application (1490)</text>
</g>
<!-- A_Create Application&#45;&gt;W_Complete application -->
<g id="edge2" class="edge">
<title>A_Create Application&#45;&gt;W_Complete application</title>
<path fill="none" stroke="#000000" stroke-width="1.38" d="M226.31,-1225.59C248.55,-1212.82 279.01,-1195.32 303.37,-1181.34"/>
<polygon fill="#000000" stroke="#000000" stroke-width="1.38" points="305,-1184.44 311.93,-1176.42 301.51,-1178.37 305,-1184.44"/>
<text text-anchor="middle" x="288.5" y="-1196.8" font-family="Times,serif" font-size="14.00">263</text>
</g>
<!-- A_Concept -->
<g id="node4" class="node">
<title>A_Concept</title>
<polygon fill="#eeeeff" stroke="black" points="355.5,-1088 244.5,-1088 244.5,-1052 355.5,-1052 355.5,-1088"/>
<text text-anchor="middle" x="300" y="-1066.3" font-family="Times,serif" font-size="14.00">A_Concept (435)</text>
</g>
<!-- A_Create Application&#45;&gt;A_Concept -->
<g id="edge22" class="edge">
<title>A_Create Application&#45;&gt;A_Concept</title>
<path fill="none" stroke="#000000" stroke-width="1.07" d="M196.02,-1225.52C196.8,-1203.76 200.66,-1166.14 217,-1139 227.68,-1121.26 244.74,-1106.1 260.62,-1094.63"/>
<polygon fill="#000000" stroke="#000000" stroke-width="1.07" points="262.2,-1097.79 268.45,-1089.23 258.23,-1092.03 262.2,-1097.79"/>
<text text-anchor="middle" x="227.5" y="-1153.3" font-family="Times,serif" font-size="14.00">172</text>
</g>
<!-- W_Complete application&#45;&gt;W_Complete application -->
<g id="edge3" class="edge">
<title>W_Complete application&#45;&gt;W_Complete application</title>
<path fill="none" stroke="#000000" stroke-width="2.49" d="M441.32,-1163.86C452.06,-1162.56 459,-1160.27 459,-1157 459,-1155.47 457.48,-1154.15 454.75,-1153.05"/>
<polygon fill="#000000" stroke="#000000" stroke-width="2.49" points="455.53,-1149.64 445.01,-1150.94 454.04,-1156.48 455.53,-1149.64"/>
<text text-anchor="middle" x="469.5" y="-1153.3" font-family="Times,serif" font-size="14.00">596</text>
</g>
<!-- W_Complete application&#45;&gt;A_Concept -->
<g id="edge4" class="edge">
<title>W_Complete application&#45;&gt;A_Concept</title>
<path fill="none" stroke="#000000" stroke-width="1.38" d="M337.08,-1138.58C333.02,-1128.83 327.6,-1116.56 322,-1106 320.67,-1103.49 319.22,-1100.91 317.72,-1098.35"/>
<polygon fill="#000000" stroke="#000000" stroke-width="1.38" points="320.77,-1096.63 312.57,-1089.93 314.8,-1100.28 320.77,-1096.63"/>
<text text-anchor="middle" x="339.5" y="-1109.8" font-family="Times,serif" font-size="14.00">263</text>
</g>
<!-- A_Accepted -->
<g id="node5" class="node">
<title>A_Accepted</title>
<polygon fill="#eeeeff" stroke="black" points="360.5,-1001 243.5,-1001 243.5,-965 360.5,-965 360.5,-1001"/>
<text text-anchor="middle" x="302" y="-979.3" font-family="Times,serif" font-size="14.00">A_Accepted (435)</text>
</g>
<!-- W_Complete application&#45;&gt;A_Accepted -->
<g id="edge24" class="edge">
<title>W_Complete application&#45;&gt;A_Accepted</title>
<path fill="none" stroke="#000000" stroke-width="1.07" d="M281.04,-1138.56C255.93,-1128.19 229.58,-1112.17 215,-1088 196.9,-1057.99 229.28,-1027.71 259.54,-1007.62"/>
<polygon fill="#000000" stroke="#000000" stroke-width="1.07" points="261.3,-1010.66 267.86,-1002.34 257.54,-1004.75 261.3,-1010.66"/>
<text text-anchor="middle" x="225.5" y="-1066.3" font-family="Times,serif" font-size="14.00">172</text>
</g>
<!-- O_Create Offer -->
<g id="node6" class="node">
<title>O_Create Offer</title>
<polygon fill="#ececff" stroke="black" points="376,-914 242,-914 242,-878 376,-878 376,-914"/>
<text text-anchor="middle" x="309" y="-892.3" font-family="Times,serif" font-size="14.00">O_Create Offer (464)</text>
</g>
<!-- W_Complete application&#45;&gt;O_Create Offer -->
<g id="edge35" class="edge">
<title>W_Complete application&#45;&gt;O_Create Offer</title>
<path fill="none" stroke="#ff0000" stroke-width="0.57" stroke-dasharray="5,2" d="M363.22,-1138.78C368.26,-1133.48 373.32,-1127.36 377,-1121 392.53,-1094.19 389.99,-1082.84 387,-1052 383.2,-1012.79 387.56,-1000.27 370,-965 361.94,-948.81 348.96,-933.56 337.04,-921.61"/>
<polygon fill="#ff0000" stroke="#ff0000" stroke-width="0.57" points="339.67,-919.29 330.04,-914.87 334.81,-924.33 339.67,-919.29"/>
<text text-anchor="middle" x="392" y="-1022.8" font-family="Times,serif" font-size="14.00">24</text>
</g>
<!-- W_Call after offers -->
<g id="node9" class="node">
<title>W_Call after offers</title>
<polygon fill="#9b9bff" stroke="black" points="645.5,-653 482.5,-653 482.5,-617 645.5,-617 645.5,-653"/>
<text text-anchor="middle" x="564" y="-631.3" font-family="Times,serif" font-size="14.00">W_Call after offers (2526)</text>
</g>
<!-- W_Complete application&#45;&gt;W_Call after offers -->
<g id="edge10" class="edge">
<title>W_Complete application&#45;&gt;W_Call after offers</title>
<path fill="none" stroke="#000000" stroke-width="1.95" d="M441.44,-1145.2C522.95,-1133.36 626,-1110.56 626,-1071 626,-1071 626,-1071 626,-721 626,-698.16 611.21,-677.35 596.07,-662.04"/>
<polygon fill="#000000" stroke="#000000" stroke-width="1.95" points="598.57,-659.58 588.89,-655.28 593.77,-664.68 598.57,-659.58"/>
<text text-anchor="middle" x="636.5" y="-892.3" font-family="Times,serif" font-size="14.00">435</text>
</g>
<!-- A_Concept&#45;&gt;W_Complete application -->
<g id="edge23" class="edge">
<title>A_Concept&#45;&gt;W_Complete application</title>
<path fill="none" stroke="#000000" stroke-width="1.07" d="M294.85,-1088.07C292.78,-1098.16 291.93,-1110.9 297,-1121 298.79,-1124.56 301.13,-1127.86 303.82,-1130.88"/>
<polygon fill="#000000" stroke="#000000" stroke-width="1.07" points="301.25,-1133.26 310.93,-1137.56 306.04,-1128.16 301.25,-1133.26"/>
<text text-anchor="middle" x="307.5" y="-1109.8" font-family="Times,serif" font-size="14.00">172</text>
</g>
<!-- A_Concept&#45;&gt;A_Accepted -->
<g id="edge5" class="edge">
<title>A_Concept&#45;&gt;A_Accepted</title>
<path fill="none" stroke="#000000" stroke-width="1.38" d="M300.4,-1051.8C300.66,-1040.81 301.01,-1026.28 301.31,-1013.48"/>
<polygon fill="#000000" stroke="#000000" stroke-width="1.38" points="304.8,-1013.63 301.54,-1003.55 297.81,-1013.46 304.8,-1013.63"/>
<text text-anchor="middle" x="311.5" y="-1022.8" font-family="Times,serif" font-size="14.00">263</text>
</g>
<!-- A_Accepted&#45;&gt;W_Complete application -->
<g id="edge34" class="edge">
<title>A_Accepted&#45;&gt;W_Complete application</title>
<path fill="none" stroke="#ff0000" stroke-width="0.57" stroke-dasharray="5,2" d="M325.28,-1001.38C339.73,-1013.71 357.01,-1031.62 365,-1052 374.82,-1077.05 366.59,-1107.38 357.72,-1128.81"/>
<polygon fill="#ff0000" stroke="#ff0000" stroke-width="0.57" points="354.61,-1127.19 353.74,-1137.75 361,-1130.04 354.61,-1127.19"/>
<text text-anchor="middle" x="376" y="-1066.3" font-family="Times,serif" font-size="14.00">24</text>
</g>
<!-- A_Accepted&#45;&gt;O_Create Offer -->
<g id="edge6" class="edge">
<title>A_Accepted&#45;&gt;O_Create Offer</title>
<path fill="none" stroke="#000000" stroke-width="1.87" d="M303.42,-964.8C304.31,-953.93 305.49,-939.58 306.54,-926.88"/>
<polygon fill="#000000" stroke="#000000" stroke-width="1.87" points="310,-927.55 307.33,-917.29 303.02,-926.97 310,-927.55"/>
<text text-anchor="middle" x="315.5" y="-935.8" font-family="Times,serif" font-size="14.00">411</text>
</g>
<!-- O_Created -->
<g id="node7" class="node">
<title>O_Created</title>
<polygon fill="#ececff" stroke="black" points="322,-827 214,-827 214,-791 322,-791 322,-827"/>
<text text-anchor="middle" x="268" y="-805.3" font-family="Times,serif" font-size="14.00">O_Created (464)</text>
</g>
<!-- O_Create Offer&#45;&gt;O_Created -->
<g id="edge7" class="edge">
<title>O_Create Offer&#45;&gt;O_Created</title>
<path fill="none" stroke="#000000" stroke-width="2.05" d="M282.7,-877.61C277.19,-872.62 272.12,-866.69 269,-860 266.21,-854.02 264.99,-847.18 264.66,-840.53"/>
<polygon fill="#000000" stroke="#000000" stroke-width="2.05" points="268.15,-840.63 264.9,-830.55 261.16,-840.46 268.15,-840.63"/>
<text text-anchor="middle" x="279.5" y="-848.8" font-family="Times,serif" font-size="14.00">464</text>
</g>
<!-- O_Created&#45;&gt;O_Create Offer -->
<g id="edge42" class="edge">
<title>O_Created&#45;&gt;O_Create Offer</title>
<path fill="none" stroke="#ff0000" stroke-width="0.53" stroke-dasharray="5,2" d="M279.89,-827.41C283.39,-832.91 287.06,-839.09 290,-845 293.55,-852.12 296.85,-860.07 299.67,-867.5"/>
<polygon fill="#ff0000" stroke="#ff0000" stroke-width="0.53" points="296.33,-868.56 303.04,-876.76 302.91,-866.17 296.33,-868.56"/>
<text text-anchor="middle" x="303" y="-848.8" font-family="Times,serif" font-size="14.00">11</text>
</g>
<!-- O_Sent (mail and online) -->
<g id="node8" class="node">
<title>O_Sent (mail and online)</title>
<polygon fill="#ededff" stroke="black" points="566,-740 378,-740 378,-704 566,-704 566,-740"/>
<text text-anchor="middle" x="472" y="-718.3" font-family="Times,serif" font-size="14.00">O_Sent (mail and online) (451)</text>
</g>
<!-- O_Created&#45;&gt;O_Sent (mail and online) -->
<g id="edge8" class="edge">
<title>O_Created&#45;&gt;O_Sent (mail and online)</title>
<path fill="none" stroke="#000000" stroke-width="1.97" d="M277.31,-790.57C284.09,-779.55 294.3,-765.94 307,-758 324.48,-747.07 344.82,-739.51 365.13,-734.29"/>
<polygon fill="#000000" stroke="#000000" stroke-width="1.97" points="365.9,-737.7 374.84,-732.01 364.3,-730.88 365.9,-737.7"/>
<text text-anchor="middle" x="317.5" y="-761.8" font-family="Times,serif" font-size="14.00">440</text>
</g>
<!-- O_Cancelled -->
<g id="node20" class="node">
<title>O_Cancelled</title>
<polygon fill="#fefeff" stroke="black" points="256.5,-479 143.5,-479 143.5,-443 256.5,-443 256.5,-479"/>
<text text-anchor="middle" x="200" y="-457.3" font-family="Times,serif" font-size="14.00">O_Cancelled (21)</text>
</g>
<!-- O_Created&#45;&gt;O_Cancelled -->
<g id="edge48" class="edge">
<title>O_Created&#45;&gt;O_Cancelled</title>
<path fill="none" stroke="#ff0000" stroke-width="0.5" stroke-dasharray="5,2" d="M261.45,-790.7C255.62,-773.72 248,-746.95 248,-723 248,-723 248,-723 248,-547 248,-524.98 235.63,-503.41 223.46,-487.52"/>
<polygon fill="#ff0000" stroke="#ff0000" stroke-width="0.5" points="226.28,-485.45 217.26,-479.89 220.85,-489.86 226.28,-485.45"/>
<text text-anchor="middle" x="251.5" y="-631.3" font-family="Times,serif" font-size="14.00">2</text>
</g>
<!-- O_Sent (online only) -->
<g id="node21" class="node">
<title>O_Sent (online only)</title>
<polygon fill="#fefeff" stroke="black" points="158,-740 0,-740 0,-704 158,-704 158,-740"/>
<text text-anchor="middle" x="79" y="-718.3" font-family="Times,serif" font-size="14.00">O_Sent (online only) (11)</text>
</g>
<!-- O_Created&#45;&gt;O_Sent (online only) -->
<g id="edge40" class="edge">
<title>O_Created&#45;&gt;O_Sent (online only)</title>
<path fill="none" stroke="#ff0000" stroke-width="0.53" stroke-dasharray="5,2" d="M229.3,-790.59C199.74,-777.3 158.84,-758.91 127.16,-744.66"/>
<polygon fill="#ff0000" stroke="#ff0000" stroke-width="0.53" points="128.94,-741.62 118.38,-740.71 126.07,-748.01 128.94,-741.62"/>
<text text-anchor="middle" x="192" y="-761.8" font-family="Times,serif" font-size="14.00">11</text>
</g>
<!-- O_Sent (mail and online)&#45;&gt;W_Complete application -->
<g id="edge9" class="edge">
<title>O_Sent (mail and online)&#45;&gt;W_Complete application</title>
<path fill="none" stroke="#000000" stroke-width="1.92" d="M472,-740.26C472,-757.43 472,-784.54 472,-808 472,-1071 472,-1071 472,-1071 472,-1100.41 448.26,-1120.25 421.23,-1133.32"/>
<polygon fill="#000000" stroke="#000000" stroke-width="1.92" points="419.88,-1130.08 412.15,-1137.33 422.71,-1136.48 419.88,-1130.08"/>
<text text-anchor="middle" x="482.5" y="-935.8" font-family="Times,serif" font-size="14.00">424</text>
</g>
<!-- O_Sent (mail and online)&#45;&gt;O_Sent (mail and online) -->
<g id="edge43" class="edge">
<title>O_Sent (mail and online)&#45;&gt;O_Sent (mail and online)</title>
<path fill="none" stroke="#ff0000" stroke-width="0.53" stroke-dasharray="5,2" d="M566.37,-728.91C577.07,-727.62 584,-725.31 584,-722 584,-719.93 581.29,-718.25 576.65,-716.97"/>
<polygon fill="#ff0000" stroke="#ff0000" stroke-width="0.53" points="577.63,-713.59 567.16,-715.23 576.37,-720.48 577.63,-713.59"/>
<text text-anchor="middle" x="591" y="-718.3" font-family="Times,serif" font-size="14.00">11</text>
</g>
<!-- O_Sent (mail and online)&#45;&gt;W_Call after offers -->
<g id="edge37" class="edge">
<title>O_Sent (mail and online)&#45;&gt;W_Call after offers</title>
<path fill="none" stroke="#ff0000" stroke-width="0.55" stroke-dasharray="5,2" d="M490.62,-703.8C504,-691.44 522.23,-674.59 537.18,-660.78"/>
<polygon fill="#ff0000" stroke="#ff0000" stroke-width="0.55" points="539.52,-663.39 544.49,-654.03 534.77,-658.24 539.52,-663.39"/>
<text text-anchor="middle" x="530" y="-674.8" font-family="Times,serif" font-size="14.00">16</text>
</g>
<!-- W_Call after offers&#45;&gt;O_Create Offer -->
<g id="edge36" class="edge">
<title>W_Call after offers&#45;&gt;O_Create Offer</title>
<path fill="none" stroke="#ff0000" stroke-width="0.55" stroke-dasharray="5,2" d="M482.17,-647.08C443.21,-656.3 398.75,-673.17 369,-704 329.27,-745.18 348.25,-772.45 331,-827 326.78,-840.36 322,-855.16 317.98,-867.54"/>
<polygon fill="#ff0000" stroke="#ff0000" stroke-width="0.55" points="314.69,-866.31 314.93,-876.9 321.35,-868.48 314.69,-866.31"/>
<text text-anchor="middle" x="348" y="-761.8" font-family="Times,serif" font-size="14.00">16</text>
</g>
<!-- W_Call after offers&#45;&gt;W_Call after offers -->
<g id="edge11" class="edge">
<title>W_Call after offers&#45;&gt;W_Call after offers</title>
<path fill="none" stroke="#000000" stroke-width="6" d="M645.97,-642.15C656.53,-640.91 663.5,-638.53 663.5,-635 663.5,-633.9 662.82,-632.91 661.56,-632.03"/>
<polygon fill="#000000" stroke="#000000" stroke-width="6" points="663.22,-627.04 652.21,-629.52 660.51,-637.18 663.22,-627.04"/>
<text text-anchor="middle" x="677.5" y="-631.3" font-family="Times,serif" font-size="14.00">1640</text>
</g>
<!-- A_Complete -->
<g id="node10" class="node">
<title>A_Complete</title>
<polygon fill="#eeeeff" stroke="black" points="731.5,-566 612.5,-566 612.5,-530 731.5,-530 731.5,-566"/>
<text text-anchor="middle" x="672" y="-544.3" font-family="Times,serif" font-size="14.00">A_Complete (435)</text>
</g>
<!-- W_Call after offers&#45;&gt;A_Complete -->
<g id="edge12" class="edge">
<title>W_Call after offers&#45;&gt;A_Complete</title>
<path fill="none" stroke="#000000" stroke-width="1.95" d="M595.32,-616.51C603.9,-611.25 613.04,-605.22 621,-599 630.13,-591.87 639.39,-583.28 647.47,-575.25"/>
<polygon fill="#000000" stroke="#000000" stroke-width="1.95" points="649.76,-577.91 654.26,-568.32 644.76,-573.01 649.76,-577.91"/>
<text text-anchor="middle" x="647.5" y="-587.8" font-family="Times,serif" font-size="14.00">435</text>
</g>
<!-- W_Validate application -->
<g id="node11" class="node">
<title>W_Validate application</title>
<polygon fill="#a3a3ff" stroke="black" points="548.5,-566 363.5,-566 363.5,-530 548.5,-530 548.5,-566"/>
<text text-anchor="middle" x="456" y="-544.3" font-family="Times,serif" font-size="14.00">W_Validate application (2312)</text>
</g>
<!-- W_Call after offers&#45;&gt;W_Validate application -->
<g id="edge14" class="edge">
<title>W_Call after offers&#45;&gt;W_Validate application</title>
<path fill="none" stroke="#000000" stroke-width="1.95" d="M541.88,-616.59C526.3,-604.33 505.21,-587.73 487.82,-574.05"/>
<polygon fill="#000000" stroke="#000000" stroke-width="1.95" points="490.43,-571.65 480.41,-568.21 486.1,-577.15 490.43,-571.65"/>
<text text-anchor="middle" x="526.5" y="-587.8" font-family="Times,serif" font-size="14.00">435</text>
</g>
<!-- A_Complete&#45;&gt;W_Call after offers -->
<g id="edge13" class="edge">
<title>A_Complete&#45;&gt;W_Call after offers</title>
<path fill="none" stroke="#000000" stroke-width="1.95" d="M623.27,-566.41C613.61,-571.2 604,-577.04 596,-584 589,-590.09 582.97,-598.09 578.09,-605.89"/>
<polygon fill="#000000" stroke="#000000" stroke-width="1.95" points="575.16,-603.95 573.25,-614.37 581.24,-607.42 575.16,-603.95"/>
<text text-anchor="middle" x="606.5" y="-587.8" font-family="Times,serif" font-size="14.00">435</text>
</g>
<!-- W_Validate application&#45;&gt;W_Validate application -->
<g id="edge15" class="edge">
<title>W_Validate application&#45;&gt;W_Validate application</title>
<path fill="none" stroke="#000000" stroke-width="3.9" d="M548.7,-554.96C559.48,-553.68 566.5,-551.36 566.5,-548 566.5,-546.74 565.51,-545.63 563.71,-544.66"/>
<polygon fill="#000000" stroke="#000000" stroke-width="3.9" points="564.99,-541.37 554.45,-542.43 563.35,-548.17 564.99,-541.37"/>
<text text-anchor="middle" x="580.5" y="-544.3" font-family="Times,serif" font-size="14.00">1016</text>
</g>
<!-- A_Validating -->
<g id="node12" class="node">
<title>A_Validating</title>
<polygon fill="#eeeeff" stroke="black" points="703,-479 581,-479 581,-443 703,-443 703,-479"/>
<text text-anchor="middle" x="642" y="-457.3" font-family="Times,serif" font-size="14.00">A_Validating (435)</text>
</g>
<!-- W_Validate application&#45;&gt;A_Validating -->
<g id="edge16" class="edge">
<title>W_Validate application&#45;&gt;A_Validating</title>
<path fill="none" stroke="#000000" stroke-width="1.95" d="M493.44,-529.54C514.2,-519.88 540.5,-507.71 564,-497 572.83,-492.98 582.23,-488.73 591.34,-484.63"/>
<polygon fill="#000000" stroke="#000000" stroke-width="1.95" points="592.69,-487.86 600.38,-480.57 589.82,-481.47 592.69,-487.86"/>
<text text-anchor="middle" x="574.5" y="-500.8" font-family="Times,serif" font-size="14.00">435</text>
</g>
<!-- O_Returned -->
<g id="node13" class="node">
<title>O_Returned</title>
<polygon fill="#eeeeff" stroke="black" points="770,-392 654,-392 654,-356 770,-356 770,-392"/>
<text text-anchor="middle" x="712" y="-370.3" font-family="Times,serif" font-size="14.00">O_Returned (435)</text>
</g>
<!-- W_Validate application&#45;&gt;O_Returned -->
<g id="edge46" class="edge">
<title>W_Validate application&#45;&gt;O_Returned</title>
<path fill="none" stroke="#ff0000" stroke-width="0.5" stroke-dasharray="5,2" d="M548.91,-535.68C600.18,-528.84 658.33,-519.94 683,-512 713.84,-502.07 731.05,-506.61 748,-479 763.11,-454.38 747.82,-422.57 732.77,-400.65"/>
<polygon fill="#ff0000" stroke="#ff0000" stroke-width="0.5" points="735.78,-398.85 727.08,-392.81 730.12,-402.96 735.78,-398.85"/>
<text text-anchor="middle" x="757.5" y="-457.3" font-family="Times,serif" font-size="14.00">2</text>
</g>
<!-- O_Accepted -->
<g id="node14" class="node">
<title>O_Accepted</title>
<polygon fill="#f1f1ff" stroke="black" points="649.5,-305 532.5,-305 532.5,-269 649.5,-269 649.5,-305"/>
<text text-anchor="middle" x="591" y="-283.3" font-family="Times,serif" font-size="14.00">O_Accepted (356)</text>
</g>
<!-- W_Validate application&#45;&gt;O_Accepted -->
<g id="edge19" class="edge">
<title>W_Validate application&#45;&gt;O_Accepted</title>
<path fill="none" stroke="#000000" stroke-width="1.65" d="M548.72,-535.88C621.85,-526.93 712.88,-515.31 721,-512 743.63,-502.77 752.36,-499.92 765,-479 793.45,-431.91 810.6,-401.04 779,-356 752.66,-318.46 703.42,-301.55 661.94,-293.99"/>
<polygon fill="#000000" stroke="#000000" stroke-width="1.65" points="662.53,-290.54 652.1,-292.37 661.4,-297.44 662.53,-290.54"/>
<text text-anchor="middle" x="805.5" y="-413.8" font-family="Times,serif" font-size="14.00">345</text>
</g>
<!-- A_Denied -->
<g id="node16" class="node">
<title>A_Denied</title>
<polygon fill="#fcfcff" stroke="black" points="563,-479 465,-479 465,-443 563,-443 563,-479"/>
<text text-anchor="middle" x="514" y="-457.3" font-family="Times,serif" font-size="14.00">A_Denied (79)</text>
</g>
<!-- W_Validate application&#45;&gt;A_Denied -->
<g id="edge25" class="edge">
<title>W_Validate application&#45;&gt;A_Denied</title>
<path fill="none" stroke="#ff0000" stroke-width="0.76" stroke-dasharray="5,2" d="M467.74,-529.8C475.86,-517.9 486.82,-501.83 496.04,-488.32"/>
<polygon fill="#ff0000" stroke="#ff0000" stroke-width="0.76" points="498.69,-490.65 501.43,-480.42 492.91,-486.7 498.69,-490.65"/>
<text text-anchor="middle" x="495" y="-500.8" font-family="Times,serif" font-size="14.00">79</text>
</g>
<!-- W_Call incomplete files -->
<g id="node18" class="node">
<title>W_Call incomplete files</title>
<polygon fill="#fdfdff" stroke="black" points="512.5,-131 335.5,-131 335.5,-95 512.5,-95 512.5,-131"/>
<text text-anchor="middle" x="424" y="-109.3" font-family="Times,serif" font-size="14.00">W_Call incomplete files (40)</text>
</g>
<!-- W_Validate application&#45;&gt;W_Call incomplete files -->
<g id="edge28" class="edge">
<title>W_Validate application&#45;&gt;W_Call incomplete files</title>
<path fill="none" stroke="#ff0000" stroke-width="0.52" stroke-dasharray="5,2" d="M407.2,-529.6C378.98,-516.08 349,-494.15 349,-462 349,-462 349,-462 349,-199 349,-173.91 367.6,-152.73 386.27,-137.79"/>
<polygon fill="#ff0000" stroke="#ff0000" stroke-width="0.52" points="388.27,-140.66 394.16,-131.85 384.06,-135.07 388.27,-140.66"/>
<text text-anchor="middle" x="352.5" y="-326.8" font-family="Times,serif" font-size="14.00">9</text>
</g>
<!-- W_Validate application&#45;&gt;O_Cancelled -->
<g id="edge38" class="edge">
<title>W_Validate application&#45;&gt;O_Cancelled</title>
<path fill="none" stroke="#ff0000" stroke-width="0.54" stroke-dasharray="5,2" d="M363.32,-535.09C336.47,-529.86 307.53,-522.44 282,-512 270.7,-507.38 269.36,-503.45 259,-497 252.53,-492.98 245.62,-488.78 238.88,-484.75"/>
<polygon fill="#ff0000" stroke="#ff0000" stroke-width="0.54" points="240.95,-481.9 230.56,-479.8 237.37,-487.92 240.95,-481.9"/>
<text text-anchor="middle" x="289" y="-500.8" font-family="Times,serif" font-size="14.00">14</text>
</g>
<!-- end_node -->
<g id="node22" class="node">
<title>end_node</title>
<ellipse fill="none" stroke="black" cx="300" cy="-22" rx="18" ry="18"/>
<ellipse fill="none" stroke="black" cx="300" cy="-22" rx="22" ry="22"/>
<text text-anchor="start" x="295.5" y="-18.3" font-family="Times,serif" font-size="14.00">■</text>
</g>
<!-- W_Validate application&#45;&gt;end_node -->
<g id="edge50" class="edge">
<title>W_Validate application&#45;&gt;end_node</title>
<path fill="none" stroke="#000000" stroke-width="1.88" d="M387.08,-529.58C377.23,-525 367.81,-519.23 360,-512 305.66,-461.69 300,-510.83 300,-244.5 300,-244.5 300,-244.5 300,-112 300,-93.71 300,-73.31 300,-56.66"/>
<polygon fill="#000000" stroke="#000000" stroke-width="1.88" points="303.5,-57.06 300,-47.06 296.5,-57.06 303.5,-57.06"/>
<text text-anchor="middle" x="310.5" y="-283.3" font-family="Times,serif" font-size="14.00">412</text>
</g>
<!-- A_Validating&#45;&gt;W_Validate application -->
<g id="edge45" class="edge">
<title>A_Validating&#45;&gt;W_Validate application</title>
<path fill="none" stroke="#ff0000" stroke-width="0.5" stroke-dasharray="5,2" d="M626.57,-479.08C615.88,-489.95 600.77,-503.54 585,-512 574.72,-517.52 563.5,-522.22 552.11,-526.21"/>
<polygon fill="#ff0000" stroke="#ff0000" stroke-width="0.5" points="551.19,-522.83 542.8,-529.3 553.39,-529.47 551.19,-522.83"/>
<text text-anchor="middle" x="608.5" y="-500.8" font-family="Times,serif" font-size="14.00">2</text>
</g>
<!-- A_Validating&#45;&gt;O_Returned -->
<g id="edge17" class="edge">
<title>A_Validating&#45;&gt;O_Returned</title>
<path fill="none" stroke="#000000" stroke-width="1.95" d="M656.17,-442.8C665.78,-431.12 678.69,-415.45 689.68,-402.11"/>
<polygon fill="#000000" stroke="#000000" stroke-width="1.95" points="692.09,-404.69 695.74,-394.74 686.68,-400.24 692.09,-404.69"/>
<text text-anchor="middle" x="691.5" y="-413.8" font-family="Times,serif" font-size="14.00">433</text>
</g>
<!-- O_Returned&#45;&gt;W_Validate application -->
<g id="edge18" class="edge">
<title>O_Returned&#45;&gt;W_Validate application</title>
<path fill="none" stroke="#000000" stroke-width="1.95" d="M717.62,-392.3C723.69,-414.57 730.25,-453.43 712,-479 693.97,-504.26 623.81,-521.78 561.49,-532.71"/>
<polygon fill="#000000" stroke="#000000" stroke-width="1.95" points="560.92,-529.25 551.65,-534.38 562.09,-536.16 560.92,-529.25"/>
<text text-anchor="middle" x="733.5" y="-457.3" font-family="Times,serif" font-size="14.00">433</text>
</g>
<!-- O_Returned&#45;&gt;O_Accepted -->
<g id="edge47" class="edge">
<title>O_Returned&#45;&gt;O_Accepted</title>
<path fill="none" stroke="#ff0000" stroke-width="0.5" stroke-dasharray="5,2" d="M687.22,-355.59C669.11,-342.87 644.36,-325.48 624.49,-311.52"/>
<polygon fill="#ff0000" stroke="#ff0000" stroke-width="0.5" points="626.56,-308.7 616.36,-305.82 622.54,-314.43 626.56,-308.7"/>
<text text-anchor="middle" x="661.5" y="-326.8" font-family="Times,serif" font-size="14.00">2</text>
</g>
<!-- A_Pending -->
<g id="node15" class="node">
<title>A_Pending</title>
<polygon fill="#f1f1ff" stroke="black" points="487,-218 377,-218 377,-182 487,-182 487,-218"/>
<text text-anchor="middle" x="432" y="-196.3" font-family="Times,serif" font-size="14.00">A_Pending (356)</text>
</g>
<!-- O_Accepted&#45;&gt;A_Pending -->
<g id="edge20" class="edge">
<title>O_Accepted&#45;&gt;A_Pending</title>
<path fill="none" stroke="#000000" stroke-width="1.69" d="M540.59,-268.66C527.72,-263.57 514.11,-257.58 502,-251 488.7,-243.78 474.97,-234.44 463.22,-225.79"/>
<polygon fill="#000000" stroke="#000000" stroke-width="1.69" points="465.6,-223.21 455.51,-219.98 461.39,-228.8 465.6,-223.21"/>
<text text-anchor="middle" x="512.5" y="-239.8" font-family="Times,serif" font-size="14.00">356</text>
</g>
<!-- A_Pending&#45;&gt;W_Validate application -->
<g id="edge21" class="edge">
<title>A_Pending&#45;&gt;W_Validate application</title>
<path fill="none" stroke="#000000" stroke-width="1.66" d="M427.61,-218.37C419.69,-251.92 404.4,-327.96 411,-392 416.58,-446.19 416.69,-461.06 436,-512 436.86,-514.26 437.84,-516.54 438.91,-518.81"/>
<polygon fill="#000000" stroke="#000000" stroke-width="1.66" points="435.75,-520.31 443.53,-527.51 441.93,-517.03 435.75,-520.31"/>
<text text-anchor="middle" x="421.5" y="-370.3" font-family="Times,serif" font-size="14.00">347</text>
</g>
<!-- A_Pending&#45;&gt;W_Call incomplete files -->
<g id="edge33" class="edge">
<title>A_Pending&#45;&gt;W_Call incomplete files</title>
<path fill="none" stroke="#ff0000" stroke-width="0.52" stroke-dasharray="5,2" d="M430.38,-181.8C429.3,-170.35 427.86,-155.06 426.63,-141.89"/>
<polygon fill="#ff0000" stroke="#ff0000" stroke-width="0.52" points="430.14,-141.88 425.72,-132.26 423.17,-142.54 430.14,-141.88"/>
<text text-anchor="middle" x="431.5" y="-152.8" font-family="Times,serif" font-size="14.00">9</text>
</g>
<!-- O_Refused -->
<g id="node17" class="node">
<title>O_Refused</title>
<polygon fill="#fbfbff" stroke="black" points="545,-392 441,-392 441,-356 545,-356 545,-392"/>
<text text-anchor="middle" x="493" y="-370.3" font-family="Times,serif" font-size="14.00">O_Refused (87)</text>
</g>
<!-- A_Denied&#45;&gt;O_Refused -->
<g id="edge26" class="edge">
<title>A_Denied&#45;&gt;O_Refused</title>
<path fill="none" stroke="#ff0000" stroke-width="0.76" stroke-dasharray="5,2" d="M509.75,-442.8C506.95,-431.47 503.22,-416.36 499.99,-403.29"/>
<polygon fill="#ff0000" stroke="#ff0000" stroke-width="0.76" points="503.39,-402.45 497.59,-393.58 496.59,-404.13 503.39,-402.45"/>
<text text-anchor="middle" x="511" y="-413.8" font-family="Times,serif" font-size="14.00">79</text>
</g>
<!-- O_Refused&#45;&gt;W_Validate application -->
<g id="edge27" class="edge">
<title>O_Refused&#45;&gt;W_Validate application</title>
<path fill="none" stroke="#ff0000" stroke-width="0.76" stroke-dasharray="5,2" d="M474.84,-392.43C462.96,-405.17 448.49,-423.54 442,-443 433.7,-467.91 439.18,-497.73 445.56,-519.04"/>
<polygon fill="#ff0000" stroke="#ff0000" stroke-width="0.76" points="442.22,-520.11 448.65,-528.53 448.88,-517.94 442.22,-520.11"/>
<text text-anchor="middle" x="449" y="-457.3" font-family="Times,serif" font-size="14.00">79</text>
</g>
<!-- O_Refused&#45;&gt;O_Refused -->
<g id="edge39" class="edge">
<title>O_Refused&#45;&gt;O_Refused</title>
<path fill="none" stroke="#ff0000" stroke-width="0.52" stroke-dasharray="5,2" d="M545.2,-381.82C555.59,-380.94 563,-378.33 563,-374 563,-371.36 560.25,-369.36 555.75,-368"/>
<polygon fill="#ff0000" stroke="#ff0000" stroke-width="0.52" points="556.43,-364.57 545.98,-366.31 555.24,-371.47 556.43,-364.57"/>
<text text-anchor="middle" x="566.5" y="-370.3" font-family="Times,serif" font-size="14.00">8</text>
</g>
<!-- W_Call incomplete files&#45;&gt;O_Accepted -->
<g id="edge32" class="edge">
<title>W_Call incomplete files&#45;&gt;O_Accepted</title>
<path fill="none" stroke="#ff0000" stroke-width="0.52" stroke-dasharray="5,2" d="M443.01,-131.24C457.74,-144.77 478.52,-164.23 496,-182 521.73,-208.17 549.95,-239.4 568.88,-260.76"/>
<polygon fill="#ff0000" stroke="#ff0000" stroke-width="0.52" points="566.14,-262.94 575.38,-268.12 571.39,-258.3 566.14,-262.94"/>
<text text-anchor="middle" x="533.5" y="-196.3" font-family="Times,serif" font-size="14.00">9</text>
</g>
<!-- W_Call incomplete files&#45;&gt;W_Call incomplete files -->
<g id="edge29" class="edge">
<title>W_Call incomplete files&#45;&gt;W_Call incomplete files</title>
<path fill="none" stroke="#ff0000" stroke-width="0.54" stroke-dasharray="5,2" d="M512.95,-120.01C523.57,-118.73 530.5,-116.4 530.5,-113 530.5,-110.93 527.93,-109.25 523.51,-107.97"/>
<polygon fill="#ff0000" stroke="#ff0000" stroke-width="0.54" points="524.22,-104.54 513.75,-106.14 522.93,-111.42 524.22,-104.54"/>
<text text-anchor="middle" x="537.5" y="-109.3" font-family="Times,serif" font-size="14.00">13</text>
</g>
<!-- A_Incomplete -->
<g id="node19" class="node">
<title>A_Incomplete</title>
<polygon fill="#ffffff" stroke="black" points="481,-40 367,-40 367,-4 481,-4 481,-40"/>
<text text-anchor="middle" x="424" y="-18.3" font-family="Times,serif" font-size="14.00">A_Incomplete (9)</text>
</g>
<!-- W_Call incomplete files&#45;&gt;A_Incomplete -->
<g id="edge30" class="edge">
<title>W_Call incomplete files&#45;&gt;A_Incomplete</title>
<path fill="none" stroke="#ff0000" stroke-width="0.52" stroke-dasharray="5,2" d="M424,-94.84C424,-82.36 424,-65.2 424,-50.78"/>
<polygon fill="#ff0000" stroke="#ff0000" stroke-width="0.52" points="427.5,-51.2 424,-41.2 420.5,-51.2 427.5,-51.2"/>
<text text-anchor="middle" x="427.5" y="-65.8" font-family="Times,serif" font-size="14.00">9</text>
</g>
<!-- W_Call incomplete files&#45;&gt;end_node -->
<g id="edge51" class="edge">
<title>W_Call incomplete files&#45;&gt;end_node</title>
<path fill="none" stroke="#ff0000" stroke-width="0.52" stroke-dasharray="5,2" d="M399.8,-94.63C378.71,-79.49 348.18,-57.58 326.45,-41.98"/>
<polygon fill="#ff0000" stroke="#ff0000" stroke-width="0.52" points="328.54,-39.17 318.37,-36.19 324.45,-44.86 328.54,-39.17"/>
<text text-anchor="middle" x="376.5" y="-65.8" font-family="Times,serif" font-size="14.00">9</text>
</g>
<!-- A_Incomplete&#45;&gt;W_Call incomplete files -->
<g id="edge31" class="edge">
<title>A_Incomplete&#45;&gt;W_Call incomplete files</title>
<path fill="none" stroke="#ff0000" stroke-width="0.52" stroke-dasharray="5,2" d="M417.26,-40.43C413.98,-50.97 411.11,-64.71 413,-77 413.38,-79.5 413.91,-82.06 414.53,-84.61"/>
<polygon fill="#ff0000" stroke="#ff0000" stroke-width="0.52" points="411.11,-85.39 417.23,-94.04 417.84,-83.46 411.11,-85.39"/>
<text text-anchor="middle" x="416.5" y="-65.8" font-family="Times,serif" font-size="14.00">9</text>
</g>
<!-- O_Cancelled&#45;&gt;O_Create Offer -->
<g id="edge49" class="edge">
<title>O_Cancelled&#45;&gt;O_Create Offer</title>
<path fill="none" stroke="#ff0000" stroke-width="0.5" stroke-dasharray="5,2" d="M195.42,-479.44C191.33,-496.53 186,-523.37 186,-547 186,-810 186,-810 186,-810 186,-839.84 210.8,-860.02 238.13,-873.2"/>
<polygon fill="#ff0000" stroke="#ff0000" stroke-width="0.5" points="236.61,-876.35 247.17,-877.26 239.48,-869.97 236.61,-876.35"/>
<text text-anchor="middle" x="189.5" y="-674.8" font-family="Times,serif" font-size="14.00">2</text>
</g>
<!-- O_Cancelled&#45;&gt;O_Cancelled -->
<g id="edge44" class="edge">
<title>O_Cancelled&#45;&gt;O_Cancelled</title>
<path fill="none" stroke="#ff0000" stroke-width="0.51" stroke-dasharray="5,2" d="M256.84,-468.71C267.22,-467.73 274.5,-465.16 274.5,-461 274.5,-458.46 271.8,-456.52 267.34,-455.16"/>
<polygon fill="#ff0000" stroke="#ff0000" stroke-width="0.51" points="268.06,-451.74 257.6,-453.43 266.83,-458.63 268.06,-451.74"/>
<text text-anchor="middle" x="278" y="-457.3" font-family="Times,serif" font-size="14.00">5</text>
</g>
<!-- O_Cancelled&#45;&gt;end_node -->
<g id="edge52" class="edge">
<title>O_Cancelled&#45;&gt;end_node</title>
<path fill="none" stroke="#ff0000" stroke-width="0.54" stroke-dasharray="5,2" d="M208.32,-442.53C215.6,-425.65 225,-399.15 225,-375 225,-375 225,-375 225,-112 225,-81.41 251.22,-55.88 272.66,-40.12"/>
<polygon fill="#ff0000" stroke="#ff0000" stroke-width="0.54" points="274.59,-43.04 280.79,-34.44 270.59,-37.3 274.59,-43.04"/>
<text text-anchor="middle" x="232" y="-239.8" font-family="Times,serif" font-size="14.00">14</text>
</g>
<!-- O_Sent (online only)&#45;&gt;W_Complete application -->
<g id="edge41" class="edge">
<title>O_Sent (online only)&#45;&gt;W_Complete application</title>
<path fill="none" stroke="#ff0000" stroke-width="0.53" stroke-dasharray="5,2" d="M90.85,-740.38C101,-756.99 114,-783.1 114,-808 114,-1071 114,-1071 114,-1071 114,-1099.62 177.46,-1121.63 237.71,-1136.07"/>
<polygon fill="#ff0000" stroke="#ff0000" stroke-width="0.53" points="236.81,-1139.45 247.34,-1138.32 238.4,-1132.64 236.81,-1139.45"/>
<text text-anchor="middle" x="121" y="-935.8" font-family="Times,serif" font-size="14.00">11</text>
</g>
</g>
</svg>
