<?xml version="1.0" encoding="UTF-8" standalone="no"?>
<!DOCTYPE svg PUBLIC "-//W3C//DTD SVG 1.1//EN"
 "http://www.w3.org/Graphics/SVG/1.1/DTD/svg11.dtd">
<!-- Generated by graphviz version 7.0.5 (0)
 -->
<!-- Title: dfg Pages: 1 -->
<svg width="895pt" height="1357pt"
 viewBox="0.00 0.00 895.00 1357.00" xmlns="http://www.w3.org/2000/svg" xmlns:xlink="http://www.w3.org/1999/xlink">
<g id="graph0" class="graph" transform="scale(1 1) rotate(0) translate(4 1353)">
<title>dfg</title>
<polygon fill="white" stroke="none" points="-4,4 -4,-1353 891,-1353 891,4 -4,4"/>
<!-- start_node -->
<g id="node1" class="node">
<title>start_node</title>
<ellipse fill="none" stroke="black" cx="231" cy="-1331" rx="18" ry="18"/>
<text text-anchor="start" x="226.5" y="-1327.3" font-family="Times,serif" font-size="14.00">●</text>
</g>
<!-- A_Create Application -->
<g id="node2" class="node">
<title>A_Create Application</title>
<polygon fill="#eeeeff" stroke="black" points="318.5,-1262 143.5,-1262 143.5,-1226 318.5,-1226 318.5,-1262"/>
<text text-anchor="middle" x="231" y="-1240.3" font-family="Times,serif" font-size="14.00">A_Create Application (1944)</text>
</g>
<!-- start_node&#45;&gt;A_Create Application -->
<g id="edge1" class="edge">
<title>start_node&#45;&gt;A_Create Application</title>
<path fill="none" stroke="#000000" stroke-width="2.29" d="M231,-1312.8C231,-1302.15 231,-1288.18 231,-1275.69"/>
<polygon fill="#000000" stroke="#000000" stroke-width="2.29" points="234.5,-1275.93 231,-1265.93 227.5,-1275.93 234.5,-1275.93"/>
<text text-anchor="middle" x="245" y="-1283.8" font-family="Times,serif" font-size="14.00">1944</text>
</g>
<!-- A_Submitted -->
<g id="node3" class="node">
<title>A_Submitted</title>
<polygon fill="#f3f3ff" stroke="black" points="392.5,-1175 263.5,-1175 263.5,-1139 392.5,-1139 392.5,-1175"/>
<text text-anchor="middle" x="328" y="-1153.3" font-family="Times,serif" font-size="14.00">A_Submitted (1421)</text>
</g>
<!-- A_Create Application&#45;&gt;A_Submitted -->
<g id="edge2" class="edge">
<title>A_Create Application&#45;&gt;A_Submitted</title>
<path fill="none" stroke="#000000" stroke-width="1.81" d="M250.63,-1225.8C264.47,-1213.67 283.25,-1197.21 298.84,-1183.55"/>
<polygon fill="#000000" stroke="#000000" stroke-width="1.81" points="300.8,-1186.49 306.01,-1177.27 296.18,-1181.23 300.8,-1186.49"/>
<text text-anchor="middle" x="299" y="-1196.8" font-family="Times,serif" font-size="14.00">1421</text>
</g>
<!-- W_Complete application -->
<g id="node5" class="node">
<title>W_Complete application</title>
<polygon fill="#b6b6ff" stroke="black" points="430,-1001 236,-1001 236,-965 430,-965 430,-1001"/>
<text text-anchor="middle" x="333" y="-979.3" font-family="Times,serif" font-size="14.00">W_Complete application (8601)</text>
</g>
<!-- A_Create Application&#45;&gt;W_Complete application -->
<g id="edge20" class="edge">
<title>A_Create Application&#45;&gt;W_Complete application</title>
<path fill="none" stroke="#000000" stroke-width="0.84" d="M228.67,-1225.67C224.8,-1190.55 220.24,-1109.47 251,-1052 260.63,-1034.01 277.19,-1018.89 292.92,-1007.52"/>
<polygon fill="#000000" stroke="#000000" stroke-width="0.84" points="294.72,-1010.53 300.98,-1001.98 290.75,-1004.76 294.72,-1010.53"/>
<text text-anchor="middle" x="243.5" y="-1109.8" font-family="Times,serif" font-size="14.00">376</text>
</g>
<!-- A_Concept -->
<g id="node6" class="node">
<title>A_Concept</title>
<polygon fill="#eeeeff" stroke="black" points="247,-914 129,-914 129,-878 247,-878 247,-914"/>
<text text-anchor="middle" x="188" y="-892.3" font-family="Times,serif" font-size="14.00">A_Concept (1944)</text>
</g>
<!-- A_Create Application&#45;&gt;A_Concept -->
<g id="edge26" class="edge">
<title>A_Create Application&#45;&gt;A_Concept</title>
<path fill="none" stroke="#ff0000" stroke-width="0.63" stroke-dasharray="5,2" d="M143.01,-1227.41C77.73,-1213.25 0,-1189.73 0,-1158 0,-1158 0,-1158 0,-982 0,-928.38 64.28,-908.41 117.66,-901.06"/>
<polygon fill="#ff0000" stroke="#ff0000" stroke-width="0.63" points="118.07,-904.54 127.56,-899.83 117.21,-897.59 118.07,-904.54"/>
<text text-anchor="middle" x="10.5" y="-1066.3" font-family="Times,serif" font-size="14.00">147</text>
</g>
<!-- W_Handle leads -->
<g id="node4" class="node">
<title>W_Handle leads</title>
<polygon fill="#e5e5ff" stroke="black" points="406.5,-1088 259.5,-1088 259.5,-1052 406.5,-1052 406.5,-1088"/>
<text text-anchor="middle" x="333" y="-1066.3" font-family="Times,serif" font-size="14.00">W_Handle leads (3054)</text>
</g>
<!-- A_Submitted&#45;&gt;W_Handle leads -->
<g id="edge3" class="edge">
<title>A_Submitted&#45;&gt;W_Handle leads</title>
<path fill="none" stroke="#000000" stroke-width="1.81" d="M329.01,-1138.8C329.65,-1127.93 330.5,-1113.58 331.24,-1100.88"/>
<polygon fill="#000000" stroke="#000000" stroke-width="1.81" points="334.72,-1101.38 331.81,-1091.19 327.73,-1100.97 334.72,-1101.38"/>
<text text-anchor="middle" x="344" y="-1109.8" font-family="Times,serif" font-size="14.00">1421</text>
</g>
<!-- W_Handle leads&#45;&gt;W_Handle leads -->
<g id="edge4" class="edge">
<title>W_Handle leads&#45;&gt;W_Handle leads</title>
<path fill="none" stroke="#000000" stroke-width="2" d="M406.96,-1077.32C417.45,-1076.14 424.5,-1073.7 424.5,-1070 424.5,-1068.15 422.74,-1066.62 419.67,-1065.4"/>
<polygon fill="#000000" stroke="#000000" stroke-width="2" points="420.43,-1061.98 409.92,-1063.31 418.96,-1068.83 420.43,-1061.98"/>
<text text-anchor="middle" x="438.5" y="-1066.3" font-family="Times,serif" font-size="14.00">1633</text>
</g>
<!-- W_Handle leads&#45;&gt;W_Complete application -->
<g id="edge5" class="edge">
<title>W_Handle leads&#45;&gt;W_Complete application</title>
<path fill="none" stroke="#000000" stroke-width="1.81" d="M333,-1051.8C333,-1040.93 333,-1026.58 333,-1013.88"/>
<polygon fill="#000000" stroke="#000000" stroke-width="1.81" points="336.5,-1014.2 333,-1004.2 329.5,-1014.2 336.5,-1014.2"/>
<text text-anchor="middle" x="347" y="-1022.8" font-family="Times,serif" font-size="14.00">1421</text>
</g>
<!-- W_Complete application&#45;&gt;W_Complete application -->
<g id="edge21" class="edge">
<title>W_Complete application&#45;&gt;W_Complete application</title>
<path fill="none" stroke="#000000" stroke-width="3.57" d="M430.32,-989.86C441.06,-988.56 448,-986.27 448,-983 448,-981.77 447.02,-980.69 445.24,-979.74"/>
<polygon fill="#000000" stroke="#000000" stroke-width="3.57" points="446.12,-976.35 435.58,-977.41 444.48,-983.15 446.12,-976.35"/>
<text text-anchor="middle" x="462" y="-979.3" font-family="Times,serif" font-size="14.00">3341</text>
</g>
<!-- W_Complete application&#45;&gt;A_Concept -->
<g id="edge6" class="edge">
<title>W_Complete application&#45;&gt;A_Concept</title>
<path fill="none" stroke="#000000" stroke-width="2.15" d="M276.83,-964.65C264.58,-959.78 252,-953.9 241,-947 230.68,-940.53 220.62,-931.85 212.09,-923.54"/>
<polygon fill="#000000" stroke="#000000" stroke-width="2.15" points="214.63,-921.13 205.13,-916.44 209.63,-926.03 214.63,-921.13"/>
<text text-anchor="middle" x="255" y="-935.8" font-family="Times,serif" font-size="14.00">1797</text>
</g>
<!-- A_Accepted -->
<g id="node7" class="node">
<title>A_Accepted</title>
<polygon fill="#eeeeff" stroke="black" points="353,-827 229,-827 229,-791 353,-791 353,-827"/>
<text text-anchor="middle" x="291" y="-805.3" font-family="Times,serif" font-size="14.00">A_Accepted (1944)</text>
</g>
<!-- W_Complete application&#45;&gt;A_Accepted -->
<g id="edge8" class="edge">
<title>W_Complete application&#45;&gt;A_Accepted</title>
<path fill="none" stroke="#000000" stroke-width="1.84" d="M328.74,-964.56C321.57,-935.2 307.02,-875.59 298.22,-839.58"/>
<polygon fill="#000000" stroke="#000000" stroke-width="1.84" points="301.7,-839.07 295.93,-830.19 294.9,-840.74 301.7,-839.07"/>
<text text-anchor="middle" x="330" y="-892.3" font-family="Times,serif" font-size="14.00">1459</text>
</g>
<!-- O_Create Offer -->
<g id="node8" class="node">
<title>O_Create Offer</title>
<polygon fill="#ebebff" stroke="black" points="391.5,-740 250.5,-740 250.5,-704 391.5,-704 391.5,-740"/>
<text text-anchor="middle" x="321" y="-718.3" font-family="Times,serif" font-size="14.00">O_Create Offer (2297)</text>
</g>
<!-- W_Complete application&#45;&gt;O_Create Offer -->
<g id="edge31" class="edge">
<title>W_Complete application&#45;&gt;O_Create Offer</title>
<path fill="none" stroke="#ff0000" stroke-width="0.54" stroke-dasharray="5,2" d="M340.45,-964.59C353.92,-930.65 379.39,-853.53 362,-791 357.82,-775.97 349.32,-760.94 341.15,-748.85"/>
<polygon fill="#ff0000" stroke="#ff0000" stroke-width="0.54" points="344.14,-747.02 335.5,-740.89 338.43,-751.07 344.14,-747.02"/>
<text text-anchor="middle" x="374" y="-848.8" font-family="Times,serif" font-size="14.00">41</text>
</g>
<!-- O_Sent (mail and online) -->
<g id="node10" class="node">
<title>O_Sent (mail and online)</title>
<polygon fill="#ebebff" stroke="black" points="446.5,-131 251.5,-131 251.5,-95 446.5,-95 446.5,-131"/>
<text text-anchor="middle" x="349" y="-109.3" font-family="Times,serif" font-size="14.00">O_Sent (mail and online) (2259)</text>
</g>
<!-- W_Complete application&#45;&gt;O_Sent (mail and online) -->
<g id="edge33" class="edge">
<title>W_Complete application&#45;&gt;O_Sent (mail and online)</title>
<path fill="none" stroke="#ff0000" stroke-width="0.52" stroke-dasharray="5,2" d="M235.55,-973.83C145.31,-963.49 25,-941.38 25,-897 25,-897 25,-897 25,-199 25,-153.39 146.66,-131.76 240.88,-121.85"/>
<polygon fill="#ff0000" stroke="#ff0000" stroke-width="0.52" points="240.98,-125.36 250.57,-120.86 240.27,-118.39 240.98,-125.36"/>
<text text-anchor="middle" x="32" y="-544.3" font-family="Times,serif" font-size="14.00">19</text>
</g>
<!-- W_Call after offers -->
<g id="node11" class="node">
<title>W_Call after offers</title>
<polygon fill="#9b9bff" stroke="black" points="641,-392 471,-392 471,-356 641,-356 641,-392"/>
<text text-anchor="middle" x="556" y="-370.3" font-family="Times,serif" font-size="14.00">W_Call after offers (11823)</text>
</g>
<!-- W_Complete application&#45;&gt;W_Call after offers -->
<g id="edge13" class="edge">
<title>W_Complete application&#45;&gt;W_Call after offers</title>
<path fill="none" stroke="#000000" stroke-width="2.28" d="M430.16,-969.37C506.15,-956.67 599,-933.66 599,-897 599,-897 599,-897 599,-460 599,-439.37 588.79,-418.67 578.32,-402.86"/>
<polygon fill="#000000" stroke="#000000" stroke-width="2.28" points="581.45,-401.21 572.8,-395.09 575.75,-405.27 581.45,-401.21"/>
<text text-anchor="middle" x="613" y="-674.8" font-family="Times,serif" font-size="14.00">1937</text>
</g>
<!-- end_node -->
<g id="node18" class="node">
<title>end_node</title>
<ellipse fill="none" stroke="black" cx="614" cy="-22" rx="18" ry="18"/>
<ellipse fill="none" stroke="black" cx="614" cy="-22" rx="22" ry="22"/>
<text text-anchor="start" x="609.5" y="-18.3" font-family="Times,serif" font-size="14.00">■</text>
</g>
<!-- W_Complete application&#45;&gt;end_node -->
<g id="edge54" class="edge">
<title>W_Complete application&#45;&gt;end_node</title>
<path fill="none" stroke="#ff0000" stroke-width="0.5" stroke-dasharray="5,2" d="M430.48,-976.62C587.74,-966.61 880,-941.96 880,-897 880,-897 880,-897 880,-112 880,-63.23 717.18,-36.3 646.31,-26.88"/>
<polygon fill="#ff0000" stroke="#ff0000" stroke-width="0.5" points="646.89,-23.43 636.53,-25.62 645.99,-30.37 646.89,-23.43"/>
<text text-anchor="middle" x="883.5" y="-500.8" font-family="Times,serif" font-size="14.00">7</text>
</g>
<!-- A_Concept&#45;&gt;W_Complete application -->
<g id="edge7" class="edge">
<title>A_Concept&#45;&gt;W_Complete application</title>
<path fill="none" stroke="#000000" stroke-width="1.84" d="M183.91,-914.1C182.43,-924.71 182.63,-937.99 190,-947 195.45,-953.66 207.92,-959.24 223.35,-963.85"/>
<polygon fill="#000000" stroke="#000000" stroke-width="1.84" points="222.4,-967.21 232.97,-966.45 224.23,-960.46 222.4,-967.21"/>
<text text-anchor="middle" x="204" y="-935.8" font-family="Times,serif" font-size="14.00">1459</text>
</g>
<!-- A_Concept&#45;&gt;A_Accepted -->
<g id="edge22" class="edge">
<title>A_Concept&#45;&gt;A_Accepted</title>
<path fill="none" stroke="#000000" stroke-width="0.94" d="M208.78,-877.59C220.3,-867.95 234.92,-855.78 248,-845 252.15,-841.58 256.53,-837.99 260.85,-834.47"/>
<polygon fill="#000000" stroke="#000000" stroke-width="0.94" points="262.88,-837.33 268.42,-828.3 258.45,-831.9 262.88,-837.33"/>
<text text-anchor="middle" x="258.5" y="-848.8" font-family="Times,serif" font-size="14.00">485</text>
</g>
<!-- A_Accepted&#45;&gt;W_Complete application -->
<g id="edge30" class="edge">
<title>A_Accepted&#45;&gt;W_Complete application</title>
<path fill="none" stroke="#ff0000" stroke-width="0.54" stroke-dasharray="5,2" d="M287.53,-827.36C284.04,-848.36 280.31,-884.56 289,-914 293.47,-929.15 302.5,-944.1 311.21,-956.11"/>
<polygon fill="#ff0000" stroke="#ff0000" stroke-width="0.54" points="308.4,-958.2 317.25,-964.03 313.97,-953.95 308.4,-958.2"/>
<text text-anchor="middle" x="296" y="-892.3" font-family="Times,serif" font-size="14.00">41</text>
</g>
<!-- A_Accepted&#45;&gt;O_Create Offer -->
<g id="edge9" class="edge">
<title>A_Accepted&#45;&gt;O_Create Offer</title>
<path fill="none" stroke="#000000" stroke-width="2.25" d="M297.07,-790.8C300.91,-779.93 305.97,-765.58 310.45,-752.88"/>
<polygon fill="#000000" stroke="#000000" stroke-width="2.25" points="313.67,-754.27 313.7,-743.68 307.07,-751.94 313.67,-754.27"/>
<text text-anchor="middle" x="321" y="-761.8" font-family="Times,serif" font-size="14.00">1903</text>
</g>
<!-- O_Created -->
<g id="node9" class="node">
<title>O_Created</title>
<polygon fill="#ebebff" stroke="black" points="343.5,-653 228.5,-653 228.5,-617 343.5,-617 343.5,-653"/>
<text text-anchor="middle" x="286" y="-631.3" font-family="Times,serif" font-size="14.00">O_Created (2297)</text>
</g>
<!-- O_Create Offer&#45;&gt;O_Created -->
<g id="edge10" class="edge">
<title>O_Create Offer&#45;&gt;O_Created</title>
<path fill="none" stroke="#000000" stroke-width="2.61" d="M295.25,-703.54C289.89,-698.56 284.97,-692.65 282,-686 279.37,-680.12 278.6,-673.45 278.83,-666.96"/>
<polygon fill="#000000" stroke="#000000" stroke-width="2.61" points="282.27,-667.65 280.08,-657.28 275.33,-666.75 282.27,-667.65"/>
<text text-anchor="middle" x="296" y="-674.8" font-family="Times,serif" font-size="14.00">2297</text>
</g>
<!-- O_Created&#45;&gt;W_Complete application -->
<g id="edge32" class="edge">
<title>O_Created&#45;&gt;W_Complete application</title>
<path fill="none" stroke="#ff0000" stroke-width="0.52" stroke-dasharray="5,2" d="M343.61,-645.19C385.54,-655.55 435,-677.07 435,-721 435,-897 435,-897 435,-897 435,-925.1 411.86,-945.72 387.63,-959.6"/>
<polygon fill="#ff0000" stroke="#ff0000" stroke-width="0.52" points="386.17,-956.41 379.02,-964.23 389.49,-962.58 386.17,-956.41"/>
<text text-anchor="middle" x="442" y="-805.3" font-family="Times,serif" font-size="14.00">19</text>
</g>
<!-- O_Created&#45;&gt;O_Create Offer -->
<g id="edge23" class="edge">
<title>O_Created&#45;&gt;O_Create Offer</title>
<path fill="none" stroke="#ff0000" stroke-width="0.68" stroke-dasharray="5,2" d="M299.86,-653.39C303.62,-658.78 307.36,-664.92 310,-671 313,-677.93 315.22,-685.77 316.85,-693.16"/>
<polygon fill="#ff0000" stroke="#ff0000" stroke-width="0.68" points="313.38,-693.65 318.7,-702.82 320.26,-692.34 313.38,-693.65"/>
<text text-anchor="middle" x="324.5" y="-674.8" font-family="Times,serif" font-size="14.00">200</text>
</g>
<!-- O_Created&#45;&gt;O_Sent (mail and online) -->
<g id="edge11" class="edge">
<title>O_Created&#45;&gt;O_Sent (mail and online)</title>
<path fill="none" stroke="#000000" stroke-width="2.38" d="M244.02,-616.62C217.8,-602.67 189,-580.24 189,-549 189,-549 189,-549 189,-199 189,-168.59 211.82,-149.02 240.23,-136.45"/>
<polygon fill="#000000" stroke="#000000" stroke-width="2.38" points="241.36,-139.77 249.35,-132.81 238.76,-133.27 241.36,-139.77"/>
<text text-anchor="middle" x="203" y="-370.3" font-family="Times,serif" font-size="14.00">2046</text>
</g>
<!-- A_Cancelled -->
<g id="node13" class="node">
<title>A_Cancelled</title>
<polygon fill="#eeeeff" stroke="black" points="430.5,-479 303.5,-479 303.5,-443 430.5,-443 430.5,-479"/>
<text text-anchor="middle" x="367" y="-457.3" font-family="Times,serif" font-size="14.00">A_Cancelled (1924)</text>
</g>
<!-- O_Created&#45;&gt;A_Cancelled -->
<g id="edge41" class="edge">
<title>O_Created&#45;&gt;A_Cancelled</title>
<path fill="none" stroke="#ff0000" stroke-width="0.51" stroke-dasharray="5,2" d="M283.89,-616.82C282.04,-595.37 281.44,-558.07 295,-530 303.38,-512.66 318.21,-497.47 332.24,-485.88"/>
<polygon fill="#ff0000" stroke="#ff0000" stroke-width="0.51" points="334.07,-488.9 339.76,-479.95 329.74,-483.4 334.07,-488.9"/>
<text text-anchor="middle" x="302" y="-544.3" font-family="Times,serif" font-size="14.00">11</text>
</g>
<!-- O_Cancelled -->
<g id="node14" class="node">
<title>O_Cancelled</title>
<polygon fill="#ebebff" stroke="black" points="346.5,-218 219.5,-218 219.5,-182 346.5,-182 346.5,-218"/>
<text text-anchor="middle" x="283" y="-196.3" font-family="Times,serif" font-size="14.00">O_Cancelled (2273)</text>
</g>
<!-- O_Created&#45;&gt;O_Cancelled -->
<g id="edge39" class="edge">
<title>O_Created&#45;&gt;O_Cancelled</title>
<path fill="none" stroke="#ff0000" stroke-width="0.5" stroke-dasharray="5,2" d="M281.23,-616.69C279.91,-611.09 278.66,-604.82 278,-599 277.25,-592.38 277.96,-590.67 278,-584 278.87,-450.97 281.43,-291.97 282.51,-228.83"/>
<polygon fill="#ff0000" stroke="#ff0000" stroke-width="0.5" points="286.01,-229 282.68,-218.94 279.01,-228.88 286.01,-229"/>
<text text-anchor="middle" x="282.5" y="-413.8" font-family="Times,serif" font-size="14.00">6</text>
</g>
<!-- O_Sent (online only) -->
<g id="node15" class="node">
<title>O_Sent (online only)</title>
<polygon fill="#fefeff" stroke="black" points="476,-566 318,-566 318,-530 476,-530 476,-566"/>
<text text-anchor="middle" x="397" y="-544.3" font-family="Times,serif" font-size="14.00">O_Sent (online only) (15)</text>
</g>
<!-- O_Created&#45;&gt;O_Sent (online only) -->
<g id="edge34" class="edge">
<title>O_Created&#45;&gt;O_Sent (online only)</title>
<path fill="none" stroke="#ff0000" stroke-width="0.51" stroke-dasharray="5,2" d="M308.73,-616.59C325.19,-603.99 347.64,-586.79 365.79,-572.9"/>
<polygon fill="#ff0000" stroke="#ff0000" stroke-width="0.51" points="367.87,-575.71 373.68,-566.85 363.62,-570.15 367.87,-575.71"/>
<text text-anchor="middle" x="355" y="-587.8" font-family="Times,serif" font-size="14.00">15</text>
</g>
<!-- O_Sent (mail and online)&#45;&gt;W_Complete application -->
<g id="edge12" class="edge">
<title>O_Sent (mail and online)&#45;&gt;W_Complete application</title>
<path fill="none" stroke="#000000" stroke-width="2.27" d="M446.76,-114.04C547.49,-115.58 696.68,-122.49 747,-149 794.63,-174.09 824,-188.67 824,-242.5 824,-897 824,-897 824,-897 824,-935.35 588.38,-961.36 443.58,-973.72"/>
<polygon fill="#000000" stroke="#000000" stroke-width="2.27" points="443.4,-970.22 433.72,-974.55 443.98,-977.2 443.4,-970.22"/>
<text text-anchor="middle" x="838" y="-544.3" font-family="Times,serif" font-size="14.00">1928</text>
</g>
<!-- O_Sent (mail and online)&#45;&gt;O_Create Offer -->
<g id="edge51" class="edge">
<title>O_Sent (mail and online)&#45;&gt;O_Create Offer</title>
<path fill="none" stroke="#ff0000" stroke-width="0.5" stroke-dasharray="5,2" d="M251.16,-124.86C169.71,-136.72 67,-159.5 67,-199 67,-592.5 67,-592.5 67,-592.5 67,-671.32 165.6,-701.81 239.93,-713.59"/>
<polygon fill="#ff0000" stroke="#ff0000" stroke-width="0.5" points="239.09,-717 249.5,-715.02 240.13,-710.08 239.09,-717"/>
<text text-anchor="middle" x="70.5" y="-413.8" font-family="Times,serif" font-size="14.00">2</text>
</g>
<!-- O_Sent (mail and online)&#45;&gt;O_Sent (mail and online) -->
<g id="edge24" class="edge">
<title>O_Sent (mail and online)&#45;&gt;O_Sent (mail and online)</title>
<path fill="none" stroke="#ff0000" stroke-width="0.67" stroke-dasharray="5,2" d="M446.74,-119.86C457.53,-118.56 464.5,-116.27 464.5,-113 464.5,-111.01 461.91,-109.38 457.45,-108.12"/>
<polygon fill="#ff0000" stroke="#ff0000" stroke-width="0.67" points="458.22,-104.7 447.75,-106.32 456.94,-111.58 458.22,-104.7"/>
<text text-anchor="middle" x="475" y="-109.3" font-family="Times,serif" font-size="14.00">190</text>
</g>
<!-- O_Sent (mail and online)&#45;&gt;W_Call after offers -->
<g id="edge29" class="edge">
<title>O_Sent (mail and online)&#45;&gt;W_Call after offers</title>
<path fill="none" stroke="#ff0000" stroke-width="0.55" stroke-dasharray="5,2" d="M398.81,-131.47C409.02,-136.28 419.3,-142.11 428,-149 466.06,-179.12 469.17,-194.3 494,-236 515.55,-272.2 534.57,-317.21 545.68,-345.53"/>
<polygon fill="#ff0000" stroke="#ff0000" stroke-width="0.55" points="542.38,-346.68 549.25,-354.74 548.91,-344.15 542.38,-346.68"/>
<text text-anchor="middle" x="509" y="-239.8" font-family="Times,serif" font-size="14.00">51</text>
</g>
<!-- O_Sent (mail and online)&#45;&gt;A_Cancelled -->
<g id="edge28" class="edge">
<title>O_Sent (mail and online)&#45;&gt;A_Cancelled</title>
<path fill="none" stroke="#ff0000" stroke-width="0.58" stroke-dasharray="5,2" d="M365.17,-131.48C375.94,-144.37 389.15,-162.92 395,-182 399.69,-197.3 398.97,-202.5 395,-218 388.58,-243.05 373.42,-243.95 367,-269 352.55,-325.33 357.9,-394.11 362.7,-431.85"/>
<polygon fill="#ff0000" stroke="#ff0000" stroke-width="0.58" points="359.22,-432.22 364.03,-441.65 366.15,-431.27 359.22,-432.22"/>
<text text-anchor="middle" x="374" y="-283.3" font-family="Times,serif" font-size="14.00">86</text>
</g>
<!-- O_Sent (mail and online)&#45;&gt;end_node -->
<g id="edge55" class="edge">
<title>O_Sent (mail and online)&#45;&gt;end_node</title>
<path fill="none" stroke="#ff0000" stroke-width="0.5" stroke-dasharray="5,2" d="M401.04,-94.52C455.32,-76.29 538.6,-48.32 583.23,-33.33"/>
<polygon fill="#ff0000" stroke="#ff0000" stroke-width="0.5" points="584.1,-36.73 592.47,-30.23 581.87,-30.1 584.1,-36.73"/>
<text text-anchor="middle" x="500.5" y="-65.8" font-family="Times,serif" font-size="14.00">2</text>
</g>
<!-- W_Call after offers&#45;&gt;O_Create Offer -->
<g id="edge27" class="edge">
<title>W_Call after offers&#45;&gt;O_Create Offer</title>
<path fill="none" stroke="#ff0000" stroke-width="0.62" stroke-dasharray="5,2" d="M558.83,-392.44C566.26,-445 580.56,-603.38 499,-686 485.19,-699.99 442.52,-708.66 402.42,-713.87"/>
<polygon fill="#ff0000" stroke="#ff0000" stroke-width="0.62" points="402.18,-710.37 392.69,-715.07 403.04,-717.32 402.18,-710.37"/>
<text text-anchor="middle" x="571.5" y="-544.3" font-family="Times,serif" font-size="14.00">136</text>
</g>
<!-- W_Call after offers&#45;&gt;W_Call after offers -->
<g id="edge14" class="edge">
<title>W_Call after offers&#45;&gt;W_Call after offers</title>
<path fill="none" stroke="#000000" stroke-width="6" d="M641.25,-381.1C651.95,-379.85 659,-377.48 659,-374 659,-372.91 658.31,-371.93 657.04,-371.06"/>
<polygon fill="#000000" stroke="#000000" stroke-width="6" points="658.5,-366.02 647.49,-368.54 655.82,-376.17 658.5,-366.02"/>
<text text-anchor="middle" x="673" y="-370.3" font-family="Times,serif" font-size="14.00">5982</text>
</g>
<!-- A_Complete -->
<g id="node12" class="node">
<title>A_Complete</title>
<polygon fill="#eeeeff" stroke="black" points="670,-305 544,-305 544,-269 670,-269 670,-305"/>
<text text-anchor="middle" x="607" y="-283.3" font-family="Times,serif" font-size="14.00">A_Complete (1937)</text>
</g>
<!-- W_Call after offers&#45;&gt;A_Complete -->
<g id="edge15" class="edge">
<title>W_Call after offers&#45;&gt;A_Complete</title>
<path fill="none" stroke="#000000" stroke-width="2.28" d="M572.06,-355.56C576.58,-350.16 581.27,-344.04 585,-338 588.94,-331.63 592.54,-324.42 595.64,-317.51"/>
<polygon fill="#000000" stroke="#000000" stroke-width="2.28" points="598.8,-319.01 599.45,-308.44 592.35,-316.3 598.8,-319.01"/>
<text text-anchor="middle" x="606" y="-326.8" font-family="Times,serif" font-size="14.00">1937</text>
</g>
<!-- W_Call after offers&#45;&gt;A_Cancelled -->
<g id="edge17" class="edge">
<title>W_Call after offers&#45;&gt;A_Cancelled</title>
<path fill="none" stroke="#000000" stroke-width="2.17" d="M470.89,-382.44C446.77,-387.55 421.52,-396.02 401,-410 393.07,-415.4 386.47,-423.31 381.26,-431.26"/>
<polygon fill="#000000" stroke="#000000" stroke-width="2.17" points="378.3,-429.4 376.28,-439.8 384.34,-432.92 378.3,-429.4"/>
<text text-anchor="middle" x="415" y="-413.8" font-family="Times,serif" font-size="14.00">1818</text>
</g>
<!-- W_Call after offers&#45;&gt;O_Cancelled -->
<g id="edge43" class="edge">
<title>W_Call after offers&#45;&gt;O_Cancelled</title>
<path fill="none" stroke="#ff0000" stroke-width="0.5" stroke-dasharray="5,2" d="M516.72,-355.6C505.36,-350.26 493.05,-344.15 482,-338 458.41,-324.87 452.99,-320.67 431,-305 409.86,-289.93 406.04,-284.21 385,-269 363.56,-253.5 338.89,-237.02 319.18,-224.16"/>
<polygon fill="#ff0000" stroke="#ff0000" stroke-width="0.5" points="321.16,-221.27 310.86,-218.76 317.35,-227.14 321.16,-221.27"/>
<text text-anchor="middle" x="434.5" y="-283.3" font-family="Times,serif" font-size="14.00">5</text>
</g>
<!-- A_Denied -->
<g id="node16" class="node">
<title>A_Denied</title>
<polygon fill="#ffffff" stroke="black" points="758,-218 660,-218 660,-182 758,-182 758,-218"/>
<text text-anchor="middle" x="709" y="-196.3" font-family="Times,serif" font-size="14.00">A_Denied (12)</text>
</g>
<!-- W_Call after offers&#45;&gt;A_Denied -->
<g id="edge36" class="edge">
<title>W_Call after offers&#45;&gt;A_Denied</title>
<path fill="none" stroke="#ff0000" stroke-width="0.51" stroke-dasharray="5,2" d="M641.46,-363.39C672.59,-357.98 702.5,-349.86 712,-338 736.74,-307.1 728.05,-258.49 718.94,-228.25"/>
<polygon fill="#ff0000" stroke="#ff0000" stroke-width="0.51" points="722.39,-227.55 715.99,-219.11 715.73,-229.7 722.39,-227.55"/>
<text text-anchor="middle" x="735" y="-283.3" font-family="Times,serif" font-size="14.00">10</text>
</g>
<!-- W_Call after offers&#45;&gt;end_node -->
<g id="edge53" class="edge">
<title>W_Call after offers&#45;&gt;end_node</title>
<path fill="none" stroke="#000000" stroke-width="2.28" d="M615.54,-355.51C639.86,-345.05 665.42,-328.99 679,-305 694.34,-277.91 688.57,-258.44 667,-236 652.36,-220.77 635.18,-235.27 623,-218 589.3,-170.23 596.93,-98.3 605.49,-56.46"/>
<polygon fill="#000000" stroke="#000000" stroke-width="2.28" points="608.87,-57.39 607.63,-46.86 602.04,-55.87 608.87,-57.39"/>
<text text-anchor="middle" x="637" y="-196.3" font-family="Times,serif" font-size="14.00">1935</text>
</g>
<!-- A_Complete&#45;&gt;O_Create Offer -->
<g id="edge46" class="edge">
<title>A_Complete&#45;&gt;O_Create Offer</title>
<path fill="none" stroke="#ff0000" stroke-width="0.51" stroke-dasharray="5,2" d="M543.61,-301.1C513.43,-310.86 480.05,-327.61 462,-356 440.21,-390.28 479.91,-403.65 490,-443 503.59,-496 508.08,-516.4 485,-566 457.88,-624.28 398.15,-671.53 358.75,-697.95"/>
<polygon fill="#ff0000" stroke="#ff0000" stroke-width="0.51" points="357.26,-694.74 350.83,-703.16 361.11,-700.59 357.26,-694.74"/>
<text text-anchor="middle" x="508" y="-500.8" font-family="Times,serif" font-size="14.00">11</text>
</g>
<!-- A_Complete&#45;&gt;W_Call after offers -->
<g id="edge16" class="edge">
<title>A_Complete&#45;&gt;W_Call after offers</title>
<path fill="none" stroke="#000000" stroke-width="2.27" d="M569.09,-305.5C562.63,-310.24 556.79,-316.03 553,-323 549.79,-328.9 548.79,-335.78 548.96,-342.53"/>
<polygon fill="#000000" stroke="#000000" stroke-width="2.27" points="545.48,-342.91 550.19,-352.4 552.43,-342.05 545.48,-342.91"/>
<text text-anchor="middle" x="567" y="-326.8" font-family="Times,serif" font-size="14.00">1922</text>
</g>
<!-- A_Complete&#45;&gt;O_Cancelled -->
<g id="edge47" class="edge">
<title>A_Complete&#45;&gt;O_Cancelled</title>
<path fill="none" stroke="#ff0000" stroke-width="0.5" stroke-dasharray="5,2" d="M543.79,-270.44C525.75,-265.15 506.31,-258.61 489,-251 477.14,-245.78 476.1,-240.63 464,-236 430.15,-223.04 390.83,-214.7 357.5,-209.42"/>
<polygon fill="#ff0000" stroke="#ff0000" stroke-width="0.5" points="358.07,-205.97 347.66,-207.93 357.02,-212.89 358.07,-205.97"/>
<text text-anchor="middle" x="492.5" y="-239.8" font-family="Times,serif" font-size="14.00">2</text>
</g>
<!-- A_Complete&#45;&gt;A_Denied -->
<g id="edge52" class="edge">
<title>A_Complete&#45;&gt;A_Denied</title>
<path fill="none" stroke="#ff0000" stroke-width="0.5" stroke-dasharray="5,2" d="M627.64,-268.8C642.75,-256.21 663.45,-238.96 680.18,-225.01"/>
<polygon fill="#ff0000" stroke="#ff0000" stroke-width="0.5" points="682.02,-228.04 687.46,-218.95 677.54,-222.66 682.02,-228.04"/>
<text text-anchor="middle" x="667.5" y="-239.8" font-family="Times,serif" font-size="14.00">2</text>
</g>
<!-- A_Cancelled&#45;&gt;W_Call after offers -->
<g id="edge45" class="edge">
<title>A_Cancelled&#45;&gt;W_Call after offers</title>
<path fill="none" stroke="#ff0000" stroke-width="0.5" stroke-dasharray="5,2" d="M405.14,-442.56C426.29,-432.91 453.08,-420.74 477,-410 486.65,-405.67 496.97,-401.07 506.87,-396.68"/>
<polygon fill="#ff0000" stroke="#ff0000" stroke-width="0.5" points="508.17,-399.93 515.89,-392.68 505.33,-393.53 508.17,-399.93"/>
<text text-anchor="middle" x="480.5" y="-413.8" font-family="Times,serif" font-size="14.00">5</text>
</g>
<!-- A_Cancelled&#45;&gt;O_Cancelled -->
<g id="edge18" class="edge">
<title>A_Cancelled&#45;&gt;O_Cancelled</title>
<path fill="none" stroke="#000000" stroke-width="2.26" d="M359.78,-442.64C357.53,-437.04 355.09,-430.79 353,-425 339.23,-386.79 336.6,-376.93 325,-338 311.57,-292.95 311.98,-280.56 297,-236 296.42,-234.27 295.8,-232.5 295.15,-230.72"/>
<polygon fill="#000000" stroke="#000000" stroke-width="2.26" points="298.46,-229.57 291.6,-221.5 291.93,-232.09 298.46,-229.57"/>
<text text-anchor="middle" x="339" y="-326.8" font-family="Times,serif" font-size="14.00">1919</text>
</g>
<!-- O_Cancelled&#45;&gt;W_Complete application -->
<g id="edge42" class="edge">
<title>O_Cancelled&#45;&gt;W_Complete application</title>
<path fill="none" stroke="#ff0000" stroke-width="0.5" stroke-dasharray="5,2" d="M219.24,-205.84C168.17,-213.61 105,-233.78 105,-286 105,-592.5 105,-592.5 105,-592.5 105,-649.64 101,-663.86 101,-721 101,-897 101,-897 101,-897 101,-925.79 164.79,-947.76 225.47,-962.14"/>
<polygon fill="#ff0000" stroke="#ff0000" stroke-width="0.5" points="224.68,-965.55 235.21,-964.39 226.25,-958.73 224.68,-965.55"/>
<text text-anchor="middle" x="108.5" y="-587.8" font-family="Times,serif" font-size="14.00">7</text>
</g>
<!-- O_Cancelled&#45;&gt;O_Create Offer -->
<g id="edge48" class="edge">
<title>O_Cancelled&#45;&gt;O_Create Offer</title>
<path fill="none" stroke="#ff0000" stroke-width="0.5" stroke-dasharray="5,2" d="M265.15,-218.1C238.59,-244.75 189.42,-299.08 167,-356 142.83,-417.35 151,-437.56 151,-503.5 151,-636 151,-636 151,-636 151,-679.53 196.15,-700.77 239.91,-711.13"/>
<polygon fill="#ff0000" stroke="#ff0000" stroke-width="0.5" points="239.12,-714.54 249.64,-713.26 240.62,-707.7 239.12,-714.54"/>
<text text-anchor="middle" x="154.5" y="-457.3" font-family="Times,serif" font-size="14.00">4</text>
</g>
<!-- O_Cancelled&#45;&gt;O_Sent (mail and online) -->
<g id="edge40" class="edge">
<title>O_Cancelled&#45;&gt;O_Sent (mail and online)</title>
<path fill="none" stroke="#ff0000" stroke-width="0.5" stroke-dasharray="5,2" d="M296.36,-181.8C305.69,-169.78 318.31,-153.52 328.86,-139.94"/>
<polygon fill="#ff0000" stroke="#ff0000" stroke-width="0.5" points="331.6,-142.11 334.97,-132.07 326.07,-137.82 331.6,-142.11"/>
<text text-anchor="middle" x="322.5" y="-152.8" font-family="Times,serif" font-size="14.00">4</text>
</g>
<!-- O_Cancelled&#45;&gt;W_Call after offers -->
<g id="edge19" class="edge">
<title>O_Cancelled&#45;&gt;W_Call after offers</title>
<path fill="none" stroke="#000000" stroke-width="2.26" d="M346.9,-213.09C365.81,-218.36 385.99,-225.76 403,-236 457.12,-268.59 453.18,-297.9 502,-338 506.27,-341.51 510.91,-344.97 515.62,-348.27"/>
<polygon fill="#000000" stroke="#000000" stroke-width="2.26" points="513.48,-351.05 523.74,-353.72 517.38,-345.24 513.48,-351.05"/>
<text text-anchor="middle" x="483" y="-283.3" font-family="Times,serif" font-size="14.00">1912</text>
</g>
<!-- O_Cancelled&#45;&gt;A_Cancelled -->
<g id="edge44" class="edge">
<title>O_Cancelled&#45;&gt;A_Cancelled</title>
<path fill="none" stroke="#ff0000" stroke-width="0.5" stroke-dasharray="5,2" d="M284.93,-218.45C289.15,-252.78 300.91,-331.02 326,-392 332.28,-407.26 334.54,-410.84 343,-425 344.78,-427.97 346.71,-431.03 348.68,-434.05"/>
<polygon fill="#ff0000" stroke="#ff0000" stroke-width="0.5" points="345.68,-435.87 354.17,-442.2 351.49,-431.95 345.68,-435.87"/>
<text text-anchor="middle" x="310.5" y="-326.8" font-family="Times,serif" font-size="14.00">5</text>
</g>
<!-- O_Cancelled&#45;&gt;O_Cancelled -->
<g id="edge25" class="edge">
<title>O_Cancelled&#45;&gt;O_Cancelled</title>
<path fill="none" stroke="#000000" stroke-width="0.81" d="M346.9,-207.55C357.33,-206.47 364.5,-203.95 364.5,-200 364.5,-197.65 361.97,-195.81 357.73,-194.48"/>
<polygon fill="#000000" stroke="#000000" stroke-width="0.81" points="358.58,-191.08 348.1,-192.68 357.29,-197.96 358.58,-191.08"/>
<text text-anchor="middle" x="375" y="-196.3" font-family="Times,serif" font-size="14.00">341</text>
</g>
<!-- O_Sent (online only)&#45;&gt;W_Complete application -->
<g id="edge35" class="edge">
<title>O_Sent (online only)&#45;&gt;W_Complete application</title>
<path fill="none" stroke="#ff0000" stroke-width="0.51" stroke-dasharray="5,2" d="M452.07,-566.49C499.71,-585.47 561,-620.89 561,-677.5 561,-897 561,-897 561,-897 561,-925.5 497.65,-947.57 437.73,-962.08"/>
<polygon fill="#ff0000" stroke="#ff0000" stroke-width="0.51" points="437.06,-958.64 428.13,-964.34 438.66,-965.45 437.06,-958.64"/>
<text text-anchor="middle" x="564.5" y="-761.8" font-family="Times,serif" font-size="14.00">9</text>
</g>
<!-- O_Sent (online only)&#45;&gt;W_Call after offers -->
<g id="edge49" class="edge">
<title>O_Sent (online only)&#45;&gt;W_Call after offers</title>
<path fill="none" stroke="#ff0000" stroke-width="0.5" stroke-dasharray="5,2" d="M413.12,-529.56C441.45,-498.91 500.26,-435.3 532.9,-399.98"/>
<polygon fill="#ff0000" stroke="#ff0000" stroke-width="0.5" points="535.1,-402.76 539.32,-393.04 529.96,-398.01 535.1,-402.76"/>
<text text-anchor="middle" x="495.5" y="-457.3" font-family="Times,serif" font-size="14.00">2</text>
</g>
<!-- O_Sent (online only)&#45;&gt;A_Cancelled -->
<g id="edge50" class="edge">
<title>O_Sent (online only)&#45;&gt;A_Cancelled</title>
<path fill="none" stroke="#ff0000" stroke-width="0.5" stroke-dasharray="5,2" d="M390.93,-529.8C386.85,-518.24 381.38,-502.75 376.71,-489.5"/>
<polygon fill="#ff0000" stroke="#ff0000" stroke-width="0.5" points="380.05,-488.45 373.42,-480.18 373.45,-490.78 380.05,-488.45"/>
<text text-anchor="middle" x="386.5" y="-500.8" font-family="Times,serif" font-size="14.00">4</text>
</g>
<!-- O_Refused -->
<g id="node17" class="node">
<title>O_Refused</title>
<polygon fill="#ffffff" stroke="black" points="800,-131 696,-131 696,-95 800,-95 800,-131"/>
<text text-anchor="middle" x="748" y="-109.3" font-family="Times,serif" font-size="14.00">O_Refused (12)</text>
</g>
<!-- A_Denied&#45;&gt;O_Refused -->
<g id="edge37" class="edge">
<title>A_Denied&#45;&gt;O_Refused</title>
<path fill="none" stroke="#ff0000" stroke-width="0.51" stroke-dasharray="5,2" d="M716.89,-181.8C722.25,-170.12 729.44,-154.45 735.56,-141.11"/>
<polygon fill="#ff0000" stroke="#ff0000" stroke-width="0.51" points="738.68,-142.72 739.66,-132.17 732.31,-139.8 738.68,-142.72"/>
<text text-anchor="middle" x="737" y="-152.8" font-family="Times,serif" font-size="14.00">12</text>
</g>
<!-- O_Refused&#45;&gt;W_Call after offers -->
<g id="edge38" class="edge">
<title>O_Refused&#45;&gt;W_Call after offers</title>
<path fill="none" stroke="#ff0000" stroke-width="0.51" stroke-dasharray="5,2" d="M754.26,-131.33C758.81,-144.91 764.59,-164.39 767,-182 776.68,-252.6 786.34,-294.37 730,-338 717.03,-348.04 684.74,-355.79 651.46,-361.41"/>
<polygon fill="#ff0000" stroke="#ff0000" stroke-width="0.51" points="651.18,-357.91 641.87,-362.96 652.3,-364.82 651.18,-357.91"/>
<text text-anchor="middle" x="781" y="-239.8" font-family="Times,serif" font-size="14.00">12</text>
</g>
</g>
</svg>
