<?xml version="1.0" encoding="UTF-8" standalone="no"?>
<!DOCTYPE svg PUBLIC "-//W3C//DTD SVG 1.1//EN"
 "http://www.w3.org/Graphics/SVG/1.1/DTD/svg11.dtd">
<!-- Generated by graphviz version 7.0.5 (0)
 -->
<!-- Title: dfg Pages: 1 -->
<svg width="501pt" height="1183pt"
 viewBox="0.00 0.00 501.00 1183.00" xmlns="http://www.w3.org/2000/svg" xmlns:xlink="http://www.w3.org/1999/xlink">
<g id="graph0" class="graph" transform="scale(1 1) rotate(0) translate(4 1179)">
<title>dfg</title>
<polygon fill="white" stroke="none" points="-4,4 -4,-1179 497,-1179 497,4 -4,4"/>
<!-- start_node -->
<g id="node1" class="node">
<title>start_node</title>
<ellipse fill="none" stroke="black" cx="113" cy="-1157" rx="18" ry="18"/>
<text text-anchor="start" x="108.5" y="-1153.3" font-family="Times,serif" font-size="14.00">●</text>
</g>
<!-- A_Create Application -->
<g id="node2" class="node">
<title>A_Create Application</title>
<polygon fill="#fbfbff" stroke="black" points="200.5,-1088 25.5,-1088 25.5,-1052 200.5,-1052 200.5,-1088"/>
<text text-anchor="middle" x="113" y="-1066.3" font-family="Times,serif" font-size="14.00">A_Create Application (4037)</text>
</g>
<!-- start_node&#45;&gt;A_Create Application -->
<g id="edge1" class="edge">
<title>start_node&#45;&gt;A_Create Application</title>
<path fill="none" stroke="#000000" stroke-width="2.32" d="M113,-1138.8C113,-1128.15 113,-1114.18 113,-1101.69"/>
<polygon fill="#000000" stroke="#000000" stroke-width="2.32" points="116.5,-1101.97 113,-1091.97 109.5,-1101.97 116.5,-1101.97"/>
<text text-anchor="middle" x="127" y="-1109.8" font-family="Times,serif" font-size="14.00">4037</text>
</g>
<!-- A_Submitted -->
<g id="node3" class="node">
<title>A_Submitted</title>
<polygon fill="#ffffff" stroke="black" points="177.5,-1001 48.5,-1001 48.5,-965 177.5,-965 177.5,-1001"/>
<text text-anchor="middle" x="113" y="-979.3" font-family="Times,serif" font-size="14.00">A_Submitted (3348)</text>
</g>
<!-- A_Create Application&#45;&gt;A_Submitted -->
<g id="edge2" class="edge">
<title>A_Create Application&#45;&gt;A_Submitted</title>
<path fill="none" stroke="#000000" stroke-width="2.01" d="M113,-1051.8C113,-1041.04 113,-1026.88 113,-1014.29"/>
<polygon fill="#000000" stroke="#000000" stroke-width="2.01" points="116.5,-1014.5 113,-1004.5 109.5,-1014.5 116.5,-1014.5"/>
<text text-anchor="middle" x="127" y="-1022.8" font-family="Times,serif" font-size="14.00">3348</text>
</g>
<!-- W_Complete application -->
<g id="node5" class="node">
<title>W_Complete application</title>
<polygon fill="#b9b9ff" stroke="black" points="309,-827 109,-827 109,-791 309,-791 309,-827"/>
<text text-anchor="middle" x="209" y="-805.3" font-family="Times,serif" font-size="14.00">W_Complete application (17962)</text>
</g>
<!-- A_Create Application&#45;&gt;W_Complete application -->
<g id="edge21" class="edge">
<title>A_Create Application&#45;&gt;W_Complete application</title>
<path fill="none" stroke="#ff0000" stroke-width="0.75" stroke-dasharray="5,2" d="M136.06,-1051.65C167.97,-1025.88 223.62,-974 241,-914 248.63,-887.65 237.3,-857.72 226.07,-836.76"/>
<polygon fill="#ff0000" stroke="#ff0000" stroke-width="0.75" points="229.21,-835.19 221.22,-828.24 223.13,-838.66 229.21,-835.19"/>
<text text-anchor="middle" x="244.5" y="-935.8" font-family="Times,serif" font-size="14.00">575</text>
</g>
<!-- A_Concept -->
<g id="node6" class="node">
<title>A_Concept</title>
<polygon fill="#fbfbff" stroke="black" points="173,-740 55,-740 55,-704 173,-704 173,-740"/>
<text text-anchor="middle" x="114" y="-718.3" font-family="Times,serif" font-size="14.00">A_Concept (4037)</text>
</g>
<!-- A_Create Application&#45;&gt;A_Concept -->
<g id="edge26" class="edge">
<title>A_Create Application&#45;&gt;A_Concept</title>
<path fill="none" stroke="#ff0000" stroke-width="0.55" stroke-dasharray="5,2" d="M59.81,-1051.6C30.5,-1038.32 0,-1016.65 0,-984 0,-984 0,-984 0,-808 0,-778.87 24.22,-758.53 50.34,-745.07"/>
<polygon fill="#ff0000" stroke="#ff0000" stroke-width="0.55" points="51.77,-748.27 59.26,-740.78 48.73,-741.96 51.77,-748.27"/>
<text text-anchor="middle" x="10.5" y="-892.3" font-family="Times,serif" font-size="14.00">114</text>
</g>
<!-- W_Handle leads -->
<g id="node4" class="node">
<title>W_Handle leads</title>
<polygon fill="#ececff" stroke="black" points="186.5,-914 39.5,-914 39.5,-878 186.5,-878 186.5,-914"/>
<text text-anchor="middle" x="113" y="-892.3" font-family="Times,serif" font-size="14.00">W_Handle leads (7320)</text>
</g>
<!-- A_Submitted&#45;&gt;W_Handle leads -->
<g id="edge3" class="edge">
<title>A_Submitted&#45;&gt;W_Handle leads</title>
<path fill="none" stroke="#000000" stroke-width="2.01" d="M113,-964.8C113,-954.04 113,-939.88 113,-927.29"/>
<polygon fill="#000000" stroke="#000000" stroke-width="2.01" points="116.5,-927.5 113,-917.5 109.5,-927.5 116.5,-927.5"/>
<text text-anchor="middle" x="127" y="-935.8" font-family="Times,serif" font-size="14.00">3348</text>
</g>
<!-- W_Handle leads&#45;&gt;W_Handle leads -->
<g id="edge4" class="edge">
<title>W_Handle leads&#45;&gt;W_Handle leads</title>
<path fill="none" stroke="#000000" stroke-width="2.29" d="M186.96,-903.32C197.45,-902.14 204.5,-899.7 204.5,-896 204.5,-894.21 202.85,-892.71 199.95,-891.51"/>
<polygon fill="#000000" stroke="#000000" stroke-width="2.29" points="200.85,-888.13 190.34,-889.42 199.36,-894.97 200.85,-888.13"/>
<text text-anchor="middle" x="218.5" y="-892.3" font-family="Times,serif" font-size="14.00">3972</text>
</g>
<!-- W_Handle leads&#45;&gt;W_Complete application -->
<g id="edge5" class="edge">
<title>W_Handle leads&#45;&gt;W_Complete application</title>
<path fill="none" stroke="#000000" stroke-width="2.01" d="M132.43,-877.8C146,-865.78 164.37,-849.52 179.71,-835.94"/>
<polygon fill="#000000" stroke="#000000" stroke-width="2.01" points="181.83,-838.73 187,-829.48 177.19,-833.49 181.83,-838.73"/>
<text text-anchor="middle" x="181" y="-848.8" font-family="Times,serif" font-size="14.00">3348</text>
</g>
<!-- W_Complete application&#45;&gt;W_Complete application -->
<g id="edge20" class="edge">
<title>W_Complete application&#45;&gt;W_Complete application</title>
<path fill="none" stroke="#000000" stroke-width="3.55" d="M309.29,-815.81C320.07,-814.5 327,-812.23 327,-809 327,-807.69 325.86,-806.54 323.77,-805.54"/>
<polygon fill="#000000" stroke="#000000" stroke-width="3.55" points="325.05,-802.24 314.52,-803.4 323.47,-809.06 325.05,-802.24"/>
<text text-anchor="middle" x="341" y="-805.3" font-family="Times,serif" font-size="14.00">6765</text>
</g>
<!-- W_Complete application&#45;&gt;A_Concept -->
<g id="edge6" class="edge">
<title>W_Complete application&#45;&gt;A_Concept</title>
<path fill="none" stroke="#000000" stroke-width="2.26" d="M187.85,-790.8C181.11,-785.21 173.68,-778.92 167,-773 158.62,-765.56 149.69,-757.29 141.59,-749.64"/>
<polygon fill="#000000" stroke="#000000" stroke-width="2.26" points="144.03,-747.13 134.38,-742.77 139.21,-752.2 144.03,-747.13"/>
<text text-anchor="middle" x="181" y="-761.8" font-family="Times,serif" font-size="14.00">3923</text>
</g>
<!-- A_Accepted -->
<g id="node7" class="node">
<title>A_Accepted</title>
<polygon fill="#fbfbff" stroke="black" points="179,-653 55,-653 55,-617 179,-617 179,-653"/>
<text text-anchor="middle" x="117" y="-631.3" font-family="Times,serif" font-size="14.00">A_Accepted (4037)</text>
</g>
<!-- W_Complete application&#45;&gt;A_Accepted -->
<g id="edge8" class="edge">
<title>W_Complete application&#45;&gt;A_Accepted</title>
<path fill="none" stroke="#000000" stroke-width="1.94" d="M207.23,-790.81C204.44,-769.34 197.62,-732.03 182,-704 173.34,-688.47 160.29,-673.84 148.15,-662.17"/>
<polygon fill="#000000" stroke="#000000" stroke-width="1.94" points="150.6,-659.66 140.87,-655.47 145.85,-664.81 150.6,-659.66"/>
<text text-anchor="middle" x="211" y="-718.3" font-family="Times,serif" font-size="14.00">3206</text>
</g>
<!-- O_Create Offer -->
<g id="node8" class="node">
<title>O_Create Offer</title>
<polygon fill="#f9f9ff" stroke="black" points="195.5,-566 54.5,-566 54.5,-530 195.5,-530 195.5,-566"/>
<text text-anchor="middle" x="125" y="-544.3" font-family="Times,serif" font-size="14.00">O_Create Offer (4440)</text>
</g>
<!-- W_Complete application&#45;&gt;O_Create Offer -->
<g id="edge33" class="edge">
<title>W_Complete application&#45;&gt;O_Create Offer</title>
<path fill="none" stroke="#ff0000" stroke-width="0.5" stroke-dasharray="5,2" d="M108.64,-799.27C86.35,-793.99 63.79,-785.76 45,-773 30.42,-763.1 28.11,-756.87 23,-740 6.88,-686.77 14.63,-662.93 46,-617 57.71,-599.85 74.8,-584.41 90.08,-572.6"/>
<polygon fill="#ff0000" stroke="#ff0000" stroke-width="0.5" points="91.82,-575.67 97.74,-566.88 87.63,-570.06 91.82,-575.67"/>
<text text-anchor="middle" x="25" y="-674.8" font-family="Times,serif" font-size="14.00">20</text>
</g>
<!-- O_Sent (mail and online) -->
<g id="node10" class="node">
<title>O_Sent (mail and online)</title>
<polygon fill="#f9f9ff" stroke="black" points="390.5,-392 195.5,-392 195.5,-356 390.5,-356 390.5,-392"/>
<text text-anchor="middle" x="293" y="-370.3" font-family="Times,serif" font-size="14.00">O_Sent (mail and online) (4440)</text>
</g>
<!-- W_Complete application&#45;&gt;O_Sent (mail and online) -->
<g id="edge31" class="edge">
<title>W_Complete application&#45;&gt;O_Sent (mail and online)</title>
<path fill="none" stroke="#ff0000" stroke-width="0.5" stroke-dasharray="5,2" d="M289.98,-790.55C323.19,-778.18 354,-757.43 354,-723 354,-723 354,-723 354,-460 354,-436.43 338.33,-414.91 322.87,-399.43"/>
<polygon fill="#ff0000" stroke="#ff0000" stroke-width="0.5" points="325.59,-397.18 315.92,-392.85 320.77,-402.26 325.59,-397.18"/>
<text text-anchor="middle" x="361" y="-587.8" font-family="Times,serif" font-size="14.00">11</text>
</g>
<!-- W_Call after offers -->
<g id="node11" class="node">
<title>W_Call after offers</title>
<polygon fill="#9b9bff" stroke="black" points="441,-131 271,-131 271,-95 441,-95 441,-131"/>
<text text-anchor="middle" x="356" y="-109.3" font-family="Times,serif" font-size="14.00">W_Call after offers (24344)</text>
</g>
<!-- W_Complete application&#45;&gt;W_Call after offers -->
<g id="edge13" class="edge">
<title>W_Complete application&#45;&gt;W_Call after offers</title>
<path fill="none" stroke="#000000" stroke-width="2.32" d="M309.2,-792.52C378.39,-778.91 458,-756.06 458,-723 458,-723 458,-723 458,-199 458,-171.76 436.27,-151.56 412.87,-137.7"/>
<polygon fill="#000000" stroke="#000000" stroke-width="2.32" points="414.86,-134.8 404.41,-133.08 411.51,-140.95 414.86,-134.8"/>
<text text-anchor="middle" x="472" y="-457.3" font-family="Times,serif" font-size="14.00">4037</text>
</g>
<!-- A_Concept&#45;&gt;W_Complete application -->
<g id="edge7" class="edge">
<title>A_Concept&#45;&gt;W_Complete application</title>
<path fill="none" stroke="#000000" stroke-width="1.94" d="M111.48,-740.37C110.92,-750.82 112.03,-763.83 119,-773 122.05,-777.01 125.63,-780.57 129.56,-783.72"/>
<polygon fill="#000000" stroke="#000000" stroke-width="1.94" points="127.3,-786.42 137.56,-789.09 131.21,-780.61 127.3,-786.42"/>
<text text-anchor="middle" x="133" y="-761.8" font-family="Times,serif" font-size="14.00">3206</text>
</g>
<!-- A_Concept&#45;&gt;A_Accepted -->
<g id="edge22" class="edge">
<title>A_Concept&#45;&gt;A_Accepted</title>
<path fill="none" stroke="#000000" stroke-width="0.87" d="M114.61,-703.8C115,-692.58 115.53,-677.67 115.99,-664.69"/>
<polygon fill="#000000" stroke="#000000" stroke-width="0.87" points="119.48,-664.9 116.34,-654.78 112.49,-664.65 119.48,-664.9"/>
<text text-anchor="middle" x="126.5" y="-674.8" font-family="Times,serif" font-size="14.00">831</text>
</g>
<!-- A_Accepted&#45;&gt;W_Complete application -->
<g id="edge32" class="edge">
<title>A_Accepted&#45;&gt;W_Complete application</title>
<path fill="none" stroke="#ff0000" stroke-width="0.5" stroke-dasharray="5,2" d="M85.26,-653.36C53.01,-673.34 10.63,-707.59 32,-740 47.51,-763.52 72.42,-778.91 98.72,-788.98"/>
<polygon fill="#ff0000" stroke="#ff0000" stroke-width="0.5" points="97.54,-792.28 108.14,-792.33 99.89,-785.68 97.54,-792.28"/>
<text text-anchor="middle" x="39" y="-718.3" font-family="Times,serif" font-size="14.00">20</text>
</g>
<!-- A_Accepted&#45;&gt;O_Create Offer -->
<g id="edge9" class="edge">
<title>A_Accepted&#45;&gt;O_Create Offer</title>
<path fill="none" stroke="#000000" stroke-width="2.31" d="M118.62,-616.8C119.62,-606.15 120.94,-592.18 122.11,-579.69"/>
<polygon fill="#000000" stroke="#000000" stroke-width="2.31" points="125.58,-580.23 123.03,-569.94 118.61,-579.57 125.58,-580.23"/>
<text text-anchor="middle" x="136" y="-587.8" font-family="Times,serif" font-size="14.00">4017</text>
</g>
<!-- O_Created -->
<g id="node9" class="node">
<title>O_Created</title>
<polygon fill="#f9f9ff" stroke="black" points="270.5,-479 155.5,-479 155.5,-443 270.5,-443 270.5,-479"/>
<text text-anchor="middle" x="213" y="-457.3" font-family="Times,serif" font-size="14.00">O_Created (4440)</text>
</g>
<!-- O_Create Offer&#45;&gt;O_Created -->
<g id="edge10" class="edge">
<title>O_Create Offer&#45;&gt;O_Created</title>
<path fill="none" stroke="#000000" stroke-width="2.5" d="M161.12,-529.53C169.23,-524.58 177.38,-518.69 184,-512 189.97,-505.97 195.16,-498.47 199.44,-491.12"/>
<polygon fill="#000000" stroke="#000000" stroke-width="2.5" points="202.39,-493.02 203.97,-482.55 196.2,-489.75 202.39,-493.02"/>
<text text-anchor="middle" x="210" y="-500.8" font-family="Times,serif" font-size="14.00">4440</text>
</g>
<!-- O_Created&#45;&gt;W_Complete application -->
<g id="edge30" class="edge">
<title>O_Created&#45;&gt;W_Complete application</title>
<path fill="none" stroke="#ff0000" stroke-width="0.5" stroke-dasharray="5,2" d="M222.06,-479.36C224.48,-484.85 226.76,-491.05 228,-497 270.8,-703 236.69,-686.61 229,-740 227.03,-753.66 222.95,-768.4 218.98,-780.66"/>
<polygon fill="#ff0000" stroke="#ff0000" stroke-width="0.5" points="215.72,-779.38 215.83,-789.98 222.35,-781.63 215.72,-779.38"/>
<text text-anchor="middle" x="257" y="-631.3" font-family="Times,serif" font-size="14.00">11</text>
</g>
<!-- O_Created&#45;&gt;O_Create Offer -->
<g id="edge23" class="edge">
<title>O_Created&#45;&gt;O_Create Offer</title>
<path fill="none" stroke="#ff0000" stroke-width="0.61" stroke-dasharray="5,2" d="M181.43,-479.47C173.64,-484.56 165.63,-490.52 159,-497 151.99,-503.86 145.57,-512.37 140.24,-520.42"/>
<polygon fill="#ff0000" stroke="#ff0000" stroke-width="0.61" points="137.36,-518.41 135,-528.74 143.29,-522.13 137.36,-518.41"/>
<text text-anchor="middle" x="169.5" y="-500.8" font-family="Times,serif" font-size="14.00">258</text>
</g>
<!-- O_Created&#45;&gt;O_Sent (mail and online) -->
<g id="edge11" class="edge">
<title>O_Created&#45;&gt;O_Sent (mail and online)</title>
<path fill="none" stroke="#000000" stroke-width="2.38" d="M229.19,-442.8C240.18,-431.12 254.93,-415.45 267.49,-402.11"/>
<polygon fill="#000000" stroke="#000000" stroke-width="2.38" points="269.79,-404.77 274.09,-395.09 264.69,-399.97 269.79,-404.77"/>
<text text-anchor="middle" x="272" y="-413.8" font-family="Times,serif" font-size="14.00">4171</text>
</g>
<!-- O_Sent (mail and online)&#45;&gt;W_Complete application -->
<g id="edge12" class="edge">
<title>O_Sent (mail and online)&#45;&gt;W_Complete application</title>
<path fill="none" stroke="#000000" stroke-width="2.32" d="M296.22,-392.19C299.14,-409.31 303,-436.37 303,-460 303,-723 303,-723 303,-723 303,-749.32 282.47,-769.61 260.6,-783.75"/>
<polygon fill="#000000" stroke="#000000" stroke-width="2.32" points="258.94,-780.66 252.15,-788.79 262.53,-786.67 258.94,-780.66"/>
<text text-anchor="middle" x="317" y="-587.8" font-family="Times,serif" font-size="14.00">4037</text>
</g>
<!-- O_Sent (mail and online)&#45;&gt;O_Sent (mail and online) -->
<g id="edge24" class="edge">
<title>O_Sent (mail and online)&#45;&gt;O_Sent (mail and online)</title>
<path fill="none" stroke="#ff0000" stroke-width="0.61" stroke-dasharray="5,2" d="M390.74,-380.86C401.53,-379.56 408.5,-377.27 408.5,-374 408.5,-372.01 405.91,-370.38 401.45,-369.12"/>
<polygon fill="#ff0000" stroke="#ff0000" stroke-width="0.61" points="402.12,-365.68 391.65,-367.31 400.85,-372.56 402.12,-365.68"/>
<text text-anchor="middle" x="419" y="-370.3" font-family="Times,serif" font-size="14.00">258</text>
</g>
<!-- O_Sent (mail and online)&#45;&gt;W_Call after offers -->
<g id="edge29" class="edge">
<title>O_Sent (mail and online)&#45;&gt;W_Call after offers</title>
<path fill="none" stroke="#ff0000" stroke-width="0.51" stroke-dasharray="5,2" d="M320.13,-355.66C336.48,-343.6 356.01,-325.95 366,-305 391.47,-251.57 376.62,-179.95 365.26,-141.37"/>
<polygon fill="#ff0000" stroke="#ff0000" stroke-width="0.51" points="368.7,-140.67 362.41,-132.15 362.01,-142.73 368.7,-140.67"/>
<text text-anchor="middle" x="386" y="-239.8" font-family="Times,serif" font-size="14.00">31</text>
</g>
<!-- A_Cancelled -->
<g id="node13" class="node">
<title>A_Cancelled</title>
<polygon fill="#fbfbff" stroke="black" points="356.5,-305 229.5,-305 229.5,-269 356.5,-269 356.5,-305"/>
<text text-anchor="middle" x="293" y="-283.3" font-family="Times,serif" font-size="14.00">A_Cancelled (4037)</text>
</g>
<!-- O_Sent (mail and online)&#45;&gt;A_Cancelled -->
<g id="edge28" class="edge">
<title>O_Sent (mail and online)&#45;&gt;A_Cancelled</title>
<path fill="none" stroke="#ff0000" stroke-width="0.55" stroke-dasharray="5,2" d="M293,-355.8C293,-344.47 293,-329.36 293,-316.29"/>
<polygon fill="#ff0000" stroke="#ff0000" stroke-width="0.55" points="296.5,-316.29 293,-306.29 289.5,-316.29 296.5,-316.29"/>
<text text-anchor="middle" x="303.5" y="-326.8" font-family="Times,serif" font-size="14.00">114</text>
</g>
<!-- W_Call after offers&#45;&gt;O_Create Offer -->
<g id="edge27" class="edge">
<title>W_Call after offers&#45;&gt;O_Create Offer</title>
<path fill="none" stroke="#ff0000" stroke-width="0.56" stroke-dasharray="5,2" d="M270.64,-129.03C204.84,-143.12 125,-166.84 125,-199 125,-462 125,-462 125,-462 125,-481.06 125,-502.53 125,-519.13"/>
<polygon fill="#ff0000" stroke="#ff0000" stroke-width="0.56" points="121.5,-518.9 125,-528.9 128.5,-518.9 121.5,-518.9"/>
<text text-anchor="middle" x="135.5" y="-326.8" font-family="Times,serif" font-size="14.00">145</text>
</g>
<!-- W_Call after offers&#45;&gt;W_Call after offers -->
<g id="edge14" class="edge">
<title>W_Call after offers&#45;&gt;W_Call after offers</title>
<path fill="none" stroke="#000000" stroke-width="6" d="M441.25,-120.1C451.95,-118.85 459,-116.48 459,-113 459,-111.91 458.31,-110.93 457.04,-110.06"/>
<polygon fill="#000000" stroke="#000000" stroke-width="6" points="458.5,-105.02 447.49,-107.54 455.82,-115.17 458.5,-105.02"/>
<text text-anchor="middle" x="476" y="-109.3" font-family="Times,serif" font-size="14.00">12202</text>
</g>
<!-- A_Complete -->
<g id="node12" class="node">
<title>A_Complete</title>
<polygon fill="#fbfbff" stroke="black" points="368,-40 242,-40 242,-4 368,-4 368,-40"/>
<text text-anchor="middle" x="305" y="-18.3" font-family="Times,serif" font-size="14.00">A_Complete (4037)</text>
</g>
<!-- W_Call after offers&#45;&gt;A_Complete -->
<g id="edge15" class="edge">
<title>W_Call after offers&#45;&gt;A_Complete</title>
<path fill="none" stroke="#000000" stroke-width="2.32" d="M349.58,-94.87C345.6,-84.99 340.1,-72.49 334,-62 331.9,-58.4 329.54,-54.73 327.08,-51.16"/>
<polygon fill="#000000" stroke="#000000" stroke-width="2.32" points="329.94,-49.14 321.22,-43.12 324.28,-53.26 329.94,-49.14"/>
<text text-anchor="middle" x="355" y="-65.8" font-family="Times,serif" font-size="14.00">4037</text>
</g>
<!-- W_Call after offers&#45;&gt;A_Cancelled -->
<g id="edge17" class="edge">
<title>W_Call after offers&#45;&gt;A_Cancelled</title>
<path fill="none" stroke="#000000" stroke-width="2.26" d="M352.79,-131.32C348.62,-152.28 340.48,-188.44 329,-218 323.83,-231.31 316.7,-245.36 310.15,-257.21"/>
<polygon fill="#000000" stroke="#000000" stroke-width="2.26" points="307.25,-255.24 305.34,-265.66 313.33,-258.7 307.25,-255.24"/>
<text text-anchor="middle" x="354" y="-196.3" font-family="Times,serif" font-size="14.00">3923</text>
</g>
<!-- end_node -->
<g id="node15" class="node">
<title>end_node</title>
<ellipse fill="none" stroke="black" cx="408" cy="-22" rx="18" ry="18"/>
<ellipse fill="none" stroke="black" cx="408" cy="-22" rx="22" ry="22"/>
<text text-anchor="start" x="403.5" y="-18.3" font-family="Times,serif" font-size="14.00">■</text>
</g>
<!-- W_Call after offers&#45;&gt;end_node -->
<g id="edge34" class="edge">
<title>W_Call after offers&#45;&gt;end_node</title>
<path fill="none" stroke="#000000" stroke-width="2.32" d="M366.03,-94.84C372.92,-83.04 382.26,-67.06 390.38,-53.16"/>
<polygon fill="#000000" stroke="#000000" stroke-width="2.32" points="393.32,-55.07 395.34,-44.67 387.27,-51.54 393.32,-55.07"/>
<text text-anchor="middle" x="399" y="-65.8" font-family="Times,serif" font-size="14.00">4037</text>
</g>
<!-- A_Complete&#45;&gt;W_Call after offers -->
<g id="edge16" class="edge">
<title>A_Complete&#45;&gt;W_Call after offers</title>
<path fill="none" stroke="#000000" stroke-width="2.32" d="M299.62,-40.08C297.13,-51.24 295.9,-65.78 302,-77 303.72,-80.16 305.85,-83.07 308.28,-85.76"/>
<polygon fill="#000000" stroke="#000000" stroke-width="2.32" points="305.68,-88.13 315.47,-92.17 310.34,-82.9 305.68,-88.13"/>
<text text-anchor="middle" x="316" y="-65.8" font-family="Times,serif" font-size="14.00">4037</text>
</g>
<!-- O_Cancelled -->
<g id="node14" class="node">
<title>O_Cancelled</title>
<polygon fill="#f9f9ff" stroke="black" points="280.5,-218 153.5,-218 153.5,-182 280.5,-182 280.5,-218"/>
<text text-anchor="middle" x="217" y="-196.3" font-family="Times,serif" font-size="14.00">O_Cancelled (4440)</text>
</g>
<!-- A_Cancelled&#45;&gt;O_Cancelled -->
<g id="edge18" class="edge">
<title>A_Cancelled&#45;&gt;O_Cancelled</title>
<path fill="none" stroke="#000000" stroke-width="2.32" d="M277.62,-268.8C267.28,-257.24 253.44,-241.75 241.59,-228.5"/>
<polygon fill="#000000" stroke="#000000" stroke-width="2.32" points="244.23,-226.2 234.95,-221.08 239.01,-230.87 244.23,-226.2"/>
<text text-anchor="middle" x="274" y="-239.8" font-family="Times,serif" font-size="14.00">4037</text>
</g>
<!-- O_Cancelled&#45;&gt;W_Call after offers -->
<g id="edge19" class="edge">
<title>O_Cancelled&#45;&gt;W_Call after offers</title>
<path fill="none" stroke="#000000" stroke-width="2.32" d="M245.46,-181.59C265.89,-169.1 293.68,-152.11 316.29,-138.28"/>
<polygon fill="#000000" stroke="#000000" stroke-width="2.32" points="317.88,-141.41 324.58,-133.21 314.23,-135.44 317.88,-141.41"/>
<text text-anchor="middle" x="308" y="-152.8" font-family="Times,serif" font-size="14.00">4037</text>
</g>
<!-- O_Cancelled&#45;&gt;O_Cancelled -->
<g id="edge25" class="edge">
<title>O_Cancelled&#45;&gt;O_Cancelled</title>
<path fill="none" stroke="#ff0000" stroke-width="0.68" stroke-dasharray="5,2" d="M280.9,-207.55C291.33,-206.47 298.5,-203.95 298.5,-200 298.5,-197.59 295.84,-195.72 291.4,-194.38"/>
<polygon fill="#ff0000" stroke="#ff0000" stroke-width="0.68" points="292.37,-191 281.9,-192.64 291.11,-197.88 292.37,-191"/>
<text text-anchor="middle" x="309" y="-196.3" font-family="Times,serif" font-size="14.00">403</text>
</g>
</g>
</svg>
