<?xml version="1.0" encoding="UTF-8" standalone="no"?>
<!DOCTYPE svg PUBLIC "-//W3C//DTD SVG 1.1//EN"
 "http://www.w3.org/Graphics/SVG/1.1/DTD/svg11.dtd">
<!-- Generated by graphviz version 7.0.5 (0)
 -->
<!-- Title: dfg Pages: 1 -->
<svg width="616pt" height="835pt"
 viewBox="0.00 0.00 615.50 835.00" xmlns="http://www.w3.org/2000/svg" xmlns:xlink="http://www.w3.org/1999/xlink">
<g id="graph0" class="graph" transform="scale(1 1) rotate(0) translate(4 831)">
<title>dfg</title>
<polygon fill="white" stroke="none" points="-4,4 -4,-831 611.5,-831 611.5,4 -4,4"/>
<!-- start_node -->
<g id="node1" class="node">
<title>start_node</title>
<ellipse fill="none" stroke="black" cx="183.5" cy="-809" rx="18" ry="18"/>
<text text-anchor="start" x="179" y="-805.3" font-family="Times,serif" font-size="14.00">●</text>
</g>
<!-- A_Create Application -->
<g id="node2" class="node">
<title>A_Create Application</title>
<polygon fill="#fcfcff" stroke="black" points="271,-740 96,-740 96,-704 271,-704 271,-740"/>
<text text-anchor="middle" x="183.5" y="-718.3" font-family="Times,serif" font-size="14.00">A_Create Application (2931)</text>
</g>
<!-- start_node&#45;&gt;A_Create Application -->
<g id="edge1" class="edge">
<title>start_node&#45;&gt;A_Create Application</title>
<path fill="none" stroke="#000000" stroke-width="2.3" d="M183.5,-790.8C183.5,-780.15 183.5,-766.18 183.5,-753.69"/>
<polygon fill="#000000" stroke="#000000" stroke-width="2.3" points="187,-753.95 183.5,-743.95 180,-753.95 187,-753.95"/>
<text text-anchor="middle" x="197.5" y="-761.8" font-family="Times,serif" font-size="14.00">2931</text>
</g>
<!-- A_Submitted -->
<g id="node3" class="node">
<title>A_Submitted</title>
<polygon fill="#ffffff" stroke="black" points="179,-653 50,-653 50,-617 179,-617 179,-653"/>
<text text-anchor="middle" x="114.5" y="-631.3" font-family="Times,serif" font-size="14.00">A_Submitted (2516)</text>
</g>
<!-- A_Create Application&#45;&gt;A_Submitted -->
<g id="edge2" class="edge">
<title>A_Create Application&#45;&gt;A_Submitted</title>
<path fill="none" stroke="#000000" stroke-width="2.04" d="M169.54,-703.8C160.15,-692.24 147.58,-676.75 136.82,-663.5"/>
<polygon fill="#000000" stroke="#000000" stroke-width="2.04" points="139.65,-661.42 130.63,-655.86 134.21,-665.83 139.65,-661.42"/>
<text text-anchor="middle" x="167.5" y="-674.8" font-family="Times,serif" font-size="14.00">2516</text>
</g>
<!-- W_Complete application -->
<g id="node5" class="node">
<title>W_Complete application</title>
<polygon fill="#bfbfff" stroke="black" points="284.5,-479 84.5,-479 84.5,-443 284.5,-443 284.5,-479"/>
<text text-anchor="middle" x="184.5" y="-457.3" font-family="Times,serif" font-size="14.00">W_Complete application (12098)</text>
</g>
<!-- A_Create Application&#45;&gt;W_Complete application -->
<g id="edge21" class="edge">
<title>A_Create Application&#45;&gt;W_Complete application</title>
<path fill="none" stroke="#ff0000" stroke-width="0.71" stroke-dasharray="5,2" d="M187.66,-703.58C195.13,-669.96 209.35,-593.8 201.5,-530 199.85,-516.59 196.43,-502.02 193.09,-489.83"/>
<polygon fill="#ff0000" stroke="#ff0000" stroke-width="0.71" points="196.52,-489.08 190.4,-480.43 189.79,-491.01 196.52,-489.08"/>
<text text-anchor="middle" x="215" y="-587.8" font-family="Times,serif" font-size="14.00">415</text>
</g>
<!-- W_Handle leads -->
<g id="node4" class="node">
<title>W_Handle leads</title>
<polygon fill="#ececff" stroke="black" points="147,-566 0,-566 0,-530 147,-530 147,-566"/>
<text text-anchor="middle" x="73.5" y="-544.3" font-family="Times,serif" font-size="14.00">W_Handle leads (5324)</text>
</g>
<!-- A_Submitted&#45;&gt;W_Handle leads -->
<g id="edge3" class="edge">
<title>A_Submitted&#45;&gt;W_Handle leads</title>
<path fill="none" stroke="#000000" stroke-width="2.04" d="M106.2,-616.8C100.85,-605.7 93.75,-590.97 87.53,-578.08"/>
<polygon fill="#000000" stroke="#000000" stroke-width="2.04" points="90.76,-576.73 83.27,-569.25 84.46,-579.78 90.76,-576.73"/>
<text text-anchor="middle" x="110.5" y="-587.8" font-family="Times,serif" font-size="14.00">2516</text>
</g>
<!-- W_Handle leads&#45;&gt;W_Handle leads -->
<g id="edge4" class="edge">
<title>W_Handle leads&#45;&gt;W_Handle leads</title>
<path fill="none" stroke="#000000" stroke-width="2.22" d="M147.46,-555.32C157.95,-554.14 165,-551.7 165,-548 165,-546.21 163.35,-544.71 160.45,-543.51"/>
<polygon fill="#000000" stroke="#000000" stroke-width="2.22" points="161.26,-540.11 150.75,-541.4 159.77,-546.95 161.26,-540.11"/>
<text text-anchor="middle" x="179" y="-544.3" font-family="Times,serif" font-size="14.00">2808</text>
</g>
<!-- W_Handle leads&#45;&gt;W_Complete application -->
<g id="edge5" class="edge">
<title>W_Handle leads&#45;&gt;W_Complete application</title>
<path fill="none" stroke="#000000" stroke-width="2.04" d="M96.23,-529.59C112.17,-517.39 133.72,-500.88 151.54,-487.24"/>
<polygon fill="#000000" stroke="#000000" stroke-width="2.04" points="153.54,-490.12 159.35,-481.26 149.28,-484.56 153.54,-490.12"/>
<text text-anchor="middle" x="150.5" y="-500.8" font-family="Times,serif" font-size="14.00">2516</text>
</g>
<!-- W_Complete application&#45;&gt;W_Complete application -->
<g id="edge20" class="edge">
<title>W_Complete application&#45;&gt;W_Complete application</title>
<path fill="none" stroke="#000000" stroke-width="2.93" d="M284.79,-467.81C295.57,-466.5 302.5,-464.23 302.5,-461 302.5,-459.59 301.17,-458.36 298.78,-457.31"/>
<polygon fill="#000000" stroke="#000000" stroke-width="2.93" points="299.64,-453.92 289.12,-455.16 298.12,-460.75 299.64,-453.92"/>
<text text-anchor="middle" x="316.5" y="-457.3" font-family="Times,serif" font-size="14.00">3931</text>
</g>
<!-- A_Concept -->
<g id="node6" class="node">
<title>A_Concept</title>
<polygon fill="#fcfcff" stroke="black" points="148.5,-392 30.5,-392 30.5,-356 148.5,-356 148.5,-392"/>
<text text-anchor="middle" x="89.5" y="-370.3" font-family="Times,serif" font-size="14.00">A_Concept (2931)</text>
</g>
<!-- W_Complete application&#45;&gt;A_Concept -->
<g id="edge6" class="edge">
<title>W_Complete application&#45;&gt;A_Concept</title>
<path fill="none" stroke="#000000" stroke-width="2.3" d="M111.46,-442.6C103.71,-438.04 96.75,-432.27 91.5,-425 87.46,-419.41 85.74,-412.47 85.28,-405.57"/>
<polygon fill="#000000" stroke="#000000" stroke-width="2.3" points="88.77,-405.88 85.61,-395.77 81.77,-405.64 88.77,-405.88"/>
<text text-anchor="middle" x="105.5" y="-413.8" font-family="Times,serif" font-size="14.00">2931</text>
</g>
<!-- A_Accepted -->
<g id="node7" class="node">
<title>A_Accepted</title>
<polygon fill="#fcfcff" stroke="black" points="135.5,-301 11.5,-301 11.5,-265 135.5,-265 135.5,-301"/>
<text text-anchor="middle" x="73.5" y="-279.3" font-family="Times,serif" font-size="14.00">A_Accepted (2931)</text>
</g>
<!-- W_Complete application&#45;&gt;A_Accepted -->
<g id="edge8" class="edge">
<title>W_Complete application&#45;&gt;A_Accepted</title>
<path fill="none" stroke="#000000" stroke-width="1.91" d="M183.17,-442.55C180.84,-420.81 174.49,-383.22 157.5,-356 145.99,-337.56 128.23,-321.34 112,-309"/>
<polygon fill="#000000" stroke="#000000" stroke-width="1.91" points="114.12,-306.21 103.97,-303.16 110,-311.87 114.12,-306.21"/>
<text text-anchor="middle" x="187.5" y="-370.3" font-family="Times,serif" font-size="14.00">2305</text>
</g>
<!-- W_Call after offers -->
<g id="node11" class="node">
<title>W_Call after offers</title>
<polygon fill="#9b9bff" stroke="black" points="422.5,-392 252.5,-392 252.5,-356 422.5,-356 422.5,-392"/>
<text text-anchor="middle" x="337.5" y="-370.3" font-family="Times,serif" font-size="14.00">W_Call after offers (17586)</text>
</g>
<!-- W_Complete application&#45;&gt;W_Call after offers -->
<g id="edge13" class="edge">
<title>W_Complete application&#45;&gt;W_Call after offers</title>
<path fill="none" stroke="#000000" stroke-width="2.3" d="M215.83,-442.59C238.52,-429.99 269.47,-412.79 294.48,-398.9"/>
<polygon fill="#000000" stroke="#000000" stroke-width="2.3" points="296.12,-401.99 303.17,-394.07 292.72,-395.87 296.12,-401.99"/>
<text text-anchor="middle" x="283.5" y="-413.8" font-family="Times,serif" font-size="14.00">2931</text>
</g>
<!-- A_Concept&#45;&gt;W_Complete application -->
<g id="edge7" class="edge">
<title>A_Concept&#45;&gt;W_Complete application</title>
<path fill="none" stroke="#000000" stroke-width="1.91" d="M107.4,-392.4C117.55,-402.15 130.58,-414.42 142.5,-425 146.05,-428.14 149.81,-431.39 153.56,-434.59"/>
<polygon fill="#000000" stroke="#000000" stroke-width="1.91" points="151.23,-437.2 161.14,-440.95 155.73,-431.84 151.23,-437.2"/>
<text text-anchor="middle" x="156.5" y="-413.8" font-family="Times,serif" font-size="14.00">2305</text>
</g>
<!-- A_Concept&#45;&gt;A_Accepted -->
<g id="edge22" class="edge">
<title>A_Concept&#45;&gt;A_Accepted</title>
<path fill="none" stroke="#000000" stroke-width="0.85" d="M86.42,-355.84C84.19,-343.48 81.15,-326.54 78.57,-312.21"/>
<polygon fill="#000000" stroke="#000000" stroke-width="0.85" points="82.07,-311.9 76.86,-302.67 75.18,-313.14 82.07,-311.9"/>
<text text-anchor="middle" x="94" y="-326.8" font-family="Times,serif" font-size="14.00">626</text>
</g>
<!-- O_Create Offer -->
<g id="node8" class="node">
<title>O_Create Offer</title>
<polygon fill="#fbfbff" stroke="black" points="288,-210 147,-210 147,-174 288,-174 288,-210"/>
<text text-anchor="middle" x="217.5" y="-188.3" font-family="Times,serif" font-size="14.00">O_Create Offer (3006)</text>
</g>
<!-- A_Accepted&#45;&gt;O_Create Offer -->
<g id="edge9" class="edge">
<title>A_Accepted&#45;&gt;O_Create Offer</title>
<path fill="none" stroke="#000000" stroke-width="2.3" d="M101.61,-264.63C123.41,-251.15 153.9,-232.31 178.14,-217.33"/>
<polygon fill="#000000" stroke="#000000" stroke-width="2.3" points="179.83,-220.39 186.5,-212.16 176.15,-214.44 179.83,-220.39"/>
<text text-anchor="middle" x="172.5" y="-231.8" font-family="Times,serif" font-size="14.00">2931</text>
</g>
<!-- O_Created -->
<g id="node9" class="node">
<title>O_Created</title>
<polygon fill="#fbfbff" stroke="black" points="326,-123 211,-123 211,-87 326,-87 326,-123"/>
<text text-anchor="middle" x="268.5" y="-101.3" font-family="Times,serif" font-size="14.00">O_Created (3006)</text>
</g>
<!-- O_Create Offer&#45;&gt;O_Created -->
<g id="edge10" class="edge">
<title>O_Create Offer&#45;&gt;O_Created</title>
<path fill="none" stroke="#000000" stroke-width="2.35" d="M214.13,-173.82C213.01,-163.7 213.19,-150.96 218.5,-141 220.11,-137.97 222.12,-135.15 224.39,-132.53"/>
<polygon fill="#000000" stroke="#000000" stroke-width="2.35" points="226.65,-135.21 231.61,-125.84 221.89,-130.08 226.65,-135.21"/>
<text text-anchor="middle" x="232.5" y="-144.8" font-family="Times,serif" font-size="14.00">3006</text>
</g>
<!-- O_Created&#45;&gt;O_Create Offer -->
<g id="edge23" class="edge">
<title>O_Created&#45;&gt;O_Create Offer</title>
<path fill="none" stroke="#ff0000" stroke-width="0.5" stroke-dasharray="5,2" d="M262.28,-123.25C258.38,-133.17 252.88,-145.67 246.5,-156 244.58,-159.12 242.4,-162.25 240.12,-165.3"/>
<polygon fill="#ff0000" stroke="#ff0000" stroke-width="0.5" points="237.51,-162.96 234.03,-172.97 242.99,-167.31 237.51,-162.96"/>
<text text-anchor="middle" x="260.5" y="-144.8" font-family="Times,serif" font-size="14.00">75</text>
</g>
<!-- O_Sent (mail and online) -->
<g id="node10" class="node">
<title>O_Sent (mail and online)</title>
<polygon fill="#fbfbff" stroke="black" points="564,-36 369,-36 369,0 564,0 564,-36"/>
<text text-anchor="middle" x="466.5" y="-14.3" font-family="Times,serif" font-size="14.00">O_Sent (mail and online) (3006)</text>
</g>
<!-- O_Created&#45;&gt;O_Sent (mail and online) -->
<g id="edge11" class="edge">
<title>O_Created&#45;&gt;O_Sent (mail and online)</title>
<path fill="none" stroke="#000000" stroke-width="2.3" d="M309.05,-86.59C339.34,-73.59 381.02,-55.7 413.89,-41.59"/>
<polygon fill="#000000" stroke="#000000" stroke-width="2.3" points="415,-44.92 422.81,-37.76 412.24,-38.49 415,-44.92"/>
<text text-anchor="middle" x="392.5" y="-57.8" font-family="Times,serif" font-size="14.00">2931</text>
</g>
<!-- O_Sent (mail and online)&#45;&gt;W_Complete application -->
<g id="edge12" class="edge">
<title>O_Sent (mail and online)&#45;&gt;W_Complete application</title>
<path fill="none" stroke="#000000" stroke-width="2.3" d="M519.69,-36.4C549,-49.68 579.5,-71.35 579.5,-104 579.5,-375 579.5,-375 579.5,-375 579.5,-432.96 414.9,-451.51 298.21,-457.38"/>
<polygon fill="#000000" stroke="#000000" stroke-width="2.3" points="298.25,-453.87 288.42,-457.84 298.57,-460.87 298.25,-453.87"/>
<text text-anchor="middle" x="593.5" y="-231.8" font-family="Times,serif" font-size="14.00">2931</text>
</g>
<!-- O_Sent (mail and online)&#45;&gt;O_Sent (mail and online) -->
<g id="edge24" class="edge">
<title>O_Sent (mail and online)&#45;&gt;O_Sent (mail and online)</title>
<path fill="none" stroke="#ff0000" stroke-width="0.5" stroke-dasharray="5,2" d="M564.24,-24.86C575.03,-23.56 582,-21.27 582,-18 582,-15.96 579.28,-14.3 574.6,-13.02"/>
<polygon fill="#ff0000" stroke="#ff0000" stroke-width="0.5" points="575.45,-9.62 564.99,-11.27 574.2,-16.5 575.45,-9.62"/>
<text text-anchor="middle" x="589" y="-14.3" font-family="Times,serif" font-size="14.00">75</text>
</g>
<!-- W_Call after offers&#45;&gt;W_Call after offers -->
<g id="edge14" class="edge">
<title>W_Call after offers&#45;&gt;W_Call after offers</title>
<path fill="none" stroke="#000000" stroke-width="6" d="M422.75,-381.1C433.45,-379.85 440.5,-377.48 440.5,-374 440.5,-372.91 439.81,-371.93 438.54,-371.06"/>
<polygon fill="#000000" stroke="#000000" stroke-width="6" points="440,-366.02 428.99,-368.54 437.32,-376.17 440,-366.02"/>
<text text-anchor="middle" x="454.5" y="-370.3" font-family="Times,serif" font-size="14.00">8793</text>
</g>
<!-- A_Complete -->
<g id="node12" class="node">
<title>A_Complete</title>
<polygon fill="#fcfcff" stroke="black" points="279.5,-301 153.5,-301 153.5,-265 279.5,-265 279.5,-301"/>
<text text-anchor="middle" x="216.5" y="-279.3" font-family="Times,serif" font-size="14.00">A_Complete (2931)</text>
</g>
<!-- W_Call after offers&#45;&gt;A_Complete -->
<g id="edge15" class="edge">
<title>W_Call after offers&#45;&gt;A_Complete</title>
<path fill="none" stroke="#000000" stroke-width="2.3" d="M280.59,-355.61C270.27,-350.9 260.07,-345.09 251.5,-338 243.27,-331.2 236.31,-321.95 230.82,-313.03"/>
<polygon fill="#000000" stroke="#000000" stroke-width="2.3" points="233.9,-311.37 225.96,-304.36 227.8,-314.8 233.9,-311.37"/>
<text text-anchor="middle" x="265.5" y="-326.8" font-family="Times,serif" font-size="14.00">2931</text>
</g>
<!-- A_Cancelled -->
<g id="node13" class="node">
<title>A_Cancelled</title>
<polygon fill="#fcfcff" stroke="black" points="425,-301 298,-301 298,-265 425,-265 425,-301"/>
<text text-anchor="middle" x="361.5" y="-279.3" font-family="Times,serif" font-size="14.00">A_Cancelled (2931)</text>
</g>
<!-- W_Call after offers&#45;&gt;A_Cancelled -->
<g id="edge17" class="edge">
<title>W_Call after offers&#45;&gt;A_Cancelled</title>
<path fill="none" stroke="#000000" stroke-width="2.3" d="M342.13,-355.84C345.29,-344.1 349.58,-328.2 353.32,-314.35"/>
<polygon fill="#000000" stroke="#000000" stroke-width="2.3" points="356.67,-315.34 355.9,-304.77 349.91,-313.52 356.67,-315.34"/>
<text text-anchor="middle" x="364.5" y="-326.8" font-family="Times,serif" font-size="14.00">2931</text>
</g>
<!-- end_node -->
<g id="node15" class="node">
<title>end_node</title>
<ellipse fill="none" stroke="black" cx="465.5" cy="-283" rx="18" ry="18"/>
<ellipse fill="none" stroke="black" cx="465.5" cy="-283" rx="22" ry="22"/>
<text text-anchor="start" x="461" y="-279.3" font-family="Times,serif" font-size="14.00">■</text>
</g>
<!-- W_Call after offers&#45;&gt;end_node -->
<g id="edge26" class="edge">
<title>W_Call after offers&#45;&gt;end_node</title>
<path fill="none" stroke="#000000" stroke-width="2.3" d="M362.48,-355.63C383.8,-340.81 414.44,-319.5 436.77,-303.98"/>
<polygon fill="#000000" stroke="#000000" stroke-width="2.3" points="438.52,-307.03 444.73,-298.44 434.52,-301.28 438.52,-307.03"/>
<text text-anchor="middle" x="422.5" y="-326.8" font-family="Times,serif" font-size="14.00">2931</text>
</g>
<!-- A_Complete&#45;&gt;W_Call after offers -->
<g id="edge16" class="edge">
<title>A_Complete&#45;&gt;W_Call after offers</title>
<path fill="none" stroke="#000000" stroke-width="2.3" d="M246.62,-301.32C257.25,-307.78 269.13,-315.39 279.5,-323 289.36,-330.23 299.63,-338.73 308.73,-346.64"/>
<polygon fill="#000000" stroke="#000000" stroke-width="2.3" points="306.38,-349.23 316.18,-353.24 311.02,-343.99 306.38,-349.23"/>
<text text-anchor="middle" x="311.5" y="-326.8" font-family="Times,serif" font-size="14.00">2931</text>
</g>
<!-- O_Cancelled -->
<g id="node14" class="node">
<title>O_Cancelled</title>
<polygon fill="#fbfbff" stroke="black" points="490,-210 363,-210 363,-174 490,-174 490,-210"/>
<text text-anchor="middle" x="426.5" y="-188.3" font-family="Times,serif" font-size="14.00">O_Cancelled (3006)</text>
</g>
<!-- A_Cancelled&#45;&gt;O_Cancelled -->
<g id="edge18" class="edge">
<title>A_Cancelled&#45;&gt;O_Cancelled</title>
<path fill="none" stroke="#000000" stroke-width="2.3" d="M374.03,-264.84C383.06,-252.48 395.43,-235.54 405.9,-221.21"/>
<polygon fill="#000000" stroke="#000000" stroke-width="2.3" points="408.66,-223.36 411.73,-213.22 403,-219.24 408.66,-223.36"/>
<text text-anchor="middle" x="413.5" y="-231.8" font-family="Times,serif" font-size="14.00">2931</text>
</g>
<!-- O_Cancelled&#45;&gt;W_Call after offers -->
<g id="edge19" class="edge">
<title>O_Cancelled&#45;&gt;W_Call after offers</title>
<path fill="none" stroke="#000000" stroke-width="2.3" d="M453.02,-210.36C468.9,-222.44 487.66,-240.09 496.5,-261 504.11,-279.01 506.2,-288.02 496.5,-305 483.25,-328.19 460,-343.48 435.31,-353.55"/>
<polygon fill="#000000" stroke="#000000" stroke-width="2.3" points="434.14,-350.25 425.98,-357.01 436.57,-356.81 434.14,-350.25"/>
<text text-anchor="middle" x="516.5" y="-279.3" font-family="Times,serif" font-size="14.00">2931</text>
</g>
<!-- O_Cancelled&#45;&gt;O_Cancelled -->
<g id="edge25" class="edge">
<title>O_Cancelled&#45;&gt;O_Cancelled</title>
<path fill="none" stroke="#ff0000" stroke-width="0.5" stroke-dasharray="5,2" d="M490.4,-199.55C500.83,-198.47 508,-195.95 508,-192 508,-189.59 505.34,-187.72 500.9,-186.38"/>
<polygon fill="#ff0000" stroke="#ff0000" stroke-width="0.5" points="501.61,-182.95 491.14,-184.59 500.35,-189.83 501.61,-182.95"/>
<text text-anchor="middle" x="515" y="-188.3" font-family="Times,serif" font-size="14.00">75</text>
</g>
</g>
</svg>
