<?xml version="1.0" encoding="UTF-8" standalone="no"?>
<!DOCTYPE svg PUBLIC "-//W3C//DTD SVG 1.1//EN"
 "http://www.w3.org/Graphics/SVG/1.1/DTD/svg11.dtd">
<!-- Generated by graphviz version 7.0.5 (0)
 -->
<!-- Title: dfg Pages: 1 -->
<svg width="570pt" height="835pt"
 viewBox="0.00 0.00 569.50 835.00" xmlns="http://www.w3.org/2000/svg" xmlns:xlink="http://www.w3.org/1999/xlink">
<g id="graph0" class="graph" transform="scale(1 1) rotate(0) translate(4 831)">
<title>dfg</title>
<polygon fill="white" stroke="none" points="-4,4 -4,-831 565.5,-831 565.5,4 -4,4"/>
<!-- start_node -->
<g id="node1" class="node">
<title>start_node</title>
<ellipse fill="none" stroke="black" cx="146.5" cy="-809" rx="18" ry="18"/>
<text text-anchor="start" x="142" y="-805.3" font-family="Times,serif" font-size="14.00">●</text>
</g>
<!-- A_Create Application -->
<g id="node2" class="node">
<title>A_Create Application</title>
<polygon fill="#f9f9ff" stroke="black" points="230.5,-740 62.5,-740 62.5,-704 230.5,-704 230.5,-740"/>
<text text-anchor="middle" x="146.5" y="-718.3" font-family="Times,serif" font-size="14.00">A_Create Application (384)</text>
</g>
<!-- start_node&#45;&gt;A_Create Application -->
<g id="edge1" class="edge">
<title>start_node&#45;&gt;A_Create Application</title>
<path fill="none" stroke="#000000" stroke-width="2.29" d="M146.5,-790.8C146.5,-780.15 146.5,-766.18 146.5,-753.69"/>
<polygon fill="#000000" stroke="#000000" stroke-width="2.29" points="150,-753.94 146.5,-743.94 143,-753.94 150,-753.94"/>
<text text-anchor="middle" x="157" y="-761.8" font-family="Times,serif" font-size="14.00">384</text>
</g>
<!-- W_Complete application -->
<g id="node3" class="node">
<title>W_Complete application</title>
<polygon fill="#c3c3ff" stroke="black" points="305.5,-479 111.5,-479 111.5,-443 305.5,-443 305.5,-479"/>
<text text-anchor="middle" x="208.5" y="-457.3" font-family="Times,serif" font-size="14.00">W_Complete application (1488)</text>
</g>
<!-- A_Create Application&#45;&gt;W_Complete application -->
<g id="edge2" class="edge">
<title>A_Create Application&#45;&gt;W_Complete application</title>
<path fill="none" stroke="#000000" stroke-width="0.88" d="M167.51,-703.72C197.15,-677.63 249.32,-624.95 264.5,-566 268.49,-550.51 269.9,-545.06 264.5,-530 258.76,-514.01 247.47,-499.1 236.51,-487.34"/>
<polygon fill="#000000" stroke="#000000" stroke-width="0.88" points="239.12,-485 229.62,-480.31 234.12,-489.9 239.12,-485"/>
<text text-anchor="middle" x="264.5" y="-587.8" font-family="Times,serif" font-size="14.00">92</text>
</g>
<!-- A_Concept -->
<g id="node4" class="node">
<title>A_Concept</title>
<polygon fill="#f9f9ff" stroke="black" points="220,-392 109,-392 109,-356 220,-356 220,-392"/>
<text text-anchor="middle" x="164.5" y="-370.3" font-family="Times,serif" font-size="14.00">A_Concept (384)</text>
</g>
<!-- A_Create Application&#45;&gt;A_Concept -->
<g id="edge23" class="edge">
<title>A_Create Application&#45;&gt;A_Concept</title>
<path fill="none" stroke="#ff0000" stroke-width="0.51" stroke-dasharray="5,2" d="M101.17,-703.6C73.93,-689.86 44.5,-667.7 44.5,-636 44.5,-636 44.5,-636 44.5,-460 44.5,-429.26 71.04,-408.64 99.16,-395.41"/>
<polygon fill="#ff0000" stroke="#ff0000" stroke-width="0.51" points="100.26,-398.75 108,-391.52 97.44,-392.34 100.26,-398.75"/>
<text text-anchor="middle" x="51.5" y="-544.3" font-family="Times,serif" font-size="14.00">16</text>
</g>
<!-- A_Submitted -->
<g id="node13" class="node">
<title>A_Submitted</title>
<polygon fill="#ffffff" stroke="black" points="207.5,-653 85.5,-653 85.5,-617 207.5,-617 207.5,-653"/>
<text text-anchor="middle" x="146.5" y="-631.3" font-family="Times,serif" font-size="14.00">A_Submitted (276)</text>
</g>
<!-- A_Create Application&#45;&gt;A_Submitted -->
<g id="edge17" class="edge">
<title>A_Create Application&#45;&gt;A_Submitted</title>
<path fill="none" stroke="#000000" stroke-width="1.77" d="M146.5,-703.8C146.5,-692.93 146.5,-678.58 146.5,-665.88"/>
<polygon fill="#000000" stroke="#000000" stroke-width="1.77" points="150,-666.15 146.5,-656.15 143,-666.15 150,-666.15"/>
<text text-anchor="middle" x="157" y="-674.8" font-family="Times,serif" font-size="14.00">276</text>
</g>
<!-- W_Complete application&#45;&gt;W_Complete application -->
<g id="edge3" class="edge">
<title>W_Complete application&#45;&gt;W_Complete application</title>
<path fill="none" stroke="#000000" stroke-width="2.73" d="M305.82,-467.86C316.56,-466.56 323.5,-464.27 323.5,-461 323.5,-459.52 322.08,-458.24 319.52,-457.16"/>
<polygon fill="#000000" stroke="#000000" stroke-width="2.73" points="320.38,-453.76 309.86,-455.03 318.87,-460.6 320.38,-453.76"/>
<text text-anchor="middle" x="334" y="-457.3" font-family="Times,serif" font-size="14.00">475</text>
</g>
<!-- W_Complete application&#45;&gt;A_Concept -->
<g id="edge4" class="edge">
<title>W_Complete application&#45;&gt;A_Concept</title>
<path fill="none" stroke="#000000" stroke-width="2.21" d="M201.58,-442.58C197.52,-432.83 192.1,-420.56 186.5,-410 185.36,-407.86 184.14,-405.67 182.88,-403.49"/>
<polygon fill="#000000" stroke="#000000" stroke-width="2.21" points="185.91,-401.74 177.72,-395.01 179.93,-405.37 185.91,-401.74"/>
<text text-anchor="middle" x="204" y="-413.8" font-family="Times,serif" font-size="14.00">368</text>
</g>
<!-- A_Accepted -->
<g id="node5" class="node">
<title>A_Accepted</title>
<polygon fill="#f9f9ff" stroke="black" points="117,-301 0,-301 0,-265 117,-265 117,-301"/>
<text text-anchor="middle" x="58.5" y="-279.3" font-family="Times,serif" font-size="14.00">A_Accepted (384)</text>
</g>
<!-- W_Complete application&#45;&gt;A_Accepted -->
<g id="edge22" class="edge">
<title>W_Complete application&#45;&gt;A_Accepted</title>
<path fill="none" stroke="#000000" stroke-width="1.7" d="M150.13,-442.56C124.39,-431.96 96.05,-415.77 78.5,-392 61.76,-369.32 57.68,-336.83 57.23,-313.41"/>
<polygon fill="#000000" stroke="#000000" stroke-width="1.7" points="60.72,-313.73 57.28,-303.71 53.72,-313.69 60.72,-313.73"/>
<text text-anchor="middle" x="89" y="-370.3" font-family="Times,serif" font-size="14.00">261</text>
</g>
<!-- W_Call after offers -->
<g id="node9" class="node">
<title>W_Call after offers</title>
<polygon fill="#9b9bff" stroke="black" points="412,-392 249,-392 249,-356 412,-356 412,-392"/>
<text text-anchor="middle" x="330.5" y="-370.3" font-family="Times,serif" font-size="14.00">W_Call after offers (2304)</text>
</g>
<!-- W_Complete application&#45;&gt;W_Call after offers -->
<g id="edge10" class="edge">
<title>W_Complete application&#45;&gt;W_Call after offers</title>
<path fill="none" stroke="#000000" stroke-width="2.29" d="M233.48,-442.59C251.08,-430.33 274.91,-413.73 294.55,-400.05"/>
<polygon fill="#000000" stroke="#000000" stroke-width="2.29" points="296.5,-402.95 302.7,-394.37 292.5,-397.21 296.5,-402.95"/>
<text text-anchor="middle" x="287" y="-413.8" font-family="Times,serif" font-size="14.00">384</text>
</g>
<!-- A_Concept&#45;&gt;W_Complete application -->
<g id="edge21" class="edge">
<title>A_Concept&#45;&gt;W_Complete application</title>
<path fill="none" stroke="#000000" stroke-width="1.7" d="M159.35,-392.07C157.28,-402.16 156.43,-414.9 161.5,-425 163.13,-428.24 165.21,-431.25 167.59,-434.05"/>
<polygon fill="#000000" stroke="#000000" stroke-width="1.7" points="165.11,-436.51 174.76,-440.9 169.95,-431.45 165.11,-436.51"/>
<text text-anchor="middle" x="172" y="-413.8" font-family="Times,serif" font-size="14.00">261</text>
</g>
<!-- A_Concept&#45;&gt;A_Accepted -->
<g id="edge5" class="edge">
<title>A_Concept&#45;&gt;A_Accepted</title>
<path fill="none" stroke="#000000" stroke-width="1.03" d="M143.81,-355.63C127.91,-342.27 105.72,-323.65 87.96,-308.74"/>
<polygon fill="#000000" stroke="#000000" stroke-width="1.03" points="90.24,-306.08 80.33,-302.33 85.74,-311.44 90.24,-306.08"/>
<text text-anchor="middle" x="132" y="-326.8" font-family="Times,serif" font-size="14.00">123</text>
</g>
<!-- O_Create Offer -->
<g id="node6" class="node">
<title>O_Create Offer</title>
<polygon fill="#f9f9ff" stroke="black" points="179.5,-210 45.5,-210 45.5,-174 179.5,-174 179.5,-210"/>
<text text-anchor="middle" x="112.5" y="-188.3" font-family="Times,serif" font-size="14.00">O_Create Offer (397)</text>
</g>
<!-- A_Accepted&#45;&gt;O_Create Offer -->
<g id="edge6" class="edge">
<title>A_Accepted&#45;&gt;O_Create Offer</title>
<path fill="none" stroke="#000000" stroke-width="2.29" d="M68.91,-264.84C76.33,-252.61 86.49,-235.87 95.13,-221.63"/>
<polygon fill="#000000" stroke="#000000" stroke-width="2.29" points="97.94,-223.74 100.14,-213.38 91.96,-220.11 97.94,-223.74"/>
<text text-anchor="middle" x="101" y="-231.8" font-family="Times,serif" font-size="14.00">384</text>
</g>
<!-- O_Created -->
<g id="node7" class="node">
<title>O_Created</title>
<polygon fill="#f9f9ff" stroke="black" points="203.5,-123 95.5,-123 95.5,-87 203.5,-87 203.5,-123"/>
<text text-anchor="middle" x="149.5" y="-101.3" font-family="Times,serif" font-size="14.00">O_Created (397)</text>
</g>
<!-- O_Create Offer&#45;&gt;O_Created -->
<g id="edge7" class="edge">
<title>O_Create Offer&#45;&gt;O_Created</title>
<path fill="none" stroke="#000000" stroke-width="2.35" d="M119.99,-173.8C124.72,-162.93 130.97,-148.58 136.49,-135.88"/>
<polygon fill="#000000" stroke="#000000" stroke-width="2.35" points="139.69,-137.3 140.47,-126.73 133.27,-134.51 139.69,-137.3"/>
<text text-anchor="middle" x="144" y="-144.8" font-family="Times,serif" font-size="14.00">397</text>
</g>
<!-- O_Created&#45;&gt;O_Create Offer -->
<g id="edge24" class="edge">
<title>O_Created&#45;&gt;O_Create Offer</title>
<path fill="none" stroke="#ff0000" stroke-width="0.5" stroke-dasharray="5,2" d="M124.79,-123.19C119.41,-128.25 114.45,-134.26 111.5,-141 108.54,-147.76 107.65,-155.54 107.79,-162.92"/>
<polygon fill="#ff0000" stroke="#ff0000" stroke-width="0.5" points="104.3,-163.19 108.59,-172.88 111.28,-162.63 104.3,-163.19"/>
<text text-anchor="middle" x="118.5" y="-144.8" font-family="Times,serif" font-size="14.00">13</text>
</g>
<!-- O_Sent (mail and online) -->
<g id="node8" class="node">
<title>O_Sent (mail and online)</title>
<polygon fill="#f9f9ff" stroke="black" points="438.5,-36 250.5,-36 250.5,0 438.5,0 438.5,-36"/>
<text text-anchor="middle" x="344.5" y="-14.3" font-family="Times,serif" font-size="14.00">O_Sent (mail and online) (397)</text>
</g>
<!-- O_Created&#45;&gt;O_Sent (mail and online) -->
<g id="edge8" class="edge">
<title>O_Created&#45;&gt;O_Sent (mail and online)</title>
<path fill="none" stroke="#000000" stroke-width="2.29" d="M189.43,-86.59C219.27,-73.59 260.32,-55.7 292.68,-41.59"/>
<polygon fill="#000000" stroke="#000000" stroke-width="2.29" points="293.67,-44.97 301.44,-37.77 290.88,-38.56 293.67,-44.97"/>
<text text-anchor="middle" x="269" y="-57.8" font-family="Times,serif" font-size="14.00">384</text>
</g>
<!-- O_Sent (mail and online)&#45;&gt;W_Complete application -->
<g id="edge9" class="edge">
<title>O_Sent (mail and online)&#45;&gt;W_Complete application</title>
<path fill="none" stroke="#000000" stroke-width="2.29" d="M438.77,-25.2C488.98,-34.21 540.5,-55.32 540.5,-104 540.5,-375 540.5,-375 540.5,-375 540.5,-421.72 415.58,-443.1 318.99,-452.66"/>
<polygon fill="#000000" stroke="#000000" stroke-width="2.29" points="318.95,-449.15 309.32,-453.57 319.61,-456.11 318.95,-449.15"/>
<text text-anchor="middle" x="551" y="-231.8" font-family="Times,serif" font-size="14.00">384</text>
</g>
<!-- O_Sent (mail and online)&#45;&gt;O_Sent (mail and online) -->
<g id="edge25" class="edge">
<title>O_Sent (mail and online)&#45;&gt;O_Sent (mail and online)</title>
<path fill="none" stroke="#ff0000" stroke-width="0.5" stroke-dasharray="5,2" d="M438.87,-24.91C449.57,-23.62 456.5,-21.31 456.5,-18 456.5,-15.93 453.79,-14.25 449.15,-12.97"/>
<polygon fill="#ff0000" stroke="#ff0000" stroke-width="0.5" points="450.08,-9.58 439.62,-11.22 448.82,-16.47 450.08,-9.58"/>
<text text-anchor="middle" x="463.5" y="-14.3" font-family="Times,serif" font-size="14.00">13</text>
</g>
<!-- W_Call after offers&#45;&gt;W_Call after offers -->
<g id="edge11" class="edge">
<title>W_Call after offers&#45;&gt;W_Call after offers</title>
<path fill="none" stroke="#000000" stroke-width="6" d="M412.47,-381.15C423.03,-379.91 430,-377.53 430,-374 430,-372.9 429.32,-371.91 428.06,-371.03"/>
<polygon fill="#000000" stroke="#000000" stroke-width="6" points="429.72,-366.04 418.71,-368.52 427.01,-376.18 429.72,-366.04"/>
<text text-anchor="middle" x="444" y="-370.3" font-family="Times,serif" font-size="14.00">1152</text>
</g>
<!-- A_Complete -->
<g id="node10" class="node">
<title>A_Complete</title>
<polygon fill="#f9f9ff" stroke="black" points="512,-301 393,-301 393,-265 512,-265 512,-301"/>
<text text-anchor="middle" x="452.5" y="-279.3" font-family="Times,serif" font-size="14.00">A_Complete (384)</text>
</g>
<!-- W_Call after offers&#45;&gt;A_Complete -->
<g id="edge12" class="edge">
<title>W_Call after offers&#45;&gt;A_Complete</title>
<path fill="none" stroke="#000000" stroke-width="2.29" d="M396.21,-355.71C406.42,-351.08 416.28,-345.27 424.5,-338 431.89,-331.46 437.61,-322.51 441.9,-313.77"/>
<polygon fill="#000000" stroke="#000000" stroke-width="2.29" points="445.1,-315.19 445.82,-304.62 438.67,-312.43 445.1,-315.19"/>
<text text-anchor="middle" x="446" y="-326.8" font-family="Times,serif" font-size="14.00">384</text>
</g>
<!-- A_Cancelled -->
<g id="node11" class="node">
<title>A_Cancelled</title>
<polygon fill="#f9f9ff" stroke="black" points="255.5,-301 135.5,-301 135.5,-265 255.5,-265 255.5,-301"/>
<text text-anchor="middle" x="195.5" y="-279.3" font-family="Times,serif" font-size="14.00">A_Cancelled (384)</text>
</g>
<!-- W_Call after offers&#45;&gt;A_Cancelled -->
<g id="edge14" class="edge">
<title>W_Call after offers&#45;&gt;A_Cancelled</title>
<path fill="none" stroke="#000000" stroke-width="2.29" d="M288.28,-355.55C277.59,-350.46 266.35,-344.5 256.5,-338 244.46,-330.06 232.33,-319.87 222.09,-310.49"/>
<polygon fill="#000000" stroke="#000000" stroke-width="2.29" points="224.76,-308.19 215.08,-303.87 219.95,-313.28 224.76,-308.19"/>
<text text-anchor="middle" x="267" y="-326.8" font-family="Times,serif" font-size="14.00">384</text>
</g>
<!-- end_node -->
<g id="node15" class="node">
<title>end_node</title>
<ellipse fill="none" stroke="black" cx="352.5" cy="-283" rx="18" ry="18"/>
<ellipse fill="none" stroke="black" cx="352.5" cy="-283" rx="22" ry="22"/>
<text text-anchor="start" x="348" y="-279.3" font-family="Times,serif" font-size="14.00">■</text>
</g>
<!-- W_Call after offers&#45;&gt;end_node -->
<g id="edge27" class="edge">
<title>W_Call after offers&#45;&gt;end_node</title>
<path fill="none" stroke="#000000" stroke-width="2.29" d="M334.74,-355.84C337.41,-345.04 340.95,-330.74 344.16,-317.74"/>
<polygon fill="#000000" stroke="#000000" stroke-width="2.29" points="347.51,-318.78 346.51,-308.23 340.71,-317.1 347.51,-318.78"/>
<text text-anchor="middle" x="353" y="-326.8" font-family="Times,serif" font-size="14.00">384</text>
</g>
<!-- A_Complete&#45;&gt;W_Call after offers -->
<g id="edge13" class="edge">
<title>A_Complete&#45;&gt;W_Call after offers</title>
<path fill="none" stroke="#000000" stroke-width="2.29" d="M428.75,-301.33C410.63,-314.55 385.4,-332.95 365.04,-347.8"/>
<polygon fill="#000000" stroke="#000000" stroke-width="2.29" points="363.13,-344.86 357.11,-353.58 367.26,-350.52 363.13,-344.86"/>
<text text-anchor="middle" x="409" y="-326.8" font-family="Times,serif" font-size="14.00">384</text>
</g>
<!-- O_Cancelled -->
<g id="node12" class="node">
<title>O_Cancelled</title>
<polygon fill="#f9f9ff" stroke="black" points="330.5,-210 210.5,-210 210.5,-174 330.5,-174 330.5,-210"/>
<text text-anchor="middle" x="270.5" y="-188.3" font-family="Times,serif" font-size="14.00">O_Cancelled (397)</text>
</g>
<!-- A_Cancelled&#45;&gt;O_Cancelled -->
<g id="edge15" class="edge">
<title>A_Cancelled&#45;&gt;O_Cancelled</title>
<path fill="none" stroke="#000000" stroke-width="2.29" d="M209.96,-264.84C220.58,-252.24 235.22,-234.86 247.45,-220.36"/>
<polygon fill="#000000" stroke="#000000" stroke-width="2.29" points="249.83,-222.97 253.59,-213.06 244.47,-218.45 249.83,-222.97"/>
<text text-anchor="middle" x="250" y="-231.8" font-family="Times,serif" font-size="14.00">384</text>
</g>
<!-- O_Cancelled&#45;&gt;W_Call after offers -->
<g id="edge16" class="edge">
<title>O_Cancelled&#45;&gt;W_Call after offers</title>
<path fill="none" stroke="#000000" stroke-width="2.29" d="M274.27,-210.33C279.3,-232.55 288.93,-272.15 300.5,-305 305.06,-317.96 311.02,-331.9 316.42,-343.77"/>
<polygon fill="#000000" stroke="#000000" stroke-width="2.29" points="313.12,-344.96 320.51,-352.54 319.46,-342 313.12,-344.96"/>
<text text-anchor="middle" x="311" y="-279.3" font-family="Times,serif" font-size="14.00">384</text>
</g>
<!-- O_Cancelled&#45;&gt;O_Cancelled -->
<g id="edge26" class="edge">
<title>O_Cancelled&#45;&gt;O_Cancelled</title>
<path fill="none" stroke="#ff0000" stroke-width="0.5" stroke-dasharray="5,2" d="M330.68,-199.65C341.19,-198.63 348.5,-196.08 348.5,-192 348.5,-189.45 345.64,-187.5 340.93,-186.15"/>
<polygon fill="#ff0000" stroke="#ff0000" stroke-width="0.5" points="341.87,-182.76 331.42,-184.48 340.67,-189.65 341.87,-182.76"/>
<text text-anchor="middle" x="355.5" y="-188.3" font-family="Times,serif" font-size="14.00">13</text>
</g>
<!-- W_Handle leads -->
<g id="node14" class="node">
<title>W_Handle leads</title>
<polygon fill="#f0f0ff" stroke="black" points="216.5,-566 76.5,-566 76.5,-530 216.5,-530 216.5,-566"/>
<text text-anchor="middle" x="146.5" y="-544.3" font-family="Times,serif" font-size="14.00">W_Handle leads (563)</text>
</g>
<!-- A_Submitted&#45;&gt;W_Handle leads -->
<g id="edge18" class="edge">
<title>A_Submitted&#45;&gt;W_Handle leads</title>
<path fill="none" stroke="#000000" stroke-width="1.77" d="M146.5,-616.8C146.5,-605.93 146.5,-591.58 146.5,-578.88"/>
<polygon fill="#000000" stroke="#000000" stroke-width="1.77" points="150,-579.15 146.5,-569.15 143,-579.15 150,-579.15"/>
<text text-anchor="middle" x="157" y="-587.8" font-family="Times,serif" font-size="14.00">276</text>
</g>
<!-- W_Handle leads&#45;&gt;W_Complete application -->
<g id="edge20" class="edge">
<title>W_Handle leads&#45;&gt;W_Complete application</title>
<path fill="none" stroke="#000000" stroke-width="1.77" d="M159.05,-529.8C167.48,-518.24 178.77,-502.75 188.44,-489.5"/>
<polygon fill="#000000" stroke="#000000" stroke-width="1.77" points="191.12,-491.77 194.18,-481.63 185.46,-487.65 191.12,-491.77"/>
<text text-anchor="middle" x="191" y="-500.8" font-family="Times,serif" font-size="14.00">276</text>
</g>
<!-- W_Handle leads&#45;&gt;W_Handle leads -->
<g id="edge19" class="edge">
<title>W_Handle leads&#45;&gt;W_Handle leads</title>
<path fill="none" stroke="#000000" stroke-width="1.82" d="M216.93,-555.4C227.41,-554.25 234.5,-551.78 234.5,-548 234.5,-546.05 232.61,-544.45 229.35,-543.2"/>
<polygon fill="#000000" stroke="#000000" stroke-width="1.82" points="230.13,-539.79 219.63,-541.17 228.7,-546.64 230.13,-539.79"/>
<text text-anchor="middle" x="245" y="-544.3" font-family="Times,serif" font-size="14.00">287</text>
</g>
</g>
</svg>
