<?xml version="1.0" encoding="UTF-8" standalone="no"?>
<!DOCTYPE svg PUBLIC "-//W3C//DTD SVG 1.1//EN"
 "http://www.w3.org/Graphics/SVG/1.1/DTD/svg11.dtd">
<!-- Generated by graphviz version 7.0.5 (0)
 -->
<!-- Title: dfg Pages: 1 -->
<svg width="382pt" height="1009pt"
 viewBox="0.00 0.00 382.00 1009.00" xmlns="http://www.w3.org/2000/svg" xmlns:xlink="http://www.w3.org/1999/xlink">
<g id="graph0" class="graph" transform="scale(1 1) rotate(0) translate(4 1005)">
<title>dfg</title>
<polygon fill="white" stroke="none" points="-4,4 -4,-1005 378,-1005 378,4 -4,4"/>
<!-- start_node -->
<g id="node1" class="node">
<title>start_node</title>
<ellipse fill="none" stroke="black" cx="183" cy="-983" rx="18" ry="18"/>
<text text-anchor="start" x="178.5" y="-979.3" font-family="Times,serif" font-size="14.00">●</text>
</g>
<!-- A_Create Application -->
<g id="node2" class="node">
<title>A_Create Application</title>
<polygon fill="#ffffff" stroke="black" points="267,-914 99,-914 99,-878 267,-878 267,-914"/>
<text text-anchor="middle" x="183" y="-892.3" font-family="Times,serif" font-size="14.00">A_Create Application (410)</text>
</g>
<!-- start_node&#45;&gt;A_Create Application -->
<g id="edge1" class="edge">
<title>start_node&#45;&gt;A_Create Application</title>
<path fill="none" stroke="#000000" stroke-width="2.29" d="M183,-964.8C183,-954.15 183,-940.18 183,-927.69"/>
<polygon fill="#000000" stroke="#000000" stroke-width="2.29" points="186.5,-927.94 183,-917.94 179.5,-927.94 186.5,-927.94"/>
<text text-anchor="middle" x="193.5" y="-935.8" font-family="Times,serif" font-size="14.00">410</text>
</g>
<!-- W_Complete application -->
<g id="node3" class="node">
<title>W_Complete application</title>
<polygon fill="#d7d7ff" stroke="black" points="194,-827 0,-827 0,-791 194,-791 194,-827"/>
<text text-anchor="middle" x="97" y="-805.3" font-family="Times,serif" font-size="14.00">W_Complete application (1230)</text>
</g>
<!-- A_Create Application&#45;&gt;W_Complete application -->
<g id="edge2" class="edge">
<title>A_Create Application&#45;&gt;W_Complete application</title>
<path fill="none" stroke="#000000" stroke-width="2.18" d="M165.6,-877.8C153.67,-866.01 137.61,-850.14 124.03,-836.72"/>
<polygon fill="#000000" stroke="#000000" stroke-width="2.18" points="126.59,-834.33 117.02,-829.79 121.67,-839.31 126.59,-834.33"/>
<text text-anchor="middle" x="155.5" y="-848.8" font-family="Times,serif" font-size="14.00">385</text>
</g>
<!-- A_Concept -->
<g id="node4" class="node">
<title>A_Concept</title>
<polygon fill="#ffffff" stroke="black" points="246.5,-740 135.5,-740 135.5,-704 246.5,-704 246.5,-740"/>
<text text-anchor="middle" x="191" y="-718.3" font-family="Times,serif" font-size="14.00">A_Concept (410)</text>
</g>
<!-- A_Create Application&#45;&gt;A_Concept -->
<g id="edge20" class="edge">
<title>A_Create Application&#45;&gt;A_Concept</title>
<path fill="none" stroke="#ff0000" stroke-width="0.56" stroke-dasharray="5,2" d="M204.54,-877.58C218.14,-865.12 234.51,-847.06 242,-827 247.6,-812.01 247.06,-806.18 242,-791 236.78,-775.34 226.39,-760.38 216.34,-748.51"/>
<polygon fill="#ff0000" stroke="#ff0000" stroke-width="0.56" points="218.98,-746.21 209.72,-741.07 213.75,-750.86 218.98,-746.21"/>
<text text-anchor="middle" x="252" y="-805.3" font-family="Times,serif" font-size="14.00">25</text>
</g>
<!-- W_Complete application&#45;&gt;W_Complete application -->
<g id="edge3" class="edge">
<title>W_Complete application&#45;&gt;W_Complete application</title>
<path fill="none" stroke="#000000" stroke-width="2.29" d="M194.32,-815.86C205.06,-814.56 212,-812.27 212,-809 212,-807.42 210.37,-806.06 207.47,-804.94"/>
<polygon fill="#000000" stroke="#000000" stroke-width="2.29" points="208.23,-801.52 197.72,-802.86 206.77,-808.37 208.23,-801.52"/>
<text text-anchor="middle" x="222.5" y="-805.3" font-family="Times,serif" font-size="14.00">410</text>
</g>
<!-- W_Complete application&#45;&gt;A_Concept -->
<g id="edge4" class="edge">
<title>W_Complete application&#45;&gt;A_Concept</title>
<path fill="none" stroke="#000000" stroke-width="2.18" d="M111.55,-790.54C120.23,-780.55 131.73,-768.05 143,-758 146.79,-754.62 150.89,-751.25 155.05,-748"/>
<polygon fill="#000000" stroke="#000000" stroke-width="2.18" points="156.82,-751.05 162.72,-742.25 152.62,-745.45 156.82,-751.05"/>
<text text-anchor="middle" x="153.5" y="-761.8" font-family="Times,serif" font-size="14.00">385</text>
</g>
<!-- A_Accepted -->
<g id="node5" class="node">
<title>A_Accepted</title>
<polygon fill="#ffffff" stroke="black" points="221.5,-653 104.5,-653 104.5,-617 221.5,-617 221.5,-653"/>
<text text-anchor="middle" x="163" y="-631.3" font-family="Times,serif" font-size="14.00">A_Accepted (410)</text>
</g>
<!-- W_Complete application&#45;&gt;A_Accepted -->
<g id="edge22" class="edge">
<title>W_Complete application&#45;&gt;A_Accepted</title>
<path fill="none" stroke="#ff0000" stroke-width="0.56" stroke-dasharray="5,2" d="M97.16,-790.76C97.91,-769.56 101.03,-732.85 113,-704 119.37,-688.64 129.92,-673.54 139.69,-661.49"/>
<polygon fill="#ff0000" stroke="#ff0000" stroke-width="0.56" points="142.28,-663.84 146.05,-653.93 136.93,-659.33 142.28,-663.84"/>
<text text-anchor="middle" x="120" y="-718.3" font-family="Times,serif" font-size="14.00">25</text>
</g>
<!-- W_Call after offers -->
<g id="node9" class="node">
<title>W_Call after offers</title>
<polygon fill="#9b9bff" stroke="black" points="219.5,-131 56.5,-131 56.5,-95 219.5,-95 219.5,-131"/>
<text text-anchor="middle" x="138" y="-109.3" font-family="Times,serif" font-size="14.00">W_Call after offers (2462)</text>
</g>
<!-- W_Complete application&#45;&gt;W_Call after offers -->
<g id="edge10" class="edge">
<title>W_Complete application&#45;&gt;W_Call after offers</title>
<path fill="none" stroke="#000000" stroke-width="2.29" d="M83.23,-790.55C71.66,-774.11 57,-748.28 57,-723 57,-723 57,-723 57,-199 57,-174.18 75.33,-153.74 94.55,-139.12"/>
<polygon fill="#000000" stroke="#000000" stroke-width="2.29" points="96.51,-142.02 102.68,-133.41 92.49,-136.3 96.51,-142.02"/>
<text text-anchor="middle" x="67.5" y="-457.3" font-family="Times,serif" font-size="14.00">410</text>
</g>
<!-- A_Concept&#45;&gt;W_Complete application -->
<g id="edge21" class="edge">
<title>A_Concept&#45;&gt;W_Complete application</title>
<path fill="none" stroke="#ff0000" stroke-width="0.56" stroke-dasharray="5,2" d="M184.66,-740.39C180.16,-750.85 173.27,-763.86 164,-773 159.4,-777.54 154.09,-781.62 148.52,-785.26"/>
<polygon fill="#ff0000" stroke="#ff0000" stroke-width="0.56" points="147.1,-782.03 140.33,-790.18 150.71,-788.03 147.1,-782.03"/>
<text text-anchor="middle" x="182" y="-761.8" font-family="Times,serif" font-size="14.00">25</text>
</g>
<!-- A_Concept&#45;&gt;A_Accepted -->
<g id="edge5" class="edge">
<title>A_Concept&#45;&gt;A_Accepted</title>
<path fill="none" stroke="#000000" stroke-width="2.18" d="M185.33,-703.8C181.75,-692.93 177.03,-678.58 172.84,-665.88"/>
<polygon fill="#000000" stroke="#000000" stroke-width="2.18" points="176.24,-665.01 169.79,-656.6 169.59,-667.2 176.24,-665.01"/>
<text text-anchor="middle" x="188.5" y="-674.8" font-family="Times,serif" font-size="14.00">385</text>
</g>
<!-- O_Create Offer -->
<g id="node6" class="node">
<title>O_Create Offer</title>
<polygon fill="#fcfcff" stroke="black" points="230,-566 96,-566 96,-530 230,-530 230,-566"/>
<text text-anchor="middle" x="163" y="-544.3" font-family="Times,serif" font-size="14.00">O_Create Offer (454)</text>
</g>
<!-- A_Accepted&#45;&gt;O_Create Offer -->
<g id="edge6" class="edge">
<title>A_Accepted&#45;&gt;O_Create Offer</title>
<path fill="none" stroke="#000000" stroke-width="2.29" d="M163,-616.8C163,-606.15 163,-592.18 163,-579.69"/>
<polygon fill="#000000" stroke="#000000" stroke-width="2.29" points="166.5,-579.94 163,-569.94 159.5,-579.94 166.5,-579.94"/>
<text text-anchor="middle" x="173.5" y="-587.8" font-family="Times,serif" font-size="14.00">410</text>
</g>
<!-- O_Created -->
<g id="node7" class="node">
<title>O_Created</title>
<polygon fill="#fcfcff" stroke="black" points="261,-479 153,-479 153,-443 261,-443 261,-479"/>
<text text-anchor="middle" x="207" y="-457.3" font-family="Times,serif" font-size="14.00">O_Created (454)</text>
</g>
<!-- O_Create Offer&#45;&gt;O_Created -->
<g id="edge7" class="edge">
<title>O_Create Offer&#45;&gt;O_Created</title>
<path fill="none" stroke="#000000" stroke-width="2.49" d="M159.89,-529.96C158.87,-519.88 159.05,-507.14 164,-497 165.34,-494.26 167,-491.66 168.89,-489.21"/>
<polygon fill="#000000" stroke="#000000" stroke-width="2.49" points="171.27,-491.79 175.7,-482.16 166.23,-486.92 171.27,-491.79"/>
<text text-anchor="middle" x="174.5" y="-500.8" font-family="Times,serif" font-size="14.00">454</text>
</g>
<!-- O_Created&#45;&gt;O_Create Offer -->
<g id="edge17" class="edge">
<title>O_Created&#45;&gt;O_Create Offer</title>
<path fill="none" stroke="#ff0000" stroke-width="0.59" stroke-dasharray="5,2" d="M200.08,-479.42C196.02,-489.17 190.6,-501.44 185,-512 183.47,-514.89 181.79,-517.85 180.05,-520.78"/>
<polygon fill="#ff0000" stroke="#ff0000" stroke-width="0.59" points="177.2,-518.74 174.95,-529.09 183.17,-522.4 177.2,-518.74"/>
<text text-anchor="middle" x="199" y="-500.8" font-family="Times,serif" font-size="14.00">32</text>
</g>
<!-- O_Sent (mail and online) -->
<g id="node8" class="node">
<title>O_Sent (mail and online)</title>
<polygon fill="#fcfcff" stroke="black" points="342,-392 154,-392 154,-356 342,-356 342,-392"/>
<text text-anchor="middle" x="248" y="-370.3" font-family="Times,serif" font-size="14.00">O_Sent (mail and online) (454)</text>
</g>
<!-- O_Created&#45;&gt;O_Sent (mail and online) -->
<g id="edge8" class="edge">
<title>O_Created&#45;&gt;O_Sent (mail and online)</title>
<path fill="none" stroke="#000000" stroke-width="2.35" d="M215.3,-442.8C220.6,-431.81 227.61,-417.28 233.78,-404.48"/>
<polygon fill="#000000" stroke="#000000" stroke-width="2.35" points="236.84,-406.2 238.03,-395.67 230.53,-403.15 236.84,-406.2"/>
<text text-anchor="middle" x="239.5" y="-413.8" font-family="Times,serif" font-size="14.00">422</text>
</g>
<!-- O_Sent (mail and online)&#45;&gt;W_Complete application -->
<g id="edge9" class="edge">
<title>O_Sent (mail and online)&#45;&gt;W_Complete application</title>
<path fill="none" stroke="#000000" stroke-width="2.29" d="M264.09,-392.42C277.35,-408.65 294,-434.16 294,-460 294,-723 294,-723 294,-723 294,-766.83 252.38,-788.32 207.41,-798.76"/>
<polygon fill="#000000" stroke="#000000" stroke-width="2.29" points="206.82,-795.3 197.75,-800.77 208.25,-802.16 206.82,-795.3"/>
<text text-anchor="middle" x="304.5" y="-587.8" font-family="Times,serif" font-size="14.00">410</text>
</g>
<!-- O_Sent (mail and online)&#45;&gt;O_Sent (mail and online) -->
<g id="edge18" class="edge">
<title>O_Sent (mail and online)&#45;&gt;O_Sent (mail and online)</title>
<path fill="none" stroke="#ff0000" stroke-width="0.59" stroke-dasharray="5,2" d="M342.37,-380.91C353.07,-379.62 360,-377.31 360,-374 360,-371.98 357.43,-370.34 352.99,-369.07"/>
<polygon fill="#ff0000" stroke="#ff0000" stroke-width="0.59" points="353.72,-365.64 343.25,-367.25 352.44,-372.52 353.72,-365.64"/>
<text text-anchor="middle" x="367" y="-370.3" font-family="Times,serif" font-size="14.00">32</text>
</g>
<!-- A_Cancelled -->
<g id="node11" class="node">
<title>A_Cancelled</title>
<polygon fill="#ffffff" stroke="black" points="308,-305 188,-305 188,-269 308,-269 308,-305"/>
<text text-anchor="middle" x="248" y="-283.3" font-family="Times,serif" font-size="14.00">A_Cancelled (410)</text>
</g>
<!-- O_Sent (mail and online)&#45;&gt;A_Cancelled -->
<g id="edge24" class="edge">
<title>O_Sent (mail and online)&#45;&gt;A_Cancelled</title>
<path fill="none" stroke="#ff0000" stroke-width="0.5" stroke-dasharray="5,2" d="M248,-355.8C248,-344.35 248,-329.06 248,-315.89"/>
<polygon fill="#ff0000" stroke="#ff0000" stroke-width="0.5" points="251.5,-316.22 248,-306.22 244.5,-316.22 251.5,-316.22"/>
<text text-anchor="middle" x="255" y="-326.8" font-family="Times,serif" font-size="14.00">12</text>
</g>
<!-- W_Call after offers&#45;&gt;O_Create Offer -->
<g id="edge23" class="edge">
<title>W_Call after offers&#45;&gt;O_Create Offer</title>
<path fill="none" stroke="#ff0000" stroke-width="0.5" stroke-dasharray="5,2" d="M130.47,-131.21C123.76,-148.13 115,-174.85 115,-199 115,-462 115,-462 115,-462 115,-484.02 127.37,-505.59 139.54,-521.48"/>
<polygon fill="#ff0000" stroke="#ff0000" stroke-width="0.5" points="136.72,-523.55 145.74,-529.11 142.15,-519.14 136.72,-523.55"/>
<text text-anchor="middle" x="122" y="-326.8" font-family="Times,serif" font-size="14.00">12</text>
</g>
<!-- W_Call after offers&#45;&gt;W_Call after offers -->
<g id="edge11" class="edge">
<title>W_Call after offers&#45;&gt;W_Call after offers</title>
<path fill="none" stroke="#000000" stroke-width="6" d="M219.97,-120.15C230.53,-118.91 237.5,-116.53 237.5,-113 237.5,-111.9 236.82,-110.91 235.56,-110.03"/>
<polygon fill="#000000" stroke="#000000" stroke-width="6" points="237.22,-105.04 226.21,-107.52 234.51,-115.18 237.22,-105.04"/>
<text text-anchor="middle" x="251.5" y="-109.3" font-family="Times,serif" font-size="14.00">1232</text>
</g>
<!-- A_Complete -->
<g id="node10" class="node">
<title>A_Complete</title>
<polygon fill="#ffffff" stroke="black" points="153.5,-40 34.5,-40 34.5,-4 153.5,-4 153.5,-40"/>
<text text-anchor="middle" x="94" y="-18.3" font-family="Times,serif" font-size="14.00">A_Complete (410)</text>
</g>
<!-- W_Call after offers&#45;&gt;A_Complete -->
<g id="edge12" class="edge">
<title>W_Call after offers&#45;&gt;A_Complete</title>
<path fill="none" stroke="#000000" stroke-width="2.29" d="M109.31,-94.56C103.56,-89.64 98.29,-83.75 95,-77 91.56,-69.94 90.27,-61.72 90.08,-53.85"/>
<polygon fill="#000000" stroke="#000000" stroke-width="2.29" points="93.58,-54.03 90.55,-43.87 86.58,-53.7 93.58,-54.03"/>
<text text-anchor="middle" x="105.5" y="-65.8" font-family="Times,serif" font-size="14.00">410</text>
</g>
<!-- W_Call after offers&#45;&gt;A_Cancelled -->
<g id="edge14" class="edge">
<title>W_Call after offers&#45;&gt;A_Cancelled</title>
<path fill="none" stroke="#000000" stroke-width="2.24" d="M140.36,-131.44C143.94,-153.17 152.3,-190.75 170,-218 180.71,-234.49 196.52,-249.3 211.11,-260.87"/>
<polygon fill="#000000" stroke="#000000" stroke-width="2.24" points="208.64,-263.39 218.72,-266.64 212.87,-257.81 208.64,-263.39"/>
<text text-anchor="middle" x="180.5" y="-196.3" font-family="Times,serif" font-size="14.00">398</text>
</g>
<!-- end_node -->
<g id="node13" class="node">
<title>end_node</title>
<ellipse fill="none" stroke="black" cx="194" cy="-22" rx="18" ry="18"/>
<ellipse fill="none" stroke="black" cx="194" cy="-22" rx="22" ry="22"/>
<text text-anchor="start" x="189.5" y="-18.3" font-family="Times,serif" font-size="14.00">■</text>
</g>
<!-- W_Call after offers&#45;&gt;end_node -->
<g id="edge25" class="edge">
<title>W_Call after offers&#45;&gt;end_node</title>
<path fill="none" stroke="#000000" stroke-width="2.29" d="M148.8,-94.84C156.4,-82.76 166.75,-66.3 175.64,-52.18"/>
<polygon fill="#000000" stroke="#000000" stroke-width="2.29" points="178.45,-54.29 180.81,-43.96 172.52,-50.56 178.45,-54.29"/>
<text text-anchor="middle" x="179.5" y="-65.8" font-family="Times,serif" font-size="14.00">410</text>
</g>
<!-- A_Complete&#45;&gt;W_Call after offers -->
<g id="edge13" class="edge">
<title>A_Complete&#45;&gt;W_Call after offers</title>
<path fill="none" stroke="#000000" stroke-width="2.29" d="M104.23,-40.27C108.07,-46.98 112.38,-54.77 116,-62 119.26,-68.51 122.54,-75.62 125.54,-82.37"/>
<polygon fill="#000000" stroke="#000000" stroke-width="2.29" points="122.31,-83.71 129.5,-91.49 128.73,-80.93 122.31,-83.71"/>
<text text-anchor="middle" x="133.5" y="-65.8" font-family="Times,serif" font-size="14.00">410</text>
</g>
<!-- O_Cancelled -->
<g id="node12" class="node">
<title>O_Cancelled</title>
<polygon fill="#fcfcff" stroke="black" points="320,-218 200,-218 200,-182 320,-182 320,-218"/>
<text text-anchor="middle" x="260" y="-196.3" font-family="Times,serif" font-size="14.00">O_Cancelled (454)</text>
</g>
<!-- A_Cancelled&#45;&gt;O_Cancelled -->
<g id="edge15" class="edge">
<title>A_Cancelled&#45;&gt;O_Cancelled</title>
<path fill="none" stroke="#000000" stroke-width="2.29" d="M250.43,-268.8C251.93,-258.15 253.9,-244.18 255.67,-231.69"/>
<polygon fill="#000000" stroke="#000000" stroke-width="2.29" points="259.12,-232.3 257.05,-221.91 252.19,-231.32 259.12,-232.3"/>
<text text-anchor="middle" x="264.5" y="-239.8" font-family="Times,serif" font-size="14.00">410</text>
</g>
<!-- O_Cancelled&#45;&gt;W_Call after offers -->
<g id="edge16" class="edge">
<title>O_Cancelled&#45;&gt;W_Call after offers</title>
<path fill="none" stroke="#000000" stroke-width="2.29" d="M235.02,-181.59C217.42,-169.33 193.59,-152.73 173.95,-139.05"/>
<polygon fill="#000000" stroke="#000000" stroke-width="2.29" points="176,-136.21 165.8,-133.37 172,-141.96 176,-136.21"/>
<text text-anchor="middle" x="216.5" y="-152.8" font-family="Times,serif" font-size="14.00">410</text>
</g>
<!-- O_Cancelled&#45;&gt;O_Cancelled -->
<g id="edge19" class="edge">
<title>O_Cancelled&#45;&gt;O_Cancelled</title>
<path fill="none" stroke="#ff0000" stroke-width="0.64" stroke-dasharray="5,2" d="M320.18,-207.65C330.69,-206.63 338,-204.08 338,-200 338,-197.51 335.28,-195.6 330.78,-194.25"/>
<polygon fill="#ff0000" stroke="#ff0000" stroke-width="0.64" points="331.6,-190.84 321.14,-192.52 330.36,-197.73 331.6,-190.84"/>
<text text-anchor="middle" x="345" y="-196.3" font-family="Times,serif" font-size="14.00">44</text>
</g>
</g>
</svg>
