<?xml version="1.0" encoding="UTF-8" standalone="no"?>
<!DOCTYPE svg PUBLIC "-//W3C//DTD SVG 1.1//EN"
 "http://www.w3.org/Graphics/SVG/1.1/DTD/svg11.dtd">
<!-- Generated by graphviz version 7.0.5 (0)
 -->
<!-- Title: dfg Pages: 1 -->
<svg width="969pt" height="1618pt"
 viewBox="0.00 0.00 969.00 1618.00" xmlns="http://www.w3.org/2000/svg" xmlns:xlink="http://www.w3.org/1999/xlink">
<g id="graph0" class="graph" transform="scale(1 1) rotate(0) translate(4 1614)">
<title>dfg</title>
<polygon fill="white" stroke="none" points="-4,4 -4,-1614 965,-1614 965,4 -4,4"/>
<!-- start_node -->
<g id="node1" class="node">
<title>start_node</title>
<ellipse fill="none" stroke="black" cx="576" cy="-1592" rx="18" ry="18"/>
<text text-anchor="start" x="571.5" y="-1588.3" font-family="Times,serif" font-size="14.00">●</text>
</g>
<!-- A_Create Application -->
<g id="node2" class="node">
<title>A_Create Application</title>
<polygon fill="#efefff" stroke="black" points="663.5,-1523 488.5,-1523 488.5,-1487 663.5,-1487 663.5,-1523"/>
<text text-anchor="middle" x="576" y="-1501.3" font-family="Times,serif" font-size="14.00">A_Create Application (1683)</text>
</g>
<!-- start_node&#45;&gt;A_Create Application -->
<g id="edge1" class="edge">
<title>start_node&#45;&gt;A_Create Application</title>
<path fill="none" stroke="#000000" stroke-width="1.87" d="M576,-1573.8C576,-1563.04 576,-1548.88 576,-1536.29"/>
<polygon fill="#000000" stroke="#000000" stroke-width="1.87" points="579.5,-1536.3 576,-1526.3 572.5,-1536.3 579.5,-1536.3"/>
<text text-anchor="middle" x="590" y="-1544.8" font-family="Times,serif" font-size="14.00">1683</text>
</g>
<!-- A_Submitted -->
<g id="node3" class="node">
<title>A_Submitted</title>
<polygon fill="#f3f3ff" stroke="black" points="640.5,-1436 511.5,-1436 511.5,-1400 640.5,-1400 640.5,-1436"/>
<text text-anchor="middle" x="576" y="-1414.3" font-family="Times,serif" font-size="14.00">A_Submitted (1282)</text>
</g>
<!-- A_Create Application&#45;&gt;A_Submitted -->
<g id="edge2" class="edge">
<title>A_Create Application&#45;&gt;A_Submitted</title>
<path fill="none" stroke="#000000" stroke-width="1.55" d="M576,-1486.8C576,-1475.81 576,-1461.28 576,-1448.48"/>
<polygon fill="#000000" stroke="#000000" stroke-width="1.55" points="579.5,-1448.81 576,-1438.81 572.5,-1448.81 579.5,-1448.81"/>
<text text-anchor="middle" x="590" y="-1457.8" font-family="Times,serif" font-size="14.00">1282</text>
</g>
<!-- W_Complete application -->
<g id="node5" class="node">
<title>W_Complete application</title>
<polygon fill="#c5c5ff" stroke="black" points="821,-1262 627,-1262 627,-1226 821,-1226 821,-1262"/>
<text text-anchor="middle" x="724" y="-1240.3" font-family="Times,serif" font-size="14.00">W_Complete application (6291)</text>
</g>
<!-- A_Create Application&#45;&gt;W_Complete application -->
<g id="edge34" class="edge">
<title>A_Create Application&#45;&gt;W_Complete application</title>
<path fill="none" stroke="#ff0000" stroke-width="0.77" stroke-dasharray="5,2" d="M597.52,-1486.54C612.85,-1473.52 633.41,-1454.8 649,-1436 678.2,-1400.79 687.17,-1391.54 704,-1349 713.71,-1324.48 718.81,-1294.79 721.43,-1273.42"/>
<polygon fill="#ff0000" stroke="#ff0000" stroke-width="0.77" points="724.89,-1273.97 722.51,-1263.65 717.93,-1273.2 724.89,-1273.97"/>
<text text-anchor="middle" x="707.5" y="-1370.8" font-family="Times,serif" font-size="14.00">336</text>
</g>
<!-- A_Concept -->
<g id="node6" class="node">
<title>A_Concept</title>
<polygon fill="#efefff" stroke="black" points="633,-1175 515,-1175 515,-1139 633,-1139 633,-1175"/>
<text text-anchor="middle" x="574" y="-1153.3" font-family="Times,serif" font-size="14.00">A_Concept (1683)</text>
</g>
<!-- A_Create Application&#45;&gt;A_Concept -->
<g id="edge36" class="edge">
<title>A_Create Application&#45;&gt;A_Concept</title>
<path fill="none" stroke="#ff0000" stroke-width="0.55" stroke-dasharray="5,2" d="M522,-1486.58C492.54,-1473.33 462,-1451.71 462,-1419 462,-1419 462,-1419 462,-1243 462,-1213.98 486.16,-1193.58 512.04,-1180.05"/>
<polygon fill="#ff0000" stroke="#ff0000" stroke-width="0.55" points="513.41,-1183.28 520.86,-1175.74 510.34,-1176.99 513.41,-1183.28"/>
<text text-anchor="middle" x="469" y="-1327.3" font-family="Times,serif" font-size="14.00">65</text>
</g>
<!-- W_Handle leads -->
<g id="node4" class="node">
<title>W_Handle leads</title>
<polygon fill="#e7e7ff" stroke="black" points="649.5,-1349 502.5,-1349 502.5,-1313 649.5,-1313 649.5,-1349"/>
<text text-anchor="middle" x="576" y="-1327.3" font-family="Times,serif" font-size="14.00">W_Handle leads (2622)</text>
</g>
<!-- A_Submitted&#45;&gt;W_Handle leads -->
<g id="edge3" class="edge">
<title>A_Submitted&#45;&gt;W_Handle leads</title>
<path fill="none" stroke="#000000" stroke-width="1.55" d="M576,-1399.8C576,-1388.81 576,-1374.28 576,-1361.48"/>
<polygon fill="#000000" stroke="#000000" stroke-width="1.55" points="579.5,-1361.81 576,-1351.81 572.5,-1361.81 579.5,-1361.81"/>
<text text-anchor="middle" x="590" y="-1370.8" font-family="Times,serif" font-size="14.00">1282</text>
</g>
<!-- W_Handle leads&#45;&gt;W_Handle leads -->
<g id="edge4" class="edge">
<title>W_Handle leads&#45;&gt;W_Handle leads</title>
<path fill="none" stroke="#000000" stroke-width="1.59" d="M649.96,-1338.32C660.45,-1337.14 667.5,-1334.7 667.5,-1331 667.5,-1329.04 665.51,-1327.43 662.07,-1326.17"/>
<polygon fill="#000000" stroke="#000000" stroke-width="1.59" points="662.82,-1322.75 652.32,-1324.17 661.41,-1329.61 662.82,-1322.75"/>
<text text-anchor="middle" x="681.5" y="-1327.3" font-family="Times,serif" font-size="14.00">1340</text>
</g>
<!-- W_Handle leads&#45;&gt;W_Complete application -->
<g id="edge5" class="edge">
<title>W_Handle leads&#45;&gt;W_Complete application</title>
<path fill="none" stroke="#000000" stroke-width="1.55" d="M606.31,-1312.59C628.45,-1299.87 658.74,-1282.48 683.04,-1268.52"/>
<polygon fill="#000000" stroke="#000000" stroke-width="1.55" points="684.78,-1271.56 691.7,-1263.55 681.29,-1265.49 684.78,-1271.56"/>
<text text-anchor="middle" x="673" y="-1283.8" font-family="Times,serif" font-size="14.00">1282</text>
</g>
<!-- W_Complete application&#45;&gt;W_Complete application -->
<g id="edge29" class="edge">
<title>W_Complete application&#45;&gt;W_Complete application</title>
<path fill="none" stroke="#000000" stroke-width="1.99" d="M821.32,-1250.86C832.06,-1249.56 839,-1247.27 839,-1244 839,-1242.31 837.16,-1240.89 833.9,-1239.72"/>
<polygon fill="#000000" stroke="#000000" stroke-width="1.99" points="834.77,-1236.33 824.27,-1237.74 833.35,-1243.19 834.77,-1236.33"/>
<text text-anchor="middle" x="853" y="-1240.3" font-family="Times,serif" font-size="14.00">1819</text>
</g>
<!-- W_Complete application&#45;&gt;A_Concept -->
<g id="edge6" class="edge">
<title>W_Complete application&#45;&gt;A_Concept</title>
<path fill="none" stroke="#000000" stroke-width="1.82" d="M663.49,-1225.51C650.98,-1220.71 638.21,-1214.89 627,-1208 616.4,-1201.48 606.11,-1192.58 597.47,-1184.1"/>
<polygon fill="#000000" stroke="#000000" stroke-width="1.82" points="600.21,-1181.89 590.72,-1177.17 595.19,-1186.78 600.21,-1181.89"/>
<text text-anchor="middle" x="641" y="-1196.8" font-family="Times,serif" font-size="14.00">1618</text>
</g>
<!-- A_Accepted -->
<g id="node7" class="node">
<title>A_Accepted</title>
<polygon fill="#efefff" stroke="black" points="731,-1088 607,-1088 607,-1052 731,-1052 731,-1088"/>
<text text-anchor="middle" x="669" y="-1066.3" font-family="Times,serif" font-size="14.00">A_Accepted (1683)</text>
</g>
<!-- W_Complete application&#45;&gt;A_Accepted -->
<g id="edge8" class="edge">
<title>W_Complete application&#45;&gt;A_Accepted</title>
<path fill="none" stroke="#000000" stroke-width="1.44" d="M710.71,-1225.54C701.4,-1212.37 689.49,-1193.47 683,-1175 674.49,-1150.8 671.11,-1121.77 669.78,-1100.53"/>
<polygon fill="#000000" stroke="#000000" stroke-width="1.44" points="673.28,-1100.43 669.3,-1090.61 666.29,-1100.77 673.28,-1100.43"/>
<text text-anchor="middle" x="697" y="-1153.3" font-family="Times,serif" font-size="14.00">1155</text>
</g>
<!-- O_Create Offer -->
<g id="node8" class="node">
<title>O_Create Offer</title>
<polygon fill="#eeeeff" stroke="black" points="739.5,-1001 598.5,-1001 598.5,-965 739.5,-965 739.5,-1001"/>
<text text-anchor="middle" x="669" y="-979.3" font-family="Times,serif" font-size="14.00">O_Create Offer (1799)</text>
</g>
<!-- W_Complete application&#45;&gt;O_Create Offer -->
<g id="edge55" class="edge">
<title>W_Complete application&#45;&gt;O_Create Offer</title>
<path fill="none" stroke="#ff0000" stroke-width="0.51" stroke-dasharray="5,2" d="M626.79,-1225.85C574.91,-1214.3 519.09,-1197.14 506,-1175 465.98,-1107.32 563.25,-1040.21 624.23,-1006.45"/>
<polygon fill="#ff0000" stroke="#ff0000" stroke-width="0.51" points="625.88,-1009.54 633,-1001.69 622.54,-1003.38 625.88,-1009.54"/>
<text text-anchor="middle" x="513" y="-1109.8" font-family="Times,serif" font-size="14.00">12</text>
</g>
<!-- O_Sent (mail and online) -->
<g id="node10" class="node">
<title>O_Sent (mail and online)</title>
<polygon fill="#eeeeff" stroke="black" points="834.5,-740 639.5,-740 639.5,-704 834.5,-704 834.5,-740"/>
<text text-anchor="middle" x="737" y="-718.3" font-family="Times,serif" font-size="14.00">O_Sent (mail and online) (1795)</text>
</g>
<!-- W_Complete application&#45;&gt;O_Sent (mail and online) -->
<g id="edge59" class="edge">
<title>W_Complete application&#45;&gt;O_Sent (mail and online)</title>
<path fill="none" stroke="#ff0000" stroke-width="0.5" stroke-dasharray="5,2" d="M763.44,-1225.62C788.79,-1211.5 817,-1188.84 817,-1158 817,-1158 817,-1158 817,-808 817,-782.23 797.26,-761.08 777.38,-746.33"/>
<polygon fill="#ff0000" stroke="#ff0000" stroke-width="0.5" points="779.44,-743.5 769.24,-740.64 775.43,-749.24 779.44,-743.5"/>
<text text-anchor="middle" x="820.5" y="-979.3" font-family="Times,serif" font-size="14.00">4</text>
</g>
<!-- W_Call after offers -->
<g id="node11" class="node">
<title>W_Call after offers</title>
<polygon fill="#a4a4ff" stroke="black" points="698.5,-653 535.5,-653 535.5,-617 698.5,-617 698.5,-653"/>
<text text-anchor="middle" x="617" y="-631.3" font-family="Times,serif" font-size="14.00">W_Call after offers (9968)</text>
</g>
<!-- W_Complete application&#45;&gt;W_Call after offers -->
<g id="edge13" class="edge">
<title>W_Complete application&#45;&gt;W_Call after offers</title>
<path fill="none" stroke="#000000" stroke-width="1.87" d="M821.46,-1239.2C875.95,-1231.24 933,-1210.39 933,-1158 933,-1158 933,-1158 933,-721 933,-674.63 804.5,-652.83 711.39,-643.13"/>
<polygon fill="#000000" stroke="#000000" stroke-width="1.87" points="711.91,-639.66 701.61,-642.15 711.21,-646.63 711.91,-639.66"/>
<text text-anchor="middle" x="947" y="-935.8" font-family="Times,serif" font-size="14.00">1683</text>
</g>
<!-- A_Concept&#45;&gt;W_Complete application -->
<g id="edge7" class="edge">
<title>A_Concept&#45;&gt;W_Complete application</title>
<path fill="none" stroke="#000000" stroke-width="1.44" d="M569.89,-1175.12C568.4,-1185.74 568.6,-1199.02 576,-1208 582.19,-1215.51 597.08,-1221.59 615.15,-1226.46"/>
<polygon fill="#000000" stroke="#000000" stroke-width="1.44" points="614.1,-1229.8 624.65,-1228.8 615.78,-1223 614.1,-1229.8"/>
<text text-anchor="middle" x="590" y="-1196.8" font-family="Times,serif" font-size="14.00">1155</text>
</g>
<!-- A_Concept&#45;&gt;A_Accepted -->
<g id="edge35" class="edge">
<title>A_Concept&#45;&gt;A_Accepted</title>
<path fill="none" stroke="#000000" stroke-width="0.93" d="M593.22,-1138.8C607.04,-1126.44 625.87,-1109.59 641.31,-1095.78"/>
<polygon fill="#000000" stroke="#000000" stroke-width="0.93" points="643.31,-1098.68 648.43,-1089.41 638.64,-1093.47 643.31,-1098.68"/>
<text text-anchor="middle" x="638.5" y="-1109.8" font-family="Times,serif" font-size="14.00">528</text>
</g>
<!-- A_Accepted&#45;&gt;W_Complete application -->
<g id="edge54" class="edge">
<title>A_Accepted&#45;&gt;W_Complete application</title>
<path fill="none" stroke="#ff0000" stroke-width="0.51" stroke-dasharray="5,2" d="M682.67,-1088.39C692.24,-1101.53 704.45,-1120.42 711,-1139 719.72,-1163.73 722.74,-1193.57 723.72,-1214.93"/>
<polygon fill="#ff0000" stroke="#ff0000" stroke-width="0.51" points="720.21,-1214.9 724.04,-1224.78 727.21,-1214.67 720.21,-1214.9"/>
<text text-anchor="middle" x="727" y="-1153.3" font-family="Times,serif" font-size="14.00">12</text>
</g>
<!-- A_Accepted&#45;&gt;O_Create Offer -->
<g id="edge9" class="edge">
<title>A_Accepted&#45;&gt;O_Create Offer</title>
<path fill="none" stroke="#000000" stroke-width="1.86" d="M669,-1051.8C669,-1041.04 669,-1026.88 669,-1014.29"/>
<polygon fill="#000000" stroke="#000000" stroke-width="1.86" points="672.5,-1014.29 669,-1004.29 665.5,-1014.29 672.5,-1014.29"/>
<text text-anchor="middle" x="683" y="-1022.8" font-family="Times,serif" font-size="14.00">1671</text>
</g>
<!-- O_Created -->
<g id="node9" class="node">
<title>O_Created</title>
<polygon fill="#eeeeff" stroke="black" points="750.5,-914 635.5,-914 635.5,-878 750.5,-878 750.5,-914"/>
<text text-anchor="middle" x="693" y="-892.3" font-family="Times,serif" font-size="14.00">O_Created (1799)</text>
</g>
<!-- O_Create Offer&#45;&gt;O_Created -->
<g id="edge10" class="edge">
<title>O_Create Offer&#45;&gt;O_Created</title>
<path fill="none" stroke="#000000" stroke-width="1.97" d="M658.52,-964.93C653.87,-955.07 650.37,-942.57 655,-932 656.25,-929.16 657.85,-926.45 659.69,-923.88"/>
<polygon fill="#000000" stroke="#000000" stroke-width="1.97" points="662.29,-926.22 666.31,-916.42 657.06,-921.57 662.29,-926.22"/>
<text text-anchor="middle" x="669" y="-935.8" font-family="Times,serif" font-size="14.00">1799</text>
</g>
<!-- O_Created&#45;&gt;W_Complete application -->
<g id="edge58" class="edge">
<title>O_Created&#45;&gt;W_Complete application</title>
<path fill="none" stroke="#ff0000" stroke-width="0.5" stroke-dasharray="5,2" d="M713.18,-914.36C726.16,-926.93 741.87,-945.13 749,-965 785.52,-1066.78 759.2,-1102.17 737,-1208 736.45,-1210.61 735.75,-1213.28 734.94,-1215.93"/>
<polygon fill="#ff0000" stroke="#ff0000" stroke-width="0.5" points="731.72,-1214.54 731.77,-1225.14 738.34,-1216.82 731.72,-1214.54"/>
<text text-anchor="middle" x="770.5" y="-1066.3" font-family="Times,serif" font-size="14.00">4</text>
</g>
<!-- O_Created&#45;&gt;O_Create Offer -->
<g id="edge37" class="edge">
<title>O_Created&#45;&gt;O_Create Offer</title>
<path fill="none" stroke="#ff0000" stroke-width="0.55" stroke-dasharray="5,2" d="M690.34,-914.31C688.65,-924.03 686.18,-936.31 683,-947 682.23,-949.58 681.35,-952.23 680.41,-954.87"/>
<polygon fill="#ff0000" stroke="#ff0000" stroke-width="0.55" points="677.23,-953.4 676.92,-963.99 683.76,-955.91 677.23,-953.4"/>
<text text-anchor="middle" x="694" y="-935.8" font-family="Times,serif" font-size="14.00">66</text>
</g>
<!-- O_Created&#45;&gt;O_Sent (mail and online) -->
<g id="edge11" class="edge">
<title>O_Created&#45;&gt;O_Sent (mail and online)</title>
<path fill="none" stroke="#000000" stroke-width="1.91" d="M697.46,-877.56C704.97,-848.2 720.22,-788.59 729.43,-752.58"/>
<polygon fill="#000000" stroke="#000000" stroke-width="1.91" points="732.72,-753.84 731.81,-743.29 725.94,-752.11 732.72,-753.84"/>
<text text-anchor="middle" x="734" y="-805.3" font-family="Times,serif" font-size="14.00">1727</text>
</g>
<!-- O_Cancelled -->
<g id="node20" class="node">
<title>O_Cancelled</title>
<polygon fill="#fdfdff" stroke="black" points="536,-827 416,-827 416,-791 536,-791 536,-827"/>
<text text-anchor="middle" x="476" y="-805.3" font-family="Times,serif" font-size="14.00">O_Cancelled (134)</text>
</g>
<!-- O_Created&#45;&gt;O_Cancelled -->
<g id="edge65" class="edge">
<title>O_Created&#45;&gt;O_Cancelled</title>
<path fill="none" stroke="#ff0000" stroke-width="0.5" stroke-dasharray="5,2" d="M648.56,-877.59C614.33,-864.19 566.85,-845.59 530.36,-831.29"/>
<polygon fill="#ff0000" stroke="#ff0000" stroke-width="0.5" points="531.67,-828.05 521.08,-827.66 529.12,-834.57 531.67,-828.05"/>
<text text-anchor="middle" x="601.5" y="-848.8" font-family="Times,serif" font-size="14.00">2</text>
</g>
<!-- O_Sent (mail and online)&#45;&gt;W_Complete application -->
<g id="edge12" class="edge">
<title>O_Sent (mail and online)&#45;&gt;W_Complete application</title>
<path fill="none" stroke="#000000" stroke-width="1.87" d="M809.89,-740.38C817.98,-744.95 825.33,-750.72 831,-758 904.43,-852.39 860,-905.91 860,-1025.5 860,-1158 860,-1158 860,-1158 860,-1183.69 850.96,-1191.83 831,-1208 825.26,-1212.65 818.88,-1216.69 812.18,-1220.2"/>
<polygon fill="#000000" stroke="#000000" stroke-width="1.87" points="810.78,-1216.99 803.22,-1224.41 813.76,-1223.32 810.78,-1216.99"/>
<text text-anchor="middle" x="877" y="-979.3" font-family="Times,serif" font-size="14.00">1683</text>
</g>
<!-- O_Sent (mail and online)&#45;&gt;O_Create Offer -->
<g id="edge62" class="edge">
<title>O_Sent (mail and online)&#45;&gt;O_Create Offer</title>
<path fill="none" stroke="#ff0000" stroke-width="0.5" stroke-dasharray="5,2" d="M745.27,-740.45C760.56,-775.43 789.18,-855.77 760,-914 750.44,-933.07 732.72,-948.16 715.44,-959.24"/>
<polygon fill="#ff0000" stroke="#ff0000" stroke-width="0.5" points="713.87,-956.09 707.13,-964.27 717.5,-962.08 713.87,-956.09"/>
<text text-anchor="middle" x="775.5" y="-848.8" font-family="Times,serif" font-size="14.00">2</text>
</g>
<!-- O_Sent (mail and online)&#45;&gt;O_Sent (mail and online) -->
<g id="edge38" class="edge">
<title>O_Sent (mail and online)&#45;&gt;O_Sent (mail and online)</title>
<path fill="none" stroke="#ff0000" stroke-width="0.55" stroke-dasharray="5,2" d="M834.74,-728.86C845.53,-727.56 852.5,-725.27 852.5,-722 852.5,-719.96 849.78,-718.3 845.1,-717.02"/>
<polygon fill="#ff0000" stroke="#ff0000" stroke-width="0.55" points="846.03,-713.63 835.56,-715.29 844.78,-720.52 846.03,-713.63"/>
<text text-anchor="middle" x="859.5" y="-718.3" font-family="Times,serif" font-size="14.00">62</text>
</g>
<!-- O_Sent (mail and online)&#45;&gt;W_Call after offers -->
<g id="edge46" class="edge">
<title>O_Sent (mail and online)&#45;&gt;W_Call after offers</title>
<path fill="none" stroke="#ff0000" stroke-width="0.53" stroke-dasharray="5,2" d="M712.43,-703.59C694.47,-690.87 669.91,-673.48 650.21,-659.52"/>
<polygon fill="#ff0000" stroke="#ff0000" stroke-width="0.53" points="652.38,-656.77 642.2,-653.85 648.34,-662.49 652.38,-656.77"/>
<text text-anchor="middle" x="692" y="-674.8" font-family="Times,serif" font-size="14.00">43</text>
</g>
<!-- O_Sent (mail and online)&#45;&gt;O_Cancelled -->
<g id="edge52" class="edge">
<title>O_Sent (mail and online)&#45;&gt;O_Cancelled</title>
<path fill="none" stroke="#ff0000" stroke-width="0.5" stroke-dasharray="5,2" d="M683.62,-740.38C641.86,-753.98 583.65,-772.94 539.5,-787.32"/>
<polygon fill="#ff0000" stroke="#ff0000" stroke-width="0.5" points="538.59,-783.93 530.17,-790.36 540.76,-790.59 538.59,-783.93"/>
<text text-anchor="middle" x="626.5" y="-761.8" font-family="Times,serif" font-size="14.00">5</text>
</g>
<!-- W_Call after offers&#45;&gt;O_Create Offer -->
<g id="edge45" class="edge">
<title>W_Call after offers&#45;&gt;O_Create Offer</title>
<path fill="none" stroke="#ff0000" stroke-width="0.54" stroke-dasharray="5,2" d="M614.28,-653.19C607.93,-697.68 594.89,-819.77 626,-914 630.96,-929.01 639.93,-944.03 648.41,-956.13"/>
<polygon fill="#ff0000" stroke="#ff0000" stroke-width="0.54" points="645.51,-958.1 654.23,-964.11 651.16,-953.97 645.51,-958.1"/>
<text text-anchor="middle" x="616" y="-805.3" font-family="Times,serif" font-size="14.00">46</text>
</g>
<!-- W_Call after offers&#45;&gt;W_Call after offers -->
<g id="edge14" class="edge">
<title>W_Call after offers&#45;&gt;W_Call after offers</title>
<path fill="none" stroke="#000000" stroke-width="5.86" d="M698.97,-642.15C709.53,-640.91 716.5,-638.53 716.5,-635 716.5,-633.9 715.82,-632.91 714.56,-632.03"/>
<polygon fill="#000000" stroke="#000000" stroke-width="5.86" points="716.16,-627.15 705.18,-629.51 713.51,-637.05 716.16,-627.15"/>
<text text-anchor="middle" x="730.5" y="-631.3" font-family="Times,serif" font-size="14.00">6556</text>
</g>
<!-- A_Complete -->
<g id="node12" class="node">
<title>A_Complete</title>
<polygon fill="#efefff" stroke="black" points="731,-566 605,-566 605,-530 731,-530 731,-566"/>
<text text-anchor="middle" x="668" y="-544.3" font-family="Times,serif" font-size="14.00">A_Complete (1683)</text>
</g>
<!-- W_Call after offers&#45;&gt;A_Complete -->
<g id="edge15" class="edge">
<title>W_Call after offers&#45;&gt;A_Complete</title>
<path fill="none" stroke="#000000" stroke-width="1.87" d="M633.06,-616.56C637.58,-611.16 642.27,-605.04 646,-599 650.04,-592.46 653.72,-585.06 656.87,-577.99"/>
<polygon fill="#000000" stroke="#000000" stroke-width="1.87" points="660.06,-579.45 660.69,-568.87 653.6,-576.74 660.06,-579.45"/>
<text text-anchor="middle" x="668" y="-587.8" font-family="Times,serif" font-size="14.00">1683</text>
</g>
<!-- W_Validate application -->
<g id="node13" class="node">
<title>W_Validate application</title>
<polygon fill="#9b9bff" stroke="black" points="502.5,-566 311.5,-566 311.5,-530 502.5,-530 502.5,-566"/>
<text text-anchor="middle" x="407" y="-544.3" font-family="Times,serif" font-size="14.00">W_Validate application (10919)</text>
</g>
<!-- W_Call after offers&#45;&gt;W_Validate application -->
<g id="edge17" class="edge">
<title>W_Call after offers&#45;&gt;W_Validate application</title>
<path fill="none" stroke="#000000" stroke-width="1.87" d="M574,-616.59C541.44,-603.42 496.49,-585.22 461.43,-571.03"/>
<polygon fill="#000000" stroke="#000000" stroke-width="1.87" points="463.16,-567.95 452.58,-567.45 460.53,-574.44 463.16,-567.95"/>
<text text-anchor="middle" x="539" y="-587.8" font-family="Times,serif" font-size="14.00">1683</text>
</g>
<!-- A_Complete&#45;&gt;O_Create Offer -->
<g id="edge64" class="edge">
<title>A_Complete&#45;&gt;O_Create Offer</title>
<path fill="none" stroke="#ff0000" stroke-width="0.5" stroke-dasharray="5,2" d="M731.23,-559.94C798.4,-573.4 895,-598.86 895,-634 895,-897 895,-897 895,-897 895,-928.93 814.96,-952.96 750.14,-967.18"/>
<polygon fill="#ff0000" stroke="#ff0000" stroke-width="0.5" points="749.67,-963.71 740.63,-969.22 751.14,-970.55 749.67,-963.71"/>
<text text-anchor="middle" x="898.5" y="-761.8" font-family="Times,serif" font-size="14.00">2</text>
</g>
<!-- A_Complete&#45;&gt;W_Call after offers -->
<g id="edge16" class="edge">
<title>A_Complete&#45;&gt;W_Call after offers</title>
<path fill="none" stroke="#000000" stroke-width="1.87" d="M630.09,-566.5C623.63,-571.24 617.79,-577.03 614,-584 610.67,-590.13 609.72,-597.33 609.99,-604.33"/>
<polygon fill="#000000" stroke="#000000" stroke-width="1.87" points="606.48,-604.53 611.25,-614 613.43,-603.63 606.48,-604.53"/>
<text text-anchor="middle" x="628" y="-587.8" font-family="Times,serif" font-size="14.00">1679</text>
</g>
<!-- A_Complete&#45;&gt;O_Cancelled -->
<g id="edge60" class="edge">
<title>A_Complete&#45;&gt;O_Cancelled</title>
<path fill="none" stroke="#ff0000" stroke-width="0.5" stroke-dasharray="5,2" d="M604.94,-563.02C563.15,-572.37 515.84,-583.12 515,-584 488.56,-611.87 479.78,-726.86 477.09,-780.38"/>
<polygon fill="#ff0000" stroke="#ff0000" stroke-width="0.5" points="473.61,-779.9 476.64,-790.05 480.6,-780.23 473.61,-779.9"/>
<text text-anchor="middle" x="491.5" y="-674.8" font-family="Times,serif" font-size="14.00">2</text>
</g>
<!-- W_Validate application&#45;&gt;W_Validate application -->
<g id="edge18" class="edge">
<title>W_Validate application&#45;&gt;W_Validate application</title>
<path fill="none" stroke="#000000" stroke-width="4.42" d="M502.64,-554.91C513.48,-553.62 520.5,-551.31 520.5,-548 520.5,-546.86 519.67,-545.84 518.14,-544.94"/>
<polygon fill="#000000" stroke="#000000" stroke-width="4.42" points="519.22,-541.22 508.58,-542.57 517.36,-548.73 519.22,-541.22"/>
<text text-anchor="middle" x="534.5" y="-544.3" font-family="Times,serif" font-size="14.00">4796</text>
</g>
<!-- A_Validating -->
<g id="node14" class="node">
<title>A_Validating</title>
<polygon fill="#e7e7ff" stroke="black" points="612,-479 484,-479 484,-443 612,-443 612,-479"/>
<text text-anchor="middle" x="548" y="-457.3" font-family="Times,serif" font-size="14.00">A_Validating (2625)</text>
</g>
<!-- W_Validate application&#45;&gt;A_Validating -->
<g id="edge19" class="edge">
<title>W_Validate application&#45;&gt;A_Validating</title>
<path fill="none" stroke="#000000" stroke-width="2.64" d="M491.19,-529.5C501.91,-524.95 512.19,-519.22 521,-512 527.57,-506.62 532.77,-499.2 536.78,-491.73"/>
<polygon fill="#000000" stroke="#000000" stroke-width="2.64" points="539.94,-493.24 540.93,-482.69 533.58,-490.32 539.94,-493.24"/>
<text text-anchor="middle" x="548" y="-500.8" font-family="Times,serif" font-size="14.00">2625</text>
</g>
<!-- W_Call incomplete files -->
<g id="node16" class="node">
<title>W_Call incomplete files</title>
<polygon fill="#9b9bff" stroke="black" points="494.5,-218 297.5,-218 297.5,-182 494.5,-182 494.5,-218"/>
<text text-anchor="middle" x="396" y="-196.3" font-family="Times,serif" font-size="14.00">W_Call incomplete files (10992)</text>
</g>
<!-- W_Validate application&#45;&gt;W_Call incomplete files -->
<g id="edge22" class="edge">
<title>W_Validate application&#45;&gt;W_Call incomplete files</title>
<path fill="none" stroke="#000000" stroke-width="1.92" d="M395.33,-529.67C373.51,-494.91 331.36,-414.95 362,-356 373.77,-333.35 387.41,-336.61 409,-323 422.81,-314.3 432.76,-319.09 441,-305 455.6,-280.04 438.61,-249.47 421.48,-227.95"/>
<polygon fill="#000000" stroke="#000000" stroke-width="1.92" points="424.22,-225.76 415.08,-220.39 418.87,-230.28 424.22,-225.76"/>
<text text-anchor="middle" x="376" y="-370.3" font-family="Times,serif" font-size="14.00">1735</text>
</g>
<!-- O_Accepted -->
<g id="node18" class="node">
<title>O_Accepted</title>
<polygon fill="#f0f0ff" stroke="black" points="523,-392 399,-392 399,-356 523,-356 523,-392"/>
<text text-anchor="middle" x="461" y="-370.3" font-family="Times,serif" font-size="14.00">O_Accepted (1588)</text>
</g>
<!-- W_Validate application&#45;&gt;O_Accepted -->
<g id="edge32" class="edge">
<title>W_Validate application&#45;&gt;O_Accepted</title>
<path fill="none" stroke="#000000" stroke-width="1.15" d="M407.25,-529.59C408.03,-508.53 410.88,-472.27 421,-443 426,-428.54 434.25,-413.75 441.97,-401.67"/>
<polygon fill="#000000" stroke="#000000" stroke-width="1.15" points="444.65,-403.95 447.27,-393.69 438.82,-400.08 444.65,-403.95"/>
<text text-anchor="middle" x="431.5" y="-457.3" font-family="Times,serif" font-size="14.00">803</text>
</g>
<!-- W_Validate application&#45;&gt;O_Cancelled -->
<g id="edge39" class="edge">
<title>W_Validate application&#45;&gt;O_Cancelled</title>
<path fill="none" stroke="#ff0000" stroke-width="0.54" stroke-dasharray="5,2" d="M407.52,-566.39C409.25,-605.17 416.73,-700.96 449,-773 450.34,-775.99 451.98,-778.95 453.78,-781.81"/>
<polygon fill="#ff0000" stroke="#ff0000" stroke-width="0.54" points="450.85,-783.72 459.48,-789.86 456.56,-779.68 450.85,-783.72"/>
<text text-anchor="middle" x="429" y="-674.8" font-family="Times,serif" font-size="14.00">46</text>
</g>
<!-- A_Denied -->
<g id="node21" class="node">
<title>A_Denied</title>
<polygon fill="#fefeff" stroke="black" points="126,-127 28,-127 28,-91 126,-91 126,-127"/>
<text text-anchor="middle" x="77" y="-105.3" font-family="Times,serif" font-size="14.00">A_Denied (75)</text>
</g>
<!-- W_Validate application&#45;&gt;A_Denied -->
<g id="edge40" class="edge">
<title>W_Validate application&#45;&gt;A_Denied</title>
<path fill="none" stroke="#ff0000" stroke-width="0.56" stroke-dasharray="5,2" d="M311.2,-544.51C252.25,-540.91 184.07,-532.31 163,-512 123.49,-473.91 130.91,-322.57 119,-269 108.64,-222.38 93.89,-168.8 84.9,-137.26"/>
<polygon fill="#ff0000" stroke="#ff0000" stroke-width="0.56" points="88.34,-136.52 82.22,-127.88 81.61,-138.45 88.34,-136.52"/>
<text text-anchor="middle" x="134" y="-326.8" font-family="Times,serif" font-size="14.00">70</text>
</g>
<!-- end_node -->
<g id="node24" class="node">
<title>end_node</title>
<ellipse fill="none" stroke="black" cx="653" cy="-109" rx="18" ry="18"/>
<ellipse fill="none" stroke="black" cx="653" cy="-109" rx="22" ry="22"/>
<text text-anchor="start" x="648.5" y="-105.3" font-family="Times,serif" font-size="14.00">■</text>
</g>
<!-- W_Validate application&#45;&gt;end_node -->
<g id="edge68" class="edge">
<title>W_Validate application&#45;&gt;end_node</title>
<path fill="none" stroke="#000000" stroke-width="1.19" d="M502.79,-542.34C546.76,-534.7 594.84,-517.31 621,-479 658.5,-424.09 646,-397.99 646,-331.5 646,-331.5 646,-331.5 646,-199 646,-180.29 647.56,-159.44 649.2,-142.62"/>
<polygon fill="#000000" stroke="#000000" stroke-width="1.19" points="652.65,-143.28 650.21,-132.97 645.69,-142.55 652.65,-143.28"/>
<text text-anchor="middle" x="657.5" y="-326.8" font-family="Times,serif" font-size="14.00">844</text>
</g>
<!-- A_Validating&#45;&gt;W_Validate application -->
<g id="edge31" class="edge">
<title>A_Validating&#45;&gt;W_Validate application</title>
<path fill="none" stroke="#000000" stroke-width="1.27" d="M521.9,-479.31C506.87,-489.13 487.54,-501.52 470,-512 463.36,-515.97 456.25,-520.06 449.29,-523.98"/>
<polygon fill="#000000" stroke="#000000" stroke-width="1.27" points="447.98,-520.71 440.96,-528.64 451.39,-526.82 447.98,-520.71"/>
<text text-anchor="middle" x="504.5" y="-500.8" font-family="Times,serif" font-size="14.00">949</text>
</g>
<!-- O_Returned -->
<g id="node15" class="node">
<title>O_Returned</title>
<polygon fill="#efefff" stroke="black" points="562,-36 440,-36 440,0 562,0 562,-36"/>
<text text-anchor="middle" x="501" y="-14.3" font-family="Times,serif" font-size="14.00">O_Returned (1683)</text>
</g>
<!-- A_Validating&#45;&gt;O_Returned -->
<g id="edge20" class="edge">
<title>A_Validating&#45;&gt;O_Returned</title>
<path fill="none" stroke="#000000" stroke-width="1.85" d="M555.29,-442.72C574.39,-394.92 622.21,-257.3 589,-149 576.71,-108.92 547.42,-70.08 526,-45.45"/>
<polygon fill="#000000" stroke="#000000" stroke-width="1.85" points="528.8,-43.33 519.53,-38.21 523.58,-47.99 528.8,-43.33"/>
<text text-anchor="middle" x="615" y="-239.8" font-family="Times,serif" font-size="14.00">1659</text>
</g>
<!-- A_Validating&#45;&gt;O_Accepted -->
<g id="edge44" class="edge">
<title>A_Validating&#45;&gt;O_Accepted</title>
<path fill="none" stroke="#ff0000" stroke-width="0.51" stroke-dasharray="5,2" d="M530.39,-442.8C517.74,-430.44 500.5,-413.59 486.36,-399.78"/>
<polygon fill="#ff0000" stroke="#ff0000" stroke-width="0.51" points="489.03,-397.49 479.43,-393.01 484.14,-402.5 489.03,-397.49"/>
<text text-anchor="middle" x="517" y="-413.8" font-family="Times,serif" font-size="14.00">17</text>
</g>
<!-- O_Returned&#45;&gt;W_Validate application -->
<g id="edge21" class="edge">
<title>O_Returned&#45;&gt;W_Validate application</title>
<path fill="none" stroke="#000000" stroke-width="1.85" d="M440.8,-36.46C410.54,-47.41 374.72,-63.9 348,-87 289.36,-137.7 269,-164.98 269,-242.5 269,-462 269,-462 269,-462 269,-492.05 293.01,-511.82 321,-524.66"/>
<polygon fill="#000000" stroke="#000000" stroke-width="1.85" points="319.58,-527.86 330.16,-528.49 322.29,-521.4 319.58,-527.86"/>
<text text-anchor="middle" x="283" y="-283.3" font-family="Times,serif" font-size="14.00">1659</text>
</g>
<!-- O_Returned&#45;&gt;W_Call incomplete files -->
<g id="edge51" class="edge">
<title>O_Returned&#45;&gt;W_Call incomplete files</title>
<path fill="none" stroke="#ff0000" stroke-width="0.52" stroke-dasharray="5,2" d="M505.27,-36.37C509.97,-59.34 515.01,-100.46 500,-131 490.15,-151.05 471.25,-166 452.23,-176.71"/>
<polygon fill="#ff0000" stroke="#ff0000" stroke-width="0.52" points="450.83,-173.49 443.62,-181.26 454.1,-179.68 450.83,-173.49"/>
<text text-anchor="middle" x="517" y="-105.3" font-family="Times,serif" font-size="14.00">24</text>
</g>
<!-- W_Call incomplete files&#45;&gt;W_Validate application -->
<g id="edge30" class="edge">
<title>W_Call incomplete files&#45;&gt;W_Validate application</title>
<path fill="none" stroke="#000000" stroke-width="1.27" d="M463.78,-218.44C474.25,-223.05 484.42,-228.81 493,-236 535.99,-272.01 525.68,-300.28 532,-356 533.8,-371.9 540.41,-378.39 532,-392 522.6,-407.22 509.34,-398.08 496,-410 477.5,-426.53 442.74,-484.42 422.57,-519.44"/>
<polygon fill="#000000" stroke="#000000" stroke-width="1.27" points="419.69,-517.42 417.76,-527.84 425.77,-520.9 419.69,-517.42"/>
<text text-anchor="middle" x="547.5" y="-370.3" font-family="Times,serif" font-size="14.00">942</text>
</g>
<!-- W_Call incomplete files&#45;&gt;W_Call incomplete files -->
<g id="edge23" class="edge">
<title>W_Call incomplete files&#45;&gt;W_Call incomplete files</title>
<path fill="none" stroke="#000000" stroke-width="6" d="M494.59,-206.86C505.47,-205.56 512.5,-203.27 512.5,-200 512.5,-198.88 511.67,-197.87 510.14,-196.98"/>
<polygon fill="#000000" stroke="#000000" stroke-width="6" points="511.82,-191.98 500.86,-194.69 509.31,-202.18 511.82,-191.98"/>
<text text-anchor="middle" x="526.5" y="-196.3" font-family="Times,serif" font-size="14.00">6729</text>
</g>
<!-- A_Incomplete -->
<g id="node17" class="node">
<title>A_Incomplete</title>
<polygon fill="#efefff" stroke="black" points="491,-127 357,-127 357,-91 491,-91 491,-127"/>
<text text-anchor="middle" x="424" y="-105.3" font-family="Times,serif" font-size="14.00">A_Incomplete (1735)</text>
</g>
<!-- W_Call incomplete files&#45;&gt;A_Incomplete -->
<g id="edge24" class="edge">
<title>W_Call incomplete files&#45;&gt;A_Incomplete</title>
<path fill="none" stroke="#000000" stroke-width="1.92" d="M412.04,-181.68C416.03,-176.38 419.79,-170.28 422,-164 424.67,-156.4 425.77,-147.83 426.06,-139.79"/>
<polygon fill="#000000" stroke="#000000" stroke-width="1.92" points="429.56,-139.88 425.94,-129.92 422.56,-139.96 429.56,-139.88"/>
<text text-anchor="middle" x="440" y="-152.8" font-family="Times,serif" font-size="14.00">1735</text>
</g>
<!-- W_Call incomplete files&#45;&gt;O_Accepted -->
<g id="edge26" class="edge">
<title>W_Call incomplete files&#45;&gt;O_Accepted</title>
<path fill="none" stroke="#000000" stroke-width="1.13" d="M456.16,-218.34C463.6,-222.92 470.25,-228.71 475,-236 496.3,-268.73 484.72,-315.46 473.55,-345"/>
<polygon fill="#000000" stroke="#000000" stroke-width="1.13" points="470.33,-343.62 469.84,-354.21 476.82,-346.24 470.33,-343.62"/>
<text text-anchor="middle" x="497.5" y="-283.3" font-family="Times,serif" font-size="14.00">768</text>
</g>
<!-- W_Call incomplete files&#45;&gt;O_Cancelled -->
<g id="edge43" class="edge">
<title>W_Call incomplete files&#45;&gt;O_Cancelled</title>
<path fill="none" stroke="#ff0000" stroke-width="0.54" stroke-dasharray="5,2" d="M297.12,-214.7C258.37,-226.18 223,-247.27 223,-286 223,-723 223,-723 223,-723 223,-761.67 330.54,-786.04 405.39,-798.33"/>
<polygon fill="#ff0000" stroke="#ff0000" stroke-width="0.54" points="404.48,-801.73 414.91,-799.85 405.59,-794.82 404.48,-801.73"/>
<text text-anchor="middle" x="230" y="-500.8" font-family="Times,serif" font-size="14.00">57</text>
</g>
<!-- W_Call incomplete files&#45;&gt;A_Denied -->
<g id="edge56" class="edge">
<title>W_Call incomplete files&#45;&gt;A_Denied</title>
<path fill="none" stroke="#ff0000" stroke-width="0.5" stroke-dasharray="5,2" d="M321.51,-181.54C269.02,-168.76 197.27,-150.34 135,-131 134.66,-130.9 134.33,-130.79 133.99,-130.69"/>
<polygon fill="#ff0000" stroke="#ff0000" stroke-width="0.5" points="135.36,-127.45 124.76,-127.68 133.19,-134.1 135.36,-127.45"/>
<text text-anchor="middle" x="252.5" y="-152.8" font-family="Times,serif" font-size="14.00">5</text>
</g>
<!-- A_Cancelled -->
<g id="node23" class="node">
<title>A_Cancelled</title>
<polygon fill="#ffffff" stroke="black" points="257.5,-127 144.5,-127 144.5,-91 257.5,-91 257.5,-127"/>
<text text-anchor="middle" x="201" y="-105.3" font-family="Times,serif" font-size="14.00">A_Cancelled (20)</text>
</g>
<!-- W_Call incomplete files&#45;&gt;A_Cancelled -->
<g id="edge47" class="edge">
<title>W_Call incomplete files&#45;&gt;A_Cancelled</title>
<path fill="none" stroke="#ff0000" stroke-width="0.51" stroke-dasharray="5,2" d="M357.94,-181.63C326.77,-167.4 282.49,-147.19 248.91,-131.87"/>
<polygon fill="#ff0000" stroke="#ff0000" stroke-width="0.51" points="250.56,-128.77 240.01,-127.8 247.65,-135.14 250.56,-128.77"/>
<text text-anchor="middle" x="323" y="-152.8" font-family="Times,serif" font-size="14.00">20</text>
</g>
<!-- W_Call incomplete files&#45;&gt;end_node -->
<g id="edge67" class="edge">
<title>W_Call incomplete files&#45;&gt;end_node</title>
<path fill="none" stroke="#000000" stroke-width="1.1" d="M481.61,-181.53C501.35,-176.62 522.1,-170.75 541,-164 570.17,-153.58 601.84,-137.87 624.03,-126.08"/>
<polygon fill="#000000" stroke="#000000" stroke-width="1.1" points="625.5,-129.26 632.65,-121.44 622.18,-123.1 625.5,-129.26"/>
<text text-anchor="middle" x="586.5" y="-152.8" font-family="Times,serif" font-size="14.00">736</text>
</g>
<!-- A_Incomplete&#45;&gt;O_Returned -->
<g id="edge50" class="edge">
<title>A_Incomplete&#45;&gt;O_Returned</title>
<path fill="none" stroke="#ff0000" stroke-width="0.52" stroke-dasharray="5,2" d="M438.85,-90.84C450.28,-77.63 466.25,-59.17 479.14,-44.27"/>
<polygon fill="#ff0000" stroke="#ff0000" stroke-width="0.52" points="481.53,-46.86 485.42,-37 476.23,-42.28 481.53,-46.86"/>
<text text-anchor="middle" x="477" y="-57.8" font-family="Times,serif" font-size="14.00">24</text>
</g>
<!-- A_Incomplete&#45;&gt;W_Call incomplete files -->
<g id="edge25" class="edge">
<title>A_Incomplete&#45;&gt;W_Call incomplete files</title>
<path fill="none" stroke="#000000" stroke-width="1.9" d="M404.3,-127.2C398.56,-133.42 393.03,-140.92 390,-149 387.61,-155.39 387.23,-162.52 387.86,-169.36"/>
<polygon fill="#000000" stroke="#000000" stroke-width="1.9" points="384.38,-169.79 389.56,-179.03 391.28,-168.58 384.38,-169.79"/>
<text text-anchor="middle" x="404" y="-152.8" font-family="Times,serif" font-size="14.00">1711</text>
</g>
<!-- A_Pending -->
<g id="node19" class="node">
<title>A_Pending</title>
<polygon fill="#f0f0ff" stroke="black" points="432.5,-305 315.5,-305 315.5,-269 432.5,-269 432.5,-305"/>
<text text-anchor="middle" x="374" y="-283.3" font-family="Times,serif" font-size="14.00">A_Pending (1588)</text>
</g>
<!-- O_Accepted&#45;&gt;A_Pending -->
<g id="edge27" class="edge">
<title>O_Accepted&#45;&gt;A_Pending</title>
<path fill="none" stroke="#000000" stroke-width="1.8" d="M443.39,-355.8C431.21,-343.9 414.77,-327.83 400.94,-314.32"/>
<polygon fill="#000000" stroke="#000000" stroke-width="1.8" points="403.42,-311.85 393.82,-307.37 398.53,-316.86 403.42,-311.85"/>
<text text-anchor="middle" x="437" y="-326.8" font-family="Times,serif" font-size="14.00">1588</text>
</g>
<!-- A_Pending&#45;&gt;W_Validate application -->
<g id="edge33" class="edge">
<title>A_Pending&#45;&gt;W_Validate application</title>
<path fill="none" stroke="#000000" stroke-width="1.17" d="M360.37,-305.33C342.11,-330.55 312.57,-379.33 318,-425 322.7,-464.5 314.42,-480.73 339,-512 342.23,-516.1 346.06,-519.77 350.25,-523.04"/>
<polygon fill="#000000" stroke="#000000" stroke-width="1.17" points="348.17,-525.86 358.41,-528.59 352.11,-520.07 348.17,-525.86"/>
<text text-anchor="middle" x="328.5" y="-413.8" font-family="Times,serif" font-size="14.00">820</text>
</g>
<!-- A_Pending&#45;&gt;W_Call incomplete files -->
<g id="edge28" class="edge">
<title>A_Pending&#45;&gt;W_Call incomplete files</title>
<path fill="none" stroke="#000000" stroke-width="1.13" d="M378.45,-268.8C381.36,-257.58 385.21,-242.67 388.58,-229.69"/>
<polygon fill="#000000" stroke="#000000" stroke-width="1.13" points="391.93,-230.68 391.05,-220.12 385.16,-228.92 391.93,-230.68"/>
<text text-anchor="middle" x="397.5" y="-239.8" font-family="Times,serif" font-size="14.00">768</text>
</g>
<!-- O_Cancelled&#45;&gt;O_Sent (mail and online) -->
<g id="edge66" class="edge">
<title>O_Cancelled&#45;&gt;O_Sent (mail and online)</title>
<path fill="none" stroke="#ff0000" stroke-width="0.5" stroke-dasharray="5,2" d="M507.52,-790.51C527.74,-779.88 554.83,-766.73 580,-758 596.54,-752.26 614.4,-747.24 631.93,-742.92"/>
<polygon fill="#ff0000" stroke="#ff0000" stroke-width="0.5" points="632.56,-746.37 641.47,-740.63 630.93,-739.56 632.56,-746.37"/>
<text text-anchor="middle" x="583.5" y="-761.8" font-family="Times,serif" font-size="14.00">2</text>
</g>
<!-- O_Cancelled&#45;&gt;W_Call after offers -->
<g id="edge53" class="edge">
<title>O_Cancelled&#45;&gt;W_Call after offers</title>
<path fill="none" stroke="#ff0000" stroke-width="0.5" stroke-dasharray="5,2" d="M494.83,-790.69C500.52,-785.2 506.67,-778.99 512,-773 544.88,-736.02 579.03,-689.74 599.13,-661.55"/>
<polygon fill="#ff0000" stroke="#ff0000" stroke-width="0.5" points="601.77,-663.87 604.7,-653.69 596.06,-659.83 601.77,-663.87"/>
<text text-anchor="middle" x="570.5" y="-718.3" font-family="Times,serif" font-size="14.00">7</text>
</g>
<!-- O_Cancelled&#45;&gt;W_Call incomplete files -->
<g id="edge49" class="edge">
<title>O_Cancelled&#45;&gt;W_Call incomplete files</title>
<path fill="none" stroke="#ff0000" stroke-width="0.51" stroke-dasharray="5,2" d="M415.7,-802.65C330.47,-793.4 185,-770.63 185,-723 185,-723 185,-723 185,-286 185,-236.68 235.22,-215.25 286.66,-206.24"/>
<polygon fill="#ff0000" stroke="#ff0000" stroke-width="0.51" points="287.2,-209.69 296.53,-204.67 286.1,-202.78 287.2,-209.69"/>
<text text-anchor="middle" x="192" y="-500.8" font-family="Times,serif" font-size="14.00">20</text>
</g>
<!-- O_Cancelled&#45;&gt;O_Cancelled -->
<g id="edge63" class="edge">
<title>O_Cancelled&#45;&gt;O_Cancelled</title>
<path fill="none" stroke="#ff0000" stroke-width="0.5" stroke-dasharray="5,2" d="M536.18,-816.65C546.69,-815.63 554,-813.08 554,-809 554,-806.45 551.14,-804.5 546.43,-803.15"/>
<polygon fill="#ff0000" stroke="#ff0000" stroke-width="0.5" points="547.37,-799.76 536.92,-801.48 546.17,-806.65 547.37,-799.76"/>
<text text-anchor="middle" x="557.5" y="-805.3" font-family="Times,serif" font-size="14.00">2</text>
</g>
<!-- O_Cancelled&#45;&gt;end_node -->
<g id="edge69" class="edge">
<title>O_Cancelled&#45;&gt;end_node</title>
<path fill="none" stroke="#ff0000" stroke-width="0.58" stroke-dasharray="5,2" d="M471.46,-790.55C461.46,-747.66 442.95,-636.72 503,-584 522.01,-567.31 535.44,-579.24 557,-566 568.72,-558.8 636.21,-489.57 645,-479 665.76,-454.02 686,-450.98 686,-418.5 686,-418.5 686,-418.5 686,-199 686,-177.51 677.44,-154.82 669.03,-137.73"/>
<polygon fill="#ff0000" stroke="#ff0000" stroke-width="0.58" points="672.29,-136.41 664.58,-129.15 666.08,-139.63 672.29,-136.41"/>
<text text-anchor="middle" x="690.5" y="-457.3" font-family="Times,serif" font-size="14.00">103</text>
</g>
<!-- O_Refused -->
<g id="node22" class="node">
<title>O_Refused</title>
<polygon fill="#fefeff" stroke="black" points="129,-36 25,-36 25,0 129,0 129,-36"/>
<text text-anchor="middle" x="77" y="-14.3" font-family="Times,serif" font-size="14.00">O_Refused (77)</text>
</g>
<!-- A_Denied&#45;&gt;O_Refused -->
<g id="edge41" class="edge">
<title>A_Denied&#45;&gt;O_Refused</title>
<path fill="none" stroke="#ff0000" stroke-width="0.56" stroke-dasharray="5,2" d="M77,-90.84C77,-78.48 77,-61.54 77,-47.21"/>
<polygon fill="#ff0000" stroke="#ff0000" stroke-width="0.56" points="80.5,-47.26 77,-37.26 73.5,-47.26 80.5,-47.26"/>
<text text-anchor="middle" x="84" y="-57.8" font-family="Times,serif" font-size="14.00">75</text>
</g>
<!-- O_Refused&#45;&gt;W_Validate application -->
<g id="edge42" class="edge">
<title>O_Refused&#45;&gt;W_Validate application</title>
<path fill="none" stroke="#ff0000" stroke-width="0.56" stroke-dasharray="5,2" d="M48.33,-36.38C26.44,-52.06 0,-77.35 0,-108 0,-462 0,-462 0,-462 0,-523.4 179.72,-540.73 300.31,-545.45"/>
<polygon fill="#ff0000" stroke="#ff0000" stroke-width="0.56" points="300.1,-548.94 310.22,-545.81 300.36,-541.95 300.1,-548.94"/>
<text text-anchor="middle" x="7" y="-283.3" font-family="Times,serif" font-size="14.00">70</text>
</g>
<!-- O_Refused&#45;&gt;W_Call incomplete files -->
<g id="edge57" class="edge">
<title>O_Refused&#45;&gt;W_Call incomplete files</title>
<path fill="none" stroke="#ff0000" stroke-width="0.5" stroke-dasharray="5,2" d="M129.44,-27.35C170.53,-36.18 227.07,-53.65 266,-87 295.6,-112.36 278.82,-138.15 308,-164 313.58,-168.95 319.95,-173.24 326.65,-176.96"/>
<polygon fill="#ff0000" stroke="#ff0000" stroke-width="0.5" points="324.77,-179.93 335.28,-181.33 327.94,-173.68 324.77,-179.93"/>
<text text-anchor="middle" x="292.5" y="-105.3" font-family="Times,serif" font-size="14.00">5</text>
</g>
<!-- O_Refused&#45;&gt;O_Refused -->
<g id="edge61" class="edge">
<title>O_Refused&#45;&gt;O_Refused</title>
<path fill="none" stroke="#ff0000" stroke-width="0.5" stroke-dasharray="5,2" d="M129.2,-25.82C139.59,-24.94 147,-22.33 147,-18 147,-15.36 144.25,-13.36 139.75,-12"/>
<polygon fill="#ff0000" stroke="#ff0000" stroke-width="0.5" points="140.4,-8.56 129.95,-10.31 139.21,-15.46 140.4,-8.56"/>
<text text-anchor="middle" x="150.5" y="-14.3" font-family="Times,serif" font-size="14.00">2</text>
</g>
<!-- A_Cancelled&#45;&gt;O_Cancelled -->
<g id="edge48" class="edge">
<title>A_Cancelled&#45;&gt;O_Cancelled</title>
<path fill="none" stroke="#ff0000" stroke-width="0.51" stroke-dasharray="5,2" d="M184.28,-127.43C156.77,-156.86 105,-215.8 105,-242.5 105,-723 105,-723 105,-723 105,-783.91 297.41,-801.17 405.1,-806.07"/>
<polygon fill="#ff0000" stroke="#ff0000" stroke-width="0.51" points="404.65,-809.55 414.79,-806.48 404.95,-802.56 404.65,-809.55"/>
<text text-anchor="middle" x="112" y="-457.3" font-family="Times,serif" font-size="14.00">20</text>
</g>
</g>
</svg>
