<?xml version="1.0" encoding="UTF-8" standalone="no"?>
<!DOCTYPE svg PUBLIC "-//W3C//DTD SVG 1.1//EN"
 "http://www.w3.org/Graphics/SVG/1.1/DTD/svg11.dtd">
<!-- Generated by graphviz version 7.0.5 (0)
 -->
<!-- Title: dfg Pages: 1 -->
<svg width="777pt" height="1378pt"
 viewBox="0.00 0.00 776.50 1378.00" xmlns="http://www.w3.org/2000/svg" xmlns:xlink="http://www.w3.org/1999/xlink">
<g id="graph0" class="graph" transform="scale(1 1) rotate(0) translate(4 1374)">
<title>dfg</title>
<polygon fill="white" stroke="none" points="-4,4 -4,-1374 772.5,-1374 772.5,4 -4,4"/>
<!-- start_node -->
<g id="node1" class="node">
<title>start_node</title>
<ellipse fill="none" stroke="black" cx="94.5" cy="-1352" rx="18" ry="18"/>
<text text-anchor="start" x="90" y="-1348.3" font-family="Times,serif" font-size="14.00">●</text>
</g>
<!-- A_Create Application -->
<g id="node2" class="node">
<title>A_Create Application</title>
<polygon fill="#eeeeff" stroke="black" points="182,-1283 7,-1283 7,-1247 182,-1247 182,-1283"/>
<text text-anchor="middle" x="94.5" y="-1261.3" font-family="Times,serif" font-size="14.00">A_Create Application (1928)</text>
</g>
<!-- start_node&#45;&gt;A_Create Application -->
<g id="edge1" class="edge">
<title>start_node&#45;&gt;A_Create Application</title>
<path fill="none" stroke="#000000" stroke-width="1.9" d="M94.5,-1333.8C94.5,-1323.04 94.5,-1308.88 94.5,-1296.29"/>
<polygon fill="#000000" stroke="#000000" stroke-width="1.9" points="98,-1296.34 94.5,-1286.34 91,-1296.34 98,-1296.34"/>
<text text-anchor="middle" x="108.5" y="-1304.8" font-family="Times,serif" font-size="14.00">1928</text>
</g>
<!-- A_Submitted -->
<g id="node3" class="node">
<title>A_Submitted</title>
<polygon fill="#f3f3ff" stroke="black" points="256,-1196 127,-1196 127,-1160 256,-1160 256,-1196"/>
<text text-anchor="middle" x="191.5" y="-1174.3" font-family="Times,serif" font-size="14.00">A_Submitted (1388)</text>
</g>
<!-- A_Create Application&#45;&gt;A_Submitted -->
<g id="edge2" class="edge">
<title>A_Create Application&#45;&gt;A_Submitted</title>
<path fill="none" stroke="#000000" stroke-width="1.5" d="M114.13,-1246.8C127.97,-1234.67 146.75,-1218.21 162.34,-1204.55"/>
<polygon fill="#000000" stroke="#000000" stroke-width="1.5" points="164.65,-1207.19 169.86,-1197.96 160.03,-1201.92 164.65,-1207.19"/>
<text text-anchor="middle" x="162.5" y="-1217.8" font-family="Times,serif" font-size="14.00">1388</text>
</g>
<!-- W_Complete application -->
<g id="node5" class="node">
<title>W_Complete application</title>
<polygon fill="#bbbbff" stroke="black" points="293.5,-1022 99.5,-1022 99.5,-986 293.5,-986 293.5,-1022"/>
<text text-anchor="middle" x="196.5" y="-1000.3" font-family="Times,serif" font-size="14.00">W_Complete application (7695)</text>
</g>
<!-- A_Create Application&#45;&gt;W_Complete application -->
<g id="edge26" class="edge">
<title>A_Create Application&#45;&gt;W_Complete application</title>
<path fill="none" stroke="#ff0000" stroke-width="0.73" stroke-dasharray="5,2" d="M92.17,-1246.67C88.3,-1211.55 83.74,-1130.47 114.5,-1073 124.13,-1055.01 140.69,-1039.89 156.42,-1028.52"/>
<polygon fill="#ff0000" stroke="#ff0000" stroke-width="0.73" points="158.36,-1031.43 164.62,-1022.88 154.39,-1025.66 158.36,-1031.43"/>
<text text-anchor="middle" x="107" y="-1130.8" font-family="Times,serif" font-size="14.00">341</text>
</g>
<!-- A_Concept -->
<g id="node6" class="node">
<title>A_Concept</title>
<polygon fill="#eeeeff" stroke="black" points="123.5,-935 5.5,-935 5.5,-899 123.5,-899 123.5,-935"/>
<text text-anchor="middle" x="64.5" y="-913.3" font-family="Times,serif" font-size="14.00">A_Concept (1928)</text>
</g>
<!-- A_Create Application&#45;&gt;A_Concept -->
<g id="edge31" class="edge">
<title>A_Create Application&#45;&gt;A_Concept</title>
<path fill="none" stroke="#ff0000" stroke-width="0.63" stroke-dasharray="5,2" d="M71.77,-1246.75C54.07,-1231.2 32.5,-1206.58 32.5,-1179 32.5,-1179 32.5,-1179 32.5,-1003 32.5,-982.5 40.75,-960.9 48.88,-944.6"/>
<polygon fill="#ff0000" stroke="#ff0000" stroke-width="0.63" points="51.83,-946.51 53.4,-936.04 45.64,-943.25 51.83,-946.51"/>
<text text-anchor="middle" x="43" y="-1087.3" font-family="Times,serif" font-size="14.00">199</text>
</g>
<!-- W_Handle leads -->
<g id="node4" class="node">
<title>W_Handle leads</title>
<polygon fill="#e5e5ff" stroke="black" points="270,-1109 123,-1109 123,-1073 270,-1073 270,-1109"/>
<text text-anchor="middle" x="196.5" y="-1087.3" font-family="Times,serif" font-size="14.00">W_Handle leads (2888)</text>
</g>
<!-- A_Submitted&#45;&gt;W_Handle leads -->
<g id="edge3" class="edge">
<title>A_Submitted&#45;&gt;W_Handle leads</title>
<path fill="none" stroke="#000000" stroke-width="1.5" d="M192.51,-1159.8C193.16,-1148.81 194.01,-1134.28 194.77,-1121.48"/>
<polygon fill="#000000" stroke="#000000" stroke-width="1.5" points="198.25,-1121.92 195.34,-1111.73 191.26,-1121.51 198.25,-1121.92"/>
<text text-anchor="middle" x="207.5" y="-1130.8" font-family="Times,serif" font-size="14.00">1388</text>
</g>
<!-- W_Handle leads&#45;&gt;W_Handle leads -->
<g id="edge4" class="edge">
<title>W_Handle leads&#45;&gt;W_Handle leads</title>
<path fill="none" stroke="#000000" stroke-width="1.58" d="M270.46,-1098.32C280.95,-1097.14 288,-1094.7 288,-1091 288,-1089.04 286.01,-1087.43 282.57,-1086.17"/>
<polygon fill="#000000" stroke="#000000" stroke-width="1.58" points="283.3,-1082.75 272.8,-1084.16 281.89,-1089.61 283.3,-1082.75"/>
<text text-anchor="middle" x="302" y="-1087.3" font-family="Times,serif" font-size="14.00">1500</text>
</g>
<!-- W_Handle leads&#45;&gt;W_Complete application -->
<g id="edge5" class="edge">
<title>W_Handle leads&#45;&gt;W_Complete application</title>
<path fill="none" stroke="#000000" stroke-width="1.5" d="M196.5,-1072.8C196.5,-1061.81 196.5,-1047.28 196.5,-1034.48"/>
<polygon fill="#000000" stroke="#000000" stroke-width="1.5" points="200,-1034.74 196.5,-1024.74 193,-1034.74 200,-1034.74"/>
<text text-anchor="middle" x="210.5" y="-1043.8" font-family="Times,serif" font-size="14.00">1388</text>
</g>
<!-- W_Complete application&#45;&gt;W_Complete application -->
<g id="edge25" class="edge">
<title>W_Complete application&#45;&gt;W_Complete application</title>
<path fill="none" stroke="#000000" stroke-width="2.37" d="M293.82,-1010.86C304.56,-1009.56 311.5,-1007.27 311.5,-1004 311.5,-1002.42 309.87,-1001.06 306.97,-999.94"/>
<polygon fill="#000000" stroke="#000000" stroke-width="2.37" points="307.83,-996.54 297.32,-997.88 306.38,-1003.39 307.83,-996.54"/>
<text text-anchor="middle" x="325.5" y="-1000.3" font-family="Times,serif" font-size="14.00">2570</text>
</g>
<!-- W_Complete application&#45;&gt;A_Concept -->
<g id="edge6" class="edge">
<title>W_Complete application&#45;&gt;A_Concept</title>
<path fill="none" stroke="#000000" stroke-width="1.75" d="M101.64,-985.52C85.39,-980.69 71.97,-974.85 66.5,-968 61.9,-962.24 60.13,-954.81 59.82,-947.45"/>
<polygon fill="#000000" stroke="#000000" stroke-width="1.75" points="63.3,-947.86 60.34,-937.69 56.31,-947.49 63.3,-947.86"/>
<text text-anchor="middle" x="80.5" y="-956.8" font-family="Times,serif" font-size="14.00">1729</text>
</g>
<!-- A_Accepted -->
<g id="node7" class="node">
<title>A_Accepted</title>
<polygon fill="#eeeeff" stroke="black" points="222.5,-848 98.5,-848 98.5,-812 222.5,-812 222.5,-848"/>
<text text-anchor="middle" x="160.5" y="-826.3" font-family="Times,serif" font-size="14.00">A_Accepted (1928)</text>
</g>
<!-- W_Complete application&#45;&gt;A_Accepted -->
<g id="edge8" class="edge">
<title>W_Complete application&#45;&gt;A_Accepted</title>
<path fill="none" stroke="#000000" stroke-width="1.54" d="M194.68,-985.91C191.67,-959.76 184.83,-908.41 173.5,-866 172.96,-863.98 172.35,-861.91 171.69,-859.83"/>
<polygon fill="#000000" stroke="#000000" stroke-width="1.54" points="175.01,-858.72 168.41,-850.43 168.4,-861.03 175.01,-858.72"/>
<text text-anchor="middle" x="201.5" y="-913.3" font-family="Times,serif" font-size="14.00">1438</text>
</g>
<!-- O_Create Offer -->
<g id="node8" class="node">
<title>O_Create Offer</title>
<polygon fill="#ededff" stroke="black" points="235,-761 94,-761 94,-725 235,-725 235,-761"/>
<text text-anchor="middle" x="164.5" y="-739.3" font-family="Times,serif" font-size="14.00">O_Create Offer (1996)</text>
</g>
<!-- W_Complete application&#45;&gt;O_Create Offer -->
<g id="edge38" class="edge">
<title>W_Complete application&#45;&gt;O_Create Offer</title>
<path fill="none" stroke="#ff0000" stroke-width="0.5" stroke-dasharray="5,2" d="M205.89,-985.73C223.24,-951.4 256.37,-872.67 231.5,-812 224.47,-794.86 210.81,-779.72 197.64,-768.1"/>
<polygon fill="#ff0000" stroke="#ff0000" stroke-width="0.5" points="200.07,-765.57 190.15,-761.83 195.57,-770.93 200.07,-765.57"/>
<text text-anchor="middle" x="246.5" y="-869.8" font-family="Times,serif" font-size="14.00">30</text>
</g>
<!-- W_Call after offers -->
<g id="node11" class="node">
<title>W_Call after offers</title>
<polygon fill="#9b9bff" stroke="black" points="330.5,-500 160.5,-500 160.5,-464 330.5,-464 330.5,-500"/>
<text text-anchor="middle" x="245.5" y="-478.3" font-family="Times,serif" font-size="14.00">W_Call after offers (11408)</text>
</g>
<!-- W_Complete application&#45;&gt;W_Call after offers -->
<g id="edge13" class="edge">
<title>W_Complete application&#45;&gt;W_Call after offers</title>
<path fill="none" stroke="#000000" stroke-width="1.9" d="M293.94,-998.77C347.63,-990.59 403.5,-969.67 403.5,-918 403.5,-918 403.5,-918 403.5,-568 403.5,-534.43 375.5,-514.06 343.08,-501.73"/>
<polygon fill="#000000" stroke="#000000" stroke-width="1.9" points="344.28,-498.44 333.69,-498.48 341.99,-505.06 344.28,-498.44"/>
<text text-anchor="middle" x="417.5" y="-739.3" font-family="Times,serif" font-size="14.00">1928</text>
</g>
<!-- A_Concept&#45;&gt;W_Complete application -->
<g id="edge7" class="edge">
<title>A_Concept&#45;&gt;W_Complete application</title>
<path fill="none" stroke="#000000" stroke-width="1.54" d="M79.97,-935.32C89.94,-945.75 103.59,-958.76 117.5,-968 124.21,-972.46 131.59,-976.6 139.06,-980.34"/>
<polygon fill="#000000" stroke="#000000" stroke-width="1.54" points="137.36,-983.41 147.89,-984.54 140.37,-977.08 137.36,-983.41"/>
<text text-anchor="middle" x="131.5" y="-956.8" font-family="Times,serif" font-size="14.00">1438</text>
</g>
<!-- A_Concept&#45;&gt;A_Accepted -->
<g id="edge27" class="edge">
<title>A_Concept&#45;&gt;A_Accepted</title>
<path fill="none" stroke="#000000" stroke-width="0.84" d="M83.93,-898.8C97.89,-886.44 116.92,-869.59 132.51,-855.78"/>
<polygon fill="#000000" stroke="#000000" stroke-width="0.84" points="134.65,-858.56 139.82,-849.31 130.01,-853.32 134.65,-858.56"/>
<text text-anchor="middle" x="128" y="-869.8" font-family="Times,serif" font-size="14.00">490</text>
</g>
<!-- A_Accepted&#45;&gt;W_Complete application -->
<g id="edge37" class="edge">
<title>A_Accepted&#45;&gt;W_Complete application</title>
<path fill="none" stroke="#ff0000" stroke-width="0.5" stroke-dasharray="5,2" d="M158.81,-848.23C157.27,-869.1 156.19,-905.18 163.5,-935 167.02,-949.38 173.85,-964.3 180.39,-976.48"/>
<polygon fill="#ff0000" stroke="#ff0000" stroke-width="0.5" points="177.18,-977.92 185.12,-984.94 183.29,-974.5 177.18,-977.92"/>
<text text-anchor="middle" x="170.5" y="-913.3" font-family="Times,serif" font-size="14.00">30</text>
</g>
<!-- A_Accepted&#45;&gt;O_Create Offer -->
<g id="edge9" class="edge">
<title>A_Accepted&#45;&gt;O_Create Offer</title>
<path fill="none" stroke="#000000" stroke-width="1.87" d="M161.31,-811.8C161.82,-801.04 162.48,-786.88 163.07,-774.29"/>
<polygon fill="#000000" stroke="#000000" stroke-width="1.87" points="166.57,-774.45 163.54,-764.3 159.58,-774.12 166.57,-774.45"/>
<text text-anchor="middle" x="176.5" y="-782.8" font-family="Times,serif" font-size="14.00">1898</text>
</g>
<!-- O_Created -->
<g id="node9" class="node">
<title>O_Created</title>
<polygon fill="#ededff" stroke="black" points="273,-674 158,-674 158,-638 273,-638 273,-674"/>
<text text-anchor="middle" x="215.5" y="-652.3" font-family="Times,serif" font-size="14.00">O_Created (1996)</text>
</g>
<!-- O_Create Offer&#45;&gt;O_Created -->
<g id="edge10" class="edge">
<title>O_Create Offer&#45;&gt;O_Created</title>
<path fill="none" stroke="#000000" stroke-width="1.95" d="M161.13,-724.82C160.01,-714.7 160.19,-701.96 165.5,-692 167.23,-688.76 169.41,-685.75 171.88,-682.98"/>
<polygon fill="#000000" stroke="#000000" stroke-width="1.95" points="174.03,-685.75 179.04,-676.42 169.31,-680.59 174.03,-685.75"/>
<text text-anchor="middle" x="179.5" y="-695.8" font-family="Times,serif" font-size="14.00">1996</text>
</g>
<!-- O_Created&#45;&gt;O_Create Offer -->
<g id="edge32" class="edge">
<title>O_Created&#45;&gt;O_Create Offer</title>
<path fill="none" stroke="#ff0000" stroke-width="0.51" stroke-dasharray="5,2" d="M209.28,-674.25C205.38,-684.17 199.88,-696.67 193.5,-707 191.58,-710.12 189.4,-713.25 187.12,-716.3"/>
<polygon fill="#ff0000" stroke="#ff0000" stroke-width="0.51" points="184.52,-713.94 181.04,-723.95 190,-718.29 184.52,-713.94"/>
<text text-anchor="middle" x="207.5" y="-695.8" font-family="Times,serif" font-size="14.00">44</text>
</g>
<!-- O_Sent (mail and online) -->
<g id="node10" class="node">
<title>O_Sent (mail and online)</title>
<polygon fill="#ededff" stroke="black" points="343,-587 148,-587 148,-551 343,-551 343,-587"/>
<text text-anchor="middle" x="245.5" y="-565.3" font-family="Times,serif" font-size="14.00">O_Sent (mail and online) (1996)</text>
</g>
<!-- O_Created&#45;&gt;O_Sent (mail and online) -->
<g id="edge11" class="edge">
<title>O_Created&#45;&gt;O_Sent (mail and online)</title>
<path fill="none" stroke="#000000" stroke-width="1.91" d="M221.57,-637.8C225.45,-626.81 230.58,-612.28 235.09,-599.48"/>
<polygon fill="#000000" stroke="#000000" stroke-width="1.91" points="238.34,-600.79 238.37,-590.2 231.74,-598.46 238.34,-600.79"/>
<text text-anchor="middle" x="245.5" y="-608.8" font-family="Times,serif" font-size="14.00">1952</text>
</g>
<!-- O_Sent (mail and online)&#45;&gt;W_Complete application -->
<g id="edge12" class="edge">
<title>O_Sent (mail and online)&#45;&gt;W_Complete application</title>
<path fill="none" stroke="#000000" stroke-width="1.9" d="M266.44,-587.24C283.05,-602.97 303.5,-627.85 303.5,-655 303.5,-918 303.5,-918 303.5,-918 303.5,-945.88 280.96,-966.07 256.57,-979.76"/>
<polygon fill="#000000" stroke="#000000" stroke-width="1.9" points="255.12,-976.57 247.85,-984.28 258.34,-982.78 255.12,-976.57"/>
<text text-anchor="middle" x="317.5" y="-782.8" font-family="Times,serif" font-size="14.00">1928</text>
</g>
<!-- O_Sent (mail and online)&#45;&gt;O_Sent (mail and online) -->
<g id="edge33" class="edge">
<title>O_Sent (mail and online)&#45;&gt;O_Sent (mail and online)</title>
<path fill="none" stroke="#ff0000" stroke-width="0.51" stroke-dasharray="5,2" d="M343.24,-575.86C354.03,-574.56 361,-572.27 361,-569 361,-566.96 358.28,-565.3 353.6,-564.02"/>
<polygon fill="#ff0000" stroke="#ff0000" stroke-width="0.51" points="354.48,-560.62 344.01,-562.28 353.22,-567.51 354.48,-560.62"/>
<text text-anchor="middle" x="368" y="-565.3" font-family="Times,serif" font-size="14.00">44</text>
</g>
<!-- O_Sent (mail and online)&#45;&gt;W_Call after offers -->
<g id="edge36" class="edge">
<title>O_Sent (mail and online)&#45;&gt;W_Call after offers</title>
<path fill="none" stroke="#ff0000" stroke-width="0.5" stroke-dasharray="5,2" d="M245.5,-550.8C245.5,-539.35 245.5,-524.06 245.5,-510.89"/>
<polygon fill="#ff0000" stroke="#ff0000" stroke-width="0.5" points="249,-511.22 245.5,-501.22 242,-511.22 249,-511.22"/>
<text text-anchor="middle" x="252.5" y="-521.8" font-family="Times,serif" font-size="14.00">24</text>
</g>
<!-- W_Call after offers&#45;&gt;O_Create Offer -->
<g id="edge35" class="edge">
<title>W_Call after offers&#45;&gt;O_Create Offer</title>
<path fill="none" stroke="#ff0000" stroke-width="0.5" stroke-dasharray="5,2" d="M198.74,-500.42C176.56,-511.32 152.19,-527.79 139.5,-551 110.72,-603.66 134.57,-676.35 151.41,-715.11"/>
<polygon fill="#ff0000" stroke="#ff0000" stroke-width="0.5" points="148.1,-716.29 155.41,-723.96 154.48,-713.41 148.1,-716.29"/>
<text text-anchor="middle" x="132.5" y="-608.8" font-family="Times,serif" font-size="14.00">24</text>
</g>
<!-- W_Call after offers&#45;&gt;W_Call after offers -->
<g id="edge14" class="edge">
<title>W_Call after offers&#45;&gt;W_Call after offers</title>
<path fill="none" stroke="#000000" stroke-width="6" d="M330.75,-489.1C341.45,-487.85 348.5,-485.48 348.5,-482 348.5,-480.91 347.81,-479.93 346.54,-479.06"/>
<polygon fill="#000000" stroke="#000000" stroke-width="6" points="348,-474.02 336.99,-476.54 345.32,-484.17 348,-474.02"/>
<text text-anchor="middle" x="362.5" y="-478.3" font-family="Times,serif" font-size="14.00">7528</text>
</g>
<!-- A_Complete -->
<g id="node12" class="node">
<title>A_Complete</title>
<polygon fill="#eeeeff" stroke="black" points="257.5,-413 131.5,-413 131.5,-377 257.5,-377 257.5,-413"/>
<text text-anchor="middle" x="194.5" y="-391.3" font-family="Times,serif" font-size="14.00">A_Complete (1928)</text>
</g>
<!-- W_Call after offers&#45;&gt;A_Complete -->
<g id="edge15" class="edge">
<title>W_Call after offers&#45;&gt;A_Complete</title>
<path fill="none" stroke="#000000" stroke-width="1.9" d="M239.28,-463.75C235.38,-453.83 229.88,-441.33 223.5,-431 221.93,-428.45 220.18,-425.89 218.35,-423.37"/>
<polygon fill="#000000" stroke="#000000" stroke-width="1.9" points="221.26,-421.41 212.33,-415.7 215.75,-425.73 221.26,-421.41"/>
<text text-anchor="middle" x="244.5" y="-434.8" font-family="Times,serif" font-size="14.00">1928</text>
</g>
<!-- W_Validate application -->
<g id="node13" class="node">
<title>W_Validate application</title>
<polygon fill="#afafff" stroke="black" points="461,-413 276,-413 276,-377 461,-377 461,-413"/>
<text text-anchor="middle" x="368.5" y="-391.3" font-family="Times,serif" font-size="14.00">W_Validate application (9088)</text>
</g>
<!-- W_Call after offers&#45;&gt;W_Validate application -->
<g id="edge17" class="edge">
<title>W_Call after offers&#45;&gt;W_Validate application</title>
<path fill="none" stroke="#000000" stroke-width="1.9" d="M270.69,-463.59C288.6,-451.22 312.91,-434.42 332.81,-420.66"/>
<polygon fill="#000000" stroke="#000000" stroke-width="1.9" points="334.75,-423.58 340.99,-415.01 330.77,-417.82 334.75,-423.58"/>
<text text-anchor="middle" x="327.5" y="-434.8" font-family="Times,serif" font-size="14.00">1928</text>
</g>
<!-- A_Complete&#45;&gt;W_Call after offers -->
<g id="edge16" class="edge">
<title>A_Complete&#45;&gt;W_Call after offers</title>
<path fill="none" stroke="#000000" stroke-width="1.9" d="M189.11,-413.2C186.96,-423.33 186.1,-436.07 191.5,-446 193.28,-449.27 195.5,-452.28 198.03,-455.04"/>
<polygon fill="#000000" stroke="#000000" stroke-width="1.9" points="195.64,-457.59 205.44,-461.6 200.28,-452.35 195.64,-457.59"/>
<text text-anchor="middle" x="205.5" y="-434.8" font-family="Times,serif" font-size="14.00">1928</text>
</g>
<!-- W_Validate application&#45;&gt;W_Validate application -->
<g id="edge18" class="edge">
<title>W_Validate application&#45;&gt;W_Validate application</title>
<path fill="none" stroke="#000000" stroke-width="2.92" d="M461.2,-401.96C471.98,-400.68 479,-398.36 479,-395 479,-393.53 477.66,-392.26 475.24,-391.19"/>
<polygon fill="#000000" stroke="#000000" stroke-width="2.92" points="476.04,-387.78 465.52,-389.01 474.51,-394.61 476.04,-387.78"/>
<text text-anchor="middle" x="493" y="-391.3" font-family="Times,serif" font-size="14.00">3332</text>
</g>
<!-- A_Validating -->
<g id="node14" class="node">
<title>A_Validating</title>
<polygon fill="#eeeeff" stroke="black" points="302.5,-326 174.5,-326 174.5,-290 302.5,-290 302.5,-326"/>
<text text-anchor="middle" x="238.5" y="-304.3" font-family="Times,serif" font-size="14.00">A_Validating (1928)</text>
</g>
<!-- W_Validate application&#45;&gt;A_Validating -->
<g id="edge19" class="edge">
<title>W_Validate application&#45;&gt;A_Validating</title>
<path fill="none" stroke="#000000" stroke-width="1.9" d="M320.84,-376.62C309.8,-371.67 298.39,-365.75 288.5,-359 278.88,-352.43 269.52,-343.87 261.56,-335.68"/>
<polygon fill="#000000" stroke="#000000" stroke-width="1.9" points="264.24,-333.43 254.86,-328.5 259.12,-338.2 264.24,-333.43"/>
<text text-anchor="middle" x="302.5" y="-347.8" font-family="Times,serif" font-size="14.00">1928</text>
</g>
<!-- O_Accepted -->
<g id="node16" class="node">
<title>O_Accepted</title>
<polygon fill="#f3f3ff" stroke="black" points="584.5,-326 460.5,-326 460.5,-290 584.5,-290 584.5,-326"/>
<text text-anchor="middle" x="522.5" y="-304.3" font-family="Times,serif" font-size="14.00">O_Accepted (1386)</text>
</g>
<!-- W_Validate application&#45;&gt;O_Accepted -->
<g id="edge22" class="edge">
<title>W_Validate application&#45;&gt;O_Accepted</title>
<path fill="none" stroke="#000000" stroke-width="1.48" d="M400.04,-376.59C423.29,-363.76 455.16,-346.17 480.56,-332.15"/>
<polygon fill="#000000" stroke="#000000" stroke-width="1.48" points="481.98,-335.36 489.05,-327.46 478.6,-329.23 481.98,-335.36"/>
<text text-anchor="middle" x="468.5" y="-347.8" font-family="Times,serif" font-size="14.00">1358</text>
</g>
<!-- A_Denied -->
<g id="node18" class="node">
<title>A_Denied</title>
<polygon fill="#fafaff" stroke="black" points="708,-326 603,-326 603,-290 708,-290 708,-326"/>
<text text-anchor="middle" x="655.5" y="-304.3" font-family="Times,serif" font-size="14.00">A_Denied (542)</text>
</g>
<!-- W_Validate application&#45;&gt;A_Denied -->
<g id="edge28" class="edge">
<title>W_Validate application&#45;&gt;A_Denied</title>
<path fill="none" stroke="#000000" stroke-width="0.88" d="M427.27,-376.59C475.15,-362.42 542.62,-342.43 591.78,-327.87"/>
<polygon fill="#000000" stroke="#000000" stroke-width="0.88" points="592.74,-331.24 601.33,-325.04 590.75,-324.53 592.74,-331.24"/>
<text text-anchor="middle" x="539" y="-347.8" font-family="Times,serif" font-size="14.00">542</text>
</g>
<!-- O_Cancelled -->
<g id="node20" class="node">
<title>O_Cancelled</title>
<polygon fill="#fefeff" stroke="black" points="113,-272 0,-272 0,-236 113,-236 113,-272"/>
<text text-anchor="middle" x="56.5" y="-250.3" font-family="Times,serif" font-size="14.00">O_Cancelled (68)</text>
</g>
<!-- W_Validate application&#45;&gt;O_Cancelled -->
<g id="edge34" class="edge">
<title>W_Validate application&#45;&gt;O_Cancelled</title>
<path fill="none" stroke="#ff0000" stroke-width="0.53" stroke-dasharray="5,2" d="M275.7,-378.3C272.6,-377.85 269.52,-377.42 266.5,-377 229.74,-371.95 130.28,-381.14 100.5,-359 76.21,-340.94 65.22,-306.85 60.32,-282.63"/>
<polygon fill="#ff0000" stroke="#ff0000" stroke-width="0.53" points="63.81,-282.3 58.61,-273.08 56.92,-283.54 63.81,-282.3"/>
<text text-anchor="middle" x="107.5" y="-347.8" font-family="Times,serif" font-size="14.00">68</text>
</g>
<!-- W_Call incomplete files -->
<g id="node21" class="node">
<title>W_Call incomplete files</title>
<polygon fill="#fdfdff" stroke="black" points="537.5,-131 353.5,-131 353.5,-95 537.5,-95 537.5,-131"/>
<text text-anchor="middle" x="445.5" y="-109.3" font-family="Times,serif" font-size="14.00">W_Call incomplete files (146)</text>
</g>
<!-- W_Validate application&#45;&gt;W_Call incomplete files -->
<g id="edge39" class="edge">
<title>W_Validate application&#45;&gt;W_Call incomplete files</title>
<path fill="none" stroke="#ff0000" stroke-width="0.5" stroke-dasharray="5,2" d="M366.77,-376.69C363.75,-339.42 360.28,-249.54 388.5,-182 395.27,-165.79 407.32,-150.53 418.6,-138.59"/>
<polygon fill="#ff0000" stroke="#ff0000" stroke-width="0.5" points="420.78,-141.37 425.3,-131.79 415.79,-136.46 420.78,-141.37"/>
<text text-anchor="middle" x="378.5" y="-250.3" font-family="Times,serif" font-size="14.00">28</text>
</g>
<!-- end_node -->
<g id="node23" class="node">
<title>end_node</title>
<ellipse fill="none" stroke="black" cx="312.5" cy="-22" rx="18" ry="18"/>
<ellipse fill="none" stroke="black" cx="312.5" cy="-22" rx="22" ry="22"/>
<text text-anchor="start" x="308" y="-18.3" font-family="Times,serif" font-size="14.00">■</text>
</g>
<!-- W_Validate application&#45;&gt;end_node -->
<g id="edge45" class="edge">
<title>W_Validate application&#45;&gt;end_node</title>
<path fill="none" stroke="#000000" stroke-width="1.83" d="M364.23,-376.61C362.93,-371.01 361.57,-364.76 360.5,-359 340.13,-249.12 323.6,-117.63 316.4,-56.86"/>
<polygon fill="#000000" stroke="#000000" stroke-width="1.83" points="319.89,-56.6 315.25,-47.07 312.94,-57.41 319.89,-56.6"/>
<text text-anchor="middle" x="350.5" y="-196.3" font-family="Times,serif" font-size="14.00">1832</text>
</g>
<!-- O_Returned -->
<g id="node15" class="node">
<title>O_Returned</title>
<polygon fill="#eeeeff" stroke="black" points="259.5,-218 137.5,-218 137.5,-182 259.5,-182 259.5,-218"/>
<text text-anchor="middle" x="198.5" y="-196.3" font-family="Times,serif" font-size="14.00">O_Returned (1928)</text>
</g>
<!-- A_Validating&#45;&gt;O_Returned -->
<g id="edge20" class="edge">
<title>A_Validating&#45;&gt;O_Returned</title>
<path fill="none" stroke="#000000" stroke-width="1.9" d="M232.07,-289.97C226.02,-273.92 216.81,-249.53 209.57,-230.34"/>
<polygon fill="#000000" stroke="#000000" stroke-width="1.9" points="212.86,-229.15 206.06,-221.02 206.31,-231.62 212.86,-229.15"/>
<text text-anchor="middle" x="237.5" y="-250.3" font-family="Times,serif" font-size="14.00">1928</text>
</g>
<!-- O_Returned&#45;&gt;W_Validate application -->
<g id="edge21" class="edge">
<title>O_Returned&#45;&gt;W_Validate application</title>
<path fill="none" stroke="#000000" stroke-width="1.9" d="M178.68,-218.31C152.2,-243.54 111.46,-291.2 137.5,-326 153.36,-347.2 210.05,-364.06 263.3,-375.69"/>
<polygon fill="#000000" stroke="#000000" stroke-width="1.9" points="262.35,-379.07 272.85,-377.72 263.8,-372.22 262.35,-379.07"/>
<text text-anchor="middle" x="151.5" y="-304.3" font-family="Times,serif" font-size="14.00">1928</text>
</g>
<!-- A_Pending -->
<g id="node17" class="node">
<title>A_Pending</title>
<polygon fill="#f3f3ff" stroke="black" points="514,-218 397,-218 397,-182 514,-182 514,-218"/>
<text text-anchor="middle" x="455.5" y="-196.3" font-family="Times,serif" font-size="14.00">A_Pending (1386)</text>
</g>
<!-- O_Accepted&#45;&gt;A_Pending -->
<g id="edge23" class="edge">
<title>O_Accepted&#45;&gt;A_Pending</title>
<path fill="none" stroke="#000000" stroke-width="1.5" d="M511.74,-289.97C501.3,-273.45 485.28,-248.12 473.01,-228.7"/>
<polygon fill="#000000" stroke="#000000" stroke-width="1.5" points="475.97,-226.84 467.67,-220.26 470.06,-230.58 475.97,-226.84"/>
<text text-anchor="middle" x="512.5" y="-250.3" font-family="Times,serif" font-size="14.00">1386</text>
</g>
<!-- A_Pending&#45;&gt;W_Validate application -->
<g id="edge24" class="edge">
<title>A_Pending&#45;&gt;W_Validate application</title>
<path fill="none" stroke="#000000" stroke-width="1.48" d="M447.71,-218.29C432.69,-251.59 399.64,-324.92 381.33,-365.53"/>
<polygon fill="#000000" stroke="#000000" stroke-width="1.48" points="378.21,-363.94 377.29,-374.49 384.59,-366.81 378.21,-363.94"/>
<text text-anchor="middle" x="428.5" y="-304.3" font-family="Times,serif" font-size="14.00">1358</text>
</g>
<!-- A_Pending&#45;&gt;W_Call incomplete files -->
<g id="edge44" class="edge">
<title>A_Pending&#45;&gt;W_Call incomplete files</title>
<path fill="none" stroke="#ff0000" stroke-width="0.5" stroke-dasharray="5,2" d="M453.48,-181.8C452.13,-170.35 450.33,-155.06 448.78,-141.89"/>
<polygon fill="#ff0000" stroke="#ff0000" stroke-width="0.5" points="452.29,-141.75 447.64,-132.22 445.34,-142.56 452.29,-141.75"/>
<text text-anchor="middle" x="457.5" y="-152.8" font-family="Times,serif" font-size="14.00">28</text>
</g>
<!-- O_Refused -->
<g id="node19" class="node">
<title>O_Refused</title>
<polygon fill="#fafaff" stroke="black" points="768.5,-218 658.5,-218 658.5,-182 768.5,-182 768.5,-218"/>
<text text-anchor="middle" x="713.5" y="-196.3" font-family="Times,serif" font-size="14.00">O_Refused (542)</text>
</g>
<!-- A_Denied&#45;&gt;O_Refused -->
<g id="edge29" class="edge">
<title>A_Denied&#45;&gt;O_Refused</title>
<path fill="none" stroke="#000000" stroke-width="0.88" d="M664.82,-289.97C673.94,-273.3 687.98,-247.65 698.64,-228.16"/>
<polygon fill="#000000" stroke="#000000" stroke-width="0.88" points="701.64,-229.96 703.37,-219.51 695.5,-226.6 701.64,-229.96"/>
<text text-anchor="middle" x="703" y="-250.3" font-family="Times,serif" font-size="14.00">542</text>
</g>
<!-- O_Refused&#45;&gt;W_Validate application -->
<g id="edge30" class="edge">
<title>O_Refused&#45;&gt;W_Validate application</title>
<path fill="none" stroke="#000000" stroke-width="0.88" d="M720.43,-218.2C729.81,-244.59 742.67,-295.26 717.5,-326 687,-363.25 564.08,-380.35 472.7,-388.03"/>
<polygon fill="#000000" stroke="#000000" stroke-width="0.88" points="472.45,-384.54 462.77,-388.84 473.02,-391.52 472.45,-384.54"/>
<text text-anchor="middle" x="741" y="-304.3" font-family="Times,serif" font-size="14.00">542</text>
</g>
<!-- O_Cancelled&#45;&gt;end_node -->
<g id="edge46" class="edge">
<title>O_Cancelled&#45;&gt;end_node</title>
<path fill="none" stroke="#ff0000" stroke-width="0.53" stroke-dasharray="5,2" d="M73.36,-235.75C87.76,-221.17 109.15,-199.86 128.5,-182 184.07,-130.7 251.97,-73.34 287.73,-43.52"/>
<polygon fill="#ff0000" stroke="#ff0000" stroke-width="0.53" points="289.62,-46.5 295.07,-37.41 285.14,-41.12 289.62,-46.5"/>
<text text-anchor="middle" x="170.5" y="-152.8" font-family="Times,serif" font-size="14.00">68</text>
</g>
<!-- W_Call incomplete files&#45;&gt;O_Accepted -->
<g id="edge43" class="edge">
<title>W_Call incomplete files&#45;&gt;O_Accepted</title>
<path fill="none" stroke="#ff0000" stroke-width="0.5" stroke-dasharray="5,2" d="M474.41,-131.42C491.61,-143.4 512.23,-160.93 523.5,-182 539.7,-212.27 535.49,-252.87 529.92,-279.46"/>
<polygon fill="#ff0000" stroke="#ff0000" stroke-width="0.5" points="526.59,-278.33 527.76,-288.86 533.41,-279.9 526.59,-278.33"/>
<text text-anchor="middle" x="540.5" y="-196.3" font-family="Times,serif" font-size="14.00">28</text>
</g>
<!-- W_Call incomplete files&#45;&gt;W_Call incomplete files -->
<g id="edge40" class="edge">
<title>W_Call incomplete files&#45;&gt;W_Call incomplete files</title>
<path fill="none" stroke="#ff0000" stroke-width="0.53" stroke-dasharray="5,2" d="M537.78,-119.96C548.52,-118.68 555.5,-116.36 555.5,-113 555.5,-110.9 552.77,-109.21 548.11,-107.92"/>
<polygon fill="#ff0000" stroke="#ff0000" stroke-width="0.53" points="549.03,-104.53 538.57,-106.18 547.78,-111.42 549.03,-104.53"/>
<text text-anchor="middle" x="562.5" y="-109.3" font-family="Times,serif" font-size="14.00">62</text>
</g>
<!-- A_Incomplete -->
<g id="node22" class="node">
<title>A_Incomplete</title>
<polygon fill="#ffffff" stroke="black" points="505,-40 384,-40 384,-4 505,-4 505,-40"/>
<text text-anchor="middle" x="444.5" y="-18.3" font-family="Times,serif" font-size="14.00">A_Incomplete (28)</text>
</g>
<!-- W_Call incomplete files&#45;&gt;A_Incomplete -->
<g id="edge41" class="edge">
<title>W_Call incomplete files&#45;&gt;A_Incomplete</title>
<path fill="none" stroke="#ff0000" stroke-width="0.5" stroke-dasharray="5,2" d="M434.62,-94.83C431.72,-89.35 428.98,-83.11 427.5,-77 425.36,-68.17 426.98,-58.68 429.93,-50.15"/>
<polygon fill="#ff0000" stroke="#ff0000" stroke-width="0.5" points="433.11,-51.62 433.72,-41.04 426.65,-48.93 433.11,-51.62"/>
<text text-anchor="middle" x="434.5" y="-65.8" font-family="Times,serif" font-size="14.00">28</text>
</g>
<!-- W_Call incomplete files&#45;&gt;end_node -->
<g id="edge47" class="edge">
<title>W_Call incomplete files&#45;&gt;end_node</title>
<path fill="none" stroke="#ff0000" stroke-width="0.5" stroke-dasharray="5,2" d="M419.54,-94.63C396.45,-79.18 362.81,-56.67 339.43,-41.02"/>
<polygon fill="#ff0000" stroke="#ff0000" stroke-width="0.5" points="341.6,-38.26 331.34,-35.61 337.71,-44.08 341.6,-38.26"/>
<text text-anchor="middle" x="397.5" y="-65.8" font-family="Times,serif" font-size="14.00">28</text>
</g>
<!-- A_Incomplete&#45;&gt;W_Call incomplete files -->
<g id="edge42" class="edge">
<title>A_Incomplete&#45;&gt;W_Call incomplete files</title>
<path fill="none" stroke="#ff0000" stroke-width="0.5" stroke-dasharray="5,2" d="M444.7,-40.41C444.84,-52.83 445.03,-69.79 445.19,-84.08"/>
<polygon fill="#ff0000" stroke="#ff0000" stroke-width="0.5" points="441.69,-84.12 445.3,-94.08 448.69,-84.04 441.69,-84.12"/>
<text text-anchor="middle" x="451.5" y="-65.8" font-family="Times,serif" font-size="14.00">28</text>
</g>
</g>
</svg>
