<?xml version="1.0" encoding="UTF-8" standalone="no"?>
<!DOCTYPE svg PUBLIC "-//W3C//DTD SVG 1.1//EN"
 "http://www.w3.org/Graphics/SVG/1.1/DTD/svg11.dtd">
<!-- Generated by graphviz version 7.0.5 (0)
 -->
<!-- Title: dfg Pages: 1 -->
<svg width="861pt" height="1531pt"
 viewBox="0.00 0.00 860.69 1531.00" xmlns="http://www.w3.org/2000/svg" xmlns:xlink="http://www.w3.org/1999/xlink">
<g id="graph0" class="graph" transform="scale(1 1) rotate(0) translate(4 1527)">
<title>dfg</title>
<polygon fill="white" stroke="none" points="-4,4 -4,-1527 856.69,-1527 856.69,4 -4,4"/>
<!-- start_node -->
<g id="node1" class="node">
<title>start_node</title>
<ellipse fill="none" stroke="black" cx="321.69" cy="-1505" rx="18" ry="18"/>
<text text-anchor="start" x="317.19" y="-1501.3" font-family="Times,serif" font-size="14.00">●</text>
</g>
<!-- A_Create Application -->
<g id="node2" class="node">
<title>A_Create Application</title>
<polygon fill="#eeeeff" stroke="black" points="412.69,-1436 230.69,-1436 230.69,-1400 412.69,-1400 412.69,-1436"/>
<text text-anchor="middle" x="321.69" y="-1414.3" font-family="Times,serif" font-size="14.00">A_Create Application (11538)</text>
</g>
<!-- start_node&#45;&gt;A_Create Application -->
<g id="edge1" class="edge">
<title>start_node&#45;&gt;A_Create Application</title>
<path fill="none" stroke="#000000" stroke-width="2.12" d="M321.69,-1486.8C321.69,-1476.04 321.69,-1461.88 321.69,-1449.29"/>
<polygon fill="#000000" stroke="#000000" stroke-width="2.12" points="325.19,-1449.67 321.69,-1439.67 318.19,-1449.67 325.19,-1449.67"/>
<text text-anchor="middle" x="338.69" y="-1457.8" font-family="Times,serif" font-size="14.00">11538</text>
</g>
<!-- A_Submitted -->
<g id="node3" class="node">
<title>A_Submitted</title>
<polygon fill="#f3f3ff" stroke="black" points="485.19,-1349 356.19,-1349 356.19,-1313 485.19,-1313 485.19,-1349"/>
<text text-anchor="middle" x="420.69" y="-1327.3" font-family="Times,serif" font-size="14.00">A_Submitted (7720)</text>
</g>
<!-- A_Create Application&#45;&gt;A_Submitted -->
<g id="edge2" class="edge">
<title>A_Create Application&#45;&gt;A_Submitted</title>
<path fill="none" stroke="#000000" stroke-width="1.58" d="M341.72,-1399.8C355.99,-1387.55 375.38,-1370.9 391.38,-1357.16"/>
<polygon fill="#000000" stroke="#000000" stroke-width="1.58" points="393.22,-1360.2 398.53,-1351.03 388.66,-1354.89 393.22,-1360.2"/>
<text text-anchor="middle" x="390.69" y="-1370.8" font-family="Times,serif" font-size="14.00">7720</text>
</g>
<!-- W_Complete application -->
<g id="node5" class="node">
<title>W_Complete application</title>
<polygon fill="#bbbbff" stroke="black" points="526.69,-1175 326.69,-1175 326.69,-1139 526.69,-1139 526.69,-1175"/>
<text text-anchor="middle" x="426.69" y="-1153.3" font-family="Times,serif" font-size="14.00">W_Complete application (46875)</text>
</g>
<!-- A_Create Application&#45;&gt;W_Complete application -->
<g id="edge20" class="edge">
<title>A_Create Application&#45;&gt;W_Complete application</title>
<path fill="none" stroke="#000000" stroke-width="0.89" d="M319.13,-1399.62C314.83,-1364.41 309.43,-1283.16 340.69,-1226 350.62,-1207.85 367.61,-1192.86 383.89,-1181.61"/>
<polygon fill="#000000" stroke="#000000" stroke-width="0.89" points="385.75,-1184.57 392.2,-1176.17 381.91,-1178.72 385.75,-1184.57"/>
<text text-anchor="middle" x="336.69" y="-1283.8" font-family="Times,serif" font-size="14.00">2805</text>
</g>
<!-- A_Concept -->
<g id="node6" class="node">
<title>A_Concept</title>
<polygon fill="#eeeeff" stroke="black" points="333.19,-1088 208.19,-1088 208.19,-1052 333.19,-1052 333.19,-1088"/>
<text text-anchor="middle" x="270.69" y="-1066.3" font-family="Times,serif" font-size="14.00">A_Concept (11538)</text>
</g>
<!-- A_Create Application&#45;&gt;A_Concept -->
<g id="edge40" class="edge">
<title>A_Create Application&#45;&gt;A_Concept</title>
<path fill="none" stroke="#ff0000" stroke-width="0.64" stroke-dasharray="5,2" d="M230.37,-1403.57C191.38,-1392.16 154.69,-1371.04 154.69,-1332 154.69,-1332 154.69,-1332 154.69,-1156 154.69,-1126.76 178.97,-1106.48 205.31,-1093.09"/>
<polygon fill="#ff0000" stroke="#ff0000" stroke-width="0.64" points="206.66,-1096.32 214.19,-1088.88 203.66,-1090 206.66,-1096.32"/>
<text text-anchor="middle" x="168.69" y="-1240.3" font-family="Times,serif" font-size="14.00">1013</text>
</g>
<!-- W_Handle leads -->
<g id="node4" class="node">
<title>W_Handle leads</title>
<polygon fill="#e7e7ff" stroke="black" points="503.69,-1262 349.69,-1262 349.69,-1226 503.69,-1226 503.69,-1262"/>
<text text-anchor="middle" x="426.69" y="-1240.3" font-family="Times,serif" font-size="14.00">W_Handle leads (16458)</text>
</g>
<!-- A_Submitted&#45;&gt;W_Handle leads -->
<g id="edge3" class="edge">
<title>A_Submitted&#45;&gt;W_Handle leads</title>
<path fill="none" stroke="#000000" stroke-width="1.58" d="M421.9,-1312.8C422.68,-1301.81 423.71,-1287.28 424.61,-1274.48"/>
<polygon fill="#000000" stroke="#000000" stroke-width="1.58" points="428.08,-1275.08 425.29,-1264.86 421.09,-1274.59 428.08,-1275.08"/>
<text text-anchor="middle" x="437.69" y="-1283.8" font-family="Times,serif" font-size="14.00">7720</text>
</g>
<!-- W_Handle leads&#45;&gt;W_Handle leads -->
<g id="edge4" class="edge">
<title>W_Handle leads&#45;&gt;W_Handle leads</title>
<path fill="none" stroke="#000000" stroke-width="1.73" d="M503.85,-1251.28C514.54,-1250.08 521.69,-1247.65 521.69,-1244 521.69,-1242.06 519.67,-1240.46 516.18,-1239.22"/>
<polygon fill="#000000" stroke="#000000" stroke-width="1.73" points="516.91,-1235.79 506.41,-1237.24 515.52,-1242.65 516.91,-1235.79"/>
<text text-anchor="middle" x="535.69" y="-1240.3" font-family="Times,serif" font-size="14.00">8738</text>
</g>
<!-- W_Handle leads&#45;&gt;W_Complete application -->
<g id="edge5" class="edge">
<title>W_Handle leads&#45;&gt;W_Complete application</title>
<path fill="none" stroke="#000000" stroke-width="1.58" d="M426.69,-1225.8C426.69,-1214.81 426.69,-1200.28 426.69,-1187.48"/>
<polygon fill="#000000" stroke="#000000" stroke-width="1.58" points="430.19,-1187.86 426.69,-1177.86 423.19,-1187.86 430.19,-1187.86"/>
<text text-anchor="middle" x="440.69" y="-1196.8" font-family="Times,serif" font-size="14.00">7720</text>
</g>
<!-- W_Complete application&#45;&gt;W_Complete application -->
<g id="edge21" class="edge">
<title>W_Complete application&#45;&gt;W_Complete application</title>
<path fill="none" stroke="#000000" stroke-width="2.84" d="M526.98,-1163.81C537.76,-1162.5 544.69,-1160.23 544.69,-1157 544.69,-1155.54 543.27,-1154.27 540.71,-1153.2"/>
<polygon fill="#000000" stroke="#000000" stroke-width="2.84" points="541.69,-1149.83 531.17,-1151.11 540.19,-1156.67 541.69,-1149.83"/>
<text text-anchor="middle" x="561.69" y="-1153.3" font-family="Times,serif" font-size="14.00">16649</text>
</g>
<!-- W_Complete application&#45;&gt;A_Concept -->
<g id="edge6" class="edge">
<title>W_Complete application&#45;&gt;A_Concept</title>
<path fill="none" stroke="#000000" stroke-width="1.98" d="M359.12,-1138.53C346.22,-1133.81 333.17,-1128.01 321.69,-1121 311.5,-1114.77 301.76,-1106.15 293.57,-1097.82"/>
<polygon fill="#000000" stroke="#000000" stroke-width="1.98" points="296.15,-1095.46 286.78,-1090.53 291.03,-1100.23 296.15,-1095.46"/>
<text text-anchor="middle" x="338.69" y="-1109.8" font-family="Times,serif" font-size="14.00">10525</text>
</g>
<!-- A_Accepted -->
<g id="node7" class="node">
<title>A_Accepted</title>
<polygon fill="#eeeeff" stroke="black" points="410.19,-1001 279.19,-1001 279.19,-965 410.19,-965 410.19,-1001"/>
<text text-anchor="middle" x="344.69" y="-979.3" font-family="Times,serif" font-size="14.00">A_Accepted (11538)</text>
</g>
<!-- W_Complete application&#45;&gt;A_Accepted -->
<g id="edge8" class="edge">
<title>W_Complete application&#45;&gt;A_Accepted</title>
<path fill="none" stroke="#000000" stroke-width="1.63" d="M424.37,-1138.69C420.06,-1111.35 408.85,-1057.35 383.69,-1019 381.61,-1015.83 379.18,-1012.77 376.56,-1009.86"/>
<polygon fill="#000000" stroke="#000000" stroke-width="1.63" points="379.08,-1007.43 369.51,-1002.88 374.16,-1012.41 379.08,-1007.43"/>
<text text-anchor="middle" x="426.69" y="-1066.3" font-family="Times,serif" font-size="14.00">8026</text>
</g>
<!-- O_Create Offer -->
<g id="node8" class="node">
<title>O_Create Offer</title>
<polygon fill="#ededff" stroke="black" points="344.69,-914 196.69,-914 196.69,-878 344.69,-878 344.69,-914"/>
<text text-anchor="middle" x="270.69" y="-892.3" font-family="Times,serif" font-size="14.00">O_Create Offer (12445)</text>
</g>
<!-- W_Complete application&#45;&gt;O_Create Offer -->
<g id="edge50" class="edge">
<title>W_Complete application&#45;&gt;O_Create Offer</title>
<path fill="none" stroke="#ff0000" stroke-width="0.51" stroke-dasharray="5,2" d="M326.46,-1139.65C271.92,-1128.3 212.74,-1111.06 198.69,-1088 165.26,-1033.14 215.28,-960.2 247.33,-922.29"/>
<polygon fill="#ff0000" stroke="#ff0000" stroke-width="0.51" points="249.83,-924.75 253.74,-914.9 244.54,-920.16 249.83,-924.75"/>
<text text-anchor="middle" x="202.19" y="-1022.8" font-family="Times,serif" font-size="14.00">108</text>
</g>
<!-- O_Sent (mail and online) -->
<g id="node10" class="node">
<title>O_Sent (mail and online)</title>
<polygon fill="#ededff" stroke="black" points="341.69,-740 139.69,-740 139.69,-704 341.69,-704 341.69,-740"/>
<text text-anchor="middle" x="240.69" y="-718.3" font-family="Times,serif" font-size="14.00">O_Sent (mail and online) (12416)</text>
</g>
<!-- W_Complete application&#45;&gt;O_Sent (mail and online) -->
<g id="edge56" class="edge">
<title>W_Complete application&#45;&gt;O_Sent (mail and online)</title>
<path fill="none" stroke="#ff0000" stroke-width="0.5" stroke-dasharray="5,2" d="M433.81,-1138.74C448.05,-1102.62 478.69,-1016.13 478.69,-940.5 478.69,-940.5 478.69,-940.5 478.69,-808 478.69,-784.92 481.94,-773.33 464.69,-758 460.08,-753.9 406.22,-745.42 352.48,-737.83"/>
<polygon fill="#ff0000" stroke="#ff0000" stroke-width="0.5" points="353.24,-734.4 342.86,-736.48 352.27,-741.34 353.24,-734.4"/>
<text text-anchor="middle" x="485.69" y="-935.8" font-family="Times,serif" font-size="14.00">29</text>
</g>
<!-- W_Call after offers -->
<g id="node11" class="node">
<title>W_Call after offers</title>
<polygon fill="#9b9bff" stroke="black" points="481.69,-479 311.69,-479 311.69,-443 481.69,-443 481.69,-479"/>
<text text-anchor="middle" x="396.69" y="-457.3" font-family="Times,serif" font-size="14.00">W_Call after offers (69155)</text>
</g>
<!-- W_Complete application&#45;&gt;W_Call after offers -->
<g id="edge13" class="edge">
<title>W_Complete application&#45;&gt;W_Call after offers</title>
<path fill="none" stroke="#000000" stroke-width="2.12" d="M527.03,-1151.55C580.22,-1143.16 634.69,-1122.1 634.69,-1071 634.69,-1071 634.69,-1071 634.69,-764.5 634.69,-682.33 642.32,-650.95 594.69,-584 561.03,-536.68 502.7,-504.03 458.04,-484.49"/>
<polygon fill="#000000" stroke="#000000" stroke-width="2.12" points="459.66,-481.38 449.09,-480.7 456.93,-487.82 459.66,-481.38"/>
<text text-anchor="middle" x="651.69" y="-805.3" font-family="Times,serif" font-size="14.00">11525</text>
</g>
<!-- end_node -->
<g id="node25" class="node">
<title>end_node</title>
<ellipse fill="none" stroke="black" cx="710.69" cy="-22" rx="18" ry="18"/>
<ellipse fill="none" stroke="black" cx="710.69" cy="-22" rx="22" ry="22"/>
<text text-anchor="start" x="706.19" y="-18.3" font-family="Times,serif" font-size="14.00">■</text>
</g>
<!-- W_Complete application&#45;&gt;end_node -->
<g id="edge64" class="edge">
<title>W_Complete application&#45;&gt;end_node</title>
<path fill="none" stroke="#ff0000" stroke-width="0.5" stroke-dasharray="5,2" d="M526.95,-1154.96C648.9,-1150.93 838.69,-1134.45 838.69,-1071 838.69,-1071 838.69,-1071 838.69,-112 838.69,-65.24 780.4,-41.06 742.49,-30.28"/>
<polygon fill="#ff0000" stroke="#ff0000" stroke-width="0.5" points="743.7,-26.98 733.13,-27.78 741.89,-33.74 743.7,-26.98"/>
<text text-anchor="middle" x="845.69" y="-587.8" font-family="Times,serif" font-size="14.00">13</text>
</g>
<!-- A_Concept&#45;&gt;W_Complete application -->
<g id="edge7" class="edge">
<title>A_Concept&#45;&gt;W_Complete application</title>
<path fill="none" stroke="#000000" stroke-width="1.63" d="M266.14,-1088.1C264.41,-1098.71 264.34,-1111.99 271.69,-1121 278.32,-1129.13 294.7,-1135.52 314.45,-1140.48"/>
<polygon fill="#000000" stroke="#000000" stroke-width="1.63" points="313.48,-1143.85 324.01,-1142.69 315.06,-1137.03 313.48,-1143.85"/>
<text text-anchor="middle" x="285.69" y="-1109.8" font-family="Times,serif" font-size="14.00">8026</text>
</g>
<!-- A_Concept&#45;&gt;A_Accepted -->
<g id="edge22" class="edge">
<title>A_Concept&#45;&gt;A_Accepted</title>
<path fill="none" stroke="#000000" stroke-width="0.99" d="M285.67,-1051.8C296.13,-1039.78 310.28,-1023.52 322.11,-1009.94"/>
<polygon fill="#000000" stroke="#000000" stroke-width="0.99" points="324.57,-1012.44 328.5,-1002.6 319.29,-1007.84 324.57,-1012.44"/>
<text text-anchor="middle" x="326.69" y="-1022.8" font-family="Times,serif" font-size="14.00">3512</text>
</g>
<!-- A_Accepted&#45;&gt;W_Complete application -->
<g id="edge49" class="edge">
<title>A_Accepted&#45;&gt;W_Complete application</title>
<path fill="none" stroke="#ff0000" stroke-width="0.51" stroke-dasharray="5,2" d="M347.88,-1001.27C352.23,-1022.49 361.2,-1059.23 375.69,-1088 383.35,-1103.21 394.46,-1118.52 404.36,-1130.75"/>
<polygon fill="#ff0000" stroke="#ff0000" stroke-width="0.51" points="401.38,-1132.64 410.47,-1138.09 406.77,-1128.17 401.38,-1132.64"/>
<text text-anchor="middle" x="386.19" y="-1066.3" font-family="Times,serif" font-size="14.00">108</text>
</g>
<!-- A_Accepted&#45;&gt;O_Create Offer -->
<g id="edge9" class="edge">
<title>A_Accepted&#45;&gt;O_Create Offer</title>
<path fill="none" stroke="#000000" stroke-width="2.1" d="M329.72,-964.8C319.55,-953.12 305.9,-937.45 294.29,-924.11"/>
<polygon fill="#000000" stroke="#000000" stroke-width="2.1" points="297.19,-922.11 287.99,-916.87 291.91,-926.71 297.19,-922.11"/>
<text text-anchor="middle" x="329.69" y="-935.8" font-family="Times,serif" font-size="14.00">11430</text>
</g>
<!-- O_Created -->
<g id="node9" class="node">
<title>O_Created</title>
<polygon fill="#ededff" stroke="black" points="419.69,-827 297.69,-827 297.69,-791 419.69,-791 419.69,-827"/>
<text text-anchor="middle" x="358.69" y="-805.3" font-family="Times,serif" font-size="14.00">O_Created (12445)</text>
</g>
<!-- O_Create Offer&#45;&gt;O_Created -->
<g id="edge10" class="edge">
<title>O_Create Offer&#45;&gt;O_Created</title>
<path fill="none" stroke="#000000" stroke-width="2.25" d="M273.17,-877.57C275.44,-867.11 279.71,-854.1 287.69,-845 291.11,-841.1 295.07,-837.59 299.32,-834.44"/>
<polygon fill="#000000" stroke="#000000" stroke-width="2.25" points="301.01,-837.52 307.53,-829.17 297.23,-831.63 301.01,-837.52"/>
<text text-anchor="middle" x="304.69" y="-848.8" font-family="Times,serif" font-size="14.00">12445</text>
</g>
<!-- O_Created&#45;&gt;W_Complete application -->
<g id="edge55" class="edge">
<title>O_Created&#45;&gt;W_Complete application</title>
<path fill="none" stroke="#ff0000" stroke-width="0.5" stroke-dasharray="5,2" d="M420.03,-816.58C467.32,-825.46 524.69,-846.27 524.69,-895 524.69,-1071 524.69,-1071 524.69,-1071 524.69,-1096.47 515.12,-1103.42 496.69,-1121 491.92,-1125.56 486.44,-1129.64 480.69,-1133.27"/>
<polygon fill="#ff0000" stroke="#ff0000" stroke-width="0.5" points="479.04,-1130.18 472.15,-1138.23 482.56,-1136.23 479.04,-1130.18"/>
<text text-anchor="middle" x="531.69" y="-979.3" font-family="Times,serif" font-size="14.00">29</text>
</g>
<!-- O_Created&#45;&gt;O_Create Offer -->
<g id="edge37" class="edge">
<title>O_Created&#45;&gt;O_Create Offer</title>
<path fill="none" stroke="#ff0000" stroke-width="0.58" stroke-dasharray="5,2" d="M347.97,-827.33C341.18,-837.51 331.79,-850.25 321.69,-860 317.54,-864.01 312.88,-867.88 308.11,-871.49"/>
<polygon fill="#ff0000" stroke="#ff0000" stroke-width="0.58" points="306.29,-868.49 300.21,-877.17 310.37,-874.17 306.29,-868.49"/>
<text text-anchor="middle" x="344.19" y="-848.8" font-family="Times,serif" font-size="14.00">578</text>
</g>
<!-- O_Created&#45;&gt;O_Sent (mail and online) -->
<g id="edge11" class="edge">
<title>O_Created&#45;&gt;O_Sent (mail and online)</title>
<path fill="none" stroke="#000000" stroke-width="2.16" d="M334.53,-790.59C317.5,-778.33 294.46,-761.73 275.46,-748.05"/>
<polygon fill="#000000" stroke="#000000" stroke-width="2.16" points="277.63,-745.3 267.47,-742.29 273.54,-750.98 277.63,-745.3"/>
<text text-anchor="middle" x="324.69" y="-761.8" font-family="Times,serif" font-size="14.00">11809</text>
</g>
<!-- A_Cancelled -->
<g id="node13" class="node">
<title>A_Cancelled</title>
<polygon fill="#f5f5ff" stroke="black" points="465.19,-653 338.19,-653 338.19,-617 465.19,-617 465.19,-653"/>
<text text-anchor="middle" x="401.69" y="-631.3" font-family="Times,serif" font-size="14.00">A_Cancelled (6868)</text>
</g>
<!-- O_Created&#45;&gt;A_Cancelled -->
<g id="edge58" class="edge">
<title>O_Created&#45;&gt;A_Cancelled</title>
<path fill="none" stroke="#ff0000" stroke-width="0.5" stroke-dasharray="5,2" d="M368.42,-790.68C375.5,-777.27 384.68,-758 389.69,-740 396.71,-714.77 399.63,-684.99 400.84,-663.78"/>
<polygon fill="#ff0000" stroke="#ff0000" stroke-width="0.5" points="404.33,-664.16 401.3,-654 397.33,-663.82 404.33,-664.16"/>
<text text-anchor="middle" x="403.69" y="-718.3" font-family="Times,serif" font-size="14.00">13</text>
</g>
<!-- O_Sent (online only) -->
<g id="node24" class="node">
<title>O_Sent (online only)</title>
<polygon fill="#ffffff" stroke="black" points="606.69,-740 448.69,-740 448.69,-704 606.69,-704 606.69,-740"/>
<text text-anchor="middle" x="527.69" y="-718.3" font-family="Times,serif" font-size="14.00">O_Sent (online only) (16)</text>
</g>
<!-- O_Created&#45;&gt;O_Sent (online only) -->
<g id="edge53" class="edge">
<title>O_Created&#45;&gt;O_Sent (online only)</title>
<path fill="none" stroke="#ff0000" stroke-width="0.5" stroke-dasharray="5,2" d="M393.3,-790.59C419.39,-777.47 455.36,-759.38 483.52,-745.21"/>
<polygon fill="#ff0000" stroke="#ff0000" stroke-width="0.5" points="485.09,-748.34 492.45,-740.72 481.95,-742.09 485.09,-748.34"/>
<text text-anchor="middle" x="459.69" y="-761.8" font-family="Times,serif" font-size="14.00">16</text>
</g>
<!-- O_Sent (mail and online)&#45;&gt;W_Complete application -->
<g id="edge12" class="edge">
<title>O_Sent (mail and online)&#45;&gt;W_Complete application</title>
<path fill="none" stroke="#000000" stroke-width="2.11" d="M171.07,-740.39C138.89,-753.02 107.69,-774.02 107.69,-808 107.69,-1071 107.69,-1071 107.69,-1071 107.69,-1114.82 221.48,-1136.61 313.14,-1147.06"/>
<polygon fill="#000000" stroke="#000000" stroke-width="2.11" points="312.69,-1150.54 323.01,-1148.15 313.45,-1143.58 312.69,-1150.54"/>
<text text-anchor="middle" x="124.69" y="-935.8" font-family="Times,serif" font-size="14.00">11509</text>
</g>
<!-- O_Sent (mail and online)&#45;&gt;O_Sent (mail and online) -->
<g id="edge38" class="edge">
<title>O_Sent (mail and online)&#45;&gt;O_Sent (mail and online)</title>
<path fill="none" stroke="#ff0000" stroke-width="0.58" stroke-dasharray="5,2" d="M341.83,-728.81C352.7,-727.5 359.69,-725.23 359.69,-722 359.69,-719.98 356.96,-718.34 352.26,-717.07"/>
<polygon fill="#ff0000" stroke="#ff0000" stroke-width="0.58" points="353.15,-713.68 342.69,-715.35 351.91,-720.56 353.15,-713.68"/>
<text text-anchor="middle" x="370.19" y="-718.3" font-family="Times,serif" font-size="14.00">578</text>
</g>
<!-- O_Sent (mail and online)&#45;&gt;W_Call after offers -->
<g id="edge48" class="edge">
<title>O_Sent (mail and online)&#45;&gt;W_Call after offers</title>
<path fill="none" stroke="#ff0000" stroke-width="0.51" stroke-dasharray="5,2" d="M251.17,-703.6C277.92,-659.19 348.89,-541.37 380.78,-488.42"/>
<polygon fill="#ff0000" stroke="#ff0000" stroke-width="0.51" points="383.7,-490.36 385.86,-479.99 377.7,-486.75 383.7,-490.36"/>
<text text-anchor="middle" x="333.19" y="-587.8" font-family="Times,serif" font-size="14.00">108</text>
</g>
<!-- O_Sent (mail and online)&#45;&gt;A_Cancelled -->
<g id="edge47" class="edge">
<title>O_Sent (mail and online)&#45;&gt;A_Cancelled</title>
<path fill="none" stroke="#ff0000" stroke-width="0.53" stroke-dasharray="5,2" d="M273.66,-703.59C298.4,-690.53 332.48,-672.54 359.26,-658.4"/>
<polygon fill="#ff0000" stroke="#ff0000" stroke-width="0.53" points="360.85,-661.52 368.06,-653.76 357.58,-655.33 360.85,-661.52"/>
<text text-anchor="middle" x="341.19" y="-674.8" font-family="Times,serif" font-size="14.00">221</text>
</g>
<!-- W_Call after offers&#45;&gt;O_Create Offer -->
<g id="edge46" class="edge">
<title>W_Call after offers&#45;&gt;O_Create Offer</title>
<path fill="none" stroke="#ff0000" stroke-width="0.54" stroke-dasharray="5,2" d="M311.57,-470.79C227.59,-481.9 111.69,-504.85 111.69,-547 111.69,-679.5 111.69,-679.5 111.69,-679.5 111.69,-762.93 189.81,-835.28 236.53,-871.09"/>
<polygon fill="#ff0000" stroke="#ff0000" stroke-width="0.54" points="234.39,-873.86 244.49,-877.06 238.59,-868.26 234.39,-873.86"/>
<text text-anchor="middle" x="123.19" y="-674.8" font-family="Times,serif" font-size="14.00">307</text>
</g>
<!-- W_Call after offers&#45;&gt;W_Call after offers -->
<g id="edge14" class="edge">
<title>W_Call after offers&#45;&gt;W_Call after offers</title>
<path fill="none" stroke="#000000" stroke-width="6" d="M481.94,-468.1C492.65,-466.85 499.69,-464.48 499.69,-461 499.69,-459.91 499,-458.93 497.73,-458.06"/>
<polygon fill="#000000" stroke="#000000" stroke-width="6" points="499.19,-453.02 488.18,-455.54 496.51,-463.17 499.19,-453.02"/>
<text text-anchor="middle" x="516.69" y="-457.3" font-family="Times,serif" font-size="14.00">39164</text>
</g>
<!-- A_Complete -->
<g id="node12" class="node">
<title>A_Complete</title>
<polygon fill="#eeeeff" stroke="black" points="283.19,-392 150.19,-392 150.19,-356 283.19,-356 283.19,-392"/>
<text text-anchor="middle" x="216.69" y="-370.3" font-family="Times,serif" font-size="14.00">A_Complete (11525)</text>
</g>
<!-- W_Call after offers&#45;&gt;A_Complete -->
<g id="edge15" class="edge">
<title>W_Call after offers&#45;&gt;A_Complete</title>
<path fill="none" stroke="#000000" stroke-width="2.12" d="M359.83,-442.59C332.53,-429.7 295.07,-412.01 265.31,-397.96"/>
<polygon fill="#000000" stroke="#000000" stroke-width="2.12" points="266.94,-394.86 256.4,-393.75 263.95,-401.19 266.94,-394.86"/>
<text text-anchor="middle" x="334.69" y="-413.8" font-family="Times,serif" font-size="14.00">11525</text>
</g>
<!-- W_Call after offers&#45;&gt;A_Cancelled -->
<g id="edge17" class="edge">
<title>W_Call after offers&#45;&gt;A_Cancelled</title>
<path fill="none" stroke="#000000" stroke-width="1.43" d="M397.2,-479.48C398.05,-508.88 399.79,-568.5 400.83,-604.48"/>
<polygon fill="#000000" stroke="#000000" stroke-width="1.43" points="397.33,-604.5 401.12,-614.4 404.33,-604.3 397.33,-604.5"/>
<text text-anchor="middle" x="412.69" y="-544.3" font-family="Times,serif" font-size="14.00">6634</text>
</g>
<!-- W_Validate application -->
<g id="node15" class="node">
<title>W_Validate application</title>
<polygon fill="#dcdcff" stroke="black" points="492.19,-392 301.19,-392 301.19,-356 492.19,-356 492.19,-392"/>
<text text-anchor="middle" x="396.69" y="-370.3" font-family="Times,serif" font-size="14.00">W_Validate application (23974)</text>
</g>
<!-- W_Call after offers&#45;&gt;W_Validate application -->
<g id="edge23" class="edge">
<title>W_Call after offers&#45;&gt;W_Validate application</title>
<path fill="none" stroke="#000000" stroke-width="1.15" d="M396.69,-442.8C396.69,-431.7 396.69,-416.97 396.69,-404.08"/>
<polygon fill="#000000" stroke="#000000" stroke-width="1.15" points="400.19,-404.21 396.69,-394.21 393.19,-404.21 400.19,-404.21"/>
<text text-anchor="middle" x="410.69" y="-413.8" font-family="Times,serif" font-size="14.00">4670</text>
</g>
<!-- W_Call after offers&#45;&gt;end_node -->
<g id="edge60" class="edge">
<title>W_Call after offers&#45;&gt;end_node</title>
<path fill="none" stroke="#000000" stroke-width="1.46" d="M457.87,-442.57C521.03,-421.15 617.02,-378.3 665.69,-305 717.09,-227.6 717.35,-112.4 713.8,-56.22"/>
<polygon fill="#000000" stroke="#000000" stroke-width="1.46" points="717.3,-56.14 713.08,-46.42 710.32,-56.65 717.3,-56.14"/>
<text text-anchor="middle" x="710.69" y="-239.8" font-family="Times,serif" font-size="14.00">6855</text>
</g>
<!-- A_Complete&#45;&gt;O_Create Offer -->
<g id="edge51" class="edge">
<title>A_Complete&#45;&gt;O_Create Offer</title>
<path fill="none" stroke="#ff0000" stroke-width="0.5" stroke-dasharray="5,2" d="M150.07,-387.09C111.18,-398.42 69.69,-419.91 69.69,-460 69.69,-810 69.69,-810 69.69,-810 69.69,-863.57 131,-883.89 185.9,-891.36"/>
<polygon fill="#ff0000" stroke="#ff0000" stroke-width="0.5" points="185.31,-894.81 195.66,-892.55 186.16,-887.86 185.31,-894.81"/>
<text text-anchor="middle" x="76.69" y="-631.3" font-family="Times,serif" font-size="14.00">22</text>
</g>
<!-- A_Complete&#45;&gt;W_Call after offers -->
<g id="edge16" class="edge">
<title>A_Complete&#45;&gt;W_Call after offers</title>
<path fill="none" stroke="#000000" stroke-width="2.11" d="M227.11,-392.26C234.59,-403.21 245.63,-416.81 258.69,-425 270.92,-432.67 284.75,-438.66 298.81,-443.34"/>
<polygon fill="#000000" stroke="#000000" stroke-width="2.11" points="297.55,-446.62 308.14,-446.19 299.6,-439.92 297.55,-446.62"/>
<text text-anchor="middle" x="275.69" y="-413.8" font-family="Times,serif" font-size="14.00">11503</text>
</g>
<!-- O_Cancelled -->
<g id="node14" class="node">
<title>O_Cancelled</title>
<polygon fill="#f3f3ff" stroke="black" points="760.19,-566 633.19,-566 633.19,-530 760.19,-530 760.19,-566"/>
<text text-anchor="middle" x="696.69" y="-544.3" font-family="Times,serif" font-size="14.00">O_Cancelled (7775)</text>
</g>
<!-- A_Cancelled&#45;&gt;O_Cancelled -->
<g id="edge18" class="edge">
<title>A_Cancelled&#45;&gt;O_Cancelled</title>
<path fill="none" stroke="#000000" stroke-width="1.46" d="M462.1,-616.59C509.15,-603.04 574.62,-584.17 624.45,-569.82"/>
<polygon fill="#000000" stroke="#000000" stroke-width="1.46" points="625.34,-573.2 633.98,-567.07 623.4,-566.47 625.34,-573.2"/>
<text text-anchor="middle" x="580.69" y="-587.8" font-family="Times,serif" font-size="14.00">6868</text>
</g>
<!-- O_Cancelled&#45;&gt;W_Complete application -->
<g id="edge59" class="edge">
<title>O_Cancelled&#45;&gt;W_Complete application</title>
<path fill="none" stroke="#ff0000" stroke-width="0.5" stroke-dasharray="5,2" d="M696.69,-566.26C696.69,-583.43 696.69,-610.54 696.69,-634 696.69,-1071 696.69,-1071 696.69,-1071 696.69,-1101.8 676,-1106.75 648.69,-1121 628.96,-1131.3 582.7,-1139.37 537.5,-1145.16"/>
<polygon fill="#ff0000" stroke="#ff0000" stroke-width="0.5" points="537.21,-1141.67 527.72,-1146.37 538.07,-1148.61 537.21,-1141.67"/>
<text text-anchor="middle" x="703.69" y="-848.8" font-family="Times,serif" font-size="14.00">13</text>
</g>
<!-- O_Cancelled&#45;&gt;W_Call after offers -->
<g id="edge19" class="edge">
<title>O_Cancelled&#45;&gt;W_Call after offers</title>
<path fill="none" stroke="#000000" stroke-width="1.46" d="M667.36,-529.57C658.14,-524.02 647.95,-517.81 638.69,-512 628.35,-505.51 627.08,-501.39 615.69,-497 577.36,-482.21 532.93,-473.67 494.15,-468.74"/>
<polygon fill="#000000" stroke="#000000" stroke-width="1.46" points="494.58,-465.27 484.24,-467.55 493.75,-472.22 494.58,-465.27"/>
<text text-anchor="middle" x="652.69" y="-500.8" font-family="Times,serif" font-size="14.00">6855</text>
</g>
<!-- O_Cancelled&#45;&gt;O_Cancelled -->
<g id="edge39" class="edge">
<title>O_Cancelled&#45;&gt;O_Cancelled</title>
<path fill="none" stroke="#ff0000" stroke-width="0.61" stroke-dasharray="5,2" d="M760.59,-555.55C771.02,-554.47 778.19,-551.95 778.19,-548 778.19,-545.59 775.53,-543.72 771.09,-542.38"/>
<polygon fill="#ff0000" stroke="#ff0000" stroke-width="0.61" points="771.96,-538.98 761.49,-540.62 770.7,-545.86 771.96,-538.98"/>
<text text-anchor="middle" x="788.69" y="-544.3" font-family="Times,serif" font-size="14.00">793</text>
</g>
<!-- O_Cancelled&#45;&gt;end_node -->
<g id="edge63" class="edge">
<title>O_Cancelled&#45;&gt;end_node</title>
<path fill="none" stroke="#ff0000" stroke-width="0.51" stroke-dasharray="5,2" d="M736.13,-529.62C761.48,-515.5 789.69,-492.84 789.69,-462 789.69,-462 789.69,-462 789.69,-112 789.69,-80.4 761.5,-54.8 738.8,-39.3"/>
<polygon fill="#ff0000" stroke="#ff0000" stroke-width="0.51" points="740.76,-36.4 730.47,-33.9 736.96,-42.28 740.76,-36.4"/>
<text text-anchor="middle" x="800.19" y="-283.3" font-family="Times,serif" font-size="14.00">114</text>
</g>
<!-- W_Validate application&#45;&gt;O_Cancelled -->
<g id="edge52" class="edge">
<title>W_Validate application&#45;&gt;O_Cancelled</title>
<path fill="none" stroke="#ff0000" stroke-width="0.51" stroke-dasharray="5,2" d="M462.66,-392.5C521.56,-410.77 607.43,-444.24 666.69,-497 673.97,-503.48 680.02,-512.16 684.73,-520.47"/>
<polygon fill="#ff0000" stroke="#ff0000" stroke-width="0.51" points="681.56,-521.96 689.29,-529.21 687.77,-518.73 681.56,-521.96"/>
<text text-anchor="middle" x="652.19" y="-457.3" font-family="Times,serif" font-size="14.00">100</text>
</g>
<!-- W_Validate application&#45;&gt;W_Validate application -->
<g id="edge24" class="edge">
<title>W_Validate application&#45;&gt;W_Validate application</title>
<path fill="none" stroke="#000000" stroke-width="1.84" d="M492.33,-380.91C503.17,-379.62 510.19,-377.31 510.19,-374 510.19,-372.24 508.21,-370.76 504.72,-369.57"/>
<polygon fill="#000000" stroke="#000000" stroke-width="1.84" points="505.55,-366.17 495.06,-367.64 504.18,-373.03 505.55,-366.17"/>
<text text-anchor="middle" x="524.19" y="-370.3" font-family="Times,serif" font-size="14.00">9568</text>
</g>
<!-- A_Validating -->
<g id="node16" class="node">
<title>A_Validating</title>
<polygon fill="#f7f7ff" stroke="black" points="374.69,-305 246.69,-305 246.69,-269 374.69,-269 374.69,-305"/>
<text text-anchor="middle" x="310.69" y="-283.3" font-family="Times,serif" font-size="14.00">A_Validating (5368)</text>
</g>
<!-- W_Validate application&#45;&gt;A_Validating -->
<g id="edge25" class="edge">
<title>W_Validate application&#45;&gt;A_Validating</title>
<path fill="none" stroke="#000000" stroke-width="1.25" d="M364.05,-355.62C356.2,-350.56 348.21,-344.6 341.69,-338 335.17,-331.41 329.38,-323.21 324.62,-315.36"/>
<polygon fill="#000000" stroke="#000000" stroke-width="1.25" points="327.7,-313.7 319.73,-306.73 321.61,-317.15 327.7,-313.7"/>
<text text-anchor="middle" x="355.69" y="-326.8" font-family="Times,serif" font-size="14.00">5368</text>
</g>
<!-- O_Accepted -->
<g id="node18" class="node">
<title>O_Accepted</title>
<polygon fill="#f9f9ff" stroke="black" points="516.69,-305 392.69,-305 392.69,-269 516.69,-269 516.69,-305"/>
<text text-anchor="middle" x="454.69" y="-283.3" font-family="Times,serif" font-size="14.00">O_Accepted (3976)</text>
</g>
<!-- W_Validate application&#45;&gt;O_Accepted -->
<g id="edge28" class="edge">
<title>W_Validate application&#45;&gt;O_Accepted</title>
<path fill="none" stroke="#000000" stroke-width="0.92" d="M408.43,-355.8C416.47,-344.01 427.3,-328.14 436.46,-314.72"/>
<polygon fill="#000000" stroke="#000000" stroke-width="0.92" points="439.24,-316.85 441.99,-306.61 433.46,-312.9 439.24,-316.85"/>
<text text-anchor="middle" x="442.69" y="-326.8" font-family="Times,serif" font-size="14.00">2976</text>
</g>
<!-- W_Call incomplete files -->
<g id="node20" class="node">
<title>W_Call incomplete files</title>
<polygon fill="#efefff" stroke="black" points="580.19,-131 383.19,-131 383.19,-95 580.19,-95 580.19,-131"/>
<text text-anchor="middle" x="481.69" y="-109.3" font-family="Times,serif" font-size="14.00">W_Call incomplete files (10552)</text>
</g>
<!-- W_Validate application&#45;&gt;W_Call incomplete files -->
<g id="edge31" class="edge">
<title>W_Validate application&#45;&gt;W_Call incomplete files</title>
<path fill="none" stroke="#ff0000" stroke-width="0.74" stroke-dasharray="5,2" d="M300.89,-357.14C297.79,-356.74 294.72,-356.36 291.69,-356 238.36,-349.7 99.33,-360.76 50.69,-338 5.31,-316.77 -4.92,-285.52 2.69,-236 6.51,-211.13 0.54,-198.32 19.69,-182 71.22,-138.07 252.19,-122.52 371.75,-117.01"/>
<polygon fill="#ff0000" stroke="#ff0000" stroke-width="0.74" points="371.82,-120.51 381.65,-116.58 371.51,-113.52 371.82,-120.51"/>
<text text-anchor="middle" x="16.69" y="-239.8" font-family="Times,serif" font-size="14.00">1698</text>
</g>
<!-- A_Denied -->
<g id="node22" class="node">
<title>A_Denied</title>
<polygon fill="#fefeff" stroke="black" points="164.19,-305 59.19,-305 59.19,-269 164.19,-269 164.19,-305"/>
<text text-anchor="middle" x="111.69" y="-283.3" font-family="Times,serif" font-size="14.00">A_Denied (694)</text>
</g>
<!-- W_Validate application&#45;&gt;A_Denied -->
<g id="edge41" class="edge">
<title>W_Validate application&#45;&gt;A_Denied</title>
<path fill="none" stroke="#ff0000" stroke-width="0.6" stroke-dasharray="5,2" d="M300.85,-357.41C297.76,-356.93 294.7,-356.46 291.69,-356 235.77,-347.48 216.76,-362.32 165.69,-338 153.38,-332.14 141.95,-322.47 132.8,-313.19"/>
<polygon fill="#ff0000" stroke="#ff0000" stroke-width="0.6" points="135.38,-310.83 126,-305.9 130.26,-315.6 135.38,-310.83"/>
<text text-anchor="middle" x="176.19" y="-326.8" font-family="Times,serif" font-size="14.00">694</text>
</g>
<!-- W_Validate application&#45;&gt;end_node -->
<g id="edge61" class="edge">
<title>W_Validate application&#45;&gt;end_node</title>
<path fill="none" stroke="#000000" d="M492.39,-359.61C565.82,-346.55 654.69,-323.43 654.69,-288 654.69,-288 654.69,-288 654.69,-112 654.69,-86.35 671.56,-62.05 686.78,-45.34"/>
<polygon fill="#000000" stroke="#000000" points="689.03,-48.05 693.44,-38.41 683.99,-43.19 689.03,-48.05"/>
<text text-anchor="middle" x="668.69" y="-196.3" font-family="Times,serif" font-size="14.00">3570</text>
</g>
<!-- A_Validating&#45;&gt;W_Validate application -->
<g id="edge45" class="edge">
<title>A_Validating&#45;&gt;W_Validate application</title>
<path fill="none" stroke="#ff0000" stroke-width="0.6" stroke-dasharray="5,2" d="M346.96,-305.33C355.06,-310.28 363.17,-316.21 369.69,-323 376.03,-329.6 381.33,-337.99 385.5,-346"/>
<polygon fill="#ff0000" stroke="#ff0000" stroke-width="0.6" points="382.31,-347.46 389.78,-354.97 388.63,-344.44 382.31,-347.46"/>
<text text-anchor="middle" x="391.19" y="-326.8" font-family="Times,serif" font-size="14.00">698</text>
</g>
<!-- O_Returned -->
<g id="node17" class="node">
<title>O_Returned</title>
<polygon fill="#f8f8ff" stroke="black" points="306.69,-218 184.69,-218 184.69,-182 306.69,-182 306.69,-218"/>
<text text-anchor="middle" x="245.69" y="-196.3" font-family="Times,serif" font-size="14.00">O_Returned (4670)</text>
</g>
<!-- A_Validating&#45;&gt;O_Returned -->
<g id="edge26" class="edge">
<title>A_Validating&#45;&gt;O_Returned</title>
<path fill="none" stroke="#000000" stroke-width="1.15" d="M297.54,-268.8C288.52,-257.01 276.38,-241.14 266.12,-227.72"/>
<polygon fill="#000000" stroke="#000000" stroke-width="1.15" points="268.96,-225.67 260.11,-219.85 263.4,-229.92 268.96,-225.67"/>
<text text-anchor="middle" x="296.69" y="-239.8" font-family="Times,serif" font-size="14.00">4670</text>
</g>
<!-- O_Returned&#45;&gt;W_Validate application -->
<g id="edge27" class="edge">
<title>O_Returned&#45;&gt;W_Validate application</title>
<path fill="none" stroke="#000000" stroke-width="1.15" d="M230.81,-218.17C213.83,-239.95 190.73,-277.93 209.69,-305 222.32,-323.03 268.69,-339.95 312.1,-352.41"/>
<polygon fill="#000000" stroke="#000000" stroke-width="1.15" points="311.09,-355.76 321.66,-355.09 312.98,-349.02 311.09,-355.76"/>
<text text-anchor="middle" x="223.69" y="-283.3" font-family="Times,serif" font-size="14.00">4670</text>
</g>
<!-- A_Pending -->
<g id="node19" class="node">
<title>A_Pending</title>
<polygon fill="#f9f9ff" stroke="black" points="580.19,-218 463.19,-218 463.19,-182 580.19,-182 580.19,-218"/>
<text text-anchor="middle" x="521.69" y="-196.3" font-family="Times,serif" font-size="14.00">A_Pending (3976)</text>
</g>
<!-- O_Accepted&#45;&gt;A_Pending -->
<g id="edge29" class="edge">
<title>O_Accepted&#45;&gt;A_Pending</title>
<path fill="none" stroke="#000000" stroke-width="1.06" d="M468.25,-268.8C477.63,-256.9 490.3,-240.83 500.94,-227.32"/>
<polygon fill="#000000" stroke="#000000" stroke-width="1.06" points="503.49,-229.74 506.93,-219.72 497.99,-225.41 503.49,-229.74"/>
<text text-anchor="middle" x="505.69" y="-239.8" font-family="Times,serif" font-size="14.00">3976</text>
</g>
<!-- A_Pending&#45;&gt;W_Validate application -->
<g id="edge30" class="edge">
<title>A_Pending&#45;&gt;W_Validate application</title>
<path fill="none" stroke="#000000" stroke-width="0.92" d="M527.77,-218.27C534.33,-240.15 541.84,-278.23 525.69,-305 513.1,-325.87 491.74,-340.65 469.99,-350.99"/>
<polygon fill="#000000" stroke="#000000" stroke-width="0.92" points="468.65,-347.75 460.92,-355 471.48,-354.15 468.65,-347.75"/>
<text text-anchor="middle" x="548.69" y="-283.3" font-family="Times,serif" font-size="14.00">2976</text>
</g>
<!-- A_Pending&#45;&gt;W_Call incomplete files -->
<g id="edge36" class="edge">
<title>A_Pending&#45;&gt;W_Call incomplete files</title>
<path fill="none" stroke="#ff0000" stroke-width="0.64" stroke-dasharray="5,2" d="M513.6,-181.8C508.1,-170.12 500.72,-154.45 494.45,-141.11"/>
<polygon fill="#ff0000" stroke="#ff0000" stroke-width="0.64" points="497.75,-139.9 490.32,-132.34 491.41,-142.88 497.75,-139.9"/>
<text text-anchor="middle" x="517.69" y="-152.8" font-family="Times,serif" font-size="14.00">1000</text>
</g>
<!-- W_Call incomplete files&#45;&gt;O_Cancelled -->
<g id="edge57" class="edge">
<title>W_Call incomplete files&#45;&gt;O_Cancelled</title>
<path fill="none" stroke="#ff0000" stroke-width="0.5" stroke-dasharray="5,2" d="M566.47,-131.44C605.25,-142.02 650.52,-158.19 686.69,-182 713.51,-199.66 721.85,-206.57 734.69,-236 751.38,-274.27 743.69,-287.75 743.69,-329.5 743.69,-462 743.69,-462 743.69,-462 743.69,-483.91 731.58,-505.48 719.66,-521.4"/>
<polygon fill="#ff0000" stroke="#ff0000" stroke-width="0.5" points="717.07,-519.04 713.6,-529.05 722.55,-523.38 717.07,-519.04"/>
<text text-anchor="middle" x="750.69" y="-326.8" font-family="Times,serif" font-size="14.00">14</text>
</g>
<!-- W_Call incomplete files&#45;&gt;W_Validate application -->
<g id="edge44" class="edge">
<title>W_Call incomplete files&#45;&gt;W_Validate application</title>
<path fill="none" stroke="#ff0000" stroke-width="0.6" stroke-dasharray="5,2" d="M529.87,-131.48C552.31,-142.33 576.84,-158.72 589.69,-182 616.57,-230.69 599.34,-259.98 566.69,-305 550.79,-326.92 526.65,-341.78 501.51,-351.86"/>
<polygon fill="#ff0000" stroke="#ff0000" stroke-width="0.6" points="500.44,-348.52 492.31,-355.3 502.9,-355.07 500.44,-348.52"/>
<text text-anchor="middle" x="612.19" y="-239.8" font-family="Times,serif" font-size="14.00">698</text>
</g>
<!-- W_Call incomplete files&#45;&gt;O_Accepted -->
<g id="edge35" class="edge">
<title>W_Call incomplete files&#45;&gt;O_Accepted</title>
<path fill="none" stroke="#ff0000" stroke-width="0.64" stroke-dasharray="5,2" d="M461.86,-131.43C449.12,-144.03 433.68,-162.25 426.69,-182 417.58,-207.75 427.99,-237.98 438.6,-259.19"/>
<polygon fill="#ff0000" stroke="#ff0000" stroke-width="0.64" points="435.49,-260.8 443.29,-267.97 441.66,-257.5 435.49,-260.8"/>
<text text-anchor="middle" x="440.69" y="-196.3" font-family="Times,serif" font-size="14.00">1000</text>
</g>
<!-- W_Call incomplete files&#45;&gt;W_Call incomplete files -->
<g id="edge32" class="edge">
<title>W_Call incomplete files&#45;&gt;W_Call incomplete files</title>
<path fill="none" stroke="#000000" stroke-width="1.36" d="M580.28,-119.86C591.16,-118.56 598.19,-116.27 598.19,-113 598.19,-111.16 595.97,-109.63 592.08,-108.41"/>
<polygon fill="#000000" stroke="#000000" stroke-width="1.36" points="592.79,-104.99 582.31,-106.53 591.46,-111.86 592.79,-104.99"/>
<text text-anchor="middle" x="612.19" y="-109.3" font-family="Times,serif" font-size="14.00">6156</text>
</g>
<!-- A_Incomplete -->
<g id="node21" class="node">
<title>A_Incomplete</title>
<polygon fill="#fcfcff" stroke="black" points="548.69,-40 414.69,-40 414.69,-4 548.69,-4 548.69,-40"/>
<text text-anchor="middle" x="481.69" y="-18.3" font-family="Times,serif" font-size="14.00">A_Incomplete (1698)</text>
</g>
<!-- W_Call incomplete files&#45;&gt;A_Incomplete -->
<g id="edge33" class="edge">
<title>W_Call incomplete files&#45;&gt;A_Incomplete</title>
<path fill="none" stroke="#ff0000" stroke-width="0.74" stroke-dasharray="5,2" d="M466.73,-94.57C463.05,-89.26 459.61,-83.19 457.69,-77 454.85,-67.84 457.28,-58.18 461.52,-49.59"/>
<polygon fill="#ff0000" stroke="#ff0000" stroke-width="0.74" points="464.48,-51.46 466.54,-41.07 458.44,-47.91 464.48,-51.46"/>
<text text-anchor="middle" x="471.69" y="-65.8" font-family="Times,serif" font-size="14.00">1698</text>
</g>
<!-- W_Call incomplete files&#45;&gt;end_node -->
<g id="edge62" class="edge">
<title>W_Call incomplete files&#45;&gt;end_node</title>
<path fill="none" stroke="#ff0000" stroke-width="0.64" stroke-dasharray="5,2" d="M526.66,-94.52C572,-76.9 640.75,-50.18 680.12,-34.88"/>
<polygon fill="#ff0000" stroke="#ff0000" stroke-width="0.64" points="681.22,-38.21 689.27,-31.32 678.68,-31.68 681.22,-38.21"/>
<text text-anchor="middle" x="620.19" y="-65.8" font-family="Times,serif" font-size="14.00">986</text>
</g>
<!-- A_Incomplete&#45;&gt;W_Call incomplete files -->
<g id="edge34" class="edge">
<title>A_Incomplete&#45;&gt;W_Call incomplete files</title>
<path fill="none" stroke="#ff0000" stroke-width="0.74" stroke-dasharray="5,2" d="M484.09,-40.01C485.31,-50.64 486.4,-64.61 485.69,-77 485.57,-79.15 485.4,-81.38 485.21,-83.61"/>
<polygon fill="#ff0000" stroke="#ff0000" stroke-width="0.74" points="481.74,-83.17 484.19,-93.48 488.7,-83.89 481.74,-83.17"/>
<text text-anchor="middle" x="499.69" y="-65.8" font-family="Times,serif" font-size="14.00">1698</text>
</g>
<!-- O_Refused -->
<g id="node23" class="node">
<title>O_Refused</title>
<polygon fill="#fefeff" stroke="black" points="138.69,-218 28.69,-218 28.69,-182 138.69,-182 138.69,-218"/>
<text text-anchor="middle" x="83.69" y="-196.3" font-family="Times,serif" font-size="14.00">O_Refused (694)</text>
</g>
<!-- A_Denied&#45;&gt;O_Refused -->
<g id="edge42" class="edge">
<title>A_Denied&#45;&gt;O_Refused</title>
<path fill="none" stroke="#ff0000" stroke-width="0.6" stroke-dasharray="5,2" d="M106.02,-268.8C102.22,-257.24 97.11,-241.75 92.75,-228.5"/>
<polygon fill="#ff0000" stroke="#ff0000" stroke-width="0.6" points="96.18,-227.73 89.73,-219.32 89.53,-229.92 96.18,-227.73"/>
<text text-anchor="middle" x="110.19" y="-239.8" font-family="Times,serif" font-size="14.00">694</text>
</g>
<!-- O_Refused&#45;&gt;W_Validate application -->
<g id="edge43" class="edge">
<title>O_Refused&#45;&gt;W_Validate application</title>
<path fill="none" stroke="#ff0000" stroke-width="0.6" stroke-dasharray="5,2" d="M63.02,-218.16C39.71,-239.59 7.65,-276.87 28.69,-305 62.6,-350.35 216.61,-348.08 290.2,-356.01"/>
<polygon fill="#ff0000" stroke="#ff0000" stroke-width="0.6" points="289.62,-359.46 299.97,-357.21 290.47,-352.51 289.62,-359.46"/>
<text text-anchor="middle" x="39.19" y="-283.3" font-family="Times,serif" font-size="14.00">694</text>
</g>
<!-- O_Sent (online only)&#45;&gt;W_Complete application -->
<g id="edge54" class="edge">
<title>O_Sent (online only)&#45;&gt;W_Complete application</title>
<path fill="none" stroke="#ff0000" stroke-width="0.5" stroke-dasharray="5,2" d="M540.89,-740.18C552.21,-756.65 566.69,-782.67 566.69,-808 566.69,-1071 566.69,-1071 566.69,-1071 566.69,-1101.78 541.65,-1121.73 512.75,-1134.5"/>
<polygon fill="#ff0000" stroke="#ff0000" stroke-width="0.5" points="511.46,-1131.25 503.54,-1138.28 514.12,-1137.73 511.46,-1131.25"/>
<text text-anchor="middle" x="573.69" y="-935.8" font-family="Times,serif" font-size="14.00">16</text>
</g>
</g>
</svg>
