<svg class="main-svg" xmlns="http://www.w3.org/2000/svg" xmlns:xlink="http://www.w3.org/1999/xlink" width="700" height="500" style="" viewBox="0 0 700 500"><rect x="0" y="0" width="700" height="500" style="fill: rgb(255, 255, 255); fill-opacity: 1;"/><defs id="defs-0609e1"><g class="clips"><clipPath id="clip0609e1xyplot" class="plotclip"><rect width="540" height="304"/></clipPath><clipPath class="axesclip" id="clip0609e1x"><rect x="80" y="0" width="540" height="500"/></clipPath><clipPath class="axesclip" id="clip0609e1y"><rect x="0" y="60" width="700" height="304"/></clipPath><clipPath class="axesclip" id="clip0609e1xy"><rect x="80" y="60" width="540" height="304"/></clipPath></g><g class="gradients"/><g class="patterns"/></defs><g class="bglayer"><rect class="bg" x="80" y="60" width="540" height="304" style="fill: rgb(229, 236, 246); fill-opacity: 1; stroke-width: 0;"/></g><g class="layer-below"><g class="imagelayer"/><g class="shapelayer"/></g><g class="cartesianlayer"><g class="subplot xy"><g class="layer-subplot"><g class="shapelayer"/><g class="imagelayer"/></g><g class="minor-gridlayer"><g class="x"/><g class="y"/></g><g class="gridlayer"><g class="x"/><g class="y"><path class="ygrid crisp" transform="translate(0,303.65999999999997)" d="M80,0h540" style="stroke: rgb(255, 255, 255); stroke-opacity: 1; stroke-width: 1px;"/><path class="ygrid crisp" transform="translate(0,258.52)" d="M80,0h540" style="stroke: rgb(255, 255, 255); stroke-opacity: 1; stroke-width: 1px;"/><path class="ygrid crisp" transform="translate(0,213.38)" d="M80,0h540" style="stroke: rgb(255, 255, 255); stroke-opacity: 1; stroke-width: 1px;"/><path class="ygrid crisp" transform="translate(0,168.24)" d="M80,0h540" style="stroke: rgb(255, 255, 255); stroke-opacity: 1; stroke-width: 1px;"/><path class="ygrid crisp" transform="translate(0,123.11)" d="M80,0h540" style="stroke: rgb(255, 255, 255); stroke-opacity: 1; stroke-width: 1px;"/><path class="ygrid crisp" transform="translate(0,77.97)" d="M80,0h540" style="stroke: rgb(255, 255, 255); stroke-opacity: 1; stroke-width: 1px;"/></g></g><g class="zerolinelayer"><path class="yzl zl crisp" transform="translate(0,348.8)" d="M80,0h540" style="stroke: rgb(255, 255, 255); stroke-opacity: 1; stroke-width: 2px;"/></g><path class="xlines-below"/><path class="ylines-below"/><g class="overlines-below"/><g class="xaxislayer-below"/><g class="yaxislayer-below"/><g class="overaxes-below"/><g class="plot" transform="translate(80,60)" clip-path="url(#clip0609e1xyplot)"><g class="boxlayer mlayer"><g class="trace boxes" style="opacity: 1;"><path class="box" d="M6.26,277.72H18.29M6.26,280.68H18.29V273.92H6.26ZM12.27,280.68V288.8M12.27,273.92V269.42M9.27,288.8H15.28M9.27,269.42H15.28" style="vector-effect: non-scaling-stroke; stroke-width: 2px; stroke: rgb(99, 110, 250); stroke-opacity: 1; fill: rgb(99, 110, 250); fill-opacity: 0.5;"/><path class="box" d="M30.8,273.92H42.83M30.8,280.49H42.83V268.34H30.8ZM36.82,280.49V288.8M36.82,268.34V262.99M33.81,288.8H39.83M33.81,262.99H39.83" style="vector-effect: non-scaling-stroke; stroke-width: 2px; stroke: rgb(99, 110, 250); stroke-opacity: 1; fill: rgb(99, 110, 250); fill-opacity: 0.5;"/><path class="box" d="M55.35,276.16H67.38M55.35,281.79H67.38V274.09H55.35ZM61.36,281.79V288.8M61.36,274.09V270.13M58.36,288.8H64.37M58.36,270.13H64.37" style="vector-effect: non-scaling-stroke; stroke-width: 2px; stroke: rgb(99, 110, 250); stroke-opacity: 1; fill: rgb(99, 110, 250); fill-opacity: 0.5;"/><path class="box" d="M79.9,276.16H91.92M79.9,280.68H91.92V273.09H79.9ZM85.91,280.68V288.8M85.91,273.09V270.6M82.9,288.8H88.92M82.9,270.6H88.92" style="vector-effect: non-scaling-stroke; stroke-width: 2px; stroke: rgb(99, 110, 250); stroke-opacity: 1; fill: rgb(99, 110, 250); fill-opacity: 0.5;"/><path class="box" d="M104.44,270.6H116.47M104.44,281.79H116.47V267.82H104.44ZM110.45,281.79V288.8M110.45,267.82V262.99M107.45,288.8H113.46M107.45,262.99H113.46" style="vector-effect: non-scaling-stroke; stroke-width: 2px; stroke: rgb(99, 110, 250); stroke-opacity: 1; fill: rgb(99, 110, 250); fill-opacity: 0.5;"/><path class="box" d="M128.99,132.16H141.01M128.99,228.38H141.01V80.17H128.99ZM135,228.38V288.8M135,80.17V77.97M131.99,288.8H138.01M131.99,77.97H138.01" style="vector-effect: non-scaling-stroke; stroke-width: 2px; stroke: rgb(99, 110, 250); stroke-opacity: 1; fill: rgb(99, 110, 250); fill-opacity: 0.5;"/><path class="box" d="M153.53,176.73H165.56M153.53,260.71H165.56V19.4H153.53ZM159.55,260.71V288.8M159.55,19.4V15.2M156.54,288.8H162.55M156.54,15.2H162.55" style="vector-effect: non-scaling-stroke; stroke-width: 2px; stroke: rgb(99, 110, 250); stroke-opacity: 1; fill: rgb(99, 110, 250); fill-opacity: 0.5;"/><path class="box" d="M178.08,167.87H190.1M178.08,240.35H190.1V49.2H178.08ZM184.09,240.35V288.8M184.09,49.2V44.87M181.08,288.8H187.1M181.08,44.87H187.1" style="vector-effect: non-scaling-stroke; stroke-width: 2px; stroke: rgb(99, 110, 250); stroke-opacity: 1; fill: rgb(99, 110, 250); fill-opacity: 0.5;"/><path class="box" d="M202.62,76.09H214.65M202.62,269.82H214.65V26.56H202.62ZM208.64,269.82V288.8M208.64,26.56V15.54M205.63,288.8H211.64M205.63,15.54H211.64" style="vector-effect: non-scaling-stroke; stroke-width: 2px; stroke: rgb(99, 110, 250); stroke-opacity: 1; fill: rgb(99, 110, 250); fill-opacity: 0.5;"/><path class="box" d="M227.17,175.7H239.2M227.17,225.77H239.2V79.41H227.17ZM233.18,225.77V288.8M233.18,79.41V75.95M230.18,288.8H236.19M230.18,75.95H236.19" style="vector-effect: non-scaling-stroke; stroke-width: 2px; stroke: rgb(99, 110, 250); stroke-opacity: 1; fill: rgb(99, 110, 250); fill-opacity: 0.5;"/><path class="box" d="M251.71,169.09H263.74M251.71,262.13H263.74V22.69H251.71ZM257.73,262.13V288.8M257.73,22.69V18.11M254.72,288.8H260.73M254.72,18.11H260.73" style="vector-effect: non-scaling-stroke; stroke-width: 2px; stroke: rgb(99, 110, 250); stroke-opacity: 1; fill: rgb(99, 110, 250); fill-opacity: 0.5;"/><path class="box" d="M276.26,76.83H288.29M276.26,271.7H288.29V27.72H276.26ZM282.27,271.7V288.8M282.27,27.72V16.79M279.27,288.8H285.28M279.27,16.79H285.28" style="vector-effect: non-scaling-stroke; stroke-width: 2px; stroke: rgb(99, 110, 250); stroke-opacity: 1; fill: rgb(99, 110, 250); fill-opacity: 0.5;"/><path class="box" d="M300.8,76.03H312.83M300.8,267.49H312.83V26.27H300.8ZM306.82,267.49V288.8M306.82,26.27V15.2M303.81,288.8H309.83M303.81,15.2H309.83" style="vector-effect: non-scaling-stroke; stroke-width: 2px; stroke: rgb(99, 110, 250); stroke-opacity: 1; fill: rgb(99, 110, 250); fill-opacity: 0.5;"/><path class="box" d="M325.35,147.41H337.38M325.35,251.62H337.38V84.11H325.35ZM331.36,251.62V288.8M331.36,84.11V81.1M328.36,288.8H334.37M328.36,81.1H334.37" style="vector-effect: non-scaling-stroke; stroke-width: 2px; stroke: rgb(99, 110, 250); stroke-opacity: 1; fill: rgb(99, 110, 250); fill-opacity: 0.5;"/><path class="box" d="M349.9,174.75H361.92M349.9,261.38H361.92V32.28H349.9ZM355.91,261.38V288.8M355.91,32.28V28.13M352.9,288.8H358.92M352.9,28.13H358.92" style="vector-effect: non-scaling-stroke; stroke-width: 2px; stroke: rgb(99, 110, 250); stroke-opacity: 1; fill: rgb(99, 110, 250); fill-opacity: 0.5;"/><path class="box" d="M374.44,171.41H386.47M374.44,228.76H386.47V72.38H374.44ZM380.45,228.76V288.8M380.45,72.38V69.23M377.45,288.8H383.46M377.45,69.23H383.46" style="vector-effect: non-scaling-stroke; stroke-width: 2px; stroke: rgb(99, 110, 250); stroke-opacity: 1; fill: rgb(99, 110, 250); fill-opacity: 0.5;"/><path class="box" d="M398.99,171.41H411.01M398.99,258.12H411.01V24.97H398.99ZM405,258.12V288.8M405,24.97V20.68M401.99,288.8H408.01M401.99,20.68H408.01" style="vector-effect: non-scaling-stroke; stroke-width: 2px; stroke: rgb(99, 110, 250); stroke-opacity: 1; fill: rgb(99, 110, 250); fill-opacity: 0.5;"/><path class="box" d="M423.53,80.27H435.56M423.53,266.22H435.56V31.36H423.53ZM429.55,266.22V288.8M429.55,31.36V20.26M426.54,288.8H432.55M426.54,20.26H432.55" style="vector-effect: non-scaling-stroke; stroke-width: 2px; stroke: rgb(99, 110, 250); stroke-opacity: 1; fill: rgb(99, 110, 250); fill-opacity: 0.5;"/><path class="box" d="M448.08,177.78H460.1M448.08,257.77H460.1V23.33H448.08ZM454.09,257.77V288.8M454.09,23.33V19.37M451.08,288.8H457.1M451.08,19.37H457.1" style="vector-effect: non-scaling-stroke; stroke-width: 2px; stroke: rgb(99, 110, 250); stroke-opacity: 1; fill: rgb(99, 110, 250); fill-opacity: 0.5;"/><path class="box" d="M472.62,75.95H484.65M472.62,268.27H484.65V26.42H472.62ZM478.64,268.27V288.8M478.64,26.42V15.24M475.63,288.8H481.64M475.63,15.24H481.64" style="vector-effect: non-scaling-stroke; stroke-width: 2px; stroke: rgb(99, 110, 250); stroke-opacity: 1; fill: rgb(99, 110, 250); fill-opacity: 0.5;"/><path class="box" d="M497.17,167.18H509.2M497.17,230.47H509.2V54.92H497.17ZM503.18,230.47V288.8M503.18,54.92V50.74M500.18,288.8H506.19M500.18,50.74H506.19" style="vector-effect: non-scaling-stroke; stroke-width: 2px; stroke: rgb(99, 110, 250); stroke-opacity: 1; fill: rgb(99, 110, 250); fill-opacity: 0.5;"/><path class="box" d="M521.71,129.82H533.74M521.71,225.9H533.74V86.66H521.71ZM527.73,225.9V288.8M527.73,86.66V84.86M524.72,288.8H530.73M524.72,84.86H530.73" style="vector-effect: non-scaling-stroke; stroke-width: 2px; stroke: rgb(99, 110, 250); stroke-opacity: 1; fill: rgb(99, 110, 250); fill-opacity: 0.5;"/><g class="points"/><g class="points"/><g class="points"/><g class="points"/><g class="points"/><g class="points"/><g class="points"/><g class="points"/><g class="points"/><g class="points"/><g class="points"/><g class="points"/><g class="points"/><g class="points"/><g class="points"/><g class="points"/><g class="points"/><g class="points"/><g class="points"/><g class="points"/><g class="points"/><g class="points"/></g></g></g><g class="overplot"/><path class="xlines-above crisp" d="M0,0" style="fill: none;"/><path class="ylines-above crisp" d="M0,0" style="fill: none;"/><g class="overlines-above"/><g class="xaxislayer-above"><g class="xtick"><text text-anchor="start" x="0" y="377" transform="translate(92.27,0) rotate(90,0,371)" style="font-family: 'Open Sans', verdana, arial, sans-serif; font-size: 12px; fill: rgb(42, 63, 95); fill-opacity: 1; white-space: pre; opacity: 1;">cluster0</text></g><g class="xtick"><text text-anchor="start" x="0" y="377" transform="translate(116.82,0) rotate(90,0,371)" style="font-family: 'Open Sans', verdana, arial, sans-serif; font-size: 12px; fill: rgb(42, 63, 95); fill-opacity: 1; white-space: pre; opacity: 1;">cluster1</text></g><g class="xtick"><text text-anchor="start" x="0" y="377" transform="translate(141.36,0) rotate(90,0,371)" style="font-family: 'Open Sans', verdana, arial, sans-serif; font-size: 12px; fill: rgb(42, 63, 95); fill-opacity: 1; white-space: pre; opacity: 1;">cluster2</text></g><g class="xtick"><text text-anchor="start" x="0" y="377" transform="translate(165.91,0) rotate(90,0,371)" style="font-family: 'Open Sans', verdana, arial, sans-serif; font-size: 12px; fill: rgb(42, 63, 95); fill-opacity: 1; white-space: pre; opacity: 1;">cluster3</text></g><g class="xtick"><text text-anchor="start" x="0" y="377" transform="translate(190.45,0) rotate(90,0,371)" style="font-family: 'Open Sans', verdana, arial, sans-serif; font-size: 12px; fill: rgb(42, 63, 95); fill-opacity: 1; white-space: pre; opacity: 1;">cluster4</text></g><g class="xtick"><text text-anchor="start" x="0" y="377" transform="translate(215,0) rotate(90,0,371)" style="font-family: 'Open Sans', verdana, arial, sans-serif; font-size: 12px; fill: rgb(42, 63, 95); fill-opacity: 1; white-space: pre; opacity: 1;">cluster0-medoid0</text></g><g class="xtick"><text text-anchor="start" x="0" y="377" transform="translate(239.55,0) rotate(90,0,371)" style="font-family: 'Open Sans', verdana, arial, sans-serif; font-size: 12px; fill: rgb(42, 63, 95); fill-opacity: 1; white-space: pre; opacity: 1;">cluster0-medoid1</text></g><g class="xtick"><text text-anchor="start" x="0" y="377" transform="translate(264.09000000000003,0) rotate(90,0,371)" style="font-family: 'Open Sans', verdana, arial, sans-serif; font-size: 12px; fill: rgb(42, 63, 95); fill-opacity: 1; white-space: pre; opacity: 1;">cluster0-medoid2</text></g><g class="xtick"><text text-anchor="start" x="0" y="377" transform="translate(288.64,0) rotate(90,0,371)" style="font-family: 'Open Sans', verdana, arial, sans-serif; font-size: 12px; fill: rgb(42, 63, 95); fill-opacity: 1; white-space: pre; opacity: 1;">cluster0-medoid3</text></g><g class="xtick"><text text-anchor="start" x="0" y="377" transform="translate(313.18,0) rotate(90,0,371)" style="font-family: 'Open Sans', verdana, arial, sans-serif; font-size: 12px; fill: rgb(42, 63, 95); fill-opacity: 1; white-space: pre; opacity: 1;">cluster1-medoid0</text></g><g class="xtick"><text text-anchor="start" x="0" y="377" transform="translate(337.73,0) rotate(90,0,371)" style="font-family: 'Open Sans', verdana, arial, sans-serif; font-size: 12px; fill: rgb(42, 63, 95); fill-opacity: 1; white-space: pre; opacity: 1;">cluster1-medoid1</text></g><g class="xtick"><text text-anchor="start" x="0" y="377" transform="translate(362.27,0) rotate(90,0,371)" style="font-family: 'Open Sans', verdana, arial, sans-serif; font-size: 12px; fill: rgb(42, 63, 95); fill-opacity: 1; white-space: pre; opacity: 1;">cluster1-medoid2</text></g><g class="xtick"><text text-anchor="start" x="0" y="377" transform="translate(386.82,0) rotate(90,0,371)" style="font-family: 'Open Sans', verdana, arial, sans-serif; font-size: 12px; fill: rgb(42, 63, 95); fill-opacity: 1; white-space: pre; opacity: 1;">cluster2-medoid0</text></g><g class="xtick"><text text-anchor="start" x="0" y="377" transform="translate(411.36,0) rotate(90,0,371)" style="font-family: 'Open Sans', verdana, arial, sans-serif; font-size: 12px; fill: rgb(42, 63, 95); fill-opacity: 1; white-space: pre; opacity: 1;">cluster2-medoid1</text></g><g class="xtick"><text text-anchor="start" x="0" y="377" transform="translate(435.91,0) rotate(90,0,371)" style="font-family: 'Open Sans', verdana, arial, sans-serif; font-size: 12px; fill: rgb(42, 63, 95); fill-opacity: 1; white-space: pre; opacity: 1;">cluster2-medoid2</text></g><g class="xtick"><text text-anchor="start" x="0" y="377" transform="translate(460.45,0) rotate(90,0,371)" style="font-family: 'Open Sans', verdana, arial, sans-serif; font-size: 12px; fill: rgb(42, 63, 95); fill-opacity: 1; white-space: pre; opacity: 1;">cluster3-medoid0</text></g><g class="xtick"><text text-anchor="start" x="0" y="377" transform="translate(485,0) rotate(90,0,371)" style="font-family: 'Open Sans', verdana, arial, sans-serif; font-size: 12px; fill: rgb(42, 63, 95); fill-opacity: 1; white-space: pre; opacity: 1;">cluster3-medoid1</text></g><g class="xtick"><text text-anchor="start" x="0" y="377" transform="translate(509.55,0) rotate(90,0,371)" style="font-family: 'Open Sans', verdana, arial, sans-serif; font-size: 12px; fill: rgb(42, 63, 95); fill-opacity: 1; white-space: pre; opacity: 1;">cluster3-medoid2</text></g><g class="xtick"><text text-anchor="start" x="0" y="377" transform="translate(534.0899999999999,0) rotate(90,0,371)" style="font-family: 'Open Sans', verdana, arial, sans-serif; font-size: 12px; fill: rgb(42, 63, 95); fill-opacity: 1; white-space: pre; opacity: 1;">cluster4-medoid0</text></g><g class="xtick"><text text-anchor="start" x="0" y="377" transform="translate(558.64,0) rotate(90,0,371)" style="font-family: 'Open Sans', verdana, arial, sans-serif; font-size: 12px; fill: rgb(42, 63, 95); fill-opacity: 1; white-space: pre; opacity: 1;">cluster4-medoid1</text></g><g class="xtick"><text text-anchor="start" x="0" y="377" transform="translate(583.1800000000001,0) rotate(90,0,371)" style="font-family: 'Open Sans', verdana, arial, sans-serif; font-size: 12px; fill: rgb(42, 63, 95); fill-opacity: 1; white-space: pre; opacity: 1;">cluster4-medoid2</text></g><g class="xtick"><text text-anchor="start" x="0" y="377" transform="translate(607.73,0) rotate(90,0,371)" style="font-family: 'Open Sans', verdana, arial, sans-serif; font-size: 12px; fill: rgb(42, 63, 95); fill-opacity: 1; white-space: pre; opacity: 1;">cluster4-medoid3</text></g></g><g class="yaxislayer-above"><g class="ytick"><text text-anchor="end" x="79" y="4.199999999999999" transform="translate(0,348.8)" style="font-family: 'Open Sans', verdana, arial, sans-serif; font-size: 12px; fill: rgb(42, 63, 95); fill-opacity: 1; white-space: pre; opacity: 1;">0</text></g><g class="ytick"><text text-anchor="end" x="79" y="4.199999999999999" style="font-family: 'Open Sans', verdana, arial, sans-serif; font-size: 12px; fill: rgb(42, 63, 95); fill-opacity: 1; white-space: pre; opacity: 1;" transform="translate(0,303.65999999999997)">0.1</text></g><g class="ytick"><text text-anchor="end" x="79" y="4.199999999999999" style="font-family: 'Open Sans', verdana, arial, sans-serif; font-size: 12px; fill: rgb(42, 63, 95); fill-opacity: 1; white-space: pre; opacity: 1;" transform="translate(0,258.52)">0.2</text></g><g class="ytick"><text text-anchor="end" x="79" y="4.199999999999999" style="font-family: 'Open Sans', verdana, arial, sans-serif; font-size: 12px; fill: rgb(42, 63, 95); fill-opacity: 1; white-space: pre; opacity: 1;" transform="translate(0,213.38)">0.3</text></g><g class="ytick"><text text-anchor="end" x="79" y="4.199999999999999" style="font-family: 'Open Sans', verdana, arial, sans-serif; font-size: 12px; fill: rgb(42, 63, 95); fill-opacity: 1; white-space: pre; opacity: 1;" transform="translate(0,168.24)">0.4</text></g><g class="ytick"><text text-anchor="end" x="79" y="4.199999999999999" style="font-family: 'Open Sans', verdana, arial, sans-serif; font-size: 12px; fill: rgb(42, 63, 95); fill-opacity: 1; white-space: pre; opacity: 1;" transform="translate(0,123.11)">0.5</text></g><g class="ytick"><text text-anchor="end" x="79" y="4.199999999999999" style="font-family: 'Open Sans', verdana, arial, sans-serif; font-size: 12px; fill: rgb(42, 63, 95); fill-opacity: 1; white-space: pre; opacity: 1;" transform="translate(0,77.97)">0.6</text></g></g><g class="overaxes-above"/></g></g><g class="polarlayer"/><g class="smithlayer"/><g class="ternarylayer"/><g class="geolayer"/><g class="funnelarealayer"/><g class="pielayer"/><g class="iciclelayer"/><g class="treemaplayer"/><g class="sunburstlayer"/><g class="glimages"/><defs id="topdefs-0609e1"><g class="clips"/></defs><g class="layer-above"><g class="imagelayer"/><g class="shapelayer"/></g><g class="infolayer"><g class="g-gtitle"/><g class="g-xtitle"><text class="xtitle" x="350" y="488.175" text-anchor="middle" style="font-family: 'Open Sans', verdana, arial, sans-serif; font-size: 14px; fill: rgb(42, 63, 95); opacity: 1; font-weight: normal; white-space: pre;">cluster_x</text></g><g class="g-ytitle"><text class="ytitle" transform="rotate(-90,37.5125,212)" x="37.5125" y="212" text-anchor="middle" style="font-family: 'Open Sans', verdana, arial, sans-serif; font-size: 14px; fill: rgb(42, 63, 95); opacity: 1; font-weight: normal; white-space: pre;">divergence</text></g></g></svg>