<svg class="main-svg" xmlns="http://www.w3.org/2000/svg" xmlns:xlink="http://www.w3.org/1999/xlink" width="700" height="500" style="" viewBox="0 0 700 500"><rect x="0" y="0" width="700" height="500" style="fill: rgb(255, 255, 255); fill-opacity: 1;"/><defs id="defs-ccee51"><g class="clips"><clipPath id="clipccee51xyplot" class="plotclip"><rect width="367" height="304"/></clipPath><clipPath class="axesclip" id="clipccee51x"><rect x="80" y="0" width="367" height="500"/></clipPath><clipPath class="axesclip" id="clipccee51y"><rect x="0" y="60" width="700" height="304"/></clipPath><clipPath class="axesclip" id="clipccee51xy"><rect x="80" y="60" width="367" height="304"/></clipPath></g><g class="gradients"/><g class="patterns"/></defs><g class="bglayer"><rect class="bg" x="80" y="60" width="367" height="304" style="fill: rgb(229, 236, 246); fill-opacity: 1; stroke-width: 0;"/></g><g class="layer-below"><g class="imagelayer"/><g class="shapelayer"/></g><g class="cartesianlayer"><g class="subplot xy"><g class="layer-subplot"><g class="shapelayer"/><g class="imagelayer"/></g><g class="minor-gridlayer"><g class="x"/><g class="y"/></g><g class="gridlayer"><g class="x"/><g class="y"><path class="ygrid crisp" transform="translate(0,312.02)" d="M80,0h367" style="stroke: rgb(255, 255, 255); stroke-opacity: 1; stroke-width: 1px;"/><path class="ygrid crisp" transform="translate(0,267.24)" d="M80,0h367" style="stroke: rgb(255, 255, 255); stroke-opacity: 1; stroke-width: 1px;"/><path class="ygrid crisp" transform="translate(0,222.47)" d="M80,0h367" style="stroke: rgb(255, 255, 255); stroke-opacity: 1; stroke-width: 1px;"/><path class="ygrid crisp" transform="translate(0,177.69)" d="M80,0h367" style="stroke: rgb(255, 255, 255); stroke-opacity: 1; stroke-width: 1px;"/><path class="ygrid crisp" transform="translate(0,132.92000000000002)" d="M80,0h367" style="stroke: rgb(255, 255, 255); stroke-opacity: 1; stroke-width: 1px;"/><path class="ygrid crisp" transform="translate(0,88.14)" d="M80,0h367" style="stroke: rgb(255, 255, 255); stroke-opacity: 1; stroke-width: 1px;"/></g></g><g class="zerolinelayer"><path class="yzl zl crisp" transform="translate(0,356.79)" d="M80,0h367" style="stroke: rgb(255, 255, 255); stroke-opacity: 1; stroke-width: 2px;"/></g><path class="xlines-below"/><path class="ylines-below"/><g class="overlines-below"/><g class="xaxislayer-below"/><g class="yaxislayer-below"/><g class="overaxes-below"/><g class="plot" transform="translate(80,60)" clip-path="url(#clipccee51xyplot)"><g class="boxlayer mlayer"><g class="trace boxes" style="opacity: 1;"><path class="box" d="M4.39,256.74H6.53M4.39,256.74H6.53V256.74H4.39ZM5.46,256.74V256.74M5.46,256.74V256.74M4.93,256.74H6M4.93,256.74H6" style="vector-effect: non-scaling-stroke; stroke-width: 2px; stroke: rgb(99, 110, 250); stroke-opacity: 1; fill: rgb(99, 110, 250); fill-opacity: 0.5;"/><path class="box" d="M30.61,218.08H32.75M30.61,218.08H32.75V218.08H30.61ZM31.68,218.08V218.08M31.68,218.08V218.08M31.14,218.08H32.21M31.14,218.08H32.21" style="vector-effect: non-scaling-stroke; stroke-width: 2px; stroke: rgb(99, 110, 250); stroke-opacity: 1; fill: rgb(99, 110, 250); fill-opacity: 0.5;"/><path class="box" d="M56.82,220.54H58.96M56.82,220.54H58.96V220.54H56.82ZM57.89,220.54V220.54M57.89,220.54V220.54M57.35,220.54H58.43M57.35,220.54H58.43" style="vector-effect: non-scaling-stroke; stroke-width: 2px; stroke: rgb(99, 110, 250); stroke-opacity: 1; fill: rgb(99, 110, 250); fill-opacity: 0.5;"/><path class="box" d="M83.03,219.33H85.17M83.03,219.33H85.17V219.33H83.03ZM84.1,219.33V219.33M84.1,219.33V219.33M83.57,219.33H84.64M83.57,219.33H84.64" style="vector-effect: non-scaling-stroke; stroke-width: 2px; stroke: rgb(99, 110, 250); stroke-opacity: 1; fill: rgb(99, 110, 250); fill-opacity: 0.5;"/><path class="box" d="M109.25,234.2H111.39M109.25,234.2H111.39V234.2H109.25ZM110.32,234.2V234.2M110.32,234.2V234.2M109.78,234.2H110.85M109.78,234.2H110.85" style="vector-effect: non-scaling-stroke; stroke-width: 2px; stroke: rgb(99, 110, 250); stroke-opacity: 1; fill: rgb(99, 110, 250); fill-opacity: 0.5;"/><path class="box" d="M135.46,252.78H137.6M135.46,252.78H137.6V252.78H135.46ZM136.53,252.78V252.78M136.53,252.78V252.78M136,252.78H137.07M136,252.78H137.07" style="vector-effect: non-scaling-stroke; stroke-width: 2px; stroke: rgb(99, 110, 250); stroke-opacity: 1; fill: rgb(99, 110, 250); fill-opacity: 0.5;"/><path class="box" d="M161.68,192.4H163.82M161.68,192.4H163.82V192.4H161.68ZM162.75,192.4V192.4M162.75,192.4V192.4M162.21,192.4H163.28M162.21,192.4H163.28" style="vector-effect: non-scaling-stroke; stroke-width: 2px; stroke: rgb(99, 110, 250); stroke-opacity: 1; fill: rgb(99, 110, 250); fill-opacity: 0.5;"/><path class="box" d="M187.89,214.76H190.03M187.89,214.76H190.03V214.76H187.89ZM188.96,214.76V214.76M188.96,214.76V214.76M188.43,214.76H189.5M188.43,214.76H189.5" style="vector-effect: non-scaling-stroke; stroke-width: 2px; stroke: rgb(99, 110, 250); stroke-opacity: 1; fill: rgb(99, 110, 250); fill-opacity: 0.5;"/><path class="box" d="M214.11,190.38H216.25M214.11,190.38H216.25V190.38H214.11ZM215.18,190.38V190.38M215.18,190.38V190.38M214.64,190.38H215.71M214.64,190.38H215.71" style="vector-effect: non-scaling-stroke; stroke-width: 2px; stroke: rgb(99, 110, 250); stroke-opacity: 1; fill: rgb(99, 110, 250); fill-opacity: 0.5;"/><path class="box" d="M240.32,269.88H242.46M240.32,269.88H242.46V269.88H240.32ZM241.39,269.88V269.88M241.39,269.88V269.88M240.85,269.88H241.93M240.85,269.88H241.93" style="vector-effect: non-scaling-stroke; stroke-width: 2px; stroke: rgb(99, 110, 250); stroke-opacity: 1; fill: rgb(99, 110, 250); fill-opacity: 0.5;"/><path class="box" d="M266.53,160.25H268.67M266.53,160.25H268.67V160.25H266.53ZM267.6,160.25V160.25M267.6,160.25V160.25M267.07,160.25H268.14M267.07,160.25H268.14" style="vector-effect: non-scaling-stroke; stroke-width: 2px; stroke: rgb(99, 110, 250); stroke-opacity: 1; fill: rgb(99, 110, 250); fill-opacity: 0.5;"/><path class="box" d="M292.75,254.68H294.89M292.75,254.68H294.89V254.68H292.75ZM293.82,254.68V254.68M293.82,254.68V254.68M293.28,254.68H294.35M293.28,254.68H294.35" style="vector-effect: non-scaling-stroke; stroke-width: 2px; stroke: rgb(99, 110, 250); stroke-opacity: 1; fill: rgb(99, 110, 250); fill-opacity: 0.5;"/><path class="box" d="M318.96,243.35H321.1M318.96,243.35H321.1V243.35H318.96ZM320.03,243.35V243.35M320.03,243.35V243.35M319.5,243.35H320.57M319.5,243.35H320.57" style="vector-effect: non-scaling-stroke; stroke-width: 2px; stroke: rgb(99, 110, 250); stroke-opacity: 1; fill: rgb(99, 110, 250); fill-opacity: 0.5;"/><path class="box" d="M345.18,242.28H347.32M345.18,242.28H347.32V242.28H345.18ZM346.25,242.28V242.28M346.25,242.28V242.28M345.71,242.28H346.78M345.71,242.28H346.78" style="vector-effect: non-scaling-stroke; stroke-width: 2px; stroke: rgb(99, 110, 250); stroke-opacity: 1; fill: rgb(99, 110, 250); fill-opacity: 0.5;"/><g class="points"/><g class="points"/><g class="points"/><g class="points"/><g class="points"/><g class="points"/><g class="points"/><g class="points"/><g class="points"/><g class="points"/><g class="points"/><g class="points"/><g class="points"/><g class="points"/></g><g class="trace boxes" style="opacity: 1;"><path class="box" d="M7.45,173.1H9.59M7.45,173.1H9.59V173.1H7.45ZM8.52,173.1V173.1M8.52,173.1V173.1M7.98,173.1H9.05M7.98,173.1H9.05" style="vector-effect: non-scaling-stroke; stroke-width: 2px; stroke: rgb(239, 85, 59); stroke-opacity: 1; fill: rgb(239, 85, 59); fill-opacity: 0.5;"/><path class="box" d="M33.66,162.69H35.8M33.66,162.69H35.8V162.69H33.66ZM34.73,162.69V162.69M34.73,162.69V162.69M34.2,162.69H35.27M34.2,162.69H35.27" style="vector-effect: non-scaling-stroke; stroke-width: 2px; stroke: rgb(239, 85, 59); stroke-opacity: 1; fill: rgb(239, 85, 59); fill-opacity: 0.5;"/><path class="box" d="M59.88,139.99H62.02M59.88,139.99H62.02V139.99H59.88ZM60.95,139.99V139.99M60.95,139.99V139.99M60.41,139.99H61.48M60.41,139.99H61.48" style="vector-effect: non-scaling-stroke; stroke-width: 2px; stroke: rgb(239, 85, 59); stroke-opacity: 1; fill: rgb(239, 85, 59); fill-opacity: 0.5;"/><path class="box" d="M86.09,155.26H88.23M86.09,155.26H88.23V155.26H86.09ZM87.16,155.26V155.26M87.16,155.26V155.26M86.63,155.26H87.7M86.63,155.26H87.7" style="vector-effect: non-scaling-stroke; stroke-width: 2px; stroke: rgb(239, 85, 59); stroke-opacity: 1; fill: rgb(239, 85, 59); fill-opacity: 0.5;"/><path class="box" d="M112.31,134.75H114.45M112.31,134.75H114.45V134.75H112.31ZM113.38,134.75V134.75M113.38,134.75V134.75M112.84,134.75H113.91M112.84,134.75H113.91" style="vector-effect: non-scaling-stroke; stroke-width: 2px; stroke: rgb(239, 85, 59); stroke-opacity: 1; fill: rgb(239, 85, 59); fill-opacity: 0.5;"/><path class="box" d="M138.52,152.08H140.66M138.52,152.08H140.66V152.08H138.52ZM139.59,152.08V152.08M139.59,152.08V152.08M139.06,152.08H140.13M139.06,152.08H140.13" style="vector-effect: non-scaling-stroke; stroke-width: 2px; stroke: rgb(239, 85, 59); stroke-opacity: 1; fill: rgb(239, 85, 59); fill-opacity: 0.5;"/><path class="box" d="M164.73,69.38H166.88M164.73,69.38H166.88V69.38H164.73ZM165.81,69.38V69.38M165.81,69.38V69.38M165.27,69.38H166.34M165.27,69.38H166.34" style="vector-effect: non-scaling-stroke; stroke-width: 2px; stroke: rgb(239, 85, 59); stroke-opacity: 1; fill: rgb(239, 85, 59); fill-opacity: 0.5;"/><path class="box" d="M190.95,117.65H193.09M190.95,117.65H193.09V117.65H190.95ZM192.02,117.65V117.65M192.02,117.65V117.65M191.48,117.65H192.55M191.48,117.65H192.55" style="vector-effect: non-scaling-stroke; stroke-width: 2px; stroke: rgb(239, 85, 59); stroke-opacity: 1; fill: rgb(239, 85, 59); fill-opacity: 0.5;"/><path class="box" d="M217.16,124.21H219.3M217.16,124.21H219.3V124.21H217.16ZM218.23,124.21V124.21M218.23,124.21V124.21M217.7,124.21H218.77M217.7,124.21H218.77" style="vector-effect: non-scaling-stroke; stroke-width: 2px; stroke: rgb(239, 85, 59); stroke-opacity: 1; fill: rgb(239, 85, 59); fill-opacity: 0.5;"/><path class="box" d="M243.38,200.12H245.52M243.38,200.12H245.52V200.12H243.38ZM244.45,200.12V200.12M244.45,200.12V200.12M243.91,200.12H244.98M243.91,200.12H244.98" style="vector-effect: non-scaling-stroke; stroke-width: 2px; stroke: rgb(239, 85, 59); stroke-opacity: 1; fill: rgb(239, 85, 59); fill-opacity: 0.5;"/><path class="box" d="M269.59,117.11H271.73M269.59,117.11H271.73V117.11H269.59ZM270.66,117.11V117.11M270.66,117.11V117.11M270.13,117.11H271.2M270.13,117.11H271.2" style="vector-effect: non-scaling-stroke; stroke-width: 2px; stroke: rgb(239, 85, 59); stroke-opacity: 1; fill: rgb(239, 85, 59); fill-opacity: 0.5;"/><path class="box" d="M295.81,206.03H297.95M295.81,206.03H297.95V206.03H295.81ZM296.88,206.03V206.03M296.88,206.03V206.03M296.34,206.03H297.41M296.34,206.03H297.41" style="vector-effect: non-scaling-stroke; stroke-width: 2px; stroke: rgb(239, 85, 59); stroke-opacity: 1; fill: rgb(239, 85, 59); fill-opacity: 0.5;"/><path class="box" d="M322.02,144.44H324.16M322.02,144.44H324.16V144.44H322.02ZM323.09,144.44V144.44M323.09,144.44V144.44M322.56,144.44H323.63M322.56,144.44H323.63" style="vector-effect: non-scaling-stroke; stroke-width: 2px; stroke: rgb(239, 85, 59); stroke-opacity: 1; fill: rgb(239, 85, 59); fill-opacity: 0.5;"/><path class="box" d="M348.23,145.83H350.38M348.23,145.83H350.38V145.83H348.23ZM349.31,145.83V145.83M349.31,145.83V145.83M348.77,145.83H349.84M348.77,145.83H349.84" style="vector-effect: non-scaling-stroke; stroke-width: 2px; stroke: rgb(239, 85, 59); stroke-opacity: 1; fill: rgb(239, 85, 59); fill-opacity: 0.5;"/><g class="points"/><g class="points"/><g class="points"/><g class="points"/><g class="points"/><g class="points"/><g class="points"/><g class="points"/><g class="points"/><g class="points"/><g class="points"/><g class="points"/><g class="points"/><g class="points"/></g><g class="trace boxes" style="opacity: 1;"><path class="box" d="M10.51,275.32H12.65M10.51,275.32H12.65V275.32H10.51ZM11.58,275.32V275.32M11.58,275.32V275.32M11.04,275.32H12.11M11.04,275.32H12.11" style="vector-effect: non-scaling-stroke; stroke-width: 2px; stroke: rgb(0, 204, 150); stroke-opacity: 1; fill: rgb(0, 204, 150); fill-opacity: 0.5;"/><path class="box" d="M36.72,244.27H38.86M36.72,244.27H38.86V244.27H36.72ZM37.79,244.27V244.27M37.79,244.27V244.27M37.26,244.27H38.33M37.26,244.27H38.33" style="vector-effect: non-scaling-stroke; stroke-width: 2px; stroke: rgb(0, 204, 150); stroke-opacity: 1; fill: rgb(0, 204, 150); fill-opacity: 0.5;"/><path class="box" d="M62.94,250.34H65.08M62.94,250.34H65.08V250.34H62.94ZM64.01,250.34V250.34M64.01,250.34V250.34M63.47,250.34H64.54M63.47,250.34H64.54" style="vector-effect: non-scaling-stroke; stroke-width: 2px; stroke: rgb(0, 204, 150); stroke-opacity: 1; fill: rgb(0, 204, 150); fill-opacity: 0.5;"/><path class="box" d="M89.15,247.74H91.29M89.15,247.74H91.29V247.74H89.15ZM90.22,247.74V247.74M90.22,247.74V247.74M89.69,247.74H90.76M89.69,247.74H90.76" style="vector-effect: non-scaling-stroke; stroke-width: 2px; stroke: rgb(0, 204, 150); stroke-opacity: 1; fill: rgb(0, 204, 150); fill-opacity: 0.5;"/><path class="box" d="M115.36,258.49H117.51M115.36,258.49H117.51V258.49H115.36ZM116.44,258.49V258.49M116.44,258.49V258.49M115.9,258.49H116.97M115.9,258.49H116.97" style="vector-effect: non-scaling-stroke; stroke-width: 2px; stroke: rgb(0, 204, 150); stroke-opacity: 1; fill: rgb(0, 204, 150); fill-opacity: 0.5;"/><path class="box" d="M141.58,271.94H143.72M141.58,271.94H143.72V271.94H141.58ZM142.65,271.94V271.94M142.65,271.94V271.94M142.11,271.94H143.18M142.11,271.94H143.18" style="vector-effect: non-scaling-stroke; stroke-width: 2px; stroke: rgb(0, 204, 150); stroke-opacity: 1; fill: rgb(0, 204, 150); fill-opacity: 0.5;"/><path class="box" d="M167.79,225.64H169.93M167.79,225.64H169.93V225.64H167.79ZM168.86,225.64V225.64M168.86,225.64V225.64M168.33,225.64H169.4M168.33,225.64H169.4" style="vector-effect: non-scaling-stroke; stroke-width: 2px; stroke: rgb(0, 204, 150); stroke-opacity: 1; fill: rgb(0, 204, 150); fill-opacity: 0.5;"/><path class="box" d="M194.01,243.24H196.15M194.01,243.24H196.15V243.24H194.01ZM195.08,243.24V243.24M195.08,243.24V243.24M194.54,243.24H195.61M194.54,243.24H195.61" style="vector-effect: non-scaling-stroke; stroke-width: 2px; stroke: rgb(0, 204, 150); stroke-opacity: 1; fill: rgb(0, 204, 150); fill-opacity: 0.5;"/><path class="box" d="M220.22,223.88H222.36M220.22,223.88H222.36V223.88H220.22ZM221.29,223.88V223.88M221.29,223.88V223.88M220.76,223.88H221.83M220.76,223.88H221.83" style="vector-effect: non-scaling-stroke; stroke-width: 2px; stroke: rgb(0, 204, 150); stroke-opacity: 1; fill: rgb(0, 204, 150); fill-opacity: 0.5;"/><path class="box" d="M246.44,280.27H248.58M246.44,280.27H248.58V280.27H246.44ZM247.51,280.27V280.27M247.51,280.27V280.27M246.97,280.27H248.04M246.97,280.27H248.04" style="vector-effect: non-scaling-stroke; stroke-width: 2px; stroke: rgb(0, 204, 150); stroke-opacity: 1; fill: rgb(0, 204, 150); fill-opacity: 0.5;"/><path class="box" d="M272.65,200.77H274.79M272.65,200.77H274.79V200.77H272.65ZM273.72,200.77V200.77M273.72,200.77V200.77M273.19,200.77H274.26M273.19,200.77H274.26" style="vector-effect: non-scaling-stroke; stroke-width: 2px; stroke: rgb(0, 204, 150); stroke-opacity: 1; fill: rgb(0, 204, 150); fill-opacity: 0.5;"/><path class="box" d="M298.86,269.61H301.01M298.86,269.61H301.01V269.61H298.86ZM299.94,269.61V269.61M299.94,269.61V269.61M299.4,269.61H300.47M299.4,269.61H300.47" style="vector-effect: non-scaling-stroke; stroke-width: 2px; stroke: rgb(0, 204, 150); stroke-opacity: 1; fill: rgb(0, 204, 150); fill-opacity: 0.5;"/><path class="box" d="M325.08,264.93H327.22M325.08,264.93H327.22V264.93H325.08ZM326.15,264.93V264.93M326.15,264.93V264.93M325.61,264.93H326.68M325.61,264.93H326.68" style="vector-effect: non-scaling-stroke; stroke-width: 2px; stroke: rgb(0, 204, 150); stroke-opacity: 1; fill: rgb(0, 204, 150); fill-opacity: 0.5;"/><path class="box" d="M351.29,264.67H353.43M351.29,264.67H353.43V264.67H351.29ZM352.36,264.67V264.67M352.36,264.67V264.67M351.83,264.67H352.9M351.83,264.67H352.9" style="vector-effect: non-scaling-stroke; stroke-width: 2px; stroke: rgb(0, 204, 150); stroke-opacity: 1; fill: rgb(0, 204, 150); fill-opacity: 0.5;"/><g class="points"/><g class="points"/><g class="points"/><g class="points"/><g class="points"/><g class="points"/><g class="points"/><g class="points"/><g class="points"/><g class="points"/><g class="points"/><g class="points"/><g class="points"/><g class="points"/></g><g class="trace boxes" style="opacity: 1;"><path class="box" d="M13.57,127.63H15.71M13.57,164.57H15.71V82.59H13.57ZM14.64,164.57V182.55M14.64,82.59V52.97M14.1,182.55H15.17M14.1,52.97H15.17" style="vector-effect: non-scaling-stroke; stroke-width: 2px; stroke: rgb(171, 99, 250); stroke-opacity: 1; fill: rgb(171, 99, 250); fill-opacity: 0.5;"/><path class="box" d="M39.78,173.01H41.92M39.78,202.67H41.92V149.29H39.78ZM40.85,202.67V231.55M40.85,149.29V119.88M40.32,231.55H41.39M40.32,119.88H41.39" style="vector-effect: non-scaling-stroke; stroke-width: 2px; stroke: rgb(171, 99, 250); stroke-opacity: 1; fill: rgb(171, 99, 250); fill-opacity: 0.5;"/><path class="box" d="M65.99,205.11H68.14M65.99,224.13H68.14V188.55H65.99ZM67.06,224.13V232.52M67.06,188.55V181.74M66.53,232.52H67.6M66.53,181.74H67.6" style="vector-effect: non-scaling-stroke; stroke-width: 2px; stroke: rgb(171, 99, 250); stroke-opacity: 1; fill: rgb(171, 99, 250); fill-opacity: 0.5;"/><path class="box" d="M92.21,188.3H94.35M92.21,202.14H94.35V172.72H92.21ZM93.28,202.14V229.14M93.28,172.72V156.8M92.74,229.14H93.81M92.74,156.8H93.81" style="vector-effect: non-scaling-stroke; stroke-width: 2px; stroke: rgb(171, 99, 250); stroke-opacity: 1; fill: rgb(171, 99, 250); fill-opacity: 0.5;"/><path class="box" d="M118.42,201.4H120.56M118.42,222.64H120.56V184.95H118.42ZM119.49,222.64V238.2M119.49,184.95V179.41M118.96,238.2H120.03M118.96,179.41H120.03" style="vector-effect: non-scaling-stroke; stroke-width: 2px; stroke: rgb(171, 99, 250); stroke-opacity: 1; fill: rgb(171, 99, 250); fill-opacity: 0.5;"/><path class="box" d="M144.64,147.58H146.78M144.64,162.68H146.78V122.47H144.64ZM145.71,162.68V210.24M145.71,122.47V83.75M145.17,210.24H146.24M145.17,83.75H146.24" style="vector-effect: non-scaling-stroke; stroke-width: 2px; stroke: rgb(171, 99, 250); stroke-opacity: 1; fill: rgb(171, 99, 250); fill-opacity: 0.5;"/><path class="box" d="M170.85,101.37H172.99M170.85,168.7H172.99V89.94H170.85ZM171.92,168.7V207.6M171.92,89.94V67.41M171.39,207.6H172.46M171.39,67.41H172.46" style="vector-effect: non-scaling-stroke; stroke-width: 2px; stroke: rgb(171, 99, 250); stroke-opacity: 1; fill: rgb(171, 99, 250); fill-opacity: 0.5;"/><path class="box" d="M197.07,189.22H199.21M197.07,201.52H199.21V168.22H197.07ZM198.14,201.52V235.45M198.14,168.22V146.97M197.6,235.45H198.67M197.6,146.97H198.67" style="vector-effect: non-scaling-stroke; stroke-width: 2px; stroke: rgb(171, 99, 250); stroke-opacity: 1; fill: rgb(171, 99, 250); fill-opacity: 0.5;"/><path class="box" d="M223.28,166.81H225.42M223.28,182.48H225.42V146.51H223.28ZM224.35,182.48V227.41M224.35,146.51V125.91M223.82,227.41H224.89M223.82,125.91H224.89" style="vector-effect: non-scaling-stroke; stroke-width: 2px; stroke: rgb(171, 99, 250); stroke-opacity: 1; fill: rgb(171, 99, 250); fill-opacity: 0.5;"/><path class="box" d="M249.49,93.31H251.64M249.49,155.59H251.64V42.49H249.49ZM250.56,155.59V199M250.56,42.49V17.15M250.03,199H251.1M250.03,17.15H251.1" style="vector-effect: non-scaling-stroke; stroke-width: 2px; stroke: rgb(171, 99, 250); stroke-opacity: 1; fill: rgb(171, 99, 250); fill-opacity: 0.5;"/><path class="box" d="M275.71,109.65H277.85M275.71,123.33H277.85V89.38H275.71ZM276.78,123.33V146.86M276.78,89.38V60.47M276.24,146.86H277.31M276.24,60.47H277.31" style="vector-effect: non-scaling-stroke; stroke-width: 2px; stroke: rgb(171, 99, 250); stroke-opacity: 1; fill: rgb(171, 99, 250); fill-opacity: 0.5;"/><path class="box" d="M301.92,86.17H304.06M301.92,190.42H304.06V41.78H301.92ZM302.99,190.42V242.39M302.99,41.78V17.71M302.46,242.39H303.53M302.46,17.71H303.53" style="vector-effect: non-scaling-stroke; stroke-width: 2px; stroke: rgb(171, 99, 250); stroke-opacity: 1; fill: rgb(171, 99, 250); fill-opacity: 0.5;"/><path class="box" d="M328.14,99.31H330.28M328.14,167.85H330.28V76.74H328.14ZM329.21,167.85V175.74M329.21,76.74V55.27M328.67,175.74H329.74M328.67,55.27H329.74" style="vector-effect: non-scaling-stroke; stroke-width: 2px; stroke: rgb(171, 99, 250); stroke-opacity: 1; fill: rgb(171, 99, 250); fill-opacity: 0.5;"/><path class="box" d="M354.35,95.91H356.49M354.35,194.03H356.49V48.21H354.35ZM355.42,194.03V240.49M355.42,48.21V27.04M354.89,240.49H355.96M354.89,27.04H355.96" style="vector-effect: non-scaling-stroke; stroke-width: 2px; stroke: rgb(171, 99, 250); stroke-opacity: 1; fill: rgb(171, 99, 250); fill-opacity: 0.5;"/><g class="points"/><g class="points"/><g class="points"/><g class="points"/><g class="points"/><g class="points"/><g class="points"/><g class="points"/><g class="points"/><g class="points"/><g class="points"/><g class="points"/><g class="points"/><g class="points"/></g><g class="trace boxes" style="opacity: 1;"><path class="box" d="M16.62,112.94H18.77M16.62,140.74H18.77V82.02H16.62ZM17.69,140.74V189.94M17.69,82.02V49.09M17.16,189.94H18.23M17.16,49.09H18.23" style="vector-effect: non-scaling-stroke; stroke-width: 2px; stroke: rgb(255, 161, 90); stroke-opacity: 1; fill: rgb(255, 161, 90); fill-opacity: 0.5;"/><path class="box" d="M42.84,140.24H44.98M42.84,187.75H44.98V69.2H42.84ZM43.91,187.75V227.32M43.91,69.2V18.31M43.37,227.32H44.44M43.37,18.31H44.44" style="vector-effect: non-scaling-stroke; stroke-width: 2px; stroke: rgb(255, 161, 90); stroke-opacity: 1; fill: rgb(255, 161, 90); fill-opacity: 0.5;"/><path class="box" d="M69.05,152.46H71.19M69.05,184.13H71.19V91.31H69.05ZM70.12,184.13V239.88M70.12,91.31V43.97M69.59,239.88H70.66M69.59,43.97H70.66" style="vector-effect: non-scaling-stroke; stroke-width: 2px; stroke: rgb(255, 161, 90); stroke-opacity: 1; fill: rgb(255, 161, 90); fill-opacity: 0.5;"/><path class="box" d="M95.27,135.74H97.41M95.27,180.12H97.41V66.38H95.27ZM96.34,180.12V237.8M96.34,66.38V16.57M95.8,237.8H96.87M95.8,16.57H96.87" style="vector-effect: non-scaling-stroke; stroke-width: 2px; stroke: rgb(255, 161, 90); stroke-opacity: 1; fill: rgb(255, 161, 90); fill-opacity: 0.5;"/><path class="box" d="M121.48,153.53H123.62M121.48,186.27H123.62V87.22H121.48ZM122.55,186.27V249.15M122.55,87.22V36.6M122.02,249.15H123.09M122.02,36.6H123.09" style="vector-effect: non-scaling-stroke; stroke-width: 2px; stroke: rgb(255, 161, 90); stroke-opacity: 1; fill: rgb(255, 161, 90); fill-opacity: 0.5;"/><path class="box" d="M147.7,140.35H149.84M147.7,185.56H149.84V105.29H147.7ZM148.77,185.56V236.17M148.77,105.29V96.89M148.23,236.17H149.3M148.23,96.89H149.3" style="vector-effect: non-scaling-stroke; stroke-width: 2px; stroke: rgb(255, 161, 90); stroke-opacity: 1; fill: rgb(255, 161, 90); fill-opacity: 0.5;"/><path class="box" d="M173.91,111.51H176.05M173.91,151.46H176.05V98.96H173.91ZM174.98,151.46V187.61M174.98,98.96V74.86M174.45,187.61H175.52M174.45,74.86H175.52" style="vector-effect: non-scaling-stroke; stroke-width: 2px; stroke: rgb(255, 161, 90); stroke-opacity: 1; fill: rgb(255, 161, 90); fill-opacity: 0.5;"/><path class="box" d="M200.12,161.37H202.27M200.12,191.95H202.27V109.09H200.12ZM201.19,191.95V221.12M201.19,109.09V91.97M200.66,221.12H201.73M200.66,91.97H201.73" style="vector-effect: non-scaling-stroke; stroke-width: 2px; stroke: rgb(255, 161, 90); stroke-opacity: 1; fill: rgb(255, 161, 90); fill-opacity: 0.5;"/><path class="box" d="M226.34,135.53H228.48M226.34,161.99H228.48V80.92H226.34ZM227.41,161.99V195.17M227.41,80.92V62.12M226.87,195.17H227.94M226.87,62.12H227.94" style="vector-effect: non-scaling-stroke; stroke-width: 2px; stroke: rgb(255, 161, 90); stroke-opacity: 1; fill: rgb(255, 161, 90); fill-opacity: 0.5;"/><path class="box" d="M252.55,96.8H254.69M252.55,172.83H254.69V52.56H252.55ZM253.62,172.83V219.29M253.62,52.56V17.06M253.09,219.29H254.16M253.09,17.06H254.16" style="vector-effect: non-scaling-stroke; stroke-width: 2px; stroke: rgb(255, 161, 90); stroke-opacity: 1; fill: rgb(255, 161, 90); fill-opacity: 0.5;"/><path class="box" d="M278.77,111.47H280.91M278.77,136.4H280.91V98.31H278.77ZM279.84,136.4V167.28M279.84,98.31V70.25M279.3,167.28H280.37M279.3,70.25H280.37" style="vector-effect: non-scaling-stroke; stroke-width: 2px; stroke: rgb(255, 161, 90); stroke-opacity: 1; fill: rgb(255, 161, 90); fill-opacity: 0.5;"/><path class="box" d="M304.98,90.56H307.12M304.98,155.59H307.12V54.43H304.98ZM306.05,155.59V256.45M306.05,54.43V17.39M305.52,256.45H306.59M305.52,17.39H306.59" style="vector-effect: non-scaling-stroke; stroke-width: 2px; stroke: rgb(255, 161, 90); stroke-opacity: 1; fill: rgb(255, 161, 90); fill-opacity: 0.5;"/><path class="box" d="M331.2,111.74H333.34M331.2,142.54H333.34V91.04H331.2ZM332.27,142.54V193.5M332.27,91.04V58.32M331.73,193.5H332.8M331.73,58.32H332.8" style="vector-effect: non-scaling-stroke; stroke-width: 2px; stroke: rgb(255, 161, 90); stroke-opacity: 1; fill: rgb(255, 161, 90); fill-opacity: 0.5;"/><path class="box" d="M357.41,99.96H359.55M357.41,163.12H359.55V61.99H357.41ZM358.48,163.12V249.82M358.48,61.99V30.29M357.95,249.82H359.02M357.95,30.29H359.02" style="vector-effect: non-scaling-stroke; stroke-width: 2px; stroke: rgb(255, 161, 90); stroke-opacity: 1; fill: rgb(255, 161, 90); fill-opacity: 0.5;"/><g class="points"/><g class="points"/><g class="points"/><g class="points"/><g class="points"/><g class="points"/><g class="points"/><g class="points"/><g class="points"/><g class="points"/><g class="points"/><g class="points"/><g class="points"/><g class="points"/></g><g class="trace boxes" style="opacity: 1;"><path class="box" d="M19.68,118.32H21.82M19.68,151.19H21.82V95.01H19.68ZM20.75,151.19V200.01M20.75,95.01V61.63M20.22,200.01H21.29M20.22,61.63H21.29" style="vector-effect: non-scaling-stroke; stroke-width: 2px; stroke: rgb(25, 211, 243); stroke-opacity: 1; fill: rgb(25, 211, 243); fill-opacity: 0.5;"/><path class="box" d="M45.9,145.9H48.04M45.9,206.6H48.04V72.31H45.9ZM46.97,206.6V273.6M46.97,72.31V19.52M46.43,273.6H47.5M46.43,19.52H47.5" style="vector-effect: non-scaling-stroke; stroke-width: 2px; stroke: rgb(25, 211, 243); stroke-opacity: 1; fill: rgb(25, 211, 243); fill-opacity: 0.5;"/><path class="box" d="M72.11,166.74H74.25M72.11,207.83H74.25V109.7H72.11ZM73.18,207.83V288.8M73.18,109.7V56.42M72.65,288.8H73.72M72.65,56.42H73.72" style="vector-effect: non-scaling-stroke; stroke-width: 2px; stroke: rgb(25, 211, 243); stroke-opacity: 1; fill: rgb(25, 211, 243); fill-opacity: 0.5;"/><path class="box" d="M98.33,151.05H100.47M98.33,197.48H100.47V75.82H98.33ZM99.4,197.48V273.6M99.4,75.82V15.2M98.86,273.6H99.93M98.86,15.2H99.93" style="vector-effect: non-scaling-stroke; stroke-width: 2px; stroke: rgb(25, 211, 243); stroke-opacity: 1; fill: rgb(25, 211, 243); fill-opacity: 0.5;"/><path class="box" d="M124.54,158.75H126.68M124.54,199.84H126.68V101.68H124.54ZM125.61,199.84V288.8M125.61,101.68V40.43M125.07,288.8H126.15M125.07,40.43H126.15" style="vector-effect: non-scaling-stroke; stroke-width: 2px; stroke: rgb(25, 211, 243); stroke-opacity: 1; fill: rgb(25, 211, 243); fill-opacity: 0.5;"/><path class="box" d="M150.75,151.05H152.89M150.75,197.57H152.89V117.44H150.75ZM151.82,197.57V251.5M151.82,117.44V106.81M151.29,251.5H152.36M151.29,106.81H152.36" style="vector-effect: non-scaling-stroke; stroke-width: 2px; stroke: rgb(25, 211, 243); stroke-opacity: 1; fill: rgb(25, 211, 243); fill-opacity: 0.5;"/><path class="box" d="M176.97,133.3H179.11M176.97,166.14H179.11V114.1H176.97ZM178.04,166.14V221.05M178.04,114.1V108.15M177.5,221.05H178.57M177.5,108.15H178.57" style="vector-effect: non-scaling-stroke; stroke-width: 2px; stroke: rgb(25, 211, 243); stroke-opacity: 1; fill: rgb(25, 211, 243); fill-opacity: 0.5;"/><path class="box" d="M203.18,184.2H205.32M203.18,215.83H205.32V128.99H203.18ZM204.25,215.83V251.5M204.25,128.99V97.79M203.72,251.5H204.79M203.72,97.79H204.79" style="vector-effect: non-scaling-stroke; stroke-width: 2px; stroke: rgb(25, 211, 243); stroke-opacity: 1; fill: rgb(25, 211, 243); fill-opacity: 0.5;"/><path class="box" d="M229.4,163.7H231.54M229.4,196.79H231.54V107.03H229.4ZM230.47,196.79V235.49M230.47,107.03V74.68M229.93,235.49H231M229.93,74.68H231" style="vector-effect: non-scaling-stroke; stroke-width: 2px; stroke: rgb(25, 211, 243); stroke-opacity: 1; fill: rgb(25, 211, 243); fill-opacity: 0.5;"/><path class="box" d="M255.61,97.79H257.75M255.61,174.98H257.75V52.42H255.61ZM256.68,174.98V232.83M256.68,52.42V15.2M256.15,232.83H257.22M256.15,15.2H257.22" style="vector-effect: non-scaling-stroke; stroke-width: 2px; stroke: rgb(25, 211, 243); stroke-opacity: 1; fill: rgb(25, 211, 243); fill-opacity: 0.5;"/><path class="box" d="M281.83,147.27H283.97M281.83,176.5H283.97V134.65H281.83ZM282.9,176.5V214.09M282.9,134.65V98.15M282.36,214.09H283.43M282.36,98.15H283.43" style="vector-effect: non-scaling-stroke; stroke-width: 2px; stroke: rgb(25, 211, 243); stroke-opacity: 1; fill: rgb(25, 211, 243); fill-opacity: 0.5;"/><path class="box" d="M308.04,97.79H310.18M308.04,172.33H310.18V60.33H308.04ZM309.11,172.33V288.8M309.11,60.33V19.52M308.57,288.8H309.65M308.57,19.52H309.65" style="vector-effect: non-scaling-stroke; stroke-width: 2px; stroke: rgb(25, 211, 243); stroke-opacity: 1; fill: rgb(25, 211, 243); fill-opacity: 0.5;"/><path class="box" d="M334.25,133.3H336.39M334.25,167.01H336.39V117.46H334.25ZM335.32,167.01V219.47M335.32,117.46V81.92M334.79,219.47H335.86M334.79,81.92H335.86" style="vector-effect: non-scaling-stroke; stroke-width: 2px; stroke: rgb(25, 211, 243); stroke-opacity: 1; fill: rgb(25, 211, 243); fill-opacity: 0.5;"/><path class="box" d="M360.47,114.8H362.61M360.47,180.33H362.61V78.41H360.47ZM361.54,180.33V288.8M361.54,78.41V43.5M361,288.8H362.07M361,43.5H362.07" style="vector-effect: non-scaling-stroke; stroke-width: 2px; stroke: rgb(25, 211, 243); stroke-opacity: 1; fill: rgb(25, 211, 243); fill-opacity: 0.5;"/><g class="points"/><g class="points"/><g class="points"/><g class="points"/><g class="points"/><g class="points"/><g class="points"/><g class="points"/><g class="points"/><g class="points"/><g class="points"/><g class="points"/><g class="points"/><g class="points"/></g></g></g><g class="overplot"/><path class="xlines-above crisp" d="M0,0" style="fill: none;"/><path class="ylines-above crisp" d="M0,0" style="fill: none;"/><g class="overlines-above"/><g class="xaxislayer-above"><g class="xtick"><text text-anchor="start" x="0" y="377" transform="translate(93.11,0) rotate(90,0,371)" style="font-family: 'Open Sans', verdana, arial, sans-serif; font-size: 12px; fill: rgb(42, 63, 95); fill-opacity: 1; white-space: pre; opacity: 1;">cluster0-medoid0</text></g><g class="xtick"><text text-anchor="start" x="0" y="377" transform="translate(119.32,0) rotate(90,0,371)" style="font-family: 'Open Sans', verdana, arial, sans-serif; font-size: 12px; fill: rgb(42, 63, 95); fill-opacity: 1; white-space: pre; opacity: 1;">cluster0-medoid1</text></g><g class="xtick"><text text-anchor="start" x="0" y="377" transform="translate(145.54000000000002,0) rotate(90,0,371)" style="font-family: 'Open Sans', verdana, arial, sans-serif; font-size: 12px; fill: rgb(42, 63, 95); fill-opacity: 1; white-space: pre; opacity: 1;">cluster0-medoid2</text></g><g class="xtick"><text text-anchor="start" x="0" y="377" transform="translate(171.75,0) rotate(90,0,371)" style="font-family: 'Open Sans', verdana, arial, sans-serif; font-size: 12px; fill: rgb(42, 63, 95); fill-opacity: 1; white-space: pre; opacity: 1;">cluster0-medoid3</text></g><g class="xtick"><text text-anchor="start" x="0" y="377" transform="translate(197.95999999999998,0) rotate(90,0,371)" style="font-family: 'Open Sans', verdana, arial, sans-serif; font-size: 12px; fill: rgb(42, 63, 95); fill-opacity: 1; white-space: pre; opacity: 1;">cluster0-medoid4</text></g><g class="xtick"><text text-anchor="start" x="0" y="377" transform="translate(224.18,0) rotate(90,0,371)" style="font-family: 'Open Sans', verdana, arial, sans-serif; font-size: 12px; fill: rgb(42, 63, 95); fill-opacity: 1; white-space: pre; opacity: 1;">cluster1-medoid0</text></g><g class="xtick"><text text-anchor="start" x="0" y="377" transform="translate(250.39,0) rotate(90,0,371)" style="font-family: 'Open Sans', verdana, arial, sans-serif; font-size: 12px; fill: rgb(42, 63, 95); fill-opacity: 1; white-space: pre; opacity: 1;">cluster1-medoid1</text></g><g class="xtick"><text text-anchor="start" x="0" y="377" transform="translate(276.61,0) rotate(90,0,371)" style="font-family: 'Open Sans', verdana, arial, sans-serif; font-size: 12px; fill: rgb(42, 63, 95); fill-opacity: 1; white-space: pre; opacity: 1;">cluster1-medoid2</text></g><g class="xtick"><text text-anchor="start" x="0" y="377" transform="translate(302.82,0) rotate(90,0,371)" style="font-family: 'Open Sans', verdana, arial, sans-serif; font-size: 12px; fill: rgb(42, 63, 95); fill-opacity: 1; white-space: pre; opacity: 1;">cluster1-medoid3</text></g><g class="xtick"><text text-anchor="start" x="0" y="377" transform="translate(329.03999999999996,0) rotate(90,0,371)" style="font-family: 'Open Sans', verdana, arial, sans-serif; font-size: 12px; fill: rgb(42, 63, 95); fill-opacity: 1; white-space: pre; opacity: 1;">cluster2-medoid0</text></g><g class="xtick"><text text-anchor="start" x="0" y="377" transform="translate(355.25,0) rotate(90,0,371)" style="font-family: 'Open Sans', verdana, arial, sans-serif; font-size: 12px; fill: rgb(42, 63, 95); fill-opacity: 1; white-space: pre; opacity: 1;">cluster2-medoid1</text></g><g class="xtick"><text text-anchor="start" x="0" y="377" transform="translate(381.46,0) rotate(90,0,371)" style="font-family: 'Open Sans', verdana, arial, sans-serif; font-size: 12px; fill: rgb(42, 63, 95); fill-opacity: 1; white-space: pre; opacity: 1;">cluster2-medoid2</text></g><g class="xtick"><text text-anchor="start" x="0" y="377" transform="translate(407.68,0) rotate(90,0,371)" style="font-family: 'Open Sans', verdana, arial, sans-serif; font-size: 12px; fill: rgb(42, 63, 95); fill-opacity: 1; white-space: pre; opacity: 1;">cluster2-medoid3</text></g><g class="xtick"><text text-anchor="start" x="0" y="377" transform="translate(433.89,0) rotate(90,0,371)" style="font-family: 'Open Sans', verdana, arial, sans-serif; font-size: 12px; fill: rgb(42, 63, 95); fill-opacity: 1; white-space: pre; opacity: 1;">cluster2-medoid4</text></g></g><g class="yaxislayer-above"><g class="ytick"><text text-anchor="end" x="79" y="4.199999999999999" transform="translate(0,356.79)" style="font-family: 'Open Sans', verdana, arial, sans-serif; font-size: 12px; fill: rgb(42, 63, 95); fill-opacity: 1; white-space: pre; opacity: 1;">0</text></g><g class="ytick"><text text-anchor="end" x="79" y="4.199999999999999" style="font-family: 'Open Sans', verdana, arial, sans-serif; font-size: 12px; fill: rgb(42, 63, 95); fill-opacity: 1; white-space: pre; opacity: 1;" transform="translate(0,312.02)">0.2</text></g><g class="ytick"><text text-anchor="end" x="79" y="4.199999999999999" style="font-family: 'Open Sans', verdana, arial, sans-serif; font-size: 12px; fill: rgb(42, 63, 95); fill-opacity: 1; white-space: pre; opacity: 1;" transform="translate(0,267.24)">0.4</text></g><g class="ytick"><text text-anchor="end" x="79" y="4.199999999999999" style="font-family: 'Open Sans', verdana, arial, sans-serif; font-size: 12px; fill: rgb(42, 63, 95); fill-opacity: 1; white-space: pre; opacity: 1;" transform="translate(0,222.47)">0.6</text></g><g class="ytick"><text text-anchor="end" x="79" y="4.199999999999999" style="font-family: 'Open Sans', verdana, arial, sans-serif; font-size: 12px; fill: rgb(42, 63, 95); fill-opacity: 1; white-space: pre; opacity: 1;" transform="translate(0,177.69)">0.8</text></g><g class="ytick"><text text-anchor="end" x="79" y="4.199999999999999" style="font-family: 'Open Sans', verdana, arial, sans-serif; font-size: 12px; fill: rgb(42, 63, 95); fill-opacity: 1; white-space: pre; opacity: 1;" transform="translate(0,132.92000000000002)">1</text></g><g class="ytick"><text text-anchor="end" x="79" y="4.199999999999999" style="font-family: 'Open Sans', verdana, arial, sans-serif; font-size: 12px; fill: rgb(42, 63, 95); fill-opacity: 1; white-space: pre; opacity: 1;" transform="translate(0,88.14)">1.2</text></g></g><g class="overaxes-above"/></g></g><g class="polarlayer"/><g class="smithlayer"/><g class="ternarylayer"/><g class="geolayer"/><g class="funnelarealayer"/><g class="pielayer"/><g class="iciclelayer"/><g class="treemaplayer"/><g class="sunburstlayer"/><g class="glimages"/><defs id="topdefs-ccee51"><g class="clips"/><clipPath id="legendccee51"><rect width="234" height="143" x="0" y="0"/></clipPath></defs><g class="layer-above"><g class="imagelayer"/><g class="shapelayer"/></g><g class="infolayer"><g class="legend" pointer-events="all" transform="translate(454.34000000000003,60)"><rect class="bg" shape-rendering="crispEdges" style="stroke: rgb(68, 68, 68); stroke-opacity: 1; fill: rgb(255, 255, 255); fill-opacity: 1; stroke-width: 0px;" width="234" height="143" x="0" y="0"/><g class="scrollbox" transform="" clip-path="url(#legendccee51)"><text class="legendtitletext" text-anchor="start" x="2" y="18.2" style="font-family: 'Open Sans', verdana, arial, sans-serif; font-size: 14px; fill: rgb(42, 63, 95); fill-opacity: 1; white-space: pre;">distance_considered</text><g class="groups" transform=""><g class="traces" transform="translate(0,32.7)" style="opacity: 1;"><text class="legendtext" text-anchor="start" x="40" y="4.680000000000001" style="font-family: 'Open Sans', verdana, arial, sans-serif; font-size: 12px; fill: rgb(42, 63, 95); fill-opacity: 1; white-space: pre;">average_intracluster</text><g class="layers" style="opacity: 1;"><g class="legendfill"/><g class="legendlines"/><g class="legendsymbols"><g class="legendpoints"><path class="legendbox" d="M6,6H-6V-6H6Z" transform="translate(20,0)" style="stroke-width: 2px; fill: rgb(99, 110, 250); fill-opacity: 0.5; stroke: rgb(99, 110, 250); stroke-opacity: 1;"/></g></g></g><rect class="legendtoggle" x="0" y="-9.5" width="228.78125" height="19" style="fill: rgb(0, 0, 0); fill-opacity: 0;"/></g></g><g class="groups" transform=""><g class="traces" transform="translate(0,51.7)" style="opacity: 1;"><text class="legendtext" text-anchor="start" x="40" y="4.680000000000001" style="font-family: 'Open Sans', verdana, arial, sans-serif; font-size: 12px; fill: rgb(42, 63, 95); fill-opacity: 1; white-space: pre;">max_intracluster</text><g class="layers" style="opacity: 1;"><g class="legendfill"/><g class="legendlines"/><g class="legendsymbols"><g class="legendpoints"><path class="legendbox" d="M6,6H-6V-6H6Z" transform="translate(20,0)" style="stroke-width: 2px; fill: rgb(239, 85, 59); fill-opacity: 0.5; stroke: rgb(239, 85, 59); stroke-opacity: 1;"/></g></g></g><rect class="legendtoggle" x="0" y="-9.5" width="228.78125" height="19" style="fill: rgb(0, 0, 0); fill-opacity: 0;"/></g></g><g class="groups" transform=""><g class="traces" transform="translate(0,70.7)" style="opacity: 1;"><text class="legendtext" text-anchor="start" x="40" y="4.680000000000001" style="font-family: 'Open Sans', verdana, arial, sans-serif; font-size: 12px; fill: rgb(42, 63, 95); fill-opacity: 1; white-space: pre;">average_from_centroid_intracluster</text><g class="layers" style="opacity: 1;"><g class="legendfill"/><g class="legendlines"/><g class="legendsymbols"><g class="legendpoints"><path class="legendbox" d="M6,6H-6V-6H6Z" transform="translate(20,0)" style="stroke-width: 2px; fill: rgb(0, 204, 150); fill-opacity: 0.5; stroke: rgb(0, 204, 150); stroke-opacity: 1;"/></g></g></g><rect class="legendtoggle" x="0" y="-9.5" width="228.78125" height="19" style="fill: rgb(0, 0, 0); fill-opacity: 0;"/></g></g><g class="groups" transform=""><g class="traces" transform="translate(0,89.7)" style="opacity: 1;"><text class="legendtext" text-anchor="start" x="40" y="4.680000000000001" style="font-family: 'Open Sans', verdana, arial, sans-serif; font-size: 12px; fill: rgb(42, 63, 95); fill-opacity: 1; white-space: pre;">average_intercluster</text><g class="layers" style="opacity: 1;"><g class="legendfill"/><g class="legendlines"/><g class="legendsymbols"><g class="legendpoints"><path class="legendbox" d="M6,6H-6V-6H6Z" transform="translate(20,0)" style="stroke-width: 2px; fill: rgb(171, 99, 250); fill-opacity: 0.5; stroke: rgb(171, 99, 250); stroke-opacity: 1;"/></g></g></g><rect class="legendtoggle" x="0" y="-9.5" width="228.78125" height="19" style="fill: rgb(0, 0, 0); fill-opacity: 0;"/></g></g><g class="groups" transform=""><g class="traces" transform="translate(0,108.7)" style="opacity: 1;"><text class="legendtext" text-anchor="start" x="40" y="4.680000000000001" style="font-family: 'Open Sans', verdana, arial, sans-serif; font-size: 12px; fill: rgb(42, 63, 95); fill-opacity: 1; white-space: pre;">average_from_centroid_intercluster</text><g class="layers" style="opacity: 1;"><g class="legendfill"/><g class="legendlines"/><g class="legendsymbols"><g class="legendpoints"><path class="legendbox" d="M6,6H-6V-6H6Z" transform="translate(20,0)" style="stroke-width: 2px; fill: rgb(255, 161, 90); fill-opacity: 0.5; stroke: rgb(255, 161, 90); stroke-opacity: 1;"/></g></g></g><rect class="legendtoggle" x="0" y="-9.5" width="228.78125" height="19" style="fill: rgb(0, 0, 0); fill-opacity: 0;"/></g></g><g class="groups" transform=""><g class="traces" transform="translate(0,127.7)" style="opacity: 1;"><text class="legendtext" text-anchor="start" x="40" y="4.680000000000001" style="font-family: 'Open Sans', verdana, arial, sans-serif; font-size: 12px; fill: rgb(42, 63, 95); fill-opacity: 1; white-space: pre;">between_centroids_intercluster</text><g class="layers" style="opacity: 1;"><g class="legendfill"/><g class="legendlines"/><g class="legendsymbols"><g class="legendpoints"><path class="legendbox" d="M6,6H-6V-6H6Z" transform="translate(20,0)" style="stroke-width: 2px; fill: rgb(25, 211, 243); fill-opacity: 0.5; stroke: rgb(25, 211, 243); stroke-opacity: 1;"/></g></g></g><rect class="legendtoggle" x="0" y="-9.5" width="228.78125" height="19" style="fill: rgb(0, 0, 0); fill-opacity: 0;"/></g></g></g><rect class="scrollbar" rx="20" ry="3" width="0" height="0" style="fill: rgb(128, 139, 164); fill-opacity: 1;" x="0" y="0"/></g><g class="g-gtitle"/><g class="g-xtitle"><text class="xtitle" x="263.5" y="488.175" text-anchor="middle" style="font-family: 'Open Sans', verdana, arial, sans-serif; font-size: 14px; fill: rgb(42, 63, 95); opacity: 1; font-weight: normal; white-space: pre;">cluster_x</text></g><g class="g-ytitle"><text class="ytitle" transform="rotate(-90,37.5125,212)" x="37.5125" y="212" text-anchor="middle" style="font-family: 'Open Sans', verdana, arial, sans-serif; font-size: 14px; fill: rgb(42, 63, 95); opacity: 1; font-weight: normal; white-space: pre;">value</text></g></g></svg>