<?xml version="1.0" encoding="UTF-8" standalone="no"?>
<!DOCTYPE svg PUBLIC "-//W3C//DTD SVG 1.1//EN"
 "http://www.w3.org/Graphics/SVG/1.1/DTD/svg11.dtd">
<!-- Generated by graphviz version 7.0.5 (0)
 -->
<!-- Title: dfg Pages: 1 -->
<svg width="537pt" height="1009pt"
 viewBox="0.00 0.00 537.00 1009.00" xmlns="http://www.w3.org/2000/svg" xmlns:xlink="http://www.w3.org/1999/xlink">
<g id="graph0" class="graph" transform="scale(1 1) rotate(0) translate(4 1005)">
<title>dfg</title>
<polygon fill="white" stroke="none" points="-4,4 -4,-1005 533,-1005 533,4 -4,4"/>
<!-- start_node -->
<g id="node1" class="node">
<title>start_node</title>
<ellipse fill="none" stroke="black" cx="278" cy="-983" rx="18" ry="18"/>
<text text-anchor="start" x="273.5" y="-979.3" font-family="Times,serif" font-size="14.00">●</text>
</g>
<!-- Create Fine -->
<g id="node2" class="node">
<title>Create Fine</title>
<polygon fill="#f2f2ff" stroke="black" points="331,-914 225,-914 225,-878 331,-878 331,-914"/>
<text text-anchor="middle" x="278" y="-892.3" font-family="Times,serif" font-size="14.00">Create Fine (14)</text>
</g>
<!-- start_node&#45;&gt;Create Fine -->
<g id="edge1" class="edge">
<title>start_node&#45;&gt;Create Fine</title>
<path fill="none" stroke="#000000" stroke-width="1.49" d="M278,-964.8C278,-953.81 278,-939.28 278,-926.48"/>
<polygon fill="#000000" stroke="#000000" stroke-width="1.49" points="281.5,-926.73 278,-916.73 274.5,-926.73 281.5,-926.73"/>
<text text-anchor="middle" x="285" y="-935.8" font-family="Times,serif" font-size="14.00">14</text>
</g>
<!-- Send Fine -->
<g id="node3" class="node">
<title>Send Fine</title>
<polygon fill="#f2f2ff" stroke="black" points="327,-827 229,-827 229,-791 327,-791 327,-827"/>
<text text-anchor="middle" x="278" y="-805.3" font-family="Times,serif" font-size="14.00">Send Fine (14)</text>
</g>
<!-- Create Fine&#45;&gt;Send Fine -->
<g id="edge2" class="edge">
<title>Create Fine&#45;&gt;Send Fine</title>
<path fill="none" stroke="#000000" stroke-width="1.49" d="M278,-877.8C278,-866.81 278,-852.28 278,-839.48"/>
<polygon fill="#000000" stroke="#000000" stroke-width="1.49" points="281.5,-839.73 278,-829.73 274.5,-839.73 281.5,-839.73"/>
<text text-anchor="middle" x="285" y="-848.8" font-family="Times,serif" font-size="14.00">14</text>
</g>
<!-- Insert Fine Notification -->
<g id="node4" class="node">
<title>Insert Fine Notification</title>
<polygon fill="#f2f2ff" stroke="black" points="363,-740 193,-740 193,-704 363,-704 363,-740"/>
<text text-anchor="middle" x="278" y="-718.3" font-family="Times,serif" font-size="14.00">Insert Fine Notification (14)</text>
</g>
<!-- Send Fine&#45;&gt;Insert Fine Notification -->
<g id="edge3" class="edge">
<title>Send Fine&#45;&gt;Insert Fine Notification</title>
<path fill="none" stroke="#000000" stroke-width="1.49" d="M278,-790.8C278,-779.81 278,-765.28 278,-752.48"/>
<polygon fill="#000000" stroke="#000000" stroke-width="1.49" points="281.5,-752.73 278,-742.73 274.5,-752.73 281.5,-752.73"/>
<text text-anchor="middle" x="285" y="-761.8" font-family="Times,serif" font-size="14.00">14</text>
</g>
<!-- Add penalty -->
<g id="node5" class="node">
<title>Add penalty</title>
<polygon fill="#f2f2ff" stroke="black" points="333,-653 223,-653 223,-617 333,-617 333,-653"/>
<text text-anchor="middle" x="278" y="-631.3" font-family="Times,serif" font-size="14.00">Add penalty (14)</text>
</g>
<!-- Insert Fine Notification&#45;&gt;Add penalty -->
<g id="edge4" class="edge">
<title>Insert Fine Notification&#45;&gt;Add penalty</title>
<path fill="none" stroke="#000000" stroke-width="0.96" d="M278,-703.8C278,-692.58 278,-677.67 278,-664.69"/>
<polygon fill="#000000" stroke="#000000" stroke-width="0.96" points="281.5,-664.92 278,-654.92 274.5,-664.92 281.5,-664.92"/>
<text text-anchor="middle" x="281.5" y="-674.8" font-family="Times,serif" font-size="14.00">7</text>
</g>
<!-- Insert Date Appeal to Prefecture -->
<g id="node6" class="node">
<title>Insert Date Appeal to Prefecture</title>
<polygon fill="#fafaff" stroke="black" points="212,-566 0,-566 0,-530 212,-530 212,-566"/>
<text text-anchor="middle" x="106" y="-544.3" font-family="Times,serif" font-size="14.00">Insert Date Appeal to Prefecture (8)</text>
</g>
<!-- Insert Fine Notification&#45;&gt;Insert Date Appeal to Prefecture -->
<g id="edge11" class="edge">
<title>Insert Fine Notification&#45;&gt;Insert Date Appeal to Prefecture</title>
<path fill="none" stroke="#000000" stroke-width="0.88" d="M259.47,-703.53C234.79,-680.12 189.94,-637.1 153,-599 145.33,-591.09 137.06,-582.36 129.63,-574.44"/>
<polygon fill="#000000" stroke="#000000" stroke-width="0.88" points="132.27,-572.14 122.88,-567.22 127.15,-576.92 132.27,-572.14"/>
<text text-anchor="middle" x="209.5" y="-631.3" font-family="Times,serif" font-size="14.00">6</text>
</g>
<!-- Appeal to Judge -->
<g id="node11" class="node">
<title>Appeal to Judge</title>
<polygon fill="#ffffff" stroke="black" points="474.5,-479 349.5,-479 349.5,-443 474.5,-443 474.5,-479"/>
<text text-anchor="middle" x="412" y="-457.3" font-family="Times,serif" font-size="14.00">Appeal to Judge (4)</text>
</g>
<!-- Insert Fine Notification&#45;&gt;Appeal to Judge -->
<g id="edge19" class="edge">
<title>Insert Fine Notification&#45;&gt;Appeal to Judge</title>
<path fill="none" stroke="#ff0000" stroke-width="0.5" stroke-dasharray="5,2" d="M357.42,-703.53C412.7,-686.78 482.46,-655.42 517,-599 542.99,-556.56 491.07,-511.53 451.39,-485.13"/>
<polygon fill="#ff0000" stroke="#ff0000" stroke-width="0.5" points="453.32,-482.21 443.02,-479.72 449.52,-488.09 453.32,-482.21"/>
<text text-anchor="middle" x="525.5" y="-587.8" font-family="Times,serif" font-size="14.00">1</text>
</g>
<!-- Add penalty&#45;&gt;Insert Date Appeal to Prefecture -->
<g id="edge5" class="edge">
<title>Add penalty&#45;&gt;Insert Date Appeal to Prefecture</title>
<path fill="none" stroke="#ff0000" stroke-width="0.58" stroke-dasharray="5,2" d="M224.35,-616.6C210.62,-611.51 196.04,-605.53 183,-599 167.83,-591.4 151.97,-581.48 138.6,-572.48"/>
<polygon fill="#ff0000" stroke="#ff0000" stroke-width="0.58" points="140.74,-569.7 130.51,-566.92 136.78,-575.47 140.74,-569.7"/>
<text text-anchor="middle" x="186.5" y="-587.8" font-family="Times,serif" font-size="14.00">2</text>
</g>
<!-- Send Appeal to Prefecture -->
<g id="node7" class="node">
<title>Send Appeal to Prefecture</title>
<polygon fill="#fbfbff" stroke="black" points="295.5,-392 116.5,-392 116.5,-356 295.5,-356 295.5,-392"/>
<text text-anchor="middle" x="206" y="-370.3" font-family="Times,serif" font-size="14.00">Send Appeal to Prefecture (7)</text>
</g>
<!-- Add penalty&#45;&gt;Send Appeal to Prefecture -->
<g id="edge13" class="edge">
<title>Add penalty&#45;&gt;Send Appeal to Prefecture</title>
<path fill="none" stroke="#ff0000" stroke-width="0.5" stroke-dasharray="5,2" d="M270.58,-616.71C268.31,-611.12 265.92,-604.85 264,-599 241.19,-529.45 221.46,-445.42 211.99,-402.76"/>
<polygon fill="#ff0000" stroke="#ff0000" stroke-width="0.5" points="215.43,-402.11 209.87,-393.1 208.6,-403.62 215.43,-402.11"/>
<text text-anchor="middle" x="240.5" y="-500.8" font-family="Times,serif" font-size="14.00">1</text>
</g>
<!-- Payment -->
<g id="node8" class="node">
<title>Payment</title>
<polygon fill="#9b9bff" stroke="black" points="335.5,-131 244.5,-131 244.5,-95 335.5,-95 335.5,-131"/>
<text text-anchor="middle" x="290" y="-109.3" font-family="Times,serif" font-size="14.00">Payment (87)</text>
</g>
<!-- Add penalty&#45;&gt;Payment -->
<g id="edge9" class="edge">
<title>Add penalty&#45;&gt;Payment</title>
<path fill="none" stroke="#000000" stroke-width="1.03" d="M333.33,-624.44C399.95,-611.31 503,-585.17 503,-549 503,-549 503,-549 503,-199 503,-165.34 410.07,-139.06 346.97,-125.1"/>
<polygon fill="#000000" stroke="#000000" stroke-width="1.03" points="348,-121.74 337.49,-123.05 346.52,-128.58 348,-121.74"/>
<text text-anchor="middle" x="506.5" y="-370.3" font-family="Times,serif" font-size="14.00">8</text>
</g>
<!-- Receive Result Appeal from Prefecture -->
<g id="node9" class="node">
<title>Receive Result Appeal from Prefecture</title>
<polygon fill="#ffffff" stroke="black" points="384,-305 134,-305 134,-269 384,-269 384,-305"/>
<text text-anchor="middle" x="259" y="-283.3" font-family="Times,serif" font-size="14.00">Receive Result Appeal from Prefecture (4)</text>
</g>
<!-- Add penalty&#45;&gt;Receive Result Appeal from Prefecture -->
<g id="edge18" class="edge">
<title>Add penalty&#45;&gt;Receive Result Appeal from Prefecture</title>
<path fill="none" stroke="#ff0000" stroke-width="0.65" stroke-dasharray="5,2" d="M294.09,-616.58C307.35,-600.35 324,-574.84 324,-549 324,-549 324,-549 324,-373 324,-349.05 307.52,-327.67 291.15,-312.34"/>
<polygon fill="#ff0000" stroke="#ff0000" stroke-width="0.65" points="293.76,-309.97 283.94,-305.97 289.12,-315.22 293.76,-309.97"/>
<text text-anchor="middle" x="327.5" y="-457.3" font-family="Times,serif" font-size="14.00">3</text>
</g>
<!-- Insert Date Appeal to Prefecture&#45;&gt;Add penalty -->
<g id="edge12" class="edge">
<title>Insert Date Appeal to Prefecture&#45;&gt;Add penalty</title>
<path fill="none" stroke="#ff0000" stroke-width="0.5" stroke-dasharray="5,2" d="M150.48,-566.35C163.37,-571.7 177.37,-577.81 190,-584 206.86,-592.26 224.97,-602.34 240.35,-611.27"/>
<polygon fill="#ff0000" stroke="#ff0000" stroke-width="0.5" points="238.49,-614.24 248.89,-616.28 242.03,-608.2 238.49,-614.24"/>
<text text-anchor="middle" x="220.5" y="-587.8" font-family="Times,serif" font-size="14.00">1</text>
</g>
<!-- Insert Date Appeal to Prefecture&#45;&gt;Send Appeal to Prefecture -->
<g id="edge6" class="edge">
<title>Insert Date Appeal to Prefecture&#45;&gt;Send Appeal to Prefecture</title>
<path fill="none" stroke="#000000" stroke-width="0.81" d="M116.14,-529.56C133.66,-499.43 169.71,-437.43 190.42,-401.79"/>
<polygon fill="#000000" stroke="#000000" stroke-width="0.81" points="193.22,-403.94 195.22,-393.54 187.17,-400.42 193.22,-403.94"/>
<text text-anchor="middle" x="169.5" y="-457.3" font-family="Times,serif" font-size="14.00">5</text>
</g>
<!-- Insert Date Appeal to Prefecture&#45;&gt;Payment -->
<g id="edge10" class="edge">
<title>Insert Date Appeal to Prefecture&#45;&gt;Payment</title>
<path fill="none" stroke="#ff0000" stroke-width="0.5" stroke-dasharray="5,2" d="M93.13,-529.77C82.11,-513.26 68,-487.22 68,-462 68,-462 68,-462 68,-199 68,-163.55 167.99,-137.4 233.76,-124.03"/>
<polygon fill="#ff0000" stroke="#ff0000" stroke-width="0.5" points="234.13,-127.52 243.26,-122.14 232.77,-120.66 234.13,-127.52"/>
<text text-anchor="middle" x="71.5" y="-326.8" font-family="Times,serif" font-size="14.00">1</text>
</g>
<!-- Insert Date Appeal to Prefecture&#45;&gt;Appeal to Judge -->
<g id="edge22" class="edge">
<title>Insert Date Appeal to Prefecture&#45;&gt;Appeal to Judge</title>
<path fill="none" stroke="#ff0000" stroke-width="0.5" stroke-dasharray="5,2" d="M136.26,-529.59C156.73,-518.58 184.72,-504.96 211,-497 264.29,-480.85 280.22,-489.01 335,-479 336.29,-478.76 337.59,-478.52 338.89,-478.28"/>
<polygon fill="#ff0000" stroke="#ff0000" stroke-width="0.5" points="339.16,-481.79 348.3,-476.44 337.82,-474.92 339.16,-481.79"/>
<text text-anchor="middle" x="214.5" y="-500.8" font-family="Times,serif" font-size="14.00">1</text>
</g>
<!-- Send Appeal to Prefecture&#45;&gt;Add penalty -->
<g id="edge17" class="edge">
<title>Send Appeal to Prefecture&#45;&gt;Add penalty</title>
<path fill="none" stroke="#ff0000" stroke-width="0.73" stroke-dasharray="5,2" d="M218.73,-392.23C222.4,-397.72 226.16,-403.94 229,-410 235.5,-423.88 234.82,-428.26 239,-443 249.91,-481.48 253.84,-490.85 262,-530 267.32,-555.5 271.67,-584.86 274.49,-605.87"/>
<polygon fill="#ff0000" stroke="#ff0000" stroke-width="0.73" points="270.99,-606.05 275.75,-615.51 277.93,-605.14 270.99,-606.05"/>
<text text-anchor="middle" x="261.5" y="-500.8" font-family="Times,serif" font-size="14.00">4</text>
</g>
<!-- Send Appeal to Prefecture&#45;&gt;Payment -->
<g id="edge7" class="edge">
<title>Send Appeal to Prefecture&#45;&gt;Payment</title>
<path fill="none" stroke="#ff0000" stroke-width="0.5" stroke-dasharray="5,2" d="M173.78,-355.52C155.82,-343.83 135.09,-326.63 125,-305 118.24,-290.5 121.08,-284.51 125,-269 135.77,-226.39 141.35,-213.5 172,-182 190.61,-162.87 215.75,-147.39 238.04,-136.06"/>
<polygon fill="#ff0000" stroke="#ff0000" stroke-width="0.5" points="239.29,-139.35 246.72,-131.79 236.2,-133.07 239.29,-139.35"/>
<text text-anchor="middle" x="138.5" y="-239.8" font-family="Times,serif" font-size="14.00">1</text>
</g>
<!-- Send Appeal to Prefecture&#45;&gt;Receive Result Appeal from Prefecture -->
<g id="edge14" class="edge">
<title>Send Appeal to Prefecture&#45;&gt;Receive Result Appeal from Prefecture</title>
<path fill="none" stroke="#ff0000" stroke-width="0.5" stroke-dasharray="5,2" d="M216.73,-355.8C224.15,-343.9 234.16,-327.83 242.59,-314.32"/>
<polygon fill="#ff0000" stroke="#ff0000" stroke-width="0.5" points="245.39,-316.45 247.71,-306.11 239.45,-312.74 245.39,-316.45"/>
<text text-anchor="middle" x="238.5" y="-326.8" font-family="Times,serif" font-size="14.00">1</text>
</g>
<!-- Send Appeal to Prefecture&#45;&gt;Appeal to Judge -->
<g id="edge21" class="edge">
<title>Send Appeal to Prefecture&#45;&gt;Appeal to Judge</title>
<path fill="none" stroke="#ff0000" stroke-width="0.5" stroke-dasharray="5,2" d="M248.9,-392.38C262.67,-397.98 277.99,-404.23 292,-410 314.52,-419.27 339.38,-429.61 360.6,-438.47"/>
<polygon fill="#ff0000" stroke="#ff0000" stroke-width="0.5" points="359.11,-441.64 369.69,-442.27 361.81,-435.18 359.11,-441.64"/>
<text text-anchor="middle" x="327.5" y="-413.8" font-family="Times,serif" font-size="14.00">1</text>
</g>
<!-- Payment&#45;&gt;Payment -->
<g id="edge8" class="edge">
<title>Payment&#45;&gt;Payment</title>
<path fill="none" stroke="#000000" stroke-width="6" d="M335.95,-120.94C346.1,-120.19 353.5,-117.55 353.5,-113 353.5,-111.58 352.78,-110.34 351.47,-109.3"/>
<polygon fill="#000000" stroke="#000000" stroke-width="6" points="353.21,-104.33 342.18,-106.76 350.44,-114.46 353.21,-104.33"/>
<text text-anchor="middle" x="360.5" y="-109.3" font-family="Times,serif" font-size="14.00">73</text>
</g>
<!-- end_node -->
<g id="node12" class="node">
<title>end_node</title>
<ellipse fill="none" stroke="black" cx="290" cy="-22" rx="18" ry="18"/>
<ellipse fill="none" stroke="black" cx="290" cy="-22" rx="22" ry="22"/>
<text text-anchor="start" x="285.5" y="-18.3" font-family="Times,serif" font-size="14.00">■</text>
</g>
<!-- Payment&#45;&gt;end_node -->
<g id="edge26" class="edge">
<title>Payment&#45;&gt;end_node</title>
<path fill="none" stroke="#000000" stroke-width="1.49" d="M290,-94.84C290,-83.89 290,-69.34 290,-56.2"/>
<polygon fill="#000000" stroke="#000000" stroke-width="1.49" points="293.5,-56.45 290,-46.45 286.5,-56.45 293.5,-56.45"/>
<text text-anchor="middle" x="297" y="-65.8" font-family="Times,serif" font-size="14.00">14</text>
</g>
<!-- Notify Result Appeal to Offender -->
<g id="node10" class="node">
<title>Notify Result Appeal to Offender</title>
<polygon fill="#ffffff" stroke="black" points="399,-218 181,-218 181,-182 399,-182 399,-218"/>
<text text-anchor="middle" x="290" y="-196.3" font-family="Times,serif" font-size="14.00">Notify Result Appeal to Offender (4)</text>
</g>
<!-- Receive Result Appeal from Prefecture&#45;&gt;Notify Result Appeal to Offender -->
<g id="edge15" class="edge">
<title>Receive Result Appeal from Prefecture&#45;&gt;Notify Result Appeal to Offender</title>
<path fill="none" stroke="#ff0000" stroke-width="0.73" stroke-dasharray="5,2" d="M265.27,-268.8C269.45,-257.35 275.03,-242.06 279.83,-228.89"/>
<polygon fill="#ff0000" stroke="#ff0000" stroke-width="0.73" points="283.11,-230.1 283.25,-219.5 276.54,-227.7 283.11,-230.1"/>
<text text-anchor="middle" x="279.5" y="-239.8" font-family="Times,serif" font-size="14.00">4</text>
</g>
<!-- Notify Result Appeal to Offender&#45;&gt;Payment -->
<g id="edge16" class="edge">
<title>Notify Result Appeal to Offender&#45;&gt;Payment</title>
<path fill="none" stroke="#ff0000" stroke-width="0.65" stroke-dasharray="5,2" d="M290,-181.8C290,-170.47 290,-155.36 290,-142.29"/>
<polygon fill="#ff0000" stroke="#ff0000" stroke-width="0.65" points="293.5,-142.46 290,-132.46 286.5,-142.46 293.5,-142.46"/>
<text text-anchor="middle" x="293.5" y="-152.8" font-family="Times,serif" font-size="14.00">3</text>
</g>
<!-- Notify Result Appeal to Offender&#45;&gt;Appeal to Judge -->
<g id="edge24" class="edge">
<title>Notify Result Appeal to Offender&#45;&gt;Appeal to Judge</title>
<path fill="none" stroke="#ff0000" stroke-width="0.5" stroke-dasharray="5,2" d="M332.96,-218.45C354.67,-229.59 379.27,-246.25 393,-269 423.73,-319.89 420.86,-392.6 416.29,-432.01"/>
<polygon fill="#ff0000" stroke="#ff0000" stroke-width="0.5" points="412.82,-431.54 415.02,-441.91 419.77,-432.43 412.82,-431.54"/>
<text text-anchor="middle" x="418.5" y="-326.8" font-family="Times,serif" font-size="14.00">1</text>
</g>
<!-- Appeal to Judge&#45;&gt;Add penalty -->
<g id="edge20" class="edge">
<title>Appeal to Judge&#45;&gt;Add penalty</title>
<path fill="none" stroke="#ff0000" stroke-width="0.58" stroke-dasharray="5,2" d="M406.11,-479.48C395.94,-507.52 372.78,-563.06 338,-599 333.91,-603.22 329.2,-607.11 324.26,-610.63"/>
<polygon fill="#ff0000" stroke="#ff0000" stroke-width="0.58" points="322.37,-607.69 315.93,-616.09 326.21,-613.54 322.37,-607.69"/>
<text text-anchor="middle" x="386.5" y="-544.3" font-family="Times,serif" font-size="14.00">2</text>
</g>
<!-- Appeal to Judge&#45;&gt;Send Appeal to Prefecture -->
<g id="edge23" class="edge">
<title>Appeal to Judge&#45;&gt;Send Appeal to Prefecture</title>
<path fill="none" stroke="#ff0000" stroke-width="0.5" stroke-dasharray="5,2" d="M389.49,-442.7C374.68,-432.01 354.5,-418.72 335,-410 322.68,-404.49 309.29,-399.68 295.97,-395.53"/>
<polygon fill="#ff0000" stroke="#ff0000" stroke-width="0.5" points="297.11,-392.22 286.53,-392.7 295.11,-398.93 297.11,-392.22"/>
<text text-anchor="middle" x="364.5" y="-413.8" font-family="Times,serif" font-size="14.00">1</text>
</g>
<!-- Appeal to Judge&#45;&gt;Payment -->
<g id="edge25" class="edge">
<title>Appeal to Judge&#45;&gt;Payment</title>
<path fill="none" stroke="#ff0000" stroke-width="0.5" stroke-dasharray="5,2" d="M423.56,-442.51C426.55,-437.12 429.38,-431.01 431,-425 434.83,-410.83 431.78,-406.67 432,-392 433.42,-298.07 460.46,-259.93 408,-182 393.1,-159.86 368.39,-144.03 345.43,-133.24"/>
<polygon fill="#ff0000" stroke="#ff0000" stroke-width="0.5" points="346.98,-130.1 336.42,-129.23 344.14,-136.49 346.98,-130.1"/>
<text text-anchor="middle" x="443.5" y="-283.3" font-family="Times,serif" font-size="14.00">1</text>
</g>
</g>
</svg>
