<?xml version="1.0" encoding="UTF-8" standalone="no"?>
<!DOCTYPE svg PUBLIC "-//W3C//DTD SVG 1.1//EN"
 "http://www.w3.org/Graphics/SVG/1.1/DTD/svg11.dtd">
<!-- Generated by graphviz version 7.0.5 (0)
 -->
<!-- Title: dfg Pages: 1 -->
<svg width="832pt" height="1009pt"
 viewBox="0.00 0.00 831.74 1009.00" xmlns="http://www.w3.org/2000/svg" xmlns:xlink="http://www.w3.org/1999/xlink">
<g id="graph0" class="graph" transform="scale(1 1) rotate(0) translate(4 1005)">
<title>dfg</title>
<polygon fill="white" stroke="none" points="-4,4 -4,-1005 827.74,-1005 827.74,4 -4,4"/>
<!-- start_node -->
<g id="node1" class="node">
<title>start_node</title>
<ellipse fill="none" stroke="black" cx="596.74" cy="-983" rx="18" ry="18"/>
<text text-anchor="start" x="592.24" y="-979.3" font-family="Times,serif" font-size="14.00">●</text>
</g>
<!-- Create Fine -->
<g id="node2" class="node">
<title>Create Fine</title>
<polygon fill="#9b9bff" stroke="black" points="656.24,-914 537.24,-914 537.24,-878 656.24,-878 656.24,-914"/>
<text text-anchor="middle" x="596.74" y="-892.3" font-family="Times,serif" font-size="14.00">Create Fine (1095)</text>
</g>
<!-- start_node&#45;&gt;Create Fine -->
<g id="edge1" class="edge">
<title>start_node&#45;&gt;Create Fine</title>
<path fill="none" stroke="#000000" stroke-width="6.02" d="M596.74,-964.8C596.74,-954.96 596.74,-942.27 596.74,-930.53"/>
<polygon fill="#000000" stroke="#000000" stroke-width="6.02" points="602.01,-930.93 596.74,-920.93 591.47,-930.93 602.01,-930.93"/>
<text text-anchor="middle" x="610.74" y="-935.8" font-family="Times,serif" font-size="14.00">1095</text>
</g>
<!-- Send Fine -->
<g id="node3" class="node">
<title>Send Fine</title>
<polygon fill="#9b9bff" stroke="black" points="652.24,-827 541.24,-827 541.24,-791 652.24,-791 652.24,-827"/>
<text text-anchor="middle" x="596.74" y="-805.3" font-family="Times,serif" font-size="14.00">Send Fine (1095)</text>
</g>
<!-- Create Fine&#45;&gt;Send Fine -->
<g id="edge2" class="edge">
<title>Create Fine&#45;&gt;Send Fine</title>
<path fill="none" stroke="#000000" stroke-width="6" d="M596.74,-877.8C596.74,-867.96 596.74,-855.27 596.74,-843.53"/>
<polygon fill="#000000" stroke="#000000" stroke-width="6" points="601.99,-843.92 596.74,-833.92 591.49,-843.92 601.99,-843.92"/>
<text text-anchor="middle" x="610.74" y="-848.8" font-family="Times,serif" font-size="14.00">1091</text>
</g>
<!-- Insert Date Appeal to Prefecture -->
<g id="node5" class="node">
<title>Insert Date Appeal to Prefecture</title>
<polygon fill="#9b9bff" stroke="black" points="612.74,-653 380.74,-653 380.74,-617 612.74,-617 612.74,-653"/>
<text text-anchor="middle" x="496.74" y="-631.3" font-family="Times,serif" font-size="14.00">Insert Date Appeal to Prefecture (1095)</text>
</g>
<!-- Create Fine&#45;&gt;Insert Date Appeal to Prefecture -->
<g id="edge17" class="edge">
<title>Create Fine&#45;&gt;Insert Date Appeal to Prefecture</title>
<path fill="none" stroke="#ff0000" stroke-width="0.51" stroke-dasharray="5,2" d="M576.76,-877.55C562.96,-864.67 544.97,-846.12 532.74,-827 497.65,-772.12 495.75,-751.07 492.74,-686 492.43,-679.34 492.36,-677.66 492.74,-671 492.87,-668.76 493.04,-666.44 493.24,-664.11"/>
<polygon fill="#ff0000" stroke="#ff0000" stroke-width="0.51" points="496.72,-664.49 494.28,-654.18 489.76,-663.77 496.72,-664.49"/>
<text text-anchor="middle" x="508.24" y="-761.8" font-family="Times,serif" font-size="14.00">3</text>
</g>
<!-- Payment -->
<g id="node8" class="node">
<title>Payment</title>
<polygon fill="#fcfcff" stroke="black" points="458.24,-131 367.24,-131 367.24,-95 458.24,-95 458.24,-131"/>
<text text-anchor="middle" x="412.74" y="-109.3" font-family="Times,serif" font-size="14.00">Payment (24)</text>
</g>
<!-- Create Fine&#45;&gt;Payment -->
<g id="edge31" class="edge">
<title>Create Fine&#45;&gt;Payment</title>
<path fill="none" stroke="#ff0000" stroke-width="0.5" stroke-dasharray="5,2" d="M656.57,-884.03C721.71,-870.33 816.74,-844.45 816.74,-810 816.74,-810 816.74,-810 816.74,-199 816.74,-128.85 580.57,-116.28 469.37,-114.25"/>
<polygon fill="#ff0000" stroke="#ff0000" stroke-width="0.5" points="469.5,-110.75 459.45,-114.09 469.39,-117.75 469.5,-110.75"/>
<text text-anchor="middle" x="820.24" y="-500.8" font-family="Times,serif" font-size="14.00">1</text>
</g>
<!-- Insert Fine Notification -->
<g id="node4" class="node">
<title>Insert Fine Notification</title>
<polygon fill="#9e9eff" stroke="black" points="750.74,-740 566.74,-740 566.74,-704 750.74,-704 750.74,-740"/>
<text text-anchor="middle" x="658.74" y="-718.3" font-family="Times,serif" font-size="14.00">Insert Fine Notification (1061)</text>
</g>
<!-- Send Fine&#45;&gt;Insert Fine Notification -->
<g id="edge3" class="edge">
<title>Send Fine&#45;&gt;Insert Fine Notification</title>
<path fill="none" stroke="#000000" stroke-width="5.83" d="M609.29,-790.8C617.05,-780.15 627.24,-766.18 636.36,-753.69"/>
<polygon fill="#000000" stroke="#000000" stroke-width="5.83" points="640.45,-756.73 642.22,-745.65 632.21,-750.72 640.45,-756.73"/>
<text text-anchor="middle" x="644.74" y="-761.8" font-family="Times,serif" font-size="14.00">1057</text>
</g>
<!-- Send Fine&#45;&gt;Insert Date Appeal to Prefecture -->
<g id="edge12" class="edge">
<title>Send Fine&#45;&gt;Insert Date Appeal to Prefecture</title>
<path fill="none" stroke="#ff0000" stroke-width="0.69" stroke-dasharray="5,2" d="M581.34,-790.66C570.05,-777.39 554.8,-758.32 543.74,-740 528.76,-715.19 515.55,-684.77 506.98,-663.26"/>
<polygon fill="#ff0000" stroke="#ff0000" stroke-width="0.69" points="510.33,-662.2 503.43,-654.16 503.81,-664.75 510.33,-662.2"/>
<text text-anchor="middle" x="550.74" y="-718.3" font-family="Times,serif" font-size="14.00">38</text>
</g>
<!-- Insert Fine Notification&#45;&gt;Insert Date Appeal to Prefecture -->
<g id="edge4" class="edge">
<title>Insert Fine Notification&#45;&gt;Insert Date Appeal to Prefecture</title>
<path fill="none" stroke="#000000" stroke-width="5" d="M634.48,-703.58C619.66,-693.37 600.09,-680.63 581.74,-671 574.24,-667.06 566.2,-663.26 558.16,-659.69"/>
<polygon fill="#000000" stroke="#000000" stroke-width="5" points="559.98,-655.71 549.07,-655.81 556.55,-663.76 559.98,-655.71"/>
<text text-anchor="middle" x="616.24" y="-674.8" font-family="Times,serif" font-size="14.00">893</text>
</g>
<!-- Add penalty -->
<g id="node6" class="node">
<title>Add penalty</title>
<polygon fill="#9e9eff" stroke="black" points="504.24,-218 381.24,-218 381.24,-182 504.24,-182 504.24,-218"/>
<text text-anchor="middle" x="442.74" y="-196.3" font-family="Times,serif" font-size="14.00">Add penalty (1061)</text>
</g>
<!-- Insert Fine Notification&#45;&gt;Add penalty -->
<g id="edge7" class="edge">
<title>Insert Fine Notification&#45;&gt;Add penalty</title>
<path fill="none" stroke="#000000" stroke-width="1.32" d="M667.06,-703.53C674.34,-686.65 683.74,-660.15 683.74,-636 683.74,-636 683.74,-636 683.74,-286 683.74,-250.01 586.97,-225.5 516.07,-212.38"/>
<polygon fill="#000000" stroke="#000000" stroke-width="1.32" points="516.92,-208.97 506.45,-210.64 515.67,-215.86 516.92,-208.97"/>
<text text-anchor="middle" x="694.24" y="-457.3" font-family="Times,serif" font-size="14.00">163</text>
</g>
<!-- Insert Fine Notification&#45;&gt;Payment -->
<g id="edge34" class="edge">
<title>Insert Fine Notification&#45;&gt;Payment</title>
<path fill="none" stroke="#ff0000" stroke-width="0.5" stroke-dasharray="5,2" d="M687.56,-703.54C708.34,-688.52 732.74,-664.76 732.74,-636 732.74,-636 732.74,-636 732.74,-199 732.74,-145.09 560.94,-124.55 469.11,-117.42"/>
<polygon fill="#ff0000" stroke="#ff0000" stroke-width="0.5" points="469.58,-113.94 459.34,-116.69 469.05,-120.92 469.58,-113.94"/>
<text text-anchor="middle" x="736.24" y="-413.8" font-family="Times,serif" font-size="14.00">1</text>
</g>
<!-- Appeal to Judge -->
<g id="node9" class="node">
<title>Appeal to Judge</title>
<polygon fill="#fefeff" stroke="black" points="533.24,-392 408.24,-392 408.24,-356 533.24,-356 533.24,-392"/>
<text text-anchor="middle" x="470.74" y="-370.3" font-family="Times,serif" font-size="14.00">Appeal to Judge (6)</text>
</g>
<!-- Insert Fine Notification&#45;&gt;Appeal to Judge -->
<g id="edge13" class="edge">
<title>Insert Fine Notification&#45;&gt;Appeal to Judge</title>
<path fill="none" stroke="#ff0000" stroke-width="0.52" stroke-dasharray="5,2" d="M660.05,-703.81C663,-651.94 664.47,-495.33 583.74,-410 572.91,-398.56 558.43,-390.83 543.46,-385.62"/>
<polygon fill="#ff0000" stroke="#ff0000" stroke-width="0.52" points="544.91,-382.4 534.32,-382.77 542.83,-389.09 544.91,-382.4"/>
<text text-anchor="middle" x="655.24" y="-544.3" font-family="Times,serif" font-size="14.00">4</text>
</g>
<!-- Insert Date Appeal to Prefecture&#45;&gt;Send Fine -->
<g id="edge18" class="edge">
<title>Insert Date Appeal to Prefecture&#45;&gt;Send Fine</title>
<path fill="none" stroke="#ff0000" stroke-width="0.51" stroke-dasharray="5,2" d="M496.08,-653.37C496.01,-675.02 498.41,-712.52 513.74,-740 523.85,-758.12 540.87,-773.34 556.88,-784.76"/>
<polygon fill="#ff0000" stroke="#ff0000" stroke-width="0.51" points="554.74,-787.54 564.98,-790.27 558.68,-781.75 554.74,-787.54"/>
<text text-anchor="middle" x="517.24" y="-718.3" font-family="Times,serif" font-size="14.00">3</text>
</g>
<!-- Insert Date Appeal to Prefecture&#45;&gt;Insert Fine Notification -->
<g id="edge15" class="edge">
<title>Insert Date Appeal to Prefecture&#45;&gt;Insert Fine Notification</title>
<path fill="none" stroke="#ff0000" stroke-width="0.52" stroke-dasharray="5,2" d="M522.22,-653.27C540.49,-665.51 563.58,-680.67 573.74,-686 582.86,-690.78 592.77,-695.38 602.51,-699.58"/>
<polygon fill="#ff0000" stroke="#ff0000" stroke-width="0.52" points="600.86,-702.68 611.43,-703.33 603.57,-696.23 600.86,-702.68"/>
<text text-anchor="middle" x="577.24" y="-674.8" font-family="Times,serif" font-size="14.00">4</text>
</g>
<!-- Insert Date Appeal to Prefecture&#45;&gt;Add penalty -->
<g id="edge5" class="edge">
<title>Insert Date Appeal to Prefecture&#45;&gt;Add penalty</title>
<path fill="none" stroke="#000000" stroke-width="4.92" d="M520.94,-616.68C539.42,-601.26 561.74,-576.87 561.74,-549 561.74,-549 561.74,-549 561.74,-286 561.74,-258.17 539.93,-238.59 514.98,-225.3"/>
<polygon fill="#000000" stroke="#000000" stroke-width="4.92" points="516.99,-221.49 506.11,-221.05 513.27,-229.25 516.99,-221.49"/>
<text text-anchor="middle" x="572.24" y="-413.8" font-family="Times,serif" font-size="14.00">877</text>
</g>
<!-- Send Appeal to Prefecture -->
<g id="node7" class="node">
<title>Send Appeal to Prefecture</title>
<polygon fill="#9b9bff" stroke="black" points="388.24,-305 189.24,-305 189.24,-269 388.24,-269 388.24,-305"/>
<text text-anchor="middle" x="288.74" y="-283.3" font-family="Times,serif" font-size="14.00">Send Appeal to Prefecture (1095)</text>
</g>
<!-- Insert Date Appeal to Prefecture&#45;&gt;Send Appeal to Prefecture -->
<g id="edge9" class="edge">
<title>Insert Date Appeal to Prefecture&#45;&gt;Send Appeal to Prefecture</title>
<path fill="none" stroke="#000000" stroke-width="1.53" d="M490.69,-616.81C475.69,-574.94 436.08,-469.22 409.74,-443 395.92,-429.25 384.27,-438 369.74,-425 335.93,-394.75 312.17,-346.94 299.47,-316.54"/>
<polygon fill="#000000" stroke="#000000" stroke-width="1.53" points="302.85,-315.56 295.87,-307.59 296.36,-318.17 302.85,-315.56"/>
<text text-anchor="middle" x="444.24" y="-457.3" font-family="Times,serif" font-size="14.00">205</text>
</g>
<!-- Insert Date Appeal to Prefecture&#45;&gt;Payment -->
<g id="edge10" class="edge">
<title>Insert Date Appeal to Prefecture&#45;&gt;Payment</title>
<path fill="none" stroke="#ff0000" stroke-width="0.52" stroke-dasharray="5,2" d="M380.39,-634.1C255,-631.44 67.24,-618.48 21.74,-566 5.62,-547.41 -19.7,-510.22 26.74,-410 93.22,-266.54 268.93,-174.59 358.53,-135.55"/>
<polygon fill="#ff0000" stroke="#ff0000" stroke-width="0.52" points="359.71,-138.85 367.52,-131.69 356.95,-132.42 359.71,-138.85"/>
<text text-anchor="middle" x="62.24" y="-370.3" font-family="Times,serif" font-size="14.00">4</text>
</g>
<!-- Insert Date Appeal to Prefecture&#45;&gt;Appeal to Judge -->
<g id="edge33" class="edge">
<title>Insert Date Appeal to Prefecture&#45;&gt;Appeal to Judge</title>
<path fill="none" stroke="#ff0000" stroke-width="0.5" stroke-dasharray="5,2" d="M502.7,-616.76C504.35,-611.16 505.92,-604.88 506.74,-599 507.66,-592.4 506.99,-590.66 506.74,-584 503.87,-506.35 513.37,-484.02 489.74,-410 488.86,-407.25 487.77,-404.47 486.55,-401.74"/>
<polygon fill="#ff0000" stroke="#ff0000" stroke-width="0.5" points="489.72,-400.26 482.1,-392.9 483.47,-403.41 489.72,-400.26"/>
<text text-anchor="middle" x="510.24" y="-500.8" font-family="Times,serif" font-size="14.00">1</text>
</g>
<!-- Receive Result Appeal from Prefecture -->
<g id="node10" class="node">
<title>Receive Result Appeal from Prefecture</title>
<polygon fill="#fcfcff" stroke="black" points="288.24,-566 31.24,-566 31.24,-530 288.24,-530 288.24,-566"/>
<text text-anchor="middle" x="159.74" y="-544.3" font-family="Times,serif" font-size="14.00">Receive Result Appeal from Prefecture (25)</text>
</g>
<!-- Insert Date Appeal to Prefecture&#45;&gt;Receive Result Appeal from Prefecture -->
<g id="edge23" class="edge">
<title>Insert Date Appeal to Prefecture&#45;&gt;Receive Result Appeal from Prefecture</title>
<path fill="none" stroke="#ff0000" stroke-width="0.5" stroke-dasharray="5,2" d="M427.73,-616.59C372.96,-602.78 296.34,-583.45 239.05,-569"/>
<polygon fill="#ff0000" stroke="#ff0000" stroke-width="0.5" points="240.23,-565.69 229.68,-566.64 238.52,-572.48 240.23,-565.69"/>
<text text-anchor="middle" x="352.24" y="-587.8" font-family="Times,serif" font-size="14.00">1</text>
</g>
<!-- Add penalty&#45;&gt;Insert Date Appeal to Prefecture -->
<g id="edge8" class="edge">
<title>Add penalty&#45;&gt;Insert Date Appeal to Prefecture</title>
<path fill="none" stroke="#000000" stroke-width="1.3" d="M504.46,-212.46C521.56,-217.68 539.36,-225.2 553.74,-236 567.84,-246.59 569.98,-252.34 575.74,-269 618.88,-393.75 607.58,-438.41 573.74,-566 569.61,-581.57 569.62,-587.12 558.74,-599 555.02,-603.06 550.72,-606.76 546.15,-610.12"/>
<polygon fill="#000000" stroke="#000000" stroke-width="1.3" points="544.55,-606.98 538.14,-615.42 548.41,-612.82 544.55,-606.98"/>
<text text-anchor="middle" x="614.24" y="-413.8" font-family="Times,serif" font-size="14.00">159</text>
</g>
<!-- Add penalty&#45;&gt;Send Appeal to Prefecture -->
<g id="edge6" class="edge">
<title>Add penalty&#45;&gt;Send Appeal to Prefecture</title>
<path fill="none" stroke="#000000" stroke-width="4.94" d="M382.26,-218.47C369.45,-223.29 356.31,-229.13 344.74,-236 334.65,-241.99 324.73,-249.95 316.11,-257.76"/>
<polygon fill="#000000" stroke="#000000" stroke-width="4.94" points="313.28,-254.49 309.04,-264.53 319.25,-260.73 313.28,-254.49"/>
<text text-anchor="middle" x="355.24" y="-239.8" font-family="Times,serif" font-size="14.00">880</text>
</g>
<!-- Add penalty&#45;&gt;Payment -->
<g id="edge21" class="edge">
<title>Add penalty&#45;&gt;Payment</title>
<path fill="none" stroke="#ff0000" stroke-width="0.54" stroke-dasharray="5,2" d="M426.18,-181.73C422.04,-176.44 418.11,-170.32 415.74,-164 413.15,-157.08 411.94,-149.24 411.5,-141.86"/>
<polygon fill="#ff0000" stroke="#ff0000" stroke-width="0.54" points="415,-141.93 411.33,-131.99 408,-142.05 415,-141.93"/>
<text text-anchor="middle" x="419.24" y="-152.8" font-family="Times,serif" font-size="14.00">8</text>
</g>
<!-- Add penalty&#45;&gt;Receive Result Appeal from Prefecture -->
<g id="edge27" class="edge">
<title>Add penalty&#45;&gt;Receive Result Appeal from Prefecture</title>
<path fill="none" stroke="#ff0000" stroke-width="0.57" stroke-dasharray="5,2" d="M441.86,-218.31C439.55,-246.61 431.16,-303.14 400.74,-338 327.65,-421.75 239.74,-353.55 173.74,-443 157.64,-464.82 155.53,-496.43 156.58,-519.06"/>
<polygon fill="#ff0000" stroke="#ff0000" stroke-width="0.57" points="153.08,-519.09 157.28,-528.82 160.06,-518.6 153.08,-519.09"/>
<text text-anchor="middle" x="388.74" y="-370.3" font-family="Times,serif" font-size="14.00">14</text>
</g>
<!-- Send Appeal to Prefecture&#45;&gt;Add penalty -->
<g id="edge29" class="edge">
<title>Send Appeal to Prefecture&#45;&gt;Add penalty</title>
<path fill="none" stroke="#ff0000" stroke-width="0.58" stroke-dasharray="5,2" d="M330.07,-268.6C341.78,-263.3 354.41,-257.22 365.74,-251 376.44,-245.12 378.51,-242.65 388.74,-236 394.66,-232.15 400.94,-228.08 407.05,-224.11"/>
<polygon fill="#ff0000" stroke="#ff0000" stroke-width="0.58" points="408.59,-227.28 415.08,-218.91 404.79,-221.41 408.59,-227.28"/>
<text text-anchor="middle" x="395.74" y="-239.8" font-family="Times,serif" font-size="14.00">16</text>
</g>
<!-- Send Appeal to Prefecture&#45;&gt;Payment -->
<g id="edge20" class="edge">
<title>Send Appeal to Prefecture&#45;&gt;Payment</title>
<path fill="none" stroke="#ff0000" stroke-width="0.53" stroke-dasharray="5,2" d="M301.07,-268.87C308.02,-259.22 316.86,-246.93 324.74,-236 348.67,-202.79 376.29,-164.51 394.11,-139.82"/>
<polygon fill="#ff0000" stroke="#ff0000" stroke-width="0.53" points="396.72,-142.17 399.74,-132.02 391.05,-138.08 396.72,-142.17"/>
<text text-anchor="middle" x="367.24" y="-196.3" font-family="Times,serif" font-size="14.00">6</text>
</g>
<!-- Send Appeal to Prefecture&#45;&gt;Receive Result Appeal from Prefecture -->
<g id="edge16" class="edge">
<title>Send Appeal to Prefecture&#45;&gt;Receive Result Appeal from Prefecture</title>
<path fill="none" stroke="#ff0000" stroke-width="0.55" stroke-dasharray="5,2" d="M262.46,-305.49C226.96,-330.89 165.31,-381.7 140.74,-443 129.33,-471.47 133.19,-482.28 140.74,-512 141.41,-514.64 142.32,-517.29 143.39,-519.9"/>
<polygon fill="#ff0000" stroke="#ff0000" stroke-width="0.55" points="140.19,-521.33 147.71,-528.8 146.49,-518.28 140.19,-521.33"/>
<text text-anchor="middle" x="164.74" y="-413.8" font-family="Times,serif" font-size="14.00">10</text>
</g>
<!-- end_node -->
<g id="node12" class="node">
<title>end_node</title>
<ellipse fill="none" stroke="black" cx="120.74" cy="-22" rx="18" ry="18"/>
<ellipse fill="none" stroke="black" cx="120.74" cy="-22" rx="22" ry="22"/>
<text text-anchor="start" x="116.24" y="-18.3" font-family="Times,serif" font-size="14.00">■</text>
</g>
<!-- Send Appeal to Prefecture&#45;&gt;end_node -->
<g id="edge35" class="edge">
<title>Send Appeal to Prefecture&#45;&gt;end_node</title>
<path fill="none" stroke="#000000" stroke-width="5.86" d="M277.72,-268.74C249.91,-225.21 176.58,-110.41 140.86,-54.5"/>
<polygon fill="#000000" stroke="#000000" stroke-width="5.86" points="145.41,-52.09 135.7,-46.42 136.77,-57.61 145.41,-52.09"/>
<text text-anchor="middle" x="224.74" y="-152.8" font-family="Times,serif" font-size="14.00">1063</text>
</g>
<!-- Payment&#45;&gt;Send Fine -->
<g id="edge32" class="edge">
<title>Payment&#45;&gt;Send Fine</title>
<path fill="none" stroke="#ff0000" stroke-width="0.5" stroke-dasharray="5,2" d="M458.72,-115.1C557.02,-118.7 778.74,-134.01 778.74,-199 778.74,-723 778.74,-723 778.74,-723 778.74,-775.85 714.95,-795.92 662.9,-803.49"/>
<polygon fill="#ff0000" stroke="#ff0000" stroke-width="0.5" points="662.54,-800.01 653.09,-804.79 663.46,-806.95 662.54,-800.01"/>
<text text-anchor="middle" x="782.24" y="-457.3" font-family="Times,serif" font-size="14.00">1</text>
</g>
<!-- Payment&#45;&gt;Add penalty -->
<g id="edge11" class="edge">
<title>Payment&#45;&gt;Add penalty</title>
<path fill="none" stroke="#ff0000" stroke-width="0.52" stroke-dasharray="5,2" d="M418.91,-131.47C423.01,-143.09 428.48,-158.59 433.14,-171.8"/>
<polygon fill="#ff0000" stroke="#ff0000" stroke-width="0.52" points="429.78,-172.8 436.41,-181.06 436.38,-170.47 429.78,-172.8"/>
<text text-anchor="middle" x="433.24" y="-152.8" font-family="Times,serif" font-size="14.00">4</text>
</g>
<!-- Payment&#45;&gt;Send Appeal to Prefecture -->
<g id="edge22" class="edge">
<title>Payment&#45;&gt;Send Appeal to Prefecture</title>
<path fill="none" stroke="#ff0000" stroke-width="0.52" stroke-dasharray="5,2" d="M383.76,-131.37C365.54,-143.57 342.72,-161.35 327.74,-182 310.99,-205.1 300.57,-236.25 294.76,-258.42"/>
<polygon fill="#ff0000" stroke="#ff0000" stroke-width="0.52" points="291.38,-257.5 292.39,-268.05 298.18,-259.18 291.38,-257.5"/>
<text text-anchor="middle" x="331.24" y="-196.3" font-family="Times,serif" font-size="14.00">4</text>
</g>
<!-- Payment&#45;&gt;Payment -->
<g id="edge30" class="edge">
<title>Payment&#45;&gt;Payment</title>
<path fill="none" stroke="#ff0000" stroke-width="0.52" stroke-dasharray="5,2" d="M458.69,-120.94C468.84,-120.19 476.24,-117.55 476.24,-113 476.24,-110.23 473.49,-108.17 469.05,-106.81"/>
<polygon fill="#ff0000" stroke="#ff0000" stroke-width="0.52" points="469.9,-103.4 459.46,-105.19 468.74,-110.3 469.9,-103.4"/>
<text text-anchor="middle" x="479.74" y="-109.3" font-family="Times,serif" font-size="14.00">4</text>
</g>
<!-- Payment&#45;&gt;end_node -->
<g id="edge37" class="edge">
<title>Payment&#45;&gt;end_node</title>
<path fill="none" stroke="#ff0000" stroke-width="0.55" stroke-dasharray="5,2" d="M366.79,-98C306.82,-79.72 203.44,-48.2 151.87,-32.49"/>
<polygon fill="#ff0000" stroke="#ff0000" stroke-width="0.55" points="153.07,-29.2 142.49,-29.63 151.03,-35.89 153.07,-29.2"/>
<text text-anchor="middle" x="300.74" y="-65.8" font-family="Times,serif" font-size="14.00">11</text>
</g>
<!-- Appeal to Judge&#45;&gt;Insert Date Appeal to Prefecture -->
<g id="edge14" class="edge">
<title>Appeal to Judge&#45;&gt;Insert Date Appeal to Prefecture</title>
<path fill="none" stroke="#ff0000" stroke-width="0.51" stroke-dasharray="5,2" d="M472.48,-392.32C476.89,-436.29 488.56,-552.52 493.95,-606.16"/>
<polygon fill="#ff0000" stroke="#ff0000" stroke-width="0.51" points="490.44,-606.24 494.92,-615.84 497.4,-605.54 490.44,-606.24"/>
<text text-anchor="middle" x="488.24" y="-500.8" font-family="Times,serif" font-size="14.00">2</text>
</g>
<!-- Appeal to Judge&#45;&gt;Add penalty -->
<g id="edge19" class="edge">
<title>Appeal to Judge&#45;&gt;Add penalty</title>
<path fill="none" stroke="#ff0000" stroke-width="0.5" stroke-dasharray="5,2" d="M467.9,-355.56C463.04,-325.69 453.07,-264.48 447.25,-228.71"/>
<polygon fill="#ff0000" stroke="#ff0000" stroke-width="0.5" points="450.77,-228.54 445.71,-219.23 443.86,-229.66 450.77,-228.54"/>
<text text-anchor="middle" x="463.24" y="-283.3" font-family="Times,serif" font-size="14.00">1</text>
</g>
<!-- Appeal to Judge&#45;&gt;Send Appeal to Prefecture -->
<g id="edge26" class="edge">
<title>Appeal to Judge&#45;&gt;Send Appeal to Prefecture</title>
<path fill="none" stroke="#ff0000" stroke-width="0.51" stroke-dasharray="5,2" d="M433.47,-355.59C405.13,-342.36 365.96,-324.06 335.51,-309.84"/>
<polygon fill="#ff0000" stroke="#ff0000" stroke-width="0.51" points="337.2,-306.77 326.66,-305.71 334.24,-313.11 337.2,-306.77"/>
<text text-anchor="middle" x="394.24" y="-326.8" font-family="Times,serif" font-size="14.00">3</text>
</g>
<!-- Receive Result Appeal from Prefecture&#45;&gt;Send Appeal to Prefecture -->
<g id="edge28" class="edge">
<title>Receive Result Appeal from Prefecture&#45;&gt;Send Appeal to Prefecture</title>
<path fill="none" stroke="#ff0000" stroke-width="0.51" stroke-dasharray="5,2" d="M144.04,-529.56C140.05,-524.26 136.21,-518.19 133.74,-512 116.91,-469.85 121.92,-452.16 138.74,-410 148.83,-384.7 149.28,-376.03 167.74,-356 186.04,-336.15 195.3,-336.39 218.74,-323 226.29,-318.69 234.44,-314.35 242.41,-310.26"/>
<polygon fill="#ff0000" stroke="#ff0000" stroke-width="0.51" points="243.97,-313.39 251.32,-305.76 240.81,-307.14 243.97,-313.39"/>
<text text-anchor="middle" x="142.24" y="-413.8" font-family="Times,serif" font-size="14.00">3</text>
</g>
<!-- Notify Result Appeal to Offender -->
<g id="node11" class="node">
<title>Notify Result Appeal to Offender</title>
<polygon fill="#ffffff" stroke="black" points="400.74,-479 182.74,-479 182.74,-443 400.74,-443 400.74,-479"/>
<text text-anchor="middle" x="291.74" y="-457.3" font-family="Times,serif" font-size="14.00">Notify Result Appeal to Offender (1)</text>
</g>
<!-- Receive Result Appeal from Prefecture&#45;&gt;Notify Result Appeal to Offender -->
<g id="edge24" class="edge">
<title>Receive Result Appeal from Prefecture&#45;&gt;Notify Result Appeal to Offender</title>
<path fill="none" stroke="#ff0000" stroke-width="0.5" stroke-dasharray="5,2" d="M186.77,-529.59C206.7,-516.76 234.02,-499.17 255.79,-485.15"/>
<polygon fill="#ff0000" stroke="#ff0000" stroke-width="0.5" points="257.6,-488.15 264.11,-479.79 253.81,-482.26 257.6,-488.15"/>
<text text-anchor="middle" x="237.24" y="-500.8" font-family="Times,serif" font-size="14.00">1</text>
</g>
<!-- Receive Result Appeal from Prefecture&#45;&gt;end_node -->
<g id="edge36" class="edge">
<title>Receive Result Appeal from Prefecture&#45;&gt;end_node</title>
<path fill="none" stroke="#ff0000" stroke-width="0.6" stroke-dasharray="5,2" d="M101.98,-529.63C71.66,-516.57 40.74,-495.13 40.74,-462 40.74,-462 40.74,-462 40.74,-112 40.74,-80.23 69.29,-54.65 92.28,-39.21"/>
<polygon fill="#ff0000" stroke="#ff0000" stroke-width="0.6" points="94.05,-42.23 100.61,-33.91 90.29,-36.33 94.05,-42.23"/>
<text text-anchor="middle" x="47.74" y="-283.3" font-family="Times,serif" font-size="14.00">21</text>
</g>
<!-- Notify Result Appeal to Offender&#45;&gt;Appeal to Judge -->
<g id="edge25" class="edge">
<title>Notify Result Appeal to Offender&#45;&gt;Appeal to Judge</title>
<path fill="none" stroke="#ff0000" stroke-width="0.5" stroke-dasharray="5,2" d="M328.4,-442.59C356.27,-429.36 394.79,-411.06 424.74,-396.84"/>
<polygon fill="#ff0000" stroke="#ff0000" stroke-width="0.5" points="425.92,-400.16 433.45,-392.71 422.92,-393.84 425.92,-400.16"/>
<text text-anchor="middle" x="396.24" y="-413.8" font-family="Times,serif" font-size="14.00">1</text>
</g>
</g>
</svg>
