<?xml version="1.0" encoding="UTF-8" standalone="no"?>
<!DOCTYPE svg PUBLIC "-//W3C//DTD SVG 1.1//EN"
 "http://www.w3.org/Graphics/SVG/1.1/DTD/svg11.dtd">
<!-- Generated by graphviz version 7.0.5 (0)
 -->
<!-- Title: dfg Pages: 1 -->
<svg width="430pt" height="1009pt"
 viewBox="0.00 0.00 430.00 1009.00" xmlns="http://www.w3.org/2000/svg" xmlns:xlink="http://www.w3.org/1999/xlink">
<g id="graph0" class="graph" transform="scale(1 1) rotate(0) translate(4 1005)">
<title>dfg</title>
<polygon fill="white" stroke="none" points="-4,4 -4,-1005 426,-1005 426,4 -4,4"/>
<!-- start_node -->
<g id="node1" class="node">
<title>start_node</title>
<ellipse fill="none" stroke="black" cx="126.5" cy="-983" rx="18" ry="18"/>
<text text-anchor="start" x="122" y="-979.3" font-family="Times,serif" font-size="14.00">●</text>
</g>
<!-- Create Fine -->
<g id="node2" class="node">
<title>Create Fine</title>
<polygon fill="#9b9bff" stroke="black" points="179.5,-914 73.5,-914 73.5,-878 179.5,-878 179.5,-914"/>
<text text-anchor="middle" x="126.5" y="-892.3" font-family="Times,serif" font-size="14.00">Create Fine (18)</text>
</g>
<!-- start_node&#45;&gt;Create Fine -->
<g id="edge1" class="edge">
<title>start_node&#45;&gt;Create Fine</title>
<path fill="none" stroke="#000000" stroke-width="6" d="M126.5,-964.8C126.5,-954.96 126.5,-942.27 126.5,-930.53"/>
<polygon fill="#000000" stroke="#000000" stroke-width="6" points="131.75,-930.92 126.5,-920.92 121.25,-930.92 131.75,-930.92"/>
<text text-anchor="middle" x="133.5" y="-935.8" font-family="Times,serif" font-size="14.00">18</text>
</g>
<!-- Send Fine -->
<g id="node3" class="node">
<title>Send Fine</title>
<polygon fill="#9b9bff" stroke="black" points="175.5,-827 77.5,-827 77.5,-791 175.5,-791 175.5,-827"/>
<text text-anchor="middle" x="126.5" y="-805.3" font-family="Times,serif" font-size="14.00">Send Fine (18)</text>
</g>
<!-- Create Fine&#45;&gt;Send Fine -->
<g id="edge2" class="edge">
<title>Create Fine&#45;&gt;Send Fine</title>
<path fill="none" stroke="#000000" stroke-width="6" d="M126.5,-877.8C126.5,-867.96 126.5,-855.27 126.5,-843.53"/>
<polygon fill="#000000" stroke="#000000" stroke-width="6" points="131.75,-843.92 126.5,-833.92 121.25,-843.92 131.75,-843.92"/>
<text text-anchor="middle" x="133.5" y="-848.8" font-family="Times,serif" font-size="14.00">18</text>
</g>
<!-- Insert Fine Notification -->
<g id="node4" class="node">
<title>Insert Fine Notification</title>
<polygon fill="#9b9bff" stroke="black" points="211.5,-740 41.5,-740 41.5,-704 211.5,-704 211.5,-740"/>
<text text-anchor="middle" x="126.5" y="-718.3" font-family="Times,serif" font-size="14.00">Insert Fine Notification (18)</text>
</g>
<!-- Send Fine&#45;&gt;Insert Fine Notification -->
<g id="edge3" class="edge">
<title>Send Fine&#45;&gt;Insert Fine Notification</title>
<path fill="none" stroke="#000000" stroke-width="6" d="M126.5,-790.8C126.5,-780.96 126.5,-768.27 126.5,-756.53"/>
<polygon fill="#000000" stroke="#000000" stroke-width="6" points="131.75,-756.92 126.5,-746.92 121.25,-756.92 131.75,-756.92"/>
<text text-anchor="middle" x="133.5" y="-761.8" font-family="Times,serif" font-size="14.00">18</text>
</g>
<!-- Insert Date Appeal to Prefecture -->
<g id="node5" class="node">
<title>Insert Date Appeal to Prefecture</title>
<polygon fill="#9b9bff" stroke="black" points="353.5,-653 135.5,-653 135.5,-617 353.5,-617 353.5,-653"/>
<text text-anchor="middle" x="244.5" y="-631.3" font-family="Times,serif" font-size="14.00">Insert Date Appeal to Prefecture (18)</text>
</g>
<!-- Insert Fine Notification&#45;&gt;Insert Date Appeal to Prefecture -->
<g id="edge4" class="edge">
<title>Insert Fine Notification&#45;&gt;Insert Date Appeal to Prefecture</title>
<path fill="none" stroke="#000000" stroke-width="3.59" d="M150.66,-703.59C167.13,-691.73 189.23,-675.81 207.85,-662.4"/>
<polygon fill="#000000" stroke="#000000" stroke-width="3.59" points="209.89,-665.25 215.96,-656.56 205.8,-659.57 209.89,-665.25"/>
<text text-anchor="middle" x="200.5" y="-674.8" font-family="Times,serif" font-size="14.00">11</text>
</g>
<!-- Add penalty -->
<g id="node6" class="node">
<title>Add penalty</title>
<polygon fill="#9b9bff" stroke="black" points="208.5,-566 98.5,-566 98.5,-530 208.5,-530 208.5,-566"/>
<text text-anchor="middle" x="153.5" y="-544.3" font-family="Times,serif" font-size="14.00">Add penalty (18)</text>
</g>
<!-- Insert Fine Notification&#45;&gt;Add penalty -->
<g id="edge10" class="edge">
<title>Insert Fine Notification&#45;&gt;Add penalty</title>
<path fill="none" stroke="#000000" stroke-width="2.22" d="M122.27,-703.81C117.84,-682.98 112.43,-646.94 119.5,-617 122.72,-603.37 129.11,-589.35 135.5,-577.61"/>
<polygon fill="#000000" stroke="#000000" stroke-width="2.22" points="138.37,-579.63 140.33,-569.22 132.3,-576.14 138.37,-579.63"/>
<text text-anchor="middle" x="123" y="-631.3" font-family="Times,serif" font-size="14.00">7</text>
</g>
<!-- Insert Date Appeal to Prefecture&#45;&gt;Add penalty -->
<g id="edge5" class="edge">
<title>Insert Date Appeal to Prefecture&#45;&gt;Add penalty</title>
<path fill="none" stroke="#000000" stroke-width="3.59" d="M226.08,-616.8C213.83,-605.35 197.46,-590.06 183.36,-576.89"/>
<polygon fill="#000000" stroke="#000000" stroke-width="3.59" points="185.87,-574.45 176.18,-570.18 181.09,-579.56 185.87,-574.45"/>
<text text-anchor="middle" x="211.5" y="-587.8" font-family="Times,serif" font-size="14.00">11</text>
</g>
<!-- Send Appeal to Prefecture -->
<g id="node7" class="node">
<title>Send Appeal to Prefecture</title>
<polygon fill="#a1a1ff" stroke="black" points="246,-479 61,-479 61,-443 246,-443 246,-479"/>
<text text-anchor="middle" x="153.5" y="-457.3" font-family="Times,serif" font-size="14.00">Send Appeal to Prefecture (17)</text>
</g>
<!-- Insert Date Appeal to Prefecture&#45;&gt;Send Appeal to Prefecture -->
<g id="edge12" class="edge">
<title>Insert Date Appeal to Prefecture&#45;&gt;Send Appeal to Prefecture</title>
<path fill="none" stroke="#000000" stroke-width="1.19" d="M242.7,-616.83C239.87,-595.38 233.01,-558.09 217.5,-530 208.73,-514.13 195.41,-499.14 183.19,-487.3"/>
<polygon fill="#000000" stroke="#000000" stroke-width="1.19" points="185.58,-484.75 175.87,-480.49 180.81,-489.87 185.58,-484.75"/>
<text text-anchor="middle" x="236" y="-544.3" font-family="Times,serif" font-size="14.00">4</text>
</g>
<!-- Receive Result Appeal from Prefecture -->
<g id="node8" class="node">
<title>Receive Result Appeal from Prefecture</title>
<polygon fill="#9b9bff" stroke="black" points="422,-392 165,-392 165,-356 422,-356 422,-392"/>
<text text-anchor="middle" x="293.5" y="-370.3" font-family="Times,serif" font-size="14.00">Receive Result Appeal from Prefecture (18)</text>
</g>
<!-- Insert Date Appeal to Prefecture&#45;&gt;Receive Result Appeal from Prefecture -->
<g id="edge15" class="edge">
<title>Insert Date Appeal to Prefecture&#45;&gt;Receive Result Appeal from Prefecture</title>
<path fill="none" stroke="#000000" stroke-width="0.84" d="M248.64,-616.59C249.93,-610.98 251.32,-604.74 252.5,-599 266.92,-528.92 281.44,-445.97 288.72,-403.38"/>
<polygon fill="#000000" stroke="#000000" stroke-width="0.84" points="292.13,-404.18 290.35,-393.74 285.23,-403.01 292.13,-404.18"/>
<text text-anchor="middle" x="275" y="-500.8" font-family="Times,serif" font-size="14.00">3</text>
</g>
<!-- Add penalty&#45;&gt;Insert Date Appeal to Prefecture -->
<g id="edge11" class="edge">
<title>Add penalty&#45;&gt;Insert Date Appeal to Prefecture</title>
<path fill="none" stroke="#000000" stroke-width="2.22" d="M161.08,-566.24C166.28,-576.64 173.96,-589.64 183.5,-599 187.37,-602.8 191.74,-606.33 196.31,-609.58"/>
<polygon fill="#000000" stroke="#000000" stroke-width="2.22" points="194.1,-612.32 204.4,-614.81 197.9,-606.44 194.1,-612.32"/>
<text text-anchor="middle" x="187" y="-587.8" font-family="Times,serif" font-size="14.00">7</text>
</g>
<!-- Add penalty&#45;&gt;Send Appeal to Prefecture -->
<g id="edge6" class="edge">
<title>Add penalty&#45;&gt;Send Appeal to Prefecture</title>
<path fill="none" stroke="#000000" stroke-width="3.59" d="M153.5,-529.8C153.5,-519.73 153.5,-506.67 153.5,-494.72"/>
<polygon fill="#000000" stroke="#000000" stroke-width="3.59" points="157,-494.91 153.5,-484.91 150,-494.91 157,-494.91"/>
<text text-anchor="middle" x="160.5" y="-500.8" font-family="Times,serif" font-size="14.00">11</text>
</g>
<!-- Send Appeal to Prefecture&#45;&gt;Receive Result Appeal from Prefecture -->
<g id="edge7" class="edge">
<title>Send Appeal to Prefecture&#45;&gt;Receive Result Appeal from Prefecture</title>
<path fill="none" stroke="#000000" stroke-width="4.97" d="M182.17,-442.59C202.08,-430.5 228.95,-414.19 251.3,-400.62"/>
<polygon fill="#000000" stroke="#000000" stroke-width="4.97" points="253.25,-404.52 259.54,-395.62 248.74,-397.09 253.25,-404.52"/>
<text text-anchor="middle" x="239.5" y="-413.8" font-family="Times,serif" font-size="14.00">15</text>
</g>
<!-- Send for Credit Collection -->
<g id="node10" class="node">
<title>Send for Credit Collection</title>
<polygon fill="#b5b5ff" stroke="black" points="187,-218 0,-218 0,-182 187,-182 187,-218"/>
<text text-anchor="middle" x="93.5" y="-196.3" font-family="Times,serif" font-size="14.00">Send for Credit Collection (14)</text>
</g>
<!-- Send Appeal to Prefecture&#45;&gt;Send for Credit Collection -->
<g id="edge17" class="edge">
<title>Send Appeal to Prefecture&#45;&gt;Send for Credit Collection</title>
<path fill="none" stroke="#000000" stroke-width="0.5" d="M144.53,-442.52C141.98,-437.02 139.38,-430.85 137.5,-425 115.38,-356.26 102.45,-271.89 96.84,-228.96"/>
<polygon fill="#000000" stroke="#000000" stroke-width="0.5" points="100.34,-228.72 95.61,-219.24 93.4,-229.6 100.34,-228.72"/>
<text text-anchor="middle" x="119" y="-326.8" font-family="Times,serif" font-size="14.00">2</text>
</g>
<!-- Notify Result Appeal to Offender -->
<g id="node9" class="node">
<title>Notify Result Appeal to Offender</title>
<polygon fill="#9b9bff" stroke="black" points="363,-305 138,-305 138,-269 363,-269 363,-305"/>
<text text-anchor="middle" x="250.5" y="-283.3" font-family="Times,serif" font-size="14.00">Notify Result Appeal to Offender (18)</text>
</g>
<!-- Receive Result Appeal from Prefecture&#45;&gt;Notify Result Appeal to Offender -->
<g id="edge8" class="edge">
<title>Receive Result Appeal from Prefecture&#45;&gt;Notify Result Appeal to Offender</title>
<path fill="none" stroke="#000000" stroke-width="6" d="M284.8,-355.8C279.59,-345.5 272.8,-332.08 266.64,-319.9"/>
<polygon fill="#000000" stroke="#000000" stroke-width="6" points="271.45,-317.78 262.25,-311.23 262.08,-322.52 271.45,-317.78"/>
<text text-anchor="middle" x="281.5" y="-326.8" font-family="Times,serif" font-size="14.00">18</text>
</g>
<!-- Notify Result Appeal to Offender&#45;&gt;Send Appeal to Prefecture -->
<g id="edge16" class="edge">
<title>Notify Result Appeal to Offender&#45;&gt;Send Appeal to Prefecture</title>
<path fill="none" stroke="#000000" stroke-width="0.5" d="M206.25,-305.44C184.69,-316.46 160.8,-333.01 148.5,-356 135.95,-379.45 139.48,-410.3 144.75,-432.3"/>
<polygon fill="#000000" stroke="#000000" stroke-width="0.5" points="141.35,-433.12 147.3,-441.88 148.11,-431.32 141.35,-433.12"/>
<text text-anchor="middle" x="152" y="-370.3" font-family="Times,serif" font-size="14.00">2</text>
</g>
<!-- Notify Result Appeal to Offender&#45;&gt;Send for Credit Collection -->
<g id="edge9" class="edge">
<title>Notify Result Appeal to Offender&#45;&gt;Send for Credit Collection</title>
<path fill="none" stroke="#000000" stroke-width="3.94" d="M218.35,-268.59C195.6,-256.27 164.75,-239.57 139.41,-225.85"/>
<polygon fill="#000000" stroke="#000000" stroke-width="3.94" points="141.31,-222.9 130.85,-221.22 137.98,-229.06 141.31,-222.9"/>
<text text-anchor="middle" x="188.5" y="-239.8" font-family="Times,serif" font-size="14.00">12</text>
</g>
<!-- Appeal to Judge -->
<g id="node11" class="node">
<title>Appeal to Judge</title>
<polygon fill="#f8f8ff" stroke="black" points="330,-218 205,-218 205,-182 330,-182 330,-218"/>
<text text-anchor="middle" x="267.5" y="-196.3" font-family="Times,serif" font-size="14.00">Appeal to Judge (4)</text>
</g>
<!-- Notify Result Appeal to Offender&#45;&gt;Appeal to Judge -->
<g id="edge13" class="edge">
<title>Notify Result Appeal to Offender&#45;&gt;Appeal to Judge</title>
<path fill="none" stroke="#000000" stroke-width="1.19" d="M253.94,-268.8C256.18,-257.58 259.17,-242.67 261.76,-229.69"/>
<polygon fill="#000000" stroke="#000000" stroke-width="1.19" points="265.12,-230.72 263.65,-220.23 258.26,-229.35 265.12,-230.72"/>
<text text-anchor="middle" x="263" y="-239.8" font-family="Times,serif" font-size="14.00">4</text>
</g>
<!-- end_node -->
<g id="node13" class="node">
<title>end_node</title>
<ellipse fill="none" stroke="black" cx="189.5" cy="-22" rx="18" ry="18"/>
<ellipse fill="none" stroke="black" cx="189.5" cy="-22" rx="22" ry="22"/>
<text text-anchor="start" x="185" y="-18.3" font-family="Times,serif" font-size="14.00">■</text>
</g>
<!-- Send for Credit Collection&#45;&gt;end_node -->
<g id="edge18" class="edge">
<title>Send for Credit Collection&#45;&gt;end_node</title>
<path fill="none" stroke="#000000" stroke-width="4.62" d="M96.26,-181.51C100.19,-160.05 108.72,-123.09 124.5,-95 134.19,-77.76 148.67,-61.18 161.51,-48.29"/>
<polygon fill="#000000" stroke="#000000" stroke-width="4.62" points="164.25,-51.27 168.66,-41.42 158.64,-45.43 164.25,-51.27"/>
<text text-anchor="middle" x="131.5" y="-109.3" font-family="Times,serif" font-size="14.00">14</text>
</g>
<!-- Payment -->
<g id="node12" class="node">
<title>Payment</title>
<polygon fill="#ffffff" stroke="black" points="231.5,-131 147.5,-131 147.5,-95 231.5,-95 231.5,-131"/>
<text text-anchor="middle" x="189.5" y="-109.3" font-family="Times,serif" font-size="14.00">Payment (3)</text>
</g>
<!-- Appeal to Judge&#45;&gt;Payment -->
<g id="edge14" class="edge">
<title>Appeal to Judge&#45;&gt;Payment</title>
<path fill="none" stroke="#000000" stroke-width="0.84" d="M251.72,-181.8C240.58,-169.67 225.48,-153.21 212.94,-139.55"/>
<polygon fill="#000000" stroke="#000000" stroke-width="0.84" points="215.73,-137.41 206.39,-132.41 210.57,-142.14 215.73,-137.41"/>
<text text-anchor="middle" x="237" y="-152.8" font-family="Times,serif" font-size="14.00">3</text>
</g>
<!-- Appeal to Judge&#45;&gt;end_node -->
<g id="edge20" class="edge">
<title>Appeal to Judge&#45;&gt;end_node</title>
<path fill="none" stroke="#ff0000" stroke-width="0.16" stroke-dasharray="5,2" d="M264.99,-181.78C261.48,-160.61 253.95,-123.93 240.5,-95 232.53,-77.86 220.4,-60.52 209.96,-47.15"/>
<polygon fill="#ff0000" stroke="#ff0000" stroke-width="0.16" points="212.87,-45.18 203.89,-39.56 207.4,-49.55 212.87,-45.18"/>
<text text-anchor="middle" x="256" y="-109.3" font-family="Times,serif" font-size="14.00">1</text>
</g>
<!-- Payment&#45;&gt;end_node -->
<g id="edge19" class="edge">
<title>Payment&#45;&gt;end_node</title>
<path fill="none" stroke="#000000" stroke-width="0.84" d="M189.5,-94.84C189.5,-83.67 189.5,-68.74 189.5,-55.39"/>
<polygon fill="#000000" stroke="#000000" stroke-width="0.84" points="193,-55.47 189.5,-45.47 186,-55.47 193,-55.47"/>
<text text-anchor="middle" x="193" y="-65.8" font-family="Times,serif" font-size="14.00">3</text>
</g>
</g>
</svg>
