<?xml version="1.0" encoding="UTF-8" standalone="no"?>
<!DOCTYPE svg PUBLIC "-//W3C//DTD SVG 1.1//EN"
 "http://www.w3.org/Graphics/SVG/1.1/DTD/svg11.dtd">
<!-- Generated by graphviz version 7.1.0 (0)
 -->
<!-- Pages: 1 -->
<svg width="697pt" height="422pt"
 viewBox="0.00 0.00 697.00 422.00" xmlns="http://www.w3.org/2000/svg" xmlns:xlink="http://www.w3.org/1999/xlink">
<g id="graph0" class="graph" transform="scale(1 1) rotate(0) translate(4 418)">
<polygon fill="white" stroke="none" points="-4,4 -4,-418 693,-418 693,4 -4,4"/>
<!-- start_node_var0 -->
<g id="node1" class="node">
<title>start_node_var0</title>
<text text-anchor="middle" x="43" y="-14.3" font-family="Times,serif" font-size="14.00">1496 traces</text>
</g>
<!-- Create Fine_var0_step0 -->
<g id="node2" class="node">
<title>Create Fine_var0_step0</title>
<polygon fill="lightgrey" stroke="black" points="83,-90 3,-90 3,-54 83,-54 83,-90"/>
<text text-anchor="middle" x="43" y="-68.3" font-family="Times,serif" font-size="14.00">Create Fine</text>
</g>
<!-- Send Fine_var0_step1 -->
<g id="node3" class="node">
<title>Send Fine_var0_step1</title>
<polygon fill="lightgrey" stroke="black" points="193,-90 122,-90 122,-54 193,-54 193,-90"/>
<text text-anchor="middle" x="157.5" y="-68.3" font-family="Times,serif" font-size="14.00">Send Fine</text>
</g>
<!-- Create Fine_var0_step0&#45;&gt;Send Fine_var0_step1 -->
<g id="edge1" class="edge">
<title>Create Fine_var0_step0&#45;&gt;Send Fine_var0_step1</title>
<path fill="none" stroke="black" d="M83.35,-72C92.07,-72 101.39,-72 110.36,-72"/>
<polygon fill="black" stroke="black" points="110.35,-75.5 120.35,-72 110.35,-68.5 110.35,-75.5"/>
</g>
<!-- Insert Fine Notification_var0_step2 -->
<g id="node4" class="node">
<title>Insert Fine Notification_var0_step2</title>
<polygon fill="lightgrey" stroke="black" points="373,-90 229,-90 229,-54 373,-54 373,-90"/>
<text text-anchor="middle" x="301" y="-68.3" font-family="Times,serif" font-size="14.00">Insert Fine Notification</text>
</g>
<!-- Send Fine_var0_step1&#45;&gt;Insert Fine Notification_var0_step2 -->
<g id="edge2" class="edge">
<title>Send Fine_var0_step1&#45;&gt;Insert Fine Notification_var0_step2</title>
<path fill="none" stroke="black" d="M193.48,-72C200.85,-72 208.92,-72 217.22,-72"/>
<polygon fill="black" stroke="black" points="217.13,-75.5 227.13,-72 217.13,-68.5 217.13,-75.5"/>
</g>
<!-- Add penalty_var0_step3 -->
<g id="node5" class="node">
<title>Add penalty_var0_step3</title>
<polygon fill="lightgrey" stroke="black" points="492,-90 409,-90 409,-54 492,-54 492,-90"/>
<text text-anchor="middle" x="450.5" y="-68.3" font-family="Times,serif" font-size="14.00">Add penalty</text>
</g>
<!-- Insert Fine Notification_var0_step2&#45;&gt;Add penalty_var0_step3 -->
<g id="edge3" class="edge">
<title>Insert Fine Notification_var0_step2&#45;&gt;Add penalty_var0_step3</title>
<path fill="none" stroke="black" d="M373.16,-72C381.37,-72 389.63,-72 397.53,-72"/>
<polygon fill="black" stroke="black" points="397.27,-75.5 407.27,-72 397.27,-68.5 397.27,-75.5"/>
</g>
<!-- Payment_var0_step4 -->
<g id="node6" class="node">
<title>Payment_var0_step4</title>
<polygon fill="lightgrey" stroke="black" points="641,-90 576,-90 576,-54 641,-54 641,-90"/>
<text text-anchor="middle" x="608.5" y="-68.3" font-family="Times,serif" font-size="14.00">Payment</text>
</g>
<!-- Add penalty_var0_step3&#45;&gt;Payment_var0_step4 -->
<g id="edge4" class="edge">
<title>Add penalty_var0_step3&#45;&gt;Payment_var0_step4</title>
<path fill="none" stroke="black" d="M492.49,-72C514.63,-72 541.95,-72 564.4,-72"/>
<polygon fill="black" stroke="black" points="564.14,-75.5 574.14,-72 564.14,-68.5 564.14,-75.5"/>
</g>
<!-- start_node_var1 -->
<g id="node7" class="node">
<title>start_node_var1</title>
<text text-anchor="middle" x="43" y="-122.3" font-family="Times,serif" font-size="14.00">3359 traces</text>
</g>
<!-- Create Fine_var1_step0 -->
<g id="node8" class="node">
<title>Create Fine_var1_step0</title>
<polygon fill="lightgrey" stroke="black" points="83,-198 3,-198 3,-162 83,-162 83,-198"/>
<text text-anchor="middle" x="43" y="-176.3" font-family="Times,serif" font-size="14.00">Create Fine</text>
</g>
<!-- Send Fine_var1_step1 -->
<g id="node9" class="node">
<title>Send Fine_var1_step1</title>
<polygon fill="lightgrey" stroke="black" points="193,-198 122,-198 122,-162 193,-162 193,-198"/>
<text text-anchor="middle" x="157.5" y="-176.3" font-family="Times,serif" font-size="14.00">Send Fine</text>
</g>
<!-- Create Fine_var1_step0&#45;&gt;Send Fine_var1_step1 -->
<g id="edge5" class="edge">
<title>Create Fine_var1_step0&#45;&gt;Send Fine_var1_step1</title>
<path fill="none" stroke="black" d="M83.35,-180C92.07,-180 101.39,-180 110.36,-180"/>
<polygon fill="black" stroke="black" points="110.35,-183.5 120.35,-180 110.35,-176.5 110.35,-183.5"/>
</g>
<!-- start_node_var2 -->
<g id="node10" class="node">
<title>start_node_var2</title>
<text text-anchor="middle" x="43" y="-230.3" font-family="Times,serif" font-size="14.00">7817 traces</text>
</g>
<!-- Create Fine_var2_step0 -->
<g id="node11" class="node">
<title>Create Fine_var2_step0</title>
<polygon fill="lightgrey" stroke="black" points="83,-306 3,-306 3,-270 83,-270 83,-306"/>
<text text-anchor="middle" x="43" y="-284.3" font-family="Times,serif" font-size="14.00">Create Fine</text>
</g>
<!-- Payment_var2_step1 -->
<g id="node12" class="node">
<title>Payment_var2_step1</title>
<polygon fill="lightgrey" stroke="black" points="190,-306 125,-306 125,-270 190,-270 190,-306"/>
<text text-anchor="middle" x="157.5" y="-284.3" font-family="Times,serif" font-size="14.00">Payment</text>
</g>
<!-- Create Fine_var2_step0&#45;&gt;Payment_var2_step1 -->
<g id="edge6" class="edge">
<title>Create Fine_var2_step0&#45;&gt;Payment_var2_step1</title>
<path fill="none" stroke="black" d="M83.35,-288C93.09,-288 103.59,-288 113.5,-288"/>
<polygon fill="black" stroke="black" points="113.27,-291.5 123.27,-288 113.27,-284.5 113.27,-291.5"/>
</g>
<!-- start_node_var3 -->
<g id="node13" class="node">
<title>start_node_var3</title>
<text text-anchor="middle" x="43" y="-338.3" font-family="Times,serif" font-size="14.00">10346 traces</text>
</g>
<!-- Create Fine_var3_step0 -->
<g id="node14" class="node">
<title>Create Fine_var3_step0</title>
<polygon fill="lightgrey" stroke="black" points="83,-414 3,-414 3,-378 83,-378 83,-414"/>
<text text-anchor="middle" x="43" y="-392.3" font-family="Times,serif" font-size="14.00">Create Fine</text>
</g>
<!-- Send Fine_var3_step1 -->
<g id="node15" class="node">
<title>Send Fine_var3_step1</title>
<polygon fill="lightgrey" stroke="black" points="193,-414 122,-414 122,-378 193,-378 193,-414"/>
<text text-anchor="middle" x="157.5" y="-392.3" font-family="Times,serif" font-size="14.00">Send Fine</text>
</g>
<!-- Create Fine_var3_step0&#45;&gt;Send Fine_var3_step1 -->
<g id="edge7" class="edge">
<title>Create Fine_var3_step0&#45;&gt;Send Fine_var3_step1</title>
<path fill="none" stroke="black" d="M83.35,-396C92.07,-396 101.39,-396 110.36,-396"/>
<polygon fill="black" stroke="black" points="110.35,-399.5 120.35,-396 110.35,-392.5 110.35,-399.5"/>
</g>
<!-- Insert Fine Notification_var3_step2 -->
<g id="node16" class="node">
<title>Insert Fine Notification_var3_step2</title>
<polygon fill="lightgrey" stroke="black" points="373,-414 229,-414 229,-378 373,-378 373,-414"/>
<text text-anchor="middle" x="301" y="-392.3" font-family="Times,serif" font-size="14.00">Insert Fine Notification</text>
</g>
<!-- Send Fine_var3_step1&#45;&gt;Insert Fine Notification_var3_step2 -->
<g id="edge8" class="edge">
<title>Send Fine_var3_step1&#45;&gt;Insert Fine Notification_var3_step2</title>
<path fill="none" stroke="black" d="M193.48,-396C200.85,-396 208.92,-396 217.22,-396"/>
<polygon fill="black" stroke="black" points="217.13,-399.5 227.13,-396 217.13,-392.5 217.13,-399.5"/>
</g>
<!-- Add penalty_var3_step3 -->
<g id="node17" class="node">
<title>Add penalty_var3_step3</title>
<polygon fill="lightgrey" stroke="black" points="492,-414 409,-414 409,-378 492,-378 492,-414"/>
<text text-anchor="middle" x="450.5" y="-392.3" font-family="Times,serif" font-size="14.00">Add penalty</text>
</g>
<!-- Insert Fine Notification_var3_step2&#45;&gt;Add penalty_var3_step3 -->
<g id="edge9" class="edge">
<title>Insert Fine Notification_var3_step2&#45;&gt;Add penalty_var3_step3</title>
<path fill="none" stroke="black" d="M373.16,-396C381.37,-396 389.63,-396 397.53,-396"/>
<polygon fill="black" stroke="black" points="397.27,-399.5 407.27,-396 397.27,-392.5 397.27,-399.5"/>
</g>
<!-- Send for Credit Collection_var3_step4 -->
<g id="node18" class="node">
<title>Send for Credit Collection_var3_step4</title>
<polygon fill="lightgrey" stroke="black" points="689,-414 528,-414 528,-378 689,-378 689,-414"/>
<text text-anchor="middle" x="608.5" y="-392.3" font-family="Times,serif" font-size="14.00">Send for Credit Collection</text>
</g>
<!-- Add penalty_var3_step3&#45;&gt;Send for Credit Collection_var3_step4 -->
<g id="edge10" class="edge">
<title>Add penalty_var3_step3&#45;&gt;Send for Credit Collection_var3_step4</title>
<path fill="none" stroke="black" d="M492.49,-396C499.93,-396 507.97,-396 516.21,-396"/>
<polygon fill="black" stroke="black" points="516.02,-399.5 526.02,-396 516.02,-392.5 516.02,-399.5"/>
</g>
</g>
</svg>
