<?xml version="1.0" encoding="UTF-8" standalone="no"?>
<!DOCTYPE svg PUBLIC "-//W3C//DTD SVG 1.1//EN"
 "http://www.w3.org/Graphics/SVG/1.1/DTD/svg11.dtd">
<!-- Generated by graphviz version 7.0.5 (0)
 -->
<!-- Title: dfg Pages: 1 -->
<svg width="381pt" height="1009pt"
 viewBox="0.00 0.00 381.25 1009.00" xmlns="http://www.w3.org/2000/svg" xmlns:xlink="http://www.w3.org/1999/xlink">
<g id="graph0" class="graph" transform="scale(1 1) rotate(0) translate(4 1005)">
<title>dfg</title>
<polygon fill="white" stroke="none" points="-4,4 -4,-1005 377.25,-1005 377.25,4 -4,4"/>
<!-- start_node -->
<g id="node1" class="node">
<title>start_node</title>
<ellipse fill="none" stroke="black" cx="231.75" cy="-983" rx="18" ry="18"/>
<text text-anchor="start" x="227.25" y="-979.3" font-family="Times,serif" font-size="14.00">●</text>
</g>
<!-- Create Fine -->
<g id="node2" class="node">
<title>Create Fine</title>
<polygon fill="#9b9bff" stroke="black" points="284.75,-914 178.75,-914 178.75,-878 284.75,-878 284.75,-914"/>
<text text-anchor="middle" x="231.75" y="-892.3" font-family="Times,serif" font-size="14.00">Create Fine (79)</text>
</g>
<!-- start_node&#45;&gt;Create Fine -->
<g id="edge1" class="edge">
<title>start_node&#45;&gt;Create Fine</title>
<path fill="none" stroke="#000000" stroke-width="6" d="M231.75,-964.8C231.75,-954.96 231.75,-942.27 231.75,-930.53"/>
<polygon fill="#000000" stroke="#000000" stroke-width="6" points="237,-930.92 231.75,-920.92 226.5,-930.92 237,-930.92"/>
<text text-anchor="middle" x="238.75" y="-935.8" font-family="Times,serif" font-size="14.00">79</text>
</g>
<!-- Send Fine -->
<g id="node3" class="node">
<title>Send Fine</title>
<polygon fill="#9b9bff" stroke="black" points="280.75,-827 182.75,-827 182.75,-791 280.75,-791 280.75,-827"/>
<text text-anchor="middle" x="231.75" y="-805.3" font-family="Times,serif" font-size="14.00">Send Fine (79)</text>
</g>
<!-- Create Fine&#45;&gt;Send Fine -->
<g id="edge2" class="edge">
<title>Create Fine&#45;&gt;Send Fine</title>
<path fill="none" stroke="#000000" stroke-width="6" d="M231.75,-877.8C231.75,-867.96 231.75,-855.27 231.75,-843.53"/>
<polygon fill="#000000" stroke="#000000" stroke-width="6" points="237,-843.92 231.75,-833.92 226.5,-843.92 237,-843.92"/>
<text text-anchor="middle" x="238.75" y="-848.8" font-family="Times,serif" font-size="14.00">79</text>
</g>
<!-- Insert Fine Notification -->
<g id="node4" class="node">
<title>Insert Fine Notification</title>
<polygon fill="#9b9bff" stroke="black" points="316.75,-740 146.75,-740 146.75,-704 316.75,-704 316.75,-740"/>
<text text-anchor="middle" x="231.75" y="-718.3" font-family="Times,serif" font-size="14.00">Insert Fine Notification (79)</text>
</g>
<!-- Send Fine&#45;&gt;Insert Fine Notification -->
<g id="edge3" class="edge">
<title>Send Fine&#45;&gt;Insert Fine Notification</title>
<path fill="none" stroke="#000000" stroke-width="6" d="M231.75,-790.8C231.75,-780.96 231.75,-768.27 231.75,-756.53"/>
<polygon fill="#000000" stroke="#000000" stroke-width="6" points="237,-756.92 231.75,-746.92 226.5,-756.92 237,-756.92"/>
<text text-anchor="middle" x="238.75" y="-761.8" font-family="Times,serif" font-size="14.00">79</text>
</g>
<!-- Insert Date Appeal to Prefecture -->
<g id="node5" class="node">
<title>Insert Date Appeal to Prefecture</title>
<polygon fill="#9b9bff" stroke="black" points="340.75,-653 122.75,-653 122.75,-617 340.75,-617 340.75,-653"/>
<text text-anchor="middle" x="231.75" y="-631.3" font-family="Times,serif" font-size="14.00">Insert Date Appeal to Prefecture (79)</text>
</g>
<!-- Insert Fine Notification&#45;&gt;Insert Date Appeal to Prefecture -->
<g id="edge4" class="edge">
<title>Insert Fine Notification&#45;&gt;Insert Date Appeal to Prefecture</title>
<path fill="none" stroke="#000000" stroke-width="6" d="M231.75,-703.8C231.75,-693.96 231.75,-681.27 231.75,-669.53"/>
<polygon fill="#000000" stroke="#000000" stroke-width="6" points="237,-669.92 231.75,-659.92 226.5,-669.92 237,-669.92"/>
<text text-anchor="middle" x="238.75" y="-674.8" font-family="Times,serif" font-size="14.00">79</text>
</g>
<!-- Add penalty -->
<g id="node6" class="node">
<title>Add penalty</title>
<polygon fill="#9b9bff" stroke="black" points="237.75,-566 127.75,-566 127.75,-530 237.75,-530 237.75,-566"/>
<text text-anchor="middle" x="182.75" y="-544.3" font-family="Times,serif" font-size="14.00">Add penalty (79)</text>
</g>
<!-- Insert Date Appeal to Prefecture&#45;&gt;Add penalty -->
<g id="edge5" class="edge">
<title>Insert Date Appeal to Prefecture&#45;&gt;Add penalty</title>
<path fill="none" stroke="#000000" stroke-width="3.36" d="M221.84,-616.8C215.63,-606.04 207.47,-591.88 200.21,-579.29"/>
<polygon fill="#000000" stroke="#000000" stroke-width="3.36" points="203.38,-577.78 195.36,-570.87 197.32,-581.28 203.38,-577.78"/>
<text text-anchor="middle" x="216.75" y="-587.8" font-family="Times,serif" font-size="14.00">42</text>
</g>
<!-- Send Appeal to Prefecture -->
<g id="node7" class="node">
<title>Send Appeal to Prefecture</title>
<polygon fill="#9b9bff" stroke="black" points="373.25,-479 188.25,-479 188.25,-443 373.25,-443 373.25,-479"/>
<text text-anchor="middle" x="280.75" y="-457.3" font-family="Times,serif" font-size="14.00">Send Appeal to Prefecture (79)</text>
</g>
<!-- Insert Date Appeal to Prefecture&#45;&gt;Send Appeal to Prefecture -->
<g id="edge10" class="edge">
<title>Insert Date Appeal to Prefecture&#45;&gt;Send Appeal to Prefecture</title>
<path fill="none" stroke="#000000" stroke-width="3" d="M236.72,-616.56C244.97,-587.59 261.62,-529.15 271.92,-493.01"/>
<polygon fill="#000000" stroke="#000000" stroke-width="3" points="275.15,-494.43 274.53,-483.85 268.42,-492.51 275.15,-494.43"/>
<text text-anchor="middle" x="267.75" y="-544.3" font-family="Times,serif" font-size="14.00">37</text>
</g>
<!-- Add penalty&#45;&gt;Send Appeal to Prefecture -->
<g id="edge6" class="edge">
<title>Add penalty&#45;&gt;Send Appeal to Prefecture</title>
<path fill="none" stroke="#000000" stroke-width="3.07" d="M202.58,-529.8C216.17,-518.01 234.47,-502.14 249.95,-488.72"/>
<polygon fill="#000000" stroke="#000000" stroke-width="3.07" points="251.84,-491.71 257.1,-482.51 247.25,-486.42 251.84,-491.71"/>
<text text-anchor="middle" x="243.75" y="-500.8" font-family="Times,serif" font-size="14.00">38</text>
</g>
<!-- Receive Result Appeal from Prefecture -->
<g id="node8" class="node">
<title>Receive Result Appeal from Prefecture</title>
<polygon fill="#9b9bff" stroke="black" points="272.25,-392 15.25,-392 15.25,-356 272.25,-356 272.25,-392"/>
<text text-anchor="middle" x="143.75" y="-370.3" font-family="Times,serif" font-size="14.00">Receive Result Appeal from Prefecture (79)</text>
</g>
<!-- Add penalty&#45;&gt;Receive Result Appeal from Prefecture -->
<g id="edge12" class="edge">
<title>Add penalty&#45;&gt;Receive Result Appeal from Prefecture</title>
<path fill="none" stroke="#000000" stroke-width="3" d="M161.64,-529.58C148.43,-517.12 132.82,-499.05 126.75,-479 119.46,-454.93 124.9,-426.72 131.5,-405.76"/>
<polygon fill="#000000" stroke="#000000" stroke-width="3" points="134.73,-407.13 134.73,-396.53 128.13,-404.82 134.73,-407.13"/>
<text text-anchor="middle" x="133.75" y="-457.3" font-family="Times,serif" font-size="14.00">37</text>
</g>
<!-- Notify Result Appeal to Offender -->
<g id="node9" class="node">
<title>Notify Result Appeal to Offender</title>
<polygon fill="#9b9bff" stroke="black" points="251.25,-305 26.25,-305 26.25,-269 251.25,-269 251.25,-305"/>
<text text-anchor="middle" x="138.75" y="-283.3" font-family="Times,serif" font-size="14.00">Notify Result Appeal to Offender (79)</text>
</g>
<!-- Add penalty&#45;&gt;Notify Result Appeal to Offender -->
<g id="edge15" class="edge">
<title>Add penalty&#45;&gt;Notify Result Appeal to Offender</title>
<path fill="none" stroke="#ff0000" stroke-width="0.64" stroke-dasharray="5,2" d="M148.52,-529.59C105.46,-505.46 33.75,-457.33 5.75,-392 -0.55,-377.29 -2.6,-369.65 5.75,-356 18.72,-334.8 40.61,-319.95 62.93,-309.66"/>
<polygon fill="#ff0000" stroke="#ff0000" stroke-width="0.64" points="64.15,-312.94 71.95,-305.77 61.38,-306.51 64.15,-312.94"/>
<text text-anchor="middle" x="27.25" y="-413.8" font-family="Times,serif" font-size="14.00">4</text>
</g>
<!-- Send Appeal to Prefecture&#45;&gt;Add penalty -->
<g id="edge11" class="edge">
<title>Send Appeal to Prefecture&#45;&gt;Add penalty</title>
<path fill="none" stroke="#000000" stroke-width="2.71" d="M232.63,-479.45C223.65,-484.19 214.87,-490 207.75,-497 201.96,-502.7 197.28,-510.02 193.6,-517.29"/>
<polygon fill="#000000" stroke="#000000" stroke-width="2.71" points="190.51,-515.64 189.7,-526.21 196.92,-518.45 190.51,-515.64"/>
<text text-anchor="middle" x="214.75" y="-500.8" font-family="Times,serif" font-size="14.00">33</text>
</g>
<!-- Send Appeal to Prefecture&#45;&gt;Receive Result Appeal from Prefecture -->
<g id="edge7" class="edge">
<title>Send Appeal to Prefecture&#45;&gt;Receive Result Appeal from Prefecture</title>
<path fill="none" stroke="#000000" stroke-width="3.36" d="M252.7,-442.59C233.03,-430.39 206.42,-413.88 184.43,-400.24"/>
<polygon fill="#000000" stroke="#000000" stroke-width="3.36" points="186.43,-397.36 176.09,-395.06 182.74,-403.31 186.43,-397.36"/>
<text text-anchor="middle" x="226.75" y="-413.8" font-family="Times,serif" font-size="14.00">42</text>
</g>
<!-- end_node -->
<g id="node12" class="node">
<title>end_node</title>
<ellipse fill="none" stroke="black" cx="158.75" cy="-22" rx="18" ry="18"/>
<ellipse fill="none" stroke="black" cx="158.75" cy="-22" rx="22" ry="22"/>
<text text-anchor="start" x="154.25" y="-18.3" font-family="Times,serif" font-size="14.00">■</text>
</g>
<!-- Send Appeal to Prefecture&#45;&gt;end_node -->
<g id="edge19" class="edge">
<title>Send Appeal to Prefecture&#45;&gt;end_node</title>
<path fill="none" stroke="#ff0000" stroke-width="0.64" stroke-dasharray="5,2" d="M302.75,-442.6C319.88,-426.95 340.75,-402.28 340.75,-375 340.75,-375 340.75,-375 340.75,-112 340.75,-46.46 244.34,-29.18 191.85,-24.63"/>
<polygon fill="#ff0000" stroke="#ff0000" stroke-width="0.64" points="192.27,-21.15 182.04,-23.89 191.75,-28.13 192.27,-21.15"/>
<text text-anchor="middle" x="344.25" y="-239.8" font-family="Times,serif" font-size="14.00">4</text>
</g>
<!-- Receive Result Appeal from Prefecture&#45;&gt;Add penalty -->
<g id="edge14" class="edge">
<title>Receive Result Appeal from Prefecture&#45;&gt;Add penalty</title>
<path fill="none" stroke="#ff0000" stroke-width="0.64" stroke-dasharray="5,2" d="M147.72,-392.48C154.47,-422.26 168.26,-483.07 176.38,-518.88"/>
<polygon fill="#ff0000" stroke="#ff0000" stroke-width="0.64" points="172.96,-519.63 178.58,-528.61 179.78,-518.09 172.96,-519.63"/>
<text text-anchor="middle" x="170.25" y="-457.3" font-family="Times,serif" font-size="14.00">4</text>
</g>
<!-- Receive Result Appeal from Prefecture&#45;&gt;Notify Result Appeal to Offender -->
<g id="edge8" class="edge">
<title>Receive Result Appeal from Prefecture&#45;&gt;Notify Result Appeal to Offender</title>
<path fill="none" stroke="#000000" stroke-width="5.71" d="M142.74,-355.8C142.16,-345.96 141.41,-333.27 140.72,-321.53"/>
<polygon fill="#000000" stroke="#000000" stroke-width="5.71" points="145.73,-321.53 140.15,-311.84 135.75,-322.12 145.73,-321.53"/>
<text text-anchor="middle" x="148.75" y="-326.8" font-family="Times,serif" font-size="14.00">75</text>
</g>
<!-- Send for Credit Collection -->
<g id="node10" class="node">
<title>Send for Credit Collection</title>
<polygon fill="#a0a0ff" stroke="black" points="312.25,-131 125.25,-131 125.25,-95 312.25,-95 312.25,-131"/>
<text text-anchor="middle" x="218.75" y="-109.3" font-family="Times,serif" font-size="14.00">Send for Credit Collection (75)</text>
</g>
<!-- Notify Result Appeal to Offender&#45;&gt;Send for Credit Collection -->
<g id="edge9" class="edge">
<title>Notify Result Appeal to Offender&#45;&gt;Send for Credit Collection</title>
<path fill="none" stroke="#000000" stroke-width="5.57" d="M165.46,-268.56C181.56,-256.45 200.83,-238.79 210.75,-218 221.23,-196.04 222.92,-168.48 222.15,-147.25"/>
<polygon fill="#000000" stroke="#000000" stroke-width="5.57" points="227.03,-147.16 221.49,-137.51 217.3,-147.81 227.03,-147.16"/>
<text text-anchor="middle" x="226.75" y="-196.3" font-family="Times,serif" font-size="14.00">73</text>
</g>
<!-- Appeal to Judge -->
<g id="node11" class="node">
<title>Appeal to Judge</title>
<polygon fill="#ffffff" stroke="black" points="201.25,-218 76.25,-218 76.25,-182 201.25,-182 201.25,-218"/>
<text text-anchor="middle" x="138.75" y="-196.3" font-family="Times,serif" font-size="14.00">Appeal to Judge (5)</text>
</g>
<!-- Notify Result Appeal to Offender&#45;&gt;Appeal to Judge -->
<g id="edge16" class="edge">
<title>Notify Result Appeal to Offender&#45;&gt;Appeal to Judge</title>
<path fill="none" stroke="#000000" stroke-width="0.71" d="M138.75,-268.8C138.75,-257.47 138.75,-242.36 138.75,-229.29"/>
<polygon fill="#000000" stroke="#000000" stroke-width="0.71" points="142.25,-229.55 138.75,-219.55 135.25,-229.55 142.25,-229.55"/>
<text text-anchor="middle" x="142.25" y="-239.8" font-family="Times,serif" font-size="14.00">5</text>
</g>
<!-- Notify Result Appeal to Offender&#45;&gt;end_node -->
<g id="edge21" class="edge">
<title>Notify Result Appeal to Offender&#45;&gt;end_node</title>
<path fill="none" stroke="#ff0000" stroke-width="0.43" stroke-dasharray="5,2" d="M111.13,-268.53C94.88,-256.53 75.8,-239 66.75,-218 60.42,-203.31 63.84,-197.73 66.75,-182 77.15,-125.84 79.71,-108.59 112.75,-62 118.15,-54.39 125.36,-47.35 132.48,-41.41"/>
<polygon fill="#ff0000" stroke="#ff0000" stroke-width="0.43" points="134.46,-44.3 140.15,-35.37 130.13,-38.8 134.46,-44.3"/>
<text text-anchor="middle" x="77.25" y="-152.8" font-family="Times,serif" font-size="14.00">1</text>
</g>
<!-- Send for Credit Collection&#45;&gt;Send Appeal to Prefecture -->
<g id="edge13" class="edge">
<title>Send for Credit Collection&#45;&gt;Send Appeal to Prefecture</title>
<path fill="none" stroke="#ff0000" stroke-width="0.64" stroke-dasharray="5,2" d="M251.63,-131.31C274.44,-145.95 300.75,-169.27 300.75,-199 300.75,-375 300.75,-375 300.75,-375 300.75,-394.65 295.62,-416.19 290.56,-432.67"/>
<polygon fill="#ff0000" stroke="#ff0000" stroke-width="0.64" points="287.37,-431.18 287.6,-441.77 294.02,-433.35 287.37,-431.18"/>
<text text-anchor="middle" x="304.25" y="-283.3" font-family="Times,serif" font-size="14.00">4</text>
</g>
<!-- Send for Credit Collection&#45;&gt;end_node -->
<g id="edge18" class="edge">
<title>Send for Credit Collection&#45;&gt;end_node</title>
<path fill="none" stroke="#000000" stroke-width="5.43" d="M207.18,-94.84C199.4,-83.29 188.91,-67.74 179.69,-54.05"/>
<polygon fill="#000000" stroke="#000000" stroke-width="5.43" points="183.76,-51.6 174.23,-45.96 175.88,-56.91 183.76,-51.6"/>
<text text-anchor="middle" x="200.75" y="-65.8" font-family="Times,serif" font-size="14.00">71</text>
</g>
<!-- Appeal to Judge&#45;&gt;Send for Credit Collection -->
<g id="edge17" class="edge">
<title>Appeal to Judge&#45;&gt;Send for Credit Collection</title>
<path fill="none" stroke="#ff0000" stroke-width="0.5" stroke-dasharray="5,2" d="M154.94,-181.8C166.47,-169.55 182.14,-152.9 195.07,-139.16"/>
<polygon fill="#ff0000" stroke="#ff0000" stroke-width="0.5" points="197.49,-141.7 201.79,-132.02 192.39,-136.9 197.49,-141.7"/>
<text text-anchor="middle" x="186.25" y="-152.8" font-family="Times,serif" font-size="14.00">2</text>
</g>
<!-- Appeal to Judge&#45;&gt;end_node -->
<g id="edge20" class="edge">
<title>Appeal to Judge&#45;&gt;end_node</title>
<path fill="none" stroke="#ff0000" stroke-width="0.57" stroke-dasharray="5,2" d="M127.42,-181.63C115.37,-160.92 99.26,-125.31 108.75,-95 114.35,-77.13 126.12,-59.8 136.83,-46.63"/>
<polygon fill="#ff0000" stroke="#ff0000" stroke-width="0.57" points="139.28,-49.15 143.08,-39.26 133.94,-44.62 139.28,-49.15"/>
<text text-anchor="middle" x="112.25" y="-109.3" font-family="Times,serif" font-size="14.00">3</text>
</g>
</g>
</svg>
