<?xml version="1.0" encoding="UTF-8" standalone="no"?>
<!DOCTYPE svg PUBLIC "-//W3C//DTD SVG 1.1//EN"
 "http://www.w3.org/Graphics/SVG/1.1/DTD/svg11.dtd">
<!-- Generated by graphviz version 7.0.5 (0)
 -->
<!-- Title: dfg Pages: 1 -->
<svg width="274pt" height="661pt"
 viewBox="0.00 0.00 274.00 661.00" xmlns="http://www.w3.org/2000/svg" xmlns:xlink="http://www.w3.org/1999/xlink">
<g id="graph0" class="graph" transform="scale(1 1) rotate(0) translate(4 657)">
<title>dfg</title>
<polygon fill="white" stroke="none" points="-4,4 -4,-657 270,-657 270,4 -4,4"/>
<!-- start_node -->
<g id="node1" class="node">
<title>start_node</title>
<ellipse fill="none" stroke="black" cx="184" cy="-635" rx="18" ry="18"/>
<text text-anchor="start" x="179.5" y="-631.3" font-family="Times,serif" font-size="14.00">●</text>
</g>
<!-- Create Fine -->
<g id="node2" class="node">
<title>Create Fine</title>
<polygon fill="#f2f2ff" stroke="black" points="233.5,-566 134.5,-566 134.5,-530 233.5,-530 233.5,-566"/>
<text text-anchor="middle" x="184" y="-544.3" font-family="Times,serif" font-size="14.00">Create Fine (7)</text>
</g>
<!-- start_node&#45;&gt;Create Fine -->
<g id="edge1" class="edge">
<title>start_node&#45;&gt;Create Fine</title>
<path fill="none" stroke="#000000" stroke-width="1.29" d="M184,-616.8C184,-605.7 184,-590.97 184,-578.08"/>
<polygon fill="#000000" stroke="#000000" stroke-width="1.29" points="187.5,-578.41 184,-568.41 180.5,-578.41 187.5,-578.41"/>
<text text-anchor="middle" x="187.5" y="-587.8" font-family="Times,serif" font-size="14.00">7</text>
</g>
<!-- Send Fine -->
<g id="node3" class="node">
<title>Send Fine</title>
<polygon fill="#f2f2ff" stroke="black" points="229.5,-479 138.5,-479 138.5,-443 229.5,-443 229.5,-479"/>
<text text-anchor="middle" x="184" y="-457.3" font-family="Times,serif" font-size="14.00">Send Fine (7)</text>
</g>
<!-- Create Fine&#45;&gt;Send Fine -->
<g id="edge2" class="edge">
<title>Create Fine&#45;&gt;Send Fine</title>
<path fill="none" stroke="#000000" stroke-width="1.29" d="M184,-529.8C184,-518.7 184,-503.97 184,-491.08"/>
<polygon fill="#000000" stroke="#000000" stroke-width="1.29" points="187.5,-491.41 184,-481.41 180.5,-491.41 187.5,-491.41"/>
<text text-anchor="middle" x="187.5" y="-500.8" font-family="Times,serif" font-size="14.00">7</text>
</g>
<!-- Insert Fine Notification -->
<g id="node4" class="node">
<title>Insert Fine Notification</title>
<polygon fill="#f2f2ff" stroke="black" points="266,-392 102,-392 102,-356 266,-356 266,-392"/>
<text text-anchor="middle" x="184" y="-370.3" font-family="Times,serif" font-size="14.00">Insert Fine Notification (7)</text>
</g>
<!-- Send Fine&#45;&gt;Insert Fine Notification -->
<g id="edge3" class="edge">
<title>Send Fine&#45;&gt;Insert Fine Notification</title>
<path fill="none" stroke="#000000" stroke-width="1.29" d="M184,-442.8C184,-431.7 184,-416.97 184,-404.08"/>
<polygon fill="#000000" stroke="#000000" stroke-width="1.29" points="187.5,-404.41 184,-394.41 180.5,-404.41 187.5,-404.41"/>
<text text-anchor="middle" x="187.5" y="-413.8" font-family="Times,serif" font-size="14.00">7</text>
</g>
<!-- Add penalty -->
<g id="node5" class="node">
<title>Add penalty</title>
<polygon fill="#f2f2ff" stroke="black" points="235.5,-305 132.5,-305 132.5,-269 235.5,-269 235.5,-305"/>
<text text-anchor="middle" x="184" y="-283.3" font-family="Times,serif" font-size="14.00">Add penalty (7)</text>
</g>
<!-- Insert Fine Notification&#45;&gt;Add penalty -->
<g id="edge4" class="edge">
<title>Insert Fine Notification&#45;&gt;Add penalty</title>
<path fill="none" stroke="#000000" stroke-width="1.29" d="M184,-355.8C184,-344.7 184,-329.97 184,-317.08"/>
<polygon fill="#000000" stroke="#000000" stroke-width="1.29" points="187.5,-317.41 184,-307.41 180.5,-317.41 187.5,-317.41"/>
<text text-anchor="middle" x="187.5" y="-326.8" font-family="Times,serif" font-size="14.00">7</text>
</g>
<!-- Payment -->
<g id="node6" class="node">
<title>Payment</title>
<polygon fill="#9b9bff" stroke="black" points="229.5,-218 138.5,-218 138.5,-182 229.5,-182 229.5,-218"/>
<text text-anchor="middle" x="184" y="-196.3" font-family="Times,serif" font-size="14.00">Payment (50)</text>
</g>
<!-- Add penalty&#45;&gt;Payment -->
<g id="edge5" class="edge">
<title>Add penalty&#45;&gt;Payment</title>
<path fill="none" stroke="#000000" stroke-width="1.29" d="M184,-268.8C184,-257.7 184,-242.97 184,-230.08"/>
<polygon fill="#000000" stroke="#000000" stroke-width="1.29" points="187.5,-230.41 184,-220.41 180.5,-230.41 187.5,-230.41"/>
<text text-anchor="middle" x="187.5" y="-239.8" font-family="Times,serif" font-size="14.00">7</text>
</g>
<!-- Payment&#45;&gt;Payment -->
<g id="edge6" class="edge">
<title>Payment&#45;&gt;Payment</title>
<path fill="none" stroke="#000000" stroke-width="6" d="M229.95,-207.94C240.1,-207.19 247.5,-204.55 247.5,-200 247.5,-198.58 246.78,-197.34 245.47,-196.3"/>
<polygon fill="#000000" stroke="#000000" stroke-width="6" points="247.21,-191.33 236.18,-193.76 244.44,-201.46 247.21,-191.33"/>
<text text-anchor="middle" x="254.5" y="-196.3" font-family="Times,serif" font-size="14.00">43</text>
</g>
<!-- Send for Credit Collection -->
<g id="node7" class="node">
<title>Send for Credit Collection</title>
<polygon fill="#ffffff" stroke="black" points="180,-131 0,-131 0,-95 180,-95 180,-131"/>
<text text-anchor="middle" x="90" y="-109.3" font-family="Times,serif" font-size="14.00">Send for Credit Collection (1)</text>
</g>
<!-- Payment&#45;&gt;Send for Credit Collection -->
<g id="edge7" class="edge">
<title>Payment&#45;&gt;Send for Credit Collection</title>
<path fill="none" stroke="#ff0000" stroke-width="0.5" stroke-dasharray="5,2" d="M164.98,-181.8C151.18,-169.32 132.33,-152.28 116.98,-138.4"/>
<polygon fill="#ff0000" stroke="#ff0000" stroke-width="0.5" points="119.64,-136.09 109.88,-131.97 114.95,-141.28 119.64,-136.09"/>
<text text-anchor="middle" x="146.5" y="-152.8" font-family="Times,serif" font-size="14.00">1</text>
</g>
<!-- end_node -->
<g id="node8" class="node">
<title>end_node</title>
<ellipse fill="none" stroke="black" cx="153" cy="-22" rx="18" ry="18"/>
<ellipse fill="none" stroke="black" cx="153" cy="-22" rx="22" ry="22"/>
<text text-anchor="start" x="148.5" y="-18.3" font-family="Times,serif" font-size="14.00">■</text>
</g>
<!-- Payment&#45;&gt;end_node -->
<g id="edge8" class="edge">
<title>Payment&#45;&gt;end_node</title>
<path fill="none" stroke="#000000" stroke-width="1.15" d="M187.7,-181.8C191.54,-160.96 196.06,-124.91 189,-95 185.39,-79.7 178,-63.94 170.85,-51.08"/>
<polygon fill="#000000" stroke="#000000" stroke-width="1.15" points="173.93,-49.42 165.87,-42.55 167.89,-52.95 173.93,-49.42"/>
<text text-anchor="middle" x="196.5" y="-109.3" font-family="Times,serif" font-size="14.00">6</text>
</g>
<!-- Send for Credit Collection&#45;&gt;end_node -->
<g id="edge9" class="edge">
<title>Send for Credit Collection&#45;&gt;end_node</title>
<path fill="none" stroke="#ff0000" stroke-width="0.5" stroke-dasharray="5,2" d="M102.15,-94.84C111.33,-81.87 124.09,-63.85 134.53,-49.1"/>
<polygon fill="#ff0000" stroke="#ff0000" stroke-width="0.5" points="137.32,-51.21 140.24,-41.03 131.6,-47.17 137.32,-51.21"/>
<text text-anchor="middle" x="129.5" y="-65.8" font-family="Times,serif" font-size="14.00">1</text>
</g>
</g>
</svg>
