<?xml version="1.0" encoding="UTF-8" standalone="no"?>
<!DOCTYPE svg PUBLIC "-//W3C//DTD SVG 1.1//EN"
 "http://www.w3.org/Graphics/SVG/1.1/DTD/svg11.dtd">
<!-- Generated by graphviz version 7.1.0 (0)
 -->
<!-- Pages: 1 -->
<svg width="2221pt" height="638pt"
 viewBox="0.00 0.00 2221.00 638.00" xmlns="http://www.w3.org/2000/svg" xmlns:xlink="http://www.w3.org/1999/xlink">
<g id="graph0" class="graph" transform="scale(1 1) rotate(0) translate(4 634)">
<polygon fill="white" stroke="none" points="-4,4 -4,-634 2217,-634 2217,4 -4,4"/>
<!-- start_node_var0 -->
<g id="node1" class="node">
<title>start_node_var0</title>
<text text-anchor="middle" x="40" y="-14.3" font-family="Times,serif" font-size="14.00">1 traces</text>
</g>
<!-- Create Fine_var0_step0 -->
<g id="node2" class="node">
<title>Create Fine_var0_step0</title>
<polygon fill="lightgrey" stroke="black" points="80,-90 0,-90 0,-54 80,-54 80,-90"/>
<text text-anchor="middle" x="40" y="-68.3" font-family="Times,serif" font-size="14.00">Create Fine</text>
</g>
<!-- Send Fine_var0_step1 -->
<g id="node3" class="node">
<title>Send Fine_var0_step1</title>
<polygon fill="lightgrey" stroke="black" points="187,-90 116,-90 116,-54 187,-54 187,-90"/>
<text text-anchor="middle" x="151.5" y="-68.3" font-family="Times,serif" font-size="14.00">Send Fine</text>
</g>
<!-- Create Fine_var0_step0&#45;&gt;Send Fine_var0_step1 -->
<g id="edge1" class="edge">
<title>Create Fine_var0_step0&#45;&gt;Send Fine_var0_step1</title>
<path fill="none" stroke="black" d="M80.22,-72C87.97,-72 96.18,-72 104.14,-72"/>
<polygon fill="black" stroke="black" points="104.04,-75.5 114.04,-72 104.04,-68.5 104.04,-75.5"/>
</g>
<!-- Insert Fine Notification_var0_step2 -->
<g id="node4" class="node">
<title>Insert Fine Notification_var0_step2</title>
<polygon fill="lightgrey" stroke="black" points="367,-90 223,-90 223,-54 367,-54 367,-90"/>
<text text-anchor="middle" x="295" y="-68.3" font-family="Times,serif" font-size="14.00">Insert Fine Notification</text>
</g>
<!-- Send Fine_var0_step1&#45;&gt;Insert Fine Notification_var0_step2 -->
<g id="edge2" class="edge">
<title>Send Fine_var0_step1&#45;&gt;Insert Fine Notification_var0_step2</title>
<path fill="none" stroke="black" d="M187.48,-72C194.85,-72 202.92,-72 211.22,-72"/>
<polygon fill="black" stroke="black" points="211.13,-75.5 221.13,-72 211.13,-68.5 211.13,-75.5"/>
</g>
<!-- Add penalty_var0_step3 -->
<g id="node5" class="node">
<title>Add penalty_var0_step3</title>
<polygon fill="lightgrey" stroke="black" points="540.5,-90 457.5,-90 457.5,-54 540.5,-54 540.5,-90"/>
<text text-anchor="middle" x="499" y="-68.3" font-family="Times,serif" font-size="14.00">Add penalty</text>
</g>
<!-- Insert Fine Notification_var0_step2&#45;&gt;Add penalty_var0_step3 -->
<g id="edge3" class="edge">
<title>Insert Fine Notification_var0_step2&#45;&gt;Add penalty_var0_step3</title>
<path fill="none" stroke="black" d="M367.22,-72C393.09,-72 421.82,-72 445.74,-72"/>
<polygon fill="black" stroke="black" points="445.56,-75.5 455.56,-72 445.56,-68.5 445.56,-75.5"/>
</g>
<!-- Payment_var0_step4 -->
<g id="node6" class="node">
<title>Payment_var0_step4</title>
<polygon fill="lightgrey" stroke="black" points="743,-90 678,-90 678,-54 743,-54 743,-90"/>
<text text-anchor="middle" x="710.5" y="-68.3" font-family="Times,serif" font-size="14.00">Payment</text>
</g>
<!-- Add penalty_var0_step3&#45;&gt;Payment_var0_step4 -->
<g id="edge4" class="edge">
<title>Add penalty_var0_step3&#45;&gt;Payment_var0_step4</title>
<path fill="none" stroke="black" d="M540.89,-72C576.99,-72 629.46,-72 666.26,-72"/>
<polygon fill="black" stroke="black" points="666.1,-75.5 676.1,-72 666.1,-68.5 666.1,-75.5"/>
</g>
<!-- Payment_var0_step5 -->
<g id="node7" class="node">
<title>Payment_var0_step5</title>
<polygon fill="lightgrey" stroke="black" points="900,-90 835,-90 835,-54 900,-54 900,-90"/>
<text text-anchor="middle" x="867.5" y="-68.3" font-family="Times,serif" font-size="14.00">Payment</text>
</g>
<!-- Payment_var0_step4&#45;&gt;Payment_var0_step5 -->
<g id="edge5" class="edge">
<title>Payment_var0_step4&#45;&gt;Payment_var0_step5</title>
<path fill="none" stroke="black" d="M743.24,-72C766.36,-72 797.94,-72 823.35,-72"/>
<polygon fill="black" stroke="black" points="823.02,-75.5 833.02,-72 823.02,-68.5 823.02,-75.5"/>
</g>
<!-- Payment_var0_step6 -->
<g id="node8" class="node">
<title>Payment_var0_step6</title>
<polygon fill="lightgrey" stroke="black" points="1092.5,-90 1027.5,-90 1027.5,-54 1092.5,-54 1092.5,-90"/>
<text text-anchor="middle" x="1060" y="-68.3" font-family="Times,serif" font-size="14.00">Payment</text>
</g>
<!-- Payment_var0_step5&#45;&gt;Payment_var0_step6 -->
<g id="edge6" class="edge">
<title>Payment_var0_step5&#45;&gt;Payment_var0_step6</title>
<path fill="none" stroke="black" d="M900.39,-72C931.98,-72 980.59,-72 1015.68,-72"/>
<polygon fill="black" stroke="black" points="1015.5,-75.5 1025.5,-72 1015.5,-68.5 1015.5,-75.5"/>
</g>
<!-- Payment_var0_step7 -->
<g id="node9" class="node">
<title>Payment_var0_step7</title>
<polygon fill="lightgrey" stroke="black" points="1343,-90 1278,-90 1278,-54 1343,-54 1343,-90"/>
<text text-anchor="middle" x="1310.5" y="-68.3" font-family="Times,serif" font-size="14.00">Payment</text>
</g>
<!-- Payment_var0_step6&#45;&gt;Payment_var0_step7 -->
<g id="edge7" class="edge">
<title>Payment_var0_step6&#45;&gt;Payment_var0_step7</title>
<path fill="none" stroke="black" d="M1092.98,-72C1137.15,-72 1216.97,-72 1266.38,-72"/>
<polygon fill="black" stroke="black" points="1266.13,-75.5 1276.13,-72 1266.13,-68.5 1266.13,-75.5"/>
</g>
<!-- start_node_var1 -->
<g id="node10" class="node">
<title>start_node_var1</title>
<text text-anchor="middle" x="40" y="-122.3" font-family="Times,serif" font-size="14.00">1 traces</text>
</g>
<!-- Create Fine_var1_step0 -->
<g id="node11" class="node">
<title>Create Fine_var1_step0</title>
<polygon fill="lightgrey" stroke="black" points="80,-198 0,-198 0,-162 80,-162 80,-198"/>
<text text-anchor="middle" x="40" y="-176.3" font-family="Times,serif" font-size="14.00">Create Fine</text>
</g>
<!-- Send Fine_var1_step1 -->
<g id="node12" class="node">
<title>Send Fine_var1_step1</title>
<polygon fill="lightgrey" stroke="black" points="187,-198 116,-198 116,-162 187,-162 187,-198"/>
<text text-anchor="middle" x="151.5" y="-176.3" font-family="Times,serif" font-size="14.00">Send Fine</text>
</g>
<!-- Create Fine_var1_step0&#45;&gt;Send Fine_var1_step1 -->
<g id="edge8" class="edge">
<title>Create Fine_var1_step0&#45;&gt;Send Fine_var1_step1</title>
<path fill="none" stroke="black" d="M80.22,-180C87.97,-180 96.18,-180 104.14,-180"/>
<polygon fill="black" stroke="black" points="104.04,-183.5 114.04,-180 104.04,-176.5 104.04,-183.5"/>
</g>
<!-- Insert Fine Notification_var1_step2 -->
<g id="node13" class="node">
<title>Insert Fine Notification_var1_step2</title>
<polygon fill="lightgrey" stroke="black" points="367,-198 223,-198 223,-162 367,-162 367,-198"/>
<text text-anchor="middle" x="295" y="-176.3" font-family="Times,serif" font-size="14.00">Insert Fine Notification</text>
</g>
<!-- Send Fine_var1_step1&#45;&gt;Insert Fine Notification_var1_step2 -->
<g id="edge9" class="edge">
<title>Send Fine_var1_step1&#45;&gt;Insert Fine Notification_var1_step2</title>
<path fill="none" stroke="black" d="M187.48,-180C194.85,-180 202.92,-180 211.22,-180"/>
<polygon fill="black" stroke="black" points="211.13,-183.5 221.13,-180 211.13,-176.5 211.13,-183.5"/>
</g>
<!-- Add penalty_var1_step3 -->
<g id="node14" class="node">
<title>Add penalty_var1_step3</title>
<polygon fill="lightgrey" stroke="black" points="540.5,-198 457.5,-198 457.5,-162 540.5,-162 540.5,-198"/>
<text text-anchor="middle" x="499" y="-176.3" font-family="Times,serif" font-size="14.00">Add penalty</text>
</g>
<!-- Insert Fine Notification_var1_step2&#45;&gt;Add penalty_var1_step3 -->
<g id="edge10" class="edge">
<title>Insert Fine Notification_var1_step2&#45;&gt;Add penalty_var1_step3</title>
<path fill="none" stroke="black" d="M367.22,-180C393.09,-180 421.82,-180 445.74,-180"/>
<polygon fill="black" stroke="black" points="445.56,-183.5 455.56,-180 445.56,-176.5 445.56,-183.5"/>
</g>
<!-- Payment_var1_step4 -->
<g id="node15" class="node">
<title>Payment_var1_step4</title>
<polygon fill="lightgrey" stroke="black" points="743,-198 678,-198 678,-162 743,-162 743,-198"/>
<text text-anchor="middle" x="710.5" y="-176.3" font-family="Times,serif" font-size="14.00">Payment</text>
</g>
<!-- Add penalty_var1_step3&#45;&gt;Payment_var1_step4 -->
<g id="edge11" class="edge">
<title>Add penalty_var1_step3&#45;&gt;Payment_var1_step4</title>
<path fill="none" stroke="black" d="M540.89,-180C576.99,-180 629.46,-180 666.26,-180"/>
<polygon fill="black" stroke="black" points="666.1,-183.5 676.1,-180 666.1,-176.5 666.1,-183.5"/>
</g>
<!-- Payment_var1_step5 -->
<g id="node16" class="node">
<title>Payment_var1_step5</title>
<polygon fill="lightgrey" stroke="black" points="900,-198 835,-198 835,-162 900,-162 900,-198"/>
<text text-anchor="middle" x="867.5" y="-176.3" font-family="Times,serif" font-size="14.00">Payment</text>
</g>
<!-- Payment_var1_step4&#45;&gt;Payment_var1_step5 -->
<g id="edge12" class="edge">
<title>Payment_var1_step4&#45;&gt;Payment_var1_step5</title>
<path fill="none" stroke="black" d="M743.24,-180C766.36,-180 797.94,-180 823.35,-180"/>
<polygon fill="black" stroke="black" points="823.02,-183.5 833.02,-180 823.02,-176.5 823.02,-183.5"/>
</g>
<!-- Payment_var1_step6 -->
<g id="node17" class="node">
<title>Payment_var1_step6</title>
<polygon fill="lightgrey" stroke="black" points="1092.5,-198 1027.5,-198 1027.5,-162 1092.5,-162 1092.5,-198"/>
<text text-anchor="middle" x="1060" y="-176.3" font-family="Times,serif" font-size="14.00">Payment</text>
</g>
<!-- Payment_var1_step5&#45;&gt;Payment_var1_step6 -->
<g id="edge13" class="edge">
<title>Payment_var1_step5&#45;&gt;Payment_var1_step6</title>
<path fill="none" stroke="black" d="M900.39,-180C931.98,-180 980.59,-180 1015.68,-180"/>
<polygon fill="black" stroke="black" points="1015.5,-183.5 1025.5,-180 1015.5,-176.5 1015.5,-183.5"/>
</g>
<!-- Payment_var1_step7 -->
<g id="node18" class="node">
<title>Payment_var1_step7</title>
<polygon fill="lightgrey" stroke="black" points="1343,-198 1278,-198 1278,-162 1343,-162 1343,-198"/>
<text text-anchor="middle" x="1310.5" y="-176.3" font-family="Times,serif" font-size="14.00">Payment</text>
</g>
<!-- Payment_var1_step6&#45;&gt;Payment_var1_step7 -->
<g id="edge14" class="edge">
<title>Payment_var1_step6&#45;&gt;Payment_var1_step7</title>
<path fill="none" stroke="black" d="M1092.98,-180C1137.15,-180 1216.97,-180 1266.38,-180"/>
<polygon fill="black" stroke="black" points="1266.13,-183.5 1276.13,-180 1266.13,-176.5 1266.13,-183.5"/>
</g>
<!-- Payment_var1_step8 -->
<g id="node19" class="node">
<title>Payment_var1_step8</title>
<polygon fill="lightgrey" stroke="black" points="1511,-198 1446,-198 1446,-162 1511,-162 1511,-198"/>
<text text-anchor="middle" x="1478.5" y="-176.3" font-family="Times,serif" font-size="14.00">Payment</text>
</g>
<!-- Payment_var1_step7&#45;&gt;Payment_var1_step8 -->
<g id="edge15" class="edge">
<title>Payment_var1_step7&#45;&gt;Payment_var1_step8</title>
<path fill="none" stroke="black" d="M1343.11,-180C1368.99,-180 1405.86,-180 1434.43,-180"/>
<polygon fill="black" stroke="black" points="1434.21,-183.5 1444.21,-180 1434.21,-176.5 1434.21,-183.5"/>
</g>
<!-- Payment_var1_step9 -->
<g id="node20" class="node">
<title>Payment_var1_step9</title>
<polygon fill="lightgrey" stroke="black" points="1612,-198 1547,-198 1547,-162 1612,-162 1612,-198"/>
<text text-anchor="middle" x="1579.5" y="-176.3" font-family="Times,serif" font-size="14.00">Payment</text>
</g>
<!-- Payment_var1_step8&#45;&gt;Payment_var1_step9 -->
<g id="edge16" class="edge">
<title>Payment_var1_step8&#45;&gt;Payment_var1_step9</title>
<path fill="none" stroke="black" d="M1511.37,-180C1518.96,-180 1527.2,-180 1535.21,-180"/>
<polygon fill="black" stroke="black" points="1535.18,-183.5 1545.18,-180 1535.18,-176.5 1535.18,-183.5"/>
</g>
<!-- Payment_var1_step10 -->
<g id="node21" class="node">
<title>Payment_var1_step10</title>
<polygon fill="lightgrey" stroke="black" points="1713,-198 1648,-198 1648,-162 1713,-162 1713,-198"/>
<text text-anchor="middle" x="1680.5" y="-176.3" font-family="Times,serif" font-size="14.00">Payment</text>
</g>
<!-- Payment_var1_step9&#45;&gt;Payment_var1_step10 -->
<g id="edge17" class="edge">
<title>Payment_var1_step9&#45;&gt;Payment_var1_step10</title>
<path fill="none" stroke="black" d="M1612.37,-180C1619.96,-180 1628.2,-180 1636.21,-180"/>
<polygon fill="black" stroke="black" points="1636.18,-183.5 1646.18,-180 1636.18,-176.5 1636.18,-183.5"/>
</g>
<!-- Payment_var1_step11 -->
<g id="node22" class="node">
<title>Payment_var1_step11</title>
<polygon fill="lightgrey" stroke="black" points="1814,-198 1749,-198 1749,-162 1814,-162 1814,-198"/>
<text text-anchor="middle" x="1781.5" y="-176.3" font-family="Times,serif" font-size="14.00">Payment</text>
</g>
<!-- Payment_var1_step10&#45;&gt;Payment_var1_step11 -->
<g id="edge18" class="edge">
<title>Payment_var1_step10&#45;&gt;Payment_var1_step11</title>
<path fill="none" stroke="black" d="M1713.37,-180C1720.96,-180 1729.2,-180 1737.21,-180"/>
<polygon fill="black" stroke="black" points="1737.18,-183.5 1747.18,-180 1737.18,-176.5 1737.18,-183.5"/>
</g>
<!-- Payment_var1_step12 -->
<g id="node23" class="node">
<title>Payment_var1_step12</title>
<polygon fill="lightgrey" stroke="black" points="1915,-198 1850,-198 1850,-162 1915,-162 1915,-198"/>
<text text-anchor="middle" x="1882.5" y="-176.3" font-family="Times,serif" font-size="14.00">Payment</text>
</g>
<!-- Payment_var1_step11&#45;&gt;Payment_var1_step12 -->
<g id="edge19" class="edge">
<title>Payment_var1_step11&#45;&gt;Payment_var1_step12</title>
<path fill="none" stroke="black" d="M1814.37,-180C1821.96,-180 1830.2,-180 1838.21,-180"/>
<polygon fill="black" stroke="black" points="1838.18,-183.5 1848.18,-180 1838.18,-176.5 1838.18,-183.5"/>
</g>
<!-- Payment_var1_step13 -->
<g id="node24" class="node">
<title>Payment_var1_step13</title>
<polygon fill="lightgrey" stroke="black" points="2016,-198 1951,-198 1951,-162 2016,-162 2016,-198"/>
<text text-anchor="middle" x="1983.5" y="-176.3" font-family="Times,serif" font-size="14.00">Payment</text>
</g>
<!-- Payment_var1_step12&#45;&gt;Payment_var1_step13 -->
<g id="edge20" class="edge">
<title>Payment_var1_step12&#45;&gt;Payment_var1_step13</title>
<path fill="none" stroke="black" d="M1915.37,-180C1922.96,-180 1931.2,-180 1939.21,-180"/>
<polygon fill="black" stroke="black" points="1939.18,-183.5 1949.18,-180 1939.18,-176.5 1939.18,-183.5"/>
</g>
<!-- start_node_var2 -->
<g id="node25" class="node">
<title>start_node_var2</title>
<text text-anchor="middle" x="40" y="-230.3" font-family="Times,serif" font-size="14.00">1 traces</text>
</g>
<!-- Create Fine_var2_step0 -->
<g id="node26" class="node">
<title>Create Fine_var2_step0</title>
<polygon fill="lightgrey" stroke="black" points="80,-306 0,-306 0,-270 80,-270 80,-306"/>
<text text-anchor="middle" x="40" y="-284.3" font-family="Times,serif" font-size="14.00">Create Fine</text>
</g>
<!-- Send Fine_var2_step1 -->
<g id="node27" class="node">
<title>Send Fine_var2_step1</title>
<polygon fill="lightgrey" stroke="black" points="187,-306 116,-306 116,-270 187,-270 187,-306"/>
<text text-anchor="middle" x="151.5" y="-284.3" font-family="Times,serif" font-size="14.00">Send Fine</text>
</g>
<!-- Create Fine_var2_step0&#45;&gt;Send Fine_var2_step1 -->
<g id="edge21" class="edge">
<title>Create Fine_var2_step0&#45;&gt;Send Fine_var2_step1</title>
<path fill="none" stroke="black" d="M80.22,-288C87.97,-288 96.18,-288 104.14,-288"/>
<polygon fill="black" stroke="black" points="104.04,-291.5 114.04,-288 104.04,-284.5 104.04,-291.5"/>
</g>
<!-- Insert Fine Notification_var2_step2 -->
<g id="node28" class="node">
<title>Insert Fine Notification_var2_step2</title>
<polygon fill="lightgrey" stroke="black" points="367,-306 223,-306 223,-270 367,-270 367,-306"/>
<text text-anchor="middle" x="295" y="-284.3" font-family="Times,serif" font-size="14.00">Insert Fine Notification</text>
</g>
<!-- Send Fine_var2_step1&#45;&gt;Insert Fine Notification_var2_step2 -->
<g id="edge22" class="edge">
<title>Send Fine_var2_step1&#45;&gt;Insert Fine Notification_var2_step2</title>
<path fill="none" stroke="black" d="M187.48,-288C194.85,-288 202.92,-288 211.22,-288"/>
<polygon fill="black" stroke="black" points="211.13,-291.5 221.13,-288 211.13,-284.5 211.13,-291.5"/>
</g>
<!-- Insert Date Appeal to Prefecture_var2_step3 -->
<g id="node29" class="node">
<title>Insert Date Appeal to Prefecture_var2_step3</title>
<polygon fill="lightgrey" stroke="black" points="595,-306 403,-306 403,-270 595,-270 595,-306"/>
<text text-anchor="middle" x="499" y="-284.3" font-family="Times,serif" font-size="14.00">Insert Date Appeal to Prefecture</text>
</g>
<!-- Insert Fine Notification_var2_step2&#45;&gt;Insert Date Appeal to Prefecture_var2_step3 -->
<g id="edge23" class="edge">
<title>Insert Fine Notification_var2_step2&#45;&gt;Insert Date Appeal to Prefecture_var2_step3</title>
<path fill="none" stroke="black" d="M367.22,-288C375.02,-288 383.07,-288 391.18,-288"/>
<polygon fill="black" stroke="black" points="391.14,-291.5 401.14,-288 391.14,-284.5 391.14,-291.5"/>
</g>
<!-- Send Appeal to Prefecture_var2_step4 -->
<g id="node30" class="node">
<title>Send Appeal to Prefecture_var2_step4</title>
<polygon fill="lightgrey" stroke="black" points="790,-306 631,-306 631,-270 790,-270 790,-306"/>
<text text-anchor="middle" x="710.5" y="-284.3" font-family="Times,serif" font-size="14.00">Send Appeal to Prefecture</text>
</g>
<!-- Insert Date Appeal to Prefecture_var2_step3&#45;&gt;Send Appeal to Prefecture_var2_step4 -->
<g id="edge24" class="edge">
<title>Insert Date Appeal to Prefecture_var2_step3&#45;&gt;Send Appeal to Prefecture_var2_step4</title>
<path fill="none" stroke="black" d="M595.25,-288C603.33,-288 611.49,-288 619.53,-288"/>
<polygon fill="black" stroke="black" points="619.28,-291.5 629.28,-288 619.28,-284.5 619.28,-291.5"/>
</g>
<!-- Add penalty_var2_step5 -->
<g id="node31" class="node">
<title>Add penalty_var2_step5</title>
<polygon fill="lightgrey" stroke="black" points="909,-306 826,-306 826,-270 909,-270 909,-306"/>
<text text-anchor="middle" x="867.5" y="-284.3" font-family="Times,serif" font-size="14.00">Add penalty</text>
</g>
<!-- Send Appeal to Prefecture_var2_step4&#45;&gt;Add penalty_var2_step5 -->
<g id="edge25" class="edge">
<title>Send Appeal to Prefecture_var2_step4&#45;&gt;Add penalty_var2_step5</title>
<path fill="none" stroke="black" d="M790.36,-288C798.51,-288 806.63,-288 814.38,-288"/>
<polygon fill="black" stroke="black" points="814.28,-291.5 824.28,-288 814.28,-284.5 814.28,-291.5"/>
</g>
<!-- Receive Result Appeal from Prefecture_var2_step6 -->
<g id="node32" class="node">
<title>Receive Result Appeal from Prefecture_var2_step6</title>
<polygon fill="lightgrey" stroke="black" points="1175,-306 945,-306 945,-270 1175,-270 1175,-306"/>
<text text-anchor="middle" x="1060" y="-284.3" font-family="Times,serif" font-size="14.00">Receive Result Appeal from Prefecture</text>
</g>
<!-- Add penalty_var2_step5&#45;&gt;Receive Result Appeal from Prefecture_var2_step6 -->
<g id="edge26" class="edge">
<title>Add penalty_var2_step5&#45;&gt;Receive Result Appeal from Prefecture_var2_step6</title>
<path fill="none" stroke="black" d="M909.37,-288C916.82,-288 924.93,-288 933.41,-288"/>
<polygon fill="black" stroke="black" points="933.22,-291.5 943.22,-288 933.22,-284.5 933.22,-291.5"/>
</g>
<!-- Notify Result Appeal to Offender_var2_step7 -->
<g id="node33" class="node">
<title>Notify Result Appeal to Offender_var2_step7</title>
<polygon fill="lightgrey" stroke="black" points="1410,-306 1211,-306 1211,-270 1410,-270 1410,-306"/>
<text text-anchor="middle" x="1310.5" y="-284.3" font-family="Times,serif" font-size="14.00">Notify Result Appeal to Offender</text>
</g>
<!-- Receive Result Appeal from Prefecture_var2_step6&#45;&gt;Notify Result Appeal to Offender_var2_step7 -->
<g id="edge27" class="edge">
<title>Receive Result Appeal from Prefecture_var2_step6&#45;&gt;Notify Result Appeal to Offender_var2_step7</title>
<path fill="none" stroke="black" d="M1175.43,-288C1183.3,-288 1191.23,-288 1199.08,-288"/>
<polygon fill="black" stroke="black" points="1199.01,-291.5 1209.01,-288 1199.01,-284.5 1199.01,-291.5"/>
</g>
<!-- Payment_var2_step8 -->
<g id="node34" class="node">
<title>Payment_var2_step8</title>
<polygon fill="lightgrey" stroke="black" points="1511,-306 1446,-306 1446,-270 1511,-270 1511,-306"/>
<text text-anchor="middle" x="1478.5" y="-284.3" font-family="Times,serif" font-size="14.00">Payment</text>
</g>
<!-- Notify Result Appeal to Offender_var2_step7&#45;&gt;Payment_var2_step8 -->
<g id="edge28" class="edge">
<title>Notify Result Appeal to Offender_var2_step7&#45;&gt;Payment_var2_step8</title>
<path fill="none" stroke="black" d="M1410.46,-288C1418.75,-288 1426.82,-288 1434.33,-288"/>
<polygon fill="black" stroke="black" points="1434.09,-291.5 1444.09,-288 1434.09,-284.5 1434.09,-291.5"/>
</g>
<!-- Payment_var2_step9 -->
<g id="node35" class="node">
<title>Payment_var2_step9</title>
<polygon fill="lightgrey" stroke="black" points="1612,-306 1547,-306 1547,-270 1612,-270 1612,-306"/>
<text text-anchor="middle" x="1579.5" y="-284.3" font-family="Times,serif" font-size="14.00">Payment</text>
</g>
<!-- Payment_var2_step8&#45;&gt;Payment_var2_step9 -->
<g id="edge29" class="edge">
<title>Payment_var2_step8&#45;&gt;Payment_var2_step9</title>
<path fill="none" stroke="black" d="M1511.37,-288C1518.96,-288 1527.2,-288 1535.21,-288"/>
<polygon fill="black" stroke="black" points="1535.18,-291.5 1545.18,-288 1535.18,-284.5 1535.18,-291.5"/>
</g>
<!-- Payment_var2_step10 -->
<g id="node36" class="node">
<title>Payment_var2_step10</title>
<polygon fill="lightgrey" stroke="black" points="1713,-306 1648,-306 1648,-270 1713,-270 1713,-306"/>
<text text-anchor="middle" x="1680.5" y="-284.3" font-family="Times,serif" font-size="14.00">Payment</text>
</g>
<!-- Payment_var2_step9&#45;&gt;Payment_var2_step10 -->
<g id="edge30" class="edge">
<title>Payment_var2_step9&#45;&gt;Payment_var2_step10</title>
<path fill="none" stroke="black" d="M1612.37,-288C1619.96,-288 1628.2,-288 1636.21,-288"/>
<polygon fill="black" stroke="black" points="1636.18,-291.5 1646.18,-288 1636.18,-284.5 1636.18,-291.5"/>
</g>
<!-- Payment_var2_step11 -->
<g id="node37" class="node">
<title>Payment_var2_step11</title>
<polygon fill="lightgrey" stroke="black" points="1814,-306 1749,-306 1749,-270 1814,-270 1814,-306"/>
<text text-anchor="middle" x="1781.5" y="-284.3" font-family="Times,serif" font-size="14.00">Payment</text>
</g>
<!-- Payment_var2_step10&#45;&gt;Payment_var2_step11 -->
<g id="edge31" class="edge">
<title>Payment_var2_step10&#45;&gt;Payment_var2_step11</title>
<path fill="none" stroke="black" d="M1713.37,-288C1720.96,-288 1729.2,-288 1737.21,-288"/>
<polygon fill="black" stroke="black" points="1737.18,-291.5 1747.18,-288 1737.18,-284.5 1737.18,-291.5"/>
</g>
<!-- Payment_var2_step12 -->
<g id="node38" class="node">
<title>Payment_var2_step12</title>
<polygon fill="lightgrey" stroke="black" points="1915,-306 1850,-306 1850,-270 1915,-270 1915,-306"/>
<text text-anchor="middle" x="1882.5" y="-284.3" font-family="Times,serif" font-size="14.00">Payment</text>
</g>
<!-- Payment_var2_step11&#45;&gt;Payment_var2_step12 -->
<g id="edge32" class="edge">
<title>Payment_var2_step11&#45;&gt;Payment_var2_step12</title>
<path fill="none" stroke="black" d="M1814.37,-288C1821.96,-288 1830.2,-288 1838.21,-288"/>
<polygon fill="black" stroke="black" points="1838.18,-291.5 1848.18,-288 1838.18,-284.5 1838.18,-291.5"/>
</g>
<!-- Payment_var2_step13 -->
<g id="node39" class="node">
<title>Payment_var2_step13</title>
<polygon fill="lightgrey" stroke="black" points="2016,-306 1951,-306 1951,-270 2016,-270 2016,-306"/>
<text text-anchor="middle" x="1983.5" y="-284.3" font-family="Times,serif" font-size="14.00">Payment</text>
</g>
<!-- Payment_var2_step12&#45;&gt;Payment_var2_step13 -->
<g id="edge33" class="edge">
<title>Payment_var2_step12&#45;&gt;Payment_var2_step13</title>
<path fill="none" stroke="black" d="M1915.37,-288C1922.96,-288 1931.2,-288 1939.21,-288"/>
<polygon fill="black" stroke="black" points="1939.18,-291.5 1949.18,-288 1939.18,-284.5 1939.18,-291.5"/>
</g>
<!-- start_node_var3 -->
<g id="node40" class="node">
<title>start_node_var3</title>
<text text-anchor="middle" x="40" y="-338.3" font-family="Times,serif" font-size="14.00">1 traces</text>
</g>
<!-- Create Fine_var3_step0 -->
<g id="node41" class="node">
<title>Create Fine_var3_step0</title>
<polygon fill="lightgrey" stroke="black" points="80,-414 0,-414 0,-378 80,-378 80,-414"/>
<text text-anchor="middle" x="40" y="-392.3" font-family="Times,serif" font-size="14.00">Create Fine</text>
</g>
<!-- Send Fine_var3_step1 -->
<g id="node42" class="node">
<title>Send Fine_var3_step1</title>
<polygon fill="lightgrey" stroke="black" points="187,-414 116,-414 116,-378 187,-378 187,-414"/>
<text text-anchor="middle" x="151.5" y="-392.3" font-family="Times,serif" font-size="14.00">Send Fine</text>
</g>
<!-- Create Fine_var3_step0&#45;&gt;Send Fine_var3_step1 -->
<g id="edge34" class="edge">
<title>Create Fine_var3_step0&#45;&gt;Send Fine_var3_step1</title>
<path fill="none" stroke="black" d="M80.22,-396C87.97,-396 96.18,-396 104.14,-396"/>
<polygon fill="black" stroke="black" points="104.04,-399.5 114.04,-396 104.04,-392.5 104.04,-399.5"/>
</g>
<!-- Insert Fine Notification_var3_step2 -->
<g id="node43" class="node">
<title>Insert Fine Notification_var3_step2</title>
<polygon fill="lightgrey" stroke="black" points="367,-414 223,-414 223,-378 367,-378 367,-414"/>
<text text-anchor="middle" x="295" y="-392.3" font-family="Times,serif" font-size="14.00">Insert Fine Notification</text>
</g>
<!-- Send Fine_var3_step1&#45;&gt;Insert Fine Notification_var3_step2 -->
<g id="edge35" class="edge">
<title>Send Fine_var3_step1&#45;&gt;Insert Fine Notification_var3_step2</title>
<path fill="none" stroke="black" d="M187.48,-396C194.85,-396 202.92,-396 211.22,-396"/>
<polygon fill="black" stroke="black" points="211.13,-399.5 221.13,-396 211.13,-392.5 211.13,-399.5"/>
</g>
<!-- Add penalty_var3_step3 -->
<g id="node44" class="node">
<title>Add penalty_var3_step3</title>
<polygon fill="lightgrey" stroke="black" points="540.5,-414 457.5,-414 457.5,-378 540.5,-378 540.5,-414"/>
<text text-anchor="middle" x="499" y="-392.3" font-family="Times,serif" font-size="14.00">Add penalty</text>
</g>
<!-- Insert Fine Notification_var3_step2&#45;&gt;Add penalty_var3_step3 -->
<g id="edge36" class="edge">
<title>Insert Fine Notification_var3_step2&#45;&gt;Add penalty_var3_step3</title>
<path fill="none" stroke="black" d="M367.22,-396C393.09,-396 421.82,-396 445.74,-396"/>
<polygon fill="black" stroke="black" points="445.56,-399.5 455.56,-396 445.56,-392.5 445.56,-399.5"/>
</g>
<!-- Payment_var3_step4 -->
<g id="node45" class="node">
<title>Payment_var3_step4</title>
<polygon fill="lightgrey" stroke="black" points="743,-414 678,-414 678,-378 743,-378 743,-414"/>
<text text-anchor="middle" x="710.5" y="-392.3" font-family="Times,serif" font-size="14.00">Payment</text>
</g>
<!-- Add penalty_var3_step3&#45;&gt;Payment_var3_step4 -->
<g id="edge37" class="edge">
<title>Add penalty_var3_step3&#45;&gt;Payment_var3_step4</title>
<path fill="none" stroke="black" d="M540.89,-396C576.99,-396 629.46,-396 666.26,-396"/>
<polygon fill="black" stroke="black" points="666.1,-399.5 676.1,-396 666.1,-392.5 666.1,-399.5"/>
</g>
<!-- Payment_var3_step5 -->
<g id="node46" class="node">
<title>Payment_var3_step5</title>
<polygon fill="lightgrey" stroke="black" points="900,-414 835,-414 835,-378 900,-378 900,-414"/>
<text text-anchor="middle" x="867.5" y="-392.3" font-family="Times,serif" font-size="14.00">Payment</text>
</g>
<!-- Payment_var3_step4&#45;&gt;Payment_var3_step5 -->
<g id="edge38" class="edge">
<title>Payment_var3_step4&#45;&gt;Payment_var3_step5</title>
<path fill="none" stroke="black" d="M743.24,-396C766.36,-396 797.94,-396 823.35,-396"/>
<polygon fill="black" stroke="black" points="823.02,-399.5 833.02,-396 823.02,-392.5 823.02,-399.5"/>
</g>
<!-- Payment_var3_step6 -->
<g id="node47" class="node">
<title>Payment_var3_step6</title>
<polygon fill="lightgrey" stroke="black" points="1092.5,-414 1027.5,-414 1027.5,-378 1092.5,-378 1092.5,-414"/>
<text text-anchor="middle" x="1060" y="-392.3" font-family="Times,serif" font-size="14.00">Payment</text>
</g>
<!-- Payment_var3_step5&#45;&gt;Payment_var3_step6 -->
<g id="edge39" class="edge">
<title>Payment_var3_step5&#45;&gt;Payment_var3_step6</title>
<path fill="none" stroke="black" d="M900.39,-396C931.98,-396 980.59,-396 1015.68,-396"/>
<polygon fill="black" stroke="black" points="1015.5,-399.5 1025.5,-396 1015.5,-392.5 1015.5,-399.5"/>
</g>
<!-- Payment_var3_step7 -->
<g id="node48" class="node">
<title>Payment_var3_step7</title>
<polygon fill="lightgrey" stroke="black" points="1343,-414 1278,-414 1278,-378 1343,-378 1343,-414"/>
<text text-anchor="middle" x="1310.5" y="-392.3" font-family="Times,serif" font-size="14.00">Payment</text>
</g>
<!-- Payment_var3_step6&#45;&gt;Payment_var3_step7 -->
<g id="edge40" class="edge">
<title>Payment_var3_step6&#45;&gt;Payment_var3_step7</title>
<path fill="none" stroke="black" d="M1092.98,-396C1137.15,-396 1216.97,-396 1266.38,-396"/>
<polygon fill="black" stroke="black" points="1266.13,-399.5 1276.13,-396 1266.13,-392.5 1266.13,-399.5"/>
</g>
<!-- Payment_var3_step8 -->
<g id="node49" class="node">
<title>Payment_var3_step8</title>
<polygon fill="lightgrey" stroke="black" points="1511,-414 1446,-414 1446,-378 1511,-378 1511,-414"/>
<text text-anchor="middle" x="1478.5" y="-392.3" font-family="Times,serif" font-size="14.00">Payment</text>
</g>
<!-- Payment_var3_step7&#45;&gt;Payment_var3_step8 -->
<g id="edge41" class="edge">
<title>Payment_var3_step7&#45;&gt;Payment_var3_step8</title>
<path fill="none" stroke="black" d="M1343.11,-396C1368.99,-396 1405.86,-396 1434.43,-396"/>
<polygon fill="black" stroke="black" points="1434.21,-399.5 1444.21,-396 1434.21,-392.5 1434.21,-399.5"/>
</g>
<!-- Payment_var3_step9 -->
<g id="node50" class="node">
<title>Payment_var3_step9</title>
<polygon fill="lightgrey" stroke="black" points="1612,-414 1547,-414 1547,-378 1612,-378 1612,-414"/>
<text text-anchor="middle" x="1579.5" y="-392.3" font-family="Times,serif" font-size="14.00">Payment</text>
</g>
<!-- Payment_var3_step8&#45;&gt;Payment_var3_step9 -->
<g id="edge42" class="edge">
<title>Payment_var3_step8&#45;&gt;Payment_var3_step9</title>
<path fill="none" stroke="black" d="M1511.37,-396C1518.96,-396 1527.2,-396 1535.21,-396"/>
<polygon fill="black" stroke="black" points="1535.18,-399.5 1545.18,-396 1535.18,-392.5 1535.18,-399.5"/>
</g>
<!-- Payment_var3_step10 -->
<g id="node51" class="node">
<title>Payment_var3_step10</title>
<polygon fill="lightgrey" stroke="black" points="1713,-414 1648,-414 1648,-378 1713,-378 1713,-414"/>
<text text-anchor="middle" x="1680.5" y="-392.3" font-family="Times,serif" font-size="14.00">Payment</text>
</g>
<!-- Payment_var3_step9&#45;&gt;Payment_var3_step10 -->
<g id="edge43" class="edge">
<title>Payment_var3_step9&#45;&gt;Payment_var3_step10</title>
<path fill="none" stroke="black" d="M1612.37,-396C1619.96,-396 1628.2,-396 1636.21,-396"/>
<polygon fill="black" stroke="black" points="1636.18,-399.5 1646.18,-396 1636.18,-392.5 1636.18,-399.5"/>
</g>
<!-- Payment_var3_step11 -->
<g id="node52" class="node">
<title>Payment_var3_step11</title>
<polygon fill="lightgrey" stroke="black" points="1814,-414 1749,-414 1749,-378 1814,-378 1814,-414"/>
<text text-anchor="middle" x="1781.5" y="-392.3" font-family="Times,serif" font-size="14.00">Payment</text>
</g>
<!-- Payment_var3_step10&#45;&gt;Payment_var3_step11 -->
<g id="edge44" class="edge">
<title>Payment_var3_step10&#45;&gt;Payment_var3_step11</title>
<path fill="none" stroke="black" d="M1713.37,-396C1720.96,-396 1729.2,-396 1737.21,-396"/>
<polygon fill="black" stroke="black" points="1737.18,-399.5 1747.18,-396 1737.18,-392.5 1737.18,-399.5"/>
</g>
<!-- Payment_var3_step12 -->
<g id="node53" class="node">
<title>Payment_var3_step12</title>
<polygon fill="lightgrey" stroke="black" points="1915,-414 1850,-414 1850,-378 1915,-378 1915,-414"/>
<text text-anchor="middle" x="1882.5" y="-392.3" font-family="Times,serif" font-size="14.00">Payment</text>
</g>
<!-- Payment_var3_step11&#45;&gt;Payment_var3_step12 -->
<g id="edge45" class="edge">
<title>Payment_var3_step11&#45;&gt;Payment_var3_step12</title>
<path fill="none" stroke="black" d="M1814.37,-396C1821.96,-396 1830.2,-396 1838.21,-396"/>
<polygon fill="black" stroke="black" points="1838.18,-399.5 1848.18,-396 1838.18,-392.5 1838.18,-399.5"/>
</g>
<!-- Payment_var3_step13 -->
<g id="node54" class="node">
<title>Payment_var3_step13</title>
<polygon fill="lightgrey" stroke="black" points="2016,-414 1951,-414 1951,-378 2016,-378 2016,-414"/>
<text text-anchor="middle" x="1983.5" y="-392.3" font-family="Times,serif" font-size="14.00">Payment</text>
</g>
<!-- Payment_var3_step12&#45;&gt;Payment_var3_step13 -->
<g id="edge46" class="edge">
<title>Payment_var3_step12&#45;&gt;Payment_var3_step13</title>
<path fill="none" stroke="black" d="M1915.37,-396C1922.96,-396 1931.2,-396 1939.21,-396"/>
<polygon fill="black" stroke="black" points="1939.18,-399.5 1949.18,-396 1939.18,-392.5 1939.18,-399.5"/>
</g>
<!-- Send for Credit Collection_var3_step14 -->
<g id="node55" class="node">
<title>Send for Credit Collection_var3_step14</title>
<polygon fill="lightgrey" stroke="black" points="2213,-414 2052,-414 2052,-378 2213,-378 2213,-414"/>
<text text-anchor="middle" x="2132.5" y="-392.3" font-family="Times,serif" font-size="14.00">Send for Credit Collection</text>
</g>
<!-- Payment_var3_step13&#45;&gt;Send for Credit Collection_var3_step14 -->
<g id="edge47" class="edge">
<title>Payment_var3_step13&#45;&gt;Send for Credit Collection_var3_step14</title>
<path fill="none" stroke="black" d="M2016.4,-396C2023.74,-396 2031.9,-396 2040.4,-396"/>
<polygon fill="black" stroke="black" points="2040.21,-399.5 2050.21,-396 2040.21,-392.5 2040.21,-399.5"/>
</g>
<!-- start_node_var4 -->
<g id="node56" class="node">
<title>start_node_var4</title>
<text text-anchor="middle" x="40" y="-446.3" font-family="Times,serif" font-size="14.00">2 traces</text>
</g>
<!-- Create Fine_var4_step0 -->
<g id="node57" class="node">
<title>Create Fine_var4_step0</title>
<polygon fill="lightgrey" stroke="black" points="80,-522 0,-522 0,-486 80,-486 80,-522"/>
<text text-anchor="middle" x="40" y="-500.3" font-family="Times,serif" font-size="14.00">Create Fine</text>
</g>
<!-- Send Fine_var4_step1 -->
<g id="node58" class="node">
<title>Send Fine_var4_step1</title>
<polygon fill="lightgrey" stroke="black" points="187,-522 116,-522 116,-486 187,-486 187,-522"/>
<text text-anchor="middle" x="151.5" y="-500.3" font-family="Times,serif" font-size="14.00">Send Fine</text>
</g>
<!-- Create Fine_var4_step0&#45;&gt;Send Fine_var4_step1 -->
<g id="edge48" class="edge">
<title>Create Fine_var4_step0&#45;&gt;Send Fine_var4_step1</title>
<path fill="none" stroke="black" d="M80.22,-504C87.97,-504 96.18,-504 104.14,-504"/>
<polygon fill="black" stroke="black" points="104.04,-507.5 114.04,-504 104.04,-500.5 104.04,-507.5"/>
</g>
<!-- Insert Fine Notification_var4_step2 -->
<g id="node59" class="node">
<title>Insert Fine Notification_var4_step2</title>
<polygon fill="lightgrey" stroke="black" points="367,-522 223,-522 223,-486 367,-486 367,-522"/>
<text text-anchor="middle" x="295" y="-500.3" font-family="Times,serif" font-size="14.00">Insert Fine Notification</text>
</g>
<!-- Send Fine_var4_step1&#45;&gt;Insert Fine Notification_var4_step2 -->
<g id="edge49" class="edge">
<title>Send Fine_var4_step1&#45;&gt;Insert Fine Notification_var4_step2</title>
<path fill="none" stroke="black" d="M187.48,-504C194.85,-504 202.92,-504 211.22,-504"/>
<polygon fill="black" stroke="black" points="211.13,-507.5 221.13,-504 211.13,-500.5 211.13,-507.5"/>
</g>
<!-- Add penalty_var4_step3 -->
<g id="node60" class="node">
<title>Add penalty_var4_step3</title>
<polygon fill="lightgrey" stroke="black" points="540.5,-522 457.5,-522 457.5,-486 540.5,-486 540.5,-522"/>
<text text-anchor="middle" x="499" y="-500.3" font-family="Times,serif" font-size="14.00">Add penalty</text>
</g>
<!-- Insert Fine Notification_var4_step2&#45;&gt;Add penalty_var4_step3 -->
<g id="edge50" class="edge">
<title>Insert Fine Notification_var4_step2&#45;&gt;Add penalty_var4_step3</title>
<path fill="none" stroke="black" d="M367.22,-504C393.09,-504 421.82,-504 445.74,-504"/>
<polygon fill="black" stroke="black" points="445.56,-507.5 455.56,-504 445.56,-500.5 445.56,-507.5"/>
</g>
<!-- Payment_var4_step4 -->
<g id="node61" class="node">
<title>Payment_var4_step4</title>
<polygon fill="lightgrey" stroke="black" points="743,-522 678,-522 678,-486 743,-486 743,-522"/>
<text text-anchor="middle" x="710.5" y="-500.3" font-family="Times,serif" font-size="14.00">Payment</text>
</g>
<!-- Add penalty_var4_step3&#45;&gt;Payment_var4_step4 -->
<g id="edge51" class="edge">
<title>Add penalty_var4_step3&#45;&gt;Payment_var4_step4</title>
<path fill="none" stroke="black" d="M540.89,-504C576.99,-504 629.46,-504 666.26,-504"/>
<polygon fill="black" stroke="black" points="666.1,-507.5 676.1,-504 666.1,-500.5 666.1,-507.5"/>
</g>
<!-- Payment_var4_step5 -->
<g id="node62" class="node">
<title>Payment_var4_step5</title>
<polygon fill="lightgrey" stroke="black" points="900,-522 835,-522 835,-486 900,-486 900,-522"/>
<text text-anchor="middle" x="867.5" y="-500.3" font-family="Times,serif" font-size="14.00">Payment</text>
</g>
<!-- Payment_var4_step4&#45;&gt;Payment_var4_step5 -->
<g id="edge52" class="edge">
<title>Payment_var4_step4&#45;&gt;Payment_var4_step5</title>
<path fill="none" stroke="black" d="M743.24,-504C766.36,-504 797.94,-504 823.35,-504"/>
<polygon fill="black" stroke="black" points="823.02,-507.5 833.02,-504 823.02,-500.5 823.02,-507.5"/>
</g>
<!-- Payment_var4_step6 -->
<g id="node63" class="node">
<title>Payment_var4_step6</title>
<polygon fill="lightgrey" stroke="black" points="1092.5,-522 1027.5,-522 1027.5,-486 1092.5,-486 1092.5,-522"/>
<text text-anchor="middle" x="1060" y="-500.3" font-family="Times,serif" font-size="14.00">Payment</text>
</g>
<!-- Payment_var4_step5&#45;&gt;Payment_var4_step6 -->
<g id="edge53" class="edge">
<title>Payment_var4_step5&#45;&gt;Payment_var4_step6</title>
<path fill="none" stroke="black" d="M900.39,-504C931.98,-504 980.59,-504 1015.68,-504"/>
<polygon fill="black" stroke="black" points="1015.5,-507.5 1025.5,-504 1015.5,-500.5 1015.5,-507.5"/>
</g>
<!-- Payment_var4_step7 -->
<g id="node64" class="node">
<title>Payment_var4_step7</title>
<polygon fill="lightgrey" stroke="black" points="1343,-522 1278,-522 1278,-486 1343,-486 1343,-522"/>
<text text-anchor="middle" x="1310.5" y="-500.3" font-family="Times,serif" font-size="14.00">Payment</text>
</g>
<!-- Payment_var4_step6&#45;&gt;Payment_var4_step7 -->
<g id="edge54" class="edge">
<title>Payment_var4_step6&#45;&gt;Payment_var4_step7</title>
<path fill="none" stroke="black" d="M1092.98,-504C1137.15,-504 1216.97,-504 1266.38,-504"/>
<polygon fill="black" stroke="black" points="1266.13,-507.5 1276.13,-504 1266.13,-500.5 1266.13,-507.5"/>
</g>
<!-- Payment_var4_step8 -->
<g id="node65" class="node">
<title>Payment_var4_step8</title>
<polygon fill="lightgrey" stroke="black" points="1511,-522 1446,-522 1446,-486 1511,-486 1511,-522"/>
<text text-anchor="middle" x="1478.5" y="-500.3" font-family="Times,serif" font-size="14.00">Payment</text>
</g>
<!-- Payment_var4_step7&#45;&gt;Payment_var4_step8 -->
<g id="edge55" class="edge">
<title>Payment_var4_step7&#45;&gt;Payment_var4_step8</title>
<path fill="none" stroke="black" d="M1343.11,-504C1368.99,-504 1405.86,-504 1434.43,-504"/>
<polygon fill="black" stroke="black" points="1434.21,-507.5 1444.21,-504 1434.21,-500.5 1434.21,-507.5"/>
</g>
<!-- Payment_var4_step9 -->
<g id="node66" class="node">
<title>Payment_var4_step9</title>
<polygon fill="lightgrey" stroke="black" points="1612,-522 1547,-522 1547,-486 1612,-486 1612,-522"/>
<text text-anchor="middle" x="1579.5" y="-500.3" font-family="Times,serif" font-size="14.00">Payment</text>
</g>
<!-- Payment_var4_step8&#45;&gt;Payment_var4_step9 -->
<g id="edge56" class="edge">
<title>Payment_var4_step8&#45;&gt;Payment_var4_step9</title>
<path fill="none" stroke="black" d="M1511.37,-504C1518.96,-504 1527.2,-504 1535.21,-504"/>
<polygon fill="black" stroke="black" points="1535.18,-507.5 1545.18,-504 1535.18,-500.5 1535.18,-507.5"/>
</g>
<!-- start_node_var5 -->
<g id="node67" class="node">
<title>start_node_var5</title>
<text text-anchor="middle" x="40" y="-554.3" font-family="Times,serif" font-size="14.00">4 traces</text>
</g>
<!-- Create Fine_var5_step0 -->
<g id="node68" class="node">
<title>Create Fine_var5_step0</title>
<polygon fill="lightgrey" stroke="black" points="80,-630 0,-630 0,-594 80,-594 80,-630"/>
<text text-anchor="middle" x="40" y="-608.3" font-family="Times,serif" font-size="14.00">Create Fine</text>
</g>
<!-- Send Fine_var5_step1 -->
<g id="node69" class="node">
<title>Send Fine_var5_step1</title>
<polygon fill="lightgrey" stroke="black" points="187,-630 116,-630 116,-594 187,-594 187,-630"/>
<text text-anchor="middle" x="151.5" y="-608.3" font-family="Times,serif" font-size="14.00">Send Fine</text>
</g>
<!-- Create Fine_var5_step0&#45;&gt;Send Fine_var5_step1 -->
<g id="edge57" class="edge">
<title>Create Fine_var5_step0&#45;&gt;Send Fine_var5_step1</title>
<path fill="none" stroke="black" d="M80.22,-612C87.97,-612 96.18,-612 104.14,-612"/>
<polygon fill="black" stroke="black" points="104.04,-615.5 114.04,-612 104.04,-608.5 104.04,-615.5"/>
</g>
<!-- Insert Fine Notification_var5_step2 -->
<g id="node70" class="node">
<title>Insert Fine Notification_var5_step2</title>
<polygon fill="lightgrey" stroke="black" points="367,-630 223,-630 223,-594 367,-594 367,-630"/>
<text text-anchor="middle" x="295" y="-608.3" font-family="Times,serif" font-size="14.00">Insert Fine Notification</text>
</g>
<!-- Send Fine_var5_step1&#45;&gt;Insert Fine Notification_var5_step2 -->
<g id="edge58" class="edge">
<title>Send Fine_var5_step1&#45;&gt;Insert Fine Notification_var5_step2</title>
<path fill="none" stroke="black" d="M187.48,-612C194.85,-612 202.92,-612 211.22,-612"/>
<polygon fill="black" stroke="black" points="211.13,-615.5 221.13,-612 211.13,-608.5 211.13,-615.5"/>
</g>
<!-- Add penalty_var5_step3 -->
<g id="node71" class="node">
<title>Add penalty_var5_step3</title>
<polygon fill="lightgrey" stroke="black" points="540.5,-630 457.5,-630 457.5,-594 540.5,-594 540.5,-630"/>
<text text-anchor="middle" x="499" y="-608.3" font-family="Times,serif" font-size="14.00">Add penalty</text>
</g>
<!-- Insert Fine Notification_var5_step2&#45;&gt;Add penalty_var5_step3 -->
<g id="edge59" class="edge">
<title>Insert Fine Notification_var5_step2&#45;&gt;Add penalty_var5_step3</title>
<path fill="none" stroke="black" d="M367.22,-612C393.09,-612 421.82,-612 445.74,-612"/>
<polygon fill="black" stroke="black" points="445.56,-615.5 455.56,-612 445.56,-608.5 445.56,-615.5"/>
</g>
<!-- Payment_var5_step4 -->
<g id="node72" class="node">
<title>Payment_var5_step4</title>
<polygon fill="lightgrey" stroke="black" points="743,-630 678,-630 678,-594 743,-594 743,-630"/>
<text text-anchor="middle" x="710.5" y="-608.3" font-family="Times,serif" font-size="14.00">Payment</text>
</g>
<!-- Add penalty_var5_step3&#45;&gt;Payment_var5_step4 -->
<g id="edge60" class="edge">
<title>Add penalty_var5_step3&#45;&gt;Payment_var5_step4</title>
<path fill="none" stroke="black" d="M540.89,-612C576.99,-612 629.46,-612 666.26,-612"/>
<polygon fill="black" stroke="black" points="666.1,-615.5 676.1,-612 666.1,-608.5 666.1,-615.5"/>
</g>
<!-- Payment_var5_step5 -->
<g id="node73" class="node">
<title>Payment_var5_step5</title>
<polygon fill="lightgrey" stroke="black" points="900,-630 835,-630 835,-594 900,-594 900,-630"/>
<text text-anchor="middle" x="867.5" y="-608.3" font-family="Times,serif" font-size="14.00">Payment</text>
</g>
<!-- Payment_var5_step4&#45;&gt;Payment_var5_step5 -->
<g id="edge61" class="edge">
<title>Payment_var5_step4&#45;&gt;Payment_var5_step5</title>
<path fill="none" stroke="black" d="M743.24,-612C766.36,-612 797.94,-612 823.35,-612"/>
<polygon fill="black" stroke="black" points="823.02,-615.5 833.02,-612 823.02,-608.5 823.02,-615.5"/>
</g>
<!-- Payment_var5_step6 -->
<g id="node74" class="node">
<title>Payment_var5_step6</title>
<polygon fill="lightgrey" stroke="black" points="1092.5,-630 1027.5,-630 1027.5,-594 1092.5,-594 1092.5,-630"/>
<text text-anchor="middle" x="1060" y="-608.3" font-family="Times,serif" font-size="14.00">Payment</text>
</g>
<!-- Payment_var5_step5&#45;&gt;Payment_var5_step6 -->
<g id="edge62" class="edge">
<title>Payment_var5_step5&#45;&gt;Payment_var5_step6</title>
<path fill="none" stroke="black" d="M900.39,-612C931.98,-612 980.59,-612 1015.68,-612"/>
<polygon fill="black" stroke="black" points="1015.5,-615.5 1025.5,-612 1015.5,-608.5 1015.5,-615.5"/>
</g>
<!-- Payment_var5_step7 -->
<g id="node75" class="node">
<title>Payment_var5_step7</title>
<polygon fill="lightgrey" stroke="black" points="1343,-630 1278,-630 1278,-594 1343,-594 1343,-630"/>
<text text-anchor="middle" x="1310.5" y="-608.3" font-family="Times,serif" font-size="14.00">Payment</text>
</g>
<!-- Payment_var5_step6&#45;&gt;Payment_var5_step7 -->
<g id="edge63" class="edge">
<title>Payment_var5_step6&#45;&gt;Payment_var5_step7</title>
<path fill="none" stroke="black" d="M1092.98,-612C1137.15,-612 1216.97,-612 1266.38,-612"/>
<polygon fill="black" stroke="black" points="1266.13,-615.5 1276.13,-612 1266.13,-608.5 1266.13,-615.5"/>
</g>
<!-- Payment_var5_step8 -->
<g id="node76" class="node">
<title>Payment_var5_step8</title>
<polygon fill="lightgrey" stroke="black" points="1511,-630 1446,-630 1446,-594 1511,-594 1511,-630"/>
<text text-anchor="middle" x="1478.5" y="-608.3" font-family="Times,serif" font-size="14.00">Payment</text>
</g>
<!-- Payment_var5_step7&#45;&gt;Payment_var5_step8 -->
<g id="edge64" class="edge">
<title>Payment_var5_step7&#45;&gt;Payment_var5_step8</title>
<path fill="none" stroke="black" d="M1343.11,-612C1368.99,-612 1405.86,-612 1434.43,-612"/>
<polygon fill="black" stroke="black" points="1434.21,-615.5 1444.21,-612 1434.21,-608.5 1434.21,-615.5"/>
</g>
<!-- Payment_var5_step9 -->
<g id="node77" class="node">
<title>Payment_var5_step9</title>
<polygon fill="lightgrey" stroke="black" points="1612,-630 1547,-630 1547,-594 1612,-594 1612,-630"/>
<text text-anchor="middle" x="1579.5" y="-608.3" font-family="Times,serif" font-size="14.00">Payment</text>
</g>
<!-- Payment_var5_step8&#45;&gt;Payment_var5_step9 -->
<g id="edge65" class="edge">
<title>Payment_var5_step8&#45;&gt;Payment_var5_step9</title>
<path fill="none" stroke="black" d="M1511.37,-612C1518.96,-612 1527.2,-612 1535.21,-612"/>
<polygon fill="black" stroke="black" points="1535.18,-615.5 1545.18,-612 1535.18,-608.5 1535.18,-615.5"/>
</g>
<!-- Payment_var5_step10 -->
<g id="node78" class="node">
<title>Payment_var5_step10</title>
<polygon fill="lightgrey" stroke="black" points="1713,-630 1648,-630 1648,-594 1713,-594 1713,-630"/>
<text text-anchor="middle" x="1680.5" y="-608.3" font-family="Times,serif" font-size="14.00">Payment</text>
</g>
<!-- Payment_var5_step9&#45;&gt;Payment_var5_step10 -->
<g id="edge66" class="edge">
<title>Payment_var5_step9&#45;&gt;Payment_var5_step10</title>
<path fill="none" stroke="black" d="M1612.37,-612C1619.96,-612 1628.2,-612 1636.21,-612"/>
<polygon fill="black" stroke="black" points="1636.18,-615.5 1646.18,-612 1636.18,-608.5 1636.18,-615.5"/>
</g>
</g>
</svg>
