<?xml version="1.0" encoding="UTF-8" standalone="no"?>
<!DOCTYPE svg PUBLIC "-//W3C//DTD SVG 1.1//EN"
 "http://www.w3.org/Graphics/SVG/1.1/DTD/svg11.dtd">
<!-- Generated by graphviz version 7.0.5 (0)
 -->
<!-- Title: dfg Pages: 1 -->
<svg width="613pt" height="661pt"
 viewBox="0.00 0.00 613.00 661.00" xmlns="http://www.w3.org/2000/svg" xmlns:xlink="http://www.w3.org/1999/xlink">
<g id="graph0" class="graph" transform="scale(1 1) rotate(0) translate(4 657)">
<title>dfg</title>
<polygon fill="white" stroke="none" points="-4,4 -4,-657 609,-657 609,4 -4,4"/>
<!-- start_node -->
<g id="node1" class="node">
<title>start_node</title>
<ellipse fill="none" stroke="black" cx="524" cy="-635" rx="18" ry="18"/>
<text text-anchor="start" x="519.5" y="-631.3" font-family="Times,serif" font-size="14.00">●</text>
</g>
<!-- Create Fine -->
<g id="node2" class="node">
<title>Create Fine</title>
<polygon fill="#9b9bff" stroke="black" points="583.5,-566 464.5,-566 464.5,-530 583.5,-530 583.5,-566"/>
<text text-anchor="middle" x="524" y="-544.3" font-family="Times,serif" font-size="14.00">Create Fine (1187)</text>
</g>
<!-- start_node&#45;&gt;Create Fine -->
<g id="edge1" class="edge">
<title>start_node&#45;&gt;Create Fine</title>
<path fill="none" stroke="#000000" stroke-width="6" d="M524,-616.8C524,-606.96 524,-594.27 524,-582.53"/>
<polygon fill="#000000" stroke="#000000" stroke-width="6" points="529.25,-582.92 524,-572.92 518.75,-582.92 529.25,-582.92"/>
<text text-anchor="middle" x="538" y="-587.8" font-family="Times,serif" font-size="14.00">1187</text>
</g>
<!-- Send Fine -->
<g id="node3" class="node">
<title>Send Fine</title>
<polygon fill="#9b9bff" stroke="black" points="579.5,-479 468.5,-479 468.5,-443 579.5,-443 579.5,-479"/>
<text text-anchor="middle" x="524" y="-457.3" font-family="Times,serif" font-size="14.00">Send Fine (1187)</text>
</g>
<!-- Create Fine&#45;&gt;Send Fine -->
<g id="edge2" class="edge">
<title>Create Fine&#45;&gt;Send Fine</title>
<path fill="none" stroke="#000000" stroke-width="6" d="M524,-529.8C524,-519.96 524,-507.27 524,-495.53"/>
<polygon fill="#000000" stroke="#000000" stroke-width="6" points="529.25,-495.92 524,-485.92 518.75,-495.92 529.25,-495.92"/>
<text text-anchor="middle" x="538" y="-500.8" font-family="Times,serif" font-size="14.00">1187</text>
</g>
<!-- Insert Fine Notification -->
<g id="node4" class="node">
<title>Insert Fine Notification</title>
<polygon fill="#a3a3ff" stroke="black" points="471,-392 287,-392 287,-356 471,-356 471,-392"/>
<text text-anchor="middle" x="379" y="-370.3" font-family="Times,serif" font-size="14.00">Insert Fine Notification (1083)</text>
</g>
<!-- Send Fine&#45;&gt;Insert Fine Notification -->
<g id="edge3" class="edge">
<title>Send Fine&#45;&gt;Insert Fine Notification</title>
<path fill="none" stroke="#000000" stroke-width="5.51" d="M494.31,-442.59C473.68,-430.5 445.86,-414.19 422.71,-400.62"/>
<polygon fill="#000000" stroke="#000000" stroke-width="5.51" points="425.19,-396.49 414.13,-395.59 420.32,-404.8 425.19,-396.49"/>
<text text-anchor="middle" x="475" y="-413.8" font-family="Times,serif" font-size="14.00">1083</text>
</g>
<!-- end_node -->
<g id="node11" class="node">
<title>end_node</title>
<ellipse fill="none" stroke="black" cx="409" cy="-22" rx="18" ry="18"/>
<ellipse fill="none" stroke="black" cx="409" cy="-22" rx="22" ry="22"/>
<text text-anchor="start" x="404.5" y="-18.3" font-family="Times,serif" font-size="14.00">■</text>
</g>
<!-- Send Fine&#45;&gt;end_node -->
<g id="edge16" class="edge">
<title>Send Fine&#45;&gt;end_node</title>
<path fill="none" stroke="#000000" stroke-width="0.85" d="M546,-442.6C563.13,-426.95 584,-402.28 584,-375 584,-375 584,-375 584,-112 584,-49.07 492.99,-30.62 442.23,-25.22"/>
<polygon fill="#000000" stroke="#000000" stroke-width="0.85" points="442.73,-21.75 432.45,-24.3 442.08,-28.72 442.73,-21.75"/>
<text text-anchor="middle" x="594.5" y="-239.8" font-family="Times,serif" font-size="14.00">104</text>
</g>
<!-- Add penalty -->
<g id="node5" class="node">
<title>Add penalty</title>
<polygon fill="#a3a3ff" stroke="black" points="358.5,-218 235.5,-218 235.5,-182 358.5,-182 358.5,-218"/>
<text text-anchor="middle" x="297" y="-196.3" font-family="Times,serif" font-size="14.00">Add penalty (1083)</text>
</g>
<!-- Insert Fine Notification&#45;&gt;Add penalty -->
<g id="edge4" class="edge">
<title>Insert Fine Notification&#45;&gt;Add penalty</title>
<path fill="none" stroke="#000000" stroke-width="4.72" d="M286.74,-357.03C231.08,-345.31 167.78,-327.52 151,-305 124.6,-269.57 172.38,-241.45 220.19,-223.43"/>
<polygon fill="#000000" stroke="#000000" stroke-width="4.72" points="221.43,-227.37 229.46,-220.13 218.66,-219.6 221.43,-227.37"/>
<text text-anchor="middle" x="161.5" y="-283.3" font-family="Times,serif" font-size="14.00">917</text>
</g>
<!-- Insert Date Appeal to Prefecture -->
<g id="node7" class="node">
<title>Insert Date Appeal to Prefecture</title>
<polygon fill="#f5f5ff" stroke="black" points="406.5,-305 181.5,-305 181.5,-269 406.5,-269 406.5,-305"/>
<text text-anchor="middle" x="294" y="-283.3" font-family="Times,serif" font-size="14.00">Insert Date Appeal to Prefecture (136)</text>
</g>
<!-- Insert Fine Notification&#45;&gt;Insert Date Appeal to Prefecture -->
<g id="edge6" class="edge">
<title>Insert Fine Notification&#45;&gt;Insert Date Appeal to Prefecture</title>
<path fill="none" stroke="#000000" d="M361.8,-355.8C349.67,-343.67 333.21,-327.21 319.55,-313.55"/>
<polygon fill="#000000" stroke="#000000" points="322.09,-311.14 312.54,-306.54 317.14,-316.09 322.09,-311.14"/>
<text text-anchor="middle" x="352.5" y="-326.8" font-family="Times,serif" font-size="14.00">136</text>
</g>
<!-- Appeal to Judge -->
<g id="node10" class="node">
<title>Appeal to Judge</title>
<polygon fill="#ffffff" stroke="black" points="555.5,-305 424.5,-305 424.5,-269 555.5,-269 555.5,-305"/>
<text text-anchor="middle" x="490" y="-283.3" font-family="Times,serif" font-size="14.00">Appeal to Judge (30)</text>
</g>
<!-- Insert Fine Notification&#45;&gt;Appeal to Judge -->
<g id="edge11" class="edge">
<title>Insert Fine Notification&#45;&gt;Appeal to Judge</title>
<path fill="none" stroke="#ff0000" stroke-width="0.5" stroke-dasharray="5,2" d="M401.73,-355.59C418.19,-342.99 440.64,-325.79 458.79,-311.9"/>
<polygon fill="#ff0000" stroke="#ff0000" stroke-width="0.5" points="460.89,-314.7 466.7,-305.84 456.63,-309.14 460.89,-314.7"/>
<text text-anchor="middle" x="449" y="-326.8" font-family="Times,serif" font-size="14.00">30</text>
</g>
<!-- Send for Credit Collection -->
<g id="node6" class="node">
<title>Send for Credit Collection</title>
<polygon fill="#bdbdff" stroke="black" points="194,-131 0,-131 0,-95 194,-95 194,-131"/>
<text text-anchor="middle" x="97" y="-109.3" font-family="Times,serif" font-size="14.00">Send for Credit Collection (786)</text>
</g>
<!-- Add penalty&#45;&gt;Send for Credit Collection -->
<g id="edge5" class="edge">
<title>Add penalty&#45;&gt;Send for Credit Collection</title>
<path fill="none" stroke="#000000" stroke-width="4.09" d="M256.04,-181.59C226.11,-168.87 185.19,-151.48 152.35,-137.52"/>
<polygon fill="#000000" stroke="#000000" stroke-width="4.09" points="154.09,-134.37 143.49,-133.76 151.29,-140.97 154.09,-134.37"/>
<text text-anchor="middle" x="219.5" y="-152.8" font-family="Times,serif" font-size="14.00">786</text>
</g>
<!-- Send Appeal to Prefecture -->
<g id="node8" class="node">
<title>Send Appeal to Prefecture</title>
<polygon fill="#f5f5ff" stroke="black" points="404,-131 212,-131 212,-95 404,-95 404,-131"/>
<text text-anchor="middle" x="308" y="-109.3" font-family="Times,serif" font-size="14.00">Send Appeal to Prefecture (136)</text>
</g>
<!-- Add penalty&#45;&gt;Send Appeal to Prefecture -->
<g id="edge8" class="edge">
<title>Add penalty&#45;&gt;Send Appeal to Prefecture</title>
<path fill="none" stroke="#000000" d="M299.23,-181.8C300.68,-170.58 302.61,-155.67 304.29,-142.69"/>
<polygon fill="#000000" stroke="#000000" points="307.73,-143.34 305.54,-132.97 300.79,-142.44 307.73,-143.34"/>
<text text-anchor="middle" x="314.5" y="-152.8" font-family="Times,serif" font-size="14.00">136</text>
</g>
<!-- Payment -->
<g id="node9" class="node">
<title>Payment</title>
<polygon fill="#f0f0ff" stroke="black" points="520,-131 422,-131 422,-95 520,-95 520,-131"/>
<text text-anchor="middle" x="471" y="-109.3" font-family="Times,serif" font-size="14.00">Payment (192)</text>
</g>
<!-- Add penalty&#45;&gt;Payment -->
<g id="edge9" class="edge">
<title>Add penalty&#45;&gt;Payment</title>
<path fill="none" stroke="#000000" stroke-width="1.12" d="M332.63,-181.59C359.37,-168.53 396.2,-150.54 425.14,-136.4"/>
<polygon fill="#000000" stroke="#000000" stroke-width="1.12" points="426.44,-139.66 433.89,-132.13 423.37,-133.37 426.44,-139.66"/>
<text text-anchor="middle" x="405.5" y="-152.8" font-family="Times,serif" font-size="14.00">161</text>
</g>
<!-- Send for Credit Collection&#45;&gt;end_node -->
<g id="edge13" class="edge">
<title>Send for Credit Collection&#45;&gt;end_node</title>
<path fill="none" stroke="#000000" stroke-width="4.09" d="M158.27,-94.52C222,-76.34 319.69,-48.48 372.34,-33.46"/>
<polygon fill="#000000" stroke="#000000" stroke-width="4.09" points="373.28,-36.91 381.91,-30.73 371.31,-30.03 373.28,-36.91"/>
<text text-anchor="middle" x="282.5" y="-65.8" font-family="Times,serif" font-size="14.00">786</text>
</g>
<!-- Insert Date Appeal to Prefecture&#45;&gt;Add penalty -->
<g id="edge7" class="edge">
<title>Insert Date Appeal to Prefecture&#45;&gt;Add penalty</title>
<path fill="none" stroke="#000000" d="M294.61,-268.8C295,-257.58 295.53,-242.67 295.99,-229.69"/>
<polygon fill="#000000" stroke="#000000" points="299.47,-230.1 296.33,-219.99 292.48,-229.86 299.47,-230.1"/>
<text text-anchor="middle" x="306.5" y="-239.8" font-family="Times,serif" font-size="14.00">136</text>
</g>
<!-- Send Appeal to Prefecture&#45;&gt;end_node -->
<g id="edge14" class="edge">
<title>Send Appeal to Prefecture&#45;&gt;end_node</title>
<path fill="none" stroke="#000000" d="M327.47,-94.84C343.68,-80.56 366.85,-60.14 384.35,-44.73"/>
<polygon fill="#000000" stroke="#000000" points="386.58,-47.42 391.77,-38.18 381.96,-42.17 386.58,-47.42"/>
<text text-anchor="middle" x="375.5" y="-65.8" font-family="Times,serif" font-size="14.00">136</text>
</g>
<!-- Payment&#45;&gt;Payment -->
<g id="edge10" class="edge">
<title>Payment&#45;&gt;Payment</title>
<path fill="none" stroke="#ff0000" stroke-width="0.5" stroke-dasharray="5,2" d="M520.38,-120.87C530.63,-120.04 538,-117.42 538,-113 538,-110.31 535.26,-108.28 530.8,-106.92"/>
<polygon fill="#ff0000" stroke="#ff0000" stroke-width="0.5" points="531.58,-103.5 521.13,-105.26 530.39,-110.4 531.58,-103.5"/>
<text text-anchor="middle" x="545" y="-109.3" font-family="Times,serif" font-size="14.00">31</text>
</g>
<!-- Payment&#45;&gt;end_node -->
<g id="edge15" class="edge">
<title>Payment&#45;&gt;end_node</title>
<path fill="none" stroke="#000000" stroke-width="1.12" d="M459.05,-94.84C450.24,-82.2 438.09,-64.75 427.96,-50.22"/>
<polygon fill="#000000" stroke="#000000" stroke-width="1.12" points="430.9,-48.32 422.31,-42.11 425.16,-52.32 430.9,-48.32"/>
<text text-anchor="middle" x="456.5" y="-65.8" font-family="Times,serif" font-size="14.00">161</text>
</g>
<!-- Appeal to Judge&#45;&gt;Add penalty -->
<g id="edge12" class="edge">
<title>Appeal to Judge&#45;&gt;Add penalty</title>
<path fill="none" stroke="#ff0000" stroke-width="0.5" stroke-dasharray="5,2" d="M450.48,-268.59C420.29,-255.3 378.53,-236.91 346.18,-222.66"/>
<polygon fill="#ff0000" stroke="#ff0000" stroke-width="0.5" points="347.72,-219.52 337.16,-218.69 344.9,-225.92 347.72,-219.52"/>
<text text-anchor="middle" x="413" y="-239.8" font-family="Times,serif" font-size="14.00">30</text>
</g>
</g>
</svg>
