<?xml version="1.0" encoding="UTF-8" standalone="no"?>
<!DOCTYPE svg PUBLIC "-//W3C//DTD SVG 1.1//EN"
 "http://www.w3.org/Graphics/SVG/1.1/DTD/svg11.dtd">
<!-- Generated by graphviz version 7.0.5 (0)
 -->
<!-- Title: dfg Pages: 1 -->
<svg width="788pt" height="922pt"
 viewBox="0.00 0.00 787.50 922.00" xmlns="http://www.w3.org/2000/svg" xmlns:xlink="http://www.w3.org/1999/xlink">
<g id="graph0" class="graph" transform="scale(1 1) rotate(0) translate(4 918)">
<title>dfg</title>
<polygon fill="white" stroke="none" points="-4,4 -4,-918 783.5,-918 783.5,4 -4,4"/>
<!-- start_node -->
<g id="node1" class="node">
<title>start_node</title>
<ellipse fill="none" stroke="black" cx="80.5" cy="-896" rx="18" ry="18"/>
<text text-anchor="start" x="76" y="-892.3" font-family="Times,serif" font-size="14.00">●</text>
</g>
<!-- Create Fine -->
<g id="node2" class="node">
<title>Create Fine</title>
<polygon fill="#9b9bff" stroke="black" points="137,-827 24,-827 24,-791 137,-791 137,-827"/>
<text text-anchor="middle" x="80.5" y="-805.3" font-family="Times,serif" font-size="14.00">Create Fine (288)</text>
</g>
<!-- start_node&#45;&gt;Create Fine -->
<g id="edge1" class="edge">
<title>start_node&#45;&gt;Create Fine</title>
<path fill="none" stroke="#000000" stroke-width="6" d="M80.5,-877.8C80.5,-867.96 80.5,-855.27 80.5,-843.53"/>
<polygon fill="#000000" stroke="#000000" stroke-width="6" points="85.75,-843.92 80.5,-833.92 75.25,-843.92 85.75,-843.92"/>
<text text-anchor="middle" x="91" y="-848.8" font-family="Times,serif" font-size="14.00">288</text>
</g>
<!-- Send Fine -->
<g id="node3" class="node">
<title>Send Fine</title>
<polygon fill="#9b9bff" stroke="black" points="132.5,-740 28.5,-740 28.5,-704 132.5,-704 132.5,-740"/>
<text text-anchor="middle" x="80.5" y="-718.3" font-family="Times,serif" font-size="14.00">Send Fine (288)</text>
</g>
<!-- Create Fine&#45;&gt;Send Fine -->
<g id="edge2" class="edge">
<title>Create Fine&#45;&gt;Send Fine</title>
<path fill="none" stroke="#000000" stroke-width="6" d="M80.5,-790.8C80.5,-780.96 80.5,-768.27 80.5,-756.53"/>
<polygon fill="#000000" stroke="#000000" stroke-width="6" points="85.75,-756.92 80.5,-746.92 75.25,-756.92 85.75,-756.92"/>
<text text-anchor="middle" x="91" y="-761.8" font-family="Times,serif" font-size="14.00">288</text>
</g>
<!-- Insert Fine Notification -->
<g id="node4" class="node">
<title>Insert Fine Notification</title>
<polygon fill="#9b9bff" stroke="black" points="270,-653 93,-653 93,-617 270,-617 270,-653"/>
<text text-anchor="middle" x="181.5" y="-631.3" font-family="Times,serif" font-size="14.00">Insert Fine Notification (288)</text>
</g>
<!-- Send Fine&#45;&gt;Insert Fine Notification -->
<g id="edge3" class="edge">
<title>Send Fine&#45;&gt;Insert Fine Notification</title>
<path fill="none" stroke="#000000" stroke-width="5.98" d="M100.94,-703.8C114.54,-692.35 132.71,-677.06 148.36,-663.89"/>
<polygon fill="#000000" stroke="#000000" stroke-width="5.98" points="151.53,-668.06 155.81,-657.62 144.79,-660.06 151.53,-668.06"/>
<text text-anchor="middle" x="147" y="-674.8" font-family="Times,serif" font-size="14.00">287</text>
</g>
<!-- Insert Date Appeal to Prefecture -->
<g id="node6" class="node">
<title>Insert Date Appeal to Prefecture</title>
<polygon fill="#9b9bff" stroke="black" points="225,-479 0,-479 0,-443 225,-443 225,-479"/>
<text text-anchor="middle" x="112.5" y="-457.3" font-family="Times,serif" font-size="14.00">Insert Date Appeal to Prefecture (288)</text>
</g>
<!-- Send Fine&#45;&gt;Insert Date Appeal to Prefecture -->
<g id="edge29" class="edge">
<title>Send Fine&#45;&gt;Insert Date Appeal to Prefecture</title>
<path fill="none" stroke="#ff0000" stroke-width="0.5" stroke-dasharray="5,2" d="M80.18,-703.65C79.98,-682.95 80.24,-647.35 83.5,-617 88.34,-571.91 99.06,-520.27 106.02,-489.44"/>
<polygon fill="#ff0000" stroke="#ff0000" stroke-width="0.5" points="109.41,-490.34 108.23,-479.81 102.58,-488.77 109.41,-490.34"/>
<text text-anchor="middle" x="92" y="-587.8" font-family="Times,serif" font-size="14.00">1</text>
</g>
<!-- Add penalty -->
<g id="node5" class="node">
<title>Add penalty</title>
<polygon fill="#9b9bff" stroke="black" points="387.5,-566 271.5,-566 271.5,-530 387.5,-530 387.5,-566"/>
<text text-anchor="middle" x="329.5" y="-544.3" font-family="Times,serif" font-size="14.00">Add penalty (288)</text>
</g>
<!-- Insert Fine Notification&#45;&gt;Add penalty -->
<g id="edge4" class="edge">
<title>Insert Fine Notification&#45;&gt;Add penalty</title>
<path fill="none" stroke="#000000" stroke-width="1.88" d="M211.81,-616.59C233.86,-603.93 263.97,-586.64 288.21,-572.71"/>
<polygon fill="#000000" stroke="#000000" stroke-width="1.88" points="289.84,-575.82 296.77,-567.8 286.35,-569.75 289.84,-575.82"/>
<text text-anchor="middle" x="270.5" y="-587.8" font-family="Times,serif" font-size="14.00">73</text>
</g>
<!-- Insert Fine Notification&#45;&gt;Insert Date Appeal to Prefecture -->
<g id="edge10" class="edge">
<title>Insert Fine Notification&#45;&gt;Insert Date Appeal to Prefecture</title>
<path fill="none" stroke="#000000" stroke-width="4.58" d="M174.5,-616.56C163.04,-587.97 140.06,-530.7 125.53,-494.47"/>
<polygon fill="#000000" stroke="#000000" stroke-width="4.58" points="129.25,-492.99 121.81,-485.2 121.81,-495.97 129.25,-492.99"/>
<text text-anchor="middle" x="164" y="-544.3" font-family="Times,serif" font-size="14.00">214</text>
</g>
<!-- Send Appeal to Prefecture -->
<g id="node7" class="node">
<title>Send Appeal to Prefecture</title>
<polygon fill="#9e9eff" stroke="black" points="699.5,-305 507.5,-305 507.5,-269 699.5,-269 699.5,-305"/>
<text text-anchor="middle" x="603.5" y="-283.3" font-family="Times,serif" font-size="14.00">Send Appeal to Prefecture (278)</text>
</g>
<!-- Insert Fine Notification&#45;&gt;Send Appeal to Prefecture -->
<g id="edge31" class="edge">
<title>Insert Fine Notification&#45;&gt;Send Appeal to Prefecture</title>
<path fill="none" stroke="#ff0000" stroke-width="0.5" stroke-dasharray="5,2" d="M270.25,-621.21C365.2,-603.57 515.74,-563.78 616.5,-479 661.16,-441.43 671.06,-413.73 662.5,-356 660.25,-340.84 661.43,-335.45 652.5,-323 649.72,-319.12 646.37,-315.51 642.74,-312.2"/>
<polygon fill="#ff0000" stroke="#ff0000" stroke-width="0.5" points="645.02,-309.54 635.06,-305.91 640.58,-314.96 645.02,-309.54"/>
<text text-anchor="middle" x="653" y="-457.3" font-family="Times,serif" font-size="14.00">1</text>
</g>
<!-- Add penalty&#45;&gt;Insert Date Appeal to Prefecture -->
<g id="edge5" class="edge">
<title>Add penalty&#45;&gt;Insert Date Appeal to Prefecture</title>
<path fill="none" stroke="#000000" stroke-width="1.88" d="M271.04,-529.72C256.53,-524.67 241.21,-518.69 227.5,-512 216.53,-506.65 215.38,-502.53 204.5,-497 195.4,-492.37 185.55,-488 175.78,-484.01"/>
<polygon fill="#000000" stroke="#000000" stroke-width="1.88" points="177.19,-480.81 166.61,-480.4 174.62,-487.32 177.19,-480.81"/>
<text text-anchor="middle" x="234.5" y="-500.8" font-family="Times,serif" font-size="14.00">73</text>
</g>
<!-- Add penalty&#45;&gt;Send Appeal to Prefecture -->
<g id="edge12" class="edge">
<title>Add penalty&#45;&gt;Send Appeal to Prefecture</title>
<path fill="none" stroke="#000000" stroke-width="2.82" d="M387.81,-535.58C458.16,-518.26 573.03,-477.83 621.5,-392 634.27,-369.38 627.38,-339.92 618.68,-318.13"/>
<polygon fill="#000000" stroke="#000000" stroke-width="2.82" points="622.02,-317.01 614.77,-309.28 615.61,-319.84 622.02,-317.01"/>
<text text-anchor="middle" x="619" y="-413.8" font-family="Times,serif" font-size="14.00">122</text>
</g>
<!-- Receive Result Appeal from Prefecture -->
<g id="node8" class="node">
<title>Receive Result Appeal from Prefecture</title>
<polygon fill="#9b9bff" stroke="black" points="612,-392 349,-392 349,-356 612,-356 612,-392"/>
<text text-anchor="middle" x="480.5" y="-370.3" font-family="Times,serif" font-size="14.00">Receive Result Appeal from Prefecture (288)</text>
</g>
<!-- Add penalty&#45;&gt;Receive Result Appeal from Prefecture -->
<g id="edge16" class="edge">
<title>Add penalty&#45;&gt;Receive Result Appeal from Prefecture</title>
<path fill="none" stroke="#000000" stroke-width="2.03" d="M344.81,-529.56C371.15,-499.56 425.23,-437.96 456.58,-402.25"/>
<polygon fill="#000000" stroke="#000000" stroke-width="2.03" points="459.15,-404.62 463.12,-394.8 453.89,-400 459.15,-404.62"/>
<text text-anchor="middle" x="426.5" y="-457.3" font-family="Times,serif" font-size="14.00">81</text>
</g>
<!-- Notify Result Appeal to Offender -->
<g id="node9" class="node">
<title>Notify Result Appeal to Offender</title>
<polygon fill="#9f9fff" stroke="black" points="584.5,-218 352.5,-218 352.5,-182 584.5,-182 584.5,-218"/>
<text text-anchor="middle" x="468.5" y="-196.3" font-family="Times,serif" font-size="14.00">Notify Result Appeal to Offender (275)</text>
</g>
<!-- Add penalty&#45;&gt;Notify Result Appeal to Offender -->
<g id="edge21" class="edge">
<title>Add penalty&#45;&gt;Notify Result Appeal to Offender</title>
<path fill="none" stroke="#ff0000" stroke-width="0.61" stroke-dasharray="5,2" d="M328.03,-529.84C323.38,-471.27 311.47,-280.36 349.5,-236 353.35,-231.5 357.75,-227.57 362.54,-224.13"/>
<polygon fill="#ff0000" stroke="#ff0000" stroke-width="0.61" points="364.15,-227.25 370.74,-218.95 360.41,-221.33 364.15,-227.25"/>
<text text-anchor="middle" x="326" y="-370.3" font-family="Times,serif" font-size="14.00">7</text>
</g>
<!-- Payment -->
<g id="node10" class="node">
<title>Payment</title>
<polygon fill="#b6b6ff" stroke="black" points="288.5,-131 190.5,-131 190.5,-95 288.5,-95 288.5,-131"/>
<text text-anchor="middle" x="239.5" y="-109.3" font-family="Times,serif" font-size="14.00">Payment (214)</text>
</g>
<!-- Add penalty&#45;&gt;Payment -->
<g id="edge18" class="edge">
<title>Add penalty&#45;&gt;Payment</title>
<path fill="none" stroke="#ff0000" stroke-width="0.58" stroke-dasharray="5,2" d="M315.88,-529.56C298.41,-507.83 266.54,-470.25 234.5,-443 202.95,-416.16 181,-425.4 156.5,-392 139.98,-369.48 139.5,-359.43 139.5,-331.5 139.5,-331.5 139.5,-331.5 139.5,-199 139.5,-171.24 162.15,-150.65 185.89,-136.7"/>
<polygon fill="#ff0000" stroke="#ff0000" stroke-width="0.58" points="187.51,-139.8 194.58,-131.91 184.13,-133.67 187.51,-139.8"/>
<text text-anchor="middle" x="143" y="-326.8" font-family="Times,serif" font-size="14.00">5</text>
</g>
<!-- Insert Date Appeal to Prefecture&#45;&gt;Insert Fine Notification -->
<g id="edge30" class="edge">
<title>Insert Date Appeal to Prefecture&#45;&gt;Insert Fine Notification</title>
<path fill="none" stroke="#ff0000" stroke-width="0.5" stroke-dasharray="5,2" d="M112.53,-479.3C113.14,-500.55 116.12,-537.32 128.5,-566 135.25,-581.63 146.46,-596.8 156.84,-608.83"/>
<polygon fill="#ff0000" stroke="#ff0000" stroke-width="0.5" points="154.04,-610.95 163.32,-616.06 159.25,-606.27 154.04,-610.95"/>
<text text-anchor="middle" x="132" y="-544.3" font-family="Times,serif" font-size="14.00">1</text>
</g>
<!-- Insert Date Appeal to Prefecture&#45;&gt;Add penalty -->
<g id="edge11" class="edge">
<title>Insert Date Appeal to Prefecture&#45;&gt;Add penalty</title>
<path fill="none" stroke="#000000" stroke-width="2.9" d="M136.56,-479.27C144.25,-484.86 152.78,-491.14 160.5,-497 169.07,-503.5 169.81,-507.33 179.5,-512 203.69,-523.65 231.98,-531.54 257.43,-536.84"/>
<polygon fill="#000000" stroke="#000000" stroke-width="2.9" points="256.45,-540.21 266.93,-538.68 257.79,-533.34 256.45,-540.21"/>
<text text-anchor="middle" x="190" y="-500.8" font-family="Times,serif" font-size="14.00">126</text>
</g>
<!-- Insert Date Appeal to Prefecture&#45;&gt;Send Appeal to Prefecture -->
<g id="edge6" class="edge">
<title>Insert Date Appeal to Prefecture&#45;&gt;Send Appeal to Prefecture</title>
<path fill="none" stroke="#000000" stroke-width="3.39" d="M135.13,-442.64C181.34,-407.36 283.74,-330.01 302.5,-323 380.74,-293.76 409.67,-313.73 492.16,-305.81"/>
<polygon fill="#000000" stroke="#000000" stroke-width="3.39" points="492.39,-309.31 501.93,-304.71 491.6,-302.35 492.39,-309.31"/>
<text text-anchor="middle" x="261" y="-370.3" font-family="Times,serif" font-size="14.00">152</text>
</g>
<!-- Insert Date Appeal to Prefecture&#45;&gt;Receive Result Appeal from Prefecture -->
<g id="edge14" class="edge">
<title>Insert Date Appeal to Prefecture&#45;&gt;Receive Result Appeal from Prefecture</title>
<path fill="none" stroke="#ff0000" stroke-width="0.63" stroke-dasharray="5,2" d="M203.37,-442.53C229.91,-437.18 258.92,-431.09 285.5,-425 325.34,-415.87 369.48,-404.64 405.67,-395.15"/>
<polygon fill="#ff0000" stroke="#ff0000" stroke-width="0.63" points="406.44,-398.56 415.22,-392.63 404.66,-391.79 406.44,-398.56"/>
<text text-anchor="middle" x="348" y="-413.8" font-family="Times,serif" font-size="14.00">8</text>
</g>
<!-- Appeal to Judge -->
<g id="node11" class="node">
<title>Appeal to Judge</title>
<polygon fill="#efefff" stroke="black" points="299,-305 168,-305 168,-269 299,-269 299,-305"/>
<text text-anchor="middle" x="233.5" y="-283.3" font-family="Times,serif" font-size="14.00">Appeal to Judge (62)</text>
</g>
<!-- Insert Date Appeal to Prefecture&#45;&gt;Appeal to Judge -->
<g id="edge33" class="edge">
<title>Insert Date Appeal to Prefecture&#45;&gt;Appeal to Judge</title>
<path fill="none" stroke="#ff0000" stroke-width="0.5" stroke-dasharray="5,2" d="M124.77,-442.56C146.15,-412.17 190.33,-349.36 215.29,-313.88"/>
<polygon fill="#ff0000" stroke="#ff0000" stroke-width="0.5" points="217.87,-316.3 220.76,-306.1 212.15,-312.27 217.87,-316.3"/>
<text text-anchor="middle" x="188" y="-370.3" font-family="Times,serif" font-size="14.00">1</text>
</g>
<!-- Send Appeal to Prefecture&#45;&gt;Add penalty -->
<g id="edge19" class="edge">
<title>Send Appeal to Prefecture&#45;&gt;Add penalty</title>
<path fill="none" stroke="#000000" stroke-width="1.96" d="M624.4,-305.45C629.2,-310.58 633.71,-316.56 636.5,-323 654.51,-364.63 655.65,-385.42 633.5,-425 587.76,-506.75 475.02,-533.81 400.44,-542.71"/>
<polygon fill="#000000" stroke="#000000" stroke-width="1.96" points="400.4,-539.19 390.84,-543.76 401.16,-546.15 400.4,-539.19"/>
<text text-anchor="middle" x="647.5" y="-413.8" font-family="Times,serif" font-size="14.00">77</text>
</g>
<!-- Send Appeal to Prefecture&#45;&gt;Receive Result Appeal from Prefecture -->
<g id="edge7" class="edge">
<title>Send Appeal to Prefecture&#45;&gt;Receive Result Appeal from Prefecture</title>
<path fill="none" stroke="#000000" stroke-width="4.29" d="M579.68,-305.34C566.21,-315.07 549.01,-327.34 533.5,-338 529.27,-340.9 524.83,-343.91 520.4,-346.88"/>
<polygon fill="#000000" stroke="#000000" stroke-width="4.29" points="518.66,-343.52 512.4,-352.19 522.81,-349.79 518.66,-343.52"/>
<text text-anchor="middle" x="565" y="-326.8" font-family="Times,serif" font-size="14.00">199</text>
</g>
<!-- Send Appeal to Prefecture&#45;&gt;Notify Result Appeal to Offender -->
<g id="edge27" class="edge">
<title>Send Appeal to Prefecture&#45;&gt;Notify Result Appeal to Offender</title>
<path fill="none" stroke="#ff0000" stroke-width="0.52" stroke-dasharray="5,2" d="M575.85,-268.59C555.38,-255.7 527.28,-238.01 504.97,-223.96"/>
<polygon fill="#ff0000" stroke="#ff0000" stroke-width="0.52" points="507.1,-221.17 496.77,-218.8 503.37,-227.09 507.1,-221.17"/>
<text text-anchor="middle" x="547" y="-239.8" font-family="Times,serif" font-size="14.00">2</text>
</g>
<!-- Receive Result Appeal from Prefecture&#45;&gt;Add penalty -->
<g id="edge20" class="edge">
<title>Receive Result Appeal from Prefecture&#45;&gt;Add penalty</title>
<path fill="none" stroke="#ff0000" stroke-width="0.6" stroke-dasharray="5,2" d="M476.84,-392.18C471.4,-414.3 459.41,-453.01 437.5,-479 421.6,-497.86 399.09,-513.18 378.74,-524.47"/>
<polygon fill="#ff0000" stroke="#ff0000" stroke-width="0.6" points="377.23,-521.31 370.06,-529.11 380.53,-527.49 377.23,-521.31"/>
<text text-anchor="middle" x="462" y="-457.3" font-family="Times,serif" font-size="14.00">6</text>
</g>
<!-- Receive Result Appeal from Prefecture&#45;&gt;Send Appeal to Prefecture -->
<g id="edge26" class="edge">
<title>Receive Result Appeal from Prefecture&#45;&gt;Send Appeal to Prefecture</title>
<path fill="none" stroke="#ff0000" stroke-width="0.54" stroke-dasharray="5,2" d="M493.18,-355.56C501.47,-345.09 513.04,-332.08 525.5,-323 532.08,-318.21 539.42,-313.86 546.89,-309.99"/>
<polygon fill="#ff0000" stroke="#ff0000" stroke-width="0.54" points="548.21,-313.24 555.65,-305.7 545.13,-306.95 548.21,-313.24"/>
<text text-anchor="middle" x="529" y="-326.8" font-family="Times,serif" font-size="14.00">3</text>
</g>
<!-- Receive Result Appeal from Prefecture&#45;&gt;Notify Result Appeal to Offender -->
<g id="edge8" class="edge">
<title>Receive Result Appeal from Prefecture&#45;&gt;Notify Result Appeal to Offender</title>
<path fill="none" stroke="#000000" stroke-width="5.52" d="M479.28,-355.56C477.31,-327.23 473.37,-270.73 470.83,-234.46"/>
<polygon fill="#000000" stroke="#000000" stroke-width="5.52" points="475.68,-234.46 470.16,-224.82 466.04,-235.13 475.68,-234.46"/>
<text text-anchor="middle" x="486" y="-283.3" font-family="Times,serif" font-size="14.00">263</text>
</g>
<!-- Receive Result Appeal from Prefecture&#45;&gt;Payment -->
<g id="edge28" class="edge">
<title>Receive Result Appeal from Prefecture&#45;&gt;Payment</title>
<path fill="none" stroke="#ff0000" stroke-width="0.73" stroke-dasharray="5,2" d="M464.31,-355.6C422.72,-310.91 311.98,-191.9 263.17,-139.44"/>
<polygon fill="#ff0000" stroke="#ff0000" stroke-width="0.73" points="265.74,-137.07 256.37,-132.13 260.62,-141.83 265.74,-137.07"/>
<text text-anchor="middle" x="372.5" y="-239.8" font-family="Times,serif" font-size="14.00">13</text>
</g>
<!-- Receive Result Appeal from Prefecture&#45;&gt;Appeal to Judge -->
<g id="edge24" class="edge">
<title>Receive Result Appeal from Prefecture&#45;&gt;Appeal to Judge</title>
<path fill="none" stroke="#ff0000" stroke-width="0.54" stroke-dasharray="5,2" d="M403.21,-355.56C383.84,-350.52 363.25,-344.58 344.5,-338 321.88,-330.06 297.51,-319.34 277.38,-309.86"/>
<polygon fill="#ff0000" stroke="#ff0000" stroke-width="0.54" points="279.14,-306.82 268.61,-305.68 276.13,-313.14 279.14,-306.82"/>
<text text-anchor="middle" x="348" y="-326.8" font-family="Times,serif" font-size="14.00">3</text>
</g>
<!-- Notify Result Appeal to Offender&#45;&gt;Add penalty -->
<g id="edge17" class="edge">
<title>Notify Result Appeal to Offender&#45;&gt;Add penalty</title>
<path fill="none" stroke="#ff0000" stroke-width="0.58" stroke-dasharray="5,2" d="M584.82,-212.35C627.93,-221.71 674.53,-238.6 708.5,-269 778.66,-331.79 796.85,-406.72 736.5,-479 694.32,-529.52 503.01,-542.55 398.38,-545.88"/>
<polygon fill="#ff0000" stroke="#ff0000" stroke-width="0.58" points="398.37,-542.38 388.48,-546.17 398.58,-549.38 398.37,-542.38"/>
<text text-anchor="middle" x="776" y="-370.3" font-family="Times,serif" font-size="14.00">5</text>
</g>
<!-- Notify Result Appeal to Offender&#45;&gt;Payment -->
<g id="edge9" class="edge">
<title>Notify Result Appeal to Offender&#45;&gt;Payment</title>
<path fill="none" stroke="#000000" stroke-width="3.74" d="M424.09,-181.57C399.02,-171.82 367.08,-159.55 338.5,-149 327.2,-144.83 315.13,-140.48 303.45,-136.32"/>
<polygon fill="#000000" stroke="#000000" stroke-width="3.74" points="304.87,-133.11 294.28,-133.07 302.54,-139.71 304.87,-133.11"/>
<text text-anchor="middle" x="388" y="-152.8" font-family="Times,serif" font-size="14.00">170</text>
</g>
<!-- Notify Result Appeal to Offender&#45;&gt;Appeal to Judge -->
<g id="edge13" class="edge">
<title>Notify Result Appeal to Offender&#45;&gt;Appeal to Judge</title>
<path fill="none" stroke="#000000" stroke-width="1.59" d="M352.23,-217.95C334.15,-222.6 316.01,-228.5 299.5,-236 291.81,-239.49 277.28,-250.31 263.8,-260.99"/>
<polygon fill="#000000" stroke="#000000" stroke-width="1.59" points="261.77,-258.14 256.17,-267.13 266.16,-263.59 261.77,-258.14"/>
<text text-anchor="middle" x="306.5" y="-239.8" font-family="Times,serif" font-size="14.00">58</text>
</g>
<!-- Send for Credit Collection -->
<g id="node12" class="node">
<title>Send for Credit Collection</title>
<polygon fill="#ffffff" stroke="black" points="519,-131 332,-131 332,-95 519,-95 519,-131"/>
<text text-anchor="middle" x="425.5" y="-109.3" font-family="Times,serif" font-size="14.00">Send for Credit Collection (21)</text>
</g>
<!-- Notify Result Appeal to Offender&#45;&gt;Send for Credit Collection -->
<g id="edge22" class="edge">
<title>Notify Result Appeal to Offender&#45;&gt;Send for Credit Collection</title>
<path fill="none" stroke="#000000" stroke-width="0.88" d="M459.8,-181.8C453.95,-170.24 446.12,-154.75 439.41,-141.5"/>
<polygon fill="#000000" stroke="#000000" stroke-width="0.88" points="442.58,-140 434.94,-132.66 436.33,-143.16 442.58,-140"/>
<text text-anchor="middle" x="456.5" y="-152.8" font-family="Times,serif" font-size="14.00">21</text>
</g>
<!-- end_node -->
<g id="node13" class="node">
<title>end_node</title>
<ellipse fill="none" stroke="black" cx="355.5" cy="-22" rx="18" ry="18"/>
<ellipse fill="none" stroke="black" cx="355.5" cy="-22" rx="22" ry="22"/>
<text text-anchor="start" x="351" y="-18.3" font-family="Times,serif" font-size="14.00">■</text>
</g>
<!-- Notify Result Appeal to Offender&#45;&gt;end_node -->
<g id="edge38" class="edge">
<title>Notify Result Appeal to Offender&#45;&gt;end_node</title>
<path fill="none" stroke="#000000" stroke-width="0.88" d="M490.92,-181.66C515.25,-160.67 548.16,-124.48 528.5,-95 497.38,-48.34 429.72,-31.87 388.85,-26.09"/>
<polygon fill="#000000" stroke="#000000" stroke-width="0.88" points="389.52,-22.65 379.16,-24.87 388.65,-29.6 389.52,-22.65"/>
<text text-anchor="middle" x="540.5" y="-109.3" font-family="Times,serif" font-size="14.00">21</text>
</g>
<!-- Payment&#45;&gt;Notify Result Appeal to Offender -->
<g id="edge32" class="edge">
<title>Payment&#45;&gt;Notify Result Appeal to Offender</title>
<path fill="none" stroke="#ff0000" stroke-width="0.5" stroke-dasharray="5,2" d="M288.85,-124.06C334.88,-133.52 397.24,-146.59 402.5,-149 416.66,-155.49 430.66,-165.45 442.1,-174.77"/>
<polygon fill="#ff0000" stroke="#ff0000" stroke-width="0.5" points="439.83,-177.44 449.73,-181.22 444.35,-172.09 439.83,-177.44"/>
<text text-anchor="middle" x="431" y="-152.8" font-family="Times,serif" font-size="14.00">1</text>
</g>
<!-- Payment&#45;&gt;Payment -->
<g id="edge15" class="edge">
<title>Payment&#45;&gt;Payment</title>
<path fill="none" stroke="#ff0000" stroke-width="0.63" stroke-dasharray="5,2" d="M288.88,-120.87C299.13,-120.04 306.5,-117.42 306.5,-113 306.5,-110.38 303.9,-108.39 299.64,-107.03"/>
<polygon fill="#ff0000" stroke="#ff0000" stroke-width="0.63" points="300.28,-103.59 289.82,-105.3 299.06,-110.48 300.28,-103.59"/>
<text text-anchor="middle" x="310" y="-109.3" font-family="Times,serif" font-size="14.00">8</text>
</g>
<!-- Payment&#45;&gt;end_node -->
<g id="edge35" class="edge">
<title>Payment&#45;&gt;end_node</title>
<path fill="none" stroke="#000000" stroke-width="4.41" d="M262.14,-94.63C280.25,-80.74 305.79,-61.14 325.58,-45.95"/>
<polygon fill="#000000" stroke="#000000" stroke-width="4.41" points="327.76,-49.15 333.34,-40 323.06,-43.03 327.76,-49.15"/>
<text text-anchor="middle" x="314" y="-65.8" font-family="Times,serif" font-size="14.00">205</text>
</g>
<!-- Appeal to Judge&#45;&gt;Add penalty -->
<g id="edge34" class="edge">
<title>Appeal to Judge&#45;&gt;Add penalty</title>
<path fill="none" stroke="#ff0000" stroke-width="0.5" stroke-dasharray="5,2" d="M242.12,-305.28C248.64,-318.83 257.46,-338.29 263.5,-356 273.69,-385.89 270.81,-394.94 280.5,-425 291.22,-458.27 306.65,-495.39 317.31,-519.85"/>
<polygon fill="#ff0000" stroke="#ff0000" stroke-width="0.5" points="314.03,-521.07 321.26,-528.81 320.44,-518.25 314.03,-521.07"/>
<text text-anchor="middle" x="284" y="-413.8" font-family="Times,serif" font-size="14.00">1</text>
</g>
<!-- Appeal to Judge&#45;&gt;Notify Result Appeal to Offender -->
<g id="edge25" class="edge">
<title>Appeal to Judge&#45;&gt;Notify Result Appeal to Offender</title>
<path fill="none" stroke="#ff0000" stroke-width="0.52" stroke-dasharray="5,2" d="M241.76,-268.92C248.07,-257.76 257.83,-243.84 270.5,-236 283.6,-227.89 311.21,-221.21 341.76,-215.94"/>
<polygon fill="#ff0000" stroke="#ff0000" stroke-width="0.52" points="342.15,-219.43 351.44,-214.34 341,-212.52 342.15,-219.43"/>
<text text-anchor="middle" x="274" y="-239.8" font-family="Times,serif" font-size="14.00">2</text>
</g>
<!-- Appeal to Judge&#45;&gt;Payment -->
<g id="edge23" class="edge">
<title>Appeal to Judge&#45;&gt;Payment</title>
<path fill="none" stroke="#000000" stroke-width="0.83" d="M234.11,-268.56C235.14,-238.94 237.25,-178.54 238.5,-142.64"/>
<polygon fill="#000000" stroke="#000000" stroke-width="0.83" points="242,-142.85 238.85,-132.73 235,-142.61 242,-142.85"/>
<text text-anchor="middle" x="243.5" y="-196.3" font-family="Times,serif" font-size="14.00">18</text>
</g>
<!-- Appeal to Judge&#45;&gt;end_node -->
<g id="edge36" class="edge">
<title>Appeal to Judge&#45;&gt;end_node</title>
<path fill="none" stroke="#000000" stroke-width="1.27" d="M197.2,-268.56C152.95,-244.67 86.91,-199.02 111.5,-149 151.18,-68.28 264.89,-38.1 321.97,-27.81"/>
<polygon fill="#000000" stroke="#000000" stroke-width="1.27" points="322.4,-31.29 331.67,-26.18 321.23,-24.39 322.4,-31.29"/>
<text text-anchor="middle" x="118.5" y="-152.8" font-family="Times,serif" font-size="14.00">41</text>
</g>
<!-- Send for Credit Collection&#45;&gt;end_node -->
<g id="edge37" class="edge">
<title>Send for Credit Collection&#45;&gt;end_node</title>
<path fill="none" stroke="#000000" stroke-width="0.88" d="M412,-94.84C401.67,-81.71 387.26,-63.38 375.58,-48.53"/>
<polygon fill="#000000" stroke="#000000" stroke-width="0.88" points="378.48,-46.55 369.54,-40.86 372.98,-50.88 378.48,-46.55"/>
<text text-anchor="middle" x="403.5" y="-65.8" font-family="Times,serif" font-size="14.00">21</text>
</g>
</g>
</svg>
