<?xml version="1.0" encoding="UTF-8" standalone="no"?>
<!DOCTYPE svg PUBLIC "-//W3C//DTD SVG 1.1//EN"
 "http://www.w3.org/Graphics/SVG/1.1/DTD/svg11.dtd">
<!-- Generated by graphviz version 7.0.5 (0)
 -->
<!-- Title: dfg Pages: 1 -->
<svg width="553pt" height="1030pt"
 viewBox="0.00 0.00 552.50 1030.00" xmlns="http://www.w3.org/2000/svg" xmlns:xlink="http://www.w3.org/1999/xlink">
<g id="graph0" class="graph" transform="scale(1 1) rotate(0) translate(4 1026)">
<title>dfg</title>
<polygon fill="white" stroke="none" points="-4,4 -4,-1026 548.5,-1026 548.5,4 -4,4"/>
<!-- start_node -->
<g id="node1" class="node">
<title>start_node</title>
<ellipse fill="none" stroke="black" cx="88.5" cy="-1004" rx="18" ry="18"/>
<text text-anchor="start" x="84" y="-1000.3" font-family="Times,serif" font-size="14.00">●</text>
</g>
<!-- Create Fine -->
<g id="node2" class="node">
<title>Create Fine</title>
<polygon fill="#9b9bff" stroke="black" points="145,-935 32,-935 32,-899 145,-899 145,-935"/>
<text text-anchor="middle" x="88.5" y="-913.3" font-family="Times,serif" font-size="14.00">Create Fine (249)</text>
</g>
<!-- start_node&#45;&gt;Create Fine -->
<g id="edge1" class="edge">
<title>start_node&#45;&gt;Create Fine</title>
<path fill="none" stroke="#000000" stroke-width="6" d="M88.5,-985.8C88.5,-975.96 88.5,-963.27 88.5,-951.53"/>
<polygon fill="#000000" stroke="#000000" stroke-width="6" points="93.75,-951.92 88.5,-941.92 83.25,-951.92 93.75,-951.92"/>
<text text-anchor="middle" x="99" y="-956.8" font-family="Times,serif" font-size="14.00">249</text>
</g>
<!-- Send Fine -->
<g id="node3" class="node">
<title>Send Fine</title>
<polygon fill="#9b9bff" stroke="black" points="140.5,-848 36.5,-848 36.5,-812 140.5,-812 140.5,-848"/>
<text text-anchor="middle" x="88.5" y="-826.3" font-family="Times,serif" font-size="14.00">Send Fine (249)</text>
</g>
<!-- Create Fine&#45;&gt;Send Fine -->
<g id="edge2" class="edge">
<title>Create Fine&#45;&gt;Send Fine</title>
<path fill="none" stroke="#000000" stroke-width="6" d="M88.5,-898.8C88.5,-888.96 88.5,-876.27 88.5,-864.53"/>
<polygon fill="#000000" stroke="#000000" stroke-width="6" points="93.75,-864.92 88.5,-854.92 83.25,-864.92 93.75,-864.92"/>
<text text-anchor="middle" x="99" y="-869.8" font-family="Times,serif" font-size="14.00">249</text>
</g>
<!-- Insert Fine Notification -->
<g id="node4" class="node">
<title>Insert Fine Notification</title>
<polygon fill="#9b9bff" stroke="black" points="177,-761 0,-761 0,-725 177,-725 177,-761"/>
<text text-anchor="middle" x="88.5" y="-739.3" font-family="Times,serif" font-size="14.00">Insert Fine Notification (249)</text>
</g>
<!-- Send Fine&#45;&gt;Insert Fine Notification -->
<g id="edge3" class="edge">
<title>Send Fine&#45;&gt;Insert Fine Notification</title>
<path fill="none" stroke="#000000" stroke-width="6" d="M88.5,-811.8C88.5,-801.96 88.5,-789.27 88.5,-777.53"/>
<polygon fill="#000000" stroke="#000000" stroke-width="6" points="93.75,-777.92 88.5,-767.92 83.25,-777.92 93.75,-777.92"/>
<text text-anchor="middle" x="99" y="-782.8" font-family="Times,serif" font-size="14.00">249</text>
</g>
<!-- Insert Date Appeal to Prefecture -->
<g id="node5" class="node">
<title>Insert Date Appeal to Prefecture</title>
<polygon fill="#9b9bff" stroke="black" points="330,-674 105,-674 105,-638 330,-638 330,-674"/>
<text text-anchor="middle" x="217.5" y="-652.3" font-family="Times,serif" font-size="14.00">Insert Date Appeal to Prefecture (249)</text>
</g>
<!-- Insert Fine Notification&#45;&gt;Insert Date Appeal to Prefecture -->
<g id="edge4" class="edge">
<title>Insert Fine Notification&#45;&gt;Insert Date Appeal to Prefecture</title>
<path fill="none" stroke="#000000" stroke-width="4.57" d="M114.92,-724.59C133,-712.68 157.32,-696.66 177.73,-683.2"/>
<polygon fill="#000000" stroke="#000000" stroke-width="4.57" points="179.83,-686.61 185.98,-677.77 175.43,-679.93 179.83,-686.61"/>
<text text-anchor="middle" x="171" y="-695.8" font-family="Times,serif" font-size="14.00">185</text>
</g>
<!-- Add penalty -->
<g id="node6" class="node">
<title>Add penalty</title>
<polygon fill="#9b9bff" stroke="black" points="181.5,-587 65.5,-587 65.5,-551 181.5,-551 181.5,-587"/>
<text text-anchor="middle" x="123.5" y="-565.3" font-family="Times,serif" font-size="14.00">Add penalty (249)</text>
</g>
<!-- Insert Fine Notification&#45;&gt;Add penalty -->
<g id="edge13" class="edge">
<title>Insert Fine Notification&#45;&gt;Add penalty</title>
<path fill="none" stroke="#000000" stroke-width="1.86" d="M83.82,-724.69C78.94,-703.75 73.1,-667.59 81.5,-638 85.55,-623.74 93.54,-609.53 101.47,-597.83"/>
<polygon fill="#000000" stroke="#000000" stroke-width="1.86" points="104.29,-599.9 107.28,-589.74 98.6,-595.82 104.29,-599.9"/>
<text text-anchor="middle" x="88.5" y="-652.3" font-family="Times,serif" font-size="14.00">64</text>
</g>
<!-- Insert Date Appeal to Prefecture&#45;&gt;Add penalty -->
<g id="edge5" class="edge">
<title>Insert Date Appeal to Prefecture&#45;&gt;Add penalty</title>
<path fill="none" stroke="#000000" stroke-width="2.98" d="M163.97,-637.65C155.28,-632.99 147.01,-627.18 140.5,-620 135.6,-614.59 132.11,-607.72 129.62,-600.81"/>
<polygon fill="#000000" stroke="#000000" stroke-width="2.98" points="133.05,-600.08 126.99,-591.39 126.3,-601.96 133.05,-600.08"/>
<text text-anchor="middle" x="151" y="-608.8" font-family="Times,serif" font-size="14.00">114</text>
</g>
<!-- Send Appeal to Prefecture -->
<g id="node7" class="node">
<title>Send Appeal to Prefecture</title>
<polygon fill="#9c9cff" stroke="black" points="256.5,-500 64.5,-500 64.5,-464 256.5,-464 256.5,-500"/>
<text text-anchor="middle" x="160.5" y="-478.3" font-family="Times,serif" font-size="14.00">Send Appeal to Prefecture (245)</text>
</g>
<!-- Insert Date Appeal to Prefecture&#45;&gt;Send Appeal to Prefecture -->
<g id="edge10" class="edge">
<title>Insert Date Appeal to Prefecture&#45;&gt;Send Appeal to Prefecture</title>
<path fill="none" stroke="#000000" stroke-width="3.38" d="M213.93,-637.82C209.41,-616.99 200.92,-580.95 190.5,-551 186.18,-538.57 180.54,-525.26 175.32,-513.74"/>
<polygon fill="#000000" stroke="#000000" stroke-width="3.38" points="178.62,-512.53 171.22,-504.94 172.27,-515.49 178.62,-512.53"/>
<text text-anchor="middle" x="211" y="-565.3" font-family="Times,serif" font-size="14.00">132</text>
</g>
<!-- Receive Result Appeal from Prefecture -->
<g id="node8" class="node">
<title>Receive Result Appeal from Prefecture</title>
<polygon fill="#9b9bff" stroke="black" points="292,-413 29,-413 29,-377 292,-377 292,-413"/>
<text text-anchor="middle" x="160.5" y="-391.3" font-family="Times,serif" font-size="14.00">Receive Result Appeal from Prefecture (249)</text>
</g>
<!-- Insert Date Appeal to Prefecture&#45;&gt;Receive Result Appeal from Prefecture -->
<g id="edge19" class="edge">
<title>Insert Date Appeal to Prefecture&#45;&gt;Receive Result Appeal from Prefecture</title>
<path fill="none" stroke="#ff0000" stroke-width="0.5" stroke-dasharray="5,2" d="M229.8,-637.61C252.83,-602.73 297.35,-522.57 265.5,-464 254.67,-444.08 235.2,-429.1 215.95,-418.34"/>
<polygon fill="#ff0000" stroke="#ff0000" stroke-width="0.5" points="217.71,-415.3 207.23,-413.74 214.45,-421.5 217.71,-415.3"/>
<text text-anchor="middle" x="279" y="-521.8" font-family="Times,serif" font-size="14.00">3</text>
</g>
<!-- Add penalty&#45;&gt;Insert Date Appeal to Prefecture -->
<g id="edge14" class="edge">
<title>Add penalty&#45;&gt;Insert Date Appeal to Prefecture</title>
<path fill="none" stroke="#000000" stroke-width="1.86" d="M142.82,-587.47C156.18,-599.55 174.17,-615.82 189.15,-629.36"/>
<polygon fill="#000000" stroke="#000000" stroke-width="1.86" points="186.62,-631.8 196.39,-635.91 191.32,-626.6 186.62,-631.8"/>
<text text-anchor="middle" x="182.5" y="-608.8" font-family="Times,serif" font-size="14.00">64</text>
</g>
<!-- Add penalty&#45;&gt;Send Appeal to Prefecture -->
<g id="edge6" class="edge">
<title>Add penalty&#45;&gt;Send Appeal to Prefecture</title>
<path fill="none" stroke="#000000" stroke-width="2.96" d="M130.99,-550.8C135.62,-540.15 141.7,-526.18 147.14,-513.69"/>
<polygon fill="#000000" stroke="#000000" stroke-width="2.96" points="150.33,-515.14 151.11,-504.57 143.91,-512.35 150.33,-515.14"/>
<text text-anchor="middle" x="155" y="-521.8" font-family="Times,serif" font-size="14.00">113</text>
</g>
<!-- Add penalty&#45;&gt;Receive Result Appeal from Prefecture -->
<g id="edge12" class="edge">
<title>Add penalty&#45;&gt;Receive Result Appeal from Prefecture</title>
<path fill="none" stroke="#000000" stroke-width="2.04" d="M92.84,-550.54C62.27,-530.74 22.4,-496.91 41.5,-464 53.09,-444.04 72.98,-429.44 93.22,-419.01"/>
<polygon fill="#000000" stroke="#000000" stroke-width="2.04" points="94.47,-422.29 101.99,-414.82 91.46,-415.97 94.47,-422.29"/>
<text text-anchor="middle" x="48.5" y="-478.3" font-family="Times,serif" font-size="14.00">72</text>
</g>
<!-- Send Appeal to Prefecture&#45;&gt;Add penalty -->
<g id="edge11" class="edge">
<title>Send Appeal to Prefecture&#45;&gt;Add penalty</title>
<path fill="none" stroke="#000000" stroke-width="2.02" d="M135.79,-500.19C130.41,-505.25 125.45,-511.26 122.5,-518 119.82,-524.12 118.84,-531.09 118.78,-537.83"/>
<polygon fill="#000000" stroke="#000000" stroke-width="2.02" points="115.27,-537.84 119.44,-547.58 122.26,-537.37 115.27,-537.84"/>
<text text-anchor="middle" x="129.5" y="-521.8" font-family="Times,serif" font-size="14.00">71</text>
</g>
<!-- Send Appeal to Prefecture&#45;&gt;Receive Result Appeal from Prefecture -->
<g id="edge7" class="edge">
<title>Send Appeal to Prefecture&#45;&gt;Receive Result Appeal from Prefecture</title>
<path fill="none" stroke="#000000" stroke-width="4.32" d="M160.5,-463.8C160.5,-453.96 160.5,-441.27 160.5,-429.53"/>
<polygon fill="#000000" stroke="#000000" stroke-width="4.32" points="164.28,-429.58 160.5,-419.58 156.72,-429.58 164.28,-429.58"/>
<text text-anchor="middle" x="171" y="-434.8" font-family="Times,serif" font-size="14.00">174</text>
</g>
<!-- Notify Result Appeal to Offender -->
<g id="node9" class="node">
<title>Notify Result Appeal to Offender</title>
<polygon fill="#9f9fff" stroke="black" points="456.5,-326 224.5,-326 224.5,-290 456.5,-290 456.5,-326"/>
<text text-anchor="middle" x="340.5" y="-304.3" font-family="Times,serif" font-size="14.00">Notify Result Appeal to Offender (239)</text>
</g>
<!-- Receive Result Appeal from Prefecture&#45;&gt;Notify Result Appeal to Offender -->
<g id="edge8" class="edge">
<title>Receive Result Appeal from Prefecture&#45;&gt;Notify Result Appeal to Offender</title>
<path fill="none" stroke="#000000" stroke-width="5.78" d="M197.36,-376.59C223.81,-364.1 259.8,-347.11 289.08,-333.28"/>
<polygon fill="#000000" stroke="#000000" stroke-width="5.78" points="291.02,-337.96 297.9,-329.12 286.7,-328.82 291.02,-337.96"/>
<text text-anchor="middle" x="271" y="-347.8" font-family="Times,serif" font-size="14.00">239</text>
</g>
<!-- Payment -->
<g id="node10" class="node">
<title>Payment</title>
<polygon fill="#babaff" stroke="black" points="368.5,-131 270.5,-131 270.5,-95 368.5,-95 368.5,-131"/>
<text text-anchor="middle" x="319.5" y="-109.3" font-family="Times,serif" font-size="14.00">Payment (178)</text>
</g>
<!-- Receive Result Appeal from Prefecture&#45;&gt;Payment -->
<g id="edge18" class="edge">
<title>Receive Result Appeal from Prefecture&#45;&gt;Payment</title>
<path fill="none" stroke="#ff0000" stroke-width="0.66" stroke-dasharray="5,2" d="M155.59,-376.66C146.61,-341.17 131.34,-258.92 164.5,-203 176.56,-182.66 229.21,-154.99 269.84,-135.93"/>
<polygon fill="#ff0000" stroke="#ff0000" stroke-width="0.66" points="271.11,-139.19 278.72,-131.81 268.17,-132.84 271.11,-139.19"/>
<text text-anchor="middle" x="153.5" y="-260.8" font-family="Times,serif" font-size="14.00">10</text>
</g>
<!-- Notify Result Appeal to Offender&#45;&gt;Payment -->
<g id="edge9" class="edge">
<title>Notify Result Appeal to Offender&#45;&gt;Payment</title>
<path fill="none" stroke="#000000" stroke-width="3.88" d="M338.6,-289.53C335.09,-257.31 327.56,-188.04 323.07,-146.81"/>
<polygon fill="#000000" stroke="#000000" stroke-width="3.88" points="326.58,-146.68 322.02,-137.12 319.62,-147.44 326.58,-146.68"/>
<text text-anchor="middle" x="343" y="-217.3" font-family="Times,serif" font-size="14.00">154</text>
</g>
<!-- Appeal to Judge -->
<g id="node11" class="node">
<title>Appeal to Judge</title>
<polygon fill="#f1f1ff" stroke="black" points="304,-239 173,-239 173,-203 304,-203 304,-239"/>
<text text-anchor="middle" x="238.5" y="-217.3" font-family="Times,serif" font-size="14.00">Appeal to Judge (52)</text>
</g>
<!-- Notify Result Appeal to Offender&#45;&gt;Appeal to Judge -->
<g id="edge15" class="edge">
<title>Notify Result Appeal to Offender&#45;&gt;Appeal to Judge</title>
<path fill="none" stroke="#000000" stroke-width="1.6" d="M319.86,-289.8C305.16,-277.55 285.18,-260.9 268.7,-247.16"/>
<polygon fill="#000000" stroke="#000000" stroke-width="1.6" points="271.24,-244.73 261.32,-241.01 266.76,-250.1 271.24,-244.73"/>
<text text-anchor="middle" x="302.5" y="-260.8" font-family="Times,serif" font-size="14.00">52</text>
</g>
<!-- Send for Credit Collection -->
<g id="node12" class="node">
<title>Send for Credit Collection</title>
<polygon fill="#ffffff" stroke="black" points="522,-185 335,-185 335,-149 522,-149 522,-185"/>
<text text-anchor="middle" x="428.5" y="-163.3" font-family="Times,serif" font-size="14.00">Send for Credit Collection (20)</text>
</g>
<!-- Notify Result Appeal to Offender&#45;&gt;Send for Credit Collection -->
<g id="edge16" class="edge">
<title>Notify Result Appeal to Offender&#45;&gt;Send for Credit Collection</title>
<path fill="none" stroke="#000000" stroke-width="0.88" d="M351.47,-289.68C366.57,-265.82 393.9,-222.65 411.62,-194.66"/>
<polygon fill="#000000" stroke="#000000" stroke-width="0.88" points="414.57,-196.55 416.96,-186.23 408.65,-192.81 414.57,-196.55"/>
<text text-anchor="middle" x="377.5" y="-260.8" font-family="Times,serif" font-size="14.00">20</text>
</g>
<!-- end_node -->
<g id="node13" class="node">
<title>end_node</title>
<ellipse fill="none" stroke="black" cx="394.5" cy="-22" rx="18" ry="18"/>
<ellipse fill="none" stroke="black" cx="394.5" cy="-22" rx="22" ry="22"/>
<text text-anchor="start" x="390" y="-18.3" font-family="Times,serif" font-size="14.00">■</text>
</g>
<!-- Notify Result Appeal to Offender&#45;&gt;end_node -->
<g id="edge23" class="edge">
<title>Notify Result Appeal to Offender&#45;&gt;end_node</title>
<path fill="none" stroke="#000000" stroke-width="0.72" d="M390.01,-289.56C433.98,-271.12 495.48,-237.35 523.5,-185 555.49,-125.22 470.34,-65.6 423.28,-38.35"/>
<polygon fill="#000000" stroke="#000000" stroke-width="0.72" points="425.25,-35.44 414.83,-33.57 421.81,-41.54 425.25,-35.44"/>
<text text-anchor="middle" x="537.5" y="-163.3" font-family="Times,serif" font-size="14.00">13</text>
</g>
<!-- Payment&#45;&gt;end_node -->
<g id="edge20" class="edge">
<title>Payment&#45;&gt;end_node</title>
<path fill="none" stroke="#000000" stroke-width="4.41" d="M333.96,-94.84C344.26,-82.62 358.34,-65.91 370.33,-51.68"/>
<polygon fill="#000000" stroke="#000000" stroke-width="4.41" points="373.15,-54.32 376.64,-44.19 367.25,-49.35 373.15,-54.32"/>
<text text-anchor="middle" x="371" y="-65.8" font-family="Times,serif" font-size="14.00">178</text>
</g>
<!-- Appeal to Judge&#45;&gt;Payment -->
<g id="edge17" class="edge">
<title>Appeal to Judge&#45;&gt;Payment</title>
<path fill="none" stroke="#000000" stroke-width="0.75" d="M251.19,-202.66C261.83,-188.21 277.48,-167.13 291.5,-149 293.81,-146.02 296.24,-142.91 298.68,-139.83"/>
<polygon fill="#000000" stroke="#000000" stroke-width="0.75" points="301.23,-142.24 304.72,-132.24 295.76,-137.88 301.23,-142.24"/>
<text text-anchor="middle" x="298.5" y="-163.3" font-family="Times,serif" font-size="14.00">14</text>
</g>
<!-- Appeal to Judge&#45;&gt;end_node -->
<g id="edge21" class="edge">
<title>Appeal to Judge&#45;&gt;end_node</title>
<path fill="none" stroke="#000000" stroke-width="1.28" d="M234.69,-202.51C230.09,-176.61 225.47,-127.64 247.5,-95 273.52,-56.44 326.37,-37.75 361.1,-29.29"/>
<polygon fill="#000000" stroke="#000000" stroke-width="1.28" points="361.67,-32.75 370.66,-27.14 360.14,-25.92 361.67,-32.75"/>
<text text-anchor="middle" x="254.5" y="-109.3" font-family="Times,serif" font-size="14.00">38</text>
</g>
<!-- Send for Credit Collection&#45;&gt;end_node -->
<g id="edge22" class="edge">
<title>Send for Credit Collection&#45;&gt;end_node</title>
<path fill="none" stroke="#000000" stroke-width="0.88" d="M424.4,-148.75C418.85,-125.4 408.85,-83.34 401.95,-54.33"/>
<polygon fill="#000000" stroke="#000000" stroke-width="0.88" points="405.41,-53.76 399.69,-44.84 398.6,-55.38 405.41,-53.76"/>
<text text-anchor="middle" x="426.5" y="-109.3" font-family="Times,serif" font-size="14.00">20</text>
</g>
</g>
</svg>
