<?xml version="1.0" encoding="UTF-8" standalone="no"?>
<!DOCTYPE svg PUBLIC "-//W3C//DTD SVG 1.1//EN"
 "http://www.w3.org/Graphics/SVG/1.1/DTD/svg11.dtd">
<!-- Generated by graphviz version 7.1.0 (0)
 -->
<!-- Pages: 1 -->
<svg width="1795pt" height="422pt"
 viewBox="0.00 0.00 1795.00 422.00" xmlns="http://www.w3.org/2000/svg" xmlns:xlink="http://www.w3.org/1999/xlink">
<g id="graph0" class="graph" transform="scale(1 1) rotate(0) translate(4 418)">
<polygon fill="white" stroke="none" points="-4,4 -4,-418 1791,-418 1791,4 -4,4"/>
<!-- start_node_var0 -->
<g id="node1" class="node">
<title>start_node_var0</title>
<text text-anchor="middle" x="40" y="-14.3" font-family="Times,serif" font-size="14.00">4 traces</text>
</g>
<!-- Create Fine_var0_step0 -->
<g id="node2" class="node">
<title>Create Fine_var0_step0</title>
<polygon fill="lightgrey" stroke="black" points="80,-90 0,-90 0,-54 80,-54 80,-90"/>
<text text-anchor="middle" x="40" y="-68.3" font-family="Times,serif" font-size="14.00">Create Fine</text>
</g>
<!-- Send Fine_var0_step1 -->
<g id="node3" class="node">
<title>Send Fine_var0_step1</title>
<polygon fill="lightgrey" stroke="black" points="187,-90 116,-90 116,-54 187,-54 187,-90"/>
<text text-anchor="middle" x="151.5" y="-68.3" font-family="Times,serif" font-size="14.00">Send Fine</text>
</g>
<!-- Create Fine_var0_step0&#45;&gt;Send Fine_var0_step1 -->
<g id="edge1" class="edge">
<title>Create Fine_var0_step0&#45;&gt;Send Fine_var0_step1</title>
<path fill="none" stroke="black" d="M80.22,-72C87.97,-72 96.18,-72 104.14,-72"/>
<polygon fill="black" stroke="black" points="104.04,-75.5 114.04,-72 104.04,-68.5 104.04,-75.5"/>
</g>
<!-- Insert Fine Notification_var0_step2 -->
<g id="node4" class="node">
<title>Insert Fine Notification_var0_step2</title>
<polygon fill="lightgrey" stroke="black" points="367,-90 223,-90 223,-54 367,-54 367,-90"/>
<text text-anchor="middle" x="295" y="-68.3" font-family="Times,serif" font-size="14.00">Insert Fine Notification</text>
</g>
<!-- Send Fine_var0_step1&#45;&gt;Insert Fine Notification_var0_step2 -->
<g id="edge2" class="edge">
<title>Send Fine_var0_step1&#45;&gt;Insert Fine Notification_var0_step2</title>
<path fill="none" stroke="black" d="M187.48,-72C194.85,-72 202.92,-72 211.22,-72"/>
<polygon fill="black" stroke="black" points="211.13,-75.5 221.13,-72 211.13,-68.5 211.13,-75.5"/>
</g>
<!-- Add penalty_var0_step3 -->
<g id="node5" class="node">
<title>Add penalty_var0_step3</title>
<polygon fill="lightgrey" stroke="black" points="540.5,-90 457.5,-90 457.5,-54 540.5,-54 540.5,-90"/>
<text text-anchor="middle" x="499" y="-68.3" font-family="Times,serif" font-size="14.00">Add penalty</text>
</g>
<!-- Insert Fine Notification_var0_step2&#45;&gt;Add penalty_var0_step3 -->
<g id="edge3" class="edge">
<title>Insert Fine Notification_var0_step2&#45;&gt;Add penalty_var0_step3</title>
<path fill="none" stroke="black" d="M367.22,-72C393.09,-72 421.82,-72 445.74,-72"/>
<polygon fill="black" stroke="black" points="445.56,-75.5 455.56,-72 445.56,-68.5 445.56,-75.5"/>
</g>
<!-- Insert Date Appeal to Prefecture_var0_step4 -->
<g id="node6" class="node">
<title>Insert Date Appeal to Prefecture_var0_step4</title>
<polygon fill="lightgrey" stroke="black" points="823,-90 631,-90 631,-54 823,-54 823,-90"/>
<text text-anchor="middle" x="727" y="-68.3" font-family="Times,serif" font-size="14.00">Insert Date Appeal to Prefecture</text>
</g>
<!-- Add penalty_var0_step3&#45;&gt;Insert Date Appeal to Prefecture_var0_step4 -->
<g id="edge4" class="edge">
<title>Add penalty_var0_step3&#45;&gt;Insert Date Appeal to Prefecture_var0_step4</title>
<path fill="none" stroke="black" d="M540.93,-72C563.06,-72 591.53,-72 619.47,-72"/>
<polygon fill="black" stroke="black" points="619.46,-75.5 629.46,-72 619.46,-68.5 619.46,-75.5"/>
</g>
<!-- Receive Result Appeal from Prefecture_var0_step5 -->
<g id="node7" class="node">
<title>Receive Result Appeal from Prefecture_var0_step5</title>
<polygon fill="lightgrey" stroke="black" points="1089,-90 859,-90 859,-54 1089,-54 1089,-90"/>
<text text-anchor="middle" x="974" y="-68.3" font-family="Times,serif" font-size="14.00">Receive Result Appeal from Prefecture</text>
</g>
<!-- Insert Date Appeal to Prefecture_var0_step4&#45;&gt;Receive Result Appeal from Prefecture_var0_step5 -->
<g id="edge5" class="edge">
<title>Insert Date Appeal to Prefecture_var0_step4&#45;&gt;Receive Result Appeal from Prefecture_var0_step5</title>
<path fill="none" stroke="black" d="M823.42,-72C831.28,-72 839.29,-72 847.32,-72"/>
<polygon fill="black" stroke="black" points="847.15,-75.5 857.15,-72 847.15,-68.5 847.15,-75.5"/>
</g>
<!-- Notify Result Appeal to Offender_var0_step6 -->
<g id="node8" class="node">
<title>Notify Result Appeal to Offender_var0_step6</title>
<polygon fill="lightgrey" stroke="black" points="1339.5,-90 1140.5,-90 1140.5,-54 1339.5,-54 1339.5,-90"/>
<text text-anchor="middle" x="1240" y="-68.3" font-family="Times,serif" font-size="14.00">Notify Result Appeal to Offender</text>
</g>
<!-- Receive Result Appeal from Prefecture_var0_step5&#45;&gt;Notify Result Appeal to Offender_var0_step6 -->
<g id="edge6" class="edge">
<title>Receive Result Appeal from Prefecture_var0_step5&#45;&gt;Notify Result Appeal to Offender_var0_step6</title>
<path fill="none" stroke="black" d="M1089.26,-72C1102.41,-72 1115.8,-72 1128.89,-72"/>
<polygon fill="black" stroke="black" points="1128.79,-75.5 1138.79,-72 1128.79,-68.5 1128.79,-75.5"/>
</g>
<!-- Send for Credit Collection_var0_step7 -->
<g id="node9" class="node">
<title>Send for Credit Collection_var0_step7</title>
<polygon fill="lightgrey" stroke="black" points="1571,-90 1410,-90 1410,-54 1571,-54 1571,-90"/>
<text text-anchor="middle" x="1490.5" y="-68.3" font-family="Times,serif" font-size="14.00">Send for Credit Collection</text>
</g>
<!-- Notify Result Appeal to Offender_var0_step6&#45;&gt;Send for Credit Collection_var0_step7 -->
<g id="edge7" class="edge">
<title>Notify Result Appeal to Offender_var0_step6&#45;&gt;Send for Credit Collection_var0_step7</title>
<path fill="none" stroke="black" d="M1339.93,-72C1359.18,-72 1379.29,-72 1398.28,-72"/>
<polygon fill="black" stroke="black" points="1398.12,-75.5 1408.12,-72 1398.12,-68.5 1398.12,-75.5"/>
</g>
<!-- Send Appeal to Prefecture_var0_step8 -->
<g id="node10" class="node">
<title>Send Appeal to Prefecture_var0_step8</title>
<polygon fill="lightgrey" stroke="black" points="1786,-90 1627,-90 1627,-54 1786,-54 1786,-90"/>
<text text-anchor="middle" x="1706.5" y="-68.3" font-family="Times,serif" font-size="14.00">Send Appeal to Prefecture</text>
</g>
<!-- Send for Credit Collection_var0_step7&#45;&gt;Send Appeal to Prefecture_var0_step8 -->
<g id="edge8" class="edge">
<title>Send for Credit Collection_var0_step7&#45;&gt;Send Appeal to Prefecture_var0_step8</title>
<path fill="none" stroke="black" d="M1571.49,-72C1585.87,-72 1600.95,-72 1615.58,-72"/>
<polygon fill="black" stroke="black" points="1615.16,-75.5 1625.16,-72 1615.16,-68.5 1615.16,-75.5"/>
</g>
<!-- start_node_var1 -->
<g id="node11" class="node">
<title>start_node_var1</title>
<text text-anchor="middle" x="40" y="-122.3" font-family="Times,serif" font-size="14.00">4 traces</text>
</g>
<!-- Create Fine_var1_step0 -->
<g id="node12" class="node">
<title>Create Fine_var1_step0</title>
<polygon fill="lightgrey" stroke="black" points="80,-198 0,-198 0,-162 80,-162 80,-198"/>
<text text-anchor="middle" x="40" y="-176.3" font-family="Times,serif" font-size="14.00">Create Fine</text>
</g>
<!-- Send Fine_var1_step1 -->
<g id="node13" class="node">
<title>Send Fine_var1_step1</title>
<polygon fill="lightgrey" stroke="black" points="187,-198 116,-198 116,-162 187,-162 187,-198"/>
<text text-anchor="middle" x="151.5" y="-176.3" font-family="Times,serif" font-size="14.00">Send Fine</text>
</g>
<!-- Create Fine_var1_step0&#45;&gt;Send Fine_var1_step1 -->
<g id="edge9" class="edge">
<title>Create Fine_var1_step0&#45;&gt;Send Fine_var1_step1</title>
<path fill="none" stroke="black" d="M80.22,-180C87.97,-180 96.18,-180 104.14,-180"/>
<polygon fill="black" stroke="black" points="104.04,-183.5 114.04,-180 104.04,-176.5 104.04,-183.5"/>
</g>
<!-- Insert Fine Notification_var1_step2 -->
<g id="node14" class="node">
<title>Insert Fine Notification_var1_step2</title>
<polygon fill="lightgrey" stroke="black" points="367,-198 223,-198 223,-162 367,-162 367,-198"/>
<text text-anchor="middle" x="295" y="-176.3" font-family="Times,serif" font-size="14.00">Insert Fine Notification</text>
</g>
<!-- Send Fine_var1_step1&#45;&gt;Insert Fine Notification_var1_step2 -->
<g id="edge10" class="edge">
<title>Send Fine_var1_step1&#45;&gt;Insert Fine Notification_var1_step2</title>
<path fill="none" stroke="black" d="M187.48,-180C194.85,-180 202.92,-180 211.22,-180"/>
<polygon fill="black" stroke="black" points="211.13,-183.5 221.13,-180 211.13,-176.5 211.13,-183.5"/>
</g>
<!-- Insert Date Appeal to Prefecture_var1_step3 -->
<g id="node15" class="node">
<title>Insert Date Appeal to Prefecture_var1_step3</title>
<polygon fill="lightgrey" stroke="black" points="595,-198 403,-198 403,-162 595,-162 595,-198"/>
<text text-anchor="middle" x="499" y="-176.3" font-family="Times,serif" font-size="14.00">Insert Date Appeal to Prefecture</text>
</g>
<!-- Insert Fine Notification_var1_step2&#45;&gt;Insert Date Appeal to Prefecture_var1_step3 -->
<g id="edge11" class="edge">
<title>Insert Fine Notification_var1_step2&#45;&gt;Insert Date Appeal to Prefecture_var1_step3</title>
<path fill="none" stroke="black" d="M367.22,-180C375.02,-180 383.07,-180 391.18,-180"/>
<polygon fill="black" stroke="black" points="391.14,-183.5 401.14,-180 391.14,-176.5 391.14,-183.5"/>
</g>
<!-- Add penalty_var1_step4 -->
<g id="node16" class="node">
<title>Add penalty_var1_step4</title>
<polygon fill="lightgrey" stroke="black" points="768.5,-198 685.5,-198 685.5,-162 768.5,-162 768.5,-198"/>
<text text-anchor="middle" x="727" y="-176.3" font-family="Times,serif" font-size="14.00">Add penalty</text>
</g>
<!-- Insert Date Appeal to Prefecture_var1_step3&#45;&gt;Add penalty_var1_step4 -->
<g id="edge12" class="edge">
<title>Insert Date Appeal to Prefecture_var1_step3&#45;&gt;Add penalty_var1_step4</title>
<path fill="none" stroke="black" d="M595.19,-180C622.12,-180 650.44,-180 673.82,-180"/>
<polygon fill="black" stroke="black" points="673.7,-183.5 683.7,-180 673.7,-176.5 673.7,-183.5"/>
</g>
<!-- Receive Result Appeal from Prefecture_var1_step5 -->
<g id="node17" class="node">
<title>Receive Result Appeal from Prefecture_var1_step5</title>
<polygon fill="lightgrey" stroke="black" points="1089,-198 859,-198 859,-162 1089,-162 1089,-198"/>
<text text-anchor="middle" x="974" y="-176.3" font-family="Times,serif" font-size="14.00">Receive Result Appeal from Prefecture</text>
</g>
<!-- Add penalty_var1_step4&#45;&gt;Receive Result Appeal from Prefecture_var1_step5 -->
<g id="edge13" class="edge">
<title>Add penalty_var1_step4&#45;&gt;Receive Result Appeal from Prefecture_var1_step5</title>
<path fill="none" stroke="black" d="M768.73,-180C790.59,-180 818.85,-180 847.34,-180"/>
<polygon fill="black" stroke="black" points="847.16,-183.5 857.16,-180 847.16,-176.5 847.16,-183.5"/>
</g>
<!-- Notify Result Appeal to Offender_var1_step6 -->
<g id="node18" class="node">
<title>Notify Result Appeal to Offender_var1_step6</title>
<polygon fill="lightgrey" stroke="black" points="1339.5,-198 1140.5,-198 1140.5,-162 1339.5,-162 1339.5,-198"/>
<text text-anchor="middle" x="1240" y="-176.3" font-family="Times,serif" font-size="14.00">Notify Result Appeal to Offender</text>
</g>
<!-- Receive Result Appeal from Prefecture_var1_step5&#45;&gt;Notify Result Appeal to Offender_var1_step6 -->
<g id="edge14" class="edge">
<title>Receive Result Appeal from Prefecture_var1_step5&#45;&gt;Notify Result Appeal to Offender_var1_step6</title>
<path fill="none" stroke="black" d="M1089.26,-180C1102.41,-180 1115.8,-180 1128.89,-180"/>
<polygon fill="black" stroke="black" points="1128.79,-183.5 1138.79,-180 1128.79,-176.5 1128.79,-183.5"/>
</g>
<!-- Send for Credit Collection_var1_step7 -->
<g id="node19" class="node">
<title>Send for Credit Collection_var1_step7</title>
<polygon fill="lightgrey" stroke="black" points="1571,-198 1410,-198 1410,-162 1571,-162 1571,-198"/>
<text text-anchor="middle" x="1490.5" y="-176.3" font-family="Times,serif" font-size="14.00">Send for Credit Collection</text>
</g>
<!-- Notify Result Appeal to Offender_var1_step6&#45;&gt;Send for Credit Collection_var1_step7 -->
<g id="edge15" class="edge">
<title>Notify Result Appeal to Offender_var1_step6&#45;&gt;Send for Credit Collection_var1_step7</title>
<path fill="none" stroke="black" d="M1339.93,-180C1359.18,-180 1379.29,-180 1398.28,-180"/>
<polygon fill="black" stroke="black" points="1398.12,-183.5 1408.12,-180 1398.12,-176.5 1398.12,-183.5"/>
</g>
<!-- Send Appeal to Prefecture_var1_step8 -->
<g id="node20" class="node">
<title>Send Appeal to Prefecture_var1_step8</title>
<polygon fill="lightgrey" stroke="black" points="1786,-198 1627,-198 1627,-162 1786,-162 1786,-198"/>
<text text-anchor="middle" x="1706.5" y="-176.3" font-family="Times,serif" font-size="14.00">Send Appeal to Prefecture</text>
</g>
<!-- Send for Credit Collection_var1_step7&#45;&gt;Send Appeal to Prefecture_var1_step8 -->
<g id="edge16" class="edge">
<title>Send for Credit Collection_var1_step7&#45;&gt;Send Appeal to Prefecture_var1_step8</title>
<path fill="none" stroke="black" d="M1571.49,-180C1585.87,-180 1600.95,-180 1615.58,-180"/>
<polygon fill="black" stroke="black" points="1615.16,-183.5 1625.16,-180 1615.16,-176.5 1615.16,-183.5"/>
</g>
<!-- start_node_var2 -->
<g id="node21" class="node">
<title>start_node_var2</title>
<text text-anchor="middle" x="40" y="-230.3" font-family="Times,serif" font-size="14.00">33 traces</text>
</g>
<!-- Create Fine_var2_step0 -->
<g id="node22" class="node">
<title>Create Fine_var2_step0</title>
<polygon fill="lightgrey" stroke="black" points="80,-306 0,-306 0,-270 80,-270 80,-306"/>
<text text-anchor="middle" x="40" y="-284.3" font-family="Times,serif" font-size="14.00">Create Fine</text>
</g>
<!-- Send Fine_var2_step1 -->
<g id="node23" class="node">
<title>Send Fine_var2_step1</title>
<polygon fill="lightgrey" stroke="black" points="187,-306 116,-306 116,-270 187,-270 187,-306"/>
<text text-anchor="middle" x="151.5" y="-284.3" font-family="Times,serif" font-size="14.00">Send Fine</text>
</g>
<!-- Create Fine_var2_step0&#45;&gt;Send Fine_var2_step1 -->
<g id="edge17" class="edge">
<title>Create Fine_var2_step0&#45;&gt;Send Fine_var2_step1</title>
<path fill="none" stroke="black" d="M80.22,-288C87.97,-288 96.18,-288 104.14,-288"/>
<polygon fill="black" stroke="black" points="104.04,-291.5 114.04,-288 104.04,-284.5 104.04,-291.5"/>
</g>
<!-- Insert Fine Notification_var2_step2 -->
<g id="node24" class="node">
<title>Insert Fine Notification_var2_step2</title>
<polygon fill="lightgrey" stroke="black" points="367,-306 223,-306 223,-270 367,-270 367,-306"/>
<text text-anchor="middle" x="295" y="-284.3" font-family="Times,serif" font-size="14.00">Insert Fine Notification</text>
</g>
<!-- Send Fine_var2_step1&#45;&gt;Insert Fine Notification_var2_step2 -->
<g id="edge18" class="edge">
<title>Send Fine_var2_step1&#45;&gt;Insert Fine Notification_var2_step2</title>
<path fill="none" stroke="black" d="M187.48,-288C194.85,-288 202.92,-288 211.22,-288"/>
<polygon fill="black" stroke="black" points="211.13,-291.5 221.13,-288 211.13,-284.5 211.13,-291.5"/>
</g>
<!-- Insert Date Appeal to Prefecture_var2_step3 -->
<g id="node25" class="node">
<title>Insert Date Appeal to Prefecture_var2_step3</title>
<polygon fill="lightgrey" stroke="black" points="595,-306 403,-306 403,-270 595,-270 595,-306"/>
<text text-anchor="middle" x="499" y="-284.3" font-family="Times,serif" font-size="14.00">Insert Date Appeal to Prefecture</text>
</g>
<!-- Insert Fine Notification_var2_step2&#45;&gt;Insert Date Appeal to Prefecture_var2_step3 -->
<g id="edge19" class="edge">
<title>Insert Fine Notification_var2_step2&#45;&gt;Insert Date Appeal to Prefecture_var2_step3</title>
<path fill="none" stroke="black" d="M367.22,-288C375.02,-288 383.07,-288 391.18,-288"/>
<polygon fill="black" stroke="black" points="391.14,-291.5 401.14,-288 391.14,-284.5 391.14,-291.5"/>
</g>
<!-- Send Appeal to Prefecture_var2_step4 -->
<g id="node26" class="node">
<title>Send Appeal to Prefecture_var2_step4</title>
<polygon fill="lightgrey" stroke="black" points="806.5,-306 647.5,-306 647.5,-270 806.5,-270 806.5,-306"/>
<text text-anchor="middle" x="727" y="-284.3" font-family="Times,serif" font-size="14.00">Send Appeal to Prefecture</text>
</g>
<!-- Insert Date Appeal to Prefecture_var2_step3&#45;&gt;Send Appeal to Prefecture_var2_step4 -->
<g id="edge20" class="edge">
<title>Insert Date Appeal to Prefecture_var2_step3&#45;&gt;Send Appeal to Prefecture_var2_step4</title>
<path fill="none" stroke="black" d="M595.19,-288C608.76,-288 622.68,-288 636.15,-288"/>
<polygon fill="black" stroke="black" points="635.82,-291.5 645.82,-288 635.82,-284.5 635.82,-291.5"/>
</g>
<!-- Add penalty_var2_step5 -->
<g id="node27" class="node">
<title>Add penalty_var2_step5</title>
<polygon fill="lightgrey" stroke="black" points="1015.5,-306 932.5,-306 932.5,-270 1015.5,-270 1015.5,-306"/>
<text text-anchor="middle" x="974" y="-284.3" font-family="Times,serif" font-size="14.00">Add penalty</text>
</g>
<!-- Send Appeal to Prefecture_var2_step4&#45;&gt;Add penalty_var2_step5 -->
<g id="edge21" class="edge">
<title>Send Appeal to Prefecture_var2_step4&#45;&gt;Add penalty_var2_step5</title>
<path fill="none" stroke="black" d="M806.87,-288C844.16,-288 887.65,-288 920.78,-288"/>
<polygon fill="black" stroke="black" points="920.53,-291.5 930.53,-288 920.53,-284.5 920.53,-291.5"/>
</g>
<!-- Receive Result Appeal from Prefecture_var2_step6 -->
<g id="node28" class="node">
<title>Receive Result Appeal from Prefecture_var2_step6</title>
<polygon fill="lightgrey" stroke="black" points="1355,-306 1125,-306 1125,-270 1355,-270 1355,-306"/>
<text text-anchor="middle" x="1240" y="-284.3" font-family="Times,serif" font-size="14.00">Receive Result Appeal from Prefecture</text>
</g>
<!-- Add penalty_var2_step5&#45;&gt;Receive Result Appeal from Prefecture_var2_step6 -->
<g id="edge22" class="edge">
<title>Add penalty_var2_step5&#45;&gt;Receive Result Appeal from Prefecture_var2_step6</title>
<path fill="none" stroke="black" d="M1015.96,-288C1042.29,-288 1078.05,-288 1113.22,-288"/>
<polygon fill="black" stroke="black" points="1113.09,-291.5 1123.09,-288 1113.09,-284.5 1113.09,-291.5"/>
</g>
<!-- Notify Result Appeal to Offender_var2_step7 -->
<g id="node29" class="node">
<title>Notify Result Appeal to Offender_var2_step7</title>
<polygon fill="lightgrey" stroke="black" points="1590,-306 1391,-306 1391,-270 1590,-270 1590,-306"/>
<text text-anchor="middle" x="1490.5" y="-284.3" font-family="Times,serif" font-size="14.00">Notify Result Appeal to Offender</text>
</g>
<!-- Receive Result Appeal from Prefecture_var2_step6&#45;&gt;Notify Result Appeal to Offender_var2_step7 -->
<g id="edge23" class="edge">
<title>Receive Result Appeal from Prefecture_var2_step6&#45;&gt;Notify Result Appeal to Offender_var2_step7</title>
<path fill="none" stroke="black" d="M1355.43,-288C1363.3,-288 1371.23,-288 1379.08,-288"/>
<polygon fill="black" stroke="black" points="1379.01,-291.5 1389.01,-288 1379.01,-284.5 1379.01,-291.5"/>
</g>
<!-- Send for Credit Collection_var2_step8 -->
<g id="node30" class="node">
<title>Send for Credit Collection_var2_step8</title>
<polygon fill="lightgrey" stroke="black" points="1787,-306 1626,-306 1626,-270 1787,-270 1787,-306"/>
<text text-anchor="middle" x="1706.5" y="-284.3" font-family="Times,serif" font-size="14.00">Send for Credit Collection</text>
</g>
<!-- Notify Result Appeal to Offender_var2_step7&#45;&gt;Send for Credit Collection_var2_step8 -->
<g id="edge24" class="edge">
<title>Notify Result Appeal to Offender_var2_step7&#45;&gt;Send for Credit Collection_var2_step8</title>
<path fill="none" stroke="black" d="M1590.36,-288C1598.3,-288 1606.31,-288 1614.2,-288"/>
<polygon fill="black" stroke="black" points="1614.14,-291.5 1624.14,-288 1614.14,-284.5 1614.14,-291.5"/>
</g>
<!-- start_node_var3 -->
<g id="node31" class="node">
<title>start_node_var3</title>
<text text-anchor="middle" x="40" y="-338.3" font-family="Times,serif" font-size="14.00">36 traces</text>
</g>
<!-- Create Fine_var3_step0 -->
<g id="node32" class="node">
<title>Create Fine_var3_step0</title>
<polygon fill="lightgrey" stroke="black" points="80,-414 0,-414 0,-378 80,-378 80,-414"/>
<text text-anchor="middle" x="40" y="-392.3" font-family="Times,serif" font-size="14.00">Create Fine</text>
</g>
<!-- Send Fine_var3_step1 -->
<g id="node33" class="node">
<title>Send Fine_var3_step1</title>
<polygon fill="lightgrey" stroke="black" points="187,-414 116,-414 116,-378 187,-378 187,-414"/>
<text text-anchor="middle" x="151.5" y="-392.3" font-family="Times,serif" font-size="14.00">Send Fine</text>
</g>
<!-- Create Fine_var3_step0&#45;&gt;Send Fine_var3_step1 -->
<g id="edge25" class="edge">
<title>Create Fine_var3_step0&#45;&gt;Send Fine_var3_step1</title>
<path fill="none" stroke="black" d="M80.22,-396C87.97,-396 96.18,-396 104.14,-396"/>
<polygon fill="black" stroke="black" points="104.04,-399.5 114.04,-396 104.04,-392.5 104.04,-399.5"/>
</g>
<!-- Insert Fine Notification_var3_step2 -->
<g id="node34" class="node">
<title>Insert Fine Notification_var3_step2</title>
<polygon fill="lightgrey" stroke="black" points="367,-414 223,-414 223,-378 367,-378 367,-414"/>
<text text-anchor="middle" x="295" y="-392.3" font-family="Times,serif" font-size="14.00">Insert Fine Notification</text>
</g>
<!-- Send Fine_var3_step1&#45;&gt;Insert Fine Notification_var3_step2 -->
<g id="edge26" class="edge">
<title>Send Fine_var3_step1&#45;&gt;Insert Fine Notification_var3_step2</title>
<path fill="none" stroke="black" d="M187.48,-396C194.85,-396 202.92,-396 211.22,-396"/>
<polygon fill="black" stroke="black" points="211.13,-399.5 221.13,-396 211.13,-392.5 211.13,-399.5"/>
</g>
<!-- Insert Date Appeal to Prefecture_var3_step3 -->
<g id="node35" class="node">
<title>Insert Date Appeal to Prefecture_var3_step3</title>
<polygon fill="lightgrey" stroke="black" points="595,-414 403,-414 403,-378 595,-378 595,-414"/>
<text text-anchor="middle" x="499" y="-392.3" font-family="Times,serif" font-size="14.00">Insert Date Appeal to Prefecture</text>
</g>
<!-- Insert Fine Notification_var3_step2&#45;&gt;Insert Date Appeal to Prefecture_var3_step3 -->
<g id="edge27" class="edge">
<title>Insert Fine Notification_var3_step2&#45;&gt;Insert Date Appeal to Prefecture_var3_step3</title>
<path fill="none" stroke="black" d="M367.22,-396C375.02,-396 383.07,-396 391.18,-396"/>
<polygon fill="black" stroke="black" points="391.14,-399.5 401.14,-396 391.14,-392.5 391.14,-399.5"/>
</g>
<!-- Add penalty_var3_step4 -->
<g id="node36" class="node">
<title>Add penalty_var3_step4</title>
<polygon fill="lightgrey" stroke="black" points="768.5,-414 685.5,-414 685.5,-378 768.5,-378 768.5,-414"/>
<text text-anchor="middle" x="727" y="-392.3" font-family="Times,serif" font-size="14.00">Add penalty</text>
</g>
<!-- Insert Date Appeal to Prefecture_var3_step3&#45;&gt;Add penalty_var3_step4 -->
<g id="edge28" class="edge">
<title>Insert Date Appeal to Prefecture_var3_step3&#45;&gt;Add penalty_var3_step4</title>
<path fill="none" stroke="black" d="M595.19,-396C622.12,-396 650.44,-396 673.82,-396"/>
<polygon fill="black" stroke="black" points="673.7,-399.5 683.7,-396 673.7,-392.5 673.7,-399.5"/>
</g>
<!-- Send Appeal to Prefecture_var3_step5 -->
<g id="node37" class="node">
<title>Send Appeal to Prefecture_var3_step5</title>
<polygon fill="lightgrey" stroke="black" points="1053.5,-414 894.5,-414 894.5,-378 1053.5,-378 1053.5,-414"/>
<text text-anchor="middle" x="974" y="-392.3" font-family="Times,serif" font-size="14.00">Send Appeal to Prefecture</text>
</g>
<!-- Add penalty_var3_step4&#45;&gt;Send Appeal to Prefecture_var3_step5 -->
<g id="edge29" class="edge">
<title>Add penalty_var3_step4&#45;&gt;Send Appeal to Prefecture_var3_step5</title>
<path fill="none" stroke="black" d="M768.73,-396C799.75,-396 843.65,-396 882.81,-396"/>
<polygon fill="black" stroke="black" points="882.74,-399.5 892.74,-396 882.74,-392.5 882.74,-399.5"/>
</g>
<!-- Receive Result Appeal from Prefecture_var3_step6 -->
<g id="node38" class="node">
<title>Receive Result Appeal from Prefecture_var3_step6</title>
<polygon fill="lightgrey" stroke="black" points="1355,-414 1125,-414 1125,-378 1355,-378 1355,-414"/>
<text text-anchor="middle" x="1240" y="-392.3" font-family="Times,serif" font-size="14.00">Receive Result Appeal from Prefecture</text>
</g>
<!-- Send Appeal to Prefecture_var3_step5&#45;&gt;Receive Result Appeal from Prefecture_var3_step6 -->
<g id="edge30" class="edge">
<title>Send Appeal to Prefecture_var3_step5&#45;&gt;Receive Result Appeal from Prefecture_var3_step6</title>
<path fill="none" stroke="black" d="M1053.85,-396C1072.7,-396 1093.28,-396 1113.64,-396"/>
<polygon fill="black" stroke="black" points="1113.41,-399.5 1123.41,-396 1113.41,-392.5 1113.41,-399.5"/>
</g>
<!-- Notify Result Appeal to Offender_var3_step7 -->
<g id="node39" class="node">
<title>Notify Result Appeal to Offender_var3_step7</title>
<polygon fill="lightgrey" stroke="black" points="1590,-414 1391,-414 1391,-378 1590,-378 1590,-414"/>
<text text-anchor="middle" x="1490.5" y="-392.3" font-family="Times,serif" font-size="14.00">Notify Result Appeal to Offender</text>
</g>
<!-- Receive Result Appeal from Prefecture_var3_step6&#45;&gt;Notify Result Appeal to Offender_var3_step7 -->
<g id="edge31" class="edge">
<title>Receive Result Appeal from Prefecture_var3_step6&#45;&gt;Notify Result Appeal to Offender_var3_step7</title>
<path fill="none" stroke="black" d="M1355.43,-396C1363.3,-396 1371.23,-396 1379.08,-396"/>
<polygon fill="black" stroke="black" points="1379.01,-399.5 1389.01,-396 1379.01,-392.5 1379.01,-399.5"/>
</g>
<!-- Send for Credit Collection_var3_step8 -->
<g id="node40" class="node">
<title>Send for Credit Collection_var3_step8</title>
<polygon fill="lightgrey" stroke="black" points="1787,-414 1626,-414 1626,-378 1787,-378 1787,-414"/>
<text text-anchor="middle" x="1706.5" y="-392.3" font-family="Times,serif" font-size="14.00">Send for Credit Collection</text>
</g>
<!-- Notify Result Appeal to Offender_var3_step7&#45;&gt;Send for Credit Collection_var3_step8 -->
<g id="edge32" class="edge">
<title>Notify Result Appeal to Offender_var3_step7&#45;&gt;Send for Credit Collection_var3_step8</title>
<path fill="none" stroke="black" d="M1590.36,-396C1598.3,-396 1606.31,-396 1614.2,-396"/>
<polygon fill="black" stroke="black" points="1614.14,-399.5 1624.14,-396 1614.14,-392.5 1614.14,-399.5"/>
</g>
</g>
</svg>
