<?xml version="1.0" encoding="UTF-8" standalone="no"?>
<!DOCTYPE svg PUBLIC "-//W3C//DTD SVG 1.1//EN"
 "http://www.w3.org/Graphics/SVG/1.1/DTD/svg11.dtd">
<!-- Generated by graphviz version 7.0.5 (0)
 -->
<!-- Title: dfg Pages: 1 -->
<svg width="610pt" height="1009pt"
 viewBox="0.00 0.00 609.50 1009.00" xmlns="http://www.w3.org/2000/svg" xmlns:xlink="http://www.w3.org/1999/xlink">
<g id="graph0" class="graph" transform="scale(1 1) rotate(0) translate(4 1005)">
<title>dfg</title>
<polygon fill="white" stroke="none" points="-4,4 -4,-1005 605.5,-1005 605.5,4 -4,4"/>
<!-- start_node -->
<g id="node1" class="node">
<title>start_node</title>
<ellipse fill="none" stroke="black" cx="533" cy="-983" rx="18" ry="18"/>
<text text-anchor="start" x="528.5" y="-979.3" font-family="Times,serif" font-size="14.00">●</text>
</g>
<!-- Create Fine -->
<g id="node2" class="node">
<title>Create Fine</title>
<polygon fill="#9b9bff" stroke="black" points="589.5,-914 476.5,-914 476.5,-878 589.5,-878 589.5,-914"/>
<text text-anchor="middle" x="533" y="-892.3" font-family="Times,serif" font-size="14.00">Create Fine (319)</text>
</g>
<!-- start_node&#45;&gt;Create Fine -->
<g id="edge1" class="edge">
<title>start_node&#45;&gt;Create Fine</title>
<path fill="none" stroke="#000000" stroke-width="6.02" d="M533,-964.8C533,-954.96 533,-942.27 533,-930.53"/>
<polygon fill="#000000" stroke="#000000" stroke-width="6.02" points="538.27,-930.93 533,-920.93 527.73,-930.93 538.27,-930.93"/>
<text text-anchor="middle" x="543.5" y="-935.8" font-family="Times,serif" font-size="14.00">319</text>
</g>
<!-- Send Fine -->
<g id="node3" class="node">
<title>Send Fine</title>
<polygon fill="#9b9bff" stroke="black" points="543,-827 439,-827 439,-791 543,-791 543,-827"/>
<text text-anchor="middle" x="491" y="-805.3" font-family="Times,serif" font-size="14.00">Send Fine (319)</text>
</g>
<!-- Create Fine&#45;&gt;Send Fine -->
<g id="edge2" class="edge">
<title>Create Fine&#45;&gt;Send Fine</title>
<path fill="none" stroke="#000000" stroke-width="6" d="M524.5,-877.8C519.41,-867.5 512.78,-854.08 506.76,-841.9"/>
<polygon fill="#000000" stroke="#000000" stroke-width="6" points="511.63,-839.89 502.49,-833.25 502.21,-844.54 511.63,-839.89"/>
<text text-anchor="middle" x="524.5" y="-848.8" font-family="Times,serif" font-size="14.00">318</text>
</g>
<!-- Insert Date Appeal to Prefecture -->
<g id="node6" class="node">
<title>Insert Date Appeal to Prefecture</title>
<polygon fill="#9b9bff" stroke="black" points="601.5,-566 376.5,-566 376.5,-530 601.5,-530 601.5,-566"/>
<text text-anchor="middle" x="489" y="-544.3" font-family="Times,serif" font-size="14.00">Insert Date Appeal to Prefecture (319)</text>
</g>
<!-- Create Fine&#45;&gt;Insert Date Appeal to Prefecture -->
<g id="edge20" class="edge">
<title>Create Fine&#45;&gt;Insert Date Appeal to Prefecture</title>
<path fill="none" stroke="#ff0000" stroke-width="0.5" stroke-dasharray="5,2" d="M546.77,-877.55C558.34,-861.11 573,-835.28 573,-810 573,-810 573,-810 573,-634 573,-607.86 552.65,-586.86 531.98,-572.27"/>
<polygon fill="#ff0000" stroke="#ff0000" stroke-width="0.5" points="534.06,-569.45 523.8,-566.84 530.19,-575.28 534.06,-569.45"/>
<text text-anchor="middle" x="576.5" y="-718.3" font-family="Times,serif" font-size="14.00">1</text>
</g>
<!-- Insert Fine Notification -->
<g id="node4" class="node">
<title>Insert Fine Notification</title>
<polygon fill="#9c9cff" stroke="black" points="454.5,-740 277.5,-740 277.5,-704 454.5,-704 454.5,-740"/>
<text text-anchor="middle" x="366" y="-718.3" font-family="Times,serif" font-size="14.00">Insert Fine Notification (313)</text>
</g>
<!-- Send Fine&#45;&gt;Insert Fine Notification -->
<g id="edge3" class="edge">
<title>Send Fine&#45;&gt;Insert Fine Notification</title>
<path fill="none" stroke="#000000" stroke-width="5.91" d="M465.4,-790.59C448.04,-778.79 424.77,-762.96 405.11,-749.59"/>
<polygon fill="#000000" stroke="#000000" stroke-width="5.91" points="408.06,-745.35 396.88,-744 402.24,-753.9 408.06,-745.35"/>
<text text-anchor="middle" x="445.5" y="-761.8" font-family="Times,serif" font-size="14.00">313</text>
</g>
<!-- Send Fine&#45;&gt;Insert Date Appeal to Prefecture -->
<g id="edge19" class="edge">
<title>Send Fine&#45;&gt;Insert Date Appeal to Prefecture</title>
<path fill="none" stroke="#ff0000" stroke-width="0.59" stroke-dasharray="5,2" d="M490.87,-790.6C490.53,-746.65 489.63,-630.8 489.22,-577.09"/>
<polygon fill="#ff0000" stroke="#ff0000" stroke-width="0.59" points="492.72,-577.18 489.14,-567.21 485.72,-577.23 492.72,-577.18"/>
<text text-anchor="middle" x="493.5" y="-674.8" font-family="Times,serif" font-size="14.00">6</text>
</g>
<!-- Add penalty -->
<g id="node5" class="node">
<title>Add penalty</title>
<polygon fill="#9c9cff" stroke="black" points="386,-653 270,-653 270,-617 386,-617 386,-653"/>
<text text-anchor="middle" x="328" y="-631.3" font-family="Times,serif" font-size="14.00">Add penalty (313)</text>
</g>
<!-- Insert Fine Notification&#45;&gt;Add penalty -->
<g id="edge4" class="edge">
<title>Insert Fine Notification&#45;&gt;Add penalty</title>
<path fill="none" stroke="#000000" stroke-width="1.19" d="M358.31,-703.8C353.19,-692.35 346.36,-677.06 340.47,-663.89"/>
<polygon fill="#000000" stroke="#000000" stroke-width="1.19" points="343.82,-662.82 336.55,-655.12 337.43,-665.67 343.82,-662.82"/>
<text text-anchor="middle" x="356" y="-674.8" font-family="Times,serif" font-size="14.00">41</text>
</g>
<!-- Insert Fine Notification&#45;&gt;Insert Date Appeal to Prefecture -->
<g id="edge7" class="edge">
<title>Insert Fine Notification&#45;&gt;Insert Date Appeal to Prefecture</title>
<path fill="none" stroke="#000000" stroke-width="5.18" d="M378.47,-703.56C399.28,-674.46 441.35,-615.63 467.16,-579.53"/>
<polygon fill="#000000" stroke="#000000" stroke-width="5.18" points="470.72,-582.36 472.85,-571.59 463.34,-577.08 470.72,-582.36"/>
<text text-anchor="middle" x="449.5" y="-631.3" font-family="Times,serif" font-size="14.00">271</text>
</g>
<!-- Send Appeal to Prefecture -->
<g id="node7" class="node">
<title>Send Appeal to Prefecture</title>
<polygon fill="#9b9bff" stroke="black" points="478,-392 286,-392 286,-356 478,-356 478,-392"/>
<text text-anchor="middle" x="382" y="-370.3" font-family="Times,serif" font-size="14.00">Send Appeal to Prefecture (317)</text>
</g>
<!-- Insert Fine Notification&#45;&gt;Send Appeal to Prefecture -->
<g id="edge22" class="edge">
<title>Insert Fine Notification&#45;&gt;Send Appeal to Prefecture</title>
<path fill="none" stroke="#ff0000" stroke-width="0.5" stroke-dasharray="5,2" d="M319.94,-703.61C297.9,-692.68 273.61,-676.18 261,-653 239.63,-613.71 164.99,-610.98 264,-443 276.13,-422.42 297.06,-407.5 317.96,-396.96"/>
<polygon fill="#ff0000" stroke="#ff0000" stroke-width="0.5" points="319.31,-400.2 326.85,-392.75 316.31,-393.87 319.31,-400.2"/>
<text text-anchor="middle" x="225.5" y="-544.3" font-family="Times,serif" font-size="14.00">1</text>
</g>
<!-- Add penalty&#45;&gt;Insert Date Appeal to Prefecture -->
<g id="edge5" class="edge">
<title>Add penalty&#45;&gt;Insert Date Appeal to Prefecture</title>
<path fill="none" stroke="#000000" stroke-width="1.19" d="M364.21,-616.56C374.89,-611.17 386.53,-605.05 397,-599 407.57,-592.9 409.43,-590.1 420,-584 427.12,-579.89 434.77,-575.75 442.3,-571.82"/>
<polygon fill="#000000" stroke="#000000" stroke-width="1.19" points="443.88,-574.94 451.19,-567.26 440.69,-568.71 443.88,-574.94"/>
<text text-anchor="middle" x="427" y="-587.8" font-family="Times,serif" font-size="14.00">41</text>
</g>
<!-- Add penalty&#45;&gt;Send Appeal to Prefecture -->
<g id="edge9" class="edge">
<title>Add penalty&#45;&gt;Send Appeal to Prefecture</title>
<path fill="none" stroke="#000000" stroke-width="4.96" d="M320.76,-616.84C310.72,-590.61 295.08,-539.14 307,-497 316.73,-462.6 339.19,-428.36 357.01,-404.95"/>
<polygon fill="#000000" stroke="#000000" stroke-width="4.96" points="360.19,-407.92 362.97,-397.38 353.37,-402.55 360.19,-407.92"/>
<text text-anchor="middle" x="317.5" y="-500.8" font-family="Times,serif" font-size="14.00">258</text>
</g>
<!-- Receive Result Appeal from Prefecture -->
<g id="node8" class="node">
<title>Receive Result Appeal from Prefecture</title>
<polygon fill="#f4f4ff" stroke="black" points="450.5,-305 193.5,-305 193.5,-269 450.5,-269 450.5,-305"/>
<text text-anchor="middle" x="322" y="-283.3" font-family="Times,serif" font-size="14.00">Receive Result Appeal from Prefecture (42)</text>
</g>
<!-- Add penalty&#45;&gt;Receive Result Appeal from Prefecture -->
<g id="edge14" class="edge">
<title>Add penalty&#45;&gt;Receive Result Appeal from Prefecture</title>
<path fill="none" stroke="#ff0000" stroke-width="0.71" stroke-dasharray="5,2" d="M315.64,-616.8C312.13,-611.31 308.57,-605.08 306,-599 300.13,-585.1 300.69,-580.85 298,-566 281.3,-473.7 249.97,-445.82 277,-356 281.58,-340.77 290.81,-325.81 299.73,-313.81"/>
<polygon fill="#ff0000" stroke="#ff0000" stroke-width="0.71" points="302.34,-316.15 305.74,-306.11 296.83,-311.84 302.34,-316.15"/>
<text text-anchor="middle" x="282" y="-457.3" font-family="Times,serif" font-size="14.00">13</text>
</g>
<!-- Appeal to Judge -->
<g id="node11" class="node">
<title>Appeal to Judge</title>
<polygon fill="#fefeff" stroke="black" points="197.5,-479 66.5,-479 66.5,-443 197.5,-443 197.5,-479"/>
<text text-anchor="middle" x="132" y="-457.3" font-family="Times,serif" font-size="14.00">Appeal to Judge (11)</text>
</g>
<!-- Add penalty&#45;&gt;Appeal to Judge -->
<g id="edge24" class="edge">
<title>Add penalty&#45;&gt;Appeal to Judge</title>
<path fill="none" stroke="#ff0000" stroke-width="0.5" stroke-dasharray="5,2" d="M269.85,-621.18C236.69,-611.17 196.57,-594.1 170,-566 150.14,-544.99 140.5,-512.78 135.93,-489.77"/>
<polygon fill="#ff0000" stroke="#ff0000" stroke-width="0.5" points="139.39,-489.28 134.2,-480.05 132.5,-490.51 139.39,-489.28"/>
<text text-anchor="middle" x="173.5" y="-544.3" font-family="Times,serif" font-size="14.00">1</text>
</g>
<!-- Insert Date Appeal to Prefecture&#45;&gt;Send Fine -->
<g id="edge21" class="edge">
<title>Insert Date Appeal to Prefecture&#45;&gt;Send Fine</title>
<path fill="none" stroke="#ff0000" stroke-width="0.5" stroke-dasharray="5,2" d="M497.44,-566.41C499.7,-571.91 501.84,-578.09 503,-584 508,-609.41 507.79,-751.91 504,-773 503.55,-775.48 502.95,-778.01 502.23,-780.52"/>
<polygon fill="#ff0000" stroke="#ff0000" stroke-width="0.5" points="498.97,-779.23 499.11,-789.82 505.61,-781.45 498.97,-779.23"/>
<text text-anchor="middle" x="509.5" y="-674.8" font-family="Times,serif" font-size="14.00">1</text>
</g>
<!-- Insert Date Appeal to Prefecture&#45;&gt;Add penalty -->
<g id="edge8" class="edge">
<title>Insert Date Appeal to Prefecture&#45;&gt;Add penalty</title>
<path fill="none" stroke="#000000" stroke-width="5.01" d="M408.95,-566.4C396.04,-571.01 383.25,-576.79 372,-584 363.62,-589.37 355.9,-596.78 349.35,-604.25"/>
<polygon fill="#000000" stroke="#000000" stroke-width="5.01" points="345.93,-601.51 343.11,-612.06 352.78,-606.99 345.93,-601.51"/>
<text text-anchor="middle" x="382.5" y="-587.8" font-family="Times,serif" font-size="14.00">261</text>
</g>
<!-- Insert Date Appeal to Prefecture&#45;&gt;Send Appeal to Prefecture -->
<g id="edge6" class="edge">
<title>Insert Date Appeal to Prefecture&#45;&gt;Send Appeal to Prefecture</title>
<path fill="none" stroke="#000000" stroke-width="1.42" d="M478.15,-529.56C459.57,-499.69 421.49,-438.48 399.24,-402.71"/>
<polygon fill="#000000" stroke="#000000" stroke-width="1.42" points="402.27,-400.95 394.01,-394.31 396.32,-404.65 402.27,-400.95"/>
<text text-anchor="middle" x="453" y="-457.3" font-family="Times,serif" font-size="14.00">54</text>
</g>
<!-- Insert Date Appeal to Prefecture&#45;&gt;Receive Result Appeal from Prefecture -->
<g id="edge17" class="edge">
<title>Insert Date Appeal to Prefecture&#45;&gt;Receive Result Appeal from Prefecture</title>
<path fill="none" stroke="#ff0000" stroke-width="0.52" stroke-dasharray="5,2" d="M494.65,-529.59C505.16,-493.61 523.53,-409.96 487,-356 472.2,-334.14 448.98,-319.3 424.58,-309.23"/>
<polygon fill="#ff0000" stroke="#ff0000" stroke-width="0.52" points="426.14,-306.08 415.55,-305.75 423.62,-312.61 426.14,-306.08"/>
<text text-anchor="middle" x="511.5" y="-413.8" font-family="Times,serif" font-size="14.00">2</text>
</g>
<!-- Insert Date Appeal to Prefecture&#45;&gt;Appeal to Judge -->
<g id="edge26" class="edge">
<title>Insert Date Appeal to Prefecture&#45;&gt;Appeal to Judge</title>
<path fill="none" stroke="#ff0000" stroke-width="0.5" stroke-dasharray="5,2" d="M408.57,-529.53C391.25,-524.71 373.27,-518.88 357,-512 345.06,-506.96 344.14,-501.53 332,-497 320.26,-492.62 259.85,-482.31 208.46,-474"/>
<polygon fill="#ff0000" stroke="#ff0000" stroke-width="0.5" points="209.17,-470.57 198.74,-472.44 208.05,-477.48 209.17,-470.57"/>
<text text-anchor="middle" x="360.5" y="-500.8" font-family="Times,serif" font-size="14.00">1</text>
</g>
<!-- Send Appeal to Prefecture&#45;&gt;Add penalty -->
<g id="edge13" class="edge">
<title>Send Appeal to Prefecture&#45;&gt;Add penalty</title>
<path fill="none" stroke="#ff0000" stroke-width="0.66" stroke-dasharray="5,2" d="M380.17,-392.43C377.27,-418.57 371,-469.43 362,-512 355.06,-544.83 344.31,-581.88 336.76,-606.45"/>
<polygon fill="#ff0000" stroke="#ff0000" stroke-width="0.66" points="333.46,-605.26 333.84,-615.85 340.15,-607.34 333.46,-605.26"/>
<text text-anchor="middle" x="371" y="-500.8" font-family="Times,serif" font-size="14.00">10</text>
</g>
<!-- Send Appeal to Prefecture&#45;&gt;Receive Result Appeal from Prefecture -->
<g id="edge10" class="edge">
<title>Send Appeal to Prefecture&#45;&gt;Receive Result Appeal from Prefecture</title>
<path fill="none" stroke="#000000" stroke-width="0.95" d="M369.86,-355.8C361.54,-344.01 350.33,-328.14 340.86,-314.72"/>
<polygon fill="#000000" stroke="#000000" stroke-width="0.95" points="343.79,-312.79 335.16,-306.64 338.07,-316.83 343.79,-312.79"/>
<text text-anchor="middle" x="362" y="-326.8" font-family="Times,serif" font-size="14.00">27</text>
</g>
<!-- end_node -->
<g id="node13" class="node">
<title>end_node</title>
<ellipse fill="none" stroke="black" cx="221" cy="-22" rx="18" ry="18"/>
<ellipse fill="none" stroke="black" cx="221" cy="-22" rx="22" ry="22"/>
<text text-anchor="start" x="216.5" y="-18.3" font-family="Times,serif" font-size="14.00">■</text>
</g>
<!-- Send Appeal to Prefecture&#45;&gt;end_node -->
<g id="edge31" class="edge">
<title>Send Appeal to Prefecture&#45;&gt;end_node</title>
<path fill="none" stroke="#000000" stroke-width="5.34" d="M466.95,-355.54C500.41,-343.24 531,-322.55 531,-288 531,-288 531,-288 531,-112 531,-56.12 342.58,-33.28 259.53,-25.92"/>
<polygon fill="#000000" stroke="#000000" stroke-width="5.34" points="259.93,-21.27 249.58,-25.09 259.16,-30.58 259.93,-21.27"/>
<text text-anchor="middle" x="541.5" y="-196.3" font-family="Times,serif" font-size="14.00">280</text>
</g>
<!-- Receive Result Appeal from Prefecture&#45;&gt;Send Appeal to Prefecture -->
<g id="edge16" class="edge">
<title>Receive Result Appeal from Prefecture&#45;&gt;Send Appeal to Prefecture</title>
<path fill="none" stroke="#ff0000" stroke-width="0.5" stroke-dasharray="5,2" d="M324.49,-305.35C326.58,-315.54 330.34,-328.28 337,-338 339.65,-341.87 342.86,-345.51 346.34,-348.87"/>
<polygon fill="#ff0000" stroke="#ff0000" stroke-width="0.5" points="343.84,-351.33 353.68,-355.26 348.43,-346.05 343.84,-351.33"/>
<text text-anchor="middle" x="340.5" y="-326.8" font-family="Times,serif" font-size="14.00">1</text>
</g>
<!-- Notify Result Appeal to Offender -->
<g id="node9" class="node">
<title>Notify Result Appeal to Offender</title>
<polygon fill="#f5f5ff" stroke="black" points="380.5,-218 155.5,-218 155.5,-182 380.5,-182 380.5,-218"/>
<text text-anchor="middle" x="268" y="-196.3" font-family="Times,serif" font-size="14.00">Notify Result Appeal to Offender (36)</text>
</g>
<!-- Receive Result Appeal from Prefecture&#45;&gt;Notify Result Appeal to Offender -->
<g id="edge11" class="edge">
<title>Receive Result Appeal from Prefecture&#45;&gt;Notify Result Appeal to Offender</title>
<path fill="none" stroke="#000000" stroke-width="1.11" d="M311.07,-268.8C303.66,-257.12 293.7,-241.45 285.22,-228.11"/>
<polygon fill="#000000" stroke="#000000" stroke-width="1.11" points="288.31,-226.45 280,-219.88 282.4,-230.2 288.31,-226.45"/>
<text text-anchor="middle" x="305" y="-239.8" font-family="Times,serif" font-size="14.00">36</text>
</g>
<!-- Receive Result Appeal from Prefecture&#45;&gt;Appeal to Judge -->
<g id="edge30" class="edge">
<title>Receive Result Appeal from Prefecture&#45;&gt;Appeal to Judge</title>
<path fill="none" stroke="#ff0000" stroke-width="0.5" stroke-dasharray="5,2" d="M272.05,-305.31C262.13,-310.11 252.25,-315.97 244,-323 202.72,-358.18 213.79,-385.15 177,-425 173.4,-428.9 169.33,-432.7 165.15,-436.28"/>
<polygon fill="#ff0000" stroke="#ff0000" stroke-width="0.5" points="163.22,-433.34 157.66,-442.36 167.63,-438.77 163.22,-433.34"/>
<text text-anchor="middle" x="220.5" y="-370.3" font-family="Times,serif" font-size="14.00">1</text>
</g>
<!-- Receive Result Appeal from Prefecture&#45;&gt;end_node -->
<g id="edge33" class="edge">
<title>Receive Result Appeal from Prefecture&#45;&gt;end_node</title>
<path fill="none" stroke="#ff0000" stroke-width="0.55" stroke-dasharray="5,2" d="M344.64,-268.62C386.86,-234.09 469.6,-155.02 427,-95 387.41,-39.23 301.22,-26.31 253.83,-23.54"/>
<polygon fill="#ff0000" stroke="#ff0000" stroke-width="0.55" points="254.22,-20.06 244.07,-23.09 253.89,-27.05 254.22,-20.06"/>
<text text-anchor="middle" x="439.5" y="-152.8" font-family="Times,serif" font-size="14.00">4</text>
</g>
<!-- Notify Result Appeal to Offender&#45;&gt;Add penalty -->
<g id="edge23" class="edge">
<title>Notify Result Appeal to Offender&#45;&gt;Add penalty</title>
<path fill="none" stroke="#ff0000" stroke-width="0.5" stroke-dasharray="5,2" d="M172.12,-218.5C109.02,-232.85 38,-255.72 38,-286 38,-418.5 38,-418.5 38,-418.5 38,-446.68 37.06,-459.08 57,-479 110.7,-532.65 154.69,-491.31 220,-530 238.75,-541.11 279.19,-582.19 304.91,-609.28"/>
<polygon fill="#ff0000" stroke="#ff0000" stroke-width="0.5" points="302.13,-611.43 311.55,-616.29 307.22,-606.62 302.13,-611.43"/>
<text text-anchor="middle" x="41.5" y="-413.8" font-family="Times,serif" font-size="14.00">1</text>
</g>
<!-- Send for Credit Collection -->
<g id="node10" class="node">
<title>Send for Credit Collection</title>
<polygon fill="#fcfcff" stroke="black" points="417.5,-131 230.5,-131 230.5,-95 417.5,-95 417.5,-131"/>
<text text-anchor="middle" x="324" y="-109.3" font-family="Times,serif" font-size="14.00">Send for Credit Collection (17)</text>
</g>
<!-- Notify Result Appeal to Offender&#45;&gt;Send for Credit Collection -->
<g id="edge12" class="edge">
<title>Notify Result Appeal to Offender&#45;&gt;Send for Credit Collection</title>
<path fill="none" stroke="#000000" stroke-width="0.78" d="M279.33,-181.8C287.1,-170.01 297.56,-154.14 306.4,-140.72"/>
<polygon fill="#000000" stroke="#000000" stroke-width="0.78" points="309.27,-142.73 311.84,-132.45 303.42,-138.88 309.27,-142.73"/>
<text text-anchor="middle" x="306" y="-152.8" font-family="Times,serif" font-size="14.00">17</text>
</g>
<!-- Notify Result Appeal to Offender&#45;&gt;Appeal to Judge -->
<g id="edge15" class="edge">
<title>Notify Result Appeal to Offender&#45;&gt;Appeal to Judge</title>
<path fill="none" stroke="#ff0000" stroke-width="0.6" stroke-dasharray="5,2" d="M238.31,-218.26C220.11,-230.3 197.74,-247.94 184,-269 181.73,-272.49 153.1,-380.13 139.32,-432.26"/>
<polygon fill="#ff0000" stroke="#ff0000" stroke-width="0.6" points="135.95,-431.32 136.77,-441.88 142.71,-433.11 135.95,-431.32"/>
<text text-anchor="middle" x="172.5" y="-326.8" font-family="Times,serif" font-size="14.00">7</text>
</g>
<!-- Payment -->
<g id="node12" class="node">
<title>Payment</title>
<polygon fill="#ffffff" stroke="black" points="169,-131 85,-131 85,-95 169,-95 169,-131"/>
<text text-anchor="middle" x="127" y="-109.3" font-family="Times,serif" font-size="14.00">Payment (8)</text>
</g>
<!-- Notify Result Appeal to Offender&#45;&gt;Payment -->
<g id="edge18" class="edge">
<title>Notify Result Appeal to Offender&#45;&gt;Payment</title>
<path fill="none" stroke="#ff0000" stroke-width="0.6" stroke-dasharray="5,2" d="M218.69,-181.6C206.95,-176.61 194.73,-170.69 184,-164 172.6,-156.89 161.22,-147.5 151.67,-138.78"/>
<polygon fill="#ff0000" stroke="#ff0000" stroke-width="0.6" points="154.13,-136.29 144.45,-131.99 149.33,-141.39 154.13,-136.29"/>
<text text-anchor="middle" x="187.5" y="-152.8" font-family="Times,serif" font-size="14.00">7</text>
</g>
<!-- Notify Result Appeal to Offender&#45;&gt;end_node -->
<g id="edge36" class="edge">
<title>Notify Result Appeal to Offender&#45;&gt;end_node</title>
<path fill="none" stroke="#ff0000" stroke-width="0.55" stroke-dasharray="5,2" d="M248.8,-181.77C236.23,-169.13 220.9,-150.79 214,-131 205.32,-106.11 208.26,-76.06 212.68,-53.99"/>
<polygon fill="#ff0000" stroke="#ff0000" stroke-width="0.55" points="216.07,-54.88 214.82,-44.36 209.24,-53.36 216.07,-54.88"/>
<text text-anchor="middle" x="217.5" y="-109.3" font-family="Times,serif" font-size="14.00">4</text>
</g>
<!-- Send for Credit Collection&#45;&gt;Send Appeal to Prefecture -->
<g id="edge28" class="edge">
<title>Send for Credit Collection&#45;&gt;Send Appeal to Prefecture</title>
<path fill="none" stroke="#ff0000" stroke-width="0.5" stroke-dasharray="5,2" d="M348.01,-131.44C381.02,-157.15 438.76,-208.73 460,-269 465.32,-284.09 466.62,-290.44 460,-305 451.85,-322.91 436.4,-337.94 421.39,-349.28"/>
<polygon fill="#ff0000" stroke="#ff0000" stroke-width="0.5" points="419.37,-346.41 413.28,-355.08 423.45,-352.11 419.37,-346.41"/>
<text text-anchor="middle" x="454.5" y="-239.8" font-family="Times,serif" font-size="14.00">1</text>
</g>
<!-- Send for Credit Collection&#45;&gt;end_node -->
<g id="edge32" class="edge">
<title>Send for Credit Collection&#45;&gt;end_node</title>
<path fill="none" stroke="#ff0000" stroke-width="0.76" stroke-dasharray="5,2" d="M304.14,-94.84C287.46,-80.43 263.55,-59.77 245.65,-44.3"/>
<polygon fill="#ff0000" stroke="#ff0000" stroke-width="0.76" points="248.13,-41.82 238.28,-37.93 243.55,-47.11 248.13,-41.82"/>
<text text-anchor="middle" x="288" y="-65.8" font-family="Times,serif" font-size="14.00">16</text>
</g>
<!-- Appeal to Judge&#45;&gt;Send Appeal to Prefecture -->
<g id="edge27" class="edge">
<title>Appeal to Judge&#45;&gt;Send Appeal to Prefecture</title>
<path fill="none" stroke="#ff0000" stroke-width="0.52" stroke-dasharray="5,2" d="M168.25,-442.54C179.18,-437.09 191.16,-430.95 202,-425 213.36,-418.76 214.97,-414.82 227,-410 242.37,-403.84 259.06,-398.64 275.6,-394.29"/>
<polygon fill="#ff0000" stroke="#ff0000" stroke-width="0.52" points="276.27,-397.73 285.11,-391.89 274.56,-390.95 276.27,-397.73"/>
<text text-anchor="middle" x="230.5" y="-413.8" font-family="Times,serif" font-size="14.00">2</text>
</g>
<!-- Appeal to Judge&#45;&gt;Payment -->
<g id="edge29" class="edge">
<title>Appeal to Judge&#45;&gt;Payment</title>
<path fill="none" stroke="#ff0000" stroke-width="0.5" stroke-dasharray="5,2" d="M130.39,-442.76C128.93,-425.6 127,-398.5 127,-375 127,-375 127,-375 127,-199 127,-179.94 127,-158.47 127,-141.87"/>
<polygon fill="#ff0000" stroke="#ff0000" stroke-width="0.5" points="130.5,-142.01 127,-132.01 123.5,-142.01 130.5,-142.01"/>
<text text-anchor="middle" x="130.5" y="-283.3" font-family="Times,serif" font-size="14.00">1</text>
</g>
<!-- Appeal to Judge&#45;&gt;end_node -->
<g id="edge34" class="edge">
<title>Appeal to Judge&#45;&gt;end_node</title>
<path fill="none" stroke="#ff0000" stroke-width="0.62" stroke-dasharray="5,2" d="M66,-443.67C33,-431.14 0,-409.89 0,-375 0,-375 0,-375 0,-112 0,-31.98 126.21,-22.08 187.87,-22.01"/>
<polygon fill="#ff0000" stroke="#ff0000" stroke-width="0.62" points="187.62,-25.51 197.65,-22.09 187.68,-18.51 187.62,-25.51"/>
<text text-anchor="middle" x="3.5" y="-239.8" font-family="Times,serif" font-size="14.00">8</text>
</g>
<!-- Payment&#45;&gt;Appeal to Judge -->
<g id="edge25" class="edge">
<title>Payment&#45;&gt;Appeal to Judge</title>
<path fill="none" stroke="#ff0000" stroke-width="0.5" stroke-dasharray="5,2" d="M112.2,-131.28C99.76,-147.61 84,-173.37 84,-199 84,-375 84,-375 84,-375 84,-397.02 96.37,-418.59 108.54,-434.48"/>
<polygon fill="#ff0000" stroke="#ff0000" stroke-width="0.5" points="105.72,-436.55 114.74,-442.11 111.15,-432.14 105.72,-436.55"/>
<text text-anchor="middle" x="87.5" y="-283.3" font-family="Times,serif" font-size="14.00">1</text>
</g>
<!-- Payment&#45;&gt;end_node -->
<g id="edge35" class="edge">
<title>Payment&#45;&gt;end_node</title>
<path fill="none" stroke="#ff0000" stroke-width="0.6" stroke-dasharray="5,2" d="M145.12,-94.84C160.16,-80.6 181.64,-60.27 197.91,-44.86"/>
<polygon fill="#ff0000" stroke="#ff0000" stroke-width="0.6" points="199.91,-47.79 204.76,-38.38 195.09,-42.71 199.91,-47.79"/>
<text text-anchor="middle" x="183.5" y="-65.8" font-family="Times,serif" font-size="14.00">7</text>
</g>
</g>
</svg>
