<?xml version="1.0" encoding="UTF-8" standalone="no"?>
<!DOCTYPE svg PUBLIC "-//W3C//DTD SVG 1.1//EN"
 "http://www.w3.org/Graphics/SVG/1.1/DTD/svg11.dtd">
<!-- Generated by graphviz version 7.0.5 (0)
 -->
<!-- Title: dfg Pages: 1 -->
<svg width="939pt" height="835pt"
 viewBox="0.00 0.00 939.00 835.00" xmlns="http://www.w3.org/2000/svg" xmlns:xlink="http://www.w3.org/1999/xlink">
<g id="graph0" class="graph" transform="scale(1 1) rotate(0) translate(4 831)">
<title>dfg</title>
<polygon fill="white" stroke="none" points="-4,4 -4,-831 935,-831 935,4 -4,4"/>
<!-- start_node -->
<g id="node1" class="node">
<title>start_node</title>
<ellipse fill="none" stroke="black" cx="859" cy="-809" rx="18" ry="18"/>
<text text-anchor="start" x="854.5" y="-805.3" font-family="Times,serif" font-size="14.00">●</text>
</g>
<!-- Create Fine -->
<g id="node2" class="node">
<title>Create Fine</title>
<polygon fill="#9b9bff" stroke="black" points="922,-740 796,-740 796,-704 922,-704 922,-740"/>
<text text-anchor="middle" x="859" y="-718.3" font-family="Times,serif" font-size="14.00">Create Fine (38750)</text>
</g>
<!-- start_node&#45;&gt;Create Fine -->
<g id="edge1" class="edge">
<title>start_node&#45;&gt;Create Fine</title>
<path fill="none" stroke="#000000" stroke-width="9.53" d="M859,-790.8C859,-781.3 859,-769.15 859,-757.76"/>
<polygon fill="#000000" stroke="#000000" stroke-width="9.53" points="867.34,-757.91 859,-747.91 850.66,-757.91 867.34,-757.91"/>
<text text-anchor="middle" x="876" y="-761.8" font-family="Times,serif" font-size="14.00">38750</text>
</g>
<!-- Send Fine -->
<g id="node3" class="node">
<title>Send Fine</title>
<polygon fill="#c1c1ff" stroke="black" points="740,-653 622,-653 622,-617 740,-617 740,-653"/>
<text text-anchor="middle" x="681" y="-631.3" font-family="Times,serif" font-size="14.00">Send Fine (23759)</text>
</g>
<!-- Create Fine&#45;&gt;Send Fine -->
<g id="edge2" class="edge">
<title>Create Fine&#45;&gt;Send Fine</title>
<path fill="none" stroke="#000000" stroke-width="6" d="M822.55,-703.59C796.51,-691.16 761.13,-674.26 732.25,-660.47"/>
<polygon fill="#000000" stroke="#000000" stroke-width="6" points="734.51,-655.74 723.23,-656.16 729.99,-665.21 734.51,-655.74"/>
<text text-anchor="middle" x="797" y="-674.8" font-family="Times,serif" font-size="14.00">23610</text>
</g>
<!-- Payment -->
<g id="node6" class="node">
<title>Payment</title>
<polygon fill="#c0c0ff" stroke="black" points="405.5,-218 294.5,-218 294.5,-182 405.5,-182 405.5,-218"/>
<text text-anchor="middle" x="350" y="-196.3" font-family="Times,serif" font-size="14.00">Payment (24037)</text>
</g>
<!-- Create Fine&#45;&gt;Payment -->
<g id="edge8" class="edge">
<title>Create Fine&#45;&gt;Payment</title>
<path fill="none" stroke="#000000" stroke-width="4.03" d="M871.87,-703.77C882.89,-687.26 897,-661.22 897,-636 897,-636 897,-636 897,-286 897,-238.47 570.33,-213.64 421.88,-204.81"/>
<polygon fill="#000000" stroke="#000000" stroke-width="4.03" points="422.2,-201.3 412.02,-204.23 421.79,-208.33 422.2,-201.3"/>
<text text-anchor="middle" x="914" y="-457.3" font-family="Times,serif" font-size="14.00">15138</text>
</g>
<!-- Insert Date Appeal to Prefecture -->
<g id="node9" class="node">
<title>Insert Date Appeal to Prefecture</title>
<polygon fill="#fefeff" stroke="black" points="736,-392 518,-392 518,-356 736,-356 736,-392"/>
<text text-anchor="middle" x="627" y="-370.3" font-family="Times,serif" font-size="14.00">Insert Date Appeal to Prefecture (14)</text>
</g>
<!-- Create Fine&#45;&gt;Insert Date Appeal to Prefecture -->
<g id="edge22" class="edge">
<title>Create Fine&#45;&gt;Insert Date Appeal to Prefecture</title>
<path fill="none" stroke="#ff0000" stroke-width="0.5" stroke-dasharray="5,2" d="M850.88,-703.52C827.37,-654.04 755.42,-510.09 669,-410 665.76,-406.25 662.09,-402.57 658.31,-399.09"/>
<polygon fill="#ff0000" stroke="#ff0000" stroke-width="0.5" points="660.88,-396.69 651.04,-392.77 656.29,-401.97 660.88,-396.69"/>
<text text-anchor="middle" x="780.5" y="-544.3" font-family="Times,serif" font-size="14.00">2</text>
</g>
<!-- Insert Fine Notification -->
<g id="node4" class="node">
<title>Insert Fine Notification</title>
<polygon fill="#c4c4ff" stroke="black" points="563.5,-566 372.5,-566 372.5,-530 563.5,-530 563.5,-566"/>
<text text-anchor="middle" x="468" y="-544.3" font-family="Times,serif" font-size="14.00">Insert Fine Notification (22652)</text>
</g>
<!-- Send Fine&#45;&gt;Insert Fine Notification -->
<g id="edge3" class="edge">
<title>Send Fine&#45;&gt;Insert Fine Notification</title>
<path fill="none" stroke="#000000" stroke-width="5.77" d="M637.38,-616.59C605.36,-603.82 561.53,-586.32 526.48,-572.34"/>
<polygon fill="#000000" stroke="#000000" stroke-width="5.77" points="528.66,-567.77 517.5,-568.76 524.92,-577.15 528.66,-567.77"/>
<text text-anchor="middle" x="604" y="-587.8" font-family="Times,serif" font-size="14.00">22624</text>
</g>
<!-- Send Fine&#45;&gt;Payment -->
<g id="edge10" class="edge">
<title>Send Fine&#45;&gt;Payment</title>
<path fill="none" stroke="#ff0000" stroke-width="0.74" stroke-dasharray="5,2" d="M704.2,-616.8C710.88,-611.41 717.98,-605.23 724,-599 765.02,-556.53 767.98,-536.59 781,-479 802.21,-385.22 807.2,-324.94 729,-269 679.97,-233.93 511.91,-214.52 416.87,-206.12"/>
<polygon fill="#ff0000" stroke="#ff0000" stroke-width="0.74" points="417.32,-202.64 407.06,-205.27 416.72,-209.62 417.32,-202.64"/>
<text text-anchor="middle" x="807" y="-413.8" font-family="Times,serif" font-size="14.00">1046</text>
</g>
<!-- Send Fine&#45;&gt;Insert Date Appeal to Prefecture -->
<g id="edge32" class="edge">
<title>Send Fine&#45;&gt;Insert Date Appeal to Prefecture</title>
<path fill="none" stroke="#ff0000" stroke-width="0.5" stroke-dasharray="5,2" d="M683.98,-616.61C684.81,-611 685.59,-604.76 686,-599 686.47,-592.35 686.37,-590.66 686,-584 682.49,-520.6 678.32,-504.62 663,-443 659.3,-428.13 659.89,-423.69 653,-410 651.47,-406.96 649.67,-403.9 647.75,-400.94"/>
<polygon fill="#ff0000" stroke="#ff0000" stroke-width="0.5" points="650.8,-399.18 642.19,-393.01 645.07,-403.21 650.8,-399.18"/>
<text text-anchor="middle" x="681.5" y="-500.8" font-family="Times,serif" font-size="14.00">1</text>
</g>
<!-- end_node -->
<g id="node11" class="node">
<title>end_node</title>
<ellipse fill="none" stroke="black" cx="304" cy="-22" rx="18" ry="18"/>
<ellipse fill="none" stroke="black" cx="304" cy="-22" rx="22" ry="22"/>
<text text-anchor="start" x="299.5" y="-18.3" font-family="Times,serif" font-size="14.00">■</text>
</g>
<!-- Send Fine&#45;&gt;end_node -->
<g id="edge37" class="edge">
<title>Send Fine&#45;&gt;end_node</title>
<path fill="none" stroke="#ff0000" stroke-width="0.52" stroke-dasharray="5,2" d="M621.97,-633.39C494.68,-631.6 198.03,-624.7 101,-599 52.58,-586.17 0,-599.09 0,-549 0,-549 0,-549 0,-112 0,-55.92 192.98,-32.7 271.43,-25.58"/>
<polygon fill="#ff0000" stroke="#ff0000" stroke-width="0.52" points="271.7,-29.07 281.35,-24.72 271.09,-22.1 271.7,-29.07"/>
<text text-anchor="middle" x="7" y="-326.8" font-family="Times,serif" font-size="14.00">88</text>
</g>
<!-- Add penalty -->
<g id="node5" class="node">
<title>Add penalty</title>
<polygon fill="#c4c4ff" stroke="black" points="486,-479 356,-479 356,-443 486,-443 486,-479"/>
<text text-anchor="middle" x="421" y="-457.3" font-family="Times,serif" font-size="14.00">Add penalty (22652)</text>
</g>
<!-- Insert Fine Notification&#45;&gt;Add penalty -->
<g id="edge4" class="edge">
<title>Insert Fine Notification&#45;&gt;Add penalty</title>
<path fill="none" stroke="#000000" stroke-width="5.54" d="M458.49,-529.8C452.73,-519.38 445.21,-505.78 438.42,-493.5"/>
<polygon fill="#000000" stroke="#000000" stroke-width="5.54" points="442.81,-491.43 433.73,-485.02 434.33,-496.12 442.81,-491.43"/>
<text text-anchor="middle" x="464" y="-500.8" font-family="Times,serif" font-size="14.00">21621</text>
</g>
<!-- Insert Fine Notification&#45;&gt;Payment -->
<g id="edge11" class="edge">
<title>Insert Fine Notification&#45;&gt;Payment</title>
<path fill="none" stroke="#ff0000" stroke-width="0.73" stroke-dasharray="5,2" d="M382.7,-529.53C312.22,-509.8 217.98,-469.73 181,-392 174.13,-377.55 174.56,-370.65 181,-356 181.48,-354.91 275.35,-269.14 322.96,-225.67"/>
<polygon fill="#ff0000" stroke="#ff0000" stroke-width="0.73" points="325.17,-228.4 330.19,-219.07 320.45,-223.23 325.17,-228.4"/>
<text text-anchor="middle" x="191.5" y="-370.3" font-family="Times,serif" font-size="14.00">984</text>
</g>
<!-- Appeal to Judge -->
<g id="node8" class="node">
<title>Appeal to Judge</title>
<polygon fill="#fefeff" stroke="black" points="342.5,-392 211.5,-392 211.5,-356 342.5,-356 342.5,-392"/>
<text text-anchor="middle" x="277" y="-370.3" font-family="Times,serif" font-size="14.00">Appeal to Judge (43)</text>
</g>
<!-- Insert Fine Notification&#45;&gt;Appeal to Judge -->
<g id="edge14" class="edge">
<title>Insert Fine Notification&#45;&gt;Appeal to Judge</title>
<path fill="none" stroke="#ff0000" stroke-width="0.51" stroke-dasharray="5,2" d="M424.15,-529.57C396.6,-517.52 361.09,-499.93 333,-479 306.53,-459.28 295.71,-455.03 282,-425 278.92,-418.25 277.33,-410.48 276.59,-403.09"/>
<polygon fill="#ff0000" stroke="#ff0000" stroke-width="0.51" points="280.09,-402.95 276.06,-393.15 273.1,-403.32 280.09,-402.95"/>
<text text-anchor="middle" x="340" y="-457.3" font-family="Times,serif" font-size="14.00">38</text>
</g>
<!-- Insert Fine Notification&#45;&gt;Insert Date Appeal to Prefecture -->
<g id="edge16" class="edge">
<title>Insert Fine Notification&#45;&gt;Insert Date Appeal to Prefecture</title>
<path fill="none" stroke="#ff0000" stroke-width="0.5" stroke-dasharray="5,2" d="M514.46,-529.58C523.87,-524.77 533.24,-518.93 541,-512 576.01,-480.75 601.96,-431.92 615.76,-401.78"/>
<polygon fill="#ff0000" stroke="#ff0000" stroke-width="0.5" points="618.79,-403.58 619.66,-393.02 612.39,-400.73 618.79,-403.58"/>
<text text-anchor="middle" x="597.5" y="-457.3" font-family="Times,serif" font-size="14.00">8</text>
</g>
<!-- Send Appeal to Prefecture -->
<g id="node10" class="node">
<title>Send Appeal to Prefecture</title>
<polygon fill="#ffffff" stroke="black" points="719.5,-305 540.5,-305 540.5,-269 719.5,-269 719.5,-305"/>
<text text-anchor="middle" x="630" y="-283.3" font-family="Times,serif" font-size="14.00">Send Appeal to Prefecture (9)</text>
</g>
<!-- Insert Fine Notification&#45;&gt;Send Appeal to Prefecture -->
<g id="edge30" class="edge">
<title>Insert Fine Notification&#45;&gt;Send Appeal to Prefecture</title>
<path fill="none" stroke="#ff0000" stroke-width="0.5" stroke-dasharray="5,2" d="M477.03,-529.79C479.78,-524.2 482.68,-517.91 485,-512 490.59,-497.73 491.38,-493.89 495,-479 500.77,-455.28 502.07,-449.23 505,-425 508.69,-394.5 492.73,-382.05 509,-356 521.84,-335.44 543.27,-320.54 564.56,-310.02"/>
<polygon fill="#ff0000" stroke="#ff0000" stroke-width="0.5" points="566.02,-313.2 573.62,-305.82 563.07,-306.86 566.02,-313.2"/>
<text text-anchor="middle" x="508.5" y="-413.8" font-family="Times,serif" font-size="14.00">1</text>
</g>
<!-- Add penalty&#45;&gt;Payment -->
<g id="edge5" class="edge">
<title>Add penalty&#45;&gt;Payment</title>
<path fill="none" stroke="#000000" stroke-width="1.8" d="M406.89,-442.77C402.76,-437.28 398.43,-431.06 395,-425 374.37,-388.59 368.5,-378.75 359,-338 350.54,-301.69 349.06,-258.61 349.18,-230.59"/>
<polygon fill="#000000" stroke="#000000" stroke-width="1.8" points="352.68,-230.9 349.32,-220.85 345.68,-230.81 352.68,-230.9"/>
<text text-anchor="middle" x="373" y="-326.8" font-family="Times,serif" font-size="14.00">5571</text>
</g>
<!-- Send for Credit Collection -->
<g id="node7" class="node">
<title>Send for Credit Collection</title>
<polygon fill="#d1d1ff" stroke="black" points="291.5,-131 84.5,-131 84.5,-95 291.5,-95 291.5,-131"/>
<text text-anchor="middle" x="188" y="-109.3" font-family="Times,serif" font-size="14.00">Send for Credit Collection (17547)</text>
</g>
<!-- Add penalty&#45;&gt;Send for Credit Collection -->
<g id="edge7" class="edge">
<title>Add penalty&#45;&gt;Send for Credit Collection</title>
<path fill="none" stroke="#000000" stroke-width="4.48" d="M355.63,-443.99C323.23,-435.98 289.44,-427.46 282,-425 245.48,-412.94 224.19,-423.42 202,-392 149.57,-317.77 166.61,-202.59 179.35,-146.67"/>
<polygon fill="#000000" stroke="#000000" stroke-width="4.48" points="183.08,-147.94 181.64,-137.3 175.47,-146.09 183.08,-147.94"/>
<text text-anchor="middle" x="187" y="-283.3" font-family="Times,serif" font-size="14.00">17069</text>
</g>
<!-- Add penalty&#45;&gt;Appeal to Judge -->
<g id="edge19" class="edge">
<title>Add penalty&#45;&gt;Appeal to Judge</title>
<path fill="none" stroke="#ff0000" stroke-width="0.5" stroke-dasharray="5,2" d="M383.26,-442.63C372.36,-437.29 360.56,-431.18 350,-425 336.24,-416.95 321.63,-407.21 309.13,-398.47"/>
<polygon fill="#ff0000" stroke="#ff0000" stroke-width="0.5" points="311.25,-395.68 301.06,-392.76 307.2,-401.39 311.25,-395.68"/>
<text text-anchor="middle" x="353.5" y="-413.8" font-family="Times,serif" font-size="14.00">5</text>
</g>
<!-- Add penalty&#45;&gt;Insert Date Appeal to Prefecture -->
<g id="edge26" class="edge">
<title>Add penalty&#45;&gt;Insert Date Appeal to Prefecture</title>
<path fill="none" stroke="#ff0000" stroke-width="0.5" stroke-dasharray="5,2" d="M447.55,-442.65C468.27,-429.21 494.43,-412.46 500,-410 512.42,-404.51 525.9,-399.68 539.3,-395.5"/>
<polygon fill="#ff0000" stroke="#ff0000" stroke-width="0.5" points="540.21,-398.88 548.78,-392.65 538.19,-392.18 540.21,-398.88"/>
<text text-anchor="middle" x="503.5" y="-413.8" font-family="Times,serif" font-size="14.00">3</text>
</g>
<!-- Add penalty&#45;&gt;Send Appeal to Prefecture -->
<g id="edge18" class="edge">
<title>Add penalty&#45;&gt;Send Appeal to Prefecture</title>
<path fill="none" stroke="#ff0000" stroke-width="0.5" stroke-dasharray="5,2" d="M486.15,-450.78C575.99,-437.4 728.74,-412.02 745,-392 770.82,-360.2 725.32,-329.47 684.17,-309.76"/>
<polygon fill="#ff0000" stroke="#ff0000" stroke-width="0.5" points="685.9,-306.71 675.35,-305.68 682.96,-313.06 685.9,-306.71"/>
<text text-anchor="middle" x="755.5" y="-370.3" font-family="Times,serif" font-size="14.00">4</text>
</g>
<!-- Payment&#45;&gt;Send Fine -->
<g id="edge13" class="edge">
<title>Payment&#45;&gt;Send Fine</title>
<path fill="none" stroke="#ff0000" stroke-width="0.53" stroke-dasharray="5,2" d="M294.17,-212.91C272.63,-218.52 248.14,-226.18 227,-236 203.19,-247.06 198.05,-252.04 178,-269 143.5,-298.19 38,-371.31 38,-416.5 38,-549 38,-549 38,-549 38,-606.3 444.44,-626.21 611.04,-631.97"/>
<polygon fill="#ff0000" stroke="#ff0000" stroke-width="0.53" points="610.74,-635.46 620.85,-632.3 610.98,-628.47 610.74,-635.46"/>
<text text-anchor="middle" x="48.5" y="-413.8" font-family="Times,serif" font-size="14.00">147</text>
</g>
<!-- Payment&#45;&gt;Insert Fine Notification -->
<g id="edge25" class="edge">
<title>Payment&#45;&gt;Insert Fine Notification</title>
<path fill="none" stroke="#ff0000" stroke-width="0.51" stroke-dasharray="5,2" d="M306.96,-218.39C243.58,-247.05 135.06,-309.34 159,-392 171.72,-435.94 178.99,-449.56 214,-479 255.1,-513.56 312.06,-530.72 361.63,-539.17"/>
<polygon fill="#ff0000" stroke="#ff0000" stroke-width="0.51" points="360.9,-542.59 371.33,-540.72 362.01,-535.68 360.9,-542.59"/>
<text text-anchor="middle" x="166" y="-370.3" font-family="Times,serif" font-size="14.00">27</text>
</g>
<!-- Payment&#45;&gt;Add penalty -->
<g id="edge12" class="edge">
<title>Payment&#45;&gt;Add penalty</title>
<path fill="none" stroke="#ff0000" stroke-width="0.73" stroke-dasharray="5,2" d="M357.4,-218.29C359.67,-223.89 362.07,-230.16 364,-236 386.92,-305.27 406.03,-389.15 415.19,-431.93"/>
<polygon fill="#ff0000" stroke="#ff0000" stroke-width="0.73" points="411.73,-432.48 417.22,-441.54 418.58,-431.03 411.73,-432.48"/>
<text text-anchor="middle" x="402.5" y="-326.8" font-family="Times,serif" font-size="14.00">988</text>
</g>
<!-- Payment&#45;&gt;Payment -->
<g id="edge6" class="edge">
<title>Payment&#45;&gt;Payment</title>
<path fill="none" stroke="#000000" stroke-width="0.8" d="M405.77,-207.74C416.17,-206.78 423.5,-204.21 423.5,-200 423.5,-197.5 420.92,-195.58 416.64,-194.23"/>
<polygon fill="#000000" stroke="#000000" stroke-width="0.8" points="417.42,-190.81 406.96,-192.48 416.18,-197.7 417.42,-190.81"/>
<text text-anchor="middle" x="437.5" y="-196.3" font-family="Times,serif" font-size="14.00">1289</text>
</g>
<!-- Payment&#45;&gt;Send for Credit Collection -->
<g id="edge9" class="edge">
<title>Payment&#45;&gt;Send for Credit Collection</title>
<path fill="none" stroke="#ff0000" stroke-width="0.61" stroke-dasharray="5,2" d="M316.83,-181.59C291.93,-168.53 257.64,-150.54 230.69,-136.4"/>
<polygon fill="#ff0000" stroke="#ff0000" stroke-width="0.61" points="232.43,-133.36 221.95,-131.81 229.18,-139.56 232.43,-133.36"/>
<text text-anchor="middle" x="289.5" y="-152.8" font-family="Times,serif" font-size="14.00">476</text>
</g>
<!-- Payment&#45;&gt;end_node -->
<g id="edge34" class="edge">
<title>Payment&#45;&gt;end_node</title>
<path fill="none" stroke="#000000" stroke-width="5.42" d="M345.51,-181.8C338.13,-153.6 323.32,-96.91 313.53,-59.46"/>
<polygon fill="#000000" stroke="#000000" stroke-width="5.42" points="318.14,-58.37 311.03,-49.9 308.97,-60.77 318.14,-58.37"/>
<text text-anchor="middle" x="349" y="-109.3" font-family="Times,serif" font-size="14.00">21110</text>
</g>
<!-- Send for Credit Collection&#45;&gt;end_node -->
<g id="edge35" class="edge">
<title>Send for Credit Collection&#45;&gt;end_node</title>
<path fill="none" stroke="#000000" stroke-width="4.59" d="M210.64,-94.63C228.75,-80.74 254.29,-61.14 274.08,-45.95"/>
<polygon fill="#000000" stroke="#000000" stroke-width="4.59" points="276.33,-49.29 281.82,-40.02 271.44,-42.92 276.33,-49.29"/>
<text text-anchor="middle" x="270" y="-65.8" font-family="Times,serif" font-size="14.00">17547</text>
</g>
<!-- Appeal to Judge&#45;&gt;Add penalty -->
<g id="edge15" class="edge">
<title>Appeal to Judge&#45;&gt;Add penalty</title>
<path fill="none" stroke="#ff0000" stroke-width="0.51" stroke-dasharray="5,2" d="M279.46,-392.04C281.9,-402.9 286.68,-416.48 296,-425 309.76,-437.57 327.67,-445.67 345.61,-450.88"/>
<polygon fill="#ff0000" stroke="#ff0000" stroke-width="0.51" points="344.26,-454.14 354.82,-453.29 346.03,-447.37 344.26,-454.14"/>
<text text-anchor="middle" x="303" y="-413.8" font-family="Times,serif" font-size="14.00">38</text>
</g>
<!-- Appeal to Judge&#45;&gt;Payment -->
<g id="edge21" class="edge">
<title>Appeal to Judge&#45;&gt;Payment</title>
<path fill="none" stroke="#ff0000" stroke-width="0.5" stroke-dasharray="5,2" d="M284.4,-355.56C297.14,-325.56 323.28,-263.96 338.44,-228.25"/>
<polygon fill="#ff0000" stroke="#ff0000" stroke-width="0.5" points="341.6,-229.75 342.28,-219.18 335.15,-227.02 341.6,-229.75"/>
<text text-anchor="middle" x="324.5" y="-283.3" font-family="Times,serif" font-size="14.00">3</text>
</g>
<!-- Appeal to Judge&#45;&gt;Send for Credit Collection -->
<g id="edge20" class="edge">
<title>Appeal to Judge&#45;&gt;Send for Credit Collection</title>
<path fill="none" stroke="#ff0000" stroke-width="0.5" stroke-dasharray="5,2" d="M271.02,-355.6C255.85,-311.46 215.78,-194.83 197.42,-141.42"/>
<polygon fill="#ff0000" stroke="#ff0000" stroke-width="0.5" points="200.76,-140.36 194.2,-132.04 194.14,-142.63 200.76,-140.36"/>
<text text-anchor="middle" x="238.5" y="-239.8" font-family="Times,serif" font-size="14.00">2</text>
</g>
<!-- Insert Date Appeal to Prefecture&#45;&gt;Send Fine -->
<g id="edge29" class="edge">
<title>Insert Date Appeal to Prefecture&#45;&gt;Send Fine</title>
<path fill="none" stroke="#ff0000" stroke-width="0.5" stroke-dasharray="5,2" d="M632.88,-392.33C634.66,-397.93 636.54,-404.19 638,-410 655.65,-479.96 669.96,-563.82 676.74,-606.34"/>
<polygon fill="#ff0000" stroke="#ff0000" stroke-width="0.5" points="673.24,-606.63 678.26,-615.96 680.16,-605.54 673.24,-606.63"/>
<text text-anchor="middle" x="663.5" y="-500.8" font-family="Times,serif" font-size="14.00">1</text>
</g>
<!-- Insert Date Appeal to Prefecture&#45;&gt;Insert Fine Notification -->
<g id="edge33" class="edge">
<title>Insert Date Appeal to Prefecture&#45;&gt;Insert Fine Notification</title>
<path fill="none" stroke="#ff0000" stroke-width="0.5" stroke-dasharray="5,2" d="M626.98,-392.22C626.18,-414.05 622.17,-452.08 605,-479 591.38,-500.35 568.89,-515.23 546.03,-525.5"/>
<polygon fill="#ff0000" stroke="#ff0000" stroke-width="0.5" points="544.8,-522.22 536.94,-529.33 547.51,-528.67 544.8,-522.22"/>
<text text-anchor="middle" x="622.5" y="-457.3" font-family="Times,serif" font-size="14.00">1</text>
</g>
<!-- Insert Date Appeal to Prefecture&#45;&gt;Add penalty -->
<g id="edge27" class="edge">
<title>Insert Date Appeal to Prefecture&#45;&gt;Add penalty</title>
<path fill="none" stroke="#ff0000" stroke-width="0.5" stroke-dasharray="5,2" d="M517.58,-390.82C501.05,-395.61 484.64,-401.86 470,-410 458.94,-416.15 448.77,-425.57 440.6,-434.58"/>
<polygon fill="#ff0000" stroke="#ff0000" stroke-width="0.5" points="438.03,-432.19 434.18,-442.06 443.35,-436.75 438.03,-432.19"/>
<text text-anchor="middle" x="473.5" y="-413.8" font-family="Times,serif" font-size="14.00">4</text>
</g>
<!-- Insert Date Appeal to Prefecture&#45;&gt;Payment -->
<g id="edge17" class="edge">
<title>Insert Date Appeal to Prefecture&#45;&gt;Payment</title>
<path fill="none" stroke="#ff0000" stroke-width="0.5" stroke-dasharray="5,2" d="M600.98,-355.72C580.34,-342 550.8,-322.32 525,-305 479.56,-274.49 470.47,-263.24 423,-236 415.29,-231.58 406.93,-227.2 398.72,-223.12"/>
<polygon fill="#ff0000" stroke="#ff0000" stroke-width="0.5" points="400.4,-220.05 389.87,-218.82 397.33,-226.34 400.4,-220.05"/>
<text text-anchor="middle" x="528.5" y="-283.3" font-family="Times,serif" font-size="14.00">4</text>
</g>
<!-- Insert Date Appeal to Prefecture&#45;&gt;Send Appeal to Prefecture -->
<g id="edge23" class="edge">
<title>Insert Date Appeal to Prefecture&#45;&gt;Send Appeal to Prefecture</title>
<path fill="none" stroke="#ff0000" stroke-width="0.5" stroke-dasharray="5,2" d="M627.61,-355.8C628.01,-344.35 628.55,-329.06 629.02,-315.89"/>
<polygon fill="#ff0000" stroke="#ff0000" stroke-width="0.5" points="632.5,-316.34 629.36,-306.22 625.51,-316.09 632.5,-316.34"/>
<text text-anchor="middle" x="631.5" y="-326.8" font-family="Times,serif" font-size="14.00">4</text>
</g>
<!-- Send Appeal to Prefecture&#45;&gt;Send Fine -->
<g id="edge24" class="edge">
<title>Send Appeal to Prefecture&#45;&gt;Send Fine</title>
<path fill="none" stroke="#ff0000" stroke-width="0.5" stroke-dasharray="5,2" d="M706.13,-305.43C730.41,-315.52 753.46,-331.33 763,-356 798.02,-446.58 733.64,-558.58 699.82,-608.23"/>
<polygon fill="#ff0000" stroke="#ff0000" stroke-width="0.5" points="697.16,-605.92 694.33,-616.13 702.91,-609.92 697.16,-605.92"/>
<text text-anchor="middle" x="773.5" y="-457.3" font-family="Times,serif" font-size="14.00">1</text>
</g>
<!-- Send Appeal to Prefecture&#45;&gt;Add penalty -->
<g id="edge31" class="edge">
<title>Send Appeal to Prefecture&#45;&gt;Add penalty</title>
<path fill="none" stroke="#ff0000" stroke-width="0.5" stroke-dasharray="5,2" d="M540.32,-304.84C509.66,-311.28 481.61,-318.22 476,-323 443.35,-350.85 429.88,-400.88 424.47,-432.16"/>
<polygon fill="#ff0000" stroke="#ff0000" stroke-width="0.5" points="421.02,-431.59 422.94,-442.01 427.93,-432.67 421.02,-431.59"/>
<text text-anchor="middle" x="451.5" y="-370.3" font-family="Times,serif" font-size="14.00">1</text>
</g>
<!-- Send Appeal to Prefecture&#45;&gt;Payment -->
<g id="edge28" class="edge">
<title>Send Appeal to Prefecture&#45;&gt;Payment</title>
<path fill="none" stroke="#ff0000" stroke-width="0.5" stroke-dasharray="5,2" d="M600.41,-268.72C580.74,-257.91 554.02,-244.47 529,-236 492.58,-223.67 450.43,-215.16 416.19,-209.63"/>
<polygon fill="#ff0000" stroke="#ff0000" stroke-width="0.5" points="417,-206.21 406.58,-208.12 415.91,-213.13 417,-206.21"/>
<text text-anchor="middle" x="566.5" y="-239.8" font-family="Times,serif" font-size="14.00">2</text>
</g>
<!-- Send Appeal to Prefecture&#45;&gt;end_node -->
<g id="edge36" class="edge">
<title>Send Appeal to Prefecture&#45;&gt;end_node</title>
<path fill="none" stroke="#ff0000" stroke-width="0.5" stroke-dasharray="5,2" d="M611.07,-268.58C600.34,-258.84 586.58,-246.56 574,-236 486.18,-162.27 378.17,-79.29 329.69,-42.43"/>
<polygon fill="#ff0000" stroke="#ff0000" stroke-width="0.5" points="332.03,-39.82 321.95,-36.56 327.8,-45.39 332.03,-39.82"/>
<text text-anchor="middle" x="486.5" y="-152.8" font-family="Times,serif" font-size="14.00">5</text>
</g>
</g>
</svg>
