<?xml version="1.0" encoding="UTF-8" standalone="no"?>
<!DOCTYPE svg PUBLIC "-//W3C//DTD SVG 1.1//EN"
 "http://www.w3.org/Graphics/SVG/1.1/DTD/svg11.dtd">
<!-- Generated by graphviz version 7.0.5 (0)
 -->
<!-- Title: dfg Pages: 1 -->
<svg width="570pt" height="1009pt"
 viewBox="0.00 0.00 569.50 1009.00" xmlns="http://www.w3.org/2000/svg" xmlns:xlink="http://www.w3.org/1999/xlink">
<g id="graph0" class="graph" transform="scale(1 1) rotate(0) translate(4 1005)">
<title>dfg</title>
<polygon fill="white" stroke="none" points="-4,4 -4,-1005 565.5,-1005 565.5,4 -4,4"/>
<!-- start_node -->
<g id="node1" class="node">
<title>start_node</title>
<ellipse fill="none" stroke="black" cx="295.5" cy="-983" rx="18" ry="18"/>
<text text-anchor="start" x="291" y="-979.3" font-family="Times,serif" font-size="14.00">●</text>
</g>
<!-- Create Fine -->
<g id="node2" class="node">
<title>Create Fine</title>
<polygon fill="#9b9bff" stroke="black" points="348.5,-914 242.5,-914 242.5,-878 348.5,-878 348.5,-914"/>
<text text-anchor="middle" x="295.5" y="-892.3" font-family="Times,serif" font-size="14.00">Create Fine (44)</text>
</g>
<!-- start_node&#45;&gt;Create Fine -->
<g id="edge1" class="edge">
<title>start_node&#45;&gt;Create Fine</title>
<path fill="none" stroke="#000000" stroke-width="6" d="M295.5,-964.8C295.5,-954.96 295.5,-942.27 295.5,-930.53"/>
<polygon fill="#000000" stroke="#000000" stroke-width="6" points="300.75,-930.92 295.5,-920.92 290.25,-930.92 300.75,-930.92"/>
<text text-anchor="middle" x="302.5" y="-935.8" font-family="Times,serif" font-size="14.00">44</text>
</g>
<!-- Send Fine -->
<g id="node3" class="node">
<title>Send Fine</title>
<polygon fill="#9b9bff" stroke="black" points="344.5,-827 246.5,-827 246.5,-791 344.5,-791 344.5,-827"/>
<text text-anchor="middle" x="295.5" y="-805.3" font-family="Times,serif" font-size="14.00">Send Fine (44)</text>
</g>
<!-- Create Fine&#45;&gt;Send Fine -->
<g id="edge2" class="edge">
<title>Create Fine&#45;&gt;Send Fine</title>
<path fill="none" stroke="#000000" stroke-width="6" d="M295.5,-877.8C295.5,-867.96 295.5,-855.27 295.5,-843.53"/>
<polygon fill="#000000" stroke="#000000" stroke-width="6" points="300.75,-843.92 295.5,-833.92 290.25,-843.92 300.75,-843.92"/>
<text text-anchor="middle" x="302.5" y="-848.8" font-family="Times,serif" font-size="14.00">44</text>
</g>
<!-- Insert Fine Notification -->
<g id="node4" class="node">
<title>Insert Fine Notification</title>
<polygon fill="#9b9bff" stroke="black" points="380.5,-740 210.5,-740 210.5,-704 380.5,-704 380.5,-740"/>
<text text-anchor="middle" x="295.5" y="-718.3" font-family="Times,serif" font-size="14.00">Insert Fine Notification (44)</text>
</g>
<!-- Send Fine&#45;&gt;Insert Fine Notification -->
<g id="edge3" class="edge">
<title>Send Fine&#45;&gt;Insert Fine Notification</title>
<path fill="none" stroke="#000000" stroke-width="6" d="M295.5,-790.8C295.5,-780.96 295.5,-768.27 295.5,-756.53"/>
<polygon fill="#000000" stroke="#000000" stroke-width="6" points="300.75,-756.92 295.5,-746.92 290.25,-756.92 300.75,-756.92"/>
<text text-anchor="middle" x="302.5" y="-761.8" font-family="Times,serif" font-size="14.00">44</text>
</g>
<!-- Insert Date Appeal to Prefecture -->
<g id="node5" class="node">
<title>Insert Date Appeal to Prefecture</title>
<polygon fill="#9b9bff" stroke="black" points="404.5,-653 186.5,-653 186.5,-617 404.5,-617 404.5,-653"/>
<text text-anchor="middle" x="295.5" y="-631.3" font-family="Times,serif" font-size="14.00">Insert Date Appeal to Prefecture (44)</text>
</g>
<!-- Insert Fine Notification&#45;&gt;Insert Date Appeal to Prefecture -->
<g id="edge4" class="edge">
<title>Insert Fine Notification&#45;&gt;Insert Date Appeal to Prefecture</title>
<path fill="none" stroke="#000000" stroke-width="4.08" d="M295.5,-703.8C295.5,-693.96 295.5,-681.27 295.5,-669.53"/>
<polygon fill="#000000" stroke="#000000" stroke-width="4.08" points="299.07,-669.53 295.5,-659.53 291.93,-669.53 299.07,-669.53"/>
<text text-anchor="middle" x="302.5" y="-674.8" font-family="Times,serif" font-size="14.00">29</text>
</g>
<!-- Add penalty -->
<g id="node7" class="node">
<title>Add penalty</title>
<polygon fill="#9b9bff" stroke="black" points="317.5,-479 207.5,-479 207.5,-443 317.5,-443 317.5,-479"/>
<text text-anchor="middle" x="262.5" y="-457.3" font-family="Times,serif" font-size="14.00">Add penalty (44)</text>
</g>
<!-- Insert Fine Notification&#45;&gt;Add penalty -->
<g id="edge10" class="edge">
<title>Insert Fine Notification&#45;&gt;Add penalty</title>
<path fill="none" stroke="#000000" stroke-width="2.03" d="M240.54,-703.54C216.74,-692.94 191.22,-676.75 177.5,-653 145.16,-597.04 198.95,-526.5 234.68,-488.76"/>
<polygon fill="#000000" stroke="#000000" stroke-width="2.03" points="237.13,-491.26 241.61,-481.66 232.12,-486.37 237.13,-491.26"/>
<text text-anchor="middle" x="180.5" y="-587.8" font-family="Times,serif" font-size="14.00">13</text>
</g>
<!-- Appeal to Judge -->
<g id="node12" class="node">
<title>Appeal to Judge</title>
<polygon fill="#eeeeff" stroke="black" points="540,-218 409,-218 409,-182 540,-182 540,-218"/>
<text text-anchor="middle" x="474.5" y="-196.3" font-family="Times,serif" font-size="14.00">Appeal to Judge (19)</text>
</g>
<!-- Insert Fine Notification&#45;&gt;Appeal to Judge -->
<g id="edge17" class="edge">
<title>Insert Fine Notification&#45;&gt;Appeal to Judge</title>
<path fill="none" stroke="#ff0000" stroke-width="0.63" stroke-dasharray="5,2" d="M380.67,-709.54C456.15,-696.93 554.5,-673.33 554.5,-636 554.5,-636 554.5,-636 554.5,-286 554.5,-260.23 534.76,-239.08 514.88,-224.33"/>
<polygon fill="#ff0000" stroke="#ff0000" stroke-width="0.63" points="517.1,-221.61 506.9,-218.75 513.09,-227.35 517.1,-221.61"/>
<text text-anchor="middle" x="558" y="-457.3" font-family="Times,serif" font-size="14.00">2</text>
</g>
<!-- Send Appeal to Prefecture -->
<g id="node6" class="node">
<title>Send Appeal to Prefecture</title>
<polygon fill="#9e9eff" stroke="black" points="480,-566 295,-566 295,-530 480,-530 480,-566"/>
<text text-anchor="middle" x="387.5" y="-544.3" font-family="Times,serif" font-size="14.00">Send Appeal to Prefecture (43)</text>
</g>
<!-- Insert Date Appeal to Prefecture&#45;&gt;Send Appeal to Prefecture -->
<g id="edge5" class="edge">
<title>Insert Date Appeal to Prefecture&#45;&gt;Send Appeal to Prefecture</title>
<path fill="none" stroke="#000000" stroke-width="3.06" d="M314.12,-616.8C326.75,-605.12 343.72,-589.45 358.16,-576.11"/>
<polygon fill="#000000" stroke="#000000" stroke-width="3.06" points="360.22,-578.97 365.19,-569.61 355.47,-573.82 360.22,-578.97"/>
<text text-anchor="middle" x="353.5" y="-587.8" font-family="Times,serif" font-size="14.00">21</text>
</g>
<!-- Insert Date Appeal to Prefecture&#45;&gt;Add penalty -->
<g id="edge14" class="edge">
<title>Insert Date Appeal to Prefecture&#45;&gt;Add penalty</title>
<path fill="none" stroke="#000000" stroke-width="2.93" d="M278.98,-616.58C267.98,-603.72 254.48,-585.18 248.5,-566 241.04,-542.09 245.63,-513.87 251.48,-492.87"/>
<polygon fill="#000000" stroke="#000000" stroke-width="2.93" points="254.75,-494.14 254.38,-483.55 248.06,-492.06 254.75,-494.14"/>
<text text-anchor="middle" x="255.5" y="-544.3" font-family="Times,serif" font-size="14.00">20</text>
</g>
<!-- Receive Result Appeal from Prefecture -->
<g id="node8" class="node">
<title>Receive Result Appeal from Prefecture</title>
<polygon fill="#9b9bff" stroke="black" points="257,-392 0,-392 0,-356 257,-356 257,-392"/>
<text text-anchor="middle" x="128.5" y="-370.3" font-family="Times,serif" font-size="14.00">Receive Result Appeal from Prefecture (44)</text>
</g>
<!-- Insert Date Appeal to Prefecture&#45;&gt;Receive Result Appeal from Prefecture -->
<g id="edge25" class="edge">
<title>Insert Date Appeal to Prefecture&#45;&gt;Receive Result Appeal from Prefecture</title>
<path fill="none" stroke="#000000" stroke-width="0.76" d="M270.82,-616.6C264.41,-611.38 257.81,-605.35 252.5,-599 199.67,-535.85 158.38,-446.81 139.58,-402.41"/>
<polygon fill="#000000" stroke="#000000" stroke-width="0.76" points="142.91,-401.32 135.83,-393.44 136.45,-404.01 142.91,-401.32"/>
<text text-anchor="middle" x="196" y="-500.8" font-family="Times,serif" font-size="14.00">3</text>
</g>
<!-- Send Appeal to Prefecture&#45;&gt;Add penalty -->
<g id="edge6" class="edge">
<title>Send Appeal to Prefecture&#45;&gt;Add penalty</title>
<path fill="none" stroke="#000000" stroke-width="1.4" d="M361.55,-529.59C353.22,-523.99 343.96,-517.75 335.5,-512 323.09,-503.57 309.52,-494.3 297.49,-486.05"/>
<polygon fill="#000000" stroke="#000000" stroke-width="1.4" points="299.77,-483.37 289.55,-480.6 295.81,-489.14 299.77,-483.37"/>
<text text-anchor="middle" x="339" y="-500.8" font-family="Times,serif" font-size="14.00">8</text>
</g>
<!-- Send Appeal to Prefecture&#45;&gt;Receive Result Appeal from Prefecture -->
<g id="edge12" class="edge">
<title>Send Appeal to Prefecture&#45;&gt;Receive Result Appeal from Prefecture</title>
<path fill="none" stroke="#000000" stroke-width="4.59" d="M381.71,-529.71C373.15,-506.73 355.02,-466.32 326.5,-443 300.81,-421.99 268.26,-407.32 237.01,-397.13"/>
<polygon fill="#000000" stroke="#000000" stroke-width="4.59" points="238.43,-393.36 227.69,-394.28 236.08,-401.05 238.43,-393.36"/>
<text text-anchor="middle" x="363.5" y="-457.3" font-family="Times,serif" font-size="14.00">33</text>
</g>
<!-- Send for Credit Collection -->
<g id="node10" class="node">
<title>Send for Credit Collection</title>
<polygon fill="#e7e7ff" stroke="black" points="398,-131 211,-131 211,-95 398,-95 398,-131"/>
<text text-anchor="middle" x="304.5" y="-109.3" font-family="Times,serif" font-size="14.00">Send for Credit Collection (21)</text>
</g>
<!-- Send Appeal to Prefecture&#45;&gt;Send for Credit Collection -->
<g id="edge27" class="edge">
<title>Send Appeal to Prefecture&#45;&gt;Send for Credit Collection</title>
<path fill="none" stroke="#ff0000" stroke-width="0.63" stroke-dasharray="5,2" d="M395.16,-529.57C413.97,-483.97 457.81,-358.49 413.5,-269 397.67,-237.02 373.19,-246.33 351.5,-218 333.67,-194.72 320.75,-163.6 313.02,-141.48"/>
<polygon fill="#ff0000" stroke="#ff0000" stroke-width="0.63" points="316.35,-140.39 309.85,-132.03 309.71,-142.62 316.35,-140.39"/>
<text text-anchor="middle" x="435" y="-326.8" font-family="Times,serif" font-size="14.00">2</text>
</g>
<!-- Add penalty&#45;&gt;Insert Date Appeal to Prefecture -->
<g id="edge11" class="edge">
<title>Add penalty&#45;&gt;Insert Date Appeal to Prefecture</title>
<path fill="none" stroke="#000000" stroke-width="2.03" d="M262.67,-479.5C263.18,-500.33 265.03,-536.06 271.5,-566 274.32,-579.03 278.94,-592.99 283.38,-604.84"/>
<polygon fill="#000000" stroke="#000000" stroke-width="2.03" points="280.01,-605.84 286.92,-613.87 286.53,-603.29 280.01,-605.84"/>
<text text-anchor="middle" x="278.5" y="-544.3" font-family="Times,serif" font-size="14.00">13</text>
</g>
<!-- Add penalty&#45;&gt;Send Appeal to Prefecture -->
<g id="edge15" class="edge">
<title>Add penalty&#45;&gt;Send Appeal to Prefecture</title>
<path fill="none" stroke="#000000" stroke-width="2.93" d="M270.8,-479.29C276.68,-489.97 285.48,-503.26 296.5,-512 301.86,-516.25 307.78,-520.02 313.97,-523.37"/>
<polygon fill="#000000" stroke="#000000" stroke-width="2.93" points="312.43,-526.51 322.95,-527.73 315.48,-520.22 312.43,-526.51"/>
<text text-anchor="middle" x="303.5" y="-500.8" font-family="Times,serif" font-size="14.00">20</text>
</g>
<!-- Add penalty&#45;&gt;Receive Result Appeal from Prefecture -->
<g id="edge7" class="edge">
<title>Add penalty&#45;&gt;Receive Result Appeal from Prefecture</title>
<path fill="none" stroke="#000000" stroke-width="1.4" d="M238.55,-442.53C224.72,-432.66 206.87,-420.27 190.5,-410 184.25,-406.08 177.54,-402.08 170.93,-398.25"/>
<polygon fill="#000000" stroke="#000000" stroke-width="1.4" points="172.95,-395.38 162.53,-393.47 169.48,-401.46 172.95,-395.38"/>
<text text-anchor="middle" x="217" y="-413.8" font-family="Times,serif" font-size="14.00">8</text>
</g>
<!-- Notify Result Appeal to Offender -->
<g id="node9" class="node">
<title>Notify Result Appeal to Offender</title>
<polygon fill="#9e9eff" stroke="black" points="404,-305 179,-305 179,-269 404,-269 404,-305"/>
<text text-anchor="middle" x="291.5" y="-283.3" font-family="Times,serif" font-size="14.00">Notify Result Appeal to Offender (43)</text>
</g>
<!-- Add penalty&#45;&gt;Notify Result Appeal to Offender -->
<g id="edge20" class="edge">
<title>Add penalty&#45;&gt;Notify Result Appeal to Offender</title>
<path fill="none" stroke="#ff0000" stroke-width="0.63" stroke-dasharray="5,2" d="M290.02,-442.79C295.81,-437.8 301.16,-431.82 304.5,-425 324.44,-384.27 317.15,-367.31 307.5,-323 306.95,-320.47 306.2,-317.9 305.32,-315.36"/>
<polygon fill="#ff0000" stroke="#ff0000" stroke-width="0.63" points="308.58,-314.09 301.54,-306.17 302.11,-316.75 308.58,-314.09"/>
<text text-anchor="middle" x="320" y="-370.3" font-family="Times,serif" font-size="14.00">2</text>
</g>
<!-- Add penalty&#45;&gt;Appeal to Judge -->
<g id="edge24" class="edge">
<title>Add penalty&#45;&gt;Appeal to Judge</title>
<path fill="none" stroke="#ff0000" stroke-width="0.5" stroke-dasharray="5,2" d="M296.79,-442.64C305.31,-437.55 314.11,-431.56 321.5,-425 387.64,-366.28 439.08,-273.17 461.79,-227.72"/>
<polygon fill="#ff0000" stroke="#ff0000" stroke-width="0.5" points="464.84,-229.46 466.11,-218.94 458.55,-226.37 464.84,-229.46"/>
<text text-anchor="middle" x="408" y="-326.8" font-family="Times,serif" font-size="14.00">1</text>
</g>
<!-- Receive Result Appeal from Prefecture&#45;&gt;Add penalty -->
<g id="edge19" class="edge">
<title>Receive Result Appeal from Prefecture&#45;&gt;Add penalty</title>
<path fill="none" stroke="#ff0000" stroke-width="0.63" stroke-dasharray="5,2" d="M144.3,-392.33C154.47,-402.76 168.39,-415.76 182.5,-425 189.71,-429.72 197.67,-434.07 205.68,-437.99"/>
<polygon fill="#ff0000" stroke="#ff0000" stroke-width="0.63" points="204.04,-441.08 214.58,-442.14 207,-434.74 204.04,-441.08"/>
<text text-anchor="middle" x="186" y="-413.8" font-family="Times,serif" font-size="14.00">2</text>
</g>
<!-- Receive Result Appeal from Prefecture&#45;&gt;Notify Result Appeal to Offender -->
<g id="edge8" class="edge">
<title>Receive Result Appeal from Prefecture&#45;&gt;Notify Result Appeal to Offender</title>
<path fill="none" stroke="#000000" stroke-width="5.62" d="M161.88,-355.59C185.5,-343.27 217.53,-326.57 243.84,-312.85"/>
<polygon fill="#000000" stroke="#000000" stroke-width="5.62" points="245.93,-317.31 252.52,-308.33 241.38,-308.59 245.93,-317.31"/>
<text text-anchor="middle" x="227.5" y="-326.8" font-family="Times,serif" font-size="14.00">41</text>
</g>
<!-- end_node -->
<g id="node13" class="node">
<title>end_node</title>
<ellipse fill="none" stroke="black" cx="304.5" cy="-22" rx="18" ry="18"/>
<ellipse fill="none" stroke="black" cx="304.5" cy="-22" rx="22" ry="22"/>
<text text-anchor="start" x="300" y="-18.3" font-family="Times,serif" font-size="14.00">■</text>
</g>
<!-- Receive Result Appeal from Prefecture&#45;&gt;end_node -->
<g id="edge32" class="edge">
<title>Receive Result Appeal from Prefecture&#45;&gt;end_node</title>
<path fill="none" stroke="#ff0000" stroke-width="0.5" stroke-dasharray="5,2" d="M132.76,-355.54C136.55,-338.44 141.5,-311.59 141.5,-288 141.5,-288 141.5,-288 141.5,-112 141.5,-53.07 224.58,-32.92 272.11,-26.22"/>
<polygon fill="#ff0000" stroke="#ff0000" stroke-width="0.5" points="272.29,-29.72 281.77,-24.98 271.4,-22.78 272.29,-29.72"/>
<text text-anchor="middle" x="145" y="-196.3" font-family="Times,serif" font-size="14.00">1</text>
</g>
<!-- Notify Result Appeal to Offender&#45;&gt;Send Appeal to Prefecture -->
<g id="edge26" class="edge">
<title>Notify Result Appeal to Offender&#45;&gt;Send Appeal to Prefecture</title>
<path fill="none" stroke="#ff0000" stroke-width="0.63" stroke-dasharray="5,2" d="M308.75,-305.29C313.58,-310.68 318.58,-316.84 322.5,-323 366.59,-392.25 374.55,-415.51 384.5,-497 385.37,-504.14 385.99,-511.88 386.44,-519.09"/>
<polygon fill="#ff0000" stroke="#ff0000" stroke-width="0.63" points="382.93,-519.07 386.94,-528.88 389.92,-518.71 382.93,-519.07"/>
<text text-anchor="middle" x="375" y="-413.8" font-family="Times,serif" font-size="14.00">2</text>
</g>
<!-- Notify Result Appeal to Offender&#45;&gt;Add penalty -->
<g id="edge23" class="edge">
<title>Notify Result Appeal to Offender&#45;&gt;Add penalty</title>
<path fill="none" stroke="#ff0000" stroke-width="0.5" stroke-dasharray="5,2" d="M288.55,-305.48C283.51,-335.39 273.19,-396.6 267.16,-432.35"/>
<polygon fill="#ff0000" stroke="#ff0000" stroke-width="0.5" points="263.78,-431.37 265.57,-441.81 270.68,-432.54 263.78,-431.37"/>
<text text-anchor="middle" x="284" y="-370.3" font-family="Times,serif" font-size="14.00">1</text>
</g>
<!-- Notify Result Appeal to Offender&#45;&gt;Send for Credit Collection -->
<g id="edge9" class="edge">
<title>Notify Result Appeal to Offender&#45;&gt;Send for Credit Collection</title>
<path fill="none" stroke="#000000" stroke-width="2.42" d="M292.82,-268.56C295.01,-239.59 299.42,-181.15 302.16,-145.01"/>
<polygon fill="#000000" stroke="#000000" stroke-width="2.42" points="305.64,-145.37 302.9,-135.14 298.66,-144.84 305.64,-145.37"/>
<text text-anchor="middle" x="305.5" y="-196.3" font-family="Times,serif" font-size="14.00">16</text>
</g>
<!-- Payment -->
<g id="node11" class="node">
<title>Payment</title>
<polygon fill="#ffffff" stroke="black" points="507,-131 416,-131 416,-95 507,-95 507,-131"/>
<text text-anchor="middle" x="461.5" y="-109.3" font-family="Times,serif" font-size="14.00">Payment (14)</text>
</g>
<!-- Notify Result Appeal to Offender&#45;&gt;Payment -->
<g id="edge13" class="edge">
<title>Notify Result Appeal to Offender&#45;&gt;Payment</title>
<path fill="none" stroke="#000000" stroke-width="1.27" d="M301.67,-268.56C318.67,-240.58 355.18,-185.11 397.5,-149 402.38,-144.84 407.83,-140.95 413.44,-137.4"/>
<polygon fill="#000000" stroke="#000000" stroke-width="1.27" points="415.14,-140.46 421.96,-132.35 411.57,-134.44 415.14,-140.46"/>
<text text-anchor="middle" x="367" y="-196.3" font-family="Times,serif" font-size="14.00">7</text>
</g>
<!-- Notify Result Appeal to Offender&#45;&gt;Appeal to Judge -->
<g id="edge16" class="edge">
<title>Notify Result Appeal to Offender&#45;&gt;Appeal to Judge</title>
<path fill="none" stroke="#000000" stroke-width="2.42" d="M353.37,-268.54C368.12,-263.57 383.61,-257.67 397.5,-251 412.02,-244.03 427.08,-234.77 439.99,-226.12"/>
<polygon fill="#000000" stroke="#000000" stroke-width="2.42" points="441.89,-229.05 448.14,-220.5 437.92,-223.29 441.89,-229.05"/>
<text text-anchor="middle" x="430.5" y="-239.8" font-family="Times,serif" font-size="14.00">16</text>
</g>
<!-- Notify Result Appeal to Offender&#45;&gt;end_node -->
<g id="edge31" class="edge">
<title>Notify Result Appeal to Offender&#45;&gt;end_node</title>
<path fill="none" stroke="#ff0000" stroke-width="0.5" stroke-dasharray="5,2" d="M272.17,-268.65C236.91,-234.84 168.72,-157.9 201.5,-95 216.74,-65.75 249.9,-45.94 274.5,-34.62"/>
<polygon fill="#ff0000" stroke="#ff0000" stroke-width="0.5" points="275.65,-37.93 283.42,-30.72 272.85,-31.52 275.65,-37.93"/>
<text text-anchor="middle" x="202" y="-152.8" font-family="Times,serif" font-size="14.00">1</text>
</g>
<!-- Send for Credit Collection&#45;&gt;end_node -->
<g id="edge28" class="edge">
<title>Send for Credit Collection&#45;&gt;end_node</title>
<path fill="none" stroke="#000000" stroke-width="3.06" d="M304.5,-94.84C304.5,-84.57 304.5,-71.13 304.5,-58.65"/>
<polygon fill="#000000" stroke="#000000" stroke-width="3.06" points="308,-58.82 304.5,-48.82 301,-58.82 308,-58.82"/>
<text text-anchor="middle" x="311.5" y="-65.8" font-family="Times,serif" font-size="14.00">21</text>
</g>
<!-- Payment&#45;&gt;end_node -->
<g id="edge29" class="edge">
<title>Payment&#45;&gt;end_node</title>
<path fill="none" stroke="#000000" stroke-width="2.16" d="M430.86,-94.63C403.03,-78.85 362.22,-55.72 334.57,-40.05"/>
<polygon fill="#000000" stroke="#000000" stroke-width="2.16" points="336.52,-37.13 326.09,-35.24 333.07,-43.22 336.52,-37.13"/>
<text text-anchor="middle" x="403.5" y="-65.8" font-family="Times,serif" font-size="14.00">14</text>
</g>
<!-- Appeal to Judge&#45;&gt;Insert Date Appeal to Prefecture -->
<g id="edge18" class="edge">
<title>Appeal to Judge&#45;&gt;Insert Date Appeal to Prefecture</title>
<path fill="none" stroke="#ff0000" stroke-width="0.63" stroke-dasharray="5,2" d="M486.01,-218.43C495.87,-235.07 508.5,-261.21 508.5,-286 508.5,-549 508.5,-549 508.5,-549 508.5,-576.36 447.1,-598.84 390.23,-613.8"/>
<polygon fill="#ff0000" stroke="#ff0000" stroke-width="0.63" points="389.42,-610.4 380.6,-616.27 391.16,-617.18 389.42,-610.4"/>
<text text-anchor="middle" x="512" y="-413.8" font-family="Times,serif" font-size="14.00">2</text>
</g>
<!-- Appeal to Judge&#45;&gt;Send for Credit Collection -->
<g id="edge22" class="edge">
<title>Appeal to Judge&#45;&gt;Send for Credit Collection</title>
<path fill="none" stroke="#000000" stroke-width="0.76" d="M439.69,-181.59C413.45,-168.47 377.26,-150.38 348.93,-136.21"/>
<polygon fill="#000000" stroke="#000000" stroke-width="0.76" points="350.8,-133.24 340.29,-131.89 347.67,-139.5 350.8,-133.24"/>
<text text-anchor="middle" x="403" y="-152.8" font-family="Times,serif" font-size="14.00">3</text>
</g>
<!-- Appeal to Judge&#45;&gt;Payment -->
<g id="edge21" class="edge">
<title>Appeal to Judge&#45;&gt;Payment</title>
<path fill="none" stroke="#000000" stroke-width="1.27" d="M471.87,-181.8C470.17,-170.7 467.92,-155.97 465.95,-143.08"/>
<polygon fill="#000000" stroke="#000000" stroke-width="1.27" points="469.43,-142.72 464.46,-133.36 462.51,-143.78 469.43,-142.72"/>
<text text-anchor="middle" x="472" y="-152.8" font-family="Times,serif" font-size="14.00">7</text>
</g>
<!-- Appeal to Judge&#45;&gt;end_node -->
<g id="edge30" class="edge">
<title>Appeal to Judge&#45;&gt;end_node</title>
<path fill="none" stroke="#000000" stroke-width="1.27" d="M491.4,-181.55C510.34,-159.81 536.01,-122.23 516.5,-95 475.68,-38.03 387.2,-25.59 338.44,-23.22"/>
<polygon fill="#000000" stroke="#000000" stroke-width="1.27" points="338.7,-19.73 328.58,-22.87 338.45,-26.72 338.7,-19.73"/>
<text text-anchor="middle" x="526" y="-109.3" font-family="Times,serif" font-size="14.00">7</text>
</g>
</g>
</svg>
