<?xml version="1.0" encoding="UTF-8" standalone="no"?>
<!DOCTYPE svg PUBLIC "-//W3C//DTD SVG 1.1//EN"
 "http://www.w3.org/Graphics/SVG/1.1/DTD/svg11.dtd">
<!-- Generated by graphviz version 7.0.5 (0)
 -->
<!-- Title: dfg Pages: 1 -->
<svg width="656pt" height="943pt"
 viewBox="0.00 0.00 655.50 943.00" xmlns="http://www.w3.org/2000/svg" xmlns:xlink="http://www.w3.org/1999/xlink">
<g id="graph0" class="graph" transform="scale(1 1) rotate(0) translate(4 939)">
<title>dfg</title>
<polygon fill="white" stroke="none" points="-4,4 -4,-939 651.5,-939 651.5,4 -4,4"/>
<!-- start_node -->
<g id="node1" class="node">
<title>start_node</title>
<ellipse fill="none" stroke="black" cx="128.5" cy="-917" rx="18" ry="18"/>
<text text-anchor="start" x="124" y="-913.3" font-family="Times,serif" font-size="14.00">●</text>
</g>
<!-- Create Fine -->
<g id="node2" class="node">
<title>Create Fine</title>
<polygon fill="#9b9bff" stroke="black" points="185,-848 72,-848 72,-812 185,-812 185,-848"/>
<text text-anchor="middle" x="128.5" y="-826.3" font-family="Times,serif" font-size="14.00">Create Fine (288)</text>
</g>
<!-- start_node&#45;&gt;Create Fine -->
<g id="edge1" class="edge">
<title>start_node&#45;&gt;Create Fine</title>
<path fill="none" stroke="#000000" stroke-width="6" d="M128.5,-898.8C128.5,-888.96 128.5,-876.27 128.5,-864.53"/>
<polygon fill="#000000" stroke="#000000" stroke-width="6" points="133.75,-864.92 128.5,-854.92 123.25,-864.92 133.75,-864.92"/>
<text text-anchor="middle" x="139" y="-869.8" font-family="Times,serif" font-size="14.00">288</text>
</g>
<!-- Send Fine -->
<g id="node3" class="node">
<title>Send Fine</title>
<polygon fill="#9b9bff" stroke="black" points="180.5,-761 76.5,-761 76.5,-725 180.5,-725 180.5,-761"/>
<text text-anchor="middle" x="128.5" y="-739.3" font-family="Times,serif" font-size="14.00">Send Fine (288)</text>
</g>
<!-- Create Fine&#45;&gt;Send Fine -->
<g id="edge2" class="edge">
<title>Create Fine&#45;&gt;Send Fine</title>
<path fill="none" stroke="#000000" stroke-width="6" d="M128.5,-811.8C128.5,-801.96 128.5,-789.27 128.5,-777.53"/>
<polygon fill="#000000" stroke="#000000" stroke-width="6" points="133.75,-777.92 128.5,-767.92 123.25,-777.92 133.75,-777.92"/>
<text text-anchor="middle" x="139" y="-782.8" font-family="Times,serif" font-size="14.00">288</text>
</g>
<!-- Insert Fine Notification -->
<g id="node4" class="node">
<title>Insert Fine Notification</title>
<polygon fill="#9d9dff" stroke="black" points="315,-674 138,-674 138,-638 315,-638 315,-674"/>
<text text-anchor="middle" x="226.5" y="-652.3" font-family="Times,serif" font-size="14.00">Insert Fine Notification (282)</text>
</g>
<!-- Send Fine&#45;&gt;Insert Fine Notification -->
<g id="edge3" class="edge">
<title>Send Fine&#45;&gt;Insert Fine Notification</title>
<path fill="none" stroke="#000000" stroke-width="5.89" d="M148.33,-724.8C161.53,-713.35 179.16,-698.06 194.34,-684.89"/>
<polygon fill="#000000" stroke="#000000" stroke-width="5.89" points="197.33,-689.12 201.51,-678.68 190.58,-681.34 197.33,-689.12"/>
<text text-anchor="middle" x="194" y="-695.8" font-family="Times,serif" font-size="14.00">282</text>
</g>
<!-- Insert Date Appeal to Prefecture -->
<g id="node5" class="node">
<title>Insert Date Appeal to Prefecture</title>
<polygon fill="#9b9bff" stroke="black" points="225,-587 0,-587 0,-551 225,-551 225,-587"/>
<text text-anchor="middle" x="112.5" y="-565.3" font-family="Times,serif" font-size="14.00">Insert Date Appeal to Prefecture (288)</text>
</g>
<!-- Send Fine&#45;&gt;Insert Date Appeal to Prefecture -->
<g id="edge10" class="edge">
<title>Send Fine&#45;&gt;Insert Date Appeal to Prefecture</title>
<path fill="none" stroke="#ff0000" stroke-width="0.6" stroke-dasharray="5,2" d="M126.64,-724.68C125.18,-710.94 123.13,-691.25 121.5,-674 119.06,-648.27 116.55,-618.94 114.8,-598"/>
<polygon fill="#ff0000" stroke="#ff0000" stroke-width="0.6" points="118.3,-597.88 113.99,-588.2 111.33,-598.46 118.3,-597.88"/>
<text text-anchor="middle" x="125" y="-652.3" font-family="Times,serif" font-size="14.00">6</text>
</g>
<!-- Insert Fine Notification&#45;&gt;Insert Date Appeal to Prefecture -->
<g id="edge4" class="edge">
<title>Insert Fine Notification&#45;&gt;Insert Date Appeal to Prefecture</title>
<path fill="none" stroke="#000000" stroke-width="5.31" d="M203.16,-637.59C187.48,-625.91 166.51,-610.27 148.69,-596.98"/>
<polygon fill="#000000" stroke="#000000" stroke-width="5.31" points="151.66,-593.4 140.86,-591.15 146.1,-600.85 151.66,-593.4"/>
<text text-anchor="middle" x="187" y="-608.8" font-family="Times,serif" font-size="14.00">252</text>
</g>
<!-- Add penalty -->
<g id="node6" class="node">
<title>Add penalty</title>
<polygon fill="#9d9dff" stroke="black" points="241.5,-500 125.5,-500 125.5,-464 241.5,-464 241.5,-500"/>
<text text-anchor="middle" x="183.5" y="-478.3" font-family="Times,serif" font-size="14.00">Add penalty (282)</text>
</g>
<!-- Insert Fine Notification&#45;&gt;Add penalty -->
<g id="edge7" class="edge">
<title>Insert Fine Notification&#45;&gt;Add penalty</title>
<path fill="none" stroke="#000000" stroke-width="1.06" d="M231.9,-637.56C237.51,-616.48 244.24,-580.21 234.5,-551 229.33,-535.49 219.09,-520.67 209.13,-508.85"/>
<polygon fill="#000000" stroke="#000000" stroke-width="1.06" points="211.97,-506.78 202.72,-501.63 206.74,-511.43 211.97,-506.78"/>
<text text-anchor="middle" x="245.5" y="-565.3" font-family="Times,serif" font-size="14.00">30</text>
</g>
<!-- Insert Date Appeal to Prefecture&#45;&gt;Add penalty -->
<g id="edge5" class="edge">
<title>Insert Date Appeal to Prefecture&#45;&gt;Add penalty</title>
<path fill="none" stroke="#000000" stroke-width="5.25" d="M114.54,-550.87C116.48,-540.51 120.24,-527.51 127.5,-518 129.54,-515.33 131.84,-512.81 134.33,-510.45"/>
<polygon fill="#000000" stroke="#000000" stroke-width="5.25" points="136.99,-514.2 141.99,-504.39 131.29,-506.99 136.99,-514.2"/>
<text text-anchor="middle" x="138" y="-521.8" font-family="Times,serif" font-size="14.00">249</text>
</g>
<!-- Send Appeal to Prefecture -->
<g id="node7" class="node">
<title>Send Appeal to Prefecture</title>
<polygon fill="#9b9bff" stroke="black" points="301.5,-131 109.5,-131 109.5,-95 301.5,-95 301.5,-131"/>
<text text-anchor="middle" x="205.5" y="-109.3" font-family="Times,serif" font-size="14.00">Send Appeal to Prefecture (288)</text>
</g>
<!-- Insert Date Appeal to Prefecture&#45;&gt;Send Appeal to Prefecture -->
<g id="edge9" class="edge">
<title>Insert Date Appeal to Prefecture&#45;&gt;Send Appeal to Prefecture</title>
<path fill="none" stroke="#000000" stroke-width="1.23" d="M102.84,-550.68C94.41,-533.9 83.5,-507.48 83.5,-483 83.5,-483 83.5,-483 83.5,-220 83.5,-181.77 118.06,-154.21 150.39,-136.79"/>
<polygon fill="#000000" stroke="#000000" stroke-width="1.23" points="151.8,-140 159.11,-132.33 148.61,-133.77 151.8,-140"/>
<text text-anchor="middle" x="90.5" y="-347.8" font-family="Times,serif" font-size="14.00">39</text>
</g>
<!-- Add penalty&#45;&gt;Insert Date Appeal to Prefecture -->
<g id="edge8" class="edge">
<title>Add penalty&#45;&gt;Insert Date Appeal to Prefecture</title>
<path fill="none" stroke="#000000" stroke-width="1.06" d="M172.59,-500.25C166.04,-510.17 157.29,-522.67 148.5,-533 145.74,-536.24 142.72,-539.53 139.64,-542.71"/>
<polygon fill="#000000" stroke="#000000" stroke-width="1.06" points="137.24,-540.17 132.63,-549.7 142.18,-545.12 137.24,-540.17"/>
<text text-anchor="middle" x="167.5" y="-521.8" font-family="Times,serif" font-size="14.00">30</text>
</g>
<!-- Add penalty&#45;&gt;Send Appeal to Prefecture -->
<g id="edge6" class="edge">
<title>Add penalty&#45;&gt;Send Appeal to Prefecture</title>
<path fill="none" stroke="#000000" stroke-width="5.23" d="M164.31,-463.78C148.79,-447.89 129.5,-422.75 129.5,-396 129.5,-396 129.5,-396 129.5,-220 129.5,-189.29 150.83,-161.37 170.89,-141.9"/>
<polygon fill="#000000" stroke="#000000" stroke-width="5.23" points="173.71,-145.52 178.04,-135.41 167.56,-138.74 173.71,-145.52"/>
<text text-anchor="middle" x="140" y="-304.3" font-family="Times,serif" font-size="14.00">248</text>
</g>
<!-- Receive Result Appeal from Prefecture -->
<g id="node8" class="node">
<title>Receive Result Appeal from Prefecture</title>
<polygon fill="#fcfcff" stroke="black" points="472,-413 215,-413 215,-377 472,-377 472,-413"/>
<text text-anchor="middle" x="343.5" y="-391.3" font-family="Times,serif" font-size="14.00">Receive Result Appeal from Prefecture (11)</text>
</g>
<!-- Add penalty&#45;&gt;Receive Result Appeal from Prefecture -->
<g id="edge15" class="edge">
<title>Add penalty&#45;&gt;Receive Result Appeal from Prefecture</title>
<path fill="none" stroke="#ff0000" stroke-width="0.56" stroke-dasharray="5,2" d="M216.26,-463.59C240.86,-450.53 274.72,-432.54 301.33,-418.4"/>
<polygon fill="#ff0000" stroke="#ff0000" stroke-width="0.56" points="302.85,-421.56 310.03,-413.78 299.56,-415.38 302.85,-421.56"/>
<text text-anchor="middle" x="276" y="-434.8" font-family="Times,serif" font-size="14.00">4</text>
</g>
<!-- Send Appeal to Prefecture&#45;&gt;Add penalty -->
<g id="edge14" class="edge">
<title>Send Appeal to Prefecture&#45;&gt;Add penalty</title>
<path fill="none" stroke="#ff0000" stroke-width="0.54" stroke-dasharray="5,2" d="M200.41,-131.46C194.78,-152.33 186.5,-188.4 186.5,-220 186.5,-396 186.5,-396 186.5,-396 186.5,-415.08 185.74,-436.55 184.98,-453.13"/>
<polygon fill="#ff0000" stroke="#ff0000" stroke-width="0.54" points="181.49,-452.78 184.51,-462.94 188.48,-453.12 181.49,-452.78"/>
<text text-anchor="middle" x="190" y="-304.3" font-family="Times,serif" font-size="14.00">3</text>
</g>
<!-- Send Appeal to Prefecture&#45;&gt;Receive Result Appeal from Prefecture -->
<g id="edge11" class="edge">
<title>Send Appeal to Prefecture&#45;&gt;Receive Result Appeal from Prefecture</title>
<path fill="none" stroke="#ff0000" stroke-width="0.61" stroke-dasharray="5,2" d="M209.01,-131.35C218.3,-173.85 246.75,-285.04 303.5,-359 306.22,-362.54 309.34,-365.99 312.61,-369.27"/>
<polygon fill="#ff0000" stroke="#ff0000" stroke-width="0.61" points="310.02,-371.64 319.72,-375.89 314.79,-366.51 310.02,-371.64"/>
<text text-anchor="middle" x="256" y="-260.8" font-family="Times,serif" font-size="14.00">7</text>
</g>
<!-- end_node -->
<g id="node12" class="node">
<title>end_node</title>
<ellipse fill="none" stroke="black" cx="429.5" cy="-22" rx="18" ry="18"/>
<ellipse fill="none" stroke="black" cx="429.5" cy="-22" rx="22" ry="22"/>
<text text-anchor="start" x="425" y="-18.3" font-family="Times,serif" font-size="14.00">■</text>
</g>
<!-- Send Appeal to Prefecture&#45;&gt;end_node -->
<g id="edge19" class="edge">
<title>Send Appeal to Prefecture&#45;&gt;end_node</title>
<path fill="none" stroke="#000000" stroke-width="5.81" d="M249.49,-94.52C291.74,-77.73 354.78,-52.69 393.95,-37.13"/>
<polygon fill="#000000" stroke="#000000" stroke-width="5.81" points="395.77,-41.87 403.19,-33.45 392.02,-32.42 395.77,-41.87"/>
<text text-anchor="middle" x="341" y="-65.8" font-family="Times,serif" font-size="14.00">278</text>
</g>
<!-- Notify Result Appeal to Offender -->
<g id="node9" class="node">
<title>Notify Result Appeal to Offender</title>
<polygon fill="#fcfcff" stroke="black" points="541,-326 316,-326 316,-290 541,-290 541,-326"/>
<text text-anchor="middle" x="428.5" y="-304.3" font-family="Times,serif" font-size="14.00">Notify Result Appeal to Offender (10)</text>
</g>
<!-- Receive Result Appeal from Prefecture&#45;&gt;Notify Result Appeal to Offender -->
<g id="edge12" class="edge">
<title>Receive Result Appeal from Prefecture&#45;&gt;Notify Result Appeal to Offender</title>
<path fill="none" stroke="#ff0000" stroke-width="0.67" stroke-dasharray="5,2" d="M360.7,-376.8C372.95,-364.55 389.6,-347.9 403.34,-334.16"/>
<polygon fill="#ff0000" stroke="#ff0000" stroke-width="0.67" points="405.72,-336.73 410.31,-327.19 400.77,-331.78 405.72,-336.73"/>
<text text-anchor="middle" x="397.5" y="-347.8" font-family="Times,serif" font-size="14.00">10</text>
</g>
<!-- Appeal to Judge -->
<g id="node10" class="node">
<title>Appeal to Judge</title>
<polygon fill="#fdfdff" stroke="black" points="378,-239 253,-239 253,-203 378,-203 378,-239"/>
<text text-anchor="middle" x="315.5" y="-217.3" font-family="Times,serif" font-size="14.00">Appeal to Judge (6)</text>
</g>
<!-- Receive Result Appeal from Prefecture&#45;&gt;Appeal to Judge -->
<g id="edge17" class="edge">
<title>Receive Result Appeal from Prefecture&#45;&gt;Appeal to Judge</title>
<path fill="none" stroke="#ff0000" stroke-width="0.5" stroke-dasharray="5,2" d="M328.58,-376.61C318.47,-363.62 305.98,-344.92 300.5,-326 293.12,-300.52 298.96,-270.42 305.39,-249.18"/>
<polygon fill="#ff0000" stroke="#ff0000" stroke-width="0.5" points="308.63,-250.55 308.4,-239.96 301.97,-248.38 308.63,-250.55"/>
<text text-anchor="middle" x="304" y="-304.3" font-family="Times,serif" font-size="14.00">1</text>
</g>
<!-- Notify Result Appeal to Offender&#45;&gt;Appeal to Judge -->
<g id="edge13" class="edge">
<title>Notify Result Appeal to Offender&#45;&gt;Appeal to Judge</title>
<path fill="none" stroke="#ff0000" stroke-width="0.58" stroke-dasharray="5,2" d="M405.36,-289.59C388.6,-276.99 365.74,-259.79 347.28,-245.9"/>
<polygon fill="#ff0000" stroke="#ff0000" stroke-width="0.58" points="349.4,-243.12 339.31,-239.91 345.19,-248.72 349.4,-243.12"/>
<text text-anchor="middle" x="382" y="-260.8" font-family="Times,serif" font-size="14.00">5</text>
</g>
<!-- Send for Credit Collection -->
<g id="node11" class="node">
<title>Send for Credit Collection</title>
<polygon fill="#ffffff" stroke="black" points="647.5,-185 467.5,-185 467.5,-149 647.5,-149 647.5,-185"/>
<text text-anchor="middle" x="557.5" y="-163.3" font-family="Times,serif" font-size="14.00">Send for Credit Collection (3)</text>
</g>
<!-- Notify Result Appeal to Offender&#45;&gt;Send for Credit Collection -->
<g id="edge16" class="edge">
<title>Notify Result Appeal to Offender&#45;&gt;Send for Credit Collection</title>
<path fill="none" stroke="#ff0000" stroke-width="0.54" stroke-dasharray="5,2" d="M444.58,-289.68C467.2,-265.3 508.55,-220.75 534.44,-192.85"/>
<polygon fill="#ff0000" stroke="#ff0000" stroke-width="0.54" points="536.83,-195.41 541.07,-185.7 531.7,-190.65 536.83,-195.41"/>
<text text-anchor="middle" x="477" y="-260.8" font-family="Times,serif" font-size="14.00">3</text>
</g>
<!-- Notify Result Appeal to Offender&#45;&gt;end_node -->
<g id="edge22" class="edge">
<title>Notify Result Appeal to Offender&#45;&gt;end_node</title>
<path fill="none" stroke="#ff0000" stroke-width="0.52" stroke-dasharray="5,2" d="M428.56,-289.66C428.72,-243.16 429.18,-115.14 429.39,-55"/>
<polygon fill="#ff0000" stroke="#ff0000" stroke-width="0.52" points="432.89,-55.06 429.42,-45.04 425.89,-55.03 432.89,-55.06"/>
<text text-anchor="middle" x="432" y="-163.3" font-family="Times,serif" font-size="14.00">2</text>
</g>
<!-- Appeal to Judge&#45;&gt;Send Appeal to Prefecture -->
<g id="edge18" class="edge">
<title>Appeal to Judge&#45;&gt;Send Appeal to Prefecture</title>
<path fill="none" stroke="#ff0000" stroke-width="0.5" stroke-dasharray="5,2" d="M297.83,-202.97C279.81,-185.61 251.68,-158.5 231.2,-138.77"/>
<polygon fill="#ff0000" stroke="#ff0000" stroke-width="0.5" points="233.67,-136.28 224.04,-131.87 228.81,-141.32 233.67,-136.28"/>
<text text-anchor="middle" x="280" y="-163.3" font-family="Times,serif" font-size="14.00">1</text>
</g>
<!-- Appeal to Judge&#45;&gt;end_node -->
<g id="edge20" class="edge">
<title>Appeal to Judge&#45;&gt;end_node</title>
<path fill="none" stroke="#ff0000" stroke-width="0.58" stroke-dasharray="5,2" d="M378.49,-210.79C393.44,-205.6 407.84,-197.53 417.5,-185 446.46,-147.46 442.56,-89.37 436.47,-53.9"/>
<polygon fill="#ff0000" stroke="#ff0000" stroke-width="0.58" points="439.99,-53.7 434.7,-44.52 433.11,-55 439.99,-53.7"/>
<text text-anchor="middle" x="444" y="-109.3" font-family="Times,serif" font-size="14.00">5</text>
</g>
<!-- Send for Credit Collection&#45;&gt;end_node -->
<g id="edge21" class="edge">
<title>Send for Credit Collection&#45;&gt;end_node</title>
<path fill="none" stroke="#ff0000" stroke-width="0.54" stroke-dasharray="5,2" d="M542.58,-148.51C524.72,-127.69 493.81,-91.97 466.5,-62 461.8,-56.84 456.68,-51.36 451.8,-46.2"/>
<polygon fill="#ff0000" stroke="#ff0000" stroke-width="0.54" points="454.4,-43.85 444.97,-39.02 449.33,-48.68 454.4,-43.85"/>
<text text-anchor="middle" x="529" y="-109.3" font-family="Times,serif" font-size="14.00">3</text>
</g>
</g>
</svg>
