<?xml version="1.0" encoding="UTF-8" standalone="no"?>
<!DOCTYPE svg PUBLIC "-//W3C//DTD SVG 1.1//EN"
 "http://www.w3.org/Graphics/SVG/1.1/DTD/svg11.dtd">
<!-- Generated by graphviz version 7.0.5 (0)
 -->
<!-- Title: dfg Pages: 1 -->
<svg width="581pt" height="1030pt"
 viewBox="0.00 0.00 581.00 1030.00" xmlns="http://www.w3.org/2000/svg" xmlns:xlink="http://www.w3.org/1999/xlink">
<g id="graph0" class="graph" transform="scale(1 1) rotate(0) translate(4 1026)">
<title>dfg</title>
<polygon fill="white" stroke="none" points="-4,4 -4,-1026 577,-1026 577,4 -4,4"/>
<!-- start_node -->
<g id="node1" class="node">
<title>start_node</title>
<ellipse fill="none" stroke="black" cx="516.5" cy="-1004" rx="18" ry="18"/>
<text text-anchor="start" x="512" y="-1000.3" font-family="Times,serif" font-size="14.00">●</text>
</g>
<!-- Create Fine -->
<g id="node2" class="node">
<title>Create Fine</title>
<polygon fill="#9b9bff" stroke="black" points="573,-935 460,-935 460,-899 573,-899 573,-935"/>
<text text-anchor="middle" x="516.5" y="-913.3" font-family="Times,serif" font-size="14.00">Create Fine (104)</text>
</g>
<!-- start_node&#45;&gt;Create Fine -->
<g id="edge1" class="edge">
<title>start_node&#45;&gt;Create Fine</title>
<path fill="none" stroke="#000000" stroke-width="6" d="M516.5,-985.8C516.5,-975.96 516.5,-963.27 516.5,-951.53"/>
<polygon fill="#000000" stroke="#000000" stroke-width="6" points="521.75,-951.92 516.5,-941.92 511.25,-951.92 521.75,-951.92"/>
<text text-anchor="middle" x="527" y="-956.8" font-family="Times,serif" font-size="14.00">104</text>
</g>
<!-- Send Fine -->
<g id="node3" class="node">
<title>Send Fine</title>
<polygon fill="#9b9bff" stroke="black" points="568.5,-848 464.5,-848 464.5,-812 568.5,-812 568.5,-848"/>
<text text-anchor="middle" x="516.5" y="-826.3" font-family="Times,serif" font-size="14.00">Send Fine (104)</text>
</g>
<!-- Create Fine&#45;&gt;Send Fine -->
<g id="edge2" class="edge">
<title>Create Fine&#45;&gt;Send Fine</title>
<path fill="none" stroke="#000000" stroke-width="6" d="M516.5,-898.8C516.5,-888.96 516.5,-876.27 516.5,-864.53"/>
<polygon fill="#000000" stroke="#000000" stroke-width="6" points="521.75,-864.92 516.5,-854.92 511.25,-864.92 521.75,-864.92"/>
<text text-anchor="middle" x="527" y="-869.8" font-family="Times,serif" font-size="14.00">104</text>
</g>
<!-- Insert Fine Notification -->
<g id="node4" class="node">
<title>Insert Fine Notification</title>
<polygon fill="#9b9bff" stroke="black" points="542,-761 365,-761 365,-725 542,-725 542,-761"/>
<text text-anchor="middle" x="453.5" y="-739.3" font-family="Times,serif" font-size="14.00">Insert Fine Notification (104)</text>
</g>
<!-- Send Fine&#45;&gt;Insert Fine Notification -->
<g id="edge3" class="edge">
<title>Send Fine&#45;&gt;Insert Fine Notification</title>
<path fill="none" stroke="#000000" stroke-width="5.95" d="M503.75,-811.8C495.78,-801.04 485.28,-786.88 475.95,-774.29"/>
<polygon fill="#000000" stroke="#000000" stroke-width="5.95" points="480.42,-771.58 470.28,-766.64 472.06,-777.77 480.42,-771.58"/>
<text text-anchor="middle" x="499" y="-782.8" font-family="Times,serif" font-size="14.00">103</text>
</g>
<!-- Insert Date Appeal to Prefecture -->
<g id="node5" class="node">
<title>Insert Date Appeal to Prefecture</title>
<polygon fill="#9c9cff" stroke="black" points="479,-674 254,-674 254,-638 479,-638 479,-674"/>
<text text-anchor="middle" x="366.5" y="-652.3" font-family="Times,serif" font-size="14.00">Insert Date Appeal to Prefecture (102)</text>
</g>
<!-- Send Fine&#45;&gt;Insert Date Appeal to Prefecture -->
<g id="edge24" class="edge">
<title>Send Fine&#45;&gt;Insert Date Appeal to Prefecture</title>
<path fill="none" stroke="#ff0000" stroke-width="0.5" stroke-dasharray="5,2" d="M531.1,-811.82C547.75,-790.02 570.36,-752.03 551.5,-725 536.2,-703.08 513.01,-688.2 488.17,-678.11"/>
<polygon fill="#ff0000" stroke="#ff0000" stroke-width="0.5" points="489.5,-674.88 478.91,-674.61 487.02,-681.42 489.5,-674.88"/>
<text text-anchor="middle" x="562" y="-739.3" font-family="Times,serif" font-size="14.00">1</text>
</g>
<!-- Insert Fine Notification&#45;&gt;Insert Date Appeal to Prefecture -->
<g id="edge4" class="edge">
<title>Insert Fine Notification&#45;&gt;Insert Date Appeal to Prefecture</title>
<path fill="none" stroke="#000000" stroke-width="5.52" d="M435.89,-724.8C424.41,-713.58 409.15,-698.67 395.86,-685.69"/>
<polygon fill="#000000" stroke="#000000" stroke-width="5.52" points="399.45,-682.44 388.92,-678.9 392.69,-689.34 399.45,-682.44"/>
<text text-anchor="middle" x="421.5" y="-695.8" font-family="Times,serif" font-size="14.00">95</text>
</g>
<!-- Send Appeal to Prefecture -->
<g id="node6" class="node">
<title>Send Appeal to Prefecture</title>
<polygon fill="#a2a2ff" stroke="black" points="525,-500 340,-500 340,-464 525,-464 525,-500"/>
<text text-anchor="middle" x="432.5" y="-478.3" font-family="Times,serif" font-size="14.00">Send Appeal to Prefecture (96)</text>
</g>
<!-- Insert Fine Notification&#45;&gt;Send Appeal to Prefecture -->
<g id="edge17" class="edge">
<title>Insert Fine Notification&#45;&gt;Send Appeal to Prefecture</title>
<path fill="none" stroke="#ff0000" stroke-width="0.61" stroke-dasharray="5,2" d="M465.32,-724.74C473.63,-711.51 484.03,-692.45 488.5,-674 492.27,-658.45 490.7,-653.85 488.5,-638 480.87,-583.09 477.03,-568.65 454.5,-518 453.24,-515.17 451.78,-512.3 450.23,-509.49"/>
<polygon fill="#ff0000" stroke="#ff0000" stroke-width="0.61" points="453.32,-507.84 445.18,-501.05 447.31,-511.43 453.32,-507.84"/>
<text text-anchor="middle" x="489" y="-608.8" font-family="Times,serif" font-size="14.00">3</text>
</g>
<!-- Add penalty -->
<g id="node7" class="node">
<title>Add penalty</title>
<polygon fill="#9b9bff" stroke="black" points="348.5,-413 232.5,-413 232.5,-377 348.5,-377 348.5,-413"/>
<text text-anchor="middle" x="290.5" y="-391.3" font-family="Times,serif" font-size="14.00">Add penalty (104)</text>
</g>
<!-- Insert Fine Notification&#45;&gt;Add penalty -->
<g id="edge13" class="edge">
<title>Insert Fine Notification&#45;&gt;Add penalty</title>
<path fill="none" stroke="#000000" stroke-width="0.77" d="M497.65,-724.51C524.44,-710.69 553.5,-688.44 553.5,-657 553.5,-657 553.5,-657 553.5,-481 553.5,-440.21 437.52,-416.11 359.59,-404.52"/>
<polygon fill="#000000" stroke="#000000" stroke-width="0.77" points="360.42,-401.11 350.02,-403.14 359.41,-408.03 360.42,-401.11"/>
<text text-anchor="middle" x="557" y="-565.3" font-family="Times,serif" font-size="14.00">6</text>
</g>
<!-- Insert Date Appeal to Prefecture&#45;&gt;Insert Fine Notification -->
<g id="edge25" class="edge">
<title>Insert Date Appeal to Prefecture&#45;&gt;Insert Fine Notification</title>
<path fill="none" stroke="#ff0000" stroke-width="0.5" stroke-dasharray="5,2" d="M372.99,-674.24C377.55,-684.64 384.44,-697.64 393.5,-707 397.69,-711.33 402.53,-715.3 407.61,-718.89"/>
<polygon fill="#ff0000" stroke="#ff0000" stroke-width="0.5" points="405.38,-721.62 415.67,-724.16 409.21,-715.76 405.38,-721.62"/>
<text text-anchor="middle" x="397" y="-695.8" font-family="Times,serif" font-size="14.00">1</text>
</g>
<!-- Insert Date Appeal to Prefecture&#45;&gt;Send Appeal to Prefecture -->
<g id="edge5" class="edge">
<title>Insert Date Appeal to Prefecture&#45;&gt;Send Appeal to Prefecture</title>
<path fill="none" stroke="#000000" stroke-width="3.38" d="M408.89,-637.66C415.86,-632.95 422.2,-627.12 426.5,-620 445.71,-588.19 443.72,-544.24 439.25,-514.78"/>
<polygon fill="#000000" stroke="#000000" stroke-width="3.38" points="442.73,-514.34 437.52,-505.11 435.84,-515.57 442.73,-514.34"/>
<text text-anchor="middle" x="448.5" y="-565.3" font-family="Times,serif" font-size="14.00">55</text>
</g>
<!-- Insert Date Appeal to Prefecture&#45;&gt;Add penalty -->
<g id="edge10" class="edge">
<title>Insert Date Appeal to Prefecture&#45;&gt;Add penalty</title>
<path fill="none" stroke="#000000" stroke-width="2.64" d="M366.44,-637.8C365.77,-611.06 362.08,-558.43 344.5,-518 340.46,-508.71 335.48,-508.82 330.5,-500 317.22,-476.48 306.53,-447.69 299.55,-426.36"/>
<polygon fill="#000000" stroke="#000000" stroke-width="2.64" points="302.96,-425.55 296.62,-417.06 296.29,-427.65 302.96,-425.55"/>
<text text-anchor="middle" x="357.5" y="-521.8" font-family="Times,serif" font-size="14.00">41</text>
</g>
<!-- Receive Result Appeal from Prefecture -->
<g id="node8" class="node">
<title>Receive Result Appeal from Prefecture</title>
<polygon fill="#9e9eff" stroke="black" points="263,-587 0,-587 0,-551 263,-551 263,-587"/>
<text text-anchor="middle" x="131.5" y="-565.3" font-family="Times,serif" font-size="14.00">Receive Result Appeal from Prefecture (100)</text>
</g>
<!-- Insert Date Appeal to Prefecture&#45;&gt;Receive Result Appeal from Prefecture -->
<g id="edge15" class="edge">
<title>Insert Date Appeal to Prefecture&#45;&gt;Receive Result Appeal from Prefecture</title>
<path fill="none" stroke="#ff0000" stroke-width="0.71" stroke-dasharray="5,2" d="M318.38,-637.59C281.15,-624.13 229.45,-605.43 189.86,-591.11"/>
<polygon fill="#ff0000" stroke="#ff0000" stroke-width="0.71" points="191.17,-587.86 180.57,-587.75 188.79,-594.44 191.17,-587.86"/>
<text text-anchor="middle" x="267" y="-608.8" font-family="Times,serif" font-size="14.00">5</text>
</g>
<!-- Send Appeal to Prefecture&#45;&gt;Insert Date Appeal to Prefecture -->
<g id="edge18" class="edge">
<title>Send Appeal to Prefecture&#45;&gt;Insert Date Appeal to Prefecture</title>
<path fill="none" stroke="#ff0000" stroke-width="0.55" stroke-dasharray="5,2" d="M426.03,-500.34C416.29,-526.38 397.22,-577.1 380.5,-620 379.52,-622.51 378.5,-625.11 377.47,-627.72"/>
<polygon fill="#ff0000" stroke="#ff0000" stroke-width="0.55" points="374.3,-626.21 373.85,-636.8 380.8,-628.8 374.3,-626.21"/>
<text text-anchor="middle" x="410" y="-565.3" font-family="Times,serif" font-size="14.00">2</text>
</g>
<!-- Send Appeal to Prefecture&#45;&gt;Add penalty -->
<g id="edge6" class="edge">
<title>Send Appeal to Prefecture&#45;&gt;Add penalty</title>
<path fill="none" stroke="#000000" stroke-width="2.74" d="M403.42,-463.59C382.65,-451.16 354.42,-434.26 331.38,-420.47"/>
<polygon fill="#000000" stroke="#000000" stroke-width="2.74" points="333.48,-417.65 323.1,-415.51 329.88,-423.65 333.48,-417.65"/>
<text text-anchor="middle" x="377.5" y="-434.8" font-family="Times,serif" font-size="14.00">43</text>
</g>
<!-- Send Appeal to Prefecture&#45;&gt;Receive Result Appeal from Prefecture -->
<g id="edge12" class="edge">
<title>Send Appeal to Prefecture&#45;&gt;Receive Result Appeal from Prefecture</title>
<path fill="none" stroke="#000000" stroke-width="3.12" d="M350.12,-500.5C333.36,-505.26 316.1,-511.06 300.5,-518 289.35,-522.96 288.71,-528.17 277.5,-533 265.46,-538.19 252.51,-542.68 239.48,-546.57"/>
<polygon fill="#000000" stroke="#000000" stroke-width="3.12" points="238.56,-543.19 229.88,-549.26 240.46,-549.93 238.56,-543.19"/>
<text text-anchor="middle" x="307.5" y="-521.8" font-family="Times,serif" font-size="14.00">50</text>
</g>
<!-- Payment -->
<g id="node10" class="node">
<title>Payment</title>
<polygon fill="#a1a1ff" stroke="black" points="332,-131 241,-131 241,-95 332,-95 332,-131"/>
<text text-anchor="middle" x="286.5" y="-109.3" font-family="Times,serif" font-size="14.00">Payment (97)</text>
</g>
<!-- Send Appeal to Prefecture&#45;&gt;Payment -->
<g id="edge27" class="edge">
<title>Send Appeal to Prefecture&#45;&gt;Payment</title>
<path fill="none" stroke="#ff0000" stroke-width="0.5" stroke-dasharray="5,2" d="M474.05,-463.51C499.99,-449.5 528.5,-427.05 528.5,-396 528.5,-396 528.5,-396 528.5,-220 528.5,-187.84 538.11,-170.84 514.5,-149 489.37,-125.75 395.24,-136.79 361.5,-131 355.43,-129.96 349.11,-128.74 342.84,-127.44"/>
<polygon fill="#ff0000" stroke="#ff0000" stroke-width="0.5" points="343.61,-124.03 333.1,-125.36 342.14,-130.87 343.61,-124.03"/>
<text text-anchor="middle" x="532" y="-304.3" font-family="Times,serif" font-size="14.00">1</text>
</g>
<!-- Add penalty&#45;&gt;Insert Date Appeal to Prefecture -->
<g id="edge14" class="edge">
<title>Add penalty&#45;&gt;Insert Date Appeal to Prefecture</title>
<path fill="none" stroke="#ff0000" stroke-width="0.66" stroke-dasharray="5,2" d="M283.33,-413.36C273.46,-439.86 258.42,-491.67 272.5,-533 285.61,-571.49 316.31,-607.3 339.08,-630.04"/>
<polygon fill="#ff0000" stroke="#ff0000" stroke-width="0.66" points="336.44,-632.35 346.05,-636.82 341.32,-627.33 336.44,-632.35"/>
<text text-anchor="middle" x="276" y="-521.8" font-family="Times,serif" font-size="14.00">4</text>
</g>
<!-- Add penalty&#45;&gt;Send Appeal to Prefecture -->
<g id="edge11" class="edge">
<title>Add penalty&#45;&gt;Send Appeal to Prefecture</title>
<path fill="none" stroke="#000000" stroke-width="2.42" d="M348.81,-411.38C362.48,-416.43 376.54,-422.89 388.5,-431 397.32,-436.98 405.48,-445.13 412.33,-453.12"/>
<polygon fill="#000000" stroke="#000000" stroke-width="2.42" points="409.51,-455.2 418.49,-460.82 414.98,-450.82 409.51,-455.2"/>
<text text-anchor="middle" x="411.5" y="-434.8" font-family="Times,serif" font-size="14.00">37</text>
</g>
<!-- Add penalty&#45;&gt;Receive Result Appeal from Prefecture -->
<g id="edge7" class="edge">
<title>Add penalty&#45;&gt;Receive Result Appeal from Prefecture</title>
<path fill="none" stroke="#000000" stroke-width="2.85" d="M271.52,-413.43C266.08,-418.83 260.32,-424.95 255.5,-431 222.15,-472.85 229.95,-495.77 191.5,-533 187.82,-536.57 183.7,-539.91 179.4,-543.01"/>
<polygon fill="#000000" stroke="#000000" stroke-width="2.85" points="177.82,-539.87 171.37,-548.27 181.65,-545.73 177.82,-539.87"/>
<text text-anchor="middle" x="241.5" y="-478.3" font-family="Times,serif" font-size="14.00">45</text>
</g>
<!-- Notify Result Appeal to Offender -->
<g id="node9" class="node">
<title>Notify Result Appeal to Offender</title>
<polygon fill="#a9a9ff" stroke="black" points="337,-326 112,-326 112,-290 337,-290 337,-326"/>
<text text-anchor="middle" x="224.5" y="-304.3" font-family="Times,serif" font-size="14.00">Notify Result Appeal to Offender (89)</text>
</g>
<!-- Add penalty&#45;&gt;Notify Result Appeal to Offender -->
<g id="edge20" class="edge">
<title>Add penalty&#45;&gt;Notify Result Appeal to Offender</title>
<path fill="none" stroke="#000000" stroke-width="1.03" d="M277.14,-376.8C267.9,-364.9 255.43,-348.83 244.94,-335.32"/>
<polygon fill="#000000" stroke="#000000" stroke-width="1.03" points="247.92,-333.46 239.02,-327.7 242.39,-337.75 247.92,-333.46"/>
<text text-anchor="middle" x="268.5" y="-347.8" font-family="Times,serif" font-size="14.00">11</text>
</g>
<!-- Add penalty&#45;&gt;Payment -->
<g id="edge21" class="edge">
<title>Add penalty&#45;&gt;Payment</title>
<path fill="none" stroke="#000000" stroke-width="0.82" d="M310.33,-376.57C323.07,-363.97 338.51,-345.75 345.5,-326 368.64,-260.59 329.26,-181.29 304.41,-140.73"/>
<polygon fill="#000000" stroke="#000000" stroke-width="0.82" points="307.41,-138.93 299.12,-132.34 301.49,-142.66 307.41,-138.93"/>
<text text-anchor="middle" x="356" y="-260.8" font-family="Times,serif" font-size="14.00">7</text>
</g>
<!-- Receive Result Appeal from Prefecture&#45;&gt;Send Appeal to Prefecture -->
<g id="edge29" class="edge">
<title>Receive Result Appeal from Prefecture&#45;&gt;Send Appeal to Prefecture</title>
<path fill="none" stroke="#ff0000" stroke-width="0.5" stroke-dasharray="5,2" d="M254.73,-550.6C275.04,-545.99 295.61,-540.21 314.5,-533 326.61,-528.38 327.83,-523.64 339.5,-518 349.61,-513.11 360.59,-508.45 371.34,-504.21"/>
<polygon fill="#ff0000" stroke="#ff0000" stroke-width="0.5" points="372.34,-507.58 380.42,-500.72 369.83,-501.05 372.34,-507.58"/>
<text text-anchor="middle" x="343" y="-521.8" font-family="Times,serif" font-size="14.00">1</text>
</g>
<!-- Receive Result Appeal from Prefecture&#45;&gt;Add penalty -->
<g id="edge19" class="edge">
<title>Receive Result Appeal from Prefecture&#45;&gt;Add penalty</title>
<path fill="none" stroke="#000000" stroke-width="1.14" d="M140.8,-550.65C152.87,-529.02 175.39,-491.54 200.5,-464 216.26,-446.72 222.86,-445.14 241.5,-431 246.22,-427.42 251.25,-423.71 256.23,-420.1"/>
<polygon fill="#000000" stroke="#000000" stroke-width="1.14" points="258.14,-423.04 264.22,-414.36 254.06,-417.35 258.14,-423.04"/>
<text text-anchor="middle" x="207.5" y="-478.3" font-family="Times,serif" font-size="14.00">13</text>
</g>
<!-- Receive Result Appeal from Prefecture&#45;&gt;Notify Result Appeal to Offender -->
<g id="edge8" class="edge">
<title>Receive Result Appeal from Prefecture&#45;&gt;Notify Result Appeal to Offender</title>
<path fill="none" stroke="#000000" stroke-width="4.56" d="M136.8,-550.82C139.83,-541.14 143.76,-528.86 147.5,-518 169.17,-455.01 196.54,-382.16 212.13,-341.24"/>
<polygon fill="#000000" stroke="#000000" stroke-width="4.56" points="215.82,-342.76 215.66,-332 208.37,-339.91 215.82,-342.76"/>
<text text-anchor="middle" x="185.5" y="-434.8" font-family="Times,serif" font-size="14.00">77</text>
</g>
<!-- Receive Result Appeal from Prefecture&#45;&gt;Payment -->
<g id="edge16" class="edge">
<title>Receive Result Appeal from Prefecture&#45;&gt;Payment</title>
<path fill="none" stroke="#000000" stroke-width="0.87" d="M96.52,-550.79C72.71,-536.35 45.5,-513.23 45.5,-483 45.5,-483 45.5,-483 45.5,-350.5 45.5,-276.55 70.63,-255.71 122.5,-203 152.77,-172.24 195.95,-149.39 230.4,-134.55"/>
<polygon fill="#000000" stroke="#000000" stroke-width="0.87" points="231.7,-137.8 239.57,-130.72 228.99,-131.35 231.7,-137.8"/>
<text text-anchor="middle" x="49" y="-347.8" font-family="Times,serif" font-size="14.00">8</text>
</g>
<!-- Appeal to Judge -->
<g id="node11" class="node">
<title>Appeal to Judge</title>
<polygon fill="#f9f9ff" stroke="black" points="257,-239 132,-239 132,-203 257,-203 257,-239"/>
<text text-anchor="middle" x="194.5" y="-217.3" font-family="Times,serif" font-size="14.00">Appeal to Judge (7)</text>
</g>
<!-- Receive Result Appeal from Prefecture&#45;&gt;Appeal to Judge -->
<g id="edge31" class="edge">
<title>Receive Result Appeal from Prefecture&#45;&gt;Appeal to Judge</title>
<path fill="none" stroke="#ff0000" stroke-width="0.5" stroke-dasharray="5,2" d="M123.46,-550.54C103.69,-504.88 57.48,-379.25 102.5,-290 112.17,-270.82 130.09,-255.71 147.56,-244.65"/>
<polygon fill="#ff0000" stroke="#ff0000" stroke-width="0.5" points="149.18,-247.77 155.96,-239.63 145.59,-241.76 149.18,-247.77"/>
<text text-anchor="middle" x="89" y="-391.3" font-family="Times,serif" font-size="14.00">1</text>
</g>
<!-- Notify Result Appeal to Offender&#45;&gt;Add penalty -->
<g id="edge26" class="edge">
<title>Notify Result Appeal to Offender&#45;&gt;Add penalty</title>
<path fill="none" stroke="#ff0000" stroke-width="0.5" stroke-dasharray="5,2" d="M228.49,-326.41C231.44,-336.62 236.22,-349.37 243.5,-359 246.49,-362.95 250.04,-366.67 253.83,-370.09"/>
<polygon fill="#ff0000" stroke="#ff0000" stroke-width="0.5" points="251.32,-372.56 261.26,-376.22 255.77,-367.16 251.32,-372.56"/>
<text text-anchor="middle" x="247" y="-347.8" font-family="Times,serif" font-size="14.00">1</text>
</g>
<!-- Notify Result Appeal to Offender&#45;&gt;Payment -->
<g id="edge9" class="edge">
<title>Notify Result Appeal to Offender&#45;&gt;Payment</title>
<path fill="none" stroke="#000000" stroke-width="4.4" d="M237.41,-289.76C246.67,-276.54 258.66,-257.49 265.5,-239 276.61,-208.99 281.87,-172.73 284.35,-147.01"/>
<polygon fill="#000000" stroke="#000000" stroke-width="4.4" points="288.17,-147.48 285.15,-137.2 280.5,-146.85 288.17,-147.48"/>
<text text-anchor="middle" x="283.5" y="-217.3" font-family="Times,serif" font-size="14.00">74</text>
</g>
<!-- Notify Result Appeal to Offender&#45;&gt;Appeal to Judge -->
<g id="edge22" class="edge">
<title>Notify Result Appeal to Offender&#45;&gt;Appeal to Judge</title>
<path fill="none" stroke="#000000" stroke-width="0.77" d="M218.43,-289.8C214.39,-278.35 208.99,-263.06 204.34,-249.89"/>
<polygon fill="#000000" stroke="#000000" stroke-width="0.77" points="207.68,-248.83 201.05,-240.56 201.08,-251.16 207.68,-248.83"/>
<text text-anchor="middle" x="215" y="-260.8" font-family="Times,serif" font-size="14.00">6</text>
</g>
<!-- Send for Credit Collection -->
<g id="node12" class="node">
<title>Send for Credit Collection</title>
<polygon fill="#ffffff" stroke="black" points="513.5,-185 333.5,-185 333.5,-149 513.5,-149 513.5,-185"/>
<text text-anchor="middle" x="423.5" y="-163.3" font-family="Times,serif" font-size="14.00">Send for Credit Collection (1)</text>
</g>
<!-- Notify Result Appeal to Offender&#45;&gt;Send for Credit Collection -->
<g id="edge30" class="edge">
<title>Notify Result Appeal to Offender&#45;&gt;Send for Credit Collection</title>
<path fill="none" stroke="#ff0000" stroke-width="0.5" stroke-dasharray="5,2" d="M337.37,-289.66C348.53,-285.06 359.16,-279.27 368.5,-272 393.24,-252.74 408.09,-219.19 416.01,-195.41"/>
<polygon fill="#ff0000" stroke="#ff0000" stroke-width="0.5" points="419.31,-196.57 418.95,-185.98 412.63,-194.48 419.31,-196.57"/>
<text text-anchor="middle" x="387" y="-260.8" font-family="Times,serif" font-size="14.00">1</text>
</g>
<!-- end_node -->
<g id="node13" class="node">
<title>end_node</title>
<ellipse fill="none" stroke="black" cx="230.5" cy="-22" rx="18" ry="18"/>
<ellipse fill="none" stroke="black" cx="230.5" cy="-22" rx="22" ry="22"/>
<text text-anchor="start" x="226" y="-18.3" font-family="Times,serif" font-size="14.00">■</text>
</g>
<!-- Notify Result Appeal to Offender&#45;&gt;end_node -->
<g id="edge34" class="edge">
<title>Notify Result Appeal to Offender&#45;&gt;end_node</title>
<path fill="none" stroke="#000000" stroke-width="0.82" d="M180.25,-289.56C158.69,-278.54 134.8,-261.99 122.5,-239 114.95,-224.89 118.23,-218.42 122.5,-203 139.39,-142 183.07,-80.93 209.42,-47.95"/>
<polygon fill="#000000" stroke="#000000" stroke-width="0.82" points="211.98,-50.35 215.57,-40.38 206.55,-45.93 211.98,-50.35"/>
<text text-anchor="middle" x="147" y="-163.3" font-family="Times,serif" font-size="14.00">7</text>
</g>
<!-- Payment&#45;&gt;Payment -->
<g id="edge28" class="edge">
<title>Payment&#45;&gt;Payment</title>
<path fill="none" stroke="#ff0000" stroke-width="0.55" stroke-dasharray="5,2" d="M332.45,-120.94C342.6,-120.19 350,-117.55 350,-113 350,-110.23 347.25,-108.17 342.81,-106.81"/>
<polygon fill="#ff0000" stroke="#ff0000" stroke-width="0.55" points="343.72,-103.41 333.28,-105.2 342.56,-110.31 343.72,-103.41"/>
<text text-anchor="middle" x="353.5" y="-109.3" font-family="Times,serif" font-size="14.00">2</text>
</g>
<!-- Payment&#45;&gt;end_node -->
<g id="edge33" class="edge">
<title>Payment&#45;&gt;end_node</title>
<path fill="none" stroke="#000000" stroke-width="5.52" d="M275.7,-94.84C268.56,-83.49 258.98,-68.26 250.48,-54.75"/>
<polygon fill="#000000" stroke="#000000" stroke-width="5.52" points="254.63,-52.29 245.22,-46.39 246.46,-57.43 254.63,-52.29"/>
<text text-anchor="middle" x="271.5" y="-65.8" font-family="Times,serif" font-size="14.00">95</text>
</g>
<!-- Appeal to Judge&#45;&gt;Notify Result Appeal to Offender -->
<g id="edge32" class="edge">
<title>Appeal to Judge&#45;&gt;Notify Result Appeal to Offender</title>
<path fill="none" stroke="#ff0000" stroke-width="0.5" stroke-dasharray="5,2" d="M193.07,-239.18C192.84,-249.08 193.59,-261.58 197.5,-272 198.65,-275.06 200.16,-278.08 201.89,-280.97"/>
<polygon fill="#ff0000" stroke="#ff0000" stroke-width="0.5" points="198.95,-282.87 207.51,-289.11 204.71,-278.89 198.95,-282.87"/>
<text text-anchor="middle" x="201" y="-260.8" font-family="Times,serif" font-size="14.00">1</text>
</g>
<!-- Appeal to Judge&#45;&gt;Payment -->
<g id="edge23" class="edge">
<title>Appeal to Judge&#45;&gt;Payment</title>
<path fill="none" stroke="#ff0000" stroke-width="0.71" stroke-dasharray="5,2" d="M209.28,-202.97C224.15,-185.84 247.25,-159.22 264.32,-139.56"/>
<polygon fill="#ff0000" stroke="#ff0000" stroke-width="0.71" points="266.83,-142 270.74,-132.16 261.54,-137.41 266.83,-142"/>
<text text-anchor="middle" x="258" y="-163.3" font-family="Times,serif" font-size="14.00">5</text>
</g>
<!-- Appeal to Judge&#45;&gt;end_node -->
<g id="edge35" class="edge">
<title>Appeal to Judge&#45;&gt;end_node</title>
<path fill="none" stroke="#ff0000" stroke-width="0.5" stroke-dasharray="5,2" d="M197.69,-202.52C203.78,-169.24 217.09,-96.37 224.76,-54.42"/>
<polygon fill="#ff0000" stroke="#ff0000" stroke-width="0.5" points="228.18,-55.18 226.53,-44.71 221.29,-53.92 228.18,-55.18"/>
<text text-anchor="middle" x="221" y="-109.3" font-family="Times,serif" font-size="14.00">1</text>
</g>
<!-- Send for Credit Collection&#45;&gt;end_node -->
<g id="edge36" class="edge">
<title>Send for Credit Collection&#45;&gt;end_node</title>
<path fill="none" stroke="#ff0000" stroke-width="0.5" stroke-dasharray="5,2" d="M412.23,-148.58C401.58,-133.09 384.44,-110.56 365.5,-95 333.15,-68.41 289.45,-47.27 260.65,-34.94"/>
<polygon fill="#ff0000" stroke="#ff0000" stroke-width="0.5" points="262.03,-31.73 251.45,-31.1 259.33,-38.19 262.03,-31.73"/>
<text text-anchor="middle" x="402" y="-109.3" font-family="Times,serif" font-size="14.00">1</text>
</g>
</g>
</svg>
