<?xml version="1.0" encoding="UTF-8" standalone="no"?>
<!DOCTYPE svg PUBLIC "-//W3C//DTD SVG 1.1//EN"
 "http://www.w3.org/Graphics/SVG/1.1/DTD/svg11.dtd">
<!-- Generated by graphviz version 7.1.0 (0)
 -->
<!-- Pages: 1 -->
<svg width="1026pt" height="206pt"
 viewBox="0.00 0.00 1026.00 206.00" xmlns="http://www.w3.org/2000/svg" xmlns:xlink="http://www.w3.org/1999/xlink">
<g id="graph0" class="graph" transform="scale(1 1) rotate(0) translate(4 202)">
<polygon fill="white" stroke="none" points="-4,4 -4,-202 1022,-202 1022,4 -4,4"/>
<!-- start_node_var0 -->
<g id="node1" class="node">
<title>start_node_var0</title>
<text text-anchor="middle" x="40" y="-14.3" font-family="Times,serif" font-size="14.00">151 traces</text>
</g>
<!-- Create Fine_var0_step0 -->
<g id="node2" class="node">
<title>Create Fine_var0_step0</title>
<polygon fill="lightgrey" stroke="black" points="80,-90 0,-90 0,-54 80,-54 80,-90"/>
<text text-anchor="middle" x="40" y="-68.3" font-family="Times,serif" font-size="14.00">Create Fine</text>
</g>
<!-- Send Fine_var0_step1 -->
<g id="node3" class="node">
<title>Send Fine_var0_step1</title>
<polygon fill="lightgrey" stroke="black" points="187,-90 116,-90 116,-54 187,-54 187,-90"/>
<text text-anchor="middle" x="151.5" y="-68.3" font-family="Times,serif" font-size="14.00">Send Fine</text>
</g>
<!-- Create Fine_var0_step0&#45;&gt;Send Fine_var0_step1 -->
<g id="edge1" class="edge">
<title>Create Fine_var0_step0&#45;&gt;Send Fine_var0_step1</title>
<path fill="none" stroke="black" d="M80.22,-72C87.97,-72 96.18,-72 104.14,-72"/>
<polygon fill="black" stroke="black" points="104.04,-75.5 114.04,-72 104.04,-68.5 104.04,-75.5"/>
</g>
<!-- Insert Fine Notification_var0_step2 -->
<g id="node4" class="node">
<title>Insert Fine Notification_var0_step2</title>
<polygon fill="lightgrey" stroke="black" points="367,-90 223,-90 223,-54 367,-54 367,-90"/>
<text text-anchor="middle" x="295" y="-68.3" font-family="Times,serif" font-size="14.00">Insert Fine Notification</text>
</g>
<!-- Send Fine_var0_step1&#45;&gt;Insert Fine Notification_var0_step2 -->
<g id="edge2" class="edge">
<title>Send Fine_var0_step1&#45;&gt;Insert Fine Notification_var0_step2</title>
<path fill="none" stroke="black" d="M187.48,-72C194.85,-72 202.92,-72 211.22,-72"/>
<polygon fill="black" stroke="black" points="211.13,-75.5 221.13,-72 211.13,-68.5 211.13,-75.5"/>
</g>
<!-- Add penalty_var0_step3 -->
<g id="node5" class="node">
<title>Add penalty_var0_step3</title>
<polygon fill="lightgrey" stroke="black" points="540.5,-90 457.5,-90 457.5,-54 540.5,-54 540.5,-90"/>
<text text-anchor="middle" x="499" y="-68.3" font-family="Times,serif" font-size="14.00">Add penalty</text>
</g>
<!-- Insert Fine Notification_var0_step2&#45;&gt;Add penalty_var0_step3 -->
<g id="edge3" class="edge">
<title>Insert Fine Notification_var0_step2&#45;&gt;Add penalty_var0_step3</title>
<path fill="none" stroke="black" d="M367.22,-72C393.09,-72 421.82,-72 445.74,-72"/>
<polygon fill="black" stroke="black" points="445.56,-75.5 455.56,-72 445.56,-68.5 445.56,-75.5"/>
</g>
<!-- Insert Date Appeal to Prefecture_var0_step4 -->
<g id="node6" class="node">
<title>Insert Date Appeal to Prefecture_var0_step4</title>
<polygon fill="lightgrey" stroke="black" points="823,-90 631,-90 631,-54 823,-54 823,-90"/>
<text text-anchor="middle" x="727" y="-68.3" font-family="Times,serif" font-size="14.00">Insert Date Appeal to Prefecture</text>
</g>
<!-- Add penalty_var0_step3&#45;&gt;Insert Date Appeal to Prefecture_var0_step4 -->
<g id="edge4" class="edge">
<title>Add penalty_var0_step3&#45;&gt;Insert Date Appeal to Prefecture_var0_step4</title>
<path fill="none" stroke="black" d="M540.93,-72C563.06,-72 591.53,-72 619.47,-72"/>
<polygon fill="black" stroke="black" points="619.46,-75.5 629.46,-72 619.46,-68.5 619.46,-75.5"/>
</g>
<!-- Send Appeal to Prefecture_var0_step5 -->
<g id="node7" class="node">
<title>Send Appeal to Prefecture_var0_step5</title>
<polygon fill="lightgrey" stroke="black" points="1018,-90 859,-90 859,-54 1018,-54 1018,-90"/>
<text text-anchor="middle" x="938.5" y="-68.3" font-family="Times,serif" font-size="14.00">Send Appeal to Prefecture</text>
</g>
<!-- Insert Date Appeal to Prefecture_var0_step4&#45;&gt;Send Appeal to Prefecture_var0_step5 -->
<g id="edge5" class="edge">
<title>Insert Date Appeal to Prefecture_var0_step4&#45;&gt;Send Appeal to Prefecture_var0_step5</title>
<path fill="none" stroke="black" d="M823.25,-72C831.33,-72 839.49,-72 847.53,-72"/>
<polygon fill="black" stroke="black" points="847.28,-75.5 857.28,-72 847.28,-68.5 847.28,-75.5"/>
</g>
<!-- start_node_var1 -->
<g id="node8" class="node">
<title>start_node_var1</title>
<text text-anchor="middle" x="40" y="-122.3" font-family="Times,serif" font-size="14.00">860 traces</text>
</g>
<!-- Create Fine_var1_step0 -->
<g id="node9" class="node">
<title>Create Fine_var1_step0</title>
<polygon fill="lightgrey" stroke="black" points="80,-198 0,-198 0,-162 80,-162 80,-198"/>
<text text-anchor="middle" x="40" y="-176.3" font-family="Times,serif" font-size="14.00">Create Fine</text>
</g>
<!-- Send Fine_var1_step1 -->
<g id="node10" class="node">
<title>Send Fine_var1_step1</title>
<polygon fill="lightgrey" stroke="black" points="187,-198 116,-198 116,-162 187,-162 187,-198"/>
<text text-anchor="middle" x="151.5" y="-176.3" font-family="Times,serif" font-size="14.00">Send Fine</text>
</g>
<!-- Create Fine_var1_step0&#45;&gt;Send Fine_var1_step1 -->
<g id="edge6" class="edge">
<title>Create Fine_var1_step0&#45;&gt;Send Fine_var1_step1</title>
<path fill="none" stroke="black" d="M80.22,-180C87.97,-180 96.18,-180 104.14,-180"/>
<polygon fill="black" stroke="black" points="104.04,-183.5 114.04,-180 104.04,-176.5 104.04,-183.5"/>
</g>
<!-- Insert Fine Notification_var1_step2 -->
<g id="node11" class="node">
<title>Insert Fine Notification_var1_step2</title>
<polygon fill="lightgrey" stroke="black" points="367,-198 223,-198 223,-162 367,-162 367,-198"/>
<text text-anchor="middle" x="295" y="-176.3" font-family="Times,serif" font-size="14.00">Insert Fine Notification</text>
</g>
<!-- Send Fine_var1_step1&#45;&gt;Insert Fine Notification_var1_step2 -->
<g id="edge7" class="edge">
<title>Send Fine_var1_step1&#45;&gt;Insert Fine Notification_var1_step2</title>
<path fill="none" stroke="black" d="M187.48,-180C194.85,-180 202.92,-180 211.22,-180"/>
<polygon fill="black" stroke="black" points="211.13,-183.5 221.13,-180 211.13,-176.5 211.13,-183.5"/>
</g>
<!-- Insert Date Appeal to Prefecture_var1_step3 -->
<g id="node12" class="node">
<title>Insert Date Appeal to Prefecture_var1_step3</title>
<polygon fill="lightgrey" stroke="black" points="595,-198 403,-198 403,-162 595,-162 595,-198"/>
<text text-anchor="middle" x="499" y="-176.3" font-family="Times,serif" font-size="14.00">Insert Date Appeal to Prefecture</text>
</g>
<!-- Insert Fine Notification_var1_step2&#45;&gt;Insert Date Appeal to Prefecture_var1_step3 -->
<g id="edge8" class="edge">
<title>Insert Fine Notification_var1_step2&#45;&gt;Insert Date Appeal to Prefecture_var1_step3</title>
<path fill="none" stroke="black" d="M367.22,-180C375.02,-180 383.07,-180 391.18,-180"/>
<polygon fill="black" stroke="black" points="391.14,-183.5 401.14,-180 391.14,-176.5 391.14,-183.5"/>
</g>
<!-- Add penalty_var1_step4 -->
<g id="node13" class="node">
<title>Add penalty_var1_step4</title>
<polygon fill="lightgrey" stroke="black" points="768.5,-198 685.5,-198 685.5,-162 768.5,-162 768.5,-198"/>
<text text-anchor="middle" x="727" y="-176.3" font-family="Times,serif" font-size="14.00">Add penalty</text>
</g>
<!-- Insert Date Appeal to Prefecture_var1_step3&#45;&gt;Add penalty_var1_step4 -->
<g id="edge9" class="edge">
<title>Insert Date Appeal to Prefecture_var1_step3&#45;&gt;Add penalty_var1_step4</title>
<path fill="none" stroke="black" d="M595.19,-180C622.12,-180 650.44,-180 673.82,-180"/>
<polygon fill="black" stroke="black" points="673.7,-183.5 683.7,-180 673.7,-176.5 673.7,-183.5"/>
</g>
<!-- Send Appeal to Prefecture_var1_step5 -->
<g id="node14" class="node">
<title>Send Appeal to Prefecture_var1_step5</title>
<polygon fill="lightgrey" stroke="black" points="1018,-198 859,-198 859,-162 1018,-162 1018,-198"/>
<text text-anchor="middle" x="938.5" y="-176.3" font-family="Times,serif" font-size="14.00">Send Appeal to Prefecture</text>
</g>
<!-- Add penalty_var1_step4&#45;&gt;Send Appeal to Prefecture_var1_step5 -->
<g id="edge10" class="edge">
<title>Add penalty_var1_step4&#45;&gt;Send Appeal to Prefecture_var1_step5</title>
<path fill="none" stroke="black" d="M768.89,-180C791.29,-180 819.98,-180 847.33,-180"/>
<polygon fill="black" stroke="black" points="847.02,-183.5 857.02,-180 847.02,-176.5 847.02,-183.5"/>
</g>
</g>
</svg>
