<?xml version="1.0" encoding="UTF-8" standalone="no"?>
<!DOCTYPE svg PUBLIC "-//W3C//DTD SVG 1.1//EN"
 "http://www.w3.org/Graphics/SVG/1.1/DTD/svg11.dtd">
<!-- Generated by graphviz version 7.0.5 (0)
 -->
<!-- Title: dfg Pages: 1 -->
<svg width="373pt" height="574pt"
 viewBox="0.00 0.00 373.00 574.00" xmlns="http://www.w3.org/2000/svg" xmlns:xlink="http://www.w3.org/1999/xlink">
<g id="graph0" class="graph" transform="scale(1 1) rotate(0) translate(4 570)">
<title>dfg</title>
<polygon fill="white" stroke="none" points="-4,4 -4,-570 369,-570 369,4 -4,4"/>
<!-- start_node -->
<g id="node1" class="node">
<title>start_node</title>
<ellipse fill="none" stroke="black" cx="284" cy="-548" rx="18" ry="18"/>
<text text-anchor="start" x="279.5" y="-544.3" font-family="Times,serif" font-size="14.00">●</text>
</g>
<!-- Create Fine -->
<g id="node2" class="node">
<title>Create Fine</title>
<polygon fill="#9b9bff" stroke="black" points="343.5,-479 224.5,-479 224.5,-443 343.5,-443 343.5,-479"/>
<text text-anchor="middle" x="284" y="-457.3" font-family="Times,serif" font-size="14.00">Create Fine (1705)</text>
</g>
<!-- start_node&#45;&gt;Create Fine -->
<g id="edge1" class="edge">
<title>start_node&#45;&gt;Create Fine</title>
<path fill="none" stroke="#000000" stroke-width="6" d="M284,-529.8C284,-519.96 284,-507.27 284,-495.53"/>
<polygon fill="#000000" stroke="#000000" stroke-width="6" points="289.25,-495.92 284,-485.92 278.75,-495.92 289.25,-495.92"/>
<text text-anchor="middle" x="298" y="-500.8" font-family="Times,serif" font-size="14.00">1705</text>
</g>
<!-- Send Fine -->
<g id="node3" class="node">
<title>Send Fine</title>
<polygon fill="#9b9bff" stroke="black" points="339.5,-392 228.5,-392 228.5,-356 339.5,-356 339.5,-392"/>
<text text-anchor="middle" x="284" y="-370.3" font-family="Times,serif" font-size="14.00">Send Fine (1705)</text>
</g>
<!-- Create Fine&#45;&gt;Send Fine -->
<g id="edge2" class="edge">
<title>Create Fine&#45;&gt;Send Fine</title>
<path fill="none" stroke="#000000" stroke-width="6" d="M284,-442.8C284,-432.96 284,-420.27 284,-408.53"/>
<polygon fill="#000000" stroke="#000000" stroke-width="6" points="289.25,-408.92 284,-398.92 278.75,-408.92 289.25,-408.92"/>
<text text-anchor="middle" x="298" y="-413.8" font-family="Times,serif" font-size="14.00">1705</text>
</g>
<!-- Insert Fine Notification -->
<g id="node4" class="node">
<title>Insert Fine Notification</title>
<polygon fill="#a9a9ff" stroke="black" points="316,-305 132,-305 132,-269 316,-269 316,-305"/>
<text text-anchor="middle" x="224" y="-283.3" font-family="Times,serif" font-size="14.00">Insert Fine Notification (1488)</text>
</g>
<!-- Send Fine&#45;&gt;Insert Fine Notification -->
<g id="edge3" class="edge">
<title>Send Fine&#45;&gt;Insert Fine Notification</title>
<path fill="none" stroke="#000000" stroke-width="5.21" d="M271.86,-355.8C264.34,-345.15 254.48,-331.18 245.66,-318.69"/>
<polygon fill="#000000" stroke="#000000" stroke-width="5.21" points="249.45,-316.14 239.95,-310.6 241.99,-321.4 249.45,-316.14"/>
<text text-anchor="middle" x="271" y="-326.8" font-family="Times,serif" font-size="14.00">1488</text>
</g>
<!-- end_node -->
<g id="node8" class="node">
<title>end_node</title>
<ellipse fill="none" stroke="black" cx="267" cy="-22" rx="18" ry="18"/>
<ellipse fill="none" stroke="black" cx="267" cy="-22" rx="22" ry="22"/>
<text text-anchor="start" x="262.5" y="-18.3" font-family="Times,serif" font-size="14.00">■</text>
</g>
<!-- Send Fine&#45;&gt;end_node -->
<g id="edge8" class="edge">
<title>Send Fine&#45;&gt;end_node</title>
<path fill="none" stroke="#000000" stroke-width="0.62" d="M306,-355.6C323.13,-339.95 344,-315.28 344,-288 344,-288 344,-288 344,-112 344,-81.07 317.08,-55.6 295.07,-39.95"/>
<polygon fill="#000000" stroke="#000000" stroke-width="0.62" points="297.05,-37.06 286.81,-34.37 293.14,-42.87 297.05,-37.06"/>
<text text-anchor="middle" x="354.5" y="-196.3" font-family="Times,serif" font-size="14.00">217</text>
</g>
<!-- Add penalty -->
<g id="node5" class="node">
<title>Add penalty</title>
<polygon fill="#a9a9ff" stroke="black" points="285.5,-218 162.5,-218 162.5,-182 285.5,-182 285.5,-218"/>
<text text-anchor="middle" x="224" y="-196.3" font-family="Times,serif" font-size="14.00">Add penalty (1488)</text>
</g>
<!-- Insert Fine Notification&#45;&gt;Add penalty -->
<g id="edge4" class="edge">
<title>Insert Fine Notification&#45;&gt;Add penalty</title>
<path fill="none" stroke="#000000" stroke-width="5.21" d="M224,-268.8C224,-258.96 224,-246.27 224,-234.53"/>
<polygon fill="#000000" stroke="#000000" stroke-width="5.21" points="228.56,-234.75 224,-224.75 219.44,-234.75 228.56,-234.75"/>
<text text-anchor="middle" x="238" y="-239.8" font-family="Times,serif" font-size="14.00">1488</text>
</g>
<!-- Send for Credit Collection -->
<g id="node6" class="node">
<title>Send for Credit Collection</title>
<polygon fill="#b5b5ff" stroke="black" points="200,-131 0,-131 0,-95 200,-95 200,-131"/>
<text text-anchor="middle" x="100" y="-109.3" font-family="Times,serif" font-size="14.00">Send for Credit Collection (1303)</text>
</g>
<!-- Add penalty&#45;&gt;Send for Credit Collection -->
<g id="edge5" class="edge">
<title>Add penalty&#45;&gt;Send for Credit Collection</title>
<path fill="none" stroke="#000000" stroke-width="4.55" d="M198.61,-181.59C181.31,-169.73 158.08,-153.81 138.51,-140.4"/>
<polygon fill="#000000" stroke="#000000" stroke-width="4.55" points="140.93,-137.23 130.43,-134.86 136.43,-143.79 140.93,-137.23"/>
<text text-anchor="middle" x="184" y="-152.8" font-family="Times,serif" font-size="14.00">1303</text>
</g>
<!-- Payment -->
<g id="node7" class="node">
<title>Payment</title>
<polygon fill="#ffffff" stroke="black" points="316,-131 218,-131 218,-95 316,-95 316,-131"/>
<text text-anchor="middle" x="267" y="-109.3" font-family="Times,serif" font-size="14.00">Payment (185)</text>
</g>
<!-- Add penalty&#45;&gt;Payment -->
<g id="edge6" class="edge">
<title>Add penalty&#45;&gt;Payment</title>
<path fill="none" stroke="#000000" stroke-width="0.5" d="M232.7,-181.8C238.67,-170.01 246.69,-154.14 253.49,-140.72"/>
<polygon fill="#000000" stroke="#000000" stroke-width="0.5" points="256.43,-142.65 257.82,-132.14 250.18,-139.49 256.43,-142.65"/>
<text text-anchor="middle" x="258.5" y="-152.8" font-family="Times,serif" font-size="14.00">185</text>
</g>
<!-- Send for Credit Collection&#45;&gt;end_node -->
<g id="edge7" class="edge">
<title>Send for Credit Collection&#45;&gt;end_node</title>
<path fill="none" stroke="#000000" stroke-width="4.55" d="M132.6,-94.63C161.86,-79.03 204.6,-56.25 233.99,-40.59"/>
<polygon fill="#000000" stroke="#000000" stroke-width="4.55" points="235.62,-44.23 242.57,-36.02 231.88,-37.21 235.62,-44.23"/>
<text text-anchor="middle" x="208" y="-65.8" font-family="Times,serif" font-size="14.00">1303</text>
</g>
<!-- Payment&#45;&gt;end_node -->
<g id="edge9" class="edge">
<title>Payment&#45;&gt;end_node</title>
<path fill="none" stroke="#000000" stroke-width="0.5" d="M267,-94.84C267,-83.44 267,-68.13 267,-54.58"/>
<polygon fill="#000000" stroke="#000000" stroke-width="0.5" points="270.5,-54.95 267,-44.95 263.5,-54.95 270.5,-54.95"/>
<text text-anchor="middle" x="277.5" y="-65.8" font-family="Times,serif" font-size="14.00">185</text>
</g>
</g>
</svg>
