<?xml version="1.0" encoding="UTF-8" standalone="no"?>
<!DOCTYPE svg PUBLIC "-//W3C//DTD SVG 1.1//EN"
 "http://www.w3.org/Graphics/SVG/1.1/DTD/svg11.dtd">
<!-- Generated by graphviz version 7.0.5 (0)
 -->
<!-- Title: dfg Pages: 1 -->
<svg width="566pt" height="1009pt"
 viewBox="0.00 0.00 565.50 1009.00" xmlns="http://www.w3.org/2000/svg" xmlns:xlink="http://www.w3.org/1999/xlink">
<g id="graph0" class="graph" transform="scale(1 1) rotate(0) translate(4 1005)">
<title>dfg</title>
<polygon fill="white" stroke="none" points="-4,4 -4,-1005 561.5,-1005 561.5,4 -4,4"/>
<!-- start_node -->
<g id="node1" class="node">
<title>start_node</title>
<ellipse fill="none" stroke="black" cx="251.5" cy="-983" rx="18" ry="18"/>
<text text-anchor="start" x="247" y="-979.3" font-family="Times,serif" font-size="14.00">●</text>
</g>
<!-- Create Fine -->
<g id="node2" class="node">
<title>Create Fine</title>
<polygon fill="#9b9bff" stroke="black" points="308,-914 195,-914 195,-878 308,-878 308,-914"/>
<text text-anchor="middle" x="251.5" y="-892.3" font-family="Times,serif" font-size="14.00">Create Fine (102)</text>
</g>
<!-- start_node&#45;&gt;Create Fine -->
<g id="edge1" class="edge">
<title>start_node&#45;&gt;Create Fine</title>
<path fill="none" stroke="#000000" stroke-width="6" d="M251.5,-964.8C251.5,-954.96 251.5,-942.27 251.5,-930.53"/>
<polygon fill="#000000" stroke="#000000" stroke-width="6" points="256.75,-930.92 251.5,-920.92 246.25,-930.92 256.75,-930.92"/>
<text text-anchor="middle" x="262" y="-935.8" font-family="Times,serif" font-size="14.00">102</text>
</g>
<!-- Send Fine -->
<g id="node3" class="node">
<title>Send Fine</title>
<polygon fill="#9b9bff" stroke="black" points="303.5,-827 199.5,-827 199.5,-791 303.5,-791 303.5,-827"/>
<text text-anchor="middle" x="251.5" y="-805.3" font-family="Times,serif" font-size="14.00">Send Fine (102)</text>
</g>
<!-- Create Fine&#45;&gt;Send Fine -->
<g id="edge2" class="edge">
<title>Create Fine&#45;&gt;Send Fine</title>
<path fill="none" stroke="#000000" stroke-width="6" d="M251.5,-877.8C251.5,-867.96 251.5,-855.27 251.5,-843.53"/>
<polygon fill="#000000" stroke="#000000" stroke-width="6" points="256.75,-843.92 251.5,-833.92 246.25,-843.92 256.75,-843.92"/>
<text text-anchor="middle" x="262" y="-848.8" font-family="Times,serif" font-size="14.00">102</text>
</g>
<!-- Insert Fine Notification -->
<g id="node4" class="node">
<title>Insert Fine Notification</title>
<polygon fill="#9b9bff" stroke="black" points="278,-740 101,-740 101,-704 278,-704 278,-740"/>
<text text-anchor="middle" x="189.5" y="-718.3" font-family="Times,serif" font-size="14.00">Insert Fine Notification (102)</text>
</g>
<!-- Send Fine&#45;&gt;Insert Fine Notification -->
<g id="edge3" class="edge">
<title>Send Fine&#45;&gt;Insert Fine Notification</title>
<path fill="none" stroke="#000000" stroke-width="5.73" d="M238.95,-790.8C231.19,-780.15 221,-766.18 211.88,-753.69"/>
<polygon fill="#000000" stroke="#000000" stroke-width="5.73" points="215.95,-750.76 206.01,-745.63 207.85,-756.66 215.95,-750.76"/>
<text text-anchor="middle" x="230.5" y="-761.8" font-family="Times,serif" font-size="14.00">97</text>
</g>
<!-- Insert Date Appeal to Prefecture -->
<g id="node5" class="node">
<title>Insert Date Appeal to Prefecture</title>
<polygon fill="#9d9dff" stroke="black" points="335.5,-653 117.5,-653 117.5,-617 335.5,-617 335.5,-653"/>
<text text-anchor="middle" x="226.5" y="-631.3" font-family="Times,serif" font-size="14.00">Insert Date Appeal to Prefecture (99)</text>
</g>
<!-- Send Fine&#45;&gt;Insert Date Appeal to Prefecture -->
<g id="edge25" class="edge">
<title>Send Fine&#45;&gt;Insert Date Appeal to Prefecture</title>
<path fill="none" stroke="#ff0000" stroke-width="0.72" stroke-dasharray="5,2" d="M265.15,-790.58C279.66,-769.82 299.04,-734.16 287.5,-704 281.13,-687.35 268.59,-672.22 256.54,-660.48"/>
<polygon fill="#ff0000" stroke="#ff0000" stroke-width="0.72" points="259.27,-658.23 249.55,-654 254.51,-663.37 259.27,-658.23"/>
<text text-anchor="middle" x="294" y="-718.3" font-family="Times,serif" font-size="14.00">5</text>
</g>
<!-- Insert Fine Notification&#45;&gt;Insert Date Appeal to Prefecture -->
<g id="edge4" class="edge">
<title>Insert Fine Notification&#45;&gt;Insert Date Appeal to Prefecture</title>
<path fill="none" stroke="#000000" stroke-width="5.29" d="M186.68,-703.65C185.82,-693.69 186.07,-681.19 190.5,-671 191.26,-669.26 192.14,-667.56 193.14,-665.91"/>
<polygon fill="#000000" stroke="#000000" stroke-width="5.29" points="196.56,-669.04 199.22,-658.35 189.34,-663.24 196.56,-669.04"/>
<text text-anchor="middle" x="197.5" y="-674.8" font-family="Times,serif" font-size="14.00">89</text>
</g>
<!-- Send Appeal to Prefecture -->
<g id="node6" class="node">
<title>Send Appeal to Prefecture</title>
<polygon fill="#9d9dff" stroke="black" points="185,-479 0,-479 0,-443 185,-443 185,-479"/>
<text text-anchor="middle" x="92.5" y="-457.3" font-family="Times,serif" font-size="14.00">Send Appeal to Prefecture (99)</text>
</g>
<!-- Insert Fine Notification&#45;&gt;Send Appeal to Prefecture -->
<g id="edge32" class="edge">
<title>Insert Fine Notification&#45;&gt;Send Appeal to Prefecture</title>
<path fill="none" stroke="#ff0000" stroke-width="0.66" stroke-dasharray="5,2" d="M158.75,-703.74C140.84,-691.93 119.65,-674.52 108.5,-653 81.26,-600.43 84.16,-528.66 88.46,-489.78"/>
<polygon fill="#ff0000" stroke="#ff0000" stroke-width="0.66" points="91.88,-490.63 89.62,-480.28 84.93,-489.78 91.88,-490.63"/>
<text text-anchor="middle" x="95" y="-587.8" font-family="Times,serif" font-size="14.00">4</text>
</g>
<!-- Add penalty -->
<g id="node7" class="node">
<title>Add penalty</title>
<polygon fill="#9b9bff" stroke="black" points="339.5,-392 223.5,-392 223.5,-356 339.5,-356 339.5,-392"/>
<text text-anchor="middle" x="281.5" y="-370.3" font-family="Times,serif" font-size="14.00">Add penalty (102)</text>
</g>
<!-- Insert Fine Notification&#45;&gt;Add penalty -->
<g id="edge13" class="edge">
<title>Insert Fine Notification&#45;&gt;Add penalty</title>
<path fill="none" stroke="#000000" stroke-width="0.94" d="M278.27,-704.47C385.16,-683.94 550.5,-649.94 550.5,-636 550.5,-636 550.5,-636 550.5,-503.5 550.5,-415.02 430.53,-387.41 350.83,-378.83"/>
<polygon fill="#000000" stroke="#000000" stroke-width="0.94" points="351.58,-375.38 341.28,-377.88 350.88,-382.35 351.58,-375.38"/>
<text text-anchor="middle" x="554" y="-544.3" font-family="Times,serif" font-size="14.00">9</text>
</g>
<!-- Insert Date Appeal to Prefecture&#45;&gt;Insert Fine Notification -->
<g id="edge26" class="edge">
<title>Insert Date Appeal to Prefecture&#45;&gt;Insert Fine Notification</title>
<path fill="none" stroke="#ff0000" stroke-width="0.72" stroke-dasharray="5,2" d="M218.9,-653.47C213.84,-665.09 207.09,-680.59 201.34,-693.8"/>
<polygon fill="#ff0000" stroke="#ff0000" stroke-width="0.72" points="198.2,-692.24 197.42,-702.8 204.62,-695.03 198.2,-692.24"/>
<text text-anchor="middle" x="213" y="-674.8" font-family="Times,serif" font-size="14.00">5</text>
</g>
<!-- Insert Date Appeal to Prefecture&#45;&gt;Send Appeal to Prefecture -->
<g id="edge5" class="edge">
<title>Insert Date Appeal to Prefecture&#45;&gt;Send Appeal to Prefecture</title>
<path fill="none" stroke="#000000" stroke-width="2.84" d="M192.49,-616.5C184.7,-611.52 176.85,-605.62 170.5,-599 140.23,-567.46 117.37,-521.96 104.46,-492.18"/>
<polygon fill="#000000" stroke="#000000" stroke-width="2.84" points="107.83,-491.18 100.74,-483.31 101.38,-493.88 107.83,-491.18"/>
<text text-anchor="middle" x="151.5" y="-544.3" font-family="Times,serif" font-size="14.00">44</text>
</g>
<!-- Insert Date Appeal to Prefecture&#45;&gt;Add penalty -->
<g id="edge10" class="edge">
<title>Insert Date Appeal to Prefecture&#45;&gt;Add penalty</title>
<path fill="none" stroke="#000000" stroke-width="2.84" d="M222.55,-616.84C217.2,-590.61 209.4,-539.15 219.5,-497 220.68,-492.07 247.89,-439.39 265.87,-404.89"/>
<polygon fill="#000000" stroke="#000000" stroke-width="2.84" points="268.94,-406.56 270.47,-396.08 262.74,-403.32 268.94,-406.56"/>
<text text-anchor="middle" x="226.5" y="-500.8" font-family="Times,serif" font-size="14.00">44</text>
</g>
<!-- Receive Result Appeal from Prefecture -->
<g id="node8" class="node">
<title>Receive Result Appeal from Prefecture</title>
<polygon fill="#9b9bff" stroke="black" points="514,-566 251,-566 251,-530 514,-530 514,-566"/>
<text text-anchor="middle" x="382.5" y="-544.3" font-family="Times,serif" font-size="14.00">Receive Result Appeal from Prefecture (102)</text>
</g>
<!-- Insert Date Appeal to Prefecture&#45;&gt;Receive Result Appeal from Prefecture -->
<g id="edge15" class="edge">
<title>Insert Date Appeal to Prefecture&#45;&gt;Receive Result Appeal from Prefecture</title>
<path fill="none" stroke="#000000" stroke-width="0.77" d="M258.45,-616.59C282.32,-603.59 315.15,-585.7 341.05,-571.59"/>
<polygon fill="#000000" stroke="#000000" stroke-width="0.77" points="342.46,-574.8 349.57,-566.94 339.12,-568.65 342.46,-574.8"/>
<text text-anchor="middle" x="317" y="-587.8" font-family="Times,serif" font-size="14.00">6</text>
</g>
<!-- Send Appeal to Prefecture&#45;&gt;Add penalty -->
<g id="edge6" class="edge">
<title>Send Appeal to Prefecture&#45;&gt;Add penalty</title>
<path fill="none" stroke="#000000" stroke-width="2.51" d="M114.05,-442.59C129.83,-430.09 150.07,-414.67 159.5,-410 175.23,-402.2 192.99,-395.86 209.99,-390.84"/>
<polygon fill="#000000" stroke="#000000" stroke-width="2.51" points="210.76,-394.26 219.44,-388.19 208.87,-387.52 210.76,-394.26"/>
<text text-anchor="middle" x="166.5" y="-413.8" font-family="Times,serif" font-size="14.00">38</text>
</g>
<!-- Send Appeal to Prefecture&#45;&gt;Receive Result Appeal from Prefecture -->
<g id="edge12" class="edge">
<title>Send Appeal to Prefecture&#45;&gt;Receive Result Appeal from Prefecture</title>
<path fill="none" stroke="#000000" stroke-width="3.22" d="M185.26,-473.77C212.39,-479 241.68,-486.46 267.5,-497 278.8,-501.61 279.62,-506.47 290.5,-512 299,-516.32 308.16,-520.42 317.29,-524.19"/>
<polygon fill="#000000" stroke="#000000" stroke-width="3.22" points="315.92,-527.42 326.51,-527.85 318.5,-520.91 315.92,-527.42"/>
<text text-anchor="middle" x="297.5" y="-500.8" font-family="Times,serif" font-size="14.00">51</text>
</g>
<!-- Send for Credit Collection -->
<g id="node10" class="node">
<title>Send for Credit Collection</title>
<polygon fill="#9e9eff" stroke="black" points="384,-131 197,-131 197,-95 384,-95 384,-131"/>
<text text-anchor="middle" x="290.5" y="-109.3" font-family="Times,serif" font-size="14.00">Send for Credit Collection (98)</text>
</g>
<!-- Send Appeal to Prefecture&#45;&gt;Send for Credit Collection -->
<g id="edge28" class="edge">
<title>Send Appeal to Prefecture&#45;&gt;Send for Credit Collection</title>
<path fill="none" stroke="#ff0000" stroke-width="0.5" stroke-dasharray="5,2" d="M91.14,-442.5C88.42,-395.1 87.23,-262.39 150.5,-182 167.1,-160.91 191.89,-145.95 216.02,-135.54"/>
<polygon fill="#ff0000" stroke="#ff0000" stroke-width="0.5" points="217.3,-138.8 225.23,-131.78 214.65,-132.32 217.3,-138.8"/>
<text text-anchor="middle" x="112" y="-283.3" font-family="Times,serif" font-size="14.00">1</text>
</g>
<!-- end_node -->
<g id="node13" class="node">
<title>end_node</title>
<ellipse fill="none" stroke="black" cx="116.5" cy="-22" rx="18" ry="18"/>
<ellipse fill="none" stroke="black" cx="116.5" cy="-22" rx="22" ry="22"/>
<text text-anchor="start" x="112" y="-18.3" font-family="Times,serif" font-size="14.00">■</text>
</g>
<!-- Send Appeal to Prefecture&#45;&gt;end_node -->
<g id="edge36" class="edge">
<title>Send Appeal to Prefecture&#45;&gt;end_node</title>
<path fill="none" stroke="#000000" stroke-width="0.94" d="M59.22,-442.78C36.13,-428.2 9.5,-404.91 9.5,-375 9.5,-375 9.5,-375 9.5,-112 9.5,-72.34 53.49,-46.95 85.06,-33.83"/>
<polygon fill="#000000" stroke="#000000" stroke-width="0.94" points="86.26,-37.12 94.3,-30.22 83.71,-30.6 86.26,-37.12"/>
<text text-anchor="middle" x="13" y="-239.8" font-family="Times,serif" font-size="14.00">9</text>
</g>
<!-- Add penalty&#45;&gt;Insert Date Appeal to Prefecture -->
<g id="edge14" class="edge">
<title>Add penalty&#45;&gt;Insert Date Appeal to Prefecture</title>
<path fill="none" stroke="#ff0000" stroke-width="0.72" stroke-dasharray="5,2" d="M264.99,-392.18C245.22,-414.29 213.75,-454.88 205.5,-497 196.76,-541.59 202.12,-554.76 212.5,-599 213.06,-601.38 213.75,-603.81 214.53,-606.23"/>
<polygon fill="#ff0000" stroke="#ff0000" stroke-width="0.72" points="211.21,-607.33 217.94,-615.51 217.78,-604.92 211.21,-607.33"/>
<text text-anchor="middle" x="209" y="-500.8" font-family="Times,serif" font-size="14.00">5</text>
</g>
<!-- Add penalty&#45;&gt;Send Appeal to Prefecture -->
<g id="edge11" class="edge">
<title>Add penalty&#45;&gt;Send Appeal to Prefecture</title>
<path fill="none" stroke="#000000" stroke-width="2.62" d="M234.9,-392.35C222.22,-397.56 208.65,-403.61 196.5,-410 185.7,-415.68 184.25,-419.23 173.5,-425 165.7,-429.19 157.3,-433.27 148.96,-437.08"/>
<polygon fill="#000000" stroke="#000000" stroke-width="2.62" points="147.8,-433.76 140.07,-441.02 150.63,-440.16 147.8,-433.76"/>
<text text-anchor="middle" x="203.5" y="-413.8" font-family="Times,serif" font-size="14.00">40</text>
</g>
<!-- Add penalty&#45;&gt;Receive Result Appeal from Prefecture -->
<g id="edge7" class="edge">
<title>Add penalty&#45;&gt;Receive Result Appeal from Prefecture</title>
<path fill="none" stroke="#000000" stroke-width="2.84" d="M297.59,-392.17C302.35,-397.66 307.38,-403.9 311.5,-410 335.06,-444.93 356.47,-488.64 369.48,-517.17"/>
<polygon fill="#000000" stroke="#000000" stroke-width="2.84" points="366.12,-518.23 373.4,-525.92 372.5,-515.37 366.12,-518.23"/>
<text text-anchor="middle" x="357.5" y="-457.3" font-family="Times,serif" font-size="14.00">44</text>
</g>
<!-- Notify Result Appeal to Offender -->
<g id="node9" class="node">
<title>Notify Result Appeal to Offender</title>
<polygon fill="#9b9bff" stroke="black" points="379.5,-305 147.5,-305 147.5,-269 379.5,-269 379.5,-305"/>
<text text-anchor="middle" x="263.5" y="-283.3" font-family="Times,serif" font-size="14.00">Notify Result Appeal to Offender (102)</text>
</g>
<!-- Add penalty&#45;&gt;Notify Result Appeal to Offender -->
<g id="edge17" class="edge">
<title>Add penalty&#45;&gt;Notify Result Appeal to Offender</title>
<path fill="none" stroke="#000000" stroke-width="1.04" d="M265.92,-355.65C262.09,-350.35 258.51,-344.26 256.5,-338 254.34,-331.26 254.24,-323.8 255.11,-316.75"/>
<polygon fill="#000000" stroke="#000000" stroke-width="1.04" points="258.53,-317.49 257.01,-307 251.66,-316.15 258.53,-317.49"/>
<text text-anchor="middle" x="263.5" y="-326.8" font-family="Times,serif" font-size="14.00">11</text>
</g>
<!-- Add penalty&#45;&gt;Send for Credit Collection -->
<g id="edge21" class="edge">
<title>Add penalty&#45;&gt;Send for Credit Collection</title>
<path fill="none" stroke="#ff0000" stroke-width="0.55" stroke-dasharray="5,2" d="M316.38,-355.71C338.67,-343.55 367.26,-325.78 388.5,-305 421.72,-272.5 433.03,-262.48 446.5,-218 451.14,-202.69 455.27,-195.38 446.5,-182 432.27,-160.28 409.43,-145.46 385.56,-135.36"/>
<polygon fill="#ff0000" stroke="#ff0000" stroke-width="0.55" points="387.02,-132.17 376.43,-131.75 384.45,-138.68 387.02,-132.17"/>
<text text-anchor="middle" x="443" y="-239.8" font-family="Times,serif" font-size="14.00">2</text>
</g>
<!-- Receive Result Appeal from Prefecture&#45;&gt;Send Appeal to Prefecture -->
<g id="edge31" class="edge">
<title>Receive Result Appeal from Prefecture&#45;&gt;Send Appeal to Prefecture</title>
<path fill="none" stroke="#ff0000" stroke-width="0.5" stroke-dasharray="5,2" d="M311.31,-529.51C294.99,-524.6 277.91,-518.74 262.5,-512 250.63,-506.81 249.49,-501.91 237.5,-497 223.58,-491.3 208.51,-486.38 193.53,-482.19"/>
<polygon fill="#ff0000" stroke="#ff0000" stroke-width="0.5" points="194.48,-478.82 183.92,-479.6 192.66,-485.58 194.48,-478.82"/>
<text text-anchor="middle" x="266" y="-500.8" font-family="Times,serif" font-size="14.00">1</text>
</g>
<!-- Receive Result Appeal from Prefecture&#45;&gt;Add penalty -->
<g id="edge22" class="edge">
<title>Receive Result Appeal from Prefecture&#45;&gt;Add penalty</title>
<path fill="none" stroke="#000000" stroke-width="0.94" d="M363.04,-529.52C349.62,-516.63 332.17,-498.08 320.5,-479 305.91,-455.16 295.34,-424.97 288.92,-403.27"/>
<polygon fill="#000000" stroke="#000000" stroke-width="0.94" points="292.34,-402.51 286.24,-393.84 285.6,-404.42 292.34,-402.51"/>
<text text-anchor="middle" x="324" y="-457.3" font-family="Times,serif" font-size="14.00">9</text>
</g>
<!-- Receive Result Appeal from Prefecture&#45;&gt;Notify Result Appeal to Offender -->
<g id="edge8" class="edge">
<title>Receive Result Appeal from Prefecture&#45;&gt;Notify Result Appeal to Offender</title>
<path fill="none" stroke="#000000" stroke-width="5.35" d="M390.52,-529.63C408.06,-488.77 444.55,-385.34 396.5,-323 392.94,-318.39 385.91,-314.26 376.85,-310.6"/>
<polygon fill="#000000" stroke="#000000" stroke-width="5.35" points="378.68,-306.28 367.7,-307.46 375.64,-315.13 378.68,-306.28"/>
<text text-anchor="middle" x="426.5" y="-413.8" font-family="Times,serif" font-size="14.00">90</text>
</g>
<!-- Receive Result Appeal from Prefecture&#45;&gt;Send for Credit Collection -->
<g id="edge19" class="edge">
<title>Receive Result Appeal from Prefecture&#45;&gt;Send for Credit Collection</title>
<path fill="none" stroke="#ff0000" stroke-width="0.5" stroke-dasharray="5,2" d="M409.29,-529.69C448.4,-502.08 516.5,-444.08 516.5,-375 516.5,-375 516.5,-375 516.5,-199 516.5,-170.62 453.26,-148.48 393.69,-133.92"/>
<polygon fill="#ff0000" stroke="#ff0000" stroke-width="0.5" points="394.68,-130.56 384.14,-131.64 393.05,-137.37 394.68,-130.56"/>
<text text-anchor="middle" x="520" y="-326.8" font-family="Times,serif" font-size="14.00">1</text>
</g>
<!-- Appeal to Judge -->
<g id="node11" class="node">
<title>Appeal to Judge</title>
<polygon fill="#f7f7ff" stroke="black" points="285,-218 160,-218 160,-182 285,-182 285,-218"/>
<text text-anchor="middle" x="222.5" y="-196.3" font-family="Times,serif" font-size="14.00">Appeal to Judge (9)</text>
</g>
<!-- Receive Result Appeal from Prefecture&#45;&gt;Appeal to Judge -->
<g id="edge33" class="edge">
<title>Receive Result Appeal from Prefecture&#45;&gt;Appeal to Judge</title>
<path fill="none" stroke="#ff0000" stroke-width="0.5" stroke-dasharray="5,2" d="M399.88,-529.79C404.72,-524.4 409.68,-518.23 413.5,-512 449.96,-452.54 450.4,-422.84 430.5,-356 413.19,-297.87 415.6,-270.19 365.5,-236 339.84,-218.49 326.44,-224.63 295.63,-218.95"/>
<polygon fill="#ff0000" stroke="#ff0000" stroke-width="0.5" points="296.73,-215.61 286.22,-216.93 295.26,-222.45 296.73,-215.61"/>
<text text-anchor="middle" x="443" y="-370.3" font-family="Times,serif" font-size="14.00">1</text>
</g>
<!-- Notify Result Appeal to Offender&#45;&gt;Send Appeal to Prefecture -->
<g id="edge27" class="edge">
<title>Notify Result Appeal to Offender&#45;&gt;Send Appeal to Prefecture</title>
<path fill="none" stroke="#ff0000" stroke-width="0.5" stroke-dasharray="5,2" d="M245.63,-305.16C221.33,-328.58 176.65,-371.99 139.5,-410 131.63,-418.05 123.17,-426.97 115.62,-435.02"/>
<polygon fill="#ff0000" stroke="#ff0000" stroke-width="0.5" points="113.22,-432.47 108.95,-442.17 118.33,-437.24 113.22,-432.47"/>
<text text-anchor="middle" x="195" y="-370.3" font-family="Times,serif" font-size="14.00">1</text>
</g>
<!-- Notify Result Appeal to Offender&#45;&gt;Add penalty -->
<g id="edge20" class="edge">
<title>Notify Result Appeal to Offender&#45;&gt;Add penalty</title>
<path fill="none" stroke="#ff0000" stroke-width="0.55" stroke-dasharray="5,2" d="M267.2,-305.47C269.64,-316.97 272.88,-332.28 275.66,-345.41"/>
<polygon fill="#ff0000" stroke="#ff0000" stroke-width="0.55" points="272.19,-345.92 277.68,-354.98 279.04,-344.47 272.19,-345.92"/>
<text text-anchor="middle" x="277" y="-326.8" font-family="Times,serif" font-size="14.00">2</text>
</g>
<!-- Notify Result Appeal to Offender&#45;&gt;Receive Result Appeal from Prefecture -->
<g id="edge18" class="edge">
<title>Notify Result Appeal to Offender&#45;&gt;Receive Result Appeal from Prefecture</title>
<path fill="none" stroke="#ff0000" stroke-width="0.5" stroke-dasharray="5,2" d="M294.25,-305.27C312.71,-317.2 335.13,-334.72 348.5,-356 380.47,-406.87 384.39,-479.59 383.83,-519.01"/>
<polygon fill="#ff0000" stroke="#ff0000" stroke-width="0.5" points="380.34,-518.81 383.58,-528.9 387.34,-518.99 380.34,-518.81"/>
<text text-anchor="middle" x="378" y="-413.8" font-family="Times,serif" font-size="14.00">1</text>
</g>
<!-- Notify Result Appeal to Offender&#45;&gt;Send for Credit Collection -->
<g id="edge9" class="edge">
<title>Notify Result Appeal to Offender&#45;&gt;Send for Credit Collection</title>
<path fill="none" stroke="#000000" stroke-width="5.24" d="M273.99,-268.55C281.35,-255.22 290.56,-236.13 294.5,-218 299.57,-194.67 298.34,-167.71 295.96,-147.09"/>
<polygon fill="#000000" stroke="#000000" stroke-width="5.24" points="300.53,-146.67 294.62,-137.39 291.45,-147.92 300.53,-146.67"/>
<text text-anchor="middle" x="304.5" y="-196.3" font-family="Times,serif" font-size="14.00">88</text>
</g>
<!-- Notify Result Appeal to Offender&#45;&gt;Appeal to Judge -->
<g id="edge23" class="edge">
<title>Notify Result Appeal to Offender&#45;&gt;Appeal to Judge</title>
<path fill="none" stroke="#000000" stroke-width="0.88" d="M240.89,-268.76C235.65,-263.63 230.68,-257.59 227.5,-251 224.35,-244.48 222.72,-236.93 221.95,-229.71"/>
<polygon fill="#000000" stroke="#000000" stroke-width="0.88" points="225.45,-229.59 221.43,-219.79 218.46,-229.96 225.45,-229.59"/>
<text text-anchor="middle" x="231" y="-239.8" font-family="Times,serif" font-size="14.00">8</text>
</g>
<!-- Payment -->
<g id="node12" class="node">
<title>Payment</title>
<polygon fill="#ffffff" stroke="black" points="437.5,-218 353.5,-218 353.5,-182 437.5,-182 437.5,-218"/>
<text text-anchor="middle" x="395.5" y="-196.3" font-family="Times,serif" font-size="14.00">Payment (1)</text>
</g>
<!-- Notify Result Appeal to Offender&#45;&gt;Payment -->
<g id="edge29" class="edge">
<title>Notify Result Appeal to Offender&#45;&gt;Payment</title>
<path fill="none" stroke="#ff0000" stroke-width="0.5" stroke-dasharray="5,2" d="M303.68,-268.59C314.31,-263.42 325.58,-257.41 335.5,-251 347.07,-243.53 358.9,-234.11 368.97,-225.48"/>
<polygon fill="#ff0000" stroke="#ff0000" stroke-width="0.5" points="371.18,-228.19 376.39,-218.96 366.57,-222.92 371.18,-228.19"/>
<text text-anchor="middle" x="358" y="-239.8" font-family="Times,serif" font-size="14.00">1</text>
</g>
<!-- Notify Result Appeal to Offender&#45;&gt;end_node -->
<g id="edge38" class="edge">
<title>Notify Result Appeal to Offender&#45;&gt;end_node</title>
<path fill="none" stroke="#ff0000" stroke-width="0.5" stroke-dasharray="5,2" d="M216.01,-268.55C192.7,-257.56 166.29,-241.04 150.5,-218 116.6,-168.54 113.12,-95.9 114.34,-54.67"/>
<polygon fill="#ff0000" stroke="#ff0000" stroke-width="0.5" points="117.82,-55.05 114.74,-44.92 110.83,-54.76 117.82,-55.05"/>
<text text-anchor="middle" x="130" y="-152.8" font-family="Times,serif" font-size="14.00">1</text>
</g>
<!-- Send for Credit Collection&#45;&gt;Send Appeal to Prefecture -->
<g id="edge16" class="edge">
<title>Send for Credit Collection&#45;&gt;Send Appeal to Prefecture</title>
<path fill="none" stroke="#000000" stroke-width="0.94" d="M196.84,-131.3C161.2,-138.24 127.24,-145.43 119.5,-149 86.73,-164.13 55.5,-162.9 55.5,-199 55.5,-375 55.5,-375 55.5,-375 55.5,-395.79 64.92,-417.25 74.26,-433.4"/>
<polygon fill="#000000" stroke="#000000" stroke-width="0.94" points="71.02,-434.81 79.23,-441.51 76.99,-431.15 71.02,-434.81"/>
<text text-anchor="middle" x="59" y="-283.3" font-family="Times,serif" font-size="14.00">9</text>
</g>
<!-- Send for Credit Collection&#45;&gt;end_node -->
<g id="edge35" class="edge">
<title>Send for Credit Collection&#45;&gt;end_node</title>
<path fill="none" stroke="#000000" stroke-width="5.29" d="M256.54,-94.63C225.74,-78.88 180.61,-55.79 149.96,-40.12"/>
<polygon fill="#000000" stroke="#000000" stroke-width="5.29" points="152.43,-36.18 141.42,-35.75 148.22,-44.42 152.43,-36.18"/>
<text text-anchor="middle" x="225.5" y="-65.8" font-family="Times,serif" font-size="14.00">89</text>
</g>
<!-- Appeal to Judge&#45;&gt;Notify Result Appeal to Offender -->
<g id="edge34" class="edge">
<title>Appeal to Judge&#45;&gt;Notify Result Appeal to Offender</title>
<path fill="none" stroke="#ff0000" stroke-width="0.5" stroke-dasharray="5,2" d="M230.93,-218.47C236.59,-230.2 244.15,-245.89 250.57,-259.2"/>
<polygon fill="#ff0000" stroke="#ff0000" stroke-width="0.5" points="247.38,-260.63 254.87,-268.12 253.68,-257.59 247.38,-260.63"/>
<text text-anchor="middle" x="248" y="-239.8" font-family="Times,serif" font-size="14.00">1</text>
</g>
<!-- Appeal to Judge&#45;&gt;Send for Credit Collection -->
<g id="edge24" class="edge">
<title>Appeal to Judge&#45;&gt;Send for Credit Collection</title>
<path fill="none" stroke="#ff0000" stroke-width="0.72" stroke-dasharray="5,2" d="M236.26,-181.8C245.87,-169.78 258.88,-153.52 269.75,-139.94"/>
<polygon fill="#ff0000" stroke="#ff0000" stroke-width="0.72" points="272.33,-142.31 275.85,-132.32 266.87,-137.94 272.33,-142.31"/>
<text text-anchor="middle" x="264" y="-152.8" font-family="Times,serif" font-size="14.00">5</text>
</g>
<!-- Appeal to Judge&#45;&gt;end_node -->
<g id="edge37" class="edge">
<title>Appeal to Judge&#45;&gt;end_node</title>
<path fill="none" stroke="#ff0000" stroke-width="0.61" stroke-dasharray="5,2" d="M212.05,-181.67C203.76,-167.93 191.89,-148.24 181.5,-131 165.05,-103.69 146.27,-72.49 133.14,-50.67"/>
<polygon fill="#ff0000" stroke="#ff0000" stroke-width="0.61" points="136.17,-48.9 128.01,-42.14 130.17,-52.51 136.17,-48.9"/>
<text text-anchor="middle" x="185" y="-109.3" font-family="Times,serif" font-size="14.00">3</text>
</g>
<!-- Payment&#45;&gt;Send for Credit Collection -->
<g id="edge30" class="edge">
<title>Payment&#45;&gt;Send for Credit Collection</title>
<path fill="none" stroke="#ff0000" stroke-width="0.5" stroke-dasharray="5,2" d="M375.09,-181.7C363.55,-171.99 348.81,-159.71 335.5,-149 330.97,-145.35 326.15,-141.54 321.41,-137.82"/>
<polygon fill="#ff0000" stroke="#ff0000" stroke-width="0.5" points="323.68,-135.15 313.65,-131.76 319.38,-140.67 323.68,-135.15"/>
<text text-anchor="middle" x="357" y="-152.8" font-family="Times,serif" font-size="14.00">1</text>
</g>
</g>
</svg>
