<?xml version="1.0" encoding="UTF-8" standalone="no"?>
<!DOCTYPE svg PUBLIC "-//W3C//DTD SVG 1.1//EN"
 "http://www.w3.org/Graphics/SVG/1.1/DTD/svg11.dtd">
<!-- Generated by graphviz version 7.0.5 (0)
 -->
<!-- Title: dfg Pages: 1 -->
<svg width="967pt" height="856pt"
 viewBox="0.00 0.00 966.50 856.00" xmlns="http://www.w3.org/2000/svg" xmlns:xlink="http://www.w3.org/1999/xlink">
<g id="graph0" class="graph" transform="scale(1 1) rotate(0) translate(4 852)">
<title>dfg</title>
<polygon fill="white" stroke="none" points="-4,4 -4,-852 962.5,-852 962.5,4 -4,4"/>
<!-- start_node -->
<g id="node1" class="node">
<title>start_node</title>
<ellipse fill="none" stroke="black" cx="635" cy="-830" rx="18" ry="18"/>
<text text-anchor="start" x="630.5" y="-826.3" font-family="Times,serif" font-size="14.00">●</text>
</g>
<!-- Create Fine -->
<g id="node2" class="node">
<title>Create Fine</title>
<polygon fill="#9b9bff" stroke="black" points="691.5,-761 578.5,-761 578.5,-725 691.5,-725 691.5,-761"/>
<text text-anchor="middle" x="635" y="-739.3" font-family="Times,serif" font-size="14.00">Create Fine (850)</text>
</g>
<!-- start_node&#45;&gt;Create Fine -->
<g id="edge1" class="edge">
<title>start_node&#45;&gt;Create Fine</title>
<path fill="none" stroke="#000000" stroke-width="6.07" d="M635,-811.8C635,-801.96 635,-789.27 635,-777.53"/>
<polygon fill="#000000" stroke="#000000" stroke-width="6.07" points="640.31,-777.94 635,-767.94 629.69,-777.94 640.31,-777.94"/>
<text text-anchor="middle" x="645.5" y="-782.8" font-family="Times,serif" font-size="14.00">850</text>
</g>
<!-- Send Fine -->
<g id="node3" class="node">
<title>Send Fine</title>
<polygon fill="#9c9cff" stroke="black" points="687,-674 583,-674 583,-638 687,-638 687,-674"/>
<text text-anchor="middle" x="635" y="-652.3" font-family="Times,serif" font-size="14.00">Send Fine (840)</text>
</g>
<!-- Create Fine&#45;&gt;Send Fine -->
<g id="edge2" class="edge">
<title>Create Fine&#45;&gt;Send Fine</title>
<path fill="none" stroke="#000000" stroke-width="6" d="M635,-724.8C635,-714.96 635,-702.27 635,-690.53"/>
<polygon fill="#000000" stroke="#000000" stroke-width="6" points="640.25,-690.92 635,-680.92 629.75,-690.92 640.25,-690.92"/>
<text text-anchor="middle" x="645.5" y="-695.8" font-family="Times,serif" font-size="14.00">839</text>
</g>
<!-- Payment -->
<g id="node9" class="node">
<title>Payment</title>
<polygon fill="#f0f0ff" stroke="black" points="290,-218 192,-218 192,-182 290,-182 290,-218"/>
<text text-anchor="middle" x="241" y="-196.3" font-family="Times,serif" font-size="14.00">Payment (126)</text>
</g>
<!-- Create Fine&#45;&gt;Payment -->
<g id="edge12" class="edge">
<title>Create Fine&#45;&gt;Payment</title>
<path fill="none" stroke="#ff0000" stroke-width="0.56" stroke-dasharray="5,2" d="M578.09,-740.31C422.23,-734.95 0,-715.05 0,-657 0,-657 0,-657 0,-524.5 0,-457.47 36.93,-279.41 88,-236 113.63,-214.22 150.12,-205.3 181.03,-201.91"/>
<polygon fill="#ff0000" stroke="#ff0000" stroke-width="0.56" points="181.23,-205.41 190.87,-201.01 180.59,-198.44 181.23,-205.41"/>
<text text-anchor="middle" x="13" y="-478.3" font-family="Times,serif" font-size="14.00">10</text>
</g>
<!-- Appeal to Judge -->
<g id="node10" class="node">
<title>Appeal to Judge</title>
<polygon fill="#fdfdff" stroke="black" points="958.5,-413 827.5,-413 827.5,-377 958.5,-377 958.5,-413"/>
<text text-anchor="middle" x="893" y="-391.3" font-family="Times,serif" font-size="14.00">Appeal to Judge (15)</text>
</g>
<!-- Create Fine&#45;&gt;Appeal to Judge -->
<g id="edge20" class="edge">
<title>Create Fine&#45;&gt;Appeal to Judge</title>
<path fill="none" stroke="#ff0000" stroke-width="0.5" stroke-dasharray="5,2" d="M691.78,-734.52C766.37,-723.08 888,-698.12 888,-657 888,-657 888,-657 888,-481 888,-461.9 889.27,-440.43 890.53,-423.85"/>
<polygon fill="#ff0000" stroke="#ff0000" stroke-width="0.5" points="894.01,-424.24 891.33,-413.99 887.04,-423.68 894.01,-424.24"/>
<text text-anchor="middle" x="891.5" y="-565.3" font-family="Times,serif" font-size="14.00">1</text>
</g>
<!-- Insert Fine Notification -->
<g id="node4" class="node">
<title>Insert Fine Notification</title>
<polygon fill="#afafff" stroke="black" points="723.5,-587 546.5,-587 546.5,-551 723.5,-551 723.5,-587"/>
<text text-anchor="middle" x="635" y="-565.3" font-family="Times,serif" font-size="14.00">Insert Fine Notification (680)</text>
</g>
<!-- Send Fine&#45;&gt;Insert Fine Notification -->
<g id="edge3" class="edge">
<title>Send Fine&#45;&gt;Insert Fine Notification</title>
<path fill="none" stroke="#000000" stroke-width="4.96" d="M635,-637.8C635,-627.96 635,-615.27 635,-603.53"/>
<polygon fill="#000000" stroke="#000000" stroke-width="4.96" points="639.34,-603.7 635,-593.7 630.66,-603.7 639.34,-603.7"/>
<text text-anchor="middle" x="645.5" y="-608.8" font-family="Times,serif" font-size="14.00">680</text>
</g>
<!-- Insert Date Appeal to Prefecture -->
<g id="node7" class="node">
<title>Insert Date Appeal to Prefecture</title>
<polygon fill="#f7f7ff" stroke="black" points="809,-413 591,-413 591,-377 809,-377 809,-413"/>
<text text-anchor="middle" x="700" y="-391.3" font-family="Times,serif" font-size="14.00">Insert Date Appeal to Prefecture (62)</text>
</g>
<!-- Send Fine&#45;&gt;Insert Date Appeal to Prefecture -->
<g id="edge25" class="edge">
<title>Send Fine&#45;&gt;Insert Date Appeal to Prefecture</title>
<path fill="none" stroke="#ff0000" stroke-width="0.51" stroke-dasharray="5,2" d="M668.08,-637.59C688.69,-625.5 714.69,-607.85 733,-587 761.73,-554.29 767.71,-542.3 778,-500 781.78,-484.45 784.44,-478.65 778,-464 770.08,-445.99 754.66,-430.95 739.61,-419.63"/>
<polygon fill="#ff0000" stroke="#ff0000" stroke-width="0.51" points="741.65,-416.78 731.48,-413.84 737.6,-422.49 741.65,-416.78"/>
<text text-anchor="middle" x="776.5" y="-521.8" font-family="Times,serif" font-size="14.00">2</text>
</g>
<!-- Send Fine&#45;&gt;Payment -->
<g id="edge22" class="edge">
<title>Send Fine&#45;&gt;Payment</title>
<path fill="none" stroke="#ff0000" stroke-width="0.5" stroke-dasharray="5,2" d="M582.54,-652.43C444.19,-644.97 80,-620.54 80,-570 80,-570 80,-570 80,-307 80,-256.6 135.72,-228.81 181.61,-214.48"/>
<polygon fill="#ff0000" stroke="#ff0000" stroke-width="0.5" points="182.5,-217.86 191.09,-211.67 180.51,-211.15 182.5,-217.86"/>
<text text-anchor="middle" x="83.5" y="-434.8" font-family="Times,serif" font-size="14.00">1</text>
</g>
<!-- end_node -->
<g id="node13" class="node">
<title>end_node</title>
<ellipse fill="none" stroke="black" cx="377" cy="-22" rx="18" ry="18"/>
<ellipse fill="none" stroke="black" cx="377" cy="-22" rx="22" ry="22"/>
<text text-anchor="start" x="372.5" y="-18.3" font-family="Times,serif" font-size="14.00">■</text>
</g>
<!-- Send Fine&#45;&gt;end_node -->
<g id="edge30" class="edge">
<title>Send Fine&#45;&gt;end_node</title>
<path fill="none" stroke="#000000" stroke-width="1.52" d="M582.69,-653.73C473.85,-650.68 226.42,-641.55 145,-620 112.14,-611.3 98.29,-612.66 76,-587 41.15,-546.89 12.09,-411.51 4,-359 3.56,-356.14 4,-355.39 4,-352.5 4,-352.5 4,-352.5 4,-112 4,-42.76 250.22,-27.28 342.57,-23.91"/>
<polygon fill="#000000" stroke="#000000" stroke-width="1.52" points="342.6,-27.41 352.48,-23.58 342.37,-20.42 342.6,-27.41"/>
<text text-anchor="middle" x="14.5" y="-347.8" font-family="Times,serif" font-size="14.00">157</text>
</g>
<!-- Add penalty -->
<g id="node5" class="node">
<title>Add penalty</title>
<polygon fill="#afafff" stroke="black" points="619,-500 503,-500 503,-464 619,-464 619,-500"/>
<text text-anchor="middle" x="561" y="-478.3" font-family="Times,serif" font-size="14.00">Add penalty (680)</text>
</g>
<!-- Insert Fine Notification&#45;&gt;Add penalty -->
<g id="edge4" class="edge">
<title>Insert Fine Notification&#45;&gt;Add penalty</title>
<path fill="none" stroke="#000000" stroke-width="4.52" d="M620.02,-550.8C610.46,-539.81 597.81,-525.28 586.67,-512.48"/>
<polygon fill="#000000" stroke="#000000" stroke-width="4.52" points="589.79,-510.05 580.24,-505.1 583.83,-515.24 589.79,-510.05"/>
<text text-anchor="middle" x="612.5" y="-521.8" font-family="Times,serif" font-size="14.00">613</text>
</g>
<!-- Insert Fine Notification&#45;&gt;Insert Date Appeal to Prefecture -->
<g id="edge6" class="edge">
<title>Insert Fine Notification&#45;&gt;Insert Date Appeal to Prefecture</title>
<path fill="none" stroke="#000000" stroke-width="0.8" d="M637.34,-550.74C641.46,-523.94 651.61,-471.21 672,-431 673.53,-427.97 675.36,-424.96 677.33,-422.05"/>
<polygon fill="#000000" stroke="#000000" stroke-width="0.8" points="680.04,-424.27 683.22,-414.16 674.43,-420.08 680.04,-424.27"/>
<text text-anchor="middle" x="664" y="-478.3" font-family="Times,serif" font-size="14.00">47</text>
</g>
<!-- Insert Fine Notification&#45;&gt;Payment -->
<g id="edge17" class="edge">
<title>Insert Fine Notification&#45;&gt;Payment</title>
<path fill="none" stroke="#ff0000" stroke-width="0.55" stroke-dasharray="5,2" d="M546.37,-559.98C450,-547.84 294.58,-517.98 181,-446 120.63,-407.74 112.91,-355.28 142,-290 154.24,-262.54 179.6,-240.01 201.59,-224.49"/>
<polygon fill="#ff0000" stroke="#ff0000" stroke-width="0.55" points="203.45,-227.45 209.76,-218.94 199.52,-221.66 203.45,-227.45"/>
<text text-anchor="middle" x="147.5" y="-391.3" font-family="Times,serif" font-size="14.00">8</text>
</g>
<!-- Insert Fine Notification&#45;&gt;Appeal to Judge -->
<g id="edge13" class="edge">
<title>Insert Fine Notification&#45;&gt;Appeal to Judge</title>
<path fill="none" stroke="#ff0000" stroke-width="0.57" stroke-dasharray="5,2" d="M656.62,-550.59C690.95,-523.35 760.54,-469.76 824,-431 831.09,-426.67 838.79,-422.39 846.38,-418.38"/>
<polygon fill="#ff0000" stroke="#ff0000" stroke-width="0.57" points="847.84,-421.57 855.12,-413.87 844.63,-415.35 847.84,-421.57"/>
<text text-anchor="middle" x="777" y="-478.3" font-family="Times,serif" font-size="14.00">12</text>
</g>
<!-- Send for Credit Collection -->
<g id="node6" class="node">
<title>Send for Credit Collection</title>
<polygon fill="#bebeff" stroke="black" points="320,-131 126,-131 126,-95 320,-95 320,-131"/>
<text text-anchor="middle" x="223" y="-109.3" font-family="Times,serif" font-size="14.00">Send for Credit Collection (548)</text>
</g>
<!-- Add penalty&#45;&gt;Send for Credit Collection -->
<g id="edge5" class="edge">
<title>Add penalty&#45;&gt;Send for Credit Collection</title>
<path fill="none" stroke="#000000" stroke-width="4.05" d="M502.56,-479.82C417.32,-477.3 263.64,-469.55 214,-446 185.61,-432.53 164,-427.43 164,-396 164,-396 164,-396 164,-199 164,-177.6 176.78,-157.7 190.44,-142.55"/>
<polygon fill="#000000" stroke="#000000" stroke-width="4.05" points="192.61,-145.4 197.11,-135.8 187.56,-140.43 192.61,-145.4"/>
<text text-anchor="middle" x="174.5" y="-304.3" font-family="Times,serif" font-size="14.00">542</text>
</g>
<!-- Add penalty&#45;&gt;Insert Date Appeal to Prefecture -->
<g id="edge10" class="edge">
<title>Add penalty&#45;&gt;Insert Date Appeal to Prefecture</title>
<path fill="none" stroke="#ff0000" stroke-width="0.58" stroke-dasharray="5,2" d="M567.13,-463.97C571.84,-453.12 579.36,-439.55 590,-431 596.32,-425.93 603.38,-421.58 610.8,-417.86"/>
<polygon fill="#ff0000" stroke="#ff0000" stroke-width="0.58" points="611.93,-421.2 619.56,-413.85 609.02,-414.83 611.93,-421.2"/>
<text text-anchor="middle" x="597" y="-434.8" font-family="Times,serif" font-size="14.00">13</text>
</g>
<!-- Send Appeal to Prefecture -->
<g id="node8" class="node">
<title>Send Appeal to Prefecture</title>
<polygon fill="#f7f7ff" stroke="black" points="650.5,-326 465.5,-326 465.5,-290 650.5,-290 650.5,-326"/>
<text text-anchor="middle" x="558" y="-304.3" font-family="Times,serif" font-size="14.00">Send Appeal to Prefecture (62)</text>
</g>
<!-- Add penalty&#45;&gt;Send Appeal to Prefecture -->
<g id="edge8" class="edge">
<title>Add penalty&#45;&gt;Send Appeal to Prefecture</title>
<path fill="none" stroke="#000000" stroke-width="0.8" d="M560.7,-463.56C560.18,-433.94 559.13,-373.54 558.5,-337.64"/>
<polygon fill="#000000" stroke="#000000" stroke-width="0.8" points="562,-337.64 558.33,-327.7 555,-337.76 562,-337.64"/>
<text text-anchor="middle" x="566" y="-391.3" font-family="Times,serif" font-size="14.00">47</text>
</g>
<!-- Add penalty&#45;&gt;Payment -->
<g id="edge9" class="edge">
<title>Add penalty&#45;&gt;Payment</title>
<path fill="none" stroke="#000000" stroke-width="0.99" d="M502.76,-478.51C413.41,-474.15 250.69,-463.84 231,-446 170.31,-391.01 206.49,-280.3 228.21,-228.68"/>
<polygon fill="#000000" stroke="#000000" stroke-width="0.99" points="231.35,-230.25 232.12,-219.68 224.93,-227.46 231.35,-230.25"/>
<text text-anchor="middle" x="205" y="-347.8" font-family="Times,serif" font-size="14.00">75</text>
</g>
<!-- Add penalty&#45;&gt;Appeal to Judge -->
<g id="edge19" class="edge">
<title>Add penalty&#45;&gt;Appeal to Judge</title>
<path fill="none" stroke="#ff0000" stroke-width="0.51" stroke-dasharray="5,2" d="M619.35,-467.8C655.94,-459.36 697.7,-449.4 706,-446 717.99,-441.09 718.93,-435.71 731,-431 764.98,-417.73 777.49,-420.76 816.85,-413.12"/>
<polygon fill="#ff0000" stroke="#ff0000" stroke-width="0.51" points="817.33,-416.59 826.41,-411.15 815.91,-409.74 817.33,-416.59"/>
<text text-anchor="middle" x="734.5" y="-434.8" font-family="Times,serif" font-size="14.00">2</text>
</g>
<!-- Receive Result Appeal from Prefecture -->
<g id="node11" class="node">
<title>Receive Result Appeal from Prefecture</title>
<polygon fill="#ffffff" stroke="black" points="523,-413 273,-413 273,-377 523,-377 523,-413"/>
<text text-anchor="middle" x="398" y="-391.3" font-family="Times,serif" font-size="14.00">Receive Result Appeal from Prefecture (1)</text>
</g>
<!-- Add penalty&#45;&gt;Receive Result Appeal from Prefecture -->
<g id="edge23" class="edge">
<title>Add penalty&#45;&gt;Receive Result Appeal from Prefecture</title>
<path fill="none" stroke="#ff0000" stroke-width="0.5" stroke-dasharray="5,2" d="M527.62,-463.59C502.46,-450.47 467.76,-432.38 440.6,-418.21"/>
<polygon fill="#ff0000" stroke="#ff0000" stroke-width="0.5" points="442.49,-415.25 432.01,-413.73 439.25,-421.46 442.49,-415.25"/>
<text text-anchor="middle" x="492.5" y="-434.8" font-family="Times,serif" font-size="14.00">1</text>
</g>
<!-- Send for Credit Collection&#45;&gt;end_node -->
<g id="edge27" class="edge">
<title>Send for Credit Collection&#45;&gt;end_node</title>
<path fill="none" stroke="#000000" stroke-width="4.09" d="M253.06,-94.63C279.35,-79.43 317.45,-57.41 344.46,-41.81"/>
<polygon fill="#000000" stroke="#000000" stroke-width="4.09" points="346.05,-45.02 352.92,-36.92 342.47,-38.82 346.05,-45.02"/>
<text text-anchor="middle" x="320.5" y="-65.8" font-family="Times,serif" font-size="14.00">548</text>
</g>
<!-- Insert Date Appeal to Prefecture&#45;&gt;Add penalty -->
<g id="edge7" class="edge">
<title>Insert Date Appeal to Prefecture&#45;&gt;Add penalty</title>
<path fill="none" stroke="#000000" stroke-width="0.8" d="M662.33,-413.42C651.69,-418.72 640.22,-424.8 630,-431 617.13,-438.81 603.58,-448.32 591.93,-456.93"/>
<polygon fill="#000000" stroke="#000000" stroke-width="0.8" points="589.92,-454.07 584.02,-462.87 594.12,-459.67 589.92,-454.07"/>
<text text-anchor="middle" x="637" y="-434.8" font-family="Times,serif" font-size="14.00">47</text>
</g>
<!-- Insert Date Appeal to Prefecture&#45;&gt;Send Appeal to Prefecture -->
<g id="edge11" class="edge">
<title>Insert Date Appeal to Prefecture&#45;&gt;Send Appeal to Prefecture</title>
<path fill="none" stroke="#ff0000" stroke-width="0.59" stroke-dasharray="5,2" d="M670.92,-376.59C649.38,-363.7 619.83,-346.01 596.36,-331.96"/>
<polygon fill="#ff0000" stroke="#ff0000" stroke-width="0.59" points="598.19,-328.98 587.81,-326.84 594.59,-334.98 598.19,-328.98"/>
<text text-anchor="middle" x="644" y="-347.8" font-family="Times,serif" font-size="14.00">15</text>
</g>
<!-- Send Appeal to Prefecture&#45;&gt;Payment -->
<g id="edge26" class="edge">
<title>Send Appeal to Prefecture&#45;&gt;Payment</title>
<path fill="none" stroke="#ff0000" stroke-width="0.5" stroke-dasharray="5,2" d="M547.01,-289.63C533.99,-269.15 513.7,-237.68 511,-236 477.02,-214.81 369.74,-206.34 301.08,-203.03"/>
<polygon fill="#ff0000" stroke="#ff0000" stroke-width="0.5" points="301.32,-199.54 291.17,-202.58 301,-206.53 301.32,-199.54"/>
<text text-anchor="middle" x="537.5" y="-250.3" font-family="Times,serif" font-size="14.00">1</text>
</g>
<!-- Send Appeal to Prefecture&#45;&gt;end_node -->
<g id="edge28" class="edge">
<title>Send Appeal to Prefecture&#45;&gt;end_node</title>
<path fill="none" stroke="#000000" stroke-width="0.89" d="M556.55,-289.67C554.8,-274.85 551.02,-253.25 543,-236 506.62,-157.74 436.73,-81.9 400.33,-45.46"/>
<polygon fill="#000000" stroke="#000000" stroke-width="0.89" points="403.21,-43.38 393.64,-38.83 398.28,-48.36 403.21,-43.38"/>
<text text-anchor="middle" x="506" y="-152.8" font-family="Times,serif" font-size="14.00">61</text>
</g>
<!-- Payment&#45;&gt;Add penalty -->
<g id="edge18" class="edge">
<title>Payment&#45;&gt;Add penalty</title>
<path fill="none" stroke="#ff0000" stroke-width="0.55" stroke-dasharray="5,2" d="M240.41,-218.18C239.21,-263.43 238.54,-384.37 264,-413 293.75,-446.46 414.03,-465.4 492.1,-474.4"/>
<polygon fill="#ff0000" stroke="#ff0000" stroke-width="0.55" points="491.67,-477.87 502,-475.51 492.45,-470.91 491.67,-477.87"/>
<text text-anchor="middle" x="250.5" y="-347.8" font-family="Times,serif" font-size="14.00">8</text>
</g>
<!-- Payment&#45;&gt;Send for Credit Collection -->
<g id="edge16" class="edge">
<title>Payment&#45;&gt;Send for Credit Collection</title>
<path fill="none" stroke="#ff0000" stroke-width="0.53" stroke-dasharray="5,2" d="M237.36,-181.8C234.93,-170.35 231.69,-155.06 228.91,-141.89"/>
<polygon fill="#ff0000" stroke="#ff0000" stroke-width="0.53" points="232.36,-141.31 226.87,-132.26 225.51,-142.76 232.36,-141.31"/>
<text text-anchor="middle" x="237.5" y="-152.8" font-family="Times,serif" font-size="14.00">6</text>
</g>
<!-- Payment&#45;&gt;Payment -->
<g id="edge15" class="edge">
<title>Payment&#45;&gt;Payment</title>
<path fill="none" stroke="#ff0000" stroke-width="0.7" stroke-dasharray="5,2" d="M290.38,-207.87C300.63,-207.04 308,-204.42 308,-200 308,-197.38 305.4,-195.39 301.14,-194.03"/>
<polygon fill="#ff0000" stroke="#ff0000" stroke-width="0.7" points="301.87,-190.6 291.42,-192.31 300.66,-197.5 301.87,-190.6"/>
<text text-anchor="middle" x="315" y="-196.3" font-family="Times,serif" font-size="14.00">31</text>
</g>
<!-- Payment&#45;&gt;end_node -->
<g id="edge29" class="edge">
<title>Payment&#45;&gt;end_node</title>
<path fill="none" stroke="#000000" stroke-width="1.03" d="M270.61,-181.53C289.31,-169.29 312.9,-151.5 329,-131 346.99,-108.08 359.79,-77.36 367.63,-54.54"/>
<polygon fill="#000000" stroke="#000000" stroke-width="1.03" points="370.9,-55.79 370.69,-45.2 364.25,-53.61 370.9,-55.79"/>
<text text-anchor="middle" x="358" y="-109.3" font-family="Times,serif" font-size="14.00">81</text>
</g>
<!-- Appeal to Judge&#45;&gt;Send Fine -->
<g id="edge21" class="edge">
<title>Appeal to Judge&#45;&gt;Send Fine</title>
<path fill="none" stroke="#ff0000" stroke-width="0.5" stroke-dasharray="5,2" d="M883.31,-413.34C863.19,-448.46 814.22,-529.55 760,-587 743.71,-604.26 738.45,-607.95 718,-620 709.79,-624.84 700.78,-629.36 691.82,-633.44"/>
<polygon fill="#ff0000" stroke="#ff0000" stroke-width="0.5" points="690.6,-630.15 682.86,-637.38 693.42,-636.56 690.6,-630.15"/>
<text text-anchor="middle" x="818.5" y="-521.8" font-family="Times,serif" font-size="14.00">1</text>
</g>
<!-- Appeal to Judge&#45;&gt;Add penalty -->
<g id="edge14" class="edge">
<title>Appeal to Judge&#45;&gt;Add penalty</title>
<path fill="none" stroke="#ff0000" stroke-width="0.57" stroke-dasharray="5,2" d="M827.21,-411.23C824.1,-411.85 821.02,-412.44 818,-413 762.37,-423.26 746.76,-416.83 692,-431 676.6,-434.99 642.77,-447.94 613.34,-459.66"/>
<polygon fill="#ff0000" stroke="#ff0000" stroke-width="0.57" points="612.36,-456.29 604.37,-463.25 614.96,-462.79 612.36,-456.29"/>
<text text-anchor="middle" x="699" y="-434.8" font-family="Times,serif" font-size="14.00">12</text>
</g>
<!-- Appeal to Judge&#45;&gt;end_node -->
<g id="edge31" class="edge">
<title>Appeal to Judge&#45;&gt;end_node</title>
<path fill="none" stroke="#ff0000" stroke-width="0.51" stroke-dasharray="5,2" d="M832.49,-376.54C782.6,-360.29 720,-334.77 720,-309 720,-309 720,-309 720,-112 720,-48.34 495.83,-29.44 409.94,-24.54"/>
<polygon fill="#ff0000" stroke="#ff0000" stroke-width="0.51" points="410.18,-21.05 400.01,-24 409.8,-28.04 410.18,-21.05"/>
<text text-anchor="middle" x="723.5" y="-196.3" font-family="Times,serif" font-size="14.00">2</text>
</g>
<!-- Notify Result Appeal to Offender -->
<g id="node12" class="node">
<title>Notify Result Appeal to Offender</title>
<polygon fill="#ffffff" stroke="black" points="507,-272 289,-272 289,-236 507,-236 507,-272"/>
<text text-anchor="middle" x="398" y="-250.3" font-family="Times,serif" font-size="14.00">Notify Result Appeal to Offender (1)</text>
</g>
<!-- Receive Result Appeal from Prefecture&#45;&gt;Notify Result Appeal to Offender -->
<g id="edge24" class="edge">
<title>Receive Result Appeal from Prefecture&#45;&gt;Notify Result Appeal to Offender</title>
<path fill="none" stroke="#ff0000" stroke-width="0.5" stroke-dasharray="5,2" d="M398,-376.68C398,-353.14 398,-310.78 398,-282.78"/>
<polygon fill="#ff0000" stroke="#ff0000" stroke-width="0.5" points="401.5,-282.86 398,-272.86 394.5,-282.86 401.5,-282.86"/>
<text text-anchor="middle" x="401.5" y="-347.8" font-family="Times,serif" font-size="14.00">1</text>
</g>
<!-- Notify Result Appeal to Offender&#45;&gt;end_node -->
<g id="edge32" class="edge">
<title>Notify Result Appeal to Offender&#45;&gt;end_node</title>
<path fill="none" stroke="#ff0000" stroke-width="0.5" stroke-dasharray="5,2" d="M396.42,-235.71C392.91,-197.23 384.4,-104.04 379.9,-54.77"/>
<polygon fill="#ff0000" stroke="#ff0000" stroke-width="0.5" points="383.39,-54.49 378.99,-44.85 376.42,-55.13 383.39,-54.49"/>
<text text-anchor="middle" x="393.5" y="-152.8" font-family="Times,serif" font-size="14.00">1</text>
</g>
</g>
</svg>
