<?xml version="1.0" encoding="UTF-8" standalone="no"?>
<!DOCTYPE svg PUBLIC "-//W3C//DTD SVG 1.1//EN"
 "http://www.w3.org/Graphics/SVG/1.1/DTD/svg11.dtd">
<!-- Generated by graphviz version 7.0.5 (0)
 -->
<!-- Title: dfg Pages: 1 -->
<svg width="758pt" height="1096pt"
 viewBox="0.00 0.00 758.00 1096.00" xmlns="http://www.w3.org/2000/svg" xmlns:xlink="http://www.w3.org/1999/xlink">
<g id="graph0" class="graph" transform="scale(1 1) rotate(0) translate(4 1092)">
<title>dfg</title>
<polygon fill="white" stroke="none" points="-4,4 -4,-1092 754,-1092 754,4 -4,4"/>
<!-- start_node -->
<g id="node1" class="node">
<title>start_node</title>
<ellipse fill="none" stroke="black" cx="53" cy="-1070" rx="18" ry="18"/>
<text text-anchor="start" x="48.5" y="-1066.3" font-family="Times,serif" font-size="14.00">●</text>
</g>
<!-- Create Fine -->
<g id="node2" class="node">
<title>Create Fine</title>
<polygon fill="#9b9bff" stroke="black" points="106,-1001 0,-1001 0,-965 106,-965 106,-1001"/>
<text text-anchor="middle" x="53" y="-979.3" font-family="Times,serif" font-size="14.00">Create Fine (95)</text>
</g>
<!-- start_node&#45;&gt;Create Fine -->
<g id="edge1" class="edge">
<title>start_node&#45;&gt;Create Fine</title>
<path fill="none" stroke="#000000" stroke-width="6.06" d="M53,-1051.8C53,-1041.96 53,-1029.27 53,-1017.53"/>
<polygon fill="#000000" stroke="#000000" stroke-width="6.06" points="58.3,-1017.93 53,-1007.93 47.7,-1017.93 58.3,-1017.93"/>
<text text-anchor="middle" x="60" y="-1022.8" font-family="Times,serif" font-size="14.00">95</text>
</g>
<!-- Send Fine -->
<g id="node3" class="node">
<title>Send Fine</title>
<polygon fill="#9b9bff" stroke="black" points="183,-914 85,-914 85,-878 183,-878 183,-914"/>
<text text-anchor="middle" x="134" y="-892.3" font-family="Times,serif" font-size="14.00">Send Fine (95)</text>
</g>
<!-- Create Fine&#45;&gt;Send Fine -->
<g id="edge2" class="edge">
<title>Create Fine&#45;&gt;Send Fine</title>
<path fill="none" stroke="#000000" stroke-width="6" d="M69.39,-964.8C79.97,-953.7 94,-938.97 106.28,-926.08"/>
<polygon fill="#000000" stroke="#000000" stroke-width="6" points="109.8,-930 112.9,-919.14 102.2,-922.76 109.8,-930"/>
<text text-anchor="middle" x="106" y="-935.8" font-family="Times,serif" font-size="14.00">94</text>
</g>
<!-- Payment -->
<g id="node11" class="node">
<title>Payment</title>
<polygon fill="#d6d6ff" stroke="black" points="366.5,-218 275.5,-218 275.5,-182 366.5,-182 366.5,-218"/>
<text text-anchor="middle" x="321" y="-196.3" font-family="Times,serif" font-size="14.00">Payment (49)</text>
</g>
<!-- Create Fine&#45;&gt;Payment -->
<g id="edge29" class="edge">
<title>Create Fine&#45;&gt;Payment</title>
<path fill="none" stroke="#ff0000" stroke-width="0.5" stroke-dasharray="5,2" d="M47.76,-964.6C43.09,-947.54 37,-920.73 37,-897 37,-897 37,-897 37,-286 37,-238.98 181.71,-215.77 264.54,-206.35"/>
<polygon fill="#ff0000" stroke="#ff0000" stroke-width="0.5" points="264.75,-209.84 274.3,-205.27 263.98,-202.89 264.75,-209.84"/>
<text text-anchor="middle" x="40.5" y="-587.8" font-family="Times,serif" font-size="14.00">1</text>
</g>
<!-- Insert Fine Notification -->
<g id="node4" class="node">
<title>Insert Fine Notification</title>
<polygon fill="#9b9bff" stroke="black" points="549,-827 379,-827 379,-791 549,-791 549,-827"/>
<text text-anchor="middle" x="464" y="-805.3" font-family="Times,serif" font-size="14.00">Insert Fine Notification (95)</text>
</g>
<!-- Send Fine&#45;&gt;Insert Fine Notification -->
<g id="edge3" class="edge">
<title>Send Fine&#45;&gt;Insert Fine Notification</title>
<path fill="none" stroke="#000000" stroke-width="6" d="M183.4,-882.27C235.42,-868.88 318.25,-847.54 380.46,-831.52"/>
<polygon fill="#000000" stroke="#000000" stroke-width="6" points="381.57,-836.65 389.95,-829.07 378.95,-826.48 381.57,-836.65"/>
<text text-anchor="middle" x="326" y="-848.8" font-family="Times,serif" font-size="14.00">94</text>
</g>
<!-- Insert Date Appeal to Prefecture -->
<g id="node5" class="node">
<title>Insert Date Appeal to Prefecture</title>
<polygon fill="#9b9bff" stroke="black" points="573,-740 355,-740 355,-704 573,-704 573,-740"/>
<text text-anchor="middle" x="464" y="-718.3" font-family="Times,serif" font-size="14.00">Insert Date Appeal to Prefecture (95)</text>
</g>
<!-- Send Fine&#45;&gt;Insert Date Appeal to Prefecture -->
<g id="edge16" class="edge">
<title>Send Fine&#45;&gt;Insert Date Appeal to Prefecture</title>
<path fill="none" stroke="#ff0000" stroke-width="0.5" stroke-dasharray="5,2" d="M167.46,-877.56C227.74,-846.14 354.51,-780.07 421.08,-745.37"/>
<polygon fill="#ff0000" stroke="#ff0000" stroke-width="0.5" points="422.53,-748.56 429.78,-740.83 419.3,-742.35 422.53,-748.56"/>
<text text-anchor="middle" x="335.5" y="-805.3" font-family="Times,serif" font-size="14.00">1</text>
</g>
<!-- Insert Fine Notification&#45;&gt;Insert Date Appeal to Prefecture -->
<g id="edge4" class="edge">
<title>Insert Fine Notification&#45;&gt;Insert Date Appeal to Prefecture</title>
<path fill="none" stroke="#000000" stroke-width="5.05" d="M464,-790.8C464,-780.96 464,-768.27 464,-756.53"/>
<polygon fill="#000000" stroke="#000000" stroke-width="5.05" points="468.42,-756.72 464,-746.72 459.58,-756.72 468.42,-756.72"/>
<text text-anchor="middle" x="471" y="-761.8" font-family="Times,serif" font-size="14.00">78</text>
</g>
<!-- Send Appeal to Prefecture -->
<g id="node6" class="node">
<title>Send Appeal to Prefecture</title>
<polygon fill="#9b9bff" stroke="black" points="549.5,-566 364.5,-566 364.5,-530 549.5,-530 549.5,-566"/>
<text text-anchor="middle" x="457" y="-544.3" font-family="Times,serif" font-size="14.00">Send Appeal to Prefecture (95)</text>
</g>
<!-- Insert Fine Notification&#45;&gt;Send Appeal to Prefecture -->
<g id="edge18" class="edge">
<title>Insert Fine Notification&#45;&gt;Send Appeal to Prefecture</title>
<path fill="none" stroke="#ff0000" stroke-width="0.5" stroke-dasharray="5,2" d="M499.73,-790.58C572.04,-753.09 723.48,-661.86 658,-584 644.84,-568.35 602.65,-559.69 560.3,-554.91"/>
<polygon fill="#ff0000" stroke="#ff0000" stroke-width="0.5" points="560.9,-551.46 550.59,-553.88 560.17,-558.42 560.9,-551.46"/>
<text text-anchor="middle" x="659.5" y="-674.8" font-family="Times,serif" font-size="14.00">1</text>
</g>
<!-- Add penalty -->
<g id="node7" class="node">
<title>Add penalty</title>
<polygon fill="#9b9bff" stroke="black" points="394,-479 284,-479 284,-443 394,-443 394,-479"/>
<text text-anchor="middle" x="339" y="-457.3" font-family="Times,serif" font-size="14.00">Add penalty (95)</text>
</g>
<!-- Insert Fine Notification&#45;&gt;Add penalty -->
<g id="edge22" class="edge">
<title>Insert Fine Notification&#45;&gt;Add penalty</title>
<path fill="none" stroke="#000000" stroke-width="1.27" d="M378.6,-794.74C279.35,-778.13 129,-748.73 129,-723 129,-723 129,-723 129,-547 129,-484.28 210.49,-466.71 271.95,-462.39"/>
<polygon fill="#000000" stroke="#000000" stroke-width="1.27" points="271.86,-465.9 281.63,-461.82 271.45,-458.91 271.86,-465.9"/>
<text text-anchor="middle" x="136" y="-631.3" font-family="Times,serif" font-size="14.00">14</text>
</g>
<!-- Appeal to Judge -->
<g id="node10" class="node">
<title>Appeal to Judge</title>
<polygon fill="#ffffff" stroke="black" points="638.5,-305 507.5,-305 507.5,-269 638.5,-269 638.5,-305"/>
<text text-anchor="middle" x="573" y="-283.3" font-family="Times,serif" font-size="14.00">Appeal to Judge (18)</text>
</g>
<!-- Insert Fine Notification&#45;&gt;Appeal to Judge -->
<g id="edge20" class="edge">
<title>Insert Fine Notification&#45;&gt;Appeal to Judge</title>
<path fill="none" stroke="#ff0000" stroke-width="0.56" stroke-dasharray="5,2" d="M549.23,-798.62C631.27,-787.16 743,-764.01 743,-723 743,-723 743,-723 743,-373 743,-327.85 694.43,-306.68 649.21,-296.75"/>
<polygon fill="#ff0000" stroke="#ff0000" stroke-width="0.56" points="650.05,-293.35 639.56,-294.8 648.66,-300.22 650.05,-293.35"/>
<text text-anchor="middle" x="746.5" y="-544.3" font-family="Times,serif" font-size="14.00">2</text>
</g>
<!-- Insert Date Appeal to Prefecture&#45;&gt;Insert Fine Notification -->
<g id="edge17" class="edge">
<title>Insert Date Appeal to Prefecture&#45;&gt;Insert Fine Notification</title>
<path fill="none" stroke="#ff0000" stroke-width="0.5" stroke-dasharray="5,2" d="M457.45,-740.2C455.63,-745.79 453.91,-752.08 453,-758 451.89,-765.23 452.63,-772.99 454.15,-780.18"/>
<polygon fill="#ff0000" stroke="#ff0000" stroke-width="0.5" points="450.75,-781.03 456.71,-789.79 457.52,-779.22 450.75,-781.03"/>
<text text-anchor="middle" x="456.5" y="-761.8" font-family="Times,serif" font-size="14.00">1</text>
</g>
<!-- Insert Date Appeal to Prefecture&#45;&gt;Send Appeal to Prefecture -->
<g id="edge5" class="edge">
<title>Insert Date Appeal to Prefecture&#45;&gt;Send Appeal to Prefecture</title>
<path fill="none" stroke="#000000" stroke-width="4.76" d="M469,-703.68C474.31,-683.01 481.38,-647.44 477,-617 475.29,-605.13 471.99,-592.45 468.55,-581.29"/>
<polygon fill="#000000" stroke="#000000" stroke-width="4.76" points="472.63,-580.37 465.53,-572.18 464.72,-582.98 472.63,-580.37"/>
<text text-anchor="middle" x="485" y="-631.3" font-family="Times,serif" font-size="14.00">73</text>
</g>
<!-- Insert Date Appeal to Prefecture&#45;&gt;Add penalty -->
<g id="edge12" class="edge">
<title>Insert Date Appeal to Prefecture&#45;&gt;Add penalty</title>
<path fill="none" stroke="#000000" stroke-width="1.56" d="M354.79,-714.48C303.16,-706.37 243.64,-689.12 201,-653 180.96,-636.02 182.45,-624.69 177,-599 165.34,-544.06 225.03,-505.97 275.22,-484.14"/>
<polygon fill="#000000" stroke="#000000" stroke-width="1.56" points="276.35,-487.46 284.23,-480.38 273.65,-481.01 276.35,-487.46"/>
<text text-anchor="middle" x="184" y="-587.8" font-family="Times,serif" font-size="14.00">19</text>
</g>
<!-- Receive Result Appeal from Prefecture -->
<g id="node8" class="node">
<title>Receive Result Appeal from Prefecture</title>
<polygon fill="#9b9bff" stroke="black" points="467.5,-653 210.5,-653 210.5,-617 467.5,-617 467.5,-653"/>
<text text-anchor="middle" x="339" y="-631.3" font-family="Times,serif" font-size="14.00">Receive Result Appeal from Prefecture (95)</text>
</g>
<!-- Insert Date Appeal to Prefecture&#45;&gt;Receive Result Appeal from Prefecture -->
<g id="edge33" class="edge">
<title>Insert Date Appeal to Prefecture&#45;&gt;Receive Result Appeal from Prefecture</title>
<path fill="none" stroke="#ff0000" stroke-width="0.56" stroke-dasharray="5,2" d="M438.4,-703.59C419.61,-690.82 393.89,-673.32 373.32,-659.34"/>
<polygon fill="#ff0000" stroke="#ff0000" stroke-width="0.56" points="375.5,-656.59 365.26,-653.86 371.56,-662.38 375.5,-656.59"/>
<text text-anchor="middle" x="411.5" y="-674.8" font-family="Times,serif" font-size="14.00">2</text>
</g>
<!-- Send Appeal to Prefecture&#45;&gt;Add penalty -->
<g id="edge6" class="edge">
<title>Send Appeal to Prefecture&#45;&gt;Add penalty</title>
<path fill="none" stroke="#000000" stroke-width="3.99" d="M432.84,-529.59C416.45,-517.79 394.48,-501.96 375.92,-488.59"/>
<polygon fill="#000000" stroke="#000000" stroke-width="3.99" points="378.19,-485.92 368.03,-482.91 374.1,-491.6 378.19,-485.92"/>
<text text-anchor="middle" x="412" y="-500.8" font-family="Times,serif" font-size="14.00">60</text>
</g>
<!-- Send Appeal to Prefecture&#45;&gt;Receive Result Appeal from Prefecture -->
<g id="edge14" class="edge">
<title>Send Appeal to Prefecture&#45;&gt;Receive Result Appeal from Prefecture</title>
<path fill="none" stroke="#000000" stroke-width="2.39" d="M437.6,-566.45C426.14,-576.43 411.14,-588.93 397,-599 392.07,-602.51 386.78,-606.02 381.47,-609.4"/>
<polygon fill="#000000" stroke="#000000" stroke-width="2.39" points="379.71,-606.37 373.04,-614.6 383.39,-612.33 379.71,-606.37"/>
<text text-anchor="middle" x="422" y="-587.8" font-family="Times,serif" font-size="14.00">33</text>
</g>
<!-- Notify Result Appeal to Offender -->
<g id="node9" class="node">
<title>Notify Result Appeal to Offender</title>
<polygon fill="#9d9dff" stroke="black" points="615.5,-392 390.5,-392 390.5,-356 615.5,-356 615.5,-392"/>
<text text-anchor="middle" x="503" y="-370.3" font-family="Times,serif" font-size="14.00">Notify Result Appeal to Offender (93)</text>
</g>
<!-- Send Appeal to Prefecture&#45;&gt;Notify Result Appeal to Offender -->
<g id="edge34" class="edge">
<title>Send Appeal to Prefecture&#45;&gt;Notify Result Appeal to Offender</title>
<path fill="none" stroke="#ff0000" stroke-width="0.5" stroke-dasharray="5,2" d="M461.66,-529.56C469.65,-499.69 486.02,-438.48 495.59,-402.71"/>
<polygon fill="#ff0000" stroke="#ff0000" stroke-width="0.5" points="498.93,-403.78 498.13,-393.22 492.16,-401.97 498.93,-403.78"/>
<text text-anchor="middle" x="487.5" y="-457.3" font-family="Times,serif" font-size="14.00">1</text>
</g>
<!-- Send Appeal to Prefecture&#45;&gt;Payment -->
<g id="edge32" class="edge">
<title>Send Appeal to Prefecture&#45;&gt;Payment</title>
<path fill="none" stroke="#ff0000" stroke-width="0.5" stroke-dasharray="5,2" d="M448.22,-529.6C437.7,-508.85 419.42,-473.21 403,-443 390.55,-420.09 383.48,-416.29 374,-392 348.14,-325.71 361.69,-303.09 338,-236 337.09,-233.44 336.05,-230.81 334.94,-228.21"/>
<polygon fill="#ff0000" stroke="#ff0000" stroke-width="0.5" points="338.13,-226.77 330.76,-219.16 331.78,-229.71 338.13,-226.77"/>
<text text-anchor="middle" x="377.5" y="-370.3" font-family="Times,serif" font-size="14.00">1</text>
</g>
<!-- Add penalty&#45;&gt;Insert Date Appeal to Prefecture -->
<g id="edge23" class="edge">
<title>Add penalty&#45;&gt;Insert Date Appeal to Prefecture</title>
<path fill="none" stroke="#000000" stroke-width="1.27" d="M394.42,-471.45C452.91,-482.69 539.33,-503.34 559,-530 598.94,-584.15 534.35,-657.63 493.48,-695.74"/>
<polygon fill="#000000" stroke="#000000" stroke-width="1.27" points="491.37,-692.92 486.33,-702.24 496.08,-698.1 491.37,-692.92"/>
<text text-anchor="middle" x="576" y="-587.8" font-family="Times,serif" font-size="14.00">14</text>
</g>
<!-- Add penalty&#45;&gt;Send Appeal to Prefecture -->
<g id="edge13" class="edge">
<title>Add penalty&#45;&gt;Send Appeal to Prefecture</title>
<path fill="none" stroke="#000000" stroke-width="1.51" d="M347.01,-479.21C352.71,-489.86 361.24,-503.14 372,-512 377.66,-516.66 384.02,-520.78 390.66,-524.39"/>
<polygon fill="#000000" stroke="#000000" stroke-width="1.51" points="388.7,-527.32 399.21,-528.65 391.82,-521.06 388.7,-527.32"/>
<text text-anchor="middle" x="379" y="-500.8" font-family="Times,serif" font-size="14.00">18</text>
</g>
<!-- Add penalty&#45;&gt;Receive Result Appeal from Prefecture -->
<g id="edge7" class="edge">
<title>Add penalty&#45;&gt;Receive Result Appeal from Prefecture</title>
<path fill="none" stroke="#000000" stroke-width="3.93" d="M326.66,-479.49C318.15,-492.68 307.57,-511.59 303,-530 299.14,-545.53 299.14,-550.47 303,-566 306.18,-578.8 312.26,-591.84 318.53,-603.03"/>
<polygon fill="#000000" stroke="#000000" stroke-width="3.93" points="315.43,-604.66 323.59,-611.41 321.42,-601.04 315.43,-604.66"/>
<text text-anchor="middle" x="310" y="-544.3" font-family="Times,serif" font-size="14.00">59</text>
</g>
<!-- Add penalty&#45;&gt;Notify Result Appeal to Offender -->
<g id="edge28" class="edge">
<title>Add penalty&#45;&gt;Notify Result Appeal to Offender</title>
<path fill="none" stroke="#ff0000" stroke-width="0.62" stroke-dasharray="5,2" d="M372.58,-442.59C397.79,-429.53 432.5,-411.54 459.78,-397.4"/>
<polygon fill="#ff0000" stroke="#ff0000" stroke-width="0.62" points="461.36,-400.52 468.63,-392.81 458.14,-394.31 461.36,-400.52"/>
<text text-anchor="middle" x="433.5" y="-413.8" font-family="Times,serif" font-size="14.00">3</text>
</g>
<!-- Add penalty&#45;&gt;Payment -->
<g id="edge35" class="edge">
<title>Add penalty&#45;&gt;Payment</title>
<path fill="none" stroke="#ff0000" stroke-width="0.5" stroke-dasharray="5,2" d="M337.79,-442.6C334.73,-398.55 326.65,-282.32 322.93,-228.75"/>
<polygon fill="#ff0000" stroke="#ff0000" stroke-width="0.5" points="326.44,-228.81 322.26,-219.08 319.46,-229.29 326.44,-228.81"/>
<text text-anchor="middle" x="334.5" y="-326.8" font-family="Times,serif" font-size="14.00">1</text>
</g>
<!-- Receive Result Appeal from Prefecture&#45;&gt;Send Appeal to Prefecture -->
<g id="edge31" class="edge">
<title>Receive Result Appeal from Prefecture&#45;&gt;Send Appeal to Prefecture</title>
<path fill="none" stroke="#ff0000" stroke-width="0.62" stroke-dasharray="5,2" d="M353.61,-616.89C363.03,-606.55 375.91,-593.55 389,-584 395.12,-579.53 401.89,-575.32 408.72,-571.47"/>
<polygon fill="#ff0000" stroke="#ff0000" stroke-width="0.62" points="410.05,-574.73 417.18,-566.89 406.72,-568.57 410.05,-574.73"/>
<text text-anchor="middle" x="392.5" y="-587.8" font-family="Times,serif" font-size="14.00">3</text>
</g>
<!-- Receive Result Appeal from Prefecture&#45;&gt;Add penalty -->
<g id="edge27" class="edge">
<title>Receive Result Appeal from Prefecture&#45;&gt;Add penalty</title>
<path fill="none" stroke="#ff0000" stroke-width="0.56" stroke-dasharray="5,2" d="M339,-616.56C339,-586.81 339,-526.01 339,-490.17"/>
<polygon fill="#ff0000" stroke="#ff0000" stroke-width="0.56" points="342.5,-490.33 339,-480.33 335.5,-490.33 342.5,-490.33"/>
<text text-anchor="middle" x="342.5" y="-544.3" font-family="Times,serif" font-size="14.00">2</text>
</g>
<!-- Receive Result Appeal from Prefecture&#45;&gt;Notify Result Appeal to Offender -->
<g id="edge8" class="edge">
<title>Receive Result Appeal from Prefecture&#45;&gt;Notify Result Appeal to Offender</title>
<path fill="none" stroke="#000000" stroke-width="5.59" d="M432.82,-616.54C485.34,-604.65 543.34,-587.23 559,-566 594.98,-517.22 555.37,-445.63 526.86,-405.38"/>
<polygon fill="#000000" stroke="#000000" stroke-width="5.59" points="530.85,-402.56 520.98,-397.42 522.99,-408.36 530.85,-402.56"/>
<text text-anchor="middle" x="579" y="-500.8" font-family="Times,serif" font-size="14.00">87</text>
</g>
<!-- Receive Result Appeal from Prefecture&#45;&gt;Appeal to Judge -->
<g id="edge25" class="edge">
<title>Receive Result Appeal from Prefecture&#45;&gt;Appeal to Judge</title>
<path fill="none" stroke="#ff0000" stroke-width="0.56" stroke-dasharray="5,2" d="M467.98,-617.49C488.79,-612.78 509.79,-606.74 529,-599 553.7,-589.06 563.47,-587.62 579,-566 634.74,-488.4 655.64,-446.5 625,-356 619.62,-340.1 608.86,-325 598.53,-313.08"/>
<polygon fill="#ff0000" stroke="#ff0000" stroke-width="0.56" points="601.4,-311.03 592.08,-305.99 596.22,-315.74 601.4,-311.03"/>
<text text-anchor="middle" x="641.5" y="-457.3" font-family="Times,serif" font-size="14.00">2</text>
</g>
<!-- Receive Result Appeal from Prefecture&#45;&gt;Payment -->
<g id="edge38" class="edge">
<title>Receive Result Appeal from Prefecture&#45;&gt;Payment</title>
<path fill="none" stroke="#ff0000" stroke-width="0.5" stroke-dasharray="5,2" d="M297.45,-616.51C271.51,-602.5 243,-580.05 243,-549 243,-549 243,-549 243,-286 243,-260.53 262.25,-239.39 281.63,-224.56"/>
<polygon fill="#ff0000" stroke="#ff0000" stroke-width="0.5" points="283.49,-227.53 289.56,-218.84 279.4,-221.85 283.49,-227.53"/>
<text text-anchor="middle" x="246.5" y="-413.8" font-family="Times,serif" font-size="14.00">1</text>
</g>
<!-- Notify Result Appeal to Offender&#45;&gt;Appeal to Judge -->
<g id="edge9" class="edge">
<title>Notify Result Appeal to Offender&#45;&gt;Appeal to Judge</title>
<path fill="none" stroke="#000000" stroke-width="1.27" d="M519.27,-355.83C524.41,-350.24 530.04,-343.94 535,-338 541.12,-330.67 547.5,-322.49 553.25,-314.92"/>
<polygon fill="#000000" stroke="#000000" stroke-width="1.27" points="556.02,-317.06 559.21,-306.96 550.41,-312.87 556.02,-317.06"/>
<text text-anchor="middle" x="553" y="-326.8" font-family="Times,serif" font-size="14.00">14</text>
</g>
<!-- Notify Result Appeal to Offender&#45;&gt;Payment -->
<g id="edge15" class="edge">
<title>Notify Result Appeal to Offender&#45;&gt;Payment</title>
<path fill="none" stroke="#000000" stroke-width="2.45" d="M481.06,-355.54C474.7,-350.14 467.89,-344.03 462,-338 421.16,-296.19 423.12,-274.33 379,-236 374.81,-232.36 370.18,-228.86 365.43,-225.59"/>
<polygon fill="#000000" stroke="#000000" stroke-width="2.45" points="367.69,-222.88 357.38,-220.4 363.89,-228.76 367.69,-222.88"/>
<text text-anchor="middle" x="441" y="-283.3" font-family="Times,serif" font-size="14.00">34</text>
</g>
<!-- Send for Credit Collection -->
<g id="node12" class="node">
<title>Send for Credit Collection</title>
<polygon fill="#e3e3ff" stroke="black" points="567.5,-131 380.5,-131 380.5,-95 567.5,-95 567.5,-131"/>
<text text-anchor="middle" x="474" y="-109.3" font-family="Times,serif" font-size="14.00">Send for Credit Collection (39)</text>
</g>
<!-- Notify Result Appeal to Offender&#45;&gt;Send for Credit Collection -->
<g id="edge19" class="edge">
<title>Notify Result Appeal to Offender&#45;&gt;Send for Credit Collection</title>
<path fill="none" stroke="#000000" stroke-width="2.63" d="M501.05,-355.6C496.22,-312.48 483.65,-200.15 477.49,-145.19"/>
<polygon fill="#000000" stroke="#000000" stroke-width="2.63" points="480.97,-144.82 476.38,-135.27 474.02,-145.6 480.97,-144.82"/>
<text text-anchor="middle" x="496" y="-239.8" font-family="Times,serif" font-size="14.00">37</text>
</g>
<!-- end_node -->
<g id="node13" class="node">
<title>end_node</title>
<ellipse fill="none" stroke="black" cx="565" cy="-22" rx="18" ry="18"/>
<ellipse fill="none" stroke="black" cx="565" cy="-22" rx="22" ry="22"/>
<text text-anchor="start" x="560.5" y="-18.3" font-family="Times,serif" font-size="14.00">■</text>
</g>
<!-- Notify Result Appeal to Offender&#45;&gt;end_node -->
<g id="edge40" class="edge">
<title>Notify Result Appeal to Offender&#45;&gt;end_node</title>
<path fill="none" stroke="#000000" stroke-width="0.91" d="M605.77,-355.51C639.73,-343.37 669,-322.81 669,-288 669,-288 669,-288 669,-112 669,-73.1 626.47,-47.56 595.81,-34.19"/>
<polygon fill="#000000" stroke="#000000" stroke-width="0.91" points="597.41,-31.07 586.83,-30.5 594.74,-37.54 597.41,-31.07"/>
<text text-anchor="middle" x="672.5" y="-196.3" font-family="Times,serif" font-size="14.00">8</text>
</g>
<!-- Appeal to Judge&#45;&gt;Insert Date Appeal to Prefecture -->
<g id="edge21" class="edge">
<title>Appeal to Judge&#45;&gt;Insert Date Appeal to Prefecture</title>
<path fill="none" stroke="#ff0000" stroke-width="0.56" stroke-dasharray="5,2" d="M635,-305.44C666,-318.34 697,-339.59 697,-373 697,-549 697,-549 697,-549 697,-629.03 606.92,-676.03 538.78,-700.14"/>
<polygon fill="#ff0000" stroke="#ff0000" stroke-width="0.56" points="538.03,-696.7 529.7,-703.26 540.3,-703.32 538.03,-696.7"/>
<text text-anchor="middle" x="700.5" y="-500.8" font-family="Times,serif" font-size="14.00">2</text>
</g>
<!-- Appeal to Judge&#45;&gt;Notify Result Appeal to Offender -->
<g id="edge26" class="edge">
<title>Appeal to Judge&#45;&gt;Notify Result Appeal to Offender</title>
<path fill="none" stroke="#ff0000" stroke-width="0.56" stroke-dasharray="5,2" d="M545.82,-305.32C539.11,-310.45 532.33,-316.47 527,-323 521.5,-329.75 516.89,-337.96 513.23,-345.77"/>
<polygon fill="#ff0000" stroke="#ff0000" stroke-width="0.56" points="510.06,-344.29 509.31,-354.86 516.48,-347.07 510.06,-344.29"/>
<text text-anchor="middle" x="530.5" y="-326.8" font-family="Times,serif" font-size="14.00">2</text>
</g>
<!-- Appeal to Judge&#45;&gt;Payment -->
<g id="edge10" class="edge">
<title>Appeal to Judge&#45;&gt;Payment</title>
<path fill="none" stroke="#ff0000" stroke-width="0.68" stroke-dasharray="5,2" d="M507.19,-270.92C488.06,-265.6 467.38,-258.94 449,-251 437.1,-245.86 435.76,-241.45 424,-236 409.24,-229.16 392.76,-222.96 377.38,-217.75"/>
<polygon fill="#ff0000" stroke="#ff0000" stroke-width="0.68" points="378.51,-214.43 367.91,-214.62 376.31,-221.08 378.51,-214.43"/>
<text text-anchor="middle" x="452.5" y="-239.8" font-family="Times,serif" font-size="14.00">4</text>
</g>
<!-- Appeal to Judge&#45;&gt;Send for Credit Collection -->
<g id="edge24" class="edge">
<title>Appeal to Judge&#45;&gt;Send for Credit Collection</title>
<path fill="none" stroke="#ff0000" stroke-width="0.5" stroke-dasharray="5,2" d="M562.96,-268.56C545.62,-238.43 509.93,-176.43 489.42,-140.79"/>
<polygon fill="#ff0000" stroke="#ff0000" stroke-width="0.5" points="492.46,-139.06 484.44,-132.14 486.4,-142.55 492.46,-139.06"/>
<text text-anchor="middle" x="536.5" y="-196.3" font-family="Times,serif" font-size="14.00">1</text>
</g>
<!-- Appeal to Judge&#45;&gt;end_node -->
<g id="edge42" class="edge">
<title>Appeal to Judge&#45;&gt;end_node</title>
<path fill="none" stroke="#000000" stroke-width="0.97" d="M574.57,-268.58C577.33,-234.96 582.28,-158.79 577,-95 575.91,-81.89 573.74,-67.57 571.53,-55.18"/>
<polygon fill="#000000" stroke="#000000" stroke-width="0.97" points="574.99,-54.63 569.71,-45.44 568.11,-55.91 574.99,-54.63"/>
<text text-anchor="middle" x="582.5" y="-152.8" font-family="Times,serif" font-size="14.00">9</text>
</g>
<!-- Payment&#45;&gt;Send Fine -->
<g id="edge30" class="edge">
<title>Payment&#45;&gt;Send Fine</title>
<path fill="none" stroke="#ff0000" stroke-width="0.5" stroke-dasharray="5,2" d="M275.11,-207.81C205.95,-219.38 83,-245.63 83,-286 83,-810 83,-810 83,-810 83,-832.42 96.21,-854.04 109.18,-869.86"/>
<polygon fill="#ff0000" stroke="#ff0000" stroke-width="0.5" points="106.19,-871.74 115.38,-877.01 111.47,-867.16 106.19,-871.74"/>
<text text-anchor="middle" x="86.5" y="-544.3" font-family="Times,serif" font-size="14.00">1</text>
</g>
<!-- Payment&#45;&gt;Receive Result Appeal from Prefecture -->
<g id="edge36" class="edge">
<title>Payment&#45;&gt;Receive Result Appeal from Prefecture</title>
<path fill="none" stroke="#ff0000" stroke-width="0.5" stroke-dasharray="5,2" d="M275.11,-210.95C259.04,-216.25 241.83,-224.2 229,-236 210.85,-252.68 205,-261.35 205,-286 205,-549 205,-549 205,-549 205,-573.65 210.4,-582.83 229,-599 234.72,-603.97 241.15,-608.24 247.95,-611.9"/>
<polygon fill="#ff0000" stroke="#ff0000" stroke-width="0.5" points="246.23,-614.95 256.75,-616.2 249.3,-608.66 246.23,-614.95"/>
<text text-anchor="middle" x="208.5" y="-413.8" font-family="Times,serif" font-size="14.00">1</text>
</g>
<!-- Payment&#45;&gt;Payment -->
<g id="edge11" class="edge">
<title>Payment&#45;&gt;Payment</title>
<path fill="none" stroke="#000000" stroke-width="0.85" d="M366.95,-207.94C377.1,-207.19 384.5,-204.55 384.5,-200 384.5,-197.37 382.03,-195.38 377.98,-194.02"/>
<polygon fill="#000000" stroke="#000000" stroke-width="0.85" points="378.68,-190.59 368.22,-192.29 377.46,-197.48 378.68,-190.59"/>
<text text-anchor="middle" x="388" y="-196.3" font-family="Times,serif" font-size="14.00">7</text>
</g>
<!-- Payment&#45;&gt;Send for Credit Collection -->
<g id="edge37" class="edge">
<title>Payment&#45;&gt;Send for Credit Collection</title>
<path fill="none" stroke="#ff0000" stroke-width="0.5" stroke-dasharray="5,2" d="M352.33,-181.59C375.74,-168.59 407.95,-150.7 433.34,-136.59"/>
<polygon fill="#ff0000" stroke="#ff0000" stroke-width="0.5" points="435.01,-139.67 442.05,-131.75 431.61,-133.55 435.01,-139.67"/>
<text text-anchor="middle" x="409.5" y="-152.8" font-family="Times,serif" font-size="14.00">1</text>
</g>
<!-- Payment&#45;&gt;end_node -->
<g id="edge39" class="edge">
<title>Payment&#45;&gt;end_node</title>
<path fill="none" stroke="#000000" stroke-width="2.75" d="M322.38,-181.85C325.12,-159.02 333.22,-118.78 357,-95 403.96,-48.04 483.01,-31.66 528.94,-25.98"/>
<polygon fill="#000000" stroke="#000000" stroke-width="2.75" points="529.19,-29.47 538.75,-24.91 528.43,-22.51 529.19,-29.47"/>
<text text-anchor="middle" x="364" y="-109.3" font-family="Times,serif" font-size="14.00">39</text>
</g>
<!-- Send for Credit Collection&#45;&gt;end_node -->
<g id="edge41" class="edge">
<title>Send for Credit Collection&#45;&gt;end_node</title>
<path fill="none" stroke="#000000" stroke-width="2.75" d="M491.55,-94.84C505.23,-81.46 524.41,-62.7 539.74,-47.7"/>
<polygon fill="#000000" stroke="#000000" stroke-width="2.75" points="541.95,-50.44 546.65,-40.94 537.06,-45.43 541.95,-50.44"/>
<text text-anchor="middle" x="531" y="-65.8" font-family="Times,serif" font-size="14.00">39</text>
</g>
</g>
</svg>
