<?xml version="1.0" encoding="UTF-8" standalone="no"?>
<!DOCTYPE svg PUBLIC "-//W3C//DTD SVG 1.1//EN"
 "http://www.w3.org/Graphics/SVG/1.1/DTD/svg11.dtd">
<!-- Generated by graphviz version 7.0.5 (0)
 -->
<!-- Title: dfg Pages: 1 -->
<svg width="418pt" height="574pt"
 viewBox="0.00 0.00 418.00 574.00" xmlns="http://www.w3.org/2000/svg" xmlns:xlink="http://www.w3.org/1999/xlink">
<g id="graph0" class="graph" transform="scale(1 1) rotate(0) translate(4 570)">
<title>dfg</title>
<polygon fill="white" stroke="none" points="-4,4 -4,-570 414,-570 414,4 -4,4"/>
<!-- start_node -->
<g id="node1" class="node">
<title>start_node</title>
<ellipse fill="none" stroke="black" cx="331" cy="-548" rx="18" ry="18"/>
<text text-anchor="start" x="326.5" y="-544.3" font-family="Times,serif" font-size="14.00">●</text>
</g>
<!-- Create Fine -->
<g id="node2" class="node">
<title>Create Fine</title>
<polygon fill="#9b9bff" stroke="black" points="390.5,-479 271.5,-479 271.5,-443 390.5,-443 390.5,-479"/>
<text text-anchor="middle" x="331" y="-457.3" font-family="Times,serif" font-size="14.00">Create Fine (4373)</text>
</g>
<!-- start_node&#45;&gt;Create Fine -->
<g id="edge1" class="edge">
<title>start_node&#45;&gt;Create Fine</title>
<path fill="none" stroke="#000000" stroke-width="6" d="M331,-529.8C331,-519.96 331,-507.27 331,-495.53"/>
<polygon fill="#000000" stroke="#000000" stroke-width="6" points="336.25,-495.92 331,-485.92 325.75,-495.92 336.25,-495.92"/>
<text text-anchor="middle" x="345" y="-500.8" font-family="Times,serif" font-size="14.00">4373</text>
</g>
<!-- Send Fine -->
<g id="node3" class="node">
<title>Send Fine</title>
<polygon fill="#9b9bff" stroke="black" points="386.5,-392 275.5,-392 275.5,-356 386.5,-356 386.5,-392"/>
<text text-anchor="middle" x="331" y="-370.3" font-family="Times,serif" font-size="14.00">Send Fine (4373)</text>
</g>
<!-- Create Fine&#45;&gt;Send Fine -->
<g id="edge2" class="edge">
<title>Create Fine&#45;&gt;Send Fine</title>
<path fill="none" stroke="#000000" stroke-width="6" d="M331,-442.8C331,-432.96 331,-420.27 331,-408.53"/>
<polygon fill="#000000" stroke="#000000" stroke-width="6" points="336.25,-408.92 331,-398.92 325.75,-408.92 336.25,-408.92"/>
<text text-anchor="middle" x="345" y="-413.8" font-family="Times,serif" font-size="14.00">4373</text>
</g>
<!-- Insert Fine Notification -->
<g id="node4" class="node">
<title>Insert Fine Notification</title>
<polygon fill="#b7b7ff" stroke="black" points="303,-305 119,-305 119,-269 303,-269 303,-305"/>
<text text-anchor="middle" x="211" y="-283.3" font-family="Times,serif" font-size="14.00">Insert Fine Notification (3540)</text>
</g>
<!-- Send Fine&#45;&gt;Insert Fine Notification -->
<g id="edge3" class="edge">
<title>Send Fine&#45;&gt;Insert Fine Notification</title>
<path fill="none" stroke="#000000" stroke-width="4.91" d="M306.43,-355.59C289.76,-343.79 267.42,-327.96 248.54,-314.59"/>
<polygon fill="#000000" stroke="#000000" stroke-width="4.91" points="251.26,-311.25 240.62,-308.98 246.29,-318.26 251.26,-311.25"/>
<text text-anchor="middle" x="292" y="-326.8" font-family="Times,serif" font-size="14.00">3540</text>
</g>
<!-- Payment -->
<g id="node7" class="node">
<title>Payment</title>
<polygon fill="#ffffff" stroke="black" points="322,-131 218,-131 218,-95 322,-95 322,-131"/>
<text text-anchor="middle" x="270" y="-109.3" font-family="Times,serif" font-size="14.00">Payment (1412)</text>
</g>
<!-- Send Fine&#45;&gt;Payment -->
<g id="edge7" class="edge">
<title>Send Fine&#45;&gt;Payment</title>
<path fill="none" stroke="#000000" stroke-width="0.69" d="M328.28,-355.61C324.94,-334.89 318.85,-299.25 312,-269 301.8,-223.95 287.21,-172.3 278.19,-141.46"/>
<polygon fill="#000000" stroke="#000000" stroke-width="0.69" points="281.61,-140.69 275.43,-132.09 274.9,-142.67 281.61,-140.69"/>
<text text-anchor="middle" x="317.5" y="-239.8" font-family="Times,serif" font-size="14.00">319</text>
</g>
<!-- end_node -->
<g id="node8" class="node">
<title>end_node</title>
<ellipse fill="none" stroke="black" cx="270" cy="-22" rx="18" ry="18"/>
<ellipse fill="none" stroke="black" cx="270" cy="-22" rx="22" ry="22"/>
<text text-anchor="start" x="265.5" y="-18.3" font-family="Times,serif" font-size="14.00">■</text>
</g>
<!-- Send Fine&#45;&gt;end_node -->
<g id="edge12" class="edge">
<title>Send Fine&#45;&gt;end_node</title>
<path fill="none" stroke="#000000" stroke-width="0.95" d="M351.94,-355.76C368.55,-340.03 389,-315.15 389,-288 389,-288 389,-288 389,-112 389,-68.47 337.3,-43.66 302.05,-31.8"/>
<polygon fill="#000000" stroke="#000000" stroke-width="0.95" points="303.23,-28.5 292.64,-28.83 301.12,-35.18 303.23,-28.5"/>
<text text-anchor="middle" x="399.5" y="-196.3" font-family="Times,serif" font-size="14.00">514</text>
</g>
<!-- Add penalty -->
<g id="node5" class="node">
<title>Add penalty</title>
<polygon fill="#b7b7ff" stroke="black" points="239.5,-218 116.5,-218 116.5,-182 239.5,-182 239.5,-218"/>
<text text-anchor="middle" x="178" y="-196.3" font-family="Times,serif" font-size="14.00">Add penalty (3540)</text>
</g>
<!-- Insert Fine Notification&#45;&gt;Add penalty -->
<g id="edge4" class="edge">
<title>Insert Fine Notification&#45;&gt;Add penalty</title>
<path fill="none" stroke="#000000" stroke-width="4.66" d="M204.32,-268.8C200.37,-258.61 195.23,-245.38 190.54,-233.31"/>
<polygon fill="#000000" stroke="#000000" stroke-width="4.66" points="194.44,-232.07 187.02,-224.22 186.83,-235.02 194.44,-232.07"/>
<text text-anchor="middle" x="210" y="-239.8" font-family="Times,serif" font-size="14.00">3353</text>
</g>
<!-- Insert Fine Notification&#45;&gt;Payment -->
<g id="edge8" class="edge">
<title>Insert Fine Notification&#45;&gt;Payment</title>
<path fill="none" stroke="#ff0000" stroke-width="0.52" stroke-dasharray="5,2" d="M222.75,-268.55C231.22,-255.23 242.29,-236.14 249,-218 258.21,-193.11 263.71,-163.29 266.75,-141.97"/>
<polygon fill="#ff0000" stroke="#ff0000" stroke-width="0.52" points="270.21,-142.53 268.06,-132.16 263.27,-141.61 270.21,-142.53"/>
<text text-anchor="middle" x="269.5" y="-196.3" font-family="Times,serif" font-size="14.00">187</text>
</g>
<!-- Send for Credit Collection -->
<g id="node6" class="node">
<title>Send for Credit Collection</title>
<polygon fill="#cfcfff" stroke="black" points="200,-131 0,-131 0,-95 200,-95 200,-131"/>
<text text-anchor="middle" x="100" y="-109.3" font-family="Times,serif" font-size="14.00">Send for Credit Collection (2807)</text>
</g>
<!-- Add penalty&#45;&gt;Send for Credit Collection -->
<g id="edge5" class="edge">
<title>Add penalty&#45;&gt;Send for Credit Collection</title>
<path fill="none" stroke="#000000" stroke-width="3.95" d="M152.94,-181.82C146.08,-176.53 138.91,-170.39 133,-164 127.55,-158.11 122.38,-151.22 117.83,-144.48"/>
<polygon fill="#000000" stroke="#000000" stroke-width="3.95" points="120.93,-142.84 112.63,-136.25 115.02,-146.58 120.93,-142.84"/>
<text text-anchor="middle" x="147" y="-152.8" font-family="Times,serif" font-size="14.00">2807</text>
</g>
<!-- Add penalty&#45;&gt;Payment -->
<g id="edge6" class="edge">
<title>Add penalty&#45;&gt;Payment</title>
<path fill="none" stroke="#000000" stroke-width="1.23" d="M179.61,-181.51C181.39,-171.02 185.13,-158.01 193,-149 197.23,-144.16 202.26,-139.95 207.69,-136.3"/>
<polygon fill="#000000" stroke="#000000" stroke-width="1.23" points="209.39,-139.37 216.22,-131.27 205.83,-133.34 209.39,-139.37"/>
<text text-anchor="middle" x="203.5" y="-152.8" font-family="Times,serif" font-size="14.00">733</text>
</g>
<!-- Send for Credit Collection&#45;&gt;end_node -->
<g id="edge11" class="edge">
<title>Send for Credit Collection&#45;&gt;end_node</title>
<path fill="none" stroke="#000000" stroke-width="3.95" d="M133.18,-94.63C163.1,-78.96 206.88,-56.04 236.81,-40.38"/>
<polygon fill="#000000" stroke="#000000" stroke-width="3.95" points="238.13,-43.64 245.36,-35.9 234.88,-37.44 238.13,-43.64"/>
<text text-anchor="middle" x="209" y="-65.8" font-family="Times,serif" font-size="14.00">2807</text>
</g>
<!-- Payment&#45;&gt;Add penalty -->
<g id="edge9" class="edge">
<title>Payment&#45;&gt;Add penalty</title>
<path fill="none" stroke="#ff0000" stroke-width="0.52" stroke-dasharray="5,2" d="M251.09,-131.47C237.65,-143.89 219.4,-160.75 204.5,-174.52"/>
<polygon fill="#ff0000" stroke="#ff0000" stroke-width="0.52" points="202.16,-171.91 197.19,-181.27 206.91,-177.05 202.16,-171.91"/>
<text text-anchor="middle" x="239.5" y="-152.8" font-family="Times,serif" font-size="14.00">187</text>
</g>
<!-- Payment&#45;&gt;Payment -->
<g id="edge10" class="edge">
<title>Payment&#45;&gt;Payment</title>
<path fill="none" stroke="#ff0000" stroke-width="0.5" stroke-dasharray="5,2" d="M322.2,-120.82C332.59,-119.94 340,-117.33 340,-113 340,-110.36 337.25,-108.36 332.75,-107"/>
<polygon fill="#ff0000" stroke="#ff0000" stroke-width="0.5" points="333.4,-103.56 322.95,-105.31 332.21,-110.46 333.4,-103.56"/>
<text text-anchor="middle" x="350.5" y="-109.3" font-family="Times,serif" font-size="14.00">173</text>
</g>
<!-- Payment&#45;&gt;end_node -->
<g id="edge13" class="edge">
<title>Payment&#45;&gt;end_node</title>
<path fill="none" stroke="#000000" stroke-width="1.65" d="M270,-94.84C270,-84 270,-69.64 270,-56.6"/>
<polygon fill="#000000" stroke="#000000" stroke-width="1.65" points="273.5,-56.69 270,-46.69 266.5,-56.69 273.5,-56.69"/>
<text text-anchor="middle" x="284" y="-65.8" font-family="Times,serif" font-size="14.00">1052</text>
</g>
</g>
</svg>
