<?xml version="1.0" encoding="UTF-8" standalone="no"?>
<!DOCTYPE svg PUBLIC "-//W3C//DTD SVG 1.1//EN"
 "http://www.w3.org/Graphics/SVG/1.1/DTD/svg11.dtd">
<!-- Generated by graphviz version 7.1.0 (0)
 -->
<!-- Pages: 1 -->
<svg width="1825pt" height="746pt"
 viewBox="0.00 0.00 1825.00 746.00" xmlns="http://www.w3.org/2000/svg" xmlns:xlink="http://www.w3.org/1999/xlink">
<g id="graph0" class="graph" transform="scale(1 1) rotate(0) translate(4 742)">
<polygon fill="white" stroke="none" points="-4,4 -4,-742 1821,-742 1821,4 -4,4"/>
<!-- start_node_var0 -->
<g id="node1" class="node">
<title>start_node_var0</title>
<text text-anchor="middle" x="40" y="-14.3" font-family="Times,serif" font-size="14.00">10 traces</text>
</g>
<!-- Create Fine_var0_step0 -->
<g id="node2" class="node">
<title>Create Fine_var0_step0</title>
<polygon fill="lightgrey" stroke="black" points="80,-90 0,-90 0,-54 80,-54 80,-90"/>
<text text-anchor="middle" x="40" y="-68.3" font-family="Times,serif" font-size="14.00">Create Fine</text>
</g>
<!-- Send Fine_var0_step1 -->
<g id="node3" class="node">
<title>Send Fine_var0_step1</title>
<polygon fill="lightgrey" stroke="black" points="187,-90 116,-90 116,-54 187,-54 187,-90"/>
<text text-anchor="middle" x="151.5" y="-68.3" font-family="Times,serif" font-size="14.00">Send Fine</text>
</g>
<!-- Create Fine_var0_step0&#45;&gt;Send Fine_var0_step1 -->
<g id="edge1" class="edge">
<title>Create Fine_var0_step0&#45;&gt;Send Fine_var0_step1</title>
<path fill="none" stroke="black" d="M80.22,-72C87.97,-72 96.18,-72 104.14,-72"/>
<polygon fill="black" stroke="black" points="104.04,-75.5 114.04,-72 104.04,-68.5 104.04,-75.5"/>
</g>
<!-- Insert Fine Notification_var0_step2 -->
<g id="node4" class="node">
<title>Insert Fine Notification_var0_step2</title>
<polygon fill="lightgrey" stroke="black" points="367,-90 223,-90 223,-54 367,-54 367,-90"/>
<text text-anchor="middle" x="295" y="-68.3" font-family="Times,serif" font-size="14.00">Insert Fine Notification</text>
</g>
<!-- Send Fine_var0_step1&#45;&gt;Insert Fine Notification_var0_step2 -->
<g id="edge2" class="edge">
<title>Send Fine_var0_step1&#45;&gt;Insert Fine Notification_var0_step2</title>
<path fill="none" stroke="black" d="M187.48,-72C194.85,-72 202.92,-72 211.22,-72"/>
<polygon fill="black" stroke="black" points="211.13,-75.5 221.13,-72 211.13,-68.5 211.13,-75.5"/>
</g>
<!-- Insert Date Appeal to Prefecture_var0_step3 -->
<g id="node5" class="node">
<title>Insert Date Appeal to Prefecture_var0_step3</title>
<polygon fill="lightgrey" stroke="black" points="595,-90 403,-90 403,-54 595,-54 595,-90"/>
<text text-anchor="middle" x="499" y="-68.3" font-family="Times,serif" font-size="14.00">Insert Date Appeal to Prefecture</text>
</g>
<!-- Insert Fine Notification_var0_step2&#45;&gt;Insert Date Appeal to Prefecture_var0_step3 -->
<g id="edge3" class="edge">
<title>Insert Fine Notification_var0_step2&#45;&gt;Insert Date Appeal to Prefecture_var0_step3</title>
<path fill="none" stroke="black" d="M367.22,-72C375.02,-72 383.07,-72 391.18,-72"/>
<polygon fill="black" stroke="black" points="391.14,-75.5 401.14,-72 391.14,-68.5 391.14,-75.5"/>
</g>
<!-- Send Appeal to Prefecture_var0_step4 -->
<g id="node6" class="node">
<title>Send Appeal to Prefecture_var0_step4</title>
<polygon fill="lightgrey" stroke="black" points="806.5,-90 647.5,-90 647.5,-54 806.5,-54 806.5,-90"/>
<text text-anchor="middle" x="727" y="-68.3" font-family="Times,serif" font-size="14.00">Send Appeal to Prefecture</text>
</g>
<!-- Insert Date Appeal to Prefecture_var0_step3&#45;&gt;Send Appeal to Prefecture_var0_step4 -->
<g id="edge4" class="edge">
<title>Insert Date Appeal to Prefecture_var0_step3&#45;&gt;Send Appeal to Prefecture_var0_step4</title>
<path fill="none" stroke="black" d="M595.19,-72C608.76,-72 622.68,-72 636.15,-72"/>
<polygon fill="black" stroke="black" points="635.82,-75.5 645.82,-72 635.82,-68.5 635.82,-75.5"/>
</g>
<!-- Add penalty_var0_step5 -->
<g id="node7" class="node">
<title>Add penalty_var0_step5</title>
<polygon fill="lightgrey" stroke="black" points="980,-90 897,-90 897,-54 980,-54 980,-90"/>
<text text-anchor="middle" x="938.5" y="-68.3" font-family="Times,serif" font-size="14.00">Add penalty</text>
</g>
<!-- Send Appeal to Prefecture_var0_step4&#45;&gt;Add penalty_var0_step5 -->
<g id="edge5" class="edge">
<title>Send Appeal to Prefecture_var0_step4&#45;&gt;Add penalty_var0_step5</title>
<path fill="none" stroke="black" d="M806.9,-72C833.12,-72 861.64,-72 885.32,-72"/>
<polygon fill="black" stroke="black" points="885.01,-75.5 895.01,-72 885.01,-68.5 885.01,-75.5"/>
</g>
<!-- Receive Result Appeal from Prefecture_var0_step6 -->
<g id="node8" class="node">
<title>Receive Result Appeal from Prefecture_var0_step6</title>
<polygon fill="lightgrey" stroke="black" points="1284,-90 1054,-90 1054,-54 1284,-54 1284,-90"/>
<text text-anchor="middle" x="1169" y="-68.3" font-family="Times,serif" font-size="14.00">Receive Result Appeal from Prefecture</text>
</g>
<!-- Add penalty_var0_step5&#45;&gt;Receive Result Appeal from Prefecture_var0_step6 -->
<g id="edge6" class="edge">
<title>Add penalty_var0_step5&#45;&gt;Receive Result Appeal from Prefecture_var0_step6</title>
<path fill="none" stroke="black" d="M980.35,-72C998.14,-72 1020.05,-72 1042.54,-72"/>
<polygon fill="black" stroke="black" points="1042.46,-75.5 1052.46,-72 1042.46,-68.5 1042.46,-75.5"/>
</g>
<!-- Notify Result Appeal to Offender_var0_step7 -->
<g id="node9" class="node">
<title>Notify Result Appeal to Offender_var0_step7</title>
<polygon fill="lightgrey" stroke="black" points="1519,-90 1320,-90 1320,-54 1519,-54 1519,-90"/>
<text text-anchor="middle" x="1419.5" y="-68.3" font-family="Times,serif" font-size="14.00">Notify Result Appeal to Offender</text>
</g>
<!-- Receive Result Appeal from Prefecture_var0_step6&#45;&gt;Notify Result Appeal to Offender_var0_step7 -->
<g id="edge7" class="edge">
<title>Receive Result Appeal from Prefecture_var0_step6&#45;&gt;Notify Result Appeal to Offender_var0_step7</title>
<path fill="none" stroke="black" d="M1284.43,-72C1292.3,-72 1300.23,-72 1308.08,-72"/>
<polygon fill="black" stroke="black" points="1308.01,-75.5 1318.01,-72 1308.01,-68.5 1308.01,-75.5"/>
</g>
<!-- Appeal to Judge_var0_step8 -->
<g id="node10" class="node">
<title>Appeal to Judge_var0_step8</title>
<polygon fill="lightgrey" stroke="black" points="1688,-90 1583,-90 1583,-54 1688,-54 1688,-90"/>
<text text-anchor="middle" x="1635.5" y="-68.3" font-family="Times,serif" font-size="14.00">Appeal to Judge</text>
</g>
<!-- Notify Result Appeal to Offender_var0_step7&#45;&gt;Appeal to Judge_var0_step8 -->
<g id="edge8" class="edge">
<title>Notify Result Appeal to Offender_var0_step7&#45;&gt;Appeal to Judge_var0_step8</title>
<path fill="none" stroke="black" d="M1519.36,-72C1537.15,-72 1555.25,-72 1571.67,-72"/>
<polygon fill="black" stroke="black" points="1571.23,-75.5 1581.23,-72 1571.23,-68.5 1571.23,-75.5"/>
</g>
<!-- start_node_var1 -->
<g id="node11" class="node">
<title>start_node_var1</title>
<text text-anchor="middle" x="40" y="-122.3" font-family="Times,serif" font-size="14.00">12 traces</text>
</g>
<!-- Create Fine_var1_step0 -->
<g id="node12" class="node">
<title>Create Fine_var1_step0</title>
<polygon fill="lightgrey" stroke="black" points="80,-198 0,-198 0,-162 80,-162 80,-198"/>
<text text-anchor="middle" x="40" y="-176.3" font-family="Times,serif" font-size="14.00">Create Fine</text>
</g>
<!-- Send Fine_var1_step1 -->
<g id="node13" class="node">
<title>Send Fine_var1_step1</title>
<polygon fill="lightgrey" stroke="black" points="187,-198 116,-198 116,-162 187,-162 187,-198"/>
<text text-anchor="middle" x="151.5" y="-176.3" font-family="Times,serif" font-size="14.00">Send Fine</text>
</g>
<!-- Create Fine_var1_step0&#45;&gt;Send Fine_var1_step1 -->
<g id="edge9" class="edge">
<title>Create Fine_var1_step0&#45;&gt;Send Fine_var1_step1</title>
<path fill="none" stroke="black" d="M80.22,-180C87.97,-180 96.18,-180 104.14,-180"/>
<polygon fill="black" stroke="black" points="104.04,-183.5 114.04,-180 104.04,-176.5 104.04,-183.5"/>
</g>
<!-- Insert Fine Notification_var1_step2 -->
<g id="node14" class="node">
<title>Insert Fine Notification_var1_step2</title>
<polygon fill="lightgrey" stroke="black" points="367,-198 223,-198 223,-162 367,-162 367,-198"/>
<text text-anchor="middle" x="295" y="-176.3" font-family="Times,serif" font-size="14.00">Insert Fine Notification</text>
</g>
<!-- Send Fine_var1_step1&#45;&gt;Insert Fine Notification_var1_step2 -->
<g id="edge10" class="edge">
<title>Send Fine_var1_step1&#45;&gt;Insert Fine Notification_var1_step2</title>
<path fill="none" stroke="black" d="M187.48,-180C194.85,-180 202.92,-180 211.22,-180"/>
<polygon fill="black" stroke="black" points="211.13,-183.5 221.13,-180 211.13,-176.5 211.13,-183.5"/>
</g>
<!-- Insert Date Appeal to Prefecture_var1_step3 -->
<g id="node15" class="node">
<title>Insert Date Appeal to Prefecture_var1_step3</title>
<polygon fill="lightgrey" stroke="black" points="595,-198 403,-198 403,-162 595,-162 595,-198"/>
<text text-anchor="middle" x="499" y="-176.3" font-family="Times,serif" font-size="14.00">Insert Date Appeal to Prefecture</text>
</g>
<!-- Insert Fine Notification_var1_step2&#45;&gt;Insert Date Appeal to Prefecture_var1_step3 -->
<g id="edge11" class="edge">
<title>Insert Fine Notification_var1_step2&#45;&gt;Insert Date Appeal to Prefecture_var1_step3</title>
<path fill="none" stroke="black" d="M367.22,-180C375.02,-180 383.07,-180 391.18,-180"/>
<polygon fill="black" stroke="black" points="391.14,-183.5 401.14,-180 391.14,-176.5 391.14,-183.5"/>
</g>
<!-- Add penalty_var1_step4 -->
<g id="node16" class="node">
<title>Add penalty_var1_step4</title>
<polygon fill="lightgrey" stroke="black" points="768.5,-198 685.5,-198 685.5,-162 768.5,-162 768.5,-198"/>
<text text-anchor="middle" x="727" y="-176.3" font-family="Times,serif" font-size="14.00">Add penalty</text>
</g>
<!-- Insert Date Appeal to Prefecture_var1_step3&#45;&gt;Add penalty_var1_step4 -->
<g id="edge12" class="edge">
<title>Insert Date Appeal to Prefecture_var1_step3&#45;&gt;Add penalty_var1_step4</title>
<path fill="none" stroke="black" d="M595.19,-180C622.12,-180 650.44,-180 673.82,-180"/>
<polygon fill="black" stroke="black" points="673.7,-183.5 683.7,-180 673.7,-176.5 673.7,-183.5"/>
</g>
<!-- Send Appeal to Prefecture_var1_step5 -->
<g id="node17" class="node">
<title>Send Appeal to Prefecture_var1_step5</title>
<polygon fill="lightgrey" stroke="black" points="1018,-198 859,-198 859,-162 1018,-162 1018,-198"/>
<text text-anchor="middle" x="938.5" y="-176.3" font-family="Times,serif" font-size="14.00">Send Appeal to Prefecture</text>
</g>
<!-- Add penalty_var1_step4&#45;&gt;Send Appeal to Prefecture_var1_step5 -->
<g id="edge13" class="edge">
<title>Add penalty_var1_step4&#45;&gt;Send Appeal to Prefecture_var1_step5</title>
<path fill="none" stroke="black" d="M768.89,-180C791.29,-180 819.98,-180 847.33,-180"/>
<polygon fill="black" stroke="black" points="847.02,-183.5 857.02,-180 847.02,-176.5 847.02,-183.5"/>
</g>
<!-- Receive Result Appeal from Prefecture_var1_step6 -->
<g id="node18" class="node">
<title>Receive Result Appeal from Prefecture_var1_step6</title>
<polygon fill="lightgrey" stroke="black" points="1284,-198 1054,-198 1054,-162 1284,-162 1284,-198"/>
<text text-anchor="middle" x="1169" y="-176.3" font-family="Times,serif" font-size="14.00">Receive Result Appeal from Prefecture</text>
</g>
<!-- Send Appeal to Prefecture_var1_step5&#45;&gt;Receive Result Appeal from Prefecture_var1_step6 -->
<g id="edge14" class="edge">
<title>Send Appeal to Prefecture_var1_step5&#45;&gt;Receive Result Appeal from Prefecture_var1_step6</title>
<path fill="none" stroke="black" d="M1018.46,-180C1026.17,-180 1034.13,-180 1042.16,-180"/>
<polygon fill="black" stroke="black" points="1042.03,-183.5 1052.03,-180 1042.03,-176.5 1042.03,-183.5"/>
</g>
<!-- Notify Result Appeal to Offender_var1_step7 -->
<g id="node19" class="node">
<title>Notify Result Appeal to Offender_var1_step7</title>
<polygon fill="lightgrey" stroke="black" points="1519,-198 1320,-198 1320,-162 1519,-162 1519,-198"/>
<text text-anchor="middle" x="1419.5" y="-176.3" font-family="Times,serif" font-size="14.00">Notify Result Appeal to Offender</text>
</g>
<!-- Receive Result Appeal from Prefecture_var1_step6&#45;&gt;Notify Result Appeal to Offender_var1_step7 -->
<g id="edge15" class="edge">
<title>Receive Result Appeal from Prefecture_var1_step6&#45;&gt;Notify Result Appeal to Offender_var1_step7</title>
<path fill="none" stroke="black" d="M1284.43,-180C1292.3,-180 1300.23,-180 1308.08,-180"/>
<polygon fill="black" stroke="black" points="1308.01,-183.5 1318.01,-180 1308.01,-176.5 1308.01,-183.5"/>
</g>
<!-- Appeal to Judge_var1_step8 -->
<g id="node20" class="node">
<title>Appeal to Judge_var1_step8</title>
<polygon fill="lightgrey" stroke="black" points="1688,-198 1583,-198 1583,-162 1688,-162 1688,-198"/>
<text text-anchor="middle" x="1635.5" y="-176.3" font-family="Times,serif" font-size="14.00">Appeal to Judge</text>
</g>
<!-- Notify Result Appeal to Offender_var1_step7&#45;&gt;Appeal to Judge_var1_step8 -->
<g id="edge16" class="edge">
<title>Notify Result Appeal to Offender_var1_step7&#45;&gt;Appeal to Judge_var1_step8</title>
<path fill="none" stroke="black" d="M1519.36,-180C1537.15,-180 1555.25,-180 1571.67,-180"/>
<polygon fill="black" stroke="black" points="1571.23,-183.5 1581.23,-180 1571.23,-176.5 1571.23,-183.5"/>
</g>
<!-- Payment_var1_step9 -->
<g id="node21" class="node">
<title>Payment_var1_step9</title>
<polygon fill="lightgrey" stroke="black" points="1817,-198 1752,-198 1752,-162 1817,-162 1817,-198"/>
<text text-anchor="middle" x="1784.5" y="-176.3" font-family="Times,serif" font-size="14.00">Payment</text>
</g>
<!-- Appeal to Judge_var1_step8&#45;&gt;Payment_var1_step9 -->
<g id="edge17" class="edge">
<title>Appeal to Judge_var1_step8&#45;&gt;Payment_var1_step9</title>
<path fill="none" stroke="black" d="M1688.33,-180C1705.35,-180 1724.09,-180 1740.4,-180"/>
<polygon fill="black" stroke="black" points="1740.27,-183.5 1750.27,-180 1740.27,-176.5 1740.27,-183.5"/>
</g>
<!-- start_node_var2 -->
<g id="node22" class="node">
<title>start_node_var2</title>
<text text-anchor="middle" x="40" y="-230.3" font-family="Times,serif" font-size="14.00">20 traces</text>
</g>
<!-- Create Fine_var2_step0 -->
<g id="node23" class="node">
<title>Create Fine_var2_step0</title>
<polygon fill="lightgrey" stroke="black" points="80,-306 0,-306 0,-270 80,-270 80,-306"/>
<text text-anchor="middle" x="40" y="-284.3" font-family="Times,serif" font-size="14.00">Create Fine</text>
</g>
<!-- Send Fine_var2_step1 -->
<g id="node24" class="node">
<title>Send Fine_var2_step1</title>
<polygon fill="lightgrey" stroke="black" points="187,-306 116,-306 116,-270 187,-270 187,-306"/>
<text text-anchor="middle" x="151.5" y="-284.3" font-family="Times,serif" font-size="14.00">Send Fine</text>
</g>
<!-- Create Fine_var2_step0&#45;&gt;Send Fine_var2_step1 -->
<g id="edge18" class="edge">
<title>Create Fine_var2_step0&#45;&gt;Send Fine_var2_step1</title>
<path fill="none" stroke="black" d="M80.22,-288C87.97,-288 96.18,-288 104.14,-288"/>
<polygon fill="black" stroke="black" points="104.04,-291.5 114.04,-288 104.04,-284.5 104.04,-291.5"/>
</g>
<!-- Insert Fine Notification_var2_step2 -->
<g id="node25" class="node">
<title>Insert Fine Notification_var2_step2</title>
<polygon fill="lightgrey" stroke="black" points="367,-306 223,-306 223,-270 367,-270 367,-306"/>
<text text-anchor="middle" x="295" y="-284.3" font-family="Times,serif" font-size="14.00">Insert Fine Notification</text>
</g>
<!-- Send Fine_var2_step1&#45;&gt;Insert Fine Notification_var2_step2 -->
<g id="edge19" class="edge">
<title>Send Fine_var2_step1&#45;&gt;Insert Fine Notification_var2_step2</title>
<path fill="none" stroke="black" d="M187.48,-288C194.85,-288 202.92,-288 211.22,-288"/>
<polygon fill="black" stroke="black" points="211.13,-291.5 221.13,-288 211.13,-284.5 211.13,-291.5"/>
</g>
<!-- Add penalty_var2_step3 -->
<g id="node26" class="node">
<title>Add penalty_var2_step3</title>
<polygon fill="lightgrey" stroke="black" points="540.5,-306 457.5,-306 457.5,-270 540.5,-270 540.5,-306"/>
<text text-anchor="middle" x="499" y="-284.3" font-family="Times,serif" font-size="14.00">Add penalty</text>
</g>
<!-- Insert Fine Notification_var2_step2&#45;&gt;Add penalty_var2_step3 -->
<g id="edge20" class="edge">
<title>Insert Fine Notification_var2_step2&#45;&gt;Add penalty_var2_step3</title>
<path fill="none" stroke="black" d="M367.22,-288C393.09,-288 421.82,-288 445.74,-288"/>
<polygon fill="black" stroke="black" points="445.56,-291.5 455.56,-288 445.56,-284.5 445.56,-291.5"/>
</g>
<!-- Insert Date Appeal to Prefecture_var2_step4 -->
<g id="node27" class="node">
<title>Insert Date Appeal to Prefecture_var2_step4</title>
<polygon fill="lightgrey" stroke="black" points="823,-306 631,-306 631,-270 823,-270 823,-306"/>
<text text-anchor="middle" x="727" y="-284.3" font-family="Times,serif" font-size="14.00">Insert Date Appeal to Prefecture</text>
</g>
<!-- Add penalty_var2_step3&#45;&gt;Insert Date Appeal to Prefecture_var2_step4 -->
<g id="edge21" class="edge">
<title>Add penalty_var2_step3&#45;&gt;Insert Date Appeal to Prefecture_var2_step4</title>
<path fill="none" stroke="black" d="M540.93,-288C563.06,-288 591.53,-288 619.47,-288"/>
<polygon fill="black" stroke="black" points="619.46,-291.5 629.46,-288 619.46,-284.5 619.46,-291.5"/>
</g>
<!-- Send Appeal to Prefecture_var2_step5 -->
<g id="node28" class="node">
<title>Send Appeal to Prefecture_var2_step5</title>
<polygon fill="lightgrey" stroke="black" points="1018,-306 859,-306 859,-270 1018,-270 1018,-306"/>
<text text-anchor="middle" x="938.5" y="-284.3" font-family="Times,serif" font-size="14.00">Send Appeal to Prefecture</text>
</g>
<!-- Insert Date Appeal to Prefecture_var2_step4&#45;&gt;Send Appeal to Prefecture_var2_step5 -->
<g id="edge22" class="edge">
<title>Insert Date Appeal to Prefecture_var2_step4&#45;&gt;Send Appeal to Prefecture_var2_step5</title>
<path fill="none" stroke="black" d="M823.25,-288C831.33,-288 839.49,-288 847.53,-288"/>
<polygon fill="black" stroke="black" points="847.28,-291.5 857.28,-288 847.28,-284.5 847.28,-291.5"/>
</g>
<!-- Receive Result Appeal from Prefecture_var2_step6 -->
<g id="node29" class="node">
<title>Receive Result Appeal from Prefecture_var2_step6</title>
<polygon fill="lightgrey" stroke="black" points="1284,-306 1054,-306 1054,-270 1284,-270 1284,-306"/>
<text text-anchor="middle" x="1169" y="-284.3" font-family="Times,serif" font-size="14.00">Receive Result Appeal from Prefecture</text>
</g>
<!-- Send Appeal to Prefecture_var2_step5&#45;&gt;Receive Result Appeal from Prefecture_var2_step6 -->
<g id="edge23" class="edge">
<title>Send Appeal to Prefecture_var2_step5&#45;&gt;Receive Result Appeal from Prefecture_var2_step6</title>
<path fill="none" stroke="black" d="M1018.46,-288C1026.17,-288 1034.13,-288 1042.16,-288"/>
<polygon fill="black" stroke="black" points="1042.03,-291.5 1052.03,-288 1042.03,-284.5 1042.03,-291.5"/>
</g>
<!-- Notify Result Appeal to Offender_var2_step7 -->
<g id="node30" class="node">
<title>Notify Result Appeal to Offender_var2_step7</title>
<polygon fill="lightgrey" stroke="black" points="1519,-306 1320,-306 1320,-270 1519,-270 1519,-306"/>
<text text-anchor="middle" x="1419.5" y="-284.3" font-family="Times,serif" font-size="14.00">Notify Result Appeal to Offender</text>
</g>
<!-- Receive Result Appeal from Prefecture_var2_step6&#45;&gt;Notify Result Appeal to Offender_var2_step7 -->
<g id="edge24" class="edge">
<title>Receive Result Appeal from Prefecture_var2_step6&#45;&gt;Notify Result Appeal to Offender_var2_step7</title>
<path fill="none" stroke="black" d="M1284.43,-288C1292.3,-288 1300.23,-288 1308.08,-288"/>
<polygon fill="black" stroke="black" points="1308.01,-291.5 1318.01,-288 1308.01,-284.5 1308.01,-291.5"/>
</g>
<!-- Send for Credit Collection_var2_step8 -->
<g id="node31" class="node">
<title>Send for Credit Collection_var2_step8</title>
<polygon fill="lightgrey" stroke="black" points="1716,-306 1555,-306 1555,-270 1716,-270 1716,-306"/>
<text text-anchor="middle" x="1635.5" y="-284.3" font-family="Times,serif" font-size="14.00">Send for Credit Collection</text>
</g>
<!-- Notify Result Appeal to Offender_var2_step7&#45;&gt;Send for Credit Collection_var2_step8 -->
<g id="edge25" class="edge">
<title>Notify Result Appeal to Offender_var2_step7&#45;&gt;Send for Credit Collection_var2_step8</title>
<path fill="none" stroke="black" d="M1519.36,-288C1527.3,-288 1535.31,-288 1543.2,-288"/>
<polygon fill="black" stroke="black" points="1543.14,-291.5 1553.14,-288 1543.14,-284.5 1543.14,-291.5"/>
</g>
<!-- start_node_var3 -->
<g id="node32" class="node">
<title>start_node_var3</title>
<text text-anchor="middle" x="40" y="-338.3" font-family="Times,serif" font-size="14.00">21 traces</text>
</g>
<!-- Create Fine_var3_step0 -->
<g id="node33" class="node">
<title>Create Fine_var3_step0</title>
<polygon fill="lightgrey" stroke="black" points="80,-414 0,-414 0,-378 80,-378 80,-414"/>
<text text-anchor="middle" x="40" y="-392.3" font-family="Times,serif" font-size="14.00">Create Fine</text>
</g>
<!-- Send Fine_var3_step1 -->
<g id="node34" class="node">
<title>Send Fine_var3_step1</title>
<polygon fill="lightgrey" stroke="black" points="187,-414 116,-414 116,-378 187,-378 187,-414"/>
<text text-anchor="middle" x="151.5" y="-392.3" font-family="Times,serif" font-size="14.00">Send Fine</text>
</g>
<!-- Create Fine_var3_step0&#45;&gt;Send Fine_var3_step1 -->
<g id="edge26" class="edge">
<title>Create Fine_var3_step0&#45;&gt;Send Fine_var3_step1</title>
<path fill="none" stroke="black" d="M80.22,-396C87.97,-396 96.18,-396 104.14,-396"/>
<polygon fill="black" stroke="black" points="104.04,-399.5 114.04,-396 104.04,-392.5 104.04,-399.5"/>
</g>
<!-- Insert Fine Notification_var3_step2 -->
<g id="node35" class="node">
<title>Insert Fine Notification_var3_step2</title>
<polygon fill="lightgrey" stroke="black" points="367,-414 223,-414 223,-378 367,-378 367,-414"/>
<text text-anchor="middle" x="295" y="-392.3" font-family="Times,serif" font-size="14.00">Insert Fine Notification</text>
</g>
<!-- Send Fine_var3_step1&#45;&gt;Insert Fine Notification_var3_step2 -->
<g id="edge27" class="edge">
<title>Send Fine_var3_step1&#45;&gt;Insert Fine Notification_var3_step2</title>
<path fill="none" stroke="black" d="M187.48,-396C194.85,-396 202.92,-396 211.22,-396"/>
<polygon fill="black" stroke="black" points="211.13,-399.5 221.13,-396 211.13,-392.5 211.13,-399.5"/>
</g>
<!-- Insert Date Appeal to Prefecture_var3_step3 -->
<g id="node36" class="node">
<title>Insert Date Appeal to Prefecture_var3_step3</title>
<polygon fill="lightgrey" stroke="black" points="595,-414 403,-414 403,-378 595,-378 595,-414"/>
<text text-anchor="middle" x="499" y="-392.3" font-family="Times,serif" font-size="14.00">Insert Date Appeal to Prefecture</text>
</g>
<!-- Insert Fine Notification_var3_step2&#45;&gt;Insert Date Appeal to Prefecture_var3_step3 -->
<g id="edge28" class="edge">
<title>Insert Fine Notification_var3_step2&#45;&gt;Insert Date Appeal to Prefecture_var3_step3</title>
<path fill="none" stroke="black" d="M367.22,-396C375.02,-396 383.07,-396 391.18,-396"/>
<polygon fill="black" stroke="black" points="391.14,-399.5 401.14,-396 391.14,-392.5 391.14,-399.5"/>
</g>
<!-- Add penalty_var3_step4 -->
<g id="node37" class="node">
<title>Add penalty_var3_step4</title>
<polygon fill="lightgrey" stroke="black" points="768.5,-414 685.5,-414 685.5,-378 768.5,-378 768.5,-414"/>
<text text-anchor="middle" x="727" y="-392.3" font-family="Times,serif" font-size="14.00">Add penalty</text>
</g>
<!-- Insert Date Appeal to Prefecture_var3_step3&#45;&gt;Add penalty_var3_step4 -->
<g id="edge29" class="edge">
<title>Insert Date Appeal to Prefecture_var3_step3&#45;&gt;Add penalty_var3_step4</title>
<path fill="none" stroke="black" d="M595.19,-396C622.12,-396 650.44,-396 673.82,-396"/>
<polygon fill="black" stroke="black" points="673.7,-399.5 683.7,-396 673.7,-392.5 673.7,-399.5"/>
</g>
<!-- Send Appeal to Prefecture_var3_step5 -->
<g id="node38" class="node">
<title>Send Appeal to Prefecture_var3_step5</title>
<polygon fill="lightgrey" stroke="black" points="1018,-414 859,-414 859,-378 1018,-378 1018,-414"/>
<text text-anchor="middle" x="938.5" y="-392.3" font-family="Times,serif" font-size="14.00">Send Appeal to Prefecture</text>
</g>
<!-- Add penalty_var3_step4&#45;&gt;Send Appeal to Prefecture_var3_step5 -->
<g id="edge30" class="edge">
<title>Add penalty_var3_step4&#45;&gt;Send Appeal to Prefecture_var3_step5</title>
<path fill="none" stroke="black" d="M768.89,-396C791.29,-396 819.98,-396 847.33,-396"/>
<polygon fill="black" stroke="black" points="847.02,-399.5 857.02,-396 847.02,-392.5 847.02,-399.5"/>
</g>
<!-- Receive Result Appeal from Prefecture_var3_step6 -->
<g id="node39" class="node">
<title>Receive Result Appeal from Prefecture_var3_step6</title>
<polygon fill="lightgrey" stroke="black" points="1284,-414 1054,-414 1054,-378 1284,-378 1284,-414"/>
<text text-anchor="middle" x="1169" y="-392.3" font-family="Times,serif" font-size="14.00">Receive Result Appeal from Prefecture</text>
</g>
<!-- Send Appeal to Prefecture_var3_step5&#45;&gt;Receive Result Appeal from Prefecture_var3_step6 -->
<g id="edge31" class="edge">
<title>Send Appeal to Prefecture_var3_step5&#45;&gt;Receive Result Appeal from Prefecture_var3_step6</title>
<path fill="none" stroke="black" d="M1018.46,-396C1026.17,-396 1034.13,-396 1042.16,-396"/>
<polygon fill="black" stroke="black" points="1042.03,-399.5 1052.03,-396 1042.03,-392.5 1042.03,-399.5"/>
</g>
<!-- Notify Result Appeal to Offender_var3_step7 -->
<g id="node40" class="node">
<title>Notify Result Appeal to Offender_var3_step7</title>
<polygon fill="lightgrey" stroke="black" points="1519,-414 1320,-414 1320,-378 1519,-378 1519,-414"/>
<text text-anchor="middle" x="1419.5" y="-392.3" font-family="Times,serif" font-size="14.00">Notify Result Appeal to Offender</text>
</g>
<!-- Receive Result Appeal from Prefecture_var3_step6&#45;&gt;Notify Result Appeal to Offender_var3_step7 -->
<g id="edge32" class="edge">
<title>Receive Result Appeal from Prefecture_var3_step6&#45;&gt;Notify Result Appeal to Offender_var3_step7</title>
<path fill="none" stroke="black" d="M1284.43,-396C1292.3,-396 1300.23,-396 1308.08,-396"/>
<polygon fill="black" stroke="black" points="1308.01,-399.5 1318.01,-396 1308.01,-392.5 1308.01,-399.5"/>
</g>
<!-- Appeal to Judge_var3_step8 -->
<g id="node41" class="node">
<title>Appeal to Judge_var3_step8</title>
<polygon fill="lightgrey" stroke="black" points="1688,-414 1583,-414 1583,-378 1688,-378 1688,-414"/>
<text text-anchor="middle" x="1635.5" y="-392.3" font-family="Times,serif" font-size="14.00">Appeal to Judge</text>
</g>
<!-- Notify Result Appeal to Offender_var3_step7&#45;&gt;Appeal to Judge_var3_step8 -->
<g id="edge33" class="edge">
<title>Notify Result Appeal to Offender_var3_step7&#45;&gt;Appeal to Judge_var3_step8</title>
<path fill="none" stroke="black" d="M1519.36,-396C1537.15,-396 1555.25,-396 1571.67,-396"/>
<polygon fill="black" stroke="black" points="1571.23,-399.5 1581.23,-396 1571.23,-392.5 1571.23,-399.5"/>
</g>
<!-- start_node_var4 -->
<g id="node42" class="node">
<title>start_node_var4</title>
<text text-anchor="middle" x="40" y="-446.3" font-family="Times,serif" font-size="14.00">26 traces</text>
</g>
<!-- Create Fine_var4_step0 -->
<g id="node43" class="node">
<title>Create Fine_var4_step0</title>
<polygon fill="lightgrey" stroke="black" points="80,-522 0,-522 0,-486 80,-486 80,-522"/>
<text text-anchor="middle" x="40" y="-500.3" font-family="Times,serif" font-size="14.00">Create Fine</text>
</g>
<!-- Send Fine_var4_step1 -->
<g id="node44" class="node">
<title>Send Fine_var4_step1</title>
<polygon fill="lightgrey" stroke="black" points="187,-522 116,-522 116,-486 187,-486 187,-522"/>
<text text-anchor="middle" x="151.5" y="-500.3" font-family="Times,serif" font-size="14.00">Send Fine</text>
</g>
<!-- Create Fine_var4_step0&#45;&gt;Send Fine_var4_step1 -->
<g id="edge34" class="edge">
<title>Create Fine_var4_step0&#45;&gt;Send Fine_var4_step1</title>
<path fill="none" stroke="black" d="M80.22,-504C87.97,-504 96.18,-504 104.14,-504"/>
<polygon fill="black" stroke="black" points="104.04,-507.5 114.04,-504 104.04,-500.5 104.04,-507.5"/>
</g>
<!-- Insert Fine Notification_var4_step2 -->
<g id="node45" class="node">
<title>Insert Fine Notification_var4_step2</title>
<polygon fill="lightgrey" stroke="black" points="367,-522 223,-522 223,-486 367,-486 367,-522"/>
<text text-anchor="middle" x="295" y="-500.3" font-family="Times,serif" font-size="14.00">Insert Fine Notification</text>
</g>
<!-- Send Fine_var4_step1&#45;&gt;Insert Fine Notification_var4_step2 -->
<g id="edge35" class="edge">
<title>Send Fine_var4_step1&#45;&gt;Insert Fine Notification_var4_step2</title>
<path fill="none" stroke="black" d="M187.48,-504C194.85,-504 202.92,-504 211.22,-504"/>
<polygon fill="black" stroke="black" points="211.13,-507.5 221.13,-504 211.13,-500.5 211.13,-507.5"/>
</g>
<!-- Add penalty_var4_step3 -->
<g id="node46" class="node">
<title>Add penalty_var4_step3</title>
<polygon fill="lightgrey" stroke="black" points="540.5,-522 457.5,-522 457.5,-486 540.5,-486 540.5,-522"/>
<text text-anchor="middle" x="499" y="-500.3" font-family="Times,serif" font-size="14.00">Add penalty</text>
</g>
<!-- Insert Fine Notification_var4_step2&#45;&gt;Add penalty_var4_step3 -->
<g id="edge36" class="edge">
<title>Insert Fine Notification_var4_step2&#45;&gt;Add penalty_var4_step3</title>
<path fill="none" stroke="black" d="M367.22,-504C393.09,-504 421.82,-504 445.74,-504"/>
<polygon fill="black" stroke="black" points="445.56,-507.5 455.56,-504 445.56,-500.5 445.56,-507.5"/>
</g>
<!-- Insert Date Appeal to Prefecture_var4_step4 -->
<g id="node47" class="node">
<title>Insert Date Appeal to Prefecture_var4_step4</title>
<polygon fill="lightgrey" stroke="black" points="823,-522 631,-522 631,-486 823,-486 823,-522"/>
<text text-anchor="middle" x="727" y="-500.3" font-family="Times,serif" font-size="14.00">Insert Date Appeal to Prefecture</text>
</g>
<!-- Add penalty_var4_step3&#45;&gt;Insert Date Appeal to Prefecture_var4_step4 -->
<g id="edge37" class="edge">
<title>Add penalty_var4_step3&#45;&gt;Insert Date Appeal to Prefecture_var4_step4</title>
<path fill="none" stroke="black" d="M540.93,-504C563.06,-504 591.53,-504 619.47,-504"/>
<polygon fill="black" stroke="black" points="619.46,-507.5 629.46,-504 619.46,-500.5 619.46,-507.5"/>
</g>
<!-- Send Appeal to Prefecture_var4_step5 -->
<g id="node48" class="node">
<title>Send Appeal to Prefecture_var4_step5</title>
<polygon fill="lightgrey" stroke="black" points="1018,-522 859,-522 859,-486 1018,-486 1018,-522"/>
<text text-anchor="middle" x="938.5" y="-500.3" font-family="Times,serif" font-size="14.00">Send Appeal to Prefecture</text>
</g>
<!-- Insert Date Appeal to Prefecture_var4_step4&#45;&gt;Send Appeal to Prefecture_var4_step5 -->
<g id="edge38" class="edge">
<title>Insert Date Appeal to Prefecture_var4_step4&#45;&gt;Send Appeal to Prefecture_var4_step5</title>
<path fill="none" stroke="black" d="M823.25,-504C831.33,-504 839.49,-504 847.53,-504"/>
<polygon fill="black" stroke="black" points="847.28,-507.5 857.28,-504 847.28,-500.5 847.28,-507.5"/>
</g>
<!-- Receive Result Appeal from Prefecture_var4_step6 -->
<g id="node49" class="node">
<title>Receive Result Appeal from Prefecture_var4_step6</title>
<polygon fill="lightgrey" stroke="black" points="1284,-522 1054,-522 1054,-486 1284,-486 1284,-522"/>
<text text-anchor="middle" x="1169" y="-500.3" font-family="Times,serif" font-size="14.00">Receive Result Appeal from Prefecture</text>
</g>
<!-- Send Appeal to Prefecture_var4_step5&#45;&gt;Receive Result Appeal from Prefecture_var4_step6 -->
<g id="edge39" class="edge">
<title>Send Appeal to Prefecture_var4_step5&#45;&gt;Receive Result Appeal from Prefecture_var4_step6</title>
<path fill="none" stroke="black" d="M1018.46,-504C1026.17,-504 1034.13,-504 1042.16,-504"/>
<polygon fill="black" stroke="black" points="1042.03,-507.5 1052.03,-504 1042.03,-500.5 1042.03,-507.5"/>
</g>
<!-- Notify Result Appeal to Offender_var4_step7 -->
<g id="node50" class="node">
<title>Notify Result Appeal to Offender_var4_step7</title>
<polygon fill="lightgrey" stroke="black" points="1519,-522 1320,-522 1320,-486 1519,-486 1519,-522"/>
<text text-anchor="middle" x="1419.5" y="-500.3" font-family="Times,serif" font-size="14.00">Notify Result Appeal to Offender</text>
</g>
<!-- Receive Result Appeal from Prefecture_var4_step6&#45;&gt;Notify Result Appeal to Offender_var4_step7 -->
<g id="edge40" class="edge">
<title>Receive Result Appeal from Prefecture_var4_step6&#45;&gt;Notify Result Appeal to Offender_var4_step7</title>
<path fill="none" stroke="black" d="M1284.43,-504C1292.3,-504 1300.23,-504 1308.08,-504"/>
<polygon fill="black" stroke="black" points="1308.01,-507.5 1318.01,-504 1308.01,-500.5 1308.01,-507.5"/>
</g>
<!-- Payment_var4_step8 -->
<g id="node51" class="node">
<title>Payment_var4_step8</title>
<polygon fill="lightgrey" stroke="black" points="1668,-522 1603,-522 1603,-486 1668,-486 1668,-522"/>
<text text-anchor="middle" x="1635.5" y="-500.3" font-family="Times,serif" font-size="14.00">Payment</text>
</g>
<!-- Notify Result Appeal to Offender_var4_step7&#45;&gt;Payment_var4_step8 -->
<g id="edge41" class="edge">
<title>Notify Result Appeal to Offender_var4_step7&#45;&gt;Payment_var4_step8</title>
<path fill="none" stroke="black" d="M1519.36,-504C1544.74,-504 1570.74,-504 1591.6,-504"/>
<polygon fill="black" stroke="black" points="1591.41,-507.5 1601.41,-504 1591.41,-500.5 1591.41,-507.5"/>
</g>
<!-- start_node_var5 -->
<g id="node52" class="node">
<title>start_node_var5</title>
<text text-anchor="middle" x="40" y="-554.3" font-family="Times,serif" font-size="14.00">48 traces</text>
</g>
<!-- Create Fine_var5_step0 -->
<g id="node53" class="node">
<title>Create Fine_var5_step0</title>
<polygon fill="lightgrey" stroke="black" points="80,-630 0,-630 0,-594 80,-594 80,-630"/>
<text text-anchor="middle" x="40" y="-608.3" font-family="Times,serif" font-size="14.00">Create Fine</text>
</g>
<!-- Send Fine_var5_step1 -->
<g id="node54" class="node">
<title>Send Fine_var5_step1</title>
<polygon fill="lightgrey" stroke="black" points="187,-630 116,-630 116,-594 187,-594 187,-630"/>
<text text-anchor="middle" x="151.5" y="-608.3" font-family="Times,serif" font-size="14.00">Send Fine</text>
</g>
<!-- Create Fine_var5_step0&#45;&gt;Send Fine_var5_step1 -->
<g id="edge42" class="edge">
<title>Create Fine_var5_step0&#45;&gt;Send Fine_var5_step1</title>
<path fill="none" stroke="black" d="M80.22,-612C87.97,-612 96.18,-612 104.14,-612"/>
<polygon fill="black" stroke="black" points="104.04,-615.5 114.04,-612 104.04,-608.5 104.04,-615.5"/>
</g>
<!-- Insert Fine Notification_var5_step2 -->
<g id="node55" class="node">
<title>Insert Fine Notification_var5_step2</title>
<polygon fill="lightgrey" stroke="black" points="367,-630 223,-630 223,-594 367,-594 367,-630"/>
<text text-anchor="middle" x="295" y="-608.3" font-family="Times,serif" font-size="14.00">Insert Fine Notification</text>
</g>
<!-- Send Fine_var5_step1&#45;&gt;Insert Fine Notification_var5_step2 -->
<g id="edge43" class="edge">
<title>Send Fine_var5_step1&#45;&gt;Insert Fine Notification_var5_step2</title>
<path fill="none" stroke="black" d="M187.48,-612C194.85,-612 202.92,-612 211.22,-612"/>
<polygon fill="black" stroke="black" points="211.13,-615.5 221.13,-612 211.13,-608.5 211.13,-615.5"/>
</g>
<!-- Insert Date Appeal to Prefecture_var5_step3 -->
<g id="node56" class="node">
<title>Insert Date Appeal to Prefecture_var5_step3</title>
<polygon fill="lightgrey" stroke="black" points="595,-630 403,-630 403,-594 595,-594 595,-630"/>
<text text-anchor="middle" x="499" y="-608.3" font-family="Times,serif" font-size="14.00">Insert Date Appeal to Prefecture</text>
</g>
<!-- Insert Fine Notification_var5_step2&#45;&gt;Insert Date Appeal to Prefecture_var5_step3 -->
<g id="edge44" class="edge">
<title>Insert Fine Notification_var5_step2&#45;&gt;Insert Date Appeal to Prefecture_var5_step3</title>
<path fill="none" stroke="black" d="M367.22,-612C375.02,-612 383.07,-612 391.18,-612"/>
<polygon fill="black" stroke="black" points="391.14,-615.5 401.14,-612 391.14,-608.5 391.14,-615.5"/>
</g>
<!-- Send Appeal to Prefecture_var5_step4 -->
<g id="node57" class="node">
<title>Send Appeal to Prefecture_var5_step4</title>
<polygon fill="lightgrey" stroke="black" points="806.5,-630 647.5,-630 647.5,-594 806.5,-594 806.5,-630"/>
<text text-anchor="middle" x="727" y="-608.3" font-family="Times,serif" font-size="14.00">Send Appeal to Prefecture</text>
</g>
<!-- Insert Date Appeal to Prefecture_var5_step3&#45;&gt;Send Appeal to Prefecture_var5_step4 -->
<g id="edge45" class="edge">
<title>Insert Date Appeal to Prefecture_var5_step3&#45;&gt;Send Appeal to Prefecture_var5_step4</title>
<path fill="none" stroke="black" d="M595.19,-612C608.76,-612 622.68,-612 636.15,-612"/>
<polygon fill="black" stroke="black" points="635.82,-615.5 645.82,-612 635.82,-608.5 635.82,-615.5"/>
</g>
<!-- Add penalty_var5_step5 -->
<g id="node58" class="node">
<title>Add penalty_var5_step5</title>
<polygon fill="lightgrey" stroke="black" points="980,-630 897,-630 897,-594 980,-594 980,-630"/>
<text text-anchor="middle" x="938.5" y="-608.3" font-family="Times,serif" font-size="14.00">Add penalty</text>
</g>
<!-- Send Appeal to Prefecture_var5_step4&#45;&gt;Add penalty_var5_step5 -->
<g id="edge46" class="edge">
<title>Send Appeal to Prefecture_var5_step4&#45;&gt;Add penalty_var5_step5</title>
<path fill="none" stroke="black" d="M806.9,-612C833.12,-612 861.64,-612 885.32,-612"/>
<polygon fill="black" stroke="black" points="885.01,-615.5 895.01,-612 885.01,-608.5 885.01,-615.5"/>
</g>
<!-- Receive Result Appeal from Prefecture_var5_step6 -->
<g id="node59" class="node">
<title>Receive Result Appeal from Prefecture_var5_step6</title>
<polygon fill="lightgrey" stroke="black" points="1284,-630 1054,-630 1054,-594 1284,-594 1284,-630"/>
<text text-anchor="middle" x="1169" y="-608.3" font-family="Times,serif" font-size="14.00">Receive Result Appeal from Prefecture</text>
</g>
<!-- Add penalty_var5_step5&#45;&gt;Receive Result Appeal from Prefecture_var5_step6 -->
<g id="edge47" class="edge">
<title>Add penalty_var5_step5&#45;&gt;Receive Result Appeal from Prefecture_var5_step6</title>
<path fill="none" stroke="black" d="M980.35,-612C998.14,-612 1020.05,-612 1042.54,-612"/>
<polygon fill="black" stroke="black" points="1042.46,-615.5 1052.46,-612 1042.46,-608.5 1042.46,-615.5"/>
</g>
<!-- Notify Result Appeal to Offender_var5_step7 -->
<g id="node60" class="node">
<title>Notify Result Appeal to Offender_var5_step7</title>
<polygon fill="lightgrey" stroke="black" points="1519,-630 1320,-630 1320,-594 1519,-594 1519,-630"/>
<text text-anchor="middle" x="1419.5" y="-608.3" font-family="Times,serif" font-size="14.00">Notify Result Appeal to Offender</text>
</g>
<!-- Receive Result Appeal from Prefecture_var5_step6&#45;&gt;Notify Result Appeal to Offender_var5_step7 -->
<g id="edge48" class="edge">
<title>Receive Result Appeal from Prefecture_var5_step6&#45;&gt;Notify Result Appeal to Offender_var5_step7</title>
<path fill="none" stroke="black" d="M1284.43,-612C1292.3,-612 1300.23,-612 1308.08,-612"/>
<polygon fill="black" stroke="black" points="1308.01,-615.5 1318.01,-612 1308.01,-608.5 1308.01,-615.5"/>
</g>
<!-- Payment_var5_step8 -->
<g id="node61" class="node">
<title>Payment_var5_step8</title>
<polygon fill="lightgrey" stroke="black" points="1668,-630 1603,-630 1603,-594 1668,-594 1668,-630"/>
<text text-anchor="middle" x="1635.5" y="-608.3" font-family="Times,serif" font-size="14.00">Payment</text>
</g>
<!-- Notify Result Appeal to Offender_var5_step7&#45;&gt;Payment_var5_step8 -->
<g id="edge49" class="edge">
<title>Notify Result Appeal to Offender_var5_step7&#45;&gt;Payment_var5_step8</title>
<path fill="none" stroke="black" d="M1519.36,-612C1544.74,-612 1570.74,-612 1591.6,-612"/>
<polygon fill="black" stroke="black" points="1591.41,-615.5 1601.41,-612 1591.41,-608.5 1591.41,-615.5"/>
</g>
<!-- start_node_var6 -->
<g id="node62" class="node">
<title>start_node_var6</title>
<text text-anchor="middle" x="40" y="-662.3" font-family="Times,serif" font-size="14.00">76 traces</text>
</g>
<!-- Create Fine_var6_step0 -->
<g id="node63" class="node">
<title>Create Fine_var6_step0</title>
<polygon fill="lightgrey" stroke="black" points="80,-738 0,-738 0,-702 80,-702 80,-738"/>
<text text-anchor="middle" x="40" y="-716.3" font-family="Times,serif" font-size="14.00">Create Fine</text>
</g>
<!-- Send Fine_var6_step1 -->
<g id="node64" class="node">
<title>Send Fine_var6_step1</title>
<polygon fill="lightgrey" stroke="black" points="187,-738 116,-738 116,-702 187,-702 187,-738"/>
<text text-anchor="middle" x="151.5" y="-716.3" font-family="Times,serif" font-size="14.00">Send Fine</text>
</g>
<!-- Create Fine_var6_step0&#45;&gt;Send Fine_var6_step1 -->
<g id="edge50" class="edge">
<title>Create Fine_var6_step0&#45;&gt;Send Fine_var6_step1</title>
<path fill="none" stroke="black" d="M80.22,-720C87.97,-720 96.18,-720 104.14,-720"/>
<polygon fill="black" stroke="black" points="104.04,-723.5 114.04,-720 104.04,-716.5 104.04,-723.5"/>
</g>
<!-- Insert Fine Notification_var6_step2 -->
<g id="node65" class="node">
<title>Insert Fine Notification_var6_step2</title>
<polygon fill="lightgrey" stroke="black" points="367,-738 223,-738 223,-702 367,-702 367,-738"/>
<text text-anchor="middle" x="295" y="-716.3" font-family="Times,serif" font-size="14.00">Insert Fine Notification</text>
</g>
<!-- Send Fine_var6_step1&#45;&gt;Insert Fine Notification_var6_step2 -->
<g id="edge51" class="edge">
<title>Send Fine_var6_step1&#45;&gt;Insert Fine Notification_var6_step2</title>
<path fill="none" stroke="black" d="M187.48,-720C194.85,-720 202.92,-720 211.22,-720"/>
<polygon fill="black" stroke="black" points="211.13,-723.5 221.13,-720 211.13,-716.5 211.13,-723.5"/>
</g>
<!-- Insert Date Appeal to Prefecture_var6_step3 -->
<g id="node66" class="node">
<title>Insert Date Appeal to Prefecture_var6_step3</title>
<polygon fill="lightgrey" stroke="black" points="595,-738 403,-738 403,-702 595,-702 595,-738"/>
<text text-anchor="middle" x="499" y="-716.3" font-family="Times,serif" font-size="14.00">Insert Date Appeal to Prefecture</text>
</g>
<!-- Insert Fine Notification_var6_step2&#45;&gt;Insert Date Appeal to Prefecture_var6_step3 -->
<g id="edge52" class="edge">
<title>Insert Fine Notification_var6_step2&#45;&gt;Insert Date Appeal to Prefecture_var6_step3</title>
<path fill="none" stroke="black" d="M367.22,-720C375.02,-720 383.07,-720 391.18,-720"/>
<polygon fill="black" stroke="black" points="391.14,-723.5 401.14,-720 391.14,-716.5 391.14,-723.5"/>
</g>
<!-- Add penalty_var6_step4 -->
<g id="node67" class="node">
<title>Add penalty_var6_step4</title>
<polygon fill="lightgrey" stroke="black" points="768.5,-738 685.5,-738 685.5,-702 768.5,-702 768.5,-738"/>
<text text-anchor="middle" x="727" y="-716.3" font-family="Times,serif" font-size="14.00">Add penalty</text>
</g>
<!-- Insert Date Appeal to Prefecture_var6_step3&#45;&gt;Add penalty_var6_step4 -->
<g id="edge53" class="edge">
<title>Insert Date Appeal to Prefecture_var6_step3&#45;&gt;Add penalty_var6_step4</title>
<path fill="none" stroke="black" d="M595.19,-720C622.12,-720 650.44,-720 673.82,-720"/>
<polygon fill="black" stroke="black" points="673.7,-723.5 683.7,-720 673.7,-716.5 673.7,-723.5"/>
</g>
<!-- Send Appeal to Prefecture_var6_step5 -->
<g id="node68" class="node">
<title>Send Appeal to Prefecture_var6_step5</title>
<polygon fill="lightgrey" stroke="black" points="1018,-738 859,-738 859,-702 1018,-702 1018,-738"/>
<text text-anchor="middle" x="938.5" y="-716.3" font-family="Times,serif" font-size="14.00">Send Appeal to Prefecture</text>
</g>
<!-- Add penalty_var6_step4&#45;&gt;Send Appeal to Prefecture_var6_step5 -->
<g id="edge54" class="edge">
<title>Add penalty_var6_step4&#45;&gt;Send Appeal to Prefecture_var6_step5</title>
<path fill="none" stroke="black" d="M768.89,-720C791.29,-720 819.98,-720 847.33,-720"/>
<polygon fill="black" stroke="black" points="847.02,-723.5 857.02,-720 847.02,-716.5 847.02,-723.5"/>
</g>
<!-- Receive Result Appeal from Prefecture_var6_step6 -->
<g id="node69" class="node">
<title>Receive Result Appeal from Prefecture_var6_step6</title>
<polygon fill="lightgrey" stroke="black" points="1284,-738 1054,-738 1054,-702 1284,-702 1284,-738"/>
<text text-anchor="middle" x="1169" y="-716.3" font-family="Times,serif" font-size="14.00">Receive Result Appeal from Prefecture</text>
</g>
<!-- Send Appeal to Prefecture_var6_step5&#45;&gt;Receive Result Appeal from Prefecture_var6_step6 -->
<g id="edge55" class="edge">
<title>Send Appeal to Prefecture_var6_step5&#45;&gt;Receive Result Appeal from Prefecture_var6_step6</title>
<path fill="none" stroke="black" d="M1018.46,-720C1026.17,-720 1034.13,-720 1042.16,-720"/>
<polygon fill="black" stroke="black" points="1042.03,-723.5 1052.03,-720 1042.03,-716.5 1042.03,-723.5"/>
</g>
<!-- Notify Result Appeal to Offender_var6_step7 -->
<g id="node70" class="node">
<title>Notify Result Appeal to Offender_var6_step7</title>
<polygon fill="lightgrey" stroke="black" points="1519,-738 1320,-738 1320,-702 1519,-702 1519,-738"/>
<text text-anchor="middle" x="1419.5" y="-716.3" font-family="Times,serif" font-size="14.00">Notify Result Appeal to Offender</text>
</g>
<!-- Receive Result Appeal from Prefecture_var6_step6&#45;&gt;Notify Result Appeal to Offender_var6_step7 -->
<g id="edge56" class="edge">
<title>Receive Result Appeal from Prefecture_var6_step6&#45;&gt;Notify Result Appeal to Offender_var6_step7</title>
<path fill="none" stroke="black" d="M1284.43,-720C1292.3,-720 1300.23,-720 1308.08,-720"/>
<polygon fill="black" stroke="black" points="1308.01,-723.5 1318.01,-720 1308.01,-716.5 1308.01,-723.5"/>
</g>
<!-- Payment_var6_step8 -->
<g id="node71" class="node">
<title>Payment_var6_step8</title>
<polygon fill="lightgrey" stroke="black" points="1668,-738 1603,-738 1603,-702 1668,-702 1668,-738"/>
<text text-anchor="middle" x="1635.5" y="-716.3" font-family="Times,serif" font-size="14.00">Payment</text>
</g>
<!-- Notify Result Appeal to Offender_var6_step7&#45;&gt;Payment_var6_step8 -->
<g id="edge57" class="edge">
<title>Notify Result Appeal to Offender_var6_step7&#45;&gt;Payment_var6_step8</title>
<path fill="none" stroke="black" d="M1519.36,-720C1544.74,-720 1570.74,-720 1591.6,-720"/>
<polygon fill="black" stroke="black" points="1591.41,-723.5 1601.41,-720 1591.41,-716.5 1591.41,-723.5"/>
</g>
</g>
</svg>
