<?xml version="1.0" encoding="UTF-8" standalone="no"?>
<!DOCTYPE svg PUBLIC "-//W3C//DTD SVG 1.1//EN"
 "http://www.w3.org/Graphics/SVG/1.1/DTD/svg11.dtd">
<!-- Generated by graphviz version 7.0.5 (0)
 -->
<!-- Title: dfg Pages: 1 -->
<svg width="942pt" height="748pt"
 viewBox="0.00 0.00 942.00 748.00" xmlns="http://www.w3.org/2000/svg" xmlns:xlink="http://www.w3.org/1999/xlink">
<g id="graph0" class="graph" transform="scale(1 1) rotate(0) translate(4 744)">
<title>dfg</title>
<polygon fill="white" stroke="none" points="-4,4 -4,-744 938,-744 938,4 -4,4"/>
<!-- start_node -->
<g id="node1" class="node">
<title>start_node</title>
<ellipse fill="none" stroke="black" cx="289" cy="-722" rx="18" ry="18"/>
<text text-anchor="start" x="284.5" y="-718.3" font-family="Times,serif" font-size="14.00">●</text>
</g>
<!-- Create Fine -->
<g id="node2" class="node">
<title>Create Fine</title>
<polygon fill="#9b9bff" stroke="black" points="348.5,-653 229.5,-653 229.5,-617 348.5,-617 348.5,-653"/>
<text text-anchor="middle" x="289" y="-631.3" font-family="Times,serif" font-size="14.00">Create Fine (4672)</text>
</g>
<!-- start_node&#45;&gt;Create Fine -->
<g id="edge1" class="edge">
<title>start_node&#45;&gt;Create Fine</title>
<path fill="none" stroke="#000000" stroke-width="6.14" d="M289,-703.8C289,-694.07 289,-681.56 289,-669.94"/>
<polygon fill="#000000" stroke="#000000" stroke-width="6.14" points="294.37,-669.95 289,-659.95 283.63,-669.95 294.37,-669.95"/>
<text text-anchor="middle" x="303" y="-674.8" font-family="Times,serif" font-size="14.00">4672</text>
</g>
<!-- Send Fine -->
<g id="node3" class="node">
<title>Send Fine</title>
<polygon fill="#9d9dff" stroke="black" points="344.5,-566 233.5,-566 233.5,-530 344.5,-530 344.5,-566"/>
<text text-anchor="middle" x="289" y="-544.3" font-family="Times,serif" font-size="14.00">Send Fine (4558)</text>
</g>
<!-- Create Fine&#45;&gt;Send Fine -->
<g id="edge2" class="edge">
<title>Create Fine&#45;&gt;Send Fine</title>
<path fill="none" stroke="#000000" stroke-width="6" d="M289,-616.8C289,-606.96 289,-594.27 289,-582.53"/>
<polygon fill="#000000" stroke="#000000" stroke-width="6" points="294.25,-582.92 289,-572.92 283.75,-582.92 294.25,-582.92"/>
<text text-anchor="middle" x="303" y="-587.8" font-family="Times,serif" font-size="14.00">4556</text>
</g>
<!-- Payment -->
<g id="node7" class="node">
<title>Payment</title>
<polygon fill="#dadaff" stroke="black" points="702,-218 598,-218 598,-182 702,-182 702,-218"/>
<text text-anchor="middle" x="650" y="-196.3" font-family="Times,serif" font-size="14.00">Payment (1721)</text>
</g>
<!-- Create Fine&#45;&gt;Payment -->
<g id="edge6" class="edge">
<title>Create Fine&#45;&gt;Payment</title>
<path fill="none" stroke="#ff0000" stroke-width="0.64" stroke-dasharray="5,2" d="M348.83,-632.07C505.01,-626.23 913,-605.58 913,-549 913,-549 913,-549 913,-286 913,-244.12 790.74,-219.84 712.94,-208.62"/>
<polygon fill="#ff0000" stroke="#ff0000" stroke-width="0.64" points="713.62,-205.18 703.23,-207.26 712.65,-212.11 713.62,-205.18"/>
<text text-anchor="middle" x="923.5" y="-413.8" font-family="Times,serif" font-size="14.00">115</text>
</g>
<!-- Insert Date Appeal to Prefecture -->
<g id="node9" class="node">
<title>Insert Date Appeal to Prefecture</title>
<polygon fill="#fefeff" stroke="black" points="414,-305 196,-305 196,-269 414,-269 414,-305"/>
<text text-anchor="middle" x="305" y="-283.3" font-family="Times,serif" font-size="14.00">Insert Date Appeal to Prefecture (11)</text>
</g>
<!-- Create Fine&#45;&gt;Insert Date Appeal to Prefecture -->
<g id="edge20" class="edge">
<title>Create Fine&#45;&gt;Insert Date Appeal to Prefecture</title>
<path fill="none" stroke="#ff0000" stroke-width="0.5" stroke-dasharray="5,2" d="M229.24,-625.23C157.29,-612.96 46,-587.72 46,-549 46,-549 46,-549 46,-373 46,-341.21 117.34,-319.37 185.13,-305.8"/>
<polygon fill="#ff0000" stroke="#ff0000" stroke-width="0.5" points="185.65,-309.27 194.79,-303.92 184.31,-302.4 185.65,-309.27"/>
<text text-anchor="middle" x="49.5" y="-457.3" font-family="Times,serif" font-size="14.00">1</text>
</g>
<!-- Insert Fine Notification -->
<g id="node4" class="node">
<title>Insert Fine Notification</title>
<polygon fill="#afafff" stroke="black" points="591,-479 407,-479 407,-443 591,-443 591,-479"/>
<text text-anchor="middle" x="499" y="-457.3" font-family="Times,serif" font-size="14.00">Insert Fine Notification (3719)</text>
</g>
<!-- Send Fine&#45;&gt;Insert Fine Notification -->
<g id="edge3" class="edge">
<title>Send Fine&#45;&gt;Insert Fine Notification</title>
<path fill="none" stroke="#000000" stroke-width="4.98" d="M332,-529.59C363.57,-516.82 406.79,-499.32 441.35,-485.34"/>
<polygon fill="#000000" stroke="#000000" stroke-width="4.98" points="442.64,-489.52 450.28,-481.72 439.37,-481.43 442.64,-489.52"/>
<text text-anchor="middle" x="420" y="-500.8" font-family="Times,serif" font-size="14.00">3715</text>
</g>
<!-- Send Fine&#45;&gt;Payment -->
<g id="edge12" class="edge">
<title>Send Fine&#45;&gt;Payment</title>
<path fill="none" stroke="#000000" stroke-width="0.89" d="M344.75,-544.51C399.26,-540.95 484.17,-532.39 555,-512 644.22,-486.32 667.73,-464.28 726,-392 761.75,-347.65 777.33,-323.86 762,-269 757.39,-252.48 755.18,-246.98 742,-236 733.43,-228.86 723.26,-223.09 712.85,-218.45"/>
<polygon fill="#000000" stroke="#000000" stroke-width="0.89" points="714.24,-215.24 703.66,-214.69 711.59,-221.71 714.24,-215.24"/>
<text text-anchor="middle" x="762.5" y="-370.3" font-family="Times,serif" font-size="14.00">324</text>
</g>
<!-- Appeal to Judge -->
<g id="node8" class="node">
<title>Appeal to Judge</title>
<polygon fill="#fefeff" stroke="black" points="715.5,-305 584.5,-305 584.5,-269 715.5,-269 715.5,-305"/>
<text text-anchor="middle" x="650" y="-283.3" font-family="Times,serif" font-size="14.00">Appeal to Judge (27)</text>
</g>
<!-- Send Fine&#45;&gt;Appeal to Judge -->
<g id="edge29" class="edge">
<title>Send Fine&#45;&gt;Appeal to Judge</title>
<path fill="none" stroke="#ff0000" stroke-width="0.5" stroke-dasharray="5,2" d="M344.95,-541.12C423.79,-531.8 562.17,-511.3 600,-479 647.64,-438.32 652.74,-358.39 651.76,-315.98"/>
<polygon fill="#ff0000" stroke="#ff0000" stroke-width="0.5" points="655.26,-315.94 651.4,-306.07 648.27,-316.19 655.26,-315.94"/>
<text text-anchor="middle" x="643.5" y="-413.8" font-family="Times,serif" font-size="14.00">1</text>
</g>
<!-- Send Fine&#45;&gt;Insert Date Appeal to Prefecture -->
<g id="edge17" class="edge">
<title>Send Fine&#45;&gt;Insert Date Appeal to Prefecture</title>
<path fill="none" stroke="#ff0000" stroke-width="0.5" stroke-dasharray="5,2" d="M290.07,-529.6C292.8,-485.55 299.98,-369.32 303.29,-315.75"/>
<polygon fill="#ff0000" stroke="#ff0000" stroke-width="0.5" points="306.76,-316.27 303.88,-306.08 299.77,-315.84 306.76,-316.27"/>
<text text-anchor="middle" x="301.5" y="-413.8" font-family="Times,serif" font-size="14.00">2</text>
</g>
<!-- Send Appeal to Prefecture -->
<g id="node10" class="node">
<title>Send Appeal to Prefecture</title>
<polygon fill="#ffffff" stroke="black" points="238.5,-218 59.5,-218 59.5,-182 238.5,-182 238.5,-218"/>
<text text-anchor="middle" x="149" y="-196.3" font-family="Times,serif" font-size="14.00">Send Appeal to Prefecture (4)</text>
</g>
<!-- Send Fine&#45;&gt;Send Appeal to Prefecture -->
<g id="edge28" class="edge">
<title>Send Fine&#45;&gt;Send Appeal to Prefecture</title>
<path fill="none" stroke="#ff0000" stroke-width="0.5" stroke-dasharray="5,2" d="M277.63,-529.58C252.85,-490.84 193.68,-393.95 162,-305 153.2,-280.3 150.19,-250.45 149.24,-229.08"/>
<polygon fill="#ff0000" stroke="#ff0000" stroke-width="0.5" points="152.74,-229.1 148.93,-219.22 145.74,-229.32 152.74,-229.1"/>
<text text-anchor="middle" x="202.5" y="-370.3" font-family="Times,serif" font-size="14.00">1</text>
</g>
<!-- end_node -->
<g id="node11" class="node">
<title>end_node</title>
<ellipse fill="none" stroke="black" cx="440" cy="-22" rx="18" ry="18"/>
<ellipse fill="none" stroke="black" cx="440" cy="-22" rx="22" ry="22"/>
<text text-anchor="start" x="435.5" y="-18.3" font-family="Times,serif" font-size="14.00">■</text>
</g>
<!-- Send Fine&#45;&gt;end_node -->
<g id="edge32" class="edge">
<title>Send Fine&#45;&gt;end_node</title>
<path fill="none" stroke="#000000" stroke-width="1.12" d="M233.28,-542.03C149.3,-532.98 0,-510.11 0,-462 0,-462 0,-462 0,-112 0,-29.24 302.79,-22.54 406.01,-22.66"/>
<polygon fill="#000000" stroke="#000000" stroke-width="1.12" points="405.87,-26.16 415.88,-22.7 405.89,-19.16 405.87,-26.16"/>
<text text-anchor="middle" x="10.5" y="-283.3" font-family="Times,serif" font-size="14.00">515</text>
</g>
<!-- Add penalty -->
<g id="node5" class="node">
<title>Add penalty</title>
<polygon fill="#afafff" stroke="black" points="560.5,-392 437.5,-392 437.5,-356 560.5,-356 560.5,-392"/>
<text text-anchor="middle" x="499" y="-370.3" font-family="Times,serif" font-size="14.00">Add penalty (3719)</text>
</g>
<!-- Insert Fine Notification&#45;&gt;Add penalty -->
<g id="edge4" class="edge">
<title>Insert Fine Notification&#45;&gt;Add penalty</title>
<path fill="none" stroke="#000000" stroke-width="4.7" d="M499,-442.8C499,-432.96 499,-420.27 499,-408.53"/>
<polygon fill="#000000" stroke="#000000" stroke-width="4.7" points="503.11,-408.65 499,-398.65 494.89,-408.65 503.11,-408.65"/>
<text text-anchor="middle" x="513" y="-413.8" font-family="Times,serif" font-size="14.00">3478</text>
</g>
<!-- Insert Fine Notification&#45;&gt;Payment -->
<g id="edge13" class="edge">
<title>Insert Fine Notification&#45;&gt;Payment</title>
<path fill="none" stroke="#ff0000" stroke-width="0.75" stroke-dasharray="5,2" d="M552.67,-442.53C609.18,-420.71 694.15,-377.18 725,-305 731.29,-290.29 731.48,-283.63 725,-269 717.22,-251.43 702.4,-236.47 687.99,-225.09"/>
<polygon fill="#ff0000" stroke="#ff0000" stroke-width="0.75" points="690.15,-222.34 680.04,-219.16 685.96,-227.95 690.15,-222.34"/>
<text text-anchor="middle" x="724.5" y="-326.8" font-family="Times,serif" font-size="14.00">212</text>
</g>
<!-- Insert Fine Notification&#45;&gt;Appeal to Judge -->
<g id="edge9" class="edge">
<title>Insert Fine Notification&#45;&gt;Appeal to Judge</title>
<path fill="none" stroke="#ff0000" stroke-width="0.53" stroke-dasharray="5,2" d="M523.89,-442.64C553.13,-421.11 601.4,-381.83 631,-338 635.64,-331.12 639.36,-322.95 642.23,-315.23"/>
<polygon fill="#ff0000" stroke="#ff0000" stroke-width="0.53" points="645.5,-316.49 645.38,-305.9 638.87,-314.26 645.5,-316.49"/>
<text text-anchor="middle" x="623" y="-370.3" font-family="Times,serif" font-size="14.00">22</text>
</g>
<!-- Insert Fine Notification&#45;&gt;Insert Date Appeal to Prefecture -->
<g id="edge26" class="edge">
<title>Insert Fine Notification&#45;&gt;Insert Date Appeal to Prefecture</title>
<path fill="none" stroke="#ff0000" stroke-width="0.51" stroke-dasharray="5,2" d="M477.32,-442.84C448.48,-419.78 396.22,-377.14 354,-338 345.35,-329.99 336.22,-320.87 328.22,-312.63"/>
<polygon fill="#ff0000" stroke="#ff0000" stroke-width="0.51" points="330.93,-310.4 321.48,-305.62 325.89,-315.25 330.93,-310.4"/>
<text text-anchor="middle" x="417.5" y="-370.3" font-family="Times,serif" font-size="14.00">7</text>
</g>
<!-- Send for Credit Collection -->
<g id="node6" class="node">
<title>Send for Credit Collection</title>
<polygon fill="#bfbfff" stroke="black" points="709,-131 509,-131 509,-95 709,-95 709,-131"/>
<text text-anchor="middle" x="609" y="-109.3" font-family="Times,serif" font-size="14.00">Send for Credit Collection (2952)</text>
</g>
<!-- Add penalty&#45;&gt;Send for Credit Collection -->
<g id="edge5" class="edge">
<title>Add penalty&#45;&gt;Send for Credit Collection</title>
<path fill="none" stroke="#000000" stroke-width="3.92" d="M503.28,-355.54C508.52,-334.74 517.93,-299.03 528,-269 543.27,-223.48 570.58,-175.06 589.23,-144.68"/>
<polygon fill="#000000" stroke="#000000" stroke-width="3.92" points="592.11,-146.68 594.45,-136.35 586.17,-142.97 592.11,-146.68"/>
<text text-anchor="middle" x="554" y="-239.8" font-family="Times,serif" font-size="14.00">2836</text>
</g>
<!-- Add penalty&#45;&gt;Payment -->
<g id="edge7" class="edge">
<title>Add penalty&#45;&gt;Payment</title>
<path fill="none" stroke="#000000" stroke-width="1.56" d="M495.19,-355.69C491.37,-334.1 487.86,-296.66 502,-269 507.48,-258.27 534.36,-241.65 545,-236 557.79,-229.21 572.16,-223.38 586.06,-218.54"/>
<polygon fill="#000000" stroke="#000000" stroke-width="1.56" points="586.96,-221.93 595.34,-215.45 584.75,-215.28 586.96,-221.93"/>
<text text-anchor="middle" x="512.5" y="-283.3" font-family="Times,serif" font-size="14.00">878</text>
</g>
<!-- Add penalty&#45;&gt;Appeal to Judge -->
<g id="edge15" class="edge">
<title>Add penalty&#45;&gt;Appeal to Judge</title>
<path fill="none" stroke="#ff0000" stroke-width="0.5" stroke-dasharray="5,2" d="M528.71,-355.72C545.48,-346.02 566.85,-333.74 586,-323 593.22,-318.95 600.93,-314.69 608.41,-310.58"/>
<polygon fill="#ff0000" stroke="#ff0000" stroke-width="0.5" points="609.94,-313.73 617.03,-305.86 606.58,-307.59 609.94,-313.73"/>
<text text-anchor="middle" x="589.5" y="-326.8" font-family="Times,serif" font-size="14.00">4</text>
</g>
<!-- Add penalty&#45;&gt;Insert Date Appeal to Prefecture -->
<g id="edge24" class="edge">
<title>Add penalty&#45;&gt;Insert Date Appeal to Prefecture</title>
<path fill="none" stroke="#ff0000" stroke-width="0.5" stroke-dasharray="5,2" d="M464.28,-355.72C443.96,-345.79 417.71,-333.29 394,-323 383.39,-318.39 371.96,-313.7 360.95,-309.31"/>
<polygon fill="#ff0000" stroke="#ff0000" stroke-width="0.5" points="362.28,-306.07 351.69,-305.66 359.7,-312.59 362.28,-306.07"/>
<text text-anchor="middle" x="429.5" y="-326.8" font-family="Times,serif" font-size="14.00">1</text>
</g>
<!-- Send for Credit Collection&#45;&gt;end_node -->
<g id="edge30" class="edge">
<title>Send for Credit Collection&#45;&gt;end_node</title>
<path fill="none" stroke="#000000" stroke-width="4.06" d="M576.01,-94.63C546.4,-79.03 503.14,-56.25 473.4,-40.59"/>
<polygon fill="#000000" stroke="#000000" stroke-width="4.06" points="475.1,-37.47 464.59,-35.95 471.79,-43.76 475.1,-37.47"/>
<text text-anchor="middle" x="553" y="-65.8" font-family="Times,serif" font-size="14.00">2952</text>
</g>
<!-- Payment&#45;&gt;Send Fine -->
<g id="edge16" class="edge">
<title>Payment&#45;&gt;Send Fine</title>
<path fill="none" stroke="#ff0000" stroke-width="0.5" stroke-dasharray="5,2" d="M702.47,-210C768.95,-222.93 875,-249.31 875,-286 875,-462 875,-462 875,-462 875,-513.98 509.17,-536.89 355.6,-544.21"/>
<polygon fill="#ff0000" stroke="#ff0000" stroke-width="0.5" points="355.5,-540.71 345.68,-544.67 355.83,-547.7 355.5,-540.71"/>
<text text-anchor="middle" x="878.5" y="-370.3" font-family="Times,serif" font-size="14.00">1</text>
</g>
<!-- Payment&#45;&gt;Insert Fine Notification -->
<g id="edge23" class="edge">
<title>Payment&#45;&gt;Insert Fine Notification</title>
<path fill="none" stroke="#ff0000" stroke-width="0.5" stroke-dasharray="5,2" d="M695.27,-218.5C704.41,-223.3 713.5,-229.13 721,-236 754.93,-267.11 758.09,-296.11 739,-338 714.37,-392.04 655.07,-422.49 601.58,-439.46"/>
<polygon fill="#ff0000" stroke="#ff0000" stroke-width="0.5" points="600.6,-436.1 592.04,-442.35 602.63,-442.8 600.6,-436.1"/>
<text text-anchor="middle" x="748.5" y="-326.8" font-family="Times,serif" font-size="14.00">1</text>
</g>
<!-- Payment&#45;&gt;Add penalty -->
<g id="edge14" class="edge">
<title>Payment&#45;&gt;Add penalty</title>
<path fill="none" stroke="#ff0000" stroke-width="0.75" stroke-dasharray="5,2" d="M618.52,-218.44C598.52,-230.66 573.09,-248.45 555,-269 544.06,-281.43 524.62,-319.59 511.77,-346.06"/>
<polygon fill="#ff0000" stroke="#ff0000" stroke-width="0.75" points="508.72,-344.33 507.54,-354.86 515.03,-347.37 508.72,-344.33"/>
<text text-anchor="middle" x="565.5" y="-283.3" font-family="Times,serif" font-size="14.00">212</text>
</g>
<!-- Payment&#45;&gt;Send for Credit Collection -->
<g id="edge11" class="edge">
<title>Payment&#45;&gt;Send for Credit Collection</title>
<path fill="none" stroke="#ff0000" stroke-width="0.64" stroke-dasharray="5,2" d="M641.7,-181.8C636.07,-170.12 628.51,-154.45 622.08,-141.11"/>
<polygon fill="#ff0000" stroke="#ff0000" stroke-width="0.64" points="625.34,-139.82 617.85,-132.34 619.04,-142.87 625.34,-139.82"/>
<text text-anchor="middle" x="641.5" y="-152.8" font-family="Times,serif" font-size="14.00">116</text>
</g>
<!-- Payment&#45;&gt;Payment -->
<g id="edge8" class="edge">
<title>Payment&#45;&gt;Payment</title>
<path fill="none" stroke="#ff0000" stroke-width="0.73" stroke-dasharray="5,2" d="M702.2,-207.82C712.59,-206.94 720,-204.33 720,-200 720,-197.43 717.39,-195.46 713.09,-194.11"/>
<polygon fill="#ff0000" stroke="#ff0000" stroke-width="0.73" points="713.74,-190.67 703.28,-192.37 712.52,-197.56 713.74,-190.67"/>
<text text-anchor="middle" x="730.5" y="-196.3" font-family="Times,serif" font-size="14.00">188</text>
</g>
<!-- Payment&#45;&gt;end_node -->
<g id="edge31" class="edge">
<title>Payment&#45;&gt;end_node</title>
<path fill="none" stroke="#000000" stroke-width="1.95" d="M597.83,-191.75C558.1,-183.57 504.81,-166.44 472,-131 453.45,-110.97 445.62,-80.67 442.33,-57.25"/>
<polygon fill="#000000" stroke="#000000" stroke-width="1.95" points="445.81,-56.87 441.2,-47.33 438.85,-57.66 445.81,-56.87"/>
<text text-anchor="middle" x="486" y="-109.3" font-family="Times,serif" font-size="14.00">1203</text>
</g>
<!-- Appeal to Judge&#45;&gt;Add penalty -->
<g id="edge10" class="edge">
<title>Appeal to Judge&#45;&gt;Add penalty</title>
<path fill="none" stroke="#ff0000" stroke-width="0.53" stroke-dasharray="5,2" d="M633.82,-305.08C623.05,-315.68 608.15,-328.96 593,-338 584.46,-343.1 575.04,-347.67 565.57,-351.69"/>
<polygon fill="#ff0000" stroke="#ff0000" stroke-width="0.53" points="564.41,-348.38 556.45,-355.38 567.04,-354.87 564.41,-348.38"/>
<text text-anchor="middle" x="620" y="-326.8" font-family="Times,serif" font-size="14.00">22</text>
</g>
<!-- Appeal to Judge&#45;&gt;Payment -->
<g id="edge22" class="edge">
<title>Appeal to Judge&#45;&gt;Payment</title>
<path fill="none" stroke="#ff0000" stroke-width="0.5" stroke-dasharray="5,2" d="M650,-268.8C650,-257.35 650,-242.06 650,-228.89"/>
<polygon fill="#ff0000" stroke="#ff0000" stroke-width="0.5" points="653.5,-229.23 650,-219.23 646.5,-229.23 653.5,-229.23"/>
<text text-anchor="middle" x="653.5" y="-239.8" font-family="Times,serif" font-size="14.00">3</text>
</g>
<!-- Appeal to Judge&#45;&gt;end_node -->
<g id="edge33" class="edge">
<title>Appeal to Judge&#45;&gt;end_node</title>
<path fill="none" stroke="#ff0000" stroke-width="0.5" stroke-dasharray="5,2" d="M584.16,-268.79C558.94,-261.83 534.97,-254.59 530,-251 477.4,-213.07 470.82,-191.32 447,-131 437.38,-106.63 436.16,-76.77 437.05,-54.62"/>
<polygon fill="#ff0000" stroke="#ff0000" stroke-width="0.5" points="440.53,-55.07 437.6,-44.88 433.54,-54.67 440.53,-55.07"/>
<text text-anchor="middle" x="462.5" y="-152.8" font-family="Times,serif" font-size="14.00">2</text>
</g>
<!-- Insert Date Appeal to Prefecture&#45;&gt;Add penalty -->
<g id="edge27" class="edge">
<title>Insert Date Appeal to Prefecture&#45;&gt;Add penalty</title>
<path fill="none" stroke="#ff0000" stroke-width="0.51" stroke-dasharray="5,2" d="M329.62,-305.47C345.23,-315.96 366.14,-328.97 386,-338 399.01,-343.92 413.3,-349.2 427.22,-353.76"/>
<polygon fill="#ff0000" stroke="#ff0000" stroke-width="0.51" points="425.93,-357.03 436.52,-356.72 428.05,-350.36 425.93,-357.03"/>
<text text-anchor="middle" x="389.5" y="-326.8" font-family="Times,serif" font-size="14.00">7</text>
</g>
<!-- Insert Date Appeal to Prefecture&#45;&gt;Payment -->
<g id="edge25" class="edge">
<title>Insert Date Appeal to Prefecture&#45;&gt;Payment</title>
<path fill="none" stroke="#ff0000" stroke-width="0.5" stroke-dasharray="5,2" d="M353.07,-268.57C383.21,-258.1 423.03,-245.09 459,-236 501.42,-225.28 549.93,-216.43 587.44,-210.31"/>
<polygon fill="#ff0000" stroke="#ff0000" stroke-width="0.5" points="587.65,-213.82 596.97,-208.78 586.54,-206.91 587.65,-213.82"/>
<text text-anchor="middle" x="462.5" y="-239.8" font-family="Times,serif" font-size="14.00">1</text>
</g>
<!-- Insert Date Appeal to Prefecture&#45;&gt;Send Appeal to Prefecture -->
<g id="edge18" class="edge">
<title>Insert Date Appeal to Prefecture&#45;&gt;Send Appeal to Prefecture</title>
<path fill="none" stroke="#ff0000" stroke-width="0.5" stroke-dasharray="5,2" d="M273.05,-268.59C249.08,-255.53 216.06,-237.54 190.11,-223.4"/>
<polygon fill="#ff0000" stroke="#ff0000" stroke-width="0.5" points="192.03,-220.46 181.57,-218.75 188.68,-226.6 192.03,-220.46"/>
<text text-anchor="middle" x="240.5" y="-239.8" font-family="Times,serif" font-size="14.00">3</text>
</g>
<!-- Send Appeal to Prefecture&#45;&gt;Send Fine -->
<g id="edge21" class="edge">
<title>Send Appeal to Prefecture&#45;&gt;Send Fine</title>
<path fill="none" stroke="#ff0000" stroke-width="0.5" stroke-dasharray="5,2" d="M128.42,-218.32C112.09,-234.09 92,-258.99 92,-286 92,-462 92,-462 92,-462 92,-520.21 165.41,-539.03 222.61,-544.85"/>
<polygon fill="#ff0000" stroke="#ff0000" stroke-width="0.5" points="222.05,-548.32 232.32,-545.73 222.68,-541.35 222.05,-548.32"/>
<text text-anchor="middle" x="95.5" y="-370.3" font-family="Times,serif" font-size="14.00">1</text>
</g>
<!-- Send Appeal to Prefecture&#45;&gt;Insert Fine Notification -->
<g id="edge19" class="edge">
<title>Send Appeal to Prefecture&#45;&gt;Insert Fine Notification</title>
<path fill="none" stroke="#ff0000" stroke-width="0.5" stroke-dasharray="5,2" d="M151.27,-218.12C155.05,-240.54 164.57,-279.93 187,-305 249.66,-375.02 351.18,-417.14 421.31,-439.43"/>
<polygon fill="#ff0000" stroke="#ff0000" stroke-width="0.5" points="420.11,-442.73 430.69,-442.35 422.19,-436.04 420.11,-442.73"/>
<text text-anchor="middle" x="224.5" y="-326.8" font-family="Times,serif" font-size="14.00">3</text>
</g>
</g>
</svg>
