<?xml version="1.0" encoding="UTF-8" standalone="no"?>
<!DOCTYPE svg PUBLIC "-//W3C//DTD SVG 1.1//EN"
 "http://www.w3.org/Graphics/SVG/1.1/DTD/svg11.dtd">
<!-- Generated by graphviz version 7.0.5 (0)
 -->
<!-- Title: dfg Pages: 1 -->
<svg width="717pt" height="1096pt"
 viewBox="0.00 0.00 716.50 1096.00" xmlns="http://www.w3.org/2000/svg" xmlns:xlink="http://www.w3.org/1999/xlink">
<g id="graph0" class="graph" transform="scale(1 1) rotate(0) translate(4 1092)">
<title>dfg</title>
<polygon fill="white" stroke="none" points="-4,4 -4,-1092 712.5,-1092 712.5,4 -4,4"/>
<!-- start_node -->
<g id="node1" class="node">
<title>start_node</title>
<ellipse fill="none" stroke="black" cx="471" cy="-1070" rx="18" ry="18"/>
<text text-anchor="start" x="466.5" y="-1066.3" font-family="Times,serif" font-size="14.00">●</text>
</g>
<!-- Create Fine -->
<g id="node2" class="node">
<title>Create Fine</title>
<polygon fill="#9b9bff" stroke="black" points="527.5,-1001 414.5,-1001 414.5,-965 527.5,-965 527.5,-1001"/>
<text text-anchor="middle" x="471" y="-979.3" font-family="Times,serif" font-size="14.00">Create Fine (136)</text>
</g>
<!-- start_node&#45;&gt;Create Fine -->
<g id="edge1" class="edge">
<title>start_node&#45;&gt;Create Fine</title>
<path fill="none" stroke="#000000" stroke-width="6" d="M471,-1051.8C471,-1041.96 471,-1029.27 471,-1017.53"/>
<polygon fill="#000000" stroke="#000000" stroke-width="6" points="476.25,-1017.92 471,-1007.92 465.75,-1017.92 476.25,-1017.92"/>
<text text-anchor="middle" x="481.5" y="-1022.8" font-family="Times,serif" font-size="14.00">136</text>
</g>
<!-- Send Fine -->
<g id="node3" class="node">
<title>Send Fine</title>
<polygon fill="#9b9bff" stroke="black" points="523,-914 419,-914 419,-878 523,-878 523,-914"/>
<text text-anchor="middle" x="471" y="-892.3" font-family="Times,serif" font-size="14.00">Send Fine (136)</text>
</g>
<!-- Create Fine&#45;&gt;Send Fine -->
<g id="edge2" class="edge">
<title>Create Fine&#45;&gt;Send Fine</title>
<path fill="none" stroke="#000000" stroke-width="6" d="M471,-964.8C471,-954.96 471,-942.27 471,-930.53"/>
<polygon fill="#000000" stroke="#000000" stroke-width="6" points="476.25,-930.92 471,-920.92 465.75,-930.92 476.25,-930.92"/>
<text text-anchor="middle" x="481.5" y="-935.8" font-family="Times,serif" font-size="14.00">136</text>
</g>
<!-- Insert Fine Notification -->
<g id="node4" class="node">
<title>Insert Fine Notification</title>
<polygon fill="#9b9bff" stroke="black" points="559.5,-827 382.5,-827 382.5,-791 559.5,-791 559.5,-827"/>
<text text-anchor="middle" x="471" y="-805.3" font-family="Times,serif" font-size="14.00">Insert Fine Notification (136)</text>
</g>
<!-- Send Fine&#45;&gt;Insert Fine Notification -->
<g id="edge3" class="edge">
<title>Send Fine&#45;&gt;Insert Fine Notification</title>
<path fill="none" stroke="#000000" stroke-width="6" d="M471,-877.8C471,-867.96 471,-855.27 471,-843.53"/>
<polygon fill="#000000" stroke="#000000" stroke-width="6" points="476.25,-843.92 471,-833.92 465.75,-843.92 476.25,-843.92"/>
<text text-anchor="middle" x="481.5" y="-848.8" font-family="Times,serif" font-size="14.00">136</text>
</g>
<!-- Insert Date Appeal to Prefecture -->
<g id="node5" class="node">
<title>Insert Date Appeal to Prefecture</title>
<polygon fill="#9b9bff" stroke="black" points="708.5,-740 483.5,-740 483.5,-704 708.5,-704 708.5,-740"/>
<text text-anchor="middle" x="596" y="-718.3" font-family="Times,serif" font-size="14.00">Insert Date Appeal to Prefecture (135)</text>
</g>
<!-- Insert Fine Notification&#45;&gt;Insert Date Appeal to Prefecture -->
<g id="edge4" class="edge">
<title>Insert Fine Notification&#45;&gt;Insert Date Appeal to Prefecture</title>
<path fill="none" stroke="#000000" stroke-width="5.39" d="M496.6,-790.59C514.04,-778.73 537.46,-762.81 557.18,-749.4"/>
<polygon fill="#000000" stroke="#000000" stroke-width="5.39" points="559.59,-753.46 565.21,-743.94 554.29,-745.66 559.59,-753.46"/>
<text text-anchor="middle" x="550.5" y="-761.8" font-family="Times,serif" font-size="14.00">121</text>
</g>
<!-- Add penalty -->
<g id="node7" class="node">
<title>Add penalty</title>
<polygon fill="#9b9bff" stroke="black" points="515,-566 399,-566 399,-530 515,-530 515,-566"/>
<text text-anchor="middle" x="457" y="-544.3" font-family="Times,serif" font-size="14.00">Add penalty (136)</text>
</g>
<!-- Insert Fine Notification&#45;&gt;Add penalty -->
<g id="edge22" class="edge">
<title>Insert Fine Notification&#45;&gt;Add penalty</title>
<path fill="none" stroke="#000000" stroke-width="1.07" d="M470.06,-790.6C467.69,-746.83 461.47,-631.77 458.55,-577.77"/>
<polygon fill="#000000" stroke="#000000" stroke-width="1.07" points="462.06,-577.73 458.02,-567.94 455.07,-578.11 462.06,-577.73"/>
<text text-anchor="middle" x="471" y="-674.8" font-family="Times,serif" font-size="14.00">15</text>
</g>
<!-- Send Appeal to Prefecture -->
<g id="node6" class="node">
<title>Send Appeal to Prefecture</title>
<polygon fill="#a0a0ff" stroke="black" points="429,-653 237,-653 237,-617 429,-617 429,-653"/>
<text text-anchor="middle" x="333" y="-631.3" font-family="Times,serif" font-size="14.00">Send Appeal to Prefecture (130)</text>
</g>
<!-- Insert Date Appeal to Prefecture&#45;&gt;Send Appeal to Prefecture -->
<g id="edge5" class="edge">
<title>Insert Date Appeal to Prefecture&#45;&gt;Send Appeal to Prefecture</title>
<path fill="none" stroke="#000000" stroke-width="2.9" d="M483.21,-704.24C461.87,-699.49 439.98,-693.5 420,-686 402.8,-679.55 385,-669.92 370.02,-660.84"/>
<polygon fill="#000000" stroke="#000000" stroke-width="2.9" points="372.23,-658.09 361.9,-655.75 368.52,-664.02 372.23,-658.09"/>
<text text-anchor="middle" x="427" y="-674.8" font-family="Times,serif" font-size="14.00">60</text>
</g>
<!-- Insert Date Appeal to Prefecture&#45;&gt;Add penalty -->
<g id="edge16" class="edge">
<title>Insert Date Appeal to Prefecture&#45;&gt;Add penalty</title>
<path fill="none" stroke="#000000" stroke-width="3.35" d="M587.4,-703.6C571.1,-671.11 535.69,-602.78 517,-584 513.64,-580.62 509.89,-577.46 505.95,-574.51"/>
<polygon fill="#000000" stroke="#000000" stroke-width="3.35" points="508.23,-571.83 497.97,-569.19 504.34,-577.65 508.23,-571.83"/>
<text text-anchor="middle" x="567" y="-631.3" font-family="Times,serif" font-size="14.00">71</text>
</g>
<!-- Receive Result Appeal from Prefecture -->
<g id="node8" class="node">
<title>Receive Result Appeal from Prefecture</title>
<polygon fill="#9b9bff" stroke="black" points="525.5,-392 262.5,-392 262.5,-356 525.5,-356 525.5,-392"/>
<text text-anchor="middle" x="394" y="-370.3" font-family="Times,serif" font-size="14.00">Receive Result Appeal from Prefecture (136)</text>
</g>
<!-- Insert Date Appeal to Prefecture&#45;&gt;Receive Result Appeal from Prefecture -->
<g id="edge11" class="edge">
<title>Insert Date Appeal to Prefecture&#45;&gt;Receive Result Appeal from Prefecture</title>
<path fill="none" stroke="#ff0000" stroke-width="0.62" stroke-dasharray="5,2" d="M595.02,-703.53C593.38,-682.42 589.07,-646.12 578,-617 539.38,-515.46 525.31,-486.32 448,-410 443.88,-405.93 439.21,-402.07 434.38,-398.51"/>
<polygon fill="#ff0000" stroke="#ff0000" stroke-width="0.62" points="436.6,-395.78 426.38,-392.96 432.61,-401.54 436.6,-395.78"/>
<text text-anchor="middle" x="560.5" y="-544.3" font-family="Times,serif" font-size="14.00">4</text>
</g>
<!-- Send Appeal to Prefecture&#45;&gt;Add penalty -->
<g id="edge6" class="edge">
<title>Send Appeal to Prefecture&#45;&gt;Add penalty</title>
<path fill="none" stroke="#000000" stroke-width="1.97" d="M351.33,-616.73C362.59,-606.57 377.58,-593.83 392,-584 397.76,-580.07 404,-576.24 410.27,-572.63"/>
<polygon fill="#000000" stroke="#000000" stroke-width="1.97" points="411.82,-575.77 418.86,-567.85 408.42,-569.65 411.82,-575.77"/>
<text text-anchor="middle" x="399" y="-587.8" font-family="Times,serif" font-size="14.00">37</text>
</g>
<!-- Send Appeal to Prefecture&#45;&gt;Receive Result Appeal from Prefecture -->
<g id="edge18" class="edge">
<title>Send Appeal to Prefecture&#45;&gt;Receive Result Appeal from Prefecture</title>
<path fill="none" stroke="#000000" stroke-width="4.21" d="M333.54,-616.9C334.66,-590.75 338.04,-539.39 348,-497 357.42,-456.89 365.24,-448.46 380,-410 380.34,-409.1 380.7,-408.19 381.05,-407.28"/>
<polygon fill="#000000" stroke="#000000" stroke-width="4.21" points="384.44,-408.73 384.69,-398.07 377.59,-406.02 384.44,-408.73"/>
<text text-anchor="middle" x="355" y="-500.8" font-family="Times,serif" font-size="14.00">92</text>
</g>
<!-- Notify Result Appeal to Offender -->
<g id="node9" class="node">
<title>Notify Result Appeal to Offender</title>
<polygon fill="#a2a2ff" stroke="black" points="305,-479 73,-479 73,-443 305,-443 305,-479"/>
<text text-anchor="middle" x="189" y="-457.3" font-family="Times,serif" font-size="14.00">Notify Result Appeal to Offender (127)</text>
</g>
<!-- Send Appeal to Prefecture&#45;&gt;Notify Result Appeal to Offender -->
<g id="edge25" class="edge">
<title>Send Appeal to Prefecture&#45;&gt;Notify Result Appeal to Offender</title>
<path fill="none" stroke="#ff0000" stroke-width="0.5" stroke-dasharray="5,2" d="M318.4,-616.56C292.85,-586.04 239.93,-522.83 210.29,-487.43"/>
<polygon fill="#ff0000" stroke="#ff0000" stroke-width="0.5" points="213.23,-485.49 204.12,-480.07 207.86,-489.98 213.23,-485.49"/>
<text text-anchor="middle" x="279.5" y="-544.3" font-family="Times,serif" font-size="14.00">1</text>
</g>
<!-- Add penalty&#45;&gt;Insert Date Appeal to Prefecture -->
<g id="edge23" class="edge">
<title>Add penalty&#45;&gt;Insert Date Appeal to Prefecture</title>
<path fill="none" stroke="#000000" stroke-width="1.03" d="M466.27,-566.48C478.04,-587.92 499.63,-624.87 523,-653 535.8,-668.41 551.94,-683.78 565.78,-695.99"/>
<polygon fill="#000000" stroke="#000000" stroke-width="1.03" points="563.46,-698.61 573.31,-702.51 568.04,-693.32 563.46,-698.61"/>
<text text-anchor="middle" x="530" y="-631.3" font-family="Times,serif" font-size="14.00">14</text>
</g>
<!-- Add penalty&#45;&gt;Send Appeal to Prefecture -->
<g id="edge17" class="edge">
<title>Add penalty&#45;&gt;Send Appeal to Prefecture</title>
<path fill="none" stroke="#000000" stroke-width="3.27" d="M442.13,-566.22C432.54,-576.61 419.4,-589.61 406,-599 400.4,-602.93 394.28,-606.63 388.06,-610.04"/>
<polygon fill="#000000" stroke="#000000" stroke-width="3.27" points="386.94,-606.68 379.65,-614.37 390.14,-612.91 386.94,-606.68"/>
<text text-anchor="middle" x="431" y="-587.8" font-family="Times,serif" font-size="14.00">69</text>
</g>
<!-- Add penalty&#45;&gt;Receive Result Appeal from Prefecture -->
<g id="edge7" class="edge">
<title>Add penalty&#45;&gt;Receive Result Appeal from Prefecture</title>
<path fill="none" stroke="#000000" stroke-width="2.05" d="M457.06,-529.86C456.45,-502.76 452.37,-449.08 431,-410 429.44,-407.15 427.57,-404.39 425.5,-401.77"/>
<polygon fill="#000000" stroke="#000000" stroke-width="2.05" points="428.28,-399.62 418.94,-394.62 423.12,-404.36 428.28,-399.62"/>
<text text-anchor="middle" x="459" y="-457.3" font-family="Times,serif" font-size="14.00">39</text>
</g>
<!-- Add penalty&#45;&gt;Notify Result Appeal to Offender -->
<g id="edge13" class="edge">
<title>Add penalty&#45;&gt;Notify Result Appeal to Offender</title>
<path fill="none" stroke="#000000" stroke-width="0.99" d="M398.78,-537.43C368.07,-531.6 330.01,-523.1 297,-512 274.92,-504.57 251.34,-493.99 231.87,-484.47"/>
<polygon fill="#000000" stroke="#000000" stroke-width="0.99" points="233.65,-481.45 223.14,-480.13 230.54,-487.72 233.65,-481.45"/>
<text text-anchor="middle" x="304" y="-500.8" font-family="Times,serif" font-size="14.00">13</text>
</g>
<!-- Payment -->
<g id="node11" class="node">
<title>Payment</title>
<polygon fill="#c3c3ff" stroke="black" points="343.5,-218 252.5,-218 252.5,-182 343.5,-182 343.5,-218"/>
<text text-anchor="middle" x="298" y="-196.3" font-family="Times,serif" font-size="14.00">Payment (88)</text>
</g>
<!-- Add penalty&#45;&gt;Payment -->
<g id="edge27" class="edge">
<title>Add penalty&#45;&gt;Payment</title>
<path fill="none" stroke="#ff0000" stroke-width="0.5" stroke-dasharray="5,2" d="M504.58,-529.5C532.37,-515.89 562,-493.9 562,-462 562,-462 562,-462 562,-286 562,-242.77 432.13,-218.37 354.56,-207.65"/>
<polygon fill="#ff0000" stroke="#ff0000" stroke-width="0.5" points="355.11,-204.19 344.74,-206.33 354.18,-211.13 355.11,-204.19"/>
<text text-anchor="middle" x="565.5" y="-370.3" font-family="Times,serif" font-size="14.00">1</text>
</g>
<!-- Receive Result Appeal from Prefecture&#45;&gt;Send Appeal to Prefecture -->
<g id="edge12" class="edge">
<title>Receive Result Appeal from Prefecture&#45;&gt;Send Appeal to Prefecture</title>
<path fill="none" stroke="#ff0000" stroke-width="0.5" stroke-dasharray="5,2" d="M390.67,-392.26C383.27,-430.01 364.49,-522.61 344,-599 343.35,-601.44 342.63,-603.96 341.89,-606.49"/>
<polygon fill="#ff0000" stroke="#ff0000" stroke-width="0.5" points="338.58,-605.33 339,-615.92 345.27,-607.38 338.58,-605.33"/>
<text text-anchor="middle" x="372.5" y="-500.8" font-family="Times,serif" font-size="14.00">1</text>
</g>
<!-- Receive Result Appeal from Prefecture&#45;&gt;Add penalty -->
<g id="edge24" class="edge">
<title>Receive Result Appeal from Prefecture&#45;&gt;Add penalty</title>
<path fill="none" stroke="#000000" stroke-width="0.99" d="M398.55,-392.16C404.22,-412.97 414.59,-448.98 426,-479 431.17,-492.6 437.76,-507.34 443.53,-519.6"/>
<polygon fill="#000000" stroke="#000000" stroke-width="0.99" points="440.22,-520.79 447.69,-528.3 446.54,-517.77 440.22,-520.79"/>
<text text-anchor="middle" x="433" y="-457.3" font-family="Times,serif" font-size="14.00">13</text>
</g>
<!-- Receive Result Appeal from Prefecture&#45;&gt;Notify Result Appeal to Offender -->
<g id="edge8" class="edge">
<title>Receive Result Appeal from Prefecture&#45;&gt;Notify Result Appeal to Offender</title>
<path fill="none" stroke="#000000" stroke-width="5.02" d="M316.71,-392.43C300.3,-397.24 283.31,-403.08 268,-410 256.88,-415.03 255.29,-418.43 245,-425 240.32,-427.99 235.4,-431.1 230.5,-434.18"/>
<polygon fill="#000000" stroke="#000000" stroke-width="5.02" points="228.41,-430.31 222.27,-439.34 233.08,-437.76 228.41,-430.31"/>
<text text-anchor="middle" x="278.5" y="-413.8" font-family="Times,serif" font-size="14.00">112</text>
</g>
<!-- Receive Result Appeal from Prefecture&#45;&gt;Payment -->
<g id="edge21" class="edge">
<title>Receive Result Appeal from Prefecture&#45;&gt;Payment</title>
<path fill="none" stroke="#000000" stroke-width="0.79" d="M384.27,-355.56C367.52,-325.56 333.14,-263.96 313.21,-228.25"/>
<polygon fill="#000000" stroke="#000000" stroke-width="0.79" points="316.27,-226.55 308.34,-219.52 310.16,-229.96 316.27,-226.55"/>
<text text-anchor="middle" x="359.5" y="-283.3" font-family="Times,serif" font-size="14.00">8</text>
</g>
<!-- Appeal to Judge -->
<g id="node12" class="node">
<title>Appeal to Judge</title>
<polygon fill="#ffffff" stroke="black" points="159.5,-305 28.5,-305 28.5,-269 159.5,-269 159.5,-305"/>
<text text-anchor="middle" x="94" y="-283.3" font-family="Times,serif" font-size="14.00">Appeal to Judge (17)</text>
</g>
<!-- Receive Result Appeal from Prefecture&#45;&gt;Appeal to Judge -->
<g id="edge29" class="edge">
<title>Receive Result Appeal from Prefecture&#45;&gt;Appeal to Judge</title>
<path fill="none" stroke="#ff0000" stroke-width="0.5" stroke-dasharray="5,2" d="M281.14,-355.58C257.41,-350.79 232.7,-344.96 210,-338 185.84,-330.59 159.92,-319.72 138.72,-310.01"/>
<polygon fill="#ff0000" stroke="#ff0000" stroke-width="0.5" points="140.27,-306.86 129.72,-305.81 137.31,-313.21 140.27,-306.86"/>
<text text-anchor="middle" x="213.5" y="-326.8" font-family="Times,serif" font-size="14.00">1</text>
</g>
<!-- end_node -->
<g id="node13" class="node">
<title>end_node</title>
<ellipse fill="none" stroke="black" cx="196" cy="-22" rx="18" ry="18"/>
<ellipse fill="none" stroke="black" cx="196" cy="-22" rx="22" ry="22"/>
<text text-anchor="start" x="191.5" y="-18.3" font-family="Times,serif" font-size="14.00">■</text>
</g>
<!-- Receive Result Appeal from Prefecture&#45;&gt;end_node -->
<g id="edge35" class="edge">
<title>Receive Result Appeal from Prefecture&#45;&gt;end_node</title>
<path fill="none" stroke="#ff0000" stroke-width="0.5" stroke-dasharray="5,2" d="M473.64,-355.51C531.61,-340.4 600,-316.53 600,-288 600,-288 600,-288 600,-112 600,-36.18 325.18,-24.89 228.87,-23.26"/>
<polygon fill="#ff0000" stroke="#ff0000" stroke-width="0.5" points="229.1,-19.76 219.05,-23.12 229,-26.76 229.1,-19.76"/>
<text text-anchor="middle" x="603.5" y="-196.3" font-family="Times,serif" font-size="14.00">1</text>
</g>
<!-- Notify Result Appeal to Offender&#45;&gt;Receive Result Appeal from Prefecture -->
<g id="edge26" class="edge">
<title>Notify Result Appeal to Offender&#45;&gt;Receive Result Appeal from Prefecture</title>
<path fill="none" stroke="#ff0000" stroke-width="0.5" stroke-dasharray="5,2" d="M245.34,-442.53C259.81,-437.44 275.18,-431.48 289,-425 300.73,-419.5 302.49,-415.94 314,-410 322.9,-405.41 332.53,-400.86 341.93,-396.63"/>
<polygon fill="#ff0000" stroke="#ff0000" stroke-width="0.5" points="343.17,-399.9 350.9,-392.66 340.34,-393.5 343.17,-399.9"/>
<text text-anchor="middle" x="317.5" y="-413.8" font-family="Times,serif" font-size="14.00">1</text>
</g>
<!-- Send for Credit Collection -->
<g id="node10" class="node">
<title>Send for Credit Collection</title>
<polygon fill="#f3f3ff" stroke="black" points="289.5,-131 102.5,-131 102.5,-95 289.5,-95 289.5,-131"/>
<text text-anchor="middle" x="196" y="-109.3" font-family="Times,serif" font-size="14.00">Send for Credit Collection (31)</text>
</g>
<!-- Notify Result Appeal to Offender&#45;&gt;Send for Credit Collection -->
<g id="edge9" class="edge">
<title>Notify Result Appeal to Offender&#45;&gt;Send for Credit Collection</title>
<path fill="none" stroke="#000000" stroke-width="1.52" d="M191.25,-442.78C193.3,-425.63 196,-398.54 196,-375 196,-375 196,-375 196,-199 196,-180.49 196,-159.7 196,-143.32"/>
<polygon fill="#000000" stroke="#000000" stroke-width="1.52" points="199.5,-143.55 196,-133.55 192.5,-143.55 199.5,-143.55"/>
<text text-anchor="middle" x="203" y="-283.3" font-family="Times,serif" font-size="14.00">26</text>
</g>
<!-- Notify Result Appeal to Offender&#45;&gt;Payment -->
<g id="edge10" class="edge">
<title>Notify Result Appeal to Offender&#45;&gt;Payment</title>
<path fill="none" stroke="#000000" stroke-width="3.27" d="M200.27,-442.51C203.6,-437.01 207.12,-430.85 210,-425 242.77,-358.41 272.43,-276.39 287.52,-232.41"/>
<polygon fill="#000000" stroke="#000000" stroke-width="3.27" points="290.83,-233.56 290.73,-222.96 284.2,-231.31 290.83,-233.56"/>
<text text-anchor="middle" x="261" y="-326.8" font-family="Times,serif" font-size="14.00">69</text>
</g>
<!-- Notify Result Appeal to Offender&#45;&gt;Appeal to Judge -->
<g id="edge14" class="edge">
<title>Notify Result Appeal to Offender&#45;&gt;Appeal to Judge</title>
<path fill="none" stroke="#000000" stroke-width="1.11" d="M179.37,-442.56C162.87,-412.69 129.06,-351.48 109.3,-315.71"/>
<polygon fill="#000000" stroke="#000000" stroke-width="1.11" points="112.37,-314.02 104.47,-306.96 106.24,-317.4 112.37,-314.02"/>
<text text-anchor="middle" x="158" y="-370.3" font-family="Times,serif" font-size="14.00">16</text>
</g>
<!-- Notify Result Appeal to Offender&#45;&gt;end_node -->
<g id="edge34" class="edge">
<title>Notify Result Appeal to Offender&#45;&gt;end_node</title>
<path fill="none" stroke="#000000" stroke-width="1.07" d="M72.53,-446.58C33.64,-435.06 0,-413.86 0,-375 0,-375 0,-375 0,-112 0,-41.5 106.44,-26.57 162.45,-23.6"/>
<polygon fill="#000000" stroke="#000000" stroke-width="1.07" points="162.43,-27.1 172.28,-23.19 162.14,-20.11 162.43,-27.1"/>
<text text-anchor="middle" x="7" y="-239.8" font-family="Times,serif" font-size="14.00">15</text>
</g>
<!-- Send for Credit Collection&#45;&gt;end_node -->
<g id="edge31" class="edge">
<title>Send for Credit Collection&#45;&gt;end_node</title>
<path fill="none" stroke="#000000" stroke-width="1.72" d="M196,-94.84C196,-84 196,-69.64 196,-56.6"/>
<polygon fill="#000000" stroke="#000000" stroke-width="1.72" points="199.5,-56.8 196,-46.8 192.5,-56.8 199.5,-56.8"/>
<text text-anchor="middle" x="203" y="-65.8" font-family="Times,serif" font-size="14.00">31</text>
</g>
<!-- Payment&#45;&gt;Send for Credit Collection -->
<g id="edge28" class="edge">
<title>Payment&#45;&gt;Send for Credit Collection</title>
<path fill="none" stroke="#ff0000" stroke-width="0.5" stroke-dasharray="5,2" d="M277.36,-181.8C262.25,-169.21 241.55,-151.96 224.82,-138.01"/>
<polygon fill="#ff0000" stroke="#ff0000" stroke-width="0.5" points="227.46,-135.66 217.54,-131.95 222.98,-141.04 227.46,-135.66"/>
<text text-anchor="middle" x="257.5" y="-152.8" font-family="Times,serif" font-size="14.00">1</text>
</g>
<!-- Payment&#45;&gt;Payment -->
<g id="edge20" class="edge">
<title>Payment&#45;&gt;Payment</title>
<path fill="none" stroke="#ff0000" stroke-width="0.66" stroke-dasharray="5,2" d="M343.95,-207.94C354.1,-207.19 361.5,-204.55 361.5,-200 361.5,-197.3 358.89,-195.27 354.65,-193.91"/>
<polygon fill="#ff0000" stroke="#ff0000" stroke-width="0.66" points="355.39,-190.49 344.94,-192.23 354.2,-197.39 355.39,-190.49"/>
<text text-anchor="middle" x="365" y="-196.3" font-family="Times,serif" font-size="14.00">5</text>
</g>
<!-- Payment&#45;&gt;end_node -->
<g id="edge32" class="edge">
<title>Payment&#45;&gt;end_node</title>
<path fill="none" stroke="#000000" stroke-width="3.8" d="M302.61,-181.66C307.38,-160.04 312.29,-122.57 298,-95 283.95,-67.88 254.45,-48.79 230.77,-37.12"/>
<polygon fill="#000000" stroke="#000000" stroke-width="3.8" points="232.41,-34.02 221.86,-33.05 229.5,-40.39 232.41,-34.02"/>
<text text-anchor="middle" x="315" y="-109.3" font-family="Times,serif" font-size="14.00">82</text>
</g>
<!-- Appeal to Judge&#45;&gt;Notify Result Appeal to Offender -->
<g id="edge30" class="edge">
<title>Appeal to Judge&#45;&gt;Notify Result Appeal to Offender</title>
<path fill="none" stroke="#ff0000" stroke-width="0.5" stroke-dasharray="5,2" d="M95.9,-305.23C98.86,-326.74 106.01,-364.1 122,-392 131.42,-408.43 145.78,-423.74 158.79,-435.66"/>
<polygon fill="#ff0000" stroke="#ff0000" stroke-width="0.5" points="156.29,-438.12 166.1,-442.12 160.93,-432.88 156.29,-438.12"/>
<text text-anchor="middle" x="125.5" y="-370.3" font-family="Times,serif" font-size="14.00">1</text>
</g>
<!-- Appeal to Judge&#45;&gt;Send for Credit Collection -->
<g id="edge19" class="edge">
<title>Appeal to Judge&#45;&gt;Send for Credit Collection</title>
<path fill="none" stroke="#ff0000" stroke-width="0.62" stroke-dasharray="5,2" d="M104.34,-268.56C122.21,-238.43 158.98,-176.43 180.11,-140.79"/>
<polygon fill="#ff0000" stroke="#ff0000" stroke-width="0.62" points="183.06,-142.68 185.15,-132.3 177.04,-139.11 183.06,-142.68"/>
<text text-anchor="middle" x="159.5" y="-196.3" font-family="Times,serif" font-size="14.00">4</text>
</g>
<!-- Appeal to Judge&#45;&gt;Payment -->
<g id="edge15" class="edge">
<title>Appeal to Judge&#45;&gt;Payment</title>
<path fill="none" stroke="#ff0000" stroke-width="0.66" stroke-dasharray="5,2" d="M135.77,-268.59C167.82,-255.24 212.21,-236.75 246.46,-222.48"/>
<polygon fill="#ff0000" stroke="#ff0000" stroke-width="0.66" points="247.47,-225.85 255.35,-218.77 244.78,-219.38 247.47,-225.85"/>
<text text-anchor="middle" x="212.5" y="-239.8" font-family="Times,serif" font-size="14.00">5</text>
</g>
<!-- Appeal to Judge&#45;&gt;end_node -->
<g id="edge33" class="edge">
<title>Appeal to Judge&#45;&gt;end_node</title>
<path fill="none" stroke="#ff0000" stroke-width="0.74" stroke-dasharray="5,2" d="M88.84,-268.67C79.42,-233.56 63.04,-152.49 93,-95 108.17,-65.88 141.1,-46.11 165.67,-34.77"/>
<polygon fill="#ff0000" stroke="#ff0000" stroke-width="0.74" points="166.82,-38.09 174.58,-30.87 164.01,-31.67 166.82,-38.09"/>
<text text-anchor="middle" x="81.5" y="-152.8" font-family="Times,serif" font-size="14.00">7</text>
</g>
</g>
</svg>
