<?xml version="1.0" encoding="UTF-8" standalone="no"?>
<!DOCTYPE svg PUBLIC "-//W3C//DTD SVG 1.1//EN"
 "http://www.w3.org/Graphics/SVG/1.1/DTD/svg11.dtd">
<!-- Generated by graphviz version 7.1.0 (0)
 -->
<!-- Pages: 1 -->
<svg width="792pt" height="422pt"
 viewBox="0.00 0.00 792.00 422.00" xmlns="http://www.w3.org/2000/svg" xmlns:xlink="http://www.w3.org/1999/xlink">
<g id="graph0" class="graph" transform="scale(1 1) rotate(0) translate(4 418)">
<polygon fill="white" stroke="none" points="-4,4 -4,-418 788,-418 788,4 -4,4"/>
<!-- start_node_var0 -->
<g id="node1" class="node">
<title>start_node_var0</title>
<text text-anchor="middle" x="40" y="-14.3" font-family="Times,serif" font-size="14.00">59 traces</text>
</g>
<!-- Create Fine_var0_step0 -->
<g id="node2" class="node">
<title>Create Fine_var0_step0</title>
<polygon fill="lightgrey" stroke="black" points="80,-90 0,-90 0,-54 80,-54 80,-90"/>
<text text-anchor="middle" x="40" y="-68.3" font-family="Times,serif" font-size="14.00">Create Fine</text>
</g>
<!-- Send Fine_var0_step1 -->
<g id="node3" class="node">
<title>Send Fine_var0_step1</title>
<polygon fill="lightgrey" stroke="black" points="187,-90 116,-90 116,-54 187,-54 187,-90"/>
<text text-anchor="middle" x="151.5" y="-68.3" font-family="Times,serif" font-size="14.00">Send Fine</text>
</g>
<!-- Create Fine_var0_step0&#45;&gt;Send Fine_var0_step1 -->
<g id="edge1" class="edge">
<title>Create Fine_var0_step0&#45;&gt;Send Fine_var0_step1</title>
<path fill="none" stroke="black" d="M80.22,-72C87.97,-72 96.18,-72 104.14,-72"/>
<polygon fill="black" stroke="black" points="104.04,-75.5 114.04,-72 104.04,-68.5 104.04,-75.5"/>
</g>
<!-- Insert Fine Notification_var0_step2 -->
<g id="node4" class="node">
<title>Insert Fine Notification_var0_step2</title>
<polygon fill="lightgrey" stroke="black" points="367,-90 223,-90 223,-54 367,-54 367,-90"/>
<text text-anchor="middle" x="295" y="-68.3" font-family="Times,serif" font-size="14.00">Insert Fine Notification</text>
</g>
<!-- Send Fine_var0_step1&#45;&gt;Insert Fine Notification_var0_step2 -->
<g id="edge2" class="edge">
<title>Send Fine_var0_step1&#45;&gt;Insert Fine Notification_var0_step2</title>
<path fill="none" stroke="black" d="M187.48,-72C194.85,-72 202.92,-72 211.22,-72"/>
<polygon fill="black" stroke="black" points="211.13,-75.5 221.13,-72 211.13,-68.5 211.13,-75.5"/>
</g>
<!-- Add penalty_var0_step3 -->
<g id="node5" class="node">
<title>Add penalty_var0_step3</title>
<polygon fill="lightgrey" stroke="black" points="486,-90 403,-90 403,-54 486,-54 486,-90"/>
<text text-anchor="middle" x="444.5" y="-68.3" font-family="Times,serif" font-size="14.00">Add penalty</text>
</g>
<!-- Insert Fine Notification_var0_step2&#45;&gt;Add penalty_var0_step3 -->
<g id="edge3" class="edge">
<title>Insert Fine Notification_var0_step2&#45;&gt;Add penalty_var0_step3</title>
<path fill="none" stroke="black" d="M367.16,-72C375.37,-72 383.63,-72 391.53,-72"/>
<polygon fill="black" stroke="black" points="391.27,-75.5 401.27,-72 391.27,-68.5 391.27,-75.5"/>
</g>
<!-- Payment_var0_step4 -->
<g id="node6" class="node">
<title>Payment_var0_step4</title>
<polygon fill="lightgrey" stroke="black" points="635,-90 570,-90 570,-54 635,-54 635,-90"/>
<text text-anchor="middle" x="602.5" y="-68.3" font-family="Times,serif" font-size="14.00">Payment</text>
</g>
<!-- Add penalty_var0_step3&#45;&gt;Payment_var0_step4 -->
<g id="edge4" class="edge">
<title>Add penalty_var0_step3&#45;&gt;Payment_var0_step4</title>
<path fill="none" stroke="black" d="M486.49,-72C508.63,-72 535.95,-72 558.4,-72"/>
<polygon fill="black" stroke="black" points="558.14,-75.5 568.14,-72 558.14,-68.5 558.14,-75.5"/>
</g>
<!-- Payment_var0_step5 -->
<g id="node7" class="node">
<title>Payment_var0_step5</title>
<polygon fill="lightgrey" stroke="black" points="784,-90 719,-90 719,-54 784,-54 784,-90"/>
<text text-anchor="middle" x="751.5" y="-68.3" font-family="Times,serif" font-size="14.00">Payment</text>
</g>
<!-- Payment_var0_step4&#45;&gt;Payment_var0_step5 -->
<g id="edge5" class="edge">
<title>Payment_var0_step4&#45;&gt;Payment_var0_step5</title>
<path fill="none" stroke="black" d="M635.4,-72C656.49,-72 684.4,-72 707.45,-72"/>
<polygon fill="black" stroke="black" points="707.15,-75.5 717.15,-72 707.15,-68.5 707.15,-75.5"/>
</g>
<!-- start_node_var1 -->
<g id="node8" class="node">
<title>start_node_var1</title>
<text text-anchor="middle" x="40" y="-122.3" font-family="Times,serif" font-size="14.00">185 traces</text>
</g>
<!-- Create Fine_var1_step0 -->
<g id="node9" class="node">
<title>Create Fine_var1_step0</title>
<polygon fill="lightgrey" stroke="black" points="80,-198 0,-198 0,-162 80,-162 80,-198"/>
<text text-anchor="middle" x="40" y="-176.3" font-family="Times,serif" font-size="14.00">Create Fine</text>
</g>
<!-- Send Fine_var1_step1 -->
<g id="node10" class="node">
<title>Send Fine_var1_step1</title>
<polygon fill="lightgrey" stroke="black" points="187,-198 116,-198 116,-162 187,-162 187,-198"/>
<text text-anchor="middle" x="151.5" y="-176.3" font-family="Times,serif" font-size="14.00">Send Fine</text>
</g>
<!-- Create Fine_var1_step0&#45;&gt;Send Fine_var1_step1 -->
<g id="edge6" class="edge">
<title>Create Fine_var1_step0&#45;&gt;Send Fine_var1_step1</title>
<path fill="none" stroke="black" d="M80.22,-180C87.97,-180 96.18,-180 104.14,-180"/>
<polygon fill="black" stroke="black" points="104.04,-183.5 114.04,-180 104.04,-176.5 104.04,-183.5"/>
</g>
<!-- Insert Fine Notification_var1_step2 -->
<g id="node11" class="node">
<title>Insert Fine Notification_var1_step2</title>
<polygon fill="lightgrey" stroke="black" points="367,-198 223,-198 223,-162 367,-162 367,-198"/>
<text text-anchor="middle" x="295" y="-176.3" font-family="Times,serif" font-size="14.00">Insert Fine Notification</text>
</g>
<!-- Send Fine_var1_step1&#45;&gt;Insert Fine Notification_var1_step2 -->
<g id="edge7" class="edge">
<title>Send Fine_var1_step1&#45;&gt;Insert Fine Notification_var1_step2</title>
<path fill="none" stroke="black" d="M187.48,-180C194.85,-180 202.92,-180 211.22,-180"/>
<polygon fill="black" stroke="black" points="211.13,-183.5 221.13,-180 211.13,-176.5 211.13,-183.5"/>
</g>
<!-- Add penalty_var1_step3 -->
<g id="node12" class="node">
<title>Add penalty_var1_step3</title>
<polygon fill="lightgrey" stroke="black" points="486,-198 403,-198 403,-162 486,-162 486,-198"/>
<text text-anchor="middle" x="444.5" y="-176.3" font-family="Times,serif" font-size="14.00">Add penalty</text>
</g>
<!-- Insert Fine Notification_var1_step2&#45;&gt;Add penalty_var1_step3 -->
<g id="edge8" class="edge">
<title>Insert Fine Notification_var1_step2&#45;&gt;Add penalty_var1_step3</title>
<path fill="none" stroke="black" d="M367.16,-180C375.37,-180 383.63,-180 391.53,-180"/>
<polygon fill="black" stroke="black" points="391.27,-183.5 401.27,-180 391.27,-176.5 391.27,-183.5"/>
</g>
<!-- Payment_var1_step4 -->
<g id="node13" class="node">
<title>Payment_var1_step4</title>
<polygon fill="lightgrey" stroke="black" points="635,-198 570,-198 570,-162 635,-162 635,-198"/>
<text text-anchor="middle" x="602.5" y="-176.3" font-family="Times,serif" font-size="14.00">Payment</text>
</g>
<!-- Add penalty_var1_step3&#45;&gt;Payment_var1_step4 -->
<g id="edge9" class="edge">
<title>Add penalty_var1_step3&#45;&gt;Payment_var1_step4</title>
<path fill="none" stroke="black" d="M486.49,-180C508.63,-180 535.95,-180 558.4,-180"/>
<polygon fill="black" stroke="black" points="558.14,-183.5 568.14,-180 558.14,-176.5 558.14,-183.5"/>
</g>
<!-- start_node_var2 -->
<g id="node14" class="node">
<title>start_node_var2</title>
<text text-anchor="middle" x="40" y="-230.3" font-family="Times,serif" font-size="14.00">217 traces</text>
</g>
<!-- Create Fine_var2_step0 -->
<g id="node15" class="node">
<title>Create Fine_var2_step0</title>
<polygon fill="lightgrey" stroke="black" points="80,-306 0,-306 0,-270 80,-270 80,-306"/>
<text text-anchor="middle" x="40" y="-284.3" font-family="Times,serif" font-size="14.00">Create Fine</text>
</g>
<!-- Send Fine_var2_step1 -->
<g id="node16" class="node">
<title>Send Fine_var2_step1</title>
<polygon fill="lightgrey" stroke="black" points="187,-306 116,-306 116,-270 187,-270 187,-306"/>
<text text-anchor="middle" x="151.5" y="-284.3" font-family="Times,serif" font-size="14.00">Send Fine</text>
</g>
<!-- Create Fine_var2_step0&#45;&gt;Send Fine_var2_step1 -->
<g id="edge10" class="edge">
<title>Create Fine_var2_step0&#45;&gt;Send Fine_var2_step1</title>
<path fill="none" stroke="black" d="M80.22,-288C87.97,-288 96.18,-288 104.14,-288"/>
<polygon fill="black" stroke="black" points="104.04,-291.5 114.04,-288 104.04,-284.5 104.04,-291.5"/>
</g>
<!-- start_node_var3 -->
<g id="node17" class="node">
<title>start_node_var3</title>
<text text-anchor="middle" x="40" y="-338.3" font-family="Times,serif" font-size="14.00">1303 traces</text>
</g>
<!-- Create Fine_var3_step0 -->
<g id="node18" class="node">
<title>Create Fine_var3_step0</title>
<polygon fill="lightgrey" stroke="black" points="80,-414 0,-414 0,-378 80,-378 80,-414"/>
<text text-anchor="middle" x="40" y="-392.3" font-family="Times,serif" font-size="14.00">Create Fine</text>
</g>
<!-- Send Fine_var3_step1 -->
<g id="node19" class="node">
<title>Send Fine_var3_step1</title>
<polygon fill="lightgrey" stroke="black" points="187,-414 116,-414 116,-378 187,-378 187,-414"/>
<text text-anchor="middle" x="151.5" y="-392.3" font-family="Times,serif" font-size="14.00">Send Fine</text>
</g>
<!-- Create Fine_var3_step0&#45;&gt;Send Fine_var3_step1 -->
<g id="edge11" class="edge">
<title>Create Fine_var3_step0&#45;&gt;Send Fine_var3_step1</title>
<path fill="none" stroke="black" d="M80.22,-396C87.97,-396 96.18,-396 104.14,-396"/>
<polygon fill="black" stroke="black" points="104.04,-399.5 114.04,-396 104.04,-392.5 104.04,-399.5"/>
</g>
<!-- Insert Fine Notification_var3_step2 -->
<g id="node20" class="node">
<title>Insert Fine Notification_var3_step2</title>
<polygon fill="lightgrey" stroke="black" points="367,-414 223,-414 223,-378 367,-378 367,-414"/>
<text text-anchor="middle" x="295" y="-392.3" font-family="Times,serif" font-size="14.00">Insert Fine Notification</text>
</g>
<!-- Send Fine_var3_step1&#45;&gt;Insert Fine Notification_var3_step2 -->
<g id="edge12" class="edge">
<title>Send Fine_var3_step1&#45;&gt;Insert Fine Notification_var3_step2</title>
<path fill="none" stroke="black" d="M187.48,-396C194.85,-396 202.92,-396 211.22,-396"/>
<polygon fill="black" stroke="black" points="211.13,-399.5 221.13,-396 211.13,-392.5 211.13,-399.5"/>
</g>
<!-- Add penalty_var3_step3 -->
<g id="node21" class="node">
<title>Add penalty_var3_step3</title>
<polygon fill="lightgrey" stroke="black" points="486,-414 403,-414 403,-378 486,-378 486,-414"/>
<text text-anchor="middle" x="444.5" y="-392.3" font-family="Times,serif" font-size="14.00">Add penalty</text>
</g>
<!-- Insert Fine Notification_var3_step2&#45;&gt;Add penalty_var3_step3 -->
<g id="edge13" class="edge">
<title>Insert Fine Notification_var3_step2&#45;&gt;Add penalty_var3_step3</title>
<path fill="none" stroke="black" d="M367.16,-396C375.37,-396 383.63,-396 391.53,-396"/>
<polygon fill="black" stroke="black" points="391.27,-399.5 401.27,-396 391.27,-392.5 391.27,-399.5"/>
</g>
<!-- Send for Credit Collection_var3_step4 -->
<g id="node22" class="node">
<title>Send for Credit Collection_var3_step4</title>
<polygon fill="lightgrey" stroke="black" points="683,-414 522,-414 522,-378 683,-378 683,-414"/>
<text text-anchor="middle" x="602.5" y="-392.3" font-family="Times,serif" font-size="14.00">Send for Credit Collection</text>
</g>
<!-- Add penalty_var3_step3&#45;&gt;Send for Credit Collection_var3_step4 -->
<g id="edge14" class="edge">
<title>Add penalty_var3_step3&#45;&gt;Send for Credit Collection_var3_step4</title>
<path fill="none" stroke="black" d="M486.49,-396C493.93,-396 501.97,-396 510.21,-396"/>
<polygon fill="black" stroke="black" points="510.02,-399.5 520.02,-396 510.02,-392.5 510.02,-399.5"/>
</g>
</g>
</svg>
