<?xml version="1.0" encoding="UTF-8" standalone="no"?>
<!DOCTYPE svg PUBLIC "-//W3C//DTD SVG 1.1//EN"
 "http://www.w3.org/Graphics/SVG/1.1/DTD/svg11.dtd">
<!-- Generated by graphviz version 7.0.5 (0)
 -->
<!-- Title: dfg Pages: 1 -->
<svg width="1026pt" height="1009pt"
 viewBox="0.00 0.00 1026.00 1009.00" xmlns="http://www.w3.org/2000/svg" xmlns:xlink="http://www.w3.org/1999/xlink">
<g id="graph0" class="graph" transform="scale(1 1) rotate(0) translate(4 1005)">
<title>dfg</title>
<polygon fill="white" stroke="none" points="-4,4 -4,-1005 1022,-1005 1022,4 -4,4"/>
<!-- start_node -->
<g id="node1" class="node">
<title>start_node</title>
<ellipse fill="none" stroke="black" cx="266" cy="-983" rx="18" ry="18"/>
<text text-anchor="start" x="261.5" y="-979.3" font-family="Times,serif" font-size="14.00">●</text>
</g>
<!-- Create Fine -->
<g id="node2" class="node">
<title>Create Fine</title>
<polygon fill="#9b9bff" stroke="black" points="322.5,-914 209.5,-914 209.5,-878 322.5,-878 322.5,-914"/>
<text text-anchor="middle" x="266" y="-892.3" font-family="Times,serif" font-size="14.00">Create Fine (572)</text>
</g>
<!-- start_node&#45;&gt;Create Fine -->
<g id="edge1" class="edge">
<title>start_node&#45;&gt;Create Fine</title>
<path fill="none" stroke="#000000" stroke-width="6.04" d="M266,-964.8C266,-954.96 266,-942.27 266,-930.53"/>
<polygon fill="#000000" stroke="#000000" stroke-width="6.04" points="271.28,-930.93 266,-920.93 260.72,-930.93 271.28,-930.93"/>
<text text-anchor="middle" x="276.5" y="-935.8" font-family="Times,serif" font-size="14.00">572</text>
</g>
<!-- Send Fine -->
<g id="node3" class="node">
<title>Send Fine</title>
<polygon fill="#9b9bff" stroke="black" points="197,-827 93,-827 93,-791 197,-791 197,-827"/>
<text text-anchor="middle" x="145" y="-805.3" font-family="Times,serif" font-size="14.00">Send Fine (572)</text>
</g>
<!-- Create Fine&#45;&gt;Send Fine -->
<g id="edge2" class="edge">
<title>Create Fine&#45;&gt;Send Fine</title>
<path fill="none" stroke="#000000" stroke-width="6" d="M241.22,-877.59C224.5,-865.85 202.11,-850.12 183.13,-836.79"/>
<polygon fill="#000000" stroke="#000000" stroke-width="6" points="186.23,-832.55 175.03,-831.09 180.19,-841.14 186.23,-832.55"/>
<text text-anchor="middle" x="222.5" y="-848.8" font-family="Times,serif" font-size="14.00">568</text>
</g>
<!-- Insert Date Appeal to Prefecture -->
<g id="node6" class="node">
<title>Insert Date Appeal to Prefecture</title>
<polygon fill="#9b9bff" stroke="black" points="366.5,-566 141.5,-566 141.5,-530 366.5,-530 366.5,-566"/>
<text text-anchor="middle" x="254" y="-544.3" font-family="Times,serif" font-size="14.00">Insert Date Appeal to Prefecture (572)</text>
</g>
<!-- Create Fine&#45;&gt;Insert Date Appeal to Prefecture -->
<g id="edge11" class="edge">
<title>Create Fine&#45;&gt;Insert Date Appeal to Prefecture</title>
<path fill="none" stroke="#ff0000" stroke-width="0.53" stroke-dasharray="5,2" d="M284.56,-877.56C321.95,-840.23 400.19,-749.57 369,-671 352.7,-629.93 315.29,-594.67 287.55,-572.77"/>
<polygon fill="#ff0000" stroke="#ff0000" stroke-width="0.53" points="289.97,-570.22 279.91,-566.9 285.71,-575.77 289.97,-570.22"/>
<text text-anchor="middle" x="379.5" y="-718.3" font-family="Times,serif" font-size="14.00">4</text>
</g>
<!-- Insert Fine Notification -->
<g id="node4" class="node">
<title>Insert Fine Notification</title>
<polygon fill="#a2a2ff" stroke="black" points="350.5,-740 173.5,-740 173.5,-704 350.5,-704 350.5,-740"/>
<text text-anchor="middle" x="262" y="-718.3" font-family="Times,serif" font-size="14.00">Insert Fine Notification (531)</text>
</g>
<!-- Send Fine&#45;&gt;Insert Fine Notification -->
<g id="edge3" class="edge">
<title>Send Fine&#45;&gt;Insert Fine Notification</title>
<path fill="none" stroke="#000000" stroke-width="5.61" d="M168.96,-790.59C185.05,-778.91 206.57,-763.27 224.86,-749.98"/>
<polygon fill="#000000" stroke="#000000" stroke-width="5.61" points="227.72,-753.97 232.92,-744.12 221.95,-746.03 227.72,-753.97"/>
<text text-anchor="middle" x="221.5" y="-761.8" font-family="Times,serif" font-size="14.00">528</text>
</g>
<!-- Send Fine&#45;&gt;Insert Date Appeal to Prefecture -->
<g id="edge10" class="edge">
<title>Send Fine&#45;&gt;Insert Date Appeal to Prefecture</title>
<path fill="none" stroke="#000000" stroke-width="0.89" d="M146.34,-790.59C148.37,-769.53 153.2,-733.27 164,-704 181.8,-655.74 214.14,-605.17 234.82,-575.4"/>
<polygon fill="#000000" stroke="#000000" stroke-width="0.89" points="237.68,-577.43 240.58,-567.24 231.95,-573.4 237.68,-577.43"/>
<text text-anchor="middle" x="186" y="-674.8" font-family="Times,serif" font-size="14.00">41</text>
</g>
<!-- Appeal to Judge -->
<g id="node12" class="node">
<title>Appeal to Judge</title>
<polygon fill="#ffffff" stroke="black" points="265.5,-131 140.5,-131 140.5,-95 265.5,-95 265.5,-131"/>
<text text-anchor="middle" x="203" y="-109.3" font-family="Times,serif" font-size="14.00">Appeal to Judge (6)</text>
</g>
<!-- Send Fine&#45;&gt;Appeal to Judge -->
<g id="edge38" class="edge">
<title>Send Fine&#45;&gt;Appeal to Judge</title>
<path fill="none" stroke="#ff0000" stroke-width="0.5" stroke-dasharray="5,2" d="M101.58,-790.55C74.98,-776.68 46,-754.37 46,-723 46,-723 46,-723 46,-199 46,-157.57 88.81,-136.23 129.71,-125.3"/>
<polygon fill="#ff0000" stroke="#ff0000" stroke-width="0.5" points="130.45,-128.72 139.31,-122.92 128.76,-121.93 130.45,-128.72"/>
<text text-anchor="middle" x="49.5" y="-457.3" font-family="Times,serif" font-size="14.00">1</text>
</g>
<!-- end_node -->
<g id="node13" class="node">
<title>end_node</title>
<ellipse fill="none" stroke="black" cx="465" cy="-22" rx="18" ry="18"/>
<ellipse fill="none" stroke="black" cx="465" cy="-22" rx="22" ry="22"/>
<text text-anchor="start" x="460.5" y="-18.3" font-family="Times,serif" font-size="14.00">■</text>
</g>
<!-- Send Fine&#45;&gt;end_node -->
<g id="edge41" class="edge">
<title>Send Fine&#45;&gt;end_node</title>
<path fill="none" stroke="#ff0000" stroke-width="0.51" stroke-dasharray="5,2" d="M92.65,-799.27C51.12,-789 0,-767.35 0,-723 0,-723 0,-723 0,-112 0,-23.97 325.53,-20.94 431.85,-22.3"/>
<polygon fill="#ff0000" stroke="#ff0000" stroke-width="0.51" points="431.75,-25.8 441.8,-22.45 431.85,-18.8 431.75,-25.8"/>
<text text-anchor="middle" x="3.5" y="-413.8" font-family="Times,serif" font-size="14.00">2</text>
</g>
<!-- Add penalty -->
<g id="node5" class="node">
<title>Add penalty</title>
<polygon fill="#a2a2ff" stroke="black" points="702,-653 586,-653 586,-617 702,-617 702,-653"/>
<text text-anchor="middle" x="644" y="-631.3" font-family="Times,serif" font-size="14.00">Add penalty (531)</text>
</g>
<!-- Insert Fine Notification&#45;&gt;Add penalty -->
<g id="edge4" class="edge">
<title>Insert Fine Notification&#45;&gt;Add penalty</title>
<path fill="none" stroke="#000000" stroke-width="1.24" d="M340.23,-703.59C408.9,-688.31 507.87,-666.29 573.98,-651.58"/>
<polygon fill="#000000" stroke="#000000" stroke-width="1.24" points="574.69,-655.01 583.69,-649.42 573.17,-648.17 574.69,-655.01"/>
<text text-anchor="middle" x="482" y="-674.8" font-family="Times,serif" font-size="14.00">77</text>
</g>
<!-- Insert Fine Notification&#45;&gt;Insert Date Appeal to Prefecture -->
<g id="edge7" class="edge">
<title>Insert Fine Notification&#45;&gt;Insert Date Appeal to Prefecture</title>
<path fill="none" stroke="#000000" stroke-width="4.88" d="M260.14,-703.69C258.75,-689.97 256.93,-670.28 256,-653 254.73,-629.43 254.24,-602.82 254.06,-582.41"/>
<polygon fill="#000000" stroke="#000000" stroke-width="4.88" points="258.33,-582.5 254,-572.53 249.79,-582.55 258.33,-582.5"/>
<text text-anchor="middle" x="266.5" y="-631.3" font-family="Times,serif" font-size="14.00">453</text>
</g>
<!-- Insert Fine Notification&#45;&gt;Appeal to Judge -->
<g id="edge35" class="edge">
<title>Insert Fine Notification&#45;&gt;Appeal to Judge</title>
<path fill="none" stroke="#ff0000" stroke-width="0.5" stroke-dasharray="5,2" d="M221.61,-703.7C169.09,-678.17 84,-625.06 84,-549 84,-549 84,-549 84,-199 84,-169.36 108.74,-149.08 135.67,-135.78"/>
<polygon fill="#ff0000" stroke="#ff0000" stroke-width="0.5" points="136.94,-139.05 144.56,-131.68 134.01,-132.69 136.94,-139.05"/>
<text text-anchor="middle" x="87.5" y="-413.8" font-family="Times,serif" font-size="14.00">1</text>
</g>
<!-- Add penalty&#45;&gt;Insert Date Appeal to Prefecture -->
<g id="edge5" class="edge">
<title>Add penalty&#45;&gt;Insert Date Appeal to Prefecture</title>
<path fill="none" stroke="#000000" stroke-width="1.18" d="M585.84,-631.79C538.92,-628.44 471.93,-620.02 417,-599 405.6,-594.64 405.19,-588.88 394,-584 381.32,-578.47 367.59,-573.69 353.86,-569.6"/>
<polygon fill="#000000" stroke="#000000" stroke-width="1.18" points="355.16,-566.33 344.58,-566.96 353.24,-573.07 355.16,-566.33"/>
<text text-anchor="middle" x="424" y="-587.8" font-family="Times,serif" font-size="14.00">71</text>
</g>
<!-- Send Appeal to Prefecture -->
<g id="node7" class="node">
<title>Send Appeal to Prefecture</title>
<polygon fill="#9b9bff" stroke="black" points="664,-218 472,-218 472,-182 664,-182 664,-218"/>
<text text-anchor="middle" x="568" y="-196.3" font-family="Times,serif" font-size="14.00">Send Appeal to Prefecture (572)</text>
</g>
<!-- Add penalty&#45;&gt;Send Appeal to Prefecture -->
<g id="edge9" class="edge">
<title>Add penalty&#45;&gt;Send Appeal to Prefecture</title>
<path fill="none" stroke="#000000" stroke-width="4.84" d="M644.15,-616.54C644.04,-582.53 641.76,-505.27 625,-443 620.81,-427.44 620.33,-422.36 610,-410 600.99,-399.21 591.03,-404.17 584,-392 549.18,-331.77 576.86,-305.33 571,-236 570.95,-235.46 570.91,-234.92 570.86,-234.38"/>
<polygon fill="#000000" stroke="#000000" stroke-width="4.84" points="575.1,-234.23 570.03,-224.63 566.66,-234.95 575.1,-234.23"/>
<text text-anchor="middle" x="629.5" y="-413.8" font-family="Times,serif" font-size="14.00">448</text>
</g>
<!-- Payment -->
<g id="node8" class="node">
<title>Payment</title>
<polygon fill="#fdfdff" stroke="black" points="510.5,-131 419.5,-131 419.5,-95 510.5,-95 510.5,-131"/>
<text text-anchor="middle" x="465" y="-109.3" font-family="Times,serif" font-size="14.00">Payment (13)</text>
</g>
<!-- Add penalty&#45;&gt;Payment -->
<g id="edge13" class="edge">
<title>Add penalty&#45;&gt;Payment</title>
<path fill="none" stroke="#ff0000" stroke-width="0.53" stroke-dasharray="5,2" d="M702.24,-634.39C750.66,-632.61 820.24,-625.05 875,-599 904.83,-584.81 930,-582.04 930,-549 930,-549 930,-549 930,-329.5 930,-301.32 930.06,-289.76 911,-269 857.21,-210.42 628.73,-151.6 521.28,-126.55"/>
<polygon fill="#ff0000" stroke="#ff0000" stroke-width="0.53" points="522.27,-123.19 511.74,-124.34 520.69,-130.01 522.27,-123.19"/>
<text text-anchor="middle" x="933.5" y="-370.3" font-family="Times,serif" font-size="14.00">4</text>
</g>
<!-- Receive Result Appeal from Prefecture -->
<g id="node9" class="node">
<title>Receive Result Appeal from Prefecture</title>
<polygon fill="#fbfbff" stroke="black" points="615.5,-479 358.5,-479 358.5,-443 615.5,-443 615.5,-479"/>
<text text-anchor="middle" x="487" y="-457.3" font-family="Times,serif" font-size="14.00">Receive Result Appeal from Prefecture (26)</text>
</g>
<!-- Add penalty&#45;&gt;Receive Result Appeal from Prefecture -->
<g id="edge19" class="edge">
<title>Add penalty&#45;&gt;Receive Result Appeal from Prefecture</title>
<path fill="none" stroke="#ff0000" stroke-width="0.56" stroke-dasharray="5,2" d="M628.08,-616.56C600.22,-586.04 542.53,-522.83 510.21,-487.43"/>
<polygon fill="#ff0000" stroke="#ff0000" stroke-width="0.56" points="512.86,-485.14 503.53,-480.11 507.69,-489.85 512.86,-485.14"/>
<text text-anchor="middle" x="584.5" y="-544.3" font-family="Times,serif" font-size="14.00">7</text>
</g>
<!-- Send for Credit Collection -->
<g id="node11" class="node">
<title>Send for Credit Collection</title>
<polygon fill="#ffffff" stroke="black" points="902,-305 722,-305 722,-269 902,-269 902,-305"/>
<text text-anchor="middle" x="812" y="-283.3" font-family="Times,serif" font-size="14.00">Send for Credit Collection (6)</text>
</g>
<!-- Add penalty&#45;&gt;Send for Credit Collection -->
<g id="edge34" class="edge">
<title>Add penalty&#45;&gt;Send for Credit Collection</title>
<path fill="none" stroke="#ff0000" stroke-width="0.5" stroke-dasharray="5,2" d="M702.25,-629.48C754.99,-624.45 827.98,-614.88 852,-599 874.01,-584.45 884,-575.38 884,-549 884,-549 884,-549 884,-373 884,-348.18 865.9,-326.88 847.85,-311.81"/>
<polygon fill="#ff0000" stroke="#ff0000" stroke-width="0.5" points="850.25,-309.24 840.23,-305.81 845.92,-314.74 850.25,-309.24"/>
<text text-anchor="middle" x="887.5" y="-457.3" font-family="Times,serif" font-size="14.00">1</text>
</g>
<!-- Insert Date Appeal to Prefecture&#45;&gt;Send Fine -->
<g id="edge17" class="edge">
<title>Insert Date Appeal to Prefecture&#45;&gt;Send Fine</title>
<path fill="none" stroke="#ff0000" stroke-width="0.51" stroke-dasharray="5,2" d="M231.57,-566.27C216.41,-578.93 196.87,-597.28 184,-617 148.45,-671.44 148.6,-693.08 145,-758 144.6,-765.17 144.46,-772.92 144.45,-780.13"/>
<polygon fill="#ff0000" stroke="#ff0000" stroke-width="0.51" points="140.95,-780.12 144.53,-790.09 147.95,-780.07 140.95,-780.12"/>
<text text-anchor="middle" x="159.5" y="-674.8" font-family="Times,serif" font-size="14.00">2</text>
</g>
<!-- Insert Date Appeal to Prefecture&#45;&gt;Insert Fine Notification -->
<g id="edge25" class="edge">
<title>Insert Date Appeal to Prefecture&#45;&gt;Insert Fine Notification</title>
<path fill="none" stroke="#ff0000" stroke-width="0.52" stroke-dasharray="5,2" d="M261.99,-566.44C267.64,-579.92 274.62,-599.21 277,-617 280.47,-642.9 275.36,-672.38 270.18,-693.32"/>
<polygon fill="#ff0000" stroke="#ff0000" stroke-width="0.52" points="266.81,-692.39 267.64,-702.96 273.58,-694.18 266.81,-692.39"/>
<text text-anchor="middle" x="281.5" y="-631.3" font-family="Times,serif" font-size="14.00">3</text>
</g>
<!-- Insert Date Appeal to Prefecture&#45;&gt;Add penalty -->
<g id="edge8" class="edge">
<title>Insert Date Appeal to Prefecture&#45;&gt;Add penalty</title>
<path fill="none" stroke="#000000" stroke-width="4.79" d="M311.17,-566.45C324.28,-571.37 337.92,-577.26 350,-584 359.4,-589.24 359.08,-594.84 369,-599 404.13,-613.75 500.97,-623.64 569.77,-629.04"/>
<polygon fill="#000000" stroke="#000000" stroke-width="4.79" points="569.26,-633.2 579.55,-629.78 569.9,-624.85 569.26,-633.2"/>
<text text-anchor="middle" x="379.5" y="-587.8" font-family="Times,serif" font-size="14.00">443</text>
</g>
<!-- Insert Date Appeal to Prefecture&#45;&gt;Send Appeal to Prefecture -->
<g id="edge6" class="edge">
<title>Insert Date Appeal to Prefecture&#45;&gt;Send Appeal to Prefecture</title>
<path fill="none" stroke="#000000" stroke-width="1.65" d="M269.57,-529.84C320.52,-473.7 482.53,-295.18 544.02,-227.43"/>
<polygon fill="#000000" stroke="#000000" stroke-width="1.65" points="546.52,-229.87 550.65,-220.12 541.34,-225.17 546.52,-229.87"/>
<text text-anchor="middle" x="434.5" y="-370.3" font-family="Times,serif" font-size="14.00">120</text>
</g>
<!-- Insert Date Appeal to Prefecture&#45;&gt;Payment -->
<g id="edge29" class="edge">
<title>Insert Date Appeal to Prefecture&#45;&gt;Payment</title>
<path fill="none" stroke="#ff0000" stroke-width="0.51" stroke-dasharray="5,2" d="M249.93,-529.64C248.78,-524.04 247.66,-517.79 247,-512 245.33,-497.42 246.22,-493.67 246,-479 244.57,-384.91 230.94,-353.18 273,-269 302.33,-210.3 306.13,-187.87 359,-149 373.75,-138.16 392.05,-130.55 409.26,-125.27"/>
<polygon fill="#ff0000" stroke="#ff0000" stroke-width="0.51" points="409.85,-128.74 418.5,-122.63 407.92,-122.01 409.85,-128.74"/>
<text text-anchor="middle" x="253.5" y="-326.8" font-family="Times,serif" font-size="14.00">2</text>
</g>
<!-- Insert Date Appeal to Prefecture&#45;&gt;Receive Result Appeal from Prefecture -->
<g id="edge24" class="edge">
<title>Insert Date Appeal to Prefecture&#45;&gt;Receive Result Appeal from Prefecture</title>
<path fill="none" stroke="#ff0000" stroke-width="0.5" stroke-dasharray="5,2" d="M301.71,-529.59C338.7,-516.1 390.1,-497.35 429.39,-483.02"/>
<polygon fill="#ff0000" stroke="#ff0000" stroke-width="0.5" points="430.44,-486.36 438.64,-479.64 428.05,-479.78 430.44,-486.36"/>
<text text-anchor="middle" x="387.5" y="-500.8" font-family="Times,serif" font-size="14.00">1</text>
</g>
<!-- Insert Date Appeal to Prefecture&#45;&gt;Appeal to Judge -->
<g id="edge27" class="edge">
<title>Insert Date Appeal to Prefecture&#45;&gt;Appeal to Judge</title>
<path fill="none" stroke="#ff0000" stroke-width="0.5" stroke-dasharray="5,2" d="M213.86,-529.58C188.31,-515.5 160,-492.91 160,-462 160,-462 160,-462 160,-199 160,-177.37 171.22,-155.66 182.2,-139.59"/>
<polygon fill="#ff0000" stroke="#ff0000" stroke-width="0.5" points="184.74,-142.05 187.76,-131.9 179.07,-137.95 184.74,-142.05"/>
<text text-anchor="middle" x="163.5" y="-326.8" font-family="Times,serif" font-size="14.00">1</text>
</g>
<!-- Send Appeal to Prefecture&#45;&gt;Send Fine -->
<g id="edge12" class="edge">
<title>Send Appeal to Prefecture&#45;&gt;Send Fine</title>
<path fill="none" stroke="#ff0000" stroke-width="0.51" stroke-dasharray="5,2" d="M664.37,-218.33C757.62,-235.4 888.15,-260.14 911,-269 959.43,-287.78 1011,-277.55 1011,-329.5 1011,-505.5 1011,-505.5 1011,-505.5 1011,-675.76 406.89,-772.63 207.79,-799.93"/>
<polygon fill="#ff0000" stroke="#ff0000" stroke-width="0.51" points="207.42,-796.45 197.99,-801.27 208.37,-803.39 207.42,-796.45"/>
<text text-anchor="middle" x="1014.5" y="-500.8" font-family="Times,serif" font-size="14.00">2</text>
</g>
<!-- Send Appeal to Prefecture&#45;&gt;Add penalty -->
<g id="edge18" class="edge">
<title>Send Appeal to Prefecture&#45;&gt;Add penalty</title>
<path fill="none" stroke="#ff0000" stroke-width="0.55" stroke-dasharray="5,2" d="M587.53,-218.48C621.02,-247.56 692.63,-305.83 763,-338 789.87,-350.28 809.16,-332.45 827,-356 895.59,-446.55 750.92,-561.97 680.07,-610.66"/>
<polygon fill="#ff0000" stroke="#ff0000" stroke-width="0.55" points="678.41,-607.56 672.1,-616.07 682.34,-613.36 678.41,-607.56"/>
<text text-anchor="middle" x="847.5" y="-413.8" font-family="Times,serif" font-size="14.00">6</text>
</g>
<!-- Send Appeal to Prefecture&#45;&gt;Payment -->
<g id="edge15" class="edge">
<title>Send Appeal to Prefecture&#45;&gt;Payment</title>
<path fill="none" stroke="#ff0000" stroke-width="0.53" stroke-dasharray="5,2" d="M547.16,-181.8C531.9,-169.21 511,-151.96 494.1,-138.01"/>
<polygon fill="#ff0000" stroke="#ff0000" stroke-width="0.53" points="496.72,-135.64 486.78,-131.98 492.27,-141.04 496.72,-135.64"/>
<text text-anchor="middle" x="525.5" y="-152.8" font-family="Times,serif" font-size="14.00">4</text>
</g>
<!-- Send Appeal to Prefecture&#45;&gt;Receive Result Appeal from Prefecture -->
<g id="edge16" class="edge">
<title>Send Appeal to Prefecture&#45;&gt;Receive Result Appeal from Prefecture</title>
<path fill="none" stroke="#ff0000" stroke-width="0.66" stroke-dasharray="5,2" d="M563.63,-218.37C553.93,-256.31 529.27,-349.29 502,-425 501.08,-427.56 500.07,-430.2 499.02,-432.83"/>
<polygon fill="#ff0000" stroke="#ff0000" stroke-width="0.66" points="495.9,-431.21 495.28,-441.79 502.36,-433.91 495.9,-431.21"/>
<text text-anchor="middle" x="541" y="-326.8" font-family="Times,serif" font-size="14.00">18</text>
</g>
<!-- Send Appeal to Prefecture&#45;&gt;Appeal to Judge -->
<g id="edge37" class="edge">
<title>Send Appeal to Prefecture&#45;&gt;Appeal to Judge</title>
<path fill="none" stroke="#ff0000" stroke-width="0.5" stroke-dasharray="5,2" d="M493.26,-181.59C429.74,-166.8 339.09,-145.69 276.06,-131.01"/>
<polygon fill="#ff0000" stroke="#ff0000" stroke-width="0.5" points="277.07,-127.65 266.53,-128.8 275.48,-134.47 277.07,-127.65"/>
<text text-anchor="middle" x="410.5" y="-152.8" font-family="Times,serif" font-size="14.00">1</text>
</g>
<!-- Send Appeal to Prefecture&#45;&gt;end_node -->
<g id="edge40" class="edge">
<title>Send Appeal to Prefecture&#45;&gt;end_node</title>
<path fill="none" stroke="#000000" stroke-width="5.74" d="M567.37,-181.63C565.9,-159.98 561.02,-122.48 545,-95 533.09,-74.57 513.4,-56.74 496.54,-43.94"/>
<polygon fill="#000000" stroke="#000000" stroke-width="5.74" points="499.52,-39.89 488.47,-38.14 493.66,-48.05 499.52,-39.89"/>
<text text-anchor="middle" x="569.5" y="-109.3" font-family="Times,serif" font-size="14.00">541</text>
</g>
<!-- Payment&#45;&gt;Add penalty -->
<g id="edge30" class="edge">
<title>Payment&#45;&gt;Add penalty</title>
<path fill="none" stroke="#ff0000" stroke-width="0.52" stroke-dasharray="5,2" d="M510.73,-124.67C520.68,-126.87 531.18,-129.09 541,-131 741.24,-169.9 973,-82.02 973,-286 973,-549 973,-549 973,-549 973,-602.24 809.47,-622.66 712.99,-630.07"/>
<polygon fill="#ff0000" stroke="#ff0000" stroke-width="0.52" points="712.94,-626.57 703.22,-630.79 713.45,-633.55 712.94,-626.57"/>
<text text-anchor="middle" x="976.5" y="-370.3" font-family="Times,serif" font-size="14.00">3</text>
</g>
<!-- Payment&#45;&gt;Insert Date Appeal to Prefecture -->
<g id="edge14" class="edge">
<title>Payment&#45;&gt;Insert Date Appeal to Prefecture</title>
<path fill="none" stroke="#ff0000" stroke-width="0.5" stroke-dasharray="5,2" d="M444.28,-131.28C400.62,-167.9 302.36,-251.38 293,-269 249.01,-351.8 249.11,-467.15 251.88,-519.37"/>
<polygon fill="#ff0000" stroke="#ff0000" stroke-width="0.5" points="248.37,-519.28 252.47,-529.05 255.35,-518.86 248.37,-519.28"/>
<text text-anchor="middle" x="273.5" y="-326.8" font-family="Times,serif" font-size="14.00">1</text>
</g>
<!-- Payment&#45;&gt;Payment -->
<g id="edge32" class="edge">
<title>Payment&#45;&gt;Payment</title>
<path fill="none" stroke="#ff0000" stroke-width="0.5" stroke-dasharray="5,2" d="M510.95,-120.94C521.1,-120.19 528.5,-117.55 528.5,-113 528.5,-110.23 525.75,-108.17 521.31,-106.81"/>
<polygon fill="#ff0000" stroke="#ff0000" stroke-width="0.5" points="522.14,-103.4 511.7,-105.19 520.98,-110.3 522.14,-103.4"/>
<text text-anchor="middle" x="532" y="-109.3" font-family="Times,serif" font-size="14.00">1</text>
</g>
<!-- Payment&#45;&gt;end_node -->
<g id="edge42" class="edge">
<title>Payment&#45;&gt;end_node</title>
<path fill="none" stroke="#ff0000" stroke-width="0.57" stroke-dasharray="5,2" d="M465,-94.84C465,-83.55 465,-68.44 465,-54.98"/>
<polygon fill="#ff0000" stroke="#ff0000" stroke-width="0.57" points="468.5,-55.05 465,-45.05 461.5,-55.05 468.5,-55.05"/>
<text text-anchor="middle" x="468.5" y="-65.8" font-family="Times,serif" font-size="14.00">8</text>
</g>
<!-- Receive Result Appeal from Prefecture&#45;&gt;Send Appeal to Prefecture -->
<g id="edge23" class="edge">
<title>Receive Result Appeal from Prefecture&#45;&gt;Send Appeal to Prefecture</title>
<path fill="none" stroke="#ff0000" stroke-width="0.5" stroke-dasharray="5,2" d="M490.17,-442.59C494.07,-421.84 501.14,-386.18 509,-356 519.2,-316.82 521.59,-306.84 536,-269 541.31,-255.05 548.27,-239.99 554.34,-227.59"/>
<polygon fill="#ff0000" stroke="#ff0000" stroke-width="0.5" points="557.3,-229.48 558.63,-218.97 551.04,-226.36 557.3,-229.48"/>
<text text-anchor="middle" x="520.5" y="-326.8" font-family="Times,serif" font-size="14.00">1</text>
</g>
<!-- Receive Result Appeal from Prefecture&#45;&gt;Payment -->
<g id="edge31" class="edge">
<title>Receive Result Appeal from Prefecture&#45;&gt;Payment</title>
<path fill="none" stroke="#ff0000" stroke-width="0.51" stroke-dasharray="5,2" d="M484.47,-442.74C478.83,-403.13 465.56,-302.61 463,-218 462.52,-202.01 462.76,-198 463,-182 463.19,-168.8 463.6,-154.16 464,-141.86"/>
<polygon fill="#ff0000" stroke="#ff0000" stroke-width="0.51" points="467.49,-142.21 464.32,-132.1 460.49,-141.97 467.49,-142.21"/>
<text text-anchor="middle" x="471.5" y="-283.3" font-family="Times,serif" font-size="14.00">2</text>
</g>
<!-- Notify Result Appeal to Offender -->
<g id="node10" class="node">
<title>Notify Result Appeal to Offender</title>
<polygon fill="#fefeff" stroke="black" points="817.5,-392 592.5,-392 592.5,-356 817.5,-356 817.5,-392"/>
<text text-anchor="middle" x="705" y="-370.3" font-family="Times,serif" font-size="14.00">Notify Result Appeal to Offender (11)</text>
</g>
<!-- Receive Result Appeal from Prefecture&#45;&gt;Notify Result Appeal to Offender -->
<g id="edge20" class="edge">
<title>Receive Result Appeal from Prefecture&#45;&gt;Notify Result Appeal to Offender</title>
<path fill="none" stroke="#ff0000" stroke-width="0.6" stroke-dasharray="5,2" d="M521.89,-442.71C543.06,-432.54 570.77,-419.8 596,-410 608.84,-405.01 622.73,-400.16 636.14,-395.73"/>
<polygon fill="#ff0000" stroke="#ff0000" stroke-width="0.6" points="637,-399.14 645.42,-392.72 634.83,-392.48 637,-399.14"/>
<text text-anchor="middle" x="603" y="-413.8" font-family="Times,serif" font-size="14.00">11</text>
</g>
<!-- Receive Result Appeal from Prefecture&#45;&gt;Appeal to Judge -->
<g id="edge39" class="edge">
<title>Receive Result Appeal from Prefecture&#45;&gt;Appeal to Judge</title>
<path fill="none" stroke="#ff0000" stroke-width="0.5" stroke-dasharray="5,2" d="M427.1,-442.55C416.74,-437.89 406.56,-432.1 398,-425 385.18,-414.36 263.19,-213.59 218.94,-140.41"/>
<polygon fill="#ff0000" stroke="#ff0000" stroke-width="0.5" points="222.02,-138.75 213.86,-132 216.03,-142.37 222.02,-138.75"/>
<text text-anchor="middle" x="322.5" y="-283.3" font-family="Times,serif" font-size="14.00">1</text>
</g>
<!-- Receive Result Appeal from Prefecture&#45;&gt;end_node -->
<g id="edge43" class="edge">
<title>Receive Result Appeal from Prefecture&#45;&gt;end_node</title>
<path fill="none" stroke="#ff0000" stroke-width="0.6" stroke-dasharray="5,2" d="M481.22,-442.64C479.44,-437.04 477.55,-430.78 476,-425 441.46,-295.71 425.53,-264.03 411,-131 409.26,-115.09 405.94,-110.18 411,-95 417.16,-76.52 430.13,-58.96 441.82,-45.81"/>
<polygon fill="#ff0000" stroke="#ff0000" stroke-width="0.6" points="444.36,-48.21 448.61,-38.5 439.24,-43.44 444.36,-48.21"/>
<text text-anchor="middle" x="436" y="-239.8" font-family="Times,serif" font-size="14.00">11</text>
</g>
<!-- Notify Result Appeal to Offender&#45;&gt;Add penalty -->
<g id="edge33" class="edge">
<title>Notify Result Appeal to Offender&#45;&gt;Add penalty</title>
<path fill="none" stroke="#ff0000" stroke-width="0.5" stroke-dasharray="5,2" d="M702.41,-392.4C696.51,-430.41 680.83,-523.5 658,-599 657.22,-601.58 656.33,-604.23 655.39,-606.86"/>
<polygon fill="#ff0000" stroke="#ff0000" stroke-width="0.5" points="652.17,-605.47 651.86,-616.06 658.71,-607.98 652.17,-605.47"/>
<text text-anchor="middle" x="686.5" y="-500.8" font-family="Times,serif" font-size="14.00">1</text>
</g>
<!-- Notify Result Appeal to Offender&#45;&gt;Send for Credit Collection -->
<g id="edge21" class="edge">
<title>Notify Result Appeal to Offender&#45;&gt;Send for Credit Collection</title>
<path fill="none" stroke="#ff0000" stroke-width="0.54" stroke-dasharray="5,2" d="M726.91,-355.59C742.78,-342.99 764.42,-325.79 781.91,-311.9"/>
<polygon fill="#ff0000" stroke="#ff0000" stroke-width="0.54" points="783.83,-314.85 789.48,-305.89 779.47,-309.37 783.83,-314.85"/>
<text text-anchor="middle" x="767.5" y="-326.8" font-family="Times,serif" font-size="14.00">5</text>
</g>
<!-- Notify Result Appeal to Offender&#45;&gt;Appeal to Judge -->
<g id="edge26" class="edge">
<title>Notify Result Appeal to Offender&#45;&gt;Appeal to Judge</title>
<path fill="none" stroke="#ff0000" stroke-width="0.5" stroke-dasharray="5,2" d="M592.25,-356.56C564.79,-351.55 535.65,-345.37 509,-338 469.14,-326.98 456.8,-327.34 422,-305 338.96,-251.68 342.56,-208.72 264,-149 258.38,-144.73 252.19,-140.61 245.98,-136.78"/>
<polygon fill="#ff0000" stroke="#ff0000" stroke-width="0.5" points="247.95,-133.88 237.56,-131.78 244.38,-139.9 247.95,-133.88"/>
<text text-anchor="middle" x="360.5" y="-239.8" font-family="Times,serif" font-size="14.00">1</text>
</g>
<!-- Notify Result Appeal to Offender&#45;&gt;end_node -->
<g id="edge46" class="edge">
<title>Notify Result Appeal to Offender&#45;&gt;end_node</title>
<path fill="none" stroke="#ff0000" stroke-width="0.53" stroke-dasharray="5,2" d="M705.92,-355.62C707,-320.41 705.46,-239.16 673,-182 631.49,-108.91 541.41,-58.44 494.59,-36.06"/>
<polygon fill="#ff0000" stroke="#ff0000" stroke-width="0.53" points="496.29,-32.99 485.75,-31.93 493.33,-39.33 496.29,-32.99"/>
<text text-anchor="middle" x="691.5" y="-196.3" font-family="Times,serif" font-size="14.00">4</text>
</g>
<!-- Send for Credit Collection&#45;&gt;Send Appeal to Prefecture -->
<g id="edge22" class="edge">
<title>Send for Credit Collection&#45;&gt;Send Appeal to Prefecture</title>
<path fill="none" stroke="#ff0000" stroke-width="0.52" stroke-dasharray="5,2" d="M762.03,-268.59C723.22,-255.07 669.24,-236.27 628.07,-221.93"/>
<polygon fill="#ff0000" stroke="#ff0000" stroke-width="0.52" points="629.24,-218.63 618.64,-218.64 626.93,-225.24 629.24,-218.63"/>
<text text-anchor="middle" x="707.5" y="-239.8" font-family="Times,serif" font-size="14.00">3</text>
</g>
<!-- Send for Credit Collection&#45;&gt;end_node -->
<g id="edge45" class="edge">
<title>Send for Credit Collection&#45;&gt;end_node</title>
<path fill="none" stroke="#ff0000" stroke-width="0.52" stroke-dasharray="5,2" d="M810,-268.57C804.09,-225.72 782.57,-114.88 714,-62 680.8,-36.4 557.76,-27.27 498,-24.3"/>
<polygon fill="#ff0000" stroke="#ff0000" stroke-width="0.52" points="498.21,-20.81 488.06,-23.84 497.88,-27.8 498.21,-20.81"/>
<text text-anchor="middle" x="786.5" y="-152.8" font-family="Times,serif" font-size="14.00">3</text>
</g>
<!-- Appeal to Judge&#45;&gt;Add penalty -->
<g id="edge28" class="edge">
<title>Appeal to Judge&#45;&gt;Add penalty</title>
<path fill="none" stroke="#ff0000" stroke-width="0.5" stroke-dasharray="5,2" d="M203.36,-131.37C204.75,-170.1 211.37,-265.81 243,-338 274.57,-410.06 294.22,-423.53 350,-479 415.93,-544.56 515.34,-588.99 579.96,-612.93"/>
<polygon fill="#ff0000" stroke="#ff0000" stroke-width="0.5" points="578.72,-616.2 589.31,-616.33 581.11,-609.62 578.72,-616.2"/>
<text text-anchor="middle" x="273.5" y="-370.3" font-family="Times,serif" font-size="14.00">1</text>
</g>
<!-- Appeal to Judge&#45;&gt;Insert Date Appeal to Prefecture -->
<g id="edge36" class="edge">
<title>Appeal to Judge&#45;&gt;Insert Date Appeal to Prefecture</title>
<path fill="none" stroke="#ff0000" stroke-width="0.51" stroke-dasharray="5,2" d="M170.52,-131.41C147.99,-146.1 122,-169.44 122,-199 122,-462 122,-462 122,-462 122,-492.49 147.2,-512.56 175.58,-525.5"/>
<polygon fill="#ff0000" stroke="#ff0000" stroke-width="0.51" points="174.01,-528.64 184.58,-529.32 176.74,-522.19 174.01,-528.64"/>
<text text-anchor="middle" x="125.5" y="-326.8" font-family="Times,serif" font-size="14.00">2</text>
</g>
<!-- Appeal to Judge&#45;&gt;end_node -->
<g id="edge44" class="edge">
<title>Appeal to Judge&#45;&gt;end_node</title>
<path fill="none" stroke="#ff0000" stroke-width="0.52" stroke-dasharray="5,2" d="M254.45,-94.52C307.87,-76.38 389.69,-48.58 433.96,-33.54"/>
<polygon fill="#ff0000" stroke="#ff0000" stroke-width="0.52" points="435.02,-36.88 443.36,-30.35 432.77,-30.25 435.02,-36.88"/>
<text text-anchor="middle" x="352.5" y="-65.8" font-family="Times,serif" font-size="14.00">3</text>
</g>
</g>
</svg>
