<?xml version="1.0" encoding="UTF-8" standalone="no"?>
<!DOCTYPE svg PUBLIC "-//W3C//DTD SVG 1.1//EN"
 "http://www.w3.org/Graphics/SVG/1.1/DTD/svg11.dtd">
<!-- Generated by graphviz version 7.0.5 (0)
 -->
<!-- Title: dfg Pages: 1 -->
<svg width="533pt" height="1030pt"
 viewBox="0.00 0.00 533.00 1030.00" xmlns="http://www.w3.org/2000/svg" xmlns:xlink="http://www.w3.org/1999/xlink">
<g id="graph0" class="graph" transform="scale(1 1) rotate(0) translate(4 1026)">
<title>dfg</title>
<polygon fill="white" stroke="none" points="-4,4 -4,-1026 529,-1026 529,4 -4,4"/>
<!-- start_node -->
<g id="node1" class="node">
<title>start_node</title>
<ellipse fill="none" stroke="black" cx="115.5" cy="-1004" rx="18" ry="18"/>
<text text-anchor="start" x="111" y="-1000.3" font-family="Times,serif" font-size="14.00">●</text>
</g>
<!-- Create Fine -->
<g id="node2" class="node">
<title>Create Fine</title>
<polygon fill="#9b9bff" stroke="black" points="168.5,-935 62.5,-935 62.5,-899 168.5,-899 168.5,-935"/>
<text text-anchor="middle" x="115.5" y="-913.3" font-family="Times,serif" font-size="14.00">Create Fine (76)</text>
</g>
<!-- start_node&#45;&gt;Create Fine -->
<g id="edge1" class="edge">
<title>start_node&#45;&gt;Create Fine</title>
<path fill="none" stroke="#000000" stroke-width="6" d="M115.5,-985.8C115.5,-975.96 115.5,-963.27 115.5,-951.53"/>
<polygon fill="#000000" stroke="#000000" stroke-width="6" points="120.75,-951.92 115.5,-941.92 110.25,-951.92 120.75,-951.92"/>
<text text-anchor="middle" x="122.5" y="-956.8" font-family="Times,serif" font-size="14.00">76</text>
</g>
<!-- Send Fine -->
<g id="node3" class="node">
<title>Send Fine</title>
<polygon fill="#9b9bff" stroke="black" points="164.5,-848 66.5,-848 66.5,-812 164.5,-812 164.5,-848"/>
<text text-anchor="middle" x="115.5" y="-826.3" font-family="Times,serif" font-size="14.00">Send Fine (76)</text>
</g>
<!-- Create Fine&#45;&gt;Send Fine -->
<g id="edge2" class="edge">
<title>Create Fine&#45;&gt;Send Fine</title>
<path fill="none" stroke="#000000" stroke-width="6" d="M115.5,-898.8C115.5,-888.96 115.5,-876.27 115.5,-864.53"/>
<polygon fill="#000000" stroke="#000000" stroke-width="6" points="120.75,-864.92 115.5,-854.92 110.25,-864.92 120.75,-864.92"/>
<text text-anchor="middle" x="122.5" y="-869.8" font-family="Times,serif" font-size="14.00">76</text>
</g>
<!-- Insert Fine Notification -->
<g id="node4" class="node">
<title>Insert Fine Notification</title>
<polygon fill="#9b9bff" stroke="black" points="200.5,-761 30.5,-761 30.5,-725 200.5,-725 200.5,-761"/>
<text text-anchor="middle" x="115.5" y="-739.3" font-family="Times,serif" font-size="14.00">Insert Fine Notification (76)</text>
</g>
<!-- Send Fine&#45;&gt;Insert Fine Notification -->
<g id="edge3" class="edge">
<title>Send Fine&#45;&gt;Insert Fine Notification</title>
<path fill="none" stroke="#000000" stroke-width="6" d="M115.5,-811.8C115.5,-801.96 115.5,-789.27 115.5,-777.53"/>
<polygon fill="#000000" stroke="#000000" stroke-width="6" points="120.75,-777.92 115.5,-767.92 110.25,-777.92 120.75,-777.92"/>
<text text-anchor="middle" x="122.5" y="-782.8" font-family="Times,serif" font-size="14.00">76</text>
</g>
<!-- Insert Date Appeal to Prefecture -->
<g id="node5" class="node">
<title>Insert Date Appeal to Prefecture</title>
<polygon fill="#9b9bff" stroke="black" points="224.5,-674 6.5,-674 6.5,-638 224.5,-638 224.5,-674"/>
<text text-anchor="middle" x="115.5" y="-652.3" font-family="Times,serif" font-size="14.00">Insert Date Appeal to Prefecture (76)</text>
</g>
<!-- Insert Fine Notification&#45;&gt;Insert Date Appeal to Prefecture -->
<g id="edge4" class="edge">
<title>Insert Fine Notification&#45;&gt;Insert Date Appeal to Prefecture</title>
<path fill="none" stroke="#000000" stroke-width="6" d="M115.5,-724.8C115.5,-714.96 115.5,-702.27 115.5,-690.53"/>
<polygon fill="#000000" stroke="#000000" stroke-width="6" points="120.75,-690.92 115.5,-680.92 110.25,-690.92 120.75,-690.92"/>
<text text-anchor="middle" x="122.5" y="-695.8" font-family="Times,serif" font-size="14.00">76</text>
</g>
<!-- Add penalty -->
<g id="node6" class="node">
<title>Add penalty</title>
<polygon fill="#9b9bff" stroke="black" points="247.5,-587 137.5,-587 137.5,-551 247.5,-551 247.5,-587"/>
<text text-anchor="middle" x="192.5" y="-565.3" font-family="Times,serif" font-size="14.00">Add penalty (76)</text>
</g>
<!-- Insert Date Appeal to Prefecture&#45;&gt;Add penalty -->
<g id="edge5" class="edge">
<title>Insert Date Appeal to Prefecture&#45;&gt;Add penalty</title>
<path fill="none" stroke="#000000" stroke-width="4.83" d="M131.08,-637.8C141.14,-626.7 154.48,-611.97 166.15,-599.08"/>
<polygon fill="#000000" stroke="#000000" stroke-width="4.83" points="168.93,-602.31 172.51,-592.06 162.67,-596.64 168.93,-602.31"/>
<text text-anchor="middle" x="166.5" y="-608.8" font-family="Times,serif" font-size="14.00">60</text>
</g>
<!-- Send Appeal to Prefecture -->
<g id="node7" class="node">
<title>Send Appeal to Prefecture</title>
<polygon fill="#9b9bff" stroke="black" points="185,-500 0,-500 0,-464 185,-464 185,-500"/>
<text text-anchor="middle" x="92.5" y="-478.3" font-family="Times,serif" font-size="14.00">Send Appeal to Prefecture (76)</text>
</g>
<!-- Insert Date Appeal to Prefecture&#45;&gt;Send Appeal to Prefecture -->
<g id="edge11" class="edge">
<title>Insert Date Appeal to Prefecture&#45;&gt;Send Appeal to Prefecture</title>
<path fill="none" stroke="#000000" stroke-width="1.6" d="M113.17,-637.56C109.24,-608.2 101.27,-548.59 96.46,-512.58"/>
<polygon fill="#000000" stroke="#000000" stroke-width="1.6" points="99.95,-512.33 95.16,-502.89 93.02,-513.26 99.95,-512.33"/>
<text text-anchor="middle" x="113.5" y="-565.3" font-family="Times,serif" font-size="14.00">16</text>
</g>
<!-- Add penalty&#45;&gt;Send Appeal to Prefecture -->
<g id="edge6" class="edge">
<title>Add penalty&#45;&gt;Send Appeal to Prefecture</title>
<path fill="none" stroke="#000000" stroke-width="4.83" d="M171.51,-550.62C164.78,-545.02 157.31,-538.77 150.5,-533 142.08,-525.86 133.02,-518.1 124.63,-510.86"/>
<polygon fill="#000000" stroke="#000000" stroke-width="4.83" points="127.58,-507.83 117.25,-504.49 122.06,-514.23 127.58,-507.83"/>
<text text-anchor="middle" x="157.5" y="-521.8" font-family="Times,serif" font-size="14.00">60</text>
</g>
<!-- Receive Result Appeal from Prefecture -->
<g id="node8" class="node">
<title>Receive Result Appeal from Prefecture</title>
<polygon fill="#9b9bff" stroke="black" points="313,-413 56,-413 56,-377 313,-377 313,-413"/>
<text text-anchor="middle" x="184.5" y="-391.3" font-family="Times,serif" font-size="14.00">Receive Result Appeal from Prefecture (76)</text>
</g>
<!-- Add penalty&#45;&gt;Receive Result Appeal from Prefecture -->
<g id="edge13" class="edge">
<title>Add penalty&#45;&gt;Receive Result Appeal from Prefecture</title>
<path fill="none" stroke="#000000" stroke-width="1.23" d="M193.69,-550.56C194.02,-544.96 194.34,-538.72 194.5,-533 195.07,-513.04 194.09,-471.91 193.5,-464 192.53,-451.13 190.77,-436.97 189.06,-424.92"/>
<polygon fill="#000000" stroke="#000000" stroke-width="1.23" points="192.54,-424.5 187.61,-415.12 185.61,-425.52 192.54,-424.5"/>
<text text-anchor="middle" x="202.5" y="-478.3" font-family="Times,serif" font-size="14.00">11</text>
</g>
<!-- Notify Result Appeal to Offender -->
<g id="node9" class="node">
<title>Notify Result Appeal to Offender</title>
<polygon fill="#9b9bff" stroke="black" points="375,-326 150,-326 150,-290 375,-290 375,-326"/>
<text text-anchor="middle" x="262.5" y="-304.3" font-family="Times,serif" font-size="14.00">Notify Result Appeal to Offender (76)</text>
</g>
<!-- Add penalty&#45;&gt;Notify Result Appeal to Offender -->
<g id="edge15" class="edge">
<title>Add penalty&#45;&gt;Notify Result Appeal to Offender</title>
<path fill="none" stroke="#000000" stroke-width="0.79" d="M214.76,-550.67C246.02,-524.73 301.48,-472.44 322.5,-413 327.83,-397.92 328.16,-391.97 322.5,-377 316.3,-360.61 304.15,-345.61 292.39,-333.9"/>
<polygon fill="#000000" stroke="#000000" stroke-width="0.79" points="294.94,-331.49 285.27,-327.17 290.13,-336.58 294.94,-331.49"/>
<text text-anchor="middle" x="317" y="-434.8" font-family="Times,serif" font-size="14.00">5</text>
</g>
<!-- Send Appeal to Prefecture&#45;&gt;Add penalty -->
<g id="edge12" class="edge">
<title>Send Appeal to Prefecture&#45;&gt;Add penalty</title>
<path fill="none" stroke="#000000" stroke-width="1.23" d="M138.96,-500.41C148.1,-505.2 157.12,-511.04 164.5,-518 171.07,-524.2 176.5,-532.28 180.77,-540.14"/>
<polygon fill="#000000" stroke="#000000" stroke-width="1.23" points="177.5,-541.42 185.05,-548.84 183.78,-538.32 177.5,-541.42"/>
<text text-anchor="middle" x="183.5" y="-521.8" font-family="Times,serif" font-size="14.00">11</text>
</g>
<!-- Send Appeal to Prefecture&#45;&gt;Receive Result Appeal from Prefecture -->
<g id="edge7" class="edge">
<title>Send Appeal to Prefecture&#45;&gt;Receive Result Appeal from Prefecture</title>
<path fill="none" stroke="#000000" stroke-width="5.19" d="M111.12,-463.8C123.38,-452.47 139.73,-437.36 153.88,-424.29"/>
<polygon fill="#000000" stroke="#000000" stroke-width="5.19" points="156.72,-427.85 160.98,-417.73 150.56,-421.18 156.72,-427.85"/>
<text text-anchor="middle" x="151.5" y="-434.8" font-family="Times,serif" font-size="14.00">65</text>
</g>
<!-- Receive Result Appeal from Prefecture&#45;&gt;Add penalty -->
<g id="edge14" class="edge">
<title>Receive Result Appeal from Prefecture&#45;&gt;Add penalty</title>
<path fill="none" stroke="#000000" stroke-width="0.79" d="M196.27,-413.26C199.62,-418.75 203.03,-424.97 205.5,-431 211.23,-444.96 211.71,-449.02 213.5,-464 217.14,-494.5 218.18,-503.53 209.5,-533 208.76,-535.52 207.85,-538.07 206.85,-540.6"/>
<polygon fill="#000000" stroke="#000000" stroke-width="0.79" points="203.73,-539 202.82,-549.56 210.11,-541.87 203.73,-539"/>
<text text-anchor="middle" x="219" y="-478.3" font-family="Times,serif" font-size="14.00">5</text>
</g>
<!-- Receive Result Appeal from Prefecture&#45;&gt;Notify Result Appeal to Offender -->
<g id="edge8" class="edge">
<title>Receive Result Appeal from Prefecture&#45;&gt;Notify Result Appeal to Offender</title>
<path fill="none" stroke="#000000" stroke-width="5.63" d="M200.28,-376.8C210.37,-365.81 223.7,-351.28 235.44,-338.48"/>
<polygon fill="#000000" stroke="#000000" stroke-width="5.63" points="239.03,-341.86 242.16,-331.16 231.77,-335.2 239.03,-341.86"/>
<text text-anchor="middle" x="234.5" y="-347.8" font-family="Times,serif" font-size="14.00">71</text>
</g>
<!-- Payment -->
<g id="node10" class="node">
<title>Payment</title>
<polygon fill="#dbdbff" stroke="black" points="261,-131 170,-131 170,-95 261,-95 261,-131"/>
<text text-anchor="middle" x="215.5" y="-109.3" font-family="Times,serif" font-size="14.00">Payment (33)</text>
</g>
<!-- Notify Result Appeal to Offender&#45;&gt;Payment -->
<g id="edge9" class="edge">
<title>Notify Result Appeal to Offender&#45;&gt;Payment</title>
<path fill="none" stroke="#000000" stroke-width="2.63" d="M250.44,-289.72C241.88,-276.48 230.98,-257.42 225.5,-239 216.27,-207.95 214.39,-170.77 214.43,-145.07"/>
<polygon fill="#000000" stroke="#000000" stroke-width="2.63" points="217.93,-145.42 214.58,-135.37 210.93,-145.32 217.93,-145.42"/>
<text text-anchor="middle" x="232.5" y="-217.3" font-family="Times,serif" font-size="14.00">30</text>
</g>
<!-- Send for Credit Collection -->
<g id="node11" class="node">
<title>Send for Credit Collection</title>
<polygon fill="#e5e5ff" stroke="black" points="525,-185 338,-185 338,-149 525,-149 525,-185"/>
<text text-anchor="middle" x="431.5" y="-163.3" font-family="Times,serif" font-size="14.00">Send for Credit Collection (26)</text>
</g>
<!-- Notify Result Appeal to Offender&#45;&gt;Send for Credit Collection -->
<g id="edge10" class="edge">
<title>Notify Result Appeal to Offender&#45;&gt;Send for Credit Collection</title>
<path fill="none" stroke="#000000" stroke-width="2.33" d="M303.28,-289.61C328.01,-277.75 359.18,-260.34 382.5,-239 395.66,-226.96 407.18,-210.75 415.74,-196.86"/>
<polygon fill="#000000" stroke="#000000" stroke-width="2.33" points="418.63,-198.86 420.68,-188.46 412.59,-195.31 418.63,-198.86"/>
<text text-anchor="middle" x="365.5" y="-260.8" font-family="Times,serif" font-size="14.00">26</text>
</g>
<!-- Appeal to Judge -->
<g id="node12" class="node">
<title>Appeal to Judge</title>
<polygon fill="#ffffff" stroke="black" points="373,-239 248,-239 248,-203 373,-203 373,-239"/>
<text text-anchor="middle" x="310.5" y="-217.3" font-family="Times,serif" font-size="14.00">Appeal to Judge (9)</text>
</g>
<!-- Notify Result Appeal to Offender&#45;&gt;Appeal to Judge -->
<g id="edge16" class="edge">
<title>Notify Result Appeal to Offender&#45;&gt;Appeal to Judge</title>
<path fill="none" stroke="#000000" stroke-width="1.09" d="M272.21,-289.8C278.74,-278.24 287.49,-262.75 294.97,-249.5"/>
<polygon fill="#000000" stroke="#000000" stroke-width="1.09" points="297.96,-251.33 299.83,-240.9 291.86,-247.89 297.96,-251.33"/>
<text text-anchor="middle" x="292" y="-260.8" font-family="Times,serif" font-size="14.00">9</text>
</g>
<!-- end_node -->
<g id="node13" class="node">
<title>end_node</title>
<ellipse fill="none" stroke="black" cx="295.5" cy="-22" rx="18" ry="18"/>
<ellipse fill="none" stroke="black" cx="295.5" cy="-22" rx="22" ry="22"/>
<text text-anchor="start" x="291" y="-18.3" font-family="Times,serif" font-size="14.00">■</text>
</g>
<!-- Notify Result Appeal to Offender&#45;&gt;end_node -->
<g id="edge21" class="edge">
<title>Notify Result Appeal to Offender&#45;&gt;end_node</title>
<path fill="none" stroke="#000000" stroke-width="1.23" d="M242.45,-289.68C202.24,-252.79 119,-164.17 160.5,-95 182.53,-58.28 230.35,-39.26 262.74,-30.2"/>
<polygon fill="#000000" stroke="#000000" stroke-width="1.23" points="263.29,-33.67 272.09,-27.77 261.53,-26.9 263.29,-33.67"/>
<text text-anchor="middle" x="168.5" y="-163.3" font-family="Times,serif" font-size="14.00">11</text>
</g>
<!-- Payment&#45;&gt;Payment -->
<g id="edge18" class="edge">
<title>Payment&#45;&gt;Payment</title>
<path fill="none" stroke="#ff0000" stroke-width="0.5" stroke-dasharray="5,2" d="M261.45,-120.94C271.6,-120.19 279,-117.55 279,-113 279,-110.23 276.25,-108.17 271.81,-106.81"/>
<polygon fill="#ff0000" stroke="#ff0000" stroke-width="0.5" points="272.64,-103.4 262.2,-105.19 271.48,-110.3 272.64,-103.4"/>
<text text-anchor="middle" x="282.5" y="-109.3" font-family="Times,serif" font-size="14.00">1</text>
</g>
<!-- Payment&#45;&gt;end_node -->
<g id="edge19" class="edge">
<title>Payment&#45;&gt;end_node</title>
<path fill="none" stroke="#000000" stroke-width="2.77" d="M230.92,-94.84C242.5,-81.96 258.57,-64.09 271.77,-49.39"/>
<polygon fill="#000000" stroke="#000000" stroke-width="2.77" points="274.31,-51.81 278.39,-42.03 269.1,-47.13 274.31,-51.81"/>
<text text-anchor="middle" x="266.5" y="-65.8" font-family="Times,serif" font-size="14.00">32</text>
</g>
<!-- Send for Credit Collection&#45;&gt;end_node -->
<g id="edge20" class="edge">
<title>Send for Credit Collection&#45;&gt;end_node</title>
<path fill="none" stroke="#000000" stroke-width="2.33" d="M416.39,-148.73C397.94,-127.81 365.6,-91.69 336.5,-62 331.56,-56.95 326.15,-51.67 320.94,-46.67"/>
<polygon fill="#000000" stroke="#000000" stroke-width="2.33" points="323.56,-44.33 313.89,-39.99 318.74,-49.41 323.56,-44.33"/>
<text text-anchor="middle" x="406.5" y="-109.3" font-family="Times,serif" font-size="14.00">26</text>
</g>
<!-- Appeal to Judge&#45;&gt;Payment -->
<g id="edge17" class="edge">
<title>Appeal to Judge&#45;&gt;Payment</title>
<path fill="none" stroke="#ff0000" stroke-width="0.57" stroke-dasharray="5,2" d="M295.24,-202.97C279.82,-185.76 255.81,-158.98 238.17,-139.29"/>
<polygon fill="#ff0000" stroke="#ff0000" stroke-width="0.57" points="240.9,-137.1 231.62,-131.99 235.69,-141.77 240.9,-137.1"/>
<text text-anchor="middle" x="280" y="-163.3" font-family="Times,serif" font-size="14.00">2</text>
</g>
<!-- Appeal to Judge&#45;&gt;end_node -->
<g id="edge22" class="edge">
<title>Appeal to Judge&#45;&gt;end_node</title>
<path fill="none" stroke="#000000" stroke-width="0.94" d="M309.17,-202.52C306.66,-169.54 301.19,-97.67 297.98,-55.55"/>
<polygon fill="#000000" stroke="#000000" stroke-width="0.94" points="301.48,-55.39 297.23,-45.69 294.5,-55.93 301.48,-55.39"/>
<text text-anchor="middle" x="306" y="-109.3" font-family="Times,serif" font-size="14.00">7</text>
</g>
</g>
</svg>
