<?xml version="1.0" encoding="UTF-8" standalone="no"?>
<!DOCTYPE svg PUBLIC "-//W3C//DTD SVG 1.1//EN"
 "http://www.w3.org/Graphics/SVG/1.1/DTD/svg11.dtd">
<!-- Generated by graphviz version 7.0.5 (0)
 -->
<!-- Title: dfg Pages: 1 -->
<svg width="573pt" height="1183pt"
 viewBox="0.00 0.00 573.00 1183.00" xmlns="http://www.w3.org/2000/svg" xmlns:xlink="http://www.w3.org/1999/xlink">
<g id="graph0" class="graph" transform="scale(1 1) rotate(0) translate(4 1179)">
<title>dfg</title>
<polygon fill="white" stroke="none" points="-4,4 -4,-1179 569,-1179 569,4 -4,4"/>
<!-- start_node -->
<g id="node1" class="node">
<title>start_node</title>
<ellipse fill="none" stroke="black" cx="379" cy="-1157" rx="18" ry="18"/>
<text text-anchor="start" x="374.5" y="-1153.3" font-family="Times,serif" font-size="14.00">●</text>
</g>
<!-- A_Create Application -->
<g id="node2" class="node">
<title>A_Create Application</title>
<polygon fill="#eeeeff" stroke="black" points="466.5,-1088 291.5,-1088 291.5,-1052 466.5,-1052 466.5,-1088"/>
<text text-anchor="middle" x="379" y="-1066.3" font-family="Times,serif" font-size="14.00">A_Create Application (2313)</text>
</g>
<!-- start_node&#45;&gt;A_Create Application -->
<g id="edge1" class="edge">
<title>start_node&#45;&gt;A_Create Application</title>
<path fill="none" stroke="#000000" stroke-width="2.31" d="M379,-1138.8C379,-1128.15 379,-1114.18 379,-1101.69"/>
<polygon fill="#000000" stroke="#000000" stroke-width="2.31" points="382.5,-1101.96 379,-1091.96 375.5,-1101.96 382.5,-1101.96"/>
<text text-anchor="middle" x="393" y="-1109.8" font-family="Times,serif" font-size="14.00">2313</text>
</g>
<!-- A_Submitted -->
<g id="node3" class="node">
<title>A_Submitted</title>
<polygon fill="#f2f2ff" stroke="black" points="443.5,-1001 314.5,-1001 314.5,-965 443.5,-965 443.5,-1001"/>
<text text-anchor="middle" x="379" y="-979.3" font-family="Times,serif" font-size="14.00">A_Submitted (1696)</text>
</g>
<!-- A_Create Application&#45;&gt;A_Submitted -->
<g id="edge2" class="edge">
<title>A_Create Application&#45;&gt;A_Submitted</title>
<path fill="none" stroke="#000000" stroke-width="1.82" d="M379,-1051.8C379,-1040.93 379,-1026.58 379,-1013.88"/>
<polygon fill="#000000" stroke="#000000" stroke-width="1.82" points="382.5,-1014.23 379,-1004.23 375.5,-1014.23 382.5,-1014.23"/>
<text text-anchor="middle" x="393" y="-1022.8" font-family="Times,serif" font-size="14.00">1696</text>
</g>
<!-- W_Complete application -->
<g id="node5" class="node">
<title>W_Complete application</title>
<polygon fill="#b7b7ff" stroke="black" points="374,-827 180,-827 180,-791 374,-791 374,-827"/>
<text text-anchor="middle" x="277" y="-805.3" font-family="Times,serif" font-size="14.00">W_Complete application (9946)</text>
</g>
<!-- A_Create Application&#45;&gt;W_Complete application -->
<g id="edge20" class="edge">
<title>A_Create Application&#45;&gt;W_Complete application</title>
<path fill="none" stroke="#000000" stroke-width="0.84" d="M352.41,-1051.74C335.99,-1039.59 316.01,-1021.82 305,-1001 277.29,-948.63 274.5,-877.5 275.43,-838.5"/>
<polygon fill="#000000" stroke="#000000" stroke-width="0.84" points="278.92,-838.64 275.77,-828.53 271.93,-838.4 278.92,-838.64"/>
<text text-anchor="middle" x="296.5" y="-935.8" font-family="Times,serif" font-size="14.00">440</text>
</g>
<!-- A_Concept -->
<g id="node6" class="node">
<title>A_Concept</title>
<polygon fill="#eeeeff" stroke="black" points="491,-740 373,-740 373,-704 491,-704 491,-740"/>
<text text-anchor="middle" x="432" y="-718.3" font-family="Times,serif" font-size="14.00">A_Concept (2313)</text>
</g>
<!-- A_Create Application&#45;&gt;A_Concept -->
<g id="edge26" class="edge">
<title>A_Create Application&#45;&gt;A_Concept</title>
<path fill="none" stroke="#ff0000" stroke-width="0.63" stroke-dasharray="5,2" d="M466.81,-1055.97C506.22,-1044.63 544,-1023.47 544,-984 544,-984 544,-984 544,-808 544,-778.98 519.84,-758.58 493.96,-745.05"/>
<polygon fill="#ff0000" stroke="#ff0000" stroke-width="0.63" points="495.78,-742.04 485.26,-740.8 492.7,-748.33 495.78,-742.04"/>
<text text-anchor="middle" x="554.5" y="-892.3" font-family="Times,serif" font-size="14.00">177</text>
</g>
<!-- W_Handle leads -->
<g id="node4" class="node">
<title>W_Handle leads</title>
<polygon fill="#e5e5ff" stroke="black" points="452.5,-914 305.5,-914 305.5,-878 452.5,-878 452.5,-914"/>
<text text-anchor="middle" x="379" y="-892.3" font-family="Times,serif" font-size="14.00">W_Handle leads (3614)</text>
</g>
<!-- A_Submitted&#45;&gt;W_Handle leads -->
<g id="edge3" class="edge">
<title>A_Submitted&#45;&gt;W_Handle leads</title>
<path fill="none" stroke="#000000" stroke-width="1.82" d="M379,-964.8C379,-953.93 379,-939.58 379,-926.88"/>
<polygon fill="#000000" stroke="#000000" stroke-width="1.82" points="382.5,-927.23 379,-917.23 375.5,-927.23 382.5,-927.23"/>
<text text-anchor="middle" x="393" y="-935.8" font-family="Times,serif" font-size="14.00">1696</text>
</g>
<!-- W_Handle leads&#45;&gt;W_Handle leads -->
<g id="edge4" class="edge">
<title>W_Handle leads&#45;&gt;W_Handle leads</title>
<path fill="none" stroke="#000000" stroke-width="2" d="M452.96,-903.32C463.45,-902.14 470.5,-899.7 470.5,-896 470.5,-894.15 468.74,-892.62 465.67,-891.4"/>
<polygon fill="#000000" stroke="#000000" stroke-width="2" points="466.42,-887.98 455.91,-889.31 464.96,-894.83 466.42,-887.98"/>
<text text-anchor="middle" x="484.5" y="-892.3" font-family="Times,serif" font-size="14.00">1918</text>
</g>
<!-- W_Handle leads&#45;&gt;W_Complete application -->
<g id="edge5" class="edge">
<title>W_Handle leads&#45;&gt;W_Complete application</title>
<path fill="none" stroke="#000000" stroke-width="1.82" d="M358.36,-877.8C343.8,-865.67 324.05,-849.21 307.66,-835.55"/>
<polygon fill="#000000" stroke="#000000" stroke-width="1.82" points="310,-832.95 300.08,-829.23 305.52,-838.33 310,-832.95"/>
<text text-anchor="middle" x="349" y="-848.8" font-family="Times,serif" font-size="14.00">1696</text>
</g>
<!-- W_Complete application&#45;&gt;W_Complete application -->
<g id="edge21" class="edge">
<title>W_Complete application&#45;&gt;W_Complete application</title>
<path fill="none" stroke="#000000" stroke-width="3.41" d="M374.32,-815.86C385.06,-814.56 392,-812.27 392,-809 392,-807.67 390.86,-806.5 388.78,-805.5"/>
<polygon fill="#000000" stroke="#000000" stroke-width="3.41" points="389.89,-802.17 379.35,-803.31 388.3,-808.98 389.89,-802.17"/>
<text text-anchor="middle" x="406" y="-805.3" font-family="Times,serif" font-size="14.00">3725</text>
</g>
<!-- W_Complete application&#45;&gt;A_Concept -->
<g id="edge6" class="edge">
<title>W_Complete application&#45;&gt;A_Concept</title>
<path fill="none" stroke="#000000" stroke-width="2.17" d="M364.7,-790.58C376.52,-786.01 388,-780.26 398,-773 405.76,-767.37 412.32,-759.39 417.53,-751.45"/>
<polygon fill="#000000" stroke="#000000" stroke-width="2.17" points="420.48,-753.35 422.54,-742.96 414.45,-749.8 420.48,-753.35"/>
<text text-anchor="middle" x="426" y="-761.8" font-family="Times,serif" font-size="14.00">2136</text>
</g>
<!-- A_Accepted -->
<g id="node7" class="node">
<title>A_Accepted</title>
<polygon fill="#eeeeff" stroke="black" points="388,-653 264,-653 264,-617 388,-617 388,-653"/>
<text text-anchor="middle" x="326" y="-631.3" font-family="Times,serif" font-size="14.00">A_Accepted (2313)</text>
</g>
<!-- W_Complete application&#45;&gt;A_Accepted -->
<g id="edge8" class="edge">
<title>W_Complete application&#45;&gt;A_Accepted</title>
<path fill="none" stroke="#000000" stroke-width="1.85" d="M284.43,-790.72C286.7,-785.12 289.09,-778.85 291,-773 302.91,-736.5 313.33,-693.46 319.64,-665.5"/>
<polygon fill="#000000" stroke="#000000" stroke-width="1.85" points="323.04,-666.33 321.78,-655.81 316.2,-664.82 323.04,-666.33"/>
<text text-anchor="middle" x="325" y="-718.3" font-family="Times,serif" font-size="14.00">1731</text>
</g>
<!-- O_Create Offer -->
<g id="node8" class="node">
<title>O_Create Offer</title>
<polygon fill="#ececff" stroke="black" points="362.5,-566 221.5,-566 221.5,-530 362.5,-530 362.5,-566"/>
<text text-anchor="middle" x="292" y="-544.3" font-family="Times,serif" font-size="14.00">O_Create Offer (2608)</text>
</g>
<!-- W_Complete application&#45;&gt;O_Create Offer -->
<g id="edge31" class="edge">
<title>W_Complete application&#45;&gt;O_Create Offer</title>
<path fill="none" stroke="#ff0000" stroke-width="0.52" stroke-dasharray="5,2" d="M270.86,-790.6C259.79,-756.69 239.07,-679.59 255,-617 258.71,-602.41 266.26,-587.56 273.58,-575.48"/>
<polygon fill="#ff0000" stroke="#ff0000" stroke-width="0.52" points="276.49,-577.42 278.9,-567.1 270.59,-573.67 276.49,-577.42"/>
<text text-anchor="middle" x="257" y="-674.8" font-family="Times,serif" font-size="14.00">30</text>
</g>
<!-- O_Sent (mail and online) -->
<g id="node10" class="node">
<title>O_Sent (mail and online)</title>
<polygon fill="#ececff" stroke="black" points="246.5,-392 51.5,-392 51.5,-356 246.5,-356 246.5,-392"/>
<text text-anchor="middle" x="149" y="-370.3" font-family="Times,serif" font-size="14.00">O_Sent (mail and online) (2597)</text>
</g>
<!-- W_Complete application&#45;&gt;O_Sent (mail and online) -->
<g id="edge33" class="edge">
<title>W_Complete application&#45;&gt;O_Sent (mail and online)</title>
<path fill="none" stroke="#ff0000" stroke-width="0.5" stroke-dasharray="5,2" d="M179.76,-793.1C142.61,-781.38 109,-760.43 109,-723 109,-723 109,-723 109,-460 109,-438.87 119.25,-417.35 129.37,-401.26"/>
<polygon fill="#ff0000" stroke="#ff0000" stroke-width="0.5" points="132.18,-403.35 134.81,-393.08 126.35,-399.47 132.18,-403.35"/>
<text text-anchor="middle" x="116" y="-587.8" font-family="Times,serif" font-size="14.00">11</text>
</g>
<!-- W_Call after offers -->
<g id="node11" class="node">
<title>W_Call after offers</title>
<polygon fill="#9b9bff" stroke="black" points="241,-131 71,-131 71,-95 241,-95 241,-131"/>
<text text-anchor="middle" x="156" y="-109.3" font-family="Times,serif" font-size="14.00">W_Call after offers (13991)</text>
</g>
<!-- W_Complete application&#45;&gt;W_Call after offers -->
<g id="edge13" class="edge">
<title>W_Complete application&#45;&gt;W_Call after offers</title>
<path fill="none" stroke="#000000" stroke-width="2.31" d="M179.73,-796.66C99.91,-784.55 0,-761.67 0,-723 0,-723 0,-723 0,-199 0,-166.33 26.71,-146.14 58.03,-133.7"/>
<polygon fill="#000000" stroke="#000000" stroke-width="2.31" points="59.19,-137 67.41,-130.32 56.82,-130.42 59.19,-137"/>
<text text-anchor="middle" x="14" y="-457.3" font-family="Times,serif" font-size="14.00">2313</text>
</g>
<!-- A_Concept&#45;&gt;W_Complete application -->
<g id="edge7" class="edge">
<title>A_Concept&#45;&gt;W_Complete application</title>
<path fill="none" stroke="#000000" stroke-width="1.85" d="M398.24,-740.47C387.84,-745.96 376.39,-752.13 366,-758 354.72,-764.37 352.24,-766.56 341,-773 334.29,-776.84 327.15,-780.84 320.15,-784.71"/>
<polygon fill="#000000" stroke="#000000" stroke-width="1.85" points="318.91,-781.4 311.83,-789.28 322.28,-787.53 318.91,-781.4"/>
<text text-anchor="middle" x="380" y="-761.8" font-family="Times,serif" font-size="14.00">1731</text>
</g>
<!-- A_Concept&#45;&gt;A_Accepted -->
<g id="edge22" class="edge">
<title>A_Concept&#45;&gt;A_Accepted</title>
<path fill="none" stroke="#000000" stroke-width="0.95" d="M410.29,-703.59C394.72,-691.1 373.52,-674.11 356.28,-660.28"/>
<polygon fill="#000000" stroke="#000000" stroke-width="0.95" points="358.79,-657.81 348.8,-654.28 354.41,-663.27 358.79,-657.81"/>
<text text-anchor="middle" x="396.5" y="-674.8" font-family="Times,serif" font-size="14.00">582</text>
</g>
<!-- A_Accepted&#45;&gt;W_Complete application -->
<g id="edge30" class="edge">
<title>A_Accepted&#45;&gt;W_Complete application</title>
<path fill="none" stroke="#ff0000" stroke-width="0.52" stroke-dasharray="5,2" d="M312.01,-653.28C302.28,-666.37 290.02,-685.24 284,-704 276.04,-728.83 274.82,-758.66 275.28,-779.99"/>
<polygon fill="#ff0000" stroke="#ff0000" stroke-width="0.52" points="271.78,-779.94 275.63,-789.81 278.77,-779.69 271.78,-779.94"/>
<text text-anchor="middle" x="291" y="-718.3" font-family="Times,serif" font-size="14.00">30</text>
</g>
<!-- A_Accepted&#45;&gt;O_Create Offer -->
<g id="edge9" class="edge">
<title>A_Accepted&#45;&gt;O_Create Offer</title>
<path fill="none" stroke="#000000" stroke-width="2.28" d="M319.12,-616.8C314.77,-605.93 309.03,-591.58 303.95,-578.88"/>
<polygon fill="#000000" stroke="#000000" stroke-width="2.28" points="307.23,-577.66 300.27,-569.68 300.74,-580.26 307.23,-577.66"/>
<text text-anchor="middle" x="326" y="-587.8" font-family="Times,serif" font-size="14.00">2283</text>
</g>
<!-- O_Created -->
<g id="node9" class="node">
<title>O_Created</title>
<polygon fill="#ececff" stroke="black" points="295.5,-479 180.5,-479 180.5,-443 295.5,-443 295.5,-479"/>
<text text-anchor="middle" x="238" y="-457.3" font-family="Times,serif" font-size="14.00">O_Created (2608)</text>
</g>
<!-- O_Create Offer&#45;&gt;O_Created -->
<g id="edge10" class="edge">
<title>O_Create Offer&#45;&gt;O_Created</title>
<path fill="none" stroke="#000000" stroke-width="2.54" d="M255.16,-529.53C248.7,-524.76 242.83,-518.95 239,-512 235.85,-506.28 234.46,-499.62 234.08,-493.05"/>
<polygon fill="#000000" stroke="#000000" stroke-width="2.54" points="237.58,-493.18 234.4,-483.07 230.58,-492.95 237.58,-493.18"/>
<text text-anchor="middle" x="253" y="-500.8" font-family="Times,serif" font-size="14.00">2608</text>
</g>
<!-- O_Created&#45;&gt;W_Complete application -->
<g id="edge32" class="edge">
<title>O_Created&#45;&gt;W_Complete application</title>
<path fill="none" stroke="#ff0000" stroke-width="0.5" stroke-dasharray="5,2" d="M222.26,-479.48C209.28,-495.75 193,-521.29 193,-547 193,-723 193,-723 193,-723 193,-749.14 213.35,-770.14 234.02,-784.73"/>
<polygon fill="#ff0000" stroke="#ff0000" stroke-width="0.5" points="231.93,-787.54 242.2,-790.16 235.8,-781.71 231.93,-787.54"/>
<text text-anchor="middle" x="200" y="-631.3" font-family="Times,serif" font-size="14.00">11</text>
</g>
<!-- O_Created&#45;&gt;O_Create Offer -->
<g id="edge23" class="edge">
<title>O_Created&#45;&gt;O_Create Offer</title>
<path fill="none" stroke="#ff0000" stroke-width="0.65" stroke-dasharray="5,2" d="M253.57,-479.2C258.17,-484.69 263.03,-490.92 267,-497 271.66,-504.15 276.08,-512.3 279.86,-519.91"/>
<polygon fill="#ff0000" stroke="#ff0000" stroke-width="0.65" points="276.7,-521.41 284.17,-528.92 283.01,-518.39 276.7,-521.41"/>
<text text-anchor="middle" x="286.5" y="-500.8" font-family="Times,serif" font-size="14.00">193</text>
</g>
<!-- O_Created&#45;&gt;O_Sent (mail and online) -->
<g id="edge11" class="edge">
<title>O_Created&#45;&gt;O_Sent (mail and online)</title>
<path fill="none" stroke="#000000" stroke-width="2.37" d="M219.99,-442.8C207.65,-431.01 191.03,-415.14 176.97,-401.72"/>
<polygon fill="#000000" stroke="#000000" stroke-width="2.37" points="179.54,-399.33 169.89,-394.95 174.7,-404.39 179.54,-399.33"/>
<text text-anchor="middle" x="213" y="-413.8" font-family="Times,serif" font-size="14.00">2399</text>
</g>
<!-- O_Sent (online only) -->
<g id="node15" class="node">
<title>O_Sent (online only)</title>
<polygon fill="#ffffff" stroke="black" points="549.5,-392 398.5,-392 398.5,-356 549.5,-356 549.5,-392"/>
<text text-anchor="middle" x="474" y="-370.3" font-family="Times,serif" font-size="14.00">O_Sent (online only) (5)</text>
</g>
<!-- O_Created&#45;&gt;O_Sent (online only) -->
<g id="edge34" class="edge">
<title>O_Created&#45;&gt;O_Sent (online only)</title>
<path fill="none" stroke="#ff0000" stroke-width="0.5" stroke-dasharray="5,2" d="M286.33,-442.59C323.79,-429.1 375.85,-410.35 415.64,-396.02"/>
<polygon fill="#ff0000" stroke="#ff0000" stroke-width="0.5" points="416.8,-399.32 425.03,-392.64 414.43,-392.74 416.8,-399.32"/>
<text text-anchor="middle" x="374.5" y="-413.8" font-family="Times,serif" font-size="14.00">5</text>
</g>
<!-- O_Sent (mail and online)&#45;&gt;W_Complete application -->
<g id="edge12" class="edge">
<title>O_Sent (mail and online)&#45;&gt;W_Complete application</title>
<path fill="none" stroke="#000000" stroke-width="2.3" d="M148.36,-392.25C147.77,-409.42 147,-436.53 147,-460 147,-723 147,-723 147,-723 147,-752.48 170.71,-772.28 197.87,-785.3"/>
<polygon fill="#000000" stroke="#000000" stroke-width="2.3" points="196.34,-788.44 206.9,-789.24 199.14,-782.03 196.34,-788.44"/>
<text text-anchor="middle" x="161" y="-587.8" font-family="Times,serif" font-size="14.00">2308</text>
</g>
<!-- O_Sent (mail and online)&#45;&gt;O_Sent (mail and online) -->
<g id="edge24" class="edge">
<title>O_Sent (mail and online)&#45;&gt;O_Sent (mail and online)</title>
<path fill="none" stroke="#ff0000" stroke-width="0.64" stroke-dasharray="5,2" d="M246.74,-380.86C257.53,-379.56 264.5,-377.27 264.5,-374 264.5,-372.01 261.91,-370.38 257.45,-369.12"/>
<polygon fill="#ff0000" stroke="#ff0000" stroke-width="0.64" points="258.17,-365.69 247.7,-367.32 256.9,-372.57 258.17,-365.69"/>
<text text-anchor="middle" x="275" y="-370.3" font-family="Times,serif" font-size="14.00">187</text>
</g>
<!-- O_Sent (mail and online)&#45;&gt;W_Call after offers -->
<g id="edge29" class="edge">
<title>O_Sent (mail and online)&#45;&gt;W_Call after offers</title>
<path fill="none" stroke="#ff0000" stroke-width="0.51" stroke-dasharray="5,2" d="M170.98,-355.57C186.26,-342.7 206.43,-324.16 221,-305 247.48,-270.18 256.47,-260.45 267,-218 270.85,-202.47 274.82,-195.96 267,-182 255.65,-161.74 235.54,-146.8 215.52,-136.16"/>
<polygon fill="#ff0000" stroke="#ff0000" stroke-width="0.51" points="217.26,-133.11 206.75,-131.77 214.13,-139.37 217.26,-133.11"/>
<text text-anchor="middle" x="269" y="-239.8" font-family="Times,serif" font-size="14.00">24</text>
</g>
<!-- A_Cancelled -->
<g id="node13" class="node">
<title>A_Cancelled</title>
<polygon fill="#eeeeff" stroke="black" points="212.5,-305 85.5,-305 85.5,-269 212.5,-269 212.5,-305"/>
<text text-anchor="middle" x="149" y="-283.3" font-family="Times,serif" font-size="14.00">A_Cancelled (2313)</text>
</g>
<!-- O_Sent (mail and online)&#45;&gt;A_Cancelled -->
<g id="edge28" class="edge">
<title>O_Sent (mail and online)&#45;&gt;A_Cancelled</title>
<path fill="none" stroke="#ff0000" stroke-width="0.56" stroke-dasharray="5,2" d="M149,-355.8C149,-344.47 149,-329.36 149,-316.29"/>
<polygon fill="#ff0000" stroke="#ff0000" stroke-width="0.56" points="152.5,-316.31 149,-306.31 145.5,-316.31 152.5,-316.31"/>
<text text-anchor="middle" x="156" y="-326.8" font-family="Times,serif" font-size="14.00">78</text>
</g>
<!-- W_Call after offers&#45;&gt;O_Create Offer -->
<g id="edge27" class="edge">
<title>W_Call after offers&#45;&gt;O_Create Offer</title>
<path fill="none" stroke="#ff0000" stroke-width="0.58" stroke-dasharray="5,2" d="M241.49,-125.23C283.41,-136.05 325,-157.29 325,-199 325,-462 325,-462 325,-462 325,-482.45 316.6,-503.91 308.27,-520.15"/>
<polygon fill="#ff0000" stroke="#ff0000" stroke-width="0.58" points="305.29,-518.3 303.59,-528.76 311.44,-521.65 305.29,-518.3"/>
<text text-anchor="middle" x="335.5" y="-326.8" font-family="Times,serif" font-size="14.00">102</text>
</g>
<!-- W_Call after offers&#45;&gt;W_Call after offers -->
<g id="edge14" class="edge">
<title>W_Call after offers&#45;&gt;W_Call after offers</title>
<path fill="none" stroke="#000000" stroke-width="6" d="M241.25,-120.1C251.95,-118.85 259,-116.48 259,-113 259,-111.91 258.31,-110.93 257.04,-110.06"/>
<polygon fill="#000000" stroke="#000000" stroke-width="6" points="258.5,-105.02 247.49,-107.54 255.82,-115.17 258.5,-105.02"/>
<text text-anchor="middle" x="273" y="-109.3" font-family="Times,serif" font-size="14.00">7028</text>
</g>
<!-- A_Complete -->
<g id="node12" class="node">
<title>A_Complete</title>
<polygon fill="#eeeeff" stroke="black" points="168,-40 42,-40 42,-4 168,-4 168,-40"/>
<text text-anchor="middle" x="105" y="-18.3" font-family="Times,serif" font-size="14.00">A_Complete (2313)</text>
</g>
<!-- W_Call after offers&#45;&gt;A_Complete -->
<g id="edge15" class="edge">
<title>W_Call after offers&#45;&gt;A_Complete</title>
<path fill="none" stroke="#000000" stroke-width="2.31" d="M121.71,-94.58C115.42,-89.77 109.69,-83.92 106,-77 102.21,-69.88 100.85,-61.44 100.72,-53.38"/>
<polygon fill="#000000" stroke="#000000" stroke-width="2.31" points="104.21,-53.73 101.3,-43.54 97.22,-53.32 104.21,-53.73"/>
<text text-anchor="middle" x="120" y="-65.8" font-family="Times,serif" font-size="14.00">2313</text>
</g>
<!-- W_Call after offers&#45;&gt;A_Cancelled -->
<g id="edge17" class="edge">
<title>W_Call after offers&#45;&gt;A_Cancelled</title>
<path fill="none" stroke="#000000" stroke-width="2.25" d="M112.43,-131.41C91.01,-142.45 67.22,-159.05 55,-182 47.48,-196.12 47.72,-203.75 55,-218 64.47,-236.54 81.62,-251.19 98.7,-262.08"/>
<polygon fill="#000000" stroke="#000000" stroke-width="2.25" points="96.52,-264.86 106.91,-266.95 100.09,-258.84 96.52,-264.86"/>
<text text-anchor="middle" x="69" y="-196.3" font-family="Times,serif" font-size="14.00">2235</text>
</g>
<!-- end_node -->
<g id="node16" class="node">
<title>end_node</title>
<ellipse fill="none" stroke="black" cx="208" cy="-22" rx="18" ry="18"/>
<ellipse fill="none" stroke="black" cx="208" cy="-22" rx="22" ry="22"/>
<text text-anchor="start" x="203.5" y="-18.3" font-family="Times,serif" font-size="14.00">■</text>
</g>
<!-- W_Call after offers&#45;&gt;end_node -->
<g id="edge36" class="edge">
<title>W_Call after offers&#45;&gt;end_node</title>
<path fill="none" stroke="#000000" stroke-width="2.31" d="M166.03,-94.84C172.92,-83.04 182.26,-67.06 190.38,-53.16"/>
<polygon fill="#000000" stroke="#000000" stroke-width="2.31" points="193.32,-55.06 195.35,-44.66 187.28,-51.53 193.32,-55.06"/>
<text text-anchor="middle" x="200" y="-65.8" font-family="Times,serif" font-size="14.00">2313</text>
</g>
<!-- A_Complete&#45;&gt;W_Call after offers -->
<g id="edge16" class="edge">
<title>A_Complete&#45;&gt;W_Call after offers</title>
<path fill="none" stroke="#000000" stroke-width="2.31" d="M119.16,-40.28C124.19,-46.86 129.67,-54.56 134,-62 137.77,-68.48 141.31,-75.72 144.4,-82.63"/>
<polygon fill="#000000" stroke="#000000" stroke-width="2.31" points="141.09,-83.81 148.22,-91.65 147.54,-81.08 141.09,-83.81"/>
<text text-anchor="middle" x="156" y="-65.8" font-family="Times,serif" font-size="14.00">2313</text>
</g>
<!-- O_Cancelled -->
<g id="node14" class="node">
<title>O_Cancelled</title>
<polygon fill="#ececff" stroke="black" points="219.5,-218 92.5,-218 92.5,-182 219.5,-182 219.5,-218"/>
<text text-anchor="middle" x="156" y="-196.3" font-family="Times,serif" font-size="14.00">O_Cancelled (2608)</text>
</g>
<!-- A_Cancelled&#45;&gt;O_Cancelled -->
<g id="edge18" class="edge">
<title>A_Cancelled&#45;&gt;O_Cancelled</title>
<path fill="none" stroke="#000000" stroke-width="2.31" d="M150.42,-268.8C151.29,-258.15 152.44,-244.18 153.47,-231.69"/>
<polygon fill="#000000" stroke="#000000" stroke-width="2.31" points="156.94,-232.2 154.27,-221.95 149.97,-231.63 156.94,-232.2"/>
<text text-anchor="middle" x="167" y="-239.8" font-family="Times,serif" font-size="14.00">2313</text>
</g>
<!-- O_Cancelled&#45;&gt;W_Call after offers -->
<g id="edge19" class="edge">
<title>O_Cancelled&#45;&gt;W_Call after offers</title>
<path fill="none" stroke="#000000" stroke-width="2.31" d="M156,-181.8C156,-171.15 156,-157.18 156,-144.69"/>
<polygon fill="#000000" stroke="#000000" stroke-width="2.31" points="159.5,-144.96 156,-134.96 152.5,-144.96 159.5,-144.96"/>
<text text-anchor="middle" x="170" y="-152.8" font-family="Times,serif" font-size="14.00">2313</text>
</g>
<!-- O_Cancelled&#45;&gt;O_Cancelled -->
<g id="edge25" class="edge">
<title>O_Cancelled&#45;&gt;O_Cancelled</title>
<path fill="none" stroke="#ff0000" stroke-width="0.73" stroke-dasharray="5,2" d="M219.9,-207.55C230.33,-206.47 237.5,-203.95 237.5,-200 237.5,-197.65 234.97,-195.81 230.73,-194.48"/>
<polygon fill="#ff0000" stroke="#ff0000" stroke-width="0.73" points="231.45,-191.05 220.98,-192.66 230.16,-197.93 231.45,-191.05"/>
<text text-anchor="middle" x="248" y="-196.3" font-family="Times,serif" font-size="14.00">295</text>
</g>
<!-- O_Sent (online only)&#45;&gt;W_Complete application -->
<g id="edge35" class="edge">
<title>O_Sent (online only)&#45;&gt;W_Complete application</title>
<path fill="none" stroke="#ff0000" stroke-width="0.5" stroke-dasharray="5,2" d="M489.74,-392.48C502.72,-408.75 519,-434.29 519,-460 519,-723 519,-723 519,-723 519,-753.59 449.29,-775.83 384.7,-789.87"/>
<polygon fill="#ff0000" stroke="#ff0000" stroke-width="0.5" points="384.18,-786.4 375.12,-791.9 385.63,-793.25 384.18,-786.4"/>
<text text-anchor="middle" x="522.5" y="-587.8" font-family="Times,serif" font-size="14.00">5</text>
</g>
</g>
</svg>
