<?xml version="1.0" encoding="UTF-8" standalone="no"?>
<!DOCTYPE svg PUBLIC "-//W3C//DTD SVG 1.1//EN"
 "http://www.w3.org/Graphics/SVG/1.1/DTD/svg11.dtd">
<!-- Generated by graphviz version 7.1.0 (0)
 -->
<!-- Title: dfg Pages: 1 -->
<svg width="1030pt" height="922pt"
 viewBox="0.00 0.00 1029.53 922.00" xmlns="http://www.w3.org/2000/svg" xmlns:xlink="http://www.w3.org/1999/xlink">
<g id="graph0" class="graph" transform="scale(1 1) rotate(0) translate(4 918)">
<title>dfg</title>
<polygon fill="white" stroke="none" points="-4,4 -4,-918 1025.53,-918 1025.53,4 -4,4"/>
<!-- start_node -->
<g id="node1" class="node">
<title>start_node</title>
<ellipse fill="none" stroke="black" cx="431" cy="-896" rx="18" ry="18"/>
<text text-anchor="start" x="426.5" y="-892.3" font-family="Times,serif" font-size="14.00">●</text>
</g>
<!-- Create Purchase Order Item -->
<g id="node2" class="node">
<title>Create Purchase Order Item</title>
<polygon fill="#f9f9ff" stroke="black" points="656.5,-827 447.5,-827 447.5,-791 656.5,-791 656.5,-827"/>
<text text-anchor="middle" x="552" y="-805.3" font-family="Times,serif" font-size="14.00">Create Purchase Order Item (1430)</text>
</g>
<!-- start_node&#45;&gt;Create Purchase Order Item -->
<g id="edge1" class="edge">
<title>start_node&#45;&gt;Create Purchase Order Item</title>
<path fill="none" stroke="#000000" stroke-width="0.82" d="M445.36,-884.92C463.15,-872.41 494.06,-850.7 518.03,-833.86"/>
<polygon fill="#000000" stroke="#000000" stroke-width="0.82" points="519.98,-836.77 526.15,-828.16 515.96,-831.04 519.98,-836.77"/>
<text text-anchor="middle" x="513" y="-848.8" font-family="Times,serif" font-size="14.00">1385</text>
</g>
<!-- Vendor creates invoice -->
<g id="node3" class="node">
<title>Vendor creates invoice</title>
<polygon fill="#fdfdff" stroke="black" points="501.5,-740 328.5,-740 328.5,-704 501.5,-704 501.5,-740"/>
<text text-anchor="middle" x="415" y="-718.3" font-family="Times,serif" font-size="14.00">Vendor creates invoice (348)</text>
</g>
<!-- start_node&#45;&gt;Vendor creates invoice -->
<g id="edge2" class="edge">
<title>start_node&#45;&gt;Vendor creates invoice</title>
<path fill="none" stroke="#ff0000" stroke-width="0.51" stroke-dasharray="5,2" d="M429.14,-877.68C427.68,-863.94 425.63,-844.25 424,-827 421.56,-801.27 419.05,-771.94 417.3,-751"/>
<polygon fill="#ff0000" stroke="#ff0000" stroke-width="0.51" points="420.79,-750.75 416.47,-741.07 413.81,-751.33 420.79,-750.75"/>
<text text-anchor="middle" x="431" y="-805.3" font-family="Times,serif" font-size="14.00">45</text>
</g>
<!-- Create Purchase Order Item&#45;&gt;Vendor creates invoice -->
<g id="edge26" class="edge">
<title>Create Purchase Order Item&#45;&gt;Vendor creates invoice</title>
<path fill="none" stroke="#ff0000" stroke-width="0.5" stroke-dasharray="5,2" d="M503.8,-790.6C492.34,-785.61 480.42,-779.69 470,-773 458.91,-765.88 447.92,-756.49 438.71,-747.77"/>
<polygon fill="#ff0000" stroke="#ff0000" stroke-width="0.5" points="441.26,-745.37 431.66,-740.88 436.37,-750.37 441.26,-745.37"/>
<text text-anchor="middle" x="473.5" y="-761.8" font-family="Times,serif" font-size="14.00">1</text>
</g>
<!-- Record Service Entry Sheet -->
<g id="node4" class="node">
<title>Record Service Entry Sheet</title>
<polygon fill="#9b9bff" stroke="black" points="632,-653 418,-653 418,-617 632,-617 632,-653"/>
<text text-anchor="middle" x="525" y="-631.3" font-family="Times,serif" font-size="14.00">Record Service Entry Sheet (28190)</text>
</g>
<!-- Create Purchase Order Item&#45;&gt;Record Service Entry Sheet -->
<g id="edge3" class="edge">
<title>Create Purchase Order Item&#45;&gt;Record Service Entry Sheet</title>
<path fill="none" stroke="#ff0000" stroke-width="0.73" stroke-dasharray="5,2" d="M551.12,-790.6C549.89,-769.86 547.2,-734.21 542,-704 539.71,-690.69 536.21,-676.13 532.98,-663.92"/>
<polygon fill="#ff0000" stroke="#ff0000" stroke-width="0.73" points="536.42,-663.25 530.42,-654.52 529.67,-665.09 536.42,-663.25"/>
<text text-anchor="middle" x="557.5" y="-718.3" font-family="Times,serif" font-size="14.00">994</text>
</g>
<!-- Record Goods Receipt -->
<g id="node5" class="node">
<title>Record Goods Receipt</title>
<polygon fill="#dedeff" stroke="black" points="770.5,-566 591.5,-566 591.5,-530 770.5,-530 770.5,-566"/>
<text text-anchor="middle" x="681" y="-544.3" font-family="Times,serif" font-size="14.00">Record Goods Receipt (9190)</text>
</g>
<!-- Create Purchase Order Item&#45;&gt;Record Goods Receipt -->
<g id="edge8" class="edge">
<title>Create Purchase Order Item&#45;&gt;Record Goods Receipt</title>
<path fill="none" stroke="#ff0000" stroke-width="0.6" stroke-dasharray="5,2" d="M601.46,-790.64C656.46,-768.35 742.49,-723.86 780,-653 795.48,-623.75 778.09,-604.36 752,-584 746.12,-579.41 739.53,-575.19 732.81,-571.39"/>
<polygon fill="#ff0000" stroke="#ff0000" stroke-width="0.6" points="734.88,-568.53 724.41,-566.91 731.59,-574.71 734.88,-568.53"/>
<text text-anchor="middle" x="778.5" y="-674.8" font-family="Times,serif" font-size="14.00">435</text>
</g>
<!-- Vendor creates invoice&#45;&gt;Create Purchase Order Item -->
<g id="edge15" class="edge">
<title>Vendor creates invoice&#45;&gt;Create Purchase Order Item</title>
<path fill="none" stroke="#ff0000" stroke-width="0.51" stroke-dasharray="5,2" d="M447.69,-740.45C457.53,-745.9 468.3,-752.04 478,-758 491.5,-766.29 506.02,-775.93 518.59,-784.52"/>
<polygon fill="#ff0000" stroke="#ff0000" stroke-width="0.51" points="516.49,-787.33 526.71,-790.12 520.46,-781.56 516.49,-787.33"/>
<text text-anchor="middle" x="508" y="-761.8" font-family="Times,serif" font-size="14.00">45</text>
</g>
<!-- Vendor creates invoice&#45;&gt;Vendor creates invoice -->
<g id="edge10" class="edge">
<title>Vendor creates invoice&#45;&gt;Vendor creates invoice</title>
<path fill="none" stroke="#ff0000" stroke-width="0.51" stroke-dasharray="5,2" d="M501.89,-729.06C512.53,-727.79 519.5,-725.44 519.5,-722 519.5,-719.85 516.78,-718.12 512.13,-716.82"/>
<polygon fill="#ff0000" stroke="#ff0000" stroke-width="0.51" points="513.11,-713.44 502.64,-715.08 511.84,-720.33 513.11,-713.44"/>
<text text-anchor="middle" x="526.5" y="-718.3" font-family="Times,serif" font-size="14.00">24</text>
</g>
<!-- Vendor creates invoice&#45;&gt;Record Service Entry Sheet -->
<g id="edge43" class="edge">
<title>Vendor creates invoice&#45;&gt;Record Service Entry Sheet</title>
<path fill="none" stroke="#ff0000" stroke-width="0.5" stroke-dasharray="5,2" d="M422.38,-703.88C427.67,-693.27 435.68,-679.99 446,-671 451.4,-666.3 457.53,-662.14 463.93,-658.47"/>
<polygon fill="#ff0000" stroke="#ff0000" stroke-width="0.5" points="465.55,-661.57 472.77,-653.81 462.29,-655.38 465.55,-661.57"/>
<text text-anchor="middle" x="453" y="-674.8" font-family="Times,serif" font-size="14.00">17</text>
</g>
<!-- Vendor creates invoice&#45;&gt;Record Goods Receipt -->
<g id="edge35" class="edge">
<title>Vendor creates invoice&#45;&gt;Record Goods Receipt</title>
<path fill="none" stroke="#ff0000" stroke-width="0.5" stroke-dasharray="5,2" d="M501.8,-705.31C578.8,-690.51 680.94,-668.37 693,-653 710.03,-631.3 702.65,-598.78 693.82,-575.9"/>
<polygon fill="#ff0000" stroke="#ff0000" stroke-width="0.5" points="697.12,-574.71 690.04,-566.83 690.66,-577.41 697.12,-574.71"/>
<text text-anchor="middle" x="710" y="-631.3" font-family="Times,serif" font-size="14.00">13</text>
</g>
<!-- Record Invoice Receipt -->
<g id="node6" class="node">
<title>Record Invoice Receipt</title>
<polygon fill="#fdfdff" stroke="black" points="473,-218 295,-218 295,-182 473,-182 473,-218"/>
<text text-anchor="middle" x="384" y="-196.3" font-family="Times,serif" font-size="14.00">Record Invoice Receipt (371)</text>
</g>
<!-- Vendor creates invoice&#45;&gt;Record Invoice Receipt -->
<g id="edge11" class="edge">
<title>Vendor creates invoice&#45;&gt;Record Invoice Receipt</title>
<path fill="none" stroke="#ff0000" stroke-width="0.56" stroke-dasharray="5,2" d="M328.27,-716.72C260.15,-712.12 171.68,-703.04 140,-686 114.19,-672.11 97,-665.31 97,-636 97,-636 97,-636 97,-503.5 97,-375.12 97.09,-303.97 206,-236 229.23,-221.5 257.22,-212.81 284.05,-207.66"/>
<polygon fill="#ff0000" stroke="#ff0000" stroke-width="0.56" points="284.59,-211.12 293.83,-205.94 283.38,-204.23 284.59,-211.12"/>
<text text-anchor="middle" x="108.5" y="-457.3" font-family="Times,serif" font-size="14.00">242</text>
</g>
<!-- Clear Invoice -->
<g id="node7" class="node">
<title>Clear Invoice</title>
<polygon fill="#fdfdff" stroke="black" points="409.5,-392 286.5,-392 286.5,-356 409.5,-356 409.5,-392"/>
<text text-anchor="middle" x="348" y="-370.3" font-family="Times,serif" font-size="14.00">Clear Invoice (319)</text>
</g>
<!-- Vendor creates invoice&#45;&gt;Clear Invoice -->
<g id="edge39" class="edge">
<title>Vendor creates invoice&#45;&gt;Clear Invoice</title>
<path fill="none" stroke="#ff0000" stroke-width="0.5" stroke-dasharray="5,2" d="M339.8,-703.57C307.05,-691.09 276,-670.23 276,-636 276,-636 276,-636 276,-460 276,-435.18 294.1,-413.88 312.15,-398.81"/>
<polygon fill="#ff0000" stroke="#ff0000" stroke-width="0.5" points="314.08,-401.74 319.77,-392.81 309.75,-396.24 314.08,-401.74"/>
<text text-anchor="middle" x="279.5" y="-544.3" font-family="Times,serif" font-size="14.00">2</text>
</g>
<!-- Cancel Goods Receipt -->
<g id="node8" class="node">
<title>Cancel Goods Receipt</title>
<polygon fill="#fefeff" stroke="black" points="541.5,-479 370.5,-479 370.5,-443 541.5,-443 541.5,-479"/>
<text text-anchor="middle" x="456" y="-457.3" font-family="Times,serif" font-size="14.00">Cancel Goods Receipt (126)</text>
</g>
<!-- Vendor creates invoice&#45;&gt;Cancel Goods Receipt -->
<g id="edge54" class="edge">
<title>Vendor creates invoice&#45;&gt;Cancel Goods Receipt</title>
<path fill="none" stroke="#ff0000" stroke-width="0.5" stroke-dasharray="5,2" d="M410.55,-703.64C409.24,-698.04 407.92,-691.79 407,-686 396.09,-617.39 392.45,-594.99 417,-530 422.76,-514.75 424.95,-511.17 433,-497 434.69,-494.03 436.53,-490.97 438.42,-487.95"/>
<polygon fill="#ff0000" stroke="#ff0000" stroke-width="0.5" points="441.19,-490.11 443.67,-479.8 435.31,-486.31 441.19,-490.11"/>
<text text-anchor="middle" x="404.5" y="-587.8" font-family="Times,serif" font-size="14.00">1</text>
</g>
<!-- Vendor creates debit memo -->
<g id="node9" class="node">
<title>Vendor creates debit memo</title>
<polygon fill="#fefeff" stroke="black" points="186,-131 0,-131 0,-95 186,-95 186,-131"/>
<text text-anchor="middle" x="93" y="-109.3" font-family="Times,serif" font-size="14.00">Vendor creates debit memo (5)</text>
</g>
<!-- Vendor creates invoice&#45;&gt;Vendor creates debit memo -->
<g id="edge40" class="edge">
<title>Vendor creates invoice&#45;&gt;Vendor creates debit memo</title>
<path fill="none" stroke="#ff0000" stroke-width="0.5" stroke-dasharray="5,2" d="M328.1,-718.2C241.38,-714.34 114.78,-705.49 70,-686 39.1,-672.55 13,-669.7 13,-636 13,-636 13,-636 13,-199 13,-173.23 32.74,-152.08 52.62,-137.33"/>
<polygon fill="#ff0000" stroke="#ff0000" stroke-width="0.5" points="54.57,-140.24 60.76,-131.64 50.56,-134.5 54.57,-140.24"/>
<text text-anchor="middle" x="16.5" y="-413.8" font-family="Times,serif" font-size="14.00">2</text>
</g>
<!-- Change Price -->
<g id="node11" class="node">
<title>Change Price</title>
<polygon fill="#fefeff" stroke="black" points="952.5,-131 843.5,-131 843.5,-95 952.5,-95 952.5,-131"/>
<text text-anchor="middle" x="898" y="-109.3" font-family="Times,serif" font-size="14.00">Change Price (2)</text>
</g>
<!-- Vendor creates invoice&#45;&gt;Change Price -->
<g id="edge27" class="edge">
<title>Vendor creates invoice&#45;&gt;Change Price</title>
<path fill="none" stroke="#ff0000" stroke-width="0.5" stroke-dasharray="5,2" d="M501.95,-708.39C514.04,-706.81 526.32,-705.29 538,-704 585.87,-698.7 709.73,-704.97 754,-686 854.45,-642.95 921,-614.79 921,-505.5 921,-505.5 921,-505.5 921,-199 921,-179.19 915.1,-157.65 909.28,-141.21"/>
<polygon fill="#ff0000" stroke="#ff0000" stroke-width="0.5" points="912.59,-140.05 905.8,-131.92 906.03,-142.51 912.59,-140.05"/>
<text text-anchor="middle" x="924.5" y="-413.8" font-family="Times,serif" font-size="14.00">1</text>
</g>
<!-- end_node -->
<g id="node14" class="node">
<title>end_node</title>
<ellipse fill="none" stroke="black" cx="739" cy="-22" rx="18" ry="18"/>
<ellipse fill="none" stroke="black" cx="739" cy="-22" rx="22" ry="22"/>
<text text-anchor="start" x="734.5" y="-18.3" font-family="Times,serif" font-size="14.00">■</text>
</g>
<!-- Vendor creates invoice&#45;&gt;end_node -->
<g id="edge62" class="edge">
<title>Vendor creates invoice&#45;&gt;end_node</title>
<path fill="none" stroke="#ff0000" stroke-width="0.5" stroke-dasharray="5,2" d="M501.93,-708.27C514.03,-706.71 526.32,-705.23 538,-704 647.46,-692.46 677.77,-710.84 785,-686 804.14,-681.57 851.06,-664.48 867,-653 905.75,-625.11 917.04,-611.95 930,-566 986.94,-364.06 1085.48,-264.63 962,-95 918.04,-34.61 822.42,-23.81 771.86,-22.53"/>
<polygon fill="#ff0000" stroke="#ff0000" stroke-width="0.5" points="772.01,-19.03 761.96,-22.39 771.91,-26.03 772.01,-19.03"/>
<text text-anchor="middle" x="1006.5" y="-370.3" font-family="Times,serif" font-size="14.00">1</text>
</g>
<!-- Record Service Entry Sheet&#45;&gt;Vendor creates invoice -->
<g id="edge9" class="edge">
<title>Record Service Entry Sheet&#45;&gt;Vendor creates invoice</title>
<path fill="none" stroke="#ff0000" stroke-width="0.53" stroke-dasharray="5,2" d="M502.5,-653.38C486.2,-665.98 463.95,-683.18 445.97,-697.07"/>
<polygon fill="#ff0000" stroke="#ff0000" stroke-width="0.53" points="443.94,-694.22 438.16,-703.1 448.22,-699.76 443.94,-694.22"/>
<text text-anchor="middle" x="487.5" y="-674.8" font-family="Times,serif" font-size="14.00">145</text>
</g>
<!-- Record Service Entry Sheet&#45;&gt;Record Service Entry Sheet -->
<g id="edge4" class="edge">
<title>Record Service Entry Sheet&#45;&gt;Record Service Entry Sheet</title>
<path fill="none" stroke="#000000" stroke-width="6" d="M632.13,-641.7C643.04,-640.38 650,-638.14 650,-635 650,-634.02 649.32,-633.12 648.05,-632.32"/>
<polygon fill="#000000" stroke="#000000" stroke-width="6" points="649.37,-627.24 638.39,-629.88 646.8,-637.42 649.37,-627.24"/>
<text text-anchor="middle" x="667" y="-631.3" font-family="Times,serif" font-size="14.00">23836</text>
</g>
<!-- Record Service Entry Sheet&#45;&gt;Record Goods Receipt -->
<g id="edge5" class="edge">
<title>Record Service Entry Sheet&#45;&gt;Record Goods Receipt</title>
<path fill="none" stroke="#000000" stroke-width="1.4" d="M591.32,-616.57C604.29,-611.83 617.44,-606.01 629,-599 639.65,-592.54 649.87,-583.55 658.39,-574.98"/>
<polygon fill="#000000" stroke="#000000" stroke-width="1.4" points="660.81,-577.51 665.15,-567.85 655.73,-572.7 660.81,-577.51"/>
<text text-anchor="middle" x="662" y="-587.8" font-family="Times,serif" font-size="14.00">3883</text>
</g>
<!-- Record Service Entry Sheet&#45;&gt;Record Invoice Receipt -->
<g id="edge36" class="edge">
<title>Record Service Entry Sheet&#45;&gt;Record Invoice Receipt</title>
<path fill="none" stroke="#ff0000" stroke-width="0.51" stroke-dasharray="5,2" d="M532.28,-616.72C541.84,-595.17 560.02,-557.77 582,-530 589.42,-520.62 593.59,-520.51 602,-512 615.72,-498.11 622.08,-496.37 631,-479 643.6,-454.45 645,-446.1 645,-418.5 645,-418.5 645,-418.5 645,-286 645,-250.67 557.44,-227.75 483.75,-214.72"/>
<polygon fill="#ff0000" stroke="#ff0000" stroke-width="0.51" points="484.66,-211.32 474.21,-213.07 483.47,-218.22 484.66,-211.32"/>
<text text-anchor="middle" x="652" y="-413.8" font-family="Times,serif" font-size="14.00">26</text>
</g>
<!-- Record Service Entry Sheet&#45;&gt;Cancel Goods Receipt -->
<g id="edge16" class="edge">
<title>Record Service Entry Sheet&#45;&gt;Cancel Goods Receipt</title>
<path fill="none" stroke="#ff0000" stroke-width="0.51" stroke-dasharray="5,2" d="M522.28,-616.7C517.56,-589.85 506.26,-537.05 485,-497 483.28,-493.77 481.24,-490.55 479.03,-487.46"/>
<polygon fill="#ff0000" stroke="#ff0000" stroke-width="0.51" points="481.95,-485.51 473.04,-479.76 476.42,-489.8 481.95,-485.51"/>
<text text-anchor="middle" x="518" y="-544.3" font-family="Times,serif" font-size="14.00">51</text>
</g>
<!-- Record Service Entry Sheet&#45;&gt;Vendor creates debit memo -->
<g id="edge19" class="edge">
<title>Record Service Entry Sheet&#45;&gt;Vendor creates debit memo</title>
<path fill="none" stroke="#ff0000" stroke-width="0.5" stroke-dasharray="5,2" d="M442.16,-616.59C430.4,-612.01 418.95,-606.25 409,-599 237.05,-473.69 133.38,-223.92 102.66,-141.26"/>
<polygon fill="#ff0000" stroke="#ff0000" stroke-width="0.5" points="106.03,-140.28 99.3,-132.09 99.45,-142.69 106.03,-140.28"/>
<text text-anchor="middle" x="229.5" y="-370.3" font-family="Times,serif" font-size="14.00">2</text>
</g>
<!-- Record Service Entry Sheet&#45;&gt;end_node -->
<g id="edge58" class="edge">
<title>Record Service Entry Sheet&#45;&gt;end_node</title>
<path fill="none" stroke="#ff0000" stroke-width="0.56" stroke-dasharray="5,2" d="M603.51,-616.52C628.02,-610.99 655.15,-604.81 680,-599 707.61,-592.54 714.36,-590.3 742,-584 779.22,-575.51 802,-595.69 826,-566 834.63,-555.32 883.68,-549.82 791,-95 787.91,-79.85 788.29,-75.05 780,-62 775.65,-55.16 769.85,-48.68 763.98,-43.03"/>
<polygon fill="#ff0000" stroke="#ff0000" stroke-width="0.56" points="766.46,-40.56 756.69,-36.47 761.78,-45.76 766.46,-40.56"/>
<text text-anchor="middle" x="843.5" y="-326.8" font-family="Times,serif" font-size="14.00">247</text>
</g>
<!-- Record Goods Receipt&#45;&gt;Vendor creates invoice -->
<g id="edge14" class="edge">
<title>Record Goods Receipt&#45;&gt;Vendor creates invoice</title>
<path fill="none" stroke="#ff0000" stroke-width="0.53" stroke-dasharray="5,2" d="M716.77,-566.39C723.47,-571.21 729.71,-577.06 734,-584 757.85,-622.56 766.52,-654.41 734,-686 718.31,-701.24 559.73,-701.5 538,-704 529.7,-704.95 521.1,-706.01 512.47,-707.11"/>
<polygon fill="#ff0000" stroke="#ff0000" stroke-width="0.53" points="512.21,-703.62 502.75,-708.37 513.11,-710.56 512.21,-703.62"/>
<text text-anchor="middle" x="765.5" y="-631.3" font-family="Times,serif" font-size="14.00">115</text>
</g>
<!-- Record Goods Receipt&#45;&gt;Record Service Entry Sheet -->
<g id="edge7" class="edge">
<title>Record Goods Receipt&#45;&gt;Record Service Entry Sheet</title>
<path fill="none" stroke="#000000" stroke-width="1.27" d="M633.9,-566.43C621.63,-571.56 608.6,-577.55 597,-584 586.98,-589.57 585.4,-592.42 576,-599 570.83,-602.62 565.35,-606.42 559.97,-610.13"/>
<polygon fill="#000000" stroke="#000000" stroke-width="1.27" points="558.33,-607.01 552.07,-615.56 562.29,-612.78 558.33,-607.01"/>
<text text-anchor="middle" x="611" y="-587.8" font-family="Times,serif" font-size="14.00">3325</text>
</g>
<!-- Record Goods Receipt&#45;&gt;Record Goods Receipt -->
<g id="edge6" class="edge">
<title>Record Goods Receipt&#45;&gt;Record Goods Receipt</title>
<path fill="none" stroke="#000000" stroke-width="1.62" d="M770.78,-555.01C781.5,-553.73 788.5,-551.4 788.5,-548 788.5,-546.14 786.41,-544.6 782.76,-543.38"/>
<polygon fill="#000000" stroke="#000000" stroke-width="1.62" points="783.67,-539.99 773.18,-541.47 782.31,-546.86 783.67,-539.99"/>
<text text-anchor="middle" x="802.5" y="-544.3" font-family="Times,serif" font-size="14.00">4837</text>
</g>
<!-- Record Goods Receipt&#45;&gt;Record Invoice Receipt -->
<g id="edge29" class="edge">
<title>Record Goods Receipt&#45;&gt;Record Invoice Receipt</title>
<path fill="none" stroke="#ff0000" stroke-width="0.51" stroke-dasharray="5,2" d="M682.5,-529.71C687.21,-470.68 699.16,-278.48 659,-236 655.88,-232.71 561.1,-221.16 483.68,-212.22"/>
<polygon fill="#ff0000" stroke="#ff0000" stroke-width="0.51" points="484.46,-208.78 474.13,-211.12 483.66,-215.74 484.46,-208.78"/>
<text text-anchor="middle" x="694" y="-370.3" font-family="Times,serif" font-size="14.00">42</text>
</g>
<!-- Record Goods Receipt&#45;&gt;Clear Invoice -->
<g id="edge31" class="edge">
<title>Record Goods Receipt&#45;&gt;Clear Invoice</title>
<path fill="none" stroke="#ff0000" stroke-width="0.5" stroke-dasharray="5,2" d="M669.02,-529.56C652.22,-506.4 619.49,-465.8 582,-443 532.41,-412.84 468.78,-395.48 420.39,-385.86"/>
<polygon fill="#ff0000" stroke="#ff0000" stroke-width="0.5" points="421.21,-382.45 410.73,-384.01 419.9,-389.33 421.21,-382.45"/>
<text text-anchor="middle" x="629.5" y="-457.3" font-family="Times,serif" font-size="14.00">1</text>
</g>
<!-- Record Goods Receipt&#45;&gt;Cancel Goods Receipt -->
<g id="edge25" class="edge">
<title>Record Goods Receipt&#45;&gt;Cancel Goods Receipt</title>
<path fill="none" stroke="#ff0000" stroke-width="0.5" stroke-dasharray="5,2" d="M591.06,-530.02C574.63,-525.3 557.96,-519.38 543,-512 533.35,-507.24 533.05,-502.82 524,-497 517.17,-492.6 509.72,-488.31 502.34,-484.32"/>
<polygon fill="#ff0000" stroke="#ff0000" stroke-width="0.5" points="504.23,-481.36 493.75,-479.8 500.97,-487.56 504.23,-481.36"/>
<text text-anchor="middle" x="550" y="-500.8" font-family="Times,serif" font-size="14.00">20</text>
</g>
<!-- Record Goods Receipt&#45;&gt;end_node -->
<g id="edge56" class="edge">
<title>Record Goods Receipt&#45;&gt;end_node</title>
<path fill="none" stroke="#ff0000" stroke-width="0.7" stroke-dasharray="5,2" d="M722.55,-529.51C748.49,-515.5 777,-493.05 777,-462 777,-462 777,-462 777,-112 777,-89.81 766.89,-66.83 757.09,-49.77"/>
<polygon fill="#ff0000" stroke="#ff0000" stroke-width="0.7" points="760.17,-48.1 751.99,-41.37 754.19,-51.74 760.17,-48.1"/>
<text text-anchor="middle" x="787.5" y="-283.3" font-family="Times,serif" font-size="14.00">850</text>
</g>
<!-- Record Invoice Receipt&#45;&gt;Vendor creates invoice -->
<g id="edge38" class="edge">
<title>Record Invoice Receipt&#45;&gt;Vendor creates invoice</title>
<path fill="none" stroke="#ff0000" stroke-width="0.5" stroke-dasharray="5,2" d="M320.85,-218.41C252.76,-241.48 154,-289.36 154,-373 154,-636 154,-636 154,-636 154,-671.73 243.54,-694.76 317.73,-707.72"/>
<polygon fill="#ff0000" stroke="#ff0000" stroke-width="0.5" points="316.9,-711.13 327.34,-709.35 318.07,-704.23 316.9,-711.13"/>
<text text-anchor="middle" x="157.5" y="-457.3" font-family="Times,serif" font-size="14.00">2</text>
</g>
<!-- Record Invoice Receipt&#45;&gt;Record Goods Receipt -->
<g id="edge44" class="edge">
<title>Record Invoice Receipt&#45;&gt;Record Goods Receipt</title>
<path fill="none" stroke="#ff0000" stroke-width="0.5" stroke-dasharray="5,2" d="M473.38,-210.63C558.02,-219.9 672.84,-232.96 677,-236 764.56,-300.05 706.39,-370.71 700,-479 699.13,-493.67 701.73,-497.79 698,-512 697.31,-514.63 696.42,-517.3 695.4,-519.93"/>
<polygon fill="#ff0000" stroke="#ff0000" stroke-width="0.5" points="692.22,-518.46 691.36,-529.02 698.62,-521.31 692.22,-518.46"/>
<text text-anchor="middle" x="724.5" y="-370.3" font-family="Times,serif" font-size="14.00">2</text>
</g>
<!-- Record Invoice Receipt&#45;&gt;Record Invoice Receipt -->
<g id="edge12" class="edge">
<title>Record Invoice Receipt&#45;&gt;Record Invoice Receipt</title>
<path fill="none" stroke="#ff0000" stroke-width="0.51" stroke-dasharray="5,2" d="M473.37,-207.01C484.03,-205.73 491,-203.4 491,-200 491,-197.88 488.28,-196.17 483.63,-194.87"/>
<polygon fill="#ff0000" stroke="#ff0000" stroke-width="0.51" points="484.59,-191.49 474.12,-193.13 483.33,-198.38 484.59,-191.49"/>
<text text-anchor="middle" x="498" y="-196.3" font-family="Times,serif" font-size="14.00">39</text>
</g>
<!-- Record Invoice Receipt&#45;&gt;Clear Invoice -->
<g id="edge13" class="edge">
<title>Record Invoice Receipt&#45;&gt;Clear Invoice</title>
<path fill="none" stroke="#ff0000" stroke-width="0.57" stroke-dasharray="5,2" d="M434.97,-218.39C442.14,-223.01 448.57,-228.79 453,-236 476.72,-274.63 479.51,-301.22 453,-338 444.85,-349.3 432.9,-357.01 419.94,-362.25"/>
<polygon fill="#ff0000" stroke="#ff0000" stroke-width="0.57" points="418.97,-358.89 410.7,-365.51 421.3,-365.49 418.97,-358.89"/>
<text text-anchor="middle" x="482.5" y="-283.3" font-family="Times,serif" font-size="14.00">308</text>
</g>
<!-- Record Invoice Receipt&#45;&gt;Vendor creates debit memo -->
<g id="edge51" class="edge">
<title>Record Invoice Receipt&#45;&gt;Vendor creates debit memo</title>
<path fill="none" stroke="#ff0000" stroke-width="0.5" stroke-dasharray="5,2" d="M294.7,-192.93C255.17,-188.12 208.73,-179.48 169,-164 159.94,-160.47 142,-148.76 125.82,-137.56"/>
<polygon fill="#ff0000" stroke="#ff0000" stroke-width="0.5" points="127.91,-134.74 117.71,-131.88 123.89,-140.48 127.91,-134.74"/>
<text text-anchor="middle" x="172.5" y="-152.8" font-family="Times,serif" font-size="14.00">1</text>
</g>
<!-- Cancel Invoice Receipt -->
<g id="node10" class="node">
<title>Cancel Invoice Receipt</title>
<polygon fill="#fefeff" stroke="black" points="333.5,-40 170.5,-40 170.5,-4 333.5,-4 333.5,-40"/>
<text text-anchor="middle" x="252" y="-18.3" font-family="Times,serif" font-size="14.00">Cancel Invoice Receipt (6)</text>
</g>
<!-- Record Invoice Receipt&#45;&gt;Cancel Invoice Receipt -->
<g id="edge21" class="edge">
<title>Record Invoice Receipt&#45;&gt;Cancel Invoice Receipt</title>
<path fill="none" stroke="#ff0000" stroke-width="0.5" stroke-dasharray="5,2" d="M348.95,-181.53C341.12,-176.58 333.28,-170.68 327,-164 295.4,-130.39 273.2,-80.91 261.52,-50.38"/>
<polygon fill="#ff0000" stroke="#ff0000" stroke-width="0.5" points="264.85,-49.3 258.1,-41.14 258.29,-51.74 264.85,-49.3"/>
<text text-anchor="middle" x="304.5" y="-109.3" font-family="Times,serif" font-size="14.00">2</text>
</g>
<!-- Record Invoice Receipt&#45;&gt;Change Price -->
<g id="edge30" class="edge">
<title>Record Invoice Receipt&#45;&gt;Change Price</title>
<path fill="none" stroke="#ff0000" stroke-width="0.5" stroke-dasharray="5,2" d="M473.24,-184.24C575.69,-167.3 741.32,-139.91 832.53,-124.83"/>
<polygon fill="#ff0000" stroke="#ff0000" stroke-width="0.5" points="832.97,-128.3 842.26,-123.22 831.83,-121.4 832.97,-128.3"/>
<text text-anchor="middle" x="674.5" y="-152.8" font-family="Times,serif" font-size="14.00">1</text>
</g>
<!-- Set Payment Block -->
<g id="node12" class="node">
<title>Set Payment Block</title>
<polygon fill="#ffffff" stroke="black" points="557.5,-131 416.5,-131 416.5,-95 557.5,-95 557.5,-131"/>
<text text-anchor="middle" x="487" y="-109.3" font-family="Times,serif" font-size="14.00">Set Payment Block (1)</text>
</g>
<!-- Record Invoice Receipt&#45;&gt;Set Payment Block -->
<g id="edge34" class="edge">
<title>Record Invoice Receipt&#45;&gt;Set Payment Block</title>
<path fill="none" stroke="#ff0000" stroke-width="0.5" stroke-dasharray="5,2" d="M404.84,-181.8C420.1,-169.21 441,-151.96 457.9,-138.01"/>
<polygon fill="#ff0000" stroke="#ff0000" stroke-width="0.5" points="459.77,-141.01 465.25,-131.95 455.31,-135.61 459.77,-141.01"/>
<text text-anchor="middle" x="445.5" y="-152.8" font-family="Times,serif" font-size="14.00">1</text>
</g>
<!-- Remove Payment Block -->
<g id="node13" class="node">
<title>Remove Payment Block</title>
<polygon fill="#fefeff" stroke="black" points="403,-305 233,-305 233,-269 403,-269 403,-305"/>
<text text-anchor="middle" x="318" y="-283.3" font-family="Times,serif" font-size="14.00">Remove Payment Block (6)</text>
</g>
<!-- Record Invoice Receipt&#45;&gt;Remove Payment Block -->
<g id="edge47" class="edge">
<title>Record Invoice Receipt&#45;&gt;Remove Payment Block</title>
<path fill="none" stroke="#ff0000" stroke-width="0.5" stroke-dasharray="5,2" d="M362.7,-218.43C356.91,-223.73 350.89,-229.81 346,-236 340.3,-243.22 335.07,-251.74 330.71,-259.68"/>
<polygon fill="#ff0000" stroke="#ff0000" stroke-width="0.5" points="327.74,-257.81 326.2,-268.29 333.94,-261.06 327.74,-257.81"/>
<text text-anchor="middle" x="349.5" y="-239.8" font-family="Times,serif" font-size="14.00">3</text>
</g>
<!-- Record Invoice Receipt&#45;&gt;end_node -->
<g id="edge59" class="edge">
<title>Record Invoice Receipt&#45;&gt;end_node</title>
<path fill="none" stroke="#ff0000" stroke-width="0.5" stroke-dasharray="5,2" d="M379.9,-181.55C375.66,-158.77 372.24,-118.98 393,-95 433.77,-47.91 627.47,-30.23 705.91,-24.93"/>
<polygon fill="#ff0000" stroke="#ff0000" stroke-width="0.5" points="706.1,-28.42 715.86,-24.28 705.65,-21.43 706.1,-28.42"/>
<text text-anchor="middle" x="400" y="-109.3" font-family="Times,serif" font-size="14.00">12</text>
</g>
<!-- Clear Invoice&#45;&gt;Vendor creates invoice -->
<g id="edge46" class="edge">
<title>Clear Invoice&#45;&gt;Vendor creates invoice</title>
<path fill="none" stroke="#ff0000" stroke-width="0.5" stroke-dasharray="5,2" d="M310.14,-392.37C301.37,-397.36 292.43,-403.29 285,-410 232.04,-457.83 237.05,-495.34 247,-566 250.85,-593.36 267.03,-668.99 287,-686 296.16,-693.8 306.9,-699.87 318.21,-704.6"/>
<polygon fill="#ff0000" stroke="#ff0000" stroke-width="0.5" points="316.96,-707.87 327.55,-708.15 319.45,-701.33 316.96,-707.87"/>
<text text-anchor="middle" x="250.5" y="-544.3" font-family="Times,serif" font-size="14.00">1</text>
</g>
<!-- Clear Invoice&#45;&gt;Record Service Entry Sheet -->
<g id="edge33" class="edge">
<title>Clear Invoice&#45;&gt;Record Service Entry Sheet</title>
<path fill="none" stroke="#ff0000" stroke-width="0.5" stroke-dasharray="5,2" d="M346.71,-392.23C345.85,-413.73 346.85,-451.08 361,-479 390.1,-536.43 449.41,-583.99 488.16,-610.7"/>
<polygon fill="#ff0000" stroke="#ff0000" stroke-width="0.5" points="486.19,-613.59 496.43,-616.29 490.11,-607.79 486.19,-613.59"/>
<text text-anchor="middle" x="384.5" y="-500.8" font-family="Times,serif" font-size="14.00">2</text>
</g>
<!-- Clear Invoice&#45;&gt;Record Invoice Receipt -->
<g id="edge32" class="edge">
<title>Clear Invoice&#45;&gt;Record Invoice Receipt</title>
<path fill="none" stroke="#ff0000" stroke-width="0.5" stroke-dasharray="5,2" d="M371.65,-355.69C386.32,-343.41 403.87,-325.5 412,-305 422.12,-279.49 411.43,-249.05 400.47,-227.72"/>
<polygon fill="#ff0000" stroke="#ff0000" stroke-width="0.5" points="403.56,-226.07 395.69,-218.99 397.42,-229.44 403.56,-226.07"/>
<text text-anchor="middle" x="420.5" y="-283.3" font-family="Times,serif" font-size="14.00">7</text>
</g>
<!-- Clear Invoice&#45;&gt;Clear Invoice -->
<g id="edge23" class="edge">
<title>Clear Invoice&#45;&gt;Clear Invoice</title>
<path fill="none" stroke="#ff0000" stroke-width="0.5" stroke-dasharray="5,2" d="M410,-381.58C420.35,-380.52 427.5,-377.99 427.5,-374 427.5,-371.57 424.85,-369.68 420.43,-368.33"/>
<polygon fill="#ff0000" stroke="#ff0000" stroke-width="0.5" points="421.21,-364.92 410.74,-366.56 419.95,-371.8 421.21,-364.92"/>
<text text-anchor="middle" x="431" y="-370.3" font-family="Times,serif" font-size="14.00">2</text>
</g>
<!-- Clear Invoice&#45;&gt;Cancel Invoice Receipt -->
<g id="edge24" class="edge">
<title>Clear Invoice&#45;&gt;Cancel Invoice Receipt</title>
<path fill="none" stroke="#ff0000" stroke-width="0.5" stroke-dasharray="5,2" d="M288.71,-355.54C264.18,-345.06 238.2,-328.98 224,-305 175.36,-222.84 216.55,-103.19 239.33,-50.11"/>
<polygon fill="#ff0000" stroke="#ff0000" stroke-width="0.5" points="242.47,-51.66 243.31,-41.1 236.07,-48.84 242.47,-51.66"/>
<text text-anchor="middle" x="206.5" y="-196.3" font-family="Times,serif" font-size="14.00">3</text>
</g>
<!-- Clear Invoice&#45;&gt;Remove Payment Block -->
<g id="edge49" class="edge">
<title>Clear Invoice&#45;&gt;Remove Payment Block</title>
<path fill="none" stroke="#ff0000" stroke-width="0.5" stroke-dasharray="5,2" d="M331.44,-355.73C327.3,-350.44 323.37,-344.32 321,-338 318.41,-331.08 317.2,-323.24 316.76,-315.86"/>
<polygon fill="#ff0000" stroke="#ff0000" stroke-width="0.5" points="320.26,-315.88 316.58,-305.94 313.26,-316 320.26,-315.88"/>
<text text-anchor="middle" x="324.5" y="-326.8" font-family="Times,serif" font-size="14.00">1</text>
</g>
<!-- Clear Invoice&#45;&gt;end_node -->
<g id="edge57" class="edge">
<title>Clear Invoice&#45;&gt;end_node</title>
<path fill="none" stroke="#ff0000" stroke-width="0.57" stroke-dasharray="5,2" d="M409.69,-363.17C430.61,-357.92 453.37,-349.98 472,-338 592.49,-260.53 687.55,-112.1 723.47,-50.67"/>
<polygon fill="#ff0000" stroke="#ff0000" stroke-width="0.57" points="726.32,-52.74 728.29,-42.33 720.26,-49.23 726.32,-52.74"/>
<text text-anchor="middle" x="643.5" y="-196.3" font-family="Times,serif" font-size="14.00">303</text>
</g>
<!-- Cancel Goods Receipt&#45;&gt;Vendor creates invoice -->
<g id="edge42" class="edge">
<title>Cancel Goods Receipt&#45;&gt;Vendor creates invoice</title>
<path fill="none" stroke="#ff0000" stroke-width="0.5" stroke-dasharray="5,2" d="M448.92,-479.28C437.78,-507.51 416.63,-565.54 409,-617 406.65,-632.83 408.3,-637.02 409,-653 409.58,-666.23 410.8,-680.88 411.99,-693.17"/>
<polygon fill="#ff0000" stroke="#ff0000" stroke-width="0.5" points="408.49,-693.34 412.97,-702.94 415.45,-692.64 408.49,-693.34"/>
<text text-anchor="middle" x="423" y="-587.8" font-family="Times,serif" font-size="14.00">12</text>
</g>
<!-- Cancel Goods Receipt&#45;&gt;Record Service Entry Sheet -->
<g id="edge37" class="edge">
<title>Cancel Goods Receipt&#45;&gt;Record Service Entry Sheet</title>
<path fill="none" stroke="#ff0000" stroke-width="0.5" stroke-dasharray="5,2" d="M458.62,-479.48C462.17,-500.6 469.55,-536.91 482,-566 488.26,-580.63 497.47,-595.71 505.76,-607.94"/>
<polygon fill="#ff0000" stroke="#ff0000" stroke-width="0.5" points="502.83,-609.86 511.42,-616.06 508.57,-605.85 502.83,-609.86"/>
<text text-anchor="middle" x="489" y="-544.3" font-family="Times,serif" font-size="14.00">14</text>
</g>
<!-- Cancel Goods Receipt&#45;&gt;Record Goods Receipt -->
<g id="edge17" class="edge">
<title>Cancel Goods Receipt&#45;&gt;Record Goods Receipt</title>
<path fill="none" stroke="#ff0000" stroke-width="0.5" stroke-dasharray="5,2" d="M517.29,-479.5C531.9,-484.47 547.24,-490.36 561,-497 571.99,-502.31 573.08,-506.56 584,-512 594.06,-517.01 605.02,-521.67 615.83,-525.85"/>
<polygon fill="#ff0000" stroke="#ff0000" stroke-width="0.5" points="614.39,-529.04 624.98,-529.28 616.84,-522.49 614.39,-529.04"/>
<text text-anchor="middle" x="591" y="-500.8" font-family="Times,serif" font-size="14.00">20</text>
</g>
<!-- Cancel Goods Receipt&#45;&gt;Record Invoice Receipt -->
<g id="edge18" class="edge">
<title>Cancel Goods Receipt&#45;&gt;Record Invoice Receipt</title>
<path fill="none" stroke="#ff0000" stroke-width="0.5" stroke-dasharray="5,2" d="M480.83,-442.6C512.77,-417.88 562.22,-370.31 545,-323 527.74,-275.57 512.92,-265.56 472,-236 465.08,-231 457.35,-226.59 449.43,-222.74"/>
<polygon fill="#ff0000" stroke="#ff0000" stroke-width="0.5" points="450.94,-219.58 440.39,-218.63 448.04,-225.95 450.94,-219.58"/>
<text text-anchor="middle" x="552.5" y="-326.8" font-family="Times,serif" font-size="14.00">9</text>
</g>
<!-- Cancel Goods Receipt&#45;&gt;Clear Invoice -->
<g id="edge45" class="edge">
<title>Cancel Goods Receipt&#45;&gt;Clear Invoice</title>
<path fill="none" stroke="#ff0000" stroke-width="0.5" stroke-dasharray="5,2" d="M433.88,-442.59C417.87,-429.99 396.02,-412.79 378.37,-398.9"/>
<polygon fill="#ff0000" stroke="#ff0000" stroke-width="0.5" points="380.7,-396.29 370.68,-392.85 376.37,-401.79 380.7,-396.29"/>
<text text-anchor="middle" x="412.5" y="-413.8" font-family="Times,serif" font-size="14.00">1</text>
</g>
<!-- Cancel Goods Receipt&#45;&gt;Cancel Goods Receipt -->
<g id="edge41" class="edge">
<title>Cancel Goods Receipt&#45;&gt;Cancel Goods Receipt</title>
<path fill="none" stroke="#ff0000" stroke-width="0.51" stroke-dasharray="5,2" d="M541.66,-468.1C552.42,-466.85 559.5,-464.48 559.5,-461 559.5,-458.82 556.73,-457.08 552.03,-455.78"/>
<polygon fill="#ff0000" stroke="#ff0000" stroke-width="0.51" points="552.89,-452.37 542.43,-454.04 551.64,-459.26 552.89,-452.37"/>
<text text-anchor="middle" x="566.5" y="-457.3" font-family="Times,serif" font-size="14.00">54</text>
</g>
<!-- Cancel Goods Receipt&#45;&gt;end_node -->
<g id="edge61" class="edge">
<title>Cancel Goods Receipt&#45;&gt;end_node</title>
<path fill="none" stroke="#ff0000" stroke-width="0.5" stroke-dasharray="5,2" d="M495.56,-442.65C505.28,-437.6 515.36,-431.63 524,-425 539.73,-412.94 542.19,-407.92 554,-392 648.91,-264.06 670.58,-226.72 725,-77 727.65,-69.7 730.02,-61.67 732.02,-54.09"/>
<polygon fill="#ff0000" stroke="#ff0000" stroke-width="0.5" points="735.38,-55.08 734.4,-44.53 728.58,-53.39 735.38,-55.08"/>
<text text-anchor="middle" x="666" y="-239.8" font-family="Times,serif" font-size="14.00">16</text>
</g>
<!-- Vendor creates debit memo&#45;&gt;Vendor creates invoice -->
<g id="edge20" class="edge">
<title>Vendor creates debit memo&#45;&gt;Vendor creates invoice</title>
<path fill="none" stroke="#ff0000" stroke-width="0.5" stroke-dasharray="5,2" d="M78.55,-131.34C66.4,-147.71 51,-173.49 51,-199 51,-636 51,-636 51,-636 51,-670.71 79.09,-672.33 111,-686 147.15,-701.48 243.15,-710.76 317.69,-715.84"/>
<polygon fill="#ff0000" stroke="#ff0000" stroke-width="0.5" points="317.09,-719.3 327.3,-716.47 317.55,-712.32 317.09,-719.3"/>
<text text-anchor="middle" x="54.5" y="-413.8" font-family="Times,serif" font-size="14.00">3</text>
</g>
<!-- Vendor creates debit memo&#45;&gt;Record Invoice Receipt -->
<g id="edge50" class="edge">
<title>Vendor creates debit memo&#45;&gt;Record Invoice Receipt</title>
<path fill="none" stroke="#ff0000" stroke-width="0.5" stroke-dasharray="5,2" d="M133.43,-131.39C158.81,-141.85 192.42,-154.85 223,-164 242.69,-169.89 264.02,-175.23 284.5,-179.87"/>
<polygon fill="#ff0000" stroke="#ff0000" stroke-width="0.5" points="283.54,-183.24 294.06,-181.99 285.06,-176.41 283.54,-183.24"/>
<text text-anchor="middle" x="226.5" y="-152.8" font-family="Times,serif" font-size="14.00">1</text>
</g>
<!-- Vendor creates debit memo&#45;&gt;Cancel Invoice Receipt -->
<g id="edge52" class="edge">
<title>Vendor creates debit memo&#45;&gt;Cancel Invoice Receipt</title>
<path fill="none" stroke="#ff0000" stroke-width="0.5" stroke-dasharray="5,2" d="M124.03,-94.63C149.01,-80.65 184.32,-60.88 211.52,-45.66"/>
<polygon fill="#ff0000" stroke="#ff0000" stroke-width="0.5" points="213.1,-48.79 220.11,-40.85 209.68,-42.68 213.1,-48.79"/>
<text text-anchor="middle" x="186.5" y="-65.8" font-family="Times,serif" font-size="14.00">1</text>
</g>
<!-- Cancel Invoice Receipt&#45;&gt;Record Invoice Receipt -->
<g id="edge22" class="edge">
<title>Cancel Invoice Receipt&#45;&gt;Record Invoice Receipt</title>
<path fill="none" stroke="#ff0000" stroke-width="0.5" stroke-dasharray="5,2" d="M267.24,-40.4C279.65,-54.76 297.42,-75.83 312,-95 331.68,-120.89 352.69,-151.62 366.9,-172.94"/>
<polygon fill="#ff0000" stroke="#ff0000" stroke-width="0.5" points="363.87,-174.71 372.31,-181.1 369.7,-170.84 363.87,-174.71"/>
<text text-anchor="middle" x="342.5" y="-109.3" font-family="Times,serif" font-size="14.00">4</text>
</g>
<!-- Cancel Invoice Receipt&#45;&gt;Remove Payment Block -->
<g id="edge53" class="edge">
<title>Cancel Invoice Receipt&#45;&gt;Remove Payment Block</title>
<path fill="none" stroke="#ff0000" stroke-width="0.5" stroke-dasharray="5,2" d="M253.46,-40.32C256.69,-74.82 265.85,-154.27 286,-218 290.47,-232.14 297.28,-247.12 303.46,-259.41"/>
<polygon fill="#ff0000" stroke="#ff0000" stroke-width="0.5" points="300.18,-260.69 307.89,-267.96 306.4,-257.47 300.18,-260.69"/>
<text text-anchor="middle" x="275.5" y="-152.8" font-family="Times,serif" font-size="14.00">2</text>
</g>
<!-- Change Price&#45;&gt;Record Service Entry Sheet -->
<g id="edge28" class="edge">
<title>Change Price&#45;&gt;Record Service Entry Sheet</title>
<path fill="none" stroke="#ff0000" stroke-width="0.5" stroke-dasharray="5,2" d="M893.09,-131.42C888.71,-148.49 883,-175.32 883,-199 883,-549 883,-549 883,-549 883,-574.19 747.07,-600.61 642.72,-617.18"/>
<polygon fill="#ff0000" stroke="#ff0000" stroke-width="0.5" points="642.49,-613.67 633.16,-618.69 643.58,-620.59 642.49,-613.67"/>
<text text-anchor="middle" x="886.5" y="-370.3" font-family="Times,serif" font-size="14.00">2</text>
</g>
<!-- Set Payment Block&#45;&gt;end_node -->
<g id="edge60" class="edge">
<title>Set Payment Block&#45;&gt;end_node</title>
<path fill="none" stroke="#ff0000" stroke-width="0.5" stroke-dasharray="5,2" d="M509.37,-94.65C524.36,-83.81 544.96,-70.36 565,-62 612.12,-42.34 670.75,-31.82 706.5,-26.83"/>
<polygon fill="#ff0000" stroke="#ff0000" stroke-width="0.5" points="706.62,-30.35 716.07,-25.55 705.7,-23.41 706.62,-30.35"/>
<text text-anchor="middle" x="568.5" y="-65.8" font-family="Times,serif" font-size="14.00">1</text>
</g>
<!-- Remove Payment Block&#45;&gt;Record Invoice Receipt -->
<g id="edge55" class="edge">
<title>Remove Payment Block&#45;&gt;Record Invoice Receipt</title>
<path fill="none" stroke="#ff0000" stroke-width="0.5" stroke-dasharray="5,2" d="M337,-268.58C342.44,-263.19 348.2,-257.06 353,-251 358.77,-243.72 364.36,-235.29 369.16,-227.46"/>
<polygon fill="#ff0000" stroke="#ff0000" stroke-width="0.5" points="372.11,-229.35 374.2,-218.97 366.09,-225.78 372.11,-229.35"/>
<text text-anchor="middle" x="367.5" y="-239.8" font-family="Times,serif" font-size="14.00">1</text>
</g>
<!-- Remove Payment Block&#45;&gt;Clear Invoice -->
<g id="edge48" class="edge">
<title>Remove Payment Block&#45;&gt;Clear Invoice</title>
<path fill="none" stroke="#ff0000" stroke-width="0.5" stroke-dasharray="5,2" d="M324.16,-305.47C328.27,-317.09 333.74,-332.59 338.4,-345.8"/>
<polygon fill="#ff0000" stroke="#ff0000" stroke-width="0.5" points="335.05,-346.82 341.68,-355.08 341.65,-344.49 335.05,-346.82"/>
<text text-anchor="middle" x="338.5" y="-326.8" font-family="Times,serif" font-size="14.00">5</text>
</g>
</g>
</svg>
