<?xml version="1.0" encoding="UTF-8" standalone="no"?>
<!DOCTYPE svg PUBLIC "-//W3C//DTD SVG 1.1//EN"
 "http://www.w3.org/Graphics/SVG/1.1/DTD/svg11.dtd">
<!-- Generated by graphviz version 7.1.0 (0)
 -->
<!-- Pages: 1 -->
<svg width="1239pt" height="288pt"
 viewBox="0.00 0.00 1239.00 288.00" xmlns="http://www.w3.org/2000/svg" xmlns:xlink="http://www.w3.org/1999/xlink">
<g id="graph0" class="graph" transform="scale(1 1) rotate(0) translate(4 284)">
<polygon fill="white" stroke="none" points="-4,4 -4,-284 1235,-284 1235,4 -4,4"/>
<!-- start_node_var0 -->
<g id="node1" class="node">
<title>start_node_var0</title>
<ellipse fill="none" stroke="black" cx="18" cy="-22" rx="18" ry="18"/>
<text text-anchor="start" x="13.5" y="-18.3" font-family="Times,serif" font-size="14.00">●</text>
</g>
<!-- Create Purchase Order Item_var0 -->
<g id="node2" class="node">
<title>Create Purchase Order Item_var0</title>
<polygon fill="lightgrey" stroke="black" points="256.5,-40 87.5,-40 87.5,-4 256.5,-4 256.5,-40"/>
<text text-anchor="middle" x="172" y="-18.3" font-family="Times,serif" font-size="14.00">Create Purchase Order Item</text>
</g>
<!-- start_node_var0&#45;&gt;Create Purchase Order Item_var0 -->
<g id="edge1" class="edge">
<title>start_node_var0&#45;&gt;Create Purchase Order Item_var0</title>
<path fill="none" stroke="black" d="M36.44,-22C46.79,-22 60.82,-22 75.93,-22"/>
<polygon fill="black" stroke="black" points="75.57,-25.5 85.57,-22 75.57,-18.5 75.57,-25.5"/>
</g>
<!-- Vendor creates invoice_var0 -->
<g id="node3" class="node">
<title>Vendor creates invoice_var0</title>
<polygon fill="lightgrey" stroke="black" points="462.5,-40 322.5,-40 322.5,-4 462.5,-4 462.5,-40"/>
<text text-anchor="middle" x="392.5" y="-18.3" font-family="Times,serif" font-size="14.00">Vendor creates invoice</text>
</g>
<!-- Create Purchase Order Item_var0&#45;&gt;Vendor creates invoice_var0 -->
<g id="edge2" class="edge">
<title>Create Purchase Order Item_var0&#45;&gt;Vendor creates invoice_var0</title>
<path fill="none" stroke="black" d="M256.85,-22C274.52,-22 293.13,-22 310.69,-22"/>
<polygon fill="black" stroke="black" points="310.54,-25.5 320.54,-22 310.54,-18.5 310.54,-25.5"/>
</g>
<!-- Record Goods Receipt_var0 -->
<g id="node4" class="node">
<title>Record Goods Receipt_var0</title>
<polygon fill="lightgrey" stroke="black" points="655.5,-40 515.5,-40 515.5,-4 655.5,-4 655.5,-40"/>
<text text-anchor="middle" x="585.5" y="-18.3" font-family="Times,serif" font-size="14.00">Record Goods Receipt</text>
</g>
<!-- Vendor creates invoice_var0&#45;&gt;Record Goods Receipt_var0 -->
<g id="edge3" class="edge">
<title>Vendor creates invoice_var0&#45;&gt;Record Goods Receipt_var0</title>
<path fill="none" stroke="black" d="M463,-22C476.25,-22 490.22,-22 503.78,-22"/>
<polygon fill="black" stroke="black" points="503.54,-25.5 513.54,-22 503.54,-18.5 503.54,-25.5"/>
</g>
<!-- Record Invoice Receipt_var0 -->
<g id="node5" class="node">
<title>Record Invoice Receipt_var0</title>
<polygon fill="lightgrey" stroke="black" points="839,-40 694,-40 694,-4 839,-4 839,-40"/>
<text text-anchor="middle" x="766.5" y="-18.3" font-family="Times,serif" font-size="14.00">Record Invoice Receipt</text>
</g>
<!-- Record Goods Receipt_var0&#45;&gt;Record Invoice Receipt_var0 -->
<g id="edge4" class="edge">
<title>Record Goods Receipt_var0&#45;&gt;Record Invoice Receipt_var0</title>
<path fill="none" stroke="black" d="M655.96,-22C664.57,-22 673.44,-22 682.23,-22"/>
<polygon fill="black" stroke="black" points="682.2,-25.5 692.2,-22 682.2,-18.5 682.2,-25.5"/>
</g>
<!-- Clear Invoice_var0 -->
<g id="node6" class="node">
<title>Clear Invoice_var0</title>
<polygon fill="lightgrey" stroke="black" points="995,-40 905,-40 905,-4 995,-4 995,-40"/>
<text text-anchor="middle" x="950" y="-18.3" font-family="Times,serif" font-size="14.00">Clear Invoice</text>
</g>
<!-- Record Invoice Receipt_var0&#45;&gt;Clear Invoice_var0 -->
<g id="edge5" class="edge">
<title>Record Invoice Receipt_var0&#45;&gt;Clear Invoice_var0</title>
<path fill="none" stroke="black" d="M839.49,-22C857.35,-22 876.21,-22 893.16,-22"/>
<polygon fill="black" stroke="black" points="893.04,-25.5 903.04,-22 893.04,-18.5 893.04,-25.5"/>
</g>
<!-- end_node_var0 -->
<g id="node7" class="node">
<title>end_node_var0</title>
<ellipse fill="none" stroke="black" cx="1106" cy="-22" rx="18" ry="18"/>
<ellipse fill="none" stroke="black" cx="1106" cy="-22" rx="22" ry="22"/>
<text text-anchor="start" x="1101.5" y="-18.3" font-family="Times,serif" font-size="14.00">■</text>
</g>
<!-- Clear Invoice_var0&#45;&gt;end_node_var0 -->
<g id="edge6" class="edge">
<title>Clear Invoice_var0&#45;&gt;end_node_var0</title>
<path fill="none" stroke="black" d="M995.13,-22C1019.69,-22 1049.74,-22 1072.21,-22"/>
<polygon fill="black" stroke="black" points="1071.99,-25.5 1081.99,-22 1071.99,-18.5 1071.99,-25.5"/>
</g>
<!-- start_node_var1 -->
<g id="node8" class="node">
<title>start_node_var1</title>
<ellipse fill="none" stroke="black" cx="18" cy="-80" rx="18" ry="18"/>
<text text-anchor="start" x="13.5" y="-76.3" font-family="Times,serif" font-size="14.00">●</text>
</g>
<!-- Create Purchase Order Item_var1 -->
<g id="node9" class="node">
<title>Create Purchase Order Item_var1</title>
<polygon fill="lightgrey" stroke="black" points="256.5,-98 87.5,-98 87.5,-62 256.5,-62 256.5,-98"/>
<text text-anchor="middle" x="172" y="-76.3" font-family="Times,serif" font-size="14.00">Create Purchase Order Item</text>
</g>
<!-- start_node_var1&#45;&gt;Create Purchase Order Item_var1 -->
<g id="edge7" class="edge">
<title>start_node_var1&#45;&gt;Create Purchase Order Item_var1</title>
<path fill="none" stroke="black" d="M36.44,-80C46.79,-80 60.82,-80 75.93,-80"/>
<polygon fill="black" stroke="black" points="75.57,-83.5 85.57,-80 75.57,-76.5 75.57,-83.5"/>
</g>
<!-- Vendor creates invoice_var1 -->
<g id="node10" class="node">
<title>Vendor creates invoice_var1</title>
<polygon fill="lightgrey" stroke="black" points="462.5,-98 322.5,-98 322.5,-62 462.5,-62 462.5,-98"/>
<text text-anchor="middle" x="392.5" y="-76.3" font-family="Times,serif" font-size="14.00">Vendor creates invoice</text>
</g>
<!-- Create Purchase Order Item_var1&#45;&gt;Vendor creates invoice_var1 -->
<g id="edge8" class="edge">
<title>Create Purchase Order Item_var1&#45;&gt;Vendor creates invoice_var1</title>
<path fill="none" stroke="black" d="M256.85,-80C274.52,-80 293.13,-80 310.69,-80"/>
<polygon fill="black" stroke="black" points="310.54,-83.5 320.54,-80 310.54,-76.5 310.54,-83.5"/>
</g>
<!-- Record Goods Receipt_var1 -->
<g id="node11" class="node">
<title>Record Goods Receipt_var1</title>
<polygon fill="lightgrey" stroke="black" points="655.5,-98 515.5,-98 515.5,-62 655.5,-62 655.5,-98"/>
<text text-anchor="middle" x="585.5" y="-76.3" font-family="Times,serif" font-size="14.00">Record Goods Receipt</text>
</g>
<!-- Vendor creates invoice_var1&#45;&gt;Record Goods Receipt_var1 -->
<g id="edge9" class="edge">
<title>Vendor creates invoice_var1&#45;&gt;Record Goods Receipt_var1</title>
<path fill="none" stroke="black" d="M463,-80C476.25,-80 490.22,-80 503.78,-80"/>
<polygon fill="black" stroke="black" points="503.54,-83.5 513.54,-80 503.54,-76.5 503.54,-83.5"/>
</g>
<!-- Record Invoice Receipt_var1 -->
<g id="node12" class="node">
<title>Record Invoice Receipt_var1</title>
<polygon fill="lightgrey" stroke="black" points="839,-98 694,-98 694,-62 839,-62 839,-98"/>
<text text-anchor="middle" x="766.5" y="-76.3" font-family="Times,serif" font-size="14.00">Record Invoice Receipt</text>
</g>
<!-- Record Goods Receipt_var1&#45;&gt;Record Invoice Receipt_var1 -->
<g id="edge10" class="edge">
<title>Record Goods Receipt_var1&#45;&gt;Record Invoice Receipt_var1</title>
<path fill="none" stroke="black" d="M655.96,-80C664.57,-80 673.44,-80 682.23,-80"/>
<polygon fill="black" stroke="black" points="682.2,-83.5 692.2,-80 682.2,-76.5 682.2,-83.5"/>
</g>
<!-- Remove Payment Block_var1 -->
<g id="node13" class="node">
<title>Remove Payment Block_var1</title>
<polygon fill="lightgrey" stroke="black" points="1025,-98 875,-98 875,-62 1025,-62 1025,-98"/>
<text text-anchor="middle" x="950" y="-76.3" font-family="Times,serif" font-size="14.00">Remove Payment Block</text>
</g>
<!-- Record Invoice Receipt_var1&#45;&gt;Remove Payment Block_var1 -->
<g id="edge11" class="edge">
<title>Record Invoice Receipt_var1&#45;&gt;Remove Payment Block_var1</title>
<path fill="none" stroke="black" d="M839.49,-80C847.36,-80 855.43,-80 863.45,-80"/>
<polygon fill="black" stroke="black" points="863.2,-83.5 873.2,-80 863.2,-76.5 863.2,-83.5"/>
</g>
<!-- Clear Invoice_var1 -->
<g id="node14" class="node">
<title>Clear Invoice_var1</title>
<polygon fill="lightgrey" stroke="black" points="1151,-98 1061,-98 1061,-62 1151,-62 1151,-98"/>
<text text-anchor="middle" x="1106" y="-76.3" font-family="Times,serif" font-size="14.00">Clear Invoice</text>
</g>
<!-- Remove Payment Block_var1&#45;&gt;Clear Invoice_var1 -->
<g id="edge12" class="edge">
<title>Remove Payment Block_var1&#45;&gt;Clear Invoice_var1</title>
<path fill="none" stroke="black" d="M1025.29,-80C1033.46,-80 1041.66,-80 1049.54,-80"/>
<polygon fill="black" stroke="black" points="1049.3,-83.5 1059.3,-80 1049.29,-76.5 1049.3,-83.5"/>
</g>
<!-- end_node_var1 -->
<g id="node15" class="node">
<title>end_node_var1</title>
<ellipse fill="none" stroke="black" cx="1209" cy="-80" rx="18" ry="18"/>
<ellipse fill="none" stroke="black" cx="1209" cy="-80" rx="22" ry="22"/>
<text text-anchor="start" x="1204.5" y="-76.3" font-family="Times,serif" font-size="14.00">■</text>
</g>
<!-- Clear Invoice_var1&#45;&gt;end_node_var1 -->
<g id="edge13" class="edge">
<title>Clear Invoice_var1&#45;&gt;end_node_var1</title>
<path fill="none" stroke="black" d="M1151.3,-80C1159.37,-80 1167.65,-80 1175.31,-80"/>
<polygon fill="black" stroke="black" points="1175.19,-83.5 1185.19,-80 1175.19,-76.5 1175.19,-83.5"/>
</g>
<!-- start_node_var2 -->
<g id="node16" class="node">
<title>start_node_var2</title>
<ellipse fill="none" stroke="black" cx="18" cy="-142" rx="18" ry="18"/>
<text text-anchor="start" x="13.5" y="-138.3" font-family="Times,serif" font-size="14.00">●</text>
</g>
<!-- Create Purchase Order Item_var2 -->
<g id="node17" class="node">
<title>Create Purchase Order Item_var2</title>
<polygon fill="lightgrey" stroke="black" points="256.5,-160 87.5,-160 87.5,-124 256.5,-124 256.5,-160"/>
<text text-anchor="middle" x="172" y="-138.3" font-family="Times,serif" font-size="14.00">Create Purchase Order Item</text>
</g>
<!-- start_node_var2&#45;&gt;Create Purchase Order Item_var2 -->
<g id="edge14" class="edge">
<title>start_node_var2&#45;&gt;Create Purchase Order Item_var2</title>
<path fill="none" stroke="black" d="M36.44,-142C46.79,-142 60.82,-142 75.93,-142"/>
<polygon fill="black" stroke="black" points="75.57,-145.5 85.57,-142 75.57,-138.5 75.57,-145.5"/>
</g>
<!-- Vendor creates invoice_var2 -->
<g id="node18" class="node">
<title>Vendor creates invoice_var2</title>
<polygon fill="lightgrey" stroke="black" points="462.5,-160 322.5,-160 322.5,-124 462.5,-124 462.5,-160"/>
<text text-anchor="middle" x="392.5" y="-138.3" font-family="Times,serif" font-size="14.00">Vendor creates invoice</text>
</g>
<!-- Create Purchase Order Item_var2&#45;&gt;Vendor creates invoice_var2 -->
<g id="edge15" class="edge">
<title>Create Purchase Order Item_var2&#45;&gt;Vendor creates invoice_var2</title>
<path fill="none" stroke="black" d="M256.85,-142C274.52,-142 293.13,-142 310.69,-142"/>
<polygon fill="black" stroke="black" points="310.54,-145.5 320.54,-142 310.54,-138.5 310.54,-145.5"/>
</g>
<!-- Record Invoice Receipt_var2 -->
<g id="node19" class="node">
<title>Record Invoice Receipt_var2</title>
<polygon fill="lightgrey" stroke="black" points="658,-160 513,-160 513,-124 658,-124 658,-160"/>
<text text-anchor="middle" x="585.5" y="-138.3" font-family="Times,serif" font-size="14.00">Record Invoice Receipt</text>
</g>
<!-- Vendor creates invoice_var2&#45;&gt;Record Invoice Receipt_var2 -->
<g id="edge16" class="edge">
<title>Vendor creates invoice_var2&#45;&gt;Record Invoice Receipt_var2</title>
<path fill="none" stroke="black" d="M463,-142C475.54,-142 488.72,-142 501.6,-142"/>
<polygon fill="black" stroke="black" points="501.3,-145.5 511.3,-142 501.3,-138.5 501.3,-145.5"/>
</g>
<!-- Record Goods Receipt_var2 -->
<g id="node20" class="node">
<title>Record Goods Receipt_var2</title>
<polygon fill="lightgrey" stroke="black" points="836.5,-160 696.5,-160 696.5,-124 836.5,-124 836.5,-160"/>
<text text-anchor="middle" x="766.5" y="-138.3" font-family="Times,serif" font-size="14.00">Record Goods Receipt</text>
</g>
<!-- Record Invoice Receipt_var2&#45;&gt;Record Goods Receipt_var2 -->
<g id="edge17" class="edge">
<title>Record Invoice Receipt_var2&#45;&gt;Record Goods Receipt_var2</title>
<path fill="none" stroke="black" d="M658.27,-142C666.93,-142 675.82,-142 684.59,-142"/>
<polygon fill="black" stroke="black" points="684.52,-145.5 694.52,-142 684.52,-138.5 684.52,-145.5"/>
</g>
<!-- Remove Payment Block_var2 -->
<g id="node21" class="node">
<title>Remove Payment Block_var2</title>
<polygon fill="lightgrey" stroke="black" points="1025,-160 875,-160 875,-124 1025,-124 1025,-160"/>
<text text-anchor="middle" x="950" y="-138.3" font-family="Times,serif" font-size="14.00">Remove Payment Block</text>
</g>
<!-- Record Goods Receipt_var2&#45;&gt;Remove Payment Block_var2 -->
<g id="edge18" class="edge">
<title>Record Goods Receipt_var2&#45;&gt;Remove Payment Block_var2</title>
<path fill="none" stroke="black" d="M836.89,-142C845.45,-142 854.28,-142 863.05,-142"/>
<polygon fill="black" stroke="black" points="863,-145.5 873,-142 863,-138.5 863,-145.5"/>
</g>
<!-- Clear Invoice_var2 -->
<g id="node22" class="node">
<title>Clear Invoice_var2</title>
<polygon fill="lightgrey" stroke="black" points="1151,-160 1061,-160 1061,-124 1151,-124 1151,-160"/>
<text text-anchor="middle" x="1106" y="-138.3" font-family="Times,serif" font-size="14.00">Clear Invoice</text>
</g>
<!-- Remove Payment Block_var2&#45;&gt;Clear Invoice_var2 -->
<g id="edge19" class="edge">
<title>Remove Payment Block_var2&#45;&gt;Clear Invoice_var2</title>
<path fill="none" stroke="black" d="M1025.29,-142C1033.46,-142 1041.66,-142 1049.54,-142"/>
<polygon fill="black" stroke="black" points="1049.3,-145.5 1059.3,-142 1049.29,-138.5 1049.3,-145.5"/>
</g>
<!-- end_node_var2 -->
<g id="node23" class="node">
<title>end_node_var2</title>
<ellipse fill="none" stroke="black" cx="1209" cy="-142" rx="18" ry="18"/>
<ellipse fill="none" stroke="black" cx="1209" cy="-142" rx="22" ry="22"/>
<text text-anchor="start" x="1204.5" y="-138.3" font-family="Times,serif" font-size="14.00">■</text>
</g>
<!-- Clear Invoice_var2&#45;&gt;end_node_var2 -->
<g id="edge20" class="edge">
<title>Clear Invoice_var2&#45;&gt;end_node_var2</title>
<path fill="none" stroke="black" d="M1151.3,-142C1159.37,-142 1167.65,-142 1175.31,-142"/>
<polygon fill="black" stroke="black" points="1175.19,-145.5 1185.19,-142 1175.19,-138.5 1175.19,-145.5"/>
</g>
<!-- start_node_var3 -->
<g id="node24" class="node">
<title>start_node_var3</title>
<ellipse fill="none" stroke="black" cx="18" cy="-200" rx="18" ry="18"/>
<text text-anchor="start" x="13.5" y="-196.3" font-family="Times,serif" font-size="14.00">●</text>
</g>
<!-- Create Purchase Order Item_var3 -->
<g id="node25" class="node">
<title>Create Purchase Order Item_var3</title>
<polygon fill="lightgrey" stroke="black" points="256.5,-218 87.5,-218 87.5,-182 256.5,-182 256.5,-218"/>
<text text-anchor="middle" x="172" y="-196.3" font-family="Times,serif" font-size="14.00">Create Purchase Order Item</text>
</g>
<!-- start_node_var3&#45;&gt;Create Purchase Order Item_var3 -->
<g id="edge21" class="edge">
<title>start_node_var3&#45;&gt;Create Purchase Order Item_var3</title>
<path fill="none" stroke="black" d="M36.44,-200C46.79,-200 60.82,-200 75.93,-200"/>
<polygon fill="black" stroke="black" points="75.57,-203.5 85.57,-200 75.57,-196.5 75.57,-203.5"/>
</g>
<!-- Record Goods Receipt_var3 -->
<g id="node26" class="node">
<title>Record Goods Receipt_var3</title>
<polygon fill="lightgrey" stroke="black" points="462.5,-218 322.5,-218 322.5,-182 462.5,-182 462.5,-218"/>
<text text-anchor="middle" x="392.5" y="-196.3" font-family="Times,serif" font-size="14.00">Record Goods Receipt</text>
</g>
<!-- Create Purchase Order Item_var3&#45;&gt;Record Goods Receipt_var3 -->
<g id="edge22" class="edge">
<title>Create Purchase Order Item_var3&#45;&gt;Record Goods Receipt_var3</title>
<path fill="none" stroke="black" d="M256.85,-200C274.52,-200 293.13,-200 310.69,-200"/>
<polygon fill="black" stroke="black" points="310.54,-203.5 320.54,-200 310.54,-196.5 310.54,-203.5"/>
</g>
<!-- Vendor creates invoice_var3 -->
<g id="node27" class="node">
<title>Vendor creates invoice_var3</title>
<polygon fill="lightgrey" stroke="black" points="655.5,-218 515.5,-218 515.5,-182 655.5,-182 655.5,-218"/>
<text text-anchor="middle" x="585.5" y="-196.3" font-family="Times,serif" font-size="14.00">Vendor creates invoice</text>
</g>
<!-- Record Goods Receipt_var3&#45;&gt;Vendor creates invoice_var3 -->
<g id="edge23" class="edge">
<title>Record Goods Receipt_var3&#45;&gt;Vendor creates invoice_var3</title>
<path fill="none" stroke="black" d="M463,-200C476.25,-200 490.22,-200 503.78,-200"/>
<polygon fill="black" stroke="black" points="503.54,-203.5 513.54,-200 503.54,-196.5 503.54,-203.5"/>
</g>
<!-- Record Invoice Receipt_var3 -->
<g id="node28" class="node">
<title>Record Invoice Receipt_var3</title>
<polygon fill="lightgrey" stroke="black" points="839,-218 694,-218 694,-182 839,-182 839,-218"/>
<text text-anchor="middle" x="766.5" y="-196.3" font-family="Times,serif" font-size="14.00">Record Invoice Receipt</text>
</g>
<!-- Vendor creates invoice_var3&#45;&gt;Record Invoice Receipt_var3 -->
<g id="edge24" class="edge">
<title>Vendor creates invoice_var3&#45;&gt;Record Invoice Receipt_var3</title>
<path fill="none" stroke="black" d="M655.96,-200C664.57,-200 673.44,-200 682.23,-200"/>
<polygon fill="black" stroke="black" points="682.2,-203.5 692.2,-200 682.2,-196.5 682.2,-203.5"/>
</g>
<!-- Clear Invoice_var3 -->
<g id="node29" class="node">
<title>Clear Invoice_var3</title>
<polygon fill="lightgrey" stroke="black" points="995,-218 905,-218 905,-182 995,-182 995,-218"/>
<text text-anchor="middle" x="950" y="-196.3" font-family="Times,serif" font-size="14.00">Clear Invoice</text>
</g>
<!-- Record Invoice Receipt_var3&#45;&gt;Clear Invoice_var3 -->
<g id="edge25" class="edge">
<title>Record Invoice Receipt_var3&#45;&gt;Clear Invoice_var3</title>
<path fill="none" stroke="black" d="M839.49,-200C857.35,-200 876.21,-200 893.16,-200"/>
<polygon fill="black" stroke="black" points="893.04,-203.5 903.04,-200 893.04,-196.5 893.04,-203.5"/>
</g>
<!-- end_node_var3 -->
<g id="node30" class="node">
<title>end_node_var3</title>
<ellipse fill="none" stroke="black" cx="1106" cy="-200" rx="18" ry="18"/>
<ellipse fill="none" stroke="black" cx="1106" cy="-200" rx="22" ry="22"/>
<text text-anchor="start" x="1101.5" y="-196.3" font-family="Times,serif" font-size="14.00">■</text>
</g>
<!-- Clear Invoice_var3&#45;&gt;end_node_var3 -->
<g id="edge26" class="edge">
<title>Clear Invoice_var3&#45;&gt;end_node_var3</title>
<path fill="none" stroke="black" d="M995.13,-200C1019.69,-200 1049.74,-200 1072.21,-200"/>
<polygon fill="black" stroke="black" points="1071.99,-203.5 1081.99,-200 1071.99,-196.5 1071.99,-203.5"/>
</g>
<!-- start_node_var4 -->
<g id="node31" class="node">
<title>start_node_var4</title>
<ellipse fill="none" stroke="black" cx="18" cy="-258" rx="18" ry="18"/>
<text text-anchor="start" x="13.5" y="-254.3" font-family="Times,serif" font-size="14.00">●</text>
</g>
<!-- Create Purchase Requisition Item_var4 -->
<g id="node32" class="node">
<title>Create Purchase Requisition Item_var4</title>
<polygon fill="lightgrey" stroke="black" points="272,-276 72,-276 72,-240 272,-240 272,-276"/>
<text text-anchor="middle" x="172" y="-254.3" font-family="Times,serif" font-size="14.00">Create Purchase Requisition Item</text>
</g>
<!-- start_node_var4&#45;&gt;Create Purchase Requisition Item_var4 -->
<g id="edge27" class="edge">
<title>start_node_var4&#45;&gt;Create Purchase Requisition Item_var4</title>
<path fill="none" stroke="black" d="M36.44,-258C43.09,-258 51.26,-258 60.26,-258"/>
<polygon fill="black" stroke="black" points="60.09,-261.5 70.09,-258 60.09,-254.5 60.09,-261.5"/>
</g>
<!-- Create Purchase Order Item_var4 -->
<g id="node33" class="node">
<title>Create Purchase Order Item_var4</title>
<polygon fill="lightgrey" stroke="black" points="477,-276 308,-276 308,-240 477,-240 477,-276"/>
<text text-anchor="middle" x="392.5" y="-254.3" font-family="Times,serif" font-size="14.00">Create Purchase Order Item</text>
</g>
<!-- Create Purchase Requisition Item_var4&#45;&gt;Create Purchase Order Item_var4 -->
<g id="edge28" class="edge">
<title>Create Purchase Requisition Item_var4&#45;&gt;Create Purchase Order Item_var4</title>
<path fill="none" stroke="black" d="M272.34,-258C280.39,-258 288.5,-258 296.52,-258"/>
<polygon fill="black" stroke="black" points="296.25,-261.5 306.25,-258 296.25,-254.5 296.25,-261.5"/>
</g>
<!-- Vendor creates invoice_var4 -->
<g id="node34" class="node">
<title>Vendor creates invoice_var4</title>
<polygon fill="lightgrey" stroke="black" points="655.5,-276 515.5,-276 515.5,-240 655.5,-240 655.5,-276"/>
<text text-anchor="middle" x="585.5" y="-254.3" font-family="Times,serif" font-size="14.00">Vendor creates invoice</text>
</g>
<!-- Create Purchase Order Item_var4&#45;&gt;Vendor creates invoice_var4 -->
<g id="edge29" class="edge">
<title>Create Purchase Order Item_var4&#45;&gt;Vendor creates invoice_var4</title>
<path fill="none" stroke="black" d="M477.28,-258C486.06,-258 494.97,-258 503.72,-258"/>
<polygon fill="black" stroke="black" points="503.58,-261.5 513.58,-258 503.58,-254.5 503.58,-261.5"/>
</g>
<!-- Record Goods Receipt_var4 -->
<g id="node35" class="node">
<title>Record Goods Receipt_var4</title>
<polygon fill="lightgrey" stroke="black" points="836.5,-276 696.5,-276 696.5,-240 836.5,-240 836.5,-276"/>
<text text-anchor="middle" x="766.5" y="-254.3" font-family="Times,serif" font-size="14.00">Record Goods Receipt</text>
</g>
<!-- Vendor creates invoice_var4&#45;&gt;Record Goods Receipt_var4 -->
<g id="edge30" class="edge">
<title>Vendor creates invoice_var4&#45;&gt;Record Goods Receipt_var4</title>
<path fill="none" stroke="black" d="M655.96,-258C665.43,-258 675.21,-258 684.85,-258"/>
<polygon fill="black" stroke="black" points="684.56,-261.5 694.56,-258 684.56,-254.5 684.56,-261.5"/>
</g>
<!-- Record Invoice Receipt_var4 -->
<g id="node36" class="node">
<title>Record Invoice Receipt_var4</title>
<polygon fill="lightgrey" stroke="black" points="1022.5,-276 877.5,-276 877.5,-240 1022.5,-240 1022.5,-276"/>
<text text-anchor="middle" x="950" y="-254.3" font-family="Times,serif" font-size="14.00">Record Invoice Receipt</text>
</g>
<!-- Record Goods Receipt_var4&#45;&gt;Record Invoice Receipt_var4 -->
<g id="edge31" class="edge">
<title>Record Goods Receipt_var4&#45;&gt;Record Invoice Receipt_var4</title>
<path fill="none" stroke="black" d="M836.89,-258C846.39,-258 856.21,-258 865.92,-258"/>
<polygon fill="black" stroke="black" points="865.72,-261.5 875.72,-258 865.72,-254.5 865.72,-261.5"/>
</g>
<!-- Clear Invoice_var4 -->
<g id="node37" class="node">
<title>Clear Invoice_var4</title>
<polygon fill="lightgrey" stroke="black" points="1151,-276 1061,-276 1061,-240 1151,-240 1151,-276"/>
<text text-anchor="middle" x="1106" y="-254.3" font-family="Times,serif" font-size="14.00">Clear Invoice</text>
</g>
<!-- Record Invoice Receipt_var4&#45;&gt;Clear Invoice_var4 -->
<g id="edge32" class="edge">
<title>Record Invoice Receipt_var4&#45;&gt;Clear Invoice_var4</title>
<path fill="none" stroke="black" d="M1022.59,-258C1031.66,-258 1040.82,-258 1049.58,-258"/>
<polygon fill="black" stroke="black" points="1049.31,-261.5 1059.31,-258 1049.31,-254.5 1049.31,-261.5"/>
</g>
<!-- end_node_var4 -->
<g id="node38" class="node">
<title>end_node_var4</title>
<ellipse fill="none" stroke="black" cx="1209" cy="-258" rx="18" ry="18"/>
<ellipse fill="none" stroke="black" cx="1209" cy="-258" rx="22" ry="22"/>
<text text-anchor="start" x="1204.5" y="-254.3" font-family="Times,serif" font-size="14.00">■</text>
</g>
<!-- Clear Invoice_var4&#45;&gt;end_node_var4 -->
<g id="edge33" class="edge">
<title>Clear Invoice_var4&#45;&gt;end_node_var4</title>
<path fill="none" stroke="black" d="M1151.3,-258C1159.37,-258 1167.65,-258 1175.31,-258"/>
<polygon fill="black" stroke="black" points="1175.19,-261.5 1185.19,-258 1175.19,-254.5 1175.19,-261.5"/>
</g>
</g>
</svg>
