<?xml version="1.0" encoding="UTF-8" standalone="no"?>
<!DOCTYPE svg PUBLIC "-//W3C//DTD SVG 1.1//EN"
 "http://www.w3.org/Graphics/SVG/1.1/DTD/svg11.dtd">
<!-- Generated by graphviz version 7.1.0 (0)
 -->
<!-- Pages: 1 -->
<svg width="1277pt" height="746pt"
 viewBox="0.00 0.00 1277.00 746.00" xmlns="http://www.w3.org/2000/svg" xmlns:xlink="http://www.w3.org/1999/xlink">
<g id="graph0" class="graph" transform="scale(1 1) rotate(0) translate(4 742)">
<polygon fill="white" stroke="none" points="-4,4 -4,-742 1273,-742 1273,4 -4,4"/>
<!-- start_node_var0 -->
<g id="node1" class="node">
<title>start_node_var0</title>
<text text-anchor="middle" x="100" y="-14.3" font-family="Times,serif" font-size="14.00">173 traces</text>
</g>
<!-- Create Purchase Order Item_var0_step0 -->
<g id="node2" class="node">
<title>Create Purchase Order Item_var0_step0</title>
<polygon fill="lightgrey" stroke="black" points="184.5,-90 15.5,-90 15.5,-54 184.5,-54 184.5,-90"/>
<text text-anchor="middle" x="100" y="-68.3" font-family="Times,serif" font-size="14.00">Create Purchase Order Item</text>
</g>
<!-- Receive Order Confirmation_var0_step1 -->
<g id="node3" class="node">
<title>Receive Order Confirmation_var0_step1</title>
<polygon fill="lightgrey" stroke="black" points="409,-90 236,-90 236,-54 409,-54 409,-90"/>
<text text-anchor="middle" x="322.5" y="-68.3" font-family="Times,serif" font-size="14.00">Receive Order Confirmation</text>
</g>
<!-- Create Purchase Order Item_var0_step0&#45;&gt;Receive Order Confirmation_var0_step1 -->
<g id="edge1" class="edge">
<title>Create Purchase Order Item_var0_step0&#45;&gt;Receive Order Confirmation_var0_step1</title>
<path fill="none" stroke="black" d="M184.99,-72C197.79,-72 211.1,-72 224.15,-72"/>
<polygon fill="black" stroke="black" points="224.03,-75.5 234.03,-72 224.03,-68.5 224.03,-75.5"/>
</g>
<!-- Vendor creates invoice_var0_step2 -->
<g id="node4" class="node">
<title>Vendor creates invoice_var0_step2</title>
<polygon fill="lightgrey" stroke="black" points="587.5,-90 447.5,-90 447.5,-54 587.5,-54 587.5,-90"/>
<text text-anchor="middle" x="517.5" y="-68.3" font-family="Times,serif" font-size="14.00">Vendor creates invoice</text>
</g>
<!-- Receive Order Confirmation_var0_step1&#45;&gt;Vendor creates invoice_var0_step2 -->
<g id="edge2" class="edge">
<title>Receive Order Confirmation_var0_step1&#45;&gt;Vendor creates invoice_var0_step2</title>
<path fill="none" stroke="black" d="M409.28,-72C418.1,-72 427.04,-72 435.8,-72"/>
<polygon fill="black" stroke="black" points="435.68,-75.5 445.68,-72 435.68,-68.5 435.68,-75.5"/>
</g>
<!-- Record Goods Receipt_var0_step3 -->
<g id="node5" class="node">
<title>Record Goods Receipt_var0_step3</title>
<polygon fill="lightgrey" stroke="black" points="768.5,-90 628.5,-90 628.5,-54 768.5,-54 768.5,-90"/>
<text text-anchor="middle" x="698.5" y="-68.3" font-family="Times,serif" font-size="14.00">Record Goods Receipt</text>
</g>
<!-- Vendor creates invoice_var0_step2&#45;&gt;Record Goods Receipt_var0_step3 -->
<g id="edge3" class="edge">
<title>Vendor creates invoice_var0_step2&#45;&gt;Record Goods Receipt_var0_step3</title>
<path fill="none" stroke="black" d="M587.96,-72C597.43,-72 607.21,-72 616.85,-72"/>
<polygon fill="black" stroke="black" points="616.56,-75.5 626.56,-72 616.56,-68.5 616.56,-75.5"/>
</g>
<!-- Record Invoice Receipt_var0_step4 -->
<g id="node6" class="node">
<title>Record Invoice Receipt_var0_step4</title>
<polygon fill="lightgrey" stroke="black" points="954.5,-90 809.5,-90 809.5,-54 954.5,-54 954.5,-90"/>
<text text-anchor="middle" x="882" y="-68.3" font-family="Times,serif" font-size="14.00">Record Invoice Receipt</text>
</g>
<!-- Record Goods Receipt_var0_step3&#45;&gt;Record Invoice Receipt_var0_step4 -->
<g id="edge4" class="edge">
<title>Record Goods Receipt_var0_step3&#45;&gt;Record Invoice Receipt_var0_step4</title>
<path fill="none" stroke="black" d="M768.89,-72C778.39,-72 788.21,-72 797.92,-72"/>
<polygon fill="black" stroke="black" points="797.72,-75.5 807.72,-72 797.72,-68.5 797.72,-75.5"/>
</g>
<!-- Remove Payment Block_var0_step5 -->
<g id="node7" class="node">
<title>Remove Payment Block_var0_step5</title>
<polygon fill="lightgrey" stroke="black" points="1143,-90 993,-90 993,-54 1143,-54 1143,-90"/>
<text text-anchor="middle" x="1068" y="-68.3" font-family="Times,serif" font-size="14.00">Remove Payment Block</text>
</g>
<!-- Record Invoice Receipt_var0_step4&#45;&gt;Remove Payment Block_var0_step5 -->
<g id="edge5" class="edge">
<title>Record Invoice Receipt_var0_step4&#45;&gt;Remove Payment Block_var0_step5</title>
<path fill="none" stroke="black" d="M954.93,-72C963.55,-72 972.42,-72 981.21,-72"/>
<polygon fill="black" stroke="black" points="981.18,-75.5 991.18,-72 981.18,-68.5 981.18,-75.5"/>
</g>
<!-- Clear Invoice_var0_step6 -->
<g id="node8" class="node">
<title>Clear Invoice_var0_step6</title>
<polygon fill="lightgrey" stroke="black" points="1269,-90 1179,-90 1179,-54 1269,-54 1269,-90"/>
<text text-anchor="middle" x="1224" y="-68.3" font-family="Times,serif" font-size="14.00">Clear Invoice</text>
</g>
<!-- Remove Payment Block_var0_step5&#45;&gt;Clear Invoice_var0_step6 -->
<g id="edge6" class="edge">
<title>Remove Payment Block_var0_step5&#45;&gt;Clear Invoice_var0_step6</title>
<path fill="none" stroke="black" d="M1143.29,-72C1151.46,-72 1159.66,-72 1167.54,-72"/>
<polygon fill="black" stroke="black" points="1167.3,-75.5 1177.3,-72 1167.29,-68.5 1167.3,-75.5"/>
</g>
<!-- start_node_var1 -->
<g id="node9" class="node">
<title>start_node_var1</title>
<text text-anchor="middle" x="100" y="-122.3" font-family="Times,serif" font-size="14.00">178 traces</text>
</g>
<!-- Create Purchase Requisition Item_var1_step0 -->
<g id="node10" class="node">
<title>Create Purchase Requisition Item_var1_step0</title>
<polygon fill="lightgrey" stroke="black" points="200,-198 0,-198 0,-162 200,-162 200,-198"/>
<text text-anchor="middle" x="100" y="-176.3" font-family="Times,serif" font-size="14.00">Create Purchase Requisition Item</text>
</g>
<!-- Create Purchase Order Item_var1_step1 -->
<g id="node11" class="node">
<title>Create Purchase Order Item_var1_step1</title>
<polygon fill="lightgrey" stroke="black" points="407,-198 238,-198 238,-162 407,-162 407,-198"/>
<text text-anchor="middle" x="322.5" y="-176.3" font-family="Times,serif" font-size="14.00">Create Purchase Order Item</text>
</g>
<!-- Create Purchase Requisition Item_var1_step0&#45;&gt;Create Purchase Order Item_var1_step1 -->
<g id="edge7" class="edge">
<title>Create Purchase Requisition Item_var1_step0&#45;&gt;Create Purchase Order Item_var1_step1</title>
<path fill="none" stroke="black" d="M200.28,-180C208.95,-180 217.7,-180 226.33,-180"/>
<polygon fill="black" stroke="black" points="226.07,-183.5 236.07,-180 226.07,-176.5 226.07,-183.5"/>
</g>
<!-- Vendor creates invoice_var1_step2 -->
<g id="node12" class="node">
<title>Vendor creates invoice_var1_step2</title>
<polygon fill="lightgrey" stroke="black" points="587.5,-198 447.5,-198 447.5,-162 587.5,-162 587.5,-198"/>
<text text-anchor="middle" x="517.5" y="-176.3" font-family="Times,serif" font-size="14.00">Vendor creates invoice</text>
</g>
<!-- Create Purchase Order Item_var1_step1&#45;&gt;Vendor creates invoice_var1_step2 -->
<g id="edge8" class="edge">
<title>Create Purchase Order Item_var1_step1&#45;&gt;Vendor creates invoice_var1_step2</title>
<path fill="none" stroke="black" d="M407.31,-180C416.78,-180 426.43,-180 435.86,-180"/>
<polygon fill="black" stroke="black" points="435.72,-183.5 445.72,-180 435.72,-176.5 435.72,-183.5"/>
</g>
<!-- Record Goods Receipt_var1_step3 -->
<g id="node13" class="node">
<title>Record Goods Receipt_var1_step3</title>
<polygon fill="lightgrey" stroke="black" points="768.5,-198 628.5,-198 628.5,-162 768.5,-162 768.5,-198"/>
<text text-anchor="middle" x="698.5" y="-176.3" font-family="Times,serif" font-size="14.00">Record Goods Receipt</text>
</g>
<!-- Vendor creates invoice_var1_step2&#45;&gt;Record Goods Receipt_var1_step3 -->
<g id="edge9" class="edge">
<title>Vendor creates invoice_var1_step2&#45;&gt;Record Goods Receipt_var1_step3</title>
<path fill="none" stroke="black" d="M587.96,-180C597.43,-180 607.21,-180 616.85,-180"/>
<polygon fill="black" stroke="black" points="616.56,-183.5 626.56,-180 616.56,-176.5 616.56,-183.5"/>
</g>
<!-- Record Invoice Receipt_var1_step4 -->
<g id="node14" class="node">
<title>Record Invoice Receipt_var1_step4</title>
<polygon fill="lightgrey" stroke="black" points="954.5,-198 809.5,-198 809.5,-162 954.5,-162 954.5,-198"/>
<text text-anchor="middle" x="882" y="-176.3" font-family="Times,serif" font-size="14.00">Record Invoice Receipt</text>
</g>
<!-- Record Goods Receipt_var1_step3&#45;&gt;Record Invoice Receipt_var1_step4 -->
<g id="edge10" class="edge">
<title>Record Goods Receipt_var1_step3&#45;&gt;Record Invoice Receipt_var1_step4</title>
<path fill="none" stroke="black" d="M768.89,-180C778.39,-180 788.21,-180 797.92,-180"/>
<polygon fill="black" stroke="black" points="797.72,-183.5 807.72,-180 797.72,-176.5 797.72,-183.5"/>
</g>
<!-- Remove Payment Block_var1_step5 -->
<g id="node15" class="node">
<title>Remove Payment Block_var1_step5</title>
<polygon fill="lightgrey" stroke="black" points="1143,-198 993,-198 993,-162 1143,-162 1143,-198"/>
<text text-anchor="middle" x="1068" y="-176.3" font-family="Times,serif" font-size="14.00">Remove Payment Block</text>
</g>
<!-- Record Invoice Receipt_var1_step4&#45;&gt;Remove Payment Block_var1_step5 -->
<g id="edge11" class="edge">
<title>Record Invoice Receipt_var1_step4&#45;&gt;Remove Payment Block_var1_step5</title>
<path fill="none" stroke="black" d="M954.93,-180C963.55,-180 972.42,-180 981.21,-180"/>
<polygon fill="black" stroke="black" points="981.18,-183.5 991.18,-180 981.18,-176.5 981.18,-183.5"/>
</g>
<!-- Clear Invoice_var1_step6 -->
<g id="node16" class="node">
<title>Clear Invoice_var1_step6</title>
<polygon fill="lightgrey" stroke="black" points="1269,-198 1179,-198 1179,-162 1269,-162 1269,-198"/>
<text text-anchor="middle" x="1224" y="-176.3" font-family="Times,serif" font-size="14.00">Clear Invoice</text>
</g>
<!-- Remove Payment Block_var1_step5&#45;&gt;Clear Invoice_var1_step6 -->
<g id="edge12" class="edge">
<title>Remove Payment Block_var1_step5&#45;&gt;Clear Invoice_var1_step6</title>
<path fill="none" stroke="black" d="M1143.29,-180C1151.46,-180 1159.66,-180 1167.54,-180"/>
<polygon fill="black" stroke="black" points="1167.3,-183.5 1177.3,-180 1167.29,-176.5 1167.3,-183.5"/>
</g>
<!-- start_node_var2 -->
<g id="node17" class="node">
<title>start_node_var2</title>
<text text-anchor="middle" x="100" y="-230.3" font-family="Times,serif" font-size="14.00">224 traces</text>
</g>
<!-- Create Purchase Order Item_var2_step0 -->
<g id="node18" class="node">
<title>Create Purchase Order Item_var2_step0</title>
<polygon fill="lightgrey" stroke="black" points="184.5,-306 15.5,-306 15.5,-270 184.5,-270 184.5,-306"/>
<text text-anchor="middle" x="100" y="-284.3" font-family="Times,serif" font-size="14.00">Create Purchase Order Item</text>
</g>
<!-- Vendor creates invoice_var2_step1 -->
<g id="node19" class="node">
<title>Vendor creates invoice_var2_step1</title>
<polygon fill="lightgrey" stroke="black" points="392.5,-306 252.5,-306 252.5,-270 392.5,-270 392.5,-306"/>
<text text-anchor="middle" x="322.5" y="-284.3" font-family="Times,serif" font-size="14.00">Vendor creates invoice</text>
</g>
<!-- Create Purchase Order Item_var2_step0&#45;&gt;Vendor creates invoice_var2_step1 -->
<g id="edge13" class="edge">
<title>Create Purchase Order Item_var2_step0&#45;&gt;Vendor creates invoice_var2_step1</title>
<path fill="none" stroke="black" d="M184.99,-288C203.25,-288 222.52,-288 240.66,-288"/>
<polygon fill="black" stroke="black" points="240.57,-291.5 250.57,-288 240.57,-284.5 240.57,-291.5"/>
</g>
<!-- Record Goods Receipt_var2_step2 -->
<g id="node20" class="node">
<title>Record Goods Receipt_var2_step2</title>
<polygon fill="lightgrey" stroke="black" points="587.5,-306 447.5,-306 447.5,-270 587.5,-270 587.5,-306"/>
<text text-anchor="middle" x="517.5" y="-284.3" font-family="Times,serif" font-size="14.00">Record Goods Receipt</text>
</g>
<!-- Vendor creates invoice_var2_step1&#45;&gt;Record Goods Receipt_var2_step2 -->
<g id="edge14" class="edge">
<title>Vendor creates invoice_var2_step1&#45;&gt;Record Goods Receipt_var2_step2</title>
<path fill="none" stroke="black" d="M392.9,-288C406.8,-288 421.52,-288 435.76,-288"/>
<polygon fill="black" stroke="black" points="435.55,-291.5 445.55,-288 435.55,-284.5 435.55,-291.5"/>
</g>
<!-- Record Invoice Receipt_var2_step3 -->
<g id="node21" class="node">
<title>Record Invoice Receipt_var2_step3</title>
<polygon fill="lightgrey" stroke="black" points="771,-306 626,-306 626,-270 771,-270 771,-306"/>
<text text-anchor="middle" x="698.5" y="-284.3" font-family="Times,serif" font-size="14.00">Record Invoice Receipt</text>
</g>
<!-- Record Goods Receipt_var2_step2&#45;&gt;Record Invoice Receipt_var2_step3 -->
<g id="edge15" class="edge">
<title>Record Goods Receipt_var2_step2&#45;&gt;Record Invoice Receipt_var2_step3</title>
<path fill="none" stroke="black" d="M587.96,-288C596.57,-288 605.44,-288 614.23,-288"/>
<polygon fill="black" stroke="black" points="614.2,-291.5 624.2,-288 614.2,-284.5 614.2,-291.5"/>
</g>
<!-- Change Price_var2_step4 -->
<g id="node22" class="node">
<title>Change Price_var2_step4</title>
<polygon fill="lightgrey" stroke="black" points="926.5,-306 837.5,-306 837.5,-270 926.5,-270 926.5,-306"/>
<text text-anchor="middle" x="882" y="-284.3" font-family="Times,serif" font-size="14.00">Change Price</text>
</g>
<!-- Record Invoice Receipt_var2_step3&#45;&gt;Change Price_var2_step4 -->
<g id="edge16" class="edge">
<title>Record Invoice Receipt_var2_step3&#45;&gt;Change Price_var2_step4</title>
<path fill="none" stroke="black" d="M771.49,-288C789.51,-288 808.55,-288 825.62,-288"/>
<polygon fill="black" stroke="black" points="825.56,-291.5 835.56,-288 825.56,-284.5 825.56,-291.5"/>
</g>
<!-- Remove Payment Block_var2_step5 -->
<g id="node23" class="node">
<title>Remove Payment Block_var2_step5</title>
<polygon fill="lightgrey" stroke="black" points="1143,-306 993,-306 993,-270 1143,-270 1143,-306"/>
<text text-anchor="middle" x="1068" y="-284.3" font-family="Times,serif" font-size="14.00">Remove Payment Block</text>
</g>
<!-- Change Price_var2_step4&#45;&gt;Remove Payment Block_var2_step5 -->
<g id="edge17" class="edge">
<title>Change Price_var2_step4&#45;&gt;Remove Payment Block_var2_step5</title>
<path fill="none" stroke="black" d="M926.61,-288C943.05,-288 962.38,-288 981.35,-288"/>
<polygon fill="black" stroke="black" points="981.26,-291.5 991.26,-288 981.26,-284.5 981.26,-291.5"/>
</g>
<!-- Clear Invoice_var2_step6 -->
<g id="node24" class="node">
<title>Clear Invoice_var2_step6</title>
<polygon fill="lightgrey" stroke="black" points="1269,-306 1179,-306 1179,-270 1269,-270 1269,-306"/>
<text text-anchor="middle" x="1224" y="-284.3" font-family="Times,serif" font-size="14.00">Clear Invoice</text>
</g>
<!-- Remove Payment Block_var2_step5&#45;&gt;Clear Invoice_var2_step6 -->
<g id="edge18" class="edge">
<title>Remove Payment Block_var2_step5&#45;&gt;Clear Invoice_var2_step6</title>
<path fill="none" stroke="black" d="M1143.29,-288C1151.46,-288 1159.66,-288 1167.54,-288"/>
<polygon fill="black" stroke="black" points="1167.3,-291.5 1177.3,-288 1167.29,-284.5 1167.3,-291.5"/>
</g>
<!-- start_node_var3 -->
<g id="node25" class="node">
<title>start_node_var3</title>
<text text-anchor="middle" x="100" y="-338.3" font-family="Times,serif" font-size="14.00">255 traces</text>
</g>
<!-- Create Purchase Order Item_var3_step0 -->
<g id="node26" class="node">
<title>Create Purchase Order Item_var3_step0</title>
<polygon fill="lightgrey" stroke="black" points="184.5,-414 15.5,-414 15.5,-378 184.5,-378 184.5,-414"/>
<text text-anchor="middle" x="100" y="-392.3" font-family="Times,serif" font-size="14.00">Create Purchase Order Item</text>
</g>
<!-- Receive Order Confirmation_var3_step1 -->
<g id="node27" class="node">
<title>Receive Order Confirmation_var3_step1</title>
<polygon fill="lightgrey" stroke="black" points="409,-414 236,-414 236,-378 409,-378 409,-414"/>
<text text-anchor="middle" x="322.5" y="-392.3" font-family="Times,serif" font-size="14.00">Receive Order Confirmation</text>
</g>
<!-- Create Purchase Order Item_var3_step0&#45;&gt;Receive Order Confirmation_var3_step1 -->
<g id="edge19" class="edge">
<title>Create Purchase Order Item_var3_step0&#45;&gt;Receive Order Confirmation_var3_step1</title>
<path fill="none" stroke="black" d="M184.99,-396C197.79,-396 211.1,-396 224.15,-396"/>
<polygon fill="black" stroke="black" points="224.03,-399.5 234.03,-396 224.03,-392.5 224.03,-399.5"/>
</g>
<!-- Vendor creates invoice_var3_step2 -->
<g id="node28" class="node">
<title>Vendor creates invoice_var3_step2</title>
<polygon fill="lightgrey" stroke="black" points="587.5,-414 447.5,-414 447.5,-378 587.5,-378 587.5,-414"/>
<text text-anchor="middle" x="517.5" y="-392.3" font-family="Times,serif" font-size="14.00">Vendor creates invoice</text>
</g>
<!-- Receive Order Confirmation_var3_step1&#45;&gt;Vendor creates invoice_var3_step2 -->
<g id="edge20" class="edge">
<title>Receive Order Confirmation_var3_step1&#45;&gt;Vendor creates invoice_var3_step2</title>
<path fill="none" stroke="black" d="M409.28,-396C418.1,-396 427.04,-396 435.8,-396"/>
<polygon fill="black" stroke="black" points="435.68,-399.5 445.68,-396 435.68,-392.5 435.68,-399.5"/>
</g>
<!-- Record Invoice Receipt_var3_step3 -->
<g id="node29" class="node">
<title>Record Invoice Receipt_var3_step3</title>
<polygon fill="lightgrey" stroke="black" points="771,-414 626,-414 626,-378 771,-378 771,-414"/>
<text text-anchor="middle" x="698.5" y="-392.3" font-family="Times,serif" font-size="14.00">Record Invoice Receipt</text>
</g>
<!-- Vendor creates invoice_var3_step2&#45;&gt;Record Invoice Receipt_var3_step3 -->
<g id="edge21" class="edge">
<title>Vendor creates invoice_var3_step2&#45;&gt;Record Invoice Receipt_var3_step3</title>
<path fill="none" stroke="black" d="M587.96,-396C596.57,-396 605.44,-396 614.23,-396"/>
<polygon fill="black" stroke="black" points="614.2,-399.5 624.2,-396 614.2,-392.5 614.2,-399.5"/>
</g>
<!-- Record Goods Receipt_var3_step4 -->
<g id="node30" class="node">
<title>Record Goods Receipt_var3_step4</title>
<polygon fill="lightgrey" stroke="black" points="952,-414 812,-414 812,-378 952,-378 952,-414"/>
<text text-anchor="middle" x="882" y="-392.3" font-family="Times,serif" font-size="14.00">Record Goods Receipt</text>
</g>
<!-- Record Invoice Receipt_var3_step3&#45;&gt;Record Goods Receipt_var3_step4 -->
<g id="edge22" class="edge">
<title>Record Invoice Receipt_var3_step3&#45;&gt;Record Goods Receipt_var3_step4</title>
<path fill="none" stroke="black" d="M771.49,-396C781.03,-396 790.85,-396 800.51,-396"/>
<polygon fill="black" stroke="black" points="800.24,-399.5 810.24,-396 800.24,-392.5 800.24,-399.5"/>
</g>
<!-- Remove Payment Block_var3_step5 -->
<g id="node31" class="node">
<title>Remove Payment Block_var3_step5</title>
<polygon fill="lightgrey" stroke="black" points="1143,-414 993,-414 993,-378 1143,-378 1143,-414"/>
<text text-anchor="middle" x="1068" y="-392.3" font-family="Times,serif" font-size="14.00">Remove Payment Block</text>
</g>
<!-- Record Goods Receipt_var3_step4&#45;&gt;Remove Payment Block_var3_step5 -->
<g id="edge23" class="edge">
<title>Record Goods Receipt_var3_step4&#45;&gt;Remove Payment Block_var3_step5</title>
<path fill="none" stroke="black" d="M952.3,-396C961.75,-396 971.53,-396 981.23,-396"/>
<polygon fill="black" stroke="black" points="981.02,-399.5 991.02,-396 981.02,-392.5 981.02,-399.5"/>
</g>
<!-- Clear Invoice_var3_step6 -->
<g id="node32" class="node">
<title>Clear Invoice_var3_step6</title>
<polygon fill="lightgrey" stroke="black" points="1269,-414 1179,-414 1179,-378 1269,-378 1269,-414"/>
<text text-anchor="middle" x="1224" y="-392.3" font-family="Times,serif" font-size="14.00">Clear Invoice</text>
</g>
<!-- Remove Payment Block_var3_step5&#45;&gt;Clear Invoice_var3_step6 -->
<g id="edge24" class="edge">
<title>Remove Payment Block_var3_step5&#45;&gt;Clear Invoice_var3_step6</title>
<path fill="none" stroke="black" d="M1143.29,-396C1151.46,-396 1159.66,-396 1167.54,-396"/>
<polygon fill="black" stroke="black" points="1167.3,-399.5 1177.3,-396 1167.29,-392.5 1167.3,-399.5"/>
</g>
<!-- start_node_var4 -->
<g id="node33" class="node">
<title>start_node_var4</title>
<text text-anchor="middle" x="100" y="-446.3" font-family="Times,serif" font-size="14.00">273 traces</text>
</g>
<!-- Create Purchase Order Item_var4_step0 -->
<g id="node34" class="node">
<title>Create Purchase Order Item_var4_step0</title>
<polygon fill="lightgrey" stroke="black" points="184.5,-522 15.5,-522 15.5,-486 184.5,-486 184.5,-522"/>
<text text-anchor="middle" x="100" y="-500.3" font-family="Times,serif" font-size="14.00">Create Purchase Order Item</text>
</g>
<!-- Record Goods Receipt_var4_step1 -->
<g id="node35" class="node">
<title>Record Goods Receipt_var4_step1</title>
<polygon fill="lightgrey" stroke="black" points="392.5,-522 252.5,-522 252.5,-486 392.5,-486 392.5,-522"/>
<text text-anchor="middle" x="322.5" y="-500.3" font-family="Times,serif" font-size="14.00">Record Goods Receipt</text>
</g>
<!-- Create Purchase Order Item_var4_step0&#45;&gt;Record Goods Receipt_var4_step1 -->
<g id="edge25" class="edge">
<title>Create Purchase Order Item_var4_step0&#45;&gt;Record Goods Receipt_var4_step1</title>
<path fill="none" stroke="black" d="M184.99,-504C203.25,-504 222.52,-504 240.66,-504"/>
<polygon fill="black" stroke="black" points="240.57,-507.5 250.57,-504 240.57,-500.5 240.57,-507.5"/>
</g>
<!-- Vendor creates invoice_var4_step2 -->
<g id="node36" class="node">
<title>Vendor creates invoice_var4_step2</title>
<polygon fill="lightgrey" stroke="black" points="587.5,-522 447.5,-522 447.5,-486 587.5,-486 587.5,-522"/>
<text text-anchor="middle" x="517.5" y="-500.3" font-family="Times,serif" font-size="14.00">Vendor creates invoice</text>
</g>
<!-- Record Goods Receipt_var4_step1&#45;&gt;Vendor creates invoice_var4_step2 -->
<g id="edge26" class="edge">
<title>Record Goods Receipt_var4_step1&#45;&gt;Vendor creates invoice_var4_step2</title>
<path fill="none" stroke="black" d="M392.9,-504C406.8,-504 421.52,-504 435.76,-504"/>
<polygon fill="black" stroke="black" points="435.55,-507.5 445.55,-504 435.55,-500.5 435.55,-507.5"/>
</g>
<!-- Record Invoice Receipt_var4_step3 -->
<g id="node37" class="node">
<title>Record Invoice Receipt_var4_step3</title>
<polygon fill="lightgrey" stroke="black" points="771,-522 626,-522 626,-486 771,-486 771,-522"/>
<text text-anchor="middle" x="698.5" y="-500.3" font-family="Times,serif" font-size="14.00">Record Invoice Receipt</text>
</g>
<!-- Vendor creates invoice_var4_step2&#45;&gt;Record Invoice Receipt_var4_step3 -->
<g id="edge27" class="edge">
<title>Vendor creates invoice_var4_step2&#45;&gt;Record Invoice Receipt_var4_step3</title>
<path fill="none" stroke="black" d="M587.96,-504C596.57,-504 605.44,-504 614.23,-504"/>
<polygon fill="black" stroke="black" points="614.2,-507.5 624.2,-504 614.2,-500.5 614.2,-507.5"/>
</g>
<!-- Remove Payment Block_var4_step4 -->
<g id="node38" class="node">
<title>Remove Payment Block_var4_step4</title>
<polygon fill="lightgrey" stroke="black" points="957,-522 807,-522 807,-486 957,-486 957,-522"/>
<text text-anchor="middle" x="882" y="-500.3" font-family="Times,serif" font-size="14.00">Remove Payment Block</text>
</g>
<!-- Record Invoice Receipt_var4_step3&#45;&gt;Remove Payment Block_var4_step4 -->
<g id="edge28" class="edge">
<title>Record Invoice Receipt_var4_step3&#45;&gt;Remove Payment Block_var4_step4</title>
<path fill="none" stroke="black" d="M771.49,-504C779.36,-504 787.43,-504 795.45,-504"/>
<polygon fill="black" stroke="black" points="795.2,-507.5 805.2,-504 795.2,-500.5 795.2,-507.5"/>
</g>
<!-- Clear Invoice_var4_step5 -->
<g id="node39" class="node">
<title>Clear Invoice_var4_step5</title>
<polygon fill="lightgrey" stroke="black" points="1113,-522 1023,-522 1023,-486 1113,-486 1113,-522"/>
<text text-anchor="middle" x="1068" y="-500.3" font-family="Times,serif" font-size="14.00">Clear Invoice</text>
</g>
<!-- Remove Payment Block_var4_step4&#45;&gt;Clear Invoice_var4_step5 -->
<g id="edge29" class="edge">
<title>Remove Payment Block_var4_step4&#45;&gt;Clear Invoice_var4_step5</title>
<path fill="none" stroke="black" d="M957.31,-504C975.3,-504 994.23,-504 1011.2,-504"/>
<polygon fill="black" stroke="black" points="1011.09,-507.5 1021.09,-504 1011.09,-500.5 1011.09,-507.5"/>
</g>
<!-- start_node_var5 -->
<g id="node40" class="node">
<title>start_node_var5</title>
<text text-anchor="middle" x="100" y="-554.3" font-family="Times,serif" font-size="14.00">885 traces</text>
</g>
<!-- Create Purchase Order Item_var5_step0 -->
<g id="node41" class="node">
<title>Create Purchase Order Item_var5_step0</title>
<polygon fill="lightgrey" stroke="black" points="184.5,-630 15.5,-630 15.5,-594 184.5,-594 184.5,-630"/>
<text text-anchor="middle" x="100" y="-608.3" font-family="Times,serif" font-size="14.00">Create Purchase Order Item</text>
</g>
<!-- Vendor creates invoice_var5_step1 -->
<g id="node42" class="node">
<title>Vendor creates invoice_var5_step1</title>
<polygon fill="lightgrey" stroke="black" points="392.5,-630 252.5,-630 252.5,-594 392.5,-594 392.5,-630"/>
<text text-anchor="middle" x="322.5" y="-608.3" font-family="Times,serif" font-size="14.00">Vendor creates invoice</text>
</g>
<!-- Create Purchase Order Item_var5_step0&#45;&gt;Vendor creates invoice_var5_step1 -->
<g id="edge30" class="edge">
<title>Create Purchase Order Item_var5_step0&#45;&gt;Vendor creates invoice_var5_step1</title>
<path fill="none" stroke="black" d="M184.99,-612C203.25,-612 222.52,-612 240.66,-612"/>
<polygon fill="black" stroke="black" points="240.57,-615.5 250.57,-612 240.57,-608.5 240.57,-615.5"/>
</g>
<!-- Record Goods Receipt_var5_step2 -->
<g id="node43" class="node">
<title>Record Goods Receipt_var5_step2</title>
<polygon fill="lightgrey" stroke="black" points="587.5,-630 447.5,-630 447.5,-594 587.5,-594 587.5,-630"/>
<text text-anchor="middle" x="517.5" y="-608.3" font-family="Times,serif" font-size="14.00">Record Goods Receipt</text>
</g>
<!-- Vendor creates invoice_var5_step1&#45;&gt;Record Goods Receipt_var5_step2 -->
<g id="edge31" class="edge">
<title>Vendor creates invoice_var5_step1&#45;&gt;Record Goods Receipt_var5_step2</title>
<path fill="none" stroke="black" d="M392.9,-612C406.8,-612 421.52,-612 435.76,-612"/>
<polygon fill="black" stroke="black" points="435.55,-615.5 445.55,-612 435.55,-608.5 435.55,-615.5"/>
</g>
<!-- Record Invoice Receipt_var5_step3 -->
<g id="node44" class="node">
<title>Record Invoice Receipt_var5_step3</title>
<polygon fill="lightgrey" stroke="black" points="771,-630 626,-630 626,-594 771,-594 771,-630"/>
<text text-anchor="middle" x="698.5" y="-608.3" font-family="Times,serif" font-size="14.00">Record Invoice Receipt</text>
</g>
<!-- Record Goods Receipt_var5_step2&#45;&gt;Record Invoice Receipt_var5_step3 -->
<g id="edge32" class="edge">
<title>Record Goods Receipt_var5_step2&#45;&gt;Record Invoice Receipt_var5_step3</title>
<path fill="none" stroke="black" d="M587.96,-612C596.57,-612 605.44,-612 614.23,-612"/>
<polygon fill="black" stroke="black" points="614.2,-615.5 624.2,-612 614.2,-608.5 614.2,-615.5"/>
</g>
<!-- Remove Payment Block_var5_step4 -->
<g id="node45" class="node">
<title>Remove Payment Block_var5_step4</title>
<polygon fill="lightgrey" stroke="black" points="957,-630 807,-630 807,-594 957,-594 957,-630"/>
<text text-anchor="middle" x="882" y="-608.3" font-family="Times,serif" font-size="14.00">Remove Payment Block</text>
</g>
<!-- Record Invoice Receipt_var5_step3&#45;&gt;Remove Payment Block_var5_step4 -->
<g id="edge33" class="edge">
<title>Record Invoice Receipt_var5_step3&#45;&gt;Remove Payment Block_var5_step4</title>
<path fill="none" stroke="black" d="M771.49,-612C779.36,-612 787.43,-612 795.45,-612"/>
<polygon fill="black" stroke="black" points="795.2,-615.5 805.2,-612 795.2,-608.5 795.2,-615.5"/>
</g>
<!-- Clear Invoice_var5_step5 -->
<g id="node46" class="node">
<title>Clear Invoice_var5_step5</title>
<polygon fill="lightgrey" stroke="black" points="1113,-630 1023,-630 1023,-594 1113,-594 1113,-630"/>
<text text-anchor="middle" x="1068" y="-608.3" font-family="Times,serif" font-size="14.00">Clear Invoice</text>
</g>
<!-- Remove Payment Block_var5_step4&#45;&gt;Clear Invoice_var5_step5 -->
<g id="edge34" class="edge">
<title>Remove Payment Block_var5_step4&#45;&gt;Clear Invoice_var5_step5</title>
<path fill="none" stroke="black" d="M957.31,-612C975.3,-612 994.23,-612 1011.2,-612"/>
<polygon fill="black" stroke="black" points="1011.09,-615.5 1021.09,-612 1011.09,-608.5 1011.09,-615.5"/>
</g>
<!-- start_node_var6 -->
<g id="node47" class="node">
<title>start_node_var6</title>
<text text-anchor="middle" x="100" y="-662.3" font-family="Times,serif" font-size="14.00">992 traces</text>
</g>
<!-- Create Purchase Order Item_var6_step0 -->
<g id="node48" class="node">
<title>Create Purchase Order Item_var6_step0</title>
<polygon fill="lightgrey" stroke="black" points="184.5,-738 15.5,-738 15.5,-702 184.5,-702 184.5,-738"/>
<text text-anchor="middle" x="100" y="-716.3" font-family="Times,serif" font-size="14.00">Create Purchase Order Item</text>
</g>
<!-- Vendor creates invoice_var6_step1 -->
<g id="node49" class="node">
<title>Vendor creates invoice_var6_step1</title>
<polygon fill="lightgrey" stroke="black" points="392.5,-738 252.5,-738 252.5,-702 392.5,-702 392.5,-738"/>
<text text-anchor="middle" x="322.5" y="-716.3" font-family="Times,serif" font-size="14.00">Vendor creates invoice</text>
</g>
<!-- Create Purchase Order Item_var6_step0&#45;&gt;Vendor creates invoice_var6_step1 -->
<g id="edge35" class="edge">
<title>Create Purchase Order Item_var6_step0&#45;&gt;Vendor creates invoice_var6_step1</title>
<path fill="none" stroke="black" d="M184.99,-720C203.25,-720 222.52,-720 240.66,-720"/>
<polygon fill="black" stroke="black" points="240.57,-723.5 250.57,-720 240.57,-716.5 240.57,-723.5"/>
</g>
<!-- Record Invoice Receipt_var6_step2 -->
<g id="node50" class="node">
<title>Record Invoice Receipt_var6_step2</title>
<polygon fill="lightgrey" stroke="black" points="590,-738 445,-738 445,-702 590,-702 590,-738"/>
<text text-anchor="middle" x="517.5" y="-716.3" font-family="Times,serif" font-size="14.00">Record Invoice Receipt</text>
</g>
<!-- Vendor creates invoice_var6_step1&#45;&gt;Record Invoice Receipt_var6_step2 -->
<g id="edge36" class="edge">
<title>Vendor creates invoice_var6_step1&#45;&gt;Record Invoice Receipt_var6_step2</title>
<path fill="none" stroke="black" d="M392.9,-720C406.08,-720 419.98,-720 433.52,-720"/>
<polygon fill="black" stroke="black" points="433.27,-723.5 443.27,-720 433.27,-716.5 433.27,-723.5"/>
</g>
<!-- Record Goods Receipt_var6_step3 -->
<g id="node51" class="node">
<title>Record Goods Receipt_var6_step3</title>
<polygon fill="lightgrey" stroke="black" points="768.5,-738 628.5,-738 628.5,-702 768.5,-702 768.5,-738"/>
<text text-anchor="middle" x="698.5" y="-716.3" font-family="Times,serif" font-size="14.00">Record Goods Receipt</text>
</g>
<!-- Record Invoice Receipt_var6_step2&#45;&gt;Record Goods Receipt_var6_step3 -->
<g id="edge37" class="edge">
<title>Record Invoice Receipt_var6_step2&#45;&gt;Record Goods Receipt_var6_step3</title>
<path fill="none" stroke="black" d="M590.27,-720C598.93,-720 607.82,-720 616.59,-720"/>
<polygon fill="black" stroke="black" points="616.52,-723.5 626.52,-720 616.52,-716.5 616.52,-723.5"/>
</g>
<!-- Remove Payment Block_var6_step4 -->
<g id="node52" class="node">
<title>Remove Payment Block_var6_step4</title>
<polygon fill="lightgrey" stroke="black" points="957,-738 807,-738 807,-702 957,-702 957,-738"/>
<text text-anchor="middle" x="882" y="-716.3" font-family="Times,serif" font-size="14.00">Remove Payment Block</text>
</g>
<!-- Record Goods Receipt_var6_step3&#45;&gt;Remove Payment Block_var6_step4 -->
<g id="edge38" class="edge">
<title>Record Goods Receipt_var6_step3&#45;&gt;Remove Payment Block_var6_step4</title>
<path fill="none" stroke="black" d="M768.89,-720C777.45,-720 786.28,-720 795.05,-720"/>
<polygon fill="black" stroke="black" points="795,-723.5 805,-720 795,-716.5 795,-723.5"/>
</g>
<!-- Clear Invoice_var6_step5 -->
<g id="node53" class="node">
<title>Clear Invoice_var6_step5</title>
<polygon fill="lightgrey" stroke="black" points="1113,-738 1023,-738 1023,-702 1113,-702 1113,-738"/>
<text text-anchor="middle" x="1068" y="-716.3" font-family="Times,serif" font-size="14.00">Clear Invoice</text>
</g>
<!-- Remove Payment Block_var6_step4&#45;&gt;Clear Invoice_var6_step5 -->
<g id="edge39" class="edge">
<title>Remove Payment Block_var6_step4&#45;&gt;Clear Invoice_var6_step5</title>
<path fill="none" stroke="black" d="M957.31,-720C975.3,-720 994.23,-720 1011.2,-720"/>
<polygon fill="black" stroke="black" points="1011.09,-723.5 1021.09,-720 1011.09,-716.5 1011.09,-723.5"/>
</g>
</g>
</svg>
