<?xml version="1.0" encoding="UTF-8" standalone="no"?>
<!DOCTYPE svg PUBLIC "-//W3C//DTD SVG 1.1//EN"
 "http://www.w3.org/Graphics/SVG/1.1/DTD/svg11.dtd">
<!-- Generated by graphviz version 7.1.0 (0)
 -->
<!-- Pages: 1 -->
<svg width="1588pt" height="206pt"
 viewBox="0.00 0.00 1588.00 206.00" xmlns="http://www.w3.org/2000/svg" xmlns:xlink="http://www.w3.org/1999/xlink">
<g id="graph0" class="graph" transform="scale(1 1) rotate(0) translate(4 202)">
<polygon fill="white" stroke="none" points="-4,4 -4,-202 1584,-202 1584,4 -4,4"/>
<!-- start_node_var0 -->
<g id="node1" class="node">
<title>start_node_var0</title>
<text text-anchor="middle" x="84.5" y="-14.3" font-family="Times,serif" font-size="14.00">45 traces</text>
</g>
<!-- Create Purchase Order Item_var0_step0 -->
<g id="node2" class="node">
<title>Create Purchase Order Item_var0_step0</title>
<polygon fill="lightgrey" stroke="black" points="169,-90 0,-90 0,-54 169,-54 169,-90"/>
<text text-anchor="middle" x="84.5" y="-68.3" font-family="Times,serif" font-size="14.00">Create Purchase Order Item</text>
</g>
<!-- Receive Order Confirmation_var0_step1 -->
<g id="node3" class="node">
<title>Receive Order Confirmation_var0_step1</title>
<polygon fill="lightgrey" stroke="black" points="378,-90 205,-90 205,-54 378,-54 378,-90"/>
<text text-anchor="middle" x="291.5" y="-68.3" font-family="Times,serif" font-size="14.00">Receive Order Confirmation</text>
</g>
<!-- Create Purchase Order Item_var0_step0&#45;&gt;Receive Order Confirmation_var0_step1 -->
<g id="edge1" class="edge">
<title>Create Purchase Order Item_var0_step0&#45;&gt;Receive Order Confirmation_var0_step1</title>
<path fill="none" stroke="black" d="M169.47,-72C177.36,-72 185.41,-72 193.41,-72"/>
<polygon fill="black" stroke="black" points="193.15,-75.5 203.15,-72 193.15,-68.5 193.15,-75.5"/>
</g>
<!-- Record Goods Receipt_var0_step2 -->
<g id="node4" class="node">
<title>Record Goods Receipt_var0_step2</title>
<polygon fill="lightgrey" stroke="black" points="554,-90 414,-90 414,-54 554,-54 554,-90"/>
<text text-anchor="middle" x="484" y="-68.3" font-family="Times,serif" font-size="14.00">Record Goods Receipt</text>
</g>
<!-- Receive Order Confirmation_var0_step1&#45;&gt;Record Goods Receipt_var0_step2 -->
<g id="edge2" class="edge">
<title>Receive Order Confirmation_var0_step1&#45;&gt;Record Goods Receipt_var0_step2</title>
<path fill="none" stroke="black" d="M378.28,-72C386.24,-72 394.29,-72 402.21,-72"/>
<polygon fill="black" stroke="black" points="402.16,-75.5 412.16,-72 402.16,-68.5 402.16,-75.5"/>
</g>
<!-- Record Goods Receipt_var0_step3 -->
<g id="node5" class="node">
<title>Record Goods Receipt_var0_step3</title>
<polygon fill="lightgrey" stroke="black" points="730,-90 590,-90 590,-54 730,-54 730,-90"/>
<text text-anchor="middle" x="660" y="-68.3" font-family="Times,serif" font-size="14.00">Record Goods Receipt</text>
</g>
<!-- Record Goods Receipt_var0_step2&#45;&gt;Record Goods Receipt_var0_step3 -->
<g id="edge3" class="edge">
<title>Record Goods Receipt_var0_step2&#45;&gt;Record Goods Receipt_var0_step3</title>
<path fill="none" stroke="black" d="M554.27,-72C562.19,-72 570.32,-72 578.38,-72"/>
<polygon fill="black" stroke="black" points="578.17,-75.5 588.17,-72 578.17,-68.5 578.17,-75.5"/>
</g>
<!-- Vendor creates invoice_var0_step4 -->
<g id="node6" class="node">
<title>Vendor creates invoice_var0_step4</title>
<polygon fill="lightgrey" stroke="black" points="906,-90 766,-90 766,-54 906,-54 906,-90"/>
<text text-anchor="middle" x="836" y="-68.3" font-family="Times,serif" font-size="14.00">Vendor creates invoice</text>
</g>
<!-- Record Goods Receipt_var0_step3&#45;&gt;Vendor creates invoice_var0_step4 -->
<g id="edge4" class="edge">
<title>Record Goods Receipt_var0_step3&#45;&gt;Vendor creates invoice_var0_step4</title>
<path fill="none" stroke="black" d="M730.27,-72C738.19,-72 746.32,-72 754.38,-72"/>
<polygon fill="black" stroke="black" points="754.17,-75.5 764.17,-72 754.17,-68.5 754.17,-75.5"/>
</g>
<!-- Record Invoice Receipt_var0_step5 -->
<g id="node7" class="node">
<title>Record Invoice Receipt_var0_step5</title>
<polygon fill="lightgrey" stroke="black" points="1087,-90 942,-90 942,-54 1087,-54 1087,-90"/>
<text text-anchor="middle" x="1014.5" y="-68.3" font-family="Times,serif" font-size="14.00">Record Invoice Receipt</text>
</g>
<!-- Vendor creates invoice_var0_step4&#45;&gt;Record Invoice Receipt_var0_step5 -->
<g id="edge5" class="edge">
<title>Vendor creates invoice_var0_step4&#45;&gt;Record Invoice Receipt_var0_step5</title>
<path fill="none" stroke="black" d="M906.25,-72C914.13,-72 922.22,-72 930.25,-72"/>
<polygon fill="black" stroke="black" points="930.03,-75.5 940.03,-72 930.03,-68.5 930.03,-75.5"/>
</g>
<!-- Record Invoice Receipt_var0_step6 -->
<g id="node8" class="node">
<title>Record Invoice Receipt_var0_step6</title>
<polygon fill="lightgrey" stroke="black" points="1268,-90 1123,-90 1123,-54 1268,-54 1268,-90"/>
<text text-anchor="middle" x="1195.5" y="-68.3" font-family="Times,serif" font-size="14.00">Record Invoice Receipt</text>
</g>
<!-- Record Invoice Receipt_var0_step5&#45;&gt;Record Invoice Receipt_var0_step6 -->
<g id="edge6" class="edge">
<title>Record Invoice Receipt_var0_step5&#45;&gt;Record Invoice Receipt_var0_step6</title>
<path fill="none" stroke="black" d="M1087.27,-72C1095.21,-72 1103.33,-72 1111.39,-72"/>
<polygon fill="black" stroke="black" points="1111.2,-75.5 1121.2,-72 1111.2,-68.5 1111.2,-75.5"/>
</g>
<!-- Remove Payment Block_var0_step7 -->
<g id="node9" class="node">
<title>Remove Payment Block_var0_step7</title>
<polygon fill="lightgrey" stroke="black" points="1454,-90 1304,-90 1304,-54 1454,-54 1454,-90"/>
<text text-anchor="middle" x="1379" y="-68.3" font-family="Times,serif" font-size="14.00">Remove Payment Block</text>
</g>
<!-- Record Invoice Receipt_var0_step6&#45;&gt;Remove Payment Block_var0_step7 -->
<g id="edge7" class="edge">
<title>Record Invoice Receipt_var0_step6&#45;&gt;Remove Payment Block_var0_step7</title>
<path fill="none" stroke="black" d="M1268.49,-72C1276.36,-72 1284.43,-72 1292.45,-72"/>
<polygon fill="black" stroke="black" points="1292.2,-75.5 1302.2,-72 1292.2,-68.5 1292.2,-75.5"/>
</g>
<!-- Clear Invoice_var0_step8 -->
<g id="node10" class="node">
<title>Clear Invoice_var0_step8</title>
<polygon fill="lightgrey" stroke="black" points="1580,-90 1490,-90 1490,-54 1580,-54 1580,-90"/>
<text text-anchor="middle" x="1535" y="-68.3" font-family="Times,serif" font-size="14.00">Clear Invoice</text>
</g>
<!-- Remove Payment Block_var0_step7&#45;&gt;Clear Invoice_var0_step8 -->
<g id="edge8" class="edge">
<title>Remove Payment Block_var0_step7&#45;&gt;Clear Invoice_var0_step8</title>
<path fill="none" stroke="black" d="M1454.29,-72C1462.46,-72 1470.66,-72 1478.54,-72"/>
<polygon fill="black" stroke="black" points="1478.3,-75.5 1488.3,-72 1478.29,-68.5 1478.3,-75.5"/>
</g>
<!-- start_node_var1 -->
<g id="node11" class="node">
<title>start_node_var1</title>
<text text-anchor="middle" x="84.5" y="-122.3" font-family="Times,serif" font-size="14.00">89 traces</text>
</g>
<!-- Create Purchase Order Item_var1_step0 -->
<g id="node12" class="node">
<title>Create Purchase Order Item_var1_step0</title>
<polygon fill="lightgrey" stroke="black" points="169,-198 0,-198 0,-162 169,-162 169,-198"/>
<text text-anchor="middle" x="84.5" y="-176.3" font-family="Times,serif" font-size="14.00">Create Purchase Order Item</text>
</g>
<!-- Receive Order Confirmation_var1_step1 -->
<g id="node13" class="node">
<title>Receive Order Confirmation_var1_step1</title>
<polygon fill="lightgrey" stroke="black" points="378,-198 205,-198 205,-162 378,-162 378,-198"/>
<text text-anchor="middle" x="291.5" y="-176.3" font-family="Times,serif" font-size="14.00">Receive Order Confirmation</text>
</g>
<!-- Create Purchase Order Item_var1_step0&#45;&gt;Receive Order Confirmation_var1_step1 -->
<g id="edge9" class="edge">
<title>Create Purchase Order Item_var1_step0&#45;&gt;Receive Order Confirmation_var1_step1</title>
<path fill="none" stroke="black" d="M169.47,-180C177.36,-180 185.41,-180 193.41,-180"/>
<polygon fill="black" stroke="black" points="193.15,-183.5 203.15,-180 193.15,-176.5 193.15,-183.5"/>
</g>
<!-- Record Goods Receipt_var1_step2 -->
<g id="node14" class="node">
<title>Record Goods Receipt_var1_step2</title>
<polygon fill="lightgrey" stroke="black" points="554,-198 414,-198 414,-162 554,-162 554,-198"/>
<text text-anchor="middle" x="484" y="-176.3" font-family="Times,serif" font-size="14.00">Record Goods Receipt</text>
</g>
<!-- Receive Order Confirmation_var1_step1&#45;&gt;Record Goods Receipt_var1_step2 -->
<g id="edge10" class="edge">
<title>Receive Order Confirmation_var1_step1&#45;&gt;Record Goods Receipt_var1_step2</title>
<path fill="none" stroke="black" d="M378.28,-180C386.24,-180 394.29,-180 402.21,-180"/>
<polygon fill="black" stroke="black" points="402.16,-183.5 412.16,-180 402.16,-176.5 402.16,-183.5"/>
</g>
<!-- Record Goods Receipt_var1_step3 -->
<g id="node15" class="node">
<title>Record Goods Receipt_var1_step3</title>
<polygon fill="lightgrey" stroke="black" points="730,-198 590,-198 590,-162 730,-162 730,-198"/>
<text text-anchor="middle" x="660" y="-176.3" font-family="Times,serif" font-size="14.00">Record Goods Receipt</text>
</g>
<!-- Record Goods Receipt_var1_step2&#45;&gt;Record Goods Receipt_var1_step3 -->
<g id="edge11" class="edge">
<title>Record Goods Receipt_var1_step2&#45;&gt;Record Goods Receipt_var1_step3</title>
<path fill="none" stroke="black" d="M554.27,-180C562.19,-180 570.32,-180 578.38,-180"/>
<polygon fill="black" stroke="black" points="578.17,-183.5 588.17,-180 578.17,-176.5 578.17,-183.5"/>
</g>
<!-- Vendor creates invoice_var1_step4 -->
<g id="node16" class="node">
<title>Vendor creates invoice_var1_step4</title>
<polygon fill="lightgrey" stroke="black" points="906,-198 766,-198 766,-162 906,-162 906,-198"/>
<text text-anchor="middle" x="836" y="-176.3" font-family="Times,serif" font-size="14.00">Vendor creates invoice</text>
</g>
<!-- Record Goods Receipt_var1_step3&#45;&gt;Vendor creates invoice_var1_step4 -->
<g id="edge12" class="edge">
<title>Record Goods Receipt_var1_step3&#45;&gt;Vendor creates invoice_var1_step4</title>
<path fill="none" stroke="black" d="M730.27,-180C738.19,-180 746.32,-180 754.38,-180"/>
<polygon fill="black" stroke="black" points="754.17,-183.5 764.17,-180 754.17,-176.5 754.17,-183.5"/>
</g>
<!-- Record Invoice Receipt_var1_step5 -->
<g id="node17" class="node">
<title>Record Invoice Receipt_var1_step5</title>
<polygon fill="lightgrey" stroke="black" points="1087,-198 942,-198 942,-162 1087,-162 1087,-198"/>
<text text-anchor="middle" x="1014.5" y="-176.3" font-family="Times,serif" font-size="14.00">Record Invoice Receipt</text>
</g>
<!-- Vendor creates invoice_var1_step4&#45;&gt;Record Invoice Receipt_var1_step5 -->
<g id="edge13" class="edge">
<title>Vendor creates invoice_var1_step4&#45;&gt;Record Invoice Receipt_var1_step5</title>
<path fill="none" stroke="black" d="M906.25,-180C914.13,-180 922.22,-180 930.25,-180"/>
<polygon fill="black" stroke="black" points="930.03,-183.5 940.03,-180 930.03,-176.5 930.03,-183.5"/>
</g>
<!-- Record Invoice Receipt_var1_step6 -->
<g id="node18" class="node">
<title>Record Invoice Receipt_var1_step6</title>
<polygon fill="lightgrey" stroke="black" points="1268,-198 1123,-198 1123,-162 1268,-162 1268,-198"/>
<text text-anchor="middle" x="1195.5" y="-176.3" font-family="Times,serif" font-size="14.00">Record Invoice Receipt</text>
</g>
<!-- Record Invoice Receipt_var1_step5&#45;&gt;Record Invoice Receipt_var1_step6 -->
<g id="edge14" class="edge">
<title>Record Invoice Receipt_var1_step5&#45;&gt;Record Invoice Receipt_var1_step6</title>
<path fill="none" stroke="black" d="M1087.27,-180C1095.21,-180 1103.33,-180 1111.39,-180"/>
<polygon fill="black" stroke="black" points="1111.2,-183.5 1121.2,-180 1111.2,-176.5 1111.2,-183.5"/>
</g>
<!-- Clear Invoice_var1_step7 -->
<g id="node19" class="node">
<title>Clear Invoice_var1_step7</title>
<polygon fill="lightgrey" stroke="black" points="1424,-198 1334,-198 1334,-162 1424,-162 1424,-198"/>
<text text-anchor="middle" x="1379" y="-176.3" font-family="Times,serif" font-size="14.00">Clear Invoice</text>
</g>
<!-- Record Invoice Receipt_var1_step6&#45;&gt;Clear Invoice_var1_step7 -->
<g id="edge15" class="edge">
<title>Record Invoice Receipt_var1_step6&#45;&gt;Clear Invoice_var1_step7</title>
<path fill="none" stroke="black" d="M1268.49,-180C1286.35,-180 1305.21,-180 1322.16,-180"/>
<polygon fill="black" stroke="black" points="1322.04,-183.5 1332.04,-180 1322.04,-176.5 1322.04,-183.5"/>
</g>
</g>
</svg>
