<?xml version="1.0" encoding="UTF-8" standalone="no"?>
<!DOCTYPE svg PUBLIC "-//W3C//DTD SVG 1.1//EN"
 "http://www.w3.org/Graphics/SVG/1.1/DTD/svg11.dtd">
<!-- Generated by graphviz version 7.1.0 (0)
 -->
<!-- Pages: 1 -->
<svg width="1738pt" height="206pt"
 viewBox="0.00 0.00 1738.00 206.00" xmlns="http://www.w3.org/2000/svg" xmlns:xlink="http://www.w3.org/1999/xlink">
<g id="graph0" class="graph" transform="scale(1 1) rotate(0) translate(4 202)">
<polygon fill="white" stroke="none" points="-4,4 -4,-202 1734,-202 1734,4 -4,4"/>
<!-- start_node_var0 -->
<g id="node1" class="node">
<title>start_node_var0</title>
<text text-anchor="middle" x="84.5" y="-14.3" font-family="Times,serif" font-size="14.00">63 traces</text>
</g>
<!-- Create Purchase Order Item_var0_step0 -->
<g id="node2" class="node">
<title>Create Purchase Order Item_var0_step0</title>
<polygon fill="lightgrey" stroke="black" points="169,-90 0,-90 0,-54 169,-54 169,-90"/>
<text text-anchor="middle" x="84.5" y="-68.3" font-family="Times,serif" font-size="14.00">Create Purchase Order Item</text>
</g>
<!-- Vendor creates debit memo_var0_step1 -->
<g id="node3" class="node">
<title>Vendor creates debit memo_var0_step1</title>
<polygon fill="lightgrey" stroke="black" points="372,-90 205,-90 205,-54 372,-54 372,-90"/>
<text text-anchor="middle" x="288.5" y="-68.3" font-family="Times,serif" font-size="14.00">Vendor creates debit memo</text>
</g>
<!-- Create Purchase Order Item_var0_step0&#45;&gt;Vendor creates debit memo_var0_step1 -->
<g id="edge1" class="edge">
<title>Create Purchase Order Item_var0_step0&#45;&gt;Vendor creates debit memo_var0_step1</title>
<path fill="none" stroke="black" d="M169.41,-72C177.37,-72 185.47,-72 193.51,-72"/>
<polygon fill="black" stroke="black" points="193.31,-75.5 203.31,-72 193.31,-68.5 193.31,-75.5"/>
</g>
<!-- Vendor creates invoice_var0_step2 -->
<g id="node4" class="node">
<title>Vendor creates invoice_var0_step2</title>
<polygon fill="lightgrey" stroke="black" points="561.5,-90 421.5,-90 421.5,-54 561.5,-54 561.5,-90"/>
<text text-anchor="middle" x="491.5" y="-68.3" font-family="Times,serif" font-size="14.00">Vendor creates invoice</text>
</g>
<!-- Vendor creates debit memo_var0_step1&#45;&gt;Vendor creates invoice_var0_step2 -->
<g id="edge2" class="edge">
<title>Vendor creates debit memo_var0_step1&#45;&gt;Vendor creates invoice_var0_step2</title>
<path fill="none" stroke="black" d="M372.41,-72C384.83,-72 397.62,-72 409.99,-72"/>
<polygon fill="black" stroke="black" points="409.69,-75.5 419.69,-72 409.69,-68.5 409.69,-75.5"/>
</g>
<!-- Record Goods Receipt_var0_step3 -->
<g id="node5" class="node">
<title>Record Goods Receipt_var0_step3</title>
<polygon fill="lightgrey" stroke="black" points="751,-90 611,-90 611,-54 751,-54 751,-90"/>
<text text-anchor="middle" x="681" y="-68.3" font-family="Times,serif" font-size="14.00">Record Goods Receipt</text>
</g>
<!-- Vendor creates invoice_var0_step2&#45;&gt;Record Goods Receipt_var0_step3 -->
<g id="edge3" class="edge">
<title>Vendor creates invoice_var0_step2&#45;&gt;Record Goods Receipt_var0_step3</title>
<path fill="none" stroke="black" d="M561.79,-72C574.01,-72 586.82,-72 599.32,-72"/>
<polygon fill="black" stroke="black" points="599.17,-75.5 609.17,-72 599.17,-68.5 599.17,-75.5"/>
</g>
<!-- Record Invoice Receipt_var0_step4 -->
<g id="node6" class="node">
<title>Record Invoice Receipt_var0_step4</title>
<polygon fill="lightgrey" stroke="black" points="932,-90 787,-90 787,-54 932,-54 932,-90"/>
<text text-anchor="middle" x="859.5" y="-68.3" font-family="Times,serif" font-size="14.00">Record Invoice Receipt</text>
</g>
<!-- Record Goods Receipt_var0_step3&#45;&gt;Record Invoice Receipt_var0_step4 -->
<g id="edge4" class="edge">
<title>Record Goods Receipt_var0_step3&#45;&gt;Record Invoice Receipt_var0_step4</title>
<path fill="none" stroke="black" d="M751.25,-72C759.13,-72 767.22,-72 775.25,-72"/>
<polygon fill="black" stroke="black" points="775.03,-75.5 785.03,-72 775.03,-68.5 775.03,-75.5"/>
</g>
<!-- Cancel Invoice Receipt_var0_step5 -->
<g id="node7" class="node">
<title>Cancel Invoice Receipt_var0_step5</title>
<polygon fill="lightgrey" stroke="black" points="1111,-90 968,-90 968,-54 1111,-54 1111,-90"/>
<text text-anchor="middle" x="1039.5" y="-68.3" font-family="Times,serif" font-size="14.00">Cancel Invoice Receipt</text>
</g>
<!-- Record Invoice Receipt_var0_step4&#45;&gt;Cancel Invoice Receipt_var0_step5 -->
<g id="edge5" class="edge">
<title>Record Invoice Receipt_var0_step4&#45;&gt;Cancel Invoice Receipt_var0_step5</title>
<path fill="none" stroke="black" d="M932.39,-72C940.17,-72 948.13,-72 956.02,-72"/>
<polygon fill="black" stroke="black" points="955.99,-75.5 965.99,-72 955.99,-68.5 955.99,-75.5"/>
</g>
<!-- Record Invoice Receipt_var0_step6 -->
<g id="node8" class="node">
<title>Record Invoice Receipt_var0_step6</title>
<polygon fill="lightgrey" stroke="black" points="1292,-90 1147,-90 1147,-54 1292,-54 1292,-90"/>
<text text-anchor="middle" x="1219.5" y="-68.3" font-family="Times,serif" font-size="14.00">Record Invoice Receipt</text>
</g>
<!-- Cancel Invoice Receipt_var0_step5&#45;&gt;Record Invoice Receipt_var0_step6 -->
<g id="edge6" class="edge">
<title>Cancel Invoice Receipt_var0_step5&#45;&gt;Record Invoice Receipt_var0_step6</title>
<path fill="none" stroke="black" d="M1111.36,-72C1119.27,-72 1127.38,-72 1135.42,-72"/>
<polygon fill="black" stroke="black" points="1135.2,-75.5 1145.2,-72 1135.2,-68.5 1135.2,-75.5"/>
</g>
<!-- Remove Payment Block_var0_step7 -->
<g id="node9" class="node">
<title>Remove Payment Block_var0_step7</title>
<polygon fill="lightgrey" stroke="black" points="1478,-90 1328,-90 1328,-54 1478,-54 1478,-90"/>
<text text-anchor="middle" x="1403" y="-68.3" font-family="Times,serif" font-size="14.00">Remove Payment Block</text>
</g>
<!-- Record Invoice Receipt_var0_step6&#45;&gt;Remove Payment Block_var0_step7 -->
<g id="edge7" class="edge">
<title>Record Invoice Receipt_var0_step6&#45;&gt;Remove Payment Block_var0_step7</title>
<path fill="none" stroke="black" d="M1292.49,-72C1300.36,-72 1308.43,-72 1316.45,-72"/>
<polygon fill="black" stroke="black" points="1316.2,-75.5 1326.2,-72 1316.2,-68.5 1316.2,-75.5"/>
</g>
<!-- Clear Invoice_var0_step8 -->
<g id="node10" class="node">
<title>Clear Invoice_var0_step8</title>
<polygon fill="lightgrey" stroke="black" points="1604,-90 1514,-90 1514,-54 1604,-54 1604,-90"/>
<text text-anchor="middle" x="1559" y="-68.3" font-family="Times,serif" font-size="14.00">Clear Invoice</text>
</g>
<!-- Remove Payment Block_var0_step7&#45;&gt;Clear Invoice_var0_step8 -->
<g id="edge8" class="edge">
<title>Remove Payment Block_var0_step7&#45;&gt;Clear Invoice_var0_step8</title>
<path fill="none" stroke="black" d="M1478.29,-72C1486.46,-72 1494.66,-72 1502.54,-72"/>
<polygon fill="black" stroke="black" points="1502.3,-75.5 1512.3,-72 1502.29,-68.5 1502.3,-75.5"/>
</g>
<!-- Clear Invoice_var0_step9 -->
<g id="node11" class="node">
<title>Clear Invoice_var0_step9</title>
<polygon fill="lightgrey" stroke="black" points="1730,-90 1640,-90 1640,-54 1730,-54 1730,-90"/>
<text text-anchor="middle" x="1685" y="-68.3" font-family="Times,serif" font-size="14.00">Clear Invoice</text>
</g>
<!-- Clear Invoice_var0_step8&#45;&gt;Clear Invoice_var0_step9 -->
<g id="edge9" class="edge">
<title>Clear Invoice_var0_step8&#45;&gt;Clear Invoice_var0_step9</title>
<path fill="none" stroke="black" d="M1604.42,-72C1612.26,-72 1620.51,-72 1628.6,-72"/>
<polygon fill="black" stroke="black" points="1628.38,-75.5 1638.38,-72 1628.38,-68.5 1628.38,-75.5"/>
</g>
<!-- start_node_var1 -->
<g id="node12" class="node">
<title>start_node_var1</title>
<text text-anchor="middle" x="84.5" y="-122.3" font-family="Times,serif" font-size="14.00">67 traces</text>
</g>
<!-- Create Purchase Order Item_var1_step0 -->
<g id="node13" class="node">
<title>Create Purchase Order Item_var1_step0</title>
<polygon fill="lightgrey" stroke="black" points="169,-198 0,-198 0,-162 169,-162 169,-198"/>
<text text-anchor="middle" x="84.5" y="-176.3" font-family="Times,serif" font-size="14.00">Create Purchase Order Item</text>
</g>
<!-- Vendor creates invoice_var1_step1 -->
<g id="node14" class="node">
<title>Vendor creates invoice_var1_step1</title>
<polygon fill="lightgrey" stroke="black" points="358.5,-198 218.5,-198 218.5,-162 358.5,-162 358.5,-198"/>
<text text-anchor="middle" x="288.5" y="-176.3" font-family="Times,serif" font-size="14.00">Vendor creates invoice</text>
</g>
<!-- Create Purchase Order Item_var1_step0&#45;&gt;Vendor creates invoice_var1_step1 -->
<g id="edge10" class="edge">
<title>Create Purchase Order Item_var1_step0&#45;&gt;Vendor creates invoice_var1_step1</title>
<path fill="none" stroke="black" d="M169.41,-180C181.86,-180 194.67,-180 207.04,-180"/>
<polygon fill="black" stroke="black" points="206.75,-183.5 216.75,-180 206.75,-176.5 206.75,-183.5"/>
</g>
<!-- Vendor creates debit memo_var1_step2 -->
<g id="node15" class="node">
<title>Vendor creates debit memo_var1_step2</title>
<polygon fill="lightgrey" stroke="black" points="575,-198 408,-198 408,-162 575,-162 575,-198"/>
<text text-anchor="middle" x="491.5" y="-176.3" font-family="Times,serif" font-size="14.00">Vendor creates debit memo</text>
</g>
<!-- Vendor creates invoice_var1_step1&#45;&gt;Vendor creates debit memo_var1_step2 -->
<g id="edge11" class="edge">
<title>Vendor creates invoice_var1_step1&#45;&gt;Vendor creates debit memo_var1_step2</title>
<path fill="none" stroke="black" d="M358.95,-180C370.94,-180 383.59,-180 396.1,-180"/>
<polygon fill="black" stroke="black" points="396.03,-183.5 406.03,-180 396.03,-176.5 396.03,-183.5"/>
</g>
<!-- Record Goods Receipt_var1_step3 -->
<g id="node16" class="node">
<title>Record Goods Receipt_var1_step3</title>
<polygon fill="lightgrey" stroke="black" points="751,-198 611,-198 611,-162 751,-162 751,-198"/>
<text text-anchor="middle" x="681" y="-176.3" font-family="Times,serif" font-size="14.00">Record Goods Receipt</text>
</g>
<!-- Vendor creates debit memo_var1_step2&#45;&gt;Record Goods Receipt_var1_step3 -->
<g id="edge12" class="edge">
<title>Vendor creates debit memo_var1_step2&#45;&gt;Record Goods Receipt_var1_step3</title>
<path fill="none" stroke="black" d="M575.29,-180C583.2,-180 591.21,-180 599.1,-180"/>
<polygon fill="black" stroke="black" points="599.03,-183.5 609.03,-180 599.03,-176.5 599.03,-183.5"/>
</g>
<!-- Record Invoice Receipt_var1_step4 -->
<g id="node17" class="node">
<title>Record Invoice Receipt_var1_step4</title>
<polygon fill="lightgrey" stroke="black" points="932,-198 787,-198 787,-162 932,-162 932,-198"/>
<text text-anchor="middle" x="859.5" y="-176.3" font-family="Times,serif" font-size="14.00">Record Invoice Receipt</text>
</g>
<!-- Record Goods Receipt_var1_step3&#45;&gt;Record Invoice Receipt_var1_step4 -->
<g id="edge13" class="edge">
<title>Record Goods Receipt_var1_step3&#45;&gt;Record Invoice Receipt_var1_step4</title>
<path fill="none" stroke="black" d="M751.25,-180C759.13,-180 767.22,-180 775.25,-180"/>
<polygon fill="black" stroke="black" points="775.03,-183.5 785.03,-180 775.03,-176.5 775.03,-183.5"/>
</g>
<!-- Cancel Invoice Receipt_var1_step5 -->
<g id="node18" class="node">
<title>Cancel Invoice Receipt_var1_step5</title>
<polygon fill="lightgrey" stroke="black" points="1111,-198 968,-198 968,-162 1111,-162 1111,-198"/>
<text text-anchor="middle" x="1039.5" y="-176.3" font-family="Times,serif" font-size="14.00">Cancel Invoice Receipt</text>
</g>
<!-- Record Invoice Receipt_var1_step4&#45;&gt;Cancel Invoice Receipt_var1_step5 -->
<g id="edge14" class="edge">
<title>Record Invoice Receipt_var1_step4&#45;&gt;Cancel Invoice Receipt_var1_step5</title>
<path fill="none" stroke="black" d="M932.39,-180C940.17,-180 948.13,-180 956.02,-180"/>
<polygon fill="black" stroke="black" points="955.99,-183.5 965.99,-180 955.99,-176.5 955.99,-183.5"/>
</g>
<!-- Record Invoice Receipt_var1_step6 -->
<g id="node19" class="node">
<title>Record Invoice Receipt_var1_step6</title>
<polygon fill="lightgrey" stroke="black" points="1292,-198 1147,-198 1147,-162 1292,-162 1292,-198"/>
<text text-anchor="middle" x="1219.5" y="-176.3" font-family="Times,serif" font-size="14.00">Record Invoice Receipt</text>
</g>
<!-- Cancel Invoice Receipt_var1_step5&#45;&gt;Record Invoice Receipt_var1_step6 -->
<g id="edge15" class="edge">
<title>Cancel Invoice Receipt_var1_step5&#45;&gt;Record Invoice Receipt_var1_step6</title>
<path fill="none" stroke="black" d="M1111.36,-180C1119.27,-180 1127.38,-180 1135.42,-180"/>
<polygon fill="black" stroke="black" points="1135.2,-183.5 1145.2,-180 1135.2,-176.5 1135.2,-183.5"/>
</g>
<!-- Remove Payment Block_var1_step7 -->
<g id="node20" class="node">
<title>Remove Payment Block_var1_step7</title>
<polygon fill="lightgrey" stroke="black" points="1478,-198 1328,-198 1328,-162 1478,-162 1478,-198"/>
<text text-anchor="middle" x="1403" y="-176.3" font-family="Times,serif" font-size="14.00">Remove Payment Block</text>
</g>
<!-- Record Invoice Receipt_var1_step6&#45;&gt;Remove Payment Block_var1_step7 -->
<g id="edge16" class="edge">
<title>Record Invoice Receipt_var1_step6&#45;&gt;Remove Payment Block_var1_step7</title>
<path fill="none" stroke="black" d="M1292.49,-180C1300.36,-180 1308.43,-180 1316.45,-180"/>
<polygon fill="black" stroke="black" points="1316.2,-183.5 1326.2,-180 1316.2,-176.5 1316.2,-183.5"/>
</g>
<!-- Clear Invoice_var1_step8 -->
<g id="node21" class="node">
<title>Clear Invoice_var1_step8</title>
<polygon fill="lightgrey" stroke="black" points="1604,-198 1514,-198 1514,-162 1604,-162 1604,-198"/>
<text text-anchor="middle" x="1559" y="-176.3" font-family="Times,serif" font-size="14.00">Clear Invoice</text>
</g>
<!-- Remove Payment Block_var1_step7&#45;&gt;Clear Invoice_var1_step8 -->
<g id="edge17" class="edge">
<title>Remove Payment Block_var1_step7&#45;&gt;Clear Invoice_var1_step8</title>
<path fill="none" stroke="black" d="M1478.29,-180C1486.46,-180 1494.66,-180 1502.54,-180"/>
<polygon fill="black" stroke="black" points="1502.3,-183.5 1512.3,-180 1502.29,-176.5 1502.3,-183.5"/>
</g>
<!-- Clear Invoice_var1_step9 -->
<g id="node22" class="node">
<title>Clear Invoice_var1_step9</title>
<polygon fill="lightgrey" stroke="black" points="1730,-198 1640,-198 1640,-162 1730,-162 1730,-198"/>
<text text-anchor="middle" x="1685" y="-176.3" font-family="Times,serif" font-size="14.00">Clear Invoice</text>
</g>
<!-- Clear Invoice_var1_step8&#45;&gt;Clear Invoice_var1_step9 -->
<g id="edge18" class="edge">
<title>Clear Invoice_var1_step8&#45;&gt;Clear Invoice_var1_step9</title>
<path fill="none" stroke="black" d="M1604.42,-180C1612.26,-180 1620.51,-180 1628.6,-180"/>
<polygon fill="black" stroke="black" points="1628.38,-183.5 1638.38,-180 1628.38,-176.5 1628.38,-183.5"/>
</g>
</g>
</svg>
