<?xml version="1.0" encoding="UTF-8" standalone="no"?>
<!DOCTYPE svg PUBLIC "-//W3C//DTD SVG 1.1//EN"
 "http://www.w3.org/Graphics/SVG/1.1/DTD/svg11.dtd">
<!-- Generated by graphviz version 7.1.0 (0)
 -->
<!-- Pages: 1 -->
<svg width="1051pt" height="746pt"
 viewBox="0.00 0.00 1051.00 746.00" xmlns="http://www.w3.org/2000/svg" xmlns:xlink="http://www.w3.org/1999/xlink">
<g id="graph0" class="graph" transform="scale(1 1) rotate(0) translate(4 742)">
<polygon fill="white" stroke="none" points="-4,4 -4,-742 1047,-742 1047,4 -4,4"/>
<!-- start_node_var0 -->
<g id="node1" class="node">
<title>start_node_var0</title>
<text text-anchor="middle" x="84.5" y="-14.3" font-family="Times,serif" font-size="14.00">24 traces</text>
</g>
<!-- Create Purchase Order Item_var0_step0 -->
<g id="node2" class="node">
<title>Create Purchase Order Item_var0_step0</title>
<polygon fill="lightgrey" stroke="black" points="169,-90 0,-90 0,-54 169,-54 169,-90"/>
<text text-anchor="middle" x="84.5" y="-68.3" font-family="Times,serif" font-size="14.00">Create Purchase Order Item</text>
</g>
<!-- Change Quantity_var0_step1 -->
<g id="node3" class="node">
<title>Change Quantity_var0_step1</title>
<polygon fill="lightgrey" stroke="black" points="344,-90 235,-90 235,-54 344,-54 344,-90"/>
<text text-anchor="middle" x="289.5" y="-68.3" font-family="Times,serif" font-size="14.00">Change Quantity</text>
</g>
<!-- Create Purchase Order Item_var0_step0&#45;&gt;Change Quantity_var0_step1 -->
<g id="edge1" class="edge">
<title>Create Purchase Order Item_var0_step0&#45;&gt;Change Quantity_var0_step1</title>
<path fill="none" stroke="black" d="M169.24,-72C187.34,-72 206.21,-72 223.47,-72"/>
<polygon fill="black" stroke="black" points="223.03,-75.5 233.03,-72 223.03,-68.5 223.03,-75.5"/>
</g>
<!-- Vendor creates invoice_var0_step2 -->
<g id="node4" class="node">
<title>Vendor creates invoice_var0_step2</title>
<polygon fill="lightgrey" stroke="black" points="550,-90 410,-90 410,-54 550,-54 550,-90"/>
<text text-anchor="middle" x="480" y="-68.3" font-family="Times,serif" font-size="14.00">Vendor creates invoice</text>
</g>
<!-- Change Quantity_var0_step1&#45;&gt;Vendor creates invoice_var0_step2 -->
<g id="edge2" class="edge">
<title>Change Quantity_var0_step1&#45;&gt;Vendor creates invoice_var0_step2</title>
<path fill="none" stroke="black" d="M344.26,-72C361.12,-72 380.1,-72 398.38,-72"/>
<polygon fill="black" stroke="black" points="398.14,-75.5 408.14,-72 398.14,-68.5 398.14,-75.5"/>
</g>
<!-- Record Goods Receipt_var0_step3 -->
<g id="node5" class="node">
<title>Record Goods Receipt_var0_step3</title>
<polygon fill="lightgrey" stroke="black" points="728.5,-90 588.5,-90 588.5,-54 728.5,-54 728.5,-90"/>
<text text-anchor="middle" x="658.5" y="-68.3" font-family="Times,serif" font-size="14.00">Record Goods Receipt</text>
</g>
<!-- Vendor creates invoice_var0_step2&#45;&gt;Record Goods Receipt_var0_step3 -->
<g id="edge3" class="edge">
<title>Vendor creates invoice_var0_step2&#45;&gt;Record Goods Receipt_var0_step3</title>
<path fill="none" stroke="black" d="M550.25,-72C558.91,-72 567.83,-72 576.65,-72"/>
<polygon fill="black" stroke="black" points="576.65,-75.5 586.65,-72 576.65,-68.5 576.65,-75.5"/>
</g>
<!-- Record Invoice Receipt_var0_step4 -->
<g id="node6" class="node">
<title>Record Invoice Receipt_var0_step4</title>
<polygon fill="lightgrey" stroke="black" points="914.5,-90 769.5,-90 769.5,-54 914.5,-54 914.5,-90"/>
<text text-anchor="middle" x="842" y="-68.3" font-family="Times,serif" font-size="14.00">Record Invoice Receipt</text>
</g>
<!-- Record Goods Receipt_var0_step3&#45;&gt;Record Invoice Receipt_var0_step4 -->
<g id="edge4" class="edge">
<title>Record Goods Receipt_var0_step3&#45;&gt;Record Invoice Receipt_var0_step4</title>
<path fill="none" stroke="black" d="M728.89,-72C738.39,-72 748.21,-72 757.92,-72"/>
<polygon fill="black" stroke="black" points="757.72,-75.5 767.72,-72 757.72,-68.5 757.72,-75.5"/>
</g>
<!-- Clear Invoice_var0_step5 -->
<g id="node7" class="node">
<title>Clear Invoice_var0_step5</title>
<polygon fill="lightgrey" stroke="black" points="1043,-90 953,-90 953,-54 1043,-54 1043,-90"/>
<text text-anchor="middle" x="998" y="-68.3" font-family="Times,serif" font-size="14.00">Clear Invoice</text>
</g>
<!-- Record Invoice Receipt_var0_step4&#45;&gt;Clear Invoice_var0_step5 -->
<g id="edge5" class="edge">
<title>Record Invoice Receipt_var0_step4&#45;&gt;Clear Invoice_var0_step5</title>
<path fill="none" stroke="black" d="M914.59,-72C923.66,-72 932.82,-72 941.58,-72"/>
<polygon fill="black" stroke="black" points="941.31,-75.5 951.31,-72 941.31,-68.5 941.31,-75.5"/>
</g>
<!-- start_node_var1 -->
<g id="node8" class="node">
<title>start_node_var1</title>
<text text-anchor="middle" x="84.5" y="-122.3" font-family="Times,serif" font-size="14.00">29 traces</text>
</g>
<!-- Create Purchase Order Item_var1_step0 -->
<g id="node9" class="node">
<title>Create Purchase Order Item_var1_step0</title>
<polygon fill="lightgrey" stroke="black" points="169,-198 0,-198 0,-162 169,-162 169,-198"/>
<text text-anchor="middle" x="84.5" y="-176.3" font-family="Times,serif" font-size="14.00">Create Purchase Order Item</text>
</g>
<!-- start_node_var2 -->
<g id="node10" class="node">
<title>start_node_var2</title>
<text text-anchor="middle" x="84.5" y="-230.3" font-family="Times,serif" font-size="14.00">36 traces</text>
</g>
<!-- Create Purchase Order Item_var2_step0 -->
<g id="node11" class="node">
<title>Create Purchase Order Item_var2_step0</title>
<polygon fill="lightgrey" stroke="black" points="169,-306 0,-306 0,-270 169,-270 169,-306"/>
<text text-anchor="middle" x="84.5" y="-284.3" font-family="Times,serif" font-size="14.00">Create Purchase Order Item</text>
</g>
<!-- Vendor creates invoice_var2_step1 -->
<g id="node12" class="node">
<title>Vendor creates invoice_var2_step1</title>
<polygon fill="lightgrey" stroke="black" points="359.5,-306 219.5,-306 219.5,-270 359.5,-270 359.5,-306"/>
<text text-anchor="middle" x="289.5" y="-284.3" font-family="Times,serif" font-size="14.00">Vendor creates invoice</text>
</g>
<!-- Create Purchase Order Item_var2_step0&#45;&gt;Vendor creates invoice_var2_step1 -->
<g id="edge6" class="edge">
<title>Create Purchase Order Item_var2_step0&#45;&gt;Vendor creates invoice_var2_step1</title>
<path fill="none" stroke="black" d="M169.24,-288C181.95,-288 195.04,-288 207.69,-288"/>
<polygon fill="black" stroke="black" points="207.64,-291.5 217.64,-288 207.64,-284.5 207.64,-291.5"/>
</g>
<!-- Record Goods Receipt_var2_step2 -->
<g id="node13" class="node">
<title>Record Goods Receipt_var2_step2</title>
<polygon fill="lightgrey" stroke="black" points="550,-306 410,-306 410,-270 550,-270 550,-306"/>
<text text-anchor="middle" x="480" y="-284.3" font-family="Times,serif" font-size="14.00">Record Goods Receipt</text>
</g>
<!-- Vendor creates invoice_var2_step1&#45;&gt;Record Goods Receipt_var2_step2 -->
<g id="edge7" class="edge">
<title>Vendor creates invoice_var2_step1&#45;&gt;Record Goods Receipt_var2_step2</title>
<path fill="none" stroke="black" d="M359.89,-288C372.47,-288 385.69,-288 398.56,-288"/>
<polygon fill="black" stroke="black" points="398.25,-291.5 408.25,-288 398.25,-284.5 398.25,-291.5"/>
</g>
<!-- Record Invoice Receipt_var2_step3 -->
<g id="node14" class="node">
<title>Record Invoice Receipt_var2_step3</title>
<polygon fill="lightgrey" stroke="black" points="731,-306 586,-306 586,-270 731,-270 731,-306"/>
<text text-anchor="middle" x="658.5" y="-284.3" font-family="Times,serif" font-size="14.00">Record Invoice Receipt</text>
</g>
<!-- Record Goods Receipt_var2_step2&#45;&gt;Record Invoice Receipt_var2_step3 -->
<g id="edge8" class="edge">
<title>Record Goods Receipt_var2_step2&#45;&gt;Record Invoice Receipt_var2_step3</title>
<path fill="none" stroke="black" d="M550.25,-288C558.13,-288 566.22,-288 574.25,-288"/>
<polygon fill="black" stroke="black" points="574.03,-291.5 584.03,-288 574.03,-284.5 574.03,-291.5"/>
</g>
<!-- start_node_var3 -->
<g id="node15" class="node">
<title>start_node_var3</title>
<text text-anchor="middle" x="84.5" y="-338.3" font-family="Times,serif" font-size="14.00">46 traces</text>
</g>
<!-- Create Purchase Order Item_var3_step0 -->
<g id="node16" class="node">
<title>Create Purchase Order Item_var3_step0</title>
<polygon fill="lightgrey" stroke="black" points="169,-414 0,-414 0,-378 169,-378 169,-414"/>
<text text-anchor="middle" x="84.5" y="-392.3" font-family="Times,serif" font-size="14.00">Create Purchase Order Item</text>
</g>
<!-- Vendor creates invoice_var3_step1 -->
<g id="node17" class="node">
<title>Vendor creates invoice_var3_step1</title>
<polygon fill="lightgrey" stroke="black" points="359.5,-414 219.5,-414 219.5,-378 359.5,-378 359.5,-414"/>
<text text-anchor="middle" x="289.5" y="-392.3" font-family="Times,serif" font-size="14.00">Vendor creates invoice</text>
</g>
<!-- Create Purchase Order Item_var3_step0&#45;&gt;Vendor creates invoice_var3_step1 -->
<g id="edge9" class="edge">
<title>Create Purchase Order Item_var3_step0&#45;&gt;Vendor creates invoice_var3_step1</title>
<path fill="none" stroke="black" d="M169.24,-396C181.95,-396 195.04,-396 207.69,-396"/>
<polygon fill="black" stroke="black" points="207.64,-399.5 217.64,-396 207.64,-392.5 207.64,-399.5"/>
</g>
<!-- Record Goods Receipt_var3_step2 -->
<g id="node18" class="node">
<title>Record Goods Receipt_var3_step2</title>
<polygon fill="lightgrey" stroke="black" points="550,-414 410,-414 410,-378 550,-378 550,-414"/>
<text text-anchor="middle" x="480" y="-392.3" font-family="Times,serif" font-size="14.00">Record Goods Receipt</text>
</g>
<!-- Vendor creates invoice_var3_step1&#45;&gt;Record Goods Receipt_var3_step2 -->
<g id="edge10" class="edge">
<title>Vendor creates invoice_var3_step1&#45;&gt;Record Goods Receipt_var3_step2</title>
<path fill="none" stroke="black" d="M359.89,-396C372.47,-396 385.69,-396 398.56,-396"/>
<polygon fill="black" stroke="black" points="398.25,-399.5 408.25,-396 398.25,-392.5 398.25,-399.5"/>
</g>
<!-- Record Invoice Receipt_var3_step3 -->
<g id="node19" class="node">
<title>Record Invoice Receipt_var3_step3</title>
<polygon fill="lightgrey" stroke="black" points="731,-414 586,-414 586,-378 731,-378 731,-414"/>
<text text-anchor="middle" x="658.5" y="-392.3" font-family="Times,serif" font-size="14.00">Record Invoice Receipt</text>
</g>
<!-- Record Goods Receipt_var3_step2&#45;&gt;Record Invoice Receipt_var3_step3 -->
<g id="edge11" class="edge">
<title>Record Goods Receipt_var3_step2&#45;&gt;Record Invoice Receipt_var3_step3</title>
<path fill="none" stroke="black" d="M550.25,-396C558.13,-396 566.22,-396 574.25,-396"/>
<polygon fill="black" stroke="black" points="574.03,-399.5 584.03,-396 574.03,-392.5 574.03,-399.5"/>
</g>
<!-- Remove Payment Block_var3_step4 -->
<g id="node20" class="node">
<title>Remove Payment Block_var3_step4</title>
<polygon fill="lightgrey" stroke="black" points="917,-414 767,-414 767,-378 917,-378 917,-414"/>
<text text-anchor="middle" x="842" y="-392.3" font-family="Times,serif" font-size="14.00">Remove Payment Block</text>
</g>
<!-- Record Invoice Receipt_var3_step3&#45;&gt;Remove Payment Block_var3_step4 -->
<g id="edge12" class="edge">
<title>Record Invoice Receipt_var3_step3&#45;&gt;Remove Payment Block_var3_step4</title>
<path fill="none" stroke="black" d="M731.49,-396C739.36,-396 747.43,-396 755.45,-396"/>
<polygon fill="black" stroke="black" points="755.2,-399.5 765.2,-396 755.2,-392.5 755.2,-399.5"/>
</g>
<!-- Clear Invoice_var3_step5 -->
<g id="node21" class="node">
<title>Clear Invoice_var3_step5</title>
<polygon fill="lightgrey" stroke="black" points="1043,-414 953,-414 953,-378 1043,-378 1043,-414"/>
<text text-anchor="middle" x="998" y="-392.3" font-family="Times,serif" font-size="14.00">Clear Invoice</text>
</g>
<!-- Remove Payment Block_var3_step4&#45;&gt;Clear Invoice_var3_step5 -->
<g id="edge13" class="edge">
<title>Remove Payment Block_var3_step4&#45;&gt;Clear Invoice_var3_step5</title>
<path fill="none" stroke="black" d="M917.29,-396C925.46,-396 933.66,-396 941.54,-396"/>
<polygon fill="black" stroke="black" points="941.3,-399.5 951.3,-396 941.29,-392.5 941.3,-399.5"/>
</g>
<!-- start_node_var4 -->
<g id="node22" class="node">
<title>start_node_var4</title>
<text text-anchor="middle" x="84.5" y="-446.3" font-family="Times,serif" font-size="14.00">46 traces</text>
</g>
<!-- Create Purchase Order Item_var4_step0 -->
<g id="node23" class="node">
<title>Create Purchase Order Item_var4_step0</title>
<polygon fill="lightgrey" stroke="black" points="169,-522 0,-522 0,-486 169,-486 169,-522"/>
<text text-anchor="middle" x="84.5" y="-500.3" font-family="Times,serif" font-size="14.00">Create Purchase Order Item</text>
</g>
<!-- Record Goods Receipt_var4_step1 -->
<g id="node24" class="node">
<title>Record Goods Receipt_var4_step1</title>
<polygon fill="lightgrey" stroke="black" points="359.5,-522 219.5,-522 219.5,-486 359.5,-486 359.5,-522"/>
<text text-anchor="middle" x="289.5" y="-500.3" font-family="Times,serif" font-size="14.00">Record Goods Receipt</text>
</g>
<!-- Create Purchase Order Item_var4_step0&#45;&gt;Record Goods Receipt_var4_step1 -->
<g id="edge14" class="edge">
<title>Create Purchase Order Item_var4_step0&#45;&gt;Record Goods Receipt_var4_step1</title>
<path fill="none" stroke="black" d="M169.24,-504C181.95,-504 195.04,-504 207.69,-504"/>
<polygon fill="black" stroke="black" points="207.64,-507.5 217.64,-504 207.64,-500.5 207.64,-507.5"/>
</g>
<!-- Vendor creates invoice_var4_step2 -->
<g id="node25" class="node">
<title>Vendor creates invoice_var4_step2</title>
<polygon fill="lightgrey" stroke="black" points="550,-522 410,-522 410,-486 550,-486 550,-522"/>
<text text-anchor="middle" x="480" y="-500.3" font-family="Times,serif" font-size="14.00">Vendor creates invoice</text>
</g>
<!-- Record Goods Receipt_var4_step1&#45;&gt;Vendor creates invoice_var4_step2 -->
<g id="edge15" class="edge">
<title>Record Goods Receipt_var4_step1&#45;&gt;Vendor creates invoice_var4_step2</title>
<path fill="none" stroke="black" d="M359.89,-504C372.47,-504 385.69,-504 398.56,-504"/>
<polygon fill="black" stroke="black" points="398.25,-507.5 408.25,-504 398.25,-500.5 398.25,-507.5"/>
</g>
<!-- Record Invoice Receipt_var4_step3 -->
<g id="node26" class="node">
<title>Record Invoice Receipt_var4_step3</title>
<polygon fill="lightgrey" stroke="black" points="731,-522 586,-522 586,-486 731,-486 731,-522"/>
<text text-anchor="middle" x="658.5" y="-500.3" font-family="Times,serif" font-size="14.00">Record Invoice Receipt</text>
</g>
<!-- Vendor creates invoice_var4_step2&#45;&gt;Record Invoice Receipt_var4_step3 -->
<g id="edge16" class="edge">
<title>Vendor creates invoice_var4_step2&#45;&gt;Record Invoice Receipt_var4_step3</title>
<path fill="none" stroke="black" d="M550.25,-504C558.13,-504 566.22,-504 574.25,-504"/>
<polygon fill="black" stroke="black" points="574.03,-507.5 584.03,-504 574.03,-500.5 574.03,-507.5"/>
</g>
<!-- Clear Invoice_var4_step4 -->
<g id="node27" class="node">
<title>Clear Invoice_var4_step4</title>
<polygon fill="lightgrey" stroke="black" points="887,-522 797,-522 797,-486 887,-486 887,-522"/>
<text text-anchor="middle" x="842" y="-500.3" font-family="Times,serif" font-size="14.00">Clear Invoice</text>
</g>
<!-- Record Invoice Receipt_var4_step3&#45;&gt;Clear Invoice_var4_step4 -->
<g id="edge17" class="edge">
<title>Record Invoice Receipt_var4_step3&#45;&gt;Clear Invoice_var4_step4</title>
<path fill="none" stroke="black" d="M731.49,-504C749.35,-504 768.21,-504 785.16,-504"/>
<polygon fill="black" stroke="black" points="785.04,-507.5 795.04,-504 785.04,-500.5 785.04,-507.5"/>
</g>
<!-- start_node_var5 -->
<g id="node28" class="node">
<title>start_node_var5</title>
<text text-anchor="middle" x="84.5" y="-554.3" font-family="Times,serif" font-size="14.00">78 traces</text>
</g>
<!-- Create Purchase Order Item_var5_step0 -->
<g id="node29" class="node">
<title>Create Purchase Order Item_var5_step0</title>
<polygon fill="lightgrey" stroke="black" points="169,-630 0,-630 0,-594 169,-594 169,-630"/>
<text text-anchor="middle" x="84.5" y="-608.3" font-family="Times,serif" font-size="14.00">Create Purchase Order Item</text>
</g>
<!-- Delete Purchase Order Item_var5_step1 -->
<g id="node30" class="node">
<title>Delete Purchase Order Item_var5_step1</title>
<polygon fill="lightgrey" stroke="black" points="374,-630 205,-630 205,-594 374,-594 374,-630"/>
<text text-anchor="middle" x="289.5" y="-608.3" font-family="Times,serif" font-size="14.00">Delete Purchase Order Item</text>
</g>
<!-- Create Purchase Order Item_var5_step0&#45;&gt;Delete Purchase Order Item_var5_step1 -->
<g id="edge18" class="edge">
<title>Create Purchase Order Item_var5_step0&#45;&gt;Delete Purchase Order Item_var5_step1</title>
<path fill="none" stroke="black" d="M169.24,-612C177.18,-612 185.28,-612 193.32,-612"/>
<polygon fill="black" stroke="black" points="193.11,-615.5 203.11,-612 193.11,-608.5 193.11,-615.5"/>
</g>
<!-- start_node_var6 -->
<g id="node31" class="node">
<title>start_node_var6</title>
<text text-anchor="middle" x="84.5" y="-662.3" font-family="Times,serif" font-size="14.00">104 traces</text>
</g>
<!-- Create Purchase Order Item_var6_step0 -->
<g id="node32" class="node">
<title>Create Purchase Order Item_var6_step0</title>
<polygon fill="lightgrey" stroke="black" points="169,-738 0,-738 0,-702 169,-702 169,-738"/>
<text text-anchor="middle" x="84.5" y="-716.3" font-family="Times,serif" font-size="14.00">Create Purchase Order Item</text>
</g>
<!-- Vendor creates invoice_var6_step1 -->
<g id="node33" class="node">
<title>Vendor creates invoice_var6_step1</title>
<polygon fill="lightgrey" stroke="black" points="359.5,-738 219.5,-738 219.5,-702 359.5,-702 359.5,-738"/>
<text text-anchor="middle" x="289.5" y="-716.3" font-family="Times,serif" font-size="14.00">Vendor creates invoice</text>
</g>
<!-- Create Purchase Order Item_var6_step0&#45;&gt;Vendor creates invoice_var6_step1 -->
<g id="edge19" class="edge">
<title>Create Purchase Order Item_var6_step0&#45;&gt;Vendor creates invoice_var6_step1</title>
<path fill="none" stroke="black" d="M169.24,-720C181.95,-720 195.04,-720 207.69,-720"/>
<polygon fill="black" stroke="black" points="207.64,-723.5 217.64,-720 207.64,-716.5 207.64,-723.5"/>
</g>
<!-- Record Goods Receipt_var6_step2 -->
<g id="node34" class="node">
<title>Record Goods Receipt_var6_step2</title>
<polygon fill="lightgrey" stroke="black" points="550,-738 410,-738 410,-702 550,-702 550,-738"/>
<text text-anchor="middle" x="480" y="-716.3" font-family="Times,serif" font-size="14.00">Record Goods Receipt</text>
</g>
<!-- Vendor creates invoice_var6_step1&#45;&gt;Record Goods Receipt_var6_step2 -->
<g id="edge20" class="edge">
<title>Vendor creates invoice_var6_step1&#45;&gt;Record Goods Receipt_var6_step2</title>
<path fill="none" stroke="black" d="M359.89,-720C372.47,-720 385.69,-720 398.56,-720"/>
<polygon fill="black" stroke="black" points="398.25,-723.5 408.25,-720 398.25,-716.5 398.25,-723.5"/>
</g>
<!-- Record Invoice Receipt_var6_step3 -->
<g id="node35" class="node">
<title>Record Invoice Receipt_var6_step3</title>
<polygon fill="lightgrey" stroke="black" points="731,-738 586,-738 586,-702 731,-702 731,-738"/>
<text text-anchor="middle" x="658.5" y="-716.3" font-family="Times,serif" font-size="14.00">Record Invoice Receipt</text>
</g>
<!-- Record Goods Receipt_var6_step2&#45;&gt;Record Invoice Receipt_var6_step3 -->
<g id="edge21" class="edge">
<title>Record Goods Receipt_var6_step2&#45;&gt;Record Invoice Receipt_var6_step3</title>
<path fill="none" stroke="black" d="M550.25,-720C558.13,-720 566.22,-720 574.25,-720"/>
<polygon fill="black" stroke="black" points="574.03,-723.5 584.03,-720 574.03,-716.5 574.03,-723.5"/>
</g>
<!-- Clear Invoice_var6_step4 -->
<g id="node36" class="node">
<title>Clear Invoice_var6_step4</title>
<polygon fill="lightgrey" stroke="black" points="887,-738 797,-738 797,-702 887,-702 887,-738"/>
<text text-anchor="middle" x="842" y="-716.3" font-family="Times,serif" font-size="14.00">Clear Invoice</text>
</g>
<!-- Record Invoice Receipt_var6_step3&#45;&gt;Clear Invoice_var6_step4 -->
<g id="edge22" class="edge">
<title>Record Invoice Receipt_var6_step3&#45;&gt;Clear Invoice_var6_step4</title>
<path fill="none" stroke="black" d="M731.49,-720C749.35,-720 768.21,-720 785.16,-720"/>
<polygon fill="black" stroke="black" points="785.04,-723.5 795.04,-720 785.04,-716.5 785.04,-723.5"/>
</g>
</g>
</svg>
