<?xml version="1.0" encoding="UTF-8" standalone="no"?>
<!DOCTYPE svg PUBLIC "-//W3C//DTD SVG 1.1//EN"
 "http://www.w3.org/Graphics/SVG/1.1/DTD/svg11.dtd">
<!-- Generated by graphviz version 7.1.0 (0)
 -->
<!-- Pages: 1 -->
<svg width="1169pt" height="638pt"
 viewBox="0.00 0.00 1169.00 638.00" xmlns="http://www.w3.org/2000/svg" xmlns:xlink="http://www.w3.org/1999/xlink">
<g id="graph0" class="graph" transform="scale(1 1) rotate(0) translate(4 634)">
<polygon fill="white" stroke="none" points="-4,4 -4,-634 1165,-634 1165,4 -4,4"/>
<!-- start_node_var0 -->
<g id="node1" class="node">
<title>start_node_var0</title>
<text text-anchor="middle" x="100" y="-14.3" font-family="Times,serif" font-size="14.00">1996 traces</text>
</g>
<!-- Create Purchase Requisition Item_var0_step0 -->
<g id="node2" class="node">
<title>Create Purchase Requisition Item_var0_step0</title>
<polygon fill="lightgrey" stroke="black" points="200,-90 0,-90 0,-54 200,-54 200,-90"/>
<text text-anchor="middle" x="100" y="-68.3" font-family="Times,serif" font-size="14.00">Create Purchase Requisition Item</text>
</g>
<!-- Create Purchase Order Item_var0_step1 -->
<g id="node3" class="node">
<title>Create Purchase Order Item_var0_step1</title>
<polygon fill="lightgrey" stroke="black" points="407,-90 238,-90 238,-54 407,-54 407,-90"/>
<text text-anchor="middle" x="322.5" y="-68.3" font-family="Times,serif" font-size="14.00">Create Purchase Order Item</text>
</g>
<!-- Create Purchase Requisition Item_var0_step0&#45;&gt;Create Purchase Order Item_var0_step1 -->
<g id="edge1" class="edge">
<title>Create Purchase Requisition Item_var0_step0&#45;&gt;Create Purchase Order Item_var0_step1</title>
<path fill="none" stroke="black" d="M200.28,-72C208.95,-72 217.7,-72 226.33,-72"/>
<polygon fill="black" stroke="black" points="226.07,-75.5 236.07,-72 226.07,-68.5 226.07,-75.5"/>
</g>
<!-- Receive Order Confirmation_var0_step2 -->
<g id="node4" class="node">
<title>Receive Order Confirmation_var0_step2</title>
<polygon fill="lightgrey" stroke="black" points="618,-90 445,-90 445,-54 618,-54 618,-90"/>
<text text-anchor="middle" x="531.5" y="-68.3" font-family="Times,serif" font-size="14.00">Receive Order Confirmation</text>
</g>
<!-- Create Purchase Order Item_var0_step1&#45;&gt;Receive Order Confirmation_var0_step2 -->
<g id="edge2" class="edge">
<title>Create Purchase Order Item_var0_step1&#45;&gt;Receive Order Confirmation_var0_step2</title>
<path fill="none" stroke="black" d="M407.4,-72C415.97,-72 424.73,-72 433.42,-72"/>
<polygon fill="black" stroke="black" points="433.29,-75.5 443.29,-72 433.29,-68.5 433.29,-75.5"/>
</g>
<!-- Record Goods Receipt_var0_step3 -->
<g id="node5" class="node">
<title>Record Goods Receipt_var0_step3</title>
<polygon fill="lightgrey" stroke="black" points="796.5,-90 656.5,-90 656.5,-54 796.5,-54 796.5,-90"/>
<text text-anchor="middle" x="726.5" y="-68.3" font-family="Times,serif" font-size="14.00">Record Goods Receipt</text>
</g>
<!-- Receive Order Confirmation_var0_step2&#45;&gt;Record Goods Receipt_var0_step3 -->
<g id="edge3" class="edge">
<title>Receive Order Confirmation_var0_step2&#45;&gt;Record Goods Receipt_var0_step3</title>
<path fill="none" stroke="black" d="M618.28,-72C627.1,-72 636.04,-72 644.8,-72"/>
<polygon fill="black" stroke="black" points="644.68,-75.5 654.68,-72 644.68,-68.5 644.68,-75.5"/>
</g>
<!-- Vendor creates invoice_var0_step4 -->
<g id="node6" class="node">
<title>Vendor creates invoice_var0_step4</title>
<polygon fill="lightgrey" stroke="black" points="977.5,-90 837.5,-90 837.5,-54 977.5,-54 977.5,-90"/>
<text text-anchor="middle" x="907.5" y="-68.3" font-family="Times,serif" font-size="14.00">Vendor creates invoice</text>
</g>
<!-- Record Goods Receipt_var0_step3&#45;&gt;Vendor creates invoice_var0_step4 -->
<g id="edge4" class="edge">
<title>Record Goods Receipt_var0_step3&#45;&gt;Vendor creates invoice_var0_step4</title>
<path fill="none" stroke="black" d="M796.96,-72C806.43,-72 816.21,-72 825.85,-72"/>
<polygon fill="black" stroke="black" points="825.56,-75.5 835.56,-72 825.56,-68.5 825.56,-75.5"/>
</g>
<!-- Record Invoice Receipt_var0_step5 -->
<g id="node7" class="node">
<title>Record Invoice Receipt_var0_step5</title>
<polygon fill="lightgrey" stroke="black" points="1161,-90 1016,-90 1016,-54 1161,-54 1161,-90"/>
<text text-anchor="middle" x="1088.5" y="-68.3" font-family="Times,serif" font-size="14.00">Record Invoice Receipt</text>
</g>
<!-- Vendor creates invoice_var0_step4&#45;&gt;Record Invoice Receipt_var0_step5 -->
<g id="edge5" class="edge">
<title>Vendor creates invoice_var0_step4&#45;&gt;Record Invoice Receipt_var0_step5</title>
<path fill="none" stroke="black" d="M977.96,-72C986.57,-72 995.44,-72 1004.23,-72"/>
<polygon fill="black" stroke="black" points="1004.2,-75.5 1014.2,-72 1004.2,-68.5 1004.2,-75.5"/>
</g>
<!-- start_node_var1 -->
<g id="node8" class="node">
<title>start_node_var1</title>
<text text-anchor="middle" x="100" y="-122.3" font-family="Times,serif" font-size="14.00">2541 traces</text>
</g>
<!-- Create Purchase Order Item_var1_step0 -->
<g id="node9" class="node">
<title>Create Purchase Order Item_var1_step0</title>
<polygon fill="lightgrey" stroke="black" points="184.5,-198 15.5,-198 15.5,-162 184.5,-162 184.5,-198"/>
<text text-anchor="middle" x="100" y="-176.3" font-family="Times,serif" font-size="14.00">Create Purchase Order Item</text>
</g>
<!-- Record Goods Receipt_var1_step1 -->
<g id="node10" class="node">
<title>Record Goods Receipt_var1_step1</title>
<polygon fill="lightgrey" stroke="black" points="392.5,-198 252.5,-198 252.5,-162 392.5,-162 392.5,-198"/>
<text text-anchor="middle" x="322.5" y="-176.3" font-family="Times,serif" font-size="14.00">Record Goods Receipt</text>
</g>
<!-- Create Purchase Order Item_var1_step0&#45;&gt;Record Goods Receipt_var1_step1 -->
<g id="edge6" class="edge">
<title>Create Purchase Order Item_var1_step0&#45;&gt;Record Goods Receipt_var1_step1</title>
<path fill="none" stroke="black" d="M184.99,-180C203.25,-180 222.52,-180 240.66,-180"/>
<polygon fill="black" stroke="black" points="240.57,-183.5 250.57,-180 240.57,-176.5 240.57,-183.5"/>
</g>
<!-- Vendor creates invoice_var1_step2 -->
<g id="node11" class="node">
<title>Vendor creates invoice_var1_step2</title>
<polygon fill="lightgrey" stroke="black" points="601.5,-198 461.5,-198 461.5,-162 601.5,-162 601.5,-198"/>
<text text-anchor="middle" x="531.5" y="-176.3" font-family="Times,serif" font-size="14.00">Vendor creates invoice</text>
</g>
<!-- Record Goods Receipt_var1_step1&#45;&gt;Vendor creates invoice_var1_step2 -->
<g id="edge7" class="edge">
<title>Record Goods Receipt_var1_step1&#45;&gt;Vendor creates invoice_var1_step2</title>
<path fill="none" stroke="black" d="M392.72,-180C411.1,-180 431.11,-180 450.04,-180"/>
<polygon fill="black" stroke="black" points="449.84,-183.5 459.84,-180 449.84,-176.5 449.84,-183.5"/>
</g>
<!-- Record Invoice Receipt_var1_step3 -->
<g id="node12" class="node">
<title>Record Invoice Receipt_var1_step3</title>
<polygon fill="lightgrey" stroke="black" points="799,-198 654,-198 654,-162 799,-162 799,-198"/>
<text text-anchor="middle" x="726.5" y="-176.3" font-family="Times,serif" font-size="14.00">Record Invoice Receipt</text>
</g>
<!-- Vendor creates invoice_var1_step2&#45;&gt;Record Invoice Receipt_var1_step3 -->
<g id="edge8" class="edge">
<title>Vendor creates invoice_var1_step2&#45;&gt;Record Invoice Receipt_var1_step3</title>
<path fill="none" stroke="black" d="M601.9,-180C615.08,-180 628.98,-180 642.52,-180"/>
<polygon fill="black" stroke="black" points="642.27,-183.5 652.27,-180 642.27,-176.5 642.27,-183.5"/>
</g>
<!-- start_node_var2 -->
<g id="node13" class="node">
<title>start_node_var2</title>
<text text-anchor="middle" x="100" y="-230.3" font-family="Times,serif" font-size="14.00">2550 traces</text>
</g>
<!-- Create Purchase Order Item_var2_step0 -->
<g id="node14" class="node">
<title>Create Purchase Order Item_var2_step0</title>
<polygon fill="lightgrey" stroke="black" points="184.5,-306 15.5,-306 15.5,-270 184.5,-270 184.5,-306"/>
<text text-anchor="middle" x="100" y="-284.3" font-family="Times,serif" font-size="14.00">Create Purchase Order Item</text>
</g>
<!-- Receive Order Confirmation_var2_step1 -->
<g id="node15" class="node">
<title>Receive Order Confirmation_var2_step1</title>
<polygon fill="lightgrey" stroke="black" points="409,-306 236,-306 236,-270 409,-270 409,-306"/>
<text text-anchor="middle" x="322.5" y="-284.3" font-family="Times,serif" font-size="14.00">Receive Order Confirmation</text>
</g>
<!-- Create Purchase Order Item_var2_step0&#45;&gt;Receive Order Confirmation_var2_step1 -->
<g id="edge9" class="edge">
<title>Create Purchase Order Item_var2_step0&#45;&gt;Receive Order Confirmation_var2_step1</title>
<path fill="none" stroke="black" d="M184.99,-288C197.79,-288 211.1,-288 224.15,-288"/>
<polygon fill="black" stroke="black" points="224.03,-291.5 234.03,-288 224.03,-284.5 224.03,-291.5"/>
</g>
<!-- Vendor creates invoice_var2_step2 -->
<g id="node16" class="node">
<title>Vendor creates invoice_var2_step2</title>
<polygon fill="lightgrey" stroke="black" points="601.5,-306 461.5,-306 461.5,-270 601.5,-270 601.5,-306"/>
<text text-anchor="middle" x="531.5" y="-284.3" font-family="Times,serif" font-size="14.00">Vendor creates invoice</text>
</g>
<!-- Receive Order Confirmation_var2_step1&#45;&gt;Vendor creates invoice_var2_step2 -->
<g id="edge10" class="edge">
<title>Receive Order Confirmation_var2_step1&#45;&gt;Vendor creates invoice_var2_step2</title>
<path fill="none" stroke="black" d="M409.49,-288C422.8,-288 436.52,-288 449.72,-288"/>
<polygon fill="black" stroke="black" points="449.64,-291.5 459.64,-288 449.64,-284.5 449.64,-291.5"/>
</g>
<!-- Record Goods Receipt_var2_step3 -->
<g id="node17" class="node">
<title>Record Goods Receipt_var2_step3</title>
<polygon fill="lightgrey" stroke="black" points="796.5,-306 656.5,-306 656.5,-270 796.5,-270 796.5,-306"/>
<text text-anchor="middle" x="726.5" y="-284.3" font-family="Times,serif" font-size="14.00">Record Goods Receipt</text>
</g>
<!-- Vendor creates invoice_var2_step2&#45;&gt;Record Goods Receipt_var2_step3 -->
<g id="edge11" class="edge">
<title>Vendor creates invoice_var2_step2&#45;&gt;Record Goods Receipt_var2_step3</title>
<path fill="none" stroke="black" d="M601.9,-288C615.8,-288 630.52,-288 644.76,-288"/>
<polygon fill="black" stroke="black" points="644.55,-291.5 654.55,-288 644.55,-284.5 644.55,-291.5"/>
</g>
<!-- Record Invoice Receipt_var2_step4 -->
<g id="node18" class="node">
<title>Record Invoice Receipt_var2_step4</title>
<polygon fill="lightgrey" stroke="black" points="980,-306 835,-306 835,-270 980,-270 980,-306"/>
<text text-anchor="middle" x="907.5" y="-284.3" font-family="Times,serif" font-size="14.00">Record Invoice Receipt</text>
</g>
<!-- Record Goods Receipt_var2_step3&#45;&gt;Record Invoice Receipt_var2_step4 -->
<g id="edge12" class="edge">
<title>Record Goods Receipt_var2_step3&#45;&gt;Record Invoice Receipt_var2_step4</title>
<path fill="none" stroke="black" d="M796.96,-288C805.57,-288 814.44,-288 823.23,-288"/>
<polygon fill="black" stroke="black" points="823.2,-291.5 833.2,-288 823.2,-284.5 823.2,-291.5"/>
</g>
<!-- Clear Invoice_var2_step5 -->
<g id="node19" class="node">
<title>Clear Invoice_var2_step5</title>
<polygon fill="lightgrey" stroke="black" points="1133.5,-306 1043.5,-306 1043.5,-270 1133.5,-270 1133.5,-306"/>
<text text-anchor="middle" x="1088.5" y="-284.3" font-family="Times,serif" font-size="14.00">Clear Invoice</text>
</g>
<!-- Record Invoice Receipt_var2_step4&#45;&gt;Clear Invoice_var2_step5 -->
<g id="edge13" class="edge">
<title>Record Invoice Receipt_var2_step4&#45;&gt;Clear Invoice_var2_step5</title>
<path fill="none" stroke="black" d="M980.27,-288C997.34,-288 1015.29,-288 1031.53,-288"/>
<polygon fill="black" stroke="black" points="1031.5,-291.5 1041.5,-288 1031.5,-284.5 1031.5,-291.5"/>
</g>
<!-- start_node_var3 -->
<g id="node20" class="node">
<title>start_node_var3</title>
<text text-anchor="middle" x="100" y="-338.3" font-family="Times,serif" font-size="14.00">9094 traces</text>
</g>
<!-- Create Purchase Order Item_var3_step0 -->
<g id="node21" class="node">
<title>Create Purchase Order Item_var3_step0</title>
<polygon fill="lightgrey" stroke="black" points="184.5,-414 15.5,-414 15.5,-378 184.5,-378 184.5,-414"/>
<text text-anchor="middle" x="100" y="-392.3" font-family="Times,serif" font-size="14.00">Create Purchase Order Item</text>
</g>
<!-- Receive Order Confirmation_var3_step1 -->
<g id="node22" class="node">
<title>Receive Order Confirmation_var3_step1</title>
<polygon fill="lightgrey" stroke="black" points="409,-414 236,-414 236,-378 409,-378 409,-414"/>
<text text-anchor="middle" x="322.5" y="-392.3" font-family="Times,serif" font-size="14.00">Receive Order Confirmation</text>
</g>
<!-- Create Purchase Order Item_var3_step0&#45;&gt;Receive Order Confirmation_var3_step1 -->
<g id="edge14" class="edge">
<title>Create Purchase Order Item_var3_step0&#45;&gt;Receive Order Confirmation_var3_step1</title>
<path fill="none" stroke="black" d="M184.99,-396C197.79,-396 211.1,-396 224.15,-396"/>
<polygon fill="black" stroke="black" points="224.03,-399.5 234.03,-396 224.03,-392.5 224.03,-399.5"/>
</g>
<!-- Record Goods Receipt_var3_step2 -->
<g id="node23" class="node">
<title>Record Goods Receipt_var3_step2</title>
<polygon fill="lightgrey" stroke="black" points="601.5,-414 461.5,-414 461.5,-378 601.5,-378 601.5,-414"/>
<text text-anchor="middle" x="531.5" y="-392.3" font-family="Times,serif" font-size="14.00">Record Goods Receipt</text>
</g>
<!-- Receive Order Confirmation_var3_step1&#45;&gt;Record Goods Receipt_var3_step2 -->
<g id="edge15" class="edge">
<title>Receive Order Confirmation_var3_step1&#45;&gt;Record Goods Receipt_var3_step2</title>
<path fill="none" stroke="black" d="M409.49,-396C422.8,-396 436.52,-396 449.72,-396"/>
<polygon fill="black" stroke="black" points="449.64,-399.5 459.64,-396 449.64,-392.5 449.64,-399.5"/>
</g>
<!-- Vendor creates invoice_var3_step3 -->
<g id="node24" class="node">
<title>Vendor creates invoice_var3_step3</title>
<polygon fill="lightgrey" stroke="black" points="796.5,-414 656.5,-414 656.5,-378 796.5,-378 796.5,-414"/>
<text text-anchor="middle" x="726.5" y="-392.3" font-family="Times,serif" font-size="14.00">Vendor creates invoice</text>
</g>
<!-- Record Goods Receipt_var3_step2&#45;&gt;Vendor creates invoice_var3_step3 -->
<g id="edge16" class="edge">
<title>Record Goods Receipt_var3_step2&#45;&gt;Vendor creates invoice_var3_step3</title>
<path fill="none" stroke="black" d="M601.9,-396C615.8,-396 630.52,-396 644.76,-396"/>
<polygon fill="black" stroke="black" points="644.55,-399.5 654.55,-396 644.55,-392.5 644.55,-399.5"/>
</g>
<!-- Record Invoice Receipt_var3_step4 -->
<g id="node25" class="node">
<title>Record Invoice Receipt_var3_step4</title>
<polygon fill="lightgrey" stroke="black" points="980,-414 835,-414 835,-378 980,-378 980,-414"/>
<text text-anchor="middle" x="907.5" y="-392.3" font-family="Times,serif" font-size="14.00">Record Invoice Receipt</text>
</g>
<!-- Vendor creates invoice_var3_step3&#45;&gt;Record Invoice Receipt_var3_step4 -->
<g id="edge17" class="edge">
<title>Vendor creates invoice_var3_step3&#45;&gt;Record Invoice Receipt_var3_step4</title>
<path fill="none" stroke="black" d="M796.96,-396C805.57,-396 814.44,-396 823.23,-396"/>
<polygon fill="black" stroke="black" points="823.2,-399.5 833.2,-396 823.2,-392.5 823.2,-399.5"/>
</g>
<!-- Clear Invoice_var3_step5 -->
<g id="node26" class="node">
<title>Clear Invoice_var3_step5</title>
<polygon fill="lightgrey" stroke="black" points="1133.5,-414 1043.5,-414 1043.5,-378 1133.5,-378 1133.5,-414"/>
<text text-anchor="middle" x="1088.5" y="-392.3" font-family="Times,serif" font-size="14.00">Clear Invoice</text>
</g>
<!-- Record Invoice Receipt_var3_step4&#45;&gt;Clear Invoice_var3_step5 -->
<g id="edge18" class="edge">
<title>Record Invoice Receipt_var3_step4&#45;&gt;Clear Invoice_var3_step5</title>
<path fill="none" stroke="black" d="M980.27,-396C997.34,-396 1015.29,-396 1031.53,-396"/>
<polygon fill="black" stroke="black" points="1031.5,-399.5 1041.5,-396 1031.5,-392.5 1031.5,-399.5"/>
</g>
<!-- start_node_var4 -->
<g id="node27" class="node">
<title>start_node_var4</title>
<text text-anchor="middle" x="100" y="-446.3" font-family="Times,serif" font-size="14.00">12780 traces</text>
</g>
<!-- Create Purchase Order Item_var4_step0 -->
<g id="node28" class="node">
<title>Create Purchase Order Item_var4_step0</title>
<polygon fill="lightgrey" stroke="black" points="184.5,-522 15.5,-522 15.5,-486 184.5,-486 184.5,-522"/>
<text text-anchor="middle" x="100" y="-500.3" font-family="Times,serif" font-size="14.00">Create Purchase Order Item</text>
</g>
<!-- Vendor creates invoice_var4_step1 -->
<g id="node29" class="node">
<title>Vendor creates invoice_var4_step1</title>
<polygon fill="lightgrey" stroke="black" points="392.5,-522 252.5,-522 252.5,-486 392.5,-486 392.5,-522"/>
<text text-anchor="middle" x="322.5" y="-500.3" font-family="Times,serif" font-size="14.00">Vendor creates invoice</text>
</g>
<!-- Create Purchase Order Item_var4_step0&#45;&gt;Vendor creates invoice_var4_step1 -->
<g id="edge19" class="edge">
<title>Create Purchase Order Item_var4_step0&#45;&gt;Vendor creates invoice_var4_step1</title>
<path fill="none" stroke="black" d="M184.99,-504C203.25,-504 222.52,-504 240.66,-504"/>
<polygon fill="black" stroke="black" points="240.57,-507.5 250.57,-504 240.57,-500.5 240.57,-507.5"/>
</g>
<!-- Record Goods Receipt_var4_step2 -->
<g id="node30" class="node">
<title>Record Goods Receipt_var4_step2</title>
<polygon fill="lightgrey" stroke="black" points="601.5,-522 461.5,-522 461.5,-486 601.5,-486 601.5,-522"/>
<text text-anchor="middle" x="531.5" y="-500.3" font-family="Times,serif" font-size="14.00">Record Goods Receipt</text>
</g>
<!-- Vendor creates invoice_var4_step1&#45;&gt;Record Goods Receipt_var4_step2 -->
<g id="edge20" class="edge">
<title>Vendor creates invoice_var4_step1&#45;&gt;Record Goods Receipt_var4_step2</title>
<path fill="none" stroke="black" d="M392.72,-504C411.1,-504 431.11,-504 450.04,-504"/>
<polygon fill="black" stroke="black" points="449.84,-507.5 459.84,-504 449.84,-500.5 449.84,-507.5"/>
</g>
<!-- Record Invoice Receipt_var4_step3 -->
<g id="node31" class="node">
<title>Record Invoice Receipt_var4_step3</title>
<polygon fill="lightgrey" stroke="black" points="799,-522 654,-522 654,-486 799,-486 799,-522"/>
<text text-anchor="middle" x="726.5" y="-500.3" font-family="Times,serif" font-size="14.00">Record Invoice Receipt</text>
</g>
<!-- Record Goods Receipt_var4_step2&#45;&gt;Record Invoice Receipt_var4_step3 -->
<g id="edge21" class="edge">
<title>Record Goods Receipt_var4_step2&#45;&gt;Record Invoice Receipt_var4_step3</title>
<path fill="none" stroke="black" d="M601.9,-504C615.08,-504 628.98,-504 642.52,-504"/>
<polygon fill="black" stroke="black" points="642.27,-507.5 652.27,-504 642.27,-500.5 642.27,-507.5"/>
</g>
<!-- Clear Invoice_var4_step4 -->
<g id="node32" class="node">
<title>Clear Invoice_var4_step4</title>
<polygon fill="lightgrey" stroke="black" points="952.5,-522 862.5,-522 862.5,-486 952.5,-486 952.5,-522"/>
<text text-anchor="middle" x="907.5" y="-500.3" font-family="Times,serif" font-size="14.00">Clear Invoice</text>
</g>
<!-- Record Invoice Receipt_var4_step3&#45;&gt;Clear Invoice_var4_step4 -->
<g id="edge22" class="edge">
<title>Record Invoice Receipt_var4_step3&#45;&gt;Clear Invoice_var4_step4</title>
<path fill="none" stroke="black" d="M799.27,-504C816.34,-504 834.29,-504 850.53,-504"/>
<polygon fill="black" stroke="black" points="850.5,-507.5 860.5,-504 850.5,-500.5 850.5,-507.5"/>
</g>
<!-- start_node_var5 -->
<g id="node33" class="node">
<title>start_node_var5</title>
<text text-anchor="middle" x="100" y="-554.3" font-family="Times,serif" font-size="14.00">18270 traces</text>
</g>
<!-- Create Purchase Order Item_var5_step0 -->
<g id="node34" class="node">
<title>Create Purchase Order Item_var5_step0</title>
<polygon fill="lightgrey" stroke="black" points="184.5,-630 15.5,-630 15.5,-594 184.5,-594 184.5,-630"/>
<text text-anchor="middle" x="100" y="-608.3" font-family="Times,serif" font-size="14.00">Create Purchase Order Item</text>
</g>
<!-- Record Goods Receipt_var5_step1 -->
<g id="node35" class="node">
<title>Record Goods Receipt_var5_step1</title>
<polygon fill="lightgrey" stroke="black" points="392.5,-630 252.5,-630 252.5,-594 392.5,-594 392.5,-630"/>
<text text-anchor="middle" x="322.5" y="-608.3" font-family="Times,serif" font-size="14.00">Record Goods Receipt</text>
</g>
<!-- Create Purchase Order Item_var5_step0&#45;&gt;Record Goods Receipt_var5_step1 -->
<g id="edge23" class="edge">
<title>Create Purchase Order Item_var5_step0&#45;&gt;Record Goods Receipt_var5_step1</title>
<path fill="none" stroke="black" d="M184.99,-612C203.25,-612 222.52,-612 240.66,-612"/>
<polygon fill="black" stroke="black" points="240.57,-615.5 250.57,-612 240.57,-608.5 240.57,-615.5"/>
</g>
<!-- Vendor creates invoice_var5_step2 -->
<g id="node36" class="node">
<title>Vendor creates invoice_var5_step2</title>
<polygon fill="lightgrey" stroke="black" points="601.5,-630 461.5,-630 461.5,-594 601.5,-594 601.5,-630"/>
<text text-anchor="middle" x="531.5" y="-608.3" font-family="Times,serif" font-size="14.00">Vendor creates invoice</text>
</g>
<!-- Record Goods Receipt_var5_step1&#45;&gt;Vendor creates invoice_var5_step2 -->
<g id="edge24" class="edge">
<title>Record Goods Receipt_var5_step1&#45;&gt;Vendor creates invoice_var5_step2</title>
<path fill="none" stroke="black" d="M392.72,-612C411.1,-612 431.11,-612 450.04,-612"/>
<polygon fill="black" stroke="black" points="449.84,-615.5 459.84,-612 449.84,-608.5 449.84,-615.5"/>
</g>
<!-- Record Invoice Receipt_var5_step3 -->
<g id="node37" class="node">
<title>Record Invoice Receipt_var5_step3</title>
<polygon fill="lightgrey" stroke="black" points="799,-630 654,-630 654,-594 799,-594 799,-630"/>
<text text-anchor="middle" x="726.5" y="-608.3" font-family="Times,serif" font-size="14.00">Record Invoice Receipt</text>
</g>
<!-- Vendor creates invoice_var5_step2&#45;&gt;Record Invoice Receipt_var5_step3 -->
<g id="edge25" class="edge">
<title>Vendor creates invoice_var5_step2&#45;&gt;Record Invoice Receipt_var5_step3</title>
<path fill="none" stroke="black" d="M601.9,-612C615.08,-612 628.98,-612 642.52,-612"/>
<polygon fill="black" stroke="black" points="642.27,-615.5 652.27,-612 642.27,-608.5 642.27,-615.5"/>
</g>
<!-- Clear Invoice_var5_step4 -->
<g id="node38" class="node">
<title>Clear Invoice_var5_step4</title>
<polygon fill="lightgrey" stroke="black" points="952.5,-630 862.5,-630 862.5,-594 952.5,-594 952.5,-630"/>
<text text-anchor="middle" x="907.5" y="-608.3" font-family="Times,serif" font-size="14.00">Clear Invoice</text>
</g>
<!-- Record Invoice Receipt_var5_step3&#45;&gt;Clear Invoice_var5_step4 -->
<g id="edge26" class="edge">
<title>Record Invoice Receipt_var5_step3&#45;&gt;Clear Invoice_var5_step4</title>
<path fill="none" stroke="black" d="M799.27,-612C816.34,-612 834.29,-612 850.53,-612"/>
<polygon fill="black" stroke="black" points="850.5,-615.5 860.5,-612 850.5,-608.5 850.5,-615.5"/>
</g>
</g>
</svg>
