<?xml version="1.0" encoding="UTF-8" standalone="no"?>
<!DOCTYPE svg PUBLIC "-//W3C//DTD SVG 1.1//EN"
 "http://www.w3.org/Graphics/SVG/1.1/DTD/svg11.dtd">
<!-- Generated by graphviz version 7.1.0 (0)
 -->
<!-- Pages: 1 -->
<svg width="1087pt" height="530pt"
 viewBox="0.00 0.00 1087.00 530.00" xmlns="http://www.w3.org/2000/svg" xmlns:xlink="http://www.w3.org/1999/xlink">
<g id="graph0" class="graph" transform="scale(1 1) rotate(0) translate(4 526)">
<polygon fill="white" stroke="none" points="-4,4 -4,-526 1083,-526 1083,4 -4,4"/>
<!-- start_node_var0 -->
<g id="node1" class="node">
<title>start_node_var0</title>
<text text-anchor="middle" x="100" y="-14.3" font-family="Times,serif" font-size="14.00">3271 traces</text>
</g>
<!-- Create Purchase Order Item_var0_step0 -->
<g id="node2" class="node">
<title>Create Purchase Order Item_var0_step0</title>
<polygon fill="lightgrey" stroke="black" points="184.5,-90 15.5,-90 15.5,-54 184.5,-54 184.5,-90"/>
<text text-anchor="middle" x="100" y="-68.3" font-family="Times,serif" font-size="14.00">Create Purchase Order Item</text>
</g>
<!-- Vendor creates invoice_var0_step1 -->
<g id="node3" class="node">
<title>Vendor creates invoice_var0_step1</title>
<polygon fill="lightgrey" stroke="black" points="390.5,-90 250.5,-90 250.5,-54 390.5,-54 390.5,-90"/>
<text text-anchor="middle" x="320.5" y="-68.3" font-family="Times,serif" font-size="14.00">Vendor creates invoice</text>
</g>
<!-- Create Purchase Order Item_var0_step0&#45;&gt;Vendor creates invoice_var0_step1 -->
<g id="edge1" class="edge">
<title>Create Purchase Order Item_var0_step0&#45;&gt;Vendor creates invoice_var0_step1</title>
<path fill="none" stroke="black" d="M184.85,-72C202.52,-72 221.13,-72 238.69,-72"/>
<polygon fill="black" stroke="black" points="238.54,-75.5 248.54,-72 238.54,-68.5 238.54,-75.5"/>
</g>
<!-- Record Invoice Receipt_var0_step2 -->
<g id="node4" class="node">
<title>Record Invoice Receipt_var0_step2</title>
<polygon fill="lightgrey" stroke="black" points="586,-90 441,-90 441,-54 586,-54 586,-90"/>
<text text-anchor="middle" x="513.5" y="-68.3" font-family="Times,serif" font-size="14.00">Record Invoice Receipt</text>
</g>
<!-- Vendor creates invoice_var0_step1&#45;&gt;Record Invoice Receipt_var0_step2 -->
<g id="edge2" class="edge">
<title>Vendor creates invoice_var0_step1&#45;&gt;Record Invoice Receipt_var0_step2</title>
<path fill="none" stroke="black" d="M391,-72C403.54,-72 416.72,-72 429.6,-72"/>
<polygon fill="black" stroke="black" points="429.3,-75.5 439.3,-72 429.3,-68.5 429.3,-75.5"/>
</g>
<!-- Record Goods Receipt_var0_step3 -->
<g id="node5" class="node">
<title>Record Goods Receipt_var0_step3</title>
<polygon fill="lightgrey" stroke="black" points="764.5,-90 624.5,-90 624.5,-54 764.5,-54 764.5,-90"/>
<text text-anchor="middle" x="694.5" y="-68.3" font-family="Times,serif" font-size="14.00">Record Goods Receipt</text>
</g>
<!-- Record Invoice Receipt_var0_step2&#45;&gt;Record Goods Receipt_var0_step3 -->
<g id="edge3" class="edge">
<title>Record Invoice Receipt_var0_step2&#45;&gt;Record Goods Receipt_var0_step3</title>
<path fill="none" stroke="black" d="M586.27,-72C594.93,-72 603.82,-72 612.59,-72"/>
<polygon fill="black" stroke="black" points="612.52,-75.5 622.52,-72 612.52,-68.5 612.52,-75.5"/>
</g>
<!-- Remove Payment Block_var0_step4 -->
<g id="node6" class="node">
<title>Remove Payment Block_var0_step4</title>
<polygon fill="lightgrey" stroke="black" points="953,-90 803,-90 803,-54 953,-54 953,-90"/>
<text text-anchor="middle" x="878" y="-68.3" font-family="Times,serif" font-size="14.00">Remove Payment Block</text>
</g>
<!-- Record Goods Receipt_var0_step3&#45;&gt;Remove Payment Block_var0_step4 -->
<g id="edge4" class="edge">
<title>Record Goods Receipt_var0_step3&#45;&gt;Remove Payment Block_var0_step4</title>
<path fill="none" stroke="black" d="M764.89,-72C773.45,-72 782.28,-72 791.05,-72"/>
<polygon fill="black" stroke="black" points="791,-75.5 801,-72 791,-68.5 791,-75.5"/>
</g>
<!-- Clear Invoice_var0_step5 -->
<g id="node7" class="node">
<title>Clear Invoice_var0_step5</title>
<polygon fill="lightgrey" stroke="black" points="1079,-90 989,-90 989,-54 1079,-54 1079,-90"/>
<text text-anchor="middle" x="1034" y="-68.3" font-family="Times,serif" font-size="14.00">Clear Invoice</text>
</g>
<!-- Remove Payment Block_var0_step4&#45;&gt;Clear Invoice_var0_step5 -->
<g id="edge5" class="edge">
<title>Remove Payment Block_var0_step4&#45;&gt;Clear Invoice_var0_step5</title>
<path fill="none" stroke="black" d="M953.29,-72C961.46,-72 969.66,-72 977.54,-72"/>
<polygon fill="black" stroke="black" points="977.3,-75.5 987.3,-72 977.29,-68.5 977.3,-75.5"/>
</g>
<!-- start_node_var1 -->
<g id="node8" class="node">
<title>start_node_var1</title>
<text text-anchor="middle" x="100" y="-122.3" font-family="Times,serif" font-size="14.00">4062 traces</text>
</g>
<!-- Create Purchase Order Item_var1_step0 -->
<g id="node9" class="node">
<title>Create Purchase Order Item_var1_step0</title>
<polygon fill="lightgrey" stroke="black" points="184.5,-198 15.5,-198 15.5,-162 184.5,-162 184.5,-198"/>
<text text-anchor="middle" x="100" y="-176.3" font-family="Times,serif" font-size="14.00">Create Purchase Order Item</text>
</g>
<!-- Vendor creates invoice_var1_step1 -->
<g id="node10" class="node">
<title>Vendor creates invoice_var1_step1</title>
<polygon fill="lightgrey" stroke="black" points="390.5,-198 250.5,-198 250.5,-162 390.5,-162 390.5,-198"/>
<text text-anchor="middle" x="320.5" y="-176.3" font-family="Times,serif" font-size="14.00">Vendor creates invoice</text>
</g>
<!-- Create Purchase Order Item_var1_step0&#45;&gt;Vendor creates invoice_var1_step1 -->
<g id="edge6" class="edge">
<title>Create Purchase Order Item_var1_step0&#45;&gt;Vendor creates invoice_var1_step1</title>
<path fill="none" stroke="black" d="M184.85,-180C202.52,-180 221.13,-180 238.69,-180"/>
<polygon fill="black" stroke="black" points="238.54,-183.5 248.54,-180 238.54,-176.5 238.54,-183.5"/>
</g>
<!-- Record Goods Receipt_var1_step2 -->
<g id="node11" class="node">
<title>Record Goods Receipt_var1_step2</title>
<polygon fill="lightgrey" stroke="black" points="583.5,-198 443.5,-198 443.5,-162 583.5,-162 583.5,-198"/>
<text text-anchor="middle" x="513.5" y="-176.3" font-family="Times,serif" font-size="14.00">Record Goods Receipt</text>
</g>
<!-- Vendor creates invoice_var1_step1&#45;&gt;Record Goods Receipt_var1_step2 -->
<g id="edge7" class="edge">
<title>Vendor creates invoice_var1_step1&#45;&gt;Record Goods Receipt_var1_step2</title>
<path fill="none" stroke="black" d="M391,-180C404.25,-180 418.22,-180 431.78,-180"/>
<polygon fill="black" stroke="black" points="431.54,-183.5 441.54,-180 431.54,-176.5 431.54,-183.5"/>
</g>
<!-- Record Invoice Receipt_var1_step3 -->
<g id="node12" class="node">
<title>Record Invoice Receipt_var1_step3</title>
<polygon fill="lightgrey" stroke="black" points="767,-198 622,-198 622,-162 767,-162 767,-198"/>
<text text-anchor="middle" x="694.5" y="-176.3" font-family="Times,serif" font-size="14.00">Record Invoice Receipt</text>
</g>
<!-- Record Goods Receipt_var1_step2&#45;&gt;Record Invoice Receipt_var1_step3 -->
<g id="edge8" class="edge">
<title>Record Goods Receipt_var1_step2&#45;&gt;Record Invoice Receipt_var1_step3</title>
<path fill="none" stroke="black" d="M583.96,-180C592.57,-180 601.44,-180 610.23,-180"/>
<polygon fill="black" stroke="black" points="610.2,-183.5 620.2,-180 610.2,-176.5 610.2,-183.5"/>
</g>
<!-- Remove Payment Block_var1_step4 -->
<g id="node13" class="node">
<title>Remove Payment Block_var1_step4</title>
<polygon fill="lightgrey" stroke="black" points="953,-198 803,-198 803,-162 953,-162 953,-198"/>
<text text-anchor="middle" x="878" y="-176.3" font-family="Times,serif" font-size="14.00">Remove Payment Block</text>
</g>
<!-- Record Invoice Receipt_var1_step3&#45;&gt;Remove Payment Block_var1_step4 -->
<g id="edge9" class="edge">
<title>Record Invoice Receipt_var1_step3&#45;&gt;Remove Payment Block_var1_step4</title>
<path fill="none" stroke="black" d="M767.49,-180C775.36,-180 783.43,-180 791.45,-180"/>
<polygon fill="black" stroke="black" points="791.2,-183.5 801.2,-180 791.2,-176.5 791.2,-183.5"/>
</g>
<!-- Clear Invoice_var1_step5 -->
<g id="node14" class="node">
<title>Clear Invoice_var1_step5</title>
<polygon fill="lightgrey" stroke="black" points="1079,-198 989,-198 989,-162 1079,-162 1079,-198"/>
<text text-anchor="middle" x="1034" y="-176.3" font-family="Times,serif" font-size="14.00">Clear Invoice</text>
</g>
<!-- Remove Payment Block_var1_step4&#45;&gt;Clear Invoice_var1_step5 -->
<g id="edge10" class="edge">
<title>Remove Payment Block_var1_step4&#45;&gt;Clear Invoice_var1_step5</title>
<path fill="none" stroke="black" d="M953.29,-180C961.46,-180 969.66,-180 977.54,-180"/>
<polygon fill="black" stroke="black" points="977.3,-183.5 987.3,-180 977.29,-176.5 977.3,-183.5"/>
</g>
<!-- start_node_var2 -->
<g id="node15" class="node">
<title>start_node_var2</title>
<text text-anchor="middle" x="100" y="-230.3" font-family="Times,serif" font-size="14.00">5713 traces</text>
</g>
<!-- Create Purchase Requisition Item_var2_step0 -->
<g id="node16" class="node">
<title>Create Purchase Requisition Item_var2_step0</title>
<polygon fill="lightgrey" stroke="black" points="200,-306 0,-306 0,-270 200,-270 200,-306"/>
<text text-anchor="middle" x="100" y="-284.3" font-family="Times,serif" font-size="14.00">Create Purchase Requisition Item</text>
</g>
<!-- Create Purchase Order Item_var2_step1 -->
<g id="node17" class="node">
<title>Create Purchase Order Item_var2_step1</title>
<polygon fill="lightgrey" stroke="black" points="405,-306 236,-306 236,-270 405,-270 405,-306"/>
<text text-anchor="middle" x="320.5" y="-284.3" font-family="Times,serif" font-size="14.00">Create Purchase Order Item</text>
</g>
<!-- Create Purchase Requisition Item_var2_step0&#45;&gt;Create Purchase Order Item_var2_step1 -->
<g id="edge11" class="edge">
<title>Create Purchase Requisition Item_var2_step0&#45;&gt;Create Purchase Order Item_var2_step1</title>
<path fill="none" stroke="black" d="M200.34,-288C208.39,-288 216.5,-288 224.52,-288"/>
<polygon fill="black" stroke="black" points="224.25,-291.5 234.25,-288 224.25,-284.5 224.25,-291.5"/>
</g>
<!-- Vendor creates invoice_var2_step2 -->
<g id="node18" class="node">
<title>Vendor creates invoice_var2_step2</title>
<polygon fill="lightgrey" stroke="black" points="583.5,-306 443.5,-306 443.5,-270 583.5,-270 583.5,-306"/>
<text text-anchor="middle" x="513.5" y="-284.3" font-family="Times,serif" font-size="14.00">Vendor creates invoice</text>
</g>
<!-- Create Purchase Order Item_var2_step1&#45;&gt;Vendor creates invoice_var2_step2 -->
<g id="edge12" class="edge">
<title>Create Purchase Order Item_var2_step1&#45;&gt;Vendor creates invoice_var2_step2</title>
<path fill="none" stroke="black" d="M405.28,-288C414.06,-288 422.97,-288 431.72,-288"/>
<polygon fill="black" stroke="black" points="431.58,-291.5 441.58,-288 431.58,-284.5 431.58,-291.5"/>
</g>
<!-- Record Goods Receipt_var2_step3 -->
<g id="node19" class="node">
<title>Record Goods Receipt_var2_step3</title>
<polygon fill="lightgrey" stroke="black" points="764.5,-306 624.5,-306 624.5,-270 764.5,-270 764.5,-306"/>
<text text-anchor="middle" x="694.5" y="-284.3" font-family="Times,serif" font-size="14.00">Record Goods Receipt</text>
</g>
<!-- Vendor creates invoice_var2_step2&#45;&gt;Record Goods Receipt_var2_step3 -->
<g id="edge13" class="edge">
<title>Vendor creates invoice_var2_step2&#45;&gt;Record Goods Receipt_var2_step3</title>
<path fill="none" stroke="black" d="M583.96,-288C593.43,-288 603.21,-288 612.85,-288"/>
<polygon fill="black" stroke="black" points="612.56,-291.5 622.56,-288 612.56,-284.5 612.56,-291.5"/>
</g>
<!-- Record Invoice Receipt_var2_step4 -->
<g id="node20" class="node">
<title>Record Invoice Receipt_var2_step4</title>
<polygon fill="lightgrey" stroke="black" points="950.5,-306 805.5,-306 805.5,-270 950.5,-270 950.5,-306"/>
<text text-anchor="middle" x="878" y="-284.3" font-family="Times,serif" font-size="14.00">Record Invoice Receipt</text>
</g>
<!-- Record Goods Receipt_var2_step3&#45;&gt;Record Invoice Receipt_var2_step4 -->
<g id="edge14" class="edge">
<title>Record Goods Receipt_var2_step3&#45;&gt;Record Invoice Receipt_var2_step4</title>
<path fill="none" stroke="black" d="M764.89,-288C774.39,-288 784.21,-288 793.92,-288"/>
<polygon fill="black" stroke="black" points="793.72,-291.5 803.72,-288 793.72,-284.5 793.72,-291.5"/>
</g>
<!-- Clear Invoice_var2_step5 -->
<g id="node21" class="node">
<title>Clear Invoice_var2_step5</title>
<polygon fill="lightgrey" stroke="black" points="1079,-306 989,-306 989,-270 1079,-270 1079,-306"/>
<text text-anchor="middle" x="1034" y="-284.3" font-family="Times,serif" font-size="14.00">Clear Invoice</text>
</g>
<!-- Record Invoice Receipt_var2_step4&#45;&gt;Clear Invoice_var2_step5 -->
<g id="edge15" class="edge">
<title>Record Invoice Receipt_var2_step4&#45;&gt;Clear Invoice_var2_step5</title>
<path fill="none" stroke="black" d="M950.59,-288C959.66,-288 968.82,-288 977.58,-288"/>
<polygon fill="black" stroke="black" points="977.31,-291.5 987.31,-288 977.31,-284.5 977.31,-291.5"/>
</g>
<!-- start_node_var3 -->
<g id="node22" class="node">
<title>start_node_var3</title>
<text text-anchor="middle" x="100" y="-338.3" font-family="Times,serif" font-size="14.00">8304 traces</text>
</g>
<!-- Create Purchase Order Item_var3_step0 -->
<g id="node23" class="node">
<title>Create Purchase Order Item_var3_step0</title>
<polygon fill="lightgrey" stroke="black" points="184.5,-414 15.5,-414 15.5,-378 184.5,-378 184.5,-414"/>
<text text-anchor="middle" x="100" y="-392.3" font-family="Times,serif" font-size="14.00">Create Purchase Order Item</text>
</g>
<!-- Record Goods Receipt_var3_step1 -->
<g id="node24" class="node">
<title>Record Goods Receipt_var3_step1</title>
<polygon fill="lightgrey" stroke="black" points="390.5,-414 250.5,-414 250.5,-378 390.5,-378 390.5,-414"/>
<text text-anchor="middle" x="320.5" y="-392.3" font-family="Times,serif" font-size="14.00">Record Goods Receipt</text>
</g>
<!-- Create Purchase Order Item_var3_step0&#45;&gt;Record Goods Receipt_var3_step1 -->
<g id="edge16" class="edge">
<title>Create Purchase Order Item_var3_step0&#45;&gt;Record Goods Receipt_var3_step1</title>
<path fill="none" stroke="black" d="M184.85,-396C202.52,-396 221.13,-396 238.69,-396"/>
<polygon fill="black" stroke="black" points="238.54,-399.5 248.54,-396 238.54,-392.5 238.54,-399.5"/>
</g>
<!-- Vendor creates invoice_var3_step2 -->
<g id="node25" class="node">
<title>Vendor creates invoice_var3_step2</title>
<polygon fill="lightgrey" stroke="black" points="583.5,-414 443.5,-414 443.5,-378 583.5,-378 583.5,-414"/>
<text text-anchor="middle" x="513.5" y="-392.3" font-family="Times,serif" font-size="14.00">Vendor creates invoice</text>
</g>
<!-- Record Goods Receipt_var3_step1&#45;&gt;Vendor creates invoice_var3_step2 -->
<g id="edge17" class="edge">
<title>Record Goods Receipt_var3_step1&#45;&gt;Vendor creates invoice_var3_step2</title>
<path fill="none" stroke="black" d="M391,-396C404.25,-396 418.22,-396 431.78,-396"/>
<polygon fill="black" stroke="black" points="431.54,-399.5 441.54,-396 431.54,-392.5 431.54,-399.5"/>
</g>
<!-- Record Invoice Receipt_var3_step3 -->
<g id="node26" class="node">
<title>Record Invoice Receipt_var3_step3</title>
<polygon fill="lightgrey" stroke="black" points="767,-414 622,-414 622,-378 767,-378 767,-414"/>
<text text-anchor="middle" x="694.5" y="-392.3" font-family="Times,serif" font-size="14.00">Record Invoice Receipt</text>
</g>
<!-- Vendor creates invoice_var3_step2&#45;&gt;Record Invoice Receipt_var3_step3 -->
<g id="edge18" class="edge">
<title>Vendor creates invoice_var3_step2&#45;&gt;Record Invoice Receipt_var3_step3</title>
<path fill="none" stroke="black" d="M583.96,-396C592.57,-396 601.44,-396 610.23,-396"/>
<polygon fill="black" stroke="black" points="610.2,-399.5 620.2,-396 610.2,-392.5 610.2,-399.5"/>
</g>
<!-- Clear Invoice_var3_step4 -->
<g id="node27" class="node">
<title>Clear Invoice_var3_step4</title>
<polygon fill="lightgrey" stroke="black" points="923,-414 833,-414 833,-378 923,-378 923,-414"/>
<text text-anchor="middle" x="878" y="-392.3" font-family="Times,serif" font-size="14.00">Clear Invoice</text>
</g>
<!-- Record Invoice Receipt_var3_step3&#45;&gt;Clear Invoice_var3_step4 -->
<g id="edge19" class="edge">
<title>Record Invoice Receipt_var3_step3&#45;&gt;Clear Invoice_var3_step4</title>
<path fill="none" stroke="black" d="M767.49,-396C785.35,-396 804.21,-396 821.16,-396"/>
<polygon fill="black" stroke="black" points="821.04,-399.5 831.04,-396 821.04,-392.5 821.04,-399.5"/>
</g>
<!-- start_node_var4 -->
<g id="node28" class="node">
<title>start_node_var4</title>
<text text-anchor="middle" x="100" y="-446.3" font-family="Times,serif" font-size="14.00">26413 traces</text>
</g>
<!-- Create Purchase Order Item_var4_step0 -->
<g id="node29" class="node">
<title>Create Purchase Order Item_var4_step0</title>
<polygon fill="lightgrey" stroke="black" points="184.5,-522 15.5,-522 15.5,-486 184.5,-486 184.5,-522"/>
<text text-anchor="middle" x="100" y="-500.3" font-family="Times,serif" font-size="14.00">Create Purchase Order Item</text>
</g>
<!-- Vendor creates invoice_var4_step1 -->
<g id="node30" class="node">
<title>Vendor creates invoice_var4_step1</title>
<polygon fill="lightgrey" stroke="black" points="390.5,-522 250.5,-522 250.5,-486 390.5,-486 390.5,-522"/>
<text text-anchor="middle" x="320.5" y="-500.3" font-family="Times,serif" font-size="14.00">Vendor creates invoice</text>
</g>
<!-- Create Purchase Order Item_var4_step0&#45;&gt;Vendor creates invoice_var4_step1 -->
<g id="edge20" class="edge">
<title>Create Purchase Order Item_var4_step0&#45;&gt;Vendor creates invoice_var4_step1</title>
<path fill="none" stroke="black" d="M184.85,-504C202.52,-504 221.13,-504 238.69,-504"/>
<polygon fill="black" stroke="black" points="238.54,-507.5 248.54,-504 238.54,-500.5 238.54,-507.5"/>
</g>
<!-- Record Goods Receipt_var4_step2 -->
<g id="node31" class="node">
<title>Record Goods Receipt_var4_step2</title>
<polygon fill="lightgrey" stroke="black" points="583.5,-522 443.5,-522 443.5,-486 583.5,-486 583.5,-522"/>
<text text-anchor="middle" x="513.5" y="-500.3" font-family="Times,serif" font-size="14.00">Record Goods Receipt</text>
</g>
<!-- Vendor creates invoice_var4_step1&#45;&gt;Record Goods Receipt_var4_step2 -->
<g id="edge21" class="edge">
<title>Vendor creates invoice_var4_step1&#45;&gt;Record Goods Receipt_var4_step2</title>
<path fill="none" stroke="black" d="M391,-504C404.25,-504 418.22,-504 431.78,-504"/>
<polygon fill="black" stroke="black" points="431.54,-507.5 441.54,-504 431.54,-500.5 431.54,-507.5"/>
</g>
<!-- Record Invoice Receipt_var4_step3 -->
<g id="node32" class="node">
<title>Record Invoice Receipt_var4_step3</title>
<polygon fill="lightgrey" stroke="black" points="767,-522 622,-522 622,-486 767,-486 767,-522"/>
<text text-anchor="middle" x="694.5" y="-500.3" font-family="Times,serif" font-size="14.00">Record Invoice Receipt</text>
</g>
<!-- Record Goods Receipt_var4_step2&#45;&gt;Record Invoice Receipt_var4_step3 -->
<g id="edge22" class="edge">
<title>Record Goods Receipt_var4_step2&#45;&gt;Record Invoice Receipt_var4_step3</title>
<path fill="none" stroke="black" d="M583.96,-504C592.57,-504 601.44,-504 610.23,-504"/>
<polygon fill="black" stroke="black" points="610.2,-507.5 620.2,-504 610.2,-500.5 610.2,-507.5"/>
</g>
<!-- Clear Invoice_var4_step4 -->
<g id="node33" class="node">
<title>Clear Invoice_var4_step4</title>
<polygon fill="lightgrey" stroke="black" points="923,-522 833,-522 833,-486 923,-486 923,-522"/>
<text text-anchor="middle" x="878" y="-500.3" font-family="Times,serif" font-size="14.00">Clear Invoice</text>
</g>
<!-- Record Invoice Receipt_var4_step3&#45;&gt;Clear Invoice_var4_step4 -->
<g id="edge23" class="edge">
<title>Record Invoice Receipt_var4_step3&#45;&gt;Clear Invoice_var4_step4</title>
<path fill="none" stroke="black" d="M767.49,-504C785.35,-504 804.21,-504 821.16,-504"/>
<polygon fill="black" stroke="black" points="821.04,-507.5 831.04,-504 821.04,-500.5 821.04,-507.5"/>
</g>
</g>
</svg>
