<?xml version="1.0" encoding="UTF-8" standalone="no"?>
<!DOCTYPE svg PUBLIC "-//W3C//DTD SVG 1.1//EN"
 "http://www.w3.org/Graphics/SVG/1.1/DTD/svg11.dtd">
<!-- Generated by graphviz version 7.1.0 (0)
 -->
<!-- Pages: 1 -->
<svg width="1552pt" height="206pt"
 viewBox="0.00 0.00 1552.00 206.00" xmlns="http://www.w3.org/2000/svg" xmlns:xlink="http://www.w3.org/1999/xlink">
<g id="graph0" class="graph" transform="scale(1 1) rotate(0) translate(4 202)">
<polygon fill="white" stroke="none" points="-4,4 -4,-202 1548,-202 1548,4 -4,4"/>
<!-- start_node_var0 -->
<g id="node1" class="node">
<title>start_node_var0</title>
<text text-anchor="middle" x="84.5" y="-14.3" font-family="Times,serif" font-size="14.00">35 traces</text>
</g>
<!-- Create Purchase Order Item_var0_step0 -->
<g id="node2" class="node">
<title>Create Purchase Order Item_var0_step0</title>
<polygon fill="lightgrey" stroke="black" points="169,-90 0,-90 0,-54 169,-54 169,-90"/>
<text text-anchor="middle" x="84.5" y="-68.3" font-family="Times,serif" font-size="14.00">Create Purchase Order Item</text>
</g>
<!-- Vendor creates debit memo_var0_step1 -->
<g id="node3" class="node">
<title>Vendor creates debit memo_var0_step1</title>
<polygon fill="lightgrey" stroke="black" points="372,-90 205,-90 205,-54 372,-54 372,-90"/>
<text text-anchor="middle" x="288.5" y="-68.3" font-family="Times,serif" font-size="14.00">Vendor creates debit memo</text>
</g>
<!-- Create Purchase Order Item_var0_step0&#45;&gt;Vendor creates debit memo_var0_step1 -->
<g id="edge1" class="edge">
<title>Create Purchase Order Item_var0_step0&#45;&gt;Vendor creates debit memo_var0_step1</title>
<path fill="none" stroke="black" d="M169.41,-72C177.37,-72 185.47,-72 193.51,-72"/>
<polygon fill="black" stroke="black" points="193.31,-75.5 203.31,-72 193.31,-68.5 193.31,-75.5"/>
</g>
<!-- Vendor creates invoice_var0_step2 -->
<g id="node4" class="node">
<title>Vendor creates invoice_var0_step2</title>
<polygon fill="lightgrey" stroke="black" points="561.5,-90 421.5,-90 421.5,-54 561.5,-54 561.5,-90"/>
<text text-anchor="middle" x="491.5" y="-68.3" font-family="Times,serif" font-size="14.00">Vendor creates invoice</text>
</g>
<!-- Vendor creates debit memo_var0_step1&#45;&gt;Vendor creates invoice_var0_step2 -->
<g id="edge2" class="edge">
<title>Vendor creates debit memo_var0_step1&#45;&gt;Vendor creates invoice_var0_step2</title>
<path fill="none" stroke="black" d="M372.41,-72C384.83,-72 397.62,-72 409.99,-72"/>
<polygon fill="black" stroke="black" points="409.69,-75.5 419.69,-72 409.69,-68.5 409.69,-75.5"/>
</g>
<!-- Record Goods Receipt_var0_step3 -->
<g id="node5" class="node">
<title>Record Goods Receipt_var0_step3</title>
<polygon fill="lightgrey" stroke="black" points="751,-90 611,-90 611,-54 751,-54 751,-90"/>
<text text-anchor="middle" x="681" y="-68.3" font-family="Times,serif" font-size="14.00">Record Goods Receipt</text>
</g>
<!-- Vendor creates invoice_var0_step2&#45;&gt;Record Goods Receipt_var0_step3 -->
<g id="edge3" class="edge">
<title>Vendor creates invoice_var0_step2&#45;&gt;Record Goods Receipt_var0_step3</title>
<path fill="none" stroke="black" d="M561.79,-72C574.01,-72 586.82,-72 599.32,-72"/>
<polygon fill="black" stroke="black" points="599.17,-75.5 609.17,-72 599.17,-68.5 599.17,-75.5"/>
</g>
<!-- Record Invoice Receipt_var0_step4 -->
<g id="node6" class="node">
<title>Record Invoice Receipt_var0_step4</title>
<polygon fill="lightgrey" stroke="black" points="932,-90 787,-90 787,-54 932,-54 932,-90"/>
<text text-anchor="middle" x="859.5" y="-68.3" font-family="Times,serif" font-size="14.00">Record Invoice Receipt</text>
</g>
<!-- Record Goods Receipt_var0_step3&#45;&gt;Record Invoice Receipt_var0_step4 -->
<g id="edge4" class="edge">
<title>Record Goods Receipt_var0_step3&#45;&gt;Record Invoice Receipt_var0_step4</title>
<path fill="none" stroke="black" d="M751.25,-72C759.13,-72 767.22,-72 775.25,-72"/>
<polygon fill="black" stroke="black" points="775.03,-75.5 785.03,-72 775.03,-68.5 775.03,-75.5"/>
</g>
<!-- Clear Invoice_var0_step5 -->
<g id="node7" class="node">
<title>Clear Invoice_var0_step5</title>
<polygon fill="lightgrey" stroke="black" points="1058,-90 968,-90 968,-54 1058,-54 1058,-90"/>
<text text-anchor="middle" x="1013" y="-68.3" font-family="Times,serif" font-size="14.00">Clear Invoice</text>
</g>
<!-- Record Invoice Receipt_var0_step4&#45;&gt;Clear Invoice_var0_step5 -->
<g id="edge5" class="edge">
<title>Record Invoice Receipt_var0_step4&#45;&gt;Clear Invoice_var0_step5</title>
<path fill="none" stroke="black" d="M932.26,-72C940.38,-72 948.56,-72 956.42,-72"/>
<polygon fill="black" stroke="black" points="956.17,-75.5 966.17,-72 956.17,-68.5 956.17,-75.5"/>
</g>
<!-- Cancel Invoice Receipt_var0_step6 -->
<g id="node8" class="node">
<title>Cancel Invoice Receipt_var0_step6</title>
<polygon fill="lightgrey" stroke="black" points="1237,-90 1094,-90 1094,-54 1237,-54 1237,-90"/>
<text text-anchor="middle" x="1165.5" y="-68.3" font-family="Times,serif" font-size="14.00">Cancel Invoice Receipt</text>
</g>
<!-- Clear Invoice_var0_step5&#45;&gt;Cancel Invoice Receipt_var0_step6 -->
<g id="edge6" class="edge">
<title>Clear Invoice_var0_step5&#45;&gt;Cancel Invoice Receipt_var0_step6</title>
<path fill="none" stroke="black" d="M1058.34,-72C1065.97,-72 1074.11,-72 1082.37,-72"/>
<polygon fill="black" stroke="black" points="1082.14,-75.5 1092.14,-72 1082.14,-68.5 1082.14,-75.5"/>
</g>
<!-- Record Invoice Receipt_var0_step7 -->
<g id="node9" class="node">
<title>Record Invoice Receipt_var0_step7</title>
<polygon fill="lightgrey" stroke="black" points="1418,-90 1273,-90 1273,-54 1418,-54 1418,-90"/>
<text text-anchor="middle" x="1345.5" y="-68.3" font-family="Times,serif" font-size="14.00">Record Invoice Receipt</text>
</g>
<!-- Cancel Invoice Receipt_var0_step6&#45;&gt;Record Invoice Receipt_var0_step7 -->
<g id="edge7" class="edge">
<title>Cancel Invoice Receipt_var0_step6&#45;&gt;Record Invoice Receipt_var0_step7</title>
<path fill="none" stroke="black" d="M1237.36,-72C1245.27,-72 1253.38,-72 1261.42,-72"/>
<polygon fill="black" stroke="black" points="1261.2,-75.5 1271.2,-72 1261.2,-68.5 1261.2,-75.5"/>
</g>
<!-- Clear Invoice_var0_step8 -->
<g id="node10" class="node">
<title>Clear Invoice_var0_step8</title>
<polygon fill="lightgrey" stroke="black" points="1544,-90 1454,-90 1454,-54 1544,-54 1544,-90"/>
<text text-anchor="middle" x="1499" y="-68.3" font-family="Times,serif" font-size="14.00">Clear Invoice</text>
</g>
<!-- Record Invoice Receipt_var0_step7&#45;&gt;Clear Invoice_var0_step8 -->
<g id="edge8" class="edge">
<title>Record Invoice Receipt_var0_step7&#45;&gt;Clear Invoice_var0_step8</title>
<path fill="none" stroke="black" d="M1418.26,-72C1426.38,-72 1434.56,-72 1442.42,-72"/>
<polygon fill="black" stroke="black" points="1442.17,-75.5 1452.17,-72 1442.17,-68.5 1442.17,-75.5"/>
</g>
<!-- start_node_var1 -->
<g id="node11" class="node">
<title>start_node_var1</title>
<text text-anchor="middle" x="84.5" y="-122.3" font-family="Times,serif" font-size="14.00">36 traces</text>
</g>
<!-- Create Purchase Order Item_var1_step0 -->
<g id="node12" class="node">
<title>Create Purchase Order Item_var1_step0</title>
<polygon fill="lightgrey" stroke="black" points="169,-198 0,-198 0,-162 169,-162 169,-198"/>
<text text-anchor="middle" x="84.5" y="-176.3" font-family="Times,serif" font-size="14.00">Create Purchase Order Item</text>
</g>
<!-- Vendor creates invoice_var1_step1 -->
<g id="node13" class="node">
<title>Vendor creates invoice_var1_step1</title>
<polygon fill="lightgrey" stroke="black" points="358.5,-198 218.5,-198 218.5,-162 358.5,-162 358.5,-198"/>
<text text-anchor="middle" x="288.5" y="-176.3" font-family="Times,serif" font-size="14.00">Vendor creates invoice</text>
</g>
<!-- Create Purchase Order Item_var1_step0&#45;&gt;Vendor creates invoice_var1_step1 -->
<g id="edge9" class="edge">
<title>Create Purchase Order Item_var1_step0&#45;&gt;Vendor creates invoice_var1_step1</title>
<path fill="none" stroke="black" d="M169.41,-180C181.86,-180 194.67,-180 207.04,-180"/>
<polygon fill="black" stroke="black" points="206.75,-183.5 216.75,-180 206.75,-176.5 206.75,-183.5"/>
</g>
<!-- Vendor creates debit memo_var1_step2 -->
<g id="node14" class="node">
<title>Vendor creates debit memo_var1_step2</title>
<polygon fill="lightgrey" stroke="black" points="575,-198 408,-198 408,-162 575,-162 575,-198"/>
<text text-anchor="middle" x="491.5" y="-176.3" font-family="Times,serif" font-size="14.00">Vendor creates debit memo</text>
</g>
<!-- Vendor creates invoice_var1_step1&#45;&gt;Vendor creates debit memo_var1_step2 -->
<g id="edge10" class="edge">
<title>Vendor creates invoice_var1_step1&#45;&gt;Vendor creates debit memo_var1_step2</title>
<path fill="none" stroke="black" d="M358.95,-180C370.94,-180 383.59,-180 396.1,-180"/>
<polygon fill="black" stroke="black" points="396.03,-183.5 406.03,-180 396.03,-176.5 396.03,-183.5"/>
</g>
<!-- Record Goods Receipt_var1_step3 -->
<g id="node15" class="node">
<title>Record Goods Receipt_var1_step3</title>
<polygon fill="lightgrey" stroke="black" points="751,-198 611,-198 611,-162 751,-162 751,-198"/>
<text text-anchor="middle" x="681" y="-176.3" font-family="Times,serif" font-size="14.00">Record Goods Receipt</text>
</g>
<!-- Vendor creates debit memo_var1_step2&#45;&gt;Record Goods Receipt_var1_step3 -->
<g id="edge11" class="edge">
<title>Vendor creates debit memo_var1_step2&#45;&gt;Record Goods Receipt_var1_step3</title>
<path fill="none" stroke="black" d="M575.29,-180C583.2,-180 591.21,-180 599.1,-180"/>
<polygon fill="black" stroke="black" points="599.03,-183.5 609.03,-180 599.03,-176.5 599.03,-183.5"/>
</g>
<!-- Record Invoice Receipt_var1_step4 -->
<g id="node16" class="node">
<title>Record Invoice Receipt_var1_step4</title>
<polygon fill="lightgrey" stroke="black" points="932,-198 787,-198 787,-162 932,-162 932,-198"/>
<text text-anchor="middle" x="859.5" y="-176.3" font-family="Times,serif" font-size="14.00">Record Invoice Receipt</text>
</g>
<!-- Record Goods Receipt_var1_step3&#45;&gt;Record Invoice Receipt_var1_step4 -->
<g id="edge12" class="edge">
<title>Record Goods Receipt_var1_step3&#45;&gt;Record Invoice Receipt_var1_step4</title>
<path fill="none" stroke="black" d="M751.25,-180C759.13,-180 767.22,-180 775.25,-180"/>
<polygon fill="black" stroke="black" points="775.03,-183.5 785.03,-180 775.03,-176.5 775.03,-183.5"/>
</g>
<!-- Clear Invoice_var1_step5 -->
<g id="node17" class="node">
<title>Clear Invoice_var1_step5</title>
<polygon fill="lightgrey" stroke="black" points="1058,-198 968,-198 968,-162 1058,-162 1058,-198"/>
<text text-anchor="middle" x="1013" y="-176.3" font-family="Times,serif" font-size="14.00">Clear Invoice</text>
</g>
<!-- Record Invoice Receipt_var1_step4&#45;&gt;Clear Invoice_var1_step5 -->
<g id="edge13" class="edge">
<title>Record Invoice Receipt_var1_step4&#45;&gt;Clear Invoice_var1_step5</title>
<path fill="none" stroke="black" d="M932.26,-180C940.38,-180 948.56,-180 956.42,-180"/>
<polygon fill="black" stroke="black" points="956.17,-183.5 966.17,-180 956.17,-176.5 956.17,-183.5"/>
</g>
<!-- Cancel Invoice Receipt_var1_step6 -->
<g id="node18" class="node">
<title>Cancel Invoice Receipt_var1_step6</title>
<polygon fill="lightgrey" stroke="black" points="1237,-198 1094,-198 1094,-162 1237,-162 1237,-198"/>
<text text-anchor="middle" x="1165.5" y="-176.3" font-family="Times,serif" font-size="14.00">Cancel Invoice Receipt</text>
</g>
<!-- Clear Invoice_var1_step5&#45;&gt;Cancel Invoice Receipt_var1_step6 -->
<g id="edge14" class="edge">
<title>Clear Invoice_var1_step5&#45;&gt;Cancel Invoice Receipt_var1_step6</title>
<path fill="none" stroke="black" d="M1058.34,-180C1065.97,-180 1074.11,-180 1082.37,-180"/>
<polygon fill="black" stroke="black" points="1082.14,-183.5 1092.14,-180 1082.14,-176.5 1082.14,-183.5"/>
</g>
<!-- Record Invoice Receipt_var1_step7 -->
<g id="node19" class="node">
<title>Record Invoice Receipt_var1_step7</title>
<polygon fill="lightgrey" stroke="black" points="1418,-198 1273,-198 1273,-162 1418,-162 1418,-198"/>
<text text-anchor="middle" x="1345.5" y="-176.3" font-family="Times,serif" font-size="14.00">Record Invoice Receipt</text>
</g>
<!-- Cancel Invoice Receipt_var1_step6&#45;&gt;Record Invoice Receipt_var1_step7 -->
<g id="edge15" class="edge">
<title>Cancel Invoice Receipt_var1_step6&#45;&gt;Record Invoice Receipt_var1_step7</title>
<path fill="none" stroke="black" d="M1237.36,-180C1245.27,-180 1253.38,-180 1261.42,-180"/>
<polygon fill="black" stroke="black" points="1261.2,-183.5 1271.2,-180 1261.2,-176.5 1261.2,-183.5"/>
</g>
<!-- Clear Invoice_var1_step8 -->
<g id="node20" class="node">
<title>Clear Invoice_var1_step8</title>
<polygon fill="lightgrey" stroke="black" points="1544,-198 1454,-198 1454,-162 1544,-162 1544,-198"/>
<text text-anchor="middle" x="1499" y="-176.3" font-family="Times,serif" font-size="14.00">Clear Invoice</text>
</g>
<!-- Record Invoice Receipt_var1_step7&#45;&gt;Clear Invoice_var1_step8 -->
<g id="edge16" class="edge">
<title>Record Invoice Receipt_var1_step7&#45;&gt;Clear Invoice_var1_step8</title>
<path fill="none" stroke="black" d="M1418.26,-180C1426.38,-180 1434.56,-180 1442.42,-180"/>
<polygon fill="black" stroke="black" points="1442.17,-183.5 1452.17,-180 1442.17,-176.5 1442.17,-183.5"/>
</g>
</g>
</svg>
