<?xml version="1.0" encoding="UTF-8" standalone="no"?>
<!DOCTYPE svg PUBLIC "-//W3C//DTD SVG 1.1//EN"
 "http://www.w3.org/Graphics/SVG/1.1/DTD/svg11.dtd">
<!-- Generated by graphviz version 7.1.0 (0)
 -->
<!-- Pages: 1 -->
<svg width="589pt" height="530pt"
 viewBox="0.00 0.00 589.00 530.00" xmlns="http://www.w3.org/2000/svg" xmlns:xlink="http://www.w3.org/1999/xlink">
<g id="graph0" class="graph" transform="scale(1 1) rotate(0) translate(4 526)">
<polygon fill="white" stroke="none" points="-4,4 -4,-526 585,-526 585,4 -4,4"/>
<!-- start_node_var0 -->
<g id="node1" class="node">
<title>start_node_var0</title>
<text text-anchor="middle" x="100" y="-14.3" font-family="Times,serif" font-size="14.00">722 traces</text>
</g>
<!-- Create Purchase Requisition Item_var0_step0 -->
<g id="node2" class="node">
<title>Create Purchase Requisition Item_var0_step0</title>
<polygon fill="lightgrey" stroke="black" points="200,-90 0,-90 0,-54 200,-54 200,-90"/>
<text text-anchor="middle" x="100" y="-68.3" font-family="Times,serif" font-size="14.00">Create Purchase Requisition Item</text>
</g>
<!-- Create Purchase Order Item_var0_step1 -->
<g id="node3" class="node">
<title>Create Purchase Order Item_var0_step1</title>
<polygon fill="lightgrey" stroke="black" points="405,-90 236,-90 236,-54 405,-54 405,-90"/>
<text text-anchor="middle" x="320.5" y="-68.3" font-family="Times,serif" font-size="14.00">Create Purchase Order Item</text>
</g>
<!-- Create Purchase Requisition Item_var0_step0&#45;&gt;Create Purchase Order Item_var0_step1 -->
<g id="edge1" class="edge">
<title>Create Purchase Requisition Item_var0_step0&#45;&gt;Create Purchase Order Item_var0_step1</title>
<path fill="none" stroke="black" d="M200.34,-72C208.39,-72 216.5,-72 224.52,-72"/>
<polygon fill="black" stroke="black" points="224.25,-75.5 234.25,-72 224.25,-68.5 224.25,-75.5"/>
</g>
<!-- start_node_var1 -->
<g id="node4" class="node">
<title>start_node_var1</title>
<text text-anchor="middle" x="100" y="-122.3" font-family="Times,serif" font-size="14.00">912 traces</text>
</g>
<!-- Create Purchase Order Item_var1_step0 -->
<g id="node5" class="node">
<title>Create Purchase Order Item_var1_step0</title>
<polygon fill="lightgrey" stroke="black" points="184.5,-198 15.5,-198 15.5,-162 184.5,-162 184.5,-198"/>
<text text-anchor="middle" x="100" y="-176.3" font-family="Times,serif" font-size="14.00">Create Purchase Order Item</text>
</g>
<!-- start_node_var2 -->
<g id="node6" class="node">
<title>start_node_var2</title>
<text text-anchor="middle" x="100" y="-230.3" font-family="Times,serif" font-size="14.00">2107 traces</text>
</g>
<!-- Create Purchase Requisition Item_var2_step0 -->
<g id="node7" class="node">
<title>Create Purchase Requisition Item_var2_step0</title>
<polygon fill="lightgrey" stroke="black" points="200,-306 0,-306 0,-270 200,-270 200,-306"/>
<text text-anchor="middle" x="100" y="-284.3" font-family="Times,serif" font-size="14.00">Create Purchase Requisition Item</text>
</g>
<!-- Create Purchase Order Item_var2_step1 -->
<g id="node8" class="node">
<title>Create Purchase Order Item_var2_step1</title>
<polygon fill="lightgrey" stroke="black" points="405,-306 236,-306 236,-270 405,-270 405,-306"/>
<text text-anchor="middle" x="320.5" y="-284.3" font-family="Times,serif" font-size="14.00">Create Purchase Order Item</text>
</g>
<!-- Create Purchase Requisition Item_var2_step0&#45;&gt;Create Purchase Order Item_var2_step1 -->
<g id="edge2" class="edge">
<title>Create Purchase Requisition Item_var2_step0&#45;&gt;Create Purchase Order Item_var2_step1</title>
<path fill="none" stroke="black" d="M200.34,-288C208.39,-288 216.5,-288 224.52,-288"/>
<polygon fill="black" stroke="black" points="224.25,-291.5 234.25,-288 224.25,-284.5 224.25,-291.5"/>
</g>
<!-- Record Goods Receipt_var2_step2 -->
<g id="node9" class="node">
<title>Record Goods Receipt_var2_step2</title>
<polygon fill="lightgrey" stroke="black" points="581,-306 441,-306 441,-270 581,-270 581,-306"/>
<text text-anchor="middle" x="511" y="-284.3" font-family="Times,serif" font-size="14.00">Record Goods Receipt</text>
</g>
<!-- Create Purchase Order Item_var2_step1&#45;&gt;Record Goods Receipt_var2_step2 -->
<g id="edge3" class="edge">
<title>Create Purchase Order Item_var2_step1&#45;&gt;Record Goods Receipt_var2_step2</title>
<path fill="none" stroke="black" d="M405.28,-288C413.2,-288 421.23,-288 429.13,-288"/>
<polygon fill="black" stroke="black" points="429.07,-291.5 439.07,-288 429.07,-284.5 429.07,-291.5"/>
</g>
<!-- start_node_var3 -->
<g id="node10" class="node">
<title>start_node_var3</title>
<text text-anchor="middle" x="100" y="-338.3" font-family="Times,serif" font-size="14.00">2551 traces</text>
</g>
<!-- Create Purchase Order Item_var3_step0 -->
<g id="node11" class="node">
<title>Create Purchase Order Item_var3_step0</title>
<polygon fill="lightgrey" stroke="black" points="184.5,-414 15.5,-414 15.5,-378 184.5,-378 184.5,-414"/>
<text text-anchor="middle" x="100" y="-392.3" font-family="Times,serif" font-size="14.00">Create Purchase Order Item</text>
</g>
<!-- Delete Purchase Order Item_var3_step1 -->
<g id="node12" class="node">
<title>Delete Purchase Order Item_var3_step1</title>
<polygon fill="lightgrey" stroke="black" points="405,-414 236,-414 236,-378 405,-378 405,-414"/>
<text text-anchor="middle" x="320.5" y="-392.3" font-family="Times,serif" font-size="14.00">Delete Purchase Order Item</text>
</g>
<!-- Create Purchase Order Item_var3_step0&#45;&gt;Delete Purchase Order Item_var3_step1 -->
<g id="edge4" class="edge">
<title>Create Purchase Order Item_var3_step0&#45;&gt;Delete Purchase Order Item_var3_step1</title>
<path fill="none" stroke="black" d="M184.85,-396C197.7,-396 211.04,-396 224.11,-396"/>
<polygon fill="black" stroke="black" points="224,-399.5 234,-396 224,-392.5 224,-399.5"/>
</g>
<!-- start_node_var4 -->
<g id="node13" class="node">
<title>start_node_var4</title>
<text text-anchor="middle" x="100" y="-446.3" font-family="Times,serif" font-size="14.00">8149 traces</text>
</g>
<!-- Create Purchase Order Item_var4_step0 -->
<g id="node14" class="node">
<title>Create Purchase Order Item_var4_step0</title>
<polygon fill="lightgrey" stroke="black" points="184.5,-522 15.5,-522 15.5,-486 184.5,-486 184.5,-522"/>
<text text-anchor="middle" x="100" y="-500.3" font-family="Times,serif" font-size="14.00">Create Purchase Order Item</text>
</g>
<!-- Record Goods Receipt_var4_step1 -->
<g id="node15" class="node">
<title>Record Goods Receipt_var4_step1</title>
<polygon fill="lightgrey" stroke="black" points="390.5,-522 250.5,-522 250.5,-486 390.5,-486 390.5,-522"/>
<text text-anchor="middle" x="320.5" y="-500.3" font-family="Times,serif" font-size="14.00">Record Goods Receipt</text>
</g>
<!-- Create Purchase Order Item_var4_step0&#45;&gt;Record Goods Receipt_var4_step1 -->
<g id="edge5" class="edge">
<title>Create Purchase Order Item_var4_step0&#45;&gt;Record Goods Receipt_var4_step1</title>
<path fill="none" stroke="black" d="M184.85,-504C202.52,-504 221.13,-504 238.69,-504"/>
<polygon fill="black" stroke="black" points="238.54,-507.5 248.54,-504 238.54,-500.5 238.54,-507.5"/>
</g>
</g>
</svg>
