<?xml version="1.0" encoding="UTF-8" standalone="no"?>
<!DOCTYPE svg PUBLIC "-//W3C//DTD SVG 1.1//EN"
 "http://www.w3.org/Graphics/SVG/1.1/DTD/svg11.dtd">
<!-- Generated by graphviz version 7.1.0 (0)
 -->
<!-- Pages: 1 -->
<svg width="1746pt" height="206pt"
 viewBox="0.00 0.00 1746.00 206.00" xmlns="http://www.w3.org/2000/svg" xmlns:xlink="http://www.w3.org/1999/xlink">
<g id="graph0" class="graph" transform="scale(1 1) rotate(0) translate(4 202)">
<polygon fill="white" stroke="none" points="-4,4 -4,-202 1742,-202 1742,4 -4,4"/>
<!-- start_node_var0 -->
<g id="node1" class="node">
<title>start_node_var0</title>
<text text-anchor="middle" x="84.5" y="-14.3" font-family="Times,serif" font-size="14.00">48 traces</text>
</g>
<!-- Create Purchase Order Item_var0_step0 -->
<g id="node2" class="node">
<title>Create Purchase Order Item_var0_step0</title>
<polygon fill="lightgrey" stroke="black" points="169,-90 0,-90 0,-54 169,-54 169,-90"/>
<text text-anchor="middle" x="84.5" y="-68.3" font-family="Times,serif" font-size="14.00">Create Purchase Order Item</text>
</g>
<!-- Vendor creates invoice_var0_step1 -->
<g id="node3" class="node">
<title>Vendor creates invoice_var0_step1</title>
<polygon fill="lightgrey" stroke="black" points="361.5,-90 221.5,-90 221.5,-54 361.5,-54 361.5,-90"/>
<text text-anchor="middle" x="291.5" y="-68.3" font-family="Times,serif" font-size="14.00">Vendor creates invoice</text>
</g>
<!-- Create Purchase Order Item_var0_step0&#45;&gt;Vendor creates invoice_var0_step1 -->
<g id="edge1" class="edge">
<title>Create Purchase Order Item_var0_step0&#45;&gt;Vendor creates invoice_var0_step1</title>
<path fill="none" stroke="black" d="M169.47,-72C182.73,-72 196.41,-72 209.6,-72"/>
<polygon fill="black" stroke="black" points="209.52,-75.5 219.52,-72 209.52,-68.5 209.52,-75.5"/>
</g>
<!-- Vendor creates debit memo_var0_step2 -->
<g id="node4" class="node">
<title>Vendor creates debit memo_var0_step2</title>
<polygon fill="lightgrey" stroke="black" points="581,-90 414,-90 414,-54 581,-54 581,-90"/>
<text text-anchor="middle" x="497.5" y="-68.3" font-family="Times,serif" font-size="14.00">Vendor creates debit memo</text>
</g>
<!-- Vendor creates invoice_var0_step1&#45;&gt;Vendor creates debit memo_var0_step2 -->
<g id="edge2" class="edge">
<title>Vendor creates invoice_var0_step1&#45;&gt;Vendor creates debit memo_var0_step2</title>
<path fill="none" stroke="black" d="M361.85,-72C374.84,-72 388.63,-72 402.23,-72"/>
<polygon fill="black" stroke="black" points="402.08,-75.5 412.08,-72 402.08,-68.5 402.08,-75.5"/>
</g>
<!-- Record Goods Receipt_var0_step3 -->
<g id="node5" class="node">
<title>Record Goods Receipt_var0_step3</title>
<polygon fill="lightgrey" stroke="black" points="757,-90 617,-90 617,-54 757,-54 757,-90"/>
<text text-anchor="middle" x="687" y="-68.3" font-family="Times,serif" font-size="14.00">Record Goods Receipt</text>
</g>
<!-- Vendor creates debit memo_var0_step2&#45;&gt;Record Goods Receipt_var0_step3 -->
<g id="edge3" class="edge">
<title>Vendor creates debit memo_var0_step2&#45;&gt;Record Goods Receipt_var0_step3</title>
<path fill="none" stroke="black" d="M581.29,-72C589.2,-72 597.21,-72 605.1,-72"/>
<polygon fill="black" stroke="black" points="605.03,-75.5 615.03,-72 605.03,-68.5 605.03,-75.5"/>
</g>
<!-- Record Invoice Receipt_var0_step4 -->
<g id="node6" class="node">
<title>Record Invoice Receipt_var0_step4</title>
<polygon fill="lightgrey" stroke="black" points="938,-90 793,-90 793,-54 938,-54 938,-90"/>
<text text-anchor="middle" x="865.5" y="-68.3" font-family="Times,serif" font-size="14.00">Record Invoice Receipt</text>
</g>
<!-- Record Goods Receipt_var0_step3&#45;&gt;Record Invoice Receipt_var0_step4 -->
<g id="edge4" class="edge">
<title>Record Goods Receipt_var0_step3&#45;&gt;Record Invoice Receipt_var0_step4</title>
<path fill="none" stroke="black" d="M757.25,-72C765.13,-72 773.22,-72 781.25,-72"/>
<polygon fill="black" stroke="black" points="781.03,-75.5 791.03,-72 781.03,-68.5 781.03,-75.5"/>
</g>
<!-- Cancel Invoice Receipt_var0_step5 -->
<g id="node7" class="node">
<title>Cancel Invoice Receipt_var0_step5</title>
<polygon fill="lightgrey" stroke="black" points="1118,-90 975,-90 975,-54 1118,-54 1118,-90"/>
<text text-anchor="middle" x="1046.5" y="-68.3" font-family="Times,serif" font-size="14.00">Cancel Invoice Receipt</text>
</g>
<!-- Record Invoice Receipt_var0_step4&#45;&gt;Cancel Invoice Receipt_var0_step5 -->
<g id="edge5" class="edge">
<title>Record Invoice Receipt_var0_step4&#45;&gt;Cancel Invoice Receipt_var0_step5</title>
<path fill="none" stroke="black" d="M938.27,-72C946.5,-72 954.93,-72 963.28,-72"/>
<polygon fill="black" stroke="black" points="963.07,-75.5 973.07,-72 963.07,-68.5 963.07,-75.5"/>
</g>
<!-- Record Invoice Receipt_var0_step6 -->
<g id="node8" class="node">
<title>Record Invoice Receipt_var0_step6</title>
<polygon fill="lightgrey" stroke="black" points="1300,-90 1155,-90 1155,-54 1300,-54 1300,-90"/>
<text text-anchor="middle" x="1227.5" y="-68.3" font-family="Times,serif" font-size="14.00">Record Invoice Receipt</text>
</g>
<!-- Cancel Invoice Receipt_var0_step5&#45;&gt;Record Invoice Receipt_var0_step6 -->
<g id="edge6" class="edge">
<title>Cancel Invoice Receipt_var0_step5&#45;&gt;Record Invoice Receipt_var0_step6</title>
<path fill="none" stroke="black" d="M1118.25,-72C1126.44,-72 1134.86,-72 1143.2,-72"/>
<polygon fill="black" stroke="black" points="1142.99,-75.5 1152.99,-72 1142.99,-68.5 1142.99,-75.5"/>
</g>
<!-- Clear Invoice_var0_step7 -->
<g id="node9" class="node">
<title>Clear Invoice_var0_step7</title>
<polygon fill="lightgrey" stroke="black" points="1426,-90 1336,-90 1336,-54 1426,-54 1426,-90"/>
<text text-anchor="middle" x="1381" y="-68.3" font-family="Times,serif" font-size="14.00">Clear Invoice</text>
</g>
<!-- Record Invoice Receipt_var0_step6&#45;&gt;Clear Invoice_var0_step7 -->
<g id="edge7" class="edge">
<title>Record Invoice Receipt_var0_step6&#45;&gt;Clear Invoice_var0_step7</title>
<path fill="none" stroke="black" d="M1300.26,-72C1308.38,-72 1316.56,-72 1324.42,-72"/>
<polygon fill="black" stroke="black" points="1324.17,-75.5 1334.17,-72 1324.17,-68.5 1324.17,-75.5"/>
</g>
<!-- Remove Payment Block_var0_step8 -->
<g id="node10" class="node">
<title>Remove Payment Block_var0_step8</title>
<polygon fill="lightgrey" stroke="black" points="1612,-90 1462,-90 1462,-54 1612,-54 1612,-90"/>
<text text-anchor="middle" x="1537" y="-68.3" font-family="Times,serif" font-size="14.00">Remove Payment Block</text>
</g>
<!-- Clear Invoice_var0_step7&#45;&gt;Remove Payment Block_var0_step8 -->
<g id="edge8" class="edge">
<title>Clear Invoice_var0_step7&#45;&gt;Remove Payment Block_var0_step8</title>
<path fill="none" stroke="black" d="M1426.13,-72C1433.77,-72 1441.94,-72 1450.24,-72"/>
<polygon fill="black" stroke="black" points="1450.11,-75.5 1460.11,-72 1450.11,-68.5 1450.11,-75.5"/>
</g>
<!-- Clear Invoice_var0_step9 -->
<g id="node11" class="node">
<title>Clear Invoice_var0_step9</title>
<polygon fill="lightgrey" stroke="black" points="1738,-90 1648,-90 1648,-54 1738,-54 1738,-90"/>
<text text-anchor="middle" x="1693" y="-68.3" font-family="Times,serif" font-size="14.00">Clear Invoice</text>
</g>
<!-- Remove Payment Block_var0_step8&#45;&gt;Clear Invoice_var0_step9 -->
<g id="edge9" class="edge">
<title>Remove Payment Block_var0_step8&#45;&gt;Clear Invoice_var0_step9</title>
<path fill="none" stroke="black" d="M1612.29,-72C1620.46,-72 1628.66,-72 1636.54,-72"/>
<polygon fill="black" stroke="black" points="1636.3,-75.5 1646.3,-72 1636.29,-68.5 1636.3,-75.5"/>
</g>
<!-- start_node_var1 -->
<g id="node12" class="node">
<title>start_node_var1</title>
<text text-anchor="middle" x="84.5" y="-122.3" font-family="Times,serif" font-size="14.00">58 traces</text>
</g>
<!-- Create Purchase Order Item_var1_step0 -->
<g id="node13" class="node">
<title>Create Purchase Order Item_var1_step0</title>
<polygon fill="lightgrey" stroke="black" points="169,-198 0,-198 0,-162 169,-162 169,-198"/>
<text text-anchor="middle" x="84.5" y="-176.3" font-family="Times,serif" font-size="14.00">Create Purchase Order Item</text>
</g>
<!-- Receive Order Confirmation_var1_step1 -->
<g id="node14" class="node">
<title>Receive Order Confirmation_var1_step1</title>
<polygon fill="lightgrey" stroke="black" points="378,-198 205,-198 205,-162 378,-162 378,-198"/>
<text text-anchor="middle" x="291.5" y="-176.3" font-family="Times,serif" font-size="14.00">Receive Order Confirmation</text>
</g>
<!-- Create Purchase Order Item_var1_step0&#45;&gt;Receive Order Confirmation_var1_step1 -->
<g id="edge10" class="edge">
<title>Create Purchase Order Item_var1_step0&#45;&gt;Receive Order Confirmation_var1_step1</title>
<path fill="none" stroke="black" d="M169.47,-180C177.36,-180 185.41,-180 193.41,-180"/>
<polygon fill="black" stroke="black" points="193.15,-183.5 203.15,-180 193.15,-176.5 193.15,-183.5"/>
</g>
<!-- Record Goods Receipt_var1_step2 -->
<g id="node15" class="node">
<title>Record Goods Receipt_var1_step2</title>
<polygon fill="lightgrey" stroke="black" points="567.5,-198 427.5,-198 427.5,-162 567.5,-162 567.5,-198"/>
<text text-anchor="middle" x="497.5" y="-176.3" font-family="Times,serif" font-size="14.00">Record Goods Receipt</text>
</g>
<!-- Receive Order Confirmation_var1_step1&#45;&gt;Record Goods Receipt_var1_step2 -->
<g id="edge11" class="edge">
<title>Receive Order Confirmation_var1_step1&#45;&gt;Record Goods Receipt_var1_step2</title>
<path fill="none" stroke="black" d="M378.42,-180C390.85,-180 403.59,-180 415.91,-180"/>
<polygon fill="black" stroke="black" points="415.56,-183.5 425.56,-180 415.56,-176.5 415.56,-183.5"/>
</g>
<!-- Vendor creates invoice_var1_step3 -->
<g id="node16" class="node">
<title>Vendor creates invoice_var1_step3</title>
<polygon fill="lightgrey" stroke="black" points="757,-198 617,-198 617,-162 757,-162 757,-198"/>
<text text-anchor="middle" x="687" y="-176.3" font-family="Times,serif" font-size="14.00">Vendor creates invoice</text>
</g>
<!-- Record Goods Receipt_var1_step2&#45;&gt;Vendor creates invoice_var1_step3 -->
<g id="edge12" class="edge">
<title>Record Goods Receipt_var1_step2&#45;&gt;Vendor creates invoice_var1_step3</title>
<path fill="none" stroke="black" d="M567.79,-180C580.01,-180 592.82,-180 605.32,-180"/>
<polygon fill="black" stroke="black" points="605.17,-183.5 615.17,-180 605.17,-176.5 605.17,-183.5"/>
</g>
<!-- Record Invoice Receipt_var1_step4 -->
<g id="node17" class="node">
<title>Record Invoice Receipt_var1_step4</title>
<polygon fill="lightgrey" stroke="black" points="938,-198 793,-198 793,-162 938,-162 938,-198"/>
<text text-anchor="middle" x="865.5" y="-176.3" font-family="Times,serif" font-size="14.00">Record Invoice Receipt</text>
</g>
<!-- Vendor creates invoice_var1_step3&#45;&gt;Record Invoice Receipt_var1_step4 -->
<g id="edge13" class="edge">
<title>Vendor creates invoice_var1_step3&#45;&gt;Record Invoice Receipt_var1_step4</title>
<path fill="none" stroke="black" d="M757.25,-180C765.13,-180 773.22,-180 781.25,-180"/>
<polygon fill="black" stroke="black" points="781.03,-183.5 791.03,-180 781.03,-176.5 781.03,-183.5"/>
</g>
<!-- Record Invoice Receipt_var1_step5 -->
<g id="node18" class="node">
<title>Record Invoice Receipt_var1_step5</title>
<polygon fill="lightgrey" stroke="black" points="1119,-198 974,-198 974,-162 1119,-162 1119,-198"/>
<text text-anchor="middle" x="1046.5" y="-176.3" font-family="Times,serif" font-size="14.00">Record Invoice Receipt</text>
</g>
<!-- Record Invoice Receipt_var1_step4&#45;&gt;Record Invoice Receipt_var1_step5 -->
<g id="edge14" class="edge">
<title>Record Invoice Receipt_var1_step4&#45;&gt;Record Invoice Receipt_var1_step5</title>
<path fill="none" stroke="black" d="M938.27,-180C946.21,-180 954.33,-180 962.39,-180"/>
<polygon fill="black" stroke="black" points="962.2,-183.5 972.2,-180 962.2,-176.5 962.2,-183.5"/>
</g>
<!-- Clear Invoice_var1_step6 -->
<g id="node19" class="node">
<title>Clear Invoice_var1_step6</title>
<polygon fill="lightgrey" stroke="black" points="1272.5,-198 1182.5,-198 1182.5,-162 1272.5,-162 1272.5,-198"/>
<text text-anchor="middle" x="1227.5" y="-176.3" font-family="Times,serif" font-size="14.00">Clear Invoice</text>
</g>
<!-- Record Invoice Receipt_var1_step5&#45;&gt;Clear Invoice_var1_step6 -->
<g id="edge15" class="edge">
<title>Record Invoice Receipt_var1_step5&#45;&gt;Clear Invoice_var1_step6</title>
<path fill="none" stroke="black" d="M1119.27,-180C1136.34,-180 1154.29,-180 1170.53,-180"/>
<polygon fill="black" stroke="black" points="1170.5,-183.5 1180.5,-180 1170.5,-176.5 1170.5,-183.5"/>
</g>
</g>
</svg>
