<?xml version="1.0" encoding="UTF-8" standalone="no"?>
<!DOCTYPE svg PUBLIC "-//W3C//DTD SVG 1.1//EN"
 "http://www.w3.org/Graphics/SVG/1.1/DTD/svg11.dtd">
<!-- Generated by graphviz version 7.0.4 (0)
 -->
<!-- Title: dfg Pages: 1 -->
<svg width="1481pt" height="1009pt"
 viewBox="0.00 0.00 1481.13 1009.00" xmlns="http://www.w3.org/2000/svg" xmlns:xlink="http://www.w3.org/1999/xlink">
<g id="graph0" class="graph" transform="scale(1 1) rotate(0) translate(4 1005)">
<title>dfg</title>
<polygon fill="white" stroke="none" points="-4,4 -4,-1005 1477.13,-1005 1477.13,4 -4,4"/>
<!-- start_node -->
<g id="node1" class="node">
<title>start_node</title>
<ellipse fill="none" stroke="black" cx="1338.13" cy="-983" rx="18" ry="18"/>
<text text-anchor="start" x="1333.63" y="-979.3" font-family="Times,serif" font-size="14.00">●</text>
</g>
<!-- Create Fine -->
<g id="node2" class="node">
<title>Create Fine</title>
<polygon fill="#9b9bff" stroke="black" points="1404.63,-914 1271.63,-914 1271.63,-878 1404.63,-878 1404.63,-914"/>
<text text-anchor="middle" x="1338.13" y="-892.3" font-family="Times,serif" font-size="14.00">Create Fine (137777)</text>
</g>
<!-- start_node&#45;&gt;Create Fine -->
<g id="edge1" class="edge">
<title>start_node&#45;&gt;Create Fine</title>
<path fill="none" stroke="#000000" stroke-width="8.83" d="M1338.13,-964.8C1338.13,-955.18 1338.13,-942.86 1338.13,-931.35"/>
<polygon fill="#000000" stroke="#000000" stroke-width="8.83" points="1345.86,-931.69 1338.13,-921.69 1330.4,-931.69 1345.86,-931.69"/>
<text text-anchor="middle" x="1358.63" y="-935.8" font-family="Times,serif" font-size="14.00">137777</text>
</g>
<!-- Send Fine -->
<g id="node3" class="node">
<title>Send Fine</title>
<polygon fill="#bcbcff" stroke="black" points="776.13,-827 658.13,-827 658.13,-791 776.13,-791 776.13,-827"/>
<text text-anchor="middle" x="717.13" y="-805.3" font-family="Times,serif" font-size="14.00">Send Fine (91519)</text>
</g>
<!-- Create Fine&#45;&gt;Send Fine -->
<g id="edge2" class="edge">
<title>Create Fine&#45;&gt;Send Fine</title>
<path fill="none" stroke="#000000" stroke-width="6" d="M1271.38,-885.86C1154.88,-869.92 915.19,-837.11 792.74,-820.35"/>
<polygon fill="#000000" stroke="#000000" stroke-width="6" points="793.64,-815.17 783.02,-819.02 792.22,-825.58 793.64,-815.17"/>
<text text-anchor="middle" x="1081.13" y="-848.8" font-family="Times,serif" font-size="14.00">90946</text>
</g>
<!-- Payment -->
<g id="node7" class="node">
<title>Payment</title>
<polygon fill="#c9c9ff" stroke="black" points="907.63,-566 796.63,-566 796.63,-530 907.63,-530 907.63,-566"/>
<text text-anchor="middle" x="852.13" y="-544.3" font-family="Times,serif" font-size="14.00">Payment (74266)</text>
</g>
<!-- Create Fine&#45;&gt;Payment -->
<g id="edge7" class="edge">
<title>Create Fine&#45;&gt;Payment</title>
<path fill="none" stroke="#000000" stroke-width="3.33" d="M1362.34,-877.68C1380.82,-862.26 1403.13,-837.87 1403.13,-810 1403.13,-810 1403.13,-810 1403.13,-634 1403.13,-585.92 1071.26,-561.27 922.64,-552.65"/>
<polygon fill="#000000" stroke="#000000" stroke-width="3.33" points="923.21,-549.17 913.03,-552.1 922.82,-556.16 923.21,-549.17"/>
<text text-anchor="middle" x="1420.13" y="-718.3" font-family="Times,serif" font-size="14.00">46811</text>
</g>
<!-- Insert Date Appeal to Prefecture -->
<g id="node8" class="node">
<title>Insert Date Appeal to Prefecture</title>
<polygon fill="#fefeff" stroke="black" points="465.13,-218 247.13,-218 247.13,-182 465.13,-182 465.13,-218"/>
<text text-anchor="middle" x="356.13" y="-196.3" font-family="Times,serif" font-size="14.00">Insert Date Appeal to Prefecture (75)</text>
</g>
<!-- Create Fine&#45;&gt;Insert Date Appeal to Prefecture -->
<g id="edge35" class="edge">
<title>Create Fine&#45;&gt;Insert Date Appeal to Prefecture</title>
<path fill="none" stroke="#ff0000" stroke-width="0.5" stroke-dasharray="5,2" d="M1271.52,-892.11C1028.98,-881.08 202.14,-838.94 105.13,-773 28.33,-720.8 49.72,-444.41 78.13,-356 98.69,-292.02 109.1,-264.13 170.13,-236 190.7,-226.52 213.69,-219.61 236.29,-214.57"/>
<polygon fill="#ff0000" stroke="#ff0000" stroke-width="0.5" points="236.83,-218.03 245.89,-212.54 235.39,-211.18 236.83,-218.03"/>
<text text-anchor="middle" x="60.13" y="-544.3" font-family="Times,serif" font-size="14.00">17</text>
</g>
<!-- Appeal to Judge -->
<g id="node10" class="node">
<title>Appeal to Judge</title>
<polygon fill="#fefeff" stroke="black" points="1202.13,-305 1064.13,-305 1064.13,-269 1202.13,-269 1202.13,-305"/>
<text text-anchor="middle" x="1133.13" y="-283.3" font-family="Times,serif" font-size="14.00">Appeal to Judge (220)</text>
</g>
<!-- Create Fine&#45;&gt;Appeal to Judge -->
<g id="edge45" class="edge">
<title>Create Fine&#45;&gt;Appeal to Judge</title>
<path fill="none" stroke="#ff0000" stroke-width="0.5" stroke-dasharray="5,2" d="M1403.63,-877.51C1435.12,-864.73 1466.13,-843.61 1466.13,-810 1466.13,-810 1466.13,-810 1466.13,-373 1466.13,-320.97 1311.59,-300.38 1213.07,-292.54"/>
<polygon fill="#ff0000" stroke="#ff0000" stroke-width="0.5" points="1213.53,-289.07 1203.29,-291.8 1212.99,-296.05 1213.53,-289.07"/>
<text text-anchor="middle" x="1469.63" y="-587.8" font-family="Times,serif" font-size="14.00">3</text>
</g>
<!-- Insert Fine Notification -->
<g id="node4" class="node">
<title>Insert Fine Notification</title>
<polygon fill="#cdcdff" stroke="black" points="501.63,-740 310.63,-740 310.63,-704 501.63,-704 501.63,-740"/>
<text text-anchor="middle" x="406.13" y="-718.3" font-family="Times,serif" font-size="14.00">Insert Fine Notification (68858)</text>
</g>
<!-- Send Fine&#45;&gt;Insert Fine Notification -->
<g id="edge3" class="edge">
<title>Send Fine&#45;&gt;Insert Fine Notification</title>
<path fill="none" stroke="#000000" stroke-width="4.66" d="M657.9,-791.81C608.98,-778.44 539.1,-759.34 485.36,-744.65"/>
<polygon fill="#000000" stroke="#000000" stroke-width="4.66" points="486.63,-740.77 475.91,-742.07 484.48,-748.64 486.63,-740.77"/>
<text text-anchor="middle" x="598.13" y="-761.8" font-family="Times,serif" font-size="14.00">68782</text>
</g>
<!-- Send Fine&#45;&gt;Payment -->
<g id="edge14" class="edge">
<title>Send Fine&#45;&gt;Payment</title>
<path fill="none" stroke="#ff0000" stroke-width="0.68" stroke-dasharray="5,2" d="M744.94,-790.61C782.13,-765.51 846.35,-715.23 872.13,-653 883.87,-624.67 880,-613.64 872.13,-584 871.42,-581.34 870.46,-578.66 869.34,-576.05"/>
<polygon fill="#ff0000" stroke="#ff0000" stroke-width="0.68" points="872.54,-574.62 864.88,-567.3 866.3,-577.8 872.54,-574.62"/>
<text text-anchor="middle" x="877.13" y="-674.8" font-family="Times,serif" font-size="14.00">2968</text>
</g>
<!-- Send Fine&#45;&gt;Insert Date Appeal to Prefecture -->
<g id="edge17" class="edge">
<title>Send Fine&#45;&gt;Insert Date Appeal to Prefecture</title>
<path fill="none" stroke="#ff0000" stroke-width="0.5" stroke-dasharray="5,2" d="M657.77,-807.67C521.57,-806.44 195.13,-800.61 154.13,-773 133.69,-759.23 130.13,-747.65 130.13,-723 130.13,-723 130.13,-723 130.13,-329.5 130.13,-278.89 153.04,-264.1 195.13,-236 207.7,-227.61 221.93,-221.19 236.6,-216.29"/>
<polygon fill="#ff0000" stroke="#ff0000" stroke-width="0.5" points="237.58,-219.66 246.1,-213.36 235.51,-212.97 237.58,-219.66"/>
<text text-anchor="middle" x="133.63" y="-500.8" font-family="Times,serif" font-size="14.00">7</text>
</g>
<!-- Send Fine&#45;&gt;Appeal to Judge -->
<g id="edge47" class="edge">
<title>Send Fine&#45;&gt;Appeal to Judge</title>
<path fill="none" stroke="#ff0000" stroke-width="0.5" stroke-dasharray="5,2" d="M776.43,-808.38C869.48,-807.95 1055.09,-802.94 1209.13,-773 1255.9,-763.91 1277.39,-773.64 1311.13,-740 1365.54,-685.76 1452.18,-476.74 1414.13,-410 1373.66,-339.03 1280.58,-309.3 1212.6,-296.88"/>
<polygon fill="#ff0000" stroke="#ff0000" stroke-width="0.5" points="1213.54,-293.49 1203.09,-295.23 1212.34,-300.38 1213.54,-293.49"/>
<text text-anchor="middle" x="1414.63" y="-544.3" font-family="Times,serif" font-size="14.00">3</text>
</g>
<!-- end_node -->
<g id="node13" class="node">
<title>end_node</title>
<ellipse fill="none" stroke="black" cx="1117.13" cy="-22" rx="18" ry="18"/>
<ellipse fill="none" stroke="black" cx="1117.13" cy="-22" rx="22" ry="22"/>
<text text-anchor="start" x="1112.63" y="-18.3" font-family="Times,serif" font-size="14.00">■</text>
</g>
<!-- Send Fine&#45;&gt;end_node -->
<g id="edge54" class="edge">
<title>Send Fine&#45;&gt;end_node</title>
<path fill="none" stroke="#000000" stroke-width="6.03" d="M657.8,-807.92C513.13,-807.25 150.7,-802.6 105.13,-773 -1.97,-703.42 0.13,-633.22 0.13,-505.5 0.13,-505.5 0.13,-505.5 0.13,-112 0.13,-56.7 881.5,-29.42 1078.42,-24.01"/>
<polygon fill="#000000" stroke="#000000" stroke-width="6.03" points="1078.51,-29.29 1088.36,-23.75 1078.22,-18.74 1078.51,-29.29"/>
<text text-anchor="middle" x="17.13" y="-413.8" font-family="Times,serif" font-size="14.00">91519</text>
</g>
<!-- Add penalty -->
<g id="node5" class="node">
<title>Add penalty</title>
<polygon fill="#cdcdff" stroke="black" points="863.13,-653 733.13,-653 733.13,-617 863.13,-617 863.13,-653"/>
<text text-anchor="middle" x="798.13" y="-631.3" font-family="Times,serif" font-size="14.00">Add penalty (68858)</text>
</g>
<!-- Insert Fine Notification&#45;&gt;Add penalty -->
<g id="edge4" class="edge">
<title>Insert Fine Notification&#45;&gt;Add penalty</title>
<path fill="none" stroke="#000000" stroke-width="4.43" d="M486.4,-703.59C553.8,-688.98 649.64,-668.2 717.21,-653.55"/>
<polygon fill="#000000" stroke="#000000" stroke-width="4.43" points="717.95,-657.35 726.9,-651.45 716.31,-649.78 717.95,-657.35"/>
<text text-anchor="middle" x="642.13" y="-674.8" font-family="Times,serif" font-size="14.00">65003</text>
</g>
<!-- Insert Fine Notification&#45;&gt;Payment -->
<g id="edge15" class="edge">
<title>Insert Fine Notification&#45;&gt;Payment</title>
<path fill="none" stroke="#ff0000" stroke-width="0.72" stroke-dasharray="5,2" d="M451.35,-703.56C533.58,-671.85 707.32,-604.85 796.6,-570.42"/>
<polygon fill="#ff0000" stroke="#ff0000" stroke-width="0.72" points="797.7,-573.74 805.78,-566.88 795.19,-567.21 797.7,-573.74"/>
<text text-anchor="middle" x="687.13" y="-631.3" font-family="Times,serif" font-size="14.00">3645</text>
</g>
<!-- Insert Fine Notification&#45;&gt;Insert Date Appeal to Prefecture -->
<g id="edge9" class="edge">
<title>Insert Fine Notification&#45;&gt;Insert Date Appeal to Prefecture</title>
<path fill="none" stroke="#ff0000" stroke-width="0.5" stroke-dasharray="5,2" d="M316.1,-703.53C282.4,-691.3 252.13,-670.66 252.13,-636 252.13,-636 252.13,-636 252.13,-286 252.13,-257.78 275.38,-237.24 299.89,-223.43"/>
<polygon fill="#ff0000" stroke="#ff0000" stroke-width="0.5" points="301.42,-226.58 308.63,-218.82 298.15,-220.39 301.42,-226.58"/>
<text text-anchor="middle" x="259.13" y="-457.3" font-family="Times,serif" font-size="14.00">39</text>
</g>
<!-- Send Appeal to Prefecture -->
<g id="node9" class="node">
<title>Send Appeal to Prefecture</title>
<polygon fill="#fefeff" stroke="black" points="743.63,-131 558.63,-131 558.63,-95 743.63,-95 743.63,-131"/>
<text text-anchor="middle" x="651.13" y="-109.3" font-family="Times,serif" font-size="14.00">Send Appeal to Prefecture (62)</text>
</g>
<!-- Insert Fine Notification&#45;&gt;Send Appeal to Prefecture -->
<g id="edge44" class="edge">
<title>Insert Fine Notification&#45;&gt;Send Appeal to Prefecture</title>
<path fill="none" stroke="#ff0000" stroke-width="0.5" stroke-dasharray="5,2" d="M310.23,-715.44C258.9,-706.68 206.13,-685.61 206.13,-636 206.13,-636 206.13,-636 206.13,-416.5 206.13,-311.31 164.78,-257.4 238.13,-182 279.94,-139.03 439.43,-123.2 547.53,-117.38"/>
<polygon fill="#ff0000" stroke="#ff0000" stroke-width="0.5" points="547.59,-120.88 557.4,-116.87 547.23,-113.89 547.59,-120.88"/>
<text text-anchor="middle" x="209.63" y="-413.8" font-family="Times,serif" font-size="14.00">3</text>
</g>
<!-- Insert Fine Notification&#45;&gt;Appeal to Judge -->
<g id="edge19" class="edge">
<title>Insert Fine Notification&#45;&gt;Appeal to Judge</title>
<path fill="none" stroke="#ff0000" stroke-width="0.51" stroke-dasharray="5,2" d="M501.87,-720.59C713.64,-718.4 1203.13,-705.79 1203.13,-636 1203.13,-636 1203.13,-636 1203.13,-373 1203.13,-348.3 1185.3,-326.88 1167.63,-311.72"/>
<polygon fill="#ff0000" stroke="#ff0000" stroke-width="0.51" points="1170.17,-309.27 1160.2,-305.69 1165.76,-314.71 1170.17,-309.27"/>
<text text-anchor="middle" x="1213.63" y="-500.8" font-family="Times,serif" font-size="14.00">167</text>
</g>
<!-- Receive Result Appeal from Prefecture -->
<g id="node11" class="node">
<title>Receive Result Appeal from Prefecture</title>
<polygon fill="#fefeff" stroke="black" points="736.63,-479 479.63,-479 479.63,-443 736.63,-443 736.63,-479"/>
<text text-anchor="middle" x="608.13" y="-457.3" font-family="Times,serif" font-size="14.00">Receive Result Appeal from Prefecture (13)</text>
</g>
<!-- Insert Fine Notification&#45;&gt;Receive Result Appeal from Prefecture -->
<g id="edge31" class="edge">
<title>Insert Fine Notification&#45;&gt;Receive Result Appeal from Prefecture</title>
<path fill="none" stroke="#ff0000" stroke-width="0.5" stroke-dasharray="5,2" d="M419.7,-703.6C454.49,-659 547,-540.39 588.04,-487.76"/>
<polygon fill="#ff0000" stroke="#ff0000" stroke-width="0.5" points="590.77,-489.95 594.16,-479.92 585.25,-485.65 590.77,-489.95"/>
<text text-anchor="middle" x="515.63" y="-587.8" font-family="Times,serif" font-size="14.00">1</text>
</g>
<!-- Send for Credit Collection -->
<g id="node6" class="node">
<title>Send for Credit Collection</title>
<polygon fill="#d8d8ff" stroke="black" points="1352.63,-218 1145.63,-218 1145.63,-182 1352.63,-182 1352.63,-218"/>
<text text-anchor="middle" x="1249.13" y="-196.3" font-family="Times,serif" font-size="14.00">Send for Credit Collection (53057)</text>
</g>
<!-- Add penalty&#45;&gt;Send for Credit Collection -->
<g id="edge5" class="edge">
<title>Add penalty&#45;&gt;Send for Credit Collection</title>
<path fill="none" stroke="#000000" stroke-width="3.63" d="M863.41,-631.84C984.77,-626.79 1239.59,-611.02 1314.13,-566 1339.93,-550.42 1343.75,-539.9 1355.13,-512 1396.14,-411.42 1437.68,-361.74 1381.13,-269 1369.02,-249.14 1349.06,-234.84 1328.28,-224.64"/>
<polygon fill="#000000" stroke="#000000" stroke-width="3.63" points="1329.78,-221.48 1319.22,-220.6 1326.93,-227.87 1329.78,-221.48"/>
<text text-anchor="middle" x="1414.13" y="-413.8" font-family="Times,serif" font-size="14.00">51693</text>
</g>
<!-- Add penalty&#45;&gt;Payment -->
<g id="edge6" class="edge">
<title>Add penalty&#45;&gt;Payment</title>
<path fill="none" stroke="#000000" stroke-width="1.53" d="M794.66,-616.77C793.51,-606.63 793.68,-593.89 799.13,-584 801.05,-580.52 803.47,-577.33 806.23,-574.42"/>
<polygon fill="#000000" stroke="#000000" stroke-width="1.53" points="808.33,-577.23 813.54,-568 803.71,-571.96 808.33,-577.23"/>
<text text-anchor="middle" x="816.13" y="-587.8" font-family="Times,serif" font-size="14.00">17081</text>
</g>
<!-- Add penalty&#45;&gt;Insert Date Appeal to Prefecture -->
<g id="edge24" class="edge">
<title>Add penalty&#45;&gt;Insert Date Appeal to Prefecture</title>
<path fill="none" stroke="#ff0000" stroke-width="0.5" stroke-dasharray="5,2" d="M732.75,-620.97C723.5,-619.44 714.1,-618.06 705.13,-617 668.11,-612.64 399.97,-621.34 370.13,-599 334.85,-572.59 337.13,-549.57 337.13,-505.5 337.13,-505.5 337.13,-505.5 337.13,-286 337.13,-266.4 342,-244.86 346.81,-228.37"/>
<polygon fill="#ff0000" stroke="#ff0000" stroke-width="0.5" points="350.08,-229.64 349.69,-219.05 343.39,-227.57 350.08,-229.64"/>
<text text-anchor="middle" x="340.63" y="-413.8" font-family="Times,serif" font-size="14.00">8</text>
</g>
<!-- Add penalty&#45;&gt;Send Appeal to Prefecture -->
<g id="edge12" class="edge">
<title>Add penalty&#45;&gt;Send Appeal to Prefecture</title>
<path fill="none" stroke="#ff0000" stroke-width="0.5" stroke-dasharray="5,2" d="M863.3,-618.35C896.2,-607.86 934.99,-591.23 963.13,-566 1039.4,-497.61 1075.91,-456.89 1058.13,-356 1034.2,-220.18 866.85,-158.44 754.33,-132.02"/>
<polygon fill="#ff0000" stroke="#ff0000" stroke-width="0.5" points="755.23,-128.64 744.7,-129.82 753.66,-135.46 755.23,-128.64"/>
<text text-anchor="middle" x="1069.13" y="-370.3" font-family="Times,serif" font-size="14.00">23</text>
</g>
<!-- Add penalty&#45;&gt;Appeal to Judge -->
<g id="edge29" class="edge">
<title>Add penalty&#45;&gt;Appeal to Judge</title>
<path fill="none" stroke="#ff0000" stroke-width="0.5" stroke-dasharray="5,2" d="M863.62,-631.06C921.4,-627.21 1000.05,-618.47 1024.13,-599 1113.13,-527.04 1129.6,-377.63 1132.54,-315.76"/>
<polygon fill="#ff0000" stroke="#ff0000" stroke-width="0.5" points="1136.03,-316.15 1132.92,-306.03 1129.03,-315.88 1136.03,-316.15"/>
<text text-anchor="middle" x="1119.13" y="-457.3" font-family="Times,serif" font-size="14.00">45</text>
</g>
<!-- Add penalty&#45;&gt;Receive Result Appeal from Prefecture -->
<g id="edge21" class="edge">
<title>Add penalty&#45;&gt;Receive Result Appeal from Prefecture</title>
<path fill="none" stroke="#ff0000" stroke-width="0.5" stroke-dasharray="5,2" d="M733.04,-628.81C684.42,-623.75 623.09,-614.52 603.13,-599 570.92,-573.95 584.09,-521.01 596.31,-488.77"/>
<polygon fill="#ff0000" stroke="#ff0000" stroke-width="0.5" points="599.44,-490.38 599.91,-479.79 592.94,-487.77 599.44,-490.38"/>
<text text-anchor="middle" x="588.63" y="-544.3" font-family="Times,serif" font-size="14.00">7</text>
</g>
<!-- Notify Result Appeal to Offender -->
<g id="node12" class="node">
<title>Notify Result Appeal to Offender</title>
<polygon fill="#ffffff" stroke="black" points="1049.13,-392 831.13,-392 831.13,-356 1049.13,-356 1049.13,-392"/>
<text text-anchor="middle" x="940.13" y="-370.3" font-family="Times,serif" font-size="14.00">Notify Result Appeal to Offender (6)</text>
</g>
<!-- Add penalty&#45;&gt;Notify Result Appeal to Offender -->
<g id="edge33" class="edge">
<title>Add penalty&#45;&gt;Notify Result Appeal to Offender</title>
<path fill="none" stroke="#ff0000" stroke-width="0.5" stroke-dasharray="5,2" d="M863.6,-630.1C940.71,-624.84 1060.16,-614.33 1074.13,-599 1120.85,-547.74 1114.77,-501.89 1078.13,-443 1064.86,-421.67 1042.71,-406.83 1020,-396.6"/>
<polygon fill="#ff0000" stroke="#ff0000" stroke-width="0.5" points="1021.53,-393.44 1010.95,-392.78 1018.81,-399.89 1021.53,-393.44"/>
<text text-anchor="middle" x="1109.63" y="-500.8" font-family="Times,serif" font-size="14.00">1</text>
</g>
<!-- Send for Credit Collection&#45;&gt;end_node -->
<g id="edge55" class="edge">
<title>Send for Credit Collection&#45;&gt;end_node</title>
<path fill="none" stroke="#000000" stroke-width="3.71" d="M1236.23,-181.8C1213.76,-151.84 1167.17,-89.71 1139.39,-52.67"/>
<polygon fill="#000000" stroke="#000000" stroke-width="3.71" points="1142.25,-50.66 1133.45,-44.76 1136.65,-54.86 1142.25,-50.66"/>
<text text-anchor="middle" x="1213.13" y="-109.3" font-family="Times,serif" font-size="14.00">53057</text>
</g>
<!-- Payment&#45;&gt;Send Fine -->
<g id="edge16" class="edge">
<title>Payment&#45;&gt;Send Fine</title>
<path fill="none" stroke="#ff0000" stroke-width="0.53" stroke-dasharray="5,2" d="M907.98,-550.48C1029.58,-555.69 1300.95,-579.27 1217.13,-686 1164.38,-753.17 911.57,-788.06 786.92,-801.42"/>
<polygon fill="#ff0000" stroke="#ff0000" stroke-width="0.53" points="786.74,-797.92 777.16,-802.44 787.47,-804.88 786.74,-797.92"/>
<text text-anchor="middle" x="1235.63" y="-674.8" font-family="Times,serif" font-size="14.00">553</text>
</g>
<!-- Payment&#45;&gt;Insert Fine Notification -->
<g id="edge27" class="edge">
<title>Payment&#45;&gt;Insert Fine Notification</title>
<path fill="none" stroke="#ff0000" stroke-width="0.5" stroke-dasharray="5,2" d="M796.27,-556.59C737.49,-565.87 643.14,-584.52 567.13,-617 517.91,-638.04 466.97,-673.7 435.91,-697.31"/>
<polygon fill="#ff0000" stroke="#ff0000" stroke-width="0.5" points="434.1,-694.29 428.3,-703.16 438.36,-699.84 434.1,-694.29"/>
<text text-anchor="middle" x="574.13" y="-631.3" font-family="Times,serif" font-size="14.00">72</text>
</g>
<!-- Payment&#45;&gt;Add penalty -->
<g id="edge11" class="edge">
<title>Payment&#45;&gt;Add penalty</title>
<path fill="none" stroke="#ff0000" stroke-width="0.72" stroke-dasharray="5,2" d="M847.62,-566.05C844.49,-576.13 839.69,-588.86 833.13,-599 830.95,-602.37 828.4,-605.68 825.68,-608.84"/>
<polygon fill="#ff0000" stroke="#ff0000" stroke-width="0.72" points="823.28,-606.28 819.01,-615.97 828.39,-611.06 823.28,-606.28"/>
<text text-anchor="middle" x="854.13" y="-587.8" font-family="Times,serif" font-size="14.00">3655</text>
</g>
<!-- Payment&#45;&gt;Send for Credit Collection -->
<g id="edge13" class="edge">
<title>Payment&#45;&gt;Send for Credit Collection</title>
<path fill="none" stroke="#ff0000" stroke-width="0.58" stroke-dasharray="5,2" d="M908.05,-544.94C1006.53,-540.86 1202.92,-530.49 1228.13,-512 1247.56,-497.74 1249.13,-486.1 1249.13,-462 1249.13,-462 1249.13,-462 1249.13,-286 1249.13,-266.94 1249.13,-245.47 1249.13,-228.87"/>
<polygon fill="#ff0000" stroke="#ff0000" stroke-width="0.58" points="1252.63,-229.14 1249.13,-219.14 1245.63,-229.14 1252.63,-229.14"/>
<text text-anchor="middle" x="1263.13" y="-370.3" font-family="Times,serif" font-size="14.00">1355</text>
</g>
<!-- Payment&#45;&gt;Payment -->
<g id="edge8" class="edge">
<title>Payment&#45;&gt;Payment</title>
<path fill="none" stroke="#ff0000" stroke-width="0.72" stroke-dasharray="5,2" d="M907.9,-555.74C918.3,-554.78 925.63,-552.21 925.63,-548 925.63,-545.5 923.05,-543.58 918.77,-542.23"/>
<polygon fill="#ff0000" stroke="#ff0000" stroke-width="0.72" points="919.44,-538.79 908.98,-540.46 918.19,-545.68 919.44,-538.79"/>
<text text-anchor="middle" x="939.63" y="-544.3" font-family="Times,serif" font-size="14.00">3710</text>
</g>
<!-- Payment&#45;&gt;Insert Date Appeal to Prefecture -->
<g id="edge40" class="edge">
<title>Payment&#45;&gt;Insert Date Appeal to Prefecture</title>
<path fill="none" stroke="#ff0000" stroke-width="0.5" stroke-dasharray="5,2" d="M796.3,-539.23C773.62,-536.18 747.14,-532.76 723.13,-530 660.3,-522.79 485.27,-526.16 443.13,-479 369.42,-396.5 440.94,-333.76 389.13,-236 387.4,-232.73 385.27,-229.54 382.95,-226.5"/>
<polygon fill="#ff0000" stroke="#ff0000" stroke-width="0.5" points="385.67,-224.3 376.5,-218.98 380.35,-228.85 385.67,-224.3"/>
<text text-anchor="middle" x="412.63" y="-370.3" font-family="Times,serif" font-size="14.00">2</text>
</g>
<!-- Payment&#45;&gt;Send Appeal to Prefecture -->
<g id="edge41" class="edge">
<title>Payment&#45;&gt;Send Appeal to Prefecture</title>
<path fill="none" stroke="#ff0000" stroke-width="0.5" stroke-dasharray="5,2" d="M841.45,-529.69C828,-508.43 803.67,-471.65 779.13,-443 737.7,-394.63 689.13,-395.18 689.13,-331.5 689.13,-331.5 689.13,-331.5 689.13,-199 689.13,-177.92 679.27,-156.26 669.6,-140.08"/>
<polygon fill="#ff0000" stroke="#ff0000" stroke-width="0.5" points="672.71,-138.45 664.4,-131.87 666.79,-142.2 672.71,-138.45"/>
<text text-anchor="middle" x="692.63" y="-326.8" font-family="Times,serif" font-size="14.00">4</text>
</g>
<!-- Payment&#45;&gt;Appeal to Judge -->
<g id="edge53" class="edge">
<title>Payment&#45;&gt;Appeal to Judge</title>
<path fill="none" stroke="#ff0000" stroke-width="0.5" stroke-dasharray="5,2" d="M856.94,-529.6C861.9,-508.25 867.34,-471.37 855.13,-443 850.54,-432.31 843.89,-433.67 836.13,-425 823.86,-411.29 816.99,-409.44 811.13,-392 800.36,-359.96 812.85,-338.02 843.13,-323 878.91,-305.25 980.44,-296.1 1053.27,-291.68"/>
<polygon fill="#ff0000" stroke="#ff0000" stroke-width="0.5" points="1053.26,-295.18 1063.04,-291.1 1052.85,-288.19 1053.26,-295.18"/>
<text text-anchor="middle" x="839.63" y="-413.8" font-family="Times,serif" font-size="14.00">1</text>
</g>
<!-- Payment&#45;&gt;Receive Result Appeal from Prefecture -->
<g id="edge25" class="edge">
<title>Payment&#45;&gt;Receive Result Appeal from Prefecture</title>
<path fill="none" stroke="#ff0000" stroke-width="0.5" stroke-dasharray="5,2" d="M796.39,-537.05C768.51,-531.24 734.53,-522.89 705.13,-512 685.2,-504.61 664.1,-494.09 646.69,-484.61"/>
<polygon fill="#ff0000" stroke="#ff0000" stroke-width="0.5" points="648.53,-481.63 638.09,-479.84 645.14,-487.75 648.53,-481.63"/>
<text text-anchor="middle" x="708.63" y="-500.8" font-family="Times,serif" font-size="14.00">1</text>
</g>
<!-- Payment&#45;&gt;end_node -->
<g id="edge56" class="edge">
<title>Payment&#45;&gt;end_node</title>
<path fill="none" stroke="#000000" stroke-width="4.99" d="M908.03,-547.43C1003.11,-547.3 1191.64,-542.97 1249.13,-512 1292.58,-488.6 1297.11,-469.65 1318.13,-425 1364.88,-325.7 1413.49,-279 1362.13,-182 1318.4,-99.41 1210.65,-53.32 1153.73,-33.99"/>
<polygon fill="#000000" stroke="#000000" stroke-width="4.99" points="1155.26,-29.9 1144.4,-30.96 1152.56,-38.21 1155.26,-29.9"/>
<text text-anchor="middle" x="1400.13" y="-283.3" font-family="Times,serif" font-size="14.00">74266</text>
</g>
<!-- Insert Date Appeal to Prefecture&#45;&gt;Send Fine -->
<g id="edge36" class="edge">
<title>Insert Date Appeal to Prefecture&#45;&gt;Send Fine</title>
<path fill="none" stroke="#ff0000" stroke-width="0.5" stroke-dasharray="5,2" d="M296.27,-218.37C285.02,-223.09 273.77,-228.92 264.13,-236 190.9,-289.79 168.13,-325.64 168.13,-416.5 168.13,-723 168.13,-723 168.13,-723 168.13,-770.98 499.79,-795.72 647.54,-804.37"/>
<polygon fill="#ff0000" stroke="#ff0000" stroke-width="0.5" points="646.92,-807.84 657.1,-804.92 647.32,-800.85 646.92,-807.84"/>
<text text-anchor="middle" x="175.13" y="-500.8" font-family="Times,serif" font-size="14.00">11</text>
</g>
<!-- Insert Date Appeal to Prefecture&#45;&gt;Insert Fine Notification -->
<g id="edge18" class="edge">
<title>Insert Date Appeal to Prefecture&#45;&gt;Insert Fine Notification</title>
<path fill="none" stroke="#ff0000" stroke-width="0.5" stroke-dasharray="5,2" d="M345.14,-218.4C337.39,-231.7 327.62,-250.78 323.13,-269 291.52,-397.25 292.65,-440.59 334.13,-566 349.62,-612.82 375.35,-664.18 391.49,-694.45"/>
<polygon fill="#ff0000" stroke="#ff0000" stroke-width="0.5" points="388.38,-696.06 396.21,-703.21 394.54,-692.74 388.38,-696.06"/>
<text text-anchor="middle" x="312.63" y="-457.3" font-family="Times,serif" font-size="14.00">4</text>
</g>
<!-- Insert Date Appeal to Prefecture&#45;&gt;Add penalty -->
<g id="edge28" class="edge">
<title>Insert Date Appeal to Prefecture&#45;&gt;Add penalty</title>
<path fill="none" stroke="#ff0000" stroke-width="0.5" stroke-dasharray="5,2" d="M362.35,-218.33C367.89,-235.33 375.13,-262.11 375.13,-286 375.13,-505.5 375.13,-505.5 375.13,-505.5 375.13,-660.31 552.45,-591.41 705.13,-617 710.75,-617.94 716.55,-618.94 722.38,-619.96"/>
<polygon fill="#ff0000" stroke="#ff0000" stroke-width="0.5" points="721.68,-623.39 732.14,-621.69 722.9,-616.5 721.68,-623.39"/>
<text text-anchor="middle" x="382.13" y="-413.8" font-family="Times,serif" font-size="14.00">18</text>
</g>
<!-- Insert Date Appeal to Prefecture&#45;&gt;Payment -->
<g id="edge10" class="edge">
<title>Insert Date Appeal to Prefecture&#45;&gt;Payment</title>
<path fill="none" stroke="#ff0000" stroke-width="0.5" stroke-dasharray="5,2" d="M414.19,-218.29C422.23,-222.9 429.61,-228.71 435.13,-236 501.03,-322.97 394.26,-400.58 470.13,-479 481.07,-490.3 679.4,-521.31 785.85,-537.25"/>
<polygon fill="#ff0000" stroke="#ff0000" stroke-width="0.5" points="785.01,-540.67 795.42,-538.68 786.04,-533.74 785.01,-540.67"/>
<text text-anchor="middle" x="457.13" y="-370.3" font-family="Times,serif" font-size="14.00">11</text>
</g>
<!-- Insert Date Appeal to Prefecture&#45;&gt;Send Appeal to Prefecture -->
<g id="edge37" class="edge">
<title>Insert Date Appeal to Prefecture&#45;&gt;Send Appeal to Prefecture</title>
<path fill="none" stroke="#ff0000" stroke-width="0.5" stroke-dasharray="5,2" d="M414.33,-181.52C446.88,-171.81 488.22,-159.59 525.13,-149 542.1,-144.13 560.38,-139 577.61,-134.2"/>
<polygon fill="#ff0000" stroke="#ff0000" stroke-width="0.5" points="578.19,-137.67 586.89,-131.62 576.32,-130.93 578.19,-137.67"/>
<text text-anchor="middle" x="532.13" y="-152.8" font-family="Times,serif" font-size="14.00">30</text>
</g>
<!-- Insert Date Appeal to Prefecture&#45;&gt;Receive Result Appeal from Prefecture -->
<g id="edge49" class="edge">
<title>Insert Date Appeal to Prefecture&#45;&gt;Receive Result Appeal from Prefecture</title>
<path fill="none" stroke="#ff0000" stroke-width="0.5" stroke-dasharray="5,2" d="M452.42,-218.49C461.87,-223.06 470.69,-228.8 478.13,-236 541.56,-297.38 481.81,-357.88 539.13,-425 542.89,-429.41 547.35,-433.32 552.15,-436.78"/>
<polygon fill="#ff0000" stroke="#ff0000" stroke-width="0.5" points="550.16,-439.67 560.47,-442.13 553.95,-433.78 550.16,-439.67"/>
<text text-anchor="middle" x="514.63" y="-326.8" font-family="Times,serif" font-size="14.00">1</text>
</g>
<!-- Send Appeal to Prefecture&#45;&gt;Send Fine -->
<g id="edge39" class="edge">
<title>Send Appeal to Prefecture&#45;&gt;Send Fine</title>
<path fill="none" stroke="#ff0000" stroke-width="0.5" stroke-dasharray="5,2" d="M558.2,-118.78C399.24,-128.2 92.13,-152.43 92.13,-199 92.13,-723 92.13,-723 92.13,-723 92.13,-752.02 108.2,-759.96 134.13,-773 178.9,-795.52 502.15,-804.13 647.11,-806.88"/>
<polygon fill="#ff0000" stroke="#ff0000" stroke-width="0.5" points="646.83,-810.38 656.9,-807.07 646.96,-803.38 646.83,-810.38"/>
<text text-anchor="middle" x="95.63" y="-457.3" font-family="Times,serif" font-size="14.00">6</text>
</g>
<!-- Send Appeal to Prefecture&#45;&gt;Add penalty -->
<g id="edge43" class="edge">
<title>Send Appeal to Prefecture&#45;&gt;Add penalty</title>
<path fill="none" stroke="#ff0000" stroke-width="0.5" stroke-dasharray="5,2" d="M647.82,-131.42C640,-177.52 624.57,-305.14 674.13,-392 693.57,-426.06 723.66,-410.86 746.13,-443 755.56,-456.49 779.98,-556.69 791.69,-606.32"/>
<polygon fill="#ff0000" stroke="#ff0000" stroke-width="0.5" points="788.25,-606.97 793.94,-615.91 795.06,-605.37 788.25,-606.97"/>
<text text-anchor="middle" x="681.13" y="-370.3" font-family="Times,serif" font-size="14.00">14</text>
</g>
<!-- Send Appeal to Prefecture&#45;&gt;Payment -->
<g id="edge38" class="edge">
<title>Send Appeal to Prefecture&#45;&gt;Payment</title>
<path fill="none" stroke="#ff0000" stroke-width="0.5" stroke-dasharray="5,2" d="M682.73,-131.36C690.04,-136.38 697.37,-142.33 703.13,-149 719.25,-167.65 727.13,-174.35 727.13,-199 727.13,-331.5 727.13,-331.5 727.13,-331.5 727.13,-395.18 786.5,-387.17 817.13,-443 830.54,-467.43 840.05,-497.9 845.74,-519.53"/>
<polygon fill="#ff0000" stroke="#ff0000" stroke-width="0.5" points="842.27,-520.09 848.12,-528.93 849.06,-518.38 842.27,-520.09"/>
<text text-anchor="middle" x="734.13" y="-326.8" font-family="Times,serif" font-size="14.00">14</text>
</g>
<!-- Send Appeal to Prefecture&#45;&gt;Receive Result Appeal from Prefecture -->
<g id="edge48" class="edge">
<title>Send Appeal to Prefecture&#45;&gt;Receive Result Appeal from Prefecture</title>
<path fill="none" stroke="#ff0000" stroke-width="0.5" stroke-dasharray="5,2" d="M608.43,-131.42C582.02,-145.33 553.13,-167.69 553.13,-199 553.13,-375 553.13,-375 553.13,-375 553.13,-397.75 567.19,-419.23 581.09,-434.9"/>
<polygon fill="#ff0000" stroke="#ff0000" stroke-width="0.5" points="578.36,-437.1 587.76,-441.99 583.46,-432.3 578.36,-437.1"/>
<text text-anchor="middle" x="556.63" y="-283.3" font-family="Times,serif" font-size="14.00">3</text>
</g>
<!-- Send Appeal to Prefecture&#45;&gt;end_node -->
<g id="edge57" class="edge">
<title>Send Appeal to Prefecture&#45;&gt;end_node</title>
<path fill="none" stroke="#ff0000" stroke-width="0.5" stroke-dasharray="5,2" d="M742.64,-94.52C848.06,-74.39 1015.68,-42.38 1085.25,-29.09"/>
<polygon fill="#ff0000" stroke="#ff0000" stroke-width="0.5" points="1085.63,-32.58 1094.8,-27.27 1084.32,-25.7 1085.63,-32.58"/>
<text text-anchor="middle" x="918.13" y="-65.8" font-family="Times,serif" font-size="14.00">62</text>
</g>
<!-- Appeal to Judge&#45;&gt;Send Fine -->
<g id="edge46" class="edge">
<title>Appeal to Judge&#45;&gt;Send Fine</title>
<path fill="none" stroke="#ff0000" stroke-width="0.5" stroke-dasharray="5,2" d="M1202.5,-304.17C1231.14,-314.35 1262.03,-330.56 1281.13,-356 1320.93,-409 1303.13,-437.22 1303.13,-503.5 1303.13,-723 1303.13,-723 1303.13,-723 1303.13,-774.63 942.3,-797.57 786.92,-805.06"/>
<polygon fill="#ff0000" stroke="#ff0000" stroke-width="0.5" points="787.12,-801.54 777.3,-805.51 787.46,-808.53 787.12,-801.54"/>
<text text-anchor="middle" x="1306.63" y="-544.3" font-family="Times,serif" font-size="14.00">3</text>
</g>
<!-- Appeal to Judge&#45;&gt;Add penalty -->
<g id="edge20" class="edge">
<title>Appeal to Judge&#45;&gt;Add penalty</title>
<path fill="none" stroke="#ff0000" stroke-width="0.51" stroke-dasharray="5,2" d="M1138.21,-305.14C1153.68,-361.19 1193.28,-538.95 1093.13,-599 1057.33,-620.47 948.84,-628.78 873.91,-631.99"/>
<polygon fill="#ff0000" stroke="#ff0000" stroke-width="0.51" points="874.19,-628.48 864.34,-632.38 874.48,-635.47 874.19,-628.48"/>
<text text-anchor="middle" x="1168.63" y="-457.3" font-family="Times,serif" font-size="14.00">164</text>
</g>
<!-- Appeal to Judge&#45;&gt;Send for Credit Collection -->
<g id="edge30" class="edge">
<title>Appeal to Judge&#45;&gt;Send for Credit Collection</title>
<path fill="none" stroke="#ff0000" stroke-width="0.5" stroke-dasharray="5,2" d="M1156.89,-268.59C1174.17,-255.93 1197.77,-238.64 1216.77,-224.71"/>
<polygon fill="#ff0000" stroke="#ff0000" stroke-width="0.5" points="1218.8,-227.56 1224.8,-218.83 1214.66,-221.92 1218.8,-227.56"/>
<text text-anchor="middle" x="1200.63" y="-239.8" font-family="Times,serif" font-size="14.00">9</text>
</g>
<!-- Appeal to Judge&#45;&gt;Payment -->
<g id="edge34" class="edge">
<title>Appeal to Judge&#45;&gt;Payment</title>
<path fill="none" stroke="#ff0000" stroke-width="0.5" stroke-dasharray="5,2" d="M1063.92,-293.23C981.7,-301.06 851.89,-319.03 822.13,-356 812.1,-368.46 814.83,-377.76 822.13,-392 822.41,-392.54 892.85,-442.46 893.13,-443 907.13,-470.29 905.97,-484.15 893.13,-512 891.47,-515.61 889.22,-518.99 886.64,-522.11"/>
<polygon fill="#ff0000" stroke="#ff0000" stroke-width="0.5" points="884.19,-519.61 879.71,-529.22 889.2,-524.5 884.19,-519.61"/>
<text text-anchor="middle" x="874.13" y="-413.8" font-family="Times,serif" font-size="14.00">18</text>
</g>
<!-- Appeal to Judge&#45;&gt;Insert Date Appeal to Prefecture -->
<g id="edge42" class="edge">
<title>Appeal to Judge&#45;&gt;Insert Date Appeal to Prefecture</title>
<path fill="none" stroke="#ff0000" stroke-width="0.5" stroke-dasharray="5,2" d="M1063.84,-278.42C931.36,-263.93 640.71,-232.13 476.07,-214.12"/>
<polygon fill="#ff0000" stroke="#ff0000" stroke-width="0.5" points="476.48,-210.64 466.16,-213.04 475.72,-217.6 476.48,-210.64"/>
<text text-anchor="middle" x="794.63" y="-239.8" font-family="Times,serif" font-size="14.00">2</text>
</g>
<!-- Appeal to Judge&#45;&gt;Send Appeal to Prefecture -->
<g id="edge51" class="edge">
<title>Appeal to Judge&#45;&gt;Send Appeal to Prefecture</title>
<path fill="none" stroke="#ff0000" stroke-width="0.5" stroke-dasharray="5,2" d="M1117.04,-268.82C1112.29,-263.34 1107.25,-257.1 1103.13,-251 1074.54,-208.66 1092.6,-177.4 1050.13,-149 1026.05,-132.9 864.29,-122.93 754.27,-117.93"/>
<polygon fill="#ff0000" stroke="#ff0000" stroke-width="0.5" points="754.69,-114.45 744.54,-117.5 754.38,-121.44 754.69,-114.45"/>
<text text-anchor="middle" x="1090.63" y="-196.3" font-family="Times,serif" font-size="14.00">1</text>
</g>
<!-- Appeal to Judge&#45;&gt;end_node -->
<g id="edge58" class="edge">
<title>Appeal to Judge&#45;&gt;end_node</title>
<path fill="none" stroke="#ff0000" stroke-width="0.51" stroke-dasharray="5,2" d="M1132.08,-268.74C1129.44,-225.34 1122.49,-111.09 1119.08,-54.99"/>
<polygon fill="#ff0000" stroke="#ff0000" stroke-width="0.51" points="1122.57,-54.82 1118.47,-45.05 1115.59,-55.24 1122.57,-54.82"/>
<text text-anchor="middle" x="1135.63" y="-152.8" font-family="Times,serif" font-size="14.00">220</text>
</g>
<!-- Receive Result Appeal from Prefecture&#45;&gt;Add penalty -->
<g id="edge32" class="edge">
<title>Receive Result Appeal from Prefecture&#45;&gt;Add penalty</title>
<path fill="none" stroke="#ff0000" stroke-width="0.5" stroke-dasharray="5,2" d="M624.66,-479.16C650.66,-505.82 703.09,-558.37 751.13,-599 755.6,-602.78 760.43,-606.62 765.24,-610.32"/>
<polygon fill="#ff0000" stroke="#ff0000" stroke-width="0.5" points="763.08,-613.08 773.17,-616.3 767.29,-607.48 763.08,-613.08"/>
<text text-anchor="middle" x="715.63" y="-544.3" font-family="Times,serif" font-size="14.00">4</text>
</g>
<!-- Receive Result Appeal from Prefecture&#45;&gt;Payment -->
<g id="edge26" class="edge">
<title>Receive Result Appeal from Prefecture&#45;&gt;Payment</title>
<path fill="none" stroke="#ff0000" stroke-width="0.5" stroke-dasharray="5,2" d="M660.57,-479.44C677.09,-484.99 695.39,-491.19 712.13,-497 739.03,-506.33 768.74,-516.9 793.84,-525.91"/>
<polygon fill="#ff0000" stroke="#ff0000" stroke-width="0.5" points="792.63,-529.2 803.23,-529.29 795,-522.61 792.63,-529.2"/>
<text text-anchor="middle" x="757.63" y="-500.8" font-family="Times,serif" font-size="14.00">3</text>
</g>
<!-- Receive Result Appeal from Prefecture&#45;&gt;Send Appeal to Prefecture -->
<g id="edge50" class="edge">
<title>Receive Result Appeal from Prefecture&#45;&gt;Send Appeal to Prefecture</title>
<path fill="none" stroke="#ff0000" stroke-width="0.5" stroke-dasharray="5,2" d="M604.2,-442.52C600.7,-425.41 596.13,-398.55 596.13,-375 596.13,-375 596.13,-375 596.13,-199 596.13,-176.25 610.19,-154.77 624.09,-139.1"/>
<polygon fill="#ff0000" stroke="#ff0000" stroke-width="0.5" points="626.46,-141.7 630.76,-132.01 621.36,-136.9 626.46,-141.7"/>
<text text-anchor="middle" x="599.63" y="-283.3" font-family="Times,serif" font-size="14.00">1</text>
</g>
<!-- Receive Result Appeal from Prefecture&#45;&gt;Notify Result Appeal to Offender -->
<g id="edge22" class="edge">
<title>Receive Result Appeal from Prefecture&#45;&gt;Notify Result Appeal to Offender</title>
<path fill="none" stroke="#ff0000" stroke-width="0.5" stroke-dasharray="5,2" d="M737.01,-451.37C796.42,-445.86 859.57,-437.38 886.13,-425 898.62,-419.18 910.16,-409.4 919.35,-400.02"/>
<polygon fill="#ff0000" stroke="#ff0000" stroke-width="0.5" points="921.73,-402.6 925.96,-392.88 916.6,-397.84 921.73,-402.6"/>
<text text-anchor="middle" x="910.63" y="-413.8" font-family="Times,serif" font-size="14.00">5</text>
</g>
<!-- Notify Result Appeal to Offender&#45;&gt;Payment -->
<g id="edge23" class="edge">
<title>Notify Result Appeal to Offender&#45;&gt;Payment</title>
<path fill="none" stroke="#ff0000" stroke-width="0.5" stroke-dasharray="5,2" d="M944.27,-392.43C949.84,-420.4 956.38,-475.85 931.13,-512 927.3,-517.49 922.4,-522.13 916.93,-526.04"/>
<polygon fill="#ff0000" stroke="#ff0000" stroke-width="0.5" points="915.22,-522.98 908.56,-531.23 918.91,-528.93 915.22,-522.98"/>
<text text-anchor="middle" x="952.63" y="-457.3" font-family="Times,serif" font-size="14.00">5</text>
</g>
<!-- Notify Result Appeal to Offender&#45;&gt;Appeal to Judge -->
<g id="edge52" class="edge">
<title>Notify Result Appeal to Offender&#45;&gt;Appeal to Judge</title>
<path fill="none" stroke="#ff0000" stroke-width="0.5" stroke-dasharray="5,2" d="M979.65,-355.59C1009.84,-342.3 1051.61,-323.91 1083.95,-309.66"/>
<polygon fill="#ff0000" stroke="#ff0000" stroke-width="0.5" points="1085.23,-312.92 1092.97,-305.69 1082.41,-306.52 1085.23,-312.92"/>
<text text-anchor="middle" x="1051.63" y="-326.8" font-family="Times,serif" font-size="14.00">1</text>
</g>
</g>
</svg>
