<?xml version="1.0" encoding="UTF-8" standalone="no"?>
<!DOCTYPE svg PUBLIC "-//W3C//DTD SVG 1.1//EN"
 "http://www.w3.org/Graphics/SVG/1.1/DTD/svg11.dtd">
<!-- Generated by graphviz version 7.0.4 (0)
 -->
<!-- Title: dfg Pages: 1 -->
<svg width="1136pt" height="1096pt"
 viewBox="0.00 0.00 1135.86 1096.00" xmlns="http://www.w3.org/2000/svg" xmlns:xlink="http://www.w3.org/1999/xlink">
<g id="graph0" class="graph" transform="scale(1 1) rotate(0) translate(4 1092)">
<title>dfg</title>
<polygon fill="white" stroke="none" points="-4,4 -4,-1092 1131.86,-1092 1131.86,4 -4,4"/>
<!-- start_node -->
<g id="node1" class="node">
<title>start_node</title>
<ellipse fill="none" stroke="black" cx="428.86" cy="-1070" rx="18" ry="18"/>
<text text-anchor="start" x="424.36" y="-1066.3" font-family="Times,serif" font-size="14.00">●</text>
</g>
<!-- Create Fine -->
<g id="node2" class="node">
<title>Create Fine</title>
<polygon fill="#9b9bff" stroke="black" points="488.36,-1001 369.36,-1001 369.36,-965 488.36,-965 488.36,-1001"/>
<text text-anchor="middle" x="428.86" y="-979.3" font-family="Times,serif" font-size="14.00">Create Fine (3140)</text>
</g>
<!-- start_node&#45;&gt;Create Fine -->
<g id="edge1" class="edge">
<title>start_node&#45;&gt;Create Fine</title>
<path fill="none" stroke="#000000" stroke-width="6.01" d="M428.86,-1051.8C428.86,-1041.96 428.86,-1029.27 428.86,-1017.53"/>
<polygon fill="#000000" stroke="#000000" stroke-width="6.01" points="434.12,-1017.92 428.86,-1007.92 423.61,-1017.92 434.12,-1017.92"/>
<text text-anchor="middle" x="442.86" y="-1022.8" font-family="Times,serif" font-size="14.00">3140</text>
</g>
<!-- Send Fine -->
<g id="node3" class="node">
<title>Send Fine</title>
<polygon fill="#9b9bff" stroke="black" points="604.36,-914 493.36,-914 493.36,-878 604.36,-878 604.36,-914"/>
<text text-anchor="middle" x="548.86" y="-892.3" font-family="Times,serif" font-size="14.00">Send Fine (3140)</text>
</g>
<!-- Create Fine&#45;&gt;Send Fine -->
<g id="edge2" class="edge">
<title>Create Fine&#45;&gt;Send Fine</title>
<path fill="none" stroke="#000000" stroke-width="6" d="M453.44,-964.59C470.02,-952.85 492.23,-937.12 511.05,-923.79"/>
<polygon fill="#000000" stroke="#000000" stroke-width="6" points="513.93,-928.18 519.06,-918.11 507.86,-919.61 513.93,-928.18"/>
<text text-anchor="middle" x="510.86" y="-935.8" font-family="Times,serif" font-size="14.00">3136</text>
</g>
<!-- Insert Date Appeal to Prefecture -->
<g id="node5" class="node">
<title>Insert Date Appeal to Prefecture</title>
<polygon fill="#9b9bff" stroke="black" points="715.86,-740 483.86,-740 483.86,-704 715.86,-704 715.86,-740"/>
<text text-anchor="middle" x="599.86" y="-718.3" font-family="Times,serif" font-size="14.00">Insert Date Appeal to Prefecture (3134)</text>
</g>
<!-- Create Fine&#45;&gt;Insert Date Appeal to Prefecture -->
<g id="edge51" class="edge">
<title>Create Fine&#45;&gt;Insert Date Appeal to Prefecture</title>
<path fill="none" stroke="#ff0000" stroke-width="0.5" stroke-dasharray="5,2" d="M425.31,-964.73C418.92,-928.65 409.47,-844.25 447.86,-791 463.54,-769.26 487.79,-754.35 512.35,-744.17"/>
<polygon fill="#ff0000" stroke="#ff0000" stroke-width="0.5" points="513.38,-747.53 521.42,-740.64 510.83,-741.01 513.38,-747.53"/>
<text text-anchor="middle" x="428.36" y="-848.8" font-family="Times,serif" font-size="14.00">1</text>
</g>
<!-- Payment -->
<g id="node10" class="node">
<title>Payment</title>
<polygon fill="#f5f5ff" stroke="black" points="423.86,-131 325.86,-131 325.86,-95 423.86,-95 423.86,-131"/>
<text text-anchor="middle" x="374.86" y="-109.3" font-family="Times,serif" font-size="14.00">Payment (415)</text>
</g>
<!-- Create Fine&#45;&gt;Payment -->
<g id="edge43" class="edge">
<title>Create Fine&#45;&gt;Payment</title>
<path fill="none" stroke="#ff0000" stroke-width="0.5" stroke-dasharray="5,2" d="M369.18,-980.95C261.74,-977.42 46.86,-962.22 46.86,-897 46.86,-897 46.86,-897 46.86,-416.5 46.86,-260.57 134.36,-218.66 273.86,-149 286.96,-142.46 301.57,-136.63 315.52,-131.69"/>
<polygon fill="#ff0000" stroke="#ff0000" stroke-width="0.5" points="316.49,-135.06 324.81,-128.5 314.21,-128.44 316.49,-135.06"/>
<text text-anchor="middle" x="50.36" y="-544.3" font-family="Times,serif" font-size="14.00">3</text>
</g>
<!-- Insert Fine Notification -->
<g id="node4" class="node">
<title>Insert Fine Notification</title>
<polygon fill="#9e9eff" stroke="black" points="640.86,-827 456.86,-827 456.86,-791 640.86,-791 640.86,-827"/>
<text text-anchor="middle" x="548.86" y="-805.3" font-family="Times,serif" font-size="14.00">Insert Fine Notification (3037)</text>
</g>
<!-- Send Fine&#45;&gt;Insert Fine Notification -->
<g id="edge3" class="edge">
<title>Send Fine&#45;&gt;Insert Fine Notification</title>
<path fill="none" stroke="#000000" stroke-width="5.8" d="M548.86,-877.8C548.86,-867.96 548.86,-855.27 548.86,-843.53"/>
<polygon fill="#000000" stroke="#000000" stroke-width="5.8" points="553.94,-843.87 548.86,-833.87 543.79,-843.87 553.94,-843.87"/>
<text text-anchor="middle" x="562.86" y="-848.8" font-family="Times,serif" font-size="14.00">3020</text>
</g>
<!-- Send Fine&#45;&gt;Insert Date Appeal to Prefecture -->
<g id="edge21" class="edge">
<title>Send Fine&#45;&gt;Insert Date Appeal to Prefecture</title>
<path fill="none" stroke="#ff0000" stroke-width="0.7" stroke-dasharray="5,2" d="M604.67,-888.34C639.64,-882.88 680.06,-873.79 690.86,-860 718.82,-824.31 716.53,-795.37 690.86,-758 687.91,-753.69 684.34,-749.91 680.35,-746.6"/>
<polygon fill="#ff0000" stroke="#ff0000" stroke-width="0.7" points="682.68,-743.97 672.5,-741.05 678.64,-749.68 682.68,-743.97"/>
<text text-anchor="middle" x="721.36" y="-805.3" font-family="Times,serif" font-size="14.00">116</text>
</g>
<!-- Send Appeal to Prefecture -->
<g id="node7" class="node">
<title>Send Appeal to Prefecture</title>
<polygon fill="#9b9bff" stroke="black" points="883.36,-392 684.36,-392 684.36,-356 883.36,-356 883.36,-392"/>
<text text-anchor="middle" x="783.86" y="-370.3" font-family="Times,serif" font-size="14.00">Send Appeal to Prefecture (3112)</text>
</g>
<!-- Send Fine&#45;&gt;Send Appeal to Prefecture -->
<g id="edge49" class="edge">
<title>Send Fine&#45;&gt;Send Appeal to Prefecture</title>
<path fill="none" stroke="#ff0000" stroke-width="0.5" stroke-dasharray="5,2" d="M604.65,-892.5C748.33,-885.32 1119.86,-861.74 1119.86,-810 1119.86,-810 1119.86,-810 1119.86,-677.5 1119.86,-571.29 1136.39,-528.85 1073.86,-443 1057.75,-420.87 1047.52,-419.53 1021.86,-410 981.62,-395.05 935.32,-386.46 894.31,-381.54"/>
<polygon fill="#ff0000" stroke="#ff0000" stroke-width="0.5" points="894.82,-378.07 884.49,-380.42 894.03,-385.03 894.82,-378.07"/>
<text text-anchor="middle" x="1124.36" y="-631.3" font-family="Times,serif" font-size="14.00">2</text>
</g>
<!-- Appeal to Judge -->
<g id="node11" class="node">
<title>Appeal to Judge</title>
<polygon fill="#ffffff" stroke="black" points="639.86,-653 501.86,-653 501.86,-617 639.86,-617 639.86,-653"/>
<text text-anchor="middle" x="570.86" y="-631.3" font-family="Times,serif" font-size="14.00">Appeal to Judge (123)</text>
</g>
<!-- Send Fine&#45;&gt;Appeal to Judge -->
<g id="edge54" class="edge">
<title>Send Fine&#45;&gt;Appeal to Judge</title>
<path fill="none" stroke="#ff0000" stroke-width="0.5" stroke-dasharray="5,2" d="M505.3,-877.59C483.87,-866.55 460.08,-849.95 447.86,-827 440.35,-812.88 446.77,-806.96 447.86,-791 451.64,-736.05 436.95,-706.74 478.86,-671 484.68,-666.05 491.26,-661.75 498.17,-658.05"/>
<polygon fill="#ff0000" stroke="#ff0000" stroke-width="0.5" points="499.64,-661.22 507.08,-653.68 496.56,-654.94 499.64,-661.22"/>
<text text-anchor="middle" x="452.36" y="-761.8" font-family="Times,serif" font-size="14.00">2</text>
</g>
<!-- Insert Fine Notification&#45;&gt;Insert Date Appeal to Prefecture -->
<g id="edge4" class="edge">
<title>Insert Fine Notification&#45;&gt;Insert Date Appeal to Prefecture</title>
<path fill="none" stroke="#000000" stroke-width="4.95" d="M545.49,-790.82C544.38,-780.7 544.55,-767.96 549.86,-758 551.08,-755.73 552.51,-753.58 554.1,-751.54"/>
<polygon fill="#000000" stroke="#000000" stroke-width="4.95" points="556.93,-754.82 561.1,-744.76 550.91,-748.6 556.93,-754.82"/>
<text text-anchor="middle" x="563.86" y="-761.8" font-family="Times,serif" font-size="14.00">2536</text>
</g>
<!-- Add penalty -->
<g id="node6" class="node">
<title>Add penalty</title>
<polygon fill="#9e9eff" stroke="black" points="432.36,-566 309.36,-566 309.36,-530 432.36,-530 432.36,-566"/>
<text text-anchor="middle" x="370.86" y="-544.3" font-family="Times,serif" font-size="14.00">Add penalty (3037)</text>
</g>
<!-- Insert Fine Notification&#45;&gt;Add penalty -->
<g id="edge7" class="edge">
<title>Insert Fine Notification&#45;&gt;Add penalty</title>
<path fill="none" stroke="#000000" stroke-width="1.36" d="M472.71,-790.55C462.61,-785.99 452.96,-780.24 444.86,-773 387.94,-722.12 374.68,-626.57 371.68,-578.38"/>
<polygon fill="#000000" stroke="#000000" stroke-width="1.36" points="375.18,-578.26 371.19,-568.44 368.18,-578.6 375.18,-578.26"/>
<text text-anchor="middle" x="402.36" y="-674.8" font-family="Times,serif" font-size="14.00">490</text>
</g>
<!-- Insert Fine Notification&#45;&gt;Send Appeal to Prefecture -->
<g id="edge41" class="edge">
<title>Insert Fine Notification&#45;&gt;Send Appeal to Prefecture</title>
<path fill="none" stroke="#ff0000" stroke-width="0.51" stroke-dasharray="5,2" d="M641.24,-791.53C642.79,-791.34 644.33,-791.17 645.86,-791 690.2,-786.14 1011.83,-800.6 1046.86,-773 1080.84,-746.23 1073.86,-722.75 1073.86,-679.5 1073.86,-679.5 1073.86,-679.5 1073.86,-503.5 1073.86,-474.57 1068.41,-465.2 1049.86,-443 1045.42,-437.68 1003.36,-412.44 996.86,-410 964.52,-397.83 927.84,-389.89 894.15,-384.7"/>
<polygon fill="#ff0000" stroke="#ff0000" stroke-width="0.51" points="894.97,-381.29 884.56,-383.29 893.95,-388.21 894.97,-381.29"/>
<text text-anchor="middle" x="1077.36" y="-587.8" font-family="Times,serif" font-size="14.00">8</text>
</g>
<!-- Insert Fine Notification&#45;&gt;Appeal to Judge -->
<g id="edge22" class="edge">
<title>Insert Fine Notification&#45;&gt;Appeal to Judge</title>
<path fill="none" stroke="#ff0000" stroke-width="0.5" stroke-dasharray="5,2" d="M518.65,-790.52C488.79,-770.84 449.97,-737.25 467.86,-704 478.51,-684.22 497.71,-669.23 516.68,-658.43"/>
<polygon fill="#ff0000" stroke="#ff0000" stroke-width="0.5" points="518.1,-661.64 525.26,-653.83 514.79,-655.47 518.1,-661.64"/>
<text text-anchor="middle" x="471.36" y="-718.3" font-family="Times,serif" font-size="14.00">3</text>
</g>
<!-- Insert Date Appeal to Prefecture&#45;&gt;Send Fine -->
<g id="edge52" class="edge">
<title>Insert Date Appeal to Prefecture&#45;&gt;Send Fine</title>
<path fill="none" stroke="#ff0000" stroke-width="0.5" stroke-dasharray="5,2" d="M618.42,-740.15C638.57,-760.94 665.87,-796.94 649.86,-827 639.41,-846.63 620.49,-861.62 601.83,-872.45"/>
<polygon fill="#ff0000" stroke="#ff0000" stroke-width="0.5" points="600.19,-869.36 593.09,-877.23 603.55,-875.5 600.19,-869.36"/>
<text text-anchor="middle" x="657.36" y="-805.3" font-family="Times,serif" font-size="14.00">1</text>
</g>
<!-- Insert Date Appeal to Prefecture&#45;&gt;Insert Fine Notification -->
<g id="edge31" class="edge">
<title>Insert Date Appeal to Prefecture&#45;&gt;Insert Fine Notification</title>
<path fill="none" stroke="#ff0000" stroke-width="0.53" stroke-dasharray="5,2" d="M593.65,-740.25C589.74,-750.17 584.24,-762.67 577.86,-773 575.94,-776.12 573.76,-779.25 571.48,-782.3"/>
<polygon fill="#ff0000" stroke="#ff0000" stroke-width="0.53" points="568.9,-779.93 565.42,-789.93 574.38,-784.28 568.9,-779.93"/>
<text text-anchor="middle" x="591.86" y="-761.8" font-family="Times,serif" font-size="14.00">16</text>
</g>
<!-- Insert Date Appeal to Prefecture&#45;&gt;Add penalty -->
<g id="edge5" class="edge">
<title>Insert Date Appeal to Prefecture&#45;&gt;Add penalty</title>
<path fill="none" stroke="#000000" stroke-width="4.49" d="M489.51,-703.66C460.2,-693.64 431.54,-677.86 412.86,-653 396.82,-631.64 385.91,-603.31 379.24,-581.61"/>
<polygon fill="#000000" stroke="#000000" stroke-width="4.49" points="383.05,-580.67 376.54,-572.12 375.5,-582.81 383.05,-580.67"/>
<text text-anchor="middle" x="426.86" y="-631.3" font-family="Times,serif" font-size="14.00">2275</text>
</g>
<!-- Insert Date Appeal to Prefecture&#45;&gt;Send Appeal to Prefecture -->
<g id="edge9" class="edge">
<title>Insert Date Appeal to Prefecture&#45;&gt;Send Appeal to Prefecture</title>
<path fill="none" stroke="#000000" stroke-width="1.92" d="M703.75,-703.52C764.48,-687.4 836.36,-656.76 873.86,-599 916.22,-533.78 849.9,-445.43 810.19,-401.74"/>
<polygon fill="#000000" stroke="#000000" stroke-width="1.92" points="812.81,-399.43 803.43,-394.5 807.69,-404.2 812.81,-399.43"/>
<text text-anchor="middle" x="897.36" y="-544.3" font-family="Times,serif" font-size="14.00">810</text>
</g>
<!-- Receive Result Appeal from Prefecture -->
<g id="node8" class="node">
<title>Receive Result Appeal from Prefecture</title>
<polygon fill="#e9e9ff" stroke="black" points="807.36,-218 544.36,-218 544.36,-182 807.36,-182 807.36,-218"/>
<text text-anchor="middle" x="675.86" y="-196.3" font-family="Times,serif" font-size="14.00">Receive Result Appeal from Prefecture (777)</text>
</g>
<!-- Insert Date Appeal to Prefecture&#45;&gt;Receive Result Appeal from Prefecture -->
<g id="edge17" class="edge">
<title>Insert Date Appeal to Prefecture&#45;&gt;Receive Result Appeal from Prefecture</title>
<path fill="none" stroke="#ff0000" stroke-width="0.55" stroke-dasharray="5,2" d="M716.34,-709.11C750.5,-703.88 787.6,-696.45 820.86,-686 852.91,-675.93 864.8,-676.44 888.86,-653 919.35,-623.31 921.48,-607.91 928.86,-566 952.34,-432.74 963.88,-357.9 861.86,-269 836.6,-246.99 803.62,-231.88 772.46,-221.61"/>
<polygon fill="#ff0000" stroke="#ff0000" stroke-width="0.55" points="773.79,-218.36 763.2,-218.69 771.69,-225.04 773.79,-218.36"/>
<text text-anchor="middle" x="950.86" y="-457.3" font-family="Times,serif" font-size="14.00">27</text>
</g>
<!-- Insert Date Appeal to Prefecture&#45;&gt;Appeal to Judge -->
<g id="edge46" class="edge">
<title>Insert Date Appeal to Prefecture&#45;&gt;Appeal to Judge</title>
<path fill="none" stroke="#ff0000" stroke-width="0.51" stroke-dasharray="5,2" d="M594,-703.8C590.05,-692.24 584.77,-676.75 580.25,-663.5"/>
<polygon fill="#ff0000" stroke="#ff0000" stroke-width="0.51" points="583.61,-662.53 577.07,-654.19 576.99,-664.79 583.61,-662.53"/>
<text text-anchor="middle" x="590.36" y="-674.8" font-family="Times,serif" font-size="14.00">5</text>
</g>
<!-- Add penalty&#45;&gt;Insert Date Appeal to Prefecture -->
<g id="edge8" class="edge">
<title>Add penalty&#45;&gt;Insert Date Appeal to Prefecture</title>
<path fill="none" stroke="#000000" stroke-width="1.33" d="M389.73,-566.46C404.08,-579.94 424.14,-599.24 440.86,-617 455.34,-632.37 455.37,-639.82 471.86,-653 494.62,-671.18 522.98,-686.83 547.21,-698.51"/>
<polygon fill="#000000" stroke="#000000" stroke-width="1.33" points="545.66,-701.65 556.19,-702.74 548.63,-695.31 545.66,-701.65"/>
<text text-anchor="middle" x="482.36" y="-631.3" font-family="Times,serif" font-size="14.00">474</text>
</g>
<!-- Add penalty&#45;&gt;Send Appeal to Prefecture -->
<g id="edge6" class="edge">
<title>Add penalty&#45;&gt;Send Appeal to Prefecture</title>
<path fill="none" stroke="#000000" stroke-width="4.47" d="M432.66,-537.5C483.35,-527.9 555.81,-509.97 612.86,-479 634.18,-467.43 633.87,-456.72 653.86,-443 661.45,-437.8 701.82,-416.84 735.59,-399.54"/>
<polygon fill="#000000" stroke="#000000" stroke-width="4.47" points="736.96,-403.24 744.08,-395.21 733.4,-396.28 736.96,-403.24"/>
<text text-anchor="middle" x="667.86" y="-457.3" font-family="Times,serif" font-size="14.00">2262</text>
</g>
<!-- Add penalty&#45;&gt;Receive Result Appeal from Prefecture -->
<g id="edge15" class="edge">
<title>Add penalty&#45;&gt;Receive Result Appeal from Prefecture</title>
<path fill="none" stroke="#000000" stroke-width="0.94" d="M320.8,-529.66C312.57,-524.98 304.81,-519.17 298.86,-512 254.32,-458.27 253.61,-420.25 280.86,-356 302.59,-304.78 321.88,-295.37 370.86,-269 420.47,-242.29 480.02,-226.06 533.28,-216.21"/>
<polygon fill="#000000" stroke="#000000" stroke-width="0.94" points="533.57,-219.71 542.8,-214.51 532.34,-212.82 533.57,-219.71"/>
<text text-anchor="middle" x="291.36" y="-370.3" font-family="Times,serif" font-size="14.00">249</text>
</g>
<!-- Notify Result Appeal to Offender -->
<g id="node9" class="node">
<title>Notify Result Appeal to Offender</title>
<polygon fill="#ebebff" stroke="black" points="631.86,-305 399.86,-305 399.86,-269 631.86,-269 631.86,-305"/>
<text text-anchor="middle" x="515.86" y="-283.3" font-family="Times,serif" font-size="14.00">Notify Result Appeal to Offender (698)</text>
</g>
<!-- Add penalty&#45;&gt;Notify Result Appeal to Offender -->
<g id="edge25" class="edge">
<title>Add penalty&#45;&gt;Notify Result Appeal to Offender</title>
<path fill="none" stroke="#ff0000" stroke-width="0.57" stroke-dasharray="5,2" d="M361.34,-529.66C348.12,-503.19 327.48,-451.42 342.86,-410 360.64,-362.15 375.76,-351.88 417.86,-323 425.25,-317.93 433.46,-313.51 441.88,-309.68"/>
<polygon fill="#ff0000" stroke="#ff0000" stroke-width="0.57" points="443.21,-312.92 451.04,-305.79 440.47,-306.48 443.21,-312.92"/>
<text text-anchor="middle" x="349.86" y="-413.8" font-family="Times,serif" font-size="14.00">42</text>
</g>
<!-- Add penalty&#45;&gt;Payment -->
<g id="edge20" class="edge">
<title>Add penalty&#45;&gt;Payment</title>
<path fill="none" stroke="#ff0000" stroke-width="0.51" stroke-dasharray="5,2" d="M309.14,-534.66C293.58,-529.48 277.68,-522.2 264.86,-512 209.76,-468.12 232.62,-426.31 236.86,-356 237.75,-341.25 236.51,-337.12 240.86,-323 263.68,-249.1 320.34,-176.12 352.2,-139.08"/>
<polygon fill="#ff0000" stroke="#ff0000" stroke-width="0.51" points="354.53,-141.72 358.47,-131.88 349.26,-137.12 354.53,-141.72"/>
<text text-anchor="middle" x="244.36" y="-326.8" font-family="Times,serif" font-size="14.00">6</text>
</g>
<!-- Send for Credit Collection -->
<g id="node12" class="node">
<title>Send for Credit Collection</title>
<polygon fill="#fcfcff" stroke="black" points="603.86,-479 409.86,-479 409.86,-443 603.86,-443 603.86,-479"/>
<text text-anchor="middle" x="506.86" y="-457.3" font-family="Times,serif" font-size="14.00">Send for Credit Collection (198)</text>
</g>
<!-- Add penalty&#45;&gt;Send for Credit Collection -->
<g id="edge29" class="edge">
<title>Add penalty&#45;&gt;Send for Credit Collection</title>
<path fill="none" stroke="#ff0000" stroke-width="0.51" stroke-dasharray="5,2" d="M398.71,-529.59C419.34,-516.7 447.65,-499.01 470.13,-484.96"/>
<polygon fill="#ff0000" stroke="#ff0000" stroke-width="0.51" points="471.78,-488.06 478.4,-479.79 468.07,-482.12 471.78,-488.06"/>
<text text-anchor="middle" x="451.36" y="-500.8" font-family="Times,serif" font-size="14.00">4</text>
</g>
<!-- Send Appeal to Prefecture&#45;&gt;Insert Fine Notification -->
<g id="edge50" class="edge">
<title>Send Appeal to Prefecture&#45;&gt;Insert Fine Notification</title>
<path fill="none" stroke="#ff0000" stroke-width="0.5" stroke-dasharray="5,2" d="M863.49,-392.43C875.6,-397.02 887.5,-402.79 897.86,-410 980.75,-467.68 1035.86,-489.52 1035.86,-590.5 1035.86,-723 1035.86,-723 1035.86,-723 1035.86,-807.88 753.48,-778.17 651.67,-790.3"/>
<polygon fill="#ff0000" stroke="#ff0000" stroke-width="0.5" points="651.43,-786.8 642.03,-791.69 652.43,-793.73 651.43,-786.8"/>
<text text-anchor="middle" x="1039.36" y="-587.8" font-family="Times,serif" font-size="14.00">1</text>
</g>
<!-- Send Appeal to Prefecture&#45;&gt;Insert Date Appeal to Prefecture -->
<g id="edge48" class="edge">
<title>Send Appeal to Prefecture&#45;&gt;Insert Date Appeal to Prefecture</title>
<path fill="none" stroke="#ff0000" stroke-width="0.5" stroke-dasharray="5,2" d="M812.73,-392.43C820.8,-397.74 829.39,-403.81 836.86,-410 896.09,-459.1 933.37,-492.14 911.86,-566 890.42,-639.63 860.57,-661.59 787.86,-686 768.34,-692.55 747.25,-697.98 726.48,-702.45"/>
<polygon fill="#ff0000" stroke="#ff0000" stroke-width="0.5" points="725.82,-699.02 716.74,-704.48 727.24,-705.87 725.82,-699.02"/>
<text text-anchor="middle" x="921.36" y="-544.3" font-family="Times,serif" font-size="14.00">2</text>
</g>
<!-- Send Appeal to Prefecture&#45;&gt;Add penalty -->
<g id="edge14" class="edge">
<title>Send Appeal to Prefecture&#45;&gt;Add penalty</title>
<path fill="none" stroke="#000000" stroke-width="0.89" d="M777.24,-392.39C767.36,-415.88 746.47,-457.28 714.86,-479 671.73,-508.65 531.32,-529.15 443.79,-539.41"/>
<polygon fill="#000000" stroke="#000000" stroke-width="0.89" points="443.46,-535.93 433.93,-540.55 444.27,-542.88 443.46,-535.93"/>
<text text-anchor="middle" x="758.36" y="-457.3" font-family="Times,serif" font-size="14.00">221</text>
</g>
<!-- Send Appeal to Prefecture&#45;&gt;Receive Result Appeal from Prefecture -->
<g id="edge10" class="edge">
<title>Send Appeal to Prefecture&#45;&gt;Receive Result Appeal from Prefecture</title>
<path fill="none" stroke="#000000" stroke-width="1.37" d="M783.94,-355.79C783.18,-327.63 777.82,-271.3 748.86,-236 745.46,-231.85 741.45,-228.17 737.09,-224.89"/>
<polygon fill="#000000" stroke="#000000" stroke-width="1.37" points="739.12,-222.03 728.83,-219.5 735.3,-227.9 739.12,-222.03"/>
<text text-anchor="middle" x="788.36" y="-283.3" font-family="Times,serif" font-size="14.00">499</text>
</g>
<!-- Send Appeal to Prefecture&#45;&gt;Notify Result Appeal to Offender -->
<g id="edge40" class="edge">
<title>Send Appeal to Prefecture&#45;&gt;Notify Result Appeal to Offender</title>
<path fill="none" stroke="#ff0000" stroke-width="0.5" stroke-dasharray="5,2" d="M748.64,-355.5C723.18,-343.06 690.9,-327.74 676.86,-323 659.79,-317.24 641.38,-312.19 623.31,-307.86"/>
<polygon fill="#ff0000" stroke="#ff0000" stroke-width="0.5" points="624.3,-304.49 613.76,-305.63 622.71,-311.31 624.3,-304.49"/>
<text text-anchor="middle" x="714.36" y="-326.8" font-family="Times,serif" font-size="14.00">3</text>
</g>
<!-- Send Appeal to Prefecture&#45;&gt;Appeal to Judge -->
<g id="edge53" class="edge">
<title>Send Appeal to Prefecture&#45;&gt;Appeal to Judge</title>
<path fill="none" stroke="#ff0000" stroke-width="0.5" stroke-dasharray="5,2" d="M792.34,-392.41C794.6,-397.9 796.73,-404.09 797.86,-410 799.12,-416.55 798.11,-418.34 797.86,-425 795.5,-488.93 800.26,-510.26 768.86,-566 759.14,-583.27 756.07,-589.17 738.86,-599 712.26,-614.21 679.91,-622.84 650.72,-627.74"/>
<polygon fill="#ff0000" stroke="#ff0000" stroke-width="0.5" points="650.23,-624.27 640.88,-629.26 651.3,-631.19 650.23,-624.27"/>
<text text-anchor="middle" x="797.36" y="-500.8" font-family="Times,serif" font-size="14.00">1</text>
</g>
<!-- Send Appeal to Prefecture&#45;&gt;Send for Credit Collection -->
<g id="edge34" class="edge">
<title>Send Appeal to Prefecture&#45;&gt;Send for Credit Collection</title>
<path fill="none" stroke="#ff0000" stroke-width="0.5" stroke-dasharray="5,2" d="M732.33,-392.42C702.74,-402.28 664.82,-414.67 630.86,-425 614.74,-429.91 597.36,-434.96 580.87,-439.65"/>
<polygon fill="#ff0000" stroke="#ff0000" stroke-width="0.5" points="580.13,-436.22 571.46,-442.3 582.03,-442.95 580.13,-436.22"/>
<text text-anchor="middle" x="680.36" y="-413.8" font-family="Times,serif" font-size="14.00">1</text>
</g>
<!-- end_node -->
<g id="node13" class="node">
<title>end_node</title>
<ellipse fill="none" stroke="black" cx="479.86" cy="-22" rx="18" ry="18"/>
<ellipse fill="none" stroke="black" cx="479.86" cy="-22" rx="22" ry="22"/>
<text text-anchor="start" x="475.36" y="-18.3" font-family="Times,serif" font-size="14.00">■</text>
</g>
<!-- Send Appeal to Prefecture&#45;&gt;end_node -->
<g id="edge55" class="edge">
<title>Send Appeal to Prefecture&#45;&gt;end_node</title>
<path fill="none" stroke="#000000" stroke-width="5.96" d="M794.27,-355.62C814.07,-320.07 852.18,-237.71 816.86,-182 749.69,-76.03 590.87,-39.36 517.82,-27.82"/>
<polygon fill="#000000" stroke="#000000" stroke-width="5.96" points="519.02,-22.73 508.38,-26.44 517.51,-33.04 519.02,-22.73"/>
<text text-anchor="middle" x="843.86" y="-196.3" font-family="Times,serif" font-size="14.00">3112</text>
</g>
<!-- Receive Result Appeal from Prefecture&#45;&gt;Add penalty -->
<g id="edge24" class="edge">
<title>Receive Result Appeal from Prefecture&#45;&gt;Add penalty</title>
<path fill="none" stroke="#ff0000" stroke-width="0.56" stroke-dasharray="5,2" d="M544.03,-212.98C454.63,-223.41 346.33,-241.28 309.86,-269 233.48,-327.05 225.53,-389.41 259.86,-479 266.35,-495.93 269.56,-500.85 283.86,-512 290.18,-516.93 297.29,-521.25 304.64,-525.03"/>
<polygon fill="#ff0000" stroke="#ff0000" stroke-width="0.56" points="302.75,-528 313.28,-529.15 305.76,-521.68 302.75,-528"/>
<text text-anchor="middle" x="251.86" y="-370.3" font-family="Times,serif" font-size="14.00">38</text>
</g>
<!-- Receive Result Appeal from Prefecture&#45;&gt;Send Appeal to Prefecture -->
<g id="edge38" class="edge">
<title>Receive Result Appeal from Prefecture&#45;&gt;Send Appeal to Prefecture</title>
<path fill="none" stroke="#ff0000" stroke-width="0.51" stroke-dasharray="5,2" d="M686.84,-218.48C705.87,-248.78 745.05,-311.19 767.36,-346.72"/>
<polygon fill="#ff0000" stroke="#ff0000" stroke-width="0.51" points="764.22,-348.29 772.5,-354.9 770.15,-344.57 764.22,-348.29"/>
<text text-anchor="middle" x="743.36" y="-283.3" font-family="Times,serif" font-size="14.00">9</text>
</g>
<!-- Receive Result Appeal from Prefecture&#45;&gt;Notify Result Appeal to Offender -->
<g id="edge11" class="edge">
<title>Receive Result Appeal from Prefecture&#45;&gt;Notify Result Appeal to Offender</title>
<path fill="none" stroke="#000000" stroke-width="1.63" d="M627.15,-218.43C614.43,-223.56 600.92,-229.55 588.86,-236 575,-243.42 560.56,-252.9 548.21,-261.6"/>
<polygon fill="#000000" stroke="#000000" stroke-width="1.63" points="546.47,-258.55 540.39,-267.23 550.55,-264.23 546.47,-258.55"/>
<text text-anchor="middle" x="599.36" y="-239.8" font-family="Times,serif" font-size="14.00">645</text>
</g>
<!-- Receive Result Appeal from Prefecture&#45;&gt;Payment -->
<g id="edge42" class="edge">
<title>Receive Result Appeal from Prefecture&#45;&gt;Payment</title>
<path fill="none" stroke="#ff0000" stroke-width="0.55" stroke-dasharray="5,2" d="M543.89,-182.94C522.08,-178.17 500.03,-171.99 479.86,-164 468.52,-159.5 467.63,-154.75 456.86,-149 448.05,-144.29 438.46,-139.73 429.06,-135.54"/>
<polygon fill="#ff0000" stroke="#ff0000" stroke-width="0.55" points="430.7,-132.44 420.13,-131.66 427.9,-138.86 430.7,-132.44"/>
<text text-anchor="middle" x="486.86" y="-152.8" font-family="Times,serif" font-size="14.00">32</text>
</g>
<!-- Receive Result Appeal from Prefecture&#45;&gt;Appeal to Judge -->
<g id="edge35" class="edge">
<title>Receive Result Appeal from Prefecture&#45;&gt;Appeal to Judge</title>
<path fill="none" stroke="#ff0000" stroke-width="0.51" stroke-dasharray="5,2" d="M728.14,-218.45C799.64,-245.81 916.53,-304.82 892.86,-392 863.85,-498.87 821.61,-565.15 761.86,-599 728.23,-618.06 686.4,-627.07 650.47,-631.2"/>
<polygon fill="#ff0000" stroke="#ff0000" stroke-width="0.51" points="650.37,-627.69 640.79,-632.21 651.09,-634.66 650.37,-627.69"/>
<text text-anchor="middle" x="890.36" y="-413.8" font-family="Times,serif" font-size="14.00">9</text>
</g>
<!-- Receive Result Appeal from Prefecture&#45;&gt;Send for Credit Collection -->
<g id="edge28" class="edge">
<title>Receive Result Appeal from Prefecture&#45;&gt;Send for Credit Collection</title>
<path fill="none" stroke="#ff0000" stroke-width="0.5" stroke-dasharray="5,2" d="M675.31,-218.25C673.74,-245.51 667.73,-299.39 644.86,-338 619.99,-380 575.71,-415.29 544.02,-436.94"/>
<polygon fill="#ff0000" stroke="#ff0000" stroke-width="0.5" points="542.43,-433.79 536.07,-442.26 546.32,-439.61 542.43,-433.79"/>
<text text-anchor="middle" x="655.36" y="-326.8" font-family="Times,serif" font-size="14.00">1</text>
</g>
<!-- Receive Result Appeal from Prefecture&#45;&gt;end_node -->
<g id="edge60" class="edge">
<title>Receive Result Appeal from Prefecture&#45;&gt;end_node</title>
<path fill="none" stroke="#000000" stroke-width="1.86" d="M658.37,-181.59C631.44,-155.03 577.92,-103.14 529.86,-62 522.7,-55.87 514.74,-49.47 507.31,-43.68"/>
<polygon fill="#000000" stroke="#000000" stroke-width="1.86" points="509.59,-41.02 499.53,-37.7 505.32,-46.57 509.59,-41.02"/>
<text text-anchor="middle" x="614.36" y="-109.3" font-family="Times,serif" font-size="14.00">777</text>
</g>
<!-- Notify Result Appeal to Offender&#45;&gt;Add penalty -->
<g id="edge19" class="edge">
<title>Notify Result Appeal to Offender&#45;&gt;Add penalty</title>
<path fill="none" stroke="#ff0000" stroke-width="0.52" stroke-dasharray="5,2" d="M399.52,-303.3C374.24,-308.44 352.01,-314.97 341.86,-323 308.48,-349.4 310.96,-368.43 301.86,-410 292.13,-454.46 286.19,-473.76 310.86,-512 313.58,-516.21 317,-519.98 320.81,-523.33"/>
<polygon fill="#ff0000" stroke="#ff0000" stroke-width="0.52" points="318.42,-525.91 328.49,-529.18 322.66,-520.34 318.42,-525.91"/>
<text text-anchor="middle" x="308.86" y="-413.8" font-family="Times,serif" font-size="14.00">10</text>
</g>
<!-- Notify Result Appeal to Offender&#45;&gt;Send Appeal to Prefecture -->
<g id="edge33" class="edge">
<title>Notify Result Appeal to Offender&#45;&gt;Send Appeal to Prefecture</title>
<path fill="none" stroke="#ff0000" stroke-width="0.5" stroke-dasharray="5,2" d="M571.38,-305.42C585.77,-310.54 601.09,-316.51 614.86,-323 626.59,-328.52 627.88,-333.08 639.86,-338 653.69,-343.67 668.66,-348.58 683.54,-352.76"/>
<polygon fill="#ff0000" stroke="#ff0000" stroke-width="0.5" points="682.51,-356.11 693.08,-355.35 684.34,-349.35 682.51,-356.11"/>
<text text-anchor="middle" x="643.36" y="-326.8" font-family="Times,serif" font-size="14.00">1</text>
</g>
<!-- Notify Result Appeal to Offender&#45;&gt;Receive Result Appeal from Prefecture -->
<g id="edge27" class="edge">
<title>Notify Result Appeal to Offender&#45;&gt;Receive Result Appeal from Prefecture</title>
<path fill="none" stroke="#ff0000" stroke-width="0.5" stroke-dasharray="5,2" d="M570.75,-268.63C583.9,-263.64 597.65,-257.71 609.86,-251 623.12,-243.72 636.62,-233.98 647.93,-225.03"/>
<polygon fill="#ff0000" stroke="#ff0000" stroke-width="0.5" points="649.96,-227.89 655.53,-218.88 645.55,-222.46 649.96,-227.89"/>
<text text-anchor="middle" x="635.36" y="-239.8" font-family="Times,serif" font-size="14.00">2</text>
</g>
<!-- Notify Result Appeal to Offender&#45;&gt;Payment -->
<g id="edge12" class="edge">
<title>Notify Result Appeal to Offender&#45;&gt;Payment</title>
<path fill="none" stroke="#000000" stroke-width="1.08" d="M506.56,-268.65C488.97,-236.24 450.9,-168.04 431.86,-149 427.81,-144.95 423.2,-141.15 418.4,-137.67"/>
<polygon fill="#000000" stroke="#000000" stroke-width="1.08" points="420.64,-134.96 410.39,-132.29 416.74,-140.77 420.64,-134.96"/>
<text text-anchor="middle" x="488.36" y="-196.3" font-family="Times,serif" font-size="14.00">331</text>
</g>
<!-- Notify Result Appeal to Offender&#45;&gt;Appeal to Judge -->
<g id="edge13" class="edge">
<title>Notify Result Appeal to Offender&#45;&gt;Appeal to Judge</title>
<path fill="none" stroke="#ff0000" stroke-width="0.68" stroke-dasharray="5,2" d="M487.13,-305.32C434.11,-339.41 330.61,-417.27 379.86,-479 402.32,-507.15 428.25,-478.03 458.86,-497 503.16,-524.45 537.93,-575.68 556.35,-607.12"/>
<polygon fill="#ff0000" stroke="#ff0000" stroke-width="0.68" points="553.24,-608.73 561.24,-615.68 559.32,-605.26 553.24,-608.73"/>
<text text-anchor="middle" x="390.36" y="-457.3" font-family="Times,serif" font-size="14.00">103</text>
</g>
<!-- Notify Result Appeal to Offender&#45;&gt;Send for Credit Collection -->
<g id="edge16" class="edge">
<title>Notify Result Appeal to Offender&#45;&gt;Send for Credit Collection</title>
<path fill="none" stroke="#000000" stroke-width="0.81" d="M514.95,-305.48C513.4,-335.14 510.24,-395.54 508.36,-431.42"/>
<polygon fill="#000000" stroke="#000000" stroke-width="0.81" points="504.87,-431.16 507.84,-441.33 511.86,-431.53 504.87,-431.16"/>
<text text-anchor="middle" x="523.36" y="-370.3" font-family="Times,serif" font-size="14.00">179</text>
</g>
<!-- Notify Result Appeal to Offender&#45;&gt;end_node -->
<g id="edge59" class="edge">
<title>Notify Result Appeal to Offender&#45;&gt;end_node</title>
<path fill="none" stroke="#000000" stroke-width="1.72" d="M513.56,-268.7C510.8,-248.06 506.03,-212.51 501.86,-182 495.94,-138.56 488.98,-88.46 484.51,-56.3"/>
<polygon fill="#000000" stroke="#000000" stroke-width="1.72" points="488.01,-56.09 483.17,-46.67 481.08,-57.06 488.01,-56.09"/>
<text text-anchor="middle" x="510.36" y="-152.8" font-family="Times,serif" font-size="14.00">698</text>
</g>
<!-- Payment&#45;&gt;Send Fine -->
<g id="edge44" class="edge">
<title>Payment&#45;&gt;Send Fine</title>
<path fill="none" stroke="#ff0000" stroke-width="0.5" stroke-dasharray="5,2" d="M330.4,-131.46C306.28,-142.81 277.49,-159.68 257.86,-182 131.34,-325.93 119.86,-398.86 119.86,-590.5 119.86,-810 119.86,-810 119.86,-810 119.86,-883.06 362.29,-894.31 482.66,-895.39"/>
<polygon fill="#ff0000" stroke="#ff0000" stroke-width="0.5" points="482.43,-898.89 492.46,-895.46 482.48,-891.89 482.43,-898.89"/>
<text text-anchor="middle" x="125.36" y="-500.8" font-family="Times,serif" font-size="14.00">3</text>
</g>
<!-- Payment&#45;&gt;Notify Result Appeal to Offender -->
<g id="edge45" class="edge">
<title>Payment&#45;&gt;Notify Result Appeal to Offender</title>
<path fill="none" stroke="#ff0000" stroke-width="0.5" stroke-dasharray="5,2" d="M385.19,-131.32C398.2,-152.6 421.8,-189.39 445.86,-218 458.81,-233.39 474.8,-249.13 488.23,-261.58"/>
<polygon fill="#ff0000" stroke="#ff0000" stroke-width="0.5" points="485.5,-263.83 495.24,-268 490.23,-258.66 485.5,-263.83"/>
<text text-anchor="middle" x="449.36" y="-196.3" font-family="Times,serif" font-size="14.00">1</text>
</g>
<!-- Payment&#45;&gt;Payment -->
<g id="edge18" class="edge">
<title>Payment&#45;&gt;Payment</title>
<path fill="none" stroke="#ff0000" stroke-width="0.53" stroke-dasharray="5,2" d="M424.24,-120.87C434.49,-120.04 441.86,-117.42 441.86,-113 441.86,-110.31 439.13,-108.28 434.67,-106.92"/>
<polygon fill="#ff0000" stroke="#ff0000" stroke-width="0.53" points="435.47,-103.51 425.03,-105.27 434.29,-110.41 435.47,-103.51"/>
<text text-anchor="middle" x="448.86" y="-109.3" font-family="Times,serif" font-size="14.00">16</text>
</g>
<!-- Payment&#45;&gt;Send for Credit Collection -->
<g id="edge39" class="edge">
<title>Payment&#45;&gt;Send for Credit Collection</title>
<path fill="none" stroke="#ff0000" stroke-width="0.5" stroke-dasharray="5,2" d="M372.25,-131.31C367.77,-165.7 361.18,-244.55 383.86,-305 403.91,-358.44 449.75,-407.8 479.46,-435.87"/>
<polygon fill="#ff0000" stroke="#ff0000" stroke-width="0.5" points="476.73,-438.12 486.45,-442.36 481.5,-432.99 476.73,-438.12"/>
<text text-anchor="middle" x="387.36" y="-283.3" font-family="Times,serif" font-size="14.00">2</text>
</g>
<!-- Payment&#45;&gt;end_node -->
<g id="edge56" class="edge">
<title>Payment&#45;&gt;end_node</title>
<path fill="none" stroke="#000000" stroke-width="1.23" d="M395.36,-94.63C412.23,-80.33 436.24,-59.98 454.35,-44.62"/>
<polygon fill="#000000" stroke="#000000" stroke-width="1.23" points="456.44,-47.44 461.81,-38.31 451.91,-42.1 456.44,-47.44"/>
<text text-anchor="middle" x="444.36" y="-65.8" font-family="Times,serif" font-size="14.00">415</text>
</g>
<!-- Appeal to Judge&#45;&gt;Insert Date Appeal to Prefecture -->
<g id="edge23" class="edge">
<title>Appeal to Judge&#45;&gt;Insert Date Appeal to Prefecture</title>
<path fill="none" stroke="#ff0000" stroke-width="0.51" stroke-dasharray="5,2" d="M569.02,-653.16C568.57,-663.05 569.07,-675.55 572.86,-686 573.98,-689.07 575.48,-692.1 577.19,-695"/>
<polygon fill="#ff0000" stroke="#ff0000" stroke-width="0.51" points="574.24,-696.88 582.79,-703.13 580,-692.91 574.24,-696.88"/>
<text text-anchor="middle" x="576.36" y="-674.8" font-family="Times,serif" font-size="14.00">5</text>
</g>
<!-- Appeal to Judge&#45;&gt;Add penalty -->
<g id="edge47" class="edge">
<title>Appeal to Judge&#45;&gt;Add penalty</title>
<path fill="none" stroke="#ff0000" stroke-width="0.5" stroke-dasharray="5,2" d="M546.64,-616.66C531.02,-606.1 509.94,-592.95 489.86,-584 475.1,-577.42 458.77,-571.68 443.05,-566.87"/>
<polygon fill="#ff0000" stroke="#ff0000" stroke-width="0.5" points="444.15,-563.54 433.56,-564.06 442.16,-570.26 444.15,-563.54"/>
<text text-anchor="middle" x="521.36" y="-587.8" font-family="Times,serif" font-size="14.00">3</text>
</g>
<!-- Appeal to Judge&#45;&gt;Send Appeal to Prefecture -->
<g id="edge37" class="edge">
<title>Appeal to Judge&#45;&gt;Send Appeal to Prefecture</title>
<path fill="none" stroke="#ff0000" stroke-width="0.51" stroke-dasharray="5,2" d="M640.24,-630.33C666.93,-625.85 696.17,-616.81 717.86,-599 777.04,-550.42 784.83,-451.6 784.84,-403.12"/>
<polygon fill="#ff0000" stroke="#ff0000" stroke-width="0.51" points="788.34,-403.2 784.72,-393.24 781.34,-403.28 788.34,-403.2"/>
<text text-anchor="middle" x="777.36" y="-500.8" font-family="Times,serif" font-size="14.00">5</text>
</g>
<!-- Appeal to Judge&#45;&gt;Notify Result Appeal to Offender -->
<g id="edge36" class="edge">
<title>Appeal to Judge&#45;&gt;Notify Result Appeal to Offender</title>
<path fill="none" stroke="#ff0000" stroke-width="0.51" stroke-dasharray="5,2" d="M592.96,-616.66C630.85,-584.66 702.29,-513.15 681.86,-443 664.05,-381.81 602.55,-336.1 559.63,-310.71"/>
<polygon fill="#ff0000" stroke="#ff0000" stroke-width="0.51" points="561.59,-307.8 551.18,-305.84 558.1,-313.87 561.59,-307.8"/>
<text text-anchor="middle" x="688.36" y="-457.3" font-family="Times,serif" font-size="14.00">7</text>
</g>
<!-- Appeal to Judge&#45;&gt;Payment -->
<g id="edge30" class="edge">
<title>Appeal to Judge&#45;&gt;Payment</title>
<path fill="none" stroke="#ff0000" stroke-width="0.55" stroke-dasharray="5,2" d="M528.04,-616.54C499.97,-605.72 462.24,-592.34 427.86,-584 372.04,-570.45 351.28,-591.64 299.86,-566 254.18,-543.22 241.64,-527.21 224.86,-479 180.48,-351.47 204.05,-287.07 288.86,-182 302.81,-164.72 321.91,-149.07 338.56,-137.15"/>
<polygon fill="#ff0000" stroke="#ff0000" stroke-width="0.55" points="340.13,-140.33 346.33,-131.74 336.13,-134.58 340.13,-140.33"/>
<text text-anchor="middle" x="211.86" y="-370.3" font-family="Times,serif" font-size="14.00">27</text>
</g>
<!-- Appeal to Judge&#45;&gt;Send for Credit Collection -->
<g id="edge32" class="edge">
<title>Appeal to Judge&#45;&gt;Send for Credit Collection</title>
<path fill="none" stroke="#ff0000" stroke-width="0.52" stroke-dasharray="5,2" d="M575.01,-616.52C580.54,-588.96 587.23,-534.67 564.86,-497 562.43,-492.91 559.32,-489.23 555.81,-485.95"/>
<polygon fill="#ff0000" stroke="#ff0000" stroke-width="0.52" points="558.18,-483.37 548.18,-479.86 553.81,-488.83 558.18,-483.37"/>
<text text-anchor="middle" x="586.86" y="-544.3" font-family="Times,serif" font-size="14.00">11</text>
</g>
<!-- Appeal to Judge&#45;&gt;end_node -->
<g id="edge57" class="edge">
<title>Appeal to Judge&#45;&gt;end_node</title>
<path fill="none" stroke="#ff0000" stroke-width="0.71" stroke-dasharray="5,2" d="M501.55,-618.02C499.97,-617.68 498.41,-617.34 496.86,-617 311.35,-576.77 230.03,-631.9 82.86,-512 18.24,-459.35 22.26,-420.83 12.86,-338 0.45,-228.62 -22.93,-166.4 60.86,-95 119.13,-45.35 358.08,-28.89 446.64,-24.43"/>
<polygon fill="#ff0000" stroke="#ff0000" stroke-width="0.71" points="446.73,-27.93 456.55,-23.95 446.39,-20.94 446.73,-27.93"/>
<text text-anchor="middle" x="23.36" y="-326.8" font-family="Times,serif" font-size="14.00">123</text>
</g>
<!-- Send for Credit Collection&#45;&gt;Send Appeal to Prefecture -->
<g id="edge26" class="edge">
<title>Send for Credit Collection&#45;&gt;Send Appeal to Prefecture</title>
<path fill="none" stroke="#ff0000" stroke-width="0.52" stroke-dasharray="5,2" d="M555.03,-442.57C567.88,-437.4 581.59,-431.39 593.86,-425 604.69,-419.36 605.59,-414.67 616.86,-410 634.73,-402.61 654.34,-396.71 673.65,-392.03"/>
<polygon fill="#ff0000" stroke="#ff0000" stroke-width="0.52" points="674.29,-395.47 683.24,-389.8 672.71,-388.65 674.29,-395.47"/>
<text text-anchor="middle" x="623.86" y="-413.8" font-family="Times,serif" font-size="14.00">15</text>
</g>
<!-- Send for Credit Collection&#45;&gt;end_node -->
<g id="edge58" class="edge">
<title>Send for Credit Collection&#45;&gt;end_node</title>
<path fill="none" stroke="#000000" stroke-width="0.85" d="M478.91,-442.62C469.94,-437.02 459.97,-430.76 450.86,-425 360.08,-367.53 95.4,-258.28 43.86,-164 40.67,-158.15 39.86,-154.33 43.86,-149 93.48,-83.02 353.97,-40.64 446.9,-27.42"/>
<polygon fill="#000000" stroke="#000000" stroke-width="0.85" points="447.18,-30.92 456.6,-26.07 446.21,-23.99 447.18,-30.92"/>
<text text-anchor="middle" x="146.36" y="-239.8" font-family="Times,serif" font-size="14.00">198</text>
</g>
</g>
</svg>
