<?xml version="1.0" encoding="UTF-8" standalone="no"?>
<!DOCTYPE svg PUBLIC "-//W3C//DTD SVG 1.1//EN"
 "http://www.w3.org/Graphics/SVG/1.1/DTD/svg11.dtd">
<!-- Generated by graphviz version 7.0.4 (0)
 -->
<!-- Title: dfg Pages: 1 -->
<svg width="601pt" height="1009pt"
 viewBox="0.00 0.00 601.00 1009.00" xmlns="http://www.w3.org/2000/svg" xmlns:xlink="http://www.w3.org/1999/xlink">
<g id="graph0" class="graph" transform="scale(1 1) rotate(0) translate(4 1005)">
<title>dfg</title>
<polygon fill="white" stroke="none" points="-4,4 -4,-1005 597,-1005 597,4 -4,4"/>
<!-- start_node -->
<g id="node1" class="node">
<title>start_node</title>
<ellipse fill="none" stroke="black" cx="85" cy="-983" rx="18" ry="18"/>
<text text-anchor="start" x="80.5" y="-979.3" font-family="Times,serif" font-size="14.00">●</text>
</g>
<!-- Create Fine -->
<g id="node2" class="node">
<title>Create Fine</title>
<polygon fill="#f1f1ff" stroke="black" points="138,-914 32,-914 32,-878 138,-878 138,-914"/>
<text text-anchor="middle" x="85" y="-892.3" font-family="Times,serif" font-size="14.00">Create Fine (29)</text>
</g>
<!-- start_node&#45;&gt;Create Fine -->
<g id="edge1" class="edge">
<title>start_node&#45;&gt;Create Fine</title>
<path fill="none" stroke="#000000" stroke-width="1.46" d="M85,-964.8C85,-953.81 85,-939.28 85,-926.48"/>
<polygon fill="#000000" stroke="#000000" stroke-width="1.46" points="88.5,-926.68 85,-916.68 81.5,-926.68 88.5,-926.68"/>
<text text-anchor="middle" x="92" y="-935.8" font-family="Times,serif" font-size="14.00">29</text>
</g>
<!-- Send Fine -->
<g id="node3" class="node">
<title>Send Fine</title>
<polygon fill="#f1f1ff" stroke="black" points="134,-827 36,-827 36,-791 134,-791 134,-827"/>
<text text-anchor="middle" x="85" y="-805.3" font-family="Times,serif" font-size="14.00">Send Fine (29)</text>
</g>
<!-- Create Fine&#45;&gt;Send Fine -->
<g id="edge2" class="edge">
<title>Create Fine&#45;&gt;Send Fine</title>
<path fill="none" stroke="#000000" stroke-width="1.46" d="M85,-877.8C85,-866.81 85,-852.28 85,-839.48"/>
<polygon fill="#000000" stroke="#000000" stroke-width="1.46" points="88.5,-839.68 85,-829.68 81.5,-839.68 88.5,-839.68"/>
<text text-anchor="middle" x="92" y="-848.8" font-family="Times,serif" font-size="14.00">29</text>
</g>
<!-- Insert Fine Notification -->
<g id="node4" class="node">
<title>Insert Fine Notification</title>
<polygon fill="#f1f1ff" stroke="black" points="170,-740 0,-740 0,-704 170,-704 170,-740"/>
<text text-anchor="middle" x="85" y="-718.3" font-family="Times,serif" font-size="14.00">Insert Fine Notification (29)</text>
</g>
<!-- Send Fine&#45;&gt;Insert Fine Notification -->
<g id="edge3" class="edge">
<title>Send Fine&#45;&gt;Insert Fine Notification</title>
<path fill="none" stroke="#000000" stroke-width="1.46" d="M85,-790.8C85,-779.81 85,-765.28 85,-752.48"/>
<polygon fill="#000000" stroke="#000000" stroke-width="1.46" points="88.5,-752.68 85,-742.68 81.5,-752.68 88.5,-752.68"/>
<text text-anchor="middle" x="92" y="-761.8" font-family="Times,serif" font-size="14.00">29</text>
</g>
<!-- Add penalty -->
<g id="node5" class="node">
<title>Add penalty</title>
<polygon fill="#f1f1ff" stroke="black" points="431,-653 321,-653 321,-617 431,-617 431,-653"/>
<text text-anchor="middle" x="376" y="-631.3" font-family="Times,serif" font-size="14.00">Add penalty (29)</text>
</g>
<!-- Insert Fine Notification&#45;&gt;Add penalty -->
<g id="edge4" class="edge">
<title>Insert Fine Notification&#45;&gt;Add penalty</title>
<path fill="none" stroke="#000000" stroke-width="0.84" d="M144.59,-703.59C192.77,-689.52 260.53,-669.73 310.27,-655.2"/>
<polygon fill="#000000" stroke="#000000" stroke-width="0.84" points="311.08,-658.61 319.69,-652.45 309.11,-651.89 311.08,-658.61"/>
<text text-anchor="middle" x="254" y="-674.8" font-family="Times,serif" font-size="14.00">11</text>
</g>
<!-- Insert Date Appeal to Prefecture -->
<g id="node6" class="node">
<title>Insert Date Appeal to Prefecture</title>
<polygon fill="#fcfcff" stroke="black" points="348,-566 136,-566 136,-530 348,-530 348,-566"/>
<text text-anchor="middle" x="242" y="-544.3" font-family="Times,serif" font-size="14.00">Insert Date Appeal to Prefecture (9)</text>
</g>
<!-- Insert Fine Notification&#45;&gt;Insert Date Appeal to Prefecture -->
<g id="edge9" class="edge">
<title>Insert Fine Notification&#45;&gt;Insert Date Appeal to Prefecture</title>
<path fill="none" stroke="#ff0000" stroke-width="0.71" stroke-dasharray="5,2" d="M100.92,-703.56C128.78,-673.04 186.47,-609.83 218.79,-574.43"/>
<polygon fill="#ff0000" stroke="#ff0000" stroke-width="0.71" points="221.16,-577.02 225.32,-567.27 215.99,-572.3 221.16,-577.02"/>
<text text-anchor="middle" x="182.5" y="-631.3" font-family="Times,serif" font-size="14.00">7</text>
</g>
<!-- Payment -->
<g id="node8" class="node">
<title>Payment</title>
<polygon fill="#9b9bff" stroke="black" points="345,-131 247,-131 247,-95 345,-95 345,-131"/>
<text text-anchor="middle" x="296" y="-109.3" font-family="Times,serif" font-size="14.00">Payment (196)</text>
</g>
<!-- Insert Fine Notification&#45;&gt;Payment -->
<g id="edge15" class="edge">
<title>Insert Fine Notification&#45;&gt;Payment</title>
<path fill="none" stroke="#ff0000" stroke-width="0.67" stroke-dasharray="5,2" d="M62.63,-703.67C45.22,-688.07 24,-663.43 24,-636 24,-636 24,-636 24,-199 24,-154.85 156.22,-130.94 236.29,-120.52"/>
<polygon fill="#ff0000" stroke="#ff0000" stroke-width="0.67" points="236.25,-124.05 245.73,-119.32 235.37,-117.1 236.25,-124.05"/>
<text text-anchor="middle" x="27.5" y="-413.8" font-family="Times,serif" font-size="14.00">6</text>
</g>
<!-- Appeal to Judge -->
<g id="node9" class="node">
<title>Appeal to Judge</title>
<polygon fill="#fcfcff" stroke="black" points="177.5,-479 52.5,-479 52.5,-443 177.5,-443 177.5,-479"/>
<text text-anchor="middle" x="115" y="-457.3" font-family="Times,serif" font-size="14.00">Appeal to Judge (8)</text>
</g>
<!-- Insert Fine Notification&#45;&gt;Appeal to Judge -->
<g id="edge12" class="edge">
<title>Insert Fine Notification&#45;&gt;Appeal to Judge</title>
<path fill="none" stroke="#ff0000" stroke-width="0.64" stroke-dasharray="5,2" d="M84.68,-703.62C84.34,-665.65 85.43,-572.62 102,-497 102.55,-494.49 103.24,-491.92 104.02,-489.36"/>
<polygon fill="#ff0000" stroke="#ff0000" stroke-width="0.64" points="107.27,-490.67 107.22,-480.07 100.65,-488.38 107.27,-490.67"/>
<text text-anchor="middle" x="93.5" y="-587.8" font-family="Times,serif" font-size="14.00">5</text>
</g>
<!-- Add penalty&#45;&gt;Insert Date Appeal to Prefecture -->
<g id="edge5" class="edge">
<title>Add penalty&#45;&gt;Insert Date Appeal to Prefecture</title>
<path fill="none" stroke="#ff0000" stroke-width="0.53" stroke-dasharray="5,2" d="M348.56,-616.59C328.33,-603.76 300.59,-586.17 278.49,-572.15"/>
<polygon fill="#ff0000" stroke="#ff0000" stroke-width="0.53" points="280.41,-569.22 270.09,-566.82 276.66,-575.13 280.41,-569.22"/>
<text text-anchor="middle" x="320.5" y="-587.8" font-family="Times,serif" font-size="14.00">2</text>
</g>
<!-- Send Appeal to Prefecture -->
<g id="node7" class="node">
<title>Send Appeal to Prefecture</title>
<polygon fill="#fdfdff" stroke="black" points="331.5,-392 152.5,-392 152.5,-356 331.5,-356 331.5,-392"/>
<text text-anchor="middle" x="242" y="-370.3" font-family="Times,serif" font-size="14.00">Send Appeal to Prefecture (7)</text>
</g>
<!-- Add penalty&#45;&gt;Send Appeal to Prefecture -->
<g id="edge17" class="edge">
<title>Add penalty&#45;&gt;Send Appeal to Prefecture</title>
<path fill="none" stroke="#ff0000" stroke-width="0.5" stroke-dasharray="5,2" d="M384.12,-616.54C401.88,-575.51 438.83,-471.73 390,-410 383,-401.16 364.2,-394.32 342.25,-389.13"/>
<polygon fill="#ff0000" stroke="#ff0000" stroke-width="0.5" points="343.23,-385.76 332.71,-387.03 341.72,-392.6 343.23,-385.76"/>
<text text-anchor="middle" x="417.5" y="-500.8" font-family="Times,serif" font-size="14.00">1</text>
</g>
<!-- Add penalty&#45;&gt;Payment -->
<g id="edge11" class="edge">
<title>Add penalty&#45;&gt;Payment</title>
<path fill="none" stroke="#000000" stroke-width="1.26" d="M431.06,-627.51C477.35,-618.63 536,-597.75 536,-549 536,-549 536,-549 536,-199 536,-161.05 428.05,-135.77 356.94,-123.24"/>
<polygon fill="#000000" stroke="#000000" stroke-width="1.26" points="357.76,-119.83 347.31,-121.58 356.57,-126.73 357.76,-119.83"/>
<text text-anchor="middle" x="543" y="-370.3" font-family="Times,serif" font-size="14.00">23</text>
</g>
<!-- Receive Result Appeal from Prefecture -->
<g id="node10" class="node">
<title>Receive Result Appeal from Prefecture</title>
<polygon fill="#ffffff" stroke="black" points="429,-305 179,-305 179,-269 429,-269 429,-305"/>
<text text-anchor="middle" x="304" y="-283.3" font-family="Times,serif" font-size="14.00">Receive Result Appeal from Prefecture (4)</text>
</g>
<!-- Add penalty&#45;&gt;Receive Result Appeal from Prefecture -->
<g id="edge22" class="edge">
<title>Add penalty&#45;&gt;Receive Result Appeal from Prefecture</title>
<path fill="none" stroke="#ff0000" stroke-width="0.57" stroke-dasharray="5,2" d="M394.81,-616.81C417.07,-595.01 452.79,-555.02 466,-512 490.66,-431.7 518.75,-388.37 466,-323 461.29,-317.17 451.8,-312.26 439.66,-308.15"/>
<polygon fill="#ff0000" stroke="#ff0000" stroke-width="0.57" points="440.8,-304.84 430.22,-305.26 438.76,-311.53 440.8,-304.84"/>
<text text-anchor="middle" x="491.5" y="-457.3" font-family="Times,serif" font-size="14.00">3</text>
</g>
<!-- Insert Date Appeal to Prefecture&#45;&gt;Add penalty -->
<g id="edge10" class="edge">
<title>Insert Date Appeal to Prefecture&#45;&gt;Add penalty</title>
<path fill="none" stroke="#ff0000" stroke-width="0.53" stroke-dasharray="5,2" d="M254.87,-566.11C263.56,-576.72 275.82,-589.99 289,-599 296.25,-603.95 304.3,-608.37 312.5,-612.26"/>
<polygon fill="#ff0000" stroke="#ff0000" stroke-width="0.53" points="310.85,-615.36 321.41,-616.25 313.71,-608.97 310.85,-615.36"/>
<text text-anchor="middle" x="292.5" y="-587.8" font-family="Times,serif" font-size="14.00">2</text>
</g>
<!-- Insert Date Appeal to Prefecture&#45;&gt;Send Appeal to Prefecture -->
<g id="edge6" class="edge">
<title>Insert Date Appeal to Prefecture&#45;&gt;Send Appeal to Prefecture</title>
<path fill="none" stroke="#ff0000" stroke-width="0.64" stroke-dasharray="5,2" d="M242,-529.56C242,-499.81 242,-439.01 242,-403.17"/>
<polygon fill="#ff0000" stroke="#ff0000" stroke-width="0.64" points="245.5,-403.45 242,-393.45 238.5,-403.45 245.5,-403.45"/>
<text text-anchor="middle" x="245.5" y="-457.3" font-family="Times,serif" font-size="14.00">5</text>
</g>
<!-- Insert Date Appeal to Prefecture&#45;&gt;Payment -->
<g id="edge14" class="edge">
<title>Insert Date Appeal to Prefecture&#45;&gt;Payment</title>
<path fill="none" stroke="#ff0000" stroke-width="0.5" stroke-dasharray="5,2" d="M348.16,-537.83C382.21,-532.61 413.99,-524.5 425,-512 522.01,-401.89 503.81,-298.06 414,-182 398.5,-161.96 375.3,-146.79 353.57,-135.91"/>
<polygon fill="#ff0000" stroke="#ff0000" stroke-width="0.5" points="355.26,-132.84 344.73,-131.69 352.24,-139.16 355.26,-132.84"/>
<text text-anchor="middle" x="491.5" y="-326.8" font-family="Times,serif" font-size="14.00">1</text>
</g>
<!-- Insert Date Appeal to Prefecture&#45;&gt;Appeal to Judge -->
<g id="edge24" class="edge">
<title>Insert Date Appeal to Prefecture&#45;&gt;Appeal to Judge</title>
<path fill="none" stroke="#ff0000" stroke-width="0.5" stroke-dasharray="5,2" d="M215.99,-529.59C196.9,-516.82 170.77,-499.32 149.87,-485.34"/>
<polygon fill="#ff0000" stroke="#ff0000" stroke-width="0.5" points="151.86,-482.46 141.6,-479.8 147.96,-488.27 151.86,-482.46"/>
<text text-anchor="middle" x="189.5" y="-500.8" font-family="Times,serif" font-size="14.00">1</text>
</g>
<!-- Send Appeal to Prefecture&#45;&gt;Add penalty -->
<g id="edge21" class="edge">
<title>Send Appeal to Prefecture&#45;&gt;Add penalty</title>
<path fill="none" stroke="#ff0000" stroke-width="0.6" stroke-dasharray="5,2" d="M259.19,-392.34C284.84,-419.32 332.72,-474.06 357,-530 367.59,-554.4 372.28,-584.51 374.36,-606.05"/>
<polygon fill="#ff0000" stroke="#ff0000" stroke-width="0.6" points="370.85,-606.15 375.16,-615.83 377.83,-605.58 370.85,-606.15"/>
<text text-anchor="middle" x="351.5" y="-500.8" font-family="Times,serif" font-size="14.00">4</text>
</g>
<!-- Send Appeal to Prefecture&#45;&gt;Payment -->
<g id="edge7" class="edge">
<title>Send Appeal to Prefecture&#45;&gt;Payment</title>
<path fill="none" stroke="#ff0000" stroke-width="0.5" stroke-dasharray="5,2" d="M214.38,-355.53C198.13,-343.53 179.05,-326 170,-305 159.62,-280.93 164.95,-202.37 178,-182 191.72,-160.58 214.75,-145.16 236.84,-134.47"/>
<polygon fill="#ff0000" stroke="#ff0000" stroke-width="0.5" points="238.22,-137.69 245.86,-130.35 235.31,-131.32 238.22,-137.69"/>
<text text-anchor="middle" x="169.5" y="-239.8" font-family="Times,serif" font-size="14.00">1</text>
</g>
<!-- Send Appeal to Prefecture&#45;&gt;Appeal to Judge -->
<g id="edge23" class="edge">
<title>Send Appeal to Prefecture&#45;&gt;Appeal to Judge</title>
<path fill="none" stroke="#ff0000" stroke-width="0.5" stroke-dasharray="5,2" d="M217.51,-392.37C203.66,-402.1 185.97,-414.38 170,-425 164.11,-428.92 157.82,-433.01 151.67,-436.95"/>
<polygon fill="#ff0000" stroke="#ff0000" stroke-width="0.5" points="150.02,-433.85 143.48,-442.18 153.79,-439.75 150.02,-433.85"/>
<text text-anchor="middle" x="194.5" y="-413.8" font-family="Times,serif" font-size="14.00">1</text>
</g>
<!-- Send Appeal to Prefecture&#45;&gt;Receive Result Appeal from Prefecture -->
<g id="edge18" class="edge">
<title>Send Appeal to Prefecture&#45;&gt;Receive Result Appeal from Prefecture</title>
<path fill="none" stroke="#ff0000" stroke-width="0.5" stroke-dasharray="5,2" d="M254.55,-355.8C263.31,-343.78 275.17,-327.52 285.08,-313.94"/>
<polygon fill="#ff0000" stroke="#ff0000" stroke-width="0.5" points="287.75,-316.22 290.81,-306.08 282.09,-312.1 287.75,-316.22"/>
<text text-anchor="middle" x="279.5" y="-326.8" font-family="Times,serif" font-size="14.00">1</text>
</g>
<!-- Payment&#45;&gt;Add penalty -->
<g id="edge16" class="edge">
<title>Payment&#45;&gt;Add penalty</title>
<path fill="none" stroke="#ff0000" stroke-width="0.67" stroke-dasharray="5,2" d="M345.19,-118.23C427.93,-126.72 586,-149.42 586,-199 586,-549 586,-549 586,-549 586,-611.98 503.83,-629.43 442.29,-633.67"/>
<polygon fill="#ff0000" stroke="#ff0000" stroke-width="0.67" points="442.25,-630.16 432.46,-634.23 442.65,-637.15 442.25,-630.16"/>
<text text-anchor="middle" x="589.5" y="-370.3" font-family="Times,serif" font-size="14.00">6</text>
</g>
<!-- Payment&#45;&gt;Payment -->
<g id="edge8" class="edge">
<title>Payment&#45;&gt;Payment</title>
<path fill="none" stroke="#000000" stroke-width="6" d="M345.38,-120.87C355.63,-120.04 363,-117.42 363,-113 363,-111.62 362.28,-110.41 360.98,-109.38"/>
<polygon fill="#000000" stroke="#000000" stroke-width="6" points="362.63,-104.39 351.6,-106.83 359.87,-114.52 362.63,-104.39"/>
<text text-anchor="middle" x="373.5" y="-109.3" font-family="Times,serif" font-size="14.00">161</text>
</g>
<!-- end_node -->
<g id="node12" class="node">
<title>end_node</title>
<ellipse fill="none" stroke="black" cx="296" cy="-22" rx="18" ry="18"/>
<ellipse fill="none" stroke="black" cx="296" cy="-22" rx="22" ry="22"/>
<text text-anchor="start" x="291.5" y="-18.3" font-family="Times,serif" font-size="14.00">■</text>
</g>
<!-- Payment&#45;&gt;end_node -->
<g id="edge28" class="edge">
<title>Payment&#45;&gt;end_node</title>
<path fill="none" stroke="#000000" stroke-width="7.2" d="M296,-94.84C296,-85.13 296,-72.59 296,-60.72"/>
<polygon fill="#000000" stroke="#000000" stroke-width="7.2" points="302.3,-60.95 296,-50.95 289.7,-60.95 302.3,-60.95"/>
<text text-anchor="middle" x="306.5" y="-65.8" font-family="Times,serif" font-size="14.00">196</text>
</g>
<!-- Appeal to Judge&#45;&gt;Add penalty -->
<g id="edge13" class="edge">
<title>Appeal to Judge&#45;&gt;Add penalty</title>
<path fill="none" stroke="#ff0000" stroke-width="0.67" stroke-dasharray="5,2" d="M110.21,-479.26C105.08,-501.83 100.12,-541.39 120,-566 143.73,-595.37 242.35,-615.04 310.02,-625.37"/>
<polygon fill="#ff0000" stroke="#ff0000" stroke-width="0.67" points="309.19,-628.78 319.6,-626.8 310.22,-621.86 309.19,-628.78"/>
<text text-anchor="middle" x="123.5" y="-544.3" font-family="Times,serif" font-size="14.00">6</text>
</g>
<!-- Appeal to Judge&#45;&gt;Send Appeal to Prefecture -->
<g id="edge25" class="edge">
<title>Appeal to Judge&#45;&gt;Send Appeal to Prefecture</title>
<path fill="none" stroke="#ff0000" stroke-width="0.5" stroke-dasharray="5,2" d="M128.35,-442.55C137.06,-432.08 149.15,-419.07 162,-410 168.87,-405.15 176.52,-400.77 184.28,-396.86"/>
<polygon fill="#ff0000" stroke="#ff0000" stroke-width="0.5" points="185.56,-400.13 193.09,-392.67 182.55,-393.81 185.56,-400.13"/>
<text text-anchor="middle" x="165.5" y="-413.8" font-family="Times,serif" font-size="14.00">1</text>
</g>
<!-- Appeal to Judge&#45;&gt;Payment -->
<g id="edge27" class="edge">
<title>Appeal to Judge&#45;&gt;Payment</title>
<path fill="none" stroke="#ff0000" stroke-width="0.5" stroke-dasharray="5,2" d="M101.23,-442.55C89.66,-426.11 75,-400.28 75,-375 75,-375 75,-375 75,-199 75,-164.32 171,-138.43 236.45,-124.81"/>
<polygon fill="#ff0000" stroke="#ff0000" stroke-width="0.5" points="236.84,-128.3 245.94,-122.88 235.44,-121.44 236.84,-128.3"/>
<text text-anchor="middle" x="78.5" y="-283.3" font-family="Times,serif" font-size="14.00">1</text>
</g>
<!-- Notify Result Appeal to Offender -->
<g id="node11" class="node">
<title>Notify Result Appeal to Offender</title>
<polygon fill="#ffffff" stroke="black" points="405,-218 187,-218 187,-182 405,-182 405,-218"/>
<text text-anchor="middle" x="296" y="-196.3" font-family="Times,serif" font-size="14.00">Notify Result Appeal to Offender (4)</text>
</g>
<!-- Receive Result Appeal from Prefecture&#45;&gt;Notify Result Appeal to Offender -->
<g id="edge19" class="edge">
<title>Receive Result Appeal from Prefecture&#45;&gt;Notify Result Appeal to Offender</title>
<path fill="none" stroke="#ff0000" stroke-width="0.6" stroke-dasharray="5,2" d="M302.38,-268.8C301.31,-257.47 299.89,-242.36 298.66,-229.29"/>
<polygon fill="#ff0000" stroke="#ff0000" stroke-width="0.6" points="302.15,-229 297.73,-219.38 295.18,-229.66 302.15,-229"/>
<text text-anchor="middle" x="303.5" y="-239.8" font-family="Times,serif" font-size="14.00">4</text>
</g>
<!-- Notify Result Appeal to Offender&#45;&gt;Payment -->
<g id="edge20" class="edge">
<title>Notify Result Appeal to Offender&#45;&gt;Payment</title>
<path fill="none" stroke="#ff0000" stroke-width="0.57" stroke-dasharray="5,2" d="M296,-181.8C296,-170.47 296,-155.36 296,-142.29"/>
<polygon fill="#ff0000" stroke="#ff0000" stroke-width="0.57" points="299.5,-142.33 296,-132.33 292.5,-142.33 299.5,-142.33"/>
<text text-anchor="middle" x="299.5" y="-152.8" font-family="Times,serif" font-size="14.00">3</text>
</g>
<!-- Notify Result Appeal to Offender&#45;&gt;Appeal to Judge -->
<g id="edge26" class="edge">
<title>Notify Result Appeal to Offender&#45;&gt;Appeal to Judge</title>
<path fill="none" stroke="#ff0000" stroke-width="0.5" stroke-dasharray="5,2" d="M186.69,-217.36C177.14,-222.17 168.34,-228.28 161,-236 109.72,-289.97 108.88,-385.08 112.11,-432.09"/>
<polygon fill="#ff0000" stroke="#ff0000" stroke-width="0.5" points="108.61,-432.24 112.9,-441.93 115.59,-431.68 108.61,-432.24"/>
<text text-anchor="middle" x="122.5" y="-326.8" font-family="Times,serif" font-size="14.00">1</text>
</g>
</g>
</svg>
