<?xml version="1.0" encoding="UTF-8" standalone="no"?>
<!DOCTYPE svg PUBLIC "-//W3C//DTD SVG 1.1//EN"
 "http://www.w3.org/Graphics/SVG/1.1/DTD/svg11.dtd">
<!-- Generated by graphviz version 7.0.4 (0)
 -->
<!-- Title: dfg Pages: 1 -->
<svg width="806pt" height="1096pt"
 viewBox="0.00 0.00 806.00 1096.00" xmlns="http://www.w3.org/2000/svg" xmlns:xlink="http://www.w3.org/1999/xlink">
<g id="graph0" class="graph" transform="scale(1 1) rotate(0) translate(4 1092)">
<title>dfg</title>
<polygon fill="white" stroke="none" points="-4,4 -4,-1092 802,-1092 802,4 -4,4"/>
<!-- start_node -->
<g id="node1" class="node">
<title>start_node</title>
<ellipse fill="none" stroke="black" cx="382" cy="-1070" rx="18" ry="18"/>
<text text-anchor="start" x="377.5" y="-1066.3" font-family="Times,serif" font-size="14.00">●</text>
</g>
<!-- Create Fine -->
<g id="node2" class="node">
<title>Create Fine</title>
<polygon fill="#9b9bff" stroke="black" points="438.5,-1001 325.5,-1001 325.5,-965 438.5,-965 438.5,-1001"/>
<text text-anchor="middle" x="382" y="-979.3" font-family="Times,serif" font-size="14.00">Create Fine (401)</text>
</g>
<!-- start_node&#45;&gt;Create Fine -->
<g id="edge1" class="edge">
<title>start_node&#45;&gt;Create Fine</title>
<path fill="none" stroke="#000000" stroke-width="6.03" d="M382,-1051.8C382,-1041.96 382,-1029.27 382,-1017.53"/>
<polygon fill="#000000" stroke="#000000" stroke-width="6.03" points="387.27,-1017.93 382,-1007.93 376.73,-1017.93 387.27,-1017.93"/>
<text text-anchor="middle" x="392.5" y="-1022.8" font-family="Times,serif" font-size="14.00">401</text>
</g>
<!-- Send Fine -->
<g id="node3" class="node">
<title>Send Fine</title>
<polygon fill="#9b9bff" stroke="black" points="522,-914 418,-914 418,-878 522,-878 522,-914"/>
<text text-anchor="middle" x="470" y="-892.3" font-family="Times,serif" font-size="14.00">Send Fine (401)</text>
</g>
<!-- Create Fine&#45;&gt;Send Fine -->
<g id="edge2" class="edge">
<title>Create Fine&#45;&gt;Send Fine</title>
<path fill="none" stroke="#000000" stroke-width="6" d="M399.81,-964.8C411.42,-953.58 426.86,-938.67 440.3,-925.69"/>
<polygon fill="#000000" stroke="#000000" stroke-width="6" points="443.73,-929.67 447.27,-918.95 436.43,-922.12 443.73,-929.67"/>
<text text-anchor="middle" x="441.5" y="-935.8" font-family="Times,serif" font-size="14.00">399</text>
</g>
<!-- Insert Date Appeal to Prefecture -->
<g id="node6" class="node">
<title>Insert Date Appeal to Prefecture</title>
<polygon fill="#9b9bff" stroke="black" points="587.5,-653 362.5,-653 362.5,-617 587.5,-617 587.5,-653"/>
<text text-anchor="middle" x="475" y="-631.3" font-family="Times,serif" font-size="14.00">Insert Date Appeal to Prefecture (400)</text>
</g>
<!-- Create Fine&#45;&gt;Insert Date Appeal to Prefecture -->
<g id="edge40" class="edge">
<title>Create Fine&#45;&gt;Insert Date Appeal to Prefecture</title>
<path fill="none" stroke="#ff0000" stroke-width="0.5" stroke-dasharray="5,2" d="M386.46,-964.69C391.79,-944.05 400.99,-908.49 409,-878 433.18,-785.93 437.5,-762.43 464,-671 464.7,-668.57 465.45,-666.06 466.22,-663.54"/>
<polygon fill="#ff0000" stroke="#ff0000" stroke-width="0.5" points="469.52,-664.71 469.14,-654.12 462.83,-662.64 469.52,-664.71"/>
<text text-anchor="middle" x="434.5" y="-805.3" font-family="Times,serif" font-size="14.00">1</text>
</g>
<!-- Payment -->
<g id="node12" class="node">
<title>Payment</title>
<polygon fill="#f8f8ff" stroke="black" points="225.5,-218 134.5,-218 134.5,-182 225.5,-182 225.5,-218"/>
<text text-anchor="middle" x="180" y="-196.3" font-family="Times,serif" font-size="14.00">Payment (51)</text>
</g>
<!-- Create Fine&#45;&gt;Payment -->
<g id="edge31" class="edge">
<title>Create Fine&#45;&gt;Payment</title>
<path fill="none" stroke="#ff0000" stroke-width="0.5" stroke-dasharray="5,2" d="M325.22,-981.04C218.81,-977.7 0,-962.82 0,-897 0,-897 0,-897 0,-286 0,-230.55 70.71,-211.22 123.49,-204.51"/>
<polygon fill="#ff0000" stroke="#ff0000" stroke-width="0.5" points="123.82,-208 133.36,-203.38 123.03,-201.04 123.82,-208"/>
<text text-anchor="middle" x="3.5" y="-587.8" font-family="Times,serif" font-size="14.00">1</text>
</g>
<!-- Insert Fine Notification -->
<g id="node4" class="node">
<title>Insert Fine Notification</title>
<polygon fill="#a1a1ff" stroke="black" points="675.5,-827 498.5,-827 498.5,-791 675.5,-791 675.5,-827"/>
<text text-anchor="middle" x="587" y="-805.3" font-family="Times,serif" font-size="14.00">Insert Fine Notification (376)</text>
</g>
<!-- Send Fine&#45;&gt;Insert Fine Notification -->
<g id="edge3" class="edge">
<title>Send Fine&#45;&gt;Insert Fine Notification</title>
<path fill="none" stroke="#000000" stroke-width="5.65" d="M493.96,-877.59C510.05,-865.91 531.57,-850.27 549.86,-836.98"/>
<polygon fill="#000000" stroke="#000000" stroke-width="5.65" points="552.73,-841.01 557.92,-831.13 546.92,-833 552.73,-841.01"/>
<text text-anchor="middle" x="545.5" y="-848.8" font-family="Times,serif" font-size="14.00">374</text>
</g>
<!-- Send Fine&#45;&gt;Insert Date Appeal to Prefecture -->
<g id="edge16" class="edge">
<title>Send Fine&#45;&gt;Insert Date Appeal to Prefecture</title>
<path fill="none" stroke="#000000" stroke-width="0.83" d="M470.34,-877.6C471.18,-833.74 473.41,-718.29 474.45,-664.43"/>
<polygon fill="#000000" stroke="#000000" stroke-width="0.83" points="477.95,-664.64 474.64,-654.58 470.95,-664.51 477.95,-664.64"/>
<text text-anchor="middle" x="479" y="-761.8" font-family="Times,serif" font-size="14.00">25</text>
</g>
<!-- Send Appeal to Prefecture -->
<g id="node7" class="node">
<title>Send Appeal to Prefecture</title>
<polygon fill="#9b9bff" stroke="black" points="507,-479 315,-479 315,-443 507,-443 507,-479"/>
<text text-anchor="middle" x="411" y="-457.3" font-family="Times,serif" font-size="14.00">Send Appeal to Prefecture (400)</text>
</g>
<!-- Send Fine&#45;&gt;Send Appeal to Prefecture -->
<g id="edge42" class="edge">
<title>Send Fine&#45;&gt;Send Appeal to Prefecture</title>
<path fill="none" stroke="#ff0000" stroke-width="0.5" stroke-dasharray="5,2" d="M522.3,-887.02C592.1,-874.87 707,-848.96 707,-810 707,-810 707,-810 707,-590.5 707,-505.26 602.44,-475.95 517.61,-466.2"/>
<polygon fill="#ff0000" stroke="#ff0000" stroke-width="0.5" points="518.17,-462.74 507.86,-465.16 517.43,-469.7 518.17,-462.74"/>
<text text-anchor="middle" x="710.5" y="-674.8" font-family="Times,serif" font-size="14.00">1</text>
</g>
<!-- Appeal to Judge -->
<g id="node11" class="node">
<title>Appeal to Judge</title>
<polygon fill="#ffffff" stroke="black" points="707.5,-305 576.5,-305 576.5,-269 707.5,-269 707.5,-305"/>
<text text-anchor="middle" x="642" y="-283.3" font-family="Times,serif" font-size="14.00">Appeal to Judge (26)</text>
</g>
<!-- Send Fine&#45;&gt;Appeal to Judge -->
<g id="edge39" class="edge">
<title>Send Fine&#45;&gt;Appeal to Judge</title>
<path fill="none" stroke="#ff0000" stroke-width="0.5" stroke-dasharray="5,2" d="M522.29,-891.94C613.25,-885.17 791,-864.91 791,-810 791,-810 791,-810 791,-373 791,-335.27 754.51,-314.07 717.65,-302.28"/>
<polygon fill="#ff0000" stroke="#ff0000" stroke-width="0.5" points="719.1,-299.05 708.51,-299.55 717.1,-305.76 719.1,-299.05"/>
<text text-anchor="middle" x="794.5" y="-587.8" font-family="Times,serif" font-size="14.00">1</text>
</g>
<!-- Add penalty -->
<g id="node5" class="node">
<title>Add penalty</title>
<polygon fill="#a1a1ff" stroke="black" points="352,-740 236,-740 236,-704 352,-704 352,-740"/>
<text text-anchor="middle" x="294" y="-718.3" font-family="Times,serif" font-size="14.00">Add penalty (376)</text>
</g>
<!-- Insert Fine Notification&#45;&gt;Add penalty -->
<g id="edge4" class="edge">
<title>Insert Fine Notification&#45;&gt;Add penalty</title>
<path fill="none" stroke="#000000" stroke-width="1.72" d="M560.07,-790.57C551.42,-784.96 541.8,-778.72 533,-773 522.77,-766.35 521.38,-762.4 510,-758 463.41,-739.97 407.68,-731.22 364.5,-726.99"/>
<polygon fill="#000000" stroke="#000000" stroke-width="1.72" points="364.96,-723.51 354.68,-726.09 364.33,-730.49 364.96,-723.51"/>
<text text-anchor="middle" x="540" y="-761.8" font-family="Times,serif" font-size="14.00">89</text>
</g>
<!-- Insert Fine Notification&#45;&gt;Insert Date Appeal to Prefecture -->
<g id="edge7" class="edge">
<title>Insert Fine Notification&#45;&gt;Insert Date Appeal to Prefecture</title>
<path fill="none" stroke="#000000" stroke-width="4.38" d="M590.91,-790.74C596.24,-762.5 602.25,-706.06 575,-671 572.62,-667.94 569.95,-665.14 567.06,-662.59"/>
<polygon fill="#000000" stroke="#000000" stroke-width="4.38" points="569.46,-659.59 559.08,-656.94 565.03,-665.85 569.46,-659.59"/>
<text text-anchor="middle" x="605.5" y="-718.3" font-family="Times,serif" font-size="14.00">282</text>
</g>
<!-- Insert Fine Notification&#45;&gt;Send Appeal to Prefecture -->
<g id="edge25" class="edge">
<title>Insert Fine Notification&#45;&gt;Send Appeal to Prefecture</title>
<path fill="none" stroke="#ff0000" stroke-width="0.51" stroke-dasharray="5,2" d="M549.18,-790.56C537.52,-785.06 524.68,-778.88 513,-773 500.39,-766.65 498.57,-761.91 485,-758 323.19,-711.34 217.41,-818.13 113,-686 48.52,-604.39 156.68,-540.83 251,-497 261.57,-492.09 281.76,-486.74 304.34,-481.73"/>
<polygon fill="#ff0000" stroke="#ff0000" stroke-width="0.51" points="305.06,-485.15 314.1,-479.62 303.58,-478.31 305.06,-485.15"/>
<text text-anchor="middle" x="100.5" y="-631.3" font-family="Times,serif" font-size="14.00">2</text>
</g>
<!-- Insert Fine Notification&#45;&gt;Appeal to Judge -->
<g id="edge14" class="edge">
<title>Insert Fine Notification&#45;&gt;Appeal to Judge</title>
<path fill="none" stroke="#ff0000" stroke-width="0.53" stroke-dasharray="5,2" d="M675.83,-794.98C715.3,-783.66 753,-762.5 753,-723 753,-723 753,-723 753,-373 753,-344.03 728.88,-323.6 703.12,-310.04"/>
<polygon fill="#ff0000" stroke="#ff0000" stroke-width="0.53" points="704.83,-306.98 694.32,-305.71 701.74,-313.26 704.83,-306.98"/>
<text text-anchor="middle" x="756.5" y="-544.3" font-family="Times,serif" font-size="14.00">3</text>
</g>
<!-- Add penalty&#45;&gt;Insert Date Appeal to Prefecture -->
<g id="edge5" class="edge">
<title>Add penalty&#45;&gt;Insert Date Appeal to Prefecture</title>
<path fill="none" stroke="#000000" stroke-width="1.72" d="M332.75,-703.58C343.95,-698.23 356.1,-692.13 367,-686 377.64,-680.02 379.2,-676.68 390,-671 398.54,-666.51 407.79,-662.18 416.93,-658.2"/>
<polygon fill="#000000" stroke="#000000" stroke-width="1.72" points="418.16,-661.48 426.01,-654.36 415.44,-655.03 418.16,-661.48"/>
<text text-anchor="middle" x="397" y="-674.8" font-family="Times,serif" font-size="14.00">89</text>
</g>
<!-- Add penalty&#45;&gt;Send Appeal to Prefecture -->
<g id="edge9" class="edge">
<title>Add penalty&#45;&gt;Send Appeal to Prefecture</title>
<path fill="none" stroke="#000000" stroke-width="3.39" d="M283.37,-703.58C263.13,-667.95 224.16,-585.44 260,-530 273.18,-509.6 294.11,-495.26 316.23,-485.21"/>
<polygon fill="#000000" stroke="#000000" stroke-width="3.39" points="317.45,-488.49 325.36,-481.44 314.78,-482.02 317.45,-488.49"/>
<text text-anchor="middle" x="257.5" y="-587.8" font-family="Times,serif" font-size="14.00">210</text>
</g>
<!-- Receive Result Appeal from Prefecture -->
<g id="node8" class="node">
<title>Receive Result Appeal from Prefecture</title>
<polygon fill="#e7e7ff" stroke="black" points="532.5,-566 269.5,-566 269.5,-530 532.5,-530 532.5,-566"/>
<text text-anchor="middle" x="401" y="-544.3" font-family="Times,serif" font-size="14.00">Receive Result Appeal from Prefecture (114)</text>
</g>
<!-- Add penalty&#45;&gt;Receive Result Appeal from Prefecture -->
<g id="edge11" class="edge">
<title>Add penalty&#45;&gt;Receive Result Appeal from Prefecture</title>
<path fill="none" stroke="#000000" stroke-width="1.43" d="M292.49,-703.54C291.26,-682.43 291.1,-646.13 301,-617 306.67,-600.31 309.54,-595.39 323,-584 328.3,-579.52 334.26,-575.5 340.48,-571.94"/>
<polygon fill="#000000" stroke="#000000" stroke-width="1.43" points="341.96,-575.11 349.18,-567.36 338.7,-568.92 341.96,-575.11"/>
<text text-anchor="middle" x="308" y="-631.3" font-family="Times,serif" font-size="14.00">68</text>
</g>
<!-- Notify Result Appeal to Offender -->
<g id="node9" class="node">
<title>Notify Result Appeal to Offender</title>
<polygon fill="#e9e9ff" stroke="black" points="471,-392 239,-392 239,-356 471,-356 471,-392"/>
<text text-anchor="middle" x="355" y="-370.3" font-family="Times,serif" font-size="14.00">Notify Result Appeal to Offender (106)</text>
</g>
<!-- Add penalty&#45;&gt;Notify Result Appeal to Offender -->
<g id="edge19" class="edge">
<title>Add penalty&#45;&gt;Notify Result Appeal to Offender</title>
<path fill="none" stroke="#ff0000" stroke-width="0.6" stroke-dasharray="5,2" d="M269.25,-703.66C254.25,-691.48 236.59,-673.7 229,-653 210.13,-601.5 203.41,-582.59 219,-530 237.08,-469.01 251.28,-454.22 297,-410 301.39,-405.76 306.38,-401.8 311.55,-398.18"/>
<polygon fill="#ff0000" stroke="#ff0000" stroke-width="0.6" points="313.14,-401.32 319.59,-392.92 309.31,-395.46 313.14,-401.32"/>
<text text-anchor="middle" x="222.5" y="-544.3" font-family="Times,serif" font-size="14.00">8</text>
</g>
<!-- Add penalty&#45;&gt;Payment -->
<g id="edge37" class="edge">
<title>Add penalty&#45;&gt;Payment</title>
<path fill="none" stroke="#ff0000" stroke-width="0.5" stroke-dasharray="5,2" d="M258.79,-703.6C250.47,-698.58 242,-692.64 235,-686 222.21,-673.87 220.38,-669.01 213,-653 162.5,-543.51 156.71,-511.26 139,-392 128.79,-323.22 118.08,-297.25 151,-236 152.73,-232.77 154.79,-229.57 157,-226.48"/>
<polygon fill="#ff0000" stroke="#ff0000" stroke-width="0.5" points="159.62,-228.81 163.01,-218.77 154.1,-224.51 159.62,-228.81"/>
<text text-anchor="middle" x="156.5" y="-457.3" font-family="Times,serif" font-size="14.00">1</text>
</g>
<!-- Insert Date Appeal to Prefecture&#45;&gt;Send Fine -->
<g id="edge41" class="edge">
<title>Insert Date Appeal to Prefecture&#45;&gt;Send Fine</title>
<path fill="none" stroke="#ff0000" stroke-width="0.5" stroke-dasharray="5,2" d="M472.37,-653.43C471.57,-659.03 470.7,-665.27 470,-671 465.25,-709.58 463,-719.18 461,-758 458.66,-803.33 462.12,-814.78 466,-860 466.2,-862.33 466.43,-864.74 466.67,-867.16"/>
<polygon fill="#ff0000" stroke="#ff0000" stroke-width="0.5" points="463.16,-867.26 467.73,-876.82 470.12,-866.5 463.16,-867.26"/>
<text text-anchor="middle" x="464.5" y="-761.8" font-family="Times,serif" font-size="14.00">1</text>
</g>
<!-- Insert Date Appeal to Prefecture&#45;&gt;Insert Fine Notification -->
<g id="edge24" class="edge">
<title>Insert Date Appeal to Prefecture&#45;&gt;Insert Fine Notification</title>
<path fill="none" stroke="#ff0000" stroke-width="0.51" stroke-dasharray="5,2" d="M486.39,-653.48C506.11,-683.78 546.75,-746.19 569.89,-781.72"/>
<polygon fill="#ff0000" stroke="#ff0000" stroke-width="0.51" points="566.83,-783.44 575.22,-789.91 572.7,-779.62 566.83,-783.44"/>
<text text-anchor="middle" x="545.5" y="-718.3" font-family="Times,serif" font-size="14.00">2</text>
</g>
<!-- Insert Date Appeal to Prefecture&#45;&gt;Add penalty -->
<g id="edge8" class="edge">
<title>Insert Date Appeal to Prefecture&#45;&gt;Add penalty</title>
<path fill="none" stroke="#000000" stroke-width="3.42" d="M381.86,-653.48C367.98,-658.05 354.25,-663.8 342,-671 336.56,-674.2 327.51,-683.18 318.73,-692.66"/>
<polygon fill="#000000" stroke="#000000" stroke-width="3.42" points="316.33,-690.09 312.24,-699.86 321.53,-694.78 316.33,-690.09"/>
<text text-anchor="middle" x="352.5" y="-674.8" font-family="Times,serif" font-size="14.00">212</text>
</g>
<!-- Insert Date Appeal to Prefecture&#45;&gt;Send Appeal to Prefecture -->
<g id="edge6" class="edge">
<title>Insert Date Appeal to Prefecture&#45;&gt;Send Appeal to Prefecture</title>
<path fill="none" stroke="#000000" stroke-width="3.02" d="M499.95,-616.51C526.03,-595.99 560.74,-560.84 542,-530 529.82,-509.96 509.61,-495.56 488.67,-485.33"/>
<polygon fill="#000000" stroke="#000000" stroke-width="3.02" points="490.32,-482.23 479.77,-481.34 487.46,-488.62 490.32,-482.23"/>
<text text-anchor="middle" x="557.5" y="-544.3" font-family="Times,serif" font-size="14.00">183</text>
</g>
<!-- Insert Date Appeal to Prefecture&#45;&gt;Receive Result Appeal from Prefecture -->
<g id="edge35" class="edge">
<title>Insert Date Appeal to Prefecture&#45;&gt;Receive Result Appeal from Prefecture</title>
<path fill="none" stroke="#ff0000" stroke-width="0.51" stroke-dasharray="5,2" d="M460.02,-616.8C449.46,-604.67 435.14,-588.21 423.24,-574.55"/>
<polygon fill="#ff0000" stroke="#ff0000" stroke-width="0.51" points="425.92,-572.3 416.72,-567.05 420.64,-576.89 425.92,-572.3"/>
<text text-anchor="middle" x="445.5" y="-587.8" font-family="Times,serif" font-size="14.00">2</text>
</g>
<!-- Send Appeal to Prefecture&#45;&gt;Add penalty -->
<g id="edge10" class="edge">
<title>Send Appeal to Prefecture&#45;&gt;Add penalty</title>
<path fill="none" stroke="#000000" stroke-width="1.41" d="M314.71,-477.9C299.76,-482.69 284.99,-488.91 272,-497 255.67,-507.17 253.15,-513.08 244,-530 217.99,-578.09 224.18,-602.87 246,-653 252.67,-668.32 254.51,-672.25 264,-686 265.96,-688.84 268.11,-691.72 270.33,-694.54"/>
<polygon fill="#000000" stroke="#000000" stroke-width="1.41" points="267.55,-696.66 276.62,-702.13 272.94,-692.19 267.55,-696.66"/>
<text text-anchor="middle" x="235" y="-587.8" font-family="Times,serif" font-size="14.00">67</text>
</g>
<!-- Send Appeal to Prefecture&#45;&gt;Receive Result Appeal from Prefecture -->
<g id="edge17" class="edge">
<title>Send Appeal to Prefecture&#45;&gt;Receive Result Appeal from Prefecture</title>
<path fill="none" stroke="#000000" stroke-width="1.08" d="M408.95,-479.47C407.62,-490.74 405.86,-505.67 404.34,-518.62"/>
<polygon fill="#000000" stroke="#000000" stroke-width="1.08" points="400.91,-517.83 403.21,-528.17 407.86,-518.65 400.91,-517.83"/>
<text text-anchor="middle" x="413" y="-500.8" font-family="Times,serif" font-size="14.00">43</text>
</g>
<!-- Send Appeal to Prefecture&#45;&gt;Notify Result Appeal to Offender -->
<g id="edge36" class="edge">
<title>Send Appeal to Prefecture&#45;&gt;Notify Result Appeal to Offender</title>
<path fill="none" stroke="#ff0000" stroke-width="0.5" stroke-dasharray="5,2" d="M399.67,-442.8C391.83,-430.9 381.24,-414.83 372.34,-401.32"/>
<polygon fill="#ff0000" stroke="#ff0000" stroke-width="0.5" points="375.35,-399.52 366.92,-393.1 369.5,-403.38 375.35,-399.52"/>
<text text-anchor="middle" x="389.5" y="-413.8" font-family="Times,serif" font-size="14.00">1</text>
</g>
<!-- Send Appeal to Prefecture&#45;&gt;Appeal to Judge -->
<g id="edge43" class="edge">
<title>Send Appeal to Prefecture&#45;&gt;Appeal to Judge</title>
<path fill="none" stroke="#ff0000" stroke-width="0.51" stroke-dasharray="5,2" d="M477.75,-442.51C489.99,-437.82 502.28,-432.04 513,-425 564.28,-391.33 563.32,-367.07 606,-323 609.3,-319.6 612.81,-316.06 616.31,-312.6"/>
<polygon fill="#ff0000" stroke="#ff0000" stroke-width="0.51" points="618.59,-315.28 623.29,-305.78 613.69,-310.27 618.59,-315.28"/>
<text text-anchor="middle" x="580.5" y="-370.3" font-family="Times,serif" font-size="14.00">2</text>
</g>
<!-- Send Appeal to Prefecture&#45;&gt;Payment -->
<g id="edge34" class="edge">
<title>Send Appeal to Prefecture&#45;&gt;Payment</title>
<path fill="none" stroke="#ff0000" stroke-width="0.5" stroke-dasharray="5,2" d="M315.85,-442.64C284.69,-432.6 252.37,-416.81 230,-392 218.98,-379.78 196.37,-278.47 185.75,-228.57"/>
<polygon fill="#ff0000" stroke="#ff0000" stroke-width="0.5" points="189.2,-227.99 183.71,-218.93 182.36,-229.44 189.2,-227.99"/>
<text text-anchor="middle" x="215.5" y="-326.8" font-family="Times,serif" font-size="14.00">1</text>
</g>
<!-- end_node -->
<g id="node13" class="node">
<title>end_node</title>
<ellipse fill="none" stroke="black" cx="487" cy="-22" rx="18" ry="18"/>
<ellipse fill="none" stroke="black" cx="487" cy="-22" rx="22" ry="22"/>
<text text-anchor="start" x="482.5" y="-18.3" font-family="Times,serif" font-size="14.00">■</text>
</g>
<!-- Send Appeal to Prefecture&#45;&gt;end_node -->
<g id="edge45" class="edge">
<title>Send Appeal to Prefecture&#45;&gt;end_node</title>
<path fill="none" stroke="#000000" stroke-width="6.01" d="M436.47,-442.68C452.06,-430.51 470.74,-412.73 480,-392 489.53,-370.67 487.41,-205.22 490,-182 492.55,-159.13 496.99,-153.93 499,-131 500.4,-115.06 500.32,-110.95 499,-95 498.05,-83.51 496.26,-71.09 494.35,-59.86"/>
<polygon fill="#000000" stroke="#000000" stroke-width="6.01" points="499.58,-59.23 492.6,-50.35 489.23,-61.13 499.58,-59.23"/>
<text text-anchor="middle" x="498.5" y="-239.8" font-family="Times,serif" font-size="14.00">400</text>
</g>
<!-- Receive Result Appeal from Prefecture&#45;&gt;Add penalty -->
<g id="edge18" class="edge">
<title>Receive Result Appeal from Prefecture&#45;&gt;Add penalty</title>
<path fill="none" stroke="#ff0000" stroke-width="0.58" stroke-dasharray="5,2" d="M385.54,-566.45C374.14,-579.77 358.66,-598.86 347,-617 330.9,-642.05 315.82,-672.61 305.89,-694.1"/>
<polygon fill="#ff0000" stroke="#ff0000" stroke-width="0.58" points="302.77,-692.5 301.82,-703.06 309.15,-695.4 302.77,-692.5"/>
<text text-anchor="middle" x="350.5" y="-631.3" font-family="Times,serif" font-size="14.00">7</text>
</g>
<!-- Receive Result Appeal from Prefecture&#45;&gt;Send Appeal to Prefecture -->
<g id="edge33" class="edge">
<title>Receive Result Appeal from Prefecture&#45;&gt;Send Appeal to Prefecture</title>
<path fill="none" stroke="#ff0000" stroke-width="0.54" stroke-dasharray="5,2" d="M395.5,-529.74C393.18,-520.04 391.52,-507.76 394,-497 394.61,-494.35 395.45,-491.67 396.43,-489.03"/>
<polygon fill="#ff0000" stroke="#ff0000" stroke-width="0.54" points="399.58,-490.55 400.39,-479.98 393.17,-487.73 399.58,-490.55"/>
<text text-anchor="middle" x="397.5" y="-500.8" font-family="Times,serif" font-size="14.00">4</text>
</g>
<!-- Receive Result Appeal from Prefecture&#45;&gt;Notify Result Appeal to Offender -->
<g id="edge12" class="edge">
<title>Receive Result Appeal from Prefecture&#45;&gt;Notify Result Appeal to Offender</title>
<path fill="none" stroke="#000000" stroke-width="1.8" d="M352.39,-529.63C329.75,-518.81 304.98,-502.4 292,-479 276.95,-451.86 299.95,-421.6 322.27,-400.75"/>
<polygon fill="#000000" stroke="#000000" stroke-width="1.8" points="324.47,-403.48 329.65,-394.23 319.84,-398.23 324.47,-403.48"/>
<text text-anchor="middle" x="299" y="-457.3" font-family="Times,serif" font-size="14.00">95</text>
</g>
<!-- Receive Result Appeal from Prefecture&#45;&gt;Appeal to Judge -->
<g id="edge28" class="edge">
<title>Receive Result Appeal from Prefecture&#45;&gt;Appeal to Judge</title>
<path fill="none" stroke="#ff0000" stroke-width="0.53" stroke-dasharray="5,2" d="M519.45,-529.63C529.77,-525 539.5,-519.21 548,-512 608.59,-460.59 630.91,-363.54 638.47,-315.86"/>
<polygon fill="#ff0000" stroke="#ff0000" stroke-width="0.53" points="641.9,-316.59 639.9,-306.18 634.98,-315.56 641.9,-316.59"/>
<text text-anchor="middle" x="616.5" y="-413.8" font-family="Times,serif" font-size="14.00">3</text>
</g>
<!-- Receive Result Appeal from Prefecture&#45;&gt;Payment -->
<g id="edge44" class="edge">
<title>Receive Result Appeal from Prefecture&#45;&gt;Payment</title>
<path fill="none" stroke="#ff0000" stroke-width="0.5" stroke-dasharray="5,2" d="M335.07,-529.51C323.48,-524.85 311.96,-519.08 302,-512 246.33,-472.43 234.02,-454.29 206,-392 181.7,-337.97 178.57,-267.33 178.96,-228.89"/>
<polygon fill="#ff0000" stroke="#ff0000" stroke-width="0.5" points="182.45,-229.32 179.14,-219.25 175.45,-229.18 182.45,-229.32"/>
<text text-anchor="middle" x="209.5" y="-370.3" font-family="Times,serif" font-size="14.00">1</text>
</g>
<!-- Receive Result Appeal from Prefecture&#45;&gt;end_node -->
<g id="edge49" class="edge">
<title>Receive Result Appeal from Prefecture&#45;&gt;end_node</title>
<path fill="none" stroke="#000000" stroke-width="2.06" d="M473.38,-529.59C505.86,-517.04 537,-496.11 537,-462 537,-462 537,-462 537,-286 537,-255.7 540.89,-248.28 542,-218 544.6,-147.18 536.01,-127.52 509,-62 507.73,-58.92 506.27,-55.78 504.71,-52.68"/>
<polygon fill="#000000" stroke="#000000" stroke-width="2.06" points="507.81,-51.05 499.97,-43.92 501.66,-54.38 507.81,-51.05"/>
<text text-anchor="middle" x="547.5" y="-283.3" font-family="Times,serif" font-size="14.00">114</text>
</g>
<!-- Send for Credit Collection -->
<g id="node10" class="node">
<title>Send for Credit Collection</title>
<polygon fill="#f8f8ff" stroke="black" points="489.5,-131 302.5,-131 302.5,-95 489.5,-95 489.5,-131"/>
<text text-anchor="middle" x="396" y="-109.3" font-family="Times,serif" font-size="14.00">Send for Credit Collection (49)</text>
</g>
<!-- Notify Result Appeal to Offender&#45;&gt;Send for Credit Collection -->
<g id="edge13" class="edge">
<title>Notify Result Appeal to Offender&#45;&gt;Send for Credit Collection</title>
<path fill="none" stroke="#000000" stroke-width="1.11" d="M357.75,-355.6C364.68,-311.83 382.9,-196.77 391.45,-142.77"/>
<polygon fill="#000000" stroke="#000000" stroke-width="1.11" points="394.89,-143.4 393,-132.98 387.98,-142.31 394.89,-143.4"/>
<text text-anchor="middle" x="383" y="-239.8" font-family="Times,serif" font-size="14.00">45</text>
</g>
<!-- Notify Result Appeal to Offender&#45;&gt;Appeal to Judge -->
<g id="edge20" class="edge">
<title>Notify Result Appeal to Offender&#45;&gt;Appeal to Judge</title>
<path fill="none" stroke="#ff0000" stroke-width="0.72" stroke-dasharray="5,2" d="M413.77,-355.59C459.91,-341.93 524.26,-322.87 572.87,-308.47"/>
<polygon fill="#ff0000" stroke="#ff0000" stroke-width="0.72" points="573.67,-311.89 582.26,-305.69 571.68,-305.18 573.67,-311.89"/>
<text text-anchor="middle" x="522" y="-326.8" font-family="Times,serif" font-size="14.00">17</text>
</g>
<!-- Notify Result Appeal to Offender&#45;&gt;Payment -->
<g id="edge23" class="edge">
<title>Notify Result Appeal to Offender&#45;&gt;Payment</title>
<path fill="none" stroke="#000000" stroke-width="0.97" d="M313.39,-355.69C304.41,-350.79 295.4,-344.88 288,-338 248.99,-301.7 260.59,-275.65 225,-236 221.8,-232.44 218.21,-228.97 214.48,-225.69"/>
<polygon fill="#000000" stroke="#000000" stroke-width="0.97" points="216.73,-223.02 206.79,-219.36 212.28,-228.42 216.73,-223.02"/>
<text text-anchor="middle" x="270" y="-283.3" font-family="Times,serif" font-size="14.00">35</text>
</g>
<!-- Notify Result Appeal to Offender&#45;&gt;end_node -->
<g id="edge48" class="edge">
<title>Notify Result Appeal to Offender&#45;&gt;end_node</title>
<path fill="none" stroke="#000000" stroke-width="1.95" d="M347.79,-355.76C325.82,-301.98 262.93,-138.23 293,-95 328.96,-43.3 406.62,-28.65 452.03,-24.54"/>
<polygon fill="#000000" stroke="#000000" stroke-width="1.95" points="452.07,-28.05 461.78,-23.81 451.55,-21.07 452.07,-28.05"/>
<text text-anchor="middle" x="310.5" y="-196.3" font-family="Times,serif" font-size="14.00">106</text>
</g>
<!-- Send for Credit Collection&#45;&gt;end_node -->
<g id="edge46" class="edge">
<title>Send for Credit Collection&#45;&gt;end_node</title>
<path fill="none" stroke="#000000" stroke-width="1.16" d="M413.55,-94.84C427.75,-80.95 447.89,-61.25 463.49,-45.99"/>
<polygon fill="#000000" stroke="#000000" stroke-width="1.16" points="465.67,-48.76 470.37,-39.27 460.77,-43.76 465.67,-48.76"/>
<text text-anchor="middle" x="453" y="-65.8" font-family="Times,serif" font-size="14.00">49</text>
</g>
<!-- Appeal to Judge&#45;&gt;Add penalty -->
<g id="edge15" class="edge">
<title>Appeal to Judge&#45;&gt;Add penalty</title>
<path fill="none" stroke="#ff0000" stroke-width="0.5" stroke-dasharray="5,2" d="M651.68,-305.29C654.26,-310.78 656.69,-316.99 658,-323 664.53,-352.99 658.8,-361.54 655,-392 640.28,-509.91 681.47,-569.42 597,-653 564.45,-685.21 441.68,-704.61 362.76,-714.02"/>
<polygon fill="#ff0000" stroke="#ff0000" stroke-width="0.5" points="362.68,-710.51 353.16,-715.14 363.49,-717.46 362.68,-710.51"/>
<text text-anchor="middle" x="655.5" y="-500.8" font-family="Times,serif" font-size="14.00">1</text>
</g>
<!-- Appeal to Judge&#45;&gt;Insert Date Appeal to Prefecture -->
<g id="edge26" class="edge">
<title>Appeal to Judge&#45;&gt;Insert Date Appeal to Prefecture</title>
<path fill="none" stroke="#ff0000" stroke-width="0.53" stroke-dasharray="5,2" d="M643.39,-305.16C644.65,-325.97 645.45,-361.98 639,-392 621.6,-473.02 616.63,-496.18 572,-566 559.87,-584.97 540.37,-600.16 522.02,-611.32"/>
<polygon fill="#ff0000" stroke="#ff0000" stroke-width="0.53" points="520.45,-608.19 513.56,-616.23 523.96,-614.24 520.45,-608.19"/>
<text text-anchor="middle" x="630.5" y="-457.3" font-family="Times,serif" font-size="14.00">3</text>
</g>
<!-- Appeal to Judge&#45;&gt;Notify Result Appeal to Offender -->
<g id="edge29" class="edge">
<title>Appeal to Judge&#45;&gt;Notify Result Appeal to Offender</title>
<path fill="none" stroke="#ff0000" stroke-width="0.51" stroke-dasharray="5,2" d="M609.42,-305.41C588.17,-316.14 559.55,-329.43 533,-338 514.71,-343.9 495.02,-348.98 475.64,-353.29"/>
<polygon fill="#ff0000" stroke="#ff0000" stroke-width="0.51" points="475.03,-349.84 465.99,-355.38 476.51,-356.68 475.03,-349.84"/>
<text text-anchor="middle" x="572.5" y="-326.8" font-family="Times,serif" font-size="14.00">2</text>
</g>
<!-- Appeal to Judge&#45;&gt;Send for Credit Collection -->
<g id="edge27" class="edge">
<title>Appeal to Judge&#45;&gt;Send for Credit Collection</title>
<path fill="none" stroke="#ff0000" stroke-width="0.51" stroke-dasharray="5,2" d="M617.06,-268.56C572.58,-237.46 479.55,-172.42 429.53,-137.45"/>
<polygon fill="#ff0000" stroke="#ff0000" stroke-width="0.51" points="431.85,-134.79 421.64,-131.93 427.83,-140.53 431.85,-134.79"/>
<text text-anchor="middle" x="546.5" y="-196.3" font-family="Times,serif" font-size="14.00">2</text>
</g>
<!-- Appeal to Judge&#45;&gt;Payment -->
<g id="edge21" class="edge">
<title>Appeal to Judge&#45;&gt;Payment</title>
<path fill="none" stroke="#ff0000" stroke-width="0.54" stroke-dasharray="5,2" d="M576.2,-271.33C571.41,-270.47 566.64,-269.68 562,-269 466.7,-254.96 440.64,-268.99 346,-251 308.65,-243.9 267.74,-231.63 235.87,-221.02"/>
<polygon fill="#ff0000" stroke="#ff0000" stroke-width="0.54" points="237.23,-217.79 226.64,-217.91 235,-224.42 237.23,-217.79"/>
<text text-anchor="middle" x="349.5" y="-239.8" font-family="Times,serif" font-size="14.00">4</text>
</g>
<!-- Appeal to Judge&#45;&gt;end_node -->
<g id="edge50" class="edge">
<title>Appeal to Judge&#45;&gt;end_node</title>
<path fill="none" stroke="#000000" stroke-width="0.85" d="M641.01,-268.58C637.82,-227.61 624.49,-123.97 570,-62 556.8,-46.99 536.6,-37.33 519.43,-31.37"/>
<polygon fill="#000000" stroke="#000000" stroke-width="0.85" points="520.49,-28.04 509.9,-28.36 518.38,-34.71 520.49,-28.04"/>
<text text-anchor="middle" x="628" y="-152.8" font-family="Times,serif" font-size="14.00">26</text>
</g>
<!-- Payment&#45;&gt;Send Fine -->
<g id="edge32" class="edge">
<title>Payment&#45;&gt;Send Fine</title>
<path fill="none" stroke="#ff0000" stroke-width="0.5" stroke-dasharray="5,2" d="M134.26,-210.21C95.44,-221 46,-243.16 46,-286 46,-592.5 46,-592.5 46,-592.5 46,-767.83 289.24,-851.1 407.25,-881.19"/>
<polygon fill="#ff0000" stroke="#ff0000" stroke-width="0.5" points="406.3,-884.56 416.85,-883.58 408,-877.76 406.3,-884.56"/>
<text text-anchor="middle" x="49.5" y="-544.3" font-family="Times,serif" font-size="14.00">1</text>
</g>
<!-- Payment&#45;&gt;Receive Result Appeal from Prefecture -->
<g id="edge38" class="edge">
<title>Payment&#45;&gt;Receive Result Appeal from Prefecture</title>
<path fill="none" stroke="#ff0000" stroke-width="0.5" stroke-dasharray="5,2" d="M167.49,-218.43C164.2,-223.82 161.01,-229.95 159,-236 142.36,-286.19 136.78,-357.9 147,-392 165.33,-453.17 173.05,-476.32 226,-512 236.24,-518.9 247.53,-524.5 259.29,-529.04"/>
<polygon fill="#ff0000" stroke="#ff0000" stroke-width="0.5" points="257.97,-532.28 268.56,-532.35 260.33,-525.69 257.97,-532.28"/>
<text text-anchor="middle" x="150.5" y="-370.3" font-family="Times,serif" font-size="14.00">1</text>
</g>
<!-- Payment&#45;&gt;Send for Credit Collection -->
<g id="edge30" class="edge">
<title>Payment&#45;&gt;Send for Credit Collection</title>
<path fill="none" stroke="#ff0000" stroke-width="0.51" stroke-dasharray="5,2" d="M224.23,-181.59C258.3,-168.19 305.57,-149.59 341.89,-135.29"/>
<polygon fill="#ff0000" stroke="#ff0000" stroke-width="0.51" points="343.08,-138.59 351.1,-131.67 340.52,-132.07 343.08,-138.59"/>
<text text-anchor="middle" x="304.5" y="-152.8" font-family="Times,serif" font-size="14.00">2</text>
</g>
<!-- Payment&#45;&gt;Payment -->
<g id="edge22" class="edge">
<title>Payment&#45;&gt;Payment</title>
<path fill="none" stroke="#ff0000" stroke-width="0.6" stroke-dasharray="5,2" d="M225.95,-207.94C236.1,-207.19 243.5,-204.55 243.5,-200 243.5,-197.3 240.89,-195.27 236.65,-193.91"/>
<polygon fill="#ff0000" stroke="#ff0000" stroke-width="0.6" points="237.29,-190.47 226.84,-192.22 236.1,-197.37 237.29,-190.47"/>
<text text-anchor="middle" x="247" y="-196.3" font-family="Times,serif" font-size="14.00">8</text>
</g>
<!-- Payment&#45;&gt;end_node -->
<g id="edge47" class="edge">
<title>Payment&#45;&gt;end_node</title>
<path fill="none" stroke="#000000" stroke-width="1.19" d="M184.78,-181.85C194,-152.2 217.22,-91.66 260,-62 290.7,-40.71 397.54,-29.72 453,-25.34"/>
<polygon fill="#000000" stroke="#000000" stroke-width="1.19" points="453.14,-28.84 462.84,-24.59 452.61,-21.86 453.14,-28.84"/>
<text text-anchor="middle" x="234" y="-109.3" font-family="Times,serif" font-size="14.00">51</text>
</g>
</g>
</svg>
